<?xml version="1.0" encoding="UTF-8"?>
<svg width="46px" height="46px" viewBox="0 0 46 46" version="1.1" xmlns="http://www.w3.org/2000/svg" xmlns:xlink="http://www.w3.org/1999/xlink">
    <!-- Generator: Sketch 53.2 (72643) - https://sketchapp.com -->
    <title>i-menu-esm</title>
    <desc>Created with Sketch.</desc>
    <defs>
        <polygon id="path-1" points="0.44315 0.002 22.433943 0.002 22.433943 8.4438 0.44315 8.4438"></polygon>
    </defs>
    <g id="Symbols" stroke="none" stroke-width="1" fill="none" fill-rule="evenodd">
        <g id="Website-Parts-/-Navs-/-Nav-Dropdown-Features" transform="translate(-34.000000, -112.000000)">
            <g id="Icons/Menu/ESM" transform="translate(34.000000, 111.000000)">
                <g id="Group-26">
                    <g id="Group-3" transform="translate(6.000000, 0.997800)">
                        <mask id="mask-2" fill="white">
                            <use xlink:href="#path-1"></use>
                        </mask>
                        <g id="Clip-2"></g>
                        <path d="M1.4434,8.4438 C1.1874,8.4438 0.9314,8.3458 0.7364,8.1518 C0.3454,7.7608 0.3454,7.1278 0.7364,6.7368 C1.7754,5.6968 2.9204,4.7528 4.1394,3.9288 C5.3694,3.0978 6.6834,2.3838 8.0474,1.8078 C9.4354,1.2208 10.8884,0.7698 12.3664,0.4668 C15.3954,-0.1532 18.6044,-0.1532 21.6334,0.4668 C22.1744,0.5778 22.5244,1.1058 22.4134,1.6478 C22.3024,2.1878 21.7734,2.5388 21.2334,2.4258 C18.4674,1.8608 15.5324,1.8608 12.7664,2.4258 C11.4194,2.7028 10.0924,3.1138 8.8264,3.6498 C7.5824,4.1758 6.3814,4.8278 5.2584,5.5858 C4.1454,6.3388 3.0994,7.2008 2.1504,8.1508 C1.9554,8.3458 1.6994,8.4438 1.4434,8.4438" id="Fill-1" fill="#0096DC" mask="url(#mask-2)"></path>
                    </g>
                    <path d="M7.4434,40.5544 C7.1874,40.5544 6.9314,40.4564 6.7364,40.2614 C5.6974,39.2224 4.7534,38.0774 3.9284,36.8594 C3.0954,35.6244 2.3814,34.3094 1.8074,32.9504 C1.2204,31.5634 0.7694,30.1104 0.4674,28.6314 C0.1574,27.1164 0.0004,25.5564 0.0004,23.9974 C0.0004,22.4394 0.1574,20.8804 0.4674,19.3644 C0.7704,17.8844 1.2204,16.4314 1.8074,15.0444 C2.0224,14.5344 2.6124,14.2994 3.1184,14.5134 C3.6274,14.7284 3.8644,15.3154 3.6494,15.8244 C3.1144,17.0884 2.7034,18.4144 2.4264,19.7644 C2.1434,21.1494 2.0004,22.5744 2.0004,23.9974 C2.0004,25.4224 2.1434,26.8464 2.4264,28.2314 C2.7034,29.5794 3.1144,30.9064 3.6494,32.1714 C4.1734,33.4114 4.8254,34.6124 5.5864,35.7394 C6.3384,36.8524 7.2014,37.8984 8.1504,38.8474 C8.5414,39.2384 8.5414,39.8704 8.1504,40.2614 C7.9554,40.4564 7.6994,40.5544 7.4434,40.5544" id="Fill-4" fill="#0096DC"></path>
                    <path d="M23,46.9978 C21.441,46.9978 19.882,46.8408 18.366,46.5298 C16.888,46.2278 15.435,45.7768 14.047,45.1898 C13.538,44.9758 13.301,44.3888 13.516,43.8798 C13.73,43.3698 14.318,43.1348 14.826,43.3488 C16.092,43.8838 17.418,44.2948 18.767,44.5708 C21.536,45.1378 24.464,45.1378 27.233,44.5708 C28.582,44.2948 29.908,43.8838 31.174,43.3488 C31.682,43.1348 32.27,43.3698 32.484,43.8798 C32.699,44.3888 32.462,44.9758 31.953,45.1898 C30.565,45.7768 29.112,46.2278 27.634,46.5298 C26.118,46.8408 24.559,46.9978 23,46.9978" id="Fill-6" fill="#0096DC"></path>
                    <path d="M38.5566,40.5544 C38.3006,40.5544 38.0446,40.4564 37.8496,40.2614 C37.4586,39.8704 37.4586,39.2384 37.8496,38.8474 C38.7986,37.8984 39.6616,36.8524 40.4146,35.7384 C41.1746,34.6124 41.8266,33.4114 42.3506,32.1714 C42.8856,30.9064 43.2966,29.5794 43.5736,28.2314 C43.8566,26.8464 43.9996,25.4224 43.9996,23.9974 C43.9996,22.5744 43.8566,21.1494 43.5736,19.7644 C43.2966,18.4144 42.8856,17.0884 42.3506,15.8244 C41.8256,14.5824 41.1736,13.3824 40.4136,12.2574 C39.6616,11.1444 38.7996,10.0984 37.8496,9.1484 C36.9006,8.1994 35.8546,7.3364 34.7416,6.5834 C34.2836,6.2744 34.1626,5.6534 34.4726,5.1954 C34.7806,4.7384 35.4046,4.6174 35.8606,4.9264 C37.0796,5.7504 38.2246,6.6954 39.2636,7.7344 C40.3036,8.7744 41.2476,9.9194 42.0716,11.1374 C42.9036,12.3694 43.6176,13.6844 44.1926,15.0444 C44.7796,16.4314 45.2296,17.8844 45.5326,19.3644 C45.8426,20.8804 45.9996,22.4394 45.9996,23.9974 C45.9996,25.5564 45.8426,27.1164 45.5326,28.6314 C45.2306,30.1104 44.7796,31.5634 44.1926,32.9504 C43.6186,34.3094 42.9046,35.6244 42.0726,36.8584 C41.2466,38.0774 40.3026,39.2224 39.2636,40.2614 C39.0686,40.4564 38.8126,40.5544 38.5566,40.5544" id="Fill-8" fill="#0096DC"></path>
                    <path d="M27.6067,11.3956 C25.3017,11.3956 22.9967,12.2726 21.2417,14.0266 C17.7337,17.5366 17.7337,23.2466 21.2417,26.7556 C24.7517,30.2636 30.4607,30.2656 33.9707,26.7556 C37.4797,23.2466 37.4797,17.5366 33.9707,14.0266 C32.2157,12.2726 29.9107,11.3956 27.6067,11.3956 L27.6067,11.3956 Z M27.6067,31.3866 C24.7887,31.3866 21.9727,30.3146 19.8277,28.1696 C15.5387,23.8806 15.5387,16.9016 19.8277,12.6126 C24.1167,8.3236 31.0957,8.3236 35.3847,12.6126 C39.6737,16.9016 39.6737,23.8806 35.3847,28.1696 C33.2407,30.3146 30.4237,31.3866 27.6067,31.3866 L27.6067,31.3866 Z" id="Fill-10" fill="#0096DC"></path>
                    <path d="M14.8789,31.7048 L16.2929,33.1188 L20.5359,28.8768 L19.1209,27.4618 L14.8789,31.7048 Z M16.2929,35.5328 C16.0369,35.5328 15.7809,35.4348 15.5859,35.2398 L12.7579,32.4118 C12.3669,32.0208 12.3669,31.3888 12.7579,30.9978 L18.4139,25.3408 C18.7889,24.9658 19.4529,24.9658 19.8279,25.3408 L22.6569,28.1698 C22.8449,28.3568 22.9499,28.6108 22.9499,28.8768 C22.9499,29.1418 22.8449,29.3958 22.6569,29.5838 L16.9999,35.2398 C16.8049,35.4348 16.5489,35.5328 16.2929,35.5328 L16.2929,35.5328 Z" id="Fill-12" fill="#0096DC"></path>
                    <path d="M13.4648,35.533 C13.2088,35.533 12.9528,35.435 12.7578,35.24 C12.3668,34.849 12.3668,34.217 12.7578,33.826 L14.1718,32.412 C14.5628,32.021 15.1948,32.021 15.5858,32.412 C15.9768,32.803 15.9768,33.435 15.5858,33.826 L14.1718,35.24 C13.9768,35.435 13.7208,35.533 13.4648,35.533" id="Fill-14" fill="#0096DC"></path>
                    <path d="M16.292,29.8767 C16.142,29.8767 15.989,29.8427 15.846,29.7717 L10.188,26.9417 C9.694,26.6947 9.494,26.0947 9.741,25.6007 C9.989,25.1057 10.589,24.9067 11.083,25.1527 L16.74,27.9817 C17.234,28.2297 17.435,28.8297 17.188,29.3237 C17.012,29.6747 16.659,29.8767 16.292,29.8767" id="Fill-16" fill="#0096DC"></path>
                    <path d="M22.6582,39.0691 C22.3062,39.0691 21.9662,38.8831 21.7832,38.5541 L18.2472,32.1901 C17.9782,31.7081 18.1522,31.0991 18.6362,30.8311 C19.1172,30.5601 19.7272,30.7361 19.9952,31.2191 L23.5312,37.5841 C23.8002,38.0661 23.6262,38.6741 23.1422,38.9431 C22.9892,39.0291 22.8222,39.0691 22.6582,39.0691" id="Fill-18" fill="#0096DC"></path>
                    <path d="M19.1211,42.6042 C18.8651,42.6042 18.6091,42.5062 18.4141,42.3112 C18.0231,41.9202 18.0231,41.2882 18.4141,40.8972 L25.4851,33.8262 C25.8761,33.4352 26.5091,33.4352 26.8991,33.8262 C27.2901,34.2162 27.2901,34.8492 26.8991,35.2402 L19.8281,42.3112 C19.6331,42.5062 19.3771,42.6042 19.1211,42.6042" id="Fill-20" fill="#0096DC"></path>
                    <path d="M6.3936,29.8767 C6.1376,29.8767 5.8816,29.7787 5.6866,29.5837 C5.2956,29.1927 5.2956,28.5607 5.6866,28.1697 L12.7576,21.0987 C13.1486,20.7077 13.7816,20.7077 14.1716,21.0987 C14.5626,21.4887 14.5626,22.1217 14.1716,22.5127 L7.1006,29.5837 C6.9056,29.7787 6.6496,29.8767 6.3936,29.8767" id="Fill-22" fill="#0096DC"></path>
                    <path d="M27.6064,18.3914 C27.0724,18.3914 26.5704,18.5994 26.1924,18.9764 C25.8144,19.3544 25.6064,19.8574 25.6064,20.3914 C25.6064,20.9254 25.8144,21.4274 26.1924,21.8054 C26.9484,22.5614 28.2644,22.5614 29.0204,21.8054 C29.3984,21.4274 29.6064,20.9254 29.6064,20.3914 C29.6064,19.8574 29.3984,19.3544 29.0204,18.9764 C28.6424,18.5994 28.1404,18.3914 27.6064,18.3914 M27.6064,24.3914 C26.5384,24.3914 25.5344,23.9754 24.7784,23.2194 C24.0224,22.4644 23.6064,21.4594 23.6064,20.3914 C23.6064,19.3234 24.0224,18.3184 24.7784,17.5624 C26.2904,16.0524 28.9244,16.0524 30.4344,17.5624 C31.1904,18.3184 31.6064,19.3234 31.6064,20.3914 C31.6064,21.4594 31.1904,22.4644 30.4344,23.2194 C29.6794,23.9744 28.6754,24.3914 27.6064,24.3914" id="Fill-24" fill="#0096DC"></path>
                </g>
            </g>
        </g>
    </g>
</svg>