<?xml version="1.0" encoding="UTF-8"?>
<svg width="46px" height="46px" viewBox="0 0 46 46" version="1.1" xmlns="http://www.w3.org/2000/svg" xmlns:xlink="http://www.w3.org/1999/xlink">
    <!-- Generator: Sketch 53.2 (72643) - https://sketchapp.com -->
    <title>i-menu-hr</title>
    <desc>Created with Sketch.</desc>
    <g id="Symbols" stroke="none" stroke-width="1" fill="none" fill-rule="evenodd">
        <g id="Website-Parts-/-Navs-/-Nav-Dropdown-Features" transform="translate(-243.000000, -195.000000)" fill="#0096DC">
            <g id="Icons-/-Menu-/-HR" transform="translate(243.000000, 195.000000)">
                <g id="Group-21">
                    <path d="M7.4434,8.4412 C7.1874,8.4412 6.9314,8.3432 6.7364,8.1492 C6.3454,7.7582 6.3454,7.1252 6.7364,6.7342 C7.7754,5.6952 8.9204,4.7502 10.1394,3.9262 C11.3694,3.0952 12.6834,2.3822 14.0474,1.8062 C15.4354,1.2182 16.8884,0.7672 18.3664,0.4642 C21.3954,-0.1548 24.6044,-0.1548 27.6334,0.4642 C28.1744,0.5762 28.5244,1.1032 28.4134,1.6452 C28.3024,2.1852 27.7734,2.5372 27.2334,2.4232 C24.4674,1.8592 21.5324,1.8592 18.7664,2.4232 C17.4194,2.7012 16.0924,3.1122 14.8264,3.6482 C13.5824,4.1732 12.3814,4.8262 11.2584,5.5842 C10.1454,6.3362 9.0994,7.1992 8.1504,8.1482 C7.9554,8.3432 7.6994,8.4412 7.4434,8.4412" id="Fill-1"></path>
                    <path d="M7.4434,39.5544 C7.1874,39.5544 6.9314,39.4564 6.7364,39.2614 C5.6974,38.2224 4.7534,37.0774 3.9284,35.8594 C3.0954,34.6244 2.3814,33.3094 1.8074,31.9504 C1.2204,30.5634 0.7694,29.1104 0.4674,27.6314 C0.1574,26.1164 0.0004,24.5564 0.0004,22.9974 C0.0004,21.4394 0.1574,19.8804 0.4674,18.3644 C0.7704,16.8844 1.2204,15.4314 1.8074,14.0444 C2.0224,13.5344 2.6124,13.2984 3.1184,13.5134 C3.6274,13.7284 3.8644,14.3154 3.6494,14.8244 C3.1144,16.0884 2.7034,17.4144 2.4264,18.7644 C2.1434,20.1504 2.0004,21.5744 2.0004,22.9974 C2.0004,24.4224 2.1434,25.8464 2.4264,27.2314 C2.7034,28.5794 3.1144,29.9064 3.6494,31.1714 C4.1734,32.4114 4.8254,33.6124 5.5864,34.7394 C6.3384,35.8524 7.2014,36.8984 8.1504,37.8474 C8.5414,38.2384 8.5414,38.8704 8.1504,39.2614 C7.9554,39.4564 7.6994,39.5544 7.4434,39.5544" id="Fill-3"></path>
                    <path d="M23,45.9978 C21.441,45.9978 19.882,45.8408 18.366,45.5298 C16.888,45.2278 15.435,44.7768 14.047,44.1898 C13.538,43.9758 13.301,43.3888 13.516,42.8798 C13.73,42.3698 14.318,42.1348 14.826,42.3488 C16.092,42.8838 17.418,43.2948 18.767,43.5708 C21.536,44.1378 24.464,44.1378 27.233,43.5708 C28.582,43.2948 29.908,42.8838 31.174,42.3488 C31.682,42.1348 32.27,42.3698 32.484,42.8798 C32.699,43.3888 32.462,43.9758 31.953,44.1898 C30.565,44.7768 29.112,45.2278 27.634,45.5298 C26.118,45.8408 24.559,45.9978 23,45.9978" id="Fill-5"></path>
                    <path d="M38.5566,39.5544 C38.3006,39.5544 38.0446,39.4564 37.8496,39.2614 C37.4586,38.8704 37.4586,38.2384 37.8496,37.8474 C38.7986,36.8984 39.6616,35.8524 40.4146,34.7384 C41.1746,33.6124 41.8266,32.4114 42.3506,31.1714 C42.8856,29.9064 43.2966,28.5794 43.5736,27.2314 C43.8566,25.8464 43.9996,24.4224 43.9996,22.9974 C43.9996,21.5744 43.8566,20.1504 43.5736,18.7644 C43.2966,17.4144 42.8856,16.0884 42.3506,14.8244 C41.8256,13.5814 41.1736,12.3824 40.4136,11.2574 C39.6616,10.1444 38.7996,9.0994 37.8496,8.1484 C36.9006,7.1994 35.8546,6.3354 34.7416,5.5834 C34.2836,5.2754 34.1626,4.6534 34.4726,4.1954 C34.7806,3.7384 35.4046,3.6174 35.8606,3.9264 C37.0796,4.7494 38.2246,5.6954 39.2636,6.7344 C40.3036,7.7754 41.2476,8.9194 42.0716,10.1374 C42.9036,11.3694 43.6176,12.6844 44.1926,14.0444 C44.7796,15.4314 45.2296,16.8844 45.5326,18.3644 C45.8426,19.8804 45.9996,21.4394 45.9996,22.9974 C45.9996,24.5564 45.8426,26.1164 45.5326,27.6314 C45.2306,29.1104 44.7796,30.5634 44.1926,31.9504 C43.6186,33.3094 42.9046,34.6244 42.0726,35.8584 C41.2466,37.0774 40.3026,38.2224 39.2636,39.2614 C39.0686,39.4564 38.8126,39.5544 38.5566,39.5544" id="Fill-7"></path>
                    <path d="M23,10.1531 C19.773,10.1531 17.148,12.7781 17.148,16.0051 C17.148,19.2311 19.773,21.8561 23,21.8561 C26.227,21.8561 28.852,19.2311 28.852,16.0051 C28.852,12.7781 26.227,10.1531 23,10.1531 M23,23.8561 C18.671,23.8561 15.148,20.3341 15.148,16.0051 C15.148,11.6751 18.671,8.1531 23,8.1531 C27.329,8.1531 30.852,11.6751 30.852,16.0051 C30.852,20.3341 27.329,23.8561 23,23.8561" id="Fill-9"></path>
                    <path d="M32,24.0076 C30.018,24.0076 28.165,23.0266 27.044,21.3816 C26.732,20.9256 26.851,20.3026 27.307,19.9916 C27.765,19.6836 28.386,19.7976 28.696,20.2546 C29.444,21.3526 30.68,22.0076 32,22.0076 C34.206,22.0076 36,20.2136 36,18.0076 C36,15.8016 34.206,14.0076 32,14.0076 C31.279,14.0076 30.577,14.2026 29.97,14.5716 C29.498,14.8606 28.883,14.7096 28.596,14.2366 C28.309,13.7656 28.459,13.1506 28.931,12.8626 C29.851,12.3036 30.912,12.0076 32,12.0076 C35.309,12.0076 38,14.6986 38,18.0076 C38,21.3166 35.309,24.0076 32,24.0076" id="Fill-11"></path>
                    <path d="M14,23.9978 C10.691,23.9978 8,21.3068 8,17.9978 C8,14.6888 10.691,11.9978 14,11.9978 C15.082,11.9978 16.146,12.2928 17.074,12.8508 C17.548,13.1348 17.701,13.7488 17.417,14.2228 C17.134,14.6958 16.52,14.8508 16.045,14.5648 C15.418,14.1878 14.729,13.9978 14,13.9978 C11.794,13.9978 10,15.7918 10,17.9978 C10,20.2038 11.794,21.9978 14,21.9978 C15.319,21.9978 16.555,21.3458 17.306,20.2518 C17.618,19.7968 18.242,19.6818 18.696,19.9938 C19.151,20.3068 19.267,20.9298 18.954,21.3848 C17.83,23.0208 15.979,23.9978 14,23.9978" id="Fill-13"></path>
                    <path d="M11.1152,32.1423 C13.9392,35.0943 18.3372,36.8423 23.0002,36.8423 C27.6632,36.8423 32.0602,35.0943 34.8852,32.1423 L34.5602,31.0103 C33.7132,28.0593 31.0162,25.9973 28.0052,25.9973 L17.9952,25.9973 C14.9832,25.9973 12.2872,28.0593 11.4382,31.0113 L11.1152,32.1423 Z M23.0002,38.8423 C17.5642,38.8423 12.4242,36.6823 9.2482,33.0643 C9.0242,32.8093 8.9452,32.4563 9.0382,32.1293 L9.5152,30.4593 C10.6102,26.6553 14.0962,23.9973 17.9952,23.9973 L28.0052,23.9973 C31.9032,23.9973 35.3892,26.6553 36.4832,30.4583 L36.9622,32.1293 C37.0542,32.4563 36.9752,32.8093 36.7522,33.0643 C33.5762,36.6823 28.4352,38.8423 23.0002,38.8423 L23.0002,38.8423 Z" id="Fill-15"></path>
                    <path d="M36.3213,31.2576 C36.0133,31.2576 35.7103,31.1156 35.5143,30.8496 C35.1873,30.4036 35.2833,29.7786 35.7283,29.4516 C36.1753,29.1236 36.5703,28.7616 36.9093,28.3686 L36.7703,27.8106 C36.3253,26.0056 34.9513,23.9976 33.6903,23.9976 L32.0003,23.9976 C31.4473,23.9976 31.0003,23.5506 31.0003,22.9976 C31.0003,22.4446 31.4473,21.9976 32.0003,21.9976 L33.6903,21.9976 C36.0973,21.9976 38.0743,24.7446 38.7113,27.3286 L38.9693,28.3656 C39.0433,28.6566 38.9813,28.9656 38.8013,29.2056 C38.2873,29.8956 37.6513,30.5206 36.9123,31.0636 C36.7343,31.1946 36.5263,31.2576 36.3213,31.2576" id="Fill-17"></path>
                    <path d="M9.6787,31.2576 C9.4737,31.2576 9.2657,31.1946 9.0877,31.0636 C8.3487,30.5206 7.7127,29.8956 7.1987,29.2056 C7.0187,28.9656 6.9567,28.6566 7.0307,28.3656 L7.2897,27.3256 C7.8957,24.8696 9.4927,21.9976 11.9997,21.9976 L13.9997,21.9976 C14.5527,21.9976 14.9997,22.4446 14.9997,22.9976 C14.9997,23.5506 14.5527,23.9976 13.9997,23.9976 L11.9997,23.9976 C10.8117,23.9976 9.6867,25.9606 9.2307,27.8076 L9.0907,28.3686 C9.4297,28.7616 9.8247,29.1236 10.2717,29.4516 C10.7167,29.7786 10.8127,30.4036 10.4857,30.8496 C10.2897,31.1156 9.9867,31.2576 9.6787,31.2576" id="Fill-19"></path>
                </g>
            </g>
        </g>
    </g>
</svg>