<?xml version="1.0" encoding="UTF-8"?>
<svg width="46px" height="46px" viewBox="0 0 46 46" version="1.1" xmlns="http://www.w3.org/2000/svg" xmlns:xlink="http://www.w3.org/1999/xlink">
    <!-- Generator: Sketch 53.2 (72643) - https://sketchapp.com -->
    <title>i-menu-automation</title>
    <desc>Created with Sketch.</desc>
    <defs>
        <polygon id="path-1" points="0.0005 0.0005 24 0.0005 24 32.5635 0.0005 32.5635"></polygon>
        <polygon id="path-3" points="0 0.729187385 15.4366719 0.729187385 15.4366719 31.5635 0 31.5635"></polygon>
    </defs>
    <g id="Symbols" stroke="none" stroke-width="1" fill="none" fill-rule="evenodd">
        <g id="Website-Parts-/-Navs-/-Nav-Dropdown-Features" transform="translate(-34.000000, -346.000000)">
            <g id="Icons/Menu/ProcessAutomation" transform="translate(34.000000, 346.000000)">
                <g id="Group-19">
                    <path d="M23,46 C21.441,46 19.882,45.843 18.366,45.532 C16.888,45.23 15.435,44.779 14.047,44.192 C12.688,43.618 11.373,42.904 10.14,42.072 C8.92,41.247 7.775,40.303 6.736,39.264 C6.346,38.873 6.346,38.24 6.736,37.85 C7.127,37.459 7.76,37.459 8.15,37.85 C9.1,38.799 10.146,39.662 11.26,40.415 C12.386,41.175 13.586,41.826 14.826,42.351 C16.092,42.886 17.418,43.297 18.767,43.573 C20.151,43.856 21.575,44 23,44 C23.553,44 24,44.447 24,45 C24,45.553 23.553,46 23,46" id="Fill-1" fill="#0096DC"></path>
                    <path d="M31.5635,44.2715 C31.1735,44.2715 30.8035,44.0425 30.6425,43.6615 C30.4275,43.1525 30.6655,42.5655 31.1735,42.3505 C32.4145,41.8265 33.6145,41.1745 34.7415,40.4145 C35.8545,39.6625 36.9005,38.7985 37.8495,37.8495 C38.2405,37.4595 38.8735,37.4595 39.2635,37.8495 C39.6545,38.2405 39.6545,38.8735 39.2635,39.2635 C38.2245,40.3025 37.0805,41.2475 35.8615,42.0715 C34.6265,42.9045 33.3115,43.6185 31.9535,44.1925 C31.8265,44.2465 31.6935,44.2715 31.5635,44.2715" id="Fill-3" fill="#0096DC"></path>
                    <g id="Group-7" transform="translate(22.000000, 0.000000)">
                        <mask id="mask-2" fill="white">
                            <use xlink:href="#path-1"></use>
                        </mask>
                        <g id="Clip-6"></g>
                        <path d="M21.2715,32.5635 C21.1415,32.5635 21.0085,32.5385 20.8815,32.4845 C20.3735,32.2695 20.1355,31.6825 20.3505,31.1735 C20.8855,29.9085 21.2965,28.5825 21.5735,27.2335 C21.8565,25.8485 22.0005,24.4245 22.0005,23.0005 C22.0005,21.5765 21.8565,20.1515 21.5735,18.7665 C21.2965,17.4175 20.8855,16.0905 20.3505,14.8265 C19.8255,13.5845 19.1735,12.3845 18.4145,11.2595 C17.6625,10.1465 16.7995,9.1015 15.8495,8.1505 C14.9005,7.2015 13.8545,6.3385 12.7415,5.5855 C11.6185,4.8275 10.4175,4.1765 9.1735,3.6495 C7.9075,3.1145 6.5815,2.7025 5.2335,2.4265 C3.8505,2.1435 2.4255,2.0005 1.0005,2.0005 C0.4475,2.0005 0.0005,1.5525 0.0005,1.0005 C0.0005,0.4475 0.4475,0.0005 1.0005,0.0005 C2.5605,0.0005 4.1195,0.1575 5.6335,0.4675 C7.1115,0.7695 8.5645,1.2205 9.9535,1.8085 C11.3165,2.3845 12.6305,3.0975 13.8605,3.9285 C15.0805,4.7525 16.2245,5.6975 17.2635,6.7365 C18.3035,7.7765 19.2485,8.9215 20.0715,10.1395 C20.9035,11.3725 21.6175,12.6865 22.1925,14.0465 C22.7795,15.4335 23.2295,16.8865 23.5325,18.3665 C23.8425,19.8825 24.0005,21.4415 24.0005,23.0005 C24.0005,24.5585 23.8425,26.1185 23.5325,27.6335 C23.2305,29.1125 22.7795,30.5655 22.1925,31.9535 C22.0315,32.3345 21.6615,32.5635 21.2715,32.5635" id="Fill-5" fill="#0096DC" mask="url(#mask-2)"></path>
                    </g>
                    <g id="Group-10" transform="translate(0.000000, 1.000000)">
                        <mask id="mask-4" fill="white">
                            <use xlink:href="#path-3"></use>
                        </mask>
                        <g id="Clip-9"></g>
                        <path d="M2.7285,31.5635 C2.3385,31.5635 1.9685,31.3345 1.8075,30.9535 C1.2205,29.5655 0.7695,28.1125 0.4675,26.6335 C0.1575,25.1185 -0.0005,23.5585 -0.0005,22.0005 C-0.0005,20.4415 0.1575,18.8825 0.4675,17.3665 C0.7705,15.8865 1.2205,14.4335 1.8075,13.0465 C2.3825,11.6865 3.0965,10.3725 3.9275,9.1405 C4.7515,7.9215 5.6965,6.7765 6.7365,5.7365 C7.7755,4.6975 8.9195,3.7525 10.1395,2.9285 C11.3695,2.0975 12.6835,1.3845 14.0465,0.8085 C14.5545,0.5935 15.1425,0.8305 15.3575,1.3395 C15.5725,1.8485 15.3345,2.4355 14.8265,2.6495 C13.5825,3.1765 12.3815,3.8275 11.2585,4.5855 C10.1455,5.3385 9.0995,6.2015 8.1505,7.1505 C7.2005,8.1015 6.3375,9.1465 5.5845,10.2595 C4.8265,11.3845 4.1745,12.5845 3.6495,13.8265 C3.1145,15.0905 2.7035,16.4175 2.4265,17.7665 C2.1435,19.1515 1.9995,20.5765 1.9995,22.0005 C1.9995,23.4245 2.1435,24.8485 2.4265,26.2335 C2.7035,27.5825 3.1145,28.9085 3.6495,30.1735 C3.8645,30.6825 3.6265,31.2695 3.1185,31.4845 C2.9915,31.5385 2.8585,31.5635 2.7285,31.5635" id="Fill-8" fill="#0096DC" mask="url(#mask-4)"></path>
                    </g>
                    <path d="M23,39 L20,39 C19.447,39 19,38.553 19,38 L19,36.406 C18.082,36.132 17.195,35.765 16.351,35.307 L15.222,36.435 C14.831,36.825 14.198,36.825 13.808,36.435 L9.565,32.192 C9.175,31.802 9.175,31.169 9.565,30.778 L10.693,29.649 C10.235,28.805 9.868,27.918 9.594,27 L8,27 C7.447,27 7,26.553 7,26 L7,20 C7,19.448 7.447,19 8,19 L9.594,19 C9.868,18.082 10.235,17.196 10.693,16.351 L9.565,15.222 C9.175,14.831 9.175,14.198 9.565,13.808 L13.808,9.565 C14.183,9.19 14.847,9.19 15.222,9.565 L16.351,10.694 C17.195,10.236 18.082,9.868 19,9.594 L19,8 C19,7.448 19.447,7 20,7 L26,7 C26.553,7 27,7.448 27,8 L27,9.594 C27.918,9.868 28.805,10.236 29.649,10.694 L30.778,9.565 C31.153,9.19 31.817,9.19 32.192,9.565 L36.435,13.808 C36.825,14.198 36.825,14.831 36.435,15.222 L35.307,16.351 C35.765,17.196 36.132,18.082 36.406,19 L38,19 C38.553,19 39,19.448 39,20 L39,23 C39,23.552 38.553,24 38,24 C37.447,24 37,23.552 37,23 L37,21 L35.639,21 C35.175,21 34.772,20.682 34.666,20.23 C34.371,18.989 33.88,17.805 33.206,16.712 C32.962,16.317 33.021,15.808 33.35,15.479 L34.313,14.515 L31.485,11.686 L30.521,12.651 C30.193,12.979 29.681,13.038 29.288,12.795 C28.195,12.12 27.012,11.629 25.77,11.335 C25.318,11.228 25,10.825 25,10.362 L25,9 L21,9 L21,10.362 C21,10.825 20.682,11.228 20.23,11.335 C18.988,11.629 17.805,12.12 16.712,12.795 C16.318,13.038 15.807,12.979 15.479,12.651 L14.515,11.686 L11.687,14.515 L12.65,15.479 C12.979,15.808 13.038,16.317 12.794,16.712 C12.12,17.805 11.629,18.989 11.334,20.23 C11.228,20.682 10.825,21 10.361,21 L9,21 L9,25 L10.361,25 C10.825,25 11.228,25.318 11.334,25.77 C11.629,27.012 12.12,28.195 12.794,29.288 C13.038,29.683 12.979,30.192 12.65,30.521 L11.687,31.485 L14.515,34.313 L15.479,33.35 C15.809,33.021 16.318,32.961 16.712,33.206 C17.805,33.88 18.988,34.371 20.23,34.666 C20.682,34.772 21,35.175 21,35.639 L21,37 L23,37 C23.553,37 24,37.447 24,38 C24,38.553 23.553,39 23,39" id="Fill-11" fill="#0096DC"></path>
                    <path d="M29.4004,37 L30.5994,37 L30.5994,36.19 C30.5994,35.734 30.9084,35.336 31.3494,35.223 C31.8384,35.096 32.3064,34.902 32.7374,34.647 C33.1304,34.418 33.6314,34.479 33.9534,34.802 L34.5254,35.374 L35.3744,34.525 L34.8014,33.953 C34.4794,33.631 34.4164,33.131 34.6474,32.737 C34.9024,32.307 35.0954,31.839 35.2224,31.35 C35.3364,30.908 35.7344,30.6 36.1904,30.6 L37.0004,30.6 L37.0004,29.4 L36.1904,29.4 C35.7344,29.4 35.3364,29.092 35.2224,28.65 C35.0954,28.161 34.9024,27.693 34.6474,27.263 C34.4164,26.869 34.4794,26.369 34.8014,26.047 L35.3744,25.475 L34.5254,24.626 L33.9534,25.198 C33.6314,25.521 33.1304,25.584 32.7374,25.353 C32.3064,25.098 31.8384,24.904 31.3494,24.777 C30.9084,24.664 30.5994,24.266 30.5994,23.81 L30.5994,23 L29.4004,23 L29.4004,23.81 C29.4004,24.266 29.0914,24.664 28.6504,24.777 C28.1614,24.904 27.6934,25.098 27.2624,25.353 C26.8714,25.584 26.3704,25.521 26.0464,25.198 L25.4744,24.626 L24.6264,25.475 L25.1984,26.047 C25.5204,26.369 25.5844,26.869 25.3524,27.263 C25.0974,27.693 24.9044,28.161 24.7774,28.65 C24.6644,29.092 24.2654,29.4 23.8094,29.4 L23.0004,29.4 L23.0004,30.6 L23.8094,30.6 C24.2654,30.6 24.6644,30.908 24.7774,31.35 C24.9044,31.839 25.0974,32.307 25.3524,32.737 C25.5844,33.131 25.5204,33.631 25.1984,33.953 L24.6264,34.525 L25.4744,35.374 L26.0464,34.802 C26.3704,34.479 26.8714,34.418 27.2624,34.647 C27.6934,34.902 28.1614,35.096 28.6504,35.223 C29.0914,35.336 29.4004,35.734 29.4004,36.19 L29.4004,37 Z M31.5994,39 L28.4004,39 C27.8474,39 27.4004,38.553 27.4004,38 L27.4004,36.922 C27.2464,36.864 27.0934,36.801 26.9444,36.733 L26.1814,37.495 C25.7914,37.886 25.1584,37.886 24.7674,37.495 L22.5044,35.232 C22.1144,34.842 22.1144,34.209 22.5044,33.818 L23.2664,33.056 C23.1994,32.906 23.1354,32.754 23.0784,32.6 L22.0004,32.6 C21.4474,32.6 21.0004,32.152 21.0004,31.6 L21.0004,28.4 C21.0004,27.848 21.4474,27.4 22.0004,27.4 L23.0784,27.4 C23.1354,27.246 23.1994,27.094 23.2664,26.944 L22.5044,26.182 C22.1144,25.791 22.1144,25.158 22.5044,24.768 L24.7674,22.505 C25.1584,22.114 25.7914,22.114 26.1814,22.505 L26.9444,23.267 C27.0934,23.199 27.2464,23.136 27.4004,23.078 L27.4004,22 C27.4004,21.448 27.8474,21 28.4004,21 L31.5994,21 C32.1524,21 32.5994,21.448 32.5994,22 L32.5994,23.078 C32.7544,23.136 32.9064,23.199 33.0554,23.267 L33.8184,22.505 C34.2094,22.114 34.8414,22.114 35.2324,22.505 L37.4954,24.768 C37.8854,25.158 37.8854,25.791 37.4954,26.182 L36.7334,26.944 C36.8004,27.094 36.8644,27.246 36.9214,27.4 L38.0004,27.4 C38.5524,27.4 39.0004,27.848 39.0004,28.4 L39.0004,31.6 C39.0004,32.152 38.5524,32.6 38.0004,32.6 L36.9214,32.6 C36.8644,32.754 36.8004,32.906 36.7334,33.056 L37.4954,33.818 C37.8854,34.209 37.8854,34.842 37.4954,35.232 L35.2324,37.495 C34.8414,37.886 34.2094,37.886 33.8184,37.495 L33.0554,36.733 C32.9064,36.801 32.7544,36.864 32.5994,36.922 L32.5994,38 C32.5994,38.553 32.1524,39 31.5994,39 L31.5994,39 Z" id="Fill-13" fill="#0096DC"></path>
                    <path d="M19.4648,27.5352 C19.2088,27.5352 18.9528,27.4372 18.7578,27.2422 C17.6238,26.1102 16.9998,24.6032 16.9998,23.0002 C16.9998,21.3972 17.6238,19.8902 18.7578,18.7572 C19.8908,17.6242 21.3968,17.0002 22.9998,17.0002 C24.6038,17.0002 26.1098,17.6242 27.2418,18.7572 C27.6328,19.1482 27.6328,19.7812 27.2418,20.1722 C26.8518,20.5612 26.2188,20.5622 25.8278,20.1712 C24.3188,18.6602 21.6818,18.6602 20.1718,20.1712 C19.4158,20.9272 18.9998,21.9312 18.9998,23.0002 C18.9998,24.0682 19.4158,25.0732 20.1718,25.8282 C20.5628,26.2182 20.5628,26.8512 20.1718,27.2422 C19.9778,27.4372 19.7208,27.5352 19.4648,27.5352" id="Fill-15" fill="#0096DC"></path>
                    <path d="M30,29 C29.448,29 29,29.448 29,30 C29,30.552 29.448,31 30,31 C30.552,31 31,30.552 31,30 C31,29.448 30.552,29 30,29 M30,33 C28.346,33 27,31.654 27,30 C27,28.346 28.346,27 30,27 C31.654,27 33,28.346 33,30 C33,31.654 31.654,33 30,33" id="Fill-17" fill="#0096DC"></path>
                </g>
            </g>
        </g>
    </g>
</svg>