<?xml version="1.0" encoding="UTF-8"?>
<svg width="46px" height="46px" viewBox="0 0 46 46" version="1.1" xmlns="http://www.w3.org/2000/svg" xmlns:xlink="http://www.w3.org/1999/xlink">
    <!-- Generator: Sketch 53.2 (72643) - https://sketchapp.com -->
    <title>i-menu-itsm</title>
    <desc>Created with Sketch.</desc>
    <defs>
        <polygon id="path-1" points="0.700007746 0.003 35.2716719 0.003 35.2716719 15.437 0.700007746 15.437"></polygon>
    </defs>
    <g id="Symbols" stroke="none" stroke-width="1" fill="none" fill-rule="evenodd">
        <g id="Website-Parts-/-Navs-/-Nav-Dropdown-Features" transform="translate(-34.000000, -33.000000)">
            <g id="Icons/Menu/ITSM" transform="translate(34.000000, 32.000000)">
                <g id="Group-16">
                    <path d="M12.2993,15.1551 L12.2993,27.0501 L33.7003,27.0501 L33.7013,15.1551 L12.2993,15.1551 Z M33.7013,27.0501 L33.7013,28.0501 L33.7023,27.0501 L33.7013,27.0501 Z M33.7013,29.0501 L12.2993,29.0501 C11.1963,29.0501 10.2993,28.1531 10.2993,27.0501 L10.2993,15.1551 C10.2993,14.0521 11.1963,13.1551 12.2993,13.1551 L33.7013,13.1551 C34.8033,13.1551 35.7013,14.0521 35.7013,15.1551 L35.7013,27.0501 C35.7013,28.1531 34.8033,29.0501 33.7013,29.0501 L33.7013,29.0501 Z" id="Fill-1" fill="#0096DC"></path>
                    <path d="M23,34.8392 C22.448,34.8392 22,34.3922 22,33.8392 L22,28.0502 C22,27.4972 22.448,27.0502 23,27.0502 C23.552,27.0502 24,27.4972 24,28.0502 L24,33.8392 C24,34.3922 23.552,34.8392 23,34.8392" id="Fill-3" fill="#0096DC"></path>
                    <path d="M30.5264,34.8392 L15.4734,34.8392 C14.9214,34.8392 14.4734,34.3922 14.4734,33.8392 C14.4734,33.2862 14.9214,32.8392 15.4734,32.8392 L30.5264,32.8392 C31.0794,32.8392 31.5264,33.2862 31.5264,33.8392 C31.5264,34.3922 31.0794,34.8392 30.5264,34.8392" id="Fill-5" fill="#0096DC"></path>
                    <path d="M23,46.9974 C21.442,46.9974 19.883,46.8404 18.366,46.5294 C16.887,46.2264 15.434,45.7764 14.047,45.1894 C12.687,44.6144 11.372,43.9004 10.14,43.0694 C8.922,42.2454 7.777,41.3014 6.737,40.2614 C5.697,39.2224 4.752,38.0774 3.929,36.8574 C3.098,35.6284 2.384,34.3134 1.808,32.9504 C1.593,32.4414 1.831,31.8544 2.339,31.6404 C2.85,31.4254 3.435,31.6624 3.65,32.1714 C4.176,33.4154 4.828,34.6154 5.586,35.7384 C6.338,36.8514 7.201,37.8974 8.151,38.8474 C9.101,39.7974 10.147,40.6594 11.26,41.4124 C12.384,42.1714 13.584,42.8224 14.826,43.3484 C16.091,43.8834 17.417,44.2944 18.767,44.5704 C21.538,45.1374 24.465,45.1364 27.233,44.5704 C28.582,44.2944 29.908,43.8834 31.174,43.3484 C31.682,43.1344 32.27,43.3694 32.484,43.8794 C32.699,44.3884 32.462,44.9754 31.953,45.1894 C30.565,45.7764 29.112,46.2274 27.634,46.5294 C26.118,46.8404 24.559,46.9974 23,46.9974" id="Fill-7" fill="#0096DC"></path>
                    <path d="M38.5566,40.554 C38.3006,40.554 38.0446,40.456 37.8496,40.261 C37.4586,39.87 37.4586,39.238 37.8496,38.847 C38.7986,37.898 39.6616,36.852 40.4146,35.738 C41.1746,34.612 41.8266,33.411 42.3506,32.171 C42.8856,30.906 43.2966,29.579 43.5736,28.231 C43.8566,26.846 43.9996,25.422 43.9996,23.997 C43.9996,23.445 44.4476,22.997 44.9996,22.997 C45.5526,22.997 45.9996,23.445 45.9996,23.997 C45.9996,25.556 45.8426,27.116 45.5326,28.631 C45.2306,30.11 44.7796,31.563 44.1926,32.95 C43.6186,34.309 42.9046,35.624 42.0726,36.858 C41.2466,38.077 40.3026,39.222 39.2636,40.261 C39.0686,40.456 38.8126,40.554 38.5566,40.554" id="Fill-9" fill="#0096DC"></path>
                    <g id="Group-13" transform="translate(9.000000, 0.997400)">
                        <mask id="mask-2" fill="white">
                            <use xlink:href="#path-1"></use>
                        </mask>
                        <g id="Clip-12"></g>
                        <path d="M34.2715,15.437 C33.8815,15.437 33.5115,15.208 33.3505,14.826 C32.8255,13.584 32.1735,12.384 31.4145,11.259 C30.6625,10.147 29.7995,9.101 28.8495,8.151 C27.9005,7.201 26.8545,6.338 25.7415,5.586 C24.6185,4.828 23.4175,4.176 22.1735,3.65 C20.9075,3.114 19.5815,2.703 18.2335,2.426 C15.4675,1.861 12.5345,1.861 9.7665,2.426 C8.4175,2.703 7.0915,3.115 5.8265,3.65 C4.5805,4.177 3.3805,4.828 2.2595,5.586 C1.8005,5.895 1.1805,5.774 0.8715,5.317 C0.5625,4.86 0.6825,4.238 1.1395,3.929 C2.3685,3.099 3.6825,2.385 5.0465,1.808 C6.4345,1.221 7.8875,0.77 9.3655,0.467 C12.3965,-0.152 15.6055,-0.152 18.6335,0.467 C20.1115,0.77 21.5645,1.221 22.9535,1.808 C24.3165,2.384 25.6305,3.098 26.8605,3.929 C28.0805,4.752 29.2245,5.697 30.2635,6.737 C31.3035,7.777 32.2485,8.922 33.0715,10.14 C33.9035,11.372 34.6175,12.687 35.1925,14.047 C35.4075,14.556 35.1695,15.143 34.6615,15.357 C34.5345,15.411 34.4015,15.437 34.2715,15.437" id="Fill-11" fill="#0096DC" mask="url(#mask-2)"></path>
                    </g>
                    <path d="M1,24.9974 C0.448,24.9974 0,24.5494 0,23.9974 C0,22.4374 0.157,20.8784 0.467,19.3634 C0.77,17.8844 1.221,16.4314 1.808,15.0444 C2.385,13.6804 3.099,12.3654 3.929,11.1374 C4.239,10.6804 4.859,10.5594 5.317,10.8684 C5.775,11.1784 5.895,11.7994 5.586,12.2574 C4.828,13.3784 4.177,14.5784 3.65,15.8234 C3.115,17.0894 2.703,18.4154 2.426,19.7644 C2.144,21.1474 2,22.5714 2,23.9974 C2,24.5494 1.552,24.9974 1,24.9974" id="Fill-14" fill="#0096DC"></path>
                </g>
            </g>
        </g>
    </g>
</svg>