<?xml version="1.0" encoding="UTF-8"?>
<svg width="46px" height="46px" viewBox="0 0 46 46" version="1.1" xmlns="http://www.w3.org/2000/svg" xmlns:xlink="http://www.w3.org/1999/xlink">
    <!-- Generator: Sketch 53.2 (72643) - https://sketchapp.com -->
    <title>i-menu-facilities</title>
    <desc>Created with Sketch.</desc>
    <defs>
        <polygon id="path-1" points="0 0.0670979482 6.70142715 0.0670979482 6.70142715 18.5907408 0 18.5907408"></polygon>
        <polygon id="path-3" points="0.0902766497 0.0615190936 33.84189 0.0615190936 33.84189 17 0.0902766497 17"></polygon>
    </defs>
    <g id="Symbols" stroke="none" stroke-width="1" fill="none" fill-rule="evenodd">
        <g id="Website-Parts-/-Navs-/-Nav-Dropdown-Features" transform="translate(-266.000000, -260.000000)">
            <g id="Icons-/-Menu-/-Facilities" transform="translate(266.000000, 260.000000)">
                <g id="Group-13">
                    <path d="M43.5247,12.6058 C42.8437,11.2588 42.0267,9.9758 41.0937,8.7918 C40.1797,7.6268 39.1457,6.5468 38.0207,5.5798 C36.9047,4.6198 35.6917,3.7638 34.4167,3.0358 C33.9357,2.7608 33.3257,2.9278 33.0507,3.4078 C32.9147,3.6468 32.8877,3.9188 32.9557,4.1668 C33.0227,4.4138 33.1837,4.6338 33.4237,4.7718 C34.5897,5.4368 35.6977,6.2188 36.7157,7.0948 C37.7437,7.9788 38.6877,8.9658 39.5227,10.0278 C40.3727,11.1088 41.1187,12.2798 41.7407,13.5068 C43.0127,16.0268 43.7857,18.8588 43.9677,21.6758 C44.0017,22.2258 44.4787,22.6448 45.0297,22.6088 C45.5817,22.5738 45.9997,22.0968 45.9627,21.5458 C45.7637,18.4598 44.9207,15.3648 43.5247,12.6058" id="Fill-1" fill="#0096DC"></path>
                    <path d="M10.0276,6.4867 C11.1076,5.6377 12.2796,4.8917 13.5066,4.2707 C14.7686,3.6327 16.1046,3.1207 17.4796,2.7457 C18.8526,2.3707 20.2646,2.1337 21.6756,2.0437 C23.0506,1.9547 24.4386,2.0027 25.7986,2.1857 C26.3466,2.2587 26.8506,1.8757 26.9236,1.3287 C26.9976,0.7837 26.6146,0.2767 26.0666,0.2037 C24.5746,0.0027 23.0536,-0.0493 21.5476,0.0477 C20.0026,0.1467 18.4566,0.4057 16.9536,0.8157 C15.4496,1.2257 13.9866,1.7877 12.6056,2.4867 C11.2586,3.1667 9.9756,3.9837 8.7916,4.9157 C7.6316,5.8267 6.5506,6.8617 5.5786,7.9907 C4.6206,9.1057 3.7636,10.3177 3.0356,11.5937 C2.8976,11.8347 2.8716,12.1067 2.9386,12.3527 C3.0066,12.5997 3.1676,12.8217 3.4076,12.9587 C3.8866,13.2327 4.4976,13.0657 4.7716,12.5867 C5.4376,11.4207 6.2186,10.3127 7.0956,9.2947 C7.9826,8.2637 8.9686,7.3197 10.0276,6.4867" id="Fill-3" fill="#0096DC"></path>
                    <g id="Group-7" transform="translate(0.000000, 19.010300)">
                        <mask id="mask-2" fill="white">
                            <use xlink:href="#path-1"></use>
                        </mask>
                        <g id="Clip-6"></g>
                        <path d="M4.2708,13.492 C2.9958,10.97 2.2248,8.145 2.0428,5.324 C1.9548,3.95 2.0018,2.562 2.1858,1.201 C2.2578,0.654 1.8768,0.149 1.3288,0.076 C0.7808,0.003 0.2778,0.387 0.2038,0.933 C0.0018,2.427 -0.0502,3.947 0.0478,5.453 C0.1468,6.997 0.4058,8.543 0.8158,10.047 C1.2258,11.551 1.7888,13.013 2.4868,14.394 C3.1668,15.741 3.9848,17.024 4.9158,18.209 C5.2568,18.643 5.8848,18.718 6.3198,18.377 C6.7548,18.035 6.8278,17.406 6.4878,16.972 C5.6378,15.892 4.8928,14.721 4.2708,13.492" id="Fill-5" fill="#0096DC" mask="url(#mask-2)"></path>
                    </g>
                    <g id="Group-10" transform="translate(11.000000, 29.010300)">
                        <mask id="mask-4" fill="white">
                            <use xlink:href="#path-3"></use>
                        </mask>
                        <g id="Clip-9"></g>
                        <path d="M33.1644,0.1151 C32.6414,-0.0629 32.0724,0.2171 31.8944,0.7401 C31.4624,2.0111 30.9044,3.2481 30.2384,4.4141 C29.5714,5.5811 28.7894,6.6871 27.9144,7.7061 C27.0284,8.7351 26.0424,9.6791 24.9824,10.5121 C23.9034,11.3621 22.7324,12.1071 21.5034,12.7291 C20.2414,13.3671 18.9044,13.8801 17.5314,14.2551 C16.1564,14.6301 14.7454,14.8661 13.3344,14.9571 C11.9614,15.0451 10.5734,14.9981 9.2114,14.8141 C7.8774,14.6351 6.5474,14.3221 5.2614,13.8861 C3.9884,13.4521 2.7524,12.8941 1.5864,12.2281 C1.1064,11.9551 0.4964,12.1211 0.2224,12.6001 C0.0854,12.8411 0.0584,13.1131 0.1254,13.3601 C0.1924,13.6061 0.3544,13.8281 0.5944,13.9651 C1.8704,14.6941 3.2234,15.3031 4.6164,15.7791 C6.0254,16.2571 7.4824,16.5991 8.9434,16.7961 C10.4374,16.9971 11.9584,17.0511 13.4644,16.9521 C15.0084,16.8531 16.5544,16.5941 18.0574,16.1841 C19.5604,15.7741 21.0234,15.2131 22.4044,14.5131 C23.7524,13.8321 25.0354,13.0151 26.2194,12.0851 C27.3804,11.1721 28.4604,10.1361 29.4314,9.0101 C30.3894,7.8951 31.2454,6.6831 31.9754,5.4061 C32.7044,4.1301 33.3144,2.7771 33.7884,1.3841 C33.9664,0.8621 33.6854,0.2921 33.1644,0.1151" id="Fill-8" fill="#0096DC" mask="url(#mask-4)"></path>
                    </g>
                    <path d="M11.1526,31.2914 L11.1526,33.7524 C10.5226,33.0314 10.1526,32.1024 10.1526,31.1114 C10.1526,28.9014 11.9426,27.1114 14.1526,27.1114 C14.5126,27.1114 14.8826,27.1724 15.3226,27.3124 C15.6736,27.4224 16.0626,27.3214 16.3226,27.0624 L20.1126,23.2714 L21.5326,21.8614 L21.9926,21.4014 L23.4026,19.9814 L27.0726,16.3124 C27.3426,16.0524 27.4326,15.6614 27.3226,15.3124 C27.1826,14.8714 27.1226,14.5024 27.1226,14.1324 C27.1226,13.1424 27.4926,12.2124 28.1226,11.4914 L28.1226,13.9514 C28.1226,14.3124 28.3126,14.6424 28.6226,14.8214 L30.6226,15.9724 C30.9326,16.1514 31.3126,16.1514 31.6226,15.9724 L33.6226,14.8214 C33.9326,14.6424 34.1226,14.3124 34.1226,13.9514 L34.1226,11.4914 C34.7526,12.2124 35.1226,13.1424 35.1226,14.1324 C35.1226,16.3424 33.3326,18.1324 31.1226,18.1324 C30.5526,18.1324 29.9726,18.0024 29.4126,17.7414 C29.0326,17.5524 28.5826,17.6324 28.2826,17.9324 L24.8226,21.4014 L23.4026,22.8124 L22.9426,23.2714 L21.5326,24.6914 L17.9526,28.2624 C17.6526,28.5624 17.5726,29.0214 17.7526,29.4014 C18.0226,29.9624 18.1526,30.5314 18.1526,31.1114 C18.1526,32.1024 17.7826,33.0314 17.1526,33.7524 L17.1526,31.2914 C17.1526,30.9324 16.9636,30.6024 16.6526,30.4324 L14.6526,29.2714 C14.3426,29.0924 13.9636,29.0924 13.6526,29.2714 L11.6526,30.4324 C11.3426,30.6024 11.1526,30.9324 11.1526,31.2914 L11.1526,31.2914 Z M13.8826,14.2124 C13.7026,14.0314 13.4426,13.9224 13.1826,13.9224 L11.9126,13.9224 L10.6226,11.3524 L11.4826,10.4914 L14.0526,11.7914 L14.0526,13.0524 C14.0526,13.3124 14.1626,13.5714 14.3426,13.7524 L20.5726,19.9814 L20.1126,20.4414 L13.8826,14.2124 Z M35.7026,33.4624 C35.8826,33.6424 35.8626,33.9224 35.8426,34.0714 C35.7926,34.4414 35.5826,34.8314 35.2726,35.1424 C34.6626,35.7414 33.8826,35.8614 33.5926,35.5714 L25.2926,27.2714 C25.1026,27.0814 24.8426,26.9724 24.5826,26.9724 C24.5326,26.9724 24.4926,26.9814 24.4426,26.9814 L23.0826,27.1824 L27.3126,22.9514 L27.1126,24.3124 C27.0726,24.6214 27.1736,24.9324 27.4026,25.1614 L35.7026,33.4624 Z M12.1526,36.6914 C12.3426,36.6914 12.5326,36.6324 12.7026,36.5214 C12.9826,36.3424 13.1526,36.0314 13.1526,35.6914 L13.1526,31.8714 L14.1526,31.2914 L15.1526,31.8714 L15.1526,35.6914 C15.1526,36.0314 15.3226,36.3424 15.6026,36.5214 C15.8926,36.7124 16.2426,36.7414 16.5526,36.6024 C18.7426,35.6514 20.1526,33.4914 20.1526,31.1114 C20.1526,30.4724 20.0426,29.8314 19.8326,29.2124 L20.5926,28.4514 L21.1926,29.0624 C21.4236,29.2814 21.7326,29.3924 22.0426,29.3424 L24.2326,29.0314 L32.1826,36.9914 C32.6826,37.4914 33.3426,37.7314 34.0426,37.7314 C34.9426,37.7314 35.9026,37.3314 36.6826,36.5524 C37.3126,35.9324 37.7136,35.1514 37.8226,34.3524 C37.9526,33.4624 37.6926,32.6214 37.1226,32.0524 L29.1626,24.0924 L29.4726,21.9114 C29.5226,21.6024 29.4126,21.2914 29.1926,21.0714 L28.5826,20.4624 L29.2326,19.8124 C29.8526,20.0314 30.4826,20.1324 31.1226,20.1324 C34.4326,20.1324 37.1226,17.4414 37.1226,14.1324 C37.1226,11.7524 35.7136,9.6024 33.5226,8.6424 C33.2136,8.5024 32.8626,8.5314 32.5726,8.7224 C32.2926,8.9014 32.1226,9.2224 32.1226,9.5524 L32.1226,13.3714 L31.1226,13.9514 L30.1226,13.3714 L30.1226,9.5624 C30.1226,9.2224 29.9526,8.9014 29.6736,8.7224 C29.3926,8.5314 29.0326,8.5024 28.7226,8.6424 C26.5326,9.6024 25.1226,11.7524 25.1226,14.1324 C25.1226,14.5124 25.1626,14.9014 25.2526,15.3024 L21.9926,18.5714 L16.0526,12.6324 L16.0526,11.1614 C16.0426,10.7914 15.8326,10.4414 15.4926,10.2714 L11.7326,8.3824 C11.3426,8.1914 10.8826,8.2624 10.5726,8.5714 L8.7026,10.4414 C8.3926,10.7524 8.3226,11.2124 8.5126,11.6024 L10.4026,15.3614 C10.5726,15.7014 10.9236,15.9114 11.2926,15.9224 L12.7626,15.9224 L18.7026,21.8614 L15.3126,25.2414 C14.9126,25.1514 14.5326,25.1114 14.1526,25.1114 C10.8426,25.1114 8.1526,27.8024 8.1526,31.1114 C8.1526,33.4914 9.5626,35.6514 11.7526,36.6024 C11.8826,36.6614 12.0126,36.6914 12.1526,36.6914 L12.1526,36.6914 Z" id="Fill-11" fill="#0096DC"></path>
                </g>
            </g>
        </g>
    </g>
</svg>