<?xml version="1.0" encoding="UTF-8"?>
<svg width="46px" height="46px" viewBox="0 0 46 46" version="1.1" xmlns="http://www.w3.org/2000/svg" xmlns:xlink="http://www.w3.org/1999/xlink">
    <!-- Generator: Sketch 53.2 (72643) - https://sketchapp.com -->
    <title>i-menu-interfaces</title>
    <desc>Created with Sketch.</desc>
    <defs>
        <polygon id="path-1" points="0 -0.0002 5.75723946 -0.0002 5.75723946 14.3008 0 14.3008"></polygon>
        <polygon id="path-3" points="0.728328118 0.002 31.5636719 0.002 31.5636719 15.437 0.728328118 15.437"></polygon>
    </defs>
    <g id="Symbols" stroke="none" stroke-width="1" fill="none" fill-rule="evenodd">
        <g id="Website-Parts-/-Navs-/-Nav-Dropdown-Features" transform="translate(-34.000000, -268.000000)">
            <g id="Icons/Menu/Interfaces" transform="translate(34.000000, 267.000000)">
                <g id="Group-23">
                    <g id="Group-3" transform="translate(0.000000, 22.997800)">
                        <mask id="mask-2" fill="white">
                            <use xlink:href="#path-1"></use>
                        </mask>
                        <g id="Clip-2"></g>
                        <path d="M4.7578,14.3008 C4.4368,14.3008 4.1208,14.1468 3.9278,13.8608 C3.0958,12.6268 2.3818,11.3118 1.8078,9.9528 C1.2208,8.5658 0.7698,7.1128 0.4678,5.6338 C0.1568,4.1178 -0.0002,2.5588 -0.0002,0.9998 C-0.0002,0.4478 0.4468,-0.0002 0.9998,-0.0002 C1.5528,-0.0002 1.9998,0.4478 1.9998,0.9998 C1.9998,2.4248 2.1438,3.8488 2.4268,5.2338 C2.7028,6.5818 3.1138,7.9078 3.6498,9.1738 C4.1738,10.4138 4.8248,11.6138 5.5858,12.7408 C5.8948,13.1988 5.7748,13.8218 5.3168,14.1298 C5.1448,14.2448 4.9498,14.3008 4.7578,14.3008" id="Fill-1" fill="#0096DC" mask="url(#mask-2)"></path>
                    </g>
                    <path d="M23,46.9978 C21.441,46.9978 19.882,46.8408 18.366,46.5298 C16.888,46.2278 15.435,45.7768 14.047,45.1898 C12.688,44.6158 11.373,43.9018 10.14,43.0698 C9.682,42.7618 9.562,42.1398 9.87,41.6818 C10.179,41.2238 10.8,41.1038 11.259,41.4118 C12.386,42.1728 13.586,42.8238 14.826,43.3488 C16.092,43.8838 17.418,44.2948 18.767,44.5708 C21.536,45.1378 24.464,45.1378 27.233,44.5708 C28.582,44.2948 29.908,43.8838 31.174,43.3488 C32.414,42.8238 33.614,42.1728 34.741,41.4118 C35.854,40.6598 36.9,39.7968 37.85,38.8478 C38.799,37.8978 39.662,36.8518 40.415,35.7378 C41.175,34.6118 41.826,33.4118 42.351,32.1718 C42.565,31.6628 43.152,31.4258 43.661,31.6408 C44.17,31.8548 44.407,32.4418 44.192,32.9508 C43.618,34.3098 42.904,35.6248 42.072,36.8578 C41.247,38.0778 40.303,39.2228 39.264,40.2618 C38.225,41.3008 37.08,42.2448 35.861,43.0688 C34.627,43.9018 33.312,44.6158 31.953,45.1898 C30.565,45.7768 29.112,46.2278 27.634,46.5298 C26.118,46.8408 24.559,46.9978 23,46.9978" id="Fill-4" fill="#0096DC"></path>
                    <path d="M45,24.9978 C44.447,24.9978 44,24.5498 44,23.9978 C44,22.5738 43.856,21.1498 43.573,19.7648 C43.297,18.4148 42.886,17.0888 42.351,15.8238 C41.825,14.5818 41.174,13.3818 40.414,12.2568 C39.662,11.1448 38.8,10.0988 37.85,9.1488 C37.459,8.7578 37.459,8.1248 37.85,7.7348 C38.24,7.3438 38.873,7.3438 39.264,7.7348 C40.304,8.7748 41.248,9.9188 42.071,11.1378 C42.903,12.3698 43.617,13.6848 44.192,15.0448 C44.779,16.4318 45.229,17.8848 45.532,19.3638 C45.843,20.8808 46,22.4398 46,23.9978 C46,24.5498 45.553,24.9978 45,24.9978" id="Fill-6" fill="#0096DC"></path>
                    <g id="Group-10" transform="translate(1.000000, 0.997800)">
                        <mask id="mask-4" fill="white">
                            <use xlink:href="#path-3"></use>
                        </mask>
                        <g id="Clip-9"></g>
                        <path d="M1.7285,15.437 C1.5985,15.437 1.4655,15.411 1.3385,15.357 C0.8305,15.143 0.5925,14.556 0.8075,14.047 C1.3825,12.687 2.0965,11.372 2.9275,10.14 C3.7515,8.922 4.6965,7.777 5.7365,6.737 C6.7755,5.697 7.9195,4.752 9.1395,3.929 C10.3695,3.098 11.6835,2.384 13.0465,1.808 C14.4355,1.221 15.8885,0.77 17.3665,0.467 C20.3955,-0.153 23.6045,-0.153 26.6335,0.467 C28.1115,0.77 29.5645,1.221 30.9535,1.808 C31.4615,2.023 31.6995,2.61 31.4845,3.119 C31.2695,3.627 30.6815,3.865 30.1735,3.65 C28.9075,3.114 27.5815,2.703 26.2335,2.426 C23.4675,1.861 20.5325,1.861 17.7665,2.426 C16.4185,2.703 15.0925,3.114 13.8265,3.65 C12.5825,4.176 11.3815,4.828 10.2585,5.586 C9.1455,6.338 8.0995,7.201 7.1505,8.151 C6.2005,9.101 5.3375,10.147 4.5845,11.26 C3.8265,12.384 3.1745,13.584 2.6495,14.826 C2.4885,15.208 2.1185,15.437 1.7285,15.437" id="Fill-8" fill="#0096DC" mask="url(#mask-4)"></path>
                    </g>
                    <path d="M12,12.9978 C11.448,12.9978 11,13.4468 11,13.9978 L11,33.9978 C11,34.5498 11.448,34.9978 12,34.9978 L34,34.9978 C34.552,34.9978 35,34.5498 35,33.9978 L35,13.9978 C35,13.4468 34.552,12.9978 34,12.9978 L12,12.9978 Z M34,36.9978 L12,36.9978 C10.346,36.9978 9,35.6518 9,33.9978 L9,13.9978 C9,12.3438 10.346,10.9978 12,10.9978 L34,10.9978 C35.654,10.9978 37,12.3438 37,13.9978 L37,33.9978 C37,35.6518 35.654,36.9978 34,36.9978 L34,36.9978 Z" id="Fill-11" fill="#0096DC"></path>
                    <path d="M32,15.4978 C31.725,15.4978 31.5,15.7218 31.5,15.9978 C31.5,16.2738 31.725,16.4978 32,16.4978 C32.275,16.4978 32.5,16.2738 32.5,15.9978 C32.5,15.7218 32.275,15.4978 32,15.4978 M32,17.4978 C31.173,17.4978 30.5,16.8248 30.5,15.9978 C30.5,15.1708 31.173,14.4978 32,14.4978 C32.827,14.4978 33.5,15.1708 33.5,15.9978 C33.5,16.8248 32.827,17.4978 32,17.4978" id="Fill-13" fill="#0096DC"></path>
                    <path d="M28,15.4978 C27.725,15.4978 27.5,15.7218 27.5,15.9978 C27.5,16.2738 27.725,16.4978 28,16.4978 C28.275,16.4978 28.5,16.2738 28.5,15.9978 C28.5,15.7218 28.275,15.4978 28,15.4978 M28,17.4978 C27.173,17.4978 26.5,16.8248 26.5,15.9978 C26.5,15.1708 27.173,14.4978 28,14.4978 C28.827,14.4978 29.5,15.1708 29.5,15.9978 C29.5,16.8248 28.827,17.4978 28,17.4978" id="Fill-15" fill="#0096DC"></path>
                    <path d="M24,15.4978 C23.725,15.4978 23.5,15.7218 23.5,15.9978 C23.5,16.2738 23.725,16.4978 24,16.4978 C24.275,16.4978 24.5,16.2738 24.5,15.9978 C24.5,15.7218 24.275,15.4978 24,15.4978 M24,17.4978 C23.173,17.4978 22.5,16.8248 22.5,15.9978 C22.5,15.1708 23.173,14.4978 24,14.4978 C24.827,14.4978 25.5,15.1708 25.5,15.9978 C25.5,16.8248 24.827,17.4978 24,17.4978" id="Fill-17" fill="#0096DC"></path>
                    <path d="M17,18.9978 L14,18.9978 C13.447,18.9978 13,19.4458 13,19.9978 L13,31.9978 C13,32.5508 13.447,32.9978 14,32.9978 L17,32.9978 C17.553,32.9978 18,32.5508 18,31.9978 L18,19.9978 C18,19.4458 17.553,18.9978 17,18.9978 L17,18.9978 Z M14,31.9978 L17,31.9978 L17,19.9978 L14,19.9978 L14,31.9978 Z" id="Fill-19" fill="#0096DC"></path>
                    <path d="M32,18.9978 L21,18.9978 C20.447,18.9978 20,19.4458 20,19.9978 L20,31.9978 C20,32.5508 20.447,32.9978 21,32.9978 L32,32.9978 C32.553,32.9978 33,32.5508 33,31.9978 L33,19.9978 C33,19.4458 32.553,18.9978 32,18.9978 L32,18.9978 Z M21,31.9978 L32,31.9978 L32,19.9978 L21,19.9978 L21,31.9978 Z" id="Fill-21" fill="#0096DC"></path>
                </g>
            </g>
        </g>
    </g>
</svg>