<?xml version="1.0" encoding="UTF-8"?>
<svg width="46px" height="46px" viewBox="0 0 46 46" version="1.1" xmlns="http://www.w3.org/2000/svg" xmlns:xlink="http://www.w3.org/1999/xlink">
    <!-- Generator: Sketch 53.2 (72643) - https://sketchapp.com -->
    <title>i-menu-reporting</title>
    <desc>Created with Sketch.</desc>
    <g id="Symbols" stroke="none" stroke-width="1" fill="none" fill-rule="evenodd">
        <g id="Website-Parts-/-Navs-/-Nav-Dropdown-Features" transform="translate(-34.000000, -190.000000)" fill="#0096DC">
            <g id="Icons/Menu/Reporting" transform="translate(34.000000, 190.000000)">
                <g id="Group-21">
                    <path d="M44.5518,19.5642 C44.0868,19.5642 43.6698,19.2382 43.5728,18.7642 C43.2968,17.4152 42.8858,16.0882 42.3508,14.8242 C41.8248,13.5822 41.1738,12.3822 40.4138,11.2572 C39.6618,10.1452 38.7998,9.0992 37.8498,8.1482 C36.9008,7.1992 35.8548,6.3362 34.7408,5.5842 C33.6178,4.8252 32.4178,4.1742 31.1738,3.6472 C29.9068,3.1122 28.5808,2.7002 27.2338,2.4242 C24.4678,1.8582 21.5318,1.8582 18.7668,2.4242 C17.4188,2.7002 16.0928,3.1122 14.8258,3.6472 C13.5818,4.1742 12.3818,4.8252 11.2588,5.5842 C10.8018,5.8932 10.1788,5.7722 9.8698,5.3142 C9.5618,4.8572 9.6818,4.2352 10.1398,3.9262 C11.3688,3.0952 12.6838,2.3822 14.0468,1.8062 C15.4358,1.2182 16.8888,0.7672 18.3658,0.4652 C21.3958,-0.1548 24.6048,-0.1548 27.6338,0.4652 C29.1118,0.7672 30.5648,1.2182 31.9528,1.8062 C33.3168,2.3822 34.6308,3.0952 35.8608,3.9262 C37.0798,4.7502 38.2248,5.6952 39.2638,6.7342 C40.3038,7.7742 41.2478,8.9192 42.0718,10.1372 C42.9038,11.3702 43.6168,12.6842 44.1928,14.0442 C44.7798,15.4312 45.2298,16.8842 45.5318,18.3642 C45.6438,18.9052 45.2938,19.4332 44.7528,19.5432 C44.6858,19.5582 44.6178,19.5642 44.5518,19.5642" id="Fill-1"></path>
                    <path d="M1.4463,28.4314 C0.9813,28.4314 0.5643,28.1054 0.4673,27.6314 C0.1573,26.1164 0.0003,24.5564 0.0003,22.9974 C0.0003,21.4394 0.1573,19.8804 0.4673,18.3644 C0.7703,16.8844 1.2203,15.4314 1.8073,14.0444 C2.3833,12.6844 3.0963,11.3694 3.9273,10.1384 C4.2363,9.6804 4.8563,9.5584 5.3163,9.8694 C5.7743,10.1774 5.8943,10.7994 5.5863,11.2574 C4.8263,12.3824 4.1753,13.5824 3.6493,14.8244 C3.1143,16.0884 2.7033,17.4144 2.4263,18.7644 C2.1433,20.1494 2.0003,21.5744 2.0003,22.9974 C2.0003,24.4224 2.1433,25.8464 2.4263,27.2314 C2.5383,27.7724 2.1883,28.3004 1.6473,28.4104 C1.5803,28.4244 1.5123,28.4314 1.4463,28.4314" id="Fill-3"></path>
                    <path d="M14.4365,44.2693 C14.3065,44.2693 14.1735,44.2443 14.0465,44.1903 C12.6885,43.6163 11.3735,42.9023 10.1395,42.0703 C8.9195,41.2453 7.7755,40.3003 6.7365,39.2613 C5.6975,38.2223 4.7525,37.0783 3.9285,35.8593 C3.6195,35.4013 3.7395,34.7793 4.1965,34.4703 C4.6555,34.1613 5.2765,34.2823 5.5845,34.7383 C6.3375,35.8523 7.2015,36.8983 8.1505,37.8473 C9.0995,38.7963 10.1455,39.6603 11.2595,40.4133 C12.3855,41.1723 13.5855,41.8243 14.8265,42.3483 C15.3345,42.5633 15.5725,43.1503 15.3575,43.6593 C15.1965,44.0403 14.8265,44.2693 14.4365,44.2693" id="Fill-5"></path>
                    <path d="M23,45.9978 C22.447,45.9978 22,45.5508 22,44.9978 C22,44.4448 22.447,43.9978 23,43.9978 C24.425,43.9978 25.849,43.8538 27.233,43.5708 C28.582,43.2948 29.908,42.8838 31.174,42.3488 C32.414,41.8238 33.614,41.1728 34.741,40.4118 C35.854,39.6598 36.9,38.7968 37.85,37.8478 C38.799,36.8978 39.662,35.8518 40.415,34.7378 C41.175,33.6118 41.826,32.4118 42.351,31.1718 C42.886,29.9058 43.297,28.5798 43.573,27.2308 C43.684,26.6898 44.215,26.3418 44.753,26.4518 C45.294,26.5618 45.644,27.0908 45.532,27.6318 C45.23,29.1098 44.779,30.5628 44.192,31.9508 C43.618,33.3098 42.904,34.6248 42.072,35.8578 C41.247,37.0778 40.303,38.2228 39.264,39.2618 C38.225,40.3008 37.08,41.2448 35.861,42.0688 C34.627,42.9018 33.312,43.6158 31.953,44.1898 C30.565,44.7768 29.112,45.2278 27.634,45.5298 C26.118,45.8408 24.559,45.9978 23,45.9978" id="Fill-7"></path>
                    <path d="M14,33.9978 C13.447,33.9978 13,33.5508 13,32.9978 L13,24.9978 C13,24.4448 13.447,23.9978 14,23.9978 C14.553,23.9978 15,24.4448 15,24.9978 L15,32.9978 C15,33.5508 14.553,33.9978 14,33.9978" id="Fill-9"></path>
                    <path d="M30,36.9978 L14,36.9978 C13.447,36.9978 13,36.5508 13,35.9978 C13,35.4448 13.447,34.9978 14,34.9978 L30,34.9978 C30.552,34.9978 31,34.5498 31,33.9978 L31,11.9978 C31,11.6468 31.061,11.3108 31.171,10.9978 L16,10.9978 C15.448,10.9978 15,11.4468 15,11.9978 L15,15.9978 C15,16.5498 14.553,16.9978 14,16.9978 C13.447,16.9978 13,16.5498 13,15.9978 L13,11.9978 C13,10.3438 14.346,8.9978 16,8.9978 L34,8.9978 C34.553,8.9978 35,9.4458 35,9.9978 C35,10.5498 34.553,10.9978 34,10.9978 C33.448,10.9978 33,11.4468 33,11.9978 L33,33.9978 C33,35.6518 31.654,36.9978 30,36.9978" id="Fill-11"></path>
                    <path d="M33,11.9978 L35,11.9978 C35,11.4468 34.552,10.9978 34,10.9978 C33.448,10.9978 33,11.4468 33,11.9978 M36,13.9978 L32,13.9978 C31.447,13.9978 31,13.5498 31,12.9978 L31,11.9978 C31,10.3438 32.346,8.9978 34,8.9978 C35.654,8.9978 37,10.3438 37,11.9978 L37,12.9978 C37,13.5498 36.553,13.9978 36,13.9978" id="Fill-13"></path>
                    <path d="M13,33.9978 C13,34.5498 13.448,34.9978 14,34.9978 L27.171,34.9978 C27.061,34.6848 27,34.3488 27,33.9978 L13,33.9978 Z M30,36.9978 L14,36.9978 C12.346,36.9978 11,35.6518 11,33.9978 L11,32.9978 C11,32.4448 11.447,31.9978 12,31.9978 L28,31.9978 C28.553,31.9978 29,32.4448 29,32.9978 L29,33.9978 C29,34.5498 29.448,34.9978 30,34.9978 C30.553,34.9978 31,35.4448 31,35.9978 C31,36.5508 30.553,36.9978 30,36.9978 L30,36.9978 Z" id="Fill-15"></path>
                    <path d="M8,27.9978 C7.744,27.9978 7.488,27.8998 7.293,27.7048 C6.902,27.3138 6.902,26.6818 7.293,26.2908 L15.793,17.7908 C16.184,17.3998 16.816,17.3998 17.207,17.7908 L20,20.5838 L25.793,14.7908 C26.184,14.3998 26.816,14.3998 27.207,14.7908 C27.598,15.1818 27.598,15.8138 27.207,16.2048 L20.707,22.7048 C20.316,23.0958 19.684,23.0958 19.293,22.7048 L16.5,19.9118 L8.707,27.7048 C8.512,27.8998 8.256,27.9978 8,27.9978" id="Fill-17"></path>
                    <path d="M27,20.9978 C26.447,20.9978 26,20.5498 26,19.9978 L26,15.9978 L22,15.9978 C21.447,15.9978 21,15.5498 21,14.9978 C21,14.4458 21.447,13.9978 22,13.9978 L27,13.9978 C27.553,13.9978 28,14.4458 28,14.9978 L28,19.9978 C28,20.5498 27.553,20.9978 27,20.9978" id="Fill-19"></path>
                </g>
            </g>
        </g>
    </g>
</svg>