<?xml version="1.0" encoding="UTF-8"?>
<svg width="48px" height="80px" viewBox="0 0 48 80" version="1.1" xmlns="http://www.w3.org/2000/svg" xmlns:xlink="http://www.w3.org/1999/xlink">
    <!-- Generator: Sketch 53.2 (72643) - https://sketchapp.com -->
    <title>icon-section-problem-white</title>
    <desc>Created with Sketch.</desc>
    <g id="Features" stroke="none" stroke-width="1" fill="none" fill-rule="evenodd">
        <g id="Artboard-Copy" transform="translate(-133.000000, -12.000000)" fill="#FFFFFF">
            <path d="M163.171543,61.6546207 C167.708199,61.6546207 171.400061,65.3677241 171.400061,69.9304828 C171.400061,74.4932414 167.708199,78.2063448 163.171543,78.2063448 C158.634886,78.2063448 154.943024,74.4932414 154.943024,69.9304828 C154.943024,65.3677241 158.634886,61.6546207 163.171543,61.6546207 Z M163.171543,75.4477241 C166.196895,75.4477241 168.657222,72.9732414 168.657222,69.9304828 C168.657222,66.8877241 166.196895,64.4132414 163.171543,64.4132414 C160.14619,64.4132414 157.685863,66.8877241 157.685863,69.9304828 C157.685863,72.9732414 160.14619,75.4477241 163.171543,75.4477241 Z M178.25716,71.862069 L178.25716,68 L177.03934,68 C176.403001,68 175.85169,67.5586207 175.703577,66.937931 C175.38815,65.5972414 174.858782,64.3172414 174.134672,63.1365517 C173.802789,62.5931034 173.882331,61.8896552 174.332157,61.4372414 L175.196151,60.5655172 L172.483483,57.8372414 L171.616746,58.7034483 C171.16692,59.1613793 170.467496,59.2386207 169.927156,58.9048276 C168.753221,58.1765517 167.480544,57.6441379 166.147524,57.3241379 C165.527642,57.177931 165.09153,56.6234483 165.09153,55.9834483 L165.09153,54.7586207 L161.251555,54.7586207 L161.251555,55.9834483 C161.251555,56.6234483 160.815443,57.177931 160.195562,57.3241379 C158.862541,57.6441379 157.589864,58.1765517 156.415929,58.9048276 C155.881075,59.2386207 155.178908,59.1613793 154.726339,58.7034483 L153.859602,57.8372414 L151.146934,60.5655172 L152.010928,61.4372414 C152.460754,61.8896552 152.540296,62.5931034 152.208413,63.1365517 C151.484303,64.3172414 150.954935,65.5972414 150.639508,66.937931 C150.491395,67.5586207 149.940084,68 149.303745,68 L148.085925,68 L148.085925,71.862069 L149.303745,71.862069 C149.940084,71.862069 150.491395,72.3006897 150.639508,72.9241379 C150.954935,74.2648276 151.484303,75.5448276 152.208413,76.7255172 C152.540296,77.2689655 152.460754,77.9724138 152.010928,78.4248276 L151.146934,79.2937931 L153.859602,82.0248276 L154.726339,81.1558621 C155.178908,80.7034483 155.881075,80.6262069 156.415929,80.9572414 C157.589864,81.6855172 158.862541,82.217931 160.195562,82.5351724 C160.815443,82.6841379 161.251555,83.2386207 161.251555,83.8758621 L161.251555,85.1034483 L165.09153,85.1034483 L165.09153,83.8758621 C165.09153,83.2386207 165.527642,82.6841379 166.147524,82.5351724 C167.480544,82.217931 168.753221,81.6855172 169.927156,80.9572414 C170.467496,80.6262069 171.16692,80.7034483 171.616746,81.1558621 L172.483483,82.0248276 L175.196151,79.2937931 L174.332157,78.4248276 C173.882331,77.9724138 173.802789,77.2689655 174.134672,76.7255172 C174.858782,75.5448276 175.38815,74.2648276 175.703577,72.9241379 C175.85169,72.3006897 176.403001,71.862069 177.03934,71.862069 L178.25716,71.862069 Z M144.83566,54.182069 L137.542449,83.5393103 L145.343085,72.1241379 L145.343085,66.6206897 C145.343085,65.8565517 145.957481,65.2413793 146.714505,65.2413793 L148.258724,65.2413793 C148.538493,64.3448276 148.897805,63.4758621 149.331174,62.6427586 L148.239524,61.542069 C147.701927,61.0013793 147.701927,60.1296552 148.239524,59.5917241 L152.89138,54.9103448 C153.426233,54.3724138 154.295714,54.3724138 154.830567,54.9103448 L155.92496,56.0110345 C156.116959,55.9117241 156.325415,55.8537931 156.517414,55.7627586 L161.931779,47.862069 L155.930446,47.862069 C155.469649,47.862069 155.039023,47.6303448 154.786682,47.2413793 C154.534341,46.8551724 154.490455,46.3668966 154.66874,45.9393103 L167.949569,14.7586207 L146.467649,14.7586207 L138.839812,53.12 L143.313384,52.4827586 C143.760467,52.4303448 144.221264,52.5848276 144.522976,52.9241379 C144.827431,53.2662069 144.945373,53.737931 144.83566,54.182069 Z M179.62858,65.2413793 C180.385604,65.2413793 181,65.8565517 181,66.6206897 L181,73.2413793 C181,74.0027586 180.385604,74.6206897 179.62858,74.6206897 L178.084361,74.6206897 C177.804592,75.5144828 177.44528,76.3862069 177.011911,77.2165517 L178.103561,78.32 C178.641158,78.857931 178.641158,79.7324138 178.103561,80.2703448 L173.451705,84.9489655 C172.916852,85.4868966 172.047372,85.4868966 171.512518,84.9489655 L170.418125,83.8510345 C169.589787,84.2868966 168.72305,84.6482759 167.83437,84.9268966 L167.83437,86.4827586 C167.83437,87.2441379 167.222717,87.862069 166.46295,87.862069 L159.880135,87.862069 C159.120368,87.862069 158.508715,87.2441379 158.508715,86.4827586 L158.508715,84.9268966 C157.620035,84.6482759 156.753298,84.2868966 155.92496,83.8510345 L154.830567,84.9489655 C154.295714,85.4868966 153.426233,85.4868966 152.89138,84.9489655 L148.239524,80.2703448 C147.701927,79.7324138 147.701927,78.857931 148.239524,78.32 L149.331174,77.2165517 C148.897805,76.3862069 148.538493,75.5144828 148.258724,74.6206897 L146.966846,74.6206897 L135.501777,91.4013793 C135.238464,91.7875862 134.810581,92 134.371727,92 C134.182471,92 133.990472,91.9586207 133.809444,91.8786207 C133.203277,91.6027586 132.879622,90.9324138 133.041449,90.2868966 L141.681394,55.5006897 L137.306565,56.1241379 C136.859482,56.1793103 136.420628,56.0303448 136.118915,55.7075862 C135.811717,55.3793103 135.682804,54.9241379 135.770575,54.4882759 L143.999094,13.1089655 C144.128007,12.4634483 144.690289,12 145.343085,12 L170.028642,12 C170.489439,12 170.920064,12.2317241 171.172406,12.617931 C171.42749,13.0068966 171.468632,13.4951724 171.290348,13.9227586 L158.009518,45.1034483 L164.542962,45.1034483 C165.05313,45.1034483 165.519413,45.3848276 165.755297,45.84 C165.993924,46.2924138 165.963753,46.8441379 165.673012,47.2634483 L162.428233,52 L166.46295,52 C167.222717,52 167.83437,52.6151724 167.83437,53.3793103 L167.83437,54.9324138 C168.72305,55.2137931 169.589787,55.5751724 170.418125,56.0110345 L171.512518,54.9103448 C172.047372,54.3724138 172.916852,54.3724138 173.451705,54.9103448 L178.103561,59.5917241 C178.641158,60.1296552 178.641158,61.0013793 178.103561,61.542069 L177.011911,62.6427586 C177.44528,63.4758621 177.804592,64.3448276 178.084361,65.2413793 L179.62858,65.2413793 Z" id="icon-section-problem"></path>
        </g>
    </g>
</svg>