<?xml version="1.0" encoding="UTF-8"?>
<svg width="90px" height="83px" viewBox="0 0 90 83" version="1.1" xmlns="http://www.w3.org/2000/svg" xmlns:xlink="http://www.w3.org/1999/xlink">
    <!-- Generator: Sketch 53.2 (72643) - https://sketchapp.com -->
    <title>icon-section-automation-white</title>
    <desc>Created with Sketch.</desc>
    <g id="Features" stroke="none" stroke-width="1" fill="none" fill-rule="evenodd">
        <g id="Artboard-Copy" transform="translate(-506.000000, -109.000000)" fill="#FFFFFF">
            <path d="M593.352941,188.411765 L593.352941,183.117647 L549.676471,183.117647 L523.205882,183.117647 L508.647059,183.117647 L508.647059,188.411765 L593.352941,188.411765 Z M524.529412,172.142941 L524.529412,180.470588 L548.352941,180.470588 L548.352941,172.142941 C545.128824,174.856176 540.975588,176.5 536.441176,176.5 C531.906765,176.5 527.753529,174.856176 524.529412,172.142941 Z M536.441176,142.088235 C527.682059,142.088235 520.558824,149.211471 520.558824,157.970588 C520.558824,166.729706 527.682059,173.852941 536.441176,173.852941 C545.200294,173.852941 552.323529,166.729706 552.323529,157.970588 C552.323529,149.211471 545.200294,142.088235 536.441176,142.088235 Z M515.320294,127.532059 L521.906176,146.514118 C525.302353,142.215294 530.548824,139.441176 536.441176,139.441176 C537.110882,139.441176 537.772647,139.483529 538.423824,139.549706 L528.452353,128.156765 L515.320294,127.532059 Z M511.294118,118.264706 C511.294118,121.915 514.261471,124.882353 517.911765,124.882353 C521.562059,124.882353 524.529412,121.915 524.529412,118.264706 C524.529412,114.614412 521.562059,111.647059 517.911765,111.647059 C514.261471,111.647059 511.294118,114.614412 511.294118,118.264706 Z M568.997353,127.442059 C568.960294,127.240882 568.904706,127.047647 568.886176,126.841176 C568.814706,126.017941 568.915294,125.223824 569.103235,124.464118 L526.149412,114.116765 C526.784706,115.368824 527.176471,116.766471 527.176471,118.264706 C527.176471,121.089118 525.879412,123.593235 523.878235,125.292647 L568.997353,127.442059 Z M575.742059,121.581471 C574.079706,121.727059 572.711176,122.743529 572.009706,124.138529 C571.639118,124.879706 571.448529,125.724118 571.522647,126.610882 C571.570294,127.172059 571.731765,127.696176 571.959412,128.172647 C572.017647,128.267941 572.073235,128.360588 572.107647,128.466471 C572.970588,129.993824 574.667353,130.957353 576.552059,130.830294 C579.098529,130.607941 580.991176,128.352647 580.771471,125.800882 C580.559706,123.389412 578.524118,121.562941 576.147059,121.562941 C576.012059,121.562941 575.877059,121.570882 575.742059,121.581471 Z M577.470588,140.764706 L577.470588,133.334412 C577.240294,133.379412 577.020588,133.445588 576.782353,133.466765 C576.567941,133.485294 576.356176,133.495882 576.147059,133.495882 C575.697059,133.495882 575.255,133.448235 574.823529,133.368824 L574.823529,140.764706 L577.470588,140.764706 Z M582.764706,146.834412 L582.764706,143.411765 L580.117647,143.411765 L580.117647,149.481471 L582.764706,146.834412 Z M572.176471,149.481471 L572.176471,143.411765 L569.529412,143.411765 L569.529412,146.834412 L572.176471,149.481471 Z M594.676471,180.470588 C595.407059,180.470588 596,181.063529 596,181.794118 L596,189.735294 C596,190.465882 595.407059,191.058824 594.676471,191.058824 L507.323529,191.058824 C506.592941,191.058824 506,190.465882 506,189.735294 L506,181.794118 C506,181.063529 506.592941,180.470588 507.323529,180.470588 L521.882353,180.470588 L521.882353,169.392647 C519.402059,166.242647 517.911765,162.28 517.911765,157.970588 C517.911765,154.841765 518.697941,151.895588 520.071765,149.312059 L511.654118,125.051765 C509.817059,123.357647 508.647059,120.954118 508.647059,118.264706 C508.647059,113.155882 512.802941,109 517.911765,109 C519.881176,109 521.705,109.63 523.205882,110.683529 L570.220294,122.031471 C571.414118,120.334706 573.290882,119.138235 575.511765,118.945 C579.577647,118.603529 583.058529,121.570882 583.407941,125.570588 L583.407941,125.573235 C583.651471,128.376471 582.245882,130.928235 580.019706,132.339118 C580.077941,132.49 580.117647,132.654118 580.117647,132.823529 L580.117647,140.764706 L584.088235,140.764706 C584.818824,140.764706 585.411765,141.357647 585.411765,142.088235 L585.411765,147.382353 C585.411765,147.734412 585.271471,148.070588 585.025294,148.319412 L579.731176,153.613529 C579.477059,153.865 579.138235,154 578.794118,154 C578.624706,154 578.45,153.965588 578.288529,153.899412 C577.793529,153.695588 577.470588,153.211176 577.470588,152.676471 L577.470588,143.411765 L574.823529,143.411765 L574.823529,152.676471 C574.823529,153.211176 574.500588,153.695588 574.005588,153.899412 C573.844118,153.965588 573.669412,154 573.5,154 C573.155882,154 572.817059,153.865 572.562941,153.613529 L567.268824,148.319412 C567.022647,148.070588 566.882353,147.734412 566.882353,147.382353 L566.882353,142.088235 C566.882353,141.357647 567.475294,140.764706 568.205882,140.764706 L572.176471,140.764706 L572.176471,132.823529 C572.176471,132.662059 572.216176,132.513824 572.269118,132.368235 C571.371765,131.804412 570.625294,131.031471 570.045588,130.136765 L532.121176,128.334118 L542.873529,140.613824 C549.922647,143.239706 554.970588,150.018824 554.970588,157.970588 C554.970588,162.28 553.480294,166.242647 551,169.392647 L551,180.470588 L594.676471,180.470588 Z M536.441176,152.412824 C533.375882,152.412824 530.882353,154.903706 530.882353,157.971647 C530.882353,161.036941 533.375882,163.527824 536.441176,163.527824 C539.506471,163.527824 542,161.036941 542,157.971647 C542,154.903706 539.506471,152.412824 536.441176,152.412824 Z M536.441176,166.174882 C531.917353,166.174882 528.235294,162.495471 528.235294,157.971647 C528.235294,153.447824 531.917353,149.765765 536.441176,149.765765 C540.965,149.765765 544.647059,153.447824 544.647059,157.971647 C544.647059,162.495471 540.965,166.174882 536.441176,166.174882 Z M517.911765,116.941176 C517.183824,116.941176 516.588235,117.536765 516.588235,118.264706 C516.588235,118.992647 517.183824,119.588235 517.911765,119.588235 C518.639706,119.588235 519.235294,118.992647 519.235294,118.264706 C519.235294,117.536765 518.639706,116.941176 517.911765,116.941176 Z M517.911765,122.235294 C515.722647,122.235294 513.941176,120.453824 513.941176,118.264706 C513.941176,116.075588 515.722647,114.294118 517.911765,114.294118 C520.100882,114.294118 521.882353,116.075588 521.882353,118.264706 C521.882353,120.453824 520.100882,122.235294 517.911765,122.235294 Z M576.147059,127.542382 C575.416471,127.542382 574.810294,126.936206 574.810294,126.205618 C574.810294,125.475029 575.416471,124.868853 576.147059,124.868853 C576.877647,124.868853 577.483824,125.475029 577.483824,126.205618 C577.483824,126.936206 576.877647,127.542382 576.147059,127.542382 Z" id="icon-section-automation"></path>
        </g>
    </g>
</svg>