<?xml version="1.0" encoding="UTF-8"?>
<svg width="89px" height="93px" viewBox="0 0 89 93" version="1.1" xmlns="http://www.w3.org/2000/svg" xmlns:xlink="http://www.w3.org/1999/xlink">
    <!-- Generator: Sketch 53.2 (72643) - https://sketchapp.com -->
    <title>icon-section-cmdb</title>
    <desc>Created with Sketch.</desc>
    <g id="Features" stroke="none" stroke-width="1" fill="none" fill-rule="evenodd">
        <g id="Desktop-HD---Features---ITSM" transform="translate(-515.000000, -1299.000000)" fill="#505050">
            <path d="M586.331562,1366.01454 C590.8275,1366.01454 594.486226,1369.69619 594.486226,1374.2203 C594.486226,1378.74441 590.8275,1382.42606 586.331562,1382.42606 C581.835624,1382.42606 578.176898,1378.74441 578.176898,1374.2203 C578.176898,1369.69619 581.835624,1366.01454 586.331562,1366.01454 Z M586.331562,1379.69081 C589.32976,1379.69081 591.768004,1377.23729 591.768004,1374.2203 C591.768004,1371.20332 589.32976,1368.74979 586.331562,1368.74979 C583.333364,1368.74979 580.895119,1371.20332 580.895119,1374.2203 C580.895119,1377.23729 583.333364,1379.69081 586.331562,1379.69081 Z M601.281779,1376.13553 L601.281779,1372.30617 L600.074889,1372.30617 C599.444261,1372.30617 598.897899,1371.86853 598.751115,1371.2531 C598.438519,1369.92377 597.913903,1368.65461 597.196292,1367.48392 C596.867387,1366.94507 596.946216,1366.24758 597.392004,1365.799 L598.248244,1364.93466 L595.559923,1362.2295 L594.700965,1363.08837 C594.255177,1363.54242 593.559312,1363.61627 593.026541,1363.28804 C591.863142,1362.56593 590.601887,1362.03803 589.280832,1361.72074 C588.666514,1361.57577 588.234317,1361.02598 588.234317,1360.39141 L588.234317,1359.17695 L584.428807,1359.17695 L584.428807,1360.39141 C584.428807,1361.02598 583.99661,1361.57577 583.382292,1361.72074 C582.061236,1362.03803 580.799982,1362.56593 579.636583,1363.28804 C579.103812,1363.61627 578.410665,1363.54242 577.962159,1363.08837 L577.103201,1362.2295 L574.41488,1364.93466 L575.27112,1365.799 C575.716908,1366.24758 575.795736,1366.94507 575.466832,1367.48392 C574.749221,1368.65461 574.224604,1369.92377 573.912009,1371.2531 C573.765225,1371.86853 573.218863,1372.30617 572.588235,1372.30617 L571.381345,1372.30617 L571.381345,1376.13553 L572.588235,1376.13553 C573.218863,1376.13553 573.765225,1376.57043 573.912009,1377.1886 C574.224604,1378.51793 574.749221,1379.78709 575.466832,1380.95778 C575.795736,1381.49663 575.716908,1382.19411 575.27112,1382.6427 L574.41488,1383.5043 L577.103201,1386.2122 L577.962159,1385.3506 C578.410665,1384.90202 579.103812,1384.82816 579.636583,1385.15366 C580.799982,1385.87577 582.061236,1386.40367 583.382292,1386.71822 C583.99661,1386.86593 584.428807,1387.41571 584.428807,1388.04756 L584.428807,1389.26475 L588.234317,1389.26475 L588.234317,1388.04756 C588.234317,1387.41571 588.666514,1386.86593 589.280832,1386.71822 C590.601887,1386.40367 591.863142,1385.87577 593.026541,1385.15366 C593.559312,1384.82816 594.255177,1384.90202 594.700965,1385.3506 L595.559923,1386.2122 L598.248244,1383.5043 L597.392004,1382.6427 C596.946216,1382.19411 596.867387,1381.49663 597.196292,1380.95778 C597.913903,1379.78709 598.438519,1378.51793 598.751115,1377.1886 C598.897899,1376.57043 599.444261,1376.13553 600.074889,1376.13553 L601.281779,1376.13553 Z M560.50846,1352.60414 L560.50846,1374.41779 L572.604545,1381.4556 L572.615418,1381.44466 C572.185939,1380.62134 571.829852,1379.757 571.552593,1378.87078 L570.022234,1378.87078 C569.272005,1378.87078 568.663124,1378.25808 568.663124,1377.50315 L568.663124,1370.93855 C568.663124,1370.18088 569.272005,1369.57092 570.022234,1369.57092 L571.552593,1369.57092 C571.829852,1368.68196 572.185939,1367.82036 572.615418,1366.99431 L571.533565,1365.90294 C571.000794,1365.36683 571.000794,1364.50249 571.533565,1363.96912 L574.675829,1360.80716 L560.50846,1352.60414 Z M517.718221,1352.58773 L517.718221,1374.41779 L536.395119,1385.27128 L536.395119,1363.43574 L517.718221,1352.58773 Z M559.149349,1301.94724 L540.583898,1312.73508 L559.149349,1323.52292 L577.714801,1312.73508 L559.149349,1301.94724 Z M600.575041,1366.46367 L600.047706,1366.99431 C600.262446,1367.40733 600.401075,1367.84771 600.575041,1368.27714 L600.575041,1366.46367 Z M590.952538,1358.18953 L590.952538,1359.34927 C591.833242,1359.62827 592.6922,1359.98659 593.513102,1360.41876 L594.597673,1359.32739 C595.127726,1358.79402 595.989402,1358.79402 596.519455,1359.32739 L600.575041,1363.41113 L600.575041,1352.60414 L590.952538,1358.18953 Z M539.113341,1363.43574 L539.113341,1385.27128 L557.790239,1374.41779 L557.790239,1352.58773 L539.113341,1363.43574 Z M537.75423,1339.49407 L519.188779,1350.28464 L537.75423,1361.06975 L556.319681,1350.28464 L537.75423,1339.49407 Z M579.185358,1336.87096 L579.185358,1315.03543 L560.50846,1325.88891 L560.50846,1347.71897 L579.185358,1336.87096 Z M557.790239,1325.88891 L539.113341,1315.03543 L539.113341,1336.87096 L557.790239,1347.71897 L557.790239,1325.88891 Z M579.302242,1360.35311 C580.076935,1359.9565 580.881528,1359.61186 581.710586,1359.34927 L581.710586,1357.80933 C581.710586,1357.05166 582.316749,1356.4417 583.069696,1356.4417 L588.522448,1356.4417 L599.126229,1350.28738 L580.541751,1339.50227 L561.954554,1350.28738 L576.937389,1358.96087 C577.336968,1358.9089 577.758292,1359.01831 578.065451,1359.32739 L578.823835,1360.09326 L579.302242,1360.35311 Z M603.293262,1369.76239 C603.70915,1369.99488 604,1370.42432 604,1370.93855 L604,1377.50315 C604,1378.25808 603.391118,1378.87078 602.640889,1378.87078 L601.110531,1378.87078 C600.833272,1379.757 600.477185,1380.62134 600.047706,1381.44466 L601.129558,1382.53876 C601.66233,1383.07213 601.66233,1383.93921 601.129558,1384.47258 L596.519455,1389.11157 C595.989402,1389.64495 595.127726,1389.64495 594.597673,1389.11157 L593.513102,1388.02294 C592.6922,1388.45511 591.833242,1388.81343 590.952538,1389.08969 L590.952538,1390.63237 C590.952538,1391.3873 590.346375,1392 589.593427,1392 L583.069696,1392 C582.316749,1392 581.710586,1391.3873 581.710586,1390.63237 L581.710586,1389.08969 C581.392554,1388.98849 581.096268,1388.82711 580.783672,1388.70402 C580.555342,1388.6712 580.348757,1388.58367 580.169354,1388.44691 C579.832295,1388.2992 579.478926,1388.19526 579.150021,1388.02294 L578.065451,1389.11157 C577.535398,1389.64495 576.673722,1389.64495 576.143669,1389.11157 L571.533565,1384.47258 C571.340572,1384.28111 571.242716,1384.04041 571.19107,1383.7915 L559.152068,1376.78378 L538.433785,1388.82437 C538.224482,1388.94746 537.987997,1389.00763 537.75423,1389.00763 C537.520463,1389.00763 537.283978,1388.94746 537.074675,1388.82437 L515.679555,1376.39264 C515.260949,1376.1492 515,1375.69789 515,1375.20828 L515,1350.34755 C515,1349.86068 515.260949,1349.40936 515.679555,1349.16592 L536.395119,1337.12807 L536.395119,1312.80072 C536.395119,1312.31111 536.656069,1311.8598 537.074675,1311.61636 L558.469794,1299.18463 C558.8884,1298.93846 559.410299,1298.93846 559.828905,1299.18463 L581.224024,1311.61636 C581.64263,1311.8598 581.90358,1312.31111 581.90358,1312.80072 L581.90358,1337.13354 L602.532161,1349.10028 C602.950767,1349.34645 603.293262,1349.85247 603.293262,1350.33935 L603.293262,1369.76239 Z" id="icon-section-cmdb"></path>
        </g>
    </g>
</svg>