<?xml version="1.0" encoding="UTF-8"?>
<svg width="100px" height="57px" viewBox="0 0 100 57" version="1.1" xmlns="http://www.w3.org/2000/svg" xmlns:xlink="http://www.w3.org/1999/xlink">
    <!-- Generator: Sketch 53.2 (72643) - https://sketchapp.com -->
    <title>icon-section-portal-white</title>
    <desc>Created with Sketch.</desc>
    <g id="Features" stroke="none" stroke-width="1" fill="none" fill-rule="evenodd">
        <g id="Artboard-Copy" transform="translate(-300.000000, -23.000000)" fill="#FFFFFF">
            <path d="M317.06753,68.6737589 L385.06013,68.6737589 L385.06013,26.2624113 L317.06753,26.2624113 L317.06753,68.6737589 Z M386.679001,71.9361702 L315.448659,71.9361702 C314.555042,71.9361702 313.829787,71.2053901 313.829787,70.3049645 L313.829787,24.6312057 C313.829787,23.7307801 314.555042,23 315.448659,23 L386.679001,23 C387.572618,23 388.297872,23.7307801 388.297872,24.6312057 L388.297872,70.3049645 C388.297872,71.2053901 387.572618,71.9361702 386.679001,71.9361702 Z M398.387097,79.3829787 L301.612903,79.3829787 C300.722581,79.3829787 300,78.6680851 300,77.787234 C300,76.906383 300.722581,76.1914894 301.612903,76.1914894 L398.387097,76.1914894 C399.277419,76.1914894 400,76.906383 400,77.787234 C400,78.6680851 399.277419,79.3829787 398.387097,79.3829787 Z M322.872782,47.4680851 C322.496212,47.4680851 322.116451,47.3299922 321.813281,47.0538063 C321.155879,46.4488278 321.092054,45.409843 321.679247,44.7325301 L334.444322,29.9368601 C335.028324,29.2529713 336.039956,29.1970766 336.697358,29.7987672 C337.354759,30.4037457 337.418584,31.4427305 336.831391,32.1200434 L324.066316,46.9157134 C323.750381,47.2806733 323.313177,47.4680851 322.872782,47.4680851 Z M321.868072,37.893617 C321.444525,37.893617 321.020979,37.7314601 320.696701,37.4104556 C320.051454,36.7618279 320.051454,35.7160812 320.696701,35.0674535 L324.832898,30.9307973 C325.481453,30.2854789 326.527084,30.2854789 327.175639,30.9307973 C327.820886,31.579425 327.820886,32.6251717 327.175639,33.2737994 L323.039443,37.4104556 C322.715165,37.7314601 322.291618,37.893617 321.868072,37.893617 Z M361.702128,33.8597367 C358.781716,33.8597367 356.404263,36.3853035 356.404263,39.4876552 C356.404263,42.5934199 358.781716,45.1189867 361.702128,45.1189867 C364.622539,45.1189867 366.999992,42.5934199 366.999992,39.4876552 C366.999992,36.3853035 364.622539,33.8597367 361.702128,33.8597367 Z M361.702128,48.5319149 C357.008265,48.5319149 353.191489,44.4739433 353.191489,39.4876552 C353.191489,34.5013672 357.008265,30.4468085 361.702128,30.4468085 C366.39599,30.4468085 370.212766,34.5013672 370.212766,39.4876552 C370.212766,44.4739433 366.39599,48.5319149 361.702128,48.5319149 Z M350.342083,57.4261077 C353.379068,59.8249487 357.929653,61.2388997 362.767301,61.2388997 C367.601686,61.2388997 372.155533,59.8249487 375.189257,57.4261077 L375.022891,56.9515403 C374.181278,54.5331965 371.40852,52.8462067 368.280196,52.8462067 L357.251143,52.8462067 C354.12282,52.8462067 351.353324,54.5331965 350.508448,56.9515403 L350.342083,57.4261077 Z M362.767301,64.4893617 C356.683543,64.4893617 350.909682,62.4805762 347.321407,59.1195984 C346.854932,58.6807861 346.688566,58.0079404 346.897338,57.4033545 L347.422531,55.8886392 C348.740407,52.1213537 352.68751,49.5957447 357.251143,49.5957447 L368.280196,49.5957447 C372.84383,49.5957447 376.790932,52.1213537 378.108808,55.8853887 L378.634001,57.4033545 C378.842773,58.0079404 378.67967,58.6807861 378.209932,59.1195984 C374.621657,62.4805762 368.847796,64.4893617 362.767301,64.4893617 Z" id="icon-section-portal"></path>
        </g>
    </g>
</svg>