<?xml version="1.0" encoding="UTF-8"?>
<svg width="85px" height="79px" viewBox="0 0 85 79" version="1.1" xmlns="http://www.w3.org/2000/svg" xmlns:xlink="http://www.w3.org/1999/xlink">
    <!-- Generator: Sketch 53.2 (72643) - https://sketchapp.com -->
    <title>icon-section-incident-white</title>
    <desc>Created with Sketch.</desc>
    <g id="Features" stroke="none" stroke-width="1" fill="none" fill-rule="evenodd">
        <g id="Artboard-Copy" transform="translate(-12.000000, -12.000000)" fill="#FFFFFF">
            <path d="M49.6783808,31.8967895 C50.3216415,31.8967895 50.8437082,32.5007743 50.8437082,33.2449698 L50.8437082,56.2017846 C50.8437082,56.9459802 50.3216415,57.549965 49.6783808,57.549965 C49.0351201,57.549965 48.5130534,56.9459802 48.5130534,56.2017846 L48.5130534,33.2449698 C48.5130534,32.5007743 49.0351201,31.8967895 49.6783808,31.8967895 Z M49.6783808,62.2141787 C50.3216415,62.2141787 50.8437082,62.7946142 50.8437082,63.5097936 L50.8437082,64.8054085 C50.8437082,65.520588 50.3216415,66.1010234 49.6783808,66.1010234 C49.0351201,66.1010234 48.5130534,65.520588 48.5130534,64.8054085 L48.5130534,63.5097936 C48.5130534,62.7946142 49.0351201,62.2141787 49.6783808,62.2141787 Z M79.2000078,64.5462855 C83.6973946,64.5462855 87.3572995,68.2084707 87.3572995,72.7086596 C87.3572995,77.2088484 83.6973946,80.8710336 79.2000078,80.8710336 C74.702621,80.8710336 71.0427162,77.2088484 71.0427162,72.7086596 C71.0427162,68.2084707 74.702621,64.5462855 79.2000078,64.5462855 Z M79.2000078,78.1502422 C82.1991721,78.1502422 84.6382023,75.7096924 84.6382023,72.7086596 C84.6382023,69.7076267 82.1991721,67.2670769 79.2000078,67.2670769 C76.2008436,67.2670769 73.7618134,69.7076267 73.7618134,72.7086596 C73.7618134,75.7096924 76.2008436,78.1502422 79.2000078,78.1502422 Z M94.3051804,74.5697016 L94.3051804,70.7968709 L93.1086805,70.7968709 C92.4834824,70.7968709 91.9418237,70.3656903 91.7963034,69.7593425 C91.4863992,68.4496313 90.966299,67.1992074 90.2548666,66.0457992 C89.9287934,65.514908 90.0069432,64.8277138 90.4488936,64.3857537 L91.2977618,63.5341719 L88.6325852,60.8689365 L87.7810223,61.7151285 C87.336377,62.1624785 86.6518929,62.2379351 86.1210134,61.9118547 C84.9676306,61.2004066 83.7172343,60.680295 82.407552,60.367689 C81.7985228,60.2248604 81.3700465,59.6831897 81.3700465,59.0579778 L81.3700465,57.8614515 L77.5972991,57.8614515 L77.5972991,59.0579778 C77.5972991,59.6831897 77.1688228,60.2248604 76.5597936,60.367689 C75.2501112,60.680295 73.999715,61.2004066 72.8463322,61.9118547 C72.3208424,62.2379351 71.6336634,62.1624785 71.1863233,61.7151285 L70.3347604,60.8689365 L67.6695838,63.5341719 L68.518452,64.3857537 C68.9604024,64.8277138 69.0385521,65.514908 68.712479,66.0457992 C68.0010466,67.1992074 67.4809464,68.4496313 67.1710422,69.7593425 C67.0255219,70.3656903 66.4838632,70.7968709 65.858665,70.7968709 L64.6621652,70.7968709 L64.6621652,74.5697016 L65.858665,74.5697016 C66.4838632,74.5697016 67.0255219,74.9981873 67.1710422,75.60723 C67.4809464,76.9169412 68.0010466,78.1673651 68.712479,79.3207733 C69.0385521,79.8516645 68.9604024,80.5388586 68.518452,80.9808188 L67.6695838,81.8297057 L70.3347604,84.497636 L71.1863233,83.6487491 C71.6336634,83.2067889 72.3208424,83.1313323 72.8463322,83.4547178 C73.999715,84.1661658 75.2501112,84.6862775 76.5597936,84.9961886 C77.1688228,85.141712 77.5972991,85.6833827 77.5972991,86.3058998 L77.5972991,87.505121 L81.3700465,87.505121 L81.3700465,86.3058998 C81.3700465,85.6833827 81.7985228,85.141712 82.407552,84.9961886 C83.7172343,84.6862775 84.9676306,84.1661658 86.1210134,83.4547178 C86.6518929,83.1313323 87.336377,83.2067889 87.7810223,83.6487491 L88.6325852,84.497636 L91.2977618,81.8297057 L90.4488936,80.9808188 C90.0069432,80.5388586 89.9287934,79.8516645 90.2548666,79.3207733 C90.966299,78.1673651 91.4863992,76.9169412 91.7963034,75.60723 C91.9418237,74.9981873 92.4834824,74.5697016 93.1086805,74.5697016 L94.3051804,74.5697016 Z M15.2445639,74.5966504 C15.97486,75.8605486 17.2818475,76.6178096 18.7424397,76.6178096 L62.1910156,76.6178096 C62.0616643,76.4103039 61.9673456,76.1812392 61.9673456,75.9171411 L61.9673456,69.4494314 C61.9673456,68.7029499 62.5709852,68.1019919 63.3147554,68.1019919 L64.8319388,68.1019919 C65.1068104,67.2261562 65.4598318,66.3772693 65.8856132,65.5634158 L64.8130751,64.4881591 C64.2848904,63.9599628 64.2848904,63.108381 64.8130751,62.5828796 L69.383489,58.0096699 C69.9089789,57.4841684 70.7632367,57.4841684 71.2887265,58.0096699 L72.3639595,59.0849266 C73.177795,58.6591357 74.029358,58.3061066 74.9024795,58.0312289 L74.9024795,56.514012 C74.9024795,55.9858157 75.209689,55.5438555 75.6489445,55.3201806 L53.3385333,16.7106486 C52.6055424,15.4521401 51.2985549,14.694879 49.8406575,14.694879 C48.3827601,14.694879 47.0757726,15.4521401 46.3427817,16.7133434 L15.2472587,70.5543318 C14.5169626,71.8182301 14.5169626,73.3273623 15.2445639,74.5966504 Z M95.6525902,68.1019919 C96.3963604,68.1019919 97,68.7029499 97,69.4494314 L97,75.9171411 C97,76.6609277 96.3963604,77.2645806 95.6525902,77.2645806 L94.1354068,77.2645806 C93.8605352,78.1377214 93.5075138,78.9893032 93.0817323,79.8004618 L94.1542705,80.8784134 C94.6824552,81.4039148 94.6824552,82.2581915 94.1542705,82.7836929 L89.5838565,87.3542077 C89.0583667,87.8797091 88.2041089,87.8797091 87.6786191,87.3542077 L86.6033861,86.2816459 C85.7895506,86.7074368 84.9379876,87.0604659 84.0648661,87.3326487 L84.0648661,88.8525605 C84.0648661,89.5963471 83.4639213,90.2 82.7174563,90.2 L76.2498893,90.2 C75.5034243,90.2 74.9024795,89.5963471 74.9024795,88.8525605 L74.9024795,87.3326487 C74.029358,87.0604659 73.177795,86.7074368 72.3639595,86.2816459 L71.2887265,87.3542077 C70.7632367,87.8797091 69.9089789,87.8797091 69.383489,87.3542077 L64.8130751,82.7836929 C64.2848904,82.2581915 64.2848904,81.4039148 64.8130751,80.8784134 L65.8856132,79.8004618 C65.8047687,79.6441588 65.7589567,79.4716865 65.6835018,79.3126887 L18.7424397,79.3126887 C16.3090176,79.3126887 14.1262138,78.0514853 12.9108501,75.941395 C11.6954865,73.8313047 11.6954865,71.3115928 12.9162398,69.2041974 L44.0117628,15.363209 C45.2298212,13.2585085 47.4099303,12 49.8406575,12 C52.2713848,12 54.4514938,13.2585085 55.6695523,15.3605142 L78.6698373,55.1665725 L82.7174563,55.1665725 C83.4639213,55.1665725 84.0648661,55.7675305 84.0648661,56.514012 L84.0648661,58.0312289 C84.9379876,58.3061066 85.7895506,58.6591357 86.6033861,59.0849266 L87.6786191,58.0096699 C88.2041089,57.4841684 89.0583667,57.4841684 89.5838565,58.0096699 L94.1542705,62.5828796 C94.6824552,63.108381 94.6824552,63.9599628 94.1542705,64.4881591 L93.0817323,65.5634158 C93.5075138,66.3772693 93.8605352,67.2261562 94.1354068,68.1019919 L95.6525902,68.1019919 Z" id="icon-section-incident"></path>
        </g>
    </g>
</svg>