<?xml version="1.0" encoding="UTF-8"?>
<svg width="80px" height="73px" viewBox="0 0 80 73" version="1.1" xmlns="http://www.w3.org/2000/svg" xmlns:xlink="http://www.w3.org/1999/xlink">
    <!-- Generator: Sketch 53.2 (72643) - https://sketchapp.com -->
    <title>icon-section-reporting-white</title>
    <desc>Created with Sketch.</desc>
    <g id="Features" stroke="none" stroke-width="1" fill="none" fill-rule="evenodd">
        <g id="Artboard-Copy" transform="translate(-711.000000, -114.000000)" fill="#FFFFFF">
            <path d="M776.361425,121.438504 L787.652516,121.438504 C786.962313,118.960049 784.684644,117.137286 781.992853,117.137286 C781.387357,117.137286 780.810096,117.256503 780.257934,117.429053 C780.154403,117.460426 780.050873,117.485524 779.953617,117.523172 C779.435965,117.714546 778.959098,117.974941 778.523015,118.298081 C778.438308,118.363964 778.359876,118.432985 778.275169,118.498868 C777.854773,118.853381 777.46575,119.245542 777.152021,119.697311 C777.142609,119.70986 777.133197,119.716134 777.126923,119.728684 C776.816332,120.189865 776.593584,120.710654 776.424171,121.24713 C776.40221,121.313013 776.380249,121.372621 776.361425,121.438504 Z M717.483985,179.123776 C718.174188,181.602231 720.451857,183.424994 723.143648,183.424994 L760.304797,183.424994 C759.269493,182.223414 758.535368,180.74889 758.249875,179.123776 L717.483985,179.123776 Z M781.992853,114 C786.959176,114 791,118.040824 791,123.007147 C791,123.873038 790.297248,124.57579 789.431357,124.57579 L776.122991,124.57579 L776.122991,177.555133 C776.122991,182.521456 772.082167,186.56228 767.115844,186.56228 L723.143648,186.56228 C718.177325,186.56228 714.136501,182.521456 714.136501,177.555133 C714.136501,176.686105 714.839253,175.98649 715.705144,175.98649 L721.575006,175.98649 L721.575006,157.018461 C721.575006,156.149433 722.277758,155.449818 723.143648,155.449818 C724.009539,155.449818 724.712291,156.149433 724.712291,157.018461 L724.712291,175.98649 L759.680477,175.98649 C760.546368,175.98649 761.24912,176.686105 761.24912,177.555133 C761.24912,180.789674 763.878165,183.424994 767.115844,183.424994 C770.350386,183.424994 772.985706,180.789674 772.985706,177.555133 L772.985706,123.007147 C772.985706,122.4142 773.048451,121.83694 773.158256,121.275365 C773.195904,121.090266 773.264924,120.917715 773.308846,120.735752 C773.409239,120.36869 773.506495,120.004765 773.647673,119.656526 C773.729242,119.452602 773.832773,119.267503 773.930029,119.072991 C774.077481,118.765537 774.231208,118.464357 774.413171,118.178864 C774.538662,117.984353 774.676703,117.808665 774.814743,117.623565 C774.937097,117.463563 775.034353,117.287875 775.166119,117.137286 L774.554349,117.137286 L730.582153,117.137286 C727.347611,117.137286 724.712291,119.772606 724.712291,123.007147 L724.712291,141.071638 C724.712291,141.937529 724.009539,142.640281 723.143648,142.640281 C722.277758,142.640281 721.575006,141.937529 721.575006,141.071638 L721.575006,123.007147 C721.575006,118.040824 725.61583,114 730.582153,114 L774.554349,114 L781.992853,114 Z M739.694399,148.454612 L732.961784,141.721997 L713.676889,161.003755 C713.369435,161.311209 712.967862,161.461799 712.569427,161.461799 C712.167855,161.461799 711.766282,161.311209 711.458828,161.003755 C710.847057,160.391984 710.847057,159.397465 711.458828,158.785694 L731.851185,138.393337 C732.462956,137.781566 733.457475,137.781566 734.069246,138.393337 L740.804998,145.125952 L752.701585,133.226228 L743.942284,133.226228 C743.073256,133.226228 742.373641,132.526613 742.373641,131.657585 C742.373641,130.791694 743.073256,130.088942 743.942284,130.088942 L756.491426,130.088942 C757.357317,130.088942 758.060069,130.791694 758.060069,131.657585 L758.060069,144.206728 C758.060069,145.075756 757.357317,145.77537 756.491426,145.77537 C755.622398,145.77537 754.922784,145.075756 754.922784,144.206728 L754.922784,135.447426 L741.91246,148.454612 C741.300689,149.066383 740.30617,149.066383 739.694399,148.454612 Z" id="icon-section-reporting"></path>
        </g>
    </g>
</svg>