<?xml version="1.0" encoding="UTF-8"?>
<svg width="85px" height="79px" viewBox="0 0 85 79" version="1.1" xmlns="http://www.w3.org/2000/svg" xmlns:xlink="http://www.w3.org/1999/xlink">
    <!-- Generator: Sketch 53.2 (72643) - https://sketchapp.com -->
    <title>icon-section-incident</title>
    <desc>Created with Sketch.</desc>
    <g id="Features" stroke="none" stroke-width="1" fill="none" fill-rule="evenodd">
        <g id="Desktop-HD---Features---ITSM" transform="translate(-201.000000, -511.000000)" fill="#505050">
            <path d="M238.678381,530.896789 C239.321642,530.896789 239.843708,531.500774 239.843708,532.24497 L239.843708,555.201785 C239.843708,555.94598 239.321642,556.549965 238.678381,556.549965 C238.03512,556.549965 237.513053,555.94598 237.513053,555.201785 L237.513053,532.24497 C237.513053,531.500774 238.03512,530.896789 238.678381,530.896789 Z M238.678381,561.214179 C239.321642,561.214179 239.843708,561.794614 239.843708,562.509794 L239.843708,563.805409 C239.843708,564.520588 239.321642,565.101023 238.678381,565.101023 C238.03512,565.101023 237.513053,564.520588 237.513053,563.805409 L237.513053,562.509794 C237.513053,561.794614 238.03512,561.214179 238.678381,561.214179 Z M268.200008,563.546286 C272.697395,563.546286 276.3573,567.208471 276.3573,571.70866 C276.3573,576.208848 272.697395,579.871034 268.200008,579.871034 C263.702621,579.871034 260.042716,576.208848 260.042716,571.70866 C260.042716,567.208471 263.702621,563.546286 268.200008,563.546286 Z M268.200008,577.150242 C271.199172,577.150242 273.638202,574.709692 273.638202,571.70866 C273.638202,568.707627 271.199172,566.267077 268.200008,566.267077 C265.200844,566.267077 262.761813,568.707627 262.761813,571.70866 C262.761813,574.709692 265.200844,577.150242 268.200008,577.150242 Z M283.30518,573.569702 L283.30518,569.796871 L282.108681,569.796871 C281.483482,569.796871 280.941824,569.36569 280.796303,568.759342 C280.486399,567.449631 279.966299,566.199207 279.254867,565.045799 C278.928793,564.514908 279.006943,563.827714 279.448894,563.385754 L280.297762,562.534172 L277.632585,559.868937 L276.781022,560.715129 C276.336377,561.162478 275.651893,561.237935 275.121013,560.911855 C273.967631,560.200407 272.717234,559.680295 271.407552,559.367689 C270.798523,559.22486 270.370046,558.68319 270.370046,558.057978 L270.370046,556.861452 L266.597299,556.861452 L266.597299,558.057978 C266.597299,558.68319 266.168823,559.22486 265.559794,559.367689 C264.250111,559.680295 262.999715,560.200407 261.846332,560.911855 C261.320842,561.237935 260.633663,561.162478 260.186323,560.715129 L259.33476,559.868937 L256.669584,562.534172 L257.518452,563.385754 C257.960402,563.827714 258.038552,564.514908 257.712479,565.045799 C257.001047,566.199207 256.480946,567.449631 256.171042,568.759342 C256.025522,569.36569 255.483863,569.796871 254.858665,569.796871 L253.662165,569.796871 L253.662165,573.569702 L254.858665,573.569702 C255.483863,573.569702 256.025522,573.998187 256.171042,574.60723 C256.480946,575.916941 257.001047,577.167365 257.712479,578.320773 C258.038552,578.851664 257.960402,579.538859 257.518452,579.980819 L256.669584,580.829706 L259.33476,583.497636 L260.186323,582.648749 C260.633663,582.206789 261.320842,582.131332 261.846332,582.454718 C262.999715,583.166166 264.250111,583.686277 265.559794,583.996189 C266.168823,584.141712 266.597299,584.683383 266.597299,585.3059 L266.597299,586.505121 L270.370046,586.505121 L270.370046,585.3059 C270.370046,584.683383 270.798523,584.141712 271.407552,583.996189 C272.717234,583.686277 273.967631,583.166166 275.121013,582.454718 C275.651893,582.131332 276.336377,582.206789 276.781022,582.648749 L277.632585,583.497636 L280.297762,580.829706 L279.448894,579.980819 C279.006943,579.538859 278.928793,578.851664 279.254867,578.320773 C279.966299,577.167365 280.486399,575.916941 280.796303,574.60723 C280.941824,573.998187 281.483482,573.569702 282.108681,573.569702 L283.30518,573.569702 Z M204.244564,573.59665 C204.97486,574.860549 206.281847,575.61781 207.74244,575.61781 L251.191016,575.61781 C251.061664,575.410304 250.967346,575.181239 250.967346,574.917141 L250.967346,568.449431 C250.967346,567.70295 251.570985,567.101992 252.314755,567.101992 L253.831939,567.101992 C254.10681,566.226156 254.459832,565.377269 254.885613,564.563416 L253.813075,563.488159 C253.28489,562.959963 253.28489,562.108381 253.813075,561.58288 L258.383489,557.00967 C258.908979,556.484168 259.763237,556.484168 260.288726,557.00967 L261.363959,558.084927 C262.177795,557.659136 263.029358,557.306107 263.90248,557.031229 L263.90248,555.514012 C263.90248,554.985816 264.209689,554.543856 264.648945,554.320181 L242.338533,515.710649 C241.605542,514.45214 240.298555,513.694879 238.840658,513.694879 C237.38276,513.694879 236.075773,514.45214 235.342782,515.713343 L204.247259,569.554332 C203.516963,570.81823 203.516963,572.327362 204.244564,573.59665 Z M284.65259,567.101992 C285.39636,567.101992 286,567.70295 286,568.449431 L286,574.917141 C286,575.660928 285.39636,576.264581 284.65259,576.264581 L283.135407,576.264581 C282.860535,577.137721 282.507514,577.989303 282.081732,578.800462 L283.154271,579.878413 C283.682455,580.403915 283.682455,581.258191 283.154271,581.783693 L278.583857,586.354208 C278.058367,586.879709 277.204109,586.879709 276.678619,586.354208 L275.603386,585.281646 C274.789551,585.707437 273.937988,586.060466 273.064866,586.332649 L273.064866,587.85256 C273.064866,588.596347 272.463921,589.2 271.717456,589.2 L265.249889,589.2 C264.503424,589.2 263.90248,588.596347 263.90248,587.85256 L263.90248,586.332649 C263.029358,586.060466 262.177795,585.707437 261.363959,585.281646 L260.288726,586.354208 C259.763237,586.879709 258.908979,586.879709 258.383489,586.354208 L253.813075,581.783693 C253.28489,581.258191 253.28489,580.403915 253.813075,579.878413 L254.885613,578.800462 C254.804769,578.644159 254.758957,578.471687 254.683502,578.312689 L207.74244,578.312689 C205.309018,578.312689 203.126214,577.051485 201.91085,574.941395 C200.695487,572.831305 200.695487,570.311593 201.91624,568.204197 L233.011763,514.363209 C234.229821,512.258509 236.40993,511 238.840658,511 C241.271385,511 243.451494,512.258509 244.669552,514.360514 L267.669837,554.166572 L271.717456,554.166572 C272.463921,554.166572 273.064866,554.76753 273.064866,555.514012 L273.064866,557.031229 C273.937988,557.306107 274.789551,557.659136 275.603386,558.084927 L276.678619,557.00967 C277.204109,556.484168 278.058367,556.484168 278.583857,557.00967 L283.154271,561.58288 C283.682455,562.108381 283.682455,562.959963 283.154271,563.488159 L282.081732,564.563416 C282.507514,565.377269 282.860535,566.226156 283.135407,567.101992 L284.65259,567.101992 Z" id="icon-section-incident"></path>
        </g>
    </g>
</svg>