<?xml version="1.0" encoding="UTF-8"?>
<svg width="90px" height="79px" viewBox="0 0 90 79" version="1.1" xmlns="http://www.w3.org/2000/svg" xmlns:xlink="http://www.w3.org/1999/xlink">
    <!-- Generator: Sketch 53.2 (72643) - https://sketchapp.com -->
    <title>icon-section-gov</title>
    <desc>Created with Sketch.</desc>
    <g id="Features" stroke="none" stroke-width="1" fill="none" fill-rule="evenodd">
        <g id="Artboard" transform="translate(-906.000000, -213.000000)" fill="#505050">
            <path d="M993.567568,288.815198 L993.567568,283.923856 L988.702703,283.923856 L913.297297,283.923856 L908.432432,283.923856 L908.432432,288.815198 L993.567568,288.815198 Z M914.513514,281.478184 L987.486486,281.478184 L987.486486,276.586842 L914.513514,276.586842 L914.513514,281.478184 Z M924.243243,274.141171 L931.540541,274.141171 L931.540541,239.901773 L924.243243,239.901773 L924.243243,274.141171 Z M914.513514,229.735117 L914.513514,237.456101 L987.486486,237.456101 L987.486486,229.735117 L951,215.533104 L914.513514,229.735117 Z M933.972973,274.141171 L944.918919,274.141171 L944.918919,239.901773 L933.972973,239.901773 L933.972973,274.141171 Z M947.351351,274.141171 L954.648649,274.141171 L954.648649,239.901773 L947.351351,239.901773 L947.351351,274.141171 Z M957.081081,274.141171 L968.027027,274.141171 L968.027027,239.901773 L957.081081,239.901773 L957.081081,274.141171 Z M970.459459,274.141171 L977.756757,274.141171 L977.756757,239.901773 L970.459459,239.901773 L970.459459,274.141171 Z M994.783784,281.478184 C995.455135,281.478184 996,282.026015 996,282.70102 L996,290.038034 C996,290.713039 995.455135,291.26087 994.783784,291.26087 L907.216216,291.26087 C906.544865,291.26087 906,290.713039 906,290.038034 L906,282.70102 C906,282.026015 906.544865,281.478184 907.216216,281.478184 L912.081081,281.478184 L912.081081,275.364006 C912.081081,274.689001 912.625946,274.141171 913.297297,274.141171 L921.810811,274.141171 L921.810811,239.901773 L913.297297,239.901773 C912.625946,239.901773 912.081081,239.353942 912.081081,238.678937 L912.081081,228.896252 C912.081081,228.392444 912.39,227.937549 912.857027,227.756569 L950.55973,213.082541 C950.846757,212.972486 951.153243,212.972486 951.44027,213.082541 L989.142973,227.756569 C989.61,227.937549 989.918919,228.392444 989.918919,228.896252 L989.918919,238.678937 C989.918919,239.353942 989.374054,239.901773 988.702703,239.901773 L980.189189,239.901773 L980.189189,274.141171 L988.702703,274.141171 C989.374054,274.141171 989.918919,274.689001 989.918919,275.364006 L989.918919,281.478184 L994.783784,281.478184 Z M951,232.565217 C949.429304,232.565217 947.95487,231.949355 946.846696,230.837972 C945.743217,229.726589 945.130435,228.244745 945.130435,226.666157 C945.130435,225.087568 945.743217,223.605724 946.849043,222.491982 C949.060696,220.271575 952.936957,220.269216 955.153304,222.494341 C956.256783,223.605724 956.869565,225.087568 956.869565,226.666157 C956.869565,227.317413 956.343652,227.845969 955.695652,227.845969 C955.047652,227.845969 954.521739,227.317413 954.521739,226.666157 C954.521739,225.719948 954.155478,224.832729 953.491043,224.164955 C952.159826,222.824689 949.837826,222.827048 948.511304,224.162596 C947.844522,224.832729 947.478261,225.719948 947.478261,226.666157 C947.478261,227.612366 947.844522,228.499585 948.508957,229.167359 C949.175739,229.837492 950.058522,230.205593 951,230.205593 C951.648,230.205593 952.173913,230.734149 952.173913,231.385405 C952.173913,232.036662 951.648,232.565217 951,232.565217 Z" id="icon-section-gov"></path>
        </g>
    </g>
</svg>