<?xml version="1.0" encoding="UTF-8"?>
<svg width="90px" height="82px" viewBox="0 0 90 82" version="1.1" xmlns="http://www.w3.org/2000/svg" xmlns:xlink="http://www.w3.org/1999/xlink">
    <!-- Generator: Sketch 54.1 (76490) - https://sketchapp.com -->
    <title>icon-section-partition-white</title>
    <desc>Created with Sketch.</desc>
    <g id="Graphics-" stroke="none" stroke-width="1" fill="none" fill-rule="evenodd">
        <g id="Artboard-Copy" transform="translate(-605.000000, -309.000000)" fill="#FFFFFF">
            <path d="M693.5,316.500842 L636.848,316.500842 C636.02,316.500842 635.348,317.172842 635.348,318.000842 C635.348,318.828842 636.02,319.500842 636.848,319.500842 L692,319.500842 L692,374.700842 L675.452,374.700842 L621.152,309.540842 C620.618,308.901842 619.673,308.817842 619.04,309.348842 C618.404,309.879842 618.317,310.824842 618.848,311.460842 L623.048,316.500842 L606.5,316.500842 C605.672,316.500842 605,317.172842 605,318.000842 L605,376.200842 C605,377.031842 605.672,377.700842 606.5,377.700842 L648.56,377.700842 C648.542,377.802842 648.5,377.895842 648.5,378.000842 L648.5,387.402842 L627.599,387.402842 C626.771,387.402842 626.099,388.071842 626.099,388.902842 C626.099,389.730842 626.771,390.402842 627.599,390.402842 L672.401,390.402842 C673.229,390.402842 673.901,389.730842 673.901,388.902842 C673.901,388.071842 673.229,387.402842 672.401,387.402842 L651.5,387.402842 L651.5,378.000842 C651.5,377.895842 651.458,377.802842 651.44,377.700842 L665.093,377.700842 C665.924,377.700842 666.593,377.031842 666.593,376.200842 C666.593,375.372842 665.924,374.700842 665.093,374.700842 L608,374.700842 L608,319.500842 L625.55,319.500842 L678.848,383.460842 C679.145,383.814842 679.571,384.000842 680,384.000842 C680.339,384.000842 680.681,383.886842 680.96,383.652842 C681.596,383.121842 681.683,382.176842 681.152,381.540842 L677.951,377.700842 L693.5,377.700842 C694.328,377.700842 695,377.031842 695,376.200842 L695,318.000842 C695,317.172842 694.328,316.500842 693.5,316.500842" id="icon-section-partition"></path>
        </g>
    </g>
</svg>