<?xml version="1.0" encoding="UTF-8"?>
<svg width="90px" height="80px" viewBox="0 0 90 80" version="1.1" xmlns="http://www.w3.org/2000/svg" xmlns:xlink="http://www.w3.org/1999/xlink">
    <!-- Generator: Sketch 53.2 (72643) - https://sketchapp.com -->
    <title>icon-section-costs</title>
    <desc>Created with Sketch.</desc>
    <g id="Features" stroke="none" stroke-width="1" fill="none" fill-rule="evenodd">
        <path d="M68.3333333,54.7339742 C69.25,54.7339742 70,53.9839742 70,53.0673076 C70,52.1506409 69.25,51.4006409 68.3333333,51.4006409 C67.4166667,51.4006409 66.6666667,52.1506409 66.6666667,53.0673076 C66.6666667,53.9839742 67.4166667,54.7339742 68.3333333,54.7339742 Z M68.3333333,48.0673076 C71.09,48.0673076 73.3333333,50.3106409 73.3333333,53.0673076 C73.3333333,55.8239742 71.09,58.0673076 68.3333333,58.0673076 C65.5766667,58.0673076 63.3333333,55.8239742 63.3333333,53.0673076 C63.3333333,50.3106409 65.5766667,48.0673076 68.3333333,48.0673076 Z M83.3333333,59.7339742 C85.1733333,59.7339742 86.6666667,58.2406409 86.6666667,56.4006409 L86.6666667,45.4739742 C85.6833333,46.0506409 84.5533333,46.4006409 83.3333333,46.4006409 C83.0233333,46.4006409 82.7466667,46.2939742 82.5,46.1473076 C82.2533333,46.2939742 81.9766667,46.4006409 81.6666667,46.4006409 L66.6666667,46.4006409 C64.9033333,46.4006409 63.18,47.1106409 61.9466667,48.3473076 C60.71,49.5806409 60,51.3039742 60,53.0673076 C60,56.7439742 62.99,59.7339742 66.6666667,59.7339742 L81.6666667,59.7339742 C81.9766667,59.7339742 82.2533333,59.8406409 82.5,59.9873076 C82.7466667,59.8406409 83.0233333,59.7339742 83.3333333,59.7339742 Z M11.6666667,76.4006409 L80,76.4006409 L80,63.0673076 L66.6666667,63.0673076 C61.1533333,63.0673076 56.6666667,58.5806409 56.6666667,53.0673076 C56.6666667,50.4239742 57.73,47.8439742 59.59,45.9906409 C61.4433333,44.1306409 64.0233333,43.0673076 66.6666667,43.0673076 L80,43.0673076 L80,29.7339742 L71.1666667,29.7339742 L64.3,29.7339742 L17.9,29.7339742 L11.6666667,29.7339742 C11.0266667,29.7339742 10.3866667,29.6639742 9.76,29.5573076 C9.59,29.5306409 9.42666667,29.4939742 9.26333333,29.4573076 C8.75666667,29.3506409 8.26333333,29.2106409 7.77666667,29.0373076 C7.65666667,28.9939742 7.53666667,28.9606409 7.41666667,28.9139742 C6.80666667,28.6773076 6.21,28.4039742 5.64333333,28.0639742 C5.63666667,28.0606409 5.63333333,28.0539742 5.62666667,28.0506409 C5.62666667,28.0473076 5.62,28.0506409 5.61666667,28.0473076 C5.01,27.6673076 4.48333333,27.2573076 3.95,26.8006409 C3.94666667,26.7973076 3.94,26.7906409 3.93666667,26.7839742 C3.93333333,26.7839742 3.93333333,26.7839742 3.93,26.7806409 C3.92666667,26.7773076 3.92666667,26.7739742 3.92333333,26.7706409 C3.69666667,26.5773076 3.54333333,26.3239742 3.33333333,26.1106409 L3.33333333,68.0673076 C3.33333333,72.6639742 7.07,76.4006409 11.6666667,76.4006409 Z M11.6666667,9.73397423 C7.07,9.73397423 3.33333333,13.4706409 3.33333333,18.0673076 C3.33333333,18.3973076 3.38,18.7073076 3.41333333,19.0239742 L21.93,9.73397423 L11.6666667,9.73397423 Z M40.99,3.90397423 L4.5,22.2106409 C4.53666667,22.2839742 4.56666667,22.3639742 4.61,22.4373076 C4.87666667,22.8639742 5.22333333,23.2273076 5.56666667,23.5973076 L15.4866667,20.2606409 L31.12,12.4106409 C31.52,12.2106409 31.98,12.1839742 32.3966667,12.3173076 C32.82,12.4606409 33.1633333,12.7606409 33.3633333,13.1606409 C33.53,13.4939742 33.7066667,13.7873076 33.9066667,14.0539742 L44.3166667,10.5339742 L43.4166667,8.74397423 C43.41,8.72730756 43.4033333,8.71397423 43.3966667,8.69730756 L40.99,3.90397423 Z M61.98,26.4006409 L60.9733333,23.4106409 C57.0733333,23.9973076 53.1733333,22.0673076 51.2633333,18.5973076 L28.0766667,26.4006409 L61.98,26.4006409 Z M68.8433333,26.4006409 L62.6166667,7.91397423 L18.8066667,22.6573076 L16.7866667,23.3373076 L10.8966667,26.2973076 C11.1566667,26.3206409 11.4066667,26.4006409 11.6666667,26.4006409 L17.63,26.4006409 L51.6366667,14.9539742 C52.5066667,14.6639742 53.45,15.1273076 53.7466667,15.9973076 C54.8466667,19.2173076 58.34,20.9473076 61.53,19.8539742 C61.94,19.7139742 62.4033333,19.7439742 62.8066667,19.9406409 C63.2033333,20.1339742 63.5066667,20.4839742 63.6466667,20.9039742 L65.4933333,26.4006409 L68.8433333,26.4006409 Z M76.6666667,9.73397423 L66.7466667,9.73397423 L72.3633333,26.4006409 L76.6666667,26.4006409 L76.6666667,9.73397423 Z M86.6666667,39.7339742 C86.6666667,37.8939742 85.1733333,36.4006409 83.3333333,36.4006409 L83.3333333,43.0673076 C85.1733333,43.0673076 86.6666667,41.5739742 86.6666667,39.7339742 Z M90,39.7339742 C90,40.1139742 89.9466667,40.4839742 89.89,40.8439742 C89.95,41.0206409 90,41.2006409 90,41.4006409 L90,56.4006409 C90,60.0773076 87.01,63.0673076 83.3333333,63.0673076 L83.3333333,78.0673076 C83.3333333,78.9873076 82.5866667,79.7339742 81.6666667,79.7339742 L11.6666667,79.7339742 C5.23333333,79.7339742 0,74.5006409 0,68.0673076 L0,18.0673076 C0,11.6339742 5.23333333,6.4006409 11.6666667,6.4006409 L28.5733333,6.4006409 L40.9833333,0.177307564 C41.8,-0.232692436 42.8066667,0.0906408976 43.2233333,0.917307564 L45.9733333,6.4006409 L56.6633333,6.4006409 L63.1333333,4.22397423 C64.0133333,3.9306409 64.95,4.39730756 65.2433333,5.2706409 L65.6266667,6.4006409 L78.3333333,6.4006409 C79.2533333,6.4006409 80,7.14730756 80,8.06730756 L80,26.4006409 L81.6666667,26.4006409 C82.5866667,26.4006409 83.3333333,27.1473076 83.3333333,28.0673076 L83.3333333,33.0673076 C87.01,33.0673076 90,36.0573076 90,39.7339742 Z" id="icon-section-costs" fill="#505050"></path>
    </g>
</svg>