<?xml version="1.0" encoding="UTF-8"?>
<svg width="90px" height="76px" viewBox="0 0 90 76" version="1.1" xmlns="http://www.w3.org/2000/svg" xmlns:xlink="http://www.w3.org/1999/xlink">
    <!-- Generator: Sketch 53.2 (72643) - https://sketchapp.com -->
    <title>icon-section-chat</title>
    <desc>Created with Sketch.</desc>
    <g id="Features" stroke="none" stroke-width="1" fill="none" fill-rule="evenodd">
        <g id="Desktop-HD---Features---ITSM" transform="translate(-842.000000, -919.000000)" fill="#505050">
            <path d="M930.548387,956.332958 C931.349677,956.332958 932,956.958292 932,957.728792 L932,976.229167 C932,976.999667 931.349677,977.625 930.548387,977.625 L888.451613,977.625 L888.451613,991.583333 L910.225806,991.583333 C911.027097,991.583333 911.677419,992.208667 911.677419,992.979167 C911.677419,993.749667 911.027097,994.375 910.225806,994.375 L863.774194,994.375 C862.972903,994.375 862.322581,993.749667 862.322581,992.979167 C862.322581,992.208667 862.972903,991.583333 863.774194,991.583333 L885.548387,991.583333 L885.548387,977.625 L843.451613,977.625 C842.650323,977.625 842,976.999667 842,976.229167 L842,920.395833 C842,919.625333 842.650323,919 843.451613,919 L879.762258,919 C880.563548,919 881.213871,919.625333 881.213871,920.395833 C881.213871,921.166333 880.563548,921.791667 879.762258,921.791667 L844.903226,921.791667 L844.903226,974.833333 L929.096774,974.833333 L929.096774,957.728792 C929.096774,956.958292 929.747097,956.332958 930.548387,956.332958 Z M929.075,945.28404 L929.075,925.916853 C929.075,923.628758 927.106475,921.766741 924.6875,921.766741 L892.5125,921.766741 C890.093525,921.766741 888.125,923.628758 888.125,925.916853 L888.125,945.28404 C888.125,947.572135 890.093525,949.434152 892.5125,949.434152 L895.4375,949.434152 C896.2448,949.434152 896.9,950.053902 896.9,950.817522 L896.9,958.805104 L907.6289,949.782761 C907.898,949.558655 908.24315,949.434152 908.6,949.434152 L924.6875,949.434152 C927.106475,949.434152 929.075,947.572135 929.075,945.28404 Z M924.6875,919 C928.721075,919 932,922.101517 932,925.916853 L932,945.28404 C932,949.099376 928.721075,952.200893 924.6875,952.200893 L909.15575,952.200893 L896.4086,962.919248 C896.136575,963.148887 895.7885,963.267857 895.4375,963.267857 C895.235675,963.267857 895.030925,963.226356 894.837875,963.146121 C894.311375,962.922015 893.975,962.429535 893.975,961.884487 L893.975,952.200893 L892.5125,952.200893 C888.478925,952.200893 885.2,949.099376 885.2,945.28404 L885.2,925.916853 C885.2,922.101517 888.478925,919 892.5125,919 L924.6875,919 Z M920.594,933.357143 C922.247,933.357143 923.6,934.694152 923.6,936.348214 C923.6,938.002277 922.277,939.339286 920.624,939.339286 L920.594,939.339286 C918.938,939.339286 917.6,938.002277 917.6,936.348214 C917.6,934.694152 918.938,933.357143 920.594,933.357143 Z M908.594,933.357143 C910.247,933.357143 911.6,934.694152 911.6,936.348214 C911.6,938.002277 910.277,939.339286 908.624,939.339286 L908.594,939.339286 C906.938,939.339286 905.6,938.002277 905.6,936.348214 C905.6,934.694152 906.938,933.357143 908.594,933.357143 Z M897.794,933.357143 C899.447,933.357143 900.8,934.694152 900.8,936.348214 C900.8,938.002277 899.477,939.339286 897.824,939.339286 L897.794,939.339286 C896.138,939.339286 894.8,938.002277 894.8,936.348214 C894.8,934.694152 896.138,933.357143 897.794,933.357143 Z" id="icon-section-chat"></path>
        </g>
    </g>
</svg>