<?xml version="1.0" encoding="UTF-8"?>
<svg width="100px" height="80px" viewBox="0 0 100 80" version="1.1" xmlns="http://www.w3.org/2000/svg" xmlns:xlink="http://www.w3.org/1999/xlink">
    <!-- Generator: Sketch 53.2 (72643) - https://sketchapp.com -->
    <title>icon-section-business</title>
    <desc>Created with Sketch.</desc>
    <g id="Features" stroke="none" stroke-width="1" fill="none" fill-rule="evenodd">
        <g id="Artboard" transform="translate(-200.000000, -308.000000)" fill="#505050">
            <g id="Icons/FrontPage/ESM" transform="translate(200.000000, 308.000000)">
                <path d="M43.75,27.5 C44.44,27.5 45,28.06 45,28.75 L45,71.25 C45,71.94 44.44,72.5 43.75,72.5 C43.06,72.5 42.5,71.94 42.5,71.25 L42.5,28.75 C42.5,28.06 43.06,27.5 43.75,27.5 Z M56.25,27.5 C56.94,27.5 57.5,28.06 57.5,28.75 L57.5,71.25 C57.5,71.94 56.94,72.5 56.25,72.5 C55.56,72.5 55,71.94 55,71.25 L55,28.75 C55,28.06 55.56,27.5 56.25,27.5 Z M50,40 C50.69,40 51.25,40.56 51.25,41.25 L51.25,66.25 C51.25,66.94 50.69,67.5 50,67.5 C49.31,67.5 48.75,66.94 48.75,66.25 L48.75,41.25 C48.75,40.56 49.31,40 50,40 Z M21.25,40 C21.94,40 22.5,40.56 22.5,41.25 C22.5,41.94 21.94,42.5 21.25,42.5 L16.25,42.5 C15.56,42.5 15,41.94 15,41.25 C15,40.56 15.56,40 16.25,40 L21.25,40 Z M21.25,47.5 C21.94,47.5 22.5,48.06 22.5,48.75 C22.5,49.44 21.94,50 21.25,50 L16.25,50 C15.56,50 15,49.44 15,48.75 C15,48.06 15.56,47.5 16.25,47.5 L21.25,47.5 Z M21.25,55 C21.94,55 22.5,55.56 22.5,56.25 C22.5,56.94 21.94,57.5 21.25,57.5 L16.25,57.5 C15.56,57.5 15,56.94 15,56.25 C15,55.56 15.56,55 16.25,55 L21.25,55 Z M21.25,62.5 C21.94,62.5 22.5,63.06 22.5,63.75 C22.5,64.44 21.94,65 21.25,65 L16.25,65 C15.56,65 15,64.44 15,63.75 C15,63.06 15.56,62.5 16.25,62.5 L21.25,62.5 Z M21.25,70 C21.94,70 22.5,70.56 22.5,71.25 C22.5,71.94 21.94,72.5 21.25,72.5 L16.25,72.5 C15.56,72.5 15,71.94 15,71.25 C15,70.56 15.56,70 16.25,70 L21.25,70 Z M83.75,47.5 C84.44,47.5 85,48.06 85,48.75 C85,49.44 84.44,50 83.75,50 L78.75,50 C78.06,50 77.5,49.44 77.5,48.75 C77.5,48.06 78.06,47.5 78.75,47.5 L83.75,47.5 Z M83.75,55 C84.44,55 85,55.56 85,56.25 C85,56.94 84.44,57.5 83.75,57.5 L78.75,57.5 C78.06,57.5 77.5,56.94 77.5,56.25 C77.5,55.56 78.06,55 78.75,55 L83.75,55 Z M83.75,62.5 C84.44,62.5 85,63.06 85,63.75 C85,64.44 84.44,65 83.75,65 L78.75,65 C78.06,65 77.5,64.44 77.5,63.75 C77.5,63.06 78.06,62.5 78.75,62.5 L83.75,62.5 Z M83.75,70 C84.44,70 85,70.56 85,71.25 C85,71.94 84.44,72.5 83.75,72.5 L78.75,72.5 C78.06,72.5 77.5,71.94 77.5,71.25 C77.5,70.56 78.06,70 78.75,70 L83.75,70 Z M72.5,77.5 L90,77.5 L90,42.5 L87.5,42.5 L75,42.5 L72.5,42.5 L72.5,77.5 Z M37.5,77.5 L62.5,77.5 L62.5,20 L56.25,20 L43.75,20 L37.5,20 L37.5,77.5 Z M10,77.5 L27.5,77.5 L27.5,35 L10,35 L10,77.5 Z M45,17.5 L55,17.5 L55,10 L45,10 L45,17.5 Z M76.25,33.095 L76.25,40 L86.25,40 L86.25,37.0975 L76.25,33.095 Z M98.75,77.5 C99.44,77.5 100,78.06 100,78.75 C100,79.44 99.44,80 98.75,80 L91.25,80 L71.25,80 L63.75,80 L36.25,80 L28.75,80 L8.75,80 L1.25,80 C0.56,80 0,79.44 0,78.75 C0,78.06 0.56,77.5 1.25,77.5 L7.5,77.5 L7.5,33.75 C7.5,33.06 8.06,32.5 8.75,32.5 L28.75,32.5 C29.44,32.5 30,33.06 30,33.75 L30,77.5 L35,77.5 L35,18.75 C35,18.06 35.56,17.5 36.25,17.5 L42.5,17.5 L42.5,8.75 C42.5,8.06 43.06,7.5 43.75,7.5 L48.75,7.5 L48.75,1.25 C48.75,0.56 49.31,0 50,0 C50.69,0 51.25,0.56 51.25,1.25 L51.25,7.5 L56.25,7.5 C56.94,7.5 57.5,8.06 57.5,8.75 L57.5,17.5 L63.75,17.5 C64.44,17.5 65,18.06 65,18.75 L65,77.5 L70,77.5 L70,41.25 C70,40.56 70.56,40 71.25,40 L73.75,40 L73.75,31.25 C73.75,30.835 73.955,30.4475 74.3,30.215 C74.64,29.9825 75.08,29.935 75.465,30.09 L87.965,35.09 C88.44,35.2775 88.75,35.74 88.75,36.25 L88.75,40 L91.25,40 C91.94,40 92.5,40.56 92.5,41.25 L92.5,77.5 L98.75,77.5 Z M73.75,7.5 C71.6825,7.5 70,9.1825 70,11.25 C70,13.3175 71.6825,15 73.75,15 L88.75,15 C92.1975,15 95,12.1975 95,8.75 C95,5.3025 92.1975,2.5 88.75,2.5 C86.13,2.5 83.7725,4.175 82.885,6.6675 C82.71,7.1675 82.24,7.5 81.71,7.5 L73.75,7.5 Z M73.75,17.5 C70.3025,17.5 67.5,14.6975 67.5,11.25 C67.5,7.8025 70.3025,5 73.75,5 L80.8775,5 C82.315,1.975 85.3725,0 88.75,0 C93.575,0 97.5,3.925 97.5,8.75 C97.5,13.575 93.575,17.5 88.75,17.5 L73.75,17.5 Z M8.86475,16.36475 C7.42225,16.36475 6.24975,17.53725 6.24975,18.97725 C6.24975,20.41975 7.42225,21.59225 8.86475,21.59225 L20.45475,21.59225 C22.96225,21.59225 24.99975,19.55225 24.99975,17.04475 C24.99975,14.53975 22.96225,12.49975 20.45475,12.49975 C18.54975,12.49975 16.83725,13.71725 16.19225,15.53225 C16.01475,16.03225 15.54475,16.36475 15.01475,16.36475 L8.86475,16.36475 Z M8.86475,24.09225 C6.04475,24.09225 3.74975,21.79725 3.74975,18.97725 C3.74975,16.15725 6.04475,13.86475 8.86475,13.86475 L14.19475,13.86475 C15.37975,11.52225 17.79725,9.99975 20.45475,9.99975 C24.33725,9.99975 27.49975,13.16225 27.49975,17.04475 C27.49975,20.92975 24.33725,24.09225 20.45475,24.09225 L8.86475,24.09225 Z" id="Combined-Shape"></path>
            </g>
        </g>
    </g>
</svg>