<?xml version="1.0" encoding="UTF-8"?>
<svg width="90px" height="74px" viewBox="0 0 90 74" version="1.1" xmlns="http://www.w3.org/2000/svg" xmlns:xlink="http://www.w3.org/1999/xlink">
    <!-- Generator: Sketch 53.2 (72643) - https://sketchapp.com -->
    <title>icon-section-satisfaction-white</title>
    <desc>Created with Sketch.</desc>
    <g id="Features" stroke="none" stroke-width="1" fill="none" fill-rule="evenodd">
        <g id="Artboard-Copy" transform="translate(-405.000000, -215.000000)" fill="#FFFFFF">
            <path d="M408,273.203 L492,273.203 L492,218.003 L408,218.003 L408,273.203 Z M493.5,215 C494.328,215 495,215.672 495,216.5 L495,274.703 C495,275.531 494.328,276.203 493.5,276.203 L451.44,276.203 C451.458,276.302 451.5,276.395 451.5,276.5 L451.5,285.902 L472.401,285.902 C473.229,285.902 473.901,286.574 473.901,287.402 C473.901,288.23 473.229,288.902 472.401,288.902 L427.599,288.902 C426.771,288.902 426.099,288.23 426.099,287.402 C426.099,286.574 426.771,285.902 427.599,285.902 L448.5,285.902 L448.5,276.5 C448.5,276.395 448.542,276.302 448.56,276.203 L406.5,276.203 C405.672,276.203 405,275.531 405,274.703 L405,216.5 C405,215.672 405.672,215 406.5,215 L493.5,215 Z M413.994,238.5143 C413.631,238.5143 413.265,238.3823 412.977,238.1153 C412.368,237.5543 412.329,236.6033 412.893,235.9973 L425.103,222.7703 C425.67,222.1613 426.615,222.1223 427.221,222.6863 C427.83,223.2473 427.869,224.1983 427.305,224.8043 L415.095,238.0313 C414.801,238.3523 414.399,238.5143 413.994,238.5143 Z M414.3486,229.652 C413.9646,229.652 413.5806,229.505 413.2866,229.214 C412.7016,228.626 412.7016,227.678 413.2866,227.09 L416.7876,223.589 C417.3756,223.004 418.3236,223.004 418.9116,223.589 C419.4966,224.177 419.4966,225.125 418.9116,225.713 L415.4106,229.214 C415.1166,229.505 414.7326,229.652 414.3486,229.652 Z M445.6407,242.0006 L436.1517,242.0006 L443.8287,247.5776 C444.3507,247.9586 444.5727,248.6366 444.3717,249.2546 L441.4407,258.2816 L449.1177,252.7016 C449.3817,252.5126 449.6907,252.4166 449.9997,252.4166 C450.3117,252.4166 450.6177,252.5126 450.8817,252.7016 L458.5617,258.2816 L455.6277,249.2546 C455.4297,248.6366 455.6487,247.9586 456.1737,247.5776 L463.8477,242.0006 L454.3587,242.0006 C453.7077,242.0006 453.1347,241.5806 452.9337,240.9626 L449.9997,231.9386 L447.0687,240.9626 C446.8647,241.5806 446.2917,242.0006 445.6407,242.0006 Z M441.1827,249.3656 L430.6527,241.7126 C430.1277,241.3316 429.9087,240.6566 430.1067,240.0386 C430.3107,239.4206 430.8837,239.0006 431.5347,239.0006 L444.5517,239.0006 L448.5747,226.6226 C448.9767,225.3866 451.0227,225.3866 451.4277,226.6226 L455.4507,239.0006 L468.4647,239.0006 C469.1157,239.0006 469.6917,239.4206 469.8927,240.0386 C470.0907,240.6566 469.8717,241.3316 469.3467,241.7126 L458.8197,249.3656 L462.8397,261.7466 C463.0407,262.3646 462.8217,263.0426 462.2967,263.4236 C462.0327,263.6126 461.7237,263.7086 461.4147,263.7086 C461.1027,263.7086 460.7967,263.6126 460.5327,263.4236 L449.9997,255.7706 L439.4667,263.4236 C438.9417,263.8046 438.2307,263.8046 437.7027,263.4236 C437.1807,263.0426 436.9587,262.3646 437.1597,261.7466 L441.1827,249.3656 Z" id="icon-section-satisfaction"></path>
        </g>
    </g>
</svg>