<?xml version="1.0" encoding="UTF-8"?>
<svg width="77px" height="77px" viewBox="0 0 77 77" version="1.1" xmlns="http://www.w3.org/2000/svg" xmlns:xlink="http://www.w3.org/1999/xlink">
    <!-- Generator: Sketch 53.2 (72643) - https://sketchapp.com -->
    <title>icon-section-knowledge-white</title>
    <desc>Created with Sketch.</desc>
    <g id="Features" stroke="none" stroke-width="1" fill="none" fill-rule="evenodd">
        <g id="Artboard-Copy" transform="translate(-412.000000, -13.000000)" fill="#FFFFFF">
            <path d="M471.741379,64.775331 C476.133034,64.775331 479.706897,68.3491931 479.706897,72.7408483 C479.706897,77.1325034 476.133034,80.7063655 471.741379,80.7063655 C467.349724,80.7063655 463.775862,77.1325034 463.775862,72.7408483 C463.775862,68.3491931 467.349724,64.775331 471.741379,64.775331 Z M471.741379,78.0511931 C474.670034,78.0511931 477.051724,75.6695034 477.051724,72.7408483 C477.051724,69.8121931 474.670034,67.4305034 471.741379,67.4305034 C468.812724,67.4305034 466.431034,69.8121931 466.431034,72.7408483 C466.431034,75.6695034 468.812724,78.0511931 471.741379,78.0511931 Z M486.344828,74.6 L486.344828,70.8827586 L485.165931,70.8827586 C484.549931,70.8827586 484.016241,70.457931 483.872862,69.8605172 C483.567517,68.5701034 483.055069,67.3381034 482.354103,66.2016897 C482.032828,65.6786207 482.109828,65.0015517 482.545276,64.5661034 L483.381655,63.727069 L480.75569,61.1011034 L479.916655,61.9348276 C479.478552,62.3755862 478.804138,62.449931 478.281069,62.1286552 C477.144655,61.4276897 475.912655,60.9152414 474.622241,60.6072414 C474.022172,60.4665172 473.6,59.9328276 473.6,59.3168276 L473.6,58.137931 L469.882759,58.137931 L469.882759,59.3168276 C469.882759,59.9328276 469.460586,60.4665172 468.860517,60.6072414 C467.570103,60.9152414 466.338103,61.4276897 465.20169,62.1286552 C464.683931,62.449931 464.006862,62.3755862 463.566103,61.9348276 L462.727069,61.1011034 L462.087172,61.741 C462.063276,61.7675517 462.04469,61.7887931 462.018138,61.8126897 L460.101103,63.727069 L460.937483,64.5661034 C461.372931,65.0015517 461.449931,65.6786207 461.128655,66.2016897 C460.42769,67.3381034 459.915241,68.5701034 459.609897,69.8605172 C459.466517,70.457931 458.932828,70.8827586 458.316828,70.8827586 L457.137931,70.8827586 L457.137931,74.6 L458.316828,74.6 C458.932828,74.6 459.466517,75.0221724 459.609897,75.6222414 C459.915241,76.9126552 460.42769,78.1446552 461.128655,79.281069 C461.449931,79.8041379 461.372931,80.4812069 460.937483,80.9166552 L460.101103,81.7530345 L460.741,82.3955862 C460.767552,82.4168276 460.788793,82.438069 460.81269,82.4646207 L462.727069,84.3816552 L463.566103,83.5452759 C464.006862,83.1098276 464.683931,83.0354828 465.20169,83.3541034 C466.338103,84.055069 467.570103,84.5675172 468.860517,84.8728621 C469.460586,85.0162414 469.882759,85.549931 469.882759,86.1632759 L469.882759,87.3448276 L473.6,87.3448276 L473.6,86.1632759 C473.6,85.549931 474.022172,85.0162414 474.622241,84.8728621 C475.912655,84.5675172 477.144655,84.055069 478.281069,83.3541034 C478.804138,83.0354828 479.478552,83.1098276 479.916655,83.5452759 L480.75569,84.3816552 L483.381655,81.7530345 L482.545276,80.9166552 C482.109828,80.4812069 482.032828,79.8041379 482.354103,79.281069 C483.055069,78.1446552 483.567517,76.9126552 483.872862,75.6222414 C484.016241,75.0221724 484.549931,74.6 485.165931,74.6 L486.344828,74.6 Z M414.655172,75.3965517 C414.655172,79.0580345 417.631621,82.0344828 421.293103,82.0344828 L456.952069,82.0344828 C456.859138,81.607 456.954724,81.1476552 457.286621,80.8157586 L458.343379,79.7536897 C457.923862,78.9544828 457.576034,78.1154483 457.305207,77.2551724 L455.810345,77.2551724 C455.077517,77.2551724 454.482759,76.6604138 454.482759,75.9275862 L454.482759,69.5551724 C454.482759,68.8196897 455.077517,68.2275862 455.810345,68.2275862 L457.305207,68.2275862 C457.576034,67.3646552 457.923862,66.5282759 458.343379,65.7264138 L457.286621,64.667 C456.766207,64.1465862 456.766207,63.3075517 457.286621,62.7897931 L459.793103,60.2806552 L459.793103,31.5862069 L421.293103,31.5862069 C418.813172,31.5862069 416.481931,30.6197241 414.724207,28.8593448 L414.655172,28.7903103 L414.655172,75.3965517 Z M421.293103,15.6551724 C417.631621,15.6551724 414.655172,18.6316207 414.655172,22.2931034 C414.655172,24.0614483 415.348172,25.7288966 416.601414,26.9821379 C417.85731,28.2380345 419.524759,28.9310345 421.293103,28.9310345 L457.788448,28.9310345 C455.26869,25.8961724 453.335724,21.1221724 456.105069,15.6551724 L421.293103,15.6551724 Z M487.672414,68.2275862 C488.405241,68.2275862 489,68.8196897 489,69.5551724 L489,75.9275862 C489,76.6604138 488.405241,77.2551724 487.672414,77.2551724 L486.177552,77.2551724 C485.906724,78.1154483 485.558897,78.9544828 485.139379,79.7536897 L486.196138,80.8157586 C486.716552,81.3335172 486.716552,82.1752069 486.196138,82.6929655 L481.692966,87.1961379 C481.175207,87.7138966 480.333517,87.7138966 479.815759,87.1961379 L478.756345,86.1393793 C477.954483,86.5588966 477.115448,86.9067241 476.255172,87.1748966 L476.255172,88.6724138 C476.255172,89.4052414 475.663069,90 474.927586,90 L468.555172,90 C467.81969,90 467.227586,89.4052414 467.227586,88.6724138 L467.227586,87.1748966 C466.36731,86.9067241 465.528276,86.5588966 464.726414,86.1393793 L463.667,87.1961379 C463.149241,87.7138966 462.307552,87.7138966 461.789793,87.1961379 L459.28331,84.6896552 L421.293103,84.6896552 C416.168621,84.6896552 412,80.5183793 412,75.3965517 L412,22.2931034 C412,17.1686207 416.168621,13 421.293103,13 L458.465517,13 C458.962034,13 459.416069,13.2761379 459.644414,13.7195517 C459.872759,14.1603103 459.835586,14.694 459.546172,15.1002414 C453.773828,23.1772759 461.561448,28.939 461.896,29.1806207 C461.917241,29.1938966 461.919897,29.2204483 461.938483,29.2363793 C462.127,29.3903793 462.27569,29.5815517 462.358,29.8125517 C462.373931,29.8497241 462.371276,29.8868966 462.381897,29.9267241 C462.408448,30.0355862 462.448276,30.1391379 462.448276,30.2586207 L462.448276,57.9494138 C462.875759,57.8564828 463.335103,57.952069 463.667,58.2839655 L464.726414,59.3433793 C465.528276,58.9238621 466.36731,58.5760345 467.227586,58.3052069 L467.227586,56.8103448 C467.227586,56.0748621 467.81969,55.4827586 468.555172,55.4827586 L474.927586,55.4827586 C475.663069,55.4827586 476.255172,56.0748621 476.255172,56.8103448 L476.255172,58.3052069 C477.115448,58.5760345 477.954483,58.9238621 478.756345,59.3433793 L479.815759,58.2839655 C480.333517,57.7662069 481.175207,57.7662069 481.692966,58.2839655 L486.196138,62.7897931 C486.716552,63.3075517 486.716552,64.1465862 486.196138,64.667 L485.139379,65.7264138 C485.558897,66.5282759 485.906724,67.3646552 486.177552,68.2275862 L487.672414,68.2275862 Z M445.189655,44.8615379 C445.922483,44.8615379 446.517241,45.4562966 446.517241,46.1891241 C446.517241,46.9219517 445.922483,47.5167103 445.189655,47.5167103 L429.258621,47.5167103 C428.525793,47.5167103 427.931034,46.9219517 427.931034,46.1891241 C427.931034,45.4562966 428.525793,44.8615379 429.258621,44.8615379 L445.189655,44.8615379 Z M445.189655,52.8270552 C445.922483,52.8270552 446.517241,53.4218138 446.517241,54.1546414 C446.517241,54.887469 445.922483,55.4822276 445.189655,55.4822276 L429.258621,55.4822276 C428.525793,55.4822276 427.931034,54.887469 427.931034,54.1546414 C427.931034,53.4218138 428.525793,52.8270552 429.258621,52.8270552 L445.189655,52.8270552 Z" id="icon-section-knowledge"></path>
        </g>
    </g>
</svg>