<?xml version="1.0" encoding="UTF-8"?>
<svg width="95px" height="91px" viewBox="0 0 95 91" version="1.1" xmlns="http://www.w3.org/2000/svg" xmlns:xlink="http://www.w3.org/1999/xlink">
    <!-- Generator: Sketch 53.2 (72643) - https://sketchapp.com -->
    <title>icon-section-workflow-white</title>
    <desc>Created with Sketch.</desc>
    <g id="Features" stroke="none" stroke-width="1" fill="none" fill-rule="evenodd">
        <g id="Artboard-Copy" transform="translate(-803.000000, -6.000000)" fill="#FFFFFF">
            <path d="M823.13245,43.8899332 C832.843841,43.8899332 840.748344,35.9557812 840.748344,26.2079644 C840.748344,16.4601476 832.843841,8.52599555 823.13245,8.52599555 C813.42106,8.52599555 805.516556,16.4601476 805.516556,26.2079644 C805.516556,35.9557812 813.42106,43.8899332 823.13245,43.8899332 Z M823.13245,6 C834.23298,6 843.264901,15.065798 843.264901,26.2079644 C843.264901,37.3501307 834.23298,46.4159288 823.13245,46.4159288 C812.031921,46.4159288 803,37.3501307 803,26.2079644 C803,15.065798 812.031921,6 823.13245,6 Z M818.869716,15.7792045 L832.04321,25.2516586 C832.375358,25.4891015 832.569536,25.8679997 832.569536,26.2721577 C832.569536,26.6788417 832.375358,27.0577399 832.04321,27.2951827 L818.869716,36.7676369 C818.647433,36.9267741 818.384269,37.0076057 818.118551,37.0076057 C817.921818,37.0076057 817.722529,36.964664 817.53857,36.8712024 C817.109333,36.6564934 816.84106,36.2220235 816.84106,35.7446119 L816.84106,16.7997035 C816.84106,16.3248178 817.109333,15.8903479 817.53857,15.675639 C817.965252,15.455878 818.483914,15.5013458 818.869716,15.7792045 Z M819.396043,33.2666178 L829.120309,26.2721577 L819.396043,19.2802235 L819.396043,33.2666178 Z M859.553176,19.3256369 C858.896598,19.3256369 858.364238,18.7911535 858.364238,18.1345025 L858.364238,9.78129029 C858.364238,9.12463925 858.896598,8.59015583 859.553176,8.59015583 L867.870666,8.59015583 C868.527243,8.59015583 869.059603,9.12463925 869.059603,9.78129029 L869.059603,18.1345025 C869.059603,18.7911535 868.527243,19.3256369 867.870666,19.3256369 L859.553176,19.3256369 Z M860.899286,16.783023 L866.524555,16.783023 L866.524555,11.1353149 L860.899286,11.1353149 L860.899286,16.783023 Z M859.553176,33.2186124 C858.896598,33.2186124 858.364238,32.684129 858.364238,32.027478 L858.364238,23.6742658 C858.364238,23.0176148 858.896598,22.4831313 859.553176,22.4831313 L867.870666,22.4831313 C868.527243,22.4831313 869.059603,23.0176148 869.059603,23.6742658 L869.059603,32.027478 C869.059603,32.684129 868.527243,33.2186124 867.870666,33.2186124 L859.553176,33.2186124 Z M860.899286,30.6759985 L866.524555,30.6759985 L866.524555,25.0282904 L860.899286,25.0282904 L860.899286,30.6759985 Z M867.870666,46.480089 L859.553176,46.480089 C858.896598,46.480089 858.364238,45.9457323 858.364238,45.2866924 L858.364238,36.9380047 C858.364238,36.2789647 858.896598,35.744608 859.553176,35.744608 L867.870666,35.744608 C868.527243,35.744608 869.059603,36.2789647 869.059603,36.9380047 L869.059603,45.2866924 C869.059603,45.9457323 868.527243,46.480089 867.870666,46.480089 Z M860.899286,43.9355332 L866.524555,43.9355332 L866.524555,38.2891638 L860.899286,38.2891638 L860.899286,43.9355332 Z M874.007548,45.2170913 C873.404803,45.2170913 872.834437,44.7367404 872.834437,44.0288549 L872.834437,11.04139 C872.834437,10.3335045 873.404803,9.85315361 874.007548,9.85315361 C874.254125,9.85315361 874.508175,9.93405481 874.732336,10.1135544 L895.046329,26.609815 C895.629149,27.0825813 895.629149,27.9876635 895.046329,28.4604299 L874.732336,44.9566905 C874.508175,45.1361901 874.254125,45.2170913 874.007548,45.2170913 Z M875.325118,13.8350096 L875.325118,41.2352353 L892.19699,27.5351224 L875.325118,13.8350096 Z M854.589404,26.2721247 C855.283974,26.2721247 855.847682,26.8379477 855.847682,27.5351224 C855.847682,28.2322972 855.283974,28.7981202 854.589404,28.7981202 L847.039735,28.7981202 C846.345166,28.7981202 845.781457,28.2322972 845.781457,27.5351224 C845.781457,26.8379477 846.345166,26.2721247 847.039735,26.2721247 L854.589404,26.2721247 Z M854.589404,76.7920356 C855.283974,76.7920356 855.847682,77.3578586 855.847682,78.0550334 C855.847682,78.7522082 855.283974,79.3180312 854.589404,79.3180312 L847.039735,79.3180312 C846.345166,79.3180312 845.781457,78.7522082 845.781457,78.0550334 C845.781457,77.3578586 846.345166,76.7920356 847.039735,76.7920356 L854.589404,76.7920356 Z M853.700162,46.8494928 C854.190952,46.3569545 854.9888,46.3569545 855.47959,46.8494928 C855.97038,47.3420312 855.97038,48.1427217 855.47959,48.6352601 L847.928977,56.2127731 C847.682324,56.4603052 847.360164,56.5840712 847.040522,56.5840712 C846.718362,56.5840712 846.396203,56.4603052 846.149549,56.2127731 C845.658759,55.7202348 845.658759,54.9195442 846.149549,54.4270059 L853.700162,46.8494928 Z M842.006623,56.5840712 C842.701192,56.5840712 843.264901,57.1473682 843.264901,57.847069 L843.264901,95.7370022 C843.264901,96.434177 842.701192,97 842.006623,97 L804.258278,97 C803.563709,97 803,96.434177 803,95.7370022 L803,57.847069 C803,57.1473682 803.563709,56.5840712 804.258278,56.5840712 L842.006623,56.5840712 Z M805.516556,94.4740045 L840.748344,94.4740045 L840.748344,59.1100668 L805.516556,59.1100668 L805.516556,94.4740045 Z M823.13245,90.6850111 C817.50543,90.6850111 811.807947,88.9442509 811.807947,85.6172959 C811.807947,85.5058062 811.845695,85.4044519 811.870861,85.3005637 C811.845695,85.1966755 811.807947,85.0953212 811.807947,84.9838315 L811.807947,67.2468282 C811.807947,66.7755306 812.069669,66.3853166 812.447152,66.164871 C815.761457,61.6317997 832.028477,61.8117036 834.207815,66.7425905 C834.353775,66.947833 834.456954,67.1860156 834.456954,67.4571383 L834.456954,85.1941417 C834.456954,85.2676235 834.426755,85.3360377 834.414172,85.4044519 C834.426755,85.4753999 834.456954,85.543814 834.456954,85.6172959 C834.456954,88.9442509 828.75947,90.6850111 823.13245,90.6850111 Z M823.13245,65.3464349 C817.412318,65.3464349 814.324503,67.1454738 814.324503,67.8802926 C814.324503,68.6151113 817.412318,70.4141502 823.13245,70.4141502 C828.852583,70.4141502 831.940397,68.6151113 831.940397,67.8802926 C831.940397,67.1454738 828.852583,65.3464349 823.13245,65.3464349 Z M823.13245,88.1511535 C828.852583,88.1511535 831.940397,86.3521146 831.940397,85.6172959 C831.940397,85.543814 831.970596,85.4753999 831.983179,85.4044519 C831.970596,85.3360377 831.940397,85.2676235 831.940397,85.1941417 L831.940397,82.9770163 C829.756026,84.15526 826.446755,84.7735213 823.13245,84.7735213 C819.818146,84.7735213 816.508874,84.15526 814.324503,82.9770163 L814.324503,84.9838315 C814.324503,85.0953212 814.286755,85.1966755 814.261589,85.3005637 C814.286755,85.4044519 814.324503,85.5058062 814.324503,85.6172959 C814.324503,86.3521146 817.412318,88.1511535 823.13245,88.1511535 Z M823.13245,78.8594976 C819.818146,78.8594976 816.508874,78.2412364 814.324503,77.0629926 L814.324503,79.7058061 C814.324503,80.4406248 817.412318,82.2396637 823.13245,82.2396637 C828.852583,82.2396637 831.940397,80.4406248 831.940397,79.7058061 L831.940397,77.0629926 C829.756026,78.2412364 826.446755,78.8594976 823.13245,78.8594976 Z M831.940397,73.7917824 L831.940397,71.1515027 C829.756026,72.3297465 826.446755,72.9480078 823.13245,72.9480078 C819.818146,72.9480078 816.508874,72.3297465 814.324503,71.1515027 L814.324503,73.7917824 C814.324503,74.5266011 817.412318,76.32564 823.13245,76.32564 C828.852583,76.32564 831.940397,74.5266011 831.940397,73.7917824 Z M897.630686,76.5323626 C898.123105,77.0241306 898.123105,77.8235689 897.630686,78.3153369 L879.386058,96.6318045 C879.139848,96.8764275 878.818269,97 878.496689,97 C878.175109,97 877.853529,96.8764275 877.60732,96.6318045 L859.362692,78.3153369 C858.870273,77.8235689 858.870273,77.0241306 859.362692,76.5323626 L877.60732,58.215895 C878.099739,57.724127 878.893639,57.724127 879.386058,58.215895 L897.630686,76.5323626 Z M878.496689,93.956082 L894.967603,77.4225888 L878.496689,60.8916175 L862.025774,77.4225888 L878.496689,93.956082 Z M873.543624,73.6317869 C873.543624,70.8468853 875.765656,68.5825501 878.496012,68.5825501 C881.226368,68.5825501 883.4484,70.8468853 883.4484,73.6317869 C883.4484,74.8883262 882.977822,76.0269048 882.230434,76.9090467 C884.437367,77.1936913 886.294512,78.5092111 886.958857,80.455565 L887.235667,81.2710334 C887.396721,81.7505698 887.270898,82.2813936 886.908528,82.627583 C884.912978,84.5380357 881.847933,85.63302 878.496012,85.63302 C875.144091,85.63302 872.079046,84.5380357 870.083496,82.627583 C869.723642,82.2813936 869.595303,81.7505698 869.758873,81.2710334 L870.035683,80.455565 C870.700028,78.5092111 872.557173,77.1936913 874.764106,76.9090467 C874.014202,76.0269048 873.543624,74.8883262 873.543624,73.6317869 Z M884.570739,81.2735977 C884.173139,80.1452767 882.872131,79.3554519 881.40252,79.3554519 L875.589504,79.3554519 C874.119893,79.3554519 872.818885,80.1427123 872.421284,81.2735977 C875.473747,83.537933 881.518277,83.537933 884.570739,81.2735977 Z M880.931942,73.6317869 C880.931942,72.2624154 879.837284,71.1469162 878.496012,71.1469162 C877.15474,71.1469162 876.060081,72.2624154 876.060081,73.6317869 C876.060081,74.998594 877.15474,76.1140932 878.496012,76.1140932 C879.837284,76.1140932 880.931942,74.998594 880.931942,73.6317869 Z" id="icon-section-workflow"></path>
        </g>
    </g>
</svg>