<?xml version="1.0" encoding="UTF-8"?>
<svg width="90px" height="99px" viewBox="0 0 90 99" version="1.1" xmlns="http://www.w3.org/2000/svg" xmlns:xlink="http://www.w3.org/1999/xlink">
    <!-- Generator: Sketch 54.1 (76490) - https://sketchapp.com -->
    <title>icon-section-reduce-requests</title>
    <desc>Created with Sketch.</desc>
    <g id="Graphics" stroke="none" stroke-width="1" fill="none" fill-rule="evenodd">
        <g id="Artboard" transform="translate(-706.000000, -299.000000)" fill="#505050">
            <path d="M751,342.063548 C745.129677,342.063548 740.353871,346.839355 740.353871,352.709677 C740.353871,358.58 745.129677,363.355806 751,363.355806 C756.870323,363.355806 761.646129,358.58 761.646129,352.709677 C761.646129,346.839355 756.870323,342.063548 751,342.063548 Z M751,366.259032 C743.53,366.259032 737.450645,360.179677 737.450645,352.709677 C737.450645,345.239677 743.53,339.160323 751,339.160323 C758.47,339.160323 764.549355,345.239677 764.549355,352.709677 C764.549355,360.179677 758.47,366.259032 751,366.259032 Z M727.949839,347.237677 C727.795968,347.893806 727.209516,348.355419 726.538871,348.355419 L723.417903,348.355419 L723.417903,357.065097 L726.538871,357.065097 C727.209516,357.065097 727.795968,357.52671 727.949839,358.182839 C728.530484,360.633161 729.500161,362.973161 730.835645,365.133161 C731.186935,365.705097 731.102742,366.445419 730.626613,366.921548 L728.417258,369.133806 L734.575,375.291548 L736.787258,373.082194 C737.26629,372.606065 738.006613,372.524774 738.575645,372.873161 C740.735645,374.208645 743.075645,375.178323 745.528871,375.758968 C746.182097,375.912839 746.64371,376.49929 746.64371,377.172839 L746.64371,380.290903 L755.353387,380.290903 L755.353387,377.172839 C755.353387,376.49929 755.817903,375.912839 756.471129,375.758968 C758.924355,375.178323 761.264355,374.208645 763.424355,372.873161 C763.993387,372.524774 764.73371,372.606065 765.212742,373.082194 L767.425,375.291548 L773.582742,369.133806 L771.373387,366.921548 C770.897258,366.445419 770.813065,365.705097 771.164355,365.133161 C772.499839,362.973161 773.469516,360.633161 774.050161,358.182839 C774.204032,357.52671 774.790484,357.065097 775.461129,357.065097 L778.579194,357.065097 L778.579194,348.355419 L775.461129,348.355419 C774.790484,348.355419 774.204032,347.893806 774.050161,347.237677 C773.469516,344.784452 772.499839,342.447355 771.164355,340.284452 C770.813065,339.712516 770.897258,338.972194 771.373387,338.496065 L773.582742,336.28671 L767.425,330.126065 L765.212742,332.335419 C764.73371,332.814452 763.993387,332.898645 763.424355,332.544452 C761.264355,331.208968 758.924355,330.242194 756.471129,329.658645 C755.817903,329.507677 755.353387,328.918323 755.353387,328.247677 L755.353387,325.129613 L746.64371,325.129613 L746.64371,328.247677 C746.64371,328.918323 746.182097,329.507677 745.528871,329.658645 C743.075645,330.242194 740.735645,331.208968 738.575645,332.544452 C738.006613,332.898645 737.26629,332.814452 736.787258,332.335419 L734.575,330.126065 L728.417258,336.28671 L730.626613,338.496065 C731.102742,338.972194 731.186935,339.712516 730.835645,340.284452 C729.500161,342.447355 728.530484,344.784452 727.949839,347.237677 Z M721.96629,345.452194 L725.415323,345.452194 C725.975645,343.46929 726.771129,341.561871 727.778548,339.756065 L725.339839,337.311548 C724.770806,336.745419 724.770806,335.825097 725.339839,335.258968 L733.550161,327.048645 C734.11629,326.482516 735.03371,326.482516 735.602742,327.048645 L738.047258,329.490258 C739.853065,328.479935 741.760484,327.687355 743.740484,327.124129 L743.740484,323.678 C743.740484,322.873806 744.390806,322.226387 745.192097,322.226387 L756.805,322.226387 C757.609194,322.226387 758.256613,322.873806 758.256613,323.678 L758.256613,327.124129 C760.239516,327.687355 762.146935,328.479935 763.952742,329.490258 L766.397258,327.048645 C766.963387,326.482516 767.88371,326.482516 768.449839,327.048645 L776.660161,335.258968 C777.229194,335.825097 777.229194,336.745419 776.660161,337.311548 L774.221452,339.756065 C775.228871,341.561871 776.024355,343.46929 776.584677,345.452194 L780.030806,345.452194 C780.835,345.452194 781.482419,346.099613 781.482419,346.903806 L781.482419,358.51671 C781.482419,359.318 780.835,359.968323 780.030806,359.968323 L776.584677,359.968323 C776.024355,361.948323 775.228871,363.858645 774.221452,365.664452 L776.660161,368.106065 C777.229194,368.675097 777.229194,369.592516 776.660161,370.161548 L768.449839,378.371871 C767.88371,378.938 766.963387,378.938 766.397258,378.371871 L763.952742,375.930258 C762.146935,376.937677 760.239516,377.733161 758.256613,378.293484 L758.256613,381.742516 C758.256613,382.543806 757.609194,383.194129 756.805,383.194129 L745.192097,383.194129 C744.390806,383.194129 743.740484,382.543806 743.740484,381.742516 L743.740484,378.293484 C741.760484,377.733161 739.853065,376.937677 738.047258,375.930258 L735.602742,378.371871 C735.03371,378.938 734.11629,378.938 733.550161,378.371871 L725.339839,370.161548 C724.770806,369.592516 724.770806,368.675097 725.339839,368.106065 L727.778548,365.664452 C726.771129,363.858645 725.975645,361.948323 725.415323,359.968323 L721.96629,359.968323 C721.165,359.968323 720.514677,359.318 720.514677,358.51671 L720.514677,346.903806 C720.514677,346.099613 721.165,345.452194 721.96629,345.452194 Z M792.464452,335.193935 C794.810258,340.744903 796.000581,346.635548 796.000581,352.709097 C796.000581,358.782645 794.810258,364.67329 792.464452,370.224258 C790.197032,375.583613 786.954129,380.394258 782.819935,384.528452 C778.685742,388.662645 773.875097,391.905548 768.515742,394.172968 C762.964774,396.518774 757.074129,397.709097 751.000581,397.709097 C744.927032,397.709097 739.036387,396.518774 733.485419,394.172968 C728.126065,391.905548 723.315419,388.662645 719.181226,384.528452 C715.047032,380.394258 711.804129,375.583613 709.53671,370.224258 C707.190903,364.67329 706.000581,358.782645 706.000581,352.709097 C706.000581,346.635548 707.190903,340.744903 709.53671,335.193935 C711.804129,329.834581 715.047032,325.023935 719.181226,320.889742 C719.747355,320.323613 720.667677,320.323613 721.233806,320.889742 C721.799935,321.458774 721.799935,322.376194 721.233806,322.942323 C717.36671,326.809419 714.329935,331.312323 712.210581,336.32329 C710.015742,341.514258 708.903806,347.027484 708.903806,352.709097 C708.903806,358.39071 710.015742,363.906839 712.210581,369.097806 C714.329935,374.105871 717.36671,378.608774 721.233806,382.475871 C725.100903,386.342968 729.603806,389.379742 734.611871,391.499097 C744.993806,395.891677 757.004452,395.891677 767.386387,391.499097 C772.397355,389.379742 776.900258,386.342968 780.767355,382.475871 C784.634452,378.608774 787.671226,374.105871 789.787677,369.097806 C791.985419,363.906839 793.097355,358.39071 793.097355,352.709097 C793.097355,347.027484 791.985419,341.514258 789.787677,336.32329 C787.671226,331.312323 784.634452,326.809419 780.767355,322.942323 C776.900258,319.075226 772.397355,316.038452 767.386387,313.922 C763.327677,312.20329 759.065742,311.172645 754.684774,310.795226 L760.735097,316.845548 C761.304129,317.411677 761.304129,318.329097 760.735097,318.898129 C760.453484,319.179742 760.081871,319.322 759.710258,319.322 C759.338645,319.322 758.967032,319.179742 758.682516,318.898129 L749.975742,310.191355 C749.83929,310.054903 749.731871,309.892323 749.65929,309.718129 C749.514129,309.361032 749.514129,308.96329 749.65929,308.606194 C749.731871,308.429097 749.83929,308.269419 749.975742,308.132968 L758.682516,299.426194 C759.251548,298.857161 760.168968,298.857161 760.735097,299.426194 C761.304129,299.992323 761.304129,300.909742 760.735097,301.478774 L754.33929,307.874581 C759.231226,308.231677 763.989613,309.334903 768.515742,311.245226 C773.875097,313.512645 778.685742,316.755548 782.819935,320.889742 C786.954129,325.023935 790.197032,329.834581 792.464452,335.193935 Z" id="icon-section-reduce-requests"></path>
        </g>
    </g>
</svg>