<?xml version="1.0" encoding="UTF-8"?>
<svg width="70px" height="83px" viewBox="0 0 70 83" version="1.1" xmlns="http://www.w3.org/2000/svg" xmlns:xlink="http://www.w3.org/1999/xlink">
    <!-- Generator: Sketch 53.2 (72643) - https://sketchapp.com -->
    <title>icon-section-retail-white</title>
    <desc>Created with Sketch.</desc>
    <g id="Features" stroke="none" stroke-width="1" fill="none" fill-rule="evenodd">
        <g id="Artboard-Copy" transform="translate(-818.000000, -211.000000)" fill="#FFFFFF">
            <path d="M867.427941,290.209774 L872.328049,237.542162 L880.349707,237.542162 L885.296482,285.636559 L867.427941,290.209774 Z M847.814546,248.315625 L851.70352,250.306287 L851.70352,261.430108 L843.925571,261.430108 L843.925571,250.306287 L847.814546,248.315625 Z M825.652576,237.542162 L833.554972,237.542162 L833.554972,241.523486 C833.554972,242.258704 834.133133,242.850594 834.851297,242.850594 C835.566868,242.850594 836.147622,242.258704 836.147622,241.523486 L836.147622,237.542162 L846.518221,237.542162 L846.518221,246.01442 L842.048493,248.2997 C841.610335,248.525308 841.332921,248.984488 841.332921,249.486135 L841.332921,262.757216 C841.332921,263.492434 841.911082,264.084324 842.629246,264.084324 L852.999845,264.084324 C853.715416,264.084324 854.29617,263.492434 854.29617,262.757216 L854.29617,249.486135 C854.29617,248.984488 854.016164,248.525308 853.578006,248.2997 L849.11087,246.01442 L849.11087,237.542162 L859.481469,237.542162 L859.481469,241.523486 C859.481469,242.258704 860.05963,242.850594 860.777794,242.850594 C861.493365,242.850594 862.074119,242.258704 862.074119,241.523486 L862.074119,237.542162 L869.722436,237.542162 L864.788623,290.557476 L820.718764,288.051896 L825.652576,237.542162 Z M847.358239,213.701992 C843.718159,216.3509 841.332921,220.693198 841.332921,225.598189 L841.332921,234.887946 L836.147622,234.887946 L836.147622,225.598189 C836.147622,219.172332 841.138473,213.954143 847.358239,213.701992 L847.358239,213.701992 Z M847.814546,232.233729 C847.096382,232.233729 846.518221,232.828274 846.518221,233.560838 L846.518221,234.887946 L843.925571,234.887946 L843.925571,225.598189 C843.925571,220.414505 847.184532,216.037702 851.70352,214.389434 C856.219916,216.037702 859.481469,220.414505 859.481469,225.598189 L859.481469,234.887946 L849.11087,234.887946 L849.11087,233.560838 C849.11087,232.828274 848.530117,232.233729 847.814546,232.233729 L847.814546,232.233729 Z M867.259418,225.598189 L867.259418,234.887946 L862.074119,234.887946 L862.074119,225.598189 C862.074119,220.693198 859.686289,216.3509 856.046208,213.701992 C862.265975,213.954143 867.259418,219.172332 867.259418,225.598189 L867.259418,225.598189 Z M882.807539,236.07438 C882.737537,235.402864 882.180117,234.887946 881.518992,234.887946 L871.148393,234.887946 L869.852068,234.887946 L869.852068,225.598189 C869.852068,217.550606 863.453409,211 855.592495,211 C854.241724,211 852.940214,211.204375 851.70352,211.565348 C850.464234,211.204375 849.162723,211 847.814546,211 C839.951039,211 833.554972,217.550606 833.554972,225.598189 L833.554972,234.887946 L824.480698,234.887946 C823.814387,234.887946 823.256968,235.405518 823.192151,236.082343 L818.006852,289.166667 C817.970555,289.52764 818.079446,289.888613 818.310192,290.161998 C818.540938,290.438036 818.870204,290.602598 819.222805,290.623831 L865.890499,293.278048 C865.913833,293.280702 865.93976,293.280702 865.963094,293.280702 C866.0668,293.280702 866.173098,293.267431 866.276804,293.243543 L887.018002,287.93511 C887.645423,287.773203 888.060247,287.165388 887.992838,286.504488 L882.807539,236.07438 Z" id="icon-section-retail"></path>
        </g>
    </g>
</svg>