<?xml version="1.0" encoding="UTF-8"?>
<svg width="90px" height="74px" viewBox="0 0 90 74" version="1.1" xmlns="http://www.w3.org/2000/svg" xmlns:xlink="http://www.w3.org/1999/xlink">
    <!-- Generator: Sketch 53.2 (72643) - https://sketchapp.com -->
    <title>icon-section-satisfaction</title>
    <desc>Created with Sketch.</desc>
    <g id="Features" stroke="none" stroke-width="1" fill="none" fill-rule="evenodd">
        <path d="M3,58.203 L87,58.203 L87,3.003 L3,3.003 L3,58.203 Z M88.5,7.10542736e-15 C89.328,7.10542736e-15 90,0.672 90,1.5 L90,59.703 C90,60.531 89.328,61.203 88.5,61.203 L46.44,61.203 C46.458,61.302 46.5,61.395 46.5,61.5 L46.5,70.902 L67.401,70.902 C68.229,70.902 68.901,71.574 68.901,72.402 C68.901,73.23 68.229,73.902 67.401,73.902 L22.599,73.902 C21.771,73.902 21.099,73.23 21.099,72.402 C21.099,71.574 21.771,70.902 22.599,70.902 L43.5,70.902 L43.5,61.5 C43.5,61.395 43.542,61.302 43.56,61.203 L1.5,61.203 C0.672,61.203 0,60.531 0,59.703 L0,1.5 C0,0.672 0.672,7.10542736e-15 1.5,7.10542736e-15 L88.5,7.10542736e-15 Z M8.994,23.5143 C8.631,23.5143 8.265,23.3823 7.977,23.1153 C7.368,22.5543 7.329,21.6033 7.893,20.9973 L20.103,7.7703 C20.67,7.1613 21.615,7.1223 22.221,7.6863 C22.83,8.2473 22.869,9.1983 22.305,9.8043 L10.095,23.0313 C9.801,23.3523 9.399,23.5143 8.994,23.5143 Z M9.3486,14.652 C8.9646,14.652 8.5806,14.505 8.2866,14.214 C7.7016,13.626 7.7016,12.678 8.2866,12.09 L11.7876,8.589 C12.3756,8.004 13.3236,8.004 13.9116,8.589 C14.4966,9.177 14.4966,10.125 13.9116,10.713 L10.4106,14.214 C10.1166,14.505 9.7326,14.652 9.3486,14.652 Z M40.6407,27.0006 L31.1517,27.0006 L38.8287,32.5776 C39.3507,32.9586 39.5727,33.6366 39.3717,34.2546 L36.4407,43.2816 L44.1177,37.7016 C44.3817,37.5126 44.6907,37.4166 44.9997,37.4166 C45.3117,37.4166 45.6177,37.5126 45.8817,37.7016 L53.5617,43.2816 L50.6277,34.2546 C50.4297,33.6366 50.6487,32.9586 51.1737,32.5776 L58.8477,27.0006 L49.3587,27.0006 C48.7077,27.0006 48.1347,26.5806 47.9337,25.9626 L44.9997,16.9386 L42.0687,25.9626 C41.8647,26.5806 41.2917,27.0006 40.6407,27.0006 Z M36.1827,34.3656 L25.6527,26.7126 C25.1277,26.3316 24.9087,25.6566 25.1067,25.0386 C25.3107,24.4206 25.8837,24.0006 26.5347,24.0006 L39.5517,24.0006 L43.5747,11.6226 C43.9767,10.3866 46.0227,10.3866 46.4277,11.6226 L50.4507,24.0006 L63.4647,24.0006 C64.1157,24.0006 64.6917,24.4206 64.8927,25.0386 C65.0907,25.6566 64.8717,26.3316 64.3467,26.7126 L53.8197,34.3656 L57.8397,46.7466 C58.0407,47.3646 57.8217,48.0426 57.2967,48.4236 C57.0327,48.6126 56.7237,48.7086 56.4147,48.7086 C56.1027,48.7086 55.7967,48.6126 55.5327,48.4236 L44.9997,40.7706 L34.4667,48.4236 C33.9417,48.8046 33.2307,48.8046 32.7027,48.4236 C32.1807,48.0426 31.9587,47.3646 32.1597,46.7466 L36.1827,34.3656 Z" id="icon-section-satisfaction" fill="#505050"></path>
    </g>
</svg>