<?xml version="1.0" encoding="UTF-8"?>
<svg width="90px" height="67px" viewBox="0 0 90 67" version="1.1" xmlns="http://www.w3.org/2000/svg" xmlns:xlink="http://www.w3.org/1999/xlink">
    <!-- Generator: Sketch 53.2 (72643) - https://sketchapp.com -->
    <title>icon-section-news</title>
    <desc>Created with Sketch.</desc>
    <g id="Features" stroke="none" stroke-width="1" fill="none" fill-rule="evenodd">
        <g id="Artboard" transform="translate(-105.000000, -317.000000)" fill="#505050">
            <path d="M176.129032,380.870968 L177.751935,380.870968 C175.859032,379.024516 174.677419,376.455161 174.677419,373.612903 L174.677419,319.903226 L107.903226,319.903226 L107.903226,373.612903 C107.903226,377.616452 111.157742,380.870968 115.16129,380.870968 L123.870968,380.870968 L176.129032,380.870968 Z M193.548387,322.806452 C194.349677,322.806452 195,323.456774 195,324.258065 L195,373.612903 C195,379.216129 190.441935,383.774194 184.83871,383.774194 L176.129032,383.774194 L123.870968,383.774194 L115.16129,383.774194 C109.558065,383.774194 105,379.216129 105,373.612903 L105,318.451613 C105,317.650323 105.650323,317 106.451613,317 L176.129032,317 C176.930323,317 177.580645,317.650323 177.580645,318.451613 L177.580645,373.612903 C177.580645,377.616452 180.835161,380.870968 184.83871,380.870968 C188.842258,380.870968 192.096774,377.616452 192.096774,373.612903 L192.096774,324.258065 C192.096774,323.456774 192.747097,322.806452 193.548387,322.806452 Z M184.83871,375.064516 C184.037419,375.064516 183.387097,374.414194 183.387097,373.612903 L183.387097,324.258065 C183.387097,323.456774 184.037419,322.806452 184.83871,322.806452 C185.64,322.806452 186.290323,323.456774 186.290323,324.258065 L186.290323,373.612903 C186.290323,374.414194 185.64,375.064516 184.83871,375.064516 Z M164.516129,328.612903 C165.317419,328.612903 165.967742,329.263226 165.967742,330.064516 C165.967742,330.865806 165.317419,331.516129 164.516129,331.516129 L118.064516,331.516129 C117.263226,331.516129 116.612903,330.865806 116.612903,330.064516 C116.612903,329.263226 117.263226,328.612903 118.064516,328.612903 L164.516129,328.612903 Z M118.064516,340.225806 C117.263226,340.225806 116.612903,339.575484 116.612903,338.774194 C116.612903,337.972903 117.263226,337.322581 118.064516,337.322581 L150,337.322581 C150.80129,337.322581 151.451613,337.972903 151.451613,338.774194 C151.451613,339.575484 150.80129,340.225806 150,340.225806 L118.064516,340.225806 Z M164.516129,337.322581 C165.317419,337.322581 165.967742,337.972903 165.967742,338.774194 C165.967742,339.575484 165.317419,340.225806 164.516129,340.225806 L155.806452,340.225806 C155.005161,340.225806 154.354839,339.575484 154.354839,338.774194 C154.354839,337.972903 155.005161,337.322581 155.806452,337.322581 L164.516129,337.322581 Z M139.83871,351.83871 C140.64,351.83871 141.290323,352.489032 141.290323,353.290323 C141.290323,354.091613 140.64,354.741935 139.83871,354.741935 L118.064516,354.741935 C117.263226,354.741935 116.612903,354.091613 116.612903,353.290323 C116.612903,352.489032 117.263226,351.83871 118.064516,351.83871 L139.83871,351.83871 Z M139.83871,360.548387 C140.64,360.548387 141.290323,361.19871 141.290323,362 C141.290323,362.80129 140.64,363.451613 139.83871,363.451613 L118.064516,363.451613 C117.263226,363.451613 116.612903,362.80129 116.612903,362 C116.612903,361.19871 117.263226,360.548387 118.064516,360.548387 L139.83871,360.548387 Z M139.83871,369.258065 C140.64,369.258065 141.290323,369.908387 141.290323,370.709677 C141.290323,371.510968 140.64,372.16129 139.83871,372.16129 L118.064516,372.16129 C117.263226,372.16129 116.612903,371.510968 116.612903,370.709677 C116.612903,369.908387 117.263226,369.258065 118.064516,369.258065 L139.83871,369.258065 Z M148.548387,372.16129 L163.064516,372.16129 L163.064516,351.83871 L148.548387,351.83871 L148.548387,372.16129 Z M164.516129,348.935484 C165.317419,348.935484 165.967742,349.585806 165.967742,350.387097 L165.967742,373.612903 C165.967742,374.414194 165.317419,375.064516 164.516129,375.064516 L147.096774,375.064516 C146.295484,375.064516 145.645161,374.414194 145.645161,373.612903 L145.645161,350.387097 C145.645161,349.585806 146.295484,348.935484 147.096774,348.935484 L164.516129,348.935484 Z" id="icon-section-news"></path>
        </g>
    </g>
</svg>