<?xml version="1.0" encoding="UTF-8"?>
<svg width="97px" height="83px" viewBox="0 0 97 83" version="1.1" xmlns="http://www.w3.org/2000/svg" xmlns:xlink="http://www.w3.org/1999/xlink">
    <!-- Generator: Sketch 53.2 (72643) - https://sketchapp.com -->
    <title>icon-section-software</title>
    <desc>Created with Sketch.</desc>
    <g id="Features" stroke="none" stroke-width="1" fill="none" fill-rule="evenodd">
        <g id="Desktop-HD---Features---ESM" transform="translate(-1158.000000, -523.000000)" fill="#505050">
            <path d="M1239.03797,594.214699 C1241.74661,594.214699 1243.94937,592.011939 1243.94937,589.303306 C1243.94937,586.594673 1241.74661,584.391914 1239.03797,584.391914 C1236.32934,584.391914 1234.12658,586.594673 1234.12658,589.303306 C1234.12658,592.011939 1236.32934,594.214699 1239.03797,594.214699 Z M1239.03797,581.936218 C1243.0997,581.936218 1246.40506,585.241585 1246.40506,589.303306 C1246.40506,593.365028 1243.0997,596.670395 1239.03797,596.670395 C1234.97625,596.670395 1231.67089,593.365028 1231.67089,589.303306 C1231.67089,585.241585 1234.97625,581.936218 1239.03797,581.936218 Z M1252.5443,591.022785 L1252.5443,587.58481 L1251.45397,587.58481 C1250.88425,587.58481 1250.39066,587.191899 1250.25805,586.639367 C1249.97565,585.445899 1249.5017,584.306456 1248.85339,583.255418 C1248.55625,582.771646 1248.62747,582.145443 1249.0302,581.742709 L1249.80375,580.966709 L1247.37506,578.538025 L1246.59906,579.309114 C1246.19387,579.716759 1245.56767,579.785519 1245.08635,579.48838 C1244.03532,578.840076 1242.89587,578.366127 1241.70241,578.081266 C1241.14742,577.951114 1240.75696,577.457519 1240.75696,576.887797 L1240.75696,575.797468 L1237.31899,575.797468 L1237.31899,576.887797 C1237.31899,577.457519 1236.92853,577.951114 1236.37354,578.081266 C1235.18008,578.366127 1234.04063,578.840076 1232.98959,579.48838 C1232.51073,579.785519 1231.88453,579.716759 1231.47689,579.309114 L1231.31972,579.156861 C1231.29271,579.127392 1231.26324,579.102835 1231.23377,579.070911 L1230.70089,578.538025 L1230.15818,579.08319 C1230.13608,579.105291 1230.11643,579.124937 1230.09187,579.147038 L1228.2722,580.966709 L1229.04575,581.742709 C1229.44848,582.145443 1229.5197,582.771646 1229.22256,583.255418 C1228.57425,584.306456 1228.1003,585.445899 1227.8179,586.639367 C1227.68529,587.191899 1227.1917,587.58481 1226.62197,587.58481 L1225.53165,587.58481 L1225.53165,591.022785 L1226.62197,591.022785 C1227.1917,591.022785 1227.68529,591.413241 1227.8179,591.968228 C1228.1003,593.161696 1228.57425,594.301139 1229.22256,595.352177 C1229.5197,595.835949 1229.44848,596.462152 1229.04575,596.864886 L1228.2722,597.63843 L1230.70089,600.06957 L1231.47689,599.296025 C1231.88453,598.893291 1232.51073,598.824532 1232.98959,599.119215 C1234.04063,599.767519 1235.18008,600.241468 1236.37354,600.523873 C1236.92853,600.656481 1237.31899,601.150076 1237.31899,601.717342 L1237.31899,602.810127 L1240.75696,602.810127 L1240.75696,601.717342 C1240.75696,601.150076 1241.14742,600.656481 1241.70241,600.523873 C1242.89587,600.241468 1244.03532,599.767519 1245.08635,599.119215 C1245.56767,598.824532 1246.19387,598.893291 1246.59906,599.296025 L1247.37506,600.06957 L1249.80375,597.63843 L1249.0302,596.864886 C1248.62747,596.462152 1248.55625,595.835949 1248.85339,595.352177 C1249.5017,594.301139 1249.97565,593.161696 1250.25805,591.968228 C1250.39066,591.413241 1250.88425,591.022785 1251.45397,591.022785 L1252.5443,591.022785 Z M1192.37975,571.409139 L1192.37975,550.717443 C1189.97316,548.696405 1186.95266,547.556962 1183.78481,547.556962 C1176.33914,547.556962 1170.27848,553.61762 1170.27848,561.063291 C1170.27848,568.508962 1176.33914,574.56962 1183.78481,574.56962 C1186.95266,574.56962 1189.97316,573.430177 1192.37975,571.409139 Z M1232.55003,576.912354 C1233.0559,576.647139 1233.5937,576.458051 1234.12658,576.256684 L1234.12658,545.101266 L1194.83544,545.101266 L1194.83544,577.025316 L1228.7437,577.025316 L1229.83403,575.932532 C1230.31289,575.453671 1231.09134,575.453671 1231.5702,575.932532 L1232.55003,576.912354 Z M1160.4557,590.531646 C1160.4557,592.562506 1162.10838,594.21519 1164.13924,594.21519 L1225.99086,594.21519 C1225.89754,593.964709 1225.76739,593.733873 1225.68635,593.478481 L1224.3038,593.478481 C1223.62603,593.478481 1223.07595,592.928405 1223.07595,592.250633 L1223.07595,586.356962 C1223.07595,585.676734 1223.62603,585.129114 1224.3038,585.129114 L1225.68635,585.129114 C1225.93684,584.331013 1226.25853,583.557468 1226.64653,582.815848 L1225.66916,581.836025 C1225.18785,581.354709 1225.18785,580.578709 1225.66916,580.099848 L1226.288,579.481013 L1193.60759,579.481013 C1192.92982,579.481013 1192.37975,578.930937 1192.37975,578.253165 L1192.37975,574.466481 C1189.83319,576.114253 1186.86671,577.025316 1183.78481,577.025316 C1174.98359,577.025316 1167.82278,569.864506 1167.82278,561.063291 C1167.82278,552.262076 1174.98359,545.101266 1183.78481,545.101266 C1186.86671,545.101266 1189.83319,546.012329 1192.37975,547.660101 L1192.37975,543.873418 C1192.37975,543.19319 1192.92982,542.64557 1193.60759,542.64557 L1235.35443,542.64557 C1236.0322,542.64557 1236.58228,543.19319 1236.58228,543.873418 L1236.58228,573.341772 L1241.98481,573.341772 C1242.66504,573.341772 1243.21266,573.889392 1243.21266,574.56962 L1243.21266,575.952177 C1243.46805,576.033215 1243.69889,576.163367 1243.94937,576.256684 L1243.94937,529.139241 C1243.94937,527.10838 1242.29668,525.455696 1240.26582,525.455696 L1164.13924,525.455696 C1162.10838,525.455696 1160.4557,527.10838 1160.4557,529.139241 L1160.4557,590.531646 Z M1253.77215,585.129114 C1254.44992,585.129114 1255,585.676734 1255,586.356962 L1255,592.250633 C1255,592.928405 1254.44992,593.478481 1253.77215,593.478481 L1252.38959,593.478481 C1252.13911,594.274127 1251.81742,595.050127 1251.42942,595.789291 L1252.40678,596.77157 C1252.8881,597.25043 1252.8881,598.028886 1252.40678,598.507747 L1248.24192,602.672608 C1247.76306,603.151468 1246.98461,603.151468 1246.50575,602.672608 L1245.52592,601.695241 C1244.7843,602.083241 1244.0083,602.404937 1243.21266,602.652962 L1243.21266,604.037975 C1243.21266,604.715747 1242.66504,605.265823 1241.98481,605.265823 L1236.09114,605.265823 C1235.41091,605.265823 1234.86329,604.715747 1234.86329,604.037975 L1234.86329,602.652962 C1234.06765,602.404937 1233.29165,602.083241 1232.55003,601.695241 L1231.5702,602.672608 C1231.09134,603.151468 1230.31289,603.151468 1229.83403,602.672608 L1225.66916,598.507747 C1225.18785,598.028886 1225.18785,597.25043 1225.66916,596.77157 L1225.76985,596.670886 L1164.13924,596.670886 C1160.75284,596.670886 1158,593.918051 1158,590.531646 L1158,529.139241 C1158,525.752835 1160.75284,523 1164.13924,523 L1240.26582,523 C1243.65223,523 1246.40506,525.752835 1246.40506,529.139241 L1246.40506,576.033215 L1246.50575,575.932532 C1246.98461,575.453671 1247.76306,575.453671 1248.24192,575.932532 L1252.40678,580.099848 C1252.8881,580.578709 1252.8881,581.354709 1252.40678,581.836025 L1251.42942,582.815848 C1251.81742,583.557468 1252.13911,584.331013 1252.38959,585.129114 L1253.77215,585.129114 Z M1237.83419,532.822294 C1237.15642,532.822294 1236.59407,532.272218 1236.59407,531.594446 C1236.59407,530.916673 1237.13186,530.366597 1237.80964,530.366597 L1237.83419,530.366597 C1238.51196,530.366597 1239.06204,530.916673 1239.06204,531.594446 C1239.06204,532.272218 1238.51196,532.822294 1237.83419,532.822294 Z M1232.9228,532.822294 C1232.24503,532.822294 1231.68267,532.272218 1231.68267,531.594446 C1231.68267,530.916673 1232.22047,530.366597 1232.89824,530.366597 L1232.9228,530.366597 C1233.60057,530.366597 1234.15065,530.916673 1234.15065,531.594446 C1234.15065,532.272218 1233.60057,532.822294 1232.9228,532.822294 Z M1228.01141,532.822294 C1227.33364,532.822294 1226.77128,532.272218 1226.77128,531.594446 C1226.77128,530.916673 1227.30908,530.366597 1227.98685,530.366597 L1228.01141,530.366597 C1228.68918,530.366597 1229.23926,530.916673 1229.23926,531.594446 C1229.23926,532.272218 1228.68918,532.822294 1228.01141,532.822294 Z M1208.2794,553.758086 C1208.75826,554.236947 1208.75826,555.015403 1208.2794,555.494263 L1202.70988,561.063782 L1208.2794,566.630846 C1208.75826,567.109706 1208.75826,567.888162 1208.2794,568.367023 C1208.03874,568.607681 1207.72441,568.72801 1207.41008,568.72801 C1207.09821,568.72801 1206.78388,568.607681 1206.54322,568.367023 L1200.10684,561.930643 C1199.62798,561.451782 1199.62798,560.673327 1200.10684,560.194466 L1206.54322,553.758086 C1207.02208,553.279225 1207.80054,553.279225 1208.2794,553.758086 Z M1222.41881,553.758086 L1228.85518,560.194466 C1229.33405,560.673327 1229.33405,561.451782 1228.85518,561.930643 L1222.41881,568.367023 C1222.17815,568.607681 1221.86382,568.72801 1221.54949,568.72801 C1221.23762,568.72801 1220.92329,568.607681 1220.68263,568.367023 C1220.20377,567.888162 1220.20377,567.109706 1220.68263,566.630846 L1226.25215,561.063782 L1220.68263,555.494263 C1220.20377,555.015403 1220.20377,554.236947 1220.68263,553.758086 C1221.16149,553.279225 1221.93994,553.279225 1222.41881,553.758086 Z M1215.91023,552.484562 C1216.57818,552.595068 1217.03248,553.228638 1216.91952,553.896587 L1214.46382,568.630765 C1214.36314,569.23241 1213.84253,569.657246 1213.25562,569.657246 C1213.18932,569.657246 1213.1181,569.652334 1213.0518,569.640056 C1212.38139,569.529549 1211.92954,568.898435 1212.04251,568.22803 L1214.4982,553.493853 C1214.61116,552.823448 1215.25456,552.369144 1215.91023,552.484562 Z M1187.46835,561.0628 C1187.46835,559.031939 1185.81567,557.379256 1183.78481,557.379256 C1181.75395,557.379256 1180.10127,559.031939 1180.10127,561.0628 C1180.10127,563.093661 1181.75395,564.746344 1183.78481,564.746344 C1185.81567,564.746344 1187.46835,563.093661 1187.46835,561.0628 Z M1177.64557,561.0628 C1177.64557,557.676395 1180.39841,554.923559 1183.78481,554.923559 C1187.17122,554.923559 1189.92405,557.676395 1189.92405,561.0628 C1189.92405,564.449205 1187.17122,567.202041 1183.78481,567.202041 C1180.39841,567.202041 1177.64557,564.449205 1177.64557,561.0628 Z" id="icon-section-software"></path>
        </g>
    </g>
</svg>