<?xml version="1.0" encoding="UTF-8"?>
<svg width="90px" height="76px" viewBox="0 0 90 76" version="1.1" xmlns="http://www.w3.org/2000/svg" xmlns:xlink="http://www.w3.org/1999/xlink">
    <!-- Generator: Sketch 53.2 (72643) - https://sketchapp.com -->
    <title>icon-section-chat-white</title>
    <desc>Created with Sketch.</desc>
    <g id="Features" stroke="none" stroke-width="1" fill="none" fill-rule="evenodd">
        <g id="Artboard-Copy" transform="translate(-606.000000, -14.000000)" fill="#FFFFFF">
            <path d="M694.548387,51.3329583 C695.349677,51.3329583 696,51.9582917 696,52.7287917 L696,71.2291667 C696,71.9996667 695.349677,72.625 694.548387,72.625 L652.451613,72.625 L652.451613,86.5833333 L674.225806,86.5833333 C675.027097,86.5833333 675.677419,87.2086667 675.677419,87.9791667 C675.677419,88.7496667 675.027097,89.375 674.225806,89.375 L627.774194,89.375 C626.972903,89.375 626.322581,88.7496667 626.322581,87.9791667 C626.322581,87.2086667 626.972903,86.5833333 627.774194,86.5833333 L649.548387,86.5833333 L649.548387,72.625 L607.451613,72.625 C606.650323,72.625 606,71.9996667 606,71.2291667 L606,15.3958333 C606,14.6253333 606.650323,14 607.451613,14 L643.762258,14 C644.563548,14 645.213871,14.6253333 645.213871,15.3958333 C645.213871,16.1663333 644.563548,16.7916667 643.762258,16.7916667 L608.903226,16.7916667 L608.903226,69.8333333 L693.096774,69.8333333 L693.096774,52.7287917 C693.096774,51.9582917 693.747097,51.3329583 694.548387,51.3329583 Z M693.075,40.2840402 L693.075,20.9168527 C693.075,18.6287578 691.106475,16.7667411 688.6875,16.7667411 L656.5125,16.7667411 C654.093525,16.7667411 652.125,18.6287578 652.125,20.9168527 L652.125,40.2840402 C652.125,42.572135 654.093525,44.4341518 656.5125,44.4341518 L659.4375,44.4341518 C660.2448,44.4341518 660.9,45.0539018 660.9,45.8175223 L660.9,53.8051038 L671.6289,44.7827612 C671.898,44.5586551 672.24315,44.4341518 672.6,44.4341518 L688.6875,44.4341518 C691.106475,44.4341518 693.075,42.572135 693.075,40.2840402 Z M688.6875,14 C692.721075,14 696,17.1015167 696,20.9168527 L696,40.2840402 C696,44.0993761 692.721075,47.2008929 688.6875,47.2008929 L673.15575,47.2008929 L660.4086,57.9192478 C660.136575,58.1488873 659.7885,58.2678571 659.4375,58.2678571 C659.235675,58.2678571 659.030925,58.226356 658.837875,58.1461205 C658.311375,57.9220145 657.975,57.4295346 657.975,56.8844866 L657.975,47.2008929 L656.5125,47.2008929 C652.478925,47.2008929 649.2,44.0993761 649.2,40.2840402 L649.2,20.9168527 C649.2,17.1015167 652.478925,14 656.5125,14 L688.6875,14 Z M684.594,28.3571429 C686.247,28.3571429 687.6,29.6941518 687.6,31.3482143 C687.6,33.0022768 686.277,34.3392857 684.624,34.3392857 L684.594,34.3392857 C682.938,34.3392857 681.6,33.0022768 681.6,31.3482143 C681.6,29.6941518 682.938,28.3571429 684.594,28.3571429 Z M672.594,28.3571429 C674.247,28.3571429 675.6,29.6941518 675.6,31.3482143 C675.6,33.0022768 674.277,34.3392857 672.624,34.3392857 L672.594,34.3392857 C670.938,34.3392857 669.6,33.0022768 669.6,31.3482143 C669.6,29.6941518 670.938,28.3571429 672.594,28.3571429 Z M661.794,28.3571429 C663.447,28.3571429 664.8,29.6941518 664.8,31.3482143 C664.8,33.0022768 663.477,34.3392857 661.824,34.3392857 L661.794,34.3392857 C660.138,34.3392857 658.8,33.0022768 658.8,31.3482143 C658.8,29.6941518 660.138,28.3571429 661.794,28.3571429 Z" id="icon-section-chat"></path>
        </g>
    </g>
</svg>