<?xml version="1.0" encoding="UTF-8"?>
<svg width="100px" height="57px" viewBox="0 0 100 57" version="1.1" xmlns="http://www.w3.org/2000/svg" xmlns:xlink="http://www.w3.org/1999/xlink">
    <!-- Generator: Sketch 53.2 (72643) - https://sketchapp.com -->
    <title>icon-section-portal</title>
    <desc>Created with Sketch.</desc>
    <g id="Features" stroke="none" stroke-width="1" fill="none" fill-rule="evenodd">
        <g id="Desktop-HD---Features---ITSM" transform="translate(-194.000000, -926.000000)" fill="#505050">
            <path d="M211.06753,971.673759 L279.06013,971.673759 L279.06013,929.262411 L211.06753,929.262411 L211.06753,971.673759 Z M280.679001,974.93617 L209.448659,974.93617 C208.555042,974.93617 207.829787,974.20539 207.829787,973.304965 L207.829787,927.631206 C207.829787,926.73078 208.555042,926 209.448659,926 L280.679001,926 C281.572618,926 282.297872,926.73078 282.297872,927.631206 L282.297872,973.304965 C282.297872,974.20539 281.572618,974.93617 280.679001,974.93617 Z M292.387097,982.382979 L195.612903,982.382979 C194.722581,982.382979 194,981.668085 194,980.787234 C194,979.906383 194.722581,979.191489 195.612903,979.191489 L292.387097,979.191489 C293.277419,979.191489 294,979.906383 294,980.787234 C294,981.668085 293.277419,982.382979 292.387097,982.382979 Z M216.872782,950.468085 C216.496212,950.468085 216.116451,950.329992 215.813281,950.053806 C215.155879,949.448828 215.092054,948.409843 215.679247,947.73253 L228.444322,932.93686 C229.028324,932.252971 230.039956,932.197077 230.697358,932.798767 C231.354759,933.403746 231.418584,934.44273 230.831391,935.120043 L218.066316,949.915713 C217.750381,950.280673 217.313177,950.468085 216.872782,950.468085 Z M215.868072,940.893617 C215.444525,940.893617 215.020979,940.73146 214.696701,940.410456 C214.051454,939.761828 214.051454,938.716081 214.696701,938.067453 L218.832898,933.930797 C219.481453,933.285479 220.527084,933.285479 221.175639,933.930797 C221.820886,934.579425 221.820886,935.625172 221.175639,936.273799 L217.039443,940.410456 C216.715165,940.73146 216.291618,940.893617 215.868072,940.893617 Z M255.702128,936.859737 C252.781716,936.859737 250.404263,939.385304 250.404263,942.487655 C250.404263,945.59342 252.781716,948.118987 255.702128,948.118987 C258.622539,948.118987 260.999992,945.59342 260.999992,942.487655 C260.999992,939.385304 258.622539,936.859737 255.702128,936.859737 Z M255.702128,951.531915 C251.008265,951.531915 247.191489,947.473943 247.191489,942.487655 C247.191489,937.501367 251.008265,933.446809 255.702128,933.446809 C260.39599,933.446809 264.212766,937.501367 264.212766,942.487655 C264.212766,947.473943 260.39599,951.531915 255.702128,951.531915 Z M244.342083,960.426108 C247.379068,962.824949 251.929653,964.2389 256.767301,964.2389 C261.601686,964.2389 266.155533,962.824949 269.189257,960.426108 L269.022891,959.95154 C268.181278,957.533197 265.40852,955.846207 262.280196,955.846207 L251.251143,955.846207 C248.12282,955.846207 245.353324,957.533197 244.508448,959.95154 L244.342083,960.426108 Z M256.767301,967.489362 C250.683543,967.489362 244.909682,965.480576 241.321407,962.119598 C240.854932,961.680786 240.688566,961.00794 240.897338,960.403354 L241.422531,958.888639 C242.740407,955.121354 246.68751,952.595745 251.251143,952.595745 L262.280196,952.595745 C266.84383,952.595745 270.790932,955.121354 272.108808,958.885389 L272.634001,960.403354 C272.842773,961.00794 272.67967,961.680786 272.209932,962.119598 C268.621657,965.480576 262.847796,967.489362 256.767301,967.489362 Z" id="icon-section-portal"></path>
        </g>
    </g>
</svg>