<?xml version="1.0" encoding="UTF-8"?>
<svg width="60px" height="86px" viewBox="0 0 60 86" version="1.1" xmlns="http://www.w3.org/2000/svg" xmlns:xlink="http://www.w3.org/1999/xlink">
    <!-- Generator: Sketch 53.2 (72643) - https://sketchapp.com -->
    <title>icon-section-time</title>
    <desc>Created with Sketch.</desc>
    <g id="Features" stroke="none" stroke-width="1" fill="none" fill-rule="evenodd">
        <path d="M16.2790013,16.2767937 L30.0009461,31.5377661 L43.7197372,16.2767937 L16.2790013,16.2767937 Z M31.1993693,35.0352694 C30.8966097,35.3758739 30.4582392,35.571406 30.0009461,35.571406 C29.5404993,35.571406 29.1021288,35.3758739 28.7993693,35.0352694 L11.4537714,15.740657 C11.024862,15.2675953 10.9176347,14.5863863 11.1793955,13.9997898 C11.4380026,13.4195007 12.015138,13.044205 12.6553482,13.044205 L47.346544,13.044205 C47.9836005,13.044205 48.5607359,13.4195007 48.819343,13.9997898 C49.0811038,14.5863863 48.9738765,15.2675953 48.5449671,15.740657 L31.1993693,35.0352694 Z M35.2847306,55.2119842 L48.3759264,69.3281472 C48.653456,69.6245992 48.962523,70.1638896 48.962523,70.5707227 L48.962523,77.3071222 C48.962523,78.1996321 48.2371616,78.9249934 47.3446518,78.9249934 C46.4521419,78.9249934 45.7299343,78.1996321 45.7299343,77.3071222 L45.7299343,71.2267017 L32.9131143,57.4101445 C32.3075953,56.7541656 32.3454402,55.7323522 32.9982654,55.1268331 C33.6542444,54.5244678 34.6792116,54.559159 35.2847306,55.2119842 Z M46.0888305,81.9973719 L52.0367937,81.9973719 L52.0367937,70.5713535 C52.0367937,69.2846255 51.500657,68.0388962 50.560841,67.1558476 L29.9984231,44.9913272 L9.51484888,67.0801577 L9.439159,67.1558476 C8.49934297,68.0388962 7.96320631,69.2846255 7.96320631,70.5713535 L7.96320631,81.9973719 L13.9080158,81.9973719 L29.0554534,69.8554534 C29.59159,69.4328515 30.3484888,69.426544 30.8846255,69.8554534 L46.0888305,81.9973719 Z M18.5881735,81.9973719 L41.3960578,81.9973719 L29.9731932,72.8735874 L18.5881735,81.9973719 Z M7.96320631,14.6586071 C7.96320631,15.9484888 8.49934297,17.1910644 9.439159,18.074113 L29.9984231,40.2417871 L50.4851511,18.1529566 L50.560841,18.074113 C51.500657,17.1910644 52.0367937,15.9484888 52.0367937,14.6586071 L52.0367937,3.2325887 L7.96320631,3.2325887 L7.96320631,14.6586071 Z M58.3821288,81.9973719 C59.2777924,81.9973719 60,82.7195795 60,83.6152431 C60,84.507753 59.2777924,85.2299606 58.3821288,85.2299606 L53.6515112,85.2299606 L6.34533509,85.2299606 L1.61471748,85.2299606 C0.722207622,85.2299606 7.28306304e-13,84.507753 7.28306304e-13,83.6152431 C7.28306304e-13,82.7195795 0.722207622,81.9973719 1.61471748,81.9973719 L4.73061761,81.9973719 L4.73061761,70.5713535 C4.73061761,68.4141919 5.62312746,66.3295664 7.18107753,64.8441524 L27.7939553,42.6165572 L7.14323259,20.351117 C5.63889619,18.9382392 4.73061761,16.8346912 4.73061761,14.6586071 L4.73061761,3.2325887 L1.61471748,3.2325887 C0.722207622,3.2325887 7.28306304e-13,2.51038108 7.28306304e-13,1.61787122 C7.28306304e-13,0.722207622 0.722207622,4.26325641e-14 1.61471748,4.26325641e-14 L6.34533509,4.26325641e-14 L53.6515112,4.26325641e-14 L58.3821288,4.26325641e-14 C59.2777924,4.26325641e-14 60,0.722207622 60,1.61787122 C60,2.51038108 59.2777924,3.2325887 58.3821288,3.2325887 L55.2693824,3.2325887 L55.2693824,14.6586071 C55.2693824,16.8157687 54.3768725,18.9003942 52.8189225,20.3889619 L32.2060447,42.6165572 L52.8567674,64.8788436 C54.3611038,66.2948752 55.2693824,68.3984231 55.2693824,70.5713535 L55.2693824,81.9973719 L58.3821288,81.9973719 Z" id="icon-section-time" fill="#505050"></path>
    </g>
</svg>