<?xml version="1.0" encoding="UTF-8"?>
<svg width="85px" height="75px" viewBox="0 0 85 75" version="1.1" xmlns="http://www.w3.org/2000/svg" xmlns:xlink="http://www.w3.org/1999/xlink">
    <!-- Generator: Sketch 53.2 (72643) - https://sketchapp.com -->
    <title>icon-section-resource</title>
    <desc>Created with Sketch.</desc>
    <g id="Features" stroke="none" stroke-width="1" fill="none" fill-rule="evenodd">
        <g id="Desktop-HD---Features---ITSM" transform="translate(-1164.000000, -915.000000)" fill="#505050">
            <path d="M1233.21429,979.112419 C1235.893,979.112419 1238.07143,976.942258 1238.07143,974.27371 C1238.07143,971.605161 1235.893,969.435 1233.21429,969.435 C1230.53557,969.435 1228.35714,971.605161 1228.35714,974.27371 C1228.35714,976.942258 1230.53557,979.112419 1233.21429,979.112419 Z M1233.21429,967.015645 C1237.23114,967.015645 1240.5,970.272097 1240.5,974.27371 C1240.5,978.275323 1237.23114,981.531774 1233.21429,981.531774 C1229.19743,981.531774 1225.92857,978.275323 1225.92857,974.27371 C1225.92857,970.272097 1229.19743,967.015645 1233.21429,967.015645 Z M1246.57143,975.967742 L1246.57143,972.580645 L1245.49314,972.580645 C1244.92971,972.580645 1244.44157,972.193548 1244.31043,971.649194 C1244.03114,970.473387 1243.56243,969.350806 1242.92129,968.315323 C1242.62743,967.83871 1242.69786,967.221774 1243.09614,966.825 L1243.86114,966.060484 L1241.45929,963.667742 L1240.69186,964.427419 C1240.29357,964.829032 1239.67429,964.896774 1239.19586,964.604032 C1238.15643,963.965323 1237.02957,963.498387 1235.84929,963.217742 C1235.30043,963.089516 1234.91429,962.603226 1234.91429,962.041935 L1234.91429,960.967742 L1231.51429,960.967742 L1231.51429,962.041935 C1231.51429,962.603226 1231.12814,963.089516 1230.57929,963.217742 C1229.399,963.498387 1228.27214,963.965323 1227.23271,964.604032 C1226.75914,964.896774 1226.13743,964.829032 1225.73671,964.427419 L1224.96929,963.667742 L1222.56743,966.060484 L1223.33243,966.825 C1223.73071,967.221774 1223.80114,967.83871 1223.50729,968.315323 C1222.86614,969.350806 1222.39743,970.473387 1222.11814,971.649194 C1221.987,972.193548 1221.49886,972.580645 1220.93543,972.580645 L1219.85714,972.580645 L1219.85714,975.967742 L1220.93543,975.967742 C1221.49886,975.967742 1221.987,976.352419 1222.11814,976.899194 C1222.39743,978.075 1222.86614,979.197581 1223.50729,980.233065 C1223.80114,980.709677 1223.73071,981.326613 1223.33243,981.723387 L1222.56743,982.485484 L1223.15271,983.070968 C1223.177,983.090323 1223.19643,983.109677 1223.21829,983.133871 L1224.96929,984.880645 L1225.73671,984.118548 C1226.13743,983.721774 1226.75914,983.654032 1227.23271,983.944355 C1228.27214,984.583065 1229.399,985.05 1230.57929,985.328226 C1231.12814,985.458871 1231.51429,985.945161 1231.51429,986.504032 L1231.51429,987.580645 L1234.91429,987.580645 L1234.91429,986.504032 C1234.91429,985.945161 1235.30043,985.458871 1235.84929,985.328226 C1237.02957,985.05 1238.15643,984.583065 1239.19586,983.944355 C1239.67429,983.654032 1240.29357,983.721774 1240.69186,984.118548 L1241.45929,984.880645 L1243.86114,982.485484 L1243.09614,981.723387 C1242.69786,981.326613 1242.62743,980.709677 1242.92129,980.233065 C1243.56243,979.197581 1244.03114,978.075 1244.31043,976.899194 C1244.44157,976.352419 1244.92971,975.967742 1245.49314,975.967742 L1246.57143,975.967742 Z M1166.42857,979.112903 C1166.42857,981.11371 1168.063,982.741935 1170.07143,982.741935 L1219.68714,982.741935 C1219.60214,982.352419 1219.68957,981.933871 1219.99314,981.631452 L1220.95971,980.66371 C1220.576,979.935484 1220.25786,979.170968 1220.01014,978.387097 L1218.64286,978.387097 C1217.97257,978.387097 1217.42857,977.845161 1217.42857,977.177419 L1217.42857,971.370968 C1217.42857,970.700806 1217.97257,970.16129 1218.64286,970.16129 L1220.01014,970.16129 C1220.25786,969.375 1220.576,968.612903 1220.95971,967.882258 L1219.99314,966.916935 C1219.51714,966.442742 1219.51714,965.678226 1219.99314,965.206452 L1224.112,961.100806 C1224.17029,961.042742 1224.248,961.01129 1224.316,960.967742 L1221.23171,960.967742 C1220.56143,960.967742 1220.01743,960.425806 1220.01743,959.758065 C1220.01743,959.087903 1220.56143,958.548387 1221.23171,958.548387 L1225.55943,958.548387 C1226.22971,958.548387 1226.77371,959.087903 1226.77371,959.758065 C1226.77371,960.406452 1226.25643,960.929032 1225.61043,960.958065 C1225.68329,961.001613 1225.76586,961.037903 1225.829,961.100806 L1226.798,962.066129 C1227.53143,961.683871 1228.29886,961.366935 1229.08571,961.120161 L1229.08571,959.758065 C1229.08571,959.087903 1229.62729,958.548387 1230.3,958.548387 L1236.12857,958.548387 C1236.40786,958.548387 1236.65314,958.657258 1236.85714,958.814516 L1236.85714,936.774194 L1166.42857,936.774194 L1166.42857,979.112903 Z M1170.07143,922.258065 C1168.063,922.258065 1166.42857,923.88629 1166.42857,925.887097 L1166.42857,934.354839 L1236.85714,934.354839 L1236.85714,925.887097 C1236.85714,923.88629 1235.22271,922.258065 1233.21429,922.258065 L1222.28571,922.258065 L1222.28571,925.887097 C1222.28571,926.554839 1221.74171,927.096774 1221.07143,927.096774 C1220.40114,927.096774 1219.85714,926.554839 1219.85714,925.887097 L1219.85714,922.258065 L1183.42857,922.258065 L1183.42857,925.887097 C1183.42857,926.554839 1182.88457,927.096774 1182.21429,927.096774 C1181.544,927.096774 1181,926.554839 1181,925.887097 L1181,922.258065 L1170.07143,922.258065 Z M1247.78571,970.16129 C1248.456,970.16129 1249,970.700806 1249,971.370968 L1249,977.177419 C1249,977.845161 1248.456,978.387097 1247.78571,978.387097 L1246.41843,978.387097 C1246.17071,979.170968 1245.85257,979.935484 1245.46886,980.66371 L1246.43543,981.631452 C1246.91143,982.103226 1246.91143,982.870161 1246.43543,983.341935 L1242.31657,987.445161 C1241.843,987.916935 1241.07314,987.916935 1240.59957,987.445161 L1239.63057,986.482258 C1238.89714,986.864516 1238.12971,987.181452 1237.34286,987.425806 L1237.34286,988.790323 C1237.34286,989.458065 1236.80129,990 1236.12857,990 L1230.3,990 C1229.62729,990 1229.08571,989.458065 1229.08571,988.790323 L1229.08571,987.425806 C1228.29886,987.181452 1227.53143,986.864516 1226.798,986.482258 L1225.829,987.445161 C1225.35543,987.916935 1224.58557,987.916935 1224.112,987.445161 L1221.81943,985.16129 L1170.07143,985.16129 C1166.72243,985.16129 1164,982.449194 1164,979.112903 L1164,925.887097 C1164,922.550806 1166.72243,919.83871 1170.07143,919.83871 L1181,919.83871 L1181,916.209677 C1181,915.539516 1181.544,915 1182.21429,915 C1182.88457,915 1183.42857,915.539516 1183.42857,916.209677 L1183.42857,919.83871 L1219.85714,919.83871 L1219.85714,916.209677 C1219.85714,915.539516 1220.40114,915 1221.07143,915 C1221.74171,915 1222.28571,915.539516 1222.28571,916.209677 L1222.28571,919.83871 L1233.21429,919.83871 C1236.56329,919.83871 1239.28571,922.550806 1239.28571,925.887097 L1239.28571,961.923387 C1239.39743,961.979032 1239.51886,962.008065 1239.63057,962.066129 L1240.59957,961.100806 C1241.07314,960.629032 1241.843,960.629032 1242.31657,961.100806 L1246.43543,965.206452 C1246.91143,965.678226 1246.91143,966.442742 1246.43543,966.916935 L1245.46886,967.882258 C1245.85257,968.612903 1246.17071,969.375 1246.41843,970.16129 L1247.78571,970.16129 Z M1181.84441,958.547903 C1182.5147,958.547903 1183.0587,959.089839 1183.0587,959.757581 C1183.0587,960.425323 1182.5147,960.967258 1181.84441,960.967258 L1177.51913,960.967258 C1176.84641,960.967258 1176.30484,960.425323 1176.30484,959.757581 C1176.30484,959.089839 1176.84641,958.547903 1177.51913,958.547903 L1181.84441,958.547903 Z M1181.84441,970.644677 C1182.5147,970.644677 1183.0587,971.186613 1183.0587,971.854355 C1183.0587,972.522097 1182.5147,973.064032 1181.84441,973.064032 L1177.51913,973.064032 C1176.84641,973.064032 1176.30484,972.522097 1176.30484,971.854355 C1176.30484,971.186613 1176.84641,970.644677 1177.51913,970.644677 L1181.84441,970.644677 Z M1196.41584,946.451129 C1197.08613,946.451129 1197.63013,946.993065 1197.63013,947.660806 C1197.63013,948.328548 1197.08613,948.870484 1196.41584,948.870484 L1192.09056,948.870484 C1191.41784,948.870484 1190.87627,948.328548 1190.87627,947.660806 C1190.87627,946.993065 1191.41784,946.451129 1192.09056,946.451129 L1196.41584,946.451129 Z M1196.41584,958.547903 C1197.08613,958.547903 1197.63013,959.089839 1197.63013,959.757581 C1197.63013,960.425323 1197.08613,960.967258 1196.41584,960.967258 L1192.09056,960.967258 C1191.41784,960.967258 1190.87627,960.425323 1190.87627,959.757581 C1190.87627,959.089839 1191.41784,958.547903 1192.09056,958.547903 L1196.41584,958.547903 Z M1196.41584,970.644677 C1197.08613,970.644677 1197.63013,971.186613 1197.63013,971.854355 C1197.63013,972.522097 1197.08613,973.064032 1196.41584,973.064032 L1192.09056,973.064032 C1191.41784,973.064032 1190.87627,972.522097 1190.87627,971.854355 C1190.87627,971.186613 1191.41784,970.644677 1192.09056,970.644677 L1196.41584,970.644677 Z M1210.98727,946.451129 C1211.65756,946.451129 1212.20156,946.993065 1212.20156,947.660806 C1212.20156,948.328548 1211.65756,948.870484 1210.98727,948.870484 L1206.66199,948.870484 C1205.98927,948.870484 1205.4477,948.328548 1205.4477,947.660806 C1205.4477,946.993065 1205.98927,946.451129 1206.66199,946.451129 L1210.98727,946.451129 Z M1210.98727,958.547903 C1211.65756,958.547903 1212.20156,959.089839 1212.20156,959.757581 C1212.20156,960.425323 1211.65756,960.967258 1210.98727,960.967258 L1206.66199,960.967258 C1205.98927,960.967258 1205.4477,960.425323 1205.4477,959.757581 C1205.4477,959.089839 1205.98927,958.547903 1206.66199,958.547903 L1210.98727,958.547903 Z M1210.98727,970.644677 C1211.65756,970.644677 1212.20156,971.186613 1212.20156,971.854355 C1212.20156,972.522097 1211.65756,973.064032 1210.98727,973.064032 L1206.66199,973.064032 C1205.98927,973.064032 1205.4477,972.522097 1205.4477,971.854355 C1205.4477,971.186613 1205.98927,970.644677 1206.66199,970.644677 L1210.98727,970.644677 Z M1221.23269,948.870484 C1220.5624,948.870484 1220.0184,948.328548 1220.0184,947.660806 C1220.0184,946.993065 1220.5624,946.451129 1221.23269,946.451129 L1225.55797,946.451129 C1226.23069,946.451129 1226.77226,946.993065 1226.77226,947.660806 C1226.77226,948.328548 1226.23069,948.870484 1225.55797,948.870484 L1221.23269,948.870484 Z" id="icon-section-resource"></path>
        </g>
    </g>
</svg>