<?xml version="1.0" encoding="UTF-8"?>
<svg width="100px" height="91px" viewBox="0 0 100 91" version="1.1" xmlns="http://www.w3.org/2000/svg" xmlns:xlink="http://www.w3.org/1999/xlink">
    <!-- Generator: Sketch 53.2 (72643) - https://sketchapp.com -->
    <title>icon-section-hr</title>
    <desc>Created with Sketch.</desc>
    <g id="Features" stroke="none" stroke-width="1" fill="none" fill-rule="evenodd">
        <g id="Desktop-HD---Features---ESM" transform="translate(-516.000000, -512.000000)" fill="#505050">
            <path d="M597.428394,575.842894 C602.154154,575.842894 605.999905,579.688645 605.999905,584.414404 C605.999905,589.140164 602.154154,592.985915 597.428394,592.985915 C592.702635,592.985915 588.856884,589.140164 588.856884,584.414404 C588.856884,579.688645 592.702635,575.842894 597.428394,575.842894 Z M597.428394,590.128745 C600.579853,590.128745 603.142735,587.565863 603.142735,584.414404 C603.142735,581.262946 600.579853,578.700064 597.428394,578.700064 C594.276936,578.700064 591.714054,581.262946 591.714054,584.414404 C591.714054,587.565863 594.276936,590.128745 597.428394,590.128745 Z M613.14283,586.414995 L613.14283,582.414957 L611.874246,582.414957 C611.211383,582.414957 610.637092,581.95781 610.482805,581.314946 C610.15423,579.926362 609.602796,578.600635 608.848503,577.377766 C608.502786,576.814903 608.585644,576.086325 609.05422,575.617749 L609.954228,574.714883 L607.128487,571.889142 L606.225621,572.786294 C605.757045,573.260584 605.028467,573.340585 604.465604,572.994867 C603.242736,572.240574 601.917009,571.68914 600.528424,571.357709 C599.882704,571.206279 599.428413,570.631987 599.428413,569.969124 L599.428413,568.70054 L595.428375,568.70054 L595.428375,569.969124 C595.428375,570.631987 594.974085,571.206279 594.328365,571.357709 C592.93978,571.68914 591.614053,572.240574 590.391185,572.994867 C589.834036,573.340585 589.102601,573.260584 588.631168,572.786294 L587.728302,571.889142 L584.902561,574.714883 L585.802569,575.617749 C586.271145,576.086325 586.354003,576.814903 586.008286,577.377766 C585.253993,578.600635 584.702559,579.926362 584.373984,581.314946 C584.219697,581.95781 583.645406,582.414957 582.982542,582.414957 L581.713959,582.414957 L581.713959,586.414995 L582.982542,586.414995 C583.645406,586.414995 584.219697,586.869285 584.373984,587.515005 C584.702559,588.90359 585.253993,590.229317 586.008286,591.452186 C586.354003,592.015048 586.271145,592.743627 585.802569,593.212203 L584.902561,594.112211 L587.728302,596.940809 L588.631168,596.040801 C589.102601,595.572225 589.834036,595.492224 590.391185,595.835085 C591.614053,596.589378 592.93978,597.140811 594.328365,597.469386 C594.974085,597.623673 595.428375,598.197964 595.428375,598.857971 L595.428375,600.129411 L599.428413,600.129411 L599.428413,598.857971 C599.428413,598.197964 599.882704,597.623673 600.528424,597.469386 C601.917009,597.140811 603.242736,596.589378 604.465604,595.835085 C605.028467,595.492224 605.757045,595.572225 606.225621,596.040801 L607.128487,596.940809 L609.954228,594.112211 L609.05422,593.212203 C608.585644,592.743627 608.502786,592.015048 608.848503,591.452186 C609.602796,590.229317 610.15423,588.90359 610.482805,587.515005 C610.637092,586.869285 611.211383,586.414995 611.874246,586.414995 L613.14283,586.414995 Z M524.733416,579.506358 C533.047781,588.586444 546.270764,593.983638 560.285183,593.983638 C567.942399,593.983638 575.391042,592.380766 581.936818,589.369309 C581.92539,589.335023 581.905389,589.306451 581.893961,589.272165 L580.285374,589.272165 C579.496795,589.272165 578.856789,588.632159 578.856789,587.84358 L578.856789,580.986372 C578.856789,580.194936 579.496795,579.557787 580.285374,579.557787 L581.893961,579.557787 C582.185392,578.629206 582.559681,577.729198 583.011114,576.866332 L581.87396,575.726322 C581.313955,575.166316 581.313955,574.263451 581.87396,573.706302 L586.719721,568.857685 C587.276869,568.300537 588.182592,568.300537 588.73974,568.857685 L589.879751,569.997696 C590.459757,569.691978 591.074048,569.480548 591.685483,569.249117 C587.799731,563.600492 581.411099,560.12903 574.571034,560.12903 L545.999333,560.12903 C536.739245,560.12903 528.467737,566.446233 525.887713,575.492034 L524.733416,579.506358 Z M518.993361,568.637683 C520.021942,569.671978 521.953389,570.943419 523.416261,571.906285 C523.61912,572.040572 523.799121,572.160573 523.990552,572.286289 C527.610586,563.337632 536.319241,557.27186 545.999333,557.27186 L574.571034,557.27186 C581.77396,557.27186 588.554024,560.646178 593.022638,566.23766 C593.279783,565.997657 593.619787,565.84337 593.99979,565.84337 L600.84557,565.84337 C599.282698,560.223317 595.016943,554.41469 590.828332,554.41469 L586.548291,554.41469 C586.365432,554.420404 586.18543,554.443262 585.999714,554.443262 C581.35967,554.443262 576.996771,552.37467 574.025314,548.854637 C570.336708,552.057525 565.539519,554.008972 560.285183,554.008972 C555.02799,554.008972 550.230802,552.057525 546.542195,548.854637 C543.565024,552.35467 539.204982,554.41469 534.570653,554.41469 L528.856312,554.41469 C524.496271,554.41469 520.979094,560.620463 519.556224,566.386233 L518.993361,568.637683 Z M521.713387,538.700254 C521.713387,545.788893 527.482014,551.55752 534.570653,551.55752 C538.439261,551.55752 542.067867,549.80036 544.510747,546.826046 C541.265002,543.128868 539.279269,538.297393 539.279269,533.005914 C539.279269,530.968752 539.587843,529.005876 540.127848,527.143001 C538.393546,526.297279 536.533528,525.842989 534.570653,525.842989 C527.482014,525.842989 521.713387,531.608758 521.713387,538.700254 Z M560.285183,514.85717 C550.279374,514.85717 542.136439,523.000105 542.136439,533.005914 C542.136439,543.011724 550.279374,551.151802 560.285183,551.151802 C570.290993,551.151802 578.433928,543.011724 578.433928,533.005914 C578.433928,523.000105 570.290993,514.85717 560.285183,514.85717 Z M585.999714,525.871561 C584.056838,525.871561 582.165392,526.337279 580.45109,527.177287 C580.985381,529.028734 581.291098,530.983038 581.291098,533.005914 C581.291098,538.300251 579.302507,543.131725 576.059619,546.831761 C578.471071,549.788932 582.056819,551.546091 585.893999,551.580377 C585.931142,551.57752 585.959714,551.55752 585.999714,551.55752 L586.27686,551.55752 C593.234069,551.40609 598.856979,545.723179 598.856979,538.728826 C598.856979,531.63733 593.088353,525.871561 585.999714,525.871561 Z M614.571415,579.557787 C615.359994,579.557787 616,580.194936 616,580.986372 L616,587.84358 C616,588.632159 615.359994,589.272165 614.571415,589.272165 L612.962828,589.272165 C612.671397,590.197888 612.297108,591.100754 611.845675,591.960762 L612.982828,593.10363 C613.542834,593.660778 613.542834,594.566501 612.982828,595.123649 L608.137068,599.96941 C607.57992,600.526558 606.674197,600.526558 606.117049,599.96941 L604.977038,598.832256 C604.114172,599.283689 603.211307,599.657978 602.285584,599.946552 L602.285584,601.557996 C602.285584,602.346575 601.648435,602.986581 600.856999,602.986581 L593.99979,602.986581 C593.208354,602.986581 592.571205,602.346575 592.571205,601.557996 L592.571205,599.946552 C591.645482,599.657978 590.742616,599.283689 589.879751,598.832256 L588.73974,599.96941 C588.182592,600.526558 587.276869,600.526558 586.719721,599.96941 L581.87396,595.123649 C581.313955,594.566501 581.313955,593.660778 581.87396,593.10363 L582.908256,592.066477 C576.045334,595.180793 568.268117,596.840809 560.285183,596.840809 C545.165039,596.840809 530.879189,590.85218 522.067676,580.814942 C521.747673,580.449224 521.636244,579.943505 521.770531,579.474929 L523.0334,575.083458 C522.667682,574.834885 522.273392,574.572025 521.844817,574.292022 C519.759083,572.920581 517.396203,571.363423 516.284764,569.869123 C516.027619,569.526263 515.939046,569.086258 516.041905,568.669111 L516.781912,565.697655 C518.161925,560.111887 521.393384,553.737541 526.270573,552.017524 C521.827674,549.237498 518.856217,544.314594 518.856217,538.700254 C518.856217,530.037315 525.907713,522.985819 534.570653,522.985819 C536.839246,522.985819 539.067838,523.50011 541.119286,524.451547 C544.402175,517.122906 551.750816,512 560.285183,512 C568.830979,512 576.185335,517.137192 579.465366,524.477262 C581.499671,523.528681 583.72255,523.014391 585.999714,523.014391 C594.662654,523.014391 601.71415,530.063029 601.71415,538.728826 C601.71415,544.471738 598.605549,549.491786 593.991219,552.234669 C598.571262,554.177545 602.382727,560.0176 603.788455,565.700512 L604.528462,568.669111 C604.622749,569.037686 604.539891,569.414833 604.34846,569.737693 C604.554177,569.83198 604.774179,569.89198 604.977038,569.997696 L606.117049,568.857685 C606.674197,568.300537 607.57992,568.300537 608.137068,568.857685 L612.982828,573.706302 C613.542834,574.263451 613.542834,575.166316 612.982828,575.726322 L611.845675,576.866332 C612.297108,577.729198 612.671397,578.629206 612.962828,579.557787 L614.571415,579.557787 Z" id="icon-section-hr"></path>
        </g>
    </g>
</svg>