<?xml version="1.0" encoding="UTF-8"?>
<svg width="90px" height="82px" viewBox="0 0 90 82" version="1.1" xmlns="http://www.w3.org/2000/svg" xmlns:xlink="http://www.w3.org/1999/xlink">
    <!-- Generator: Sketch 53.2 (72643) - https://sketchapp.com -->
    <title>icon-section-reporting</title>
    <desc>Created with Sketch.</desc>
    <g id="Features" stroke="none" stroke-width="1" fill="none" fill-rule="evenodd">
        <g id="Desktop-HD---Features---HR" transform="translate(-675.000000, -898.000000)" fill="#505050">
            <path d="M748.531603,906.368317 L761.234081,906.368317 C760.457603,903.580055 757.895224,901.529446 754.866959,901.529446 C754.185776,901.529446 753.536358,901.663565 752.915176,901.857685 C752.798704,901.892979 752.682232,901.921215 752.572819,901.963568 C751.990461,902.178864 751.453985,902.471809 750.963392,902.835342 C750.868097,902.90946 750.779861,902.987108 750.684566,903.061226 C750.21162,903.460054 749.773968,903.901234 749.421024,904.409475 C749.410435,904.423592 749.399847,904.430651 749.392788,904.444769 C749.043373,904.963598 748.792782,905.549486 748.602192,906.153021 C748.577486,906.227139 748.55278,906.294199 748.531603,906.368317 Z M682.294483,971.264248 C683.070961,974.05251 685.63334,976.103119 688.661605,976.103119 L730.467897,976.103119 C729.303179,974.751341 728.477289,973.092501 728.156109,971.264248 L682.294483,971.264248 Z M754.866959,898 C760.454073,898 765,902.545927 765,908.133041 C765,909.107168 764.209404,909.897764 763.235277,909.897764 L748.263365,909.897764 L748.263365,969.499525 C748.263365,975.086638 743.717438,979.632565 738.130325,979.632565 L688.661605,979.632565 C683.074491,979.632565 678.528564,975.086638 678.528564,969.499525 C678.528564,968.521868 679.31916,967.734801 680.293287,967.734801 L686.896881,967.734801 L686.896881,946.395769 C686.896881,945.418112 687.687477,944.631045 688.661605,944.631045 C689.635732,944.631045 690.426328,945.418112 690.426328,946.395769 L690.426328,967.734801 L729.765537,967.734801 C730.739664,967.734801 731.53026,968.521868 731.53026,969.499525 C731.53026,973.138384 734.487936,976.103119 738.130325,976.103119 C741.769184,976.103119 744.733919,973.138384 744.733919,969.499525 L744.733919,908.133041 C744.733919,907.465975 744.804508,906.816557 744.928039,906.184786 C744.970392,905.976549 745.04804,905.782429 745.097452,905.577721 C745.210394,905.164776 745.319807,904.75536 745.478632,904.363592 C745.570398,904.134178 745.686869,903.92594 745.796282,903.707115 C745.962166,903.361229 746.135109,903.022402 746.339817,902.701223 C746.480995,902.482397 746.636291,902.284748 746.791586,902.076511 C746.929235,901.896509 747.038647,901.69886 747.186884,901.529446 L746.498642,901.529446 L697.029922,901.529446 C693.391063,901.529446 690.426328,904.494181 690.426328,908.133041 L690.426328,928.455593 C690.426328,929.42972 689.635732,930.220316 688.661605,930.220316 C687.687477,930.220316 686.896881,929.42972 686.896881,928.455593 L686.896881,908.133041 C686.896881,902.545927 691.442808,898 697.029922,898 L746.498642,898 L754.866959,898 Z M707.281199,936.761439 L699.707007,929.187247 L678.0115,950.879224 C677.665614,951.22511 677.213845,951.394523 676.765606,951.394523 C676.313836,951.394523 675.862067,951.22511 675.516182,950.879224 C674.827939,950.190982 674.827939,949.072148 675.516182,948.383906 L698.457583,925.442504 C699.145825,924.754262 700.264659,924.754262 700.952901,925.442504 L708.530623,933.016696 L721.914283,919.629506 L712.060069,919.629506 C711.082413,919.629506 710.295346,918.84244 710.295346,917.864783 C710.295346,916.890656 711.082413,916.10006 712.060069,916.10006 L726.177855,916.10006 C727.151982,916.10006 727.942578,916.890656 727.942578,917.864783 L727.942578,931.982568 C727.942578,932.960225 727.151982,933.747292 726.177855,933.747292 C725.200198,933.747292 724.413132,932.960225 724.413132,931.982568 L724.413132,922.128354 L709.776517,936.761439 C709.088275,937.449681 707.969441,937.449681 707.281199,936.761439 Z" id="icon-section-reporting"></path>
        </g>
    </g>
</svg>