<?xml version="1.0" encoding="UTF-8"?>
<svg width="89px" height="89px" viewBox="0 0 89 89" version="1.1" xmlns="http://www.w3.org/2000/svg" xmlns:xlink="http://www.w3.org/1999/xlink">
    <!-- Generator: Sketch 53.2 (72643) - https://sketchapp.com -->
    <title>icon-section-dna</title>
    <desc>Created with Sketch.</desc>
    <g id="Features" stroke="none" stroke-width="1" fill="none" fill-rule="evenodd">
        <g id="Artboard" transform="translate(-6.000000, -306.000000)" fill="#505050">
            <path d="M60.0391829,330.220428 L59.4421098,327.632379 C58.0833293,321.756038 59.8196707,315.701892 64.0847927,311.43677 L69.0435732,306.482379 C69.688939,305.837014 70.7294268,305.841404 71.3704024,306.482379 C72.0135732,307.12555 72.0135732,308.166038 71.3704024,308.809209 L66.411622,313.765794 C62.9565,317.220916 61.5472317,322.127014 62.6469878,326.890428 L63.2462561,329.478477 C63.4525976,330.363111 62.8994268,331.24994 62.0125976,331.454087 C61.8896707,331.482623 61.7645488,331.495794 61.6394268,331.495794 C60.8930854,331.495794 60.2147927,330.982136 60.0391829,330.220428 Z M93.6133537,328.724014 C94.2565244,329.367184 94.2565244,330.409867 93.6133537,331.053038 L89.4645732,335.201818 C89.4579878,335.208404 89.4557927,335.219379 89.4492073,335.22816 C89.4404268,335.23694 89.4294512,335.239136 89.4228659,335.245721 L88.6567683,336.009623 C85.3465244,339.319867 80.9584756,341.106697 76.4145732,341.106697 C75.1018902,341.106697 73.7782317,340.957428 72.4611585,340.654501 L62.8838415,338.444014 L53.3065244,336.233526 C48.7209146,335.173282 44.0101829,336.461818 40.5814024,339.64694 L60.4494512,359.510599 C62.0475,357.791818 63.1670122,355.754745 63.7487195,353.561818 L50.8018902,340.617184 C50.1587195,339.974014 50.1587195,338.931331 50.8018902,338.28816 C51.445061,337.644989 52.4877439,337.644989 53.1309146,338.28816 L64.1855488,349.344989 C64.1460366,348.493282 64.0582317,347.639379 63.8606707,346.787672 L63.0309146,343.187672 C62.8267683,342.303038 63.379939,341.418404 64.2645732,341.214258 C65.1689634,340.999136 66.0360366,341.563282 66.2379878,342.450111 L67.0677439,346.050111 C68.4243293,351.924258 66.6879878,357.978404 62.425061,362.241331 L62.2406707,362.425721 C62.0409146,362.623282 61.8257927,362.798892 61.6194512,362.987672 C61.615061,362.992062 61.615061,362.996453 61.6106707,363.000843 C61.6040854,363.007428 61.5953049,363.009623 61.5887195,363.014014 C58.3662805,365.933526 54.2592073,367.520599 50.0006707,367.520599 C48.6879878,367.520599 47.3643293,367.371331 46.0472561,367.068404 L36.469939,364.857916 L26.8904268,362.647428 C26.0453049,362.452062 25.1957927,362.364258 24.3484756,362.32694 L34.3494512,372.327916 C34.992622,372.971087 34.992622,374.01377 34.3494512,374.65694 C34.0267683,374.977428 33.6075,375.139867 33.1860366,375.139867 C32.762378,375.139867 32.3431098,374.977428 32.0204268,374.65694 L20.125061,362.759379 C17.929939,363.341087 15.8906707,364.458404 14.1675,366.058648 L30.7604268,382.649379 C31.4035976,383.29255 31.4035976,384.335233 30.7604268,384.978404 C30.439939,385.298892 30.0184756,385.461331 29.5970122,385.461331 C29.1755488,385.461331 28.7540854,385.298892 28.4335976,384.978404 L11.8143293,368.363526 L8.80920732,371.370843 C8.48871951,371.691331 8.0672561,371.851575 7.64579268,371.851575 C7.22432927,371.851575 6.80286585,371.691331 6.48237805,371.370843 C5.83920732,370.727672 5.83920732,369.684989 6.48237805,369.041818 L10.6289634,364.893038 C10.6355488,364.886453 10.6377439,364.875477 10.6465244,364.866697 C10.6553049,364.857916 10.6662805,364.855721 10.6728659,364.849136 L11.4367683,364.083038 C15.7040854,359.817916 21.7604268,358.08377 27.632378,359.440355 L37.2118902,361.650843 L46.7892073,363.861331 C50.7162805,364.761331 54.7377439,363.940355 57.9711585,361.690355 L38.4060366,342.123038 C36.992378,344.14694 36.1538415,346.47816 35.9453049,348.910355 L46.512622,359.477672 C47.1557927,360.120843 47.1557927,361.161331 46.512622,361.804501 C46.189939,362.127184 45.7706707,362.287428 45.3492073,362.287428 C44.9255488,362.287428 44.5062805,362.127184 44.1835976,361.804501 L36.3996951,354.018404 L36.7948171,355.739379 C37.0011585,356.626209 36.4479878,357.508648 35.5633537,357.712794 C35.4382317,357.743526 35.3131098,357.756697 35.1901829,357.756697 C34.4416463,357.756697 33.7633537,357.240843 33.5877439,356.481331 L33.0257927,354.04694 C31.7416463,348.488892 33.2562805,342.790355 37.0296951,338.580111 C37.0538415,338.551575 37.0648171,338.512062 37.0933537,338.483526 C37.1087195,338.46816 37.1306707,338.46377 37.1438415,338.450599 C37.3216463,338.255233 37.4818902,338.042306 37.6706707,337.853526 L37.855061,337.669136 C42.1179878,333.404014 48.1721341,331.669867 54.0484756,333.026453 L63.6257927,335.23694 L73.2031098,337.447428 C74.0482317,337.640599 74.8977439,337.728404 75.7428659,337.765721 L65.7462805,327.764745 C65.1031098,327.12377 65.1031098,326.081087 65.7462805,325.437916 C66.3894512,324.794745 67.429939,324.794745 68.0731098,325.437916 L79.9640854,337.331087 C82.1592073,336.751575 84.205061,335.632062 85.9282317,334.036209 L69.3331098,317.443282 C68.689939,316.800111 68.689939,315.759623 69.3331098,315.116453 C69.9762805,314.473282 71.0189634,314.473282 71.6621341,315.116453 L88.2792073,331.731331 L91.2843293,328.724014 C91.9275,328.080843 92.9701829,328.080843 93.6133537,328.724014 Z M39.8607439,369.029526 L40.6531829,372.460501 C42.0097683,378.339038 40.2734268,384.393184 36.0105,388.656111 L31.0517195,393.612697 C30.7312317,393.935379 30.3075732,394.095623 29.8883049,394.095623 C29.4668415,394.095623 29.045378,393.935379 28.7248902,393.612697 C28.0817195,392.969526 28.0817195,391.929038 28.7248902,391.285867 L33.6836707,386.329282 C37.1387927,382.87416 38.5458659,377.965867 37.4461098,373.202453 L36.6536707,369.771477 C36.4473293,368.886843 37.0005,368.000014 37.8873293,367.795867 C38.7544024,367.585136 39.6544024,368.142697 39.8607439,369.029526 Z" id="icon-section-dna"></path>
        </g>
    </g>
</svg>