<?xml version="1.0" encoding="UTF-8"?>
<svg width="96px" height="85px" viewBox="0 0 96 85" version="1.1" xmlns="http://www.w3.org/2000/svg" xmlns:xlink="http://www.w3.org/1999/xlink">
    <!-- Generator: Sketch 53.2 (72643) - https://sketchapp.com -->
    <title>icon-section-facilities</title>
    <desc>Created with Sketch.</desc>
    <g id="Features" stroke="none" stroke-width="1" fill="none" fill-rule="evenodd">
        <g id="Desktop-HD---Features---ESM" transform="translate(-838.000000, -515.000000)" fill="#505050">
            <path d="M915.461676,587.071111 C918.607487,587.071111 921.165775,584.512822 921.165775,581.367011 C921.165775,578.2212 918.607487,575.662912 915.461676,575.662912 C912.315865,575.662912 909.757576,578.2212 909.757576,581.367011 C909.757576,584.512822 912.315865,587.071111 915.461676,587.071111 Z M915.461676,572.810862 C920.178966,572.810862 924.017825,576.649721 924.017825,581.367011 C924.017825,586.084302 920.178966,589.923161 915.461676,589.923161 C910.744385,589.923161 906.905526,586.084302 906.905526,581.367011 C906.905526,576.649721 910.744385,572.810862 915.461676,572.810862 Z M931.14795,583.364017 L931.14795,579.371147 L929.88164,579.371147 C929.219964,579.371147 928.646702,578.914819 928.492692,578.273108 C928.164706,576.887011 927.61426,575.56366 926.861319,574.342983 C926.516221,573.781129 926.59893,573.053856 927.066667,572.58612 L927.965062,571.684872 L925.144385,568.864195 L924.243137,569.759739 C923.772549,570.233179 923.045276,570.313036 922.486275,569.967938 C921.265597,569.214997 919.942246,568.664551 918.55615,568.333714 C917.911586,568.182555 917.458111,567.609293 917.458111,566.947617 L917.458111,565.681307 L913.465241,565.681307 L913.465241,566.947617 C913.465241,567.609293 913.011765,568.182555 912.367201,568.333714 C910.981105,568.664551 909.657754,569.214997 908.437077,569.967938 C907.880927,570.313036 907.153654,570.233179 906.680214,569.759739 L905.778966,568.864195 L902.958289,571.684872 L903.856684,572.58612 C903.862389,572.591824 903.859537,572.597528 903.865241,572.603232 C904.081996,572.817136 904.187522,573.088081 904.233155,573.367582 C904.238859,573.404658 904.250267,573.436031 904.253119,573.470256 C904.284492,573.764017 904.221747,574.04637 904.070588,574.308758 C904.064884,574.320166 904.067736,574.331575 904.062032,574.342983 C903.309091,575.56366 902.758645,576.887011 902.43066,578.273108 C902.276649,578.914819 901.703387,579.371147 901.041711,579.371147 L899.775401,579.371147 L899.775401,583.364017 L901.041711,583.364017 C901.703387,583.364017 902.276649,583.817493 902.43066,584.462056 C902.758645,585.848152 903.309091,587.171503 904.062032,588.392181 C904.40713,588.954035 904.324421,589.681307 903.856684,590.149043 L902.958289,591.047439 L905.778966,593.870969 L906.680214,592.972573 C907.153654,592.504837 907.880927,592.424979 908.437077,592.767225 C909.657754,593.520166 910.981105,594.070612 912.367201,594.398598 C913.011765,594.552608 913.465241,595.125871 913.465241,595.784694 L913.465241,597.053856 L917.458111,597.053856 L917.458111,595.784694 C917.458111,595.125871 917.911586,594.552608 918.55615,594.398598 C919.942246,594.070612 921.265597,593.520166 922.486275,592.767225 C923.045276,592.424979 923.772549,592.504837 924.243137,592.972573 L925.144385,593.870969 L927.965062,591.047439 L927.066667,590.149043 C926.59893,589.681307 926.516221,588.954035 926.861319,588.392181 C927.61426,587.171503 928.164706,585.848152 928.492692,584.462056 C928.646702,583.817493 929.219964,583.364017 929.88164,583.364017 L931.14795,583.364017 Z M882.663102,567.107332 C883.042424,567.107332 883.404635,567.258491 883.672727,567.523731 L896.923351,580.777207 L896.923351,577.945122 C896.923351,577.739774 896.968984,577.548687 897.045989,577.37186 L885.649198,565.975068 C885.093048,565.418919 885.093048,564.517671 885.649198,563.958669 C886.205348,563.402519 887.109447,563.402519 887.665597,563.958669 L900.034938,576.32801 C900.311586,575.472395 900.65098,574.636744 901.06738,573.83817 L889.21426,561.982199 C888.946168,561.714106 888.795009,561.351895 888.795009,560.972573 L888.795009,555.006084 L888.196078,554.407154 L884.200357,558.405728 C884.186096,558.419988 884.183244,558.4371 884.168984,558.451361 L880.136185,562.484159 C880.124777,562.495567 880.107665,562.49842 880.099109,562.509828 L876.097683,566.511254 L876.693761,567.107332 L882.663102,567.107332 Z M865.234225,572.397885 C864.971836,571.853143 865.085918,571.200024 865.510873,570.772216 L875.972193,560.339418 L873.944385,558.305906 L864.535472,567.717671 C864.255971,567.99432 863.890909,568.13407 863.525847,568.13407 C863.160784,568.13407 862.795722,567.99432 862.519073,567.717671 C861.960071,567.158669 861.960071,566.257421 862.519073,565.701272 L871.927986,556.289507 L869.920143,554.284516 L858.885561,565.319097 C858.517647,565.689863 857.975758,565.82391 857.470945,565.678455 C856.042068,565.250648 854.838503,565.053856 853.686275,565.053856 C846.607487,565.053856 840.85205,570.812145 840.85205,577.888081 C840.85205,582.214641 843.031016,586.19325 846.55615,588.549043 L846.55615,578.40145 C846.55615,577.890933 846.829947,577.420345 847.272014,577.16366 L852.976114,573.883803 C853.41533,573.632822 853.957219,573.632822 854.396435,573.883803 L860.100535,577.16366 C860.542602,577.420345 860.816399,577.890933 860.816399,578.40145 L860.816399,588.537635 C864.338681,586.16473 866.520499,582.188972 866.520499,577.888081 C866.520499,576.034248 866.086988,574.18612 865.234225,572.397885 Z M853.783244,534.516958 C854.088414,534.562591 854.373619,534.702341 854.590374,534.921949 L879.120856,559.449578 L881.137255,557.433179 L881.031729,557.327653 C881.020321,557.319097 881.008913,557.313393 880.997504,557.304837 C880.986096,557.29628 880.986096,557.28202 880.974688,557.273464 L877.004635,553.300559 C876.996078,553.292002 876.987522,553.292002 876.978966,553.283446 C876.97041,553.27489 876.97041,553.266334 876.961854,553.257778 L856.606774,532.90555 C856.390018,532.685942 856.247415,532.403589 856.204635,532.095567 L855.62852,528.062769 L847.080927,522.937635 L844.62246,525.39325 L849.753298,533.943696 L853.783244,534.516958 Z M889.545098,534.65956 L875.96934,548.235318 L877.988592,550.257421 L888.757932,539.488081 C889.314082,538.931931 890.21533,538.931931 890.774332,539.488081 C891.330481,540.047083 891.330481,540.94833 890.774332,541.50448 L880.004991,552.273821 L882.009982,554.27596 L895.00107,541.313393 C895.434581,540.885585 896.076292,540.771503 896.626738,541.033892 C898.375045,541.869543 900.208913,542.294498 902.085561,542.294498 C909.161497,542.294498 914.919786,536.536209 914.919786,529.460273 C914.919786,525.145122 912.737968,521.175068 909.215686,518.824979 L909.215686,528.946904 C909.215686,529.457421 908.944742,529.925158 908.505526,530.181842 L902.801426,533.49022 C902.353654,533.746904 901.814617,533.746904 901.369697,533.49022 L895.665597,530.181842 C895.223529,529.925158 894.955437,529.457421 894.955437,528.946904 L894.955437,518.824979 C891.430303,521.17792 889.251337,525.147974 889.251337,529.460273 C889.251337,530.65243 889.462389,531.87596 889.893048,533.210719 C890.058467,533.721236 889.924421,534.280238 889.545098,534.65956 Z M932.573975,576.519097 C933.361141,576.519097 934,577.155104 934,577.945122 L934,584.790042 C934,585.577207 933.361141,586.216067 932.573975,586.216067 L930.968271,586.216067 C930.677362,587.140131 930.303743,588.041379 929.853119,588.899846 L930.988235,590.040666 C931.547237,590.596815 931.547237,591.500915 930.988235,592.057065 L926.151159,596.894141 C925.595009,597.450291 924.690909,597.450291 924.134759,596.894141 L922.996791,595.759026 C922.135472,596.209649 921.234225,596.583268 920.31016,596.871325 L920.31016,598.479881 C920.31016,599.267047 919.674153,599.905906 918.884135,599.905906 L912.039216,599.905906 C911.249198,599.905906 910.613191,599.267047 910.613191,598.479881 L910.613191,596.871325 C909.689127,596.583268 908.787879,596.209649 907.92656,595.759026 L906.788592,596.894141 C906.232442,597.450291 905.328342,597.450291 904.772193,596.894141 L899.935116,592.057065 C899.376114,591.500915 899.376114,590.596815 899.935116,590.040666 L901.041711,588.928366 L898.323708,586.210362 C897.559358,586.196102 896.943316,585.580059 896.929055,584.81571 L882.072727,569.959382 L876.103387,569.959382 C875.724064,569.959382 875.361854,569.808223 875.096613,569.540131 L873.071658,567.515175 C873.026025,567.472395 873.006061,567.412502 872.971836,567.366869 L868.220321,572.104124 C868.98467,573.989329 869.372549,575.931575 869.372549,577.888081 C869.372549,584.082733 865.681996,589.721236 859.96934,592.253856 C859.783957,592.336566 859.584314,592.376494 859.390374,592.376494 C859.116578,592.376494 858.845633,592.299489 858.611765,592.145478 C858.209626,591.88309 857.964349,591.432466 857.964349,590.950469 L857.964349,579.225692 L853.686275,576.767225 L849.4082,579.225692 L849.4082,590.950469 C849.4082,591.432466 849.165775,591.880238 848.760784,592.145478 C848.361497,592.407867 847.845276,592.450648 847.411765,592.256708 C841.693405,589.752608 838,584.114106 838,577.888081 C838,569.240666 845.038859,562.201806 853.686275,562.201806 C854.884135,562.201806 856.099109,562.367225 857.456684,562.715175 L867.903743,552.268117 L852.910517,537.27489 L848.678075,536.670256 C848.253119,536.60751 847.876649,536.362234 847.657041,535.991468 L841.604991,525.906619 C841.265597,525.344765 841.356863,524.626049 841.818895,524.164017 L845.854545,520.131218 C846.31943,519.666334 847.04385,519.583625 847.594296,519.917314 L857.676292,525.966512 C858.047059,526.18612 858.295187,526.562591 858.357932,526.987546 L858.959715,531.225692 L873.952941,546.218919 L886.926916,533.244944 C886.57041,531.938705 886.399287,530.689507 886.399287,529.460273 C886.399287,523.248509 890.08984,517.618562 895.8082,515.120166 C896.253119,514.929079 896.757932,514.97186 897.160071,515.234248 C897.565062,515.496637 897.807487,515.944409 897.807487,516.426405 L897.807487,528.125514 L902.085561,530.606797 L906.363636,528.125514 L906.363636,516.426405 C906.363636,515.944409 906.606061,515.496637 907.0082,515.234248 C907.410339,514.969008 907.915152,514.926227 908.360071,515.120166 C914.078431,517.618562 917.771836,523.248509 917.771836,529.460273 C917.771836,538.107689 910.732977,545.146548 902.085561,545.146548 C900.114795,545.146548 898.181105,544.767225 896.327273,544.017136 L889.051693,551.278455 C889.10303,551.318384 889.160071,551.338348 889.205704,551.381129 L891.23066,553.406084 C891.498752,553.674177 891.647059,554.036387 891.647059,554.41571 L891.647059,560.382199 L900.936185,569.674177 L904.772193,565.83817 C905.328342,565.28202 906.232442,565.28202 906.788592,565.83817 L907.92656,566.976138 C908.787879,566.525514 909.689127,566.151895 910.613191,565.860986 L910.613191,564.255282 C910.613191,563.465264 911.249198,562.829257 912.039216,562.829257 L918.884135,562.829257 C919.674153,562.829257 920.31016,563.465264 920.31016,564.255282 L920.31016,565.860986 C921.234225,566.151895 922.135472,566.525514 922.996791,566.976138 L924.134759,565.83817 C924.690909,565.28202 925.595009,565.28202 926.151159,565.83817 L930.988235,570.678099 C931.547237,571.234248 931.547237,572.135496 930.988235,572.694498 L929.853119,573.832466 C930.303743,574.693785 930.677362,575.592181 930.968271,576.519097 L932.573975,576.519097 Z" id="icon-section-facilities"></path>
        </g>
    </g>
</svg>