<?xml version="1.0" encoding="UTF-8"?>
<svg width="90px" height="74px" viewBox="0 0 90 74" version="1.1" xmlns="http://www.w3.org/2000/svg" xmlns:xlink="http://www.w3.org/1999/xlink">
    <!-- Generator: Sketch 53.2 (72643) - https://sketchapp.com -->
    <title>icon-section-platform-white</title>
    <desc>Created with Sketch.</desc>
    <g id="Features" stroke="none" stroke-width="1" fill="none" fill-rule="evenodd">
        <g id="Artboard-Copy" transform="translate(-806.000000, -113.000000)" fill="#FFFFFF">
            <path d="M809,171.203 L893,171.203 L893,116.003 L809,116.003 L809,171.203 Z M894.5,113 C895.328,113 896,113.672 896,114.5 L896,172.703 C896,173.531 895.328,174.203 894.5,174.203 L852.44,174.203 C852.458,174.302 852.5,174.395 852.5,174.5 L852.5,183.902 L873.401,183.902 C874.229,183.902 874.901,184.574 874.901,185.402 C874.901,186.23 874.229,186.902 873.401,186.902 L828.599,186.902 C827.771,186.902 827.099,186.23 827.099,185.402 C827.099,184.574 827.771,183.902 828.599,183.902 L849.5,183.902 L849.5,174.5 C849.5,174.395 849.542,174.302 849.56,174.203 L807.5,174.203 C806.672,174.203 806,173.531 806,172.703 L806,114.5 C806,113.672 806.672,113 807.5,113 L894.5,113 Z M814.994,136.5143 C814.631,136.5143 814.265,136.3823 813.977,136.1153 C813.368,135.5543 813.329,134.6033 813.893,133.9973 L826.103,120.7703 C826.67,120.1613 827.615,120.1223 828.221,120.6863 C828.83,121.2473 828.869,122.1983 828.305,122.8043 L816.095,136.0313 C815.801,136.3523 815.399,136.5143 814.994,136.5143 Z M815.3486,127.652 C814.9646,127.652 814.5806,127.505 814.2866,127.214 C813.7016,126.626 813.7016,125.678 814.2866,125.09 L817.7876,121.589 C818.3756,121.004 819.3236,121.004 819.9116,121.589 C820.4966,122.177 820.4966,123.125 819.9116,123.713 L816.4106,127.214 C816.1166,127.505 815.7326,127.652 815.3486,127.652 Z M851,126.6764 L830.354,136.9994 L851,147.3254 L871.646,136.9994 L851,126.6764 Z M871.646,145.9994 L866,143.1764 L851.672,150.3434 C851.459,150.4484 851.228,150.4994 851,150.4994 C850.772,150.4994 850.541,150.4484 850.328,150.3434 L836,143.1764 L830.354,145.9994 L851,156.3254 L871.646,145.9994 Z M871.646,154.9994 L866,152.1764 L851.672,159.3434 C851.459,159.4484 851.228,159.4994 851,159.4994 C850.772,159.4994 850.541,159.4484 850.328,159.3434 L836,152.1764 L830.354,154.9994 L851,165.3254 L871.646,154.9994 Z M825.5,136.9994 C825.5,136.4324 825.821,135.9134 826.328,135.6584 L850.328,123.6584 C850.751,123.4484 851.249,123.4484 851.672,123.6584 L875.672,135.6584 C876.179,135.9134 876.5,136.4324 876.5,136.9994 C876.5,137.5694 876.179,138.0884 875.672,138.3434 L869.354,141.4994 L875.672,144.6584 C876.179,144.9134 876.5,145.4324 876.5,145.9994 C876.5,146.5694 876.179,147.0884 875.672,147.3434 L869.354,150.4994 L875.672,153.6584 C876.179,153.9134 876.5,154.4324 876.5,154.9994 C876.5,155.5694 876.179,156.0884 875.672,156.3434 L851.672,168.3434 C851.459,168.4484 851.228,168.4994 851,168.4994 C850.772,168.4994 850.541,168.4484 850.328,168.3434 L826.328,156.3434 C825.821,156.0884 825.5,155.5694 825.5,154.9994 C825.5,154.4324 825.821,153.9134 826.328,153.6584 L832.646,150.4994 L826.328,147.3434 C825.821,147.0884 825.5,146.5694 825.5,145.9994 C825.5,145.4324 825.821,144.9134 826.328,144.6584 L832.646,141.4994 L826.328,138.3434 C825.821,138.0884 825.5,137.5694 825.5,136.9994 Z" id="icon-section-platform"></path>
        </g>
    </g>
</svg>