<?xml version="1.0" encoding="UTF-8"?>
<svg width="85px" height="97px" viewBox="0 0 85 97" version="1.1" xmlns="http://www.w3.org/2000/svg" xmlns:xlink="http://www.w3.org/1999/xlink">
    <!-- Generator: Sketch 53.2 (72643) - https://sketchapp.com -->
    <title>icon-section-info-white</title>
    <desc>Created with Sketch.</desc>
    <g id="Features" stroke="none" stroke-width="1" fill="none" fill-rule="evenodd">
        <g id="Artboard-Copy" transform="translate(-408.000000, -102.000000)" fill="#FFFFFF">
            <path d="M464.82375,164.8955 C471.13875,160.303 474.90875,152.9255 474.90875,145.158 C474.90875,131.7005 463.95875,120.7505 450.50125,120.7505 C437.04125,120.7505 426.09125,131.7005 426.09125,145.158 C426.09125,152.9255 429.86125,160.303 436.17625,164.8955 C436.43375,165.0805 436.60875,165.3605 436.66875,165.6705 L439.45875,180.138 L441.44125,180.138 L459.55875,180.138 L461.54375,180.138 L464.33125,165.6705 C464.39125,165.3605 464.56625,165.0805 464.82375,164.8955 Z M442.69375,192.213 L458.30875,192.213 L458.30875,182.638 L442.69375,182.638 L442.69375,192.213 Z M450.50125,118.2505 C465.33875,118.2505 477.40875,130.3205 477.40875,145.158 C477.40875,153.558 473.41375,161.5405 466.69375,166.6205 L463.80375,181.623 C463.68875,182.213 463.17375,182.638 462.57625,182.638 L460.80875,182.638 L460.80875,187.683 L464.08375,187.683 C464.77375,187.683 465.33375,188.243 465.33375,188.933 C465.33375,189.6255 464.77375,190.183 464.08375,190.183 L460.80875,190.183 L460.80875,193.463 C460.80875,194.153 460.24875,194.713 459.55875,194.713 L441.44125,194.713 C440.75125,194.713 440.19125,194.153 440.19125,193.463 L440.19125,190.183 L436.91625,190.183 C436.22625,190.183 435.66625,189.6255 435.66625,188.933 C435.66625,188.243 436.22625,187.683 436.91625,187.683 L440.19125,187.683 L440.19125,182.638 L438.42375,182.638 C437.82625,182.638 437.31125,182.213 437.19625,181.623 L434.30625,166.6205 C427.58625,161.5405 423.59125,153.558 423.59125,145.158 C423.59125,130.3205 435.66125,118.2505 450.50125,118.2505 Z M459.692,164.42675 C460.3695,164.55675 460.8145,165.21175 460.6845,165.88925 L460.062,169.12425 C459.947,169.72175 459.4245,170.13675 458.837,170.13675 C458.757,170.13675 458.6795,170.12925 458.5995,170.11425 C457.9195,169.98425 457.477,169.32675 457.607,168.64925 L458.2295,165.41925 C458.3595,164.73925 459.0245,164.29425 459.692,164.42675 Z M468.74225,147.359 C468.82475,146.6765 469.40975,146.189 470.13225,146.264 C470.81475,146.344 471.30475,146.9665 471.22725,147.6515 C471.12975,148.4715 470.98475,149.279 470.79475,150.074 C470.60475,150.8665 470.36725,151.644 470.08725,152.4065 C469.80725,153.164 469.47975,153.909 469.11225,154.6265 C468.74225,155.3515 468.33225,156.049 467.87725,156.724 C467.42725,157.3965 466.93225,158.044 466.39975,158.664 C466.15225,158.954 465.80225,159.1015 465.45225,159.1015 C465.16225,159.1015 464.87225,159.0015 464.63725,158.8015 C464.11225,158.3515 464.05225,157.5615 464.50225,157.039 C464.96975,156.4915 465.40475,155.9215 465.80225,155.329 C466.20225,154.734 466.56475,154.1215 466.88725,153.489 C467.20975,152.859 467.49725,152.2065 467.74475,151.539 C467.98975,150.8715 468.19725,150.189 468.36475,149.494 C468.52975,148.794 468.65975,148.0815 468.74225,147.359 Z M462.165,127.85925 C463.2725,128.60925 464.3125,129.46675 465.2525,130.40925 C466.205,131.36175 467.0625,132.40175 467.8025,133.49675 C468.56,134.61675 469.205,135.80925 469.7275,137.04175 C470.265,138.31675 470.675,139.63175 470.95,140.95925 C471.085,141.63675 470.6525,142.29675 469.975,142.43675 C469.89,142.45425 469.805,142.46175 469.72,142.46175 C469.14,142.46175 468.62,142.05425 468.4975,141.46175 C468.26,140.29675 467.9,139.13675 467.425,138.01425 C466.9675,136.93175 466.395,135.88175 465.7325,134.89675 C465.08,133.93175 464.3225,133.01675 463.4825,132.17675 C462.655,131.34675 461.74,130.59175 460.7625,129.92925 C459.7825,129.26425 458.7325,128.69425 457.6425,128.23425 C456.5375,127.76425 455.38,127.40425 454.1975,127.16425 C453.5225,127.02425 453.0875,126.36175 453.225,125.68675 C453.3625,125.00675 454.03,124.57425 454.7025,124.71175 C456.045,124.98925 457.3625,125.39925 458.6175,125.93175 C459.855,126.45425 461.05,127.10175 462.165,127.85925 Z M455.02875,195.75 C455.71875,195.75 456.27875,196.31 456.27875,197 C456.27875,197.69 455.71875,198.25 455.02875,198.25 L445.97125,198.25 C445.28125,198.25 444.72125,197.69 444.72125,197 C444.72125,196.31 445.28125,195.75 445.97125,195.75 L455.02875,195.75 Z M458.90325,148.94825 C459.13825,149.26825 459.20575,149.68075 459.08825,150.06075 L455.37325,161.95325 L455.37325,173.84075 C455.37325,174.53075 454.81325,175.09075 454.12325,175.09075 C453.43325,175.09075 452.87325,174.53075 452.87325,173.84075 L452.87325,161.76325 C452.87325,161.63575 452.89325,161.51075 452.92825,161.39075 L456.19575,150.93825 L444.80325,150.93825 L448.07075,161.39075 C448.10825,161.51075 448.12575,161.63575 448.12575,161.76325 L448.12575,173.84075 C448.12575,174.53075 447.56825,175.09075 446.87575,175.09075 C446.18575,175.09075 445.62575,174.53075 445.62575,173.84075 L445.62575,161.95325 L441.91075,150.06075 C441.79325,149.68075 441.86325,149.26825 442.09575,148.94825 C442.33325,148.62575 442.70575,148.43825 443.10575,148.43825 L457.89575,148.43825 C458.29325,148.43825 458.66575,148.62575 458.90325,148.94825 Z M450.5,112 C449.81,112 449.25,111.44 449.25,110.75 L449.25,103.25 C449.25,102.56 449.81,102 450.5,102 C451.19,102 451.75,102.56 451.75,103.25 L451.75,110.75 C451.75,111.44 451.19,112 450.5,112 Z M432.5435,115.8965 L428.7935,109.4015 C428.446,108.804 428.651,108.039 429.251,107.6965 C429.846,107.349 430.6135,107.5515 430.956,108.1515 L434.706,114.6465 C435.0535,115.244 434.8485,116.009 434.251,116.354 C434.0535,116.469 433.8385,116.5215 433.626,116.5215 C433.196,116.5215 432.7735,116.2965 432.5435,115.8965 Z M421.8965,126.5435 C422.494,126.8885 422.699,127.651 422.354,128.251 C422.124,128.651 421.7015,128.876 421.2715,128.876 C421.059,128.876 420.844,128.821 420.6465,128.706 L414.1515,124.956 C413.554,124.6135 413.349,123.8485 413.6965,123.251 C414.039,122.651 414.809,122.4485 415.4015,122.7935 L421.8965,126.5435 Z M418,144.5 C418,145.19 417.44,145.75 416.75,145.75 L409.25,145.75 C408.56,145.75 408,145.19 408,144.5 C408,143.81 408.56,143.25 409.25,143.25 L416.75,143.25 C417.44,143.25 418,143.81 418,144.5 Z M420.6465,160.2935 C421.244,159.9435 422.009,160.1485 422.354,160.751 C422.699,161.3485 422.494,162.1135 421.8965,162.456 L415.4015,166.206 C415.204,166.321 414.989,166.376 414.7765,166.376 C414.3465,166.376 413.9265,166.151 413.6965,165.751 C413.349,165.151 413.554,164.3885 414.1515,164.0435 L420.6465,160.2935 Z M486.84775,164.0435 C487.44525,164.3885 487.65025,165.151 487.30525,165.751 C487.07525,166.151 486.65275,166.376 486.22275,166.376 C486.01025,166.376 485.79525,166.321 485.59775,166.206 L479.10275,162.456 C478.50525,162.1135 478.30025,161.3485 478.64775,160.751 C478.99025,160.151 479.75775,159.9485 480.35275,160.2935 L486.84775,164.0435 Z M491.75,143.25 C492.44,143.25 493,143.81 493,144.5 C493,145.19 492.44,145.75 491.75,145.75 L484.25,145.75 C483.56,145.75 483,145.19 483,144.5 C483,143.81 483.56,143.25 484.25,143.25 L491.75,143.25 Z M479.7285,128.875 C479.2985,128.875 478.876,128.65 478.646,128.25 C478.301,127.6525 478.506,126.8875 479.1035,126.5425 L485.5985,122.7925 C486.1935,122.445 486.961,122.6525 487.3035,123.25 C487.651,123.8475 487.446,124.6125 486.8485,124.9575 L480.3535,128.7075 C480.156,128.8225 479.941,128.875 479.7285,128.875 Z M466.75,116.353 C466.1525,116.008 465.9475,115.2455 466.2925,114.6455 L470.0425,108.153 C470.385,107.553 471.155,107.3505 471.75,107.6955 C472.3475,108.0405 472.5525,108.803 472.2075,109.403 L468.4575,115.8955 C468.2275,116.298 467.805,116.5205 467.375,116.5205 C467.1625,116.5205 466.9475,116.468 466.75,116.353 Z" id="icon-section-info"></path>
        </g>
    </g>
</svg>