<?xml version="1.0" encoding="UTF-8"?>
<svg width="90px" height="85px" viewBox="0 0 90 85" version="1.1" xmlns="http://www.w3.org/2000/svg" xmlns:xlink="http://www.w3.org/1999/xlink">
    <!-- Generator: Sketch 53.2 (72643) - https://sketchapp.com -->
    <title>icon-section-provisioning</title>
    <desc>Created with Sketch.</desc>
    <g id="Features" stroke="none" stroke-width="1" fill="none" fill-rule="evenodd">
        <g id="Artboard" transform="translate(-405.000000, -306.000000)" fill="#505050">
            <path d="M493.5,316.5009 C494.328,316.5009 495,317.1729 495,318.0009 L495,376.2009 C495,377.0319 494.328,377.7009 493.5,377.7009 L451.437,377.7009 C451.461,377.8029 451.5,377.8959 451.5,378.0009 L451.5,387.4029 L472.401,387.4029 C473.229,387.4029 473.901,388.0719 473.901,388.9029 C473.901,389.7309 473.229,390.4029 472.401,390.4029 L427.599,390.4029 C426.771,390.4029 426.099,389.7309 426.099,388.9029 C426.099,388.0719 426.771,387.4029 427.599,387.4029 L448.5,387.4029 L448.5,378.0009 C448.5,377.8959 448.539,377.8029 448.563,377.7009 L406.5,377.7009 C405.672,377.7009 405,377.0319 405,376.2009 L405,318.0009 C405,317.1729 405.672,316.5009 406.5,316.5009 L428.25,316.5009 C429.078,316.5009 429.75,317.1729 429.75,318.0009 C429.75,318.8289 429.078,319.5009 428.25,319.5009 L408,319.5009 L408,374.7009 L492,374.7009 L492,319.5009 L471.75,319.5009 C470.922,319.5009 470.25,318.8289 470.25,318.0009 C470.25,317.1729 470.922,316.5009 471.75,316.5009 L493.5,316.5009 Z M450,309.2325 L438.315,315.9765 L450,322.7235 L461.685,315.9765 L450,309.2325 Z M466.26,364.7265 L478.017,357.9345 L478.017,344.2725 L466.26,351.0585 L466.26,364.7265 Z M451.5,344.2695 L451.5,357.9345 L463.26,364.7265 L463.26,351.0585 L451.5,344.2695 Z M421.983,344.2725 L421.983,357.9345 L433.74,364.7265 L433.74,351.0585 L421.983,344.2725 Z M463.26,332.1945 L463.26,318.5295 L451.5,325.3185 L451.5,338.9865 L463.26,332.1945 Z M436.74,351.0585 L436.74,364.7265 L448.5,357.9345 L448.5,344.2695 L436.74,351.0585 Z M435.24,348.4635 L446.925,341.7165 L435.24,334.9725 L423.561,341.7165 L435.24,348.4635 Z M464.76,348.4635 L476.439,341.7165 L464.76,334.9725 L453.075,341.7165 L464.76,348.4635 Z M448.5,325.3185 L436.74,318.5295 L436.74,332.1945 L448.5,338.9865 L448.5,325.3185 Z M419.733,340.4625 L433.74,332.3775 L433.74,316.0215 C433.74,315.4845 434.028,314.9895 434.49,314.7225 L449.25,306.2025 C449.712,305.9325 450.288,305.9325 450.75,306.2025 L465.51,314.7225 C465.972,314.9895 466.26,315.4845 466.26,316.0215 L466.26,332.3775 L480.267,340.4625 C480.729,340.7295 481.017,341.2245 481.017,341.7615 L481.017,358.8015 C481.017,359.3385 480.729,359.8335 480.267,360.1005 L465.51,368.6235 C465.279,368.7585 465.018,368.8245 464.76,368.8245 C464.502,368.8245 464.241,368.7585 464.01,368.6235 L450,360.5355 L435.99,368.6235 C435.759,368.7585 435.498,368.8245 435.24,368.8245 C434.982,368.8245 434.721,368.7585 434.49,368.6235 L419.733,360.1005 C419.271,359.8335 418.983,359.3385 418.983,358.8015 L418.983,341.7615 C418.983,341.2245 419.271,340.7295 419.733,340.4625 Z" id="icon-section-provisioning"></path>
        </g>
    </g>
</svg>