<?xml version="1.0" encoding="UTF-8"?>
<svg width="85px" height="75px" viewBox="0 0 85 75" version="1.1" xmlns="http://www.w3.org/2000/svg" xmlns:xlink="http://www.w3.org/1999/xlink">
    <!-- Generator: Sketch 53.2 (72643) - https://sketchapp.com -->
    <title>icon-section-resource-white</title>
    <desc>Created with Sketch.</desc>
    <g id="Features" stroke="none" stroke-width="1" fill="none" fill-rule="evenodd">
        <g id="Artboard-Copy" transform="translate(-708.000000, -14.000000)" fill="#FFFFFF">
            <path d="M777.214286,78.1124194 C779.893,78.1124194 782.071429,75.9422581 782.071429,73.2737097 C782.071429,70.6051613 779.893,68.435 777.214286,68.435 C774.535571,68.435 772.357143,70.6051613 772.357143,73.2737097 C772.357143,75.9422581 774.535571,78.1124194 777.214286,78.1124194 Z M777.214286,66.0156452 C781.231143,66.0156452 784.5,69.2720968 784.5,73.2737097 C784.5,77.2753226 781.231143,80.5317742 777.214286,80.5317742 C773.197429,80.5317742 769.928571,77.2753226 769.928571,73.2737097 C769.928571,69.2720968 773.197429,66.0156452 777.214286,66.0156452 Z M790.571429,74.9677419 L790.571429,71.5806452 L789.493143,71.5806452 C788.929714,71.5806452 788.441571,71.1935484 788.310429,70.6491935 C788.031143,69.4733871 787.562429,68.3508065 786.921286,67.3153226 C786.627429,66.8387097 786.697857,66.2217742 787.096143,65.825 L787.861143,65.0604839 L785.459286,62.6677419 L784.691857,63.4274194 C784.293571,63.8290323 783.674286,63.8967742 783.195857,63.6040323 C782.156429,62.9653226 781.029571,62.4983871 779.849286,62.2177419 C779.300429,62.0895161 778.914286,61.6032258 778.914286,61.0419355 L778.914286,59.9677419 L775.514286,59.9677419 L775.514286,61.0419355 C775.514286,61.6032258 775.128143,62.0895161 774.579286,62.2177419 C773.399,62.4983871 772.272143,62.9653226 771.232714,63.6040323 C770.759143,63.8967742 770.137429,63.8290323 769.736714,63.4274194 L768.969286,62.6677419 L766.567429,65.0604839 L767.332429,65.825 C767.730714,66.2217742 767.801143,66.8387097 767.507286,67.3153226 C766.866143,68.3508065 766.397429,69.4733871 766.118143,70.6491935 C765.987,71.1935484 765.498857,71.5806452 764.935429,71.5806452 L763.857143,71.5806452 L763.857143,74.9677419 L764.935429,74.9677419 C765.498857,74.9677419 765.987,75.3524194 766.118143,75.8991935 C766.397429,77.075 766.866143,78.1975806 767.507286,79.2330645 C767.801143,79.7096774 767.730714,80.3266129 767.332429,80.7233871 L766.567429,81.4854839 L767.152714,82.0709677 C767.177,82.0903226 767.196429,82.1096774 767.218286,82.133871 L768.969286,83.8806452 L769.736714,83.1185484 C770.137429,82.7217742 770.759143,82.6540323 771.232714,82.9443548 C772.272143,83.5830645 773.399,84.05 774.579286,84.3282258 C775.128143,84.458871 775.514286,84.9451613 775.514286,85.5040323 L775.514286,86.5806452 L778.914286,86.5806452 L778.914286,85.5040323 C778.914286,84.9451613 779.300429,84.458871 779.849286,84.3282258 C781.029571,84.05 782.156429,83.5830645 783.195857,82.9443548 C783.674286,82.6540323 784.293571,82.7217742 784.691857,83.1185484 L785.459286,83.8806452 L787.861143,81.4854839 L787.096143,80.7233871 C786.697857,80.3266129 786.627429,79.7096774 786.921286,79.2330645 C787.562429,78.1975806 788.031143,77.075 788.310429,75.8991935 C788.441571,75.3524194 788.929714,74.9677419 789.493143,74.9677419 L790.571429,74.9677419 Z M710.428571,78.1129032 C710.428571,80.1137097 712.063,81.7419355 714.071429,81.7419355 L763.687143,81.7419355 C763.602143,81.3524194 763.689571,80.933871 763.993143,80.6314516 L764.959714,79.6637097 C764.576,78.9354839 764.257857,78.1709677 764.010143,77.3870968 L762.642857,77.3870968 C761.972571,77.3870968 761.428571,76.8451613 761.428571,76.1774194 L761.428571,70.3709677 C761.428571,69.7008065 761.972571,69.1612903 762.642857,69.1612903 L764.010143,69.1612903 C764.257857,68.375 764.576,67.6129032 764.959714,66.8822581 L763.993143,65.9169355 C763.517143,65.4427419 763.517143,64.6782258 763.993143,64.2064516 L768.112,60.1008065 C768.170286,60.0427419 768.248,60.0112903 768.316,59.9677419 L765.231714,59.9677419 C764.561429,59.9677419 764.017429,59.4258065 764.017429,58.7580645 C764.017429,58.0879032 764.561429,57.5483871 765.231714,57.5483871 L769.559429,57.5483871 C770.229714,57.5483871 770.773714,58.0879032 770.773714,58.7580645 C770.773714,59.4064516 770.256429,59.9290323 769.610429,59.9580645 C769.683286,60.0016129 769.765857,60.0379032 769.829,60.1008065 L770.798,61.066129 C771.531429,60.683871 772.298857,60.3669355 773.085714,60.1201613 L773.085714,58.7580645 C773.085714,58.0879032 773.627286,57.5483871 774.3,57.5483871 L780.128571,57.5483871 C780.407857,57.5483871 780.653143,57.6572581 780.857143,57.8145161 L780.857143,35.7741935 L710.428571,35.7741935 L710.428571,78.1129032 Z M714.071429,21.2580645 C712.063,21.2580645 710.428571,22.8862903 710.428571,24.8870968 L710.428571,33.3548387 L780.857143,33.3548387 L780.857143,24.8870968 C780.857143,22.8862903 779.222714,21.2580645 777.214286,21.2580645 L766.285714,21.2580645 L766.285714,24.8870968 C766.285714,25.5548387 765.741714,26.0967742 765.071429,26.0967742 C764.401143,26.0967742 763.857143,25.5548387 763.857143,24.8870968 L763.857143,21.2580645 L727.428571,21.2580645 L727.428571,24.8870968 C727.428571,25.5548387 726.884571,26.0967742 726.214286,26.0967742 C725.544,26.0967742 725,25.5548387 725,24.8870968 L725,21.2580645 L714.071429,21.2580645 Z M791.785714,69.1612903 C792.456,69.1612903 793,69.7008065 793,70.3709677 L793,76.1774194 C793,76.8451613 792.456,77.3870968 791.785714,77.3870968 L790.418429,77.3870968 C790.170714,78.1709677 789.852571,78.9354839 789.468857,79.6637097 L790.435429,80.6314516 C790.911429,81.1032258 790.911429,81.8701613 790.435429,82.3419355 L786.316571,86.4451613 C785.843,86.9169355 785.073143,86.9169355 784.599571,86.4451613 L783.630571,85.4822581 C782.897143,85.8645161 782.129714,86.1814516 781.342857,86.4258065 L781.342857,87.7903226 C781.342857,88.4580645 780.801286,89 780.128571,89 L774.3,89 C773.627286,89 773.085714,88.4580645 773.085714,87.7903226 L773.085714,86.4258065 C772.298857,86.1814516 771.531429,85.8645161 770.798,85.4822581 L769.829,86.4451613 C769.355429,86.9169355 768.585571,86.9169355 768.112,86.4451613 L765.819429,84.1612903 L714.071429,84.1612903 C710.722429,84.1612903 708,81.4491935 708,78.1129032 L708,24.8870968 C708,21.5508065 710.722429,18.8387097 714.071429,18.8387097 L725,18.8387097 L725,15.2096774 C725,14.5395161 725.544,14 726.214286,14 C726.884571,14 727.428571,14.5395161 727.428571,15.2096774 L727.428571,18.8387097 L763.857143,18.8387097 L763.857143,15.2096774 C763.857143,14.5395161 764.401143,14 765.071429,14 C765.741714,14 766.285714,14.5395161 766.285714,15.2096774 L766.285714,18.8387097 L777.214286,18.8387097 C780.563286,18.8387097 783.285714,21.5508065 783.285714,24.8870968 L783.285714,60.9233871 C783.397429,60.9790323 783.518857,61.0080645 783.630571,61.066129 L784.599571,60.1008065 C785.073143,59.6290323 785.843,59.6290323 786.316571,60.1008065 L790.435429,64.2064516 C790.911429,64.6782258 790.911429,65.4427419 790.435429,65.9169355 L789.468857,66.8822581 C789.852571,67.6129032 790.170714,68.375 790.418429,69.1612903 L791.785714,69.1612903 Z M725.844414,57.5479032 C726.5147,57.5479032 727.0587,58.0898387 727.0587,58.7575806 C727.0587,59.4253226 726.5147,59.9672581 725.844414,59.9672581 L721.519129,59.9672581 C720.846414,59.9672581 720.304843,59.4253226 720.304843,58.7575806 C720.304843,58.0898387 720.846414,57.5479032 721.519129,57.5479032 L725.844414,57.5479032 Z M725.844414,69.6446774 C726.5147,69.6446774 727.0587,70.1866129 727.0587,70.8543548 C727.0587,71.5220968 726.5147,72.0640323 725.844414,72.0640323 L721.519129,72.0640323 C720.846414,72.0640323 720.304843,71.5220968 720.304843,70.8543548 C720.304843,70.1866129 720.846414,69.6446774 721.519129,69.6446774 L725.844414,69.6446774 Z M740.415843,45.451129 C741.086129,45.451129 741.630129,45.9930645 741.630129,46.6608065 C741.630129,47.3285484 741.086129,47.8704839 740.415843,47.8704839 L736.090557,47.8704839 C735.417843,47.8704839 734.876271,47.3285484 734.876271,46.6608065 C734.876271,45.9930645 735.417843,45.451129 736.090557,45.451129 L740.415843,45.451129 Z M740.415843,57.5479032 C741.086129,57.5479032 741.630129,58.0898387 741.630129,58.7575806 C741.630129,59.4253226 741.086129,59.9672581 740.415843,59.9672581 L736.090557,59.9672581 C735.417843,59.9672581 734.876271,59.4253226 734.876271,58.7575806 C734.876271,58.0898387 735.417843,57.5479032 736.090557,57.5479032 L740.415843,57.5479032 Z M740.415843,69.6446774 C741.086129,69.6446774 741.630129,70.1866129 741.630129,70.8543548 C741.630129,71.5220968 741.086129,72.0640323 740.415843,72.0640323 L736.090557,72.0640323 C735.417843,72.0640323 734.876271,71.5220968 734.876271,70.8543548 C734.876271,70.1866129 735.417843,69.6446774 736.090557,69.6446774 L740.415843,69.6446774 Z M754.987271,45.451129 C755.657557,45.451129 756.201557,45.9930645 756.201557,46.6608065 C756.201557,47.3285484 755.657557,47.8704839 754.987271,47.8704839 L750.661986,47.8704839 C749.989271,47.8704839 749.4477,47.3285484 749.4477,46.6608065 C749.4477,45.9930645 749.989271,45.451129 750.661986,45.451129 L754.987271,45.451129 Z M754.987271,57.5479032 C755.657557,57.5479032 756.201557,58.0898387 756.201557,58.7575806 C756.201557,59.4253226 755.657557,59.9672581 754.987271,59.9672581 L750.661986,59.9672581 C749.989271,59.9672581 749.4477,59.4253226 749.4477,58.7575806 C749.4477,58.0898387 749.989271,57.5479032 750.661986,57.5479032 L754.987271,57.5479032 Z M754.987271,69.6446774 C755.657557,69.6446774 756.201557,70.1866129 756.201557,70.8543548 C756.201557,71.5220968 755.657557,72.0640323 754.987271,72.0640323 L750.661986,72.0640323 C749.989271,72.0640323 749.4477,71.5220968 749.4477,70.8543548 C749.4477,70.1866129 749.989271,69.6446774 750.661986,69.6446774 L754.987271,69.6446774 Z M765.232686,47.8704839 C764.5624,47.8704839 764.0184,47.3285484 764.0184,46.6608065 C764.0184,45.9930645 764.5624,45.451129 765.232686,45.451129 L769.557971,45.451129 C770.230686,45.451129 770.772257,45.9930645 770.772257,46.6608065 C770.772257,47.3285484 770.230686,47.8704839 769.557971,47.8704839 L765.232686,47.8704839 Z" id="icon-section-resource"></path>
        </g>
    </g>
</svg>