<?xml version="1.0" encoding="UTF-8"?>
<svg width="80px" height="79px" viewBox="0 0 80 79" version="1.1" xmlns="http://www.w3.org/2000/svg" xmlns:xlink="http://www.w3.org/1999/xlink">
    <!-- Generator: Sketch 53.2 (72643) - https://sketchapp.com -->
    <title>icon-section-slm-white</title>
    <desc>Created with Sketch.</desc>
    <g id="Features" stroke="none" stroke-width="1" fill="none" fill-rule="evenodd">
        <g id="Artboard-Copy" transform="translate(-511.000000, -12.000000)" fill="#FFFFFF">
            <path d="M555.859617,80.0095815 L545.114735,80.0095815 C544.373338,80.0095815 543.771624,79.4092938 543.771624,78.6696535 L543.771624,75.4886647 C541.936936,74.9687726 540.172089,74.237172 538.501259,73.3045822 L536.239461,75.5583409 C535.715648,76.0809128 534.866803,76.0809128 534.340303,75.5583409 L526.743671,67.9797087 C526.219858,67.4544569 526.219858,66.6076225 526.743671,66.0850506 L529.002783,63.828612 C528.067978,62.1617417 527.33464,60.4010764 526.816199,58.5707349 L523.624969,58.5707349 C522.883572,58.5707349 522.281859,57.9704472 522.281859,57.2308069 L522.281859,46.5113836 C522.281859,45.7717434 522.883572,45.1714557 523.624969,45.1714557 L526.816199,45.1714557 C527.33464,43.3411142 528.067978,41.5804489 529.002783,39.9135786 L526.743671,37.65714 C526.219858,37.1345681 526.219858,36.2877337 526.743671,35.7624819 L534.340303,28.1838497 C534.866803,27.6612778 535.715648,27.6612778 536.239461,28.1838497 L538.501259,30.4376084 C540.172089,29.5050186 541.936936,28.7734179 543.771624,28.2562058 L543.771624,25.072537 C543.771624,24.3328968 544.373338,23.7326091 545.114735,23.7326091 L555.859617,23.7326091 C556.601014,23.7326091 557.202728,24.3328968 557.202728,25.072537 L557.202728,28.2562058 C559.037417,28.7734179 560.802264,29.5050186 562.473093,30.4376084 L564.734891,28.1838497 C565.258704,27.6612778 566.107549,27.6612778 566.634049,28.1838497 L574.230681,35.7624819 C574.754494,36.2877337 574.754494,37.1345681 574.230681,37.65714 L571.971569,39.9135786 C572.906374,41.5804489 573.639712,43.3411142 574.160839,45.1714557 L577.349383,45.1714557 C578.09078,45.1714557 578.692493,45.7717434 578.692493,46.5113836 L578.692493,57.2308069 C578.692493,57.9704472 578.09078,58.5707349 577.349383,58.5707349 L574.160839,58.5707349 C573.639712,60.4010764 572.906374,62.1617417 571.971569,63.828612 L574.230681,66.0850506 C574.754494,66.6076225 574.754494,67.4544569 574.230681,67.9797087 L566.634049,75.5583409 C566.107549,76.0809128 565.258704,76.0809128 564.734891,75.5583409 L562.473093,73.3045822 C560.802264,74.237172 559.037417,74.9687726 557.202728,75.4886647 L557.202728,78.6696535 C557.202728,79.4092938 556.601014,80.0095815 555.859617,80.0095815 Z M546.457845,77.3297256 L554.516507,77.3297256 L554.516507,74.4515605 C554.516507,73.8298339 554.943616,73.288503 555.550702,73.1464707 C557.817872,72.6104995 559.982966,71.7154277 561.981514,70.482694 C562.5107,70.1611113 563.193,70.2361473 563.638913,70.6783235 L565.683127,72.7150139 L571.380601,67.0310397 L569.339073,64.9916694 C568.898533,64.5494932 568.817946,63.8688098 569.142979,63.3381984 C570.37864,61.3443856 571.275838,59.1844218 571.813082,56.9226235 C571.955452,56.3169761 572.498068,55.890879 573.121272,55.890879 L576.006273,55.890879 L576.006273,47.8513116 L573.121272,47.8513116 C572.498068,47.8513116 571.955452,47.4252145 571.813082,46.8195671 C571.275838,44.5577687 570.37864,42.397805 569.142979,40.4039922 C568.817946,39.8733808 568.898533,39.1926974 569.339073,38.7505212 L571.380601,36.7111509 L565.683127,31.0271767 L563.638913,33.0638671 C563.193,33.5087232 562.5107,33.5837591 561.981514,33.2594966 C559.982966,32.0267629 557.817872,31.1316911 555.550702,30.5957199 C554.943616,30.4536875 554.516507,29.9123567 554.516507,29.2906301 L554.516507,26.412465 L546.457845,26.412465 L546.457845,29.2906301 C546.457845,29.9123567 546.030736,30.4536875 545.42365,30.5957199 C543.15648,31.1316911 540.991386,32.0267629 538.992838,33.2594966 C538.463652,33.5837591 537.781352,33.5087232 537.335439,33.0638671 L535.291226,31.0271767 L529.593751,36.7111509 L531.635279,38.7505212 C532.075819,39.1926974 532.156406,39.8733808 531.831373,40.4039922 C530.595712,42.397805 529.698514,44.5577687 529.16127,46.8195671 C529.0189,47.4252145 528.476284,47.8513116 527.85308,47.8513116 L524.968079,47.8513116 L524.968079,55.890879 L527.85308,55.890879 C528.476284,55.890879 529.0189,56.3169761 529.16127,56.9226235 C529.698514,59.1844218 530.595712,61.3443856 531.831373,63.3381984 C532.156406,63.8688098 532.075819,64.5494932 531.635279,64.9916694 L529.593751,67.0310397 L535.291226,72.7150139 L537.335439,70.6783235 C537.781352,70.2361473 538.463652,70.1611113 538.992838,70.482694 C540.991386,71.7154277 543.15648,72.6104995 545.42365,73.1464707 C546.030736,73.288503 546.457845,73.8298339 546.457845,74.4515605 L546.457845,77.3297256 Z M551,63.6380986 C544.214505,63.6380986 538.692225,58.1289034 538.692225,51.3594865 C538.692225,44.5900695 544.214505,39.0808743 551,39.0808743 C557.785495,39.0808743 563.307775,44.5900695 563.307775,51.3594865 C563.307775,58.1289034 557.785495,63.6380986 551,63.6380986 Z M551,41.7118176 C545.667598,41.7118176 541.329417,46.0397192 541.329417,51.3594865 C541.329417,56.6792537 545.667598,61.0071553 551,61.0071553 C556.332402,61.0071553 560.670583,56.6792537 560.670583,51.3594865 C560.670583,46.0397192 556.332402,41.7118176 551,41.7118176 Z M543.40148,90.2417582 C543.312958,90.2417582 543.221755,90.2337771 543.130551,90.2151546 C540.552703,89.6937229 538.009727,88.9115753 535.57405,87.8899947 C533.181293,86.8843764 530.882421,85.6473062 528.73645,84.2080482 C526.614621,82.7900732 524.613504,81.1512877 522.784063,79.3369182 C520.957305,77.5252089 519.304908,75.5405759 517.872472,73.4335661 C516.421259,71.3079337 515.176596,69.0253397 514.165307,66.657614 C513.132559,64.2393413 512.343914,61.714654 511.818151,59.1580423 C511.273611,56.5322611 511,53.8266689 511,51.1210767 C511,48.4128242 511.273611,45.7098924 511.818151,43.0787904 C512.343914,40.5274995 513.132559,38.0028122 514.162625,35.5871999 C515.176596,33.2141534 516.421259,30.9342198 517.872472,28.805927 C519.304908,26.7015775 520.957305,24.7169445 522.784063,22.902575 C524.613504,21.0908657 526.614621,19.4520803 528.739133,18.0314449 C530.882421,16.5921869 533.181293,15.3577771 535.571368,14.3548191 C538.009727,13.3305782 540.552703,12.5484306 543.130551,12.0269989 C543.838721,11.8806788 544.565669,12.3435824 544.713204,13.0645416 C544.86074,13.7855008 544.391309,14.485177 543.667044,14.6341575 C541.263556,15.1210045 538.889576,15.8499448 536.617529,16.8050162 C534.388401,17.7388046 532.24243,18.8960638 530.241312,20.2368883 C528.256289,21.5644109 526.386612,23.0941213 524.680565,24.7861141 C522.977201,26.4754464 521.434784,28.3323819 520.096235,30.295732 C518.744273,32.2830253 517.577401,34.4113181 516.633174,36.6247426 C515.672852,38.8754122 514.937857,41.2298361 514.446966,43.613524 C513.93998,46.0690418 513.682464,48.5937291 513.682464,51.1210767 C513.682464,53.6484244 513.93998,56.1731117 514.446966,58.6259691 C514.937857,61.0123174 515.672852,63.3640809 516.633174,65.6200712 C517.577401,67.8308354 518.744273,69.9591281 520.096235,71.9437611 C521.434784,73.9097716 522.977201,75.766707 524.680565,77.4560394 C526.386612,79.1480322 528.256289,80.6777426 530.23863,82.0052652 C532.24243,83.3460897 534.388401,84.5033489 536.620211,85.4397977 C538.889576,86.3922087 541.263556,87.121149 543.667044,87.6079959 C544.391309,87.7543161 544.86074,88.4566527 544.713204,89.1776119 C544.581764,89.8081186 544.023811,90.2417582 543.40148,90.2417582 Z M558.59852,90.2417582 C557.976189,90.2417582 557.418236,89.8081186 557.286796,89.1776119 C557.13926,88.4566527 557.608691,87.7543161 558.332956,87.6079959 C560.736444,87.121149 563.110424,86.3922087 565.382471,85.4371373 C567.611599,84.5033489 569.75757,83.3460897 571.758688,82.0052652 C573.743711,80.6777426 575.613388,79.1480322 577.319435,77.4560394 C579.022799,75.766707 580.565216,73.9097716 581.903765,71.9464215 C583.255727,69.9591281 584.422599,67.8308354 585.366826,65.6174109 C586.327148,63.3640809 587.062143,61.0123174 587.553034,58.6286295 C588.06002,56.1731117 588.317536,53.6484244 588.317536,51.1210767 C588.317536,48.5937291 588.06002,46.0690418 587.553034,43.6161843 C587.062143,41.2298361 586.327148,38.8754122 585.366826,36.6220822 C584.422599,34.4113181 583.255727,32.2830253 581.903765,30.2983923 C580.565216,28.3323819 579.022799,26.4754464 577.319435,24.7861141 C575.613388,23.0941213 573.743711,21.5644109 571.76137,20.2368883 C569.75757,18.8960638 567.611599,17.7388046 565.379789,16.8023558 C563.110424,15.8499448 560.736444,15.1210045 558.332956,14.6341575 C557.608691,14.485177 557.13926,13.7855008 557.286796,13.0645416 C557.434331,12.3435824 558.161279,11.8806788 558.869449,12.0269989 C561.447297,12.5484306 563.990273,13.3305782 566.42595,14.3521587 C568.818707,15.3577771 571.117579,16.5921869 573.26355,18.0314449 C575.385379,19.4520803 577.386496,21.0908657 579.215937,22.902575 C581.042695,24.7169445 582.695092,26.7015775 584.127528,28.8085874 C585.578741,30.9342198 586.823404,33.2141534 587.834693,35.5845395 C588.867441,38.0028122 589.656086,40.5274995 590.181849,43.0814508 C590.726389,45.7098924 591,48.4128242 591,51.1210767 C591,53.8266689 590.726389,56.5322611 590.181849,59.1607027 C589.656086,61.714654 588.867441,64.2393413 587.837375,66.6549536 C586.823404,69.0253397 585.578741,71.3079337 584.127528,73.4362264 C582.695092,75.5405759 581.042695,77.5252089 579.215937,79.3369182 C577.386496,81.1512877 575.385379,82.7900732 573.260867,84.2080482 C571.117579,85.6473062 568.818707,86.8843764 566.428632,87.8873344 C563.990273,88.9115753 561.447297,89.6937229 558.869449,90.2151546 C558.778245,90.2337771 558.687042,90.2417582 558.59852,90.2417582 Z" id="icon-section-slm"></path>
        </g>
    </g>
</svg>