<?xml version="1.0" encoding="UTF-8"?>
<svg width="90px" height="90px" viewBox="0 0 90 90" version="1.1" xmlns="http://www.w3.org/2000/svg" xmlns:xlink="http://www.w3.org/1999/xlink">
    <!-- Generator: Sketch 54.1 (76490) - https://sketchapp.com -->
    <title>icon-section-nocode-white</title>
    <desc>Created with Sketch.</desc>
    <g id="Graphics" stroke="none" stroke-width="1" fill="none" fill-rule="evenodd">
        <g id="Artboard-Copy" transform="translate(-805.000000, -306.000000)" fill="#FFFFFF">
            <path d="M864.279559,333.171 L877.514853,350.188941 C877.888088,350.665412 877.888088,351.332471 877.514853,351.811588 L864.279559,368.829529 C864.0175,369.165706 863.628382,369.340412 863.233971,369.340412 C862.950735,369.340412 862.664853,369.250412 862.423971,369.062471 C861.844265,368.615118 861.741029,367.781294 862.191029,367.204235 L874.793676,350.998941 L862.191029,334.793647 C861.741029,334.219235 861.844265,333.385412 862.423971,332.938059 C862.995735,332.488059 863.829559,332.588647 864.279559,333.171 Z M837.576294,332.938588 C838.156,333.385941 838.259235,334.217118 837.809235,334.794176 L825.206588,350.999471 L837.809235,367.204765 C838.259235,367.781824 838.156,368.615647 837.576294,369.060353 C837.335412,369.250941 837.049529,369.340941 836.763647,369.340941 C836.371882,369.340941 835.980118,369.166235 835.720706,368.830059 L822.485412,351.812118 C822.112176,351.333 822.112176,350.665941 822.485412,350.189471 L835.720706,333.171529 C836.170706,332.589176 837.001882,332.488588 837.576294,332.938588 Z M857.998088,328.006324 C858.688971,328.247206 859.051618,329.001618 858.816029,329.6925 L843.688088,373.175735 C843.494853,373.723676 842.983971,374.065147 842.436029,374.065147 C842.290441,374.065147 842.144853,374.043971 842.001912,373.993676 C841.311029,373.752794 840.948382,372.998382 841.183971,372.3075 L856.311912,328.824265 C856.552794,328.130735 857.315147,327.770735 857.998088,328.006324 Z M850,393.352941 C873.352353,393.352941 892.352941,374.352353 892.352941,351 C892.352941,327.647647 873.352353,308.647059 850,308.647059 C826.647647,308.647059 807.647059,327.647647 807.647059,351 C807.647059,374.352353 826.647647,393.352941 850,393.352941 Z M850,306 C874.813529,306 895,326.186471 895,351 C895,375.813529 874.813529,396 850,396 C825.186471,396 805,375.813529 805,351 C805,326.186471 825.186471,306 850,306 Z" id="icon-section-nocode"></path>
        </g>
    </g>
</svg>