<?xml version="1.0" encoding="UTF-8"?>
<svg width="100px" height="84px" viewBox="0 0 100 84" version="1.1" xmlns="http://www.w3.org/2000/svg" xmlns:xlink="http://www.w3.org/1999/xlink">
    <!-- Generator: Sketch 53.2 (72643) - https://sketchapp.com -->
    <title>icon-section-templates</title>
    <desc>Created with Sketch.</desc>
    <g id="Features" stroke="none" stroke-width="1" fill="none" fill-rule="evenodd">
        <g id="Desktop-HD---Features---HR" transform="translate(-831.000000, -512.000000)" fill="#505050">
            <path d="M872.194636,528.673704 C867.598524,528.673704 863.858667,532.413562 863.858667,537.009673 C863.858667,541.608727 867.598524,545.345643 872.194636,545.345643 C876.790747,545.345643 880.530605,541.608727 880.530605,537.009673 C880.530605,532.413562 876.790747,528.673704 872.194636,528.673704 Z M872.194636,548.288096 C865.977233,548.288096 860.916214,543.227076 860.916214,537.009673 C860.916214,530.79227 865.977233,525.731251 872.194636,525.731251 C878.412039,525.731251 883.473058,530.79227 883.473058,537.009673 C883.473058,543.227076 878.412039,548.288096 872.194636,548.288096 Z M850.126239,533.774152 L850.126239,540.244606 L852.362503,540.244606 C853.042209,540.244606 853.636585,540.712456 853.792535,541.377451 C854.257443,543.337124 855.031308,545.205582 856.096476,546.929859 C856.452512,547.509523 856.367181,548.259848 855.884619,548.74241 L854.301579,550.32545 L858.880036,554.903907 L860.463076,553.320867 C860.951523,552.835362 861.701849,552.752974 862.275627,553.106068 C863.999904,554.174179 865.868362,554.945101 867.828036,555.412951 C868.490088,555.565959 868.957938,556.160334 868.957938,556.842983 L868.957938,559.079248 L875.431334,559.079248 L875.431334,556.842983 C875.431334,556.160334 875.899184,555.565959 876.561236,555.412951 C878.52091,554.945101 880.389367,554.174179 882.113645,553.106068 C882.690366,552.752974 883.443634,552.835362 883.926196,553.320867 L885.509236,554.903907 L890.087692,550.32545 L888.504653,548.74241 C888.02209,548.259848 887.936759,547.509523 888.292796,546.929859 C889.357964,545.205582 890.131829,543.337124 890.596737,541.377451 C890.752687,540.712456 891.347062,540.244606 892.026769,540.244606 L894.263033,540.244606 L894.263033,533.774152 L892.026769,533.774152 C891.347062,533.774152 890.752687,533.306302 890.596737,532.641308 C890.131829,530.681634 889.357964,528.813176 888.292796,527.091841 C887.936759,526.509236 888.02209,525.75891 888.504653,525.276348 L890.087692,523.693308 L885.509236,519.117794 L883.926196,520.700833 C883.443634,521.186338 882.690366,521.268727 882.113645,520.91269 C880.389367,519.847522 878.52091,519.073657 876.561236,518.608749 C875.899184,518.452799 875.431334,517.858424 875.431334,517.175775 L875.431334,514.942453 L868.957938,514.942453 L868.957938,517.175775 C868.957938,517.858424 868.490088,518.452799 867.828036,518.608749 C865.868362,519.073657 863.999904,519.847522 862.275627,520.91269 C861.701849,521.268727 860.951523,521.186338 860.463076,520.700833 L858.880036,519.117794 L854.301579,523.693308 L855.884619,525.276348 C856.367181,525.75891 856.452512,526.509236 856.096476,527.091841 C855.031308,528.813176 854.257443,530.681634 853.792535,532.641308 C853.636585,533.306302 853.042209,533.774152 852.362503,533.774152 L850.126239,533.774152 Z M848.655012,543.187059 C847.842895,543.187059 847.183786,542.530892 847.183786,541.715833 L847.183786,532.302926 C847.183786,531.490809 847.842895,530.831699 848.655012,530.831699 L851.229658,530.831699 C851.665141,529.348703 852.262459,527.918671 853.003958,526.559257 L851.179637,524.734936 C850.605858,524.158216 850.605858,523.228401 851.179637,522.654622 L857.838408,515.995851 C858.412186,515.422073 859.344944,515.422073 859.918722,515.995851 L861.743043,517.81723 C863.102456,517.075731 864.532488,516.481356 866.015485,516.045873 L866.015485,513.471226 C866.015485,512.656167 866.674594,512 867.486711,512 L876.902561,512 C877.714678,512 878.373787,512.656167 878.373787,513.471226 L878.373787,516.045873 C879.856783,516.481356 881.286816,517.075731 882.646229,517.81723 L884.47055,515.995851 C885.044328,515.422073 885.977086,515.422073 886.550864,515.995851 L893.209635,522.654622 C893.783413,523.228401 893.783413,524.158216 893.209635,524.734936 L891.385314,526.559257 C892.126812,527.918671 892.72413,529.348703 893.159613,530.831699 L895.73426,530.831699 C896.546377,530.831699 897.205486,531.490809 897.205486,532.302926 L897.205486,541.715833 C897.205486,542.530892 896.546377,543.187059 895.73426,543.187059 L893.159613,543.187059 C892.72413,544.670055 892.126812,546.100088 891.385314,547.459501 L893.209635,549.283822 C893.783413,549.860542 893.783413,550.790358 893.209635,551.367078 L886.550864,558.022907 C885.977086,558.599628 885.044328,558.599628 884.47055,558.022907 L882.646229,556.201529 C881.286816,556.943027 879.856783,557.537402 878.373787,557.975828 L878.373787,560.550474 C878.373787,561.362591 877.714678,562.021701 876.902561,562.021701 L867.486711,562.021701 C866.674594,562.021701 866.015485,561.362591 866.015485,560.550474 L866.015485,557.975828 C864.532488,557.537402 863.102456,556.943027 861.743043,556.201529 L859.918722,558.022907 C859.344944,558.599628 858.412186,558.599628 857.838408,558.022907 L851.179637,551.367078 C850.605858,550.790358 850.605858,549.860542 851.179637,549.283822 L853.003958,547.459501 C852.262459,546.100088 851.665141,544.670055 851.229658,543.187059 L848.655012,543.187059 Z M896.240067,567.149808 L927.447724,535.939209 L923.287095,531.77858 L892.076496,562.986237 L896.240067,567.149808 Z M886.335771,572.890533 L893.800774,568.871143 L890.355161,565.42553 L886.335771,572.890533 Z M930.569666,534.897581 C931.143445,535.471359 931.143445,536.404116 930.569666,536.977895 L925.158495,542.389066 L925.158495,588.503189 C925.158495,592.560832 921.860005,595.859321 917.802363,595.859321 L838.356132,595.859321 C834.29849,595.859321 831,592.560832 831,588.503189 L831,532.596582 C831,528.53894 834.29849,525.24045 838.356132,525.24045 L843.181755,525.24045 C843.993872,525.24045 844.652982,525.896617 844.652982,526.711676 C844.652982,527.523793 843.993872,528.182903 843.181755,528.182903 L838.356132,528.182903 C835.922724,528.182903 833.942453,530.163174 833.942453,532.596582 L833.942453,566.434792 L856.01085,566.434792 C858.444259,566.434792 860.42453,568.415062 860.42453,570.848471 L860.42453,573.790924 C860.42453,574.600099 861.086582,575.26215 861.895756,575.26215 L876.608021,575.26215 C877.420138,575.26215 878.079248,575.918318 878.079248,576.733377 C878.079248,577.545494 877.420138,578.204603 876.608021,578.204603 L861.895756,578.204603 C859.462348,578.204603 857.482077,576.224333 857.482077,573.790924 L857.482077,570.848471 C857.482077,570.036354 856.822967,569.377245 856.01085,569.377245 L833.942453,569.377245 L833.942453,581.147056 L853.068397,581.147056 C853.880514,581.147056 854.539624,581.803223 854.539624,582.618283 C854.539624,583.4304 853.880514,584.089509 853.068397,584.089509 L833.942453,584.089509 L833.942453,587.031962 L847.183491,587.031962 C847.995608,587.031962 848.654718,587.688129 848.654718,588.503189 C848.654718,589.315306 847.995608,589.974415 847.183491,589.974415 L834.213159,589.974415 C834.822246,591.683981 836.440596,592.916868 838.356132,592.916868 L917.802363,592.916868 C920.235771,592.916868 922.216042,590.936597 922.216042,588.503189 L922.216042,545.331519 L897.281696,570.27175 C897.216962,570.333542 897.134573,570.368851 897.061012,570.41593 C897.016875,570.448297 896.98745,570.501262 896.937429,570.524801 L883.413915,577.807372 C883.190288,577.92507 882.95195,577.983919 882.713611,577.983919 C882.331092,577.983919 881.957401,577.836797 881.674925,577.551379 C881.215902,577.092356 881.109974,576.386168 881.418932,575.812389 L888.69856,562.288875 C888.725042,562.238854 888.778007,562.209429 888.810374,562.168235 C888.857453,562.091731 888.892762,562.009342 888.954554,561.944608 L921.147932,529.757115 C920.321103,528.786106 919.102927,528.182903 917.802363,528.182903 L899.382607,528.182903 C898.57049,528.182903 897.911381,527.523793 897.911381,526.711676 C897.911381,525.896617 898.57049,525.24045 899.382607,525.24045 L917.802363,525.24045 C920.15044,525.24045 922.319028,526.440971 923.687269,528.303543 C923.919723,528.368277 924.143349,528.471263 924.328723,528.656638 L930.569666,534.897581 Z M911.917751,578.204015 C911.105634,578.204015 910.446525,577.544906 910.446525,576.732788 C910.446525,575.920671 911.105634,575.261562 911.917751,575.261562 L914.860204,575.261562 C915.672321,575.261562 916.331431,575.920671 916.331431,576.732788 C916.331431,577.544906 915.672321,578.204015 914.860204,578.204015 L911.917751,578.204015 Z M911.917751,587.031374 C911.105634,587.031374 910.446525,586.372264 910.446525,585.560147 C910.446525,584.74803 911.105634,584.088921 911.917751,584.088921 L914.860204,584.088921 C915.672321,584.088921 916.331431,584.74803 916.331431,585.560147 C916.331431,586.372264 915.672321,587.031374 914.860204,587.031374 L911.917751,587.031374 Z M903.090392,587.031374 L900.147939,587.031374 C899.335822,587.031374 898.676713,586.372264 898.676713,585.560147 C898.676713,584.74803 899.335822,584.088921 900.147939,584.088921 L903.090392,584.088921 C903.902509,584.088921 904.561619,584.74803 904.561619,585.560147 C904.561619,586.372264 903.902509,587.031374 903.090392,587.031374 Z" id="icon-section-templates"></path>
        </g>
    </g>
</svg>