<?xml version="1.0" encoding="UTF-8"?>
<svg width="95px" height="63px" viewBox="0 0 95 63" version="1.1" xmlns="http://www.w3.org/2000/svg" xmlns:xlink="http://www.w3.org/1999/xlink">
    <!-- Generator: Sketch 53.2 (72643) - https://sketchapp.com -->
    <title>icon-section-change</title>
    <desc>Created with Sketch.</desc>
    <g id="Features" stroke="none" stroke-width="1" fill="none" fill-rule="evenodd">
        <g id="Desktop-HD---Features---ITSM" transform="translate(-833.000000, -522.000000)" fill="#505050">
            <path d="M880.137405,539.428941 C887.733806,539.428941 893.916031,545.619818 893.916031,553.226852 C893.916031,560.833885 887.733806,567.024763 880.137405,567.024763 C872.541003,567.024763 866.358779,560.833885 866.358779,553.226852 C866.358779,545.619818 872.541003,539.428941 880.137405,539.428941 Z M880.137405,564.11994 C886.135506,564.11994 891.015267,559.233349 891.015267,553.226852 C891.015267,547.220355 886.135506,542.333764 880.137405,542.333764 C874.139303,542.333764 869.259542,547.220355 869.259542,553.226852 C869.259542,559.233349 874.139303,564.11994 880.137405,564.11994 Z M897.257801,576.358514 L903.540727,570.05069 L901.286457,567.784513 C900.800649,567.296779 900.714743,566.538413 901.073175,565.952537 C902.435809,563.739892 903.425199,561.342859 904.017649,558.829841 C904.174648,558.160694 904.773022,557.687831 905.460263,557.687831 L908.641716,557.687831 L908.641716,548.765873 L905.460263,548.765873 C904.773022,548.765873 904.174648,548.290035 904.017649,547.620888 C903.425199,545.10787 902.435809,542.713812 901.073175,540.498192 C900.714743,539.912317 900.800649,539.153951 901.286457,538.666217 L903.540727,536.40004 L897.257801,530.092216 L895.000569,532.355419 C894.511798,532.849101 893.756425,532.929398 893.175825,532.569546 C890.971913,531.201512 888.584342,530.208201 886.084206,529.613404 C885.414738,529.455783 884.943741,528.855037 884.943741,528.168047 L884.943741,524.973986 L876.057,524.973986 L876.057,528.168047 C876.057,528.855037 875.586003,529.455783 874.916535,529.613404 C872.413436,530.208201 870.028827,531.201512 867.821953,532.569546 C867.241353,532.929398 866.48598,532.849101 865.997209,532.355419 L863.742939,530.092216 L857.457051,536.40004 L859.711321,538.666217 C860.19713,539.153951 860.285997,539.912317 859.924603,540.498192 C858.561969,542.713812 857.575541,545.10787 856.98013,547.620888 C856.826093,548.290035 856.224757,548.765873 855.540478,548.765873 L852.359024,548.765873 L852.359024,557.687831 L855.540478,557.687831 C856.224757,557.687831 856.826093,558.160694 856.98013,558.829841 C857.575541,561.342859 858.561969,563.739892 859.924603,565.952537 C860.285997,566.538413 860.19713,567.296779 859.711321,567.784513 L857.457051,570.05069 L863.742939,576.358514 L865.997209,574.095311 C866.48598,573.604603 867.241353,573.524306 867.821953,573.881184 C870.028827,575.249217 872.413436,576.242529 874.916535,576.837326 C875.586003,576.994947 876.057,577.595692 876.057,578.282683 L876.057,581.479718 L884.943741,581.479718 L884.943741,578.282683 C884.943741,577.595692 885.414738,576.994947 886.084206,576.837326 C888.584342,576.242529 890.971913,575.249217 893.175825,573.881184 C893.756425,573.524306 894.511798,573.604603 895.000569,574.095311 L897.257801,576.358514 Z M926.415198,568.096781 C927.232778,568.096781 927.896321,568.75998 927.896321,569.583774 C927.896321,570.404594 927.232778,571.070767 926.415198,571.070767 L906.701444,571.070767 C906.69552,571.079689 906.692558,571.091585 906.683671,571.100507 L898.306437,579.513913 C897.725836,580.09384 896.789766,580.09384 896.209166,579.513913 L893.717916,577.012791 C891.875399,578.044764 889.92624,578.859636 887.905988,579.433616 L887.905988,582.966711 C887.905988,583.787531 887.242444,584.453704 886.424864,584.453704 L874.575876,584.453704 C873.755334,584.453704 873.094753,583.787531 873.094753,582.966711 L873.094753,579.433616 C871.071538,578.859636 869.125342,578.044764 867.282824,577.012791 L864.788612,579.513913 C864.210974,580.09384 863.271942,580.09384 862.694304,579.513913 L854.31707,571.100507 C854.308183,571.091585 854.305221,571.079689 854.296334,571.070767 L838.057296,571.070767 L845.99908,579.044023 C846.579681,579.626925 846.579681,580.566704 845.99908,581.146631 C845.711742,581.438082 845.332575,581.583807 844.953407,581.583807 C844.574239,581.583807 844.195072,581.438082 843.904772,581.146631 L833.433229,570.633591 C832.85559,570.053664 832.85559,569.11091 833.433229,568.530983 L843.904772,558.017943 C844.485372,557.438016 845.421442,557.438016 845.99908,558.017943 C846.579681,558.59787 846.579681,559.540624 845.99908,560.120551 L838.057296,568.096781 L855.217593,568.096781 L856.808319,566.496777 C855.777457,564.646958 854.968764,562.690075 854.394088,560.661817 L850.877901,560.661817 C850.057358,560.661817 849.396777,559.995644 849.396777,559.174824 L849.396777,547.27888 C849.396777,546.455086 850.057358,545.791887 850.877901,545.791887 L854.394088,545.791887 C854.968764,543.760655 855.777457,541.806746 856.808319,539.956927 L855.217593,538.356922 L834.585543,538.356922 C833.765,538.356922 833.104419,537.69075 833.104419,536.869929 C833.104419,536.046135 833.765,535.382937 834.585543,535.382937 L854.296334,535.382937 C854.305221,535.374015 854.308183,535.359145 854.31707,535.350223 L862.694304,526.939791 C863.271942,526.359863 864.210974,526.359863 864.788612,526.939791 L867.282824,529.440913 C869.125342,528.405966 871.071538,527.594067 873.094753,527.017114 L873.094753,523.486993 C873.094753,522.663199 873.755334,522 874.575876,522 L886.424864,522 C887.242444,522 887.905988,522.663199 887.905988,523.486993 L887.905988,527.017114 C889.92624,527.594067 891.875399,528.405966 893.717916,529.440913 L896.209166,526.939791 C896.789766,526.359863 897.725836,526.359863 898.306437,526.939791 L906.683671,535.350223 C906.692558,535.359145 906.69552,535.374015 906.701444,535.382937 L922.943444,535.382937 L914.998698,527.406706 C914.42106,526.826779 914.42106,525.884026 914.998698,525.304098 C915.579299,524.724171 916.515369,524.724171 917.093007,525.304098 L927.56455,535.817138 C928.14515,536.397066 928.14515,537.339819 927.56455,537.919746 L917.093007,548.432787 C916.805669,548.724237 916.426501,548.869963 916.047334,548.869963 C915.668166,548.869963 915.288998,548.724237 914.998698,548.432787 C914.42106,547.852859 914.42106,546.91308 914.998698,546.330179 L922.943444,538.356922 L905.783148,538.356922 L904.192421,539.956927 C905.220321,541.806746 906.031977,543.760655 906.60369,545.791887 L910.12284,545.791887 C910.94042,545.791887 911.603963,546.455086 911.603963,547.27888 L911.603963,559.174824 C911.603963,559.995644 910.94042,560.661817 910.12284,560.661817 L906.60369,560.661817 C906.031977,562.690075 905.220321,564.646958 904.192421,566.496777 L905.783148,568.096781 L926.415198,568.096781 Z" id="icon-section-change"></path>
        </g>
    </g>
</svg>