<?xml version="1.0" encoding="UTF-8"?>
<svg width="100px" height="80px" viewBox="0 0 100 80" version="1.1" xmlns="http://www.w3.org/2000/svg" xmlns:xlink="http://www.w3.org/1999/xlink">
    <!-- Generator: Sketch 53.2 (72643) - https://sketchapp.com -->
    <title>icon-section-business-white</title>
    <desc>Created with Sketch.</desc>
    <g id="Features" stroke="none" stroke-width="1" fill="none" fill-rule="evenodd">
        <g id="Artboard-Copy" transform="translate(-200.000000, -310.000000)" fill="#FFFFFF">
            <path d="M243.75,337.5 C244.44,337.5 245,338.06 245,338.75 L245,381.25 C245,381.94 244.44,382.5 243.75,382.5 C243.06,382.5 242.5,381.94 242.5,381.25 L242.5,338.75 C242.5,338.06 243.06,337.5 243.75,337.5 Z M256.25,337.5 C256.94,337.5 257.5,338.06 257.5,338.75 L257.5,381.25 C257.5,381.94 256.94,382.5 256.25,382.5 C255.56,382.5 255,381.94 255,381.25 L255,338.75 C255,338.06 255.56,337.5 256.25,337.5 Z M250,350 C250.69,350 251.25,350.56 251.25,351.25 L251.25,376.25 C251.25,376.94 250.69,377.5 250,377.5 C249.31,377.5 248.75,376.94 248.75,376.25 L248.75,351.25 C248.75,350.56 249.31,350 250,350 Z M221.25,350 C221.94,350 222.5,350.56 222.5,351.25 C222.5,351.94 221.94,352.5 221.25,352.5 L216.25,352.5 C215.56,352.5 215,351.94 215,351.25 C215,350.56 215.56,350 216.25,350 L221.25,350 Z M221.25,357.5 C221.94,357.5 222.5,358.06 222.5,358.75 C222.5,359.44 221.94,360 221.25,360 L216.25,360 C215.56,360 215,359.44 215,358.75 C215,358.06 215.56,357.5 216.25,357.5 L221.25,357.5 Z M221.25,365 C221.94,365 222.5,365.56 222.5,366.25 C222.5,366.94 221.94,367.5 221.25,367.5 L216.25,367.5 C215.56,367.5 215,366.94 215,366.25 C215,365.56 215.56,365 216.25,365 L221.25,365 Z M221.25,372.5 C221.94,372.5 222.5,373.06 222.5,373.75 C222.5,374.44 221.94,375 221.25,375 L216.25,375 C215.56,375 215,374.44 215,373.75 C215,373.06 215.56,372.5 216.25,372.5 L221.25,372.5 Z M221.25,380 C221.94,380 222.5,380.56 222.5,381.25 C222.5,381.94 221.94,382.5 221.25,382.5 L216.25,382.5 C215.56,382.5 215,381.94 215,381.25 C215,380.56 215.56,380 216.25,380 L221.25,380 Z M283.75,357.5 C284.44,357.5 285,358.06 285,358.75 C285,359.44 284.44,360 283.75,360 L278.75,360 C278.06,360 277.5,359.44 277.5,358.75 C277.5,358.06 278.06,357.5 278.75,357.5 L283.75,357.5 Z M283.75,365 C284.44,365 285,365.56 285,366.25 C285,366.94 284.44,367.5 283.75,367.5 L278.75,367.5 C278.06,367.5 277.5,366.94 277.5,366.25 C277.5,365.56 278.06,365 278.75,365 L283.75,365 Z M283.75,372.5 C284.44,372.5 285,373.06 285,373.75 C285,374.44 284.44,375 283.75,375 L278.75,375 C278.06,375 277.5,374.44 277.5,373.75 C277.5,373.06 278.06,372.5 278.75,372.5 L283.75,372.5 Z M283.75,380 C284.44,380 285,380.56 285,381.25 C285,381.94 284.44,382.5 283.75,382.5 L278.75,382.5 C278.06,382.5 277.5,381.94 277.5,381.25 C277.5,380.56 278.06,380 278.75,380 L283.75,380 Z M272.5,387.5 L290,387.5 L290,352.5 L287.5,352.5 L275,352.5 L272.5,352.5 L272.5,387.5 Z M237.5,387.5 L262.5,387.5 L262.5,330 L256.25,330 L243.75,330 L237.5,330 L237.5,387.5 Z M210,387.5 L227.5,387.5 L227.5,345 L210,345 L210,387.5 Z M245,327.5 L255,327.5 L255,320 L245,320 L245,327.5 Z M276.25,343.095 L276.25,350 L286.25,350 L286.25,347.0975 L276.25,343.095 Z M298.75,387.5 C299.44,387.5 300,388.06 300,388.75 C300,389.44 299.44,390 298.75,390 L291.25,390 L271.25,390 L263.75,390 L236.25,390 L228.75,390 L208.75,390 L201.25,390 C200.56,390 200,389.44 200,388.75 C200,388.06 200.56,387.5 201.25,387.5 L207.5,387.5 L207.5,343.75 C207.5,343.06 208.06,342.5 208.75,342.5 L228.75,342.5 C229.44,342.5 230,343.06 230,343.75 L230,387.5 L235,387.5 L235,328.75 C235,328.06 235.56,327.5 236.25,327.5 L242.5,327.5 L242.5,318.75 C242.5,318.06 243.06,317.5 243.75,317.5 L248.75,317.5 L248.75,311.25 C248.75,310.56 249.31,310 250,310 C250.69,310 251.25,310.56 251.25,311.25 L251.25,317.5 L256.25,317.5 C256.94,317.5 257.5,318.06 257.5,318.75 L257.5,327.5 L263.75,327.5 C264.44,327.5 265,328.06 265,328.75 L265,387.5 L270,387.5 L270,351.25 C270,350.56 270.56,350 271.25,350 L273.75,350 L273.75,341.25 C273.75,340.835 273.955,340.4475 274.3,340.215 C274.64,339.9825 275.08,339.935 275.465,340.09 L287.965,345.09 C288.44,345.2775 288.75,345.74 288.75,346.25 L288.75,350 L291.25,350 C291.94,350 292.5,350.56 292.5,351.25 L292.5,387.5 L298.75,387.5 Z M273.75,317.5 C271.6825,317.5 270,319.1825 270,321.25 C270,323.3175 271.6825,325 273.75,325 L288.75,325 C292.1975,325 295,322.1975 295,318.75 C295,315.3025 292.1975,312.5 288.75,312.5 C286.13,312.5 283.7725,314.175 282.885,316.6675 C282.71,317.1675 282.24,317.5 281.71,317.5 L273.75,317.5 Z M273.75,327.5 C270.3025,327.5 267.5,324.6975 267.5,321.25 C267.5,317.8025 270.3025,315 273.75,315 L280.8775,315 C282.315,311.975 285.3725,310 288.75,310 C293.575,310 297.5,313.925 297.5,318.75 C297.5,323.575 293.575,327.5 288.75,327.5 L273.75,327.5 Z M208.86475,326.36475 C207.42225,326.36475 206.24975,327.53725 206.24975,328.97725 C206.24975,330.41975 207.42225,331.59225 208.86475,331.59225 L220.45475,331.59225 C222.96225,331.59225 224.99975,329.55225 224.99975,327.04475 C224.99975,324.53975 222.96225,322.49975 220.45475,322.49975 C218.54975,322.49975 216.83725,323.71725 216.19225,325.53225 C216.01475,326.03225 215.54475,326.36475 215.01475,326.36475 L208.86475,326.36475 Z M208.86475,334.09225 C206.04475,334.09225 203.74975,331.79725 203.74975,328.97725 C203.74975,326.15725 206.04475,323.86475 208.86475,323.86475 L214.19475,323.86475 C215.37975,321.52225 217.79725,319.99975 220.45475,319.99975 C224.33725,319.99975 227.49975,323.16225 227.49975,327.04475 C227.49975,330.92975 224.33725,334.09225 220.45475,334.09225 L208.86475,334.09225 Z" id="icon-section-business"></path>
        </g>
    </g>
</svg>