<?xml version="1.0" encoding="UTF-8"?>
<svg width="90px" height="74px" viewBox="0 0 90 74" version="1.1" xmlns="http://www.w3.org/2000/svg" xmlns:xlink="http://www.w3.org/1999/xlink">
    <!-- Generator: Sketch 53.2 (72643) - https://sketchapp.com -->
    <title>icon-section-compliance-white</title>
    <desc>Created with Sketch.</desc>
    <g id="Features" stroke="none" stroke-width="1" fill="none" fill-rule="evenodd">
        <g id="Artboard-Copy" transform="translate(-506.000000, -215.000000)" fill="#FFFFFF">
            <path d="M509,273.203 L593,273.203 L593,218.003 L509,218.003 L509,273.203 Z M594.5,215 C595.328,215 596,215.672 596,216.5 L596,274.703 C596,275.531 595.328,276.203 594.5,276.203 L552.44,276.203 C552.458,276.302 552.5,276.395 552.5,276.5 L552.5,285.902 L573.401,285.902 C574.229,285.902 574.901,286.574 574.901,287.402 C574.901,288.23 574.229,288.902 573.401,288.902 L528.599,288.902 C527.771,288.902 527.099,288.23 527.099,287.402 C527.099,286.574 527.771,285.902 528.599,285.902 L549.5,285.902 L549.5,276.5 C549.5,276.395 549.542,276.302 549.56,276.203 L507.5,276.203 C506.672,276.203 506,275.531 506,274.703 L506,216.5 C506,215.672 506.672,215 507.5,215 L594.5,215 Z M514.994,238.5143 C514.631,238.5143 514.265,238.3823 513.977,238.1153 C513.368,237.5543 513.329,236.6033 513.893,235.9973 L526.103,222.7703 C526.667,222.1613 527.615,222.1223 528.221,222.6863 C528.83,223.2473 528.869,224.1983 528.305,224.8043 L516.095,238.0313 C515.801,238.3523 515.399,238.5143 514.994,238.5143 Z M515.3486,229.652 C514.9646,229.652 514.5806,229.505 514.2866,229.214 C513.7016,228.626 513.7016,227.678 514.2866,227.09 L517.7876,223.589 C518.3756,223.004 519.3236,223.004 519.9116,223.589 C520.4966,224.177 520.4966,225.125 519.9116,225.713 L516.4106,229.214 C516.1166,229.505 515.7326,229.652 515.3486,229.652 Z M573.5,248.2496 C573.5,247.5626 572.939,247.0016 572.249,247.0016 L561.251,247.0016 C560.564,247.0016 560,247.5626 560,248.2496 L560,253.7516 C560,257.4716 563.03,260.5016 566.75,260.5016 C570.47,260.5016 573.5,257.4716 573.5,253.7516 L573.5,248.2496 Z M566.75,263.5016 C561.374,263.5016 557,259.1276 557,253.7516 L557,248.2496 C557,246.4376 558.149,244.8986 559.751,244.2896 L559.751,239.9996 C559.751,236.1416 562.892,233.0006 566.75,233.0006 C570.608,233.0006 573.749,236.1416 573.749,239.9996 C573.749,240.8276 573.077,241.4996 572.249,241.4996 C571.421,241.4996 570.749,240.8276 570.749,239.9996 C570.749,237.7946 568.955,236.0006 566.75,236.0006 C564.545,236.0006 562.751,237.7946 562.751,239.9996 L562.751,244.0016 L572.249,244.0016 C574.592,244.0016 576.5,245.9066 576.5,248.2496 L576.5,253.7516 C576.5,259.1276 572.126,263.5016 566.75,263.5016 Z M565.3145,253.4324 C564.4715,252.9314 563.8775,252.0524 563.8775,250.9994 C563.8775,249.4154 565.1645,248.1254 566.7515,248.1254 C568.3355,248.1254 569.6255,249.4154 569.6255,250.9994 C569.6255,252.0524 569.0285,252.9314 568.1855,253.4324 C568.2095,253.5404 568.2515,253.6364 568.2515,253.7504 L568.2515,256.4984 C568.2515,257.3294 567.5795,257.9984 566.7515,257.9984 C565.9205,257.9984 565.2515,257.3294 565.2515,256.4984 L565.2515,253.7504 C565.2515,253.6364 565.2905,253.5404 565.3145,253.4324 Z M527,240.5006 C527,239.6726 527.672,239.0006 528.5,239.0006 L552.5,239.0006 C553.328,239.0006 554,239.6726 554,240.5006 C554,241.3286 553.328,242.0006 552.5,242.0006 L528.5,242.0006 C527.672,242.0006 527,241.3286 527,240.5006 Z M528.5,251.0006 C527.672,251.0006 527,250.3286 527,249.5006 C527,248.6726 527.672,248.0006 528.5,248.0006 L546.5,248.0006 C547.328,248.0006 548,248.6726 548,249.5006 C548,250.3286 547.328,251.0006 546.5,251.0006 L528.5,251.0006 Z M540.5,257.0006 C541.328,257.0006 542,257.6726 542,258.5006 C542,259.3286 541.328,260.0006 540.5,260.0006 L528.5,260.0006 C527.672,260.0006 527,259.3286 527,258.5006 C527,257.6726 527.672,257.0006 528.5,257.0006 L540.5,257.0006 Z M552.5,257.0006 C553.328,257.0006 554,257.6726 554,258.5006 C554,259.3286 553.328,260.0006 552.5,260.0006 L546.5,260.0006 C545.672,260.0006 545,259.3286 545,258.5006 C545,257.6726 545.672,257.0006 546.5,257.0006 L552.5,257.0006 Z" id="icon-section-compliance"></path>
        </g>
    </g>
</svg>