<?xml version="1.0" encoding="UTF-8"?>
<svg width="82px" height="97px" viewBox="0 0 82 97" version="1.1" xmlns="http://www.w3.org/2000/svg" xmlns:xlink="http://www.w3.org/1999/xlink">
    <!-- Generator: Sketch 53.2 (72643) - https://sketchapp.com -->
    <title>icon-section-integration-white</title>
    <desc>Created with Sketch.</desc>
    <g id="Features" stroke="none" stroke-width="1" fill="none" fill-rule="evenodd">
        <g id="Artboard-Copy" transform="translate(-210.000000, -203.000000)" fill="#FFFFFF" stroke="#FFFFFF" stroke-width="0.75">
            <path d="M270.251004,277.833663 L274.064294,271.479777 L271.998262,269.413746 L265.644377,273.227036 L270.251004,277.833663 Z M260.318713,291.631973 L270.490682,281.4624 L269.642219,280.613937 L262.864102,273.83582 L262.015639,272.989754 L251.846066,283.15693 L260.318713,291.631973 Z M282.352388,259.428726 L273.879741,267.903769 L275.57427,269.598298 L284.049314,261.123255 C290.122775,255.049793 290.122775,245.167835 284.049314,239.091977 C281.110851,236.153514 277.196896,234.538079 273.031278,234.538079 C268.86566,234.538079 264.951705,236.153514 262.013242,239.091977 L238.287435,262.817784 C235.799569,265.308047 232.489604,266.67901 228.966325,266.67901 C225.445443,266.67901 222.135478,265.308047 219.647612,262.817784 C217.157349,260.329918 215.786386,257.019953 215.786386,253.499071 C215.786386,249.975792 217.157349,246.665828 219.647612,244.177962 L228.120259,235.702918 L226.42573,234.008389 L217.950686,242.483432 C211.877225,248.556894 211.877225,258.438852 217.950686,264.51471 C220.886752,267.453173 224.800707,269.071005 228.966325,269.071005 C233.13434,269.071005 237.045898,267.453173 239.984361,264.51471 L263.710168,240.788903 C266.200431,238.29864 269.507999,236.930074 273.031278,236.930074 C276.554557,236.930074 279.864522,238.29864 282.352388,240.788903 C284.842651,243.276769 286.211217,246.586734 286.211217,250.110013 C286.211217,253.630895 284.842651,256.940859 282.352388,259.428726 Z M231.748996,225.773024 L227.935706,232.129307 L229.999341,234.192941 L236.353227,230.379651 L231.748996,225.773024 Z M241.67889,211.974714 L231.509318,222.146683 L232.355384,222.99275 L239.135898,229.770867 L239.981964,230.61933 L250.151537,220.452154 L241.67889,211.974714 Z M251.846066,296.715561 L256.929654,291.631973 L251.846066,286.548385 L246.762478,291.631973 L248.457008,293.326502 L251,290.78351 C251.467374,290.316136 252.224759,290.316136 252.694529,290.78351 C253.161903,291.253281 253.161903,292.010666 252.694529,292.478039 L250.151537,295.021032 L251.846066,296.715561 Z M250.151537,206.891126 L245.067949,211.974714 L250.151537,217.060699 L255.235125,211.974714 L250.151537,206.891126 Z M285.743843,262.817784 L276.523399,272.038229 L271.998262,279.580922 L273.031278,280.613937 C273.498652,281.081311 273.498652,281.841093 273.031278,282.308467 L261.167176,294.172569 C260.941878,294.397867 260.637486,294.524897 260.318713,294.524897 C260.002337,294.524897 259.697945,294.397867 259.472647,294.172569 L258.624184,293.326502 L252.694529,299.256157 C252.459644,299.491042 252.152855,299.608485 251.846066,299.608485 C251.539277,299.608485 251.232488,299.491042 251,299.256157 L244.221883,292.478039 C243.752112,292.010666 243.752112,291.253281 244.221883,290.78351 L250.151537,284.853856 L249.305471,284.002996 C248.8357,283.535622 248.8357,282.778237 249.305471,282.308467 L261.169573,270.446761 C261.636946,269.979388 262.396728,269.979388 262.864102,270.446761 L263.897118,271.479777 L271.439811,266.954641 L280.657858,257.734196 C282.692732,255.699323 283.814429,252.990952 283.814429,250.110013 C283.814429,247.226676 282.692732,244.520702 280.657858,242.483432 C278.620588,240.446162 275.912218,239.326862 273.031278,239.326862 C270.150339,239.326862 267.441968,240.446162 265.407094,242.483432 L241.67889,266.20924 C238.289832,269.600695 233.774282,271.467793 228.966325,271.467793 C224.160765,271.467793 219.645215,269.600695 216.256157,266.20924 C209.247948,259.201031 209.247948,247.797112 216.256157,240.788903 L225.474205,231.568458 L229.999341,224.025765 L228.966325,222.99275 C228.498951,222.525376 228.498951,221.765594 228.966325,221.29822 L240.832824,209.434118 C241.055725,209.20882 241.360117,209.08179 241.67889,209.08179 C241.997663,209.08179 242.302055,209.20882 242.527353,209.434118 L243.37342,210.280185 L249.305471,204.35053 C249.772844,203.883157 250.530229,203.883157 251,204.35053 L257.778117,211.128648 C258.245491,211.596021 258.245491,212.355803 257.778117,212.823177 L251.846066,218.755228 L252.694529,219.603691 C253.161903,220.071065 253.161903,220.830847 252.694529,221.29822 L240.830427,233.159926 C240.595542,233.394811 240.288753,233.512254 239.981964,233.512254 C239.675175,233.512254 239.368386,233.394811 239.135898,233.159926 L238.102882,232.129307 L230.557793,236.652046 L221.342142,245.872491 C219.304871,247.909761 218.183175,250.618132 218.183175,253.499071 C218.183175,256.380011 219.304871,259.088382 221.342142,261.123255 C223.377015,263.160525 226.085386,264.282222 228.966325,264.282222 C231.849661,264.282222 234.555635,263.160525 236.592906,261.123255 L260.318713,237.397447 C263.710168,234.005992 268.223321,232.141291 273.031278,232.141291 C277.839235,232.141291 282.354785,234.005992 285.743843,237.397447 C292.752052,244.408053 292.752052,255.811972 285.743843,262.817784 Z M244.220924,221.29846 L240.831865,217.907005 C240.364492,217.439631 240.364492,216.679849 240.831865,216.212475 C241.299239,215.745102 242.059021,215.745102 242.526395,216.212475 L245.915453,219.603931 C246.382827,220.071304 246.382827,220.831086 245.915453,221.29846 C245.680568,221.533345 245.373779,221.648391 245.069387,221.648391 C244.762598,221.648391 244.455809,221.533345 244.220924,221.29846 Z M251.062556,212.774043 C250.825274,213.04488 250.494517,213.183894 250.161364,213.183894 C249.88094,213.183894 249.600515,213.085625 249.37282,212.886692 C248.874288,212.450476 248.814369,211.685901 249.250584,211.187369 C249.689196,210.688837 250.434598,210.62652 250.930733,211.06753 L250.949907,211.084307 C251.448439,211.520522 251.501168,212.275511 251.062556,212.774043 Z M257.777878,282.308946 L261.166936,285.700401 C261.63431,286.167775 261.63431,286.927557 261.166936,287.394931 C260.932051,287.629816 260.625262,287.747259 260.32087,287.747259 C260.014081,287.747259 259.707292,287.629816 259.472407,287.394931 L256.083348,284.003475 C255.615975,283.536102 255.615975,282.77632 256.083348,282.308946 C256.550722,281.841572 257.310504,281.841572 257.777878,282.308946 Z" id="icon-section-integration"></path>
        </g>
    </g>
</svg>