<?xml version="1.0" encoding="UTF-8"?>
<svg width="60px" height="86px" viewBox="0 0 60 86" version="1.1" xmlns="http://www.w3.org/2000/svg" xmlns:xlink="http://www.w3.org/1999/xlink">
    <!-- Generator: Sketch 53.2 (72643) - https://sketchapp.com -->
    <title>icon-section-time-white</title>
    <desc>Created with Sketch.</desc>
    <g id="Features" stroke="none" stroke-width="1" fill="none" fill-rule="evenodd">
        <g id="Artboard-Copy" transform="translate(-121.000000, -209.000000)" fill="#FFFFFF">
            <path d="M137.279001,225.276794 L151.000946,240.537766 L164.719737,225.276794 L137.279001,225.276794 Z M152.199369,244.035269 C151.89661,244.375874 151.458239,244.571406 151.000946,244.571406 C150.540499,244.571406 150.102129,244.375874 149.799369,244.035269 L132.453771,224.740657 C132.024862,224.267595 131.917635,223.586386 132.179396,222.99979 C132.438003,222.419501 133.015138,222.044205 133.655348,222.044205 L168.346544,222.044205 C168.983601,222.044205 169.560736,222.419501 169.819343,222.99979 C170.081104,223.586386 169.973876,224.267595 169.544967,224.740657 L152.199369,244.035269 Z M156.284731,264.211984 L169.375926,278.328147 C169.653456,278.624599 169.962523,279.16389 169.962523,279.570723 L169.962523,286.307122 C169.962523,287.199632 169.237162,287.924993 168.344652,287.924993 C167.452142,287.924993 166.729934,287.199632 166.729934,286.307122 L166.729934,280.226702 L153.913114,266.410145 C153.307595,265.754166 153.34544,264.732352 153.998265,264.126833 C154.654244,263.524468 155.679212,263.559159 156.284731,264.211984 Z M167.08883,290.997372 L173.036794,290.997372 L173.036794,279.571353 C173.036794,278.284625 172.500657,277.038896 171.560841,276.155848 L150.998423,253.991327 L130.514849,276.080158 L130.439159,276.155848 C129.499343,277.038896 128.963206,278.284625 128.963206,279.571353 L128.963206,290.997372 L134.908016,290.997372 L150.055453,278.855453 C150.59159,278.432852 151.348489,278.426544 151.884625,278.855453 L167.08883,290.997372 Z M139.588173,290.997372 L162.396058,290.997372 L150.973193,281.873587 L139.588173,290.997372 Z M128.963206,223.658607 C128.963206,224.948489 129.499343,226.191064 130.439159,227.074113 L150.998423,249.241787 L171.485151,227.152957 L171.560841,227.074113 C172.500657,226.191064 173.036794,224.948489 173.036794,223.658607 L173.036794,212.232589 L128.963206,212.232589 L128.963206,223.658607 Z M179.382129,290.997372 C180.277792,290.997372 181,291.71958 181,292.615243 C181,293.507753 180.277792,294.229961 179.382129,294.229961 L174.651511,294.229961 L127.345335,294.229961 L122.614717,294.229961 C121.722208,294.229961 121,293.507753 121,292.615243 C121,291.71958 121.722208,290.997372 122.614717,290.997372 L125.730618,290.997372 L125.730618,279.571353 C125.730618,277.414192 126.623127,275.329566 128.181078,273.844152 L148.793955,251.616557 L128.143233,229.351117 C126.638896,227.938239 125.730618,225.834691 125.730618,223.658607 L125.730618,212.232589 L122.614717,212.232589 C121.722208,212.232589 121,211.510381 121,210.617871 C121,209.722208 121.722208,209 122.614717,209 L127.345335,209 L174.651511,209 L179.382129,209 C180.277792,209 181,209.722208 181,210.617871 C181,211.510381 180.277792,212.232589 179.382129,212.232589 L176.269382,212.232589 L176.269382,223.658607 C176.269382,225.815769 175.376873,227.900394 173.818922,229.388962 L153.206045,251.616557 L173.856767,273.878844 C175.361104,275.294875 176.269382,277.398423 176.269382,279.571353 L176.269382,290.997372 L179.382129,290.997372 Z" id="icon-section-time"></path>
        </g>
    </g>
</svg>