<?xml version="1.0" encoding="UTF-8"?>
<svg width="200px" height="239px" viewBox="0 0 200 239" version="1.1" xmlns="http://www.w3.org/2000/svg" xmlns:xlink="http://www.w3.org/1999/xlink">
    <!-- Generator: Sketch 53.2 (72643) - https://sketchapp.com -->
    <title>icon-large-connectors</title>
    <desc>Created with Sketch.</desc>
    <g id="Symbols" stroke="none" stroke-width="1" fill="none" fill-rule="evenodd">
        <g id="Website-Parts-/-Connectors-Banner" transform="translate(-937.000000, -92.000000)" fill="#FFFFFF">
            <g id="Icons/FrontPage/Connectors" transform="translate(937.000000, 92.000000)">
                <path d="M148.127509,184.584157 L157.660735,168.699443 L152.495656,163.534364 L136.610941,173.067589 L148.127509,184.584157 Z M123.296782,219.079933 L148.726706,193.656001 L146.605549,191.534843 L129.660255,174.58955 L127.539098,172.474384 L102.115166,197.892324 L123.296782,219.079933 Z M178.38097,138.571814 L157.199353,159.759422 L161.435676,163.995746 L182.623285,142.808137 C197.806939,127.624483 197.806939,102.919588 182.623285,87.7299419 C175.277129,80.3837857 165.49224,76.3451974 155.078195,76.3451974 C144.66415,76.3451974 134.879262,80.3837857 127.533106,87.7299419 L68.2185871,147.04446 C61.9989214,153.270118 53.7240098,156.697525 44.9158128,156.697525 C36.1136078,156.697525 27.8386961,153.270118 21.6190305,147.04446 C15.3933729,140.824795 11.9659656,132.549883 11.9659656,123.747678 C11.9659656,114.939481 15.3933729,106.664569 21.6190305,100.444904 L42.8006471,79.2572952 L38.5643238,75.0209719 L17.3767152,96.2085805 C2.1930613,111.392234 2.1930613,136.09713 17.3767152,151.286776 C24.7168794,158.632932 34.5017676,162.677512 44.9158128,162.677512 C55.33585,162.677512 65.1147462,158.632932 72.4609024,151.286776 L131.775421,91.9722572 C138.001079,85.7465996 146.269998,82.3251843 155.078195,82.3251843 C163.886392,82.3251843 172.161304,85.7465996 178.38097,91.9722572 C184.606627,98.1919228 188.028042,106.466834 188.028042,115.275031 C188.028042,124.077237 184.606627,132.352148 178.38097,138.571814 Z M51.8724909,54.4325604 L42.3392654,70.3232668 L47.4983522,75.4823536 L63.3830667,65.9491282 L51.8724909,54.4325604 Z M76.6972257,19.9367847 L51.2732938,45.3667086 L53.3884595,47.4818743 L70.3397447,64.4271676 L72.4549104,66.5483252 L97.8788424,41.1303853 L76.6972257,19.9367847 Z M102.115166,231.788903 L114.824136,219.079933 L102.115166,206.370963 L89.4061957,219.079933 L93.642519,223.316256 L100,216.958775 C101.168434,215.790341 103.061897,215.790341 104.236323,216.958775 C105.404758,218.133202 105.404758,220.026664 104.236323,221.195099 L97.8788424,227.55258 L102.115166,231.788903 Z M97.8788424,7.22781473 L85.1698724,19.9367847 L97.8788424,32.6517467 L110.587812,19.9367847 L97.8788424,7.22781473 Z M186.859608,147.04446 L163.808497,170.095572 L152.495656,188.952304 L155.078195,191.534843 C156.24663,192.703278 156.24663,194.602732 155.078195,195.771167 L125.41794,225.431422 C124.854695,225.994667 124.093714,226.312242 123.296782,226.312242 C122.505842,226.312242 121.744862,225.994667 121.181617,225.431422 L119.060459,223.316256 L104.236323,238.140392 C103.64911,238.727605 102.882138,239.021212 102.115166,239.021212 C101.348193,239.021212 100.581221,238.727605 100,238.140392 L83.0547067,221.195099 C81.8802804,220.026664 81.8802804,218.133202 83.0547067,216.958775 L97.8788424,202.13464 L95.7636767,200.00749 C94.5892504,198.839056 94.5892504,196.945593 95.7636767,195.771167 L125.423932,166.116903 C126.592366,164.948469 128.491821,164.948469 129.660255,166.116903 L132.242795,168.699443 L151.099527,157.386602 L174.144646,134.33549 C179.231829,129.248307 182.036072,122.47738 182.036072,115.275031 C182.036072,108.066691 179.231829,101.301756 174.144646,96.2085805 C169.051471,91.1154054 162.280544,88.317155 155.078195,88.317155 C147.875846,88.317155 141.104919,91.1154054 136.017736,96.2085805 L76.6972257,155.523099 C68.2245791,164.001738 56.9357062,168.669483 44.9158128,168.669483 C32.9019114,168.669483 21.6130385,164.001738 13.1403919,155.523099 C-4.38013062,138.002577 -4.38013062,109.49278 13.1403919,91.9722572 L36.1855114,68.9211457 L47.4983522,50.0644137 L44.9158128,47.4818743 C43.7473785,46.31344 43.7473785,44.4139853 44.9158128,43.245551 L74.58206,13.5852957 C75.1393133,13.0220505 75.9002936,12.704476 76.6972257,12.704476 C77.4941578,12.704476 78.2551381,13.0220505 78.8183834,13.5852957 L80.933549,15.7004614 L95.7636767,0.876325724 C96.932111,-0.292108575 98.8255737,-0.292108575 100,0.876325724 L116.945293,17.821619 C118.113728,18.9900533 118.113728,20.8895081 116.945293,22.0579424 L102.115166,36.88807 L104.236323,39.0092276 C105.404758,40.1776619 105.404758,42.0771167 104.236323,43.245551 L74.5760681,72.8998142 C73.9888549,73.4870274 73.2218827,73.780634 72.4549104,73.780634 C71.6879382,73.780634 70.9209659,73.4870274 70.3397447,72.8998142 L67.7572053,70.3232668 L48.8944814,81.6301156 L25.8553538,104.681227 C20.7621787,109.774402 17.9579364,116.545329 17.9579364,123.747678 C17.9579364,130.950027 20.7621787,137.720954 25.8553538,142.808137 C30.942537,147.901312 37.713464,150.705555 44.9158128,150.705555 C52.1241536,150.705555 58.8890886,147.901312 63.9822638,142.808137 L123.296782,83.4936186 C131.775421,75.0149799 143.058302,70.3532267 155.078195,70.3532267 C167.098089,70.3532267 178.386961,75.0149799 186.859608,83.4936186 C204.380131,101.020133 204.380131,129.52993 186.859608,147.04446 Z M83.0523099,43.2461502 L74.5796633,34.7675115 C73.411229,33.5990772 73.411229,31.6996225 74.5796633,30.5311882 C75.7480975,29.3627539 77.6475523,29.3627539 78.8159866,30.5311882 L87.2886332,39.0098268 C88.4570675,40.1782611 88.4570675,42.0777159 87.2886332,43.2461502 C86.7014201,43.8333633 85.9344478,44.1209779 85.1734676,44.1209779 C84.4064953,44.1209779 83.639523,43.8333633 83.0523099,43.2461502 Z M100.15639,21.935107 C99.5631853,22.6121997 98.7362934,22.959734 97.9034094,22.959734 C97.2023489,22.959734 96.5012883,22.7140632 95.9320511,22.2167296 C94.6857211,21.1261909 94.5359219,19.2147522 95.6264605,17.9684223 C96.7229912,16.7220924 98.5864941,16.5663012 99.826832,17.6688238 L99.8747678,17.7107676 C101.121098,18.8013062 101.252921,20.688777 100.15639,21.935107 Z M116.944694,195.772365 L125.417341,204.251004 C126.585775,205.419438 126.585775,207.318893 125.417341,208.487327 C124.830128,209.07454 124.063155,209.368147 123.302175,209.368147 C122.535203,209.368147 121.768231,209.07454 121.181017,208.487327 L112.708371,200.008688 C111.539936,198.840254 111.539936,196.940799 112.708371,195.772365 C113.876805,194.603931 115.77626,194.603931 116.944694,195.772365 Z" id="Combined-Shape"></path>
            </g>
        </g>
    </g>
</svg>