<?xml version="1.0" encoding="UTF-8"?>
<svg width="85px" height="80px" viewBox="0 0 85 80" version="1.1" xmlns="http://www.w3.org/2000/svg" xmlns:xlink="http://www.w3.org/1999/xlink">
    <!-- Generator: Sketch 53.2 (72643) - https://sketchapp.com -->
    <title>icon-section-education</title>
    <desc>Created with Sketch.</desc>
    <g id="Features" stroke="none" stroke-width="1" fill="none" fill-rule="evenodd">
        <g id="Artboard" transform="translate(-708.000000, -212.000000)" fill="#505050">
            <path d="M750.5,262.963832 L789.143582,238.941345 L750.5,214.916172 L711.856418,238.941345 L729.701283,250.033813 L741.122314,242.382723 C741.731083,241.971692 742.551597,242.143627 742.953914,242.761517 C743.358878,243.382093 743.189481,244.214901 742.580712,244.623246 L732.194588,251.583911 L750.5,262.963832 Z M782.261848,259.675583 L782.261848,246.36677 L751.19082,265.685234 C750.979075,265.816871 750.740861,265.881347 750.5,265.881347 C750.259139,265.881347 750.020925,265.816871 749.80918,265.685234 L731.048515,254.023233 L731.048515,271.087741 C736.069534,274.158386 742.551597,276.638005 750.5,276.638005 C769.850906,276.638005 780.665816,262.004759 782.261848,259.675583 Z M718.738152,259.675583 C719.558666,260.871065 722.819549,265.301068 728.401694,269.336158 L728.401694,252.376422 L718.738152,246.36677 L718.738152,259.675583 Z M793,238.941345 C793,239.406106 792.759139,239.844002 792.364763,240.085785 L784.908669,244.722646 L784.908669,260.0893 C784.908669,260.341829 784.839852,260.591672 784.704864,260.80659 C784.231083,261.564177 772.905337,279.324483 750.5,279.324483 C742.64953,279.324483 736.191287,277.126944 731.048515,274.260472 L731.048515,280.192215 C731.048515,280.933683 730.458274,281.535454 729.725104,281.535454 C728.994582,281.535454 728.401694,280.933683 728.401694,280.192215 L728.401694,272.659331 C720.614747,267.533531 716.573052,261.249859 716.295136,260.80659 C716.160148,260.591672 716.091331,260.341829 716.091331,260.0893 L716.091331,244.722646 L708.635237,240.085785 C708.240861,239.844002 708,239.406106 708,238.941345 C708,238.473898 708.240861,238.038688 708.635237,237.794219 L749.80918,212.197456 C750.232671,211.934181 750.767329,211.934181 751.19082,212.197456 L792.364763,237.794219 C792.759139,238.038688 793,238.473898 793,238.941345 Z M729.936156,285.017871 C730.677351,285.017871 731.278902,285.622428 731.278902,286.367329 L731.278902,289.983876 C731.278902,290.728776 730.677351,291.333333 729.936156,291.333333 C729.19496,291.333333 728.59341,290.728776 728.59341,289.983876 L728.59341,286.367329 C728.59341,285.622428 729.19496,285.017871 729.936156,285.017871 Z M747.998154,237.749069 C748.621808,237.377696 749.471502,237.534444 749.882732,238.091503 C750.299409,238.64615 750.125113,239.396129 749.498736,239.760267 L746.206171,241.684652 C745.974684,241.819696 745.71324,241.884807 745.454519,241.884807 C745.013332,241.884807 744.580314,241.694298 744.31887,241.342217 C743.904917,240.78757 744.079213,240.037591 744.70559,239.673453 L747.998154,237.749069 Z" id="icon-section-education"></path>
        </g>
    </g>
</svg>