<?xml version="1.0" encoding="UTF-8"?>
<svg width="90px" height="80px" viewBox="0 0 90 80" version="1.1" xmlns="http://www.w3.org/2000/svg" xmlns:xlink="http://www.w3.org/1999/xlink">
    <!-- Generator: Sketch 53.2 (72643) - https://sketchapp.com -->
    <title>icon-section-facilities-white</title>
    <desc>Created with Sketch.</desc>
    <g id="Features" stroke="none" stroke-width="1" fill="none" fill-rule="evenodd">
        <g id="Artboard-Copy" transform="translate(-206.000000, -110.000000)" fill="#FFFFFF">
            <path d="M278.620321,177.566667 C281.569519,177.566667 283.967914,175.168271 283.967914,172.219073 C283.967914,169.269875 281.569519,166.87148 278.620321,166.87148 C275.671123,166.87148 273.272727,169.269875 273.272727,172.219073 C273.272727,175.168271 275.671123,177.566667 278.620321,177.566667 Z M278.620321,164.197683 C283.042781,164.197683 286.641711,167.796613 286.641711,172.219073 C286.641711,176.641533 283.042781,180.240464 278.620321,180.240464 C274.197861,180.240464 270.59893,176.641533 270.59893,172.219073 C270.59893,167.796613 274.197861,164.197683 278.620321,164.197683 Z M293.326203,174.091266 L293.326203,170.34795 L292.139037,170.34795 C291.518717,170.34795 290.981283,169.920143 290.836898,169.318538 C290.529412,168.019073 290.013369,166.778431 289.307487,165.634046 C288.983957,165.107308 289.061497,164.42549 289.5,163.986988 L290.342246,163.142068 L287.697861,160.497683 L286.852941,161.337255 C286.411765,161.781105 285.729947,161.855972 285.205882,161.532442 C284.061497,160.82656 282.820856,160.310517 281.52139,160.000357 C280.917112,159.858645 280.491979,159.321212 280.491979,158.700891 L280.491979,157.513726 L276.748663,157.513726 L276.748663,158.700891 C276.748663,159.321212 276.323529,159.858645 275.719251,160.000357 C274.419786,160.310517 273.179144,160.82656 272.034759,161.532442 C271.513369,161.855972 270.831551,161.781105 270.387701,161.337255 L269.542781,160.497683 L266.898396,163.142068 L267.740642,163.986988 C267.745989,163.992335 267.743316,163.997683 267.748663,164.00303 C267.951872,164.203565 268.050802,164.457576 268.093583,164.719608 C268.09893,164.754367 268.109626,164.783779 268.112299,164.815865 C268.141711,165.091266 268.082888,165.355972 267.941176,165.601961 C267.935829,165.612656 267.938503,165.623351 267.933155,165.634046 C267.227273,166.778431 266.71123,168.019073 266.403743,169.318538 C266.259358,169.920143 265.721925,170.34795 265.101604,170.34795 L263.914439,170.34795 L263.914439,174.091266 L265.101604,174.091266 C265.721925,174.091266 266.259358,174.516399 266.403743,175.120677 C266.71123,176.420143 267.227273,177.660784 267.933155,178.805169 C268.256684,179.331907 268.179144,180.013726 267.740642,180.452228 L266.898396,181.294474 L269.542781,183.941533 L270.387701,183.099287 C270.831551,182.660784 271.513369,182.585918 272.034759,182.906774 C273.179144,183.612656 274.419786,184.128699 275.719251,184.436185 C276.323529,184.58057 276.748663,185.118004 276.748663,185.735651 L276.748663,186.92549 L280.491979,186.92549 L280.491979,185.735651 C280.491979,185.118004 280.917112,184.58057 281.52139,184.436185 C282.820856,184.128699 284.061497,183.612656 285.205882,182.906774 C285.729947,182.585918 286.411765,182.660784 286.852941,183.099287 L287.697861,183.941533 L290.342246,181.294474 L289.5,180.452228 C289.061497,180.013726 288.983957,179.331907 289.307487,178.805169 C290.013369,177.660784 290.529412,176.420143 290.836898,175.120677 C290.981283,174.516399 291.518717,174.091266 292.139037,174.091266 L293.326203,174.091266 Z M247.871658,158.850624 C248.227273,158.850624 248.566845,158.992335 248.818182,159.240998 L261.240642,171.666132 L261.240642,169.011052 C261.240642,168.818538 261.283422,168.639394 261.355615,168.473619 L250.671123,157.789127 C250.149733,157.267736 250.149733,156.422816 250.671123,155.898752 C251.192513,155.377362 252.040107,155.377362 252.561497,155.898752 L264.157754,167.495009 C264.417112,166.69287 264.735294,165.909447 265.125668,165.160784 L254.013369,154.045811 C253.762032,153.794474 253.620321,153.454902 253.620321,153.099287 L253.620321,147.505704 L253.058824,146.944207 L249.312834,150.69287 C249.299465,150.706239 249.296791,150.722282 249.283422,150.735651 L245.502674,154.516399 C245.491979,154.527095 245.475936,154.529768 245.467914,154.540464 L241.716578,158.2918 L242.275401,158.850624 L247.871658,158.850624 Z M231.532086,163.810517 C231.286096,163.299822 231.393048,162.687522 231.791444,162.286453 L241.59893,152.505704 L239.697861,150.599287 L230.877005,159.422816 C230.614973,159.682175 230.272727,159.813191 229.930481,159.813191 C229.588235,159.813191 229.245989,159.682175 228.986631,159.422816 C228.462567,158.898752 228.462567,158.053832 228.986631,157.532442 L237.807487,148.708913 L235.925134,146.829234 L225.580214,157.174153 C225.235294,157.521747 224.727273,157.647415 224.254011,157.511052 C222.914439,157.109982 221.786096,156.92549 220.705882,156.92549 C214.069519,156.92549 208.673797,162.323886 208.673797,168.957576 C208.673797,173.013726 210.716578,176.743672 214.02139,178.952228 L214.02139,169.438859 C214.02139,168.96025 214.278075,168.519073 214.692513,168.278431 L220.040107,165.203565 C220.451872,164.968271 220.959893,164.968271 221.371658,165.203565 L226.719251,168.278431 C227.13369,168.519073 227.390374,168.96025 227.390374,169.438859 L227.390374,178.941533 C230.692513,176.716934 232.737968,172.989661 232.737968,168.957576 C232.737968,167.219608 232.331551,165.486988 231.532086,163.810517 Z M220.796791,128.297148 C221.082888,128.339929 221.350267,128.470945 221.553476,128.676827 L244.550802,151.67148 L246.441176,149.781105 L246.342246,149.682175 C246.331551,149.674153 246.320856,149.668806 246.31016,149.660784 C246.299465,149.652763 246.299465,149.639394 246.28877,149.631373 L242.566845,145.906774 C242.558824,145.898752 242.550802,145.898752 242.542781,145.890731 C242.534759,145.882709 242.534759,145.874688 242.526738,145.866667 L223.44385,126.786453 C223.240642,126.58057 223.106952,126.315865 223.066845,126.027095 L222.526738,122.246346 L214.513369,117.441533 L212.208556,119.743672 L217.018717,127.759715 L220.796791,128.297148 Z M254.323529,128.430838 L241.596257,141.158111 L243.489305,143.053832 L253.585561,132.957576 C254.106952,132.436185 254.951872,132.436185 255.475936,132.957576 C255.997326,133.48164 255.997326,134.32656 255.475936,134.84795 L245.379679,144.944207 L247.259358,146.821212 L259.438503,134.668806 C259.84492,134.267736 260.446524,134.160784 260.962567,134.406774 C262.601604,135.190196 264.320856,135.588592 266.080214,135.588592 C272.713904,135.588592 278.112299,130.190196 278.112299,123.556506 C278.112299,119.511052 276.066845,115.789127 272.764706,113.585918 L272.764706,123.075223 C272.764706,123.553832 272.510695,123.992335 272.09893,124.232977 L266.751337,127.334581 C266.331551,127.575223 265.826203,127.575223 265.409091,127.334581 L260.061497,124.232977 C259.647059,123.992335 259.395722,123.553832 259.395722,123.075223 L259.395722,113.585918 C256.090909,115.7918 254.048128,119.513726 254.048128,123.556506 C254.048128,124.674153 254.245989,125.821212 254.649733,127.072549 C254.804813,127.551159 254.679144,128.075223 254.323529,128.430838 Z M294.663102,167.674153 C295.40107,167.674153 296,168.27041 296,169.011052 L296,175.428164 C296,176.166132 295.40107,176.765062 294.663102,176.765062 L293.157754,176.765062 C292.885027,177.631373 292.534759,178.476292 292.112299,179.281105 L293.176471,180.350624 C293.700535,180.872014 293.700535,181.719608 293.176471,182.240998 L288.641711,186.775758 C288.120321,187.297148 287.272727,187.297148 286.751337,186.775758 L285.684492,185.711586 C284.877005,186.134046 284.032086,186.484314 283.165775,186.754367 L283.165775,188.262389 C283.165775,189.000357 282.569519,189.599287 281.828877,189.599287 L275.411765,189.599287 C274.671123,189.599287 274.074866,189.000357 274.074866,188.262389 L274.074866,186.754367 C273.208556,186.484314 272.363636,186.134046 271.55615,185.711586 L270.489305,186.775758 C269.967914,187.297148 269.120321,187.297148 268.59893,186.775758 L264.064171,182.240998 C263.540107,181.719608 263.540107,180.872014 264.064171,180.350624 L265.101604,179.307843 L262.553476,176.759715 C261.836898,176.746346 261.259358,176.168806 261.245989,175.452228 L247.318182,161.524421 L241.721925,161.524421 C241.36631,161.524421 241.026738,161.382709 240.778075,161.131373 L238.879679,159.232977 C238.836898,159.19287 238.818182,159.13672 238.786096,159.093939 L234.331551,163.535116 C235.048128,165.302496 235.411765,167.123351 235.411765,168.957576 C235.411765,174.765062 231.951872,180.051159 226.596257,182.42549 C226.42246,182.50303 226.235294,182.540464 226.053476,182.540464 C225.796791,182.540464 225.542781,182.468271 225.323529,182.323886 C224.946524,182.077897 224.716578,181.655437 224.716578,181.203565 L224.716578,170.211586 L220.705882,167.906774 L216.695187,170.211586 L216.695187,181.203565 C216.695187,181.655437 216.467914,182.075223 216.088235,182.323886 C215.713904,182.569875 215.229947,182.609982 214.823529,182.428164 C209.462567,180.08057 206,174.794474 206,168.957576 C206,160.850624 212.59893,154.251693 220.705882,154.251693 C221.828877,154.251693 222.967914,154.406774 224.240642,154.732977 L234.034759,144.938859 L219.97861,130.882709 L216.010695,130.315865 C215.612299,130.257041 215.259358,130.027095 215.053476,129.679501 L209.379679,120.224955 C209.061497,119.698218 209.147059,119.024421 209.580214,118.591266 L213.363636,114.810517 C213.799465,114.374688 214.47861,114.297148 214.994652,114.609982 L224.446524,120.281105 C224.794118,120.486988 225.026738,120.839929 225.085561,121.238324 L225.649733,125.211586 L239.705882,139.267736 L251.868984,127.104635 C251.534759,125.880036 251.374332,124.708913 251.374332,123.556506 C251.374332,117.732977 254.834225,112.454902 260.195187,110.112656 C260.612299,109.933512 261.085561,109.973619 261.462567,110.219608 C261.842246,110.465597 262.069519,110.885383 262.069519,111.337255 L262.069519,122.305169 L266.080214,124.631373 L270.090909,122.305169 L270.090909,111.337255 C270.090909,110.885383 270.318182,110.465597 270.695187,110.219608 C271.072193,109.970945 271.545455,109.930838 271.962567,110.112656 C277.323529,112.454902 280.786096,117.732977 280.786096,123.556506 C280.786096,131.663458 274.187166,138.262389 266.080214,138.262389 C264.23262,138.262389 262.419786,137.906774 260.681818,137.203565 L253.860963,144.011052 C253.909091,144.048485 253.962567,144.067201 254.005348,144.107308 L255.903743,146.005704 C256.15508,146.257041 256.294118,146.596613 256.294118,146.952228 L256.294118,152.545811 L265.002674,161.257041 L268.59893,157.660784 C269.120321,157.139394 269.967914,157.139394 270.489305,157.660784 L271.55615,158.727629 C272.363636,158.305169 273.208556,157.954902 274.074866,157.682175 L274.074866,156.176827 C274.074866,155.436185 274.671123,154.839929 275.411765,154.839929 L281.828877,154.839929 C282.569519,154.839929 283.165775,155.436185 283.165775,156.176827 L283.165775,157.682175 C284.032086,157.954902 284.877005,158.305169 285.684492,158.727629 L286.751337,157.660784 C287.272727,157.139394 288.120321,157.139394 288.641711,157.660784 L293.176471,162.198218 C293.700535,162.719608 293.700535,163.564528 293.176471,164.088592 L292.112299,165.155437 C292.534759,165.962923 292.885027,166.805169 293.157754,167.674153 L294.663102,167.674153 Z" id="icon-section-facilities"></path>
        </g>
    </g>
</svg>