<?xml version="1.0" encoding="UTF-8"?>
<svg width="99px" height="66px" viewBox="0 0 99 66" version="1.1" xmlns="http://www.w3.org/2000/svg" xmlns:xlink="http://www.w3.org/1999/xlink">
    <!-- Generator: Sketch 54.1 (76490) - https://sketchapp.com -->
    <title>icon-section-elephant-white</title>
    <desc>Created with Sketch.</desc>
    <g id="Graphics" stroke="none" stroke-width="1" fill="none" fill-rule="evenodd">
        <g id="Artboard-Copy" transform="translate(0.000000, -417.000000)" fill="#FFFFFF">
            <path d="M16.124375,433.207813 C17.59625,431.735938 19.980625,431.735938 21.4525,433.207813 C22.0775,433.832813 22.0775,434.845313 21.4525,435.473438 C21.14,435.782813 20.730625,435.942188 20.32125,435.942188 C19.911875,435.942188 19.499375,435.782813 19.186875,435.473438 C18.999375,435.282813 18.5775,435.282813 18.39,435.473438 C17.765,436.095313 16.74625,436.095313 16.124375,435.473438 C15.499375,434.845313 15.499375,433.832813 16.124375,433.207813 Z M97.08125,456.196563 C97.959375,456.290313 98.596875,457.077813 98.50625,457.955938 C98.4125,458.840313 97.625,459.471563 96.746875,459.384063 L94.93125,459.190313 C90.66875,458.740313 87.521875,453.802813 87.915625,448.180938 L88.19375,445.380938 C88.875,437.912188 86.834375,430.955938 82.590625,426.312188 C79.01875,422.399688 74.1125,420.327813 68.4125,420.327813 L43.965625,420.327813 C45.878125,422.037188 47.296875,424.315313 47.89375,426.993438 L48.715625,430.702813 C49.596875,434.662188 48.646875,438.749688 46.10625,441.912188 C43.56875,445.074688 39.7875,446.890313 35.73125,446.890313 C33.04375,446.890313 30.5375,445.684063 28.859375,443.580938 C27.18125,441.474688 26.5625,438.762188 27.1625,436.137188 L28.1,432.046563 C28.29375,431.190313 29.146875,430.649688 30.015625,430.846563 C30.878125,431.040313 31.415625,431.902813 31.21875,432.762188 L30.28125,436.852813 C29.903125,438.521563 30.296875,440.246563 31.3625,441.580938 C32.43125,442.921563 34.021875,443.687188 35.73125,443.687188 C38.8125,443.687188 41.68125,442.312188 43.6125,439.909063 C45.5375,437.509063 46.259375,434.402813 45.590625,431.396563 L44.76875,427.690313 C43.80625,423.355938 40.03125,420.327813 35.590625,420.327813 L32.8625,420.327813 L28.06875,420.327813 C14.35625,420.327813 3.203125,431.484063 3.203125,445.193438 L3.203125,457.227813 C3.203125,462.684063 7.64375,467.124688 13.1,467.124688 L17.725,467.124688 C18.309375,467.124688 18.75,466.684063 18.75,466.102813 L18.75,465.102813 C18.75,464.518438 18.309375,464.077813 17.725,464.077813 L15.103125,464.077813 C9.375,464.077813 9.375,457.415313 9.375,455.224688 C9.375,451.446563 12.446875,448.374688 16.225,448.374688 L18.53125,448.374688 C18.659375,447.762188 18.75,447.221563 18.75,446.852813 C18.75,445.968438 19.465625,445.249688 20.35,445.249688 C21.234375,445.249688 21.953125,445.968438 21.953125,446.852813 C21.953125,448.484063 21.109375,451.449688 20.28125,453.971563 C22.921875,452.130938 24.896875,450.340313 25.003125,449.568438 C25.003125,448.684063 25.715625,447.974688 26.6,447.974688 C27.484375,447.974688 28.203125,448.702813 28.203125,449.587188 C28.203125,449.890313 28.0875,450.209063 27.984375,450.527813 C32.24375,452.984063 35.1125,457.384063 35.56875,462.390313 L37.1625,477.021563 C37.30625,478.515313 38.515625,479.624688 39.978125,479.624688 L45.85,479.624688 C46.40625,479.624688 46.875,479.159063 46.875,478.602813 L46.875,472.034063 C46.86875,463.918438 46.865625,455.521563 56.303125,454.693438 C61.221875,454.262188 65.890625,455.846563 69.4875,459.143438 C73.040625,462.396563 75.078125,467.030938 75.078125,471.852813 L75.078125,477.630938 C75.078125,478.749688 75.953125,479.624688 77.071875,479.624688 L83.071875,479.624688 C83.9,479.624688 84.615625,478.971563 84.69375,478.137188 C84.709375,477.971563 84.753125,477.805938 84.81875,477.649688 C84.84375,477.590313 87.45,471.409063 86.496875,461.584063 C86.4125,460.699688 87.05625,459.918438 87.934375,459.834063 C88.84375,459.734063 89.6,460.393438 89.684375,461.271563 C90.63125,471.018438 88.359375,477.409063 87.85,478.696563 C87.5,481.034063 85.446875,482.827813 83.071875,482.827813 L77.071875,482.827813 C74.20625,482.827813 71.875,480.496563 71.875,477.630938 L71.875,471.852813 C71.875,467.927813 70.215625,464.155938 67.325,461.502813 C64.396875,458.821563 60.5875,457.521563 56.584375,457.884063 C50.371875,458.430938 50.071875,463.362188 50.078125,472.030938 L50.078125,478.602813 C50.078125,480.930938 48.18125,482.827813 45.85,482.827813 L39.978125,482.827813 C36.859375,482.827813 34.275,480.474688 33.978125,477.349688 L32.384375,462.712188 C32.0125,458.659063 29.678125,455.127813 26.221875,453.209063 C23.884375,455.671563 20.0625,458.024688 18.0125,459.184063 C17.76875,459.321563 17.496875,459.390313 17.225,459.390313 C16.85,459.390313 16.478125,459.255938 16.178125,458.999688 C15.66875,458.562188 15.490625,457.843438 15.73125,457.215313 C16.315625,455.696563 17.06875,453.562188 17.68125,451.577813 L16.225,451.577813 C14.2125,451.577813 12.578125,453.215313 12.578125,455.224688 C12.578125,459.290313 13.2875,460.874688 15.103125,460.874688 L17.725,460.874688 C20.09375,460.874688 21.953125,462.734063 21.953125,465.102813 L21.953125,466.102813 C21.953125,468.471563 20.09375,470.327813 17.725,470.327813 L13.1,470.327813 C5.875,470.327813 -1.20792265e-13,464.452813 -1.20792265e-13,457.227813 L-1.20792265e-13,445.193438 C-1.20792265e-13,429.715313 12.590625,417.124688 28.06875,417.124688 L32.8625,417.124688 L35.590625,417.124688 L68.4125,417.124688 C75.0375,417.124688 80.759375,419.552813 84.95625,424.152813 C89.803125,429.459063 92.14375,437.309063 91.38125,445.687188 L91.10625,448.449688 C90.840625,452.259063 92.740625,455.740313 95.265625,456.002813 L97.08125,456.196563 Z" id="icon-section-elephant"></path>
        </g>
    </g>
</svg>