<?xml version="1.0" encoding="UTF-8"?>
<svg width="80px" height="84px" viewBox="0 0 80 84" version="1.1" xmlns="http://www.w3.org/2000/svg" xmlns:xlink="http://www.w3.org/1999/xlink">
    <!-- Generator: Sketch 53.2 (72643) - https://sketchapp.com -->
    <title>icon-section-metrics</title>
    <desc>Created with Sketch.</desc>
    <g id="Features" stroke="none" stroke-width="1" fill="none" fill-rule="evenodd">
        <g id="Artboard" transform="translate(-610.000000, -210.000000)" fill="#505050">
            <path d="M686.923077,288.461538 L686.923077,214.615385 C686.923077,213.769231 686.230769,213.076923 685.384615,213.076923 L614.615385,213.076923 C613.769231,213.076923 613.076923,213.769231 613.076923,214.615385 L613.076923,288.461538 C613.076923,289.307692 613.769231,290 614.615385,290 L685.384615,290 C686.230769,290 686.923077,289.307692 686.923077,288.461538 Z M685.384615,210 C687.929231,210 690,212.070769 690,214.615385 L690,288.461538 C690,291.006154 687.929231,293.076923 685.384615,293.076923 L614.615385,293.076923 C612.070769,293.076923 610,291.006154 610,288.461538 L610,214.615385 C610,212.070769 612.070769,210 614.615385,210 L685.384615,210 Z M682.337846,216.153846 C683.187077,216.153846 683.876308,216.843077 683.876308,217.692308 C683.876308,218.541538 683.187077,219.230769 682.337846,219.230769 C681.488615,219.230769 680.784,218.541538 680.784,217.692308 C680.784,216.843077 681.457846,216.153846 682.307077,216.153846 L682.337846,216.153846 Z M676.184,219.230769 C675.334769,219.230769 674.630154,218.541538 674.630154,217.692308 C674.630154,216.843077 675.304,216.153846 676.153231,216.153846 L676.184,216.153846 C677.033231,216.153846 677.722462,216.843077 677.722462,217.692308 C677.722462,218.541538 677.033231,219.230769 676.184,219.230769 Z M670.030154,219.230769 C669.180923,219.230769 668.476308,218.541538 668.476308,217.692308 C668.476308,216.843077 669.150154,216.153846 669.999385,216.153846 L670.030154,216.153846 C670.879385,216.153846 671.568615,216.843077 671.568615,217.692308 C671.568615,218.541538 670.879385,219.230769 670.030154,219.230769 Z M634.615385,250 C641.403077,250 646.923077,244.48 646.923077,237.692308 C646.923077,236.753846 646.796923,235.846154 646.596923,234.969231 L640.707692,237.113846 C640.729231,237.304615 640.769231,237.495385 640.769231,237.692308 C640.769231,241.086154 638.009231,243.846154 634.615385,243.846154 C631.221538,243.846154 628.461538,241.086154 628.461538,237.692308 C628.461538,234.833846 630.430769,232.446154 633.076923,231.756923 L633.076923,225.541538 C627.021538,226.307692 622.307692,231.430769 622.307692,237.692308 C622.307692,244.48 627.827692,250 634.615385,250 Z M634.615385,234.615385 C632.916923,234.615385 631.538462,235.993846 631.538462,237.692308 C631.538462,239.390769 632.916923,240.769231 634.615385,240.769231 C636.313846,240.769231 637.692308,239.390769 637.692308,237.692308 C637.692308,235.993846 636.313846,234.615385 634.615385,234.615385 Z M645.510769,232.092308 C643.689231,228.566154 640.246154,226.058462 636.153846,225.541538 L636.153846,231.756923 C637.603077,232.132308 638.852308,233.012308 639.68,234.212308 L645.510769,232.092308 Z M649.129231,232.793846 C649.652308,234.341538 650,235.969231 650,237.692308 C650,246.175385 643.098462,253.076923 634.615385,253.076923 C626.132308,253.076923 619.230769,246.175385 619.230769,237.692308 C619.230769,229.209231 626.132308,222.307692 634.615385,222.307692 C641.172308,222.307692 646.741538,226.449231 648.953846,232.236923 C648.990769,232.304615 649.043077,232.356923 649.070769,232.430769 C649.116923,232.550769 649.113846,232.673846 649.129231,232.793846 Z M657.692308,231.538462 C656.843077,231.538462 656.153846,230.849231 656.153846,230 C656.153846,229.150769 656.843077,228.461538 657.692308,228.461538 L677.692308,228.461538 C678.541538,228.461538 679.230769,229.150769 679.230769,230 C679.230769,230.849231 678.541538,231.538462 677.692308,231.538462 L657.692308,231.538462 Z M657.692308,240.769231 C656.843077,240.769231 656.153846,240.08 656.153846,239.230769 C656.153846,238.381538 656.843077,237.692308 657.692308,237.692308 L671.024615,237.692308 C671.873846,237.692308 672.563077,238.381538 672.563077,239.230769 C672.563077,240.08 671.873846,240.769231 671.024615,240.769231 L657.692308,240.769231 Z M657.692308,250 C656.843077,250 656.153846,249.310769 656.153846,248.461538 C656.153846,247.612308 656.843077,246.923077 657.692308,246.923077 L676.024615,246.923077 C676.873846,246.923077 677.563077,247.612308 677.563077,248.461538 C677.563077,249.310769 676.873846,250 676.024615,250 L657.692308,250 Z M643.846154,260.769231 C644.695385,260.769231 645.384615,261.458462 645.384615,262.307692 C645.384615,263.156923 644.695385,263.846154 643.846154,263.846154 L622.307692,263.846154 C621.458462,263.846154 620.769231,263.156923 620.769231,262.307692 C620.769231,261.458462 621.458462,260.769231 622.307692,260.769231 L643.846154,260.769231 Z M622.307692,273.076923 C621.458462,273.076923 620.769231,272.387692 620.769231,271.538462 C620.769231,270.689231 621.458462,270 622.307692,270 L636.667692,270 C637.516923,270 638.206154,270.689231 638.206154,271.538462 C638.206154,272.387692 637.516923,273.076923 636.667692,273.076923 L622.307692,273.076923 Z M642.052308,279.230769 C642.901538,279.230769 643.590769,279.92 643.590769,280.769231 C643.590769,281.618462 642.901538,282.307692 642.052308,282.307692 L622.307692,282.307692 C621.458462,282.307692 620.769231,281.618462 620.769231,280.769231 C620.769231,279.92 621.458462,279.230769 622.307692,279.230769 L642.052308,279.230769 Z M679.230769,280.769231 C680.08,280.769231 680.769231,281.458462 680.769231,282.307692 C680.769231,283.156923 680.08,283.846154 679.230769,283.846154 L651.538462,283.846154 C650.689231,283.846154 650,283.156923 650,282.307692 L650,259.230769 C650,258.381538 650.689231,257.692308 651.538462,257.692308 C652.387692,257.692308 653.076923,258.381538 653.076923,259.230769 L653.076923,280.769231 L656.153846,280.769231 L656.153846,270 C656.153846,269.150769 656.843077,268.461538 657.692308,268.461538 C658.541538,268.461538 659.230769,269.150769 659.230769,270 L659.230769,280.769231 L662.307692,280.769231 L662.307692,263.846154 C662.307692,262.996923 662.996923,262.307692 663.846154,262.307692 C664.695385,262.307692 665.384615,262.996923 665.384615,263.846154 L665.384615,280.769231 L668.461538,280.769231 L668.461538,278.350769 C668.461538,277.501538 669.150769,276.812308 670,276.812308 C670.849231,276.812308 671.538462,277.501538 671.538462,278.350769 L671.538462,280.769231 L674.615385,280.769231 L674.615385,276.372308 C674.615385,275.523077 675.304615,274.833846 676.153846,274.833846 C677.003077,274.833846 677.692308,275.523077 677.692308,276.372308 L677.692308,280.769231 L679.230769,280.769231 Z" id="icon-section-metrics"></path>
        </g>
    </g>
</svg>