<?xml version="1.0" encoding="UTF-8"?>
<svg width="90px" height="74px" viewBox="0 0 90 74" version="1.1" xmlns="http://www.w3.org/2000/svg" xmlns:xlink="http://www.w3.org/1999/xlink">
    <!-- Generator: Sketch 53.2 (72643) - https://sketchapp.com -->
    <title>icon-section-compliance</title>
    <desc>Created with Sketch.</desc>
    <g id="Features" stroke="none" stroke-width="1" fill="none" fill-rule="evenodd">
        <path d="M3,58.203 L87,58.203 L87,3.003 L3,3.003 L3,58.203 Z M88.5,-2.13162821e-14 C89.328,-2.13162821e-14 90,0.672 90,1.5 L90,59.703 C90,60.531 89.328,61.203 88.5,61.203 L46.44,61.203 C46.458,61.302 46.5,61.395 46.5,61.5 L46.5,70.902 L67.401,70.902 C68.229,70.902 68.901,71.574 68.901,72.402 C68.901,73.23 68.229,73.902 67.401,73.902 L22.599,73.902 C21.771,73.902 21.099,73.23 21.099,72.402 C21.099,71.574 21.771,70.902 22.599,70.902 L43.5,70.902 L43.5,61.5 C43.5,61.395 43.542,61.302 43.56,61.203 L1.5,61.203 C0.672,61.203 0,60.531 0,59.703 L0,1.5 C0,0.672 0.672,-2.13162821e-14 1.5,-2.13162821e-14 L88.5,-2.13162821e-14 Z M8.994,23.5143 C8.631,23.5143 8.265,23.3823 7.977,23.1153 C7.368,22.5543 7.329,21.6033 7.893,20.9973 L20.103,7.7703 C20.667,7.1613 21.615,7.1223 22.221,7.6863 C22.83,8.2473 22.869,9.1983 22.305,9.8043 L10.095,23.0313 C9.801,23.3523 9.399,23.5143 8.994,23.5143 Z M9.3486,14.652 C8.9646,14.652 8.5806,14.505 8.2866,14.214 C7.7016,13.626 7.7016,12.678 8.2866,12.09 L11.7876,8.589 C12.3756,8.004 13.3236,8.004 13.9116,8.589 C14.4966,9.177 14.4966,10.125 13.9116,10.713 L10.4106,14.214 C10.1166,14.505 9.7326,14.652 9.3486,14.652 Z M67.5,33.2496 C67.5,32.5626 66.939,32.0016 66.249,32.0016 L55.251,32.0016 C54.564,32.0016 54,32.5626 54,33.2496 L54,38.7516 C54,42.4716 57.03,45.5016 60.75,45.5016 C64.47,45.5016 67.5,42.4716 67.5,38.7516 L67.5,33.2496 Z M60.75,48.5016 C55.374,48.5016 51,44.1276 51,38.7516 L51,33.2496 C51,31.4376 52.149,29.8986 53.751,29.2896 L53.751,24.9996 C53.751,21.1416 56.892,18.0006 60.75,18.0006 C64.608,18.0006 67.749,21.1416 67.749,24.9996 C67.749,25.8276 67.077,26.4996 66.249,26.4996 C65.421,26.4996 64.749,25.8276 64.749,24.9996 C64.749,22.7946 62.955,21.0006 60.75,21.0006 C58.545,21.0006 56.751,22.7946 56.751,24.9996 L56.751,29.0016 L66.249,29.0016 C68.592,29.0016 70.5,30.9066 70.5,33.2496 L70.5,38.7516 C70.5,44.1276 66.126,48.5016 60.75,48.5016 Z M59.3145,38.4324 C58.4715,37.9314 57.8775,37.0524 57.8775,35.9994 C57.8775,34.4154 59.1645,33.1254 60.7515,33.1254 C62.3355,33.1254 63.6255,34.4154 63.6255,35.9994 C63.6255,37.0524 63.0285,37.9314 62.1855,38.4324 C62.2095,38.5404 62.2515,38.6364 62.2515,38.7504 L62.2515,41.4984 C62.2515,42.3294 61.5795,42.9984 60.7515,42.9984 C59.9205,42.9984 59.2515,42.3294 59.2515,41.4984 L59.2515,38.7504 C59.2515,38.6364 59.2905,38.5404 59.3145,38.4324 Z M21,25.5006 C21,24.6726 21.672,24.0006 22.5,24.0006 L46.5,24.0006 C47.328,24.0006 48,24.6726 48,25.5006 C48,26.3286 47.328,27.0006 46.5,27.0006 L22.5,27.0006 C21.672,27.0006 21,26.3286 21,25.5006 Z M22.5,36.0006 C21.672,36.0006 21,35.3286 21,34.5006 C21,33.6726 21.672,33.0006 22.5,33.0006 L40.5,33.0006 C41.328,33.0006 42,33.6726 42,34.5006 C42,35.3286 41.328,36.0006 40.5,36.0006 L22.5,36.0006 Z M34.5,42.0006 C35.328,42.0006 36,42.6726 36,43.5006 C36,44.3286 35.328,45.0006 34.5,45.0006 L22.5,45.0006 C21.672,45.0006 21,44.3286 21,43.5006 C21,42.6726 21.672,42.0006 22.5,42.0006 L34.5,42.0006 Z M46.5,42.0006 C47.328,42.0006 48,42.6726 48,43.5006 C48,44.3286 47.328,45.0006 46.5,45.0006 L40.5,45.0006 C39.672,45.0006 39,44.3286 39,43.5006 C39,42.6726 39.672,42.0006 40.5,42.0006 L46.5,42.0006 Z" id="icon-section-compliance" fill="#505050"></path>
    </g>
</svg>