<?xml version="1.0" encoding="UTF-8"?>
<svg width="95px" height="67px" viewBox="0 0 95 67" version="1.1" xmlns="http://www.w3.org/2000/svg" xmlns:xlink="http://www.w3.org/1999/xlink">
    <!-- Generator: Sketch 53.2 (72643) - https://sketchapp.com -->
    <title>icon-section-digitize-white</title>
    <desc>Created with Sketch.</desc>
    <g id="Features" stroke="none" stroke-width="1" fill="none" fill-rule="evenodd">
        <g id="Artboard-Copy" transform="translate(-4.000000, -218.000000)" fill="#FFFFFF">
            <path d="M6.8358209,280.38806 L49.3731343,280.38806 L49.3731343,235.014925 L36.6119403,235.014925 C35.8292537,235.014925 35.1940299,234.379701 35.1940299,233.597015 L35.1940299,220.835821 L6.8358209,220.835821 L6.8358209,280.38806 Z M38.0298507,222.840746 L38.0298507,232.179104 L47.368209,232.179104 L38.0298507,222.840746 Z M51.7920896,232.593134 C51.9197015,232.720746 52.0274627,232.876716 52.0983582,233.052537 C52.1692537,233.222687 52.2089552,233.409851 52.2089552,233.597015 L52.2089552,281.80597 C52.2089552,282.588657 51.5737313,283.223881 50.7910448,283.223881 L5.41791045,283.223881 C4.63522388,283.223881 4,282.588657 4,281.80597 L4,219.41791 C4,218.635224 4.63522388,218 5.41791045,218 L36.6119403,218 C36.7991045,218 36.9862687,218.039701 37.1564179,218.110597 C37.3322388,218.181493 37.488209,218.289254 37.6158209,218.416866 L51.7920896,232.593134 Z M94.7462687,225.089552 C93.9664179,225.089552 93.3283582,225.727612 93.3283582,226.507463 C93.3283582,227.287313 93.9664179,227.925373 94.7462687,227.925373 C95.5261194,227.925373 96.1641791,227.287313 96.1641791,226.507463 C96.1641791,225.727612 95.5261194,225.089552 94.7462687,225.089552 Z M56.4626866,237.850746 C55.68,237.850746 55.0447761,237.215522 55.0447761,236.432836 C55.0447761,235.650149 55.68,235.014925 56.4626866,235.014925 L61.5473134,235.014925 L71.0558209,225.503582 C71.3223881,225.239851 71.6825373,225.089552 72.0597015,225.089552 L90.4925373,225.089552 C90.5804478,225.089552 90.6570149,225.123582 90.7392537,225.140597 C91.3120896,223.467463 92.8831343,222.253731 94.7462687,222.253731 C97.0914925,222.253731 99,224.162239 99,226.507463 C99,228.852687 97.0914925,230.761194 94.7462687,230.761194 C92.8831343,230.761194 91.3120896,229.547463 90.7392537,227.874328 C90.6570149,227.891343 90.5804478,227.925373 90.4925373,227.925373 L72.6467164,227.925373 L63.138209,237.436716 C62.8716418,237.700448 62.5114925,237.850746 62.1343284,237.850746 L56.4626866,237.850746 Z M83.4029851,233.597015 C82.6231343,233.597015 81.9850746,234.235075 81.9850746,235.014925 C81.9850746,235.794776 82.6231343,236.432836 83.4029851,236.432836 C84.1828358,236.432836 84.8208955,235.794776 84.8208955,235.014925 C84.8208955,234.235075 84.1828358,233.597015 83.4029851,233.597015 Z M56.4626866,246.358209 C55.68,246.358209 55.0447761,245.722985 55.0447761,244.940299 C55.0447761,244.157612 55.68,243.522388 56.4626866,243.522388 L64.3831343,243.522388 L73.8916418,234.011045 C74.158209,233.747313 74.5183582,233.597015 74.8955224,233.597015 L79.1492537,233.597015 C79.2371642,233.597015 79.3137313,233.631045 79.3959701,233.64806 C79.968806,231.974925 81.5398507,230.761194 83.4029851,230.761194 C85.748209,230.761194 87.6567164,232.669701 87.6567164,235.014925 C87.6567164,237.360149 85.748209,239.268657 83.4029851,239.268657 C81.5398507,239.268657 79.968806,238.054925 79.3959701,236.381791 C79.3137313,236.398806 79.2371642,236.432836 79.1492537,236.432836 L75.4825373,236.432836 L65.9740299,245.944179 C65.7074627,246.20791 65.3473134,246.358209 64.9701493,246.358209 L56.4626866,246.358209 Z M83.4029851,281.80597 C84.1828358,281.80597 84.8208955,281.16791 84.8208955,280.38806 C84.8208955,279.608209 84.1828358,278.970149 83.4029851,278.970149 C82.6231343,278.970149 81.9850746,279.608209 81.9850746,280.38806 C81.9850746,281.16791 82.6231343,281.80597 83.4029851,281.80597 Z M83.4029851,276.134328 C85.748209,276.134328 87.6567164,278.042836 87.6567164,280.38806 C87.6567164,282.733284 85.748209,284.641791 83.4029851,284.641791 C81.5398507,284.641791 79.968806,283.42806 79.3959701,281.754925 C79.3137313,281.77194 79.2371642,281.80597 79.1492537,281.80597 L74.8955224,281.80597 C74.5183582,281.80597 74.158209,281.655672 73.8916418,281.39194 L64.3831343,271.880597 L56.4626866,271.880597 C55.68,271.880597 55.0447761,271.245373 55.0447761,270.462687 C55.0447761,269.68 55.68,269.044776 56.4626866,269.044776 L64.9701493,269.044776 C65.3473134,269.044776 65.7074627,269.195075 65.9740299,269.458806 L75.4825373,278.970149 L79.1492537,278.970149 C79.2371642,278.970149 79.3137313,279.004179 79.3959701,279.021194 C79.968806,277.34806 81.5398507,276.134328 83.4029851,276.134328 Z M94.7462687,254.865672 C95.5261194,254.865672 96.1641791,254.227612 96.1641791,253.447761 C96.1641791,252.66791 95.5261194,252.029851 94.7462687,252.029851 C93.9664179,252.029851 93.3283582,252.66791 93.3283582,253.447761 C93.3283582,254.227612 93.9664179,254.865672 94.7462687,254.865672 Z M94.7462687,249.19403 C97.0914925,249.19403 99,251.102537 99,253.447761 C99,255.792985 97.0914925,257.701493 94.7462687,257.701493 C92.8831343,257.701493 91.3120896,256.487761 90.7392537,254.814627 C90.6570149,254.831642 90.5804478,254.865672 90.4925373,254.865672 L56.4626866,254.865672 C55.68,254.865672 55.0447761,254.230448 55.0447761,253.447761 C55.0447761,252.665075 55.68,252.029851 56.4626866,252.029851 L90.4925373,252.029851 C90.5804478,252.029851 90.6570149,252.063881 90.7392537,252.080896 C91.3120896,250.407761 92.8831343,249.19403 94.7462687,249.19403 Z M77.7313433,260.537313 C76.9514925,260.537313 76.3134328,261.175373 76.3134328,261.955224 C76.3134328,262.735075 76.9514925,263.373134 77.7313433,263.373134 C78.511194,263.373134 79.1492537,262.735075 79.1492537,261.955224 C79.1492537,261.175373 78.511194,260.537313 77.7313433,260.537313 Z M56.4626866,263.373134 C55.68,263.373134 55.0447761,262.73791 55.0447761,261.955224 C55.0447761,261.172537 55.68,260.537313 56.4626866,260.537313 L73.4776119,260.537313 C73.5655224,260.537313 73.6420896,260.571343 73.7243284,260.588358 C74.2971642,258.915224 75.868209,257.701493 77.7313433,257.701493 C80.0765672,257.701493 81.9850746,259.61 81.9850746,261.955224 C81.9850746,264.300448 80.0765672,266.208955 77.7313433,266.208955 C75.868209,266.208955 74.2971642,264.995224 73.7243284,263.32209 C73.6420896,263.339104 73.5655224,263.373134 73.4776119,263.373134 L56.4626866,263.373134 Z" id="icon-section-digitize"></path>
        </g>
    </g>
</svg>