<?xml version="1.0" encoding="UTF-8"?>
<svg width="48px" height="80px" viewBox="0 0 48 80" version="1.1" xmlns="http://www.w3.org/2000/svg" xmlns:xlink="http://www.w3.org/1999/xlink">
    <!-- Generator: Sketch 53.2 (72643) - https://sketchapp.com -->
    <title>icon-section-problem</title>
    <desc>Created with Sketch.</desc>
    <g id="Features" stroke="none" stroke-width="1" fill="none" fill-rule="evenodd">
        <g id="Desktop-HD---Features---ITSM" transform="translate(-536.000000, -509.000000)" fill="#505050">
            <path d="M566.171543,558.654621 C570.708199,558.654621 574.400061,562.367724 574.400061,566.930483 C574.400061,571.493241 570.708199,575.206345 566.171543,575.206345 C561.634886,575.206345 557.943024,571.493241 557.943024,566.930483 C557.943024,562.367724 561.634886,558.654621 566.171543,558.654621 Z M566.171543,572.447724 C569.196895,572.447724 571.657222,569.973241 571.657222,566.930483 C571.657222,563.887724 569.196895,561.413241 566.171543,561.413241 C563.14619,561.413241 560.685863,563.887724 560.685863,566.930483 C560.685863,569.973241 563.14619,572.447724 566.171543,572.447724 Z M581.25716,568.862069 L581.25716,565 L580.03934,565 C579.403001,565 578.85169,564.558621 578.703577,563.937931 C578.38815,562.597241 577.858782,561.317241 577.134672,560.136552 C576.802789,559.593103 576.882331,558.889655 577.332157,558.437241 L578.196151,557.565517 L575.483483,554.837241 L574.616746,555.703448 C574.16692,556.161379 573.467496,556.238621 572.927156,555.904828 C571.753221,555.176552 570.480544,554.644138 569.147524,554.324138 C568.527642,554.177931 568.09153,553.623448 568.09153,552.983448 L568.09153,551.758621 L564.251555,551.758621 L564.251555,552.983448 C564.251555,553.623448 563.815443,554.177931 563.195562,554.324138 C561.862541,554.644138 560.589864,555.176552 559.415929,555.904828 C558.881075,556.238621 558.178908,556.161379 557.726339,555.703448 L556.859602,554.837241 L554.146934,557.565517 L555.010928,558.437241 C555.460754,558.889655 555.540296,559.593103 555.208413,560.136552 C554.484303,561.317241 553.954935,562.597241 553.639508,563.937931 C553.491395,564.558621 552.940084,565 552.303745,565 L551.085925,565 L551.085925,568.862069 L552.303745,568.862069 C552.940084,568.862069 553.491395,569.30069 553.639508,569.924138 C553.954935,571.264828 554.484303,572.544828 555.208413,573.725517 C555.540296,574.268966 555.460754,574.972414 555.010928,575.424828 L554.146934,576.293793 L556.859602,579.024828 L557.726339,578.155862 C558.178908,577.703448 558.881075,577.626207 559.415929,577.957241 C560.589864,578.685517 561.862541,579.217931 563.195562,579.535172 C563.815443,579.684138 564.251555,580.238621 564.251555,580.875862 L564.251555,582.103448 L568.09153,582.103448 L568.09153,580.875862 C568.09153,580.238621 568.527642,579.684138 569.147524,579.535172 C570.480544,579.217931 571.753221,578.685517 572.927156,577.957241 C573.467496,577.626207 574.16692,577.703448 574.616746,578.155862 L575.483483,579.024828 L578.196151,576.293793 L577.332157,575.424828 C576.882331,574.972414 576.802789,574.268966 577.134672,573.725517 C577.858782,572.544828 578.38815,571.264828 578.703577,569.924138 C578.85169,569.30069 579.403001,568.862069 580.03934,568.862069 L581.25716,568.862069 Z M547.83566,551.182069 L540.542449,580.53931 L548.343085,569.124138 L548.343085,563.62069 C548.343085,562.856552 548.957481,562.241379 549.714505,562.241379 L551.258724,562.241379 C551.538493,561.344828 551.897805,560.475862 552.331174,559.642759 L551.239524,558.542069 C550.701927,558.001379 550.701927,557.129655 551.239524,556.591724 L555.89138,551.910345 C556.426233,551.372414 557.295714,551.372414 557.830567,551.910345 L558.92496,553.011034 C559.116959,552.911724 559.325415,552.853793 559.517414,552.762759 L564.931779,544.862069 L558.930446,544.862069 C558.469649,544.862069 558.039023,544.630345 557.786682,544.241379 C557.534341,543.855172 557.490455,543.366897 557.66874,542.93931 L570.949569,511.758621 L549.467649,511.758621 L541.839812,550.12 L546.313384,549.482759 C546.760467,549.430345 547.221264,549.584828 547.522976,549.924138 C547.827431,550.266207 547.945373,550.737931 547.83566,551.182069 Z M582.62858,562.241379 C583.385604,562.241379 584,562.856552 584,563.62069 L584,570.241379 C584,571.002759 583.385604,571.62069 582.62858,571.62069 L581.084361,571.62069 C580.804592,572.514483 580.44528,573.386207 580.011911,574.216552 L581.103561,575.32 C581.641158,575.857931 581.641158,576.732414 581.103561,577.270345 L576.451705,581.948966 C575.916852,582.486897 575.047372,582.486897 574.512518,581.948966 L573.418125,580.851034 C572.589787,581.286897 571.72305,581.648276 570.83437,581.926897 L570.83437,583.482759 C570.83437,584.244138 570.222717,584.862069 569.46295,584.862069 L562.880135,584.862069 C562.120368,584.862069 561.508715,584.244138 561.508715,583.482759 L561.508715,581.926897 C560.620035,581.648276 559.753298,581.286897 558.92496,580.851034 L557.830567,581.948966 C557.295714,582.486897 556.426233,582.486897 555.89138,581.948966 L551.239524,577.270345 C550.701927,576.732414 550.701927,575.857931 551.239524,575.32 L552.331174,574.216552 C551.897805,573.386207 551.538493,572.514483 551.258724,571.62069 L549.966846,571.62069 L538.501777,588.401379 C538.238464,588.787586 537.810581,589 537.371727,589 C537.182471,589 536.990472,588.958621 536.809444,588.878621 C536.203277,588.602759 535.879622,587.932414 536.041449,587.286897 L544.681394,552.50069 L540.306565,553.124138 C539.859482,553.17931 539.420628,553.030345 539.118915,552.707586 C538.811717,552.37931 538.682804,551.924138 538.770575,551.488276 L546.999094,510.108966 C547.128007,509.463448 547.690289,509 548.343085,509 L573.028642,509 C573.489439,509 573.920064,509.231724 574.172406,509.617931 C574.42749,510.006897 574.468632,510.495172 574.290348,510.922759 L561.009518,542.103448 L567.542962,542.103448 C568.05313,542.103448 568.519413,542.384828 568.755297,542.84 C568.993924,543.292414 568.963753,543.844138 568.673012,544.263448 L565.428233,549 L569.46295,549 C570.222717,549 570.83437,549.615172 570.83437,550.37931 L570.83437,551.932414 C571.72305,552.213793 572.589787,552.575172 573.418125,553.011034 L574.512518,551.910345 C575.047372,551.372414 575.916852,551.372414 576.451705,551.910345 L581.103561,556.591724 C581.641158,557.129655 581.641158,558.001379 581.103561,558.542069 L580.011911,559.642759 C580.44528,560.475862 580.804592,561.344828 581.084361,562.241379 L582.62858,562.241379 Z" id="icon-section-problem"></path>
        </g>
    </g>
</svg>