<?xml version="1.0" encoding="UTF-8"?>
<svg width="85px" height="76px" viewBox="0 0 85 76" version="1.1" xmlns="http://www.w3.org/2000/svg" xmlns:xlink="http://www.w3.org/1999/xlink">
    <!-- Generator: Sketch 53.2 (72643) - https://sketchapp.com -->
    <title>icon-section-costs-white</title>
    <desc>Created with Sketch.</desc>
    <g id="Features" stroke="none" stroke-width="1" fill="none" fill-rule="evenodd">
        <g id="Artboard-Copy" transform="translate(-308.000000, -214.000000)" fill="#FFFFFF">
            <path d="M372.537037,265.693198 C373.402778,265.693198 374.111111,264.984865 374.111111,264.119124 C374.111111,263.253383 373.402778,262.54505 372.537037,262.54505 C371.671296,262.54505 370.962963,263.253383 370.962963,264.119124 C370.962963,264.984865 371.671296,265.693198 372.537037,265.693198 Z M372.537037,259.396902 C375.140556,259.396902 377.259259,261.515605 377.259259,264.119124 C377.259259,266.722642 375.140556,268.841346 372.537037,268.841346 C369.933519,268.841346 367.814815,266.722642 367.814815,264.119124 C367.814815,261.515605 369.933519,259.396902 372.537037,259.396902 Z M386.703704,270.41542 C388.441481,270.41542 389.851852,269.00505 389.851852,267.267272 L389.851852,256.947642 C388.923148,257.492272 387.855926,257.822828 386.703704,257.822828 C386.410926,257.822828 386.14963,257.722087 385.916667,257.583568 C385.683704,257.722087 385.422407,257.822828 385.12963,257.822828 L370.962963,257.822828 C369.297593,257.822828 367.67,258.493383 366.505185,259.661346 C365.337222,260.826161 364.666667,262.453753 364.666667,264.119124 C364.666667,267.591531 367.490556,270.41542 370.962963,270.41542 L385.12963,270.41542 C385.422407,270.41542 385.683704,270.516161 385.916667,270.654679 C386.14963,270.516161 386.410926,270.41542 386.703704,270.41542 Z M319.018519,286.156161 L383.555556,286.156161 L383.555556,273.563568 L370.962963,273.563568 C365.755926,273.563568 361.518519,269.326161 361.518519,264.119124 C361.518519,261.622642 362.522778,259.185976 364.279444,257.435605 C366.029815,255.678939 368.466481,254.674679 370.962963,254.674679 L383.555556,254.674679 L383.555556,242.082087 L375.212963,242.082087 L368.727778,242.082087 L324.905556,242.082087 L319.018519,242.082087 C318.414074,242.082087 317.80963,242.015976 317.217778,241.915235 C317.057222,241.89005 316.902963,241.85542 316.748704,241.82079 C316.270185,241.72005 315.804259,241.587828 315.34463,241.424124 C315.231296,241.383198 315.117963,241.351716 315.00463,241.307642 C314.428519,241.084124 313.865,240.825976 313.329815,240.504865 C313.323519,240.501716 313.32037,240.49542 313.314074,240.492272 C313.314074,240.489124 313.307778,240.492272 313.30463,240.489124 C312.731667,240.130235 312.234259,239.743013 311.730556,239.311716 C311.727407,239.308568 311.721111,239.302272 311.717963,239.295976 C311.714815,239.295976 311.714815,239.295976 311.711667,239.292828 C311.708519,239.289679 311.708519,239.286531 311.70537,239.283383 C311.491296,239.10079 311.346481,238.861531 311.148148,238.66005 L311.148148,278.28579 C311.148148,282.627087 314.677222,286.156161 319.018519,286.156161 Z M319.018519,223.193198 C314.677222,223.193198 311.148148,226.722272 311.148148,231.063568 C311.148148,231.375235 311.192222,231.668013 311.223704,231.967087 L328.711667,223.193198 L319.018519,223.193198 Z M346.712778,217.687087 L312.25,234.976716 C312.28463,235.045976 312.312963,235.121531 312.353889,235.19079 C312.605741,235.593753 312.933148,235.936902 313.257407,236.286346 L322.626296,233.13505 L337.391111,225.721161 C337.768889,225.532272 338.203333,225.507087 338.596852,225.633013 C338.996667,225.768383 339.320926,226.051716 339.509815,226.429494 C339.667222,226.744309 339.834074,227.021346 340.022963,227.273198 L349.85463,223.948753 L349.00463,222.258198 C348.998333,222.242457 348.992037,222.229865 348.985741,222.214124 L346.712778,217.687087 Z M366.536667,238.933939 L365.585926,236.11005 C361.902593,236.664124 358.219259,234.841346 356.41537,231.564124 L334.516852,238.933939 L366.536667,238.933939 Z M373.018704,238.933939 L367.137963,221.474309 L325.761852,235.398568 L323.854074,236.04079 L318.291296,238.836346 C318.536852,238.858383 318.772963,238.933939 319.018519,238.933939 L324.650556,238.933939 L356.767963,228.123198 C357.58963,227.849309 358.480556,228.286902 358.760741,229.108568 C359.79963,232.149679 363.098889,233.783568 366.111667,232.750976 C366.498889,232.618753 366.936481,232.647087 367.317407,232.832828 C367.692037,233.01542 367.978519,233.345976 368.110741,233.742642 L369.854815,238.933939 L373.018704,238.933939 Z M380.407407,223.193198 L371.038519,223.193198 L376.343148,238.933939 L380.407407,238.933939 L380.407407,223.193198 Z M389.851852,251.526531 C389.851852,249.788753 388.441481,248.378383 386.703704,248.378383 L386.703704,254.674679 C388.441481,254.674679 389.851852,253.264309 389.851852,251.526531 Z M393,251.526531 C393,251.88542 392.94963,252.234865 392.896111,252.574865 C392.952778,252.741716 393,252.911716 393,253.100605 L393,267.267272 C393,270.739679 390.176111,273.563568 386.703704,273.563568 L386.703704,287.730235 C386.703704,288.599124 385.998519,289.304309 385.12963,289.304309 L319.018519,289.304309 C312.942593,289.304309 308,284.361716 308,278.28579 L308,231.063568 C308,224.987642 312.942593,220.04505 319.018519,220.04505 L334.985926,220.04505 L346.706481,214.167457 C347.477778,213.780235 348.428519,214.085605 348.822037,214.866346 L351.419259,220.04505 L361.51537,220.04505 L367.625926,217.989309 C368.457037,217.712272 369.341667,218.153013 369.618704,218.977828 L369.980741,220.04505 L381.981481,220.04505 C382.85037,220.04505 383.555556,220.750235 383.555556,221.619124 L383.555556,238.933939 L385.12963,238.933939 C385.998519,238.933939 386.703704,239.639124 386.703704,240.508013 L386.703704,245.230235 C390.176111,245.230235 393,248.054124 393,251.526531 Z" id="icon-section-costs"></path>
        </g>
    </g>
</svg>