<?xml version="1.0" encoding="UTF-8"?>
<svg width="90px" height="74px" viewBox="0 0 90 74" version="1.1" xmlns="http://www.w3.org/2000/svg" xmlns:xlink="http://www.w3.org/1999/xlink">
    <!-- Generator: Sketch 53.2 (72643) - https://sketchapp.com -->
    <title>icon-section-itsm</title>
    <desc>Created with Sketch.</desc>
    <g id="Features" stroke="none" stroke-width="1" fill="none" fill-rule="evenodd">
        <g id="Desktop-HD---Features---ESM" transform="translate(-189.000000, -516.000000)" fill="#505050">
            <path d="M192,574.263688 L276,574.263688 L276,519.006131 L192,519.006131 L192,574.263688 Z M277.5,516 C278.328,516 279,516.672701 279,517.501564 L279,575.765252 C279,576.594116 278.328,577.266816 277.5,577.266816 L235.437,577.266816 C235.461,577.36592 235.5,577.459017 235.5,577.564126 L235.5,586.975929 L256.401,586.975929 C257.229,586.975929 257.901,587.64863 257.901,588.477494 C257.901,589.306357 257.229,589.979058 256.401,589.979058 L211.599,589.979058 C210.771,589.979058 210.099,589.306357 210.099,588.477494 C210.099,587.64863 210.771,586.975929 211.599,586.975929 L232.5,586.975929 L232.5,577.564126 C232.5,577.459017 232.539,577.36592 232.563,577.266816 L190.5,577.266816 C189.672,577.266816 189,576.594116 189,575.765252 L189,517.501564 C189,516.672701 189.672,516 190.5,516 L277.5,516 Z M198.026368,539.089005 C197.66651,539.089005 197.303677,538.958673 197.01817,538.695045 C196.41444,538.141132 196.375778,537.202144 196.934897,536.603799 L209.039228,523.543879 C209.598347,522.942572 210.541117,522.907026 211.138898,523.46094 C211.742628,524.014854 211.78129,524.953841 211.222171,525.552186 L199.11784,538.612106 C198.826384,538.929052 198.427863,539.089005 198.026368,539.089005 Z M198.532999,530.60733 C198.143427,530.60733 197.753854,530.45818 197.455588,530.162923 C196.862099,529.566321 196.862099,528.604454 197.455588,528.007852 L201.007391,524.455639 C201.603924,523.862082 202.565681,523.862082 203.162213,524.455639 C203.755702,525.052241 203.755702,526.014108 203.162213,526.61071 L199.61041,530.162923 C199.312143,530.45818 198.922571,530.60733 198.532999,530.60733 Z M234.235602,539.717277 C230.943927,539.717277 228.267016,542.394188 228.267016,545.685864 C228.267016,548.977539 230.943927,551.65445 234.235602,551.65445 C237.527277,551.65445 240.204188,548.977539 240.204188,545.685864 C240.204188,542.394188 237.527277,539.717277 234.235602,539.717277 Z M234.235602,554.638743 C229.299581,554.638743 225.282723,550.621885 225.282723,545.685864 C225.282723,540.749843 229.299581,536.732984 234.235602,536.732984 C239.171623,536.732984 243.188482,540.749843 243.188482,545.685864 C243.188482,550.621885 239.171623,554.638743 234.235602,554.638743 Z M217.453484,543.815546 L217.453484,548.027386 L218.789239,548.027386 C219.487201,548.027386 220.091901,548.508739 220.254358,549.185642 C220.60033,550.647753 221.180963,552.043677 221.975195,553.331297 C222.339219,553.923963 222.251973,554.69112 221.758586,555.184507 L220.810922,556.135179 L223.786287,559.110544 L224.736959,558.165888 C225.233355,557.669493 226.000511,557.585256 226.590169,557.946271 C227.877789,558.740503 229.273713,559.321136 230.735824,559.670117 C231.415735,559.829565 231.89408,560.434265 231.89408,561.132227 L231.89408,562.467982 L236.10592,562.467982 L236.10592,561.132227 C236.10592,560.434265 236.584265,559.829565 237.264176,559.670117 C238.726287,559.321136 240.122211,558.740503 241.409831,557.946271 C241.999489,557.585256 242.769654,557.669493 243.263041,558.165888 L244.213713,559.110544 L247.189078,556.135179 L246.241414,555.184507 C245.748027,554.69112 245.660781,553.923963 246.024805,553.331297 C246.819037,552.043677 247.39967,550.647753 247.745642,549.185642 C247.908099,548.508739 248.512799,548.027386 249.210761,548.027386 L250.546516,548.027386 L250.546516,543.815546 L249.210761,543.815546 C248.512799,543.815546 247.908099,543.337201 247.745642,542.65729 C247.39967,541.195179 246.819037,539.799255 246.024805,538.511635 C245.660781,537.918969 245.748027,537.151812 246.241414,536.658425 L247.189078,535.710761 L244.213713,532.732388 L243.263041,533.680052 C242.769654,534.176448 241.999489,534.260685 241.409831,533.896661 C240.122211,533.102429 238.726287,532.521796 237.264176,532.175824 C236.584265,532.013367 236.10592,531.408667 236.10592,530.713713 L236.10592,529.37495 L231.89408,529.37495 L231.89408,530.713713 C231.89408,531.408667 231.415735,532.013367 230.735824,532.175824 C229.273713,532.521796 227.877789,533.102429 226.590169,533.896661 C226.000511,534.260685 225.233355,534.176448 224.736959,533.680052 L223.786287,532.732388 L220.810922,535.710761 L221.758586,536.658425 C222.251973,537.151812 222.339219,537.918969 221.975195,538.511635 C221.180963,539.799255 220.60033,541.195179 220.254358,542.65729 C220.091901,543.337201 219.487201,543.815546 218.789239,543.815546 L217.453484,543.815546 Z M215.949255,551.035844 C215.118921,551.035844 214.445026,550.364958 214.445026,549.531615 L214.445026,542.311317 C214.445026,541.480983 215.118921,540.807088 215.949255,540.807088 L217.643017,540.807088 C217.949879,539.832348 218.343987,538.881675 218.819323,537.97613 L217.621957,536.772747 C217.0323,536.186097 217.0323,535.232416 217.621957,534.645767 L222.724301,529.543423 C223.31095,528.956774 224.264631,528.956774 224.851281,529.543423 L226.051655,530.740789 C226.960209,530.265453 227.910882,529.871345 228.885622,529.567491 L228.885622,527.870721 C228.885622,527.040387 229.556508,526.366492 230.389851,526.366492 L237.610149,526.366492 C238.443492,526.366492 239.114378,527.040387 239.114378,527.870721 L239.114378,529.567491 C240.089118,529.871345 241.039791,530.265453 241.948345,530.740789 L243.148719,529.543423 C243.735369,528.956774 244.68905,528.956774 245.275699,529.543423 L250.378043,534.645767 C250.9677,535.232416 250.9677,536.186097 250.378043,536.772747 L249.180677,537.97613 C249.656013,538.881675 250.050121,539.832348 250.356983,540.807088 L252.050745,540.807088 C252.881079,540.807088 253.554974,541.480983 253.554974,542.311317 L253.554974,549.531615 C253.554974,550.364958 252.881079,551.035844 252.050745,551.035844 L250.356983,551.035844 C250.050121,552.013592 249.656013,552.961257 249.180677,553.869811 L250.378043,555.070185 C250.9677,555.659843 250.9677,556.610516 250.378043,557.197165 L245.275699,562.302517 C244.68905,562.889166 243.735369,562.889166 243.148719,562.302517 L241.948345,561.102143 C241.039791,561.577479 240.089118,561.971587 239.114378,562.278449 L239.114378,563.972211 C239.114378,564.805554 238.443492,565.47644 237.610149,565.47644 L230.389851,565.47644 C229.556508,565.47644 228.885622,564.805554 228.885622,563.972211 L228.885622,562.278449 C227.910882,561.971587 226.960209,561.577479 226.051655,561.102143 L224.851281,562.302517 C224.264631,562.889166 223.31095,562.889166 222.724301,562.302517 L217.621957,557.197165 C217.0323,556.610516 217.0323,555.659843 217.621957,555.070185 L218.819323,553.869811 C218.343987,552.961257 217.949879,552.013592 217.643017,551.035844 L215.949255,551.035844 Z" id="icon-section-itsm"></path>
        </g>
    </g>
</svg>