<?xml version="1.0" encoding="UTF-8"?>
<svg width="90px" height="74px" viewBox="0 0 90 74" version="1.1" xmlns="http://www.w3.org/2000/svg" xmlns:xlink="http://www.w3.org/1999/xlink">
    <!-- Generator: Sketch 53.2 (72643) - https://sketchapp.com -->
    <title>icon-section-platform</title>
    <desc>Created with Sketch.</desc>
    <g id="Features" stroke="none" stroke-width="1" fill="none" fill-rule="evenodd">
        <g id="Desktop-HD---Features---HR" transform="translate(-992.000000, -898.000000)" fill="#505050">
            <path d="M995,956.203 L1079,956.203 L1079,901.003 L995,901.003 L995,956.203 Z M1080.5,898 C1081.328,898 1082,898.672 1082,899.5 L1082,957.703 C1082,958.531 1081.328,959.203 1080.5,959.203 L1038.44,959.203 C1038.458,959.302 1038.5,959.395 1038.5,959.5 L1038.5,968.902 L1059.401,968.902 C1060.229,968.902 1060.901,969.574 1060.901,970.402 C1060.901,971.23 1060.229,971.902 1059.401,971.902 L1014.599,971.902 C1013.771,971.902 1013.099,971.23 1013.099,970.402 C1013.099,969.574 1013.771,968.902 1014.599,968.902 L1035.5,968.902 L1035.5,959.5 C1035.5,959.395 1035.542,959.302 1035.56,959.203 L993.5,959.203 C992.672,959.203 992,958.531 992,957.703 L992,899.5 C992,898.672 992.672,898 993.5,898 L1080.5,898 Z M1000.994,921.5143 C1000.631,921.5143 1000.265,921.3823 999.977,921.1153 C999.368,920.5543 999.329,919.6033 999.893,918.9973 L1012.103,905.7703 C1012.67,905.1613 1013.615,905.1223 1014.221,905.6863 C1014.83,906.2473 1014.869,907.1983 1014.305,907.8043 L1002.095,921.0313 C1001.801,921.3523 1001.399,921.5143 1000.994,921.5143 Z M1001.3486,912.652 C1000.9646,912.652 1000.5806,912.505 1000.2866,912.214 C999.7016,911.626 999.7016,910.678 1000.2866,910.09 L1003.7876,906.589 C1004.3756,906.004 1005.3236,906.004 1005.9116,906.589 C1006.4966,907.177 1006.4966,908.125 1005.9116,908.713 L1002.4106,912.214 C1002.1166,912.505 1001.7326,912.652 1001.3486,912.652 Z M1037,911.6764 L1016.354,921.9994 L1037,932.3254 L1057.646,921.9994 L1037,911.6764 Z M1057.646,930.9994 L1052,928.1764 L1037.672,935.3434 C1037.459,935.4484 1037.228,935.4994 1037,935.4994 C1036.772,935.4994 1036.541,935.4484 1036.328,935.3434 L1022,928.1764 L1016.354,930.9994 L1037,941.3254 L1057.646,930.9994 Z M1057.646,939.9994 L1052,937.1764 L1037.672,944.3434 C1037.459,944.4484 1037.228,944.4994 1037,944.4994 C1036.772,944.4994 1036.541,944.4484 1036.328,944.3434 L1022,937.1764 L1016.354,939.9994 L1037,950.3254 L1057.646,939.9994 Z M1011.5,921.9994 C1011.5,921.4324 1011.821,920.9134 1012.328,920.6584 L1036.328,908.6584 C1036.751,908.4484 1037.249,908.4484 1037.672,908.6584 L1061.672,920.6584 C1062.179,920.9134 1062.5,921.4324 1062.5,921.9994 C1062.5,922.5694 1062.179,923.0884 1061.672,923.3434 L1055.354,926.4994 L1061.672,929.6584 C1062.179,929.9134 1062.5,930.4324 1062.5,930.9994 C1062.5,931.5694 1062.179,932.0884 1061.672,932.3434 L1055.354,935.4994 L1061.672,938.6584 C1062.179,938.9134 1062.5,939.4324 1062.5,939.9994 C1062.5,940.5694 1062.179,941.0884 1061.672,941.3434 L1037.672,953.3434 C1037.459,953.4484 1037.228,953.4994 1037,953.4994 C1036.772,953.4994 1036.541,953.4484 1036.328,953.3434 L1012.328,941.3434 C1011.821,941.0884 1011.5,940.5694 1011.5,939.9994 C1011.5,939.4324 1011.821,938.9134 1012.328,938.6584 L1018.646,935.4994 L1012.328,932.3434 C1011.821,932.0884 1011.5,931.5694 1011.5,930.9994 C1011.5,930.4324 1011.821,929.9134 1012.328,929.6584 L1018.646,926.4994 L1012.328,923.3434 C1011.821,923.0884 1011.5,922.5694 1011.5,921.9994 Z" id="icon-section-platform"></path>
        </g>
    </g>
</svg>