<?xml version="1.0" encoding="UTF-8"?>
<svg width="90px" height="82px" viewBox="0 0 90 82" version="1.1" xmlns="http://www.w3.org/2000/svg" xmlns:xlink="http://www.w3.org/1999/xlink">
    <!-- Generator: Sketch 53.2 (72643) - https://sketchapp.com -->
    <title>icon-section-hr-white</title>
    <desc>Created with Sketch.</desc>
    <g id="Features" stroke="none" stroke-width="1" fill="none" fill-rule="evenodd">
        <g id="Artboard-Copy" transform="translate(-110.000000, -109.000000)" fill="#FFFFFF">
            <path d="M183.285555,166.458605 C187.538738,166.458605 190.999914,169.919781 190.999914,174.172964 C190.999914,178.426147 187.538738,181.887323 183.285555,181.887323 C179.032372,181.887323 175.571196,178.426147 175.571196,174.172964 C175.571196,169.919781 179.032372,166.458605 183.285555,166.458605 Z M183.285555,179.31587 C186.121868,179.31587 188.428461,177.009277 188.428461,174.172964 C188.428461,171.336651 186.121868,169.030058 183.285555,169.030058 C180.449242,169.030058 178.142649,171.336651 178.142649,174.172964 C178.142649,177.009277 180.449242,179.31587 183.285555,179.31587 Z M197.428547,175.973495 L197.428547,172.373461 L196.286822,172.373461 C195.690245,172.373461 195.173383,171.962029 195.034524,171.383452 C194.738807,170.133725 194.242517,168.940571 193.563653,167.839989 C193.252507,167.333413 193.327079,166.677693 193.748798,166.255974 L194.558805,165.443395 L192.015638,162.900228 L191.203059,163.707664 C190.781341,164.134525 190.12562,164.206526 189.619044,163.89538 C188.518462,163.216517 187.325308,162.720226 186.075582,162.421938 C185.494433,162.285651 185.085572,161.768789 185.085572,161.172211 L185.085572,160.030486 L181.485538,160.030486 L181.485538,161.172211 C181.485538,161.768789 181.076677,162.285651 180.495528,162.421938 C179.245802,162.720226 178.052648,163.216517 176.952066,163.89538 C176.450633,164.206526 175.792341,164.134525 175.368051,163.707664 L174.555472,162.900228 L172.012305,165.443395 L172.822312,166.255974 C173.244031,166.677693 173.318603,167.333413 173.007457,167.839989 C172.328593,168.940571 171.832303,170.133725 171.536586,171.383452 C171.397727,171.962029 170.880865,172.373461 170.284288,172.373461 L169.142563,172.373461 L169.142563,175.973495 L170.284288,175.973495 C170.880865,175.973495 171.397727,176.382356 171.536586,176.963505 C171.832303,178.213231 172.328593,179.406385 173.007457,180.506967 C173.318603,181.013543 173.244031,181.669264 172.822312,182.090982 L172.012305,182.90099 L174.555472,185.446729 L175.368051,184.636721 C175.792341,184.215003 176.450633,184.143002 176.952066,184.451576 C178.052648,185.13044 179.245802,185.62673 180.495528,185.922447 C181.076677,186.061306 181.485538,186.578168 181.485538,187.172174 L181.485538,188.31647 L185.085572,188.31647 L185.085572,187.172174 C185.085572,186.578168 185.494433,186.061306 186.075582,185.922447 C187.325308,185.62673 188.518462,185.13044 189.619044,184.451576 C190.12562,184.143002 190.781341,184.215003 191.203059,184.636721 L192.015638,185.446729 L194.558805,182.90099 L193.748798,182.090982 C193.327079,181.669264 193.252507,181.013543 193.563653,180.506967 C194.242517,179.406385 194.738807,178.213231 195.034524,176.963505 C195.173383,176.382356 195.690245,175.973495 196.286822,175.973495 L197.428547,175.973495 Z M117.860074,169.755722 C125.343003,177.9278 137.243688,182.785275 149.856665,182.785275 C156.748159,182.785275 163.451937,181.342689 169.343136,178.632378 C169.332851,178.60152 169.31485,178.575806 169.304565,178.544948 L167.856837,178.544948 C167.147115,178.544948 166.57111,177.968943 166.57111,177.259222 L166.57111,171.087735 C166.57111,170.375442 167.147115,169.802008 167.856837,169.802008 L169.304565,169.802008 C169.566853,168.966286 169.903713,168.156278 170.310003,167.379699 L169.286564,166.353689 C168.78256,165.849685 168.78256,165.037105 169.286564,164.535672 L173.647749,160.171916 C174.149182,159.670483 174.964333,159.670483 175.465766,160.171916 L176.491776,161.197926 C177.013781,160.922781 177.566643,160.732493 178.116934,160.524205 C174.619758,155.440443 168.869989,152.316127 162.71393,152.316127 L136.9994,152.316127 C128.66532,152.316127 121.220964,158.00161 118.898941,166.14283 L117.860074,169.755722 Z M112.694025,159.973914 C113.619748,160.90478 115.35805,162.049077 116.674634,162.915657 C116.857208,163.036515 117.019209,163.144516 117.191497,163.25766 C120.449528,155.203869 128.287317,149.744674 136.9994,149.744674 L162.71393,149.744674 C169.196564,149.744674 175.298622,152.78156 179.320374,157.813894 C179.551805,157.597892 179.857808,157.459033 180.199811,157.459033 L186.361013,157.459033 C184.954428,152.400985 181.115249,147.173221 177.345498,147.173221 L173.493462,147.173221 C173.328889,147.178364 173.166887,147.198935 172.999743,147.198935 C168.823703,147.198935 164.897094,145.337203 162.222783,142.169173 C158.903037,145.051772 154.585567,146.808075 149.856665,146.808075 C145.125191,146.808075 140.807722,145.051772 137.487976,142.169173 C134.808522,145.319203 130.884484,147.173221 126.713587,147.173221 L121.570681,147.173221 C117.646644,147.173221 114.481185,152.758417 113.200601,157.947609 L112.694025,159.973914 Z M115.142048,133.030229 C115.142048,139.410004 120.333812,144.601768 126.713587,144.601768 C130.195335,144.601768 133.46108,143.020324 135.659673,140.343442 C132.738502,137.015981 130.951342,132.667654 130.951342,127.905323 C130.951342,126.071877 131.229059,124.305289 131.715064,122.628701 C130.154192,121.867551 128.480176,121.45869 126.713587,121.45869 C120.333812,121.45869 115.142048,126.647882 115.142048,133.030229 Z M149.856665,111.571453 C140.851436,111.571453 133.522795,118.900094 133.522795,127.905323 C133.522795,136.910552 140.851436,144.236622 149.856665,144.236622 C158.861894,144.236622 166.190535,136.910552 166.190535,127.905323 C166.190535,118.900094 158.861894,111.571453 149.856665,111.571453 Z M172.999743,121.484405 C171.251155,121.484405 169.548853,121.903552 168.005981,122.659559 C168.486843,124.32586 168.761988,126.084734 168.761988,127.905323 C168.761988,132.670226 166.972257,137.018553 164.053657,140.348584 C166.223964,143.010038 169.451137,144.591482 172.904599,144.622339 C172.938028,144.619768 172.963742,144.601768 172.999743,144.601768 L173.249174,144.601768 C179.510662,144.465481 184.571282,139.350861 184.571282,133.055944 C184.571282,126.673597 179.379518,121.484405 172.999743,121.484405 Z M198.714273,169.802008 C199.423995,169.802008 200,170.375442 200,171.087735 L200,177.259222 C200,177.968943 199.423995,178.544948 198.714273,178.544948 L197.266545,178.544948 C197.004257,179.378099 196.667397,180.190678 196.261107,180.964686 L197.284546,181.993267 C197.78855,182.4947 197.78855,183.309851 197.284546,183.811284 L192.923361,188.172469 C192.421928,188.673902 191.606777,188.673902 191.105344,188.172469 L190.079334,187.14903 C189.302755,187.55532 188.490176,187.89218 187.657025,188.151897 L187.657025,189.602197 C187.657025,190.311918 187.083591,190.887923 186.371299,190.887923 L180.199811,190.887923 C179.487519,190.887923 178.914085,190.311918 178.914085,189.602197 L178.914085,188.151897 C178.080934,187.89218 177.268355,187.55532 176.491776,187.14903 L175.465766,188.172469 C174.964333,188.673902 174.149182,188.673902 173.647749,188.172469 L169.286564,183.811284 C168.78256,183.309851 168.78256,182.4947 169.286564,181.993267 L170.21743,181.05983 C164.0408,183.862713 157.041305,185.356728 149.856665,185.356728 C136.248535,185.356728 123.39127,179.966962 115.460909,170.933447 C115.172906,170.604301 115.072619,170.149154 115.193477,169.727436 L116.33006,165.775113 C116.000914,165.551396 115.646053,165.314822 115.260335,165.06282 C113.383175,163.828523 111.256583,162.427081 110.256288,161.082211 C110.024857,160.773636 109.945142,160.377632 110.037714,160.0022 L110.70372,157.327889 C111.945732,152.300698 114.854046,146.563787 119.243516,145.015772 C115.244907,142.513748 112.570595,138.083134 112.570595,133.030229 C112.570595,125.233583 118.916942,118.887237 126.713587,118.887237 C128.755321,118.887237 130.761054,119.350099 132.607358,120.206393 C135.561957,113.610615 142.175735,109 149.856665,109 C157.547881,109 164.166801,113.623473 167.118829,120.229536 C168.949704,119.375813 170.950295,118.912952 172.999743,118.912952 C180.796388,118.912952 187.142735,125.256726 187.142735,133.055944 C187.142735,138.224564 184.344994,142.742607 180.192097,145.211202 C184.314136,146.95979 187.744455,152.21584 189.00961,157.330461 L189.675616,160.0022 C189.760474,160.333918 189.685902,160.67335 189.513614,160.963924 C189.698759,161.048782 189.896761,161.102782 190.079334,161.197926 L191.105344,160.171916 C191.606777,159.670483 192.421928,159.670483 192.923361,160.171916 L197.284546,164.535672 C197.78855,165.037105 197.78855,165.849685 197.284546,166.353689 L196.261107,167.379699 C196.667397,168.156278 197.004257,168.966286 197.266545,169.802008 L198.714273,169.802008 Z" id="icon-section-hr"></path>
        </g>
    </g>
</svg>