<?xml version="1.0" encoding="UTF-8"?>
<svg width="68px" height="100px" viewBox="0 0 68 100" version="1.1" xmlns="http://www.w3.org/2000/svg" xmlns:xlink="http://www.w3.org/1999/xlink">
    <!-- Generator: Sketch 54.1 (76490) - https://sketchapp.com -->
    <title>icon-section-radio</title>
    <desc>Created with Sketch.</desc>
    <defs>
        <path d="M179.088639,498.037097 C179.906689,498.037097 180.571536,498.699053 180.571536,499.519994 C180.571536,500.338044 179.906689,501 179.088639,501 L120.113861,501 C119.29292,501 118.630964,500.338044 118.630964,499.519994 C118.630964,498.699053 119.29292,498.037097 120.113861,498.037097 L179.088639,498.037097 Z M179.088639,492.254667 C179.906689,492.254667 180.571536,492.919513 180.571536,493.737563 C180.571536,494.555614 179.906689,495.22046 179.088639,495.22046 L120.113861,495.22046 C119.29292,495.22046 118.630964,494.555614 118.630964,493.737563 C118.630964,492.919513 119.29292,492.254667 120.113861,492.254667 L133.263369,492.254667 L145.38092,435.615524 C145.528342,434.930443 146.132485,434.441925 146.829129,434.441925 L148.118353,434.441925 L148.118353,431.435662 C145.288419,430.762144 143.166692,428.227055 143.166692,425.191886 C143.166692,421.645075 146.054438,418.757328 149.60125,418.757328 C153.145171,418.757328 156.032917,421.645075 156.032917,425.191886 C156.032917,428.227055 153.91408,430.762144 151.081256,431.435662 L151.081256,434.441925 L152.373371,434.441925 C153.070014,434.441925 153.674157,434.930443 153.82158,435.615524 L165.93624,492.254667 L179.088639,492.254667 Z M151.621805,476.769524 L162.117708,488.563323 L158.056363,469.574728 L151.621805,476.769524 Z M137.772763,492.254667 L161.438409,492.254667 L149.635937,478.992424 L137.772763,492.254667 Z M141.166371,469.476446 L137.07901,488.592229 L147.65296,476.763742 L141.166371,469.476446 Z M144.614901,453.352473 L142.377548,463.81947 L147.664523,457.124754 L144.614901,453.352473 Z M148.025853,437.407719 L145.412717,449.629332 C145.424279,449.646676 145.441623,449.66691 145.456076,449.684254 L149.546328,454.742869 L153.387984,449.875036 C153.497829,449.736286 153.627907,449.623551 153.769548,449.533941 L151.176647,437.407719 L148.025853,437.407719 Z M155.99823,467.432766 L149.572343,459.486405 L143.302552,467.424094 L149.638828,474.540843 L155.99823,467.432766 Z M154.550021,453.184816 L151.454148,457.101629 L156.801827,463.715407 L154.550021,453.184816 Z M146.132485,425.191886 C146.132485,427.105488 147.687648,428.660651 149.60125,428.660651 C151.514852,428.660651 153.070014,427.105488 153.070014,425.191886 C153.070014,423.278285 151.514852,421.720231 149.60125,421.720231 C147.687648,421.720231 146.132485,423.278285 146.132485,425.191886 Z M137.002119,437.788126 C133.637417,434.423425 131.781628,429.948719 131.781628,425.193621 C131.781628,420.432741 133.637417,415.958035 137.002119,412.593334 C137.577356,412.018097 138.519704,412.018097 139.097831,412.593334 C139.675958,413.171461 139.675958,414.110918 139.097831,414.689045 C136.291022,417.492963 134.747422,421.224776 134.747422,425.193621 C134.747422,429.159575 136.291022,432.888497 139.097831,435.692415 C139.675958,436.273433 139.675958,437.209999 139.097831,437.788126 C138.808767,438.07719 138.427203,438.221722 138.04853,438.221722 C137.669856,438.221722 137.291183,438.07719 137.002119,437.788126 Z M160.104669,437.788126 C159.526541,437.209999 159.526541,436.273433 160.104669,435.692415 C162.911477,432.888497 164.455078,429.159575 164.455078,425.193621 C164.455078,421.224776 162.911477,417.492963 160.104669,414.689045 C159.526541,414.110918 159.526541,413.171461 160.104669,412.593334 C160.679906,412.018097 161.622253,412.018097 162.200381,412.593334 C165.565082,415.958035 167.417981,420.432741 167.417981,425.193621 C167.417981,429.948719 165.565082,434.423425 162.200381,437.788126 C161.911317,438.07719 161.529753,438.221722 161.151079,438.221722 C160.772406,438.221722 160.393732,438.07719 160.104669,437.788126 Z M131.376072,443.417064 C126.505349,438.54345 123.825728,432.071313 123.825728,425.191597 C123.825728,418.30899 126.505349,411.836854 131.376072,406.969021 C131.951309,406.390894 132.893657,406.390894 133.471784,406.969021 C134.049911,407.547148 134.049911,408.483715 133.471784,409.061842 C129.158953,413.371782 126.788631,419.101025 126.788631,425.191597 C126.788631,431.28217 129.158953,437.008522 133.471784,441.321352 C134.049911,441.90237 134.049911,442.838937 133.471784,443.417064 C133.17983,443.706128 132.801156,443.85066 132.422483,443.85066 C132.043809,443.85066 131.665136,443.706128 131.376072,443.417064 Z M172.412423,425.192464 C172.412423,419.101892 170.042101,413.372649 165.72927,409.062709 C165.151143,408.484582 165.151143,407.548016 165.72927,406.966998 C166.307398,406.391761 167.249745,406.391761 167.824982,406.966998 C172.695706,411.837721 175.375326,418.309858 175.375326,425.192464 C175.375326,432.072181 172.695706,438.544317 167.824982,443.417931 C167.535919,443.704104 167.157245,443.851527 166.778572,443.851527 C166.399898,443.851527 166.021225,443.704104 165.72927,443.417931 C165.151143,442.836913 165.151143,441.900347 165.72927,441.322219 C170.042101,437.009389 172.412423,431.280146 172.412423,425.192464 Z M126.890671,449.384784 C126.511997,449.384784 126.130433,449.237362 125.84426,448.951189 C119.496421,442.60335 115.99875,434.16558 115.99875,425.193043 C115.99875,416.217614 119.496421,407.776954 125.84426,401.432006 C126.419497,400.856769 127.361844,400.856769 127.937081,401.432006 C128.515209,402.010133 128.515209,402.94959 127.937081,403.527718 C122.150026,409.314773 118.964544,417.009649 118.964544,425.193043 C118.964544,433.373545 122.150026,441.068421 127.937081,446.855477 C128.515209,447.433604 128.515209,448.370171 127.937081,448.951189 C127.650908,449.237362 127.269344,449.384784 126.890671,449.384784 Z M180.237667,425.192464 C180.237667,417.009071 177.049294,409.314195 171.265129,403.527139 C170.684111,402.949012 170.684111,402.009555 171.265129,401.431428 C171.840366,400.856191 172.782714,400.856191 173.357951,401.431428 C179.702899,407.779267 183.20057,416.219927 183.20057,425.192464 C183.20057,434.165002 179.702899,442.602772 173.357951,448.950611 C173.071778,449.236784 172.690214,449.384206 172.31154,449.384206 C171.932867,449.384206 171.551303,449.236784 171.265129,448.950611 C170.684111,448.372483 170.684111,447.433026 171.265129,446.854899 C177.049294,441.067843 180.237667,433.372967 180.237667,425.192464 Z" id="path-1"></path>
    </defs>
    <g id="Graphics" stroke="none" stroke-width="1" fill="none" fill-rule="evenodd">
        <g id="Artboard" transform="translate(-116.000000, -401.000000)">
            <mask id="mask-2" fill="white">
                <use xlink:href="#path-1"></use>
            </mask>
            <use id="icon-section-radio" fill="#505050" xlink:href="#path-1"></use>
        </g>
    </g>
</svg>