<?xml version="1.0" encoding="UTF-8"?>
<svg width="100px" height="89px" viewBox="0 0 100 89" version="1.1" xmlns="http://www.w3.org/2000/svg" xmlns:xlink="http://www.w3.org/1999/xlink">
    <!-- Generator: Sketch 53.2 (72643) - https://sketchapp.com -->
    <title>icon-section-digiform</title>
    <desc>Created with Sketch.</desc>
    <g id="Features" stroke="none" stroke-width="1" fill="none" fill-rule="evenodd">
        <g id="Artboard" transform="translate(-500.000000, -306.000000)" fill="#505050">
            <path d="M591.176471,370.705882 L597.058824,370.705882 L597.058824,323.647059 L583.823529,323.647059 C583.011765,323.647059 582.352941,322.988235 582.352941,322.176471 L582.352941,308.941176 L552.941176,308.941176 L552.941176,326.588235 L586.764706,326.588235 C589.197059,326.588235 591.176471,328.567647 591.176471,331 L591.176471,370.705882 Z M588.235294,383.941176 L588.235294,331 C588.235294,330.191176 587.573529,329.529412 586.764706,329.529412 L513.235294,329.529412 C512.426471,329.529412 511.764706,330.191176 511.764706,331 L511.764706,383.941176 C511.764706,384.75 512.426471,385.411765 513.235294,385.411765 L586.764706,385.411765 C587.573529,385.411765 588.235294,384.75 588.235294,383.941176 Z M585.294118,311.020588 L585.294118,320.705882 L594.979412,320.705882 L585.294118,311.020588 Z M599.885294,321.611765 C599.958824,321.788235 600,321.982353 600,322.176471 L600,372.176471 C600,372.988235 599.341176,373.647059 598.529412,373.647059 L591.176471,373.647059 L591.176471,383.941176 C591.176471,386.373529 589.197059,388.352941 586.764706,388.352941 L513.235294,388.352941 C510.802941,388.352941 508.823529,386.373529 508.823529,383.941176 L508.823529,331 C508.823529,328.567647 510.802941,326.588235 513.235294,326.588235 L550,326.588235 L550,307.470588 C550,306.658824 550.658824,306 551.470588,306 L583.823529,306 C584.017647,306 584.211765,306.041176 584.388235,306.114706 C584.570588,306.188235 584.732353,306.3 584.864706,306.432353 L599.567647,321.135294 C599.7,321.267647 599.811765,321.429412 599.885294,321.611765 Z M583.852353,332.470588 C584.664118,332.470588 585.322941,333.129412 585.322941,333.941176 C585.322941,334.752941 584.664118,335.411765 583.852353,335.411765 C583.040588,335.411765 582.367059,334.752941 582.367059,333.941176 C582.367059,333.129412 583.011176,332.470588 583.822941,332.470588 L583.852353,332.470588 Z M577.97,335.411765 C577.158235,335.411765 576.484706,334.752941 576.484706,333.941176 C576.484706,333.129412 577.128824,332.470588 577.940588,332.470588 L577.97,332.470588 C578.781765,332.470588 579.440588,333.129412 579.440588,333.941176 C579.440588,334.752941 578.781765,335.411765 577.97,335.411765 Z M572.087647,335.411765 C571.275882,335.411765 570.602353,334.752941 570.602353,333.941176 C570.602353,333.129412 571.246471,332.470588 572.058235,332.470588 L572.087647,332.470588 C572.899412,332.470588 573.558235,333.129412 573.558235,333.941176 C573.558235,334.752941 572.899412,335.411765 572.087647,335.411765 Z M580.882353,347.176471 C581.694118,347.176471 582.352941,347.835294 582.352941,348.647059 C582.352941,349.458824 581.694118,350.117647 580.882353,350.117647 L563.235294,350.117647 C562.423529,350.117647 561.764706,349.458824 561.764706,348.647059 C561.764706,347.835294 562.423529,347.176471 563.235294,347.176471 L580.882353,347.176471 Z M580.882353,356 C581.694118,356 582.352941,356.658824 582.352941,357.470588 C582.352941,358.282353 581.694118,358.941176 580.882353,358.941176 L563.235294,358.941176 C562.423529,358.941176 561.764706,358.282353 561.764706,357.470588 C561.764706,356.658824 562.423529,356 563.235294,356 L580.882353,356 Z M580.882353,364.823529 C581.694118,364.823529 582.352941,365.482353 582.352941,366.294118 C582.352941,367.105882 581.694118,367.764706 580.882353,367.764706 L563.235294,367.764706 C562.423529,367.764706 561.764706,367.105882 561.764706,366.294118 C561.764706,365.482353 562.423529,364.823529 563.235294,364.823529 L580.882353,364.823529 Z M580.882353,373.647059 C581.694118,373.647059 582.352941,374.305882 582.352941,375.117647 C582.352941,375.929412 581.694118,376.588235 580.882353,376.588235 L563.235294,376.588235 C562.423529,376.588235 561.764706,375.929412 561.764706,375.117647 C561.764706,374.305882 562.423529,373.647059 563.235294,373.647059 L580.882353,373.647059 Z M517.647059,357.470588 C517.647059,356.658824 518.305882,356 519.117647,356 L542.647059,356 C543.458824,356 544.117647,356.658824 544.117647,357.470588 C544.117647,358.282353 543.458824,358.941176 542.647059,358.941176 L519.117647,358.941176 C518.305882,358.941176 517.647059,358.282353 517.647059,357.470588 Z M548.529412,364.823529 C549.341176,364.823529 550,365.482353 550,366.294118 C550,367.105882 549.341176,367.764706 548.529412,367.764706 L519.117647,367.764706 C518.305882,367.764706 517.647059,367.105882 517.647059,366.294118 C517.647059,365.482353 518.305882,364.823529 519.117647,364.823529 L548.529412,364.823529 Z M536.764706,373.647059 C537.576471,373.647059 538.235294,374.305882 538.235294,375.117647 C538.235294,375.929412 537.576471,376.588235 536.764706,376.588235 L519.117647,376.588235 C518.305882,376.588235 517.647059,375.929412 517.647059,375.117647 C517.647059,374.305882 518.305882,373.647059 519.117647,373.647059 L536.764706,373.647059 Z M548.529412,373.647059 C549.341176,373.647059 550,374.305882 550,375.117647 C550,375.929412 549.341176,376.588235 548.529412,376.588235 L542.647059,376.588235 C541.835294,376.588235 541.176471,375.929412 541.176471,375.117647 C541.176471,374.305882 541.835294,373.647059 542.647059,373.647059 L548.529412,373.647059 Z M598.529412,391.294118 C599.341176,391.294118 600,391.952941 600,392.764706 C600,393.576471 599.341176,394.235294 598.529412,394.235294 L501.470588,394.235294 C500.658824,394.235294 500,393.576471 500,392.764706 C500,391.952941 500.658824,391.294118 501.470588,391.294118 L598.529412,391.294118 Z M530.692647,336.198824 L518.722059,349.166471 C518.430882,349.484118 518.036765,349.64 517.642647,349.64 C517.283824,349.64 516.925,349.510588 516.645588,349.248824 C516.048529,348.698824 516.010294,347.769412 516.560294,347.172353 L528.533824,334.204706 C529.086765,333.604706 530.016176,333.569412 530.610294,334.122353 C531.207353,334.672353 531.242647,335.604706 530.692647,336.198824 Z M517.988824,340.952353 C517.612353,340.952353 517.235882,340.808235 516.947647,340.522941 C516.374118,339.946471 516.374118,339.017059 516.947647,338.440588 L520.38,335.008235 C520.956471,334.434706 521.885882,334.434706 522.462353,335.008235 C523.035882,335.584706 523.035882,336.514118 522.462353,337.090588 L519.03,340.522941 C518.741765,340.808235 518.365294,340.952353 517.988824,340.952353 Z" id="icon-section-digiform"></path>
        </g>
    </g>
</svg>