<?xml version="1.0" encoding="UTF-8"?>
<svg width="90px" height="63px" viewBox="0 0 90 63" version="1.1" xmlns="http://www.w3.org/2000/svg" xmlns:xlink="http://www.w3.org/1999/xlink">
    <!-- Generator: Sketch 54.1 (76490) - https://sketchapp.com -->
    <title>icon-email</title>
    <desc>Created with Sketch.</desc>
    <g id="Graphics" stroke="none" stroke-width="1" fill="none" fill-rule="evenodd">
        <g id="Artboard" transform="translate(-306.000000, -423.000000)" fill="#505050">
            <path d="M390.872877,425.94493 L351.001472,464.293806 L341.739668,455.388338 C341.739668,455.388338 341.739668,455.385393 341.736723,455.382448 C341.730833,455.376558 341.724944,455.373613 341.719054,455.364779 L311.127123,425.94493 L390.872877,425.94493 Z M363.608717,456.254147 L393.05507,427.932757 L393.05507,480.806027 L363.608717,456.254147 Z M361.476588,458.306764 L390.457642,482.472858 L311.545303,482.472858 L340.529302,458.306764 L349.979582,467.397762 C350.26524,467.67164 350.633356,467.810052 351.001472,467.810052 C351.369589,467.810052 351.737705,467.67164 352.023363,467.397762 L361.476588,458.306764 Z M308.94493,427.932757 L338.394228,456.254147 L308.94493,480.808972 L308.94493,427.932757 Z M396,424.472465 C396,424.289879 395.958771,424.122018 395.896927,423.960047 C395.891038,423.948267 395.899872,423.933543 395.893983,423.921763 C395.891038,423.921763 395.891038,423.918818 395.888093,423.918818 C395.787965,423.674389 395.614214,423.480024 395.408069,423.320997 C395.36095,423.285658 395.316776,423.256209 395.263768,423.223815 C395.045843,423.094238 394.801414,423 394.527535,423 L307.472465,423 C307.198586,423 306.954157,423.094238 306.736232,423.223815 C306.683224,423.256209 306.636105,423.285658 306.588986,423.320997 C306.385786,423.480024 306.20909,423.674389 306.111907,423.918818 C306.111907,423.918818 306.106017,423.921763 306.106017,423.921763 C306.100128,423.933543 306.106017,423.948267 306.103073,423.960047 C306.041229,424.122018 306,424.289879 306,424.472465 L306,483.945322 C306,484.110239 306.041229,484.26043 306.091293,484.410621 C306.097183,484.419456 306.088348,484.434181 306.094238,484.448905 C306.097183,484.454795 306.100128,484.454795 306.103073,484.460685 C306.200255,484.716894 306.371061,484.923039 306.583096,485.0909 C306.630215,485.126239 306.668499,485.149799 306.718563,485.182193 C306.939433,485.31766 307.183862,485.414842 307.46363,485.414842 C307.46952,485.414842 307.472465,485.420732 307.478355,485.420732 L394.527535,485.420732 C394.53637,485.420732 394.545205,485.411898 394.554039,485.411898 C394.822028,485.408953 395.060567,485.314715 395.275547,485.185138 C395.331501,485.149799 395.37862,485.123294 395.428684,485.082065 C395.631884,484.920094 395.799745,484.719839 395.893983,484.472465 C395.896927,484.460685 395.908707,484.45774 395.911652,484.448905 C395.920487,484.422401 395.908707,484.398842 395.914597,484.372337 C395.958771,484.233926 396,484.098459 396,483.945322 L396,424.472465 Z" id="icon-email"></path>
        </g>
    </g>
</svg>