<?xml version="1.0" encoding="UTF-8"?>
<svg width="90px" height="74px" viewBox="0 0 90 74" version="1.1" xmlns="http://www.w3.org/2000/svg" xmlns:xlink="http://www.w3.org/1999/xlink">
    <!-- Generator: Sketch 53.2 (72643) - https://sketchapp.com -->
    <title>icon-section-itsm-white</title>
    <desc>Created with Sketch.</desc>
    <g id="Features" stroke="none" stroke-width="1" fill="none" fill-rule="evenodd">
        <g id="Artboard-Copy" transform="translate(-6.000000, -113.000000)" fill="#FFFFFF">
            <path d="M9,171.263688 L93,171.263688 L93,116.006131 L9,116.006131 L9,171.263688 Z M94.5,113 C95.328,113 96,113.672701 96,114.501564 L96,172.765252 C96,173.594116 95.328,174.266816 94.5,174.266816 L52.437,174.266816 C52.461,174.36592 52.5,174.459017 52.5,174.564126 L52.5,183.975929 L73.401,183.975929 C74.229,183.975929 74.901,184.64863 74.901,185.477494 C74.901,186.306357 74.229,186.979058 73.401,186.979058 L28.599,186.979058 C27.771,186.979058 27.099,186.306357 27.099,185.477494 C27.099,184.64863 27.771,183.975929 28.599,183.975929 L49.5,183.975929 L49.5,174.564126 C49.5,174.459017 49.539,174.36592 49.563,174.266816 L7.5,174.266816 C6.672,174.266816 6,173.594116 6,172.765252 L6,114.501564 C6,113.672701 6.672,113 7.5,113 L94.5,113 Z M15.0263684,136.089005 C14.6665099,136.089005 14.3036774,135.958673 14.0181698,135.695045 C13.4144403,135.141132 13.3757778,134.202144 13.9348968,133.603799 L26.039228,120.543879 C26.598347,119.942572 27.5411168,119.907026 28.1388982,120.46094 C28.7426278,121.014854 28.7812902,121.953841 28.2221713,122.552186 L16.1178401,135.612106 C15.8263844,135.929052 15.4278634,136.089005 15.0263684,136.089005 Z M15.5329988,127.60733 C15.1434265,127.60733 14.7538542,127.45818 14.455588,127.162923 C13.862099,126.566321 13.862099,125.604454 14.455588,125.007852 L18.0073914,121.455639 C18.603924,120.862082 19.5656805,120.862082 20.1622131,121.455639 C20.7557021,122.052241 20.7557021,123.014108 20.1622131,123.61071 L16.6104096,127.162923 C16.3121433,127.45818 15.9225711,127.60733 15.5329988,127.60733 Z M51.2356021,136.717277 C47.9439267,136.717277 45.2670157,139.394188 45.2670157,142.685864 C45.2670157,145.977539 47.9439267,148.65445 51.2356021,148.65445 C54.5272775,148.65445 57.2041885,145.977539 57.2041885,142.685864 C57.2041885,139.394188 54.5272775,136.717277 51.2356021,136.717277 Z M51.2356021,151.638743 C46.2995812,151.638743 42.2827225,147.621885 42.2827225,142.685864 C42.2827225,137.749843 46.2995812,133.732984 51.2356021,133.732984 C56.171623,133.732984 60.1884817,137.749843 60.1884817,142.685864 C60.1884817,147.621885 56.171623,151.638743 51.2356021,151.638743 Z M34.4534837,140.815546 L34.4534837,145.027386 L35.7892388,145.027386 C36.487201,145.027386 37.0919009,145.508739 37.2543576,146.185642 C37.6003302,147.647753 38.1809625,149.043677 38.9751953,150.331297 C39.3392187,150.923963 39.2519734,151.69112 38.7585864,152.184507 L37.8109223,153.135179 L40.7862867,156.110544 L41.7369593,155.165888 C42.2333548,154.669493 43.0005115,154.585256 43.5901692,154.946271 C44.877789,155.740503 46.2737133,156.321136 47.7358236,156.670117 C48.415735,156.829565 48.8940797,157.434265 48.8940797,158.132227 L48.8940797,159.467982 L53.1059203,159.467982 L53.1059203,158.132227 C53.1059203,157.434265 53.584265,156.829565 54.2641764,156.670117 C55.7262867,156.321136 57.122211,155.740503 58.4098308,154.946271 C58.9994885,154.585256 59.7696536,154.669493 60.2630407,155.165888 L61.2137133,156.110544 L64.1890777,153.135179 L63.2414136,152.184507 C62.7480266,151.69112 62.6607813,150.923963 63.0248047,150.331297 C63.8190375,149.043677 64.3996698,147.647753 64.7456424,146.185642 C64.9080991,145.508739 65.512799,145.027386 66.2107612,145.027386 L67.5465163,145.027386 L67.5465163,140.815546 L66.2107612,140.815546 C65.512799,140.815546 64.9080991,140.337201 64.7456424,139.65729 C64.3996698,138.195179 63.8190375,136.799255 63.0248047,135.511635 C62.6607813,134.918969 62.7480266,134.151812 63.2414136,133.658425 L64.1890777,132.710761 L61.2137133,129.732388 L60.2630407,130.680052 C59.7696536,131.176448 58.9994885,131.260685 58.4098308,130.896661 C57.122211,130.102429 55.7262867,129.521796 54.2641764,129.175824 C53.584265,129.013367 53.1059203,128.408667 53.1059203,127.713713 L53.1059203,126.37495 L48.8940797,126.37495 L48.8940797,127.713713 C48.8940797,128.408667 48.415735,129.013367 47.7358236,129.175824 C46.2737133,129.521796 44.877789,130.102429 43.5901692,130.896661 C43.0005115,131.260685 42.2333548,131.176448 41.7369593,130.680052 L40.7862867,129.732388 L37.8109223,132.710761 L38.7585864,133.658425 C39.2519734,134.151812 39.3392187,134.918969 38.9751953,135.511635 C38.1809625,136.799255 37.6003302,138.195179 37.2543576,139.65729 C37.0919009,140.337201 36.487201,140.815546 35.7892388,140.815546 L34.4534837,140.815546 Z M32.9492549,148.035844 C32.1189207,148.035844 31.4450262,147.364958 31.4450262,146.531615 L31.4450262,139.311317 C31.4450262,138.480983 32.1189207,137.807088 32.9492549,137.807088 L34.6430165,137.807088 C34.9498792,136.832348 35.3439871,135.881675 35.8193234,134.97613 L34.6219573,133.772747 C34.0322996,133.186097 34.0322996,132.232416 34.6219573,131.645767 L39.7243012,126.543423 C40.3109505,125.956774 41.2646315,125.956774 41.8512807,126.543423 L43.0516553,127.740789 C43.9602094,127.265453 44.910882,126.871345 45.8856222,126.567491 L45.8856222,124.870721 C45.8856222,124.040387 46.5565083,123.366492 47.389851,123.366492 L54.610149,123.366492 C55.4434917,123.366492 56.1143778,124.040387 56.1143778,124.870721 L56.1143778,126.567491 C57.089118,126.871345 58.0397906,127.265453 58.9483447,127.740789 L60.1487193,126.543423 C60.7353685,125.956774 61.6890495,125.956774 62.2756988,126.543423 L67.3780427,131.645767 C67.9677004,132.232416 67.9677004,133.186097 67.3780427,133.772747 L66.1806766,134.97613 C66.6560129,135.881675 67.0501208,136.832348 67.3569835,137.807088 L69.0507451,137.807088 C69.8810793,137.807088 70.5549738,138.480983 70.5549738,139.311317 L70.5549738,146.531615 C70.5549738,147.364958 69.8810793,148.035844 69.0507451,148.035844 L67.3569835,148.035844 C67.0501208,149.013592 66.6560129,149.961257 66.1806766,150.869811 L67.3780427,152.070185 C67.9677004,152.659843 67.9677004,153.610516 67.3780427,154.197165 L62.2756988,159.302517 C61.6890495,159.889166 60.7353685,159.889166 60.1487193,159.302517 L58.9483447,158.102143 C58.0397906,158.577479 57.089118,158.971587 56.1143778,159.278449 L56.1143778,160.972211 C56.1143778,161.805554 55.4434917,162.47644 54.610149,162.47644 L47.389851,162.47644 C46.5565083,162.47644 45.8856222,161.805554 45.8856222,160.972211 L45.8856222,159.278449 C44.910882,158.971587 43.9602094,158.577479 43.0516553,158.102143 L41.8512807,159.302517 C41.2646315,159.889166 40.3109505,159.889166 39.7243012,159.302517 L34.6219573,154.197165 C34.0322996,153.610516 34.0322996,152.659843 34.6219573,152.070185 L35.8193234,150.869811 C35.3439871,149.961257 34.9498792,149.013592 34.6430165,148.035844 L32.9492549,148.035844 Z" id="icon-section-itsm"></path>
        </g>
    </g>
</svg>