<?xml version="1.0" encoding="UTF-8"?>
<svg width="77px" height="77px" viewBox="0 0 77 77" version="1.1" xmlns="http://www.w3.org/2000/svg" xmlns:xlink="http://www.w3.org/1999/xlink">
    <!-- Generator: Sketch 53.2 (72643) - https://sketchapp.com -->
    <title>icon-section-knowledge</title>
    <desc>Created with Sketch.</desc>
    <g id="Features" stroke="none" stroke-width="1" fill="none" fill-rule="evenodd">
        <g id="Desktop-HD---Features---HR" transform="translate(-371.000000, -908.000000)" fill="#505050">
            <path d="M430.741379,959.775331 C435.133034,959.775331 438.706897,963.349193 438.706897,967.740848 C438.706897,972.132503 435.133034,975.706366 430.741379,975.706366 C426.349724,975.706366 422.775862,972.132503 422.775862,967.740848 C422.775862,963.349193 426.349724,959.775331 430.741379,959.775331 Z M430.741379,973.051193 C433.670034,973.051193 436.051724,970.669503 436.051724,967.740848 C436.051724,964.812193 433.670034,962.430503 430.741379,962.430503 C427.812724,962.430503 425.431034,964.812193 425.431034,967.740848 C425.431034,970.669503 427.812724,973.051193 430.741379,973.051193 Z M445.344828,969.6 L445.344828,965.882759 L444.165931,965.882759 C443.549931,965.882759 443.016241,965.457931 442.872862,964.860517 C442.567517,963.570103 442.055069,962.338103 441.354103,961.20169 C441.032828,960.678621 441.109828,960.001552 441.545276,959.566103 L442.381655,958.727069 L439.75569,956.101103 L438.916655,956.934828 C438.478552,957.375586 437.804138,957.449931 437.281069,957.128655 C436.144655,956.42769 434.912655,955.915241 433.622241,955.607241 C433.022172,955.466517 432.6,954.932828 432.6,954.316828 L432.6,953.137931 L428.882759,953.137931 L428.882759,954.316828 C428.882759,954.932828 428.460586,955.466517 427.860517,955.607241 C426.570103,955.915241 425.338103,956.42769 424.20169,957.128655 C423.683931,957.449931 423.006862,957.375586 422.566103,956.934828 L421.727069,956.101103 L421.087172,956.741 C421.063276,956.767552 421.04469,956.788793 421.018138,956.81269 L419.101103,958.727069 L419.937483,959.566103 C420.372931,960.001552 420.449931,960.678621 420.128655,961.20169 C419.42769,962.338103 418.915241,963.570103 418.609897,964.860517 C418.466517,965.457931 417.932828,965.882759 417.316828,965.882759 L416.137931,965.882759 L416.137931,969.6 L417.316828,969.6 C417.932828,969.6 418.466517,970.022172 418.609897,970.622241 C418.915241,971.912655 419.42769,973.144655 420.128655,974.281069 C420.449931,974.804138 420.372931,975.481207 419.937483,975.916655 L419.101103,976.753034 L419.741,977.395586 C419.767552,977.416828 419.788793,977.438069 419.81269,977.464621 L421.727069,979.381655 L422.566103,978.545276 C423.006862,978.109828 423.683931,978.035483 424.20169,978.354103 C425.338103,979.055069 426.570103,979.567517 427.860517,979.872862 C428.460586,980.016241 428.882759,980.549931 428.882759,981.163276 L428.882759,982.344828 L432.6,982.344828 L432.6,981.163276 C432.6,980.549931 433.022172,980.016241 433.622241,979.872862 C434.912655,979.567517 436.144655,979.055069 437.281069,978.354103 C437.804138,978.035483 438.478552,978.109828 438.916655,978.545276 L439.75569,979.381655 L442.381655,976.753034 L441.545276,975.916655 C441.109828,975.481207 441.032828,974.804138 441.354103,974.281069 C442.055069,973.144655 442.567517,971.912655 442.872862,970.622241 C443.016241,970.022172 443.549931,969.6 444.165931,969.6 L445.344828,969.6 Z M373.655172,970.396552 C373.655172,974.058034 376.631621,977.034483 380.293103,977.034483 L415.952069,977.034483 C415.859138,976.607 415.954724,976.147655 416.286621,975.815759 L417.343379,974.75369 C416.923862,973.954483 416.576034,973.115448 416.305207,972.255172 L414.810345,972.255172 C414.077517,972.255172 413.482759,971.660414 413.482759,970.927586 L413.482759,964.555172 C413.482759,963.81969 414.077517,963.227586 414.810345,963.227586 L416.305207,963.227586 C416.576034,962.364655 416.923862,961.528276 417.343379,960.726414 L416.286621,959.667 C415.766207,959.146586 415.766207,958.307552 416.286621,957.789793 L418.793103,955.280655 L418.793103,926.586207 L380.293103,926.586207 C377.813172,926.586207 375.481931,925.619724 373.724207,923.859345 L373.655172,923.79031 L373.655172,970.396552 Z M380.293103,910.655172 C376.631621,910.655172 373.655172,913.631621 373.655172,917.293103 C373.655172,919.061448 374.348172,920.728897 375.601414,921.982138 C376.85731,923.238034 378.524759,923.931034 380.293103,923.931034 L416.788448,923.931034 C414.26869,920.896172 412.335724,916.122172 415.105069,910.655172 L380.293103,910.655172 Z M446.672414,963.227586 C447.405241,963.227586 448,963.81969 448,964.555172 L448,970.927586 C448,971.660414 447.405241,972.255172 446.672414,972.255172 L445.177552,972.255172 C444.906724,973.115448 444.558897,973.954483 444.139379,974.75369 L445.196138,975.815759 C445.716552,976.333517 445.716552,977.175207 445.196138,977.692966 L440.692966,982.196138 C440.175207,982.713897 439.333517,982.713897 438.815759,982.196138 L437.756345,981.139379 C436.954483,981.558897 436.115448,981.906724 435.255172,982.174897 L435.255172,983.672414 C435.255172,984.405241 434.663069,985 433.927586,985 L427.555172,985 C426.81969,985 426.227586,984.405241 426.227586,983.672414 L426.227586,982.174897 C425.36731,981.906724 424.528276,981.558897 423.726414,981.139379 L422.667,982.196138 C422.149241,982.713897 421.307552,982.713897 420.789793,982.196138 L418.28331,979.689655 L380.293103,979.689655 C375.168621,979.689655 371,975.518379 371,970.396552 L371,917.293103 C371,912.168621 375.168621,908 380.293103,908 L417.465517,908 C417.962034,908 418.416069,908.276138 418.644414,908.719552 C418.872759,909.16031 418.835586,909.694 418.546172,910.100241 C412.773828,918.177276 420.561448,923.939 420.896,924.180621 C420.917241,924.193897 420.919897,924.220448 420.938483,924.236379 C421.127,924.390379 421.27569,924.581552 421.358,924.812552 C421.373931,924.849724 421.371276,924.886897 421.381897,924.926724 C421.408448,925.035586 421.448276,925.139138 421.448276,925.258621 L421.448276,952.949414 C421.875759,952.856483 422.335103,952.952069 422.667,953.283966 L423.726414,954.343379 C424.528276,953.923862 425.36731,953.576034 426.227586,953.305207 L426.227586,951.810345 C426.227586,951.074862 426.81969,950.482759 427.555172,950.482759 L433.927586,950.482759 C434.663069,950.482759 435.255172,951.074862 435.255172,951.810345 L435.255172,953.305207 C436.115448,953.576034 436.954483,953.923862 437.756345,954.343379 L438.815759,953.283966 C439.333517,952.766207 440.175207,952.766207 440.692966,953.283966 L445.196138,957.789793 C445.716552,958.307552 445.716552,959.146586 445.196138,959.667 L444.139379,960.726414 C444.558897,961.528276 444.906724,962.364655 445.177552,963.227586 L446.672414,963.227586 Z M404.189655,939.861538 C404.922483,939.861538 405.517241,940.456297 405.517241,941.189124 C405.517241,941.921952 404.922483,942.51671 404.189655,942.51671 L388.258621,942.51671 C387.525793,942.51671 386.931034,941.921952 386.931034,941.189124 C386.931034,940.456297 387.525793,939.861538 388.258621,939.861538 L404.189655,939.861538 Z M404.189655,947.827055 C404.922483,947.827055 405.517241,948.421814 405.517241,949.154641 C405.517241,949.887469 404.922483,950.482228 404.189655,950.482228 L388.258621,950.482228 C387.525793,950.482228 386.931034,949.887469 386.931034,949.154641 C386.931034,948.421814 387.525793,947.827055 388.258621,947.827055 L404.189655,947.827055 Z" id="icon-section-knowledge"></path>
        </g>
    </g>
</svg>