<?xml version="1.0" encoding="UTF-8"?>
<svg width="90px" height="76px" viewBox="0 0 90 76" version="1.1" xmlns="http://www.w3.org/2000/svg" xmlns:xlink="http://www.w3.org/1999/xlink">
    <!-- Generator: Sketch 53.2 (72643) - https://sketchapp.com -->
    <title>icon-section-templates-white</title>
    <desc>Created with Sketch.</desc>
    <g id="Features" stroke="none" stroke-width="1" fill="none" fill-rule="evenodd">
        <g id="Artboard-Copy" transform="translate(-606.000000, -112.000000)" fill="#FFFFFF">
            <path d="M643.075172,127.006334 C638.938672,127.006334 635.5728,130.372206 635.5728,134.508706 C635.5728,138.647855 638.938672,142.011078 643.075172,142.011078 C647.211673,142.011078 650.577545,138.647855 650.577545,134.508706 C650.577545,130.372206 647.211673,127.006334 643.075172,127.006334 Z M643.075172,144.659286 C637.479509,144.659286 632.924592,140.104369 632.924592,134.508706 C632.924592,128.913043 637.479509,124.358126 643.075172,124.358126 C648.670835,124.358126 653.225752,128.913043 653.225752,134.508706 C653.225752,140.104369 648.670835,144.659286 643.075172,144.659286 Z M623.213615,131.596737 L623.213615,137.420146 L625.226253,137.420146 C625.837989,137.420146 626.372926,137.841211 626.513281,138.439705 C626.931698,140.203412 627.628177,141.885024 628.586828,143.436873 C628.907261,143.95857 628.830463,144.633863 628.396157,145.068169 L626.971421,146.492905 L631.092033,150.613516 L632.516768,149.18878 C632.956371,148.751826 633.631664,148.677676 634.148064,148.995461 C635.699914,149.956761 637.381526,150.650591 639.145232,151.071656 C639.741079,151.209363 640.162144,151.744301 640.162144,152.358685 L640.162144,154.371323 L645.988201,154.371323 L645.988201,152.358685 C645.988201,151.744301 646.409266,151.209363 647.005113,151.071656 C648.768819,150.650591 650.450431,149.956761 652.00228,148.995461 C652.521329,148.677676 653.19927,148.751826 653.633576,149.18878 L655.058312,150.613516 L659.178923,146.492905 L657.754187,145.068169 C657.319881,144.633863 657.243083,143.95857 657.563517,143.436873 C658.522168,141.885024 659.218646,140.203412 659.637063,138.439705 C659.777418,137.841211 660.312356,137.420146 660.924092,137.420146 L662.93673,137.420146 L662.93673,131.596737 L660.924092,131.596737 C660.312356,131.596737 659.777418,131.175672 659.637063,130.577177 C659.218646,128.813471 658.522168,127.131859 657.563517,125.582657 C657.243083,125.058312 657.319881,124.383019 657.754187,123.948713 L659.178923,122.523977 L655.058312,118.406014 L653.633576,119.83075 C653.19927,120.267704 652.521329,120.341854 652.00228,120.021421 C650.450431,119.06277 648.768819,118.366291 647.005113,117.947874 C646.409266,117.807519 645.988201,117.272581 645.988201,116.658197 L645.988201,114.648208 L640.162144,114.648208 L640.162144,116.658197 C640.162144,117.272581 639.741079,117.807519 639.145232,117.947874 C637.381526,118.366291 635.699914,119.06277 634.148064,120.021421 C633.631664,120.341854 632.956371,120.267704 632.516768,119.83075 L631.092033,118.406014 L626.971421,122.523977 L628.396157,123.948713 C628.830463,124.383019 628.907261,125.058312 628.586828,125.582657 C627.628177,127.131859 626.931698,128.813471 626.513281,130.577177 C626.372926,131.175672 625.837989,131.596737 625.226253,131.596737 L623.213615,131.596737 Z M621.889511,140.068353 C621.158606,140.068353 620.565407,139.477803 620.565407,138.744249 L620.565407,130.272633 C620.565407,129.541728 621.158606,128.948529 621.889511,128.948529 L624.206693,128.948529 C624.598627,127.613832 625.136214,126.326804 625.803562,125.103332 L624.161673,123.461443 C623.645273,122.942394 623.645273,122.105561 624.161673,121.58916 L630.154567,115.596266 C630.670968,115.079866 631.510449,115.079866 632.02685,115.596266 L633.668739,117.235507 C634.892211,116.568158 636.17924,116.03322 637.513936,115.641286 L637.513936,113.324104 C637.513936,112.59055 638.107135,112 638.83804,112 L647.312305,112 C648.04321,112 648.636408,112.59055 648.636408,113.324104 L648.636408,115.641286 C649.971105,116.03322 651.258134,116.568158 652.481606,117.235507 L654.123495,115.596266 C654.639895,115.079866 655.479377,115.079866 655.995778,115.596266 L661.988672,121.58916 C662.505072,122.105561 662.505072,122.942394 661.988672,123.461443 L660.346783,125.103332 C661.014131,126.326804 661.551717,127.613832 661.943652,128.948529 L664.260834,128.948529 C664.991739,128.948529 665.584938,129.541728 665.584938,130.272633 L665.584938,138.744249 C665.584938,139.477803 664.991739,140.068353 664.260834,140.068353 L661.943652,140.068353 C661.551717,141.40305 661.014131,142.690079 660.346783,143.913551 L661.988672,145.555439 C662.505072,146.074488 662.505072,146.911322 661.988672,147.430371 L655.995778,153.420616 C655.479377,153.939665 654.639895,153.939665 654.123495,153.420616 L652.481606,151.781376 C651.258134,152.448724 649.971105,152.983662 648.636408,153.378245 L648.636408,155.695427 C648.636408,156.426332 648.04321,157.019531 647.312305,157.019531 L638.83804,157.019531 C638.107135,157.019531 637.513936,156.426332 637.513936,155.695427 L637.513936,153.378245 C636.17924,152.983662 634.892211,152.448724 633.668739,151.781376 L632.02685,153.420616 C631.510449,153.939665 630.670968,153.939665 630.154567,153.420616 L624.161673,147.430371 C623.645273,146.911322 623.645273,146.074488 624.161673,145.555439 L625.803562,143.913551 C625.136214,142.690079 624.598627,141.40305 624.206693,140.068353 L621.889511,140.068353 Z M664.716061,161.634827 L692.802951,133.545288 L689.058386,129.800722 L660.968847,157.887613 L664.716061,161.634827 Z M655.802194,166.80148 L662.520696,163.184028 L659.419645,160.082977 L655.802194,166.80148 Z M695.6127,132.607823 C696.1291,133.124223 696.1291,133.963705 695.6127,134.480105 L690.742646,139.350159 L690.742646,180.85287 C690.742646,184.504748 687.774005,187.473389 684.122127,187.473389 L612.620519,187.473389 C608.968641,187.473389 606,184.504748 606,180.85287 L606,130.536924 C606,126.885046 608.968641,123.916405 612.620519,123.916405 L616.96358,123.916405 C617.694485,123.916405 618.287684,124.506955 618.287684,125.240509 C618.287684,125.971414 617.694485,126.564613 616.96358,126.564613 L612.620519,126.564613 C610.430451,126.564613 608.648208,128.346856 608.648208,130.536924 L608.648208,160.991312 L628.509765,160.991312 C630.699833,160.991312 632.482077,162.773556 632.482077,164.963624 L632.482077,167.611832 C632.482077,168.340089 633.077924,168.935935 633.806181,168.935935 L647.047219,168.935935 C647.778124,168.935935 648.371323,169.526486 648.371323,170.260039 C648.371323,170.990945 647.778124,171.584143 647.047219,171.584143 L633.806181,171.584143 C631.616113,171.584143 629.833869,169.801899 629.833869,167.611832 L629.833869,164.963624 C629.833869,164.232719 629.240671,163.63952 628.509765,163.63952 L608.648208,163.63952 L608.648208,174.232351 L625.861558,174.232351 C626.592463,174.232351 627.185661,174.822901 627.185661,175.556455 C627.185661,176.28736 626.592463,176.880558 625.861558,176.880558 L608.648208,176.880558 L608.648208,179.528766 L620.565142,179.528766 C621.296048,179.528766 621.889246,180.119316 621.889246,180.85287 C621.889246,181.583775 621.296048,182.176974 620.565142,182.176974 L608.891843,182.176974 C609.440022,183.715582 610.896536,184.825182 612.620519,184.825182 L684.122127,184.825182 C686.312194,184.825182 688.094438,183.042938 688.094438,180.85287 L688.094438,141.998367 L665.653526,164.444575 C665.595266,164.500188 665.521116,164.531966 665.454911,164.574337 C665.415187,164.603468 665.388705,164.651135 665.343686,164.672321 L653.172523,171.226635 C652.97126,171.332563 652.756755,171.385528 652.54225,171.385528 C652.197983,171.385528 651.861661,171.253117 651.607433,170.996241 C651.194312,170.583121 651.098977,169.947551 651.377039,169.43115 L657.928704,157.259988 C657.952538,157.214968 658.000206,157.188486 658.029336,157.151411 C658.071708,157.082558 658.103486,157.008408 658.159098,156.950147 L687.133139,127.981404 C686.388992,127.107495 685.292634,126.564613 684.122127,126.564613 L667.544346,126.564613 C666.813441,126.564613 666.220243,125.971414 666.220243,125.240509 C666.220243,124.506955 666.813441,123.916405 667.544346,123.916405 L684.122127,123.916405 C686.235396,123.916405 688.187125,124.996874 689.418542,126.673189 C689.62775,126.73145 689.829014,126.824137 689.995851,126.990974 L695.6127,132.607823 Z M678.825976,171.583613 C678.095071,171.583613 677.501872,170.990415 677.501872,170.25951 C677.501872,169.528604 678.095071,168.935406 678.825976,168.935406 L681.474184,168.935406 C682.205089,168.935406 682.798287,169.528604 682.798287,170.25951 C682.798287,170.990415 682.205089,171.583613 681.474184,171.583613 L678.825976,171.583613 Z M678.825976,179.528237 C678.095071,179.528237 677.501872,178.935038 677.501872,178.204133 C677.501872,177.473227 678.095071,176.880029 678.825976,176.880029 L681.474184,176.880029 C682.205089,176.880029 682.798287,177.473227 682.798287,178.204133 C682.798287,178.935038 682.205089,179.528237 681.474184,179.528237 L678.825976,179.528237 Z M670.881353,179.528237 L668.233145,179.528237 C667.50224,179.528237 666.909041,178.935038 666.909041,178.204133 C666.909041,177.473227 667.50224,176.880029 668.233145,176.880029 L670.881353,176.880029 C671.612258,176.880029 672.205457,177.473227 672.205457,178.204133 C672.205457,178.935038 671.612258,179.528237 670.881353,179.528237 Z" id="icon-section-templates"></path>
        </g>
    </g>
</svg>