<?xml version="1.0" encoding="UTF-8"?>
<svg width="100px" height="88px" viewBox="0 0 100 88" version="1.1" xmlns="http://www.w3.org/2000/svg" xmlns:xlink="http://www.w3.org/1999/xlink">
    <!-- Generator: Sketch 53.2 (72643) - https://sketchapp.com -->
    <title>icon-section-request-white</title>
    <desc>Created with Sketch.</desc>
    <g id="Features" stroke="none" stroke-width="1" fill="none" fill-rule="evenodd">
        <g id="Artboard-Copy" transform="translate(-301.000000, -307.000000)" fill="#FFFFFF">
            <path d="M370.271291,374.799239 C376.188762,374.799239 381.002927,369.985075 381.002927,364.067603 C381.002927,358.150132 376.188762,353.335967 370.271291,353.335967 C364.353819,353.335967 359.539655,358.150132 359.539655,364.067603 C359.539655,369.985075 364.353819,374.799239 370.271291,374.799239 Z M370.271291,350.409423 C377.801288,350.409423 383.92947,356.537606 383.92947,364.067603 C383.92947,371.5976 377.801288,377.725783 370.271291,377.725783 C362.741294,377.725783 356.613111,371.5976 356.613111,364.067603 C356.613111,356.537606 362.741294,350.409423 370.271291,350.409423 Z M398.073456,368.457419 L398.073456,359.677788 L394.930348,359.677788 C394.25139,359.677788 393.660228,359.212467 393.505121,358.551068 C392.919813,356.081065 391.942347,353.722271 390.596137,351.544922 C390.242025,350.965467 390.329821,350.222125 390.809775,349.739245 L393.033948,347.512145 L386.826749,341.304946 L384.599649,343.529119 C384.116769,344.011999 383.373427,344.096869 382.793971,343.742757 C380.616623,342.396547 378.257829,341.419081 375.787826,340.833772 C375.126427,340.678665 374.661106,340.087504 374.661106,339.408546 L374.661106,336.265438 L365.881475,336.265438 L365.881475,339.408546 C365.881475,340.087504 365.416155,340.678665 364.754756,340.833772 C362.284753,341.419081 359.925958,342.396547 357.74861,343.742757 C357.175007,344.096869 356.431665,344.011999 355.942932,343.529119 L353.715833,341.304946 L347.508633,347.512145 L349.732807,349.739245 C350.21276,350.222125 350.300556,350.965467 349.946444,351.544922 C348.600234,353.722271 347.622769,356.081065 347.03746,358.551068 C346.882353,359.212467 346.291191,359.677788 345.612233,359.677788 L342.469125,359.677788 L342.469125,368.457419 L345.612233,368.457419 C346.291191,368.457419 346.882353,368.922739 347.03746,369.584138 C347.622769,372.054141 348.600234,374.412935 349.946444,376.590284 C350.300556,377.16974 350.21276,377.913082 349.732807,378.395961 L347.508633,380.623061 L353.715833,386.83026 L355.942932,384.606087 C356.431665,384.126134 357.175007,384.041264 357.74861,384.39245 C359.925958,385.73866 362.284753,386.716125 364.754756,387.301434 C365.416155,387.456541 365.881475,388.047703 365.881475,388.726661 L365.881475,391.869769 L374.661106,391.869769 L374.661106,388.726661 C374.661106,388.047703 375.126427,387.456541 375.787826,387.301434 C378.257829,386.716125 380.616623,385.73866 382.793971,384.39245 C383.373427,384.041264 384.116769,384.126134 384.599649,384.606087 L386.826749,386.83026 L393.033948,380.623061 L390.809775,378.395961 C390.329821,377.913082 390.242025,377.16974 390.596137,376.590284 C391.942347,374.412935 392.919813,372.054141 393.505121,369.584138 C393.660228,368.922739 394.25139,368.457419 394.930348,368.457419 L398.073456,368.457419 Z M344.429909,388.943225 C346.352649,388.943225 347.99444,387.623354 348.565116,385.820603 L344.40357,381.659058 C343.832894,381.085455 343.832894,380.160667 344.40357,379.589991 L346.864794,377.125841 C346.141937,375.835236 345.574188,374.477319 345.076675,373.090138 L304.181153,373.090138 C304.093357,373.090138 304.011414,373.052092 303.926544,373.03746 L303.926544,384.553409 C303.926544,386.973661 305.896108,388.943225 308.316359,388.943225 L344.429909,388.943225 Z M308.316359,309.926544 C305.896108,309.926544 303.926544,311.896108 303.926544,314.316359 L303.926544,319.001756 C304.011414,318.987123 304.093357,318.949078 304.181153,318.949078 L321.251683,318.949078 C322.059409,318.949078 322.714955,319.604624 322.714955,320.41235 C322.714955,321.220076 322.059409,321.875622 321.251683,321.875622 L304.181153,321.875622 C304.093357,321.875622 304.011414,321.837577 303.926544,321.822944 L303.926544,370.216272 C304.011414,370.201639 304.093357,370.163594 304.181153,370.163594 L339.592332,370.163594 C339.5777,370.081651 339.542581,370.00556 339.542581,369.920691 L339.542581,358.214516 C339.542581,357.40679 340.198127,356.751244 341.005853,356.751244 L344.482587,356.751244 C345.04741,354.752414 345.846356,352.829675 346.864794,351.009365 L344.40357,348.545215 C343.832894,347.974539 343.832894,347.049751 344.40357,346.476149 L348.819725,342.059994 L348.819725,321.822944 C348.734855,321.837577 348.652912,321.875622 348.565116,321.875622 L341.737489,321.875622 C340.929763,321.875622 340.274217,321.220076 340.274217,320.41235 C340.274217,319.604624 340.929763,318.949078 341.737489,318.949078 L348.565116,318.949078 C348.652912,318.949078 348.734855,318.987123 348.819725,319.001756 L348.819725,314.316359 C348.819725,311.896108 346.850161,309.926544 344.429909,309.926544 L308.316359,309.926544 Z M399.536728,356.751244 C400.344454,356.751244 401,357.40679 401,358.214516 L401,369.920691 C401,370.728417 400.344454,371.383963 399.536728,371.383963 L396.062921,371.383963 C395.495171,373.382792 394.696225,375.305531 393.677788,377.125841 L396.139011,379.589991 C396.709687,380.160667 396.709687,381.085455 396.139011,381.659058 L387.862745,389.935323 C387.289143,390.505999 386.364355,390.505999 385.793679,389.935323 L383.329529,387.4741 C381.509219,388.492537 379.586479,389.291484 377.58765,389.856307 L377.58765,393.333041 C377.58765,394.140767 376.932104,394.796313 376.124378,394.796313 L364.418203,394.796313 C363.610477,394.796313 362.954931,394.140767 362.954931,393.333041 L362.954931,389.856307 C360.956102,389.291484 359.033363,388.492537 357.213052,387.4741 L354.748903,389.935323 C354.178227,390.505999 353.253439,390.505999 352.679836,389.935323 L350.824407,388.079895 C349.557214,390.34504 347.125256,391.869769 344.429909,391.869769 L308.316359,391.869769 C304.280656,391.869769 301,388.589113 301,384.553409 L301,314.316359 C301,310.280656 304.280656,307 308.316359,307 L344.429909,307 C348.465613,307 351.746269,310.280656 351.746269,314.316359 L351.746269,339.13345 L352.679836,338.199883 C353.253439,337.629207 354.178227,337.629207 354.748903,338.199883 L357.213052,340.661106 C359.033363,339.642669 360.956102,338.843723 362.954931,338.275973 L362.954931,334.802166 C362.954931,333.99444 363.610477,333.338894 364.418203,333.338894 L376.124378,333.338894 C376.932104,333.338894 377.58765,333.99444 377.58765,334.802166 L377.58765,338.275973 C379.586479,338.843723 381.509219,339.642669 383.329529,340.661106 L385.793679,338.199883 C386.364355,337.629207 387.289143,337.629207 387.862745,338.199883 L396.139011,346.476149 C396.709687,347.049751 396.709687,347.974539 396.139011,348.545215 L393.677788,351.009365 C394.696225,352.829675 395.495171,354.752414 396.062921,356.751244 L399.536728,356.751244 Z M331.494586,379.554873 C332.302312,379.554873 332.957858,380.210418 332.957858,381.018145 C332.957858,381.825871 332.302312,382.481416 331.494586,382.481416 L321.251683,382.481416 C320.443957,382.481416 319.788411,381.825871 319.788411,381.018145 C319.788411,380.210418 320.443957,379.554873 321.251683,379.554873 L331.494586,379.554873 Z M328.079309,321.875622 C327.271583,321.875622 326.616037,321.220076 326.616037,320.41235 C326.616037,319.604624 327.271583,318.949078 328.079309,318.949078 L334.909862,318.949078 C335.717589,318.949078 336.373134,319.604624 336.373134,320.41235 C336.373134,321.220076 335.717589,321.875622 334.909862,321.875622 L328.079309,321.875622 Z M326.373134,333.338894 C325.565408,333.338894 324.909862,332.683348 324.909862,331.875622 C324.909862,331.067896 325.565408,330.41235 326.373134,330.41235 C327.461809,330.41235 328.553409,330.520632 329.612818,330.737196 C330.642962,330.950834 331.661399,331.263974 332.638865,331.676617 C333.382207,331.989757 333.733392,332.847234 333.417325,333.593503 C333.180275,334.152473 332.641791,334.489025 332.068188,334.489025 C331.877963,334.489025 331.684811,334.45098 331.500439,334.37489 C330.701493,334.035411 329.870354,333.777875 329.030436,333.608136 C328.158326,333.429617 327.268657,333.338894 326.373134,333.338894 Z M333.738074,357.428446 C334.408253,356.983611 335.315481,357.150424 335.769096,357.826456 C336.22271,358.493708 336.044191,359.40679 335.374012,359.857477 C334.516535,360.434006 333.5976,360.931519 332.64062,361.338308 C331.660228,361.753878 330.641791,362.067018 329.614574,362.277729 C328.555165,362.494293 327.460638,362.605502 326.371964,362.605502 C325.283289,362.605502 324.191689,362.494293 323.13228,362.277729 C322.102136,362.067018 321.086626,361.753878 320.10916,361.341235 C319.149254,360.931519 318.230319,360.434006 317.372842,359.857477 C316.515364,359.278022 315.716418,358.613696 314.990635,357.884987 C314.267779,357.165057 313.603453,356.366111 313.026924,355.51156 C312.447469,354.651156 311.949956,353.732221 311.543167,352.775241 C311.127597,351.794849 310.814457,350.779339 310.603746,349.749195 C310.387182,348.689786 310.275973,347.598186 310.275973,346.509511 C310.275973,345.41791 310.387182,344.32631 310.603746,343.266901 C310.814457,342.239684 311.127597,341.221247 311.54024,340.243781 C311.949956,339.283875 312.447469,338.36494 313.023998,337.507463 C313.603453,336.649985 314.267779,335.851039 314.996488,335.125256 C315.716418,334.4024 316.515364,333.738074 317.369915,333.161545 C318.230319,332.58209 319.149254,332.084577 320.106234,331.677788 C320.840796,331.358794 321.707053,331.707053 322.02312,332.453322 C322.339186,333.196664 321.990928,334.057068 321.247586,334.370208 C320.466198,334.703834 319.71115,335.11355 319.00878,335.58765 C318.312262,336.058824 317.656716,336.600234 317.065555,337.194323 C316.465613,337.791337 315.924203,338.446883 315.450102,339.146327 C314.978929,339.845771 314.569213,340.600819 314.235587,341.385133 C313.901961,342.181153 313.644425,343.009365 313.471759,343.849283 C313.296166,344.721393 313.202517,345.613989 313.202517,346.509511 C313.202517,347.402107 313.296166,348.294703 313.471759,349.166813 C313.644425,350.006731 313.901961,350.834943 314.238513,351.636816 C314.569213,352.415277 314.978929,353.170325 315.453029,353.872695 C315.924203,354.569213 316.465613,355.224759 317.059701,355.81592 C317.656716,356.415862 318.312262,356.957272 319.011706,357.431373 C319.71115,357.902546 320.466198,358.312262 321.247586,358.645888 C322.046532,358.979514 322.874744,359.23705 323.714662,359.409716 C325.458882,359.763828 327.287972,359.763828 329.032192,359.409716 C329.87211,359.23705 330.700322,358.979514 331.499268,358.642962 C332.280656,358.312262 333.035704,357.902546 333.738074,357.428446 Z M335.687152,337.199883 C335.11355,336.629207 335.11355,335.701493 335.681299,335.130817 C336.251975,334.554287 337.17969,334.56014 337.750366,335.124963 C338.479075,335.850746 339.143401,336.652619 339.71993,337.504243 C340.299385,338.364647 340.796898,339.283582 341.203687,340.240562 C341.61633,341.220954 341.932397,342.239391 342.143108,343.266608 C342.359672,344.328944 342.467954,345.420544 342.467954,346.509219 C342.467954,347.597893 342.359672,348.689494 342.143108,349.748903 C341.932397,350.779046 341.61633,351.794557 341.206614,352.772022 C340.969564,353.333919 340.428153,353.667545 339.857477,353.667545 C339.664325,353.667545 339.4741,353.6295 339.286801,353.553409 C338.546386,353.237343 338.192274,352.379865 338.508341,351.636523 C338.844893,350.83465 339.102429,350.006438 339.275095,349.16652 C339.450688,348.29441 339.541411,347.401814 339.541411,346.509219 C339.541411,345.613696 339.450688,344.7211 339.275095,343.84899 C339.102429,343.009072 338.844893,342.18086 338.508341,341.381914 C338.177641,340.600527 337.767925,339.845478 337.293825,339.143108 C336.822651,338.446591 336.281241,337.791045 335.687152,337.199883 Z M318.022242,346.937079 C318.592918,346.366403 319.520632,346.366403 320.091308,346.937079 L324.753292,351.599064 L332.517413,341.242025 C333.009072,340.595259 333.928007,340.463565 334.565994,340.946444 C335.21276,341.432251 335.344454,342.351185 334.861574,342.995025 L326.081943,354.7012 C325.827334,355.043606 325.435177,355.254317 325.013755,355.286509 C324.978636,355.289435 324.943518,355.289435 324.911326,355.289435 C324.525022,355.289435 324.150424,355.134328 323.875329,354.859233 L318.022242,349.006146 C317.451566,348.43547 317.451566,347.507755 318.022242,346.937079 Z" id="icon-section-request"></path>
        </g>
    </g>
</svg>