<?xml version="1.0" encoding="UTF-8"?>
<svg width="95px" height="63px" viewBox="0 0 95 63" version="1.1" xmlns="http://www.w3.org/2000/svg" xmlns:xlink="http://www.w3.org/1999/xlink">
    <!-- Generator: Sketch 53.2 (72643) - https://sketchapp.com -->
    <title>icon-section-change-white</title>
    <desc>Created with Sketch.</desc>
    <g id="Features" stroke="none" stroke-width="1" fill="none" fill-rule="evenodd">
        <g id="Artboard-Copy" transform="translate(-203.000000, -20.000000)" fill="#FFFFFF">
            <path d="M250.137405,37.4289406 C257.733806,37.4289406 263.916031,43.6198183 263.916031,51.2268519 C263.916031,58.8338854 257.733806,65.0247631 250.137405,65.0247631 C242.541003,65.0247631 236.358779,58.8338854 236.358779,51.2268519 C236.358779,43.6198183 242.541003,37.4289406 250.137405,37.4289406 Z M250.137405,62.1199397 C256.135506,62.1199397 261.015267,57.2333486 261.015267,51.2268519 C261.015267,45.2203551 256.135506,40.333764 250.137405,40.333764 C244.139303,40.333764 239.259542,45.2203551 239.259542,51.2268519 C239.259542,57.2333486 244.139303,62.1199397 250.137405,62.1199397 Z M267.257801,74.3585141 L273.540727,68.05069 L271.286457,65.7845128 C270.800649,65.2967791 270.714743,64.5384127 271.073175,63.9525375 C272.435809,61.739892 273.425199,59.3428593 274.017649,56.8298413 C274.174648,56.1606944 274.773022,55.6878307 275.460263,55.6878307 L278.641716,55.6878307 L278.641716,46.765873 L275.460263,46.765873 C274.773022,46.765873 274.174648,46.2900353 274.017649,45.6208884 C273.425199,43.1078704 272.435809,40.7138117 271.073175,38.4981922 C270.714743,37.912317 270.800649,37.1539506 271.286457,36.6662169 L273.540727,34.4000397 L267.257801,28.0922156 L265.000569,30.3554189 C264.511798,30.8491005 263.756425,30.9293981 263.175825,30.5695459 C260.971913,29.2015123 258.584342,28.2082011 256.084206,27.6134039 C255.414738,27.4557826 254.943741,26.8550375 254.943741,26.1680467 L254.943741,22.9739859 L246.057,22.9739859 L246.057,26.1680467 C246.057,26.8550375 245.586003,27.4557826 244.916535,27.6134039 C242.413436,28.2082011 240.028827,29.2015123 237.821953,30.5695459 C237.241353,30.9293981 236.48598,30.8491005 235.997209,30.3554189 L233.742939,28.0922156 L227.457051,34.4000397 L229.711321,36.6662169 C230.19713,37.1539506 230.285997,37.912317 229.924603,38.4981922 C228.561969,40.7138117 227.575541,43.1078704 226.98013,45.6208884 C226.826093,46.2900353 226.224757,46.765873 225.540478,46.765873 L222.359024,46.765873 L222.359024,55.6878307 L225.540478,55.6878307 C226.224757,55.6878307 226.826093,56.1606944 226.98013,56.8298413 C227.575541,59.3428593 228.561969,61.739892 229.924603,63.9525375 C230.285997,64.5384127 230.19713,65.2967791 229.711321,65.7845128 L227.457051,68.05069 L233.742939,74.3585141 L235.997209,72.0953108 C236.48598,71.6046032 237.241353,71.5243056 237.821953,71.8811839 C240.028827,73.2492174 242.413436,74.2425287 244.916535,74.8373258 C245.586003,74.9949471 246.057,75.5956922 246.057,76.282683 L246.057,79.4797178 L254.943741,79.4797178 L254.943741,76.282683 C254.943741,75.5956922 255.414738,74.9949471 256.084206,74.8373258 C258.584342,74.2425287 260.971913,73.2492174 263.175825,71.8811839 C263.756425,71.5243056 264.511798,71.6046032 265.000569,72.0953108 L267.257801,74.3585141 Z M296.415198,66.0967813 C297.232778,66.0967813 297.896321,66.7599802 297.896321,67.5837743 C297.896321,68.4045944 297.232778,69.0707672 296.415198,69.0707672 L276.701444,69.0707672 C276.69552,69.0796892 276.692558,69.0915851 276.683671,69.1005071 L268.306437,77.5139131 C267.725836,78.0938404 266.789766,78.0938404 266.209166,77.5139131 L263.717916,75.012791 C261.875399,76.0447641 259.92624,76.8596362 257.905988,77.4336155 L257.905988,80.9667108 C257.905988,81.7875309 257.242444,82.4537037 256.424864,82.4537037 L244.575876,82.4537037 C243.755334,82.4537037 243.094753,81.7875309 243.094753,80.9667108 L243.094753,77.4336155 C241.071538,76.8596362 239.125342,76.0447641 237.282824,75.012791 L234.788612,77.5139131 C234.210974,78.0938404 233.271942,78.0938404 232.694304,77.5139131 L224.31707,69.1005071 C224.308183,69.0915851 224.305221,69.0796892 224.296334,69.0707672 L208.057296,69.0707672 L215.99908,77.0440234 C216.579681,77.6269246 216.579681,78.5667041 215.99908,79.1466314 C215.711742,79.438082 215.332575,79.5838073 214.953407,79.5838073 C214.574239,79.5838073 214.195072,79.438082 213.904772,79.1466314 L203.433229,68.6335913 C202.85559,68.053664 202.85559,67.1109105 203.433229,66.5309832 L213.904772,56.0179431 C214.485372,55.4380159 215.421442,55.4380159 215.99908,56.0179431 C216.579681,56.5978704 216.579681,57.5406239 215.99908,58.1205511 L208.057296,66.0967813 L225.217593,66.0967813 L226.808319,64.4967769 C225.777457,62.6469577 224.968764,60.690075 224.394088,58.6618166 L220.877901,58.6618166 C220.057358,58.6618166 219.396777,57.9956437 219.396777,57.1748236 L219.396777,45.2788801 C219.396777,44.455086 220.057358,43.7918871 220.877901,43.7918871 L224.394088,43.7918871 C224.968764,41.7606548 225.777457,39.806746 226.808319,37.9569268 L225.217593,36.3569224 L204.585543,36.3569224 C203.765,36.3569224 203.104419,35.6907496 203.104419,34.8699295 C203.104419,34.0461354 203.765,33.3829365 204.585543,33.3829365 L224.296334,33.3829365 C224.305221,33.3740146 224.308183,33.3591446 224.31707,33.3502227 L232.694304,24.9397906 C233.271942,24.3598633 234.210974,24.3598633 234.788612,24.9397906 L237.282824,27.4409127 C239.125342,26.4059656 241.071538,25.5940675 243.094753,25.0171142 L243.094753,21.4869929 C243.094753,20.6631989 243.755334,20 244.575876,20 L256.424864,20 C257.242444,20 257.905988,20.6631989 257.905988,21.4869929 L257.905988,25.0171142 C259.92624,25.5940675 261.875399,26.4059656 263.717916,27.4409127 L266.209166,24.9397906 C266.789766,24.3598633 267.725836,24.3598633 268.306437,24.9397906 L276.683671,33.3502227 C276.692558,33.3591446 276.69552,33.3740146 276.701444,33.3829365 L292.943444,33.3829365 L284.998698,25.4067063 C284.42106,24.8267791 284.42106,23.8840256 284.998698,23.3040983 C285.579299,22.7241711 286.515369,22.7241711 287.093007,23.3040983 L297.56455,33.8171384 C298.14515,34.3970657 298.14515,35.3398192 297.56455,35.9197465 L287.093007,46.4327866 C286.805669,46.7242372 286.426501,46.8699625 286.047334,46.8699625 C285.668166,46.8699625 285.288998,46.7242372 284.998698,46.4327866 C284.42106,45.8528593 284.42106,44.9130798 284.998698,44.3301786 L292.943444,36.3569224 L275.783148,36.3569224 L274.192421,37.9569268 C275.220321,39.806746 276.031977,41.7606548 276.60369,43.7918871 L280.12284,43.7918871 C280.94042,43.7918871 281.603963,44.455086 281.603963,45.2788801 L281.603963,57.1748236 C281.603963,57.9956437 280.94042,58.6618166 280.12284,58.6618166 L276.60369,58.6618166 C276.031977,60.690075 275.220321,62.6469577 274.192421,64.4967769 L275.783148,66.0967813 L296.415198,66.0967813 Z" id="icon-section-change"></path>
        </g>
    </g>
</svg>