<?xml version="1.0" encoding="UTF-8"?>
<svg width="89px" height="93px" viewBox="0 0 89 93" version="1.1" xmlns="http://www.w3.org/2000/svg" xmlns:xlink="http://www.w3.org/1999/xlink">
    <!-- Generator: Sketch 53.2 (72643) - https://sketchapp.com -->
    <title>icon-section-cmdb-white</title>
    <desc>Created with Sketch.</desc>
    <g id="Features" stroke="none" stroke-width="1" fill="none" fill-rule="evenodd">
        <g id="Artboard-Copy" transform="translate(-906.000000, -5.000000)" fill="#FFFFFF">
            <path d="M977.331562,72.014541 C981.8275,72.014541 985.486226,75.6961927 985.486226,80.2203026 C985.486226,84.7444126 981.8275,88.4260643 977.331562,88.4260643 C972.835624,88.4260643 969.176898,84.7444126 969.176898,80.2203026 C969.176898,75.6961927 972.835624,72.014541 977.331562,72.014541 Z M977.331562,85.6908104 C980.32976,85.6908104 982.768004,83.2372877 982.768004,80.2203026 C982.768004,77.2033176 980.32976,74.7497949 977.331562,74.7497949 C974.333364,74.7497949 971.895119,77.2033176 971.895119,80.2203026 C971.895119,83.2372877 974.333364,85.6908104 977.331562,85.6908104 Z M992.281779,82.1355274 L992.281779,78.306172 L991.074889,78.306172 C990.444261,78.306172 989.897899,77.8685313 989.751115,77.2530992 C989.438519,75.9237658 988.913903,74.654608 988.196292,73.4839194 C987.867387,72.9450743 987.946216,72.2475846 988.392004,71.799003 L989.248244,70.9346627 L986.559923,68.2294966 L985.700965,69.0883663 C985.255177,69.5424185 984.559312,69.6162703 984.026541,69.2880399 C982.863142,68.5659329 981.601887,68.0380289 980.280832,67.7207394 C979.666514,67.5757709 979.234317,67.0259849 979.234317,66.391406 L979.234317,65.1769533 L975.428807,65.1769533 L975.428807,66.391406 C975.428807,67.0259849 974.99661,67.5757709 974.382292,67.7207394 C973.061236,68.0380289 971.799982,68.5659329 970.636583,69.2880399 C970.103812,69.6162703 969.410665,69.5424185 968.962159,69.0883663 L968.103201,68.2294966 L965.41488,70.9346627 L966.27112,71.799003 C966.716908,72.2475846 966.795736,72.9450743 966.466832,73.4839194 C965.749221,74.654608 965.224604,75.9237658 964.912009,77.2530992 C964.765225,77.8685313 964.218863,78.306172 963.588235,78.306172 L962.381345,78.306172 L962.381345,82.1355274 L963.588235,82.1355274 C964.218863,82.1355274 964.765225,82.5704328 964.912009,83.1886002 C965.224604,84.5179336 965.749221,85.7870914 966.466832,86.95778 C966.795736,87.496625 966.716908,88.1941148 966.27112,88.6426964 L965.41488,89.5043014 L968.103201,92.2122028 L968.962159,91.3505978 C969.410665,90.9020161 970.103812,90.8281643 970.636583,91.1536595 C971.799982,91.8757665 973.061236,92.4036705 974.382292,92.7182247 C974.99661,92.8659284 975.428807,93.4157145 975.428807,94.0475581 L975.428807,95.2647461 L979.234317,95.2647461 L979.234317,94.0475581 C979.234317,93.4157145 979.666514,92.8659284 980.280832,92.7182247 C981.601887,92.4036705 982.863142,91.8757665 984.026541,91.1536595 C984.559312,90.8281643 985.255177,90.9020161 985.700965,91.3505978 L986.559923,92.2122028 L989.248244,89.5043014 L988.392004,88.6426964 C987.946216,88.1941148 987.867387,87.496625 988.196292,86.95778 C988.913903,85.7870914 989.438519,84.5179336 989.751115,83.1886002 C989.897899,82.5704328 990.444261,82.1355274 991.074889,82.1355274 L992.281779,82.1355274 Z M951.50846,58.6041382 L951.50846,80.417788 L963.604545,87.4555962 L963.615418,87.4446552 C963.185939,86.6213438 962.829852,85.7570036 962.552593,84.8707813 L961.022234,84.8707813 C960.272005,84.8707813 959.663124,84.2580844 959.663124,83.5031544 L959.663124,76.938545 C959.663124,76.1808797 960.272005,75.5709181 961.022234,75.5709181 L962.552593,75.5709181 C962.829852,74.6819606 963.185939,73.8203556 963.615418,72.9943089 L962.533565,71.9029426 C962.000794,71.3668328 962.000794,70.5024926 962.533565,69.9691181 L965.675829,66.8071646 L951.50846,58.6041382 Z M908.718221,58.5877267 L908.718221,80.417788 L927.395119,91.2712754 L927.395119,69.4357436 L908.718221,58.5877267 Z M950.149349,7.94723607 L931.583898,18.7350774 L950.149349,29.5229188 L968.714801,18.7350774 L950.149349,7.94723607 Z M991.575041,72.4636697 L991.047706,72.9943089 C991.262446,73.4073322 991.401075,73.8477081 991.575041,74.277143 L991.575041,72.4636697 Z M981.952538,64.1895266 L981.952538,65.3492743 C982.833242,65.6282702 983.6922,65.9865884 984.513102,66.4187585 L985.597673,65.3273922 C986.127726,64.7940177 986.989402,64.7940177 987.519455,65.3273922 L991.575041,69.4111263 L991.575041,58.6041382 L981.952538,64.1895266 Z M930.113341,69.4357436 L930.113341,91.2712754 L948.790239,80.417788 L948.790239,58.5877267 L930.113341,69.4357436 Z M928.75423,45.4940663 L910.188779,56.2846429 L928.75423,67.069749 L947.319681,56.2846429 L928.75423,45.4940663 Z M970.185358,42.8709578 L970.185358,21.0354259 L951.50846,31.8889134 L951.50846,53.7189747 L970.185358,42.8709578 Z M948.790239,31.8889134 L930.113341,21.0354259 L930.113341,42.8709578 L948.790239,53.7189747 L948.790239,31.8889134 Z M970.302242,66.3531125 C971.076935,65.9565006 971.881528,65.6118586 972.710586,65.3492743 L972.710586,63.8093263 C972.710586,63.051661 973.316749,62.4416994 974.069696,62.4416994 L979.522448,62.4416994 L990.126229,56.2873781 L971.541751,45.502272 L952.954554,56.2873781 L967.937389,64.9608682 C968.336968,64.9088984 968.758292,65.0183086 969.065451,65.3273922 L969.823835,66.0932633 L970.302242,66.3531125 Z M994.293262,75.7623858 C994.70915,75.9948824 995,76.4243173 995,76.938545 L995,83.5031544 C995,84.2580844 994.391118,84.8707813 993.640889,84.8707813 L992.110531,84.8707813 C991.833272,85.7570036 991.477185,86.6213438 991.047706,87.4446552 L992.129558,88.5387568 C992.66233,89.0721313 992.66233,89.9392068 992.129558,90.4725813 L987.519455,95.1115719 C986.989402,95.6449464 986.127726,95.6449464 985.597673,95.1115719 L984.513102,94.0229408 C983.6922,94.455111 982.833242,94.8134292 981.952538,95.0896899 L981.952538,96.6323731 C981.952538,97.3873031 981.346375,98 980.593427,98 L974.069696,98 C973.316749,98 972.710586,97.3873031 972.710586,96.6323731 L972.710586,95.0896899 C972.392554,94.9884855 972.096268,94.8271055 971.783672,94.7040191 C971.555342,94.671196 971.348757,94.5836679 971.169354,94.4469052 C970.832295,94.2992015 970.478926,94.1952618 970.150021,94.0229408 L969.065451,95.1115719 C968.535398,95.6449464 967.673722,95.6449464 967.143669,95.1115719 L962.533565,90.4725813 C962.340572,90.2811135 962.242716,90.0404112 962.19107,89.7915031 L950.152068,82.7837826 L929.433785,94.8243702 C929.224482,94.9474567 928.987997,95.0076322 928.75423,95.0076322 C928.520463,95.0076322 928.283978,94.9474567 928.074675,94.8243702 L906.679555,82.3926413 C906.260949,82.1492037 906,81.6978868 906,81.2082763 L906,56.3475537 C906,55.8606785 906.260949,55.4093616 906.679555,55.165924 L927.395119,43.1280716 L927.395119,18.8007235 C927.395119,18.3111131 927.656069,17.8597962 928.074675,17.6163586 L949.469794,5.18462964 C949.8884,4.93845679 950.410299,4.93845679 950.828905,5.18462964 L972.224024,17.6163586 C972.64263,17.8597962 972.90358,18.3111131 972.90358,18.8007235 L972.90358,43.1335422 L993.532161,55.1002779 C993.950767,55.3464508 994.293262,55.8524728 994.293262,56.339348 L994.293262,75.7623858 Z" id="icon-section-cmdb"></path>
        </g>
    </g>
</svg>