<?xml version="1.0" encoding="UTF-8"?>
<svg width="51px" height="85px" viewBox="0 0 51 85" version="1.1" xmlns="http://www.w3.org/2000/svg" xmlns:xlink="http://www.w3.org/1999/xlink">
    <!-- Generator: Sketch 53.2 (72643) - https://sketchapp.com -->
    <title>icon-section-mobile-white</title>
    <desc>Created with Sketch.</desc>
    <g id="Features" stroke="none" stroke-width="1" fill="none" fill-rule="evenodd">
        <g id="Artboard-Copy" transform="translate(-925.000000, -108.000000)" fill="#FFFFFF">
            <path d="M968.478966,190.068966 C970.902931,190.068966 972.875517,188.096379 972.875517,185.672414 L972.875517,174.141724 C972.793448,174.156379 972.717241,174.191552 972.62931,174.191552 L928.177241,174.191552 C928.08931,174.191552 928.013103,174.156379 927.931034,174.141724 L927.931034,185.672414 C927.931034,188.096379 929.903621,190.068966 932.327586,190.068966 L968.478966,190.068966 Z M932.327586,110.931034 C929.903621,110.931034 927.931034,112.903621 927.931034,115.327586 L927.931034,120.017241 C928.013103,120.002586 928.08931,119.967414 928.177241,119.967414 L945.273966,119.967414 C946.082931,119.967414 946.739483,120.623966 946.739483,121.432931 C946.739483,122.241897 946.082931,122.898448 945.273966,122.898448 L928.177241,122.898448 C928.08931,122.898448 928.013103,122.863276 927.931034,122.848621 L927.931034,171.310345 C928.013103,171.29569 928.08931,171.260517 928.177241,171.260517 L972.62931,171.260517 C972.717241,171.260517 972.793448,171.29569 972.875517,171.310345 L972.875517,122.848621 C972.793448,122.863276 972.717241,122.898448 972.62931,122.898448 L965.791207,122.898448 C964.982241,122.898448 964.32569,122.241897 964.32569,121.432931 C964.32569,120.623966 964.982241,119.967414 965.791207,119.967414 L972.62931,119.967414 C972.717241,119.967414 972.793448,120.002586 972.875517,120.017241 L972.875517,115.327586 C972.875517,112.903621 970.902931,110.931034 968.478966,110.931034 L932.327586,110.931034 Z M968.478966,108 C972.520862,108 975.806552,111.28569 975.806552,115.327586 L975.806552,185.672414 C975.806552,189.71431 972.520862,193 968.478966,193 L932.327586,193 C928.28569,193 925,189.71431 925,185.672414 L925,115.327586 C925,111.28569 928.28569,108 932.327586,108 L968.478966,108 Z M955.532586,180.666207 C956.341552,180.666207 956.998103,181.322759 956.998103,182.131724 C956.998103,182.94069 956.341552,183.597241 955.532586,183.597241 L945.273966,183.597241 C944.465,183.597241 943.808448,182.94069 943.808448,182.131724 C943.808448,181.322759 944.465,180.666207 945.273966,180.666207 L955.532586,180.666207 Z M952.112069,122.898448 C951.303103,122.898448 950.646552,122.241897 950.646552,121.432931 C950.646552,120.623966 951.303103,119.967414 952.112069,119.967414 L958.953103,119.967414 C959.762069,119.967414 960.418621,120.623966 960.418621,121.432931 C960.418621,122.241897 959.762069,122.898448 958.953103,122.898448 L952.112069,122.898448 Z M950.403276,134.37931 C949.59431,134.37931 948.937759,133.722759 948.937759,132.913793 C948.937759,132.104828 949.59431,131.448276 950.403276,131.448276 C951.493621,131.448276 952.586897,131.556724 953.647931,131.773621 C954.679655,131.987586 955.699655,132.301207 956.678621,132.714483 C957.423103,133.028103 957.774828,133.886897 957.458276,134.63431 C957.220862,135.194138 956.681552,135.531207 956.107069,135.531207 C955.916552,135.531207 955.723103,135.493103 955.538448,135.416897 C954.738276,135.076897 953.905862,134.818966 953.064655,134.648966 C952.191207,134.470172 951.300172,134.37931 950.403276,134.37931 Z M957.779517,158.505828 C958.450724,158.057379 959.359345,158.23031 959.813655,158.904448 C960.267966,159.572724 960.089172,160.487207 959.417966,160.938586 C958.559172,161.516 957.638828,162.014276 956.680379,162.42169 C955.698483,162.837897 954.678483,163.151517 953.64969,163.362552 C952.588655,163.579448 951.492448,163.690828 950.402103,163.690828 C949.311759,163.690828 948.218483,163.579448 947.157448,163.362552 C946.125724,163.151517 945.108655,162.837897 944.12969,162.424621 C943.16831,162.014276 942.247966,161.516 941.389172,160.938586 C940.530379,160.358241 939.730207,159.692897 939.00331,158.963069 C938.279345,158.242034 937.614,157.441862 937.036586,156.586 C936.456241,155.724276 935.957966,154.803931 935.550552,153.845483 C935.134345,152.863586 934.820724,151.846517 934.60969,150.814793 C934.392793,149.753759 934.281414,148.660483 934.281414,147.570138 C934.281414,146.476862 934.392793,145.383586 934.60969,144.322552 C934.820724,143.293759 935.134345,142.273759 935.547621,141.294793 C935.957966,140.333414 936.456241,139.413069 937.033655,138.554276 C937.614,137.695483 938.279345,136.89531 939.009172,136.168414 C939.730207,135.444448 940.530379,134.779103 941.386241,134.20169 C942.247966,133.621345 943.16831,133.123069 944.126759,132.715655 C944.865379,132.399103 945.730034,132.744966 946.046586,133.492379 C946.363138,134.236862 946.014345,135.098586 945.269862,135.412207 C944.487276,135.746345 943.731069,136.15669 943.027621,136.631517 C942.330034,137.103414 941.673483,137.645655 941.081414,138.240655 C940.480552,138.838586 939.93831,139.495138 939.463483,140.195655 C938.991586,140.896172 938.581241,141.652379 938.247103,142.437897 C937.912966,143.235138 937.655034,144.064621 937.482103,144.905828 C937.306241,145.779276 937.212448,146.673241 937.212448,147.570138 C937.212448,148.464103 937.306241,149.358069 937.482103,150.231517 C937.655034,151.072724 937.912966,151.902207 938.250034,152.70531 C938.581241,153.484966 938.991586,154.241172 939.466414,154.944621 C939.93831,155.642207 940.480552,156.298759 941.075552,156.890828 C941.673483,157.49169 942.330034,158.033931 943.030552,158.508759 C943.731069,158.980655 944.487276,159.391 945.269862,159.725138 C946.070034,160.059276 946.899517,160.317207 947.740724,160.490138 C949.487621,160.844793 951.319517,160.844793 953.066414,160.490138 C953.907621,160.317207 954.737103,160.059276 955.537276,159.722207 C956.319862,159.391 957.076069,158.980655 957.779517,158.505828 Z M959.731586,138.246224 C959.157103,137.674672 959.157103,136.745534 959.725724,136.173983 C960.297276,135.596569 961.226414,135.602431 961.797966,136.168121 C962.527793,136.895017 963.193138,137.698121 963.770552,138.551052 C964.350897,139.412776 964.849172,140.333121 965.256586,141.291569 C965.669862,142.273466 965.986414,143.293466 966.197448,144.322259 C966.414345,145.386224 966.522793,146.4795 966.522793,147.569845 C966.522793,148.66019 966.414345,149.753466 966.197448,150.8145 C965.986414,151.846224 965.669862,152.863293 965.259517,153.842259 C965.022103,154.405017 964.479862,154.739155 963.90831,154.739155 C963.714862,154.739155 963.524345,154.701052 963.336759,154.624845 C962.595207,154.308293 962.240552,153.4495 962.557103,152.705017 C962.894172,151.901914 963.152103,151.072431 963.325034,150.231224 C963.500897,149.357776 963.591759,148.46381 963.591759,147.569845 C963.591759,146.672948 963.500897,145.778983 963.325034,144.905534 C963.152103,144.064328 962.894172,143.234845 962.557103,142.434672 C962.225897,141.652086 961.815552,140.895879 961.340724,140.192431 C960.868828,139.494845 960.326586,138.838293 959.731586,138.246224 Z M942.039569,147.998362 C942.611121,147.42681 943.540259,147.42681 944.11181,147.998362 L948.780948,152.6675 L956.556983,142.294569 C957.046466,141.64681 957.96681,141.514914 958.608707,141.998534 C959.256466,142.485086 959.388362,143.405431 958.904741,144.050259 L950.111638,155.774397 C949.856638,156.117328 949.463879,156.328362 949.04181,156.360603 C949.006638,156.363534 948.971466,156.363534 948.939224,156.363534 C948.552328,156.363534 948.177155,156.20819 947.901638,155.932672 L942.039569,150.070603 C941.468017,149.499052 941.468017,148.569914 942.039569,147.998362 Z" id="icon-section-mobile"></path>
        </g>
    </g>
</svg>