<?xml version="1.0" encoding="UTF-8"?>
<svg width="85px" height="97px" viewBox="0 0 85 97" version="1.1" xmlns="http://www.w3.org/2000/svg" xmlns:xlink="http://www.w3.org/1999/xlink">
    <!-- Generator: Sketch 53.2 (72643) - https://sketchapp.com -->
    <title>icon-section-info</title>
    <desc>Created with Sketch.</desc>
    <g id="Features" stroke="none" stroke-width="1" fill="none" fill-rule="evenodd">
        <g id="Desktop-HD---Features---HR" transform="translate(-185.000000, -491.000000)" fill="#505050">
            <path d="M241.82375,553.8955 C248.13875,549.303 251.90875,541.9255 251.90875,534.158 C251.90875,520.7005 240.95875,509.7505 227.50125,509.7505 C214.04125,509.7505 203.09125,520.7005 203.09125,534.158 C203.09125,541.9255 206.86125,549.303 213.17625,553.8955 C213.43375,554.0805 213.60875,554.3605 213.66875,554.6705 L216.45875,569.138 L218.44125,569.138 L236.55875,569.138 L238.54375,569.138 L241.33125,554.6705 C241.39125,554.3605 241.56625,554.0805 241.82375,553.8955 Z M219.69375,581.213 L235.30875,581.213 L235.30875,571.638 L219.69375,571.638 L219.69375,581.213 Z M227.50125,507.2505 C242.33875,507.2505 254.40875,519.3205 254.40875,534.158 C254.40875,542.558 250.41375,550.5405 243.69375,555.6205 L240.80375,570.623 C240.68875,571.213 240.17375,571.638 239.57625,571.638 L237.80875,571.638 L237.80875,576.683 L241.08375,576.683 C241.77375,576.683 242.33375,577.243 242.33375,577.933 C242.33375,578.6255 241.77375,579.183 241.08375,579.183 L237.80875,579.183 L237.80875,582.463 C237.80875,583.153 237.24875,583.713 236.55875,583.713 L218.44125,583.713 C217.75125,583.713 217.19125,583.153 217.19125,582.463 L217.19125,579.183 L213.91625,579.183 C213.22625,579.183 212.66625,578.6255 212.66625,577.933 C212.66625,577.243 213.22625,576.683 213.91625,576.683 L217.19125,576.683 L217.19125,571.638 L215.42375,571.638 C214.82625,571.638 214.31125,571.213 214.19625,570.623 L211.30625,555.6205 C204.58625,550.5405 200.59125,542.558 200.59125,534.158 C200.59125,519.3205 212.66125,507.2505 227.50125,507.2505 Z M236.692,553.42675 C237.3695,553.55675 237.8145,554.21175 237.6845,554.88925 L237.062,558.12425 C236.947,558.72175 236.4245,559.13675 235.837,559.13675 C235.757,559.13675 235.6795,559.12925 235.5995,559.11425 C234.9195,558.98425 234.477,558.32675 234.607,557.64925 L235.2295,554.41925 C235.3595,553.73925 236.0245,553.29425 236.692,553.42675 Z M245.74225,536.359 C245.82475,535.6765 246.40975,535.189 247.13225,535.264 C247.81475,535.344 248.30475,535.9665 248.22725,536.6515 C248.12975,537.4715 247.98475,538.279 247.79475,539.074 C247.60475,539.8665 247.36725,540.644 247.08725,541.4065 C246.80725,542.164 246.47975,542.909 246.11225,543.6265 C245.74225,544.3515 245.33225,545.049 244.87725,545.724 C244.42725,546.3965 243.93225,547.044 243.39975,547.664 C243.15225,547.954 242.80225,548.1015 242.45225,548.1015 C242.16225,548.1015 241.87225,548.0015 241.63725,547.8015 C241.11225,547.3515 241.05225,546.5615 241.50225,546.039 C241.96975,545.4915 242.40475,544.9215 242.80225,544.329 C243.20225,543.734 243.56475,543.1215 243.88725,542.489 C244.20975,541.859 244.49725,541.2065 244.74475,540.539 C244.98975,539.8715 245.19725,539.189 245.36475,538.494 C245.52975,537.794 245.65975,537.0815 245.74225,536.359 Z M239.165,516.85925 C240.2725,517.60925 241.3125,518.46675 242.2525,519.40925 C243.205,520.36175 244.0625,521.40175 244.8025,522.49675 C245.56,523.61675 246.205,524.80925 246.7275,526.04175 C247.265,527.31675 247.675,528.63175 247.95,529.95925 C248.085,530.63675 247.6525,531.29675 246.975,531.43675 C246.89,531.45425 246.805,531.46175 246.72,531.46175 C246.14,531.46175 245.62,531.05425 245.4975,530.46175 C245.26,529.29675 244.9,528.13675 244.425,527.01425 C243.9675,525.93175 243.395,524.88175 242.7325,523.89675 C242.08,522.93175 241.3225,522.01675 240.4825,521.17675 C239.655,520.34675 238.74,519.59175 237.7625,518.92925 C236.7825,518.26425 235.7325,517.69425 234.6425,517.23425 C233.5375,516.76425 232.38,516.40425 231.1975,516.16425 C230.5225,516.02425 230.0875,515.36175 230.225,514.68675 C230.3625,514.00675 231.03,513.57425 231.7025,513.71175 C233.045,513.98925 234.3625,514.39925 235.6175,514.93175 C236.855,515.45425 238.05,516.10175 239.165,516.85925 Z M232.02875,584.75 C232.71875,584.75 233.27875,585.31 233.27875,586 C233.27875,586.69 232.71875,587.25 232.02875,587.25 L222.97125,587.25 C222.28125,587.25 221.72125,586.69 221.72125,586 C221.72125,585.31 222.28125,584.75 222.97125,584.75 L232.02875,584.75 Z M235.90325,537.94825 C236.13825,538.26825 236.20575,538.68075 236.08825,539.06075 L232.37325,550.95325 L232.37325,562.84075 C232.37325,563.53075 231.81325,564.09075 231.12325,564.09075 C230.43325,564.09075 229.87325,563.53075 229.87325,562.84075 L229.87325,550.76325 C229.87325,550.63575 229.89325,550.51075 229.92825,550.39075 L233.19575,539.93825 L221.80325,539.93825 L225.07075,550.39075 C225.10825,550.51075 225.12575,550.63575 225.12575,550.76325 L225.12575,562.84075 C225.12575,563.53075 224.56825,564.09075 223.87575,564.09075 C223.18575,564.09075 222.62575,563.53075 222.62575,562.84075 L222.62575,550.95325 L218.91075,539.06075 C218.79325,538.68075 218.86325,538.26825 219.09575,537.94825 C219.33325,537.62575 219.70575,537.43825 220.10575,537.43825 L234.89575,537.43825 C235.29325,537.43825 235.66575,537.62575 235.90325,537.94825 Z M227.5,501 C226.81,501 226.25,500.44 226.25,499.75 L226.25,492.25 C226.25,491.56 226.81,491 227.5,491 C228.19,491 228.75,491.56 228.75,492.25 L228.75,499.75 C228.75,500.44 228.19,501 227.5,501 Z M209.5435,504.8965 L205.7935,498.4015 C205.446,497.804 205.651,497.039 206.251,496.6965 C206.846,496.349 207.6135,496.5515 207.956,497.1515 L211.706,503.6465 C212.0535,504.244 211.8485,505.009 211.251,505.354 C211.0535,505.469 210.8385,505.5215 210.626,505.5215 C210.196,505.5215 209.7735,505.2965 209.5435,504.8965 Z M198.8965,515.5435 C199.494,515.8885 199.699,516.651 199.354,517.251 C199.124,517.651 198.7015,517.876 198.2715,517.876 C198.059,517.876 197.844,517.821 197.6465,517.706 L191.1515,513.956 C190.554,513.6135 190.349,512.8485 190.6965,512.251 C191.039,511.651 191.809,511.4485 192.4015,511.7935 L198.8965,515.5435 Z M195,533.5 C195,534.19 194.44,534.75 193.75,534.75 L186.25,534.75 C185.56,534.75 185,534.19 185,533.5 C185,532.81 185.56,532.25 186.25,532.25 L193.75,532.25 C194.44,532.25 195,532.81 195,533.5 Z M197.6465,549.2935 C198.244,548.9435 199.009,549.1485 199.354,549.751 C199.699,550.3485 199.494,551.1135 198.8965,551.456 L192.4015,555.206 C192.204,555.321 191.989,555.376 191.7765,555.376 C191.3465,555.376 190.9265,555.151 190.6965,554.751 C190.349,554.151 190.554,553.3885 191.1515,553.0435 L197.6465,549.2935 Z M263.84775,553.0435 C264.44525,553.3885 264.65025,554.151 264.30525,554.751 C264.07525,555.151 263.65275,555.376 263.22275,555.376 C263.01025,555.376 262.79525,555.321 262.59775,555.206 L256.10275,551.456 C255.50525,551.1135 255.30025,550.3485 255.64775,549.751 C255.99025,549.151 256.75775,548.9485 257.35275,549.2935 L263.84775,553.0435 Z M268.75,532.25 C269.44,532.25 270,532.81 270,533.5 C270,534.19 269.44,534.75 268.75,534.75 L261.25,534.75 C260.56,534.75 260,534.19 260,533.5 C260,532.81 260.56,532.25 261.25,532.25 L268.75,532.25 Z M256.7285,517.875 C256.2985,517.875 255.876,517.65 255.646,517.25 C255.301,516.6525 255.506,515.8875 256.1035,515.5425 L262.5985,511.7925 C263.1935,511.445 263.961,511.6525 264.3035,512.25 C264.651,512.8475 264.446,513.6125 263.8485,513.9575 L257.3535,517.7075 C257.156,517.8225 256.941,517.875 256.7285,517.875 Z M243.75,505.353 C243.1525,505.008 242.9475,504.2455 243.2925,503.6455 L247.0425,497.153 C247.385,496.553 248.155,496.3505 248.75,496.6955 C249.3475,497.0405 249.5525,497.803 249.2075,498.403 L245.4575,504.8955 C245.2275,505.298 244.805,505.5205 244.375,505.5205 C244.1625,505.5205 243.9475,505.468 243.75,505.353 Z" id="icon-section-info"></path>
        </g>
    </g>
</svg>