<?xml version="1.0" encoding="UTF-8"?>
<svg width="85px" height="102px" viewBox="0 0 85 102" version="1.1" xmlns="http://www.w3.org/2000/svg" xmlns:xlink="http://www.w3.org/1999/xlink">
    <!-- Generator: Sketch 53.2 (72643) - https://sketchapp.com -->
    <title>icon-section-integration</title>
    <desc>Created with Sketch.</desc>
    <g id="Features" stroke="none" stroke-width="1" fill="none" fill-rule="evenodd">
        <path d="M62.9541914,78.4482668 L67.0058122,71.6972632 L64.8106537,69.5021047 L58.0596501,73.5537255 L62.9541914,78.4482668 Z M52.4011325,93.1089715 L63.2088501,82.3038004 L62.3073581,81.4023084 L55.1056085,74.2005588 L54.2041165,73.3016133 L43.3989454,84.1042378 L52.4011325,93.1089715 Z M75.811912,58.8930209 L66.809725,67.8977545 L68.6101624,69.6981919 L77.614896,60.6934583 C84.0679489,54.2404054 84.0679489,43.7408248 77.614896,37.2852253 C74.4927797,34.1631089 70.3342022,32.4467089 65.908233,32.4467089 C61.4822638,32.4467089 57.3236863,34.1631089 54.2015699,37.2852253 L28.9928995,62.4938957 C26.3495416,65.1398002 22.8327042,66.5964483 19.0892204,66.5964483 C15.3482833,66.5964483 11.8314459,65.1398002 9.18808796,62.4938957 C6.54218347,59.8505378 5.08553538,56.3337003 5.08553538,52.5927632 C5.08553538,48.8492795 6.54218347,45.332442 9.18808796,42.6890841 L18.190275,33.6843505 L16.3898376,31.8839131 L7.38510396,40.8886467 C0.932051052,47.3416996 0.932051052,57.8412802 7.38510396,64.2968797 C10.5046737,67.418996 14.6632512,69.1379427 19.0892204,69.1379427 C23.5177362,69.1379427 27.6737672,67.418996 30.7958835,64.2968797 L56.0045539,39.0882093 C58.6504584,36.4423048 62.1647492,34.9882033 65.908233,34.9882033 C69.6517167,34.9882033 73.1685541,36.4423048 75.811912,39.0882093 C78.4578165,41.7315672 79.911918,45.2484046 79.911918,48.9918884 C79.911918,52.7328255 78.4578165,56.249663 75.811912,58.8930209 Z M22.0458086,23.1338382 L17.9941878,29.8873884 L20.1867997,32.0800003 L26.9378033,28.0283795 L22.0458086,23.1338382 Z M32.5963209,8.4731335 L21.7911499,19.2808512 L22.6900953,20.1797966 L29.8943915,27.3815462 L30.7933369,28.2830382 L41.598508,17.4804137 L32.5963209,8.4731335 Z M43.3989454,98.5102837 L48.8002577,93.1089715 L43.3989454,87.7076592 L37.9976332,93.1089715 L39.7980706,94.9094089 L42.5,92.2074795 C42.9965846,91.7108949 43.8013062,91.7108949 44.3004374,92.2074795 C44.797022,92.7066106 44.797022,93.5113323 44.3004374,94.0079169 L41.598508,96.7098463 L43.3989454,98.5102837 Z M41.598508,3.07182126 L36.1971958,8.4731335 L41.598508,13.8769923 L46.9998202,8.4731335 L41.598508,3.07182126 Z M79.4153335,62.4938957 L69.6186111,72.2906181 L64.8106537,80.3047292 L65.908233,81.4023084 C66.4048175,81.898893 66.4048175,82.7061612 65.908233,83.2027458 L53.3026245,95.8083543 C53.0632453,96.0477335 52.7398286,96.1827027 52.4011325,96.1827027 C52.0649829,96.1827027 51.7415663,96.0477335 51.5021871,95.8083543 L50.6006951,94.9094089 L44.3004374,101.209667 C44.0508718,101.459232 43.7249086,101.584015 43.3989454,101.584015 C43.0729822,101.584015 42.747019,101.459232 42.5,101.209667 L35.2982503,94.0079169 C34.7991192,93.5113323 34.7991192,92.7066106 35.2982503,92.2074795 L41.598508,85.9072218 L40.6995626,85.0031832 C40.2004314,84.5065987 40.2004314,83.701877 40.6995626,83.2027458 L53.3051711,70.5996839 C53.8017556,70.1030993 54.6090239,70.1030993 55.1056085,70.5996839 L56.2031877,71.6972632 L64.2172988,66.8893058 L74.0114746,57.0925834 C76.1735275,54.9305306 77.3653305,52.0528866 77.3653305,48.9918884 C77.3653305,45.9283435 76.1735275,43.0532462 74.0114746,40.8886467 C71.8468752,38.7240473 68.9692312,37.5347909 65.908233,37.5347909 C62.8472347,37.5347909 59.9695907,38.7240473 57.8075379,40.8886467 L32.5963209,66.0973171 C28.9954461,69.7007385 24.1976751,71.6845302 19.0892204,71.6845302 C13.9833124,71.6845302 9.18554137,69.7007385 5.58466655,66.0973171 C-1.86155552,58.651095 -1.86155552,46.5344314 5.58466655,39.0882093 L15.3788424,29.2914869 L20.1867997,21.2773758 L19.0892204,20.1797966 C18.5926359,19.683212 18.5926359,18.8759437 19.0892204,18.3793592 L31.6973755,5.77375067 C31.9342082,5.53437144 32.2576248,5.3994023 32.5963209,5.3994023 C32.9350171,5.3994023 33.2584337,5.53437144 33.4978129,5.77375067 L34.3967583,6.67269609 L40.6995626,0.372438433 C41.1961472,-0.124146144 42.0008688,-0.124146144 42.5,0.372438433 L49.7017497,7.57418809 C50.1983342,8.07077266 50.1983342,8.87804093 49.7017497,9.3746255 L43.3989454,15.6774297 L44.3004374,16.5789217 C44.797022,17.0755063 44.797022,17.8827746 44.3004374,18.3793592 L31.6948289,30.9824211 C31.4452633,31.2319866 31.1193001,31.3567694 30.7933369,31.3567694 C30.4673737,31.3567694 30.1414105,31.2319866 29.8943915,30.9824211 L28.7968123,29.8873884 L20.7801546,34.6927991 L10.9885254,44.4895215 C8.82392594,46.654121 7.63212296,49.5317649 7.63212296,52.5927632 C7.63212296,55.6537615 8.82392594,58.5314054 10.9885254,60.6934583 C13.1505782,62.8580577 16.0282222,64.0498607 19.0892204,64.0498607 C22.1527653,64.0498607 25.0278627,62.8580577 27.1924621,60.6934583 L52.4011325,35.4847879 C56.0045539,31.8813665 60.7997783,29.9001213 65.908233,29.9001213 C71.0166876,29.9001213 75.8144586,31.8813665 79.4153335,35.4847879 C86.8615555,42.9335565 86.8615555,55.0502202 79.4153335,62.4938957 Z M35.2972317,18.3796138 L31.6963569,14.7761924 C31.1997723,14.2796078 31.1997723,13.4723396 31.6963569,12.975755 C32.1929415,12.4791704 33.0002097,12.4791704 33.4967943,12.975755 L37.0976691,16.5791764 C37.5942537,17.075761 37.5942537,17.8830292 37.0976691,18.3796138 C36.8481035,18.6291794 36.5221403,18.7514156 36.1987237,18.7514156 C35.8727605,18.7514156 35.5467973,18.6291794 35.2972317,18.3796138 Z M42.5664659,9.32242046 C42.3143538,9.61018485 41.9629247,9.75788693 41.608949,9.75788693 C41.3109983,9.75788693 41.0130475,9.65347684 40.7711217,9.44211007 C40.2414315,8.97863113 40.1777668,8.1662697 40.6412457,7.63657948 C41.1072713,7.10688927 41.89926,7.04067799 42.4264036,7.5092501 L42.4467763,7.52707622 C42.9764665,7.99055516 43.0324915,8.79273024 42.5664659,9.32242046 Z M49.701495,83.2032551 L53.3023698,86.8066766 C53.7989544,87.3032611 53.7989544,88.1105294 53.3023698,88.607114 C53.0528042,88.8566795 52.726841,88.9814623 52.4034244,88.9814623 C52.0774612,88.9814623 51.751498,88.8566795 51.5019324,88.607114 L47.9010576,85.0036926 C47.404473,84.507108 47.404473,83.6998397 47.9010576,83.2032551 C48.3976422,82.7066706 49.2049104,82.7066706 49.701495,83.2032551 Z" id="icon-section-integration" fill="#505050"></path>
    </g>
</svg>