<?xml version="1.0" encoding="UTF-8"?>
<svg width="68px" height="93px" viewBox="0 0 68 93" version="1.1" xmlns="http://www.w3.org/2000/svg" xmlns:xlink="http://www.w3.org/1999/xlink">
    <!-- Generator: Sketch 54.1 (76490) - https://sketchapp.com -->
    <title>icon-section-certified</title>
    <desc>Created with Sketch.</desc>
    <g id="Graphics" stroke="none" stroke-width="1" fill="none" fill-rule="evenodd">
        <g id="Artboard" transform="translate(-917.000000, -303.000000)" fill="#505050">
            <path d="M980.520141,338.529617 C981.22498,337.311472 981.22498,335.800665 980.520141,334.58252 L978.433206,330.964859 C977.817238,329.903004 977.492399,328.689456 977.492399,327.459052 L977.492399,323.282117 C977.492399,321.877036 976.736996,320.566956 975.518851,319.863649 L971.902722,317.776714 C970.839335,317.162278 969.952157,316.275101 969.334657,315.210181 L967.247722,311.590988 C966.545948,310.374375 965.234335,309.618972 963.829254,309.618972 L959.652319,309.618972 C958.42498,309.618972 957.212964,309.294133 956.148044,308.679698 L952.528851,306.59123 C951.312238,305.887923 949.799899,305.887923 948.581754,306.59123 L944.965625,308.679698 C943.899173,309.294133 942.687157,309.618972 941.459819,309.618972 L937.281351,309.618972 C935.87627,309.618972 934.56619,310.374375 933.864415,311.590988 L931.775948,315.208649 C931.161512,316.273569 930.274335,317.160746 929.209415,317.776714 L925.591754,319.863649 C924.373609,320.566956 923.618206,321.877036 923.618206,323.282117 L923.618206,327.459052 C923.618206,328.689456 923.293367,329.903004 922.677399,330.966391 L920.591996,334.58252 C919.887157,335.800665 919.887157,337.311472 920.590464,338.528085 L922.678931,342.147278 C923.293367,343.209133 923.618206,344.422681 923.618206,345.651552 L923.618206,349.83002 C923.618206,351.235101 924.373609,352.545181 925.591754,353.246956 L929.209415,355.335423 C930.27127,355.949859 931.15998,356.837036 931.775948,357.901956 L933.864415,361.519617 C934.56619,362.737762 935.87627,363.493165 937.281351,363.493165 L941.459819,363.493165 C942.68869,363.493165 943.900706,363.818004 944.964093,364.43244 L948.581754,366.520907 C949.799899,367.224214 951.312238,367.224214 952.528851,366.520907 L956.146512,364.43244 C957.211431,363.818004 958.423448,363.493165 959.652319,363.493165 L963.829254,363.493165 C965.234335,363.493165 966.545948,362.737762 967.247722,361.519617 L969.334657,357.901956 C969.95369,356.835504 970.842399,355.948327 971.904254,355.335423 L975.518851,353.246956 C976.736996,352.545181 977.492399,351.235101 977.492399,349.83002 L977.492399,345.651552 C977.492399,344.422681 977.817238,343.209133 978.434738,342.145746 L980.520141,338.529617 Z M951.344415,384.554052 L962.721431,391.37873 L962.721431,366.557681 L959.652319,366.557681 C958.96127,366.557681 958.276351,366.741552 957.677238,367.08631 L954.061109,369.174778 C952.979335,369.79994 951.767319,370.110988 950.555302,370.110988 C949.343286,370.110988 948.13127,369.79994 947.049496,369.174778 L943.433367,367.08631 C942.834254,366.741552 942.150867,366.557681 941.459819,366.557681 L938.390706,366.557681 L938.390706,391.37873 L949.767722,384.554052 C950.251915,384.262923 950.860222,384.262923 951.344415,384.554052 Z M981.085544,329.431069 L983.174012,333.050262 C984.424335,335.212278 984.424335,337.899859 983.17248,340.061875 L981.087077,343.678004 C980.740786,344.278649 980.556915,344.960504 980.556915,345.651552 L980.556915,349.83002 C980.556915,352.326069 979.213125,354.653569 977.051109,355.900827 L973.43498,357.990827 C972.835867,358.334052 972.336351,358.833569 971.988528,359.435746 L969.901593,363.051875 C968.989899,364.634698 967.49748,365.770101 965.785948,366.271149 L965.785948,394.084698 C965.785948,394.637843 965.48869,395.146552 965.009093,395.417762 C964.774657,395.551069 964.514173,395.616956 964.25369,395.616956 C963.980948,395.616956 963.706673,395.543407 963.464577,395.399375 L950.555302,387.65381 L937.64756,395.399375 C937.17256,395.682843 936.582641,395.690504 936.103044,395.417762 C935.621915,395.146552 935.32619,394.637843 935.32619,394.084698 L935.32619,366.271149 C933.614657,365.770101 932.122238,364.634698 931.209012,363.051875 L929.120544,359.434214 C928.774254,358.833569 928.274738,358.334052 927.67869,357.990827 L924.059496,355.900827 C921.89748,354.653569 920.55369,352.326069 920.55369,349.83002 L920.55369,345.651552 C920.55369,344.960504 920.371351,344.278649 920.026593,343.681069 L917.936593,340.060343 C916.687802,337.899859 916.687802,335.212278 917.936593,333.04873 L920.02506,329.432601 C920.371351,328.833488 920.55369,328.151633 920.55369,327.459052 L920.55369,323.282117 C920.55369,320.786069 921.89748,318.458569 924.059496,317.209778 L927.677157,315.12131 C928.27627,314.776552 928.774254,314.277036 929.120544,313.677923 L931.209012,310.05873 C932.457802,307.896714 934.78377,306.554456 937.281351,306.554456 L941.459819,306.554456 C942.150867,306.554456 942.832722,306.370585 943.434899,306.025827 L947.049496,303.937359 C949.213044,302.687036 951.89756,302.688569 954.061109,303.935827 L954.061109,303.937359 L957.67877,306.025827 C958.277883,306.370585 958.96127,306.554456 959.652319,306.554456 L963.829254,306.554456 C966.326835,306.554456 968.654335,307.896714 969.901593,310.05873 L971.99006,313.676391 C972.334819,314.275504 972.834335,314.776552 973.43498,315.12131 L977.051109,317.209778 C979.213125,318.458569 980.556915,320.786069 980.556915,323.282117 L980.556915,327.459052 C980.556915,328.151633 980.740786,328.833488 981.085544,329.431069 Z M950.555915,351.460343 C958.774948,351.460343 965.461722,344.773569 965.461722,336.556069 C965.461722,328.337036 958.774948,321.650262 950.555915,321.650262 C942.336883,321.650262 935.650109,328.337036 935.650109,336.556069 C935.650109,344.773569 942.336883,351.460343 950.555915,351.460343 Z M950.555915,318.585746 C960.465028,318.585746 968.526238,326.646956 968.526238,336.556069 C968.526238,346.463649 960.465028,354.524859 950.555915,354.524859 C940.646802,354.524859 932.585593,346.463649 932.585593,336.556069 C932.585593,326.646956 940.646802,318.585746 950.555915,318.585746 Z" id="icon-section-certified"></path>
        </g>
    </g>
</svg>