<?xml version="1.0" encoding="UTF-8"?>
<svg width="51px" height="85px" viewBox="0 0 51 85" version="1.1" xmlns="http://www.w3.org/2000/svg" xmlns:xlink="http://www.w3.org/1999/xlink">
    <!-- Generator: Sketch 53.2 (72643) - https://sketchapp.com -->
    <title>icon-section-mobile</title>
    <desc>Created with Sketch.</desc>
    <g id="Features" stroke="none" stroke-width="1" fill="none" fill-rule="evenodd">
        <g id="Desktop-HD---Features---HR" transform="translate(-1171.000000, -506.000000)" fill="#505050">
            <path d="M1214.47897,588.068966 C1216.90293,588.068966 1218.87552,586.096379 1218.87552,583.672414 L1218.87552,572.141724 C1218.79345,572.156379 1218.71724,572.191552 1218.62931,572.191552 L1174.17724,572.191552 C1174.08931,572.191552 1174.0131,572.156379 1173.93103,572.141724 L1173.93103,583.672414 C1173.93103,586.096379 1175.90362,588.068966 1178.32759,588.068966 L1214.47897,588.068966 Z M1178.32759,508.931034 C1175.90362,508.931034 1173.93103,510.903621 1173.93103,513.327586 L1173.93103,518.017241 C1174.0131,518.002586 1174.08931,517.967414 1174.17724,517.967414 L1191.27397,517.967414 C1192.08293,517.967414 1192.73948,518.623966 1192.73948,519.432931 C1192.73948,520.241897 1192.08293,520.898448 1191.27397,520.898448 L1174.17724,520.898448 C1174.08931,520.898448 1174.0131,520.863276 1173.93103,520.848621 L1173.93103,569.310345 C1174.0131,569.29569 1174.08931,569.260517 1174.17724,569.260517 L1218.62931,569.260517 C1218.71724,569.260517 1218.79345,569.29569 1218.87552,569.310345 L1218.87552,520.848621 C1218.79345,520.863276 1218.71724,520.898448 1218.62931,520.898448 L1211.79121,520.898448 C1210.98224,520.898448 1210.32569,520.241897 1210.32569,519.432931 C1210.32569,518.623966 1210.98224,517.967414 1211.79121,517.967414 L1218.62931,517.967414 C1218.71724,517.967414 1218.79345,518.002586 1218.87552,518.017241 L1218.87552,513.327586 C1218.87552,510.903621 1216.90293,508.931034 1214.47897,508.931034 L1178.32759,508.931034 Z M1214.47897,506 C1218.52086,506 1221.80655,509.28569 1221.80655,513.327586 L1221.80655,583.672414 C1221.80655,587.71431 1218.52086,591 1214.47897,591 L1178.32759,591 C1174.28569,591 1171,587.71431 1171,583.672414 L1171,513.327586 C1171,509.28569 1174.28569,506 1178.32759,506 L1214.47897,506 Z M1201.53259,578.666207 C1202.34155,578.666207 1202.9981,579.322759 1202.9981,580.131724 C1202.9981,580.94069 1202.34155,581.597241 1201.53259,581.597241 L1191.27397,581.597241 C1190.465,581.597241 1189.80845,580.94069 1189.80845,580.131724 C1189.80845,579.322759 1190.465,578.666207 1191.27397,578.666207 L1201.53259,578.666207 Z M1198.11207,520.898448 C1197.3031,520.898448 1196.64655,520.241897 1196.64655,519.432931 C1196.64655,518.623966 1197.3031,517.967414 1198.11207,517.967414 L1204.9531,517.967414 C1205.76207,517.967414 1206.41862,518.623966 1206.41862,519.432931 C1206.41862,520.241897 1205.76207,520.898448 1204.9531,520.898448 L1198.11207,520.898448 Z M1196.40328,532.37931 C1195.59431,532.37931 1194.93776,531.722759 1194.93776,530.913793 C1194.93776,530.104828 1195.59431,529.448276 1196.40328,529.448276 C1197.49362,529.448276 1198.5869,529.556724 1199.64793,529.773621 C1200.67966,529.987586 1201.69966,530.301207 1202.67862,530.714483 C1203.4231,531.028103 1203.77483,531.886897 1203.45828,532.63431 C1203.22086,533.194138 1202.68155,533.531207 1202.10707,533.531207 C1201.91655,533.531207 1201.7231,533.493103 1201.53845,533.416897 C1200.73828,533.076897 1199.90586,532.818966 1199.06466,532.648966 C1198.19121,532.470172 1197.30017,532.37931 1196.40328,532.37931 Z M1203.77952,556.505828 C1204.45072,556.057379 1205.35934,556.23031 1205.81366,556.904448 C1206.26797,557.572724 1206.08917,558.487207 1205.41797,558.938586 C1204.55917,559.516 1203.63883,560.014276 1202.68038,560.42169 C1201.69848,560.837897 1200.67848,561.151517 1199.64969,561.362552 C1198.58866,561.579448 1197.49245,561.690828 1196.4021,561.690828 C1195.31176,561.690828 1194.21848,561.579448 1193.15745,561.362552 C1192.12572,561.151517 1191.10866,560.837897 1190.12969,560.424621 C1189.16831,560.014276 1188.24797,559.516 1187.38917,558.938586 C1186.53038,558.358241 1185.73021,557.692897 1185.00331,556.963069 C1184.27934,556.242034 1183.614,555.441862 1183.03659,554.586 C1182.45624,553.724276 1181.95797,552.803931 1181.55055,551.845483 C1181.13434,550.863586 1180.82072,549.846517 1180.60969,548.814793 C1180.39279,547.753759 1180.28141,546.660483 1180.28141,545.570138 C1180.28141,544.476862 1180.39279,543.383586 1180.60969,542.322552 C1180.82072,541.293759 1181.13434,540.273759 1181.54762,539.294793 C1181.95797,538.333414 1182.45624,537.413069 1183.03366,536.554276 C1183.614,535.695483 1184.27934,534.89531 1185.00917,534.168414 C1185.73021,533.444448 1186.53038,532.779103 1187.38624,532.20169 C1188.24797,531.621345 1189.16831,531.123069 1190.12676,530.715655 C1190.86538,530.399103 1191.73003,530.744966 1192.04659,531.492379 C1192.36314,532.236862 1192.01434,533.098586 1191.26986,533.412207 C1190.48728,533.746345 1189.73107,534.15669 1189.02762,534.631517 C1188.33003,535.103414 1187.67348,535.645655 1187.08141,536.240655 C1186.48055,536.838586 1185.93831,537.495138 1185.46348,538.195655 C1184.99159,538.896172 1184.58124,539.652379 1184.2471,540.437897 C1183.91297,541.235138 1183.65503,542.064621 1183.4821,542.905828 C1183.30624,543.779276 1183.21245,544.673241 1183.21245,545.570138 C1183.21245,546.464103 1183.30624,547.358069 1183.4821,548.231517 C1183.65503,549.072724 1183.91297,549.902207 1184.25003,550.70531 C1184.58124,551.484966 1184.99159,552.241172 1185.46641,552.944621 C1185.93831,553.642207 1186.48055,554.298759 1187.07555,554.890828 C1187.67348,555.49169 1188.33003,556.033931 1189.03055,556.508759 C1189.73107,556.980655 1190.48728,557.391 1191.26986,557.725138 C1192.07003,558.059276 1192.89952,558.317207 1193.74072,558.490138 C1195.48762,558.844793 1197.31952,558.844793 1199.06641,558.490138 C1199.90762,558.317207 1200.7371,558.059276 1201.53728,557.722207 C1202.31986,557.391 1203.07607,556.980655 1203.77952,556.505828 Z M1205.73159,536.246224 C1205.1571,535.674672 1205.1571,534.745534 1205.72572,534.173983 C1206.29728,533.596569 1207.22641,533.602431 1207.79797,534.168121 C1208.52779,534.895017 1209.19314,535.698121 1209.77055,536.551052 C1210.3509,537.412776 1210.84917,538.333121 1211.25659,539.291569 C1211.66986,540.273466 1211.98641,541.293466 1212.19745,542.322259 C1212.41434,543.386224 1212.52279,544.4795 1212.52279,545.569845 C1212.52279,546.66019 1212.41434,547.753466 1212.19745,548.8145 C1211.98641,549.846224 1211.66986,550.863293 1211.25952,551.842259 C1211.0221,552.405017 1210.47986,552.739155 1209.90831,552.739155 C1209.71486,552.739155 1209.52434,552.701052 1209.33676,552.624845 C1208.59521,552.308293 1208.24055,551.4495 1208.5571,550.705017 C1208.89417,549.901914 1209.1521,549.072431 1209.32503,548.231224 C1209.5009,547.357776 1209.59176,546.46381 1209.59176,545.569845 C1209.59176,544.672948 1209.5009,543.778983 1209.32503,542.905534 C1209.1521,542.064328 1208.89417,541.234845 1208.5571,540.434672 C1208.2259,539.652086 1207.81555,538.895879 1207.34072,538.192431 C1206.86883,537.494845 1206.32659,536.838293 1205.73159,536.246224 Z M1188.03957,545.998362 C1188.61112,545.42681 1189.54026,545.42681 1190.11181,545.998362 L1194.78095,550.6675 L1202.55698,540.294569 C1203.04647,539.64681 1203.96681,539.514914 1204.60871,539.998534 C1205.25647,540.485086 1205.38836,541.405431 1204.90474,542.050259 L1196.11164,553.774397 C1195.85664,554.117328 1195.46388,554.328362 1195.04181,554.360603 C1195.00664,554.363534 1194.97147,554.363534 1194.93922,554.363534 C1194.55233,554.363534 1194.17716,554.20819 1193.90164,553.932672 L1188.03957,548.070603 C1187.46802,547.499052 1187.46802,546.569914 1188.03957,545.998362 Z" id="icon-section-mobile"></path>
        </g>
    </g>
</svg>