<?xml version="1.0" encoding="UTF-8"?>
<svg width="100px" height="71px" viewBox="0 0 100 71" version="1.1" xmlns="http://www.w3.org/2000/svg" xmlns:xlink="http://www.w3.org/1999/xlink">
    <!-- Generator: Sketch 53.2 (72643) - https://sketchapp.com -->
    <title>icon-section-digitize</title>
    <desc>Created with Sketch.</desc>
    <g id="Features" stroke="none" stroke-width="1" fill="none" fill-rule="evenodd">
        <g id="Desktop-HD---Solutions---Digitization" transform="translate(-1158.000000, -2008.000000)" fill="#505050">
            <path d="M1160.98507,2073.67164 L1205.76119,2073.67164 L1205.76119,2025.91045 L1192.32836,2025.91045 C1191.50448,2025.91045 1190.83582,2025.24179 1190.83582,2024.41791 L1190.83582,2010.98507 L1160.98507,2010.98507 L1160.98507,2073.67164 Z M1193.8209,2013.09552 L1193.8209,2022.92537 L1203.65075,2022.92537 L1193.8209,2013.09552 Z M1208.30746,2023.36119 C1208.44179,2023.49552 1208.55522,2023.6597 1208.62985,2023.84478 C1208.70448,2024.02388 1208.74627,2024.2209 1208.74627,2024.41791 L1208.74627,2075.16418 C1208.74627,2075.98806 1208.07761,2076.65672 1207.25373,2076.65672 L1159.49254,2076.65672 C1158.66866,2076.65672 1158,2075.98806 1158,2075.16418 L1158,2009.49254 C1158,2008.66866 1158.66866,2008 1159.49254,2008 L1192.32836,2008 C1192.52537,2008 1192.72239,2008.04179 1192.90149,2008.11642 C1193.08657,2008.19104 1193.25075,2008.30448 1193.38507,2008.43881 L1208.30746,2023.36119 Z M1253.52239,2015.46269 C1252.70149,2015.46269 1252.02985,2016.13433 1252.02985,2016.95522 C1252.02985,2017.77612 1252.70149,2018.44776 1253.52239,2018.44776 C1254.34328,2018.44776 1255.01493,2017.77612 1255.01493,2016.95522 C1255.01493,2016.13433 1254.34328,2015.46269 1253.52239,2015.46269 Z M1213.22388,2028.89552 C1212.4,2028.89552 1211.73134,2028.22687 1211.73134,2027.40299 C1211.73134,2026.5791 1212.4,2025.91045 1213.22388,2025.91045 L1218.57612,2025.91045 L1228.58507,2015.89851 C1228.86567,2015.6209 1229.24478,2015.46269 1229.64179,2015.46269 L1249.04478,2015.46269 C1249.13731,2015.46269 1249.21791,2015.49851 1249.30448,2015.51642 C1249.90746,2013.75522 1251.56119,2012.47761 1253.52239,2012.47761 C1255.99104,2012.47761 1258,2014.48657 1258,2016.95522 C1258,2019.42388 1255.99104,2021.43284 1253.52239,2021.43284 C1251.56119,2021.43284 1249.90746,2020.15522 1249.30448,2018.39403 C1249.21791,2018.41194 1249.13731,2018.44776 1249.04478,2018.44776 L1230.2597,2018.44776 L1220.25075,2028.4597 C1219.97015,2028.73731 1219.59104,2028.89552 1219.19403,2028.89552 L1213.22388,2028.89552 Z M1241.58209,2024.41791 C1240.76119,2024.41791 1240.08955,2025.08955 1240.08955,2025.91045 C1240.08955,2026.73134 1240.76119,2027.40299 1241.58209,2027.40299 C1242.40299,2027.40299 1243.07463,2026.73134 1243.07463,2025.91045 C1243.07463,2025.08955 1242.40299,2024.41791 1241.58209,2024.41791 Z M1213.22388,2037.85075 C1212.4,2037.85075 1211.73134,2037.18209 1211.73134,2036.35821 C1211.73134,2035.53433 1212.4,2034.86567 1213.22388,2034.86567 L1221.56119,2034.86567 L1231.57015,2024.85373 C1231.85075,2024.57612 1232.22985,2024.41791 1232.62687,2024.41791 L1237.10448,2024.41791 C1237.19701,2024.41791 1237.27761,2024.45373 1237.36418,2024.47164 C1237.96716,2022.71045 1239.6209,2021.43284 1241.58209,2021.43284 C1244.05075,2021.43284 1246.0597,2023.44179 1246.0597,2025.91045 C1246.0597,2028.3791 1244.05075,2030.38806 1241.58209,2030.38806 C1239.6209,2030.38806 1237.96716,2029.11045 1237.36418,2027.34925 C1237.27761,2027.36716 1237.19701,2027.40299 1237.10448,2027.40299 L1233.24478,2027.40299 L1223.23582,2037.41493 C1222.95522,2037.69254 1222.57612,2037.85075 1222.1791,2037.85075 L1213.22388,2037.85075 Z M1241.58209,2075.16418 C1242.40299,2075.16418 1243.07463,2074.49254 1243.07463,2073.67164 C1243.07463,2072.85075 1242.40299,2072.1791 1241.58209,2072.1791 C1240.76119,2072.1791 1240.08955,2072.85075 1240.08955,2073.67164 C1240.08955,2074.49254 1240.76119,2075.16418 1241.58209,2075.16418 Z M1241.58209,2069.19403 C1244.05075,2069.19403 1246.0597,2071.20299 1246.0597,2073.67164 C1246.0597,2076.1403 1244.05075,2078.14925 1241.58209,2078.14925 C1239.6209,2078.14925 1237.96716,2076.87164 1237.36418,2075.11045 C1237.27761,2075.12836 1237.19701,2075.16418 1237.10448,2075.16418 L1232.62687,2075.16418 C1232.22985,2075.16418 1231.85075,2075.00597 1231.57015,2074.72836 L1221.56119,2064.71642 L1213.22388,2064.71642 C1212.4,2064.71642 1211.73134,2064.04776 1211.73134,2063.22388 C1211.73134,2062.4 1212.4,2061.73134 1213.22388,2061.73134 L1222.1791,2061.73134 C1222.57612,2061.73134 1222.95522,2061.88955 1223.23582,2062.16716 L1233.24478,2072.1791 L1237.10448,2072.1791 C1237.19701,2072.1791 1237.27761,2072.21493 1237.36418,2072.23284 C1237.96716,2070.47164 1239.6209,2069.19403 1241.58209,2069.19403 Z M1253.52239,2046.80597 C1254.34328,2046.80597 1255.01493,2046.13433 1255.01493,2045.31343 C1255.01493,2044.49254 1254.34328,2043.8209 1253.52239,2043.8209 C1252.70149,2043.8209 1252.02985,2044.49254 1252.02985,2045.31343 C1252.02985,2046.13433 1252.70149,2046.80597 1253.52239,2046.80597 Z M1253.52239,2040.83582 C1255.99104,2040.83582 1258,2042.84478 1258,2045.31343 C1258,2047.78209 1255.99104,2049.79104 1253.52239,2049.79104 C1251.56119,2049.79104 1249.90746,2048.51343 1249.30448,2046.75224 C1249.21791,2046.77015 1249.13731,2046.80597 1249.04478,2046.80597 L1213.22388,2046.80597 C1212.4,2046.80597 1211.73134,2046.13731 1211.73134,2045.31343 C1211.73134,2044.48955 1212.4,2043.8209 1213.22388,2043.8209 L1249.04478,2043.8209 C1249.13731,2043.8209 1249.21791,2043.85672 1249.30448,2043.87463 C1249.90746,2042.11343 1251.56119,2040.83582 1253.52239,2040.83582 Z M1235.61194,2052.77612 C1234.79104,2052.77612 1234.1194,2053.44776 1234.1194,2054.26866 C1234.1194,2055.08955 1234.79104,2055.76119 1235.61194,2055.76119 C1236.43284,2055.76119 1237.10448,2055.08955 1237.10448,2054.26866 C1237.10448,2053.44776 1236.43284,2052.77612 1235.61194,2052.77612 Z M1213.22388,2055.76119 C1212.4,2055.76119 1211.73134,2055.09254 1211.73134,2054.26866 C1211.73134,2053.44478 1212.4,2052.77612 1213.22388,2052.77612 L1231.13433,2052.77612 C1231.22687,2052.77612 1231.30746,2052.81194 1231.39403,2052.82985 C1231.99701,2051.06866 1233.65075,2049.79104 1235.61194,2049.79104 C1238.0806,2049.79104 1240.08955,2051.8 1240.08955,2054.26866 C1240.08955,2056.73731 1238.0806,2058.74627 1235.61194,2058.74627 C1233.65075,2058.74627 1231.99701,2057.46866 1231.39403,2055.70746 C1231.30746,2055.72537 1231.22687,2055.76119 1231.13433,2055.76119 L1213.22388,2055.76119 Z" id="icon-section-digitize"></path>
        </g>
    </g>
</svg>