<?xml version="1.0" encoding="UTF-8"?>
<svg width="90px" height="83px" viewBox="0 0 90 83" version="1.1" xmlns="http://www.w3.org/2000/svg" xmlns:xlink="http://www.w3.org/1999/xlink">
    <!-- Generator: Sketch 53.2 (72643) - https://sketchapp.com -->
    <title>icon-section-automation</title>
    <desc>Created with Sketch.</desc>
    <g id="Features" stroke="none" stroke-width="1" fill="none" fill-rule="evenodd">
        <g id="Desktop-HD---Features---HR" transform="translate(-516.000000, -522.000000)" fill="#505050">
            <path d="M603.352941,601.411765 L603.352941,596.117647 L559.676471,596.117647 L533.205882,596.117647 L518.647059,596.117647 L518.647059,601.411765 L603.352941,601.411765 Z M534.529412,585.142941 L534.529412,593.470588 L558.352941,593.470588 L558.352941,585.142941 C555.128824,587.856176 550.975588,589.5 546.441176,589.5 C541.906765,589.5 537.753529,587.856176 534.529412,585.142941 Z M546.441176,555.088235 C537.682059,555.088235 530.558824,562.211471 530.558824,570.970588 C530.558824,579.729706 537.682059,586.852941 546.441176,586.852941 C555.200294,586.852941 562.323529,579.729706 562.323529,570.970588 C562.323529,562.211471 555.200294,555.088235 546.441176,555.088235 Z M525.320294,540.532059 L531.906176,559.514118 C535.302353,555.215294 540.548824,552.441176 546.441176,552.441176 C547.110882,552.441176 547.772647,552.483529 548.423824,552.549706 L538.452353,541.156765 L525.320294,540.532059 Z M521.294118,531.264706 C521.294118,534.915 524.261471,537.882353 527.911765,537.882353 C531.562059,537.882353 534.529412,534.915 534.529412,531.264706 C534.529412,527.614412 531.562059,524.647059 527.911765,524.647059 C524.261471,524.647059 521.294118,527.614412 521.294118,531.264706 Z M578.997353,540.442059 C578.960294,540.240882 578.904706,540.047647 578.886176,539.841176 C578.814706,539.017941 578.915294,538.223824 579.103235,537.464118 L536.149412,527.116765 C536.784706,528.368824 537.176471,529.766471 537.176471,531.264706 C537.176471,534.089118 535.879412,536.593235 533.878235,538.292647 L578.997353,540.442059 Z M585.742059,534.581471 C584.079706,534.727059 582.711176,535.743529 582.009706,537.138529 C581.639118,537.879706 581.448529,538.724118 581.522647,539.610882 C581.570294,540.172059 581.731765,540.696176 581.959412,541.172647 C582.017647,541.267941 582.073235,541.360588 582.107647,541.466471 C582.970588,542.993824 584.667353,543.957353 586.552059,543.830294 C589.098529,543.607941 590.991176,541.352647 590.771471,538.800882 C590.559706,536.389412 588.524118,534.562941 586.147059,534.562941 C586.012059,534.562941 585.877059,534.570882 585.742059,534.581471 Z M587.470588,553.764706 L587.470588,546.334412 C587.240294,546.379412 587.020588,546.445588 586.782353,546.466765 C586.567941,546.485294 586.356176,546.495882 586.147059,546.495882 C585.697059,546.495882 585.255,546.448235 584.823529,546.368824 L584.823529,553.764706 L587.470588,553.764706 Z M592.764706,559.834412 L592.764706,556.411765 L590.117647,556.411765 L590.117647,562.481471 L592.764706,559.834412 Z M582.176471,562.481471 L582.176471,556.411765 L579.529412,556.411765 L579.529412,559.834412 L582.176471,562.481471 Z M604.676471,593.470588 C605.407059,593.470588 606,594.063529 606,594.794118 L606,602.735294 C606,603.465882 605.407059,604.058824 604.676471,604.058824 L517.323529,604.058824 C516.592941,604.058824 516,603.465882 516,602.735294 L516,594.794118 C516,594.063529 516.592941,593.470588 517.323529,593.470588 L531.882353,593.470588 L531.882353,582.392647 C529.402059,579.242647 527.911765,575.28 527.911765,570.970588 C527.911765,567.841765 528.697941,564.895588 530.071765,562.312059 L521.654118,538.051765 C519.817059,536.357647 518.647059,533.954118 518.647059,531.264706 C518.647059,526.155882 522.802941,522 527.911765,522 C529.881176,522 531.705,522.63 533.205882,523.683529 L580.220294,535.031471 C581.414118,533.334706 583.290882,532.138235 585.511765,531.945 C589.577647,531.603529 593.058529,534.570882 593.407941,538.570588 L593.407941,538.573235 C593.651471,541.376471 592.245882,543.928235 590.019706,545.339118 C590.077941,545.49 590.117647,545.654118 590.117647,545.823529 L590.117647,553.764706 L594.088235,553.764706 C594.818824,553.764706 595.411765,554.357647 595.411765,555.088235 L595.411765,560.382353 C595.411765,560.734412 595.271471,561.070588 595.025294,561.319412 L589.731176,566.613529 C589.477059,566.865 589.138235,567 588.794118,567 C588.624706,567 588.45,566.965588 588.288529,566.899412 C587.793529,566.695588 587.470588,566.211176 587.470588,565.676471 L587.470588,556.411765 L584.823529,556.411765 L584.823529,565.676471 C584.823529,566.211176 584.500588,566.695588 584.005588,566.899412 C583.844118,566.965588 583.669412,567 583.5,567 C583.155882,567 582.817059,566.865 582.562941,566.613529 L577.268824,561.319412 C577.022647,561.070588 576.882353,560.734412 576.882353,560.382353 L576.882353,555.088235 C576.882353,554.357647 577.475294,553.764706 578.205882,553.764706 L582.176471,553.764706 L582.176471,545.823529 C582.176471,545.662059 582.216176,545.513824 582.269118,545.368235 C581.371765,544.804412 580.625294,544.031471 580.045588,543.136765 L542.121176,541.334118 L552.873529,553.613824 C559.922647,556.239706 564.970588,563.018824 564.970588,570.970588 C564.970588,575.28 563.480294,579.242647 561,582.392647 L561,593.470588 L604.676471,593.470588 Z M546.441176,565.412824 C543.375882,565.412824 540.882353,567.903706 540.882353,570.971647 C540.882353,574.036941 543.375882,576.527824 546.441176,576.527824 C549.506471,576.527824 552,574.036941 552,570.971647 C552,567.903706 549.506471,565.412824 546.441176,565.412824 Z M546.441176,579.174882 C541.917353,579.174882 538.235294,575.495471 538.235294,570.971647 C538.235294,566.447824 541.917353,562.765765 546.441176,562.765765 C550.965,562.765765 554.647059,566.447824 554.647059,570.971647 C554.647059,575.495471 550.965,579.174882 546.441176,579.174882 Z M527.911765,529.941176 C527.183824,529.941176 526.588235,530.536765 526.588235,531.264706 C526.588235,531.992647 527.183824,532.588235 527.911765,532.588235 C528.639706,532.588235 529.235294,531.992647 529.235294,531.264706 C529.235294,530.536765 528.639706,529.941176 527.911765,529.941176 Z M527.911765,535.235294 C525.722647,535.235294 523.941176,533.453824 523.941176,531.264706 C523.941176,529.075588 525.722647,527.294118 527.911765,527.294118 C530.100882,527.294118 531.882353,529.075588 531.882353,531.264706 C531.882353,533.453824 530.100882,535.235294 527.911765,535.235294 Z M586.147059,540.542382 C585.416471,540.542382 584.810294,539.936206 584.810294,539.205618 C584.810294,538.475029 585.416471,537.868853 586.147059,537.868853 C586.877647,537.868853 587.483824,538.475029 587.483824,539.205618 C587.483824,539.936206 586.877647,540.542382 586.147059,540.542382 Z" id="icon-section-automation"></path>
        </g>
    </g>
</svg>