<?xml version="1.0" encoding="UTF-8"?>
<svg width="97px" height="83px" viewBox="0 0 97 83" version="1.1" xmlns="http://www.w3.org/2000/svg" xmlns:xlink="http://www.w3.org/1999/xlink">
    <!-- Generator: Sketch 53.2 (72643) - https://sketchapp.com -->
    <title>icon-section-software-white</title>
    <desc>Created with Sketch.</desc>
    <g id="Features" stroke="none" stroke-width="1" fill="none" fill-rule="evenodd">
        <g id="Artboard-Copy" transform="translate(-304.000000, -109.000000)" fill="#FFFFFF">
            <path d="M385.037975,180.214699 C387.746608,180.214699 389.949367,178.011939 389.949367,175.303306 C389.949367,172.594673 387.746608,170.391914 385.037975,170.391914 C382.329342,170.391914 380.126582,172.594673 380.126582,175.303306 C380.126582,178.011939 382.329342,180.214699 385.037975,180.214699 Z M385.037975,167.936218 C389.099696,167.936218 392.405063,171.241585 392.405063,175.303306 C392.405063,179.365028 389.099696,182.670395 385.037975,182.670395 C380.976253,182.670395 377.670886,179.365028 377.670886,175.303306 C377.670886,171.241585 380.976253,167.936218 385.037975,167.936218 Z M398.544304,177.022785 L398.544304,173.58481 L397.453975,173.58481 C396.884253,173.58481 396.390658,173.191899 396.258051,172.639367 C395.975646,171.445899 395.501696,170.306456 394.853392,169.255418 C394.556253,168.771646 394.627468,168.145443 395.030203,167.742709 L395.803747,166.966709 L393.375063,164.538025 L392.599063,165.309114 C392.193873,165.716759 391.567671,165.785519 391.086354,165.48838 C390.035316,164.840076 388.895873,164.366127 387.702405,164.081266 C387.147418,163.951114 386.756962,163.457519 386.756962,162.887797 L386.756962,161.797468 L383.318987,161.797468 L383.318987,162.887797 C383.318987,163.457519 382.928532,163.951114 382.373544,164.081266 C381.180076,164.366127 380.040633,164.840076 378.989595,165.48838 C378.510734,165.785519 377.884532,165.716759 377.476886,165.309114 L377.319722,165.156861 C377.292709,165.127392 377.263241,165.102835 377.233772,165.070911 L376.700886,164.538025 L376.158177,165.08319 C376.136076,165.105291 376.11643,165.124937 376.091873,165.147038 L374.272203,166.966709 L375.045747,167.742709 C375.448481,168.145443 375.519696,168.771646 375.222557,169.255418 C374.574253,170.306456 374.100304,171.445899 373.817899,172.639367 C373.685291,173.191899 373.191696,173.58481 372.621975,173.58481 L371.531646,173.58481 L371.531646,177.022785 L372.621975,177.022785 C373.191696,177.022785 373.685291,177.413241 373.817899,177.968228 C374.100304,179.161696 374.574253,180.301139 375.222557,181.352177 C375.519696,181.835949 375.448481,182.462152 375.045747,182.864886 L374.272203,183.63843 L376.700886,186.06957 L377.476886,185.296025 C377.884532,184.893291 378.510734,184.824532 378.989595,185.119215 C380.040633,185.767519 381.180076,186.241468 382.373544,186.523873 C382.928532,186.656481 383.318987,187.150076 383.318987,187.717342 L383.318987,188.810127 L386.756962,188.810127 L386.756962,187.717342 C386.756962,187.150076 387.147418,186.656481 387.702405,186.523873 C388.895873,186.241468 390.035316,185.767519 391.086354,185.119215 C391.567671,184.824532 392.193873,184.893291 392.599063,185.296025 L393.375063,186.06957 L395.803747,183.63843 L395.030203,182.864886 C394.627468,182.462152 394.556253,181.835949 394.853392,181.352177 C395.501696,180.301139 395.975646,179.161696 396.258051,177.968228 C396.390658,177.413241 396.884253,177.022785 397.453975,177.022785 L398.544304,177.022785 Z M338.379747,157.409139 L338.379747,136.717443 C335.973165,134.696405 332.952658,133.556962 329.78481,133.556962 C322.339139,133.556962 316.278481,139.61762 316.278481,147.063291 C316.278481,154.508962 322.339139,160.56962 329.78481,160.56962 C332.952658,160.56962 335.973165,159.430177 338.379747,157.409139 Z M378.550025,162.912354 C379.055899,162.647139 379.593696,162.458051 380.126582,162.256684 L380.126582,131.101266 L340.835443,131.101266 L340.835443,163.025316 L374.743696,163.025316 L375.834025,161.932532 C376.312886,161.453671 377.091342,161.453671 377.570203,161.932532 L378.550025,162.912354 Z M306.455696,176.531646 C306.455696,178.562506 308.10838,180.21519 310.139241,180.21519 L371.990861,180.21519 C371.897544,179.964709 371.767392,179.733873 371.686354,179.478481 L370.303797,179.478481 C369.626025,179.478481 369.075949,178.928405 369.075949,178.250633 L369.075949,172.356962 C369.075949,171.676734 369.626025,171.129114 370.303797,171.129114 L371.686354,171.129114 C371.936835,170.331013 372.258532,169.557468 372.646532,168.815848 L371.669165,167.836025 C371.187848,167.354709 371.187848,166.578709 371.669165,166.099848 L372.288,165.481013 L339.607595,165.481013 C338.929823,165.481013 338.379747,164.930937 338.379747,164.253165 L338.379747,160.466481 C335.83319,162.114253 332.866709,163.025316 329.78481,163.025316 C320.983595,163.025316 313.822785,155.864506 313.822785,147.063291 C313.822785,138.262076 320.983595,131.101266 329.78481,131.101266 C332.866709,131.101266 335.83319,132.012329 338.379747,133.660101 L338.379747,129.873418 C338.379747,129.19319 338.929823,128.64557 339.607595,128.64557 L381.35443,128.64557 C382.032203,128.64557 382.582278,129.19319 382.582278,129.873418 L382.582278,159.341772 L387.98481,159.341772 C388.665038,159.341772 389.212658,159.889392 389.212658,160.56962 L389.212658,161.952177 C389.468051,162.033215 389.698886,162.163367 389.949367,162.256684 L389.949367,115.139241 C389.949367,113.10838 388.296684,111.455696 386.265823,111.455696 L310.139241,111.455696 C308.10838,111.455696 306.455696,113.10838 306.455696,115.139241 L306.455696,176.531646 Z M399.772152,171.129114 C400.449924,171.129114 401,171.676734 401,172.356962 L401,178.250633 C401,178.928405 400.449924,179.478481 399.772152,179.478481 L398.389595,179.478481 C398.139114,180.274127 397.817418,181.050127 397.429418,181.789291 L398.406785,182.77157 C398.888101,183.25043 398.888101,184.028886 398.406785,184.507747 L394.241924,188.672608 C393.763063,189.151468 392.984608,189.151468 392.505747,188.672608 L391.525924,187.695241 C390.784304,188.083241 390.008304,188.404937 389.212658,188.652962 L389.212658,190.037975 C389.212658,190.715747 388.665038,191.265823 387.98481,191.265823 L382.091139,191.265823 C381.410911,191.265823 380.863291,190.715747 380.863291,190.037975 L380.863291,188.652962 C380.067646,188.404937 379.291646,188.083241 378.550025,187.695241 L377.570203,188.672608 C377.091342,189.151468 376.312886,189.151468 375.834025,188.672608 L371.669165,184.507747 C371.187848,184.028886 371.187848,183.25043 371.669165,182.77157 L371.769848,182.670886 L310.139241,182.670886 C306.752835,182.670886 304,179.918051 304,176.531646 L304,115.139241 C304,111.752835 306.752835,109 310.139241,109 L386.265823,109 C389.652228,109 392.405063,111.752835 392.405063,115.139241 L392.405063,162.033215 L392.505747,161.932532 C392.984608,161.453671 393.763063,161.453671 394.241924,161.932532 L398.406785,166.099848 C398.888101,166.578709 398.888101,167.354709 398.406785,167.836025 L397.429418,168.815848 C397.817418,169.557468 398.139114,170.331013 398.389595,171.129114 L399.772152,171.129114 Z M383.834192,118.822294 C383.15642,118.822294 382.594066,118.272218 382.594066,117.594446 C382.594066,116.916673 383.131863,116.366597 383.809635,116.366597 L383.834192,116.366597 C384.511965,116.366597 385.062041,116.916673 385.062041,117.594446 C385.062041,118.272218 384.511965,118.822294 383.834192,118.822294 Z M378.9228,118.822294 C378.245028,118.822294 377.682673,118.272218 377.682673,117.594446 C377.682673,116.916673 378.220471,116.366597 378.898243,116.366597 L378.9228,116.366597 C379.600572,116.366597 380.150648,116.916673 380.150648,117.594446 C380.150648,118.272218 379.600572,118.822294 378.9228,118.822294 Z M374.011408,118.822294 C373.333635,118.822294 372.771281,118.272218 372.771281,117.594446 C372.771281,116.916673 373.309078,116.366597 373.986851,116.366597 L374.011408,116.366597 C374.68918,116.366597 375.239256,116.916673 375.239256,117.594446 C375.239256,118.272218 374.68918,118.822294 374.011408,118.822294 Z M354.279397,139.758086 C354.758258,140.236947 354.758258,141.015403 354.279397,141.494263 L348.709878,147.063782 L354.279397,152.630846 C354.758258,153.109706 354.758258,153.888162 354.279397,154.367023 C354.038739,154.607681 353.72441,154.72801 353.410081,154.72801 C353.098208,154.72801 352.783878,154.607681 352.54322,154.367023 L346.106841,147.930643 C345.62798,147.451782 345.62798,146.673327 346.106841,146.194466 L352.54322,139.758086 C353.022081,139.279225 353.800537,139.279225 354.279397,139.758086 Z M368.418805,139.758086 L374.855185,146.194466 C375.334046,146.673327 375.334046,147.451782 374.855185,147.930643 L368.418805,154.367023 C368.178147,154.607681 367.863818,154.72801 367.549489,154.72801 C367.237615,154.72801 366.923286,154.607681 366.682628,154.367023 C366.203767,153.888162 366.203767,153.109706 366.682628,152.630846 L372.252147,147.063782 L366.682628,141.494263 C366.203767,141.015403 366.203767,140.236947 366.682628,139.758086 C367.161489,139.279225 367.939944,139.279225 368.418805,139.758086 Z M361.910228,138.484562 C362.578177,138.595068 363.032481,139.228638 362.919519,139.896587 L360.463823,154.630765 C360.363139,155.23241 359.842532,155.657246 359.25562,155.657246 C359.189316,155.657246 359.118101,155.652334 359.051797,155.640056 C358.381392,155.529549 357.929544,154.898435 358.042506,154.22803 L360.498203,139.493853 C360.611165,138.823448 361.254557,138.369144 361.910228,138.484562 Z M333.468354,147.0628 C333.468354,145.031939 331.815671,143.379256 329.78481,143.379256 C327.753949,143.379256 326.101266,145.031939 326.101266,147.0628 C326.101266,149.093661 327.753949,150.746344 329.78481,150.746344 C331.815671,150.746344 333.468354,149.093661 333.468354,147.0628 Z M323.64557,147.0628 C323.64557,143.676395 326.398405,140.923559 329.78481,140.923559 C333.171215,140.923559 335.924051,143.676395 335.924051,147.0628 C335.924051,150.449205 333.171215,153.202041 329.78481,153.202041 C326.398405,153.202041 323.64557,150.449205 323.64557,147.0628 Z" id="icon-section-software"></path>
        </g>
    </g>
</svg>