<?xml version="1.0" encoding="UTF-8"?>
<svg width="95px" height="91px" viewBox="0 0 95 91" version="1.1" xmlns="http://www.w3.org/2000/svg" xmlns:xlink="http://www.w3.org/1999/xlink">
    <!-- Generator: Sketch 53.2 (72643) - https://sketchapp.com -->
    <title>icon-section-workflow</title>
    <desc>Created with Sketch.</desc>
    <g id="Features" stroke="none" stroke-width="1" fill="none" fill-rule="evenodd">
        <g id="Desktop-HD---Features---ITSM" transform="translate(-191.000000, -1300.000000)" fill="#505050">
            <path d="M211.13245,1337.88993 C220.843841,1337.88993 228.748344,1329.95578 228.748344,1320.20796 C228.748344,1310.46015 220.843841,1302.526 211.13245,1302.526 C201.42106,1302.526 193.516556,1310.46015 193.516556,1320.20796 C193.516556,1329.95578 201.42106,1337.88993 211.13245,1337.88993 Z M211.13245,1300 C222.23298,1300 231.264901,1309.0658 231.264901,1320.20796 C231.264901,1331.35013 222.23298,1340.41593 211.13245,1340.41593 C200.031921,1340.41593 191,1331.35013 191,1320.20796 C191,1309.0658 200.031921,1300 211.13245,1300 Z M206.869716,1309.7792 L220.04321,1319.25166 C220.375358,1319.4891 220.569536,1319.868 220.569536,1320.27216 C220.569536,1320.67884 220.375358,1321.05774 220.04321,1321.29518 L206.869716,1330.76764 C206.647433,1330.92677 206.384269,1331.00761 206.118551,1331.00761 C205.921818,1331.00761 205.722529,1330.96466 205.53857,1330.8712 C205.109333,1330.65649 204.84106,1330.22202 204.84106,1329.74461 L204.84106,1310.7997 C204.84106,1310.32482 205.109333,1309.89035 205.53857,1309.67564 C205.965252,1309.45588 206.483914,1309.50135 206.869716,1309.7792 Z M207.396043,1327.26662 L217.120309,1320.27216 L207.396043,1313.28022 L207.396043,1327.26662 Z M247.553176,1313.32564 C246.896598,1313.32564 246.364238,1312.79115 246.364238,1312.1345 L246.364238,1303.78129 C246.364238,1303.12464 246.896598,1302.59016 247.553176,1302.59016 L255.870666,1302.59016 C256.527243,1302.59016 257.059603,1303.12464 257.059603,1303.78129 L257.059603,1312.1345 C257.059603,1312.79115 256.527243,1313.32564 255.870666,1313.32564 L247.553176,1313.32564 Z M248.899286,1310.78302 L254.524555,1310.78302 L254.524555,1305.13531 L248.899286,1305.13531 L248.899286,1310.78302 Z M247.553176,1327.21861 C246.896598,1327.21861 246.364238,1326.68413 246.364238,1326.02748 L246.364238,1317.67427 C246.364238,1317.01761 246.896598,1316.48313 247.553176,1316.48313 L255.870666,1316.48313 C256.527243,1316.48313 257.059603,1317.01761 257.059603,1317.67427 L257.059603,1326.02748 C257.059603,1326.68413 256.527243,1327.21861 255.870666,1327.21861 L247.553176,1327.21861 Z M248.899286,1324.676 L254.524555,1324.676 L254.524555,1319.02829 L248.899286,1319.02829 L248.899286,1324.676 Z M255.870666,1340.48009 L247.553176,1340.48009 C246.896598,1340.48009 246.364238,1339.94573 246.364238,1339.28669 L246.364238,1330.938 C246.364238,1330.27896 246.896598,1329.74461 247.553176,1329.74461 L255.870666,1329.74461 C256.527243,1329.74461 257.059603,1330.27896 257.059603,1330.938 L257.059603,1339.28669 C257.059603,1339.94573 256.527243,1340.48009 255.870666,1340.48009 Z M248.899286,1337.93553 L254.524555,1337.93553 L254.524555,1332.28916 L248.899286,1332.28916 L248.899286,1337.93553 Z M262.007548,1339.21709 C261.404803,1339.21709 260.834437,1338.73674 260.834437,1338.02885 L260.834437,1305.04139 C260.834437,1304.3335 261.404803,1303.85315 262.007548,1303.85315 C262.254125,1303.85315 262.508175,1303.93405 262.732336,1304.11355 L283.046329,1320.60981 C283.629149,1321.08258 283.629149,1321.98766 283.046329,1322.46043 L262.732336,1338.95669 C262.508175,1339.13619 262.254125,1339.21709 262.007548,1339.21709 Z M263.325118,1307.83501 L263.325118,1335.23524 L280.19699,1321.53512 L263.325118,1307.83501 Z M242.589404,1320.27212 C243.283974,1320.27212 243.847682,1320.83795 243.847682,1321.53512 C243.847682,1322.2323 243.283974,1322.79812 242.589404,1322.79812 L235.039735,1322.79812 C234.345166,1322.79812 233.781457,1322.2323 233.781457,1321.53512 C233.781457,1320.83795 234.345166,1320.27212 235.039735,1320.27212 L242.589404,1320.27212 Z M242.589404,1370.79204 C243.283974,1370.79204 243.847682,1371.35786 243.847682,1372.05503 C243.847682,1372.75221 243.283974,1373.31803 242.589404,1373.31803 L235.039735,1373.31803 C234.345166,1373.31803 233.781457,1372.75221 233.781457,1372.05503 C233.781457,1371.35786 234.345166,1370.79204 235.039735,1370.79204 L242.589404,1370.79204 Z M241.700162,1340.84949 C242.190952,1340.35695 242.9888,1340.35695 243.47959,1340.84949 C243.97038,1341.34203 243.97038,1342.14272 243.47959,1342.63526 L235.928977,1350.21277 C235.682324,1350.46031 235.360164,1350.58407 235.040522,1350.58407 C234.718362,1350.58407 234.396203,1350.46031 234.149549,1350.21277 C233.658759,1349.72023 233.658759,1348.91954 234.149549,1348.42701 L241.700162,1340.84949 Z M230.006623,1350.58407 C230.701192,1350.58407 231.264901,1351.14737 231.264901,1351.84707 L231.264901,1389.737 C231.264901,1390.43418 230.701192,1391 230.006623,1391 L192.258278,1391 C191.563709,1391 191,1390.43418 191,1389.737 L191,1351.84707 C191,1351.14737 191.563709,1350.58407 192.258278,1350.58407 L230.006623,1350.58407 Z M193.516556,1388.474 L228.748344,1388.474 L228.748344,1353.11007 L193.516556,1353.11007 L193.516556,1388.474 Z M211.13245,1384.68501 C205.50543,1384.68501 199.807947,1382.94425 199.807947,1379.6173 C199.807947,1379.50581 199.845695,1379.40445 199.870861,1379.30056 C199.845695,1379.19668 199.807947,1379.09532 199.807947,1378.98383 L199.807947,1361.24683 C199.807947,1360.77553 200.069669,1360.38532 200.447152,1360.16487 C203.761457,1355.6318 220.028477,1355.8117 222.207815,1360.74259 C222.353775,1360.94783 222.456954,1361.18602 222.456954,1361.45714 L222.456954,1379.19414 C222.456954,1379.26762 222.426755,1379.33604 222.414172,1379.40445 C222.426755,1379.4754 222.456954,1379.54381 222.456954,1379.6173 C222.456954,1382.94425 216.75947,1384.68501 211.13245,1384.68501 Z M211.13245,1359.34643 C205.412318,1359.34643 202.324503,1361.14547 202.324503,1361.88029 C202.324503,1362.61511 205.412318,1364.41415 211.13245,1364.41415 C216.852583,1364.41415 219.940397,1362.61511 219.940397,1361.88029 C219.940397,1361.14547 216.852583,1359.34643 211.13245,1359.34643 Z M211.13245,1382.15115 C216.852583,1382.15115 219.940397,1380.35211 219.940397,1379.6173 C219.940397,1379.54381 219.970596,1379.4754 219.983179,1379.40445 C219.970596,1379.33604 219.940397,1379.26762 219.940397,1379.19414 L219.940397,1376.97702 C217.756026,1378.15526 214.446755,1378.77352 211.13245,1378.77352 C207.818146,1378.77352 204.508874,1378.15526 202.324503,1376.97702 L202.324503,1378.98383 C202.324503,1379.09532 202.286755,1379.19668 202.261589,1379.30056 C202.286755,1379.40445 202.324503,1379.50581 202.324503,1379.6173 C202.324503,1380.35211 205.412318,1382.15115 211.13245,1382.15115 Z M211.13245,1372.8595 C207.818146,1372.8595 204.508874,1372.24124 202.324503,1371.06299 L202.324503,1373.70581 C202.324503,1374.44062 205.412318,1376.23966 211.13245,1376.23966 C216.852583,1376.23966 219.940397,1374.44062 219.940397,1373.70581 L219.940397,1371.06299 C217.756026,1372.24124 214.446755,1372.8595 211.13245,1372.8595 Z M219.940397,1367.79178 L219.940397,1365.1515 C217.756026,1366.32975 214.446755,1366.94801 211.13245,1366.94801 C207.818146,1366.94801 204.508874,1366.32975 202.324503,1365.1515 L202.324503,1367.79178 C202.324503,1368.5266 205.412318,1370.32564 211.13245,1370.32564 C216.852583,1370.32564 219.940397,1368.5266 219.940397,1367.79178 Z M285.630686,1370.53236 C286.123105,1371.02413 286.123105,1371.82357 285.630686,1372.31534 L267.386058,1390.6318 C267.139848,1390.87643 266.818269,1391 266.496689,1391 C266.175109,1391 265.853529,1390.87643 265.60732,1390.6318 L247.362692,1372.31534 C246.870273,1371.82357 246.870273,1371.02413 247.362692,1370.53236 L265.60732,1352.2159 C266.099739,1351.72413 266.893639,1351.72413 267.386058,1352.2159 L285.630686,1370.53236 Z M266.496689,1387.95608 L282.967603,1371.42259 L266.496689,1354.89162 L250.025774,1371.42259 L266.496689,1387.95608 Z M261.543624,1367.63179 C261.543624,1364.84689 263.765656,1362.58255 266.496012,1362.58255 C269.226368,1362.58255 271.4484,1364.84689 271.4484,1367.63179 C271.4484,1368.88833 270.977822,1370.0269 270.230434,1370.90905 C272.437367,1371.19369 274.294512,1372.50921 274.958857,1374.45556 L275.235667,1375.27103 C275.396721,1375.75057 275.270898,1376.28139 274.908528,1376.62758 C272.912978,1378.53804 269.847933,1379.63302 266.496012,1379.63302 C263.144091,1379.63302 260.079046,1378.53804 258.083496,1376.62758 C257.723642,1376.28139 257.595303,1375.75057 257.758873,1375.27103 L258.035683,1374.45556 C258.700028,1372.50921 260.557173,1371.19369 262.764106,1370.90905 C262.014202,1370.0269 261.543624,1368.88833 261.543624,1367.63179 Z M272.570739,1375.2736 C272.173139,1374.14528 270.872131,1373.35545 269.40252,1373.35545 L263.589504,1373.35545 C262.119893,1373.35545 260.818885,1374.14271 260.421284,1375.2736 C263.473747,1377.53793 269.518277,1377.53793 272.570739,1375.2736 Z M268.931942,1367.63179 C268.931942,1366.26242 267.837284,1365.14692 266.496012,1365.14692 C265.15474,1365.14692 264.060081,1366.26242 264.060081,1367.63179 C264.060081,1368.99859 265.15474,1370.11409 266.496012,1370.11409 C267.837284,1370.11409 268.931942,1368.99859 268.931942,1367.63179 Z" id="icon-section-workflow"></path>
        </g>
    </g>
</svg>