<?xml version="1.0" encoding="UTF-8"?>
<svg width="80px" height="79px" viewBox="0 0 80 79" version="1.1" xmlns="http://www.w3.org/2000/svg" xmlns:xlink="http://www.w3.org/1999/xlink">
    <!-- Generator: Sketch 53.2 (72643) - https://sketchapp.com -->
    <title>icon-section-slm</title>
    <desc>Created with Sketch.</desc>
    <g id="Features" stroke="none" stroke-width="1" fill="none" fill-rule="evenodd">
        <g id="Desktop-HD---Features---ITSM" transform="translate(-1162.000000, -511.000000)" fill="#505050">
            <path d="M1206.85962,579.009581 L1196.11473,579.009581 C1195.37334,579.009581 1194.77162,578.409294 1194.77162,577.669654 L1194.77162,574.488665 C1192.93694,573.968773 1191.17209,573.237172 1189.50126,572.304582 L1187.23946,574.558341 C1186.71565,575.080913 1185.8668,575.080913 1185.3403,574.558341 L1177.74367,566.979709 C1177.21986,566.454457 1177.21986,565.607622 1177.74367,565.085051 L1180.00278,562.828612 C1179.06798,561.161742 1178.33464,559.401076 1177.8162,557.570735 L1174.62497,557.570735 C1173.88357,557.570735 1173.28186,556.970447 1173.28186,556.230807 L1173.28186,545.511384 C1173.28186,544.771743 1173.88357,544.171456 1174.62497,544.171456 L1177.8162,544.171456 C1178.33464,542.341114 1179.06798,540.580449 1180.00278,538.913579 L1177.74367,536.65714 C1177.21986,536.134568 1177.21986,535.287734 1177.74367,534.762482 L1185.3403,527.18385 C1185.8668,526.661278 1186.71565,526.661278 1187.23946,527.18385 L1189.50126,529.437608 C1191.17209,528.505019 1192.93694,527.773418 1194.77162,527.256206 L1194.77162,524.072537 C1194.77162,523.332897 1195.37334,522.732609 1196.11473,522.732609 L1206.85962,522.732609 C1207.60101,522.732609 1208.20273,523.332897 1208.20273,524.072537 L1208.20273,527.256206 C1210.03742,527.773418 1211.80226,528.505019 1213.47309,529.437608 L1215.73489,527.18385 C1216.2587,526.661278 1217.10755,526.661278 1217.63405,527.18385 L1225.23068,534.762482 C1225.75449,535.287734 1225.75449,536.134568 1225.23068,536.65714 L1222.97157,538.913579 C1223.90637,540.580449 1224.63971,542.341114 1225.16084,544.171456 L1228.34938,544.171456 C1229.09078,544.171456 1229.69249,544.771743 1229.69249,545.511384 L1229.69249,556.230807 C1229.69249,556.970447 1229.09078,557.570735 1228.34938,557.570735 L1225.16084,557.570735 C1224.63971,559.401076 1223.90637,561.161742 1222.97157,562.828612 L1225.23068,565.085051 C1225.75449,565.607622 1225.75449,566.454457 1225.23068,566.979709 L1217.63405,574.558341 C1217.10755,575.080913 1216.2587,575.080913 1215.73489,574.558341 L1213.47309,572.304582 C1211.80226,573.237172 1210.03742,573.968773 1208.20273,574.488665 L1208.20273,577.669654 C1208.20273,578.409294 1207.60101,579.009581 1206.85962,579.009581 Z M1197.45784,576.329726 L1205.51651,576.329726 L1205.51651,573.45156 C1205.51651,572.829834 1205.94362,572.288503 1206.5507,572.146471 C1208.81787,571.6105 1210.98297,570.715428 1212.98151,569.482694 C1213.5107,569.161111 1214.193,569.236147 1214.63891,569.678323 L1216.68313,571.715014 L1222.3806,566.03104 L1220.33907,563.991669 C1219.89853,563.549493 1219.81795,562.86881 1220.14298,562.338198 C1221.37864,560.344386 1222.27584,558.184422 1222.81308,555.922624 C1222.95545,555.316976 1223.49807,554.890879 1224.12127,554.890879 L1227.00627,554.890879 L1227.00627,546.851312 L1224.12127,546.851312 C1223.49807,546.851312 1222.95545,546.425214 1222.81308,545.819567 C1222.27584,543.557769 1221.37864,541.397805 1220.14298,539.403992 C1219.81795,538.873381 1219.89853,538.192697 1220.33907,537.750521 L1222.3806,535.711151 L1216.68313,530.027177 L1214.63891,532.063867 C1214.193,532.508723 1213.5107,532.583759 1212.98151,532.259497 C1210.98297,531.026763 1208.81787,530.131691 1206.5507,529.59572 C1205.94362,529.453688 1205.51651,528.912357 1205.51651,528.29063 L1205.51651,525.412465 L1197.45784,525.412465 L1197.45784,528.29063 C1197.45784,528.912357 1197.03074,529.453688 1196.42365,529.59572 C1194.15648,530.131691 1191.99139,531.026763 1189.99284,532.259497 C1189.46365,532.583759 1188.78135,532.508723 1188.33544,532.063867 L1186.29123,530.027177 L1180.59375,535.711151 L1182.63528,537.750521 C1183.07582,538.192697 1183.15641,538.873381 1182.83137,539.403992 C1181.59571,541.397805 1180.69851,543.557769 1180.16127,545.819567 C1180.0189,546.425214 1179.47628,546.851312 1178.85308,546.851312 L1175.96808,546.851312 L1175.96808,554.890879 L1178.85308,554.890879 C1179.47628,554.890879 1180.0189,555.316976 1180.16127,555.922624 C1180.69851,558.184422 1181.59571,560.344386 1182.83137,562.338198 C1183.15641,562.86881 1183.07582,563.549493 1182.63528,563.991669 L1180.59375,566.03104 L1186.29123,571.715014 L1188.33544,569.678323 C1188.78135,569.236147 1189.46365,569.161111 1189.99284,569.482694 C1191.99139,570.715428 1194.15648,571.6105 1196.42365,572.146471 C1197.03074,572.288503 1197.45784,572.829834 1197.45784,573.45156 L1197.45784,576.329726 Z M1202,562.638099 C1195.21451,562.638099 1189.69223,557.128903 1189.69223,550.359486 C1189.69223,543.590069 1195.21451,538.080874 1202,538.080874 C1208.78549,538.080874 1214.30777,543.590069 1214.30777,550.359486 C1214.30777,557.128903 1208.78549,562.638099 1202,562.638099 Z M1202,540.711818 C1196.6676,540.711818 1192.32942,545.039719 1192.32942,550.359486 C1192.32942,555.679254 1196.6676,560.007155 1202,560.007155 C1207.3324,560.007155 1211.67058,555.679254 1211.67058,550.359486 C1211.67058,545.039719 1207.3324,540.711818 1202,540.711818 Z M1194.40148,589.241758 C1194.31296,589.241758 1194.22175,589.233777 1194.13055,589.215155 C1191.5527,588.693723 1189.00973,587.911575 1186.57405,586.889995 C1184.18129,585.884376 1181.88242,584.647306 1179.73645,583.208048 C1177.61462,581.790073 1175.6135,580.151288 1173.78406,578.336918 C1171.95731,576.525209 1170.30491,574.540576 1168.87247,572.433566 C1167.42126,570.307934 1166.1766,568.02534 1165.16531,565.657614 C1164.13256,563.239341 1163.34391,560.714654 1162.81815,558.158042 C1162.27361,555.532261 1162,552.826669 1162,550.121077 C1162,547.412824 1162.27361,544.709892 1162.81815,542.07879 C1163.34391,539.527499 1164.13256,537.002812 1165.16262,534.5872 C1166.1766,532.214153 1167.42126,529.93422 1168.87247,527.805927 C1170.30491,525.701578 1171.95731,523.716945 1173.78406,521.902575 C1175.6135,520.090866 1177.61462,518.45208 1179.73913,517.031445 C1181.88242,515.592187 1184.18129,514.357777 1186.57137,513.354819 C1189.00973,512.330578 1191.5527,511.548431 1194.13055,511.026999 C1194.83872,510.880679 1195.56567,511.343582 1195.7132,512.064542 C1195.86074,512.785501 1195.39131,513.485177 1194.66704,513.634158 C1192.26356,514.121005 1189.88958,514.849945 1187.61753,515.805016 C1185.3884,516.738805 1183.24243,517.896064 1181.24131,519.236888 C1179.25629,520.564411 1177.38661,522.094121 1175.68057,523.786114 C1173.9772,525.475446 1172.43478,527.332382 1171.09623,529.295732 C1169.74427,531.283025 1168.5774,533.411318 1167.63317,535.624743 C1166.67285,537.875412 1165.93786,540.229836 1165.44697,542.613524 C1164.93998,545.069042 1164.68246,547.593729 1164.68246,550.121077 C1164.68246,552.648424 1164.93998,555.173112 1165.44697,557.625969 C1165.93786,560.012317 1166.67285,562.364081 1167.63317,564.620071 C1168.5774,566.830835 1169.74427,568.959128 1171.09623,570.943761 C1172.43478,572.909772 1173.9772,574.766707 1175.68057,576.456039 C1177.38661,578.148032 1179.25629,579.677743 1181.23863,581.005265 C1183.24243,582.34609 1185.3884,583.503349 1187.62021,584.439798 C1189.88958,585.392209 1192.26356,586.121149 1194.66704,586.607996 C1195.39131,586.754316 1195.86074,587.456653 1195.7132,588.177612 C1195.58176,588.808119 1195.02381,589.241758 1194.40148,589.241758 Z M1209.59852,589.241758 C1208.97619,589.241758 1208.41824,588.808119 1208.2868,588.177612 C1208.13926,587.456653 1208.60869,586.754316 1209.33296,586.607996 C1211.73644,586.121149 1214.11042,585.392209 1216.38247,584.437137 C1218.6116,583.503349 1220.75757,582.34609 1222.75869,581.005265 C1224.74371,579.677743 1226.61339,578.148032 1228.31943,576.456039 C1230.0228,574.766707 1231.56522,572.909772 1232.90377,570.946422 C1234.25573,568.959128 1235.4226,566.830835 1236.36683,564.617411 C1237.32715,562.364081 1238.06214,560.012317 1238.55303,557.628629 C1239.06002,555.173112 1239.31754,552.648424 1239.31754,550.121077 C1239.31754,547.593729 1239.06002,545.069042 1238.55303,542.616184 C1238.06214,540.229836 1237.32715,537.875412 1236.36683,535.622082 C1235.4226,533.411318 1234.25573,531.283025 1232.90377,529.298392 C1231.56522,527.332382 1230.0228,525.475446 1228.31943,523.786114 C1226.61339,522.094121 1224.74371,520.564411 1222.76137,519.236888 C1220.75757,517.896064 1218.6116,516.738805 1216.37979,515.802356 C1214.11042,514.849945 1211.73644,514.121005 1209.33296,513.634158 C1208.60869,513.485177 1208.13926,512.785501 1208.2868,512.064542 C1208.43433,511.343582 1209.16128,510.880679 1209.86945,511.026999 C1212.4473,511.548431 1214.99027,512.330578 1217.42595,513.352159 C1219.81871,514.357777 1222.11758,515.592187 1224.26355,517.031445 C1226.38538,518.45208 1228.3865,520.090866 1230.21594,521.902575 C1232.04269,523.716945 1233.69509,525.701578 1235.12753,527.808587 C1236.57874,529.93422 1237.8234,532.214153 1238.83469,534.58454 C1239.86744,537.002812 1240.65609,539.527499 1241.18185,542.081451 C1241.72639,544.709892 1242,547.412824 1242,550.121077 C1242,552.826669 1241.72639,555.532261 1241.18185,558.160703 C1240.65609,560.714654 1239.86744,563.239341 1238.83738,565.654954 C1237.8234,568.02534 1236.57874,570.307934 1235.12753,572.436226 C1233.69509,574.540576 1232.04269,576.525209 1230.21594,578.336918 C1228.3865,580.151288 1226.38538,581.790073 1224.26087,583.208048 C1222.11758,584.647306 1219.81871,585.884376 1217.42863,586.887334 C1214.99027,587.911575 1212.4473,588.693723 1209.86945,589.215155 C1209.77825,589.233777 1209.68704,589.241758 1209.59852,589.241758 Z" id="icon-section-slm"></path>
        </g>
    </g>
</svg>