<?xml version="1.0" encoding="UTF-8"?>
<svg width="414px" height="65px" viewBox="0 0 414 65" version="1.1" xmlns="http://www.w3.org/2000/svg" xmlns:xlink="http://www.w3.org/1999/xlink">
    <!-- Generator: Sketch 54.1 (76490) - https://sketchapp.com -->
    <title>itil-processes</title>
    <desc>Created with Sketch.</desc>
    <g id="Graphics" stroke="none" stroke-width="1" fill="none" fill-rule="evenodd">
        <g id="Artboard" transform="translate(-82.000000, -610.000000)" fill="#505050">
            <g id="itil-processes" transform="translate(82.000000, 610.000000)">
                <path d="M153.455966,16.8911693 C153.975923,16.8911693 154.397917,17.3793787 154.397917,17.9809225 L154.397917,36.5372393 C154.397917,37.138783 153.975923,37.6269925 153.455966,37.6269925 C152.936009,37.6269925 152.514015,37.138783 152.514015,36.5372393 L152.514015,17.9809225 C152.514015,17.3793787 152.936009,16.8911693 153.455966,16.8911693 Z M153.455966,41.3971421 C153.975923,41.3971421 154.397917,41.8663163 154.397917,42.4444059 L154.397917,43.4916697 C154.397917,44.0697593 153.975923,44.5389335 153.455966,44.5389335 C152.936009,44.5389335 152.514015,44.0697593 152.514015,43.4916697 L152.514015,42.4444059 C152.514015,41.8663163 152.936009,41.3971421 153.455966,41.3971421 Z M177.318713,43.282217 C180.954014,43.282217 183.912367,46.2424128 183.912367,49.8799789 C183.912367,53.5175449 180.954014,56.4777408 177.318713,56.4777408 C173.683412,56.4777408 170.725059,53.5175449 170.725059,49.8799789 C170.725059,46.2424128 173.683412,43.282217 177.318713,43.282217 Z M177.318713,54.2784868 C179.74298,54.2784868 181.714482,52.305756 181.714482,49.8799789 C181.714482,47.4542017 179.74298,45.4814709 177.318713,45.4814709 C174.894446,45.4814709 172.922944,47.4542017 172.922944,49.8799789 C172.922944,52.305756 174.894446,54.2784868 177.318713,54.2784868 Z M189.528437,51.3842853 L189.528437,48.3346532 L188.561289,48.3346532 C188.055933,48.3346532 187.618102,47.9861238 187.500476,47.4960043 C187.249976,46.4373463 186.829572,45.4266111 186.254511,44.4942949 C185.990942,44.0651681 186.054111,43.5096994 186.411346,43.1524568 L187.097498,42.4641112 L184.943198,40.3097639 L184.254868,40.9937529 C183.895455,41.3553521 183.342177,41.4163447 182.913059,41.1527694 C181.980764,40.5776959 180.970051,40.1572823 179.911416,39.9045985 C179.419129,39.7891482 179.072786,39.3513081 179.072786,38.8459405 L179.072786,37.8787714 L176.023221,37.8787714 L176.023221,38.8459405 C176.023221,39.3513081 175.676878,39.7891482 175.184591,39.9045985 C174.125956,40.1572823 173.115243,40.5776959 172.182947,41.1527694 C171.758187,41.4163447 171.20273,41.3553521 170.841139,40.9937529 L170.152809,40.3097639 L167.998509,42.4641112 L168.684661,43.1524568 C169.041896,43.5096994 169.105065,44.0651681 168.841496,44.4942949 C168.266435,45.4266111 167.846031,46.4373463 167.595531,47.4960043 C167.477905,47.9861238 167.040074,48.3346532 166.534718,48.3346532 L165.56757,48.3346532 L165.56757,51.3842853 L166.534718,51.3842853 C167.040074,51.3842853 167.477905,51.7306364 167.595531,52.2229342 C167.846031,53.2815922 168.266435,54.2923274 168.841496,55.2246436 C169.105065,55.6537704 169.041896,56.2092391 168.684661,56.5664817 L167.998509,57.2526489 L170.152809,59.4091746 L170.841139,58.7230073 C171.20273,58.3657647 171.758187,58.304772 172.182947,58.5661691 C173.115243,59.1412426 174.125956,59.5616562 175.184591,59.8121617 C175.676878,59.9297903 176.023221,60.3676304 176.023221,60.8708197 L176.023221,61.8401671 L179.072786,61.8401671 L179.072786,60.8708197 C179.072786,60.3676304 179.419129,59.9297903 179.911416,59.8121617 C180.970051,59.5616562 181.980764,59.1412426 182.913059,58.5661691 C183.342177,58.304772 183.895455,58.3657647 184.254868,58.7230073 L184.943198,59.4091746 L187.097498,57.2526489 L186.411346,56.5664817 C186.054111,56.2092391 185.990942,55.6537704 186.254511,55.2246436 C186.829572,54.2923274 187.249976,53.2815922 187.500476,52.2229342 C187.618102,51.7306364 188.055933,51.3842853 188.561289,51.3842853 L189.528437,51.3842853 Z M125.622627,51.4060684 C126.212935,52.4276952 127.269392,53.0397999 128.450009,53.0397999 L163.570105,53.0397999 C163.465548,52.8720702 163.389309,52.6869139 163.389309,52.4734397 L163.389309,47.2454988 C163.389309,46.6421073 163.87724,46.1563445 164.47844,46.1563445 L165.7048,46.1563445 C165.926983,45.4483941 166.212335,44.7622269 166.5565,44.1043777 L165.689553,43.2352325 C165.262614,42.808284 165.262614,42.1199385 165.689553,41.6951683 L169.383883,37.9985784 C169.808643,37.5738082 170.499152,37.5738082 170.923913,37.9985784 L171.793039,38.8677236 C172.450874,38.5235508 173.139204,38.2381924 173.84496,38.0160049 L173.84496,36.7896171 C173.84496,36.3626686 174.093282,36.005426 174.448339,35.8246263 L156.414519,4.61599768 C155.822032,3.59872752 154.765576,2.98662278 153.587137,2.98662278 C152.408698,2.98662278 151.352241,3.59872752 150.759754,4.61817599 L125.624805,48.1386054 C125.034496,49.1602322 125.034496,50.380085 125.622627,51.4060684 Z M190.617567,46.1563445 C191.218767,46.1563445 191.706697,46.6421073 191.706697,47.2454988 L191.706697,52.4734397 C191.706697,53.0746529 191.218767,53.562594 190.617567,53.562594 L189.391206,53.562594 C189.169024,54.268366 188.883672,54.9567116 188.539507,55.6123825 L189.406454,56.483706 C189.833393,56.9084762 189.833393,57.599 189.406454,58.0237702 L185.712124,61.7181818 C185.287363,62.142952 184.596855,62.142952 184.172094,61.7181818 L183.302968,60.8512149 C182.645133,61.1953877 181.956803,61.4807461 181.251046,61.7007553 L181.251046,62.9293214 C181.251046,63.5305346 180.765294,64.0184758 180.161916,64.0184758 L174.934091,64.0184758 C174.330712,64.0184758 173.84496,63.5305346 173.84496,62.9293214 L173.84496,61.7007553 C173.139204,61.4807461 172.450874,61.1953877 171.793039,60.8512149 L170.923913,61.7181818 C170.499152,62.142952 169.808643,62.142952 169.383883,61.7181818 L165.689553,58.0237702 C165.262614,57.599 165.262614,56.9084762 165.689553,56.483706 L166.5565,55.6123825 C166.491152,55.4860406 166.454122,55.3466288 166.393131,55.2181086 L128.450009,55.2181086 C126.48304,55.2181086 124.718649,54.1986602 123.736253,52.4930445 C122.753857,50.7874287 122.753857,48.7507101 123.74061,47.0472727 L148.875559,3.52684334 C149.860133,1.82558425 151.622345,0.808314088 153.587137,0.808314088 C155.551928,0.808314088 157.31414,1.82558425 158.298714,3.52466503 L176.890169,35.7004627 L180.161916,35.7004627 C180.765294,35.7004627 181.251046,36.1862256 181.251046,36.7896171 L181.251046,38.0160049 C181.956803,38.2381924 182.645133,38.5235508 183.302968,38.8677236 L184.172094,37.9985784 C184.596855,37.5738082 185.287363,37.5738082 185.712124,37.9985784 L189.406454,41.6951683 C189.833393,42.1199385 189.833393,42.808284 189.406454,43.2352325 L188.539507,44.1043777 C188.883672,44.7622269 189.169024,45.4483941 189.391206,46.1563445 L190.617567,46.1563445 Z" id="icon-section-incident-copy"></path>
                <path d="M266.388083,40.1365294 C270.055126,40.1365294 273.039311,43.1378833 273.039311,46.8260253 C273.039311,50.5141674 270.055126,53.5155212 266.388083,53.5155212 C262.721039,53.5155212 259.736855,50.5141674 259.736855,46.8260253 C259.736855,43.1378833 262.721039,40.1365294 266.388083,40.1365294 Z M266.388083,51.2856893 C268.833518,51.2856893 270.822235,49.28553 270.822235,46.8260253 C270.822235,44.3665207 268.833518,42.3663614 266.388083,42.3663614 C263.942648,42.3663614 261.953931,44.3665207 261.953931,46.8260253 C261.953931,49.28553 263.942648,51.2856893 266.388083,51.2856893 Z M278.582,48.3873537 L278.582,45.2655889 L277.597619,45.2655889 C277.083257,45.2655889 276.637625,44.9088158 276.517903,44.4071036 C276.262939,43.3234053 275.835043,42.2887632 275.249735,41.3343952 C274.981469,40.8951183 275.045764,40.3265111 275.409365,39.9608187 L276.107744,39.2561918 L273.915056,37.050888 L273.21446,37.7510552 C272.850859,38.1212073 272.285505,38.1836426 271.848741,37.9138329 C270.899832,37.3251573 269.871109,36.8947997 268.79361,36.6361392 C268.292551,36.5179581 267.940036,36.0697619 267.940036,35.5524409 L267.940036,34.5623955 L264.83613,34.5623955 L264.83613,35.5524409 C264.83613,36.0697619 264.483615,36.5179581 263.982556,36.6361392 C262.905057,36.8947997 261.876333,37.3251573 260.927425,37.9138329 C260.495095,38.1836426 259.927524,38.1212073 259.561706,37.7510552 L258.86111,37.050888 L256.668422,39.2561918 L257.366801,39.9608187 C257.730401,40.3265111 257.794697,40.8951183 257.526431,41.3343952 C256.941122,42.2887632 256.513227,43.3234053 256.258263,44.4071036 C256.138541,44.9088158 255.692909,45.2655889 255.178547,45.2655889 L254.194165,45.2655889 L254.194165,48.3873537 L255.178547,48.3873537 C255.692909,48.3873537 256.138541,48.7418969 256.258263,49.245839 C256.513227,50.3295373 256.941122,51.3641793 257.526431,52.3185474 C257.794697,52.7578243 257.730401,53.3264315 257.366801,53.6921239 L256.668422,54.394521 L258.86111,56.6020546 L259.561706,55.8996576 C259.927524,55.5339651 260.495095,55.4715298 260.927425,55.7391097 C261.876333,56.3277853 262.905057,56.7581429 263.982556,57.0145735 C264.483615,57.1349845 264.83613,57.5831807 264.83613,58.0982719 L264.83613,59.0905471 L267.940036,59.0905471 L267.940036,58.0982719 C267.940036,57.5831807 268.292551,57.1349845 268.79361,57.0145735 C269.871109,56.7581429 270.899832,56.3277853 271.848741,55.7391097 C272.285505,55.4715298 272.850859,55.5339651 273.21446,55.8996576 L273.915056,56.6020546 L276.107744,54.394521 L275.409365,53.6921239 C275.045764,53.3264315 274.981469,52.7578243 275.249735,52.3185474 C275.835043,51.3641793 276.262939,50.3295373 276.517903,49.245839 C276.637625,48.7418969 277.083257,48.3873537 277.597619,48.3873537 L278.582,48.3873537 Z M251.56693,34.0963606 L245.671726,57.8262324 L251.97709,48.5991877 L251.97709,44.1506729 C251.97709,43.5330095 252.473715,43.0357569 253.085627,43.0357569 L254.333841,43.0357569 C254.559983,42.3110616 254.85042,41.6086645 255.200718,40.9352552 L254.318322,40.0455523 C253.883775,39.6085052 253.883775,38.9038783 254.318322,38.4690611 L258.078482,34.6850362 C258.510812,34.250219 259.213625,34.250219 259.645955,34.6850362 L260.530568,35.5747392 C260.685764,35.4944652 260.854261,35.4476388 261.009457,35.3740543 L265.385965,28.9878156 L260.535003,28.9878156 C260.162534,28.9878156 259.814453,28.8005097 259.610482,28.4861034 C259.406511,28.1739269 259.371038,27.7792466 259.515148,27.4336227 L270.250229,2.22983197 L252.886091,2.22983197 L246.720403,33.2378753 L250.336453,32.7227841 C250.697837,32.6804173 251.070305,32.8052879 251.314184,33.0795572 C251.560279,33.3560564 251.655614,33.7373576 251.56693,34.0963606 Z M279.690538,43.0357569 C280.302451,43.0357569 280.799076,43.5330095 280.799076,44.1506729 L280.799076,49.5022697 C280.799076,50.1177033 280.302451,50.6171856 279.690538,50.6171856 L278.442325,50.6171856 C278.216183,51.3396512 277.925746,52.0442781 277.575448,52.7154575 L278.457844,53.6073903 C278.892391,54.0422075 278.892391,54.7490643 278.457844,55.1838815 L274.697683,58.9656765 C274.265354,59.4004937 273.56254,59.4004937 273.130211,58.9656765 L272.245597,58.0782034 C271.57604,58.4305168 270.875444,58.7226248 270.157112,58.9478379 L270.157112,60.2054631 C270.157112,60.8208967 269.662704,61.3203791 269.048574,61.3203791 L263.727592,61.3203791 C263.113462,61.3203791 262.619054,60.8208967 262.619054,60.2054631 L262.619054,58.9478379 C261.900721,58.7226248 261.200125,58.4305168 260.530568,58.0782034 L259.645955,58.9656765 C259.213625,59.4004937 258.510812,59.4004937 258.078482,58.9656765 L254.318322,55.1838815 C253.883775,54.7490643 253.883775,54.0422075 254.318322,53.6073903 L255.200718,52.7154575 C254.85042,52.0442781 254.559983,51.3396512 254.333841,50.6171856 L253.289598,50.6171856 L244.022221,64.1812535 C243.809382,64.49343 243.463518,64.665127 243.108786,64.665127 C242.955808,64.665127 242.800612,64.6316795 242.654285,64.5670144 C242.164312,64.3440312 241.902697,63.802182 242.033504,63.2804014 L249.017293,35.1622203 L245.481057,35.6661623 C245.119674,35.7107589 244.764942,35.590348 244.521063,35.3294577 C244.272751,35.0641077 244.168548,34.6961854 244.239495,34.3438719 L250.890722,0.89639245 C250.994925,0.37461177 251.449425,-4.97379915e-14 251.97709,-4.97379915e-14 L271.930773,-4.97379915e-14 C272.303241,-4.97379915e-14 272.651322,0.187305885 272.855293,0.49948236 C273.061481,0.813888668 273.094737,1.20856893 272.950628,1.55419288 L262.215546,26.7579836 L267.496621,26.7579836 C267.908997,26.7579836 268.2859,26.9854265 268.476568,27.3533487 C268.669454,27.7190412 268.645066,28.1650076 268.410056,28.503942 L265.787255,32.3325635 L269.048574,32.3325635 C269.662704,32.3325635 270.157112,32.829816 270.157112,33.4474795 L270.157112,34.7028749 C270.875444,34.9303178 271.57604,35.2224257 272.245597,35.5747392 L273.130211,34.6850362 C273.56254,34.250219 274.265354,34.250219 274.697683,34.6850362 L278.457844,38.4690611 C278.892391,38.9038783 278.892391,39.6085052 278.457844,40.0455523 L277.575448,40.9352552 C277.925746,41.6086645 278.216183,42.3110616 278.442325,43.0357569 L279.690538,43.0357569 Z" id="icon-section-problem-copy"></path>
                <path d="M371.909331,19.9760102 C378.502051,19.9760102 383.867444,25.3489124 383.867444,31.9508596 C383.867444,38.5528069 378.502051,43.9257091 371.909331,43.9257091 C365.316612,43.9257091 359.951219,38.5528069 359.951219,31.9508596 C359.951219,25.3489124 365.316612,19.9760102 371.909331,19.9760102 Z M371.909331,41.4046882 C377.114928,41.4046882 381.349946,37.1637425 381.349946,31.9508596 C381.349946,26.7379768 377.114928,22.4970311 371.909331,22.4970311 C366.703735,22.4970311 362.468716,26.7379768 362.468716,31.9508596 C362.468716,37.1637425 366.703735,41.4046882 371.909331,41.4046882 Z M386.76768,52.0262296 L392.220468,46.5518326 L390.264046,44.5850761 C389.842425,44.1617847 389.76787,43.5036182 390.078944,42.9951523 C391.261538,41.0748546 392.120205,38.9945321 392.634376,36.8135489 C392.770632,36.2328137 393.289945,35.8224275 393.886384,35.8224275 L396.647484,35.8224275 L396.647484,28.0792918 L393.886384,28.0792918 C393.289945,28.0792918 392.770632,27.6663245 392.634376,27.0855893 C392.120205,24.9046061 391.261538,22.8268647 390.078944,20.903986 C389.76787,20.3955201 389.842425,19.7373535 390.264046,19.3140621 L392.220468,17.3473056 L386.76768,11.8729086 L384.808686,13.8370841 C384.384495,14.2655376 383.728926,14.3352258 383.225038,14.0229193 C381.31232,12.8356385 379.240209,11.9735694 377.070406,11.4573604 C376.489392,11.320565 376.080626,10.7991938 376.080626,10.2029724 L376.080626,7.43092978 L368.368054,7.43092978 L368.368054,10.2029724 C368.368054,10.7991938 367.959288,11.320565 367.378274,11.4573604 C365.205899,11.9735694 363.136359,12.8356385 361.221071,14.0229193 C360.717182,14.3352258 360.061614,14.2655376 359.637422,13.8370841 L357.681,11.8729086 L352.225641,17.3473056 L354.182063,19.3140621 C354.603684,19.7373535 354.680809,20.3955201 354.367165,20.903986 C353.184571,22.8268647 352.328475,24.9046061 351.811733,27.0855893 C351.678048,27.6663245 351.156164,28.0792918 350.562296,28.0792918 L347.801195,28.0792918 L347.801195,35.8224275 L350.562296,35.8224275 C351.156164,35.8224275 351.678048,36.2328137 351.811733,36.8135489 C352.328475,38.9945321 353.184571,41.0748546 354.367165,42.9951523 C354.680809,43.5036182 354.603684,44.1617847 354.182063,44.5850761 L352.225641,46.5518326 L357.681,52.0262296 L359.637422,50.0620541 C360.061614,49.6361817 360.717182,49.5664935 361.221071,49.8762189 C363.136359,51.0634997 365.205899,51.9255688 367.378274,52.4417779 C367.959288,52.5785733 368.368054,53.0999444 368.368054,53.6961659 L368.368054,56.4707895 L376.080626,56.4707895 L376.080626,53.6961659 C376.080626,53.0999444 376.489392,52.5785733 377.070406,52.4417779 C379.240209,51.9255688 381.31232,51.0634997 383.225038,49.8762189 C383.728926,49.5664935 384.384495,49.6361817 384.808686,50.0620541 L386.76768,52.0262296 Z M412.072628,44.8560859 C412.782185,44.8560859 413.358057,45.431659 413.358057,46.1466085 C413.358057,46.858977 412.782185,47.4371311 412.072628,47.4371311 L394.963573,47.4371311 C394.958431,47.4448743 394.95586,47.4551984 394.948148,47.4629416 L387.677763,54.7647186 C387.173875,55.2680224 386.361484,55.2680224 385.857596,54.7647186 L383.695505,52.5940595 C382.096432,53.4896822 380.404808,54.1968886 378.651483,54.6950304 L378.651483,57.7613121 C378.651483,58.4736806 378.075611,59.0518347 377.366054,59.0518347 L367.082625,59.0518347 C366.370498,59.0518347 365.797197,58.4736806 365.797197,57.7613121 L365.797197,54.6950304 C364.041301,54.1968886 362.352248,53.4896822 360.753174,52.5940595 L358.588513,54.7647186 C358.087195,55.2680224 357.272234,55.2680224 356.770916,54.7647186 L349.500532,47.4629416 C349.492819,47.4551984 349.490249,47.4448743 349.482536,47.4371311 L335.389096,47.4371311 L342.281565,54.3569134 C342.785453,54.8627983 342.785453,55.6784086 342.281565,56.1817124 C342.032191,56.4346549 341.703122,56.5611261 341.374052,56.5611261 C341.044982,56.5611261 340.715913,56.4346549 340.463969,56.1817124 L331.375988,47.0577175 C330.874671,46.5544137 330.874671,45.7362223 331.375988,45.2329185 L340.463969,36.1089235 C340.967857,35.6056197 341.780247,35.6056197 342.281565,36.1089235 C342.785453,36.6122274 342.785453,37.4304187 342.281565,37.9337225 L335.389096,44.8560859 L350.282073,44.8560859 L351.662623,43.4674835 C350.767965,41.8620734 350.066121,40.1637456 349.567374,38.4034728 L346.515767,38.4034728 C345.803639,38.4034728 345.230338,37.8253186 345.230338,37.1129501 L345.230338,26.7887691 C345.230338,26.0738196 345.803639,25.4982465 346.515767,25.4982465 L349.567374,25.4982465 C350.066121,23.7353926 350.767965,22.0396459 351.662623,20.4342357 L350.282073,19.0456334 L332.376051,19.0456334 C331.663924,19.0456334 331.090623,18.4674793 331.090623,17.7551108 C331.090623,17.0401612 331.663924,16.4645881 332.376051,16.4645881 L349.482536,16.4645881 C349.490249,16.456845 349.492819,16.4439398 349.500532,16.4361966 L356.770916,9.13700068 C357.272234,8.63369686 358.087195,8.63369686 358.588513,9.13700068 L360.753174,11.3076597 C362.352248,10.409456 364.041301,9.70483064 365.797197,9.20410786 L365.797197,6.14040715 C365.797197,5.42545762 366.370498,4.84988453 367.082625,4.84988453 L377.366054,4.84988453 C378.075611,4.84988453 378.651483,5.42545762 378.651483,6.14040715 L378.651483,9.20410786 C380.404808,9.70483064 382.096432,10.409456 383.695505,11.3076597 L385.857596,9.13700068 C386.361484,8.63369686 387.173875,8.63369686 387.677763,9.13700068 L394.948148,16.4361966 C394.95586,16.4439398 394.958431,16.456845 394.963573,16.4645881 L409.059584,16.4645881 L402.164544,9.54222479 C401.663227,9.03892096 401.663227,8.22072962 402.164544,7.7174258 C402.668432,7.21412197 403.480823,7.21412197 403.98214,7.7174258 L413.070121,16.8414208 C413.574009,17.3447246 413.574009,18.1629159 413.070121,18.6662197 L403.98214,27.7902147 C403.732767,28.0431571 403.403697,28.1696283 403.074628,28.1696283 C402.745558,28.1696283 402.416488,28.0431571 402.164544,27.7902147 C401.663227,27.2869109 401.663227,26.4713006 402.164544,25.9654157 L409.059584,19.0456334 L394.166607,19.0456334 L392.786057,20.4342357 C393.678144,22.0396459 394.382559,23.7353926 394.878735,25.4982465 L397.932913,25.4982465 C398.64247,25.4982465 399.218342,26.0738196 399.218342,26.7887691 L399.218342,37.1129501 C399.218342,37.8253186 398.64247,38.4034728 397.932913,38.4034728 L394.878735,38.4034728 C394.382559,40.1637456 393.678144,41.8620734 392.786057,43.4674835 L394.166607,44.8560859 L412.072628,44.8560859 Z" id="icon-section-change-copy"></path>
                <path d="M50.3936641,50.1310862 C54.6985221,50.1310862 58.2007433,46.6288649 58.2007433,42.3240069 C58.2007433,38.0191489 54.6985221,34.5169277 50.3936641,34.5169277 C46.0888061,34.5169277 42.5865848,38.0191489 42.5865848,42.3240069 C42.5865848,46.6288649 46.0888061,50.1310862 50.3936641,50.1310862 Z M50.3936641,32.3879178 C55.8716065,32.3879178 60.3297532,36.8460645 60.3297532,42.3240069 C60.3297532,47.8019494 55.8716065,52.2600961 50.3936641,52.2600961 C44.9157216,52.2600961 40.4575749,47.8019494 40.4575749,42.3240069 C40.4575749,36.8460645 44.9157216,32.3879178 50.3936641,32.3879178 Z M70.619258,45.5175218 L70.619258,39.1304921 L68.3327014,39.1304921 C67.8387711,39.1304921 67.4087111,38.7919795 67.2958736,38.3108233 C66.8700716,36.5139389 66.1589823,34.797957 65.1796377,33.2139736 C64.9220275,32.7924296 64.9858978,32.2516611 65.3350555,31.9003745 L66.953103,30.280198 L62.437473,25.764568 L60.8172965,27.3826155 C60.4660099,27.7339022 59.9252413,27.7956434 59.5036974,27.5380332 C57.919714,26.5586887 56.2037321,25.8475994 54.4068477,25.4217974 C53.9256915,25.3089599 53.5871789,24.8788999 53.5871789,24.3849696 L53.5871789,22.098413 L47.2001492,22.098413 L47.2001492,24.3849696 C47.2001492,24.8788999 46.8616367,25.3089599 46.3804804,25.4217974 C44.5835961,25.8475994 42.8676141,26.5586887 41.2836308,27.5380332 C40.8663448,27.7956434 40.3255763,27.7339022 39.9700317,27.3826155 L38.3498551,25.764568 L33.8342252,30.280198 L35.4522727,31.9003745 C35.8014303,32.2516611 35.8653006,32.7924296 35.6076904,33.2139736 C34.6283458,34.797957 33.9172565,36.5139389 33.4914546,38.3108233 C33.378617,38.7919795 32.948557,39.1304921 32.4546267,39.1304921 L30.1680701,39.1304921 L30.1680701,45.5175218 L32.4546267,45.5175218 C32.948557,45.5175218 33.378617,45.8560343 33.4914546,46.3371906 C33.9172565,48.1340749 34.6283458,49.8500569 35.6076904,51.4340402 C35.8653006,51.8555842 35.8014303,52.3963527 35.4522727,52.7476393 L33.8342252,54.3678159 L38.3498551,58.8834458 L39.9700317,57.2653983 C40.3255763,56.9162407 40.8663448,56.8544994 41.2836308,57.1099806 C42.8676141,58.0893251 44.5835961,58.8004144 46.3804804,59.2262164 C46.8616367,59.3390539 47.2001492,59.7691139 47.2001492,60.2630442 L47.2001492,62.5496009 L53.5871789,62.5496009 L53.5871789,60.2630442 C53.5871789,59.7691139 53.9256915,59.3390539 54.4068477,59.2262164 C56.2037321,58.8004144 57.919714,58.0893251 59.5036974,57.1099806 C59.9252413,56.8544994 60.4660099,56.9162407 60.8172965,57.2653983 L62.437473,58.8834458 L66.953103,54.3678159 L65.3350555,52.7476393 C64.9858978,52.3963527 64.9220275,51.8555842 65.1796377,51.4340402 C66.1589823,49.8500569 66.8700716,48.1340749 67.2958736,46.3371906 C67.4087111,45.8560343 67.8387711,45.5175218 68.3327014,45.5175218 L70.619258,45.5175218 Z M31.5945067,60.420591 C32.9932662,60.420591 34.1876408,59.4604075 34.6027977,58.1489374 L31.5753457,55.1214854 C31.1601887,54.7041994 31.1601887,54.0314323 31.5753457,53.6162754 L33.365843,51.823649 C32.8399775,50.8847557 32.4269496,49.8968951 32.0650179,48.8877444 L2.31423375,48.8877444 C2.25036345,48.8877444 2.19075118,48.8600673 2.12900989,48.8494222 L2.12900989,57.2270761 C2.12900989,58.9877673 3.56183354,60.420591 5.32252472,60.420591 L31.5945067,60.420591 Z M5.32252472,2.93732398 C3.56183354,2.93732398 2.12900989,4.37014763 2.12900989,6.13083881 L2.12900989,9.53938364 C2.19075118,9.52873859 2.25036345,9.50106146 2.31423375,9.50106146 L14.7327484,9.50106146 C15.3203552,9.50106146 15.7972534,9.97795968 15.7972534,10.5655664 C15.7972534,11.1531731 15.3203552,11.6300714 14.7327484,11.6300714 L2.31423375,11.6300714 C2.25036345,11.6300714 2.19075118,11.6023942 2.12900989,11.5917492 L2.12900989,46.7970567 C2.19075118,46.7864116 2.25036345,46.7587345 2.31423375,46.7587345 L28.0752534,46.7587345 C28.0646084,46.6991222 28.0390602,46.643768 28.0390602,46.5820267 L28.0390602,38.0659871 C28.0390602,37.4783804 28.5159584,37.0014822 29.1035652,37.0014822 L31.6328289,37.0014822 C32.0437278,35.5473684 32.6249475,34.1486089 33.365843,32.8243648 L31.5753457,31.0317385 C31.1601887,30.6165815 31.1601887,29.9438144 31.5753457,29.5265285 L34.7880216,26.3138526 L34.7880216,11.5917492 C34.7262803,11.6023942 34.666668,11.6300714 34.6027977,11.6300714 L29.6358177,11.6300714 C29.0482109,11.6300714 28.5713127,11.1531731 28.5713127,10.5655664 C28.5713127,9.97795968 29.0482109,9.50106146 29.6358177,9.50106146 L34.6027977,9.50106146 C34.666668,9.50106146 34.7262803,9.52873859 34.7880216,9.53938364 L34.7880216,6.13083881 C34.7880216,4.37014763 33.3551979,2.93732398 31.5945067,2.93732398 L5.32252472,2.93732398 Z M71.683763,37.0014822 C72.2713697,37.0014822 72.7482679,37.4783804 72.7482679,38.0659871 L72.7482679,46.5820267 C72.7482679,47.1696334 72.2713697,47.6465316 71.683763,47.6465316 L69.1566282,47.6465316 C68.7436003,49.1006454 68.1623806,50.4994049 67.4214852,51.823649 L69.2119825,53.6162754 C69.6271394,54.0314323 69.6271394,54.7041994 69.2119825,55.1214854 L63.1911425,61.1423253 C62.7738566,61.5574823 62.1010894,61.5574823 61.6859325,61.1423253 L59.8933062,59.351828 C58.569062,60.0927234 57.1703025,60.6739431 55.7161888,61.0848421 L55.7161888,63.6141058 C55.7161888,64.2017125 55.2392906,64.6786108 54.6516838,64.6786108 L46.1356443,64.6786108 C45.5480376,64.6786108 45.0711393,64.2017125 45.0711393,63.6141058 L45.0711393,61.0848421 C43.6170256,60.6739431 42.2182661,60.0927234 40.8940219,59.351828 L39.1013956,61.1423253 C38.6862387,61.5574823 38.0134716,61.5574823 37.5961856,61.1423253 L36.2463934,59.7925331 C35.3245321,61.4403867 33.5553249,62.5496009 31.5945067,62.5496009 L5.32252472,62.5496009 C2.38662009,62.5496009 2.13162821e-14,60.1629808 2.13162821e-14,57.2270761 L2.13162821e-14,6.13083881 C2.13162821e-14,3.19493417 2.38662009,0.808314088 5.32252472,0.808314088 L31.5945067,0.808314088 C34.5304114,0.808314088 36.9170315,3.19493417 36.9170315,6.13083881 L36.9170315,24.1848427 L37.5961856,23.5056885 C38.0134716,23.0905316 38.6862387,23.0905316 39.1013956,23.5056885 L40.8940219,25.2961858 C42.2182661,24.5552904 43.6170256,23.9740707 45.0711393,23.5610428 L45.0711393,21.033908 C45.0711393,20.4463013 45.5480376,19.9694031 46.1356443,19.9694031 L54.6516838,19.9694031 C55.2392906,19.9694031 55.7161888,20.4463013 55.7161888,21.033908 L55.7161888,23.5610428 C57.1703025,23.9740707 58.569062,24.5552904 59.8933062,25.2961858 L61.6859325,23.5056885 C62.1010894,23.0905316 62.7738566,23.0905316 63.1911425,23.5056885 L69.2119825,29.5265285 C69.6271394,29.9438144 69.6271394,30.6165815 69.2119825,31.0317385 L67.4214852,32.8243648 C68.1623806,34.1486089 68.7436003,35.5473684 69.1566282,37.0014822 L71.683763,37.0014822 Z M22.184283,53.5907272 C22.7718898,53.5907272 23.248788,54.0676255 23.248788,54.6552322 C23.248788,55.2428389 22.7718898,55.7197371 22.184283,55.7197371 L14.7327484,55.7197371 C14.1451417,55.7197371 13.6682435,55.2428389 13.6682435,54.6552322 C13.6682435,54.0676255 14.1451417,53.5907272 14.7327484,53.5907272 L22.184283,53.5907272 Z M19.6997285,11.6300714 C19.1121218,11.6300714 18.6352236,11.1531731 18.6352236,10.5655664 C18.6352236,9.97795968 19.1121218,9.50106146 19.6997285,9.50106146 L24.6688376,9.50106146 C25.2564443,9.50106146 25.7333425,9.97795968 25.7333425,10.5655664 C25.7333425,11.1531731 25.2564443,11.6300714 24.6688376,11.6300714 L19.6997285,11.6300714 Z M18.4585157,19.9694031 C17.870909,19.9694031 17.3940108,19.4925049 17.3940108,18.9048981 C17.3940108,18.3172914 17.870909,17.8403932 18.4585157,17.8403932 C19.2505074,17.8403932 20.0446281,17.9191666 20.8153297,18.0767133 C21.5647412,18.232131 22.3056366,18.4599351 23.0167259,18.7601255 C23.5574944,18.9879295 23.8129756,19.6117294 23.5830425,20.1546269 C23.4105927,20.5612678 23.0188549,20.806104 22.601569,20.806104 C22.4631833,20.806104 22.3226687,20.7784268 22.1885411,20.7230726 C21.6073214,20.4761074 21.0026826,20.2887546 20.3916567,20.165272 C19.7572118,20.0354024 19.1099928,19.9694031 18.4585157,19.9694031 Z M23.816382,37.4941351 C24.3039253,37.1705256 24.9639184,37.2918791 25.2939149,37.7836804 C25.6239114,38.2690947 25.4940418,38.9333458 25.0064985,39.2612133 C24.3826987,39.6806282 23.7141895,40.0425599 23.0180033,40.3384923 C22.304785,40.6408117 21.5638896,40.8686158 20.8166071,41.0219045 C20.0459055,41.1794512 19.2496558,41.2603536 18.4576641,41.2603536 C17.6656725,41.2603536 16.8715518,41.1794512 16.1008502,41.0219045 C15.3514387,40.8686158 14.6126723,40.6408117 13.901583,40.3406213 C13.2032677,40.0425599 12.5347586,39.6806282 11.9109587,39.2612133 C11.2871588,38.8396693 10.7059391,38.3563841 10.1779447,37.8262606 C9.65207923,37.3025242 9.16879399,36.7213045 8.74937904,36.0996336 C8.32783508,35.4737047 7.9659034,34.8051956 7.66997103,34.1090094 C7.36765162,33.395791 7.13984756,32.6570246 6.98655885,31.9076131 C6.82901212,31.1369116 6.74810974,30.3427909 6.74810974,29.5507992 C6.74810974,28.7566785 6.82901212,27.9625578 6.98655885,27.1918562 C7.13984756,26.4445738 7.36765162,25.7036783 7.66784202,24.992589 C7.9659034,24.2942738 8.32783508,23.6257647 8.74725003,23.0019648 C9.16879399,22.3781649 9.65207923,21.7969452 10.1822027,21.2689507 C10.7059391,20.7430853 11.2871588,20.2598 11.9088297,19.8403851 C12.5347586,19.4188411 13.2032677,19.0569094 13.899454,18.7609771 C14.4338354,18.528915 15.0640224,18.7822672 15.2939554,19.3251647 C15.5238885,19.8659332 15.2705363,20.4918621 14.7297678,20.7196662 C14.1613222,20.9623733 13.6120376,21.2604347 13.1010753,21.6053343 C12.5943709,21.9481049 12.1174727,22.3419717 11.6874127,22.7741607 C11.2509657,23.2084787 10.8570988,23.6853769 10.5121992,24.1942103 C10.1694286,24.7030437 9.87136725,25.2523282 9.62866012,25.8229029 C9.385953,26.4019936 9.19860013,27.0045034 9.07298854,27.6155292 C8.94524795,28.2499741 8.87711963,28.8993222 8.87711963,29.5507992 C8.87711963,30.2001472 8.94524795,30.8494952 9.07298854,31.4839402 C9.19860013,32.094966 9.385953,32.6974758 9.63078913,33.2808245 C9.87136725,33.8471411 10.1694286,34.3964257 10.5143282,34.9073881 C10.8570988,35.4140924 11.2509657,35.8909906 11.6831547,36.3210506 C12.1174727,36.7574977 12.5943709,37.1513645 13.1032043,37.4962641 C13.6120376,37.8390347 14.1613222,38.1370961 14.7297678,38.3798032 C15.3109875,38.6225103 15.9134973,38.8098632 16.5245232,38.9354748 C17.793413,39.193085 19.1240442,39.193085 20.3929341,38.9354748 C21.00396,38.8098632 21.6064698,38.6225103 22.1876895,38.3776742 C22.7561351,38.1370961 23.3054196,37.8390347 23.816382,37.4941351 Z M25.2343026,22.7782058 C24.8170167,22.3630489 24.8170167,21.6881528 25.2300446,21.2729958 C25.6452015,20.8535809 26.3200977,20.8578389 26.7352546,21.2687378 C27.265378,21.7967323 27.7486633,22.380081 28.1680782,22.9996229 C28.5896222,23.6255518 28.9515539,24.2940609 29.2474862,24.9902471 C29.5476766,25.7034654 29.7776097,26.4443609 29.9308984,27.1916433 C30.0884452,27.9644739 30.1672185,28.7585946 30.1672185,29.5505863 C30.1672185,30.342578 30.0884452,31.1366987 29.9308984,31.9074002 C29.7776097,32.6568117 29.5476766,33.3955781 29.2496153,34.1066675 C29.0771655,34.5154373 28.6832986,34.7581445 28.2681417,34.7581445 C28.127627,34.7581445 27.9892414,34.7304673 27.8529848,34.6751131 C27.3143453,34.44518 27.0567351,33.8213801 27.2866681,33.2806116 C27.5315043,32.6972629 27.7188571,32.0947531 27.8444687,31.4837273 C27.9722093,30.8492823 28.0382086,30.1999343 28.0382086,29.5505863 C28.0382086,28.8991093 27.9722093,28.2497612 27.8444687,27.6153163 C27.7188571,27.0042905 27.5315043,26.4017807 27.2866681,25.820561 C27.04609,25.2521153 26.7480286,24.7028308 26.403129,24.1918684 C26.0603584,23.685164 25.6664916,23.2082658 25.2343026,22.7782058 Z M12.383386,29.8618475 C12.7985429,29.4466906 13.4734391,29.4466906 13.888596,29.8618475 L17.2801088,33.2533603 L22.928372,25.7187943 C23.2860457,25.2482831 23.9545548,25.1524777 24.4186789,25.5037643 C24.8891901,25.8571799 24.9849955,26.525689 24.6337089,26.9940712 L18.2466793,35.5101108 C18.0614554,35.7592049 17.7761681,35.9124936 17.4695906,35.9359127 C17.4440425,35.9380418 17.4184944,35.9380418 17.3950753,35.9380418 C17.114046,35.9380418 16.8415327,35.8252042 16.6414058,35.6250773 L12.383386,31.3670575 C11.9682291,30.9519006 11.9682291,30.2770045 12.383386,29.8618475 Z" id="icon-section-request-copy"></path>
            </g>
        </g>
    </g>
</svg>