<?xml version="1.0" encoding="UTF-8"?>
<svg width="180px" height="180px" viewBox="0 0 180 180" version="1.1" xmlns="http://www.w3.org/2000/svg" xmlns:xlink="http://www.w3.org/1999/xlink">
    <!-- Generator: Sketch 53.2 (72643) - https://sketchapp.com -->
    <title>safari-pinned-tab</title>
    <desc>Created with Sketch.</desc>
    <defs>
        <path d="M5.37448333,0 C2.24583333,0 0.00571666667,2.34383333 0,4.90081667 L0,4.90081667 L0,4.9147 C0.000816666667,5.72973333 0.228666667,6.566 0.726833333,7.3549 L0.726833333,7.3549 L42.5181167,73.5 L73.5,24.4640667 L59.5921667,2.45163333 C58.6342167,0.935083333 56.8628667,0 54.9445167,0 L54.9445167,0 L5.37448333,0 Z" id="path-1"></path>
        <linearGradient x1="49.9999788%" y1="100%" x2="49.9999788%" y2="0%" id="linearGradient-3">
            <stop stop-color="#BF2F62" offset="0%"></stop>
            <stop stop-color="#F20093" offset="100%"></stop>
        </linearGradient>
        <path d="M0,49.0359333 L13.9078333,71.0483667 C14.8657833,72.5649167 16.6371333,73.5 18.5554833,73.5 L18.5554833,73.5 L68.1255167,73.5 C71.2394667,73.5 73.4738667,71.1782167 73.5,68.6343 L73.5,68.6343 L73.5,68.5461 C73.4918333,67.7433167 73.2639833,66.9209333 72.7731667,66.1442833 L72.7731667,66.1442833 L30.9818833,0 L0,49.0359333 Z" id="path-4"></path>
        <linearGradient x1="49.999983%" y1="100%" x2="49.999983%" y2="0%" id="linearGradient-6">
            <stop stop-color="#2AB5FB" offset="0%"></stop>
            <stop stop-color="#0095DB" offset="100%"></stop>
        </linearGradient>
        <path d="M0.726833333,66.1442833 C0.228666667,66.9331833 0.000816666667,67.76945 0,68.5853 L0,68.5853 L0,68.5991833 C0.00571666667,71.1561667 2.24583333,73.5 5.37448333,73.5 L5.37448333,73.5 L54.9445167,73.5 C56.8628667,73.5 58.6342167,72.5649167 59.5921667,71.0483667 L59.5921667,71.0483667 L73.5,49.0359333 L42.5181167,0 L0.726833333,66.1442833 Z" id="path-7"></path>
        <path d="M18.5554833,0 C16.6371333,0 14.8657833,0.935083333 13.9078333,2.45163333 L13.9078333,2.45163333 L0,24.4640667 L30.9818833,73.5 L72.7731667,7.3549 C73.2639833,6.57906667 73.4918333,5.75668333 73.5,4.9539 L73.5,4.9539 L73.5,4.8657 C73.4738667,2.32178333 71.2394667,0 68.1255167,0 L68.1255167,0 L18.5554833,0 Z" id="path-9"></path>
    </defs>
    <g id="FavIcons" stroke="none" stroke-width="1" fill="none" fill-rule="evenodd">
        <g id="safari-pinned-tab">
            <rect id="Rectangle" stroke="#979797" stroke-width="0.01" x="0.005" y="0.005" width="179.99" height="179.99"></rect>
            <g id="Group" transform="translate(17.000000, 17.000000)">
                <g id="Group-3">
                    <mask id="mask-2" fill="white">
                        <use xlink:href="#path-1"></use>
                    </mask>
                    <g id="Clip-2"></g>
                    <path d="M5.37448333,0 C2.24583333,0 0.00571666667,2.34383333 0,4.90081667 L0,4.90081667 L0,4.9147 C0.000816666667,5.72973333 0.228666667,6.566 0.726833333,7.3549 L0.726833333,7.3549 L42.5181167,73.5 L73.5,24.4640667 L59.5921667,2.45163333 C58.6342167,0.935083333 56.8628667,0 54.9445167,0 L54.9445167,0 L5.37448333,0 Z" id="Fill-1" fill="url(#linearGradient-3)" mask="url(#mask-2)"></path>
                </g>
                <g id="Group-6" transform="translate(73.500000, 73.500000)">
                    <mask id="mask-5" fill="white">
                        <use xlink:href="#path-4"></use>
                    </mask>
                    <g id="Clip-5"></g>
                    <path d="M0,49.0359333 L13.9078333,71.0483667 C14.8657833,72.5649167 16.6371333,73.5 18.5554833,73.5 L18.5554833,73.5 L68.1255167,73.5 C71.2394667,73.5 73.4738667,71.1782167 73.5,68.6343 L73.5,68.6343 L73.5,68.5461 C73.4918333,67.7433167 73.2639833,66.9209333 72.7731667,66.1442833 L72.7731667,66.1442833 L30.9818833,0 L0,49.0359333 Z" id="Fill-4" fill="url(#linearGradient-6)" mask="url(#mask-5)"></path>
                </g>
                <g id="Group-9" transform="translate(0.000000, 73.500000)">
                    <mask id="mask-8" fill="white">
                        <use xlink:href="#path-7"></use>
                    </mask>
                    <g id="Clip-8"></g>
                    <path d="M0.726833333,66.1442833 C0.228666667,66.9331833 0.000816666667,67.76945 0,68.5853 L0,68.5853 L0,68.5991833 C0.00571666667,71.1561667 2.24583333,73.5 5.37448333,73.5 L5.37448333,73.5 L54.9445167,73.5 C56.8628667,73.5 58.6342167,72.5649167 59.5921667,71.0483667 L59.5921667,71.0483667 L73.5,49.0359333 L42.5181167,0 L0.726833333,66.1442833 Z" id="Fill-7" fill="url(#linearGradient-6)" mask="url(#mask-8)"></path>
                </g>
                <g id="Group-12" transform="translate(73.500000, 0.000000)">
                    <mask id="mask-10" fill="white">
                        <use xlink:href="#path-9"></use>
                    </mask>
                    <g id="Clip-11"></g>
                    <path d="M18.5554833,0 C16.6371333,0 14.8657833,0.935083333 13.9078333,2.45163333 L13.9078333,2.45163333 L0,24.4640667 L30.9818833,73.5 L72.7731667,7.3549 C73.2639833,6.57906667 73.4918333,5.75668333 73.5,4.9539 L73.5,4.9539 L73.5,4.8657 C73.4738667,2.32178333 71.2394667,0 68.1255167,0 L68.1255167,0 L18.5554833,0 Z" id="Fill-10" fill="url(#linearGradient-3)" mask="url(#mask-10)"></path>
                </g>
                <polygon id="Fill-13" fill="#59CEFC" points="42.55258 73.4456917 42.51828 73.4995917 73.5001633 122.535525 104.482047 73.4995917 104.448563 73.4456917"></polygon>
            </g>
        </g>
    </g>
</svg>