<?xml version="1.0" standalone="no"?>
<!DOCTYPE svg PUBLIC "-//W3C//DTD SVG 1.1//EN" "http://www.w3.org/Graphics/SVG/1.1/DTD/svg11.dtd">
<svg xmlns="http://www.w3.org/2000/svg"><metadata>This SVG WebFont was generated by YouWorkForThem.
</metadata><defs><font horiz-adv-x="1253" id="ywftsvg"><font-face ascent="1638" bbox="-451 -743 2267 2243" cap-height="1434" descent="-410" font-family="" font-stretch="normal" font-weight="800" panose-1="0 0 0 0 0 0 0 0 0 0" underline-position="0" underline-thickness="0" unicode-range="U+0020-A78C" units-per-em="2048" x-height="1065"/><missing-glyph d="M23 0l225 1434h1249l-225 -1434h-1249zM145 106h1035l194 1221h-1038zM233 184l469 539l-294 526h118l246 -446l385 446h119l-463 -526l301 -539h-119l-252 461l-391 -461h-119z" horiz-adv-x="1458"/><glyph d="M23 0l225 1434h1249l-225 -1434h-1249zM145 106h1035l194 1221h-1038zM233 184l469 539l-294 526h118l246 -446l385 446h119l-463 -526l301 -539h-119l-252 461l-391 -461h-119z" glyph-name=".notdef" horiz-adv-x="1458"/><glyph glyph-name="glyph1" horiz-adv-x="0"/><glyph glyph-name="glyph2" horiz-adv-x="681"/><glyph glyph-name="space" horiz-adv-x="471" unicode=" "/><glyph d="M172 522l104 912h340l-190 -912h-254zM49 174q0 82 58.5 138.5t140.5 56.5q84 0 141 -56.5t57 -138.5t-57 -138t-141 -56q-82 0 -140.5 56t-58.5 138z" glyph-name="exclam" horiz-adv-x="610" unicode="!"/><glyph d="M657 805l103 629h321l-102 -629h-322zM123 805l102 629h322l-103 -629h-321z" glyph-name="quotedbl" horiz-adv-x="1019" unicode="&quot;"/><glyph d="M582 0l88 340h-250l-88 -340h-199l88 340h-166l31 205h188l88 346h-165l30 203h189l88 340h201l-89 -340h248l88 340h201l-88 -340h166l-31 -203h-188l-88 -346h166l-31 -205h-189l-88 -340h-200zM473 545h250l88 346h-248z" glyph-name="numbersign" horiz-adv-x="1224" unicode="#"/><glyph d="M475 -184l27 166q-238 18 -356.5 147t-86.5 354h344q-8 -78 28 -135t116 -76l53 328l-78 16q-162 33 -256 112t-94 243q0 209 157.5 338t403.5 141l27 168h131l-27 -170q211 -18 320.5 -133t77.5 -318h-340q23 129 -103 162l-49 -305l49 -10q215 -43 305 -129t90 -234 q0 -223 -161.5 -355t-419.5 -144l-27 -166h-131zM524 1006q0 -96 119 -127l45 284q-74 -10 -119 -52t-45 -105zM678 268q82 10 131 53.5t49 114.5q0 51 -28.5 84t-104.5 53z" glyph-name="dollar" horiz-adv-x="1304" unicode="$"/><glyph d="M221 215l-108 188l1265 822l107 -189zM162 1053q0 166 102.5 286.5t270.5 120.5q117 0 188.5 -66.5t71.5 -199.5q0 -166 -102.5 -287t-270.5 -121q-117 0 -188.5 66t-71.5 201zM401 1100q0 -92 62 -92q47 0 69.5 42t22.5 97q0 92 -61 92q-47 0 -70 -42t-23 -97zM809 246 q0 168 102.5 287.5t270.5 119.5q117 0 188.5 -65.5t71.5 -198.5q0 -168 -102.5 -287.5t-270.5 -119.5q-117 0 -188.5 65.5t-71.5 198.5zM1049 293q0 -92 61 -92q47 0 69.5 43t22.5 98q0 92 -61 92q-47 0 -69.5 -43t-22.5 -98z" glyph-name="percent" horiz-adv-x="1542" unicode="%"/><glyph d="M516 -20q-211 0 -338 102t-127 280q0 268 346 453q-90 147 -90 264q0 156 117 264.5t338 108.5q186 0 284.5 -82t98.5 -213q0 -268 -324 -414l170 -227q66 117 88 254h297q-47 -287 -209 -485l215 -285h-372l-70 92q-199 -112 -424 -112zM403 416q0 -68 53.5 -116 t143.5 -48q94 0 180 49l-245 320q-132 -78 -132 -205zM600 1118q0 -63 78 -178q168 84 168 188q0 45 -31 70t-84 25q-59 0 -95 -29t-36 -76z" glyph-name="ampersand" horiz-adv-x="1507" unicode="&amp;"/><glyph d="M123 805l102 629h322l-103 -629h-321z" glyph-name="quotesingle" horiz-adv-x="485" unicode="'"/><glyph d="M182 -266q-156 389 -69 921q80 510 354 871h326q-266 -373 -344 -871q-84 -522 59 -921h-326z" glyph-name="parenleft" horiz-adv-x="727" unicode="("/><glyph d="M575 1526q156 -389 70 -922q-80 -510 -354 -870h-326q266 373 344 870q84 522 -59 922h325z" glyph-name="parenright" horiz-adv-x="724" unicode=")"/><glyph d="M408 582l-172 127l204 231l-254 68l93 219l264 -76l45 283h233l-49 -283l289 76l20 -219l-278 -68l131 -231l-211 -127l-121 231z" glyph-name="asterisk" horiz-adv-x="1122" unicode="*"/><glyph d="M403 55l60 379h-375l45 289h375l59 375h310l-60 -375h383l-47 -289h-381l-59 -379h-310z" glyph-name="plus" horiz-adv-x="1271" unicode="+"/><glyph d="M35 -145q90 6 131 35.5t53 97.5q-98 0 -149.5 50t-51.5 128q0 86 57.5 144.5t149.5 58.5q90 0 146.5 -59.5t56.5 -188.5q0 -170 -102.5 -285t-298.5 -115h-13z" glyph-name="comma" horiz-adv-x="571" unicode=","/><glyph d="M66 438l43 250h649l-43 -250h-649z" glyph-name="hyphen" horiz-adv-x="813" unicode="-"/><glyph d="M217 -20q-82 0 -140.5 56t-58.5 138t58.5 138.5t140.5 56.5q84 0 141.5 -56.5t57.5 -138.5t-57.5 -138t-141.5 -56z" glyph-name="period" horiz-adv-x="548" unicode="."/><glyph d="M-23 4l789 1430h336l-789 -1430h-336z" glyph-name="slash" horiz-adv-x="1019" unicode="/"/><glyph d="M582 -20q-213 0 -353.5 135t-140.5 434q0 229 79 432t241.5 337t375.5 134q100 0 184.5 -29.5t156 -93t111.5 -178.5t40 -272q0 -227 -77 -428t-238.5 -336t-378.5 -135zM414 584q0 -324 202 -324q109 0 188 96.5t112.5 226.5t33.5 269q0 319 -196 319q-109 0 -190 -95 t-115.5 -225t-34.5 -267z" glyph-name="zero" horiz-adv-x="1306" unicode="0"/><glyph d="M477 1028q-119 -102 -342 -102l43 274q133 16 220 68.5t143 165.5h336l-228 -1434h-336z" glyph-name="one" horiz-adv-x="878" unicode="1"/><glyph d="M10 74q35 211 134.5 351t334.5 265q29 14 82 42t78 41t63.5 35.5t58 40t43 42t37 51.5t19.5 59q10 49 -2 84t-39.5 51.5t-56.5 23.5t-60 7q-78 0 -135 -47t-73 -151l-5 -29h-323l6 43q31 207 175.5 338t404.5 131q244 0 358.5 -115.5t87.5 -306.5q-14 -98 -57 -177 t-123 -141.5t-123 -88t-141 -76.5q-14 -8 -23 -12q-160 -84 -224.5 -138.5t-82.5 -111.5l-2 -9h647l-41 -276h-1030z" glyph-name="two" horiz-adv-x="1204" unicode="2"/><glyph d="M528.5 -20q-268.5 0 -389.5 139t-84 377h312q-10 -66 4 -114t47 -72.5t70.5 -36t80.5 -11.5q106 0 177 57.5t71 147.5q0 150 -213 149h-90l39 240h76q111 0 174 48t63 128q0 70 -45 101.5t-112 31.5q-180 0 -220 -207h-311q31 231 183.5 362.5t402.5 131.5 q203 0 320.5 -92t117.5 -240q0 -127 -82 -230.5t-205 -131.5q33 -2 71 -18.5t78 -48.5t66.5 -91t26.5 -135q0 -215 -180 -350t-448.5 -135z" glyph-name="three" horiz-adv-x="1234" unicode="3"/><glyph d="M588 0l51 324h-608l41 268l743 842h336l-135 -842h164l-41 -268h-164l-53 -324h-334zM362 592h318l70 440z" glyph-name="four" horiz-adv-x="1232" unicode="4"/><glyph d="M537 -20q-252 0 -378 135t-87 350h305q-14 -113 51.5 -164t153.5 -51q121 0 190.5 83t69.5 204q0 117 -60.5 160.5t-134.5 43.5q-70 0 -133 -33.5t-94 -89.5h-307l252 816h819l-41 -267h-588l-86 -274q137 102 311 102q184 0 292 -109.5t108 -305.5q0 -266 -179 -433 t-464 -167z" glyph-name="five" horiz-adv-x="1232" unicode="5"/><glyph d="M578 -20q-211 0 -346.5 128t-135.5 406q0 96 19 211q55 340 229 533.5t467 193.5q217 0 321.5 -104.5t104.5 -251.5q0 -23 -4 -72h-297q0 164 -178 164q-66 0 -120 -27.5t-87 -67.5t-58.5 -94.5t-37 -96.5t-17.5 -85q160 129 344 129q72 0 138.5 -19.5t129 -61.5 t99.5 -122.5t37 -189.5q0 -250 -179 -411.5t-429 -161.5zM412 438q0 -96 57 -142t133 -46q104 0 181 72.5t77 185.5q0 98 -57.5 144t-136.5 46q-113 0 -183.5 -78t-70.5 -182z" glyph-name="six" horiz-adv-x="1263" unicode="6"/><glyph d="M137 0q137 608 639 1159h-616l45 275h932l-47 -275q-516 -618 -633 -1159h-320z" glyph-name="seven" horiz-adv-x="1064" unicode="7"/><glyph d="M504 -20q-209 0 -337 97t-128 269q0 131 74.5 245t216.5 183q-102 86 -103 240q0 184 143.5 311t368.5 127q186 0 291 -86t105 -231q0 -102 -49.5 -204t-149.5 -157q176 -98 176 -295q0 -221 -177 -360t-431 -139zM369 418q0 -68 46 -113t134 -45q111 0 175 64.5 t64 148.5q0 68 -47 110t-133 42q-111 0 -175 -61.5t-64 -145.5zM537 1022q0 -55 36.5 -83t92.5 -28q74 0 114.5 46.5t40.5 105.5q0 55 -35.5 83t-91.5 28q-74 0 -115.5 -46.5t-41.5 -105.5z" glyph-name="eight" horiz-adv-x="1189" unicode="8"/><glyph d="M743 1450q211 0 346.5 -128t135.5 -407q0 -96 -19 -210q-55 -340 -229 -534t-467 -194q-217 0 -321.5 104.5t-104.5 252.5q0 23 4 72h297q0 -164 178 -164q66 0 120 27.5t87 67.5t58.5 94t37 96t17.5 85q-160 -129 -344 -129q-72 0 -138.5 19.5t-129 61.5t-99.5 123 t-37 190q0 250 179 411.5t429 161.5zM461 922q0 -98 57 -144.5t137 -46.5q113 0 183.5 78t70.5 182q0 96 -57 142.5t-133 46.5q-104 0 -181 -72.5t-77 -185.5z" glyph-name="nine" horiz-adv-x="1263" unicode="9"/><glyph d="M217 -20q-82 0 -140.5 56t-58.5 138t58.5 138.5t140.5 56.5q84 0 141.5 -56.5t57.5 -138.5t-57.5 -138t-141.5 -56zM129 870q0 82 58.5 138.5t140.5 56.5q84 0 141 -56.5t57 -138.5t-57 -138t-141 -56q-82 0 -140.5 56t-58.5 138z" glyph-name="colon" horiz-adv-x="546" unicode=":"/><glyph d="M328 676q-82 0 -140.5 56t-58.5 138t58.5 138.5t140.5 56.5q84 0 141 -56.5t57 -138.5t-57 -138t-141 -56zM14 -279l21 134q90 6 131 35.5t53 97.5q-98 0 -149.5 50t-51.5 128q0 86 57.5 144.5t149.5 58.5q90 0 146.5 -59.5t56.5 -188.5q0 -170 -102.5 -285t-298.5 -115 h-13z" glyph-name="semicolon" horiz-adv-x="571" unicode=";"/><glyph d="M862 0l-801 354l50 283l907 352l-47 -307l-582 -190l520 -195z" glyph-name="less" horiz-adv-x="1038" unicode="&lt;"/><glyph d="M63 274l48 250h702l-47 -250h-703zM121 602l47 250h702l-47 -250h-702z" glyph-name="equal" horiz-adv-x="923" unicode="="/><glyph d="M164 989l801 -354l-50 -283l-907 -352l47 307l582 191l-520 194z" glyph-name="greater" horiz-adv-x="1038" unicode=">"/><glyph d="M451 530q18 102 62 177t94 114t99.5 70t84 65.5t40.5 79.5q6 27 1 51.5t-37.5 49t-89.5 24.5q-176 0 -213 -217h-336q20 137 75.5 237.5t136.5 157t172 83t195 26.5q219 0 342 -109.5t90 -304.5q-14 -84 -51 -141t-83 -88t-91 -60.5t-83 -82t-52 -130.5l-8 -47h-357z M367 174q0 82 58 138.5t140 56.5q84 0 141.5 -56.5t57.5 -138.5t-57.5 -138t-141.5 -56q-82 0 -140 56t-58 138z" glyph-name="question" horiz-adv-x="1181" unicode="?"/><glyph d="M752 -20q-291 0 -472.5 168.5t-181.5 465.5q0 358 254 598t611 240q287 0 457.5 -159.5t170.5 -422.5q0 -209 -102.5 -353t-286.5 -144q-98 0 -146 47t-57 108q-8 -49 -78.5 -104t-166.5 -55q-111 0 -188 78.5t-77 220.5q0 162 102.5 270.5t250.5 108.5q88 0 148.5 -42 t68.5 -98l28 121h146l-49 -321q-8 -53 -9 -85t14 -59.5t52 -27.5q74 0 117 96t43 223q0 193 -116 306.5t-337 113.5q-289 0 -476 -186.5t-187 -458.5q0 -225 136 -350t376 -125q141 0 237 36l-35 -172q-110 -38 -247 -38zM678 686q0 -147 125 -147q74 0 118 55t44 133 q0 147 -123 147q-72 0 -118 -56t-46 -132z" glyph-name="at" horiz-adv-x="1619" unicode="@"/><glyph d="M-53 0l739 1434h447l282 -1434h-356l-43 244h-582l-119 -244h-368zM559 498h412l-105 587h-18z" glyph-name="A" horiz-adv-x="1529" unicode="A"/><glyph d="M20 0l228 1434h586q426 0 426 -326q0 -244 -252 -326q250 -74 249 -317q0 -215 -171 -340t-433 -125h-633zM410 289h247q111 0 180.5 59.5t69.5 147.5q0 147 -174 147h-266zM498 858h223q78 0 128 50t50 124q0 113 -119 113h-239z" glyph-name="B" horiz-adv-x="1325" unicode="B"/><glyph d="M682 -20q-281 0 -433.5 159.5t-152.5 460.5q0 362 210 607t566 245q260 0 414 -136t135 -401h-329q-10 127 -80 183.5t-172 56.5q-131 0 -224.5 -83t-131.5 -196.5t-38 -242.5q0 -166 69 -261.5t210 -95.5q211 0 307 242h330q-59 -272 -244.5 -405t-435.5 -133z" glyph-name="C" horiz-adv-x="1425" unicode="C"/><glyph d="M20 0l228 1434h555q283 0 429 -149.5t146 -444.5q0 -371 -206.5 -605.5t-577.5 -234.5h-574zM414 299h174q158 0 259 75t141 187.5t40 263.5q0 174 -65.5 242t-231.5 68h-188z" glyph-name="D" horiz-adv-x="1419" unicode="D"/><glyph d="M20 0l228 1434h997l-49 -299h-653l-47 -279h591l-40 -266h-592l-41 -291h673l-51 -299h-1016z" glyph-name="E" horiz-adv-x="1173" unicode="E"/><glyph d="M20 0l228 1434h956l-47 -299h-614l-47 -291h510l-48 -277h-507l-89 -567h-342z" glyph-name="F" horiz-adv-x="1122" unicode="F"/><glyph d="M700 -20q-295 0 -449.5 155.5t-154.5 448.5q0 369 217 618.5t570 249.5q244 0 398.5 -126t150.5 -370h-342q-25 199 -234 199q-188 0 -299 -164t-111 -373q0 -162 71 -252t216 -90q115 0 201 62.5t113 196.5l-256 -9l45 279h598l-25 -135q-68 -358 -238 -524t-471 -166z " glyph-name="G" horiz-adv-x="1472" unicode="G"/><glyph d="M883 0l92 578h-520l-93 -578h-342l228 1434h342l-90 -572h520l90 572h344l-227 -1434h-344z" glyph-name="H" horiz-adv-x="1413" unicode="H"/><glyph d="M20 0l228 1434h342l-228 -1434h-342z" glyph-name="I" horiz-adv-x="550" unicode="I"/><glyph d="M631 -20q-276 0 -423 143t-102 422h347q-18 -129 41 -197.5t178 -68.5q117 0 184.5 70.5t89.5 221.5l139 863h345l-144 -889q-45 -283 -216 -424t-439 -141z" glyph-name="J" horiz-adv-x="1388" unicode="J"/><glyph d="M20 0l228 1434h342l-103 -650l639 650h402l-639 -637l469 -797h-393l-322 553l-229 -227l-52 -326h-342z" glyph-name="K" horiz-adv-x="1472" unicode="K"/><glyph d="M20 0l228 1434h342l-176 -1135h639l-49 -299h-984z" glyph-name="L" horiz-adv-x="1138" unicode="L"/><glyph d="M20 0l228 1434h434l168 -963l463 963h446l-227 -1434h-344l133 844h-12l-398 -844h-264l-137 844h-12l-136 -844h-342z" glyph-name="M" horiz-adv-x="1718" unicode="M"/><glyph d="M20 0l228 1434h354l383 -871h8l142 871h344l-228 -1434h-368l-379 848h-8l-134 -848h-342z" glyph-name="N" horiz-adv-x="1437" unicode="N"/><glyph d="M692 -20q-281 0 -439.5 166.5t-158.5 453.5q0 354 221.5 603t567.5 249q283 0 439.5 -165t156.5 -449q0 -356 -220.5 -607t-566.5 -251zM446 610q0 -334 271 -334q131 0 226 85t138 207t43 259q0 328 -266 328q-193 0 -302.5 -165t-109.5 -380z" glyph-name="O" horiz-adv-x="1515" unicode="O"/><glyph d="M20 0l228 1434h590q489 0 489 -414q0 -256 -174 -409.5t-469 -153.5h-248l-74 -457h-342zM483 756h236q117 0 184.5 59t67.5 158q0 162 -193 162h-235z" glyph-name="P" horiz-adv-x="1310" unicode="P"/><glyph d="M1151 -51l-98 119q-166 -88 -361 -88q-281 0 -439.5 166.5t-158.5 453.5q0 354 221.5 603t567.5 249q283 0 439.5 -165t156.5 -449q0 -332 -191 -574l101 -121zM446 610q0 -334 271 -334q76 0 139 29l-141 170l237 195l113 -138q59 131 59 295q0 328 -266 328 q-193 0 -302.5 -165t-109.5 -380z" glyph-name="Q" horiz-adv-x="1523" unicode="Q"/><glyph d="M846 0l-187 457h-223l-74 -457h-342l228 1434h590q489 0 489 -414q0 -184 -93 -318.5t-261 -197.5l215 -504h-342zM483 756h236q117 0 184.5 59t67.5 158q0 162 -193 162h-235z" glyph-name="R" horiz-adv-x="1325" unicode="R"/><glyph d="M604 -20q-283 0 -429 130t-109 373h358q-10 -96 47 -157.5t184 -61.5q109 0 175.5 45t66.5 127q0 57 -39 92t-141 56l-170 32q-168 33 -266.5 112t-98.5 243q0 221 181.5 351t457.5 130q256 0 394.5 -116.5t101.5 -338.5h-354q16 88 -37.5 129t-149.5 41 q-100 0 -163.5 -44t-63.5 -117q0 -104 151 -134l156 -28q223 -43 317.5 -129t94.5 -234q0 -233 -187.5 -367t-476.5 -134z" glyph-name="S" horiz-adv-x="1355" unicode="S"/><glyph d="M365 0l180 1135h-408l49 299h1157l-49 -299h-405l-180 -1135h-344z" glyph-name="T" horiz-adv-x="1241" unicode="T"/><glyph d="M623 -20q-279 0 -420.5 142t-96.5 423l142 889h346l-137 -863q-23 -143 37.5 -217.5t183.5 -74.5q238 0 285 292l137 863h348l-141 -889q-47 -281 -229.5 -423t-454.5 -142z" glyph-name="U" horiz-adv-x="1409" unicode="U"/><glyph d="M469 0l-283 1434h355l192 -1086h21l530 1086h369l-740 -1434h-444z" glyph-name="V" horiz-adv-x="1550" unicode="V"/><glyph d="M328 0l-142 1434h353l59 -949h14l404 949h352l107 -949h14l358 949h357l-596 -1434h-359l-125 1001l-438 -1001h-358z" glyph-name="W" horiz-adv-x="2101" unicode="W"/><glyph d="M-53 0l598 737l-342 697h385l196 -402l326 402h381l-561 -695l362 -739h-387l-217 442l-358 -442h-383z" glyph-name="X" horiz-adv-x="1406" unicode="X"/><glyph d="M475 0l82 518l-371 916h392l208 -582l394 582h395l-662 -916l-84 -518h-354z" glyph-name="Y" horiz-adv-x="1472" unicode="Y"/><glyph d="M-2 0l49 299l854 836h-711l48 299h1093l-45 -299l-860 -836h735l-49 -299h-1114z" glyph-name="Z" horiz-adv-x="1277" unicode="Z"/><glyph d="M-25 -266l287 1792h481l-47 -287h-145l-193 -1219h146l-45 -286h-484z" glyph-name="bracketleft" horiz-adv-x="688" unicode="["/><glyph d="M545 4l-340 1430h330l339 -1430h-329z" glyph-name="backslash" horiz-adv-x="1019" unicode="\"/><glyph d="M743 1526l-286 -1792h-482l48 286h145l192 1219h-145l45 287h483z" glyph-name="bracketright" horiz-adv-x="688" unicode="]"/><glyph d="M158 952l409 482h195l252 -482h-250l-131 265l-221 -265h-254z" glyph-name="asciicircum" horiz-adv-x="1040" unicode="^"/><glyph d="M-37 -287l45 287h1024l-45 -287h-1024z" glyph-name="underscore" horiz-adv-x="1208" unicode="_"/><glyph d="M340 1188l-172 289h291l172 -289h-291z" glyph-name="grave" horiz-adv-x="526" unicode="`"/><glyph d="M303 -20q-127 0 -210 60t-83 200q0 295 436 364l170 29q70 10 98.5 27.5t37.5 50.5l4 20q12 53 -19.5 83t-103.5 30q-150 0 -176 -121l-4 -21l-316 -4l8 56q53 332 527 331q244 0 343 -86t70 -258l-118 -741h-320l31 186h-14q-107 -206 -361 -206zM354 307q0 -90 117 -90 q84 0 148.5 45t74.5 109l21 106q-12 -12 -30.5 -19t-33 -11.5t-38 -8.5t-33.5 -6l-115 -20q-111 -21 -111 -105z" glyph-name="a" horiz-adv-x="1155" unicode="a"/><glyph d="M651 -20q-115 0 -186.5 48t-87.5 115l-21 -143h-336l228 1434h336l-82 -512h2q29 63 121 113t202 50q156 0 267.5 -106.5t111.5 -312.5q0 -281 -156.5 -483.5t-398.5 -202.5zM422 481q0 -115 52 -169t138 -54q121 0 196 99.5t75 238.5q0 106 -52.5 158.5t-140.5 52.5 q-119 0 -193.5 -98.5t-74.5 -227.5z" glyph-name="b" horiz-adv-x="1249" unicode="b"/><glyph d="M510 -20q-195 0 -329 109.5t-134 342.5q0 274 177 463.5t456 189.5q63 0 120.5 -10t118 -39.5t103.5 -78t66.5 -131.5t17.5 -191h-295q-2 170 -178 170q-131 0 -201 -101.5t-70 -234.5q0 -209 189 -209q168 0 231 168h295q-33 -131 -98.5 -224t-149.5 -139.5 t-161.5 -65.5t-157.5 -19z" glyph-name="c" horiz-adv-x="1153" unicode="c"/><glyph d="M418 -20q-158 0 -265.5 106.5t-107.5 319.5q0 281 154.5 480t390.5 199q117 0 189.5 -48t88.5 -115h2l80 512h336l-227 -1434h-336l20 143q-31 -66 -121.5 -114.5t-203.5 -48.5zM367 473q0 -109 51 -162t139 -53q119 0 193.5 99.5t74.5 232.5q0 111 -53 164t-141 53 q-117 0 -190.5 -99.5t-73.5 -234.5z" glyph-name="d" horiz-adv-x="1247" unicode="d"/><glyph d="M512 -29q-94 0 -174 24.5t-147.5 77t-105.5 147.5t-38 222q0 279 168 461t451 182q203 0 326.5 -102t123.5 -330q0 -135 -31 -207h-723q4 -127 52.5 -176t142.5 -49q92 0 137 34t74 97h295q-66 -184 -208 -282.5t-343 -98.5zM379 625h430q10 90 -33 148t-149 58 q-193 1 -248 -206z" glyph-name="e" horiz-adv-x="1163" unicode="e"/><glyph d="M281 1116q55 350 421 350h172l-38 -254h-95q-115 0 -135 -131l-2 -16h201l-39 -258h-203l-127 -807h-336l131 807h-155l41 258h155z" glyph-name="f" horiz-adv-x="778" unicode="f"/><glyph d="M420 29q-156 0 -264.5 98t-108.5 305q0 272 150.5 462.5t386.5 190.5q102 0 172.5 -37.5t105.5 -95.5l17 113h335l-151 -946l-8 -74q-14 -119 -66.5 -208t-118 -138t-150.5 -79t-153.5 -39t-140.5 -9q-63 0 -121.5 6t-127 29.5t-115 62.5t-71 111t-9.5 166h294 q-6 -63 51.5 -90t131.5 -27q100 0 174 55.5t86 159.5l8 74l8 39q-125 -129 -315 -129zM369 508q0 -100 51 -150.5t139 -50.5q117 0 187.5 88t70.5 213q0 98 -53 148.5t-137 50.5q-115 0 -186.5 -88t-71.5 -211z" glyph-name="g" horiz-adv-x="1234" unicode="g"/><glyph d="M186 1065l62 369h336l-60 -369l-35 -225h15q31 94 126 169.5t238 75.5q164 0 249 -105.5t54 -299.5l-106 -680h-336l92 598q18 109 -22.5 160t-124.5 51q-178 0 -221 -203l-97 -606h-336z" glyph-name="h" unicode="h"/><glyph d="M20 0l166 1065h338l-168 -1065h-336zM217 1343.5q0 73.5 53.5 126t126.5 52.5q72 0 126.5 -52.5t54.5 -126.5q0 -72 -54.5 -124t-126.5 -52q-74 0 -127 51.5t-53 125z" glyph-name="i" horiz-adv-x="540" unicode="i"/><glyph d="M-57 -401q-143 0 -191 6l43 260h115q106 0 129 133l170 1067h336l-176 -1116q-55 -350 -426 -350zM238 1343q0 74 54 126.5t126 52.5q74 0 128 -52.5t54 -126t-54 -125t-128 -51.5q-72 0 -126 52t-54 124z" glyph-name="j" horiz-adv-x="563" unicode="j"/><glyph d="M20 0l228 1434h336l-123 -770l422 401h356l-496 -449l383 -616h-358l-254 408l-108 -99l-50 -309h-336z" glyph-name="k" horiz-adv-x="1220" unicode="k"/><glyph d="M20 0l228 1434h336l-228 -1434h-336z" glyph-name="l" horiz-adv-x="542" unicode="l"/><glyph d="M1430 598q18 106 -19 158.5t-106 52.5q-156 0 -195 -199l-96 -610h-336l92 598q18 106 -17.5 158.5t-109.5 52.5q-152 0 -190 -201l-97 -608h-336l166 1065h338l-35 -225h15q27 92 118 168.5t220 76.5q111 0 186.5 -62t93.5 -181h4q33 92 132.5 167.5t236.5 75.5 q156 0 234.5 -105.5t48.5 -299.5l-105 -680h-336z" glyph-name="m" horiz-adv-x="1859" unicode="m"/><glyph d="M821 598q18 109 -22.5 160t-124.5 51q-178 0 -221 -203l-97 -606h-336l166 1065h338l-35 -225h15q31 94 126 169.5t238 75.5q164 0 249 -105.5t54 -299.5l-106 -680h-336z" glyph-name="n" unicode="n"/><glyph d="M510 -20q-201 0 -332 114.5t-131 343.5q0 270 178 458.5t451 188.5q201 0 332 -114.5t131 -343.5q0 -270 -178.5 -458.5t-450.5 -188.5zM369 473q0 -109 49 -162t133 -53q127 0 196.5 100.5t69.5 233.5q0 109 -49 162t-133 53q-127 0 -196.5 -100.5t-69.5 -233.5z" glyph-name="o" horiz-adv-x="1185" unicode="o"/><glyph d="M-43 -389l229 1454h338l-22 -143h2q29 63 121 113t206 50q158 0 266.5 -108.5t108.5 -323.5q0 -270 -160.5 -471.5t-404.5 -201.5q-111 0 -179.5 48t-84.5 115l-82 -532h-338zM422 473q0 -109 50 -162t130 -53q125 0 204 98.5t79 233.5q0 109 -53.5 163t-135.5 54 q-125 0 -199.5 -98.5t-74.5 -235.5z" glyph-name="p" horiz-adv-x="1249" unicode="p"/><glyph d="M666 -389l77 532q-31 -66 -122 -114.5t-203 -48.5q-158 0 -265.5 106.5t-107.5 319.5q0 281 154.5 480t390.5 199q117 0 189.5 -48t88.5 -115h2l25 143h336l-230 -1454h-335zM367 473q0 -109 51 -162t139 -53q119 0 193.5 99.5t74.5 232.5q0 111 -53 164t-141 53 q-117 0 -190.5 -99.5t-73.5 -234.5z" glyph-name="q" horiz-adv-x="1249" unicode="q"/><glyph d="M20 0l166 1065h338l-41 -264h13q106 272 338 272q41 0 81 -10l-47 -283q-49 6 -84 6q-123 0 -220 -68.5t-132 -230.5l-76 -487h-336z" glyph-name="r" horiz-adv-x="862" unicode="r"/><glyph d="M426 -20q-225 0 -332.5 97t-79.5 285h301q-2 -66 33 -95t113 -29q154 0 153 90q0 51 -94 67l-147 33q-270 61 -271 285q0 174 138.5 273t353.5 99q219 0 318.5 -102t66.5 -281h-279q6 68 -31.5 96.5t-111.5 28.5q-133 0 -133 -73q0 -57 115 -84l166 -39 q123 -29 192.5 -88.5t69.5 -177.5q0 -180 -154 -282.5t-387 -102.5z" glyph-name="s" horiz-adv-x="1040" unicode="s"/><glyph d="M500 -14q-176 0 -260 86t-54 266l74 469h-184l41 258h184l43 278h336l-45 -278h209l-39 -258h-211l-68 -422q-27 -133 97 -133h100l-43 -260q-61 -6 -180 -6z" glyph-name="t" horiz-adv-x="808" unicode="t"/><glyph d="M432 467q-18 -109 23 -160t125 -51q178 0 221 203l96 606h336l-166 -1065h-338l35 225h-14q-31 -94 -126.5 -169.5t-238.5 -75.5q-164 0 -249 105t-54 300l106 680h336z" glyph-name="u" unicode="u"/><glyph d="M330 0l-213 1065h338l129 -743h12l358 743h346l-542 -1065h-428z" glyph-name="v" horiz-adv-x="1249" unicode="v"/><glyph d="M225 0l-108 1065h313l49 -741h8l306 741h290l76 -741h6l285 741h315l-438 -1065h-383l-74 618l-258 -618h-387z" glyph-name="w" horiz-adv-x="1714" unicode="w"/><glyph d="M-33 0l451 539l-256 526h356l129 -289l211 289h367l-424 -526l282 -539h-356l-154 299l-239 -299h-367z" glyph-name="x" horiz-adv-x="1218" unicode="x"/><glyph d="M33 -129q217 -25 299 88q43 68 24 147l-239 959h340l127 -637l334 637h344l-592 -1051q-152 -266 -295.5 -359t-382.5 -67z" glyph-name="y" horiz-adv-x="1210" unicode="y"/><glyph d="M-2 0l45 281l571 503h-473l45 281h867l-45 -281l-572 -503h494l-45 -281h-887z" glyph-name="z" horiz-adv-x="1050" unicode="z"/><glyph d="M305 -266q-246 0 -207 248l78 499l-70 146l117 149l78 502q12 78 46 131t79 75.5t84 32t80 9.5h231l-45 -287h-71q-72 0 -80 -59l-68 -414l-143 -139l100 -135l-68 -412q-4 -31 12.5 -45.5t51.5 -14.5h72l-45 -286h-232z" glyph-name="braceleft" horiz-adv-x="755" unicode="{"/><glyph d="M8 -389l322 2027h286l-321 -2027h-287z" glyph-name="bar" horiz-adv-x="593" unicode="|"/><glyph d="M481 1526q246 0 207 -248l-78 -500l70 -145l-117 -150l-78 -501q-12 -78 -45.5 -131.5t-79 -76t-84 -31.5t-79.5 -9h-232l45 286h72q72 0 80 60l67 414l144 139l-101 135l68 412q4 31 -12.5 45t-51.5 14h-71l45 287h231z" glyph-name="braceright" horiz-adv-x="755" unicode="}"/><glyph d="M750 373q-88 0 -221.5 85t-213.5 85q-31 0 -56.5 -15.5t-22.5 -42.5h-134q0 129 70 213t205 84q88 0 221 -85t213 -85q29 0 55.5 15.5t24.5 42.5h133q0 -129 -69.5 -213t-204.5 -84z" glyph-name="asciitilde" horiz-adv-x="1107" unicode="~"/><glyph glyph-name="uni00A0" horiz-adv-x="471" unicode=" "/><glyph d="M438 543l-104 -912h-340l190 912h254zM164 891q0 82 57.5 138t140.5 56q82 0 140.5 -56t58.5 -138t-58.5 -138.5t-140.5 -56.5q-84 0 -141 56.5t-57 138.5z" glyph-name="exclamdown" horiz-adv-x="610" unicode="¡"/><glyph d="M438 -82l35 217q-174 16 -288.5 124t-114.5 319q0 252 159.5 434t415.5 202l35 220h117l-35 -220q76 -6 138.5 -28.5t119.5 -69.5t87 -134t21 -206h-294q-2 131 -117 160l-82 -522q121 29 170 159h295q-29 -117 -87.5 -202.5t-131 -134t-144 -72t-147.5 -29.5l-35 -217 h-117zM385 612q0 -170 133 -198l82 522q-104 -23 -159.5 -116t-55.5 -208z" glyph-name="cent" horiz-adv-x="1153" unicode="¢"/><glyph d="M27 172q254 207 254 381q0 25 -2 35h-187l29 176h92q-37 88 -37 178q0 217 171 361.5t409 144.5q209 0 341 -113.5t101 -312.5l-6 -39h-320l2 31q10 45 -24.5 96t-136.5 51q-98 0 -153.5 -55t-55.5 -139q0 -27 7 -55.5t14 -47t22.5 -51.5t21.5 -49h217l-28 -176h-152 q-10 -172 -250 -326q86 29 172 27t153 -17.5t169 -16.5t221 28l-47 -283q-133 -27 -257 -18.5t-213 31t-205 19.5t-232 -52z" glyph-name="sterling" horiz-adv-x="1202" unicode="£"/><glyph d="M735 516q-127 0 -235 64l-74 -74l-211 209l92 92q-31 80 -31 168q0 94 35 176l-96 98l211 209l84 -84q100 59 225 60q127 0 232 -64l88 88l213 -209l-107 -106q33 -82 33 -168q0 -84 -29 -160l103 -100l-213 -209l-78 78q-109 -68 -242 -68zM549 974.5q0 -20.5 6 -45 t22.5 -60t57.5 -58.5t100.5 -23t100.5 23t58 57.5t23.5 60t6.5 46t-6.5 45t-23.5 59.5t-58 58.5t-100.5 23.5t-100.5 -22.5t-57.5 -58.5t-22.5 -60.5t-6 -45z" glyph-name="currency" horiz-adv-x="1339" unicode="¤"/><glyph d="M297 336l29 194h227l-367 904h392l208 -582l394 582h395l-653 -904h231l-29 -194h-239l-11 -53h240l-29 -193h-241l-15 -90h-354l14 90h-231l29 193h233l8 53h-231z" glyph-name="yen" horiz-adv-x="1472" unicode="¥"/><glyph d="M225 983l105 655h286l-104 -655h-287zM8 -389l103 655h286l-102 -655h-287z" glyph-name="brokenbar" horiz-adv-x="593" unicode="¦"/><glyph d="M555 -483q-270 0 -413.5 123.5t-121.5 365.5h377q-2 -92 49.5 -135t163.5 -43q106 0 174 33t76 94q12 68 -21.5 99.5t-136.5 56.5l-172 41q-100 25 -166.5 51t-126 72.5t-81 122t-4.5 177.5q25 143 120 240q-49 92 -26 227q31 190 204 299t422 109q244 0 384.5 -110.5 t127.5 -331.5h-374q4 78 -49.5 104.5t-137.5 26.5q-94 0 -144 -32t-56 -77q-4 -27 0 -44t28.5 -37.5t73.5 -33.5l213 -51q244 -59 333 -164.5t60 -289.5q-20 -133 -117 -234q43 -86 25 -225q-35 -223 -227.5 -328.5t-456.5 -105.5zM524 563q-23 -80 107 -114l213 -52 q20 -4 54 -14t42 -12q12 25 14 43q12 68 -22.5 102.5t-134.5 61.5l-172 40l-62 17q-33 -33 -39 -72z" glyph-name="section" horiz-adv-x="1454" unicode="§"/><glyph d="M827.5 1167q-73.5 0 -127 51.5t-53.5 125t53.5 126t127 52.5t127 -52.5t53.5 -126t-53.5 -125t-127 -51.5zM129 1343.5q0 73.5 54.5 126t127.5 52.5q72 0 126.5 -52.5t54.5 -126.5q0 -72 -54.5 -124t-126.5 -52q-74 0 -128 51.5t-54 125z" glyph-name="dieresis" horiz-adv-x="880" unicode="¨"/><glyph d="M713 -14q-270 0 -444.5 170t-174.5 440q0 336 260 593t604 257q270 0 444.5 -170t174.5 -440q0 -334 -260 -592t-604 -258zM287 629q0 -205 129 -332t329 -127q256 0 446.5 189.5t190.5 445.5q0 203 -127 330t-327 127q-258 0 -449.5 -188.5t-191.5 -444.5zM446 645 q0 197 136.5 333t322.5 136q51 0 99.5 -12t97.5 -43t78.5 -94.5t29.5 -153.5h-196q-2 55 -43 84t-101 29q-96 0 -154.5 -72t-58.5 -174q0 -84 42 -127t112 -43q57 0 105.5 29.5t68.5 87.5h197q-37 -119 -112 -192t-144.5 -94.5t-145.5 -21.5q-145 0 -239.5 85t-94.5 243z " glyph-name="copyright" horiz-adv-x="1607" unicode="©"/><glyph d="M317 762q-88 0 -143 41t-55 133q0 106 76.5 167.5t205.5 72.5l185 10q12 68 -10.5 93.5t-75.5 25.5q-113 0 -123 -82h-191q29 248 334 247q184 0 239.5 -81.5t26.5 -260.5l-57 -362h-174l6 117q-86 -121 -244 -121zM352 987q0 -53 66 -53q109 0 143 88l8 41l-141 -12 q-76 -7 -76 -64z" glyph-name="ordfeminine" horiz-adv-x="796" unicode="ª"/><glyph d="M846 180l-322 295l43 273l416 294l-47 -297l-191 -135l146 -129zM72 475l45 273l413 294l-47 -297l-190 -135l147 -129l-47 -301z" glyph-name="guillemotleft" horiz-adv-x="983" unicode="«"/><glyph d="M621 186l30 197h-569l37 256h907l-70 -453h-335z" glyph-name="logicalnot" horiz-adv-x="1112" unicode="¬"/><glyph d="M66 438l43 250h649l-43 -250h-649z" glyph-name="uni00AD" horiz-adv-x="813" unicode="­"/><glyph d="M713 -14q-270 0 -444.5 170t-174.5 440q0 336 260 593t604 257q270 0 444.5 -170t174.5 -440q0 -334 -260 -592t-604 -258zM287 629q0 -205 129 -332t329 -127q256 0 446.5 189.5t190.5 445.5q0 203 -127 330t-327 127q-258 0 -449.5 -188.5t-191.5 -444.5zM479 379 l109 678h379q115 0 175 -53.5t60 -149.5q0 -88 -48 -150.5t-130 -91.5l117 -233h-213l-103 211h-108l-33 -211h-205zM741 750h156q104 0 104 79q0 61 -79 62h-156z" glyph-name="registered" horiz-adv-x="1607" unicode="®"/><glyph d="M119 1286l31 191h690l-31 -191h-690z" glyph-name="macron" horiz-adv-x="690" unicode="¯"/><glyph d="M473 860q-131 0 -218 88t-87 215t87 215t218 88q133 0 220 -88t87 -215t-87 -215t-220 -88zM391 1163q0 -29 20.5 -55.5t61.5 -26.5q43 0 63.5 27t20.5 55q0 31 -20.5 57.5t-63.5 26.5q-41 0 -61.5 -26.5t-20.5 -57.5z" glyph-name="degree" horiz-adv-x="747" unicode="°"/><glyph d="M213 0l45 252h700l-45 -252h-700zM158 854l45 289h375l59 375h309l-59 -375h383l-47 -289h-381l-60 -379h-309l59 379h-374z" glyph-name="plusminus" horiz-adv-x="1275" unicode="±"/><glyph d="M145 909q14 94 51 154.5t136 112.5q8 4 27.5 13t28.5 13t22.5 12.5t20.5 16.5t13.5 19.5t8.5 25.5q4 25 -15.5 39t-40.5 14q-23 0 -46 -16.5t-25 -48.5l-2 -17h-127l2 17q10 80 68.5 130t150.5 50q94 0 135 -49t29 -123q-4 -25 -15.5 -47.5t-23 -36.5t-37 -32.5 t-37.5 -27t-47 -28t-45 -25.5q-55 -31 -70 -47l-2 -16h232l-17 -111h-377z" glyph-name="uni00B2" horiz-adv-x="546" unicode="²"/><glyph d="M348 893q-98 0 -145 48t-35 126h117q-2 -35 18.5 -53.5t54.5 -18.5q88 0 95 72q4 27 -17.5 48.5t-68.5 21.5h-23l14 88h23q72 0 86 53q6 27 -10.5 45t-46.5 18q-25 0 -47.5 -16t-26.5 -49h-117q10 78 67.5 123t139.5 45q84 0 126 -40t34 -104q-6 -47 -38 -76.5t-69 -37.5 q39 0 70 -33t20 -98q-12 -74 -70.5 -118t-150.5 -44z" glyph-name="uni00B3" horiz-adv-x="569" unicode="³"/><glyph d="M104 1188l265 289h288l-264 -289h-289z" glyph-name="acute" horiz-adv-x="507" unicode="´"/><glyph d="M-43 -389l229 1454h338l-92 -598q-18 -109 23 -160t125 -51q178 0 221 203l96 606h336l-166 -1065h-338l35 225h-14q-31 -94 -126.5 -169.5t-238.5 -75.5l-33 2l-57 -371h-338z" glyph-name="uni00B5" unicode="µ"/><glyph d="M463 -451l164 1039h-84q-203 0 -310.5 105.5t-107.5 260.5q0 197 165 338.5t388 141.5h848l-31 -195l-268 -1690h-271l269 1690h-197l-268 -1690h-297z" glyph-name="paragraph" horiz-adv-x="1486" unicode="¶"/><glyph d="M291 373q-82 0 -140.5 56t-58.5 138t58.5 138.5t140.5 56.5q84 0 141 -56.5t57 -138.5t-57 -138t-141 -56z" glyph-name="periodcentered" horiz-adv-x="569" unicode="·"/><glyph d="M-59 -373q61 -2 102 17.5t41 58.5q0 41 -42 49t-81 -18l-70 110l170 156h218l-140 -117h8q76 0 120 -43t44 -116q0 -127 -114.5 -191.5t-284.5 -64.5z" glyph-name="cedilla" horiz-adv-x="442" unicode="¸"/><glyph d="M319 1274q-45 -55 -124 -35l18 121q37 -6 76 18.5t55 55.5h121l-84 -535h-121z" glyph-name="uni00B9" horiz-adv-x="413" unicode="¹"/><glyph d="M475 762q-141 0 -236.5 81t-95.5 228q0 164 118 281.5t290 117.5q137 0 228 -79.5t91 -227.5q0 -166 -111.5 -283.5t-283.5 -117.5zM371 1096q0 -59 30.5 -94t87.5 -35q70 0 113 49t43 119q0 59 -31.5 95t-87.5 36q-68 0 -111.5 -49t-43.5 -121z" glyph-name="ordmasculine" horiz-adv-x="827" unicode="º"/><glyph d="M160 1042l321 -294l-43 -273l-415 -295l47 297l190 135l-145 129zM475 180l47 297l191 135l-148 129l47 301l322 -294l-45 -273z" glyph-name="guillemotright" horiz-adv-x="980" unicode="»"/><glyph d="M319 1274q-45 -55 -124 -35l18 121q37 -6 76 18.5t55 55.5h121l-84 -535h-121zM-16 0l1120 1434h164l-1121 -1434h-163zM674 135l16 98l285 302h121l-47 -302h61l-16 -98h-62l-20 -135h-121l20 135h-237zM795 233h133l26 166z" glyph-name="onequarter" horiz-adv-x="1247" unicode="¼"/><glyph d="M311 1274q-45 -55 -125 -35l19 121q37 -6 75.5 18.5t55.5 55.5h121l-84 -535h-121zM-8 0l1120 1434h164l-1120 -1434h-164zM670 0l2 8q14 94 51 154.5t135 111.5q8 4 27.5 13.5t29 13.5t22.5 12.5t20.5 16.5t13.5 19t8 26q4 25 -15.5 39t-39.5 14q-23 0 -46.5 -16.5 t-25.5 -49.5l-2 -16h-127l2 16q10 80 68.5 130.5t150.5 50.5q94 0 135 -49.5t29 -122.5q-4 -25 -15.5 -47.5t-22.5 -37t-36.5 -32.5t-38 -26.5t-47.5 -28t-45 -25.5q-55 -31 -69 -47l-3 -16h232l-16 -111h-377z" glyph-name="onehalf" horiz-adv-x="1222" unicode="½"/><glyph d="M348 893q-98 0 -145 48t-35 126h117q-2 -35 18.5 -53.5t54.5 -18.5q88 0 95 72q4 27 -17.5 48.5t-68.5 21.5h-23l14 88h23q72 0 86 53q6 27 -10.5 45t-46.5 18q-25 0 -47.5 -16t-26.5 -49h-117q10 78 67.5 123t139.5 45q84 0 126 -40t34 -104q-6 -47 -38 -76.5t-69 -37.5 q39 0 70 -33t20 -98q-12 -74 -70.5 -118t-150.5 -44zM-47 0l1120 1434h164l-1120 -1434h-164zM717 135l16 98l285 302h121l-47 -302h61l-16 -98h-62l-20 -135h-121l20 135h-237zM838 233h133l26 166z" glyph-name="threequarters" horiz-adv-x="1239" unicode="¾"/><glyph d="M731 535q-18 -102 -62 -177t-94.5 -114t-99.5 -70t-84 -65.5t-41 -79.5q-6 -27 -1 -51.5t38 -49t90 -24.5q176 0 213 217h336q-20 -137 -75.5 -237.5t-136.5 -157t-172 -83t-196 -26.5q-219 0 -341.5 109.5t-90.5 304.5q14 84 51 141t83.5 88t91.5 60.5t82.5 82 t52.5 129.5l8 48h356zM418 891q0 82 57 138t141 56q82 0 140.5 -56t58.5 -138t-58.5 -138.5t-140.5 -56.5q-84 0 -141 56.5t-57 138.5z" glyph-name="questiondown" horiz-adv-x="1181" unicode="¿"/><glyph d="M-53 0l739 1434h447l282 -1434h-356l-43 244h-582l-119 -244h-368zM559 498h412l-105 587h-18zM612 1845h291l172 -289h-291z" glyph-name="Agrave" horiz-adv-x="1529" unicode="À"/><glyph d="M-53 0l739 1434h447l282 -1434h-356l-43 244h-582l-119 -244h-368zM559 498h412l-105 587h-18zM774 1556l264 289h289l-264 -289h-289z" glyph-name="Aacute" horiz-adv-x="1529" unicode="Á"/><glyph d="M-53 0l739 1434h447l282 -1434h-356l-43 244h-582l-119 -244h-368zM502 1550l231 295h488l137 -295h-311l-89 195l-143 -195h-313zM559 498h412l-105 587h-18z" glyph-name="Acircumflex" horiz-adv-x="1529" unicode="Â"/><glyph d="M-53 0l739 1434h447l282 -1434h-356l-43 244h-582l-119 -244h-368zM559 498h412l-105 587h-18zM590 1622q14 117 79.5 182.5t170.5 65.5q68 0 116 -26.5t76.5 -53.5t52.5 -27q66 0 74 52h195q-14 -117 -80 -183.5t-170 -66.5q-51 0 -92 17t-61.5 36.5t-45 37t-47.5 17.5 q-66 0 -74 -51h-194z" glyph-name="Atilde" horiz-adv-x="1529" unicode="Ã"/><glyph d="M-53 0l739 1434h447l282 -1434h-356l-43 244h-582l-119 -244h-368zM514 1712q0 74 54.5 126t127.5 52q72 0 126.5 -52t54.5 -126q0 -72 -54.5 -124t-126.5 -52q-74 0 -128 51t-54 125zM559 498h412l-105 587h-18zM1032 1712q0 74 53.5 126t127 52t127 -52t53.5 -126 t-53.5 -125t-127 -51t-127 51t-53.5 125z" glyph-name="Adieresis" horiz-adv-x="1529" unicode="Ä"/><glyph d="M-53 0l739 1434h447l282 -1434h-356l-43 244h-582l-119 -244h-368zM559 498h412l-105 587h-18zM735 1718q0 90 63.5 151.5t158 61.5t157 -61.5t62.5 -151.5t-62.5 -151.5t-157 -61.5t-158 61.5t-63.5 151.5zM889 1718.5q0 -30.5 18.5 -49t48.5 -18.5q29 0 48.5 18.5 t19.5 49t-19.5 49t-48 18.5t-48 -18.5t-19.5 -49z" glyph-name="Aring" horiz-adv-x="1529" unicode="Å"/><glyph d="M-53 0l1192 1434h999l-49 -299h-653l-47 -279h591l-41 -266h-591l-41 -291h673l-51 -299h-1016l37 238h-442l-197 -238h-364zM731 506h262l62 389z" glyph-name="AE" horiz-adv-x="2066" unicode="Æ"/><glyph d="M465 -373q61 -2 102 17.5t41 58.5q0 41 -42 49t-81 -18l-69 110l155 142q-229 31 -352 187.5t-123 426.5q0 362 210 607t566 245q260 0 414 -136t135 -401h-329q-10 127 -80 183.5t-172 56.5q-131 0 -224.5 -83t-131.5 -196.5t-38 -242.5q0 -166 69 -261.5t210 -95.5 q211 0 307 242h330q-53 -244 -207 -376t-369 -156l-122 -103h8q76 0 120 -43t44 -116q0 -127 -115 -191.5t-285 -64.5z" glyph-name="Ccedilla" horiz-adv-x="1425" unicode="Ç"/><glyph d="M20 0l228 1434h997l-49 -299h-653l-47 -279h591l-40 -266h-592l-41 -291h673l-51 -299h-1016zM475 1845h291l172 -289h-291z" glyph-name="Egrave" horiz-adv-x="1173" unicode="È"/><glyph d="M20 0l228 1434h997l-49 -299h-653l-47 -279h591l-40 -266h-592l-41 -291h673l-51 -299h-1016zM639 1556l264 289h289l-264 -289h-289z" glyph-name="Eacute" horiz-adv-x="1173" unicode="É"/><glyph d="M20 0l228 1434h997l-49 -299h-653l-47 -279h591l-40 -266h-592l-41 -291h673l-51 -299h-1016zM367 1550l231 295h487l138 -295h-312l-88 195l-143 -195h-313z" glyph-name="Ecircumflex" horiz-adv-x="1173" unicode="Ê"/><glyph d="M20 0l228 1434h997l-49 -299h-653l-47 -279h591l-40 -266h-592l-41 -291h673l-51 -299h-1016zM377 1712q0 74 54 126t128 52q72 0 126 -52t54 -126q0 -72 -54 -124t-126 -52q-74 0 -128 51t-54 125zM895 1712q0 74 53 126t127 52t127 -52t53 -126t-53 -125t-127 -51 t-127 51t-53 125z" glyph-name="Edieresis" horiz-adv-x="1173" unicode="Ë"/><glyph d="M20 0l228 1434h342l-228 -1434h-342zM117 1845h291l172 -289h-291z" glyph-name="Igrave" horiz-adv-x="550" unicode="Ì"/><glyph d="M20 0l228 1434h342l-228 -1434h-342zM279 1556l264 289h288l-264 -289h-288z" glyph-name="Iacute" horiz-adv-x="550" unicode="Í"/><glyph d="M20 0l228 1434h342l-228 -1434h-342zM6 1550l232 295h487l137 -295h-311l-88 195l-144 -195h-313z" glyph-name="Icircumflex" horiz-adv-x="550" unicode="Î"/><glyph d="M20 0l228 1434h342l-228 -1434h-342zM18 1712q0 74 54.5 126t128.5 52q72 0 126 -52t54 -126q0 -72 -54.5 -124t-125.5 -52q-74 0 -128.5 51t-54.5 125zM537 1712q0 74 53 126t127 52t127 -52t53 -126t-53 -125t-127 -51t-127 51t-53 125z" glyph-name="Idieresis" horiz-adv-x="550" unicode="Ï"/><glyph d="M96 0l92 578h-161l43 249h157l97 607h555q283 0 429 -149.5t146 -444.5q0 -371 -207 -605.5t-577 -234.5h-574zM489 299h175q158 0 259 75t141 187.5t40 263.5q0 174 -65.5 242t-231.5 68h-189l-47 -308h148l-43 -249h-144z" glyph-name="Eth" horiz-adv-x="1495" unicode="Ð"/><glyph d="M20 0l228 1434h354l383 -871h8l142 871h344l-228 -1434h-368l-379 848h-8l-134 -848h-342zM539 1622q14 117 79.5 182.5t169.5 65.5q68 0 116 -26.5t77 -53.5t53 -27q66 0 74 52h195q-14 -117 -80 -183.5t-170 -66.5q-51 0 -92 17t-61.5 36.5t-45.5 37t-47 17.5 q-66 0 -74 -51h-194z" glyph-name="Ntilde" horiz-adv-x="1437" unicode="Ñ"/><glyph d="M692 -20q-281 0 -439.5 166.5t-158.5 453.5q0 354 221.5 603t567.5 249q283 0 439.5 -165t156.5 -449q0 -356 -220.5 -607t-566.5 -251zM446 610q0 -334 271 -334q131 0 226 85t138 207t43 259q0 328 -266 328q-193 0 -302.5 -165t-109.5 -380zM600 1845h291l172 -289 h-291z" glyph-name="Ograve" horiz-adv-x="1515" unicode="Ò"/><glyph d="M692 -20q-281 0 -439.5 166.5t-158.5 453.5q0 354 221.5 603t567.5 249q283 0 439.5 -165t156.5 -449q0 -356 -220.5 -607t-566.5 -251zM446 610q0 -334 271 -334q131 0 226 85t138 207t43 259q0 328 -266 328q-193 0 -302.5 -165t-109.5 -380zM764 1556l264 289h289 l-264 -289h-289z" glyph-name="Oacute" horiz-adv-x="1515" unicode="Ó"/><glyph d="M692 -20q-281 0 -439.5 166.5t-158.5 453.5q0 354 221.5 603t567.5 249q283 0 439.5 -165t156.5 -449q0 -356 -220.5 -607t-566.5 -251zM446 610q0 -334 271 -334q131 0 226 85t138 207t43 259q0 328 -266 328q-193 0 -302.5 -165t-109.5 -380zM492 1550l231 295h487 l138 -295h-312l-88 195l-143 -195h-313z" glyph-name="Ocircumflex" horiz-adv-x="1515" unicode="Ô"/><glyph d="M692 -20q-281 0 -439.5 166.5t-158.5 453.5q0 354 221.5 603t567.5 249q283 0 439.5 -165t156.5 -449q0 -356 -220.5 -607t-566.5 -251zM446 610q0 -334 271 -334q131 0 226 85t138 207t43 259q0 328 -266 328q-193 0 -302.5 -165t-109.5 -380zM578 1622 q14 117 79.5 182.5t169.5 65.5q68 0 116 -26.5t77 -53.5t53 -27q66 0 74 52h194q-14 -117 -79.5 -183.5t-169.5 -66.5q-51 0 -92.5 17t-61.5 36.5t-45 37t-47 17.5q-66 0 -74 -51h-194z" glyph-name="Otilde" horiz-adv-x="1515" unicode="Õ"/><glyph d="M692 -20q-281 0 -439.5 166.5t-158.5 453.5q0 354 221.5 603t567.5 249q283 0 439.5 -165t156.5 -449q0 -356 -220.5 -607t-566.5 -251zM446 610q0 -334 271 -334q131 0 226 85t138 207t43 259q0 328 -266 328q-193 0 -302.5 -165t-109.5 -380zM502 1712q0 74 54 126 t128 52q72 0 126 -52t54 -126q0 -72 -54 -124t-126 -52q-74 0 -128 51t-54 125zM1020 1712q0 74 53 126t127 52t127 -52t53 -126t-53 -125t-127 -51t-127 51t-53 125z" glyph-name="Odieresis" horiz-adv-x="1515" unicode="Ö"/><glyph d="M225 35l-170 203l322 274l-234 276l240 201l231 -274l322 274l170 -201l-320 -274l234 -276l-240 -203l-233 276z" glyph-name="multiply" horiz-adv-x="1169" unicode="×"/><glyph d="M86 -102l170 245q-162 166 -162 457q0 354 221.5 603t567.5 249q139 0 258 -45l82 119h278l-172 -246q150 -162 150 -442q0 -356 -220.5 -607t-566.5 -251q-129 0 -241 38l-84 -120h-281zM446 610q0 -90 23 -164l485 695q-41 14 -96 14q-193 0 -302.5 -165t-109.5 -380z M637 285q33 -8 80 -9q131 0 226 85t138 207t43 259q0 80 -14 136z" glyph-name="Oslash" horiz-adv-x="1515" unicode="Ø"/><glyph d="M623 -20q-279 0 -420.5 142t-96.5 423l142 889h346l-137 -863q-23 -143 37.5 -217.5t183.5 -74.5q238 0 285 292l137 863h348l-141 -889q-47 -281 -229.5 -423t-454.5 -142zM520 1845h291l172 -289h-291z" glyph-name="Ugrave" horiz-adv-x="1409" unicode="Ù"/><glyph d="M623 -20q-279 0 -420.5 142t-96.5 423l142 889h346l-137 -863q-23 -143 37.5 -217.5t183.5 -74.5q238 0 285 292l137 863h348l-141 -889q-47 -281 -229.5 -423t-454.5 -142zM682 1556l264 289h289l-264 -289h-289z" glyph-name="Uacute" horiz-adv-x="1409" unicode="Ú"/><glyph d="M623 -20q-279 0 -420.5 142t-96.5 423l142 889h346l-137 -863q-23 -143 37.5 -217.5t183.5 -74.5q238 0 285 292l137 863h348l-141 -889q-47 -281 -229.5 -423t-454.5 -142zM410 1550l231 295h487l138 -295h-312l-88 195l-143 -195h-313z" glyph-name="Ucircumflex" horiz-adv-x="1409" unicode="Û"/><glyph d="M623 -20q-279 0 -420.5 142t-96.5 423l142 889h346l-137 -863q-23 -143 37.5 -217.5t183.5 -74.5q238 0 285 292l137 863h348l-141 -889q-47 -281 -229.5 -423t-454.5 -142zM422 1712q0 74 54 126t128 52q72 0 126 -52t54 -126q0 -72 -54 -124t-126 -52q-74 0 -128 51 t-54 125zM940 1712q0 74 53.5 126t127 52t126.5 -52t53 -126t-53 -125t-126.5 -51t-127 51t-53.5 125z" glyph-name="Udieresis" horiz-adv-x="1409" unicode="Ü"/><glyph d="M475 0l82 518l-371 916h392l208 -582l394 582h395l-662 -916l-84 -518h-354zM741 1556l265 289h288l-264 -289h-289z" glyph-name="Yacute" horiz-adv-x="1472" unicode="Ý"/><glyph d="M20 0l228 1434h344l-37 -228h283q489 0 489 -411q0 -256 -174 -410t-469 -154h-285l-37 -231h-342zM446 528h273q117 0 184.5 59.5t67.5 160.5q0 162 -193 161h-270z" glyph-name="Thorn" horiz-adv-x="1347" unicode="Þ"/><glyph d="M168 946q82 506 598 506q217 0 346 -89t129 -255q0 -123 -68.5 -207t-181.5 -100q96 -16 166 -94t70 -230q0 -229 -172 -353t-463 -124h-66l45 287h64q119 0 187.5 49t68.5 143q0 168 -240 168h-22l37 252h24q98 0 151.5 39t53.5 104q0 123 -158 123q-106 0 -160.5 -53 t-72.5 -166l-148 -946h-336z" glyph-name="germandbls" horiz-adv-x="1294" unicode="ß"/><glyph d="M303 -20q-127 0 -210 60t-83 200q0 295 436 364l170 29q70 10 98.5 27.5t37.5 50.5l4 20q12 53 -19.5 83t-103.5 30q-150 0 -176 -121l-4 -21l-316 -4l8 56q53 332 527 331q244 0 343 -86t70 -258l-118 -741h-320l31 186h-14q-107 -206 -361 -206zM354 307q0 -90 117 -90 q84 0 148.5 45t74.5 109l21 106q-12 -12 -30.5 -19t-33 -11.5t-38 -8.5t-33.5 -6l-115 -20q-111 -21 -111 -105zM369 1477h290l172 -289h-290z" glyph-name="agrave" horiz-adv-x="1155" unicode="à"/><glyph d="M303 -20q-127 0 -210 60t-83 200q0 295 436 364l170 29q70 10 98.5 27.5t37.5 50.5l4 20q12 53 -19.5 83t-103.5 30q-150 0 -176 -121l-4 -21l-316 -4l8 56q53 332 527 331q244 0 343 -86t70 -258l-118 -741h-320l31 186h-14q-107 -206 -361 -206zM354 307q0 -90 117 -90 q84 0 148.5 45t74.5 109l21 106q-12 -12 -30.5 -19t-33 -11.5t-38 -8.5t-33.5 -6l-115 -20q-111 -21 -111 -105zM530 1188l265 289h288l-264 -289h-289z" glyph-name="aacute" horiz-adv-x="1155" unicode="á"/><glyph d="M303 -20q-127 0 -210 60t-83 200q0 295 436 364l170 29q70 10 98.5 27.5t37.5 50.5l4 20q12 53 -19.5 83t-103.5 30q-150 0 -176 -121l-4 -21l-316 -4l8 56q53 332 527 331q244 0 343 -86t70 -258l-118 -741h-320l31 186h-14q-107 -206 -361 -206zM260 1182l232 295h487 l137 -295h-311l-88 194l-144 -194h-313zM354 307q0 -90 117 -90q84 0 148.5 45t74.5 109l21 106q-12 -12 -30.5 -19t-33 -11.5t-38 -8.5t-33.5 -6l-115 -20q-111 -21 -111 -105z" glyph-name="acircumflex" horiz-adv-x="1155" unicode="â"/><glyph d="M303 -20q-127 0 -210 60t-83 200q0 295 436 364l170 29q70 10 98.5 27.5t37.5 50.5l4 20q12 53 -19.5 83t-103.5 30q-150 0 -176 -121l-4 -21l-316 -4l8 56q53 332 527 331q244 0 343 -86t70 -258l-118 -741h-320l31 186h-14q-107 -206 -361 -206zM346 1253 q14 117 80 182.5t170 65.5q68 0 116 -26.5t76.5 -53t53.5 -26.5q66 0 73 51h195q-14 -117 -79.5 -183.5t-170.5 -66.5q-51 0 -92 17.5t-61.5 37t-45 37t-47.5 17.5q-66 0 -73 -52h-195zM354 307q0 -90 117 -90q84 0 148.5 45t74.5 109l21 106q-12 -12 -30.5 -19t-33 -11.5 t-38 -8.5t-33.5 -6l-115 -20q-111 -21 -111 -105z" glyph-name="atilde" horiz-adv-x="1155" unicode="ã"/><glyph d="M303 -20q-127 0 -210 60t-83 200q0 295 436 364l170 29q70 10 98.5 27.5t37.5 50.5l4 20q12 53 -19.5 83t-103.5 30q-150 0 -176 -121l-4 -21l-316 -4l8 56q53 332 527 331q244 0 343 -86t70 -258l-118 -741h-320l31 186h-14q-107 -206 -361 -206zM270 1343.5 q0 73.5 54.5 126t128.5 52.5q72 0 126 -52.5t54 -126.5q0 -72 -54.5 -124t-125.5 -52q-74 0 -128.5 51.5t-54.5 125zM354 307q0 -90 117 -90q84 0 148.5 45t74.5 109l21 106q-12 -12 -30.5 -19t-33 -11.5t-38 -8.5t-33.5 -6l-115 -20q-111 -21 -111 -105zM788 1343.5 q0 73.5 53.5 126t127 52.5t127 -52.5t53.5 -126t-53.5 -125t-127 -51.5t-127 51.5t-53.5 125z" glyph-name="adieresis" horiz-adv-x="1155" unicode="ä"/><glyph d="M303 -20q-127 0 -210 60t-83 200q0 295 436 364l170 29q70 10 98.5 27.5t37.5 50.5l4 20q12 53 -19.5 83t-103.5 30q-150 0 -176 -121l-4 -21l-316 -4l8 56q53 332 527 331q244 0 343 -86t70 -258l-118 -741h-320l31 186h-14q-107 -206 -361 -206zM354 307q0 -90 117 -90 q84 0 148.5 45t74.5 109l21 106q-12 -12 -30.5 -19t-33 -11.5t-38 -8.5t-33.5 -6l-115 -20q-111 -21 -111 -105zM492 1350q0 90 63 151.5t157.5 61.5t157 -61.5t62.5 -151.5t-62.5 -151.5t-157 -61.5t-157.5 61.5t-63 151.5zM645 1349.5q0 -30.5 18.5 -49t49.5 -18.5 q29 0 48 18.5t19 49t-19.5 49t-48 18.5t-48 -18.5t-19.5 -49z" glyph-name="aring" horiz-adv-x="1155" unicode="å"/><glyph d="M354 -20q-342 0 -342 276q0 174 126 269.5t327 95.5h268l15 96q10 66 -27 91.5t-103 25.5q-41 0 -67.5 -5.5t-57 -33t-40.5 -78.5l-4 -19l-304 -4l11 66q23 158 151.5 241.5t354.5 83.5q229 0 313 -104q154 104 360 104q203 0 327 -102t124 -330q0 -135 -31 -207h-723 q4 -127 52.5 -176t142.5 -49q92 0 137 34t74 97h295q-66 -184 -208.5 -282.5t-342.5 -98.5q-283 0 -400 193q-149 -184 -428 -184zM352 313q0 -92 121 -92q92 0 151.5 50.5t71.5 123.5l6 43h-186q-66 0 -115 -34t-49 -91zM1049 625h430q10 90 -33 148t-150 58 q-192 1 -247 -206z" glyph-name="ae" horiz-adv-x="1832" unicode="æ"/><glyph d="M289 -373q61 -2 102 17.5t41 58.5q0 41 -42 49t-81 -18l-69 110l157 146q-154 29 -252 137.5t-98 304.5q0 274 177 463.5t456 189.5q63 0 120.5 -10t118 -39.5t103.5 -78t66.5 -131.5t17.5 -191h-295q-2 170 -178 170q-131 0 -201 -101.5t-70 -234.5q0 -209 189 -209 q168 0 231 168h295q-35 -145 -115.5 -243.5t-165.5 -140.5t-184 -56l-125 -105h9q76 0 119.5 -43t43.5 -116q0 -127 -114.5 -191.5t-284.5 -64.5z" glyph-name="ccedilla" horiz-adv-x="1153" unicode="ç"/><glyph d="M512 -29q-94 0 -174 24.5t-147.5 77t-105.5 147.5t-38 222q0 279 168 461t451 182q203 0 326.5 -102t123.5 -330q0 -135 -31 -207h-723q4 -127 52.5 -176t142.5 -49q92 0 137 34t74 97h295q-66 -184 -208 -282.5t-343 -98.5zM362 1477h291l172 -289h-290zM379 625h430 q10 90 -33 148t-149 58q-193 1 -248 -206z" glyph-name="egrave" horiz-adv-x="1163" unicode="è"/><glyph d="M512 -29q-94 0 -174 24.5t-147.5 77t-105.5 147.5t-38 222q0 279 168 461t451 182q203 0 326.5 -102t123.5 -330q0 -135 -31 -207h-723q4 -127 52.5 -176t142.5 -49q92 0 137 34t74 97h295q-66 -184 -208 -282.5t-343 -98.5zM379 625h430q10 90 -33 148t-149 58 q-193 1 -248 -206zM526 1188l265 289h288l-264 -289h-289z" glyph-name="eacute" horiz-adv-x="1163" unicode="é"/><glyph d="M512 -29q-94 0 -174 24.5t-147.5 77t-105.5 147.5t-38 222q0 279 168 461t451 182q203 0 326.5 -102t123.5 -330q0 -135 -31 -207h-723q4 -127 52.5 -176t142.5 -49q92 0 137 34t74 97h295q-66 -184 -208 -282.5t-343 -98.5zM254 1182l231 295h488l137 -295h-311l-88 194 l-144 -194h-313zM379 625h430q10 90 -33 148t-149 58q-193 1 -248 -206z" glyph-name="ecircumflex" horiz-adv-x="1163" unicode="ê"/><glyph d="M512 -29q-94 0 -174 24.5t-147.5 77t-105.5 147.5t-38 222q0 279 168 461t451 182q203 0 326.5 -102t123.5 -330q0 -135 -31 -207h-723q4 -127 52.5 -176t142.5 -49q92 0 137 34t74 97h295q-66 -184 -208 -282.5t-343 -98.5zM264 1343.5q0 73.5 54.5 126t127.5 52.5 q72 0 126.5 -52.5t54.5 -126.5q0 -72 -54.5 -124t-126.5 -52q-74 0 -128 51.5t-54 125zM379 625h430q10 90 -33 148t-149 58q-193 1 -248 -206zM782 1343.5q0 73.5 53.5 126t127 52.5t127 -52.5t53.5 -126t-53.5 -125t-127 -51.5t-127 51.5t-53.5 125z" glyph-name="edieresis" horiz-adv-x="1163" unicode="ë"/><glyph d="M2 0l168 1065h336l-168 -1065h-336zM37 1477h291l172 -289h-291z" glyph-name="igrave" horiz-adv-x="514" unicode="ì"/><glyph d="M2 0l168 1065h336l-168 -1065h-336zM201 1188l264 289h289l-265 -289h-288z" glyph-name="iacute" horiz-adv-x="514" unicode="í"/><glyph d="M2 0l168 1065h336l-168 -1065h-336zM-72 1182l232 295h487l137 -295h-311l-88 194l-143 -194h-314z" glyph-name="icircumflex" horiz-adv-x="514" unicode="î"/><glyph d="M2 0l168 1065h336l-168 -1065h-336zM-61 1343.5q0 73.5 54 126t128 52.5q72 0 126 -52.5t54 -126.5q0 -72 -54 -124t-126 -52q-74 0 -128 51.5t-54 125zM457 1343.5q0 73.5 53 126t127 52.5t127 -52.5t53 -126t-53 -125t-127 -51.5t-127 51.5t-53 125z" glyph-name="idieresis" horiz-adv-x="514" unicode="ï"/><glyph d="M508 -20q-201 0 -332 111.5t-131 330.5q0 260 160 451.5t409 191.5q111 0 183 -47q-29 90 -68 172h-285l23 145h174q-33 43 -84 99h334l61 -99h277l-25 -145h-170q115 -215 115 -418q0 -344 -171 -568t-470 -224zM381 463q0 -100 47 -148.5t119 -48.5q117 0 184.5 100.5 t67.5 225.5q0 96 -49.5 141t-120.5 45q-119 0 -183.5 -94t-64.5 -221z" glyph-name="eth" horiz-adv-x="1228" unicode="ð"/><glyph d="M821 598q18 109 -22.5 160t-124.5 51q-178 0 -221 -203l-97 -606h-336l166 1065h338l-35 -225h15q31 94 126 169.5t238 75.5q164 0 249 -105.5t54 -299.5l-106 -680h-336zM387 1253q14 117 79.5 182.5t170.5 65.5q68 0 116 -26.5t76.5 -53t53.5 -26.5q66 0 73 51h195 q-14 -117 -79.5 -183.5t-170.5 -66.5q-51 0 -92 17.5t-61.5 37t-45 37t-47.5 17.5q-66 0 -73 -52h-195z" glyph-name="ntilde" unicode="ñ"/><glyph d="M510 -20q-201 0 -332 114.5t-131 343.5q0 270 178 458.5t451 188.5q201 0 332 -114.5t131 -343.5q0 -270 -178.5 -458.5t-450.5 -188.5zM369 473q0 -109 49 -162t133 -53q127 0 196.5 100.5t69.5 233.5q0 109 -49 162t-133 53q-127 0 -196.5 -100.5t-69.5 -233.5z M377 1477h291l172 -289h-291z" glyph-name="ograve" horiz-adv-x="1185" unicode="ò"/><glyph d="M510 -20q-201 0 -332 114.5t-131 343.5q0 270 178 458.5t451 188.5q201 0 332 -114.5t131 -343.5q0 -270 -178.5 -458.5t-450.5 -188.5zM369 473q0 -109 49 -162t133 -53q127 0 196.5 100.5t69.5 233.5q0 109 -49 162t-133 53q-127 0 -196.5 -100.5t-69.5 -233.5z M539 1188l264 289h289l-265 -289h-288z" glyph-name="oacute" horiz-adv-x="1185" unicode="ó"/><glyph d="M510 -20q-201 0 -332 114.5t-131 343.5q0 270 178 458.5t451 188.5q201 0 332 -114.5t131 -343.5q0 -270 -178.5 -458.5t-450.5 -188.5zM266 1182l232 295h487l137 -295h-311l-88 194l-143 -194h-314zM369 473q0 -109 49 -162t133 -53q127 0 196.5 100.5t69.5 233.5 q0 109 -49 162t-133 53q-127 0 -196.5 -100.5t-69.5 -233.5z" glyph-name="ocircumflex" horiz-adv-x="1185" unicode="ô"/><glyph d="M510 -20q-201 0 -332 114.5t-131 343.5q0 270 178 458.5t451 188.5q201 0 332 -114.5t131 -343.5q0 -270 -178.5 -458.5t-450.5 -188.5zM354 1253q14 117 80 182.5t170 65.5q68 0 116 -26.5t76.5 -53t53.5 -26.5q66 0 74 51h194q-14 -117 -79.5 -183.5t-170.5 -66.5 q-51 0 -92 17.5t-61.5 37t-45 37t-46.5 17.5q-66 0 -74 -52h-195zM369 473q0 -109 49 -162t133 -53q127 0 196.5 100.5t69.5 233.5q0 109 -49 162t-133 53q-127 0 -196.5 -100.5t-69.5 -233.5z" glyph-name="otilde" horiz-adv-x="1185" unicode="õ"/><glyph d="M510 -20q-201 0 -332 114.5t-131 343.5q0 270 178 458.5t451 188.5q201 0 332 -114.5t131 -343.5q0 -270 -178.5 -458.5t-450.5 -188.5zM279 1343.5q0 73.5 54 126t128 52.5q72 0 126 -52.5t54 -126.5q0 -72 -54.5 -124t-125.5 -52q-74 0 -128 51.5t-54 125zM369 473 q0 -109 49 -162t133 -53q127 0 196.5 100.5t69.5 233.5q0 109 -49 162t-133 53q-127 0 -196.5 -100.5t-69.5 -233.5zM797 1343.5q0 73.5 53 126t127 52.5t127 -52.5t53 -126t-53 -125t-127 -51.5t-127 51.5t-53 125z" glyph-name="odieresis" horiz-adv-x="1185" unicode="ö"/><glyph d="M528 778q-61 0 -102 41t-41 103q0 59 41 99t102 40q57 0 98.5 -41t41.5 -98q0 -61 -40.5 -102.5t-99.5 -41.5zM86 438l47 250h703l-48 -250h-702zM274 209q0 57 42 98t102 41q57 0 98 -41t41 -98q0 -59 -40 -100t-99.5 -41t-101.5 41t-42 100z" glyph-name="divide" horiz-adv-x="911" unicode="÷"/><glyph d="M53 -102l127 194q-133 119 -133 346q0 270 178 458.5t451 188.5q72 0 143 -16l76 115h238l-134 -205q139 -123 140 -352q0 -270 -178.5 -458.5t-450.5 -188.5q-80 0 -152 18l-65 -100h-240zM369 473q0 -49 8 -80l270 414h-12q-127 0 -196.5 -100.5t-69.5 -233.5zM528 258 h23q127 0 196.5 100.5t69.5 233.5q0 53 -12 90z" glyph-name="oslash" horiz-adv-x="1185" unicode="ø"/><glyph d="M432 467q-18 -109 23 -160t125 -51q178 0 221 203l96 606h336l-166 -1065h-338l35 225h-14q-31 -94 -126.5 -169.5t-238.5 -75.5q-164 0 -249 105t-54 300l106 680h336zM406 1477h290l172 -289h-290z" glyph-name="ugrave" unicode="ù"/><glyph d="M432 467q-18 -109 23 -160t125 -51q178 0 221 203l96 606h336l-166 -1065h-338l35 225h-14q-31 -94 -126.5 -169.5t-238.5 -75.5q-164 0 -249 105t-54 300l106 680h336zM569 1188l265 289h288l-264 -289h-289z" glyph-name="uacute" unicode="ú"/><glyph d="M432 467q-18 -109 23 -160t125 -51q178 0 221 203l96 606h336l-166 -1065h-338l35 225h-14q-31 -94 -126.5 -169.5t-238.5 -75.5q-164 0 -249 105t-54 300l106 680h336zM297 1182l231 295h488l137 -295h-311l-88 194l-144 -194h-313z" glyph-name="ucircumflex" unicode="û"/><glyph d="M432 467q-18 -109 23 -160t125 -51q178 0 221 203l96 606h336l-166 -1065h-338l35 225h-14q-31 -94 -126.5 -169.5t-238.5 -75.5q-164 0 -249 105t-54 300l106 680h336zM307 1343.5q0 73.5 54.5 126t127.5 52.5q72 0 126.5 -52.5t54.5 -126.5q0 -72 -54.5 -124 t-126.5 -52q-74 0 -128 51.5t-54 125zM825 1343.5q0 73.5 53.5 126t127 52.5t127 -52.5t53.5 -126t-53.5 -125t-127 -51.5t-127 51.5t-53.5 125z" glyph-name="udieresis" unicode="ü"/><glyph d="M33 -129q217 -25 299 88q43 68 24 147l-239 959h340l127 -637l334 637h344l-592 -1051q-152 -266 -295.5 -359t-382.5 -67zM549 1188l264 289h289l-264 -289h-289z" glyph-name="yacute" horiz-adv-x="1210" unicode="ý"/><glyph d="M-43 -389l291 1823h336l-82 -512h2q29 63 121 113t202 50q156 0 267.5 -106.5t111.5 -312.5q0 -281 -156.5 -483.5t-398.5 -202.5q-115 0 -186.5 48t-87.5 115l-82 -532h-338zM422 481q0 -115 52 -169t138 -54q121 0 196 99.5t75 238.5q0 106 -52.5 158.5t-140.5 52.5 q-119 0 -193.5 -98.5t-74.5 -227.5z" glyph-name="thorn" horiz-adv-x="1249" unicode="þ"/><glyph d="M33 -129q217 -25 299 88q43 68 24 147l-239 959h340l127 -637l334 637h344l-592 -1051q-152 -266 -295.5 -359t-382.5 -67zM287 1343.5q0 73.5 54 126t128 52.5q72 0 126 -52.5t54 -126.5q0 -72 -54 -124t-126 -52q-74 0 -128 51.5t-54 125zM805 1343.5q0 73.5 53 126 t127 52.5t127 -52.5t53 -126t-53 -125t-127 -51.5t-127 51.5t-53 125z" glyph-name="ydieresis" horiz-adv-x="1210" unicode="ÿ"/><glyph d="M-53 0l739 1434h447l282 -1434h-356l-43 244h-582l-119 -244h-368zM559 498h412l-105 587h-18zM602 1655l31 190h690l-31 -190h-690z" glyph-name="Amacron" horiz-adv-x="1529" unicode="Ā"/><glyph d="M303 -20q-127 0 -210 60t-83 200q0 295 436 364l170 29q70 10 98.5 27.5t37.5 50.5l4 20q12 53 -19.5 83t-103.5 30q-150 0 -176 -121l-4 -21l-316 -4l8 56q53 332 527 331q244 0 343 -86t70 -258l-118 -741h-320l31 186h-14q-107 -206 -361 -206zM354 307q0 -90 117 -90 q84 0 148.5 45t74.5 109l21 106q-12 -12 -30.5 -19t-33 -11.5t-38 -8.5t-33.5 -6l-115 -20q-111 -21 -111 -105zM358 1286l31 191h690l-30 -191h-691z" glyph-name="amacron" horiz-adv-x="1155" unicode="ā"/><glyph d="M-53 0l739 1434h447l282 -1434h-356l-43 244h-582l-119 -244h-368zM559 498h412l-105 587h-18zM614 1845h220q-8 -137 127 -137q133 0 161 137h219q-27 -158 -130 -242.5t-277 -84.5q-176 0 -261.5 85.5t-58.5 241.5z" glyph-name="Abreve" horiz-adv-x="1529" unicode="Ă"/><glyph d="M303 -20q-127 0 -210 60t-83 200q0 295 436 364l170 29q70 10 98.5 27.5t37.5 50.5l4 20q12 53 -19.5 83t-103.5 30q-150 0 -176 -121l-4 -21l-316 -4l8 56q53 332 527 331q244 0 343 -86t70 -258l-118 -741h-320l31 186h-14q-107 -206 -361 -206zM354 307q0 -90 117 -90 q84 0 148.5 45t74.5 109l21 106q-12 -12 -30.5 -19t-33 -11.5t-38 -8.5t-33.5 -6l-115 -20q-111 -21 -111 -105zM371 1477h219q-8 -137 127 -138q133 0 162 138h219q-27 -158 -130.5 -243t-277.5 -85q-176 0 -261 86t-58 242z" glyph-name="abreve" horiz-adv-x="1155" unicode="ă"/><glyph d="M-53 0l739 1434h447l282 -1434h-2q-127 0 -199.5 -44t-72.5 -112q0 -47 39 -62t94 7l-31 -184q-33 -18 -90 -22.5t-117.5 8t-104.5 59.5t-44 121q0 158 168 247l-39 226h-582l-119 -244h-368zM559 498h412l-105 587h-18z" glyph-name="Aogonek" horiz-adv-x="1529" unicode="Ą"/><glyph d="M303 -20q-127 0 -210 60t-83 200q0 295 436 364l170 29q70 10 98.5 27.5t37.5 50.5l4 20q12 53 -19.5 83t-103.5 30q-150 0 -176 -121l-4 -21l-316 -4l8 56q53 332 527 331q244 0 343 -86t70 -258l-118 -741q-127 0 -200 -44t-73 -112q0 -47 39 -62t94 7l-30 -184 q-33 -18 -90.5 -22.5t-118 8t-104.5 59.5t-44 121q0 88 59.5 159.5t153.5 110.5l25 145h-14q-107 -206 -361 -206zM354 307q0 -90 117 -90q84 0 148.5 45t74.5 109l21 106q-12 -12 -30.5 -19t-33 -11.5t-38 -8.5t-33.5 -6l-115 -20q-111 -21 -111 -105z" glyph-name="aogonek" horiz-adv-x="1155" unicode="ą"/><glyph d="M682 -20q-281 0 -433.5 159.5t-152.5 460.5q0 362 210 607t566 245q260 0 414 -136t135 -401h-329q-10 127 -80 183.5t-172 56.5q-131 0 -224.5 -83t-131.5 -196.5t-38 -242.5q0 -166 69 -261.5t210 -95.5q211 0 307 242h330q-59 -272 -244.5 -405t-435.5 -133zM776 1556 l264 289h289l-264 -289h-289z" glyph-name="Cacute" horiz-adv-x="1425" unicode="Ć"/><glyph d="M510 -20q-195 0 -329 109.5t-134 342.5q0 274 177 463.5t456 189.5q63 0 120.5 -10t118 -39.5t103.5 -78t66.5 -131.5t17.5 -191h-295q-2 170 -178 170q-131 0 -201 -101.5t-70 -234.5q0 -209 189 -209q168 0 231 168h295q-33 -131 -98.5 -224t-149.5 -139.5 t-161.5 -65.5t-157.5 -19zM522 1188l264 289h289l-264 -289h-289z" glyph-name="cacute" horiz-adv-x="1153" unicode="ć"/><glyph d="M682 -20q-281 0 -433.5 159.5t-152.5 460.5q0 362 210 607t566 245q260 0 414 -136t135 -401h-329q-10 127 -80 183.5t-172 56.5q-131 0 -224.5 -83t-131.5 -196.5t-38 -242.5q0 -166 69 -261.5t210 -95.5q211 0 307 242h330q-59 -272 -244.5 -405t-435.5 -133zM506 1550 l231 295h488l137 -295h-311l-88 195l-144 -195h-313z" glyph-name="Ccircumflex" horiz-adv-x="1425" unicode="Ĉ"/><glyph d="M510 -20q-195 0 -329 109.5t-134 342.5q0 274 177 463.5t456 189.5q63 0 120.5 -10t118 -39.5t103.5 -78t66.5 -131.5t17.5 -191h-295q-2 170 -178 170q-131 0 -201 -101.5t-70 -234.5q0 -209 189 -209q168 0 231 168h295q-33 -131 -98.5 -224t-149.5 -139.5 t-161.5 -65.5t-157.5 -19zM252 1182l231 295h488l137 -295h-311l-88 194l-144 -194h-313z" glyph-name="ccircumflex" horiz-adv-x="1153" unicode="ĉ"/><glyph d="M682 -20q-281 0 -433.5 159.5t-152.5 460.5q0 362 210 607t566 245q260 0 414 -136t135 -401h-329q-10 127 -80 183.5t-172 56.5q-131 0 -224.5 -83t-131.5 -196.5t-38 -242.5q0 -166 69 -261.5t210 -95.5q211 0 307 242h330q-59 -272 -244.5 -405t-435.5 -133zM782 1712 q0 74 54.5 126t128.5 52q72 0 126 -52t54 -126q0 -72 -54.5 -124t-125.5 -52q-74 0 -128.5 51t-54.5 125z" glyph-name="Cdotaccent" horiz-adv-x="1425" unicode="Ċ"/><glyph d="M510 -20q-195 0 -329 109.5t-134 342.5q0 274 177 463.5t456 189.5q63 0 120.5 -10t118 -39.5t103.5 -78t66.5 -131.5t17.5 -191h-295q-2 170 -178 170q-131 0 -201 -101.5t-70 -234.5q0 -209 189 -209q168 0 231 168h295q-33 -131 -98.5 -224t-149.5 -139.5 t-161.5 -65.5t-157.5 -19zM528 1343.5q0 73.5 54.5 126t128.5 52.5q72 0 126 -52.5t54 -126.5q0 -72 -54.5 -124t-125.5 -52q-74 0 -128.5 51.5t-54.5 125z" glyph-name="cdotaccent" horiz-adv-x="1153" unicode="ċ"/><glyph d="M682 -20q-281 0 -433.5 159.5t-152.5 460.5q0 362 210 607t566 245q260 0 414 -136t135 -401h-329q-10 127 -80 183.5t-172 56.5q-131 0 -224.5 -83t-131.5 -196.5t-38 -242.5q0 -166 69 -261.5t210 -95.5q211 0 307 242h330q-59 -272 -244.5 -405t-435.5 -133zM545 1847 h311l88 -194l143 194h314l-232 -295h-487z" glyph-name="Ccaron" horiz-adv-x="1425" unicode="Č"/><glyph d="M510 -20q-195 0 -329 109.5t-134 342.5q0 274 177 463.5t456 189.5q63 0 120.5 -10t118 -39.5t103.5 -78t66.5 -131.5t17.5 -191h-295q-2 170 -178 170q-131 0 -201 -101.5t-70 -234.5q0 -209 189 -209q168 0 231 168h295q-33 -131 -98.5 -224t-149.5 -139.5 t-161.5 -65.5t-157.5 -19zM291 1479h311l88 -195l144 195h313l-232 -295h-487z" glyph-name="ccaron" horiz-adv-x="1153" unicode="č"/><glyph d="M20 0l228 1434h555q283 0 429 -149.5t146 -444.5q0 -371 -206.5 -605.5t-577.5 -234.5h-574zM414 299h174q158 0 259 75t141 187.5t40 263.5q0 174 -65.5 242t-231.5 68h-188zM461 1847h311l88 -194l144 194h313l-232 -295h-487z" glyph-name="Dcaron" horiz-adv-x="1419" unicode="Ď"/><glyph d="M1309 1145l153 289h289l-156 -289h-286zM45 406q0 281 154.5 480t390.5 199q117 0 189.5 -48t88.5 -115h2l80 512h336l-227 -1434h-336l20 143q-31 -66 -122 -114.5t-203 -48.5q-158 0 -265.5 106.5t-107.5 319.5zM367 473q0 -109 51 -162t139 -53q119 0 193.5 99.5 t74.5 232.5q0 111 -53 164t-141 53q-117 0 -190.5 -99.5t-73.5 -234.5z" glyph-name="dcaron" horiz-adv-x="1366" unicode="ď"/><glyph d="M96 0l92 578h-161l43 249h157l97 607h555q283 0 429 -149.5t146 -444.5q0 -371 -207 -605.5t-577 -234.5h-574zM489 299h175q158 0 259 75t141 187.5t40 263.5q0 174 -65.5 242t-231.5 68h-189l-47 -308h148l-43 -249h-144z" glyph-name="Dcroat" horiz-adv-x="1495" unicode="Đ"/><glyph d="M645 1190l23 145h268l14 99h336l-16 -99h160l-25 -145h-158l-188 -1190h-336l20 143q-31 -66 -122 -114.5t-203 -48.5q-158 0 -265.5 106.5t-107.5 319.5q0 281 154.5 480t390.5 199q117 0 189.5 -48t88.5 -115h2l41 268h-266zM367 473q0 -109 51 -162t139 -53 q119 0 193.5 99.5t74.5 232.5q0 111 -53 164t-141 53q-117 0 -190.5 -99.5t-73.5 -234.5z" glyph-name="dcroat" horiz-adv-x="1304" unicode="đ"/><glyph d="M20 0l228 1434h997l-49 -299h-653l-47 -279h591l-40 -266h-592l-41 -291h673l-51 -299h-1016zM467 1655l31 190h690l-31 -190h-690z" glyph-name="Emacron" horiz-adv-x="1173" unicode="Ē"/><glyph d="M512 -29q-94 0 -174 24.5t-147.5 77t-105.5 147.5t-38 222q0 279 168 461t451 182q203 0 326.5 -102t123.5 -330q0 -135 -31 -207h-723q4 -127 52.5 -176t142.5 -49q92 0 137 34t74 97h295q-66 -184 -208 -282.5t-343 -98.5zM354 1286l31 191h690l-31 -191h-690zM379 625 h430q10 90 -33 148t-149 58q-193 1 -248 -206z" glyph-name="emacron" horiz-adv-x="1163" unicode="ē"/><glyph d="M20 0l228 1434h997l-49 -299h-653l-47 -279h591l-40 -266h-592l-41 -291h673l-51 -299h-1016zM647 1712q0 74 54.5 126t127.5 52q72 0 126.5 -52t54.5 -126q0 -72 -54.5 -124t-126.5 -52q-74 0 -128 51t-54 125z" glyph-name="Edotaccent" horiz-adv-x="1173" unicode="Ė"/><glyph d="M512 -29q-94 0 -174 24.5t-147.5 77t-105.5 147.5t-38 222q0 279 168 461t451 182q203 0 326.5 -102t123.5 -330q0 -135 -31 -207h-723q4 -127 52.5 -176t142.5 -49q92 0 137 34t74 97h295q-66 -184 -208 -282.5t-343 -98.5zM379 625h430q10 90 -33 148t-149 58 q-193 1 -248 -206zM535 1343.5q0 73.5 54 126t128 52.5q72 0 126 -52.5t54 -126.5q0 -72 -54.5 -124t-125.5 -52q-74 0 -128 51.5t-54 125z" glyph-name="edotaccent" horiz-adv-x="1163" unicode="ė"/><glyph d="M20 0l228 1434h997l-49 -299h-653l-47 -279h591l-40 -266h-592l-41 -291h673l-51 -299q-127 0 -199.5 -44t-72.5 -112q0 -47 39 -62t94 7l-31 -184q-33 -18 -90 -22.5t-117.5 8t-104.5 59.5t-44 121q0 137 137 229h-627z" glyph-name="Eogonek" horiz-adv-x="1173" unicode="Ę"/><glyph d="M596 -395q-33 -18 -91.5 -22.5t-118.5 9t-103 60.5t-43 123q0 125 120 215q-143 35 -228 145.5t-85 306.5q0 279 168 461t451 182q203 0 326.5 -102t123.5 -330q0 -135 -31 -207h-723q4 -127 52.5 -176t142.5 -49q92 0 137 34t74 97h295q-113 -317 -428 -370 q-66 -18 -104.5 -55.5t-38.5 -82.5q0 -47 39.5 -62t93.5 7zM379 625h430q10 90 -33 148t-149 58q-193 1 -248 -206z" glyph-name="eogonek" horiz-adv-x="1159" unicode="ę"/><glyph d="M20 0l228 1434h997l-49 -299h-653l-47 -279h591l-40 -266h-592l-41 -291h673l-51 -299h-1016zM408 1847h311l88 -194l143 194h314l-232 -295h-487z" glyph-name="Ecaron" horiz-adv-x="1173" unicode="Ě"/><glyph d="M512 -29q-94 0 -174 24.5t-147.5 77t-105.5 147.5t-38 222q0 279 168 461t451 182q203 0 326.5 -102t123.5 -330q0 -135 -31 -207h-723q4 -127 52.5 -176t142.5 -49q92 0 137 34t74 97h295q-66 -184 -208 -282.5t-343 -98.5zM295 1479h311l88 -195l144 195h313l-231 -295 h-488zM379 625h430q10 90 -33 148t-149 58q-193 1 -248 -206z" glyph-name="ecaron" horiz-adv-x="1163" unicode="ě"/><glyph d="M700 -20q-295 0 -449.5 155.5t-154.5 448.5q0 369 217 618.5t570 249.5q244 0 398.5 -126t150.5 -370h-342q-25 199 -234 199q-188 0 -299 -164t-111 -373q0 -162 71 -252t216 -90q115 0 201 62.5t113 196.5l-256 -9l45 279h598l-25 -135q-68 -358 -238 -524t-471 -166z M479 1550l232 295h487l137 -295h-311l-88 195l-143 -195h-314z" glyph-name="Gcircumflex" horiz-adv-x="1472" unicode="Ĝ"/><glyph d="M420 29q-156 0 -264.5 98t-108.5 305q0 272 150.5 462.5t386.5 190.5q102 0 172.5 -37.5t105.5 -95.5l17 113h335l-151 -946l-8 -74q-14 -119 -66.5 -208t-118 -138t-150.5 -79t-153.5 -39t-140.5 -9q-63 0 -121.5 6t-127 29.5t-115 62.5t-71 111t-9.5 166h294 q-6 -63 51.5 -90t131.5 -27q100 0 174 55.5t86 159.5l8 74l8 39q-125 -129 -315 -129zM268 1182l232 295h487l137 -295h-311l-88 194l-143 -194h-314zM369 508q0 -100 51 -150.5t139 -50.5q117 0 187.5 88t70.5 213q0 98 -53 148.5t-137 50.5q-115 0 -186.5 -88t-71.5 -211z " glyph-name="gcircumflex" horiz-adv-x="1234" unicode="ĝ"/><glyph d="M700 -20q-295 0 -449.5 155.5t-154.5 448.5q0 369 217 618.5t570 249.5q244 0 398.5 -126t150.5 -370h-342q-25 199 -234 199q-188 0 -299 -164t-111 -373q0 -162 71 -252t216 -90q115 0 201 62.5t113 196.5l-256 -9l45 279h598l-25 -135q-68 -358 -238 -524t-471 -166z M588 1845h219q-8 -137 127 -137q133 0 162 137h219q-27 -158 -130.5 -242.5t-277.5 -84.5q-176 0 -261 85.5t-58 241.5z" glyph-name="Gbreve" horiz-adv-x="1472" unicode="Ğ"/><glyph d="M420 29q-156 0 -264.5 98t-108.5 305q0 272 150.5 462.5t386.5 190.5q102 0 172.5 -37.5t105.5 -95.5l17 113h335l-151 -946l-8 -74q-14 -119 -66.5 -208t-118 -138t-150.5 -79t-153.5 -39t-140.5 -9q-63 0 -121.5 6t-127 29.5t-115 62.5t-71 111t-9.5 166h294 q-6 -63 51.5 -90t131.5 -27q100 0 174 55.5t86 159.5l8 74l8 39q-125 -129 -315 -129zM369 508q0 -100 51 -150.5t139 -50.5q117 0 187.5 88t70.5 213q0 98 -53 148.5t-137 50.5q-115 0 -186.5 -88t-71.5 -211zM377 1477h219q-8 -137 127 -138q133 0 162 138h219 q-27 -158 -130.5 -243t-277.5 -85q-176 0 -261 86t-58 242z" glyph-name="gbreve" horiz-adv-x="1234" unicode="ğ"/><glyph d="M700 -20q-295 0 -449.5 155.5t-154.5 448.5q0 369 217 618.5t570 249.5q244 0 398.5 -126t150.5 -370h-342q-25 199 -234 199q-188 0 -299 -164t-111 -373q0 -162 71 -252t216 -90q115 0 201 62.5t113 196.5l-256 -9l45 279h598l-25 -135q-68 -358 -238 -524t-471 -166z M756 1712q0 74 54 126t128 52q72 0 126 -52t54 -126q0 -72 -54 -124t-126 -52q-74 0 -128 51t-54 125z" glyph-name="Gdotaccent" horiz-adv-x="1472" unicode="Ġ"/><glyph d="M420 29q-156 0 -264.5 98t-108.5 305q0 272 150.5 462.5t386.5 190.5q102 0 172.5 -37.5t105.5 -95.5l17 113h335l-151 -946l-8 -74q-14 -119 -66.5 -208t-118 -138t-150.5 -79t-153.5 -39t-140.5 -9q-63 0 -121.5 6t-127 29.5t-115 62.5t-71 111t-9.5 166h294 q-6 -63 51.5 -90t131.5 -27q100 0 174 55.5t86 159.5l8 74l8 39q-125 -129 -315 -129zM369 508q0 -100 51 -150.5t139 -50.5q117 0 187.5 88t70.5 213q0 98 -53 148.5t-137 50.5q-115 0 -186.5 -88t-71.5 -211zM545 1343.5q0 73.5 54 126t128 52.5q72 0 126 -52.5t54 -126.5 q0 -72 -54 -124t-126 -52q-74 0 -128 51.5t-54 125z" glyph-name="gdotaccent" horiz-adv-x="1234" unicode="ġ"/><glyph d="M700 -20q-295 0 -449.5 155.5t-154.5 448.5q0 369 217 618.5t570 249.5q244 0 398.5 -126t150.5 -370h-342q-25 199 -234 199q-188 0 -299 -164t-111 -373q0 -162 71 -252t216 -90q115 0 201 62.5t113 196.5l-256 -9l45 279h598l-25 -135q-68 -358 -238 -524t-471 -166z M428 -723l21 133q90 6 131 36t53 97q-98 0 -149.5 50.5t-51.5 127.5q0 86 57.5 144.5t149.5 58.5q90 0 146.5 -59.5t56.5 -188.5q0 -170 -102.5 -284.5t-299.5 -114.5h-12z" glyph-name="Gcommaaccent" horiz-adv-x="1472" unicode="Ģ"/><glyph d="M420 29q-156 0 -264.5 98t-108.5 305q0 272 150.5 462.5t386.5 190.5q102 0 172.5 -37.5t105.5 -95.5l17 113h335l-151 -946l-8 -74q-14 -119 -66.5 -208t-118 -138t-150.5 -79t-153.5 -39t-140.5 -9q-63 0 -121.5 6t-127 29.5t-115 62.5t-71 111t-9.5 166h294 q-6 -63 51.5 -90t131.5 -27q100 0 174 55.5t86 159.5l8 74l8 39q-125 -129 -315 -129zM369 508q0 -100 51 -150.5t139 -50.5q117 0 187.5 88t70.5 213q0 98 -53 148.5t-137 50.5q-115 0 -186.5 -88t-71.5 -211zM424 1411q0 170 102.5 284.5t298.5 114.5h13l-21 -133 q-90 -6 -131 -35.5t-53 -97.5q98 0 149.5 -50t51.5 -128q0 -86 -57.5 -144.5t-149.5 -58.5q-90 0 -146.5 59.5t-56.5 188.5z" glyph-name="gcommaaccent" horiz-adv-x="1234" unicode="ģ"/><glyph d="M883 0l92 578h-520l-93 -578h-342l228 1434h342l-90 -572h520l90 572h344l-227 -1434h-344zM436 1550l232 295h487l137 -295h-311l-88 195l-143 -195h-314z" glyph-name="Hcircumflex" horiz-adv-x="1413" unicode="Ĥ"/><glyph d="M186 1065l62 369h225l33 43h487l137 -295h-311l-88 194l-143 -194h-45l-19 -117l-35 -225h15q31 94 126 169.5t238 75.5q164 0 249 -105.5t54 -299.5l-106 -680h-336l92 598q18 109 -22.5 160t-124.5 51q-178 0 -221 -203l-97 -606h-336z" glyph-name="hcircumflex" unicode="ĥ"/><glyph d="M883 0l92 578h-520l-93 -578h-342l228 1434h342l-31 -193h520l31 193h344l-227 -1434h-344zM500 862h520l14 94h-520z" glyph-name="Hbar" horiz-adv-x="1417" unicode="Ħ"/><glyph d="M84 1190l25 145h122l17 99h336l-17 -99h301l-22 -145h-301l-21 -125l-35 -225h15q31 94 126 169.5t238 75.5q164 0 249 -105.5t54 -299.5l-106 -680h-336l92 598q18 109 -22.5 160t-124.5 51q-178 0 -221 -203l-97 -606h-336l166 1065l21 125h-123z" glyph-name="hbar" horiz-adv-x="1251" unicode="ħ"/><glyph d="M20 0l228 1434h342l-228 -1434h-342zM80 1622q14 117 79.5 182.5t170.5 65.5q68 0 116 -26.5t76.5 -53.5t52.5 -27q66 0 74 52h195q-14 -117 -80 -183.5t-170 -66.5q-51 0 -92 17t-61.5 36.5t-45 37t-47.5 17.5q-66 0 -74 -51h-194z" glyph-name="Itilde" horiz-adv-x="550" unicode="Ĩ"/><glyph d="M2 0l168 1065h336l-168 -1065h-336zM2 1253q14 117 79.5 182.5t170.5 65.5q68 0 116 -26.5t76.5 -53t53.5 -26.5q66 0 73 51h195q-14 -117 -79.5 -183.5t-170.5 -66.5q-51 0 -92 17.5t-61.5 37t-45 37t-47.5 17.5q-66 0 -73 -52h-195z" glyph-name="itilde" horiz-adv-x="514" unicode="ĩ"/><glyph d="M20 0l228 1434h342l-228 -1434h-342zM106 1655l31 190h690l-30 -190h-691z" glyph-name="Imacron" horiz-adv-x="550" unicode="Ī"/><glyph d="M2 0l168 1065h336l-168 -1065h-336zM29 1286l30 191h691l-31 -191h-690z" glyph-name="imacron" horiz-adv-x="514" unicode="ī"/><glyph d="M193 -395q-33 -18 -90.5 -22.5t-118 8t-104.5 59.5t-44 121q0 82 52.5 150.5t136.5 109.5l223 1403h342l-228 -1434q-127 0 -199.5 -44t-72.5 -112q0 -47 39 -62t94 7z" glyph-name="Iogonek" horiz-adv-x="550" unicode="Į"/><glyph d="M391 1167q-74 0 -128 51.5t-54 125t54 126t128 52.5q72 0 126 -52.5t54 -126.5q0 -72 -54 -124t-126 -52zM-188 -229q0 84 54 153.5t142 108.5l162 1032h336l-168 -1065q-127 0 -199.5 -44t-72.5 -112q0 -47 38.5 -62t94.5 7l-31 -184q-33 -18 -90.5 -22.5t-117.5 8 t-104 59.5t-44 121z" glyph-name="iogonek" horiz-adv-x="514" unicode="į"/><glyph d="M20 0l228 1434h342l-228 -1434h-342zM287 1712q0 74 54 126t128 52q72 0 126 -52t54 -126q0 -72 -54 -124t-126 -52q-74 0 -128 51t-54 125z" glyph-name="Idotaccent" horiz-adv-x="550" unicode="İ"/><glyph d="M2 0l168 1065h336l-168 -1065h-336z" glyph-name="dotlessi" horiz-adv-x="514" unicode="ı"/><glyph d="M20 0l228 1434h342l-228 -1434h-342zM657 545h347q-18 -129 41 -197.5t178 -68.5q117 0 184.5 70.5t89.5 221.5l139 863h344l-143 -889q-45 -283 -216 -424t-439 -141q-276 0 -423 143t-102 422z" glyph-name="IJ" horiz-adv-x="1939" unicode="Ĳ"/><glyph d="M20 0l166 1065h338l-168 -1065h-336zM217 1343.5q0 73.5 53.5 126t126.5 52.5q72 0 126.5 -52.5t54.5 -126.5q0 -72 -54.5 -124t-126.5 -52q-74 0 -127 51.5t-53 125zM272 -395l43 260h115q106 0 129 133l170 1067h336l-176 -1116q-55 -350 -426 -350q-144 0 -191 6z M758 1343q0 74 54 126.5t126 52.5q74 0 128 -52.5t54 -126t-54 -125t-128 -51.5q-72 0 -126 52t-54 124z" glyph-name="ij" horiz-adv-x="1083" unicode="ĳ"/><glyph d="M631 -20q-276 0 -423 143t-102 422h347q-18 -129 41 -197.5t178 -68.5q117 0 184.5 70.5t89.5 221.5l139 863h345l-144 -889q-45 -283 -216 -424t-439 -141zM819 1550l232 295h487l137 -295h-311l-88 195l-143 -195h-314z" glyph-name="Jcircumflex" horiz-adv-x="1388" unicode="Ĵ"/><glyph d="M-57 -401q-143 0 -191 6l43 260h115q106 0 129 133l170 1067h336l-176 -1116q-27 -180 -138.5 -265t-287.5 -85zM-43 1182l231 295h488l137 -295h-311l-88 194l-144 -194h-313z" glyph-name="jcircumflex" horiz-adv-x="550" unicode="ĵ"/><glyph d="M20 0l228 1434h342l-103 -650l639 650h402l-639 -637l469 -797h-393l-322 553l-229 -227l-52 -326h-342zM395 -723l21 133q90 6 131 36t53 97q-98 0 -149.5 50.5t-51.5 127.5q0 86 57.5 144.5t149.5 58.5q90 0 146.5 -59.5t56.5 -188.5q0 -170 -102.5 -284.5 t-298.5 -114.5h-13z" glyph-name="Kcommaaccent" horiz-adv-x="1472" unicode="Ķ"/><glyph d="M20 0l228 1434h336l-123 -770l422 401h356l-496 -449l383 -616h-358l-254 408l-108 -99l-50 -309h-336zM305 -723l21 133q90 6 131 36t53 97q-98 0 -149.5 50.5t-51.5 127.5q0 86 57.5 144.5t149.5 58.5q90 0 146.5 -59.5t56.5 -188.5q0 -170 -102.5 -284.5 t-299.5 -114.5h-12z" glyph-name="kcommaaccent" horiz-adv-x="1220" unicode="ķ"/><glyph d="M20 0l228 1434h342l-176 -1135h639l-49 -299h-984zM281 1556l264 289h289l-265 -289h-288z" glyph-name="Lacute" horiz-adv-x="1138" unicode="Ĺ"/><glyph d="M20 0l228 1434h336l-228 -1434h-336zM276 1556l265 289h288l-264 -289h-289z" glyph-name="lacute" horiz-adv-x="542" unicode="ĺ"/><glyph d="M20 0l228 1434h342l-176 -1135h639l-49 -299h-984zM252 -733l20 133q90 6 131 35.5t54 97.5q-98 0 -149.5 50t-51.5 128q0 86 57.5 144.5t149.5 58.5q90 0 146.5 -59.5t56.5 -188.5q0 -170 -102.5 -284.5t-299.5 -114.5h-12z" glyph-name="Lcommaaccent" horiz-adv-x="1138" unicode="Ļ"/><glyph d="M20 0l228 1434h336l-228 -1434h-336zM-68 -723l21 133q92 6 133 36t53 97q-100 0 -151 50.5t-51 127.5q0 86 58 144.5t150 58.5q90 0 146.5 -59.5t56.5 -188.5q0 -170 -102.5 -284.5t-300.5 -114.5h-13z" glyph-name="lcommaaccent" horiz-adv-x="542" unicode="ļ"/><glyph d="M20 0l228 1434h342l-176 -1135h639l-49 -299h-984zM766 801l20 133q90 6 131 35.5t54 97.5q-98 0 -149.5 50t-51.5 128q0 86 57.5 144.5t149.5 58.5q90 0 146.5 -59.5t56.5 -188.5q0 -170 -102.5 -284.5t-299.5 -114.5h-12z" glyph-name="Lcaron" horiz-adv-x="1138" unicode="Ľ"/><glyph d="M545 805l153 629h285l-154 -629h-284zM20 0l228 1434h336l-228 -1434h-336z" glyph-name="lcaron" horiz-adv-x="661" unicode="ľ"/><glyph d="M-23 246l48 332l143 129l115 727h342l-58 -363l162 146h2l-55 -330l-158 -146l-69 -442h638l-49 -299h-983l60 371z" glyph-name="Lslash" horiz-adv-x="1173" unicode="Ł"/><glyph d="M-29 291l49 297l127 117l115 729h336l-57 -363l118 111h3l-50 -295l-118 -111l-123 -776h-336l65 410z" glyph-name="lslash" horiz-adv-x="567" unicode="ł"/><glyph d="M20 0l228 1434h354l383 -871h8l142 871h344l-228 -1434h-368l-379 848h-8l-134 -848h-342zM725 1556l264 289h289l-264 -289h-289z" glyph-name="Nacute" horiz-adv-x="1437" unicode="Ń"/><glyph d="M821 598q18 109 -22.5 160t-124.5 51q-178 0 -221 -203l-97 -606h-336l166 1065h338l-35 -225h15q31 94 126 169.5t238 75.5q164 0 249 -105.5t54 -299.5l-106 -680h-336zM573 1188l265 289h288l-264 -289h-289z" glyph-name="nacute" unicode="ń"/><glyph d="M20 0l228 1434h354l383 -871h8l142 871h344l-228 -1434h-368l-379 848h-8l-134 -848h-342zM383 -723l20 133q90 6 131 36t54 97q-98 0 -149.5 50.5t-51.5 127.5q0 86 57.5 144.5t149.5 58.5q90 0 146.5 -59.5t56.5 -188.5q0 -170 -102.5 -284.5t-299.5 -114.5h-12z" glyph-name="Ncommaaccent" horiz-adv-x="1437" unicode="Ņ"/><glyph d="M821 598q18 109 -22.5 160t-124.5 51q-178 0 -221 -203l-97 -606h-336l166 1065h338l-35 -225h15q31 94 126 169.5t238 75.5q164 0 249 -105.5t54 -299.5l-106 -680h-336zM291 -723l20 133q90 6 131 36t54 97q-98 0 -149.5 50.5t-51.5 127.5q0 86 57.5 144.5t149.5 58.5 q90 0 146.5 -59.5t56.5 -188.5q0 -170 -102.5 -284.5t-299.5 -114.5h-12z" glyph-name="ncommaaccent" unicode="ņ"/><glyph d="M20 0l228 1434h354l383 -871h8l142 871h344l-228 -1434h-368l-379 848h-8l-134 -848h-342zM494 1847h311l88 -194l143 194h314l-232 -295h-487z" glyph-name="Ncaron" horiz-adv-x="1437" unicode="Ň"/><glyph d="M821 598q18 109 -22.5 160t-124.5 51q-178 0 -221 -203l-97 -606h-336l166 1065h338l-35 -225h15q31 94 126 169.5t238 75.5q164 0 249 -105.5t54 -299.5l-106 -680h-336zM342 1479h311l88 -195l144 195h313l-231 -295h-488z" glyph-name="ncaron" unicode="ň"/><glyph d="M598 -451q-170 0 -262 58l51 309q119 -68 246 -68q182 0 260 156l-389 840h-8l-134 -844h-342l228 1434h344l397 -871h8l142 871h344l-209 -1319q-45 -279 -228.5 -422.5t-447.5 -143.5z" glyph-name="Eng" horiz-adv-x="1441" unicode="Ŋ"/><glyph d="M641 -451q-139 0 -223 35l43 271q78 -20 133 -21q102 0 127 121l8 45l92 598q18 109 -22.5 160t-124.5 51q-178 0 -221 -203l-97 -606h-336l166 1065h338l-35 -225h15q31 94 126 169.5t238 75.5q164 0 249 -105.5t54 -299.5l-106 -680l-14 -104q-27 -170 -135.5 -258.5 t-274.5 -88.5z" glyph-name="eng" unicode="ŋ"/><glyph d="M692 -20q-281 0 -439.5 166.5t-158.5 453.5q0 354 221.5 603t567.5 249q283 0 439.5 -165t156.5 -449q0 -356 -220.5 -607t-566.5 -251zM446 610q0 -334 271 -334q131 0 226 85t138 207t43 259q0 328 -266 328q-193 0 -302.5 -165t-109.5 -380zM592 1655l31 190h690 l-31 -190h-690z" glyph-name="Omacron" horiz-adv-x="1515" unicode="Ō"/><glyph d="M510 -20q-201 0 -332 114.5t-131 343.5q0 270 178 458.5t451 188.5q201 0 332 -114.5t131 -343.5q0 -270 -178.5 -458.5t-450.5 -188.5zM367 1286l30 191h690l-30 -191h-690zM369 473q0 -109 49 -162t133 -53q127 0 196.5 100.5t69.5 233.5q0 109 -49 162t-133 53 q-127 0 -196.5 -100.5t-69.5 -233.5z" glyph-name="omacron" horiz-adv-x="1185" unicode="ō"/><glyph d="M692 -20q-281 0 -439.5 166.5t-158.5 453.5q0 354 221.5 603t567.5 249q283 0 439.5 -165t156.5 -449q0 -356 -220.5 -607t-566.5 -251zM446 610q0 -334 271 -334q131 0 226 85t138 207t43 259q0 328 -266 328q-193 0 -302.5 -165t-109.5 -380zM543 1556l264 289h289 l-265 -289h-288zM940 1556l264 289h289l-264 -289h-289z" glyph-name="Ohungarumlaut" horiz-adv-x="1515" unicode="Ő"/><glyph d="M510 -20q-201 0 -332 114.5t-131 343.5q0 270 178 458.5t451 188.5q201 0 332 -114.5t131 -343.5q0 -270 -178.5 -458.5t-450.5 -188.5zM319 1188l265 289h288l-264 -289h-289zM369 473q0 -109 49 -162t133 -53q127 0 196.5 100.5t69.5 233.5q0 109 -49 162t-133 53 q-127 0 -196.5 -100.5t-69.5 -233.5zM717 1188l264 289h289l-264 -289h-289z" glyph-name="ohungarumlaut" horiz-adv-x="1185" unicode="ő"/><glyph d="M692 -20q-281 0 -439.5 166.5t-158.5 453.5q0 354 221.5 603t567.5 249q209 0 354 -94l12 76h998l-49 -299h-654l-47 -279h592l-41 -266h-592l-41 -291h674l-51 -299h-1016l8 55q-152 -75 -338 -75zM446 610q0 -334 271 -334q131 0 226 85t138 207t43 259q0 328 -266 328 q-193 0 -302.5 -165t-109.5 -380z" glyph-name="OE" horiz-adv-x="2174" unicode="Œ"/><glyph d="M510 -20q-201 0 -332 114.5t-131 343.5q0 270 178 458.5t451 188.5q231 0 356 -139q162 139 404 139q203 0 326.5 -102t123.5 -330q0 -135 -31 -207h-722q4 -127 52 -176t142 -49q92 0 137 34t74 97h295q-66 -184 -208 -282.5t-343 -98.5q-250 0 -371 152 q-165 -143 -401 -143zM369 473q0 -109 49 -162t133 -53q127 0 196.5 100.5t69.5 233.5q0 109 -49 162t-133 53q-127 0 -196.5 -100.5t-69.5 -233.5zM1149 625h430q10 90 -33 148t-149 58q-193 1 -248 -206z" glyph-name="oe" horiz-adv-x="1933" unicode="œ"/><glyph d="M887 0q-37 43 -4 227l16 105q10 74 -29 121t-125 47h-303l-80 -500h-342l228 1434h622q246 0 362 -101.5t116 -273.5q0 -270 -289 -404q127 -45 168 -120.5t24 -190.5l-16 -117q-33 -186 4 -227h-352zM485 776h265q106 0 166.5 57.5t60.5 149.5q0 150 -170 150h-264z M571 1556l265 289h288l-264 -289h-289z" glyph-name="Racute" horiz-adv-x="1417" unicode="Ŕ"/><glyph d="M20 0l166 1065h338l-41 -264h13q106 272 338 272q41 0 81 -10l-47 -283q-49 6 -84 6q-123 0 -220 -68.5t-132 -230.5l-76 -487h-336zM420 1188l264 289h289l-264 -289h-289z" glyph-name="racute" horiz-adv-x="862" unicode="ŕ"/><glyph d="M887 0q-37 43 -4 227l16 105q10 74 -29 121t-125 47h-303l-80 -500h-342l228 1434h622q246 0 362 -101.5t116 -273.5q0 -270 -289 -404q127 -45 168 -120.5t24 -190.5l-16 -117q-33 -186 4 -227h-352zM229 -723l21 133q90 6 131 36t53 97q-98 0 -149.5 50.5t-51.5 127.5 q0 86 57.5 144.5t149.5 58.5q90 0 146.5 -59.5t56.5 -188.5q0 -170 -102.5 -284.5t-298.5 -114.5h-13zM485 776h265q106 0 166.5 57.5t60.5 149.5q0 150 -170 150h-264z" glyph-name="Rcommaaccent" horiz-adv-x="1417" unicode="Ŗ"/><glyph d="M20 0l166 1065h338l-41 -264h13q106 272 338 272q41 0 81 -10l-47 -283q-49 6 -84 6q-123 0 -220 -68.5t-132 -230.5l-76 -487h-336zM-63 -723l20 133q92 6 133 36t53 97q-100 0 -151 50.5t-51 127.5q0 86 58 144.5t151 58.5q90 0 146 -59.5t56 -188.5 q0 -170 -102.5 -284.5t-300.5 -114.5h-12z" glyph-name="rcommaaccent" horiz-adv-x="862" unicode="ŗ"/><glyph d="M887 0q-37 43 -4 227l16 105q10 74 -29 121t-125 47h-303l-80 -500h-342l228 1434h622q246 0 362 -101.5t116 -273.5q0 -270 -289 -404q127 -45 168 -120.5t24 -190.5l-16 -117q-33 -186 4 -227h-352zM340 1847h311l88 -194l144 194h313l-231 -295h-488zM485 776h265 q106 0 166.5 57.5t60.5 149.5q0 150 -170 150h-264z" glyph-name="Rcaron" horiz-adv-x="1417" unicode="Ř"/><glyph d="M20 0l166 1065h338l-41 -264h13q106 272 338 272q41 0 81 -10l-47 -283q-49 6 -84 6q-123 0 -220 -68.5t-132 -230.5l-76 -487h-336zM188 1479h312l88 -195l143 195h313l-231 -295h-487z" glyph-name="rcaron" horiz-adv-x="862" unicode="ř"/><glyph d="M604 -20q-283 0 -429 130t-109 373h358q-10 -96 47 -157.5t184 -61.5q109 0 175.5 45t66.5 127q0 57 -39 92t-141 56l-170 32q-168 33 -266.5 112t-98.5 243q0 221 181.5 351t457.5 130q256 0 394.5 -116.5t101.5 -338.5h-354q16 88 -37.5 129t-149.5 41 q-100 0 -163.5 -44t-63.5 -117q0 -104 151 -134l156 -28q223 -43 317.5 -129t94.5 -234q0 -233 -187.5 -367t-476.5 -134zM668 1556l264 289h289l-265 -289h-288z" glyph-name="Sacute" horiz-adv-x="1355" unicode="Ś"/><glyph d="M426 -20q-225 0 -332.5 97t-79.5 285h301q-2 -66 33 -95t113 -29q154 0 153 90q0 51 -94 67l-147 33q-270 61 -271 285q0 174 138.5 273t353.5 99q219 0 318.5 -102t66.5 -281h-279q6 68 -31.5 96.5t-111.5 28.5q-133 0 -133 -73q0 -57 115 -84l166 -39 q123 -29 192.5 -88.5t69.5 -177.5q0 -180 -154 -282.5t-387 -102.5zM461 1188l264 289h289l-264 -289h-289z" glyph-name="sacute" horiz-adv-x="1040" unicode="ś"/><glyph d="M604 -20q-283 0 -429 130t-109 373h358q-10 -96 47 -157.5t184 -61.5q109 0 175.5 45t66.5 127q0 57 -39 92t-141 56l-170 32q-168 33 -266.5 112t-98.5 243q0 221 181.5 351t457.5 130q256 0 394.5 -116.5t101.5 -338.5h-354q16 88 -37.5 129t-149.5 41 q-100 0 -163.5 -44t-63.5 -117q0 -104 151 -134l156 -28q223 -43 317.5 -129t94.5 -234q0 -233 -187.5 -367t-476.5 -134zM397 1550l232 295h487l137 -295h-311l-88 195l-143 -195h-314z" glyph-name="Scircumflex" horiz-adv-x="1355" unicode="Ŝ"/><glyph d="M426 -20q-225 0 -332.5 97t-79.5 285h301q-2 -66 33 -95t113 -29q154 0 153 90q0 51 -94 67l-147 33q-270 61 -271 285q0 174 138.5 273t353.5 99q219 0 318.5 -102t66.5 -281h-279q6 68 -31.5 96.5t-111.5 28.5q-133 0 -133 -73q0 -57 115 -84l166 -39 q123 -29 192.5 -88.5t69.5 -177.5q0 -180 -154 -282.5t-387 -102.5zM190 1182l232 295h487l138 -295h-312l-88 194l-143 -194h-314z" glyph-name="scircumflex" horiz-adv-x="1040" unicode="ŝ"/><glyph d="M348 -373q61 -2 102.5 17.5t41.5 58.5q0 27 -19.5 40t-48.5 10t-55 -19l-70 110l160 146q-215 31 -319.5 157.5t-73.5 335.5h358q-10 -96 47 -157.5t184 -61.5q109 0 175.5 45t66.5 127q0 57 -39 92t-141 56l-170 32q-168 33 -266.5 112t-98.5 243q0 221 181.5 351 t457.5 130q256 0 394.5 -116.5t101.5 -338.5h-354q16 88 -37.5 129t-149.5 41q-100 0 -163.5 -44t-63.5 -117q0 -104 151 -134l156 -28q223 -43 317.5 -129t94.5 -234q0 -221 -168 -353t-436 -146l-117 -99h8q76 0 120 -43t44 -116q0 -127 -115 -191.5t-285 -64.5z" glyph-name="Scedilla" horiz-adv-x="1355" unicode="Ş"/><glyph d="M209 -373q61 -2 102 17.5t41 58.5q0 27 -19.5 40t-48 10t-55.5 -19l-69 110l155 142q-170 23 -247.5 119t-53.5 257h301q-2 -66 33 -95t113 -29q154 0 153 90q0 51 -94 67l-147 33q-270 61 -271 285q0 174 138.5 273t353.5 99q219 0 318.5 -102t66.5 -281h-279 q6 68 -31.5 96.5t-111.5 28.5q-133 0 -133 -73q0 -57 115 -84l166 -39q123 -29 192.5 -88.5t69.5 -177.5q0 -160 -122 -259.5t-317 -119.5l-120 -103h8q76 0 120 -43t44 -116q0 -127 -115 -191.5t-285 -64.5z" glyph-name="scedilla" horiz-adv-x="1040" unicode="ş"/><glyph d="M604 -20q-283 0 -429 130t-109 373h358q-10 -96 47 -157.5t184 -61.5q109 0 175.5 45t66.5 127q0 57 -39 92t-141 56l-170 32q-168 33 -266.5 112t-98.5 243q0 221 181.5 351t457.5 130q256 0 394.5 -116.5t101.5 -338.5h-354q16 88 -37.5 129t-149.5 41 q-100 0 -163.5 -44t-63.5 -117q0 -104 151 -134l156 -28q223 -43 317.5 -129t94.5 -234q0 -233 -187.5 -367t-476.5 -134zM436 1847h312l88 -194l143 194h313l-231 -295h-488z" glyph-name="Scaron" horiz-adv-x="1355" unicode="Š"/><glyph d="M426 -20q-225 0 -332.5 97t-79.5 285h301q-2 -66 33 -95t113 -29q154 0 153 90q0 51 -94 67l-147 33q-270 61 -271 285q0 174 138.5 273t353.5 99q219 0 318.5 -102t66.5 -281h-279q6 68 -31.5 96.5t-111.5 28.5q-133 0 -133 -73q0 -57 115 -84l166 -39 q123 -29 192.5 -88.5t69.5 -177.5q0 -180 -154 -282.5t-387 -102.5zM229 1479h312l88 -195l143 195h313l-231 -295h-487z" glyph-name="scaron" horiz-adv-x="1040" unicode="š"/><glyph d="M365 0l180 1135h-408l49 299h1157l-49 -299h-405l-180 -1135h-127l-140 -117h9q76 0 119.5 -43t43.5 -116q0 -127 -114.5 -191.5t-284.5 -64.5l29 159q61 -2 102 17.5t41 58.5q0 41 -42 49t-81 -18l-69 110z" glyph-name="Tcommaaccent" horiz-adv-x="1241" unicode="Ţ"/><glyph d="M76 807l41 258h184l43 278h336l-45 -278h209l-39 -258h-211l-68 -422q-27 -133 97 -133h100l-43 -260q-57 -6 -113 -6l-123 -103h9q76 0 119.5 -43t43.5 -116q0 -127 -114.5 -191.5t-284.5 -64.5l29 159q61 -2 102 17.5t41 58.5q0 27 -19.5 40t-48 10t-55.5 -19l-69 110 l170 156h4q-231 59 -185 338l74 469h-184z" glyph-name="tcommaaccent" horiz-adv-x="808" unicode="ţ"/><glyph d="M365 0l180 1135h-408l49 299h1157l-49 -299h-405l-180 -1135h-344zM395 1847h312l88 -194l143 194h313l-231 -295h-488z" glyph-name="Tcaron" horiz-adv-x="1241" unicode="Ť"/><glyph d="M500 -14q-176 0 -260 86t-54 266l74 469h-184l41 258h184l43 278h336l-45 -278h209l-39 -258h-211l-68 -422q-27 -133 97 -133h100l-43 -260q-61 -6 -180 -6zM700 1182l265 288h288l-264 -288h-289z" glyph-name="tcaron" horiz-adv-x="808" unicode="ť"/><glyph d="M193 735l38 228h287l27 172h-408l49 299h1157l-49 -299h-405l-27 -172h287l-37 -228h-287l-116 -735h-344l116 735h-288z" glyph-name="Tbar" horiz-adv-x="1241" unicode="Ŧ"/><glyph d="M23 467l38 258h187l12 82h-184l41 258h184l43 278h336l-45 -278h209l-39 -258h-211l-12 -82h209l-39 -258h-213l-13 -82q-27 -133 97 -133h100l-43 -260q-61 -6 -180 -6q-176 0 -260 86t-54 266l21 129h-184z" glyph-name="tbar" horiz-adv-x="808" unicode="ŧ"/><glyph d="M623 -20q-279 0 -420.5 142t-96.5 423l142 889h346l-137 -863q-23 -143 37.5 -217.5t183.5 -74.5q238 0 285 292l137 863h348l-141 -889q-47 -281 -229.5 -423t-454.5 -142zM498 1622q14 117 79.5 182.5t170.5 65.5q68 0 115.5 -26.5t76.5 -53.5t53 -27q66 0 74 52h195 q-14 -117 -80 -183.5t-170 -66.5q-51 0 -92 17t-61.5 36.5t-45.5 37t-47 17.5q-66 0 -74 -51h-194z" glyph-name="Utilde" horiz-adv-x="1409" unicode="Ũ"/><glyph d="M432 467q-18 -109 23 -160t125 -51q178 0 221 203l96 606h336l-166 -1065h-338l35 225h-14q-31 -94 -126.5 -169.5t-238.5 -75.5q-164 0 -249 105t-54 300l106 680h336zM383 1253q14 117 79.5 182.5t170.5 65.5q68 0 116 -26.5t76.5 -53t53.5 -26.5q66 0 73 51h195 q-14 -117 -80 -183.5t-170 -66.5q-51 0 -92 17.5t-61.5 37t-45 37t-47.5 17.5q-66 0 -73 -52h-195z" glyph-name="utilde" unicode="ũ"/><glyph d="M623 -20q-279 0 -420.5 142t-96.5 423l142 889h346l-137 -863q-23 -143 37.5 -217.5t183.5 -74.5q238 0 285 292l137 863h348l-141 -889q-47 -281 -229.5 -423t-454.5 -142zM510 1655l31 190h690l-31 -190h-690z" glyph-name="Umacron" horiz-adv-x="1409" unicode="Ū"/><glyph d="M432 467q-18 -109 23 -160t125 -51q178 0 221 203l96 606h336l-166 -1065h-338l35 225h-14q-31 -94 -126.5 -169.5t-238.5 -75.5q-164 0 -249 105t-54 300l106 680h336zM397 1286l31 191h690l-31 -191h-690z" glyph-name="umacron" unicode="ū"/><glyph d="M623 -20q-279 0 -420.5 142t-96.5 423l142 889h346l-137 -863q-23 -143 37.5 -217.5t183.5 -74.5q238 0 285 292l137 863h348l-141 -889q-47 -281 -229.5 -423t-454.5 -142zM522 1845h219q-8 -137 127 -137q133 0 162 137h219q-27 -158 -130 -242.5t-277 -84.5 q-176 0 -261.5 85.5t-58.5 241.5z" glyph-name="Ubreve" horiz-adv-x="1409" unicode="Ŭ"/><glyph d="M432 467q-18 -109 23 -160t125 -51q178 0 221 203l96 606h336l-166 -1065h-338l35 225h-14q-31 -94 -126.5 -169.5t-238.5 -75.5q-164 0 -249 105t-54 300l106 680h336zM410 1477h219q-8 -137 127 -138q133 0 162 138h219q-27 -158 -130.5 -243t-277.5 -85 q-176 0 -261 86t-58 242z" glyph-name="ubreve" unicode="ŭ"/><glyph d="M623 -20q-279 0 -420.5 142t-96.5 423l142 889h346l-137 -863q-23 -143 37.5 -217.5t183.5 -74.5q238 0 285 292l137 863h348l-141 -889q-47 -281 -229.5 -423t-454.5 -142zM643 1718q0 90 63.5 151.5t157.5 61.5t156.5 -61.5t62.5 -151.5t-62.5 -151.5t-156.5 -61.5 t-157.5 61.5t-63.5 151.5zM797 1718.5q0 -30.5 18.5 -49t48.5 -18.5q29 0 48.5 18.5t19.5 49t-19.5 49t-48 18.5t-48 -18.5t-19.5 -49z" glyph-name="Uring" horiz-adv-x="1409" unicode="Ů"/><glyph d="M432 467q-18 -109 23 -160t125 -51q178 0 221 203l96 606h336l-166 -1065h-338l35 225h-14q-31 -94 -126.5 -169.5t-238.5 -75.5q-164 0 -249 105t-54 300l106 680h336zM530 1350q0 90 63.5 151.5t158 61.5t157 -61.5t62.5 -151.5t-62.5 -151.5t-157 -61.5t-158 61.5 t-63.5 151.5zM684 1349.5q0 -30.5 18.5 -49t49.5 -18.5q29 0 48 18.5t19 49t-19.5 49t-48 18.5t-48 -18.5t-19.5 -49z" glyph-name="uring" unicode="ů"/><glyph d="M623 -20q-279 0 -420.5 142t-96.5 423l142 889h346l-137 -863q-23 -143 37.5 -217.5t183.5 -74.5q238 0 285 292l137 863h348l-141 -889q-47 -281 -229.5 -423t-454.5 -142zM463 1556l264 289h289l-264 -289h-289zM860 1556l264 289h289l-264 -289h-289z" glyph-name="Uhungarumlaut" horiz-adv-x="1409" unicode="Ű"/><glyph d="M432 467q-18 -109 23 -160t125 -51q178 0 221 203l96 606h336l-166 -1065h-338l35 225h-14q-31 -94 -126.5 -169.5t-238.5 -75.5q-164 0 -249 105t-54 300l106 680h336zM348 1188l264 289h289l-264 -289h-289zM745 1188l265 289h288l-264 -289h-289z" glyph-name="uhungarumlaut" unicode="ű"/><glyph d="M702 -395q-33 -18 -91 -22.5t-118.5 8t-103.5 59.5t-43 121q0 133 125 221q-207 37 -305 176t-60 377l142 889h346l-137 -863q-23 -143 37.5 -217.5t183.5 -74.5q238 0 285 292l137 863h348l-141 -889q-41 -244 -183.5 -383t-359.5 -172q-78 -14 -122 -55t-44 -91 q0 -47 39 -62t94 7z" glyph-name="Uogonek" horiz-adv-x="1409" unicode="Ų"/><glyph d="M432 467q-18 -109 23 -160t125 -51q178 0 221 203l96 606h336l-166 -1065h-2q-127 0 -199.5 -44t-72.5 -112q0 -47 38.5 -62t94.5 7l-31 -184q-33 -18 -90 -22.5t-117.5 8t-104.5 59.5t-44 121q0 84 54 153.5t142 108.5l29 192h-14q-31 -94 -126.5 -169.5t-238.5 -75.5 q-164 0 -249 105t-54 300l106 680h336z" glyph-name="uogonek" unicode="ų"/><glyph d="M328 0l-142 1434h353l59 -949h14l404 949h352l107 -949h14l358 949h357l-596 -1434h-359l-125 1001l-438 -1001h-358zM784 1550l232 295h487l137 -295h-311l-88 195l-143 -195h-314z" glyph-name="Wcircumflex" horiz-adv-x="2101" unicode="Ŵ"/><glyph d="M225 0l-108 1065h313l49 -741h8l306 741h290l76 -741h6l285 741h315l-438 -1065h-383l-74 618l-258 -618h-387zM528 1182l232 295h487l137 -295h-311l-88 194l-143 -194h-314z" glyph-name="wcircumflex" horiz-adv-x="1714" unicode="ŵ"/><glyph d="M475 0l82 518l-371 916h392l208 -582l394 582h395l-662 -916l-84 -518h-354zM469 1550l231 295h488l137 -295h-311l-88 195l-144 -195h-313z" glyph-name="Ycircumflex" horiz-adv-x="1472" unicode="Ŷ"/><glyph d="M33 -129q217 -25 299 88q43 68 24 147l-239 959h340l127 -637l334 637h344l-592 -1051q-152 -266 -295.5 -359t-382.5 -67zM276 1182l232 295h487l138 -295h-312l-88 194l-143 -194h-314z" glyph-name="ycircumflex" horiz-adv-x="1210" unicode="ŷ"/><glyph d="M475 0l82 518l-371 916h392l208 -582l394 582h395l-662 -916l-84 -518h-354zM481 1712q0 74 54.5 126t128.5 52q72 0 126 -52t54 -126q0 -72 -54.5 -124t-125.5 -52q-74 0 -128.5 51t-54.5 125zM999 1712q0 74 53.5 126t127 52t127 -52t53.5 -126t-53.5 -125t-127 -51 t-127 51t-53.5 125z" glyph-name="Ydieresis" horiz-adv-x="1472" unicode="Ÿ"/><glyph d="M-2 0l49 299l854 836h-711l48 299h1093l-45 -299l-860 -836h735l-49 -299h-1114zM668 1556l264 289h289l-265 -289h-288z" glyph-name="Zacute" horiz-adv-x="1277" unicode="Ź"/><glyph d="M-2 0l45 281l571 503h-473l45 281h867l-45 -281l-572 -503h494l-45 -281h-887zM455 1188l264 289h289l-265 -289h-288z" glyph-name="zacute" horiz-adv-x="1050" unicode="ź"/><glyph d="M-2 0l49 299l854 836h-711l48 299h1093l-45 -299l-860 -836h735l-49 -299h-1114zM676 1712q0 74 54 126t128 52q72 0 126 -52t54 -126q0 -72 -54 -124t-126 -52q-74 0 -128 51t-54 125z" glyph-name="Zdotaccent" horiz-adv-x="1277" unicode="Ż"/><glyph d="M-2 0l45 281l571 503h-473l45 281h867l-45 -281l-572 -503h494l-45 -281h-887zM463 1343.5q0 73.5 54 126t128 52.5q72 0 126 -52.5t54 -126.5q0 -72 -54 -124t-126 -52q-74 0 -128 51.5t-54 125z" glyph-name="zdotaccent" horiz-adv-x="1050" unicode="ż"/><glyph d="M-2 0l49 299l854 836h-711l48 299h1093l-45 -299l-860 -836h735l-49 -299h-1114zM436 1847h312l88 -194l143 194h313l-231 -295h-488z" glyph-name="Zcaron" horiz-adv-x="1277" unicode="Ž"/><glyph d="M-2 0l45 281l571 503h-473l45 281h867l-45 -281l-572 -503h494l-45 -281h-887zM225 1479h312l88 -195l143 195h313l-231 -295h-488z" glyph-name="zcaron" horiz-adv-x="1050" unicode="ž"/><glyph d="M641 -20q-289 0 -443.5 179t-101.5 519l21 127h952v14q0 164 -56.5 250t-197.5 86q-231 0 -311 -199h-340q68 246 253 371t429 125q270 0 425.5 -154.5t155.5 -441.5q0 -172 -52 -328.5t-149.5 -279.5t-249 -195.5t-335.5 -72.5zM422 526q-10 -72 10.5 -123t62.5 -77.5 t88 -38t99 -11.5q238 0 336 250h-596z" glyph-name="uni018F" horiz-adv-x="1462" unicode="Ə"/><glyph d="M-68 -102q41 0 70 14t43 45t21.5 56.5t13.5 70.5l76 491h-136l48 287h133l26 170q27 186 141.5 287.5t374.5 101.5l-47 -286q-68 0 -98.5 -48.5t-46.5 -138.5l-14 -86h116l-47 -287h-114l-93 -575q-33 -203 -145.5 -296t-366.5 -93z" glyph-name="florin" horiz-adv-x="653" unicode="ƒ"/><glyph d="M692 -20q-281 0 -439.5 166.5t-158.5 453.5q0 354 221.5 603t567.5 249h2h448l27 162h282l-63 -416h-188q88 -147 88 -360q0 -356 -220.5 -607t-566.5 -251zM446 610q0 -334 271 -334q131 0 226 85t138 207t43 259q0 328 -266 328q-193 0 -302.5 -165t-109.5 -380z" glyph-name="Ohorn" horiz-adv-x="1515" unicode="Ơ"/><glyph d="M510 -20q-201 0 -332 114.5t-131 343.5q0 270 178 458.5t451 188.5h344l27 160h266l-68 -416h-141q35 -88 35 -202q0 -270 -178.5 -458.5t-450.5 -188.5zM369 473q0 -109 49 -162t133 -53q127 0 196.5 100.5t69.5 233.5q0 109 -49 162t-133 53q-127 0 -196.5 -100.5 t-69.5 -233.5z" glyph-name="ohorn" horiz-adv-x="1185" unicode="ơ"/><glyph d="M623 -20q-279 0 -420.5 142t-96.5 423l142 889h346l-137 -863q-23 -143 37.5 -217.5t183.5 -74.5q238 0 285 292l137 863h313l31 180h282l-71 -434h-248l-100 -635q-47 -281 -229.5 -423t-454.5 -142z" glyph-name="Uhorn" horiz-adv-x="1409" unicode="Ư"/><glyph d="M432 467q-18 -109 23 -160t125 -51q178 0 221 203l96 606h336l-166 -1065h-338l35 225h-14q-31 -94 -126.5 -169.5t-238.5 -75.5q-164 0 -249 105t-54 300l106 680h336zM1294 811l41 254h312l30 180h283l-72 -434h-594z" glyph-name="uhorn" unicode="ư"/><glyph d="M-53 0l739 1434h447l282 -1434h-356l-43 244h-582l-119 -244h-368zM545 1847h311l88 -194l143 194h314l-232 -295h-487zM559 498h412l-105 587h-18z" glyph-name="uni01CD" horiz-adv-x="1529" unicode="Ǎ"/><glyph d="M303 -20q-127 0 -210 60t-83 200q0 295 436 364l170 29q70 10 98.5 27.5t37.5 50.5l4 20q12 53 -19.5 83t-103.5 30q-150 0 -176 -121l-4 -21l-316 -4l8 56q53 332 527 331q244 0 343 -86t70 -258l-118 -741h-320l31 186h-14q-107 -206 -361 -206zM301 1479h311l88 -195 l144 195h313l-231 -295h-488zM354 307q0 -90 117 -90q84 0 148.5 45t74.5 109l21 106q-12 -12 -30.5 -19t-33 -11.5t-38 -8.5t-33.5 -6l-115 -20q-111 -21 -111 -105z" glyph-name="uni01CE" horiz-adv-x="1155" unicode="ǎ"/><glyph d="M20 0l228 1434h342l-228 -1434h-342zM49 1847h311l89 -194l143 194h313l-231 -295h-488z" glyph-name="uni01CF" horiz-adv-x="550" unicode="Ǐ"/><glyph d="M2 0l168 1065h336l-168 -1065h-336zM-31 1479h312l88 -195l143 195h313l-231 -295h-488z" glyph-name="uni01D0" horiz-adv-x="514" unicode="ǐ"/><glyph d="M692 -20q-281 0 -439.5 166.5t-158.5 453.5q0 354 221.5 603t567.5 249q283 0 439.5 -165t156.5 -449q0 -356 -220.5 -607t-566.5 -251zM446 610q0 -334 271 -334q131 0 226 85t138 207t43 259q0 328 -266 328q-193 0 -302.5 -165t-109.5 -380zM532 1847h312l88 -194 l143 194h314l-232 -295h-487z" glyph-name="uni01D1" horiz-adv-x="1515" unicode="Ǒ"/><glyph d="M510 -20q-201 0 -332 114.5t-131 343.5q0 270 178 458.5t451 188.5q201 0 332 -114.5t131 -343.5q0 -270 -178.5 -458.5t-450.5 -188.5zM309 1479h312l88 -195l143 195h313l-231 -295h-488zM369 473q0 -109 49 -162t133 -53q127 0 196.5 100.5t69.5 233.5q0 109 -49 162 t-133 53q-127 0 -196.5 -100.5t-69.5 -233.5z" glyph-name="uni01D2" horiz-adv-x="1185" unicode="ǒ"/><glyph d="M623 -20q-279 0 -420.5 142t-96.5 423l142 889h346l-137 -863q-23 -143 37.5 -217.5t183.5 -74.5q238 0 285 292l137 863h348l-141 -889q-47 -281 -229.5 -423t-454.5 -142zM453 1847h311l88 -194l143 194h314l-232 -295h-487z" glyph-name="uni01D3" horiz-adv-x="1409" unicode="Ǔ"/><glyph d="M432 467q-18 -109 23 -160t125 -51q178 0 221 203l96 606h336l-166 -1065h-338l35 225h-14q-31 -94 -126.5 -169.5t-238.5 -75.5q-164 0 -249 105t-54 300l106 680h336zM338 1479h311l88 -195l144 195h313l-231 -295h-488z" glyph-name="uni01D4" unicode="ǔ"/><glyph d="M623 -20q-279 0 -420.5 142t-96.5 423l142 889h346l-137 -863q-23 -143 37.5 -217.5t183.5 -74.5q238 0 285 292l137 863h348l-141 -889q-47 -281 -229.5 -423t-454.5 -142zM426 1712q0 74 54.5 126t127.5 52q72 0 126 -52t54 -126q0 -72 -54 -124t-126 -52 q-74 0 -128 51t-54 125zM551 2050l31 191h690l-31 -191h-690zM944 1712q0 74 53.5 126t127 52t127 -52t53.5 -126t-53.5 -125t-127 -51t-127 51t-53.5 125z" glyph-name="uni01D5" horiz-adv-x="1409" unicode="Ǖ"/><glyph d="M432 467q-18 -109 23 -160t125 -51q178 0 221 203l96 606h336l-166 -1065h-338l35 225h-14q-31 -94 -126.5 -169.5t-238.5 -75.5q-164 0 -249 105t-54 300l106 680h336zM311 1343.5q0 73.5 54.5 126t128.5 52.5q72 0 126 -52.5t54 -126.5q0 -72 -54.5 -124t-125.5 -52 q-74 0 -128.5 51.5t-54.5 125zM438 1681l31 191h690l-31 -191h-690zM829 1343.5q0 73.5 53.5 126t127 52.5t127 -52.5t53.5 -126t-53.5 -125t-127 -51.5t-127 51.5t-53.5 125z" glyph-name="uni01D6" unicode="ǖ"/><glyph d="M623 -20q-279 0 -420.5 142t-96.5 423l142 889h346l-137 -863q-23 -143 37.5 -217.5t183.5 -74.5q238 0 285 292l137 863h348l-141 -889q-47 -281 -229.5 -423t-454.5 -142zM426 1712q0 74 54.5 126t127.5 52q72 0 126 -52t54 -126q0 -72 -54 -124t-126 -52 q-74 0 -128 51t-54 125zM735 1952l264 289h289l-264 -289h-289zM944 1712q0 74 53.5 126t127 52t127 -52t53.5 -126t-53.5 -125t-127 -51t-127 51t-53.5 125z" glyph-name="uni01D7" horiz-adv-x="1409" unicode="Ǘ"/><glyph d="M432 467q-18 -109 23 -160t125 -51q178 0 221 203l96 606h336l-166 -1065h-338l35 225h-14q-31 -94 -126.5 -169.5t-238.5 -75.5q-164 0 -249 105t-54 300l106 680h336zM311 1343.5q0 73.5 54.5 126t128.5 52.5q72 0 126 -52.5t54 -126.5q0 -72 -54.5 -124t-125.5 -52 q-74 0 -128.5 51.5t-54.5 125zM623 1583l264 289h289l-265 -289h-288zM829 1343.5q0 73.5 53.5 126t127 52.5t127 -52.5t53.5 -126t-53.5 -125t-127 -51.5t-127 51.5t-53.5 125z" glyph-name="uni01D8" unicode="ǘ"/><glyph d="M623 -20q-279 0 -420.5 142t-96.5 423l142 889h346l-137 -863q-23 -143 37.5 -217.5t183.5 -74.5q238 0 285 292l137 863h348l-141 -889q-47 -281 -229.5 -423t-454.5 -142zM426 1712q0 74 54.5 126t127.5 52q72 0 126 -52t54 -126q0 -72 -54 -124t-126 -52 q-74 0 -128 51t-54 125zM500 2243h311l88 -195l143 195h314l-232 -295h-487zM944 1712q0 74 53.5 126t127 52t127 -52t53.5 -126t-53.5 -125t-127 -51t-127 51t-53.5 125z" glyph-name="uni01D9" horiz-adv-x="1409" unicode="Ǚ"/><glyph d="M432 467q-18 -109 23 -160t125 -51q178 0 221 203l96 606h336l-166 -1065h-338l35 225h-14q-31 -94 -126.5 -169.5t-238.5 -75.5q-164 0 -249 105t-54 300l106 680h336zM311 1343.5q0 73.5 54.5 126t128.5 52.5q72 0 126 -52.5t54 -126.5q0 -72 -54.5 -124t-125.5 -52 q-74 0 -128.5 51.5t-54.5 125zM385 1874h311l88 -195l144 195h313l-231 -295h-488zM829 1343.5q0 73.5 53.5 126t127 52.5t127 -52.5t53.5 -126t-53.5 -125t-127 -51.5t-127 51.5t-53.5 125z" glyph-name="uni01DA" unicode="ǚ"/><glyph d="M623 -20q-279 0 -420.5 142t-96.5 423l142 889h346l-137 -863q-23 -143 37.5 -217.5t183.5 -74.5q238 0 285 292l137 863h348l-141 -889q-47 -281 -229.5 -423t-454.5 -142zM426 1712q0 74 54.5 126t127.5 52q72 0 126 -52t54 -126q0 -72 -54 -124t-126 -52 q-74 0 -128 51t-54 125zM561 2241h291l172 -289h-291zM944 1712q0 74 53.5 126t127 52t127 -52t53.5 -126t-53.5 -125t-127 -51t-127 51t-53.5 125z" glyph-name="uni01DB" horiz-adv-x="1409" unicode="Ǜ"/><glyph d="M432 467q-18 -109 23 -160t125 -51q178 0 221 203l96 606h336l-166 -1065h-338l35 225h-14q-31 -94 -126.5 -169.5t-238.5 -75.5q-164 0 -249 105t-54 300l106 680h336zM311 1343.5q0 73.5 54.5 126t128.5 52.5q72 0 126 -52.5t54 -126.5q0 -72 -54.5 -124t-125.5 -52 q-74 0 -128.5 51.5t-54.5 125zM449 1872h290l172 -289h-290zM829 1343.5q0 73.5 53.5 126t127 52.5t127 -52.5t53.5 -126t-53.5 -125t-127 -51.5t-127 51.5t-53.5 125z" glyph-name="uni01DC" unicode="ǜ"/><glyph d="M700 -20q-295 0 -449.5 155.5t-154.5 448.5q0 369 217 618.5t570 249.5q244 0 398.5 -126t150.5 -370h-342q-25 199 -234 199q-188 0 -299 -164t-111 -373q0 -162 71 -252t216 -90q115 0 201 62.5t113 196.5l-256 -9l45 279h598l-25 -135q-68 -358 -238 -524t-471 -166z M524 1847h312l88 -194l143 194h313l-231 -295h-487z" glyph-name="Gcaron" horiz-adv-x="1472" unicode="Ǧ"/><glyph d="M420 29q-156 0 -264.5 98t-108.5 305q0 272 150.5 462.5t386.5 190.5q102 0 172.5 -37.5t105.5 -95.5l17 113h335l-151 -946l-8 -74q-14 -119 -66.5 -208t-118 -138t-150.5 -79t-153.5 -39t-140.5 -9q-63 0 -121.5 6t-127 29.5t-115 62.5t-71 111t-9.5 166h294 q-6 -63 51.5 -90t131.5 -27q100 0 174 55.5t86 159.5l8 74l8 39q-125 -129 -315 -129zM313 1479h312l88 -195l143 195h313l-231 -295h-487zM369 508q0 -100 51 -150.5t139 -50.5q117 0 187.5 88t70.5 213q0 98 -53 148.5t-137 50.5q-115 0 -186.5 -88t-71.5 -211z" glyph-name="gcaron" horiz-adv-x="1234" unicode="ǧ"/><glyph d="M20 0l228 1434h342l-103 -650l639 650h402l-639 -637l469 -797h-393l-322 553l-229 -227l-52 -326h-342zM510 1847h311l88 -194l144 194h313l-231 -295h-488z" glyph-name="uni01E8" horiz-adv-x="1472" unicode="Ǩ"/><glyph d="M20 0l228 1434h336l-123 -770l422 401h356l-496 -449l383 -616h-358l-254 408l-108 -99l-50 -309h-336zM39 1847h311l88 -194l144 194h313l-231 -295h-488z" glyph-name="uni01E9" horiz-adv-x="1220" unicode="ǩ"/><glyph d="M760 -395q-33 -18 -90.5 -22.5t-117.5 8t-104.5 59.5t-44.5 121q0 131 129 225q-209 45 -323.5 203.5t-114.5 400.5q0 354 221.5 603t567.5 249q283 0 439.5 -165t156.5 -449q0 -317 -177.5 -556t-467.5 -290h-7q-78 -14 -124 -55t-46 -93q0 -47 39 -62t95 7zM446 610 q0 -334 271 -334q131 0 226 85t138 207t43 259q0 328 -266 328q-193 0 -302.5 -165t-109.5 -380z" glyph-name="uni01EA" horiz-adv-x="1515" unicode="Ǫ"/><glyph d="M563 -395q-33 -18 -91 -22.5t-118.5 8t-103.5 59.5t-43 121q0 139 139 231q-137 39 -218 148.5t-81 287.5q0 270 178 458.5t451 188.5q201 0 332 -114.5t131 -343.5q0 -242 -146.5 -422t-380.5 -217q-70 -16 -111.5 -56.5t-41.5 -87.5t40 -62t93 7zM369 473 q0 -109 49 -162t133 -53q127 0 196.5 100.5t69.5 233.5q0 109 -49 162t-133 53q-127 0 -196.5 -100.5t-69.5 -233.5z" glyph-name="uni01EB" horiz-adv-x="1185" unicode="ǫ"/><glyph d="M604 -20q-283 0 -429 130t-109 373h358q-10 -96 47 -157.5t184 -61.5q109 0 175.5 45t66.5 127q0 57 -39 92t-141 56l-170 32q-168 33 -266.5 112t-98.5 243q0 221 181.5 351t457.5 130q256 0 394.5 -116.5t101.5 -338.5h-354q16 88 -37.5 129t-149.5 41 q-100 0 -163.5 -44t-63.5 -117q0 -104 151 -134l156 -28q223 -43 317.5 -129t94.5 -234q0 -233 -187.5 -367t-476.5 -134zM317 -723l21 133q90 6 131 36t53 97q-98 0 -149 50.5t-51 127.5q0 86 57 144.5t149 58.5q90 0 146.5 -59.5t56.5 -188.5q0 -170 -102.5 -284.5 t-298.5 -114.5h-13z" glyph-name="Scommaaccent" horiz-adv-x="1355" unicode="Ș"/><glyph d="M426 -20q-225 0 -332.5 97t-79.5 285h301q-2 -66 33 -95t113 -29q154 0 153 90q0 51 -94 67l-147 33q-270 61 -271 285q0 174 138.5 273t353.5 99q219 0 318.5 -102t66.5 -281h-279q6 68 -31.5 96.5t-111.5 28.5q-133 0 -133 -73q0 -57 115 -84l166 -39 q123 -29 192.5 -88.5t69.5 -177.5q0 -180 -154 -282.5t-387 -102.5zM215 -743l21 133q90 6 131 36.5t53 98.5q-98 0 -149.5 50t-51.5 128q0 86 57.5 144.5t149.5 58.5q90 0 146.5 -59.5t56.5 -188.5q0 -172 -101.5 -286.5t-300.5 -114.5h-12z" glyph-name="scommaaccent" horiz-adv-x="1040" unicode="ș"/><glyph d="M365 0l180 1135h-408l49 299h1157l-49 -299h-405l-180 -1135h-344zM213 -723l20 133q90 6 131.5 36t53.5 97q-98 0 -149.5 50.5t-51.5 127.5q0 86 57.5 144.5t149.5 58.5q90 0 146.5 -59.5t56.5 -188.5q0 -170 -102.5 -284.5t-299.5 -114.5h-12z" glyph-name="uni021A" horiz-adv-x="1241" unicode="Ț"/><glyph d="M500 -14q-176 0 -260 86t-54 266l74 469h-184l41 258h184l43 278h336l-45 -278h209l-39 -258h-211l-68 -422q-27 -133 97 -133h100l-43 -260q-61 -6 -180 -6zM213 -723l20 133q90 6 131.5 36t53.5 97q-98 0 -149.5 50.5t-51.5 127.5q0 86 57.5 144.5t149.5 58.5 q90 0 146.5 -59.5t56.5 -188.5q0 -170 -102.5 -284.5t-299.5 -114.5h-12z" glyph-name="uni021B" horiz-adv-x="808" unicode="ț"/><glyph d="M-57 -401q-143 0 -191 6l43 260h115q106 0 129 133l170 1067h336l-176 -1116q-27 -180 -138.5 -265t-287.5 -85z" glyph-name="uni0237" horiz-adv-x="550" unicode="ȷ"/><glyph d="M494 -29q-203 0 -327 102.5t-124 329.5q0 129 31 207h721q-4 125 -55.5 175.5t-137.5 50.5q-164 0 -213 -131h-293q61 184 201.5 282t345.5 98t337 -111.5t132 -359.5q0 -279 -167.5 -461t-450.5 -182zM350 432q-10 -86 33 -146.5t149 -60.5q195 0 246 207h-428z" glyph-name="uni0259" horiz-adv-x="1163" unicode="ə"/><glyph d="M104 1182l232 295h487l138 -295h-312l-88 194l-143 -194h-314z" glyph-name="circumflex" horiz-adv-x="856" unicode="ˆ"/><glyph d="M1006 1479l-232 -295h-487l-137 295h311l88 -195l143 195h314z" glyph-name="caron" horiz-adv-x="856" unicode="ˇ"/><glyph d="M469 1149q-176 0 -261 86t-58 242h219q-8 -137 127 -138q133 0 161 138h220q-27 -158 -130.5 -243t-277.5 -85z" glyph-name="breve" horiz-adv-x="727" unicode="˘"/><glyph d="M311 1167q-74 0 -128 51.5t-54 125t54.5 126t127.5 52.5q72 0 126.5 -52.5t54.5 -126.5q0 -72 -54.5 -124t-126.5 -52z" glyph-name="dotaccent" horiz-adv-x="364" unicode="˙"/><glyph d="M352 1137q-94 0 -157.5 61.5t-63.5 151.5t63.5 151.5t157.5 61.5t156.5 -61.5t62.5 -151.5t-62.5 -151.5t-156.5 -61.5zM285 1349.5q0 -30.5 18.5 -49t48.5 -18.5q29 0 48.5 18.5t19.5 49t-19.5 49t-48 18.5t-48 -18.5t-19.5 -49z" glyph-name="ring" horiz-adv-x="444" unicode="˚"/><glyph d="M238 -395q-33 -18 -90.5 -22.5t-118 8t-104.5 59.5t-44 121q0 127 117 215t264 88l146 -74q-127 0 -200 -44t-73 -112q0 -47 39 -62t94 7z" glyph-name="ogonek" horiz-adv-x="493" unicode="˛"/><glyph d="M647 1196q-51 0 -92 17.5t-61.5 37t-45 37t-47.5 17.5q-66 0 -73 -52h-195q14 117 80 182.5t170 65.5q68 0 116 -26.5t76.5 -53t53.5 -26.5q66 0 73 51h195q-14 -117 -80 -183.5t-170 -66.5z" glyph-name="tilde" horiz-adv-x="772" unicode="˜"/><glyph d="M502 1188l264 289h289l-264 -289h-289zM104 1188l265 289h288l-264 -289h-289z" glyph-name="hungarumlaut" horiz-adv-x="903" unicode="˝"/><glyph d="M340 1188l-172 289h291l172 -289h-291z" glyph-name="gravecomb" horiz-adv-x="0" unicode="̀"/><glyph d="M104 1188l265 289h288l-264 -289h-289z" glyph-name="acutecomb" horiz-adv-x="0" unicode="́"/><glyph d="M104 1182l232 295h487l138 -295h-312l-88 194l-143 -194h-314z" glyph-name="uni0302" horiz-adv-x="0" unicode="̂"/><glyph d="M647 1196q-51 0 -92 17.5t-61.5 37t-45 37t-47.5 17.5q-66 0 -73 -52h-195q14 117 80 182.5t170 65.5q68 0 116 -26.5t76.5 -53t53.5 -26.5q66 0 73 51h195q-14 -117 -80 -183.5t-170 -66.5z" glyph-name="tildecomb" horiz-adv-x="0" unicode="̃"/><glyph d="M119 1286l31 191h690l-31 -191h-690z" glyph-name="uni0304" horiz-adv-x="0" unicode="̄"/><glyph d="M469 1149q-176 0 -261 86t-58 242h219q-8 -137 127 -138q133 0 161 138h220q-27 -158 -130.5 -243t-277.5 -85z" glyph-name="uni0306" horiz-adv-x="0" unicode="̆"/><glyph d="M311 1167q-74 0 -128 51.5t-54 125t54.5 126t127.5 52.5q72 0 126.5 -52.5t54.5 -126.5q0 -72 -54.5 -124t-126.5 -52z" glyph-name="uni0307" horiz-adv-x="0" unicode="̇"/><glyph d="M827.5 1167q-73.5 0 -127 51.5t-53.5 125t53.5 126t127 52.5t127 -52.5t53.5 -126t-53.5 -125t-127 -51.5zM129 1343.5q0 73.5 54.5 126t127.5 52.5q72 0 126.5 -52.5t54.5 -126.5q0 -72 -54.5 -124t-126.5 -52q-74 0 -128 51.5t-54 125z" glyph-name="uni0308" horiz-adv-x="0" unicode="̈"/><glyph d="M324 1300q76 2 75 62q0 25 -14 38t-35 13q-43 0 -49 -47h-166q0 115 64.5 168t154.5 53q96 0 162 -54t66 -161q0 -88 -54.5 -140t-144.5 -65z" glyph-name="hookabovecomb" horiz-adv-x="0" unicode="̉"/><glyph d="M352 1137q-94 0 -157.5 61.5t-63.5 151.5t63.5 151.5t157.5 61.5t156.5 -61.5t62.5 -151.5t-62.5 -151.5t-156.5 -61.5zM285 1349.5q0 -30.5 18.5 -49t48.5 -18.5q29 0 48.5 18.5t19.5 49t-19.5 49t-48 18.5t-48 -18.5t-19.5 -49z" glyph-name="uni030A" horiz-adv-x="0" unicode="̊"/><glyph d="M502 1188l264 289h289l-264 -289h-289zM104 1188l265 289h288l-264 -289h-289z" glyph-name="uni030B" horiz-adv-x="0" unicode="̋"/><glyph d="M1006 1479l-232 -295h-487l-137 295h311l88 -195l143 195h314z" glyph-name="uni030C" horiz-adv-x="0" unicode="̌"/><glyph d="M539 1280q-90 -6 -131 -36t-54 -97q98 0 149.5 -50t51.5 -128q0 -86 -57.5 -144.5t-149.5 -58.5q-90 0 -146.5 59.5t-56.5 188.5q0 170 102.5 284.5t299.5 114.5h12z" glyph-name="uni0312" horiz-adv-x="0" unicode="̒"/><glyph d="M47 811l41 254h311l31 180h283l-72 -434h-594z" glyph-name="uni031B" horiz-adv-x="0" unicode="̛"/><glyph d="M174 -471q-84 0 -141.5 56.5t-57.5 138t57.5 138t141.5 56.5q82 0 140.5 -56.5t58.5 -138t-58.5 -138t-140.5 -56.5z" glyph-name="dotbelowcomb" horiz-adv-x="0" unicode="̣"/><glyph d="M-109 -590q92 6 133.5 36t53.5 97q-100 0 -151.5 50.5t-51.5 127.5q0 86 57.5 144.5t151.5 58.5q90 0 146.5 -59.5t56.5 -188.5q0 -170 -102.5 -284.5t-301.5 -114.5h-12z" glyph-name="uni0326" horiz-adv-x="0" unicode="̦"/><glyph d="M-59 -373q61 -2 102 17.5t41 58.5q0 41 -42 49t-81 -18l-70 110l170 156h218l-140 -117h8q76 0 120 -43t44 -116q0 -127 -114.5 -191.5t-284.5 -64.5z" glyph-name="uni0327" horiz-adv-x="0" unicode="̧"/><glyph d="M238 -395q-33 -18 -90.5 -22.5t-118 8t-104.5 59.5t-44 121q0 127 117 215t264 88l146 -74q-127 0 -200 -44t-73 -112q0 -47 39 -62t94 7z" glyph-name="uni0328" horiz-adv-x="0" unicode="̨"/><glyph d="M-53 0l878 1460h2l418 -1460h-1298zM401 258h478l-140 604z" glyph-name="Delta" horiz-adv-x="1359" unicode="Δ"/><glyph d="M33 0l41 270h170q-145 150 -146 369q0 324 255 566.5t579 242.5q264 0 444 -166t180 -440q0 -344 -296 -572h172l-41 -270h-570l56 350q152 57 239.5 185.5t87.5 267.5q0 141 -89 230t-232 89q-178 0 -306 -135t-128 -307q0 -106 53 -194.5t155 -135.5l-55 -350h-569z " glyph-name="Omega" horiz-adv-x="1589" unicode="Ω"/><glyph d="M-43 -389l229 1454h338l-92 -598q-18 -109 23 -160t125 -51q178 0 221 203l96 606h336l-166 -1065h-338l35 225h-14q-31 -94 -126.5 -169.5t-238.5 -75.5l-33 2l-57 -371h-338z" glyph-name="mu" unicode="μ"/><glyph d="M1163 -12q-150 0 -246 83t-71 242l72 465h-254l-123 -778h-336l123 778h-207l47 287h1333l-47 -287h-201l-61 -391q-12 -66 9.5 -89.5t72.5 -23.5q76 0 131 33l-45 -284q-84 -35 -197 -35z" glyph-name="pi" horiz-adv-x="1511" unicode="π"/><glyph d="M20 0l228 1434h997l-49 -299h-653l-47 -279h591l-40 -266h-592l-41 -291h673l-51 -299h-1016zM377 1712q0 74 54 126t128 52q72 0 126 -52t54 -126q0 -72 -54 -124t-126 -52q-74 0 -128 51t-54 125zM895 1712q0 74 53 126t127 52t127 -52t53 -126t-53 -125t-127 -51 t-127 51t-53 125z" glyph-name="afii10023" horiz-adv-x="1173" unicode="Ё"/><glyph d="M20 0l228 1434h944l-47 -304h-594l-180 -1130h-351zM571 1556l265 289h288l-264 -289h-289z" glyph-name="afii10052" horiz-adv-x="1091" unicode="Ѓ"/><glyph d="M682 -20q-281 0 -433.5 159.5t-152.5 460.5q0 362 210 607t566 245q260 0 414 -136t135 -401h-329q-10 127 -80 183.5t-172 56.5q-135 0 -224.5 -80t-132.5 -211h379l-47 -280h-366q10 -143 77.5 -225.5t198.5 -82.5q211 0 307 242h330q-59 -272 -244.5 -405t-435.5 -133 z" glyph-name="afii10053" horiz-adv-x="1425" unicode="Є"/><glyph d="M20 0l228 1434h342l-228 -1434h-342zM18 1712q0 74 54.5 126t128.5 52q72 0 126 -52t54 -126q0 -72 -54.5 -124t-125.5 -52q-74 0 -128.5 51t-54.5 125zM537 1712q0 74 53 126t127 52t127 -52t53 -126t-53 -125t-127 -51t-127 51t-53 125z" glyph-name="afii10056" horiz-adv-x="550" unicode="Ї"/><glyph d="M20 0l228 1434h342l-103 -650l639 650h402l-639 -637l469 -797h-393l-322 553l-229 -227l-52 -326h-342zM602 1556l264 289h289l-264 -289h-289z" glyph-name="afii10061" horiz-adv-x="1472" unicode="Ќ"/><glyph d="M141 272q94 -10 153.5 5.5t79 36t34.5 53.5q39 68 2 221l-224 846h387l109 -570l295 570h391l-616 -1041q-162 -268 -297.5 -360t-362.5 -70zM479 1845h219q-8 -137 127 -137q133 0 162 137h219q-27 -158 -130 -242.5t-277 -84.5q-176 0 -261.5 85.5t-58.5 241.5z" glyph-name="afii10062" horiz-adv-x="1265" unicode="Ў"/><glyph d="M-53 0l739 1434h447l282 -1434h-356l-43 244h-582l-119 -244h-368zM559 498h412l-105 587h-18z" glyph-name="afii10017" horiz-adv-x="1529" unicode="А"/><glyph d="M20 0l228 1434h944l-47 -304h-594l-27 -163h246q487 0 487 -418q0 -252 -174 -400.5t-467 -148.5h-596zM418 297h219q119 0 181.5 57.5t62.5 151.5q0 164 -189 164h-215z" glyph-name="afii10018" horiz-adv-x="1316" unicode="Б"/><glyph d="M20 0l228 1434h586q426 0 426 -326q0 -244 -252 -326q250 -74 249 -317q0 -215 -171 -340t-433 -125h-633zM410 289h247q111 0 180.5 59.5t69.5 147.5q0 147 -174 147h-266zM498 858h223q78 0 128 50t50 124q0 113 -119 113h-239z" glyph-name="afii10019" horiz-adv-x="1325" unicode="В"/><glyph d="M20 0l228 1434h944l-47 -304h-594l-180 -1130h-351z" glyph-name="afii10020" horiz-adv-x="1091" unicode="Г"/><glyph d="M-76 -141l70 428h106q205 137 297 704l74 443h1094l-183 -1147h150l-68 -428h-336l23 141h-866l-25 -141h-336zM471 287h559l135 843h-393l-22 -139q-91 -559 -279 -704z" glyph-name="afii10021" horiz-adv-x="1624" unicode="Д"/><glyph d="M20 0l228 1434h997l-49 -299h-653l-47 -279h591l-40 -266h-592l-41 -291h673l-51 -299h-1016z" glyph-name="afii10022" horiz-adv-x="1173" unicode="Е"/><glyph d="M-53 0l733 719l-502 715h400l385 -543l86 543h352l-90 -568l561 568h395l-694 -715l469 -719h-400l-378 569l-90 -569h-353l86 547l-563 -547h-397z" glyph-name="afii10024" horiz-adv-x="2156" unicode="Ж"/><glyph d="M528.5 -20q-268.5 0 -389.5 139t-84 377h312q-10 -66 4 -114t47 -72.5t70.5 -36t80.5 -11.5q106 0 177 57.5t71 147.5q0 150 -213 149h-90l39 240h76q111 0 174 48t63 128q0 70 -45 101.5t-112 31.5q-180 0 -220 -207h-311q31 231 183.5 362.5t402.5 131.5 q203 0 320.5 -92t117.5 -240q0 -127 -82 -230.5t-205 -131.5q33 -2 71 -18.5t78 -48.5t66.5 -91t26.5 -135q0 -215 -180 -350t-448.5 -135z" glyph-name="afii10025" horiz-adv-x="1234" unicode="З"/><glyph d="M20 0l228 1434h342l-139 -879h8l667 879h357l-230 -1434h-342l136 856h-9l-651 -856h-367z" glyph-name="afii10026" horiz-adv-x="1441" unicode="И"/><glyph d="M883 1518q-176 0 -261 86t-59 241h219q-8 -137 127 -137q133 0 162 137h219q-27 -158 -130 -242.5t-277 -84.5zM20 0l228 1434h342l-139 -879h8l667 879h357l-230 -1434h-342l136 856h-9l-651 -856h-367z" glyph-name="afii10027" horiz-adv-x="1441" unicode="Й"/><glyph d="M20 0l228 1434h342l-103 -650l639 650h402l-639 -637l469 -797h-393l-322 553l-229 -227l-52 -326h-342z" glyph-name="afii10028" horiz-adv-x="1472" unicode="К"/><glyph d="M-6 289q61 -2 100 7t75 51t46 122l156 965h1081l-227 -1434h-353l181 1130h-377l-109 -679q-41 -252 -210 -371t-412 -94z" glyph-name="afii10029" horiz-adv-x="1411" unicode="Л"/><glyph d="M20 0l228 1434h434l168 -963l463 963h446l-227 -1434h-344l133 844h-12l-398 -844h-264l-137 844h-12l-136 -844h-342z" glyph-name="afii10030" horiz-adv-x="1718" unicode="М"/><glyph d="M883 0l92 578h-520l-93 -578h-342l228 1434h342l-90 -572h520l90 572h344l-227 -1434h-344z" glyph-name="afii10031" horiz-adv-x="1413" unicode="Н"/><glyph d="M692 -20q-281 0 -439.5 166.5t-158.5 453.5q0 354 221.5 603t567.5 249q283 0 439.5 -165t156.5 -449q0 -356 -220.5 -607t-566.5 -251zM446 610q0 -334 271 -334q131 0 226 85t138 207t43 259q0 328 -266 328q-193 0 -302.5 -165t-109.5 -380z" glyph-name="afii10032" horiz-adv-x="1515" unicode="О"/><glyph d="M20 0l228 1434h1196l-227 -1434h-353l180 1130h-493l-180 -1130h-351z" glyph-name="afii10033" horiz-adv-x="1402" unicode="П"/><glyph d="M20 0l228 1434h590q489 0 489 -414q0 -256 -174 -409.5t-469 -153.5h-248l-74 -457h-342zM483 756h236q117 0 184.5 59t67.5 158q0 162 -193 162h-235z" glyph-name="afii10034" horiz-adv-x="1310" unicode="Р"/><glyph d="M682 -20q-281 0 -433.5 159.5t-152.5 460.5q0 362 210 607t566 245q260 0 414 -136t135 -401h-329q-10 127 -80 183.5t-172 56.5q-131 0 -224.5 -83t-131.5 -196.5t-38 -242.5q0 -166 69 -261.5t210 -95.5q211 0 307 242h330q-59 -272 -244.5 -405t-435.5 -133z" glyph-name="afii10035" horiz-adv-x="1425" unicode="С"/><glyph d="M365 0l180 1135h-408l49 299h1157l-49 -299h-405l-180 -1135h-344z" glyph-name="afii10036" horiz-adv-x="1241" unicode="Т"/><glyph d="M141 272q94 -10 153.5 5.5t79 36t34.5 53.5q39 68 2 221l-224 846h387l109 -570l295 570h391l-616 -1041q-162 -268 -297.5 -360t-362.5 -70z" glyph-name="afii10037" horiz-adv-x="1265" unicode="У"/><glyph d="M502 -31l26 166q-207 37 -319.5 164t-112.5 324q0 264 171 445t446 230l26 166h353l-27 -166q207 -37 318.5 -161.5t111.5 -321.5q0 -266 -169 -448.5t-445 -231.5l-27 -166h-352zM436 662q0 -178 137 -242l95 594q-109 -45 -170.5 -138t-61.5 -214zM926 420 q109 43 169 136t60 220q0 178 -135 240z" glyph-name="afii10038" horiz-adv-x="1531" unicode="Ф"/><glyph d="M-53 0l598 737l-342 697h385l196 -402l326 402h381l-561 -695l362 -739h-387l-217 442l-358 -442h-383z" glyph-name="afii10039" horiz-adv-x="1406" unicode="Х"/><glyph d="M20 0l228 1434h350l-178 -1131h493l179 1131h352l-180 -1131h157l-96 -592h-336l47 289h-1016z" glyph-name="afii10040" horiz-adv-x="1486" unicode="Ц"/><glyph d="M487 305q-199 0 -304 120t-68 368l102 641h350l-96 -627q-14 -88 37 -143.5t149 -55.5q121 0 201 70t96 133v-10l101 633h352l-227 -1434h-353l78 489q-55 -51 -99 -84.5t-132.5 -66.5t-186.5 -33z" glyph-name="afii10041" horiz-adv-x="1366" unicode="Ч"/><glyph d="M20 0l228 1434h350l-178 -1131h242l178 1131h352l-178 -1131h239l179 1131h352l-228 -1434h-1536z" glyph-name="afii10042" horiz-adv-x="1744" unicode="Ш"/><glyph d="M20 0l228 1434h350l-178 -1131h242l178 1131h352l-178 -1131h239l179 1131h352l-180 -1131h149l-96 -592h-334l47 289h-1350z" glyph-name="afii10043" horiz-adv-x="1820" unicode="Щ"/><glyph d="M127 1130l49 304h535l-74 -467h240q496 0 495 -412q0 -256 -176 -405.5t-471 -149.5h-592l180 1130h-186zM530 297h240q106 0 165.5 58.5t59.5 156.5q0 158 -170 158h-237z" glyph-name="afii10044" horiz-adv-x="1425" unicode="Ъ"/><glyph d="M20 0l228 1434h350l-74 -467h240q496 0 496 -412q0 -256 -176.5 -405.5t-471.5 -149.5h-592zM418 297h239q106 0 166 58.5t60 156.5q0 158 -170 158h-238zM1321 0l227 1434h342l-227 -1434h-342z" glyph-name="afii10045" horiz-adv-x="1851" unicode="Ы"/><glyph d="M20 0l228 1434h350l-74 -467h240q496 0 496 -412q0 -256 -176.5 -405.5t-471.5 -149.5h-592zM418 297h239q106 0 166 58.5t60 156.5q0 158 -170 158h-238z" glyph-name="afii10046" horiz-adv-x="1314" unicode="Ь"/><glyph d="M602 567l43 281h379q-10 143 -77.5 225t-198.5 82q-211 0 -308 -242h-329q59 272 244.5 405.5t435.5 133.5q281 0 433 -159.5t152 -461.5q0 -362 -210 -606.5t-566 -244.5q-260 0 -413.5 136t-135.5 400h330q10 -127 79.5 -183.5t172.5 -56.5q135 0 224 80t132 211h-387z " glyph-name="afii10047" horiz-adv-x="1415" unicode="Э"/><glyph d="M20 0l228 1434h342l-90 -572h184q74 260 274.5 425t477.5 165q283 0 439.5 -165t156.5 -449q0 -356 -220.5 -607t-566.5 -251q-274 0 -433 160.5t-165 437.5h-192l-93 -578h-342zM999 610q0 -334 271 -334q131 0 226 85t138 207t43 259q0 328 -266 328 q-193 0 -302.5 -165t-109.5 -380z" glyph-name="afii10048" horiz-adv-x="2068" unicode="Ю"/><glyph d="M793 0l73 457h-180l-348 -457h-371l385 500q-229 88 -229 370q0 256 178 410t469 154h594l-227 -1434h-344zM483 930q0 -174 191 -174h239l60 379h-244q-117 0 -181.5 -55.5t-64.5 -149.5z" glyph-name="afii10049" horiz-adv-x="1325" unicode="Я"/><glyph d="M303 -20q-127 0 -210 60t-83 200q0 295 436 364l170 29q70 10 98.5 27.5t37.5 50.5l4 20q12 53 -19.5 83t-103.5 30q-150 0 -176 -121l-4 -21l-316 -4l8 56q53 332 527 331q244 0 343 -86t70 -258l-118 -741h-320l31 186h-14q-107 -206 -361 -206zM354 307q0 -90 117 -90 q84 0 148.5 45t74.5 109l21 106q-12 -12 -30.5 -19t-33 -11.5t-38 -8.5t-33.5 -6l-115 -20q-111 -21 -111 -105z" glyph-name="afii10065" horiz-adv-x="1155" unicode="а"/><glyph d="M535 -18q-272 0 -380 189t-61 499l39 233q80 530 574 531h30q57 0 82 2t51.5 11t49.5 32h294q-35 -174 -112.5 -239.5t-278.5 -65.5h-121q-205 0 -245 -226q23 37 110.5 75t192.5 38q158 0 278.5 -103.5t120.5 -322.5q0 -279 -180 -466t-444 -187zM389 457 q0 -106 50 -156.5t130 -50.5q129 0 199 104.5t70 237.5q0 111 -51.5 164t-135.5 53q-129 0 -195.5 -107.5t-66.5 -244.5z" glyph-name="afii10066" horiz-adv-x="1204" unicode="б"/><glyph d="M20 0l166 1065h576q166 0 271.5 -68.5t105.5 -179.5q0 -76 -50.5 -138.5t-134.5 -84.5q193 -74 193 -244q0 -168 -151.5 -259t-368.5 -91h-607zM397 268h285q143 0 143 109q0 78 -120 78h-277zM457 649h243q51 0 80 19.5t34 35t5 29.5q0 63 -92 64h-246z" glyph-name="afii10067" horiz-adv-x="1232" unicode="в"/><glyph d="M20 0l166 1065h783l-43 -260h-447l-123 -805h-336z" glyph-name="afii10068" horiz-adv-x="917" unicode="г"/><glyph d="M252 0l-19 -102h-305l64 362h108q72 49 106 154.5t66 328.5l47 322h1008l-127 -805h111l-64 -362h-303l19 102h-711zM428 260h434l84 545h-334l-18 -141q-25 -184 -64 -274.5t-102 -129.5z" glyph-name="afii10069" horiz-adv-x="1382" unicode="д"/><glyph d="M512 -29q-94 0 -174 24.5t-147.5 77t-105.5 147.5t-38 222q0 279 168 461t451 182q203 0 326.5 -102t123.5 -330q0 -135 -31 -207h-723q4 -127 52.5 -176t142.5 -49q92 0 137 34t74 97h295q-66 -184 -208 -282.5t-343 -98.5zM379 625h430q10 90 -33 148t-149 58 q-193 1 -248 -206z" glyph-name="afii10070" horiz-adv-x="1163" unicode="е"/><glyph d="M-74 0l592 524l-414 541h414l283 -385l61 385h336l-63 -397l419 397h412l-584 -541l426 -524h-415l-301 387l-62 -387h-336l60 377l-416 -377h-412z" glyph-name="afii10072" horiz-adv-x="1902" unicode="ж"/><glyph d="M467 -18q-244 0 -355.5 110.5t-78.5 325.5h299q-27 -197 172 -197q86 0 137 35t51 92q0 119 -211 121l31 166q209 0 209 115q0 88 -129 88q-156 0 -178 -152h-303q61 393 510 393q184 0 303.5 -68.5t119.5 -199.5q0 -92 -59 -159.5t-151 -92.5q20 -4 42.5 -13t60.5 -33 t61.5 -70t23.5 -107q0 -164 -163 -259t-392 -95z" glyph-name="afii10073" horiz-adv-x="1130" unicode="з"/><glyph d="M20 0l166 1065h338l-92 -590h8l480 590h333l-168 -1065h-335l86 567h-9l-460 -567h-347z" glyph-name="afii10074" horiz-adv-x="1271" unicode="и"/><glyph d="M20 0l166 1065h338l-92 -590h8l480 590h333l-168 -1065h-335l86 567h-9l-460 -567h-347zM424 1477h219q-8 -137 127 -138q133 0 162 138h219q-27 -158 -130 -243t-278 -85q-176 0 -261 86t-58 242z" glyph-name="afii10075" horiz-adv-x="1271" unicode="й"/><glyph d="M20 0l166 1065h338l-59 -375l385 375h379l-492 -453l383 -612h-356l-262 393l-99 -90l-47 -303h-336z" glyph-name="afii10076" horiz-adv-x="1214" unicode="к"/><glyph d="M-14 254q94 -2 156.5 42t82.5 167l94 602h965l-166 -1065h-321l112 805h-299l-53 -361q-39 -252 -203 -364.5t-409 -85.5z" glyph-name="afii10077" horiz-adv-x="1304" unicode="л"/><glyph d="M20 0l166 1065h394l174 -672l381 672h393l-166 -1065h-338l90 547h-10l-287 -547h-244l-118 547h-11l-88 -547h-336z" glyph-name="afii10078" horiz-adv-x="1548" unicode="м"/><glyph d="M20 0l166 1065h338l-59 -379h321l60 379h336l-170 -1065h-334l67 424h-321l-68 -424h-336z" glyph-name="afii10079" horiz-adv-x="1200" unicode="н"/><glyph d="M510 -20q-201 0 -332 114.5t-131 343.5q0 270 178 458.5t451 188.5q201 0 332 -114.5t131 -343.5q0 -270 -178.5 -458.5t-450.5 -188.5zM369 473q0 -109 49 -162t133 -53q127 0 196.5 100.5t69.5 233.5q0 109 -49 162t-133 53q-127 0 -196.5 -100.5t-69.5 -233.5z" glyph-name="afii10080" horiz-adv-x="1185" unicode="о"/><glyph d="M20 0l166 1065h977l-170 -1065h-334l123 805h-303l-123 -805h-336z" glyph-name="afii10081" horiz-adv-x="1181" unicode="п"/><glyph d="M-43 -389l229 1454h338l-22 -143h2q29 63 121 113t206 50q158 0 266.5 -108.5t108.5 -323.5q0 -270 -160.5 -471.5t-404.5 -201.5q-111 0 -179.5 48t-84.5 115l-82 -532h-338zM422 473q0 -109 50 -162t130 -53q125 0 204 98.5t79 233.5q0 109 -53.5 163t-135.5 54 q-125 0 -199.5 -98.5t-74.5 -235.5z" glyph-name="afii10082" horiz-adv-x="1249" unicode="р"/><glyph d="M510 -20q-195 0 -329 109.5t-134 342.5q0 274 177 463.5t456 189.5q63 0 120.5 -10t118 -39.5t103.5 -78t66.5 -131.5t17.5 -191h-295q-2 170 -178 170q-131 0 -201 -101.5t-70 -234.5q0 -209 189 -209q168 0 231 168h295q-33 -131 -98.5 -224t-149.5 -139.5 t-161.5 -65.5t-157.5 -19z" glyph-name="afii10083" horiz-adv-x="1153" unicode="с"/><glyph d="M305 0l127 805h-330l43 260h994l-43 -260h-328l-125 -805h-338z" glyph-name="afii10084" horiz-adv-x="1116" unicode="т"/><glyph d="M33 -129q217 -25 299 88q43 68 24 147l-239 959h340l127 -637l334 637h344l-592 -1051q-152 -266 -295.5 -359t-382.5 -67z" glyph-name="afii10085" horiz-adv-x="1210" unicode="у"/><glyph d="M334 -389l61 389q-154 37 -252 139.5t-98 280.5q0 248 145.5 421t372.5 222l60 371h315l-59 -373q152 -37 249 -142.5t97 -283.5q0 -244 -145.5 -418t-368.5 -221l-62 -385h-315zM315 449q0 -143 121 -195l86 551q-207 -80 -207 -356zM752 258q203 80 202 342 q0 150 -116 203z" glyph-name="afii10086" horiz-adv-x="1269" unicode="ф"/><glyph d="M-33 0l451 539l-256 526h356l129 -289l211 289h367l-424 -526l282 -539h-356l-154 299l-239 -299h-367z" glyph-name="afii10087" horiz-adv-x="1218" unicode="х"/><glyph d="M20 0l166 1065h338l-125 -805h303l125 805h336l-129 -805h152l-90 -547h-320l47 287h-803z" glyph-name="afii10088" horiz-adv-x="1329" unicode="ц"/><glyph d="M758 485q-20 -78 -119.5 -145.5t-247.5 -67.5q-168 0 -257 102.5t-56 317.5l59 373h336l-53 -332q-12 -92 30 -139t121 -47q84 0 146.5 46t75.5 120l55 352h336l-168 -1065h-336z" glyph-name="afii10089" horiz-adv-x="1204" unicode="ч"/><glyph d="M20 0l166 1065h338l-125 -805h230l125 805h315l-123 -805h230l124 805h336l-168 -1065h-1448z" glyph-name="afii10090" horiz-adv-x="1654" unicode="ш"/><glyph d="M1249 -287l47 287h-1276l166 1065h338l-125 -805h230l125 805h315l-123 -805h230l124 805h336l-127 -805h150l-88 -547h-322z" glyph-name="afii10091" horiz-adv-x="1802" unicode="щ"/><glyph d="M72 805l45 260h520l-57 -346h274q184 0 283.5 -80t99.5 -213q0 -195 -140.5 -310.5t-355.5 -115.5h-608l125 805h-186zM512 260h262q61 0 97 33t36 84q0 35 -25.5 57.5t-76.5 22.5h-262z" glyph-name="afii10092" horiz-adv-x="1312" unicode="ъ"/><glyph d="M20 0l166 1065h338l-57 -346h274q184 0 283.5 -80t99.5 -213q0 -195 -140 -310.5t-355 -115.5h-609zM399 260h263q61 0 97 33t36 84q0 35 -26 57.5t-77 22.5h-262zM1176 0l167 1065h336l-168 -1065h-335z" glyph-name="afii10093" horiz-adv-x="1699" unicode="ы"/><glyph d="M20 0l166 1065h338l-57 -346h274q184 0 283.5 -80t99.5 -213q0 -195 -140 -310.5t-355 -115.5h-609zM399 260h263q61 0 97 33t36 84q0 35 -26 57.5t-77 22.5h-262z" glyph-name="afii10094" horiz-adv-x="1200" unicode="ь"/><glyph d="M479 432l27 203h274q-16 170 -186 170q-168 0 -232 -168h-294q33 131 98 224t149 139.5t162 65.5t158 19q195 0 329 -109.5t134 -342.5q0 -274 -177.5 -463.5t-455.5 -189.5q-63 0 -120.5 10t-118 39.5t-103.5 78t-66.5 131.5t-17.5 191h295q2 -170 178 -170 q166 0 240 172h-273z" glyph-name="afii10095" horiz-adv-x="1144" unicode="э"/><glyph d="M2 0l168 1065h336l-64 -401h123q66 188 223.5 304.5t368.5 116.5q201 0 332 -114.5t131 -343.5q0 -270 -178 -458.5t-451 -188.5q-193 0 -321.5 105t-141.5 316h-127l-63 -401h-336zM850 473q0 -109 49 -162t133 -53q127 0 196.5 100.5t69.5 233.5q0 109 -49 162t-133 53 q-127 0 -196.5 -100.5t-69.5 -233.5z" glyph-name="afii10096" horiz-adv-x="1667" unicode="ю"/><glyph d="M688 0l55 346h-112l-293 -346h-348l313 367q-217 61 -217 290q0 184 138 296t356 112h610l-168 -1065h-334zM410 692q0 -84 108 -84h262l31 197h-262q-76 0 -107.5 -33t-31.5 -80z" glyph-name="afii10097" horiz-adv-x="1210" unicode="я"/><glyph d="M512 -29q-94 0 -174 24.5t-147.5 77t-105.5 147.5t-38 222q0 279 168 461t451 182q203 0 326.5 -102t123.5 -330q0 -135 -31 -207h-723q4 -127 52.5 -176t142.5 -49q92 0 137 34t74 97h295q-66 -184 -208 -282.5t-343 -98.5zM264 1343.5q0 73.5 54.5 126t127.5 52.5 q72 0 126.5 -52.5t54.5 -126.5q0 -72 -54.5 -124t-126.5 -52q-74 0 -128 51.5t-54 125zM379 625h430q10 90 -33 148t-149 58q-193 1 -248 -206zM782 1343.5q0 73.5 53.5 126t127 52.5t127 -52.5t53.5 -126t-53.5 -125t-127 -51.5t-127 51.5t-53.5 125z" glyph-name="afii10071" horiz-adv-x="1163" unicode="ё"/><glyph d="M20 0l166 1065h783l-43 -260h-447l-123 -805h-336zM410 1188l264 289h289l-265 -289h-288z" glyph-name="afii10100" horiz-adv-x="917" unicode="ѓ"/><glyph d="M510 -20q-195 0 -329 109.5t-134 342.5q0 274 177 463.5t456 189.5q63 0 120.5 -10t118 -39.5t103.5 -78t66.5 -131.5t17.5 -191h-295q-2 170 -178 170q-168 0 -238 -170h273l-35 -203h-268q16 -172 186 -172q168 0 231 168h295q-33 -131 -98.5 -224t-149.5 -139.5 t-161.5 -65.5t-157.5 -19z" glyph-name="afii10101" horiz-adv-x="1153" unicode="є"/><glyph d="M2 0l168 1065h336l-168 -1065h-336zM-61 1343.5q0 73.5 54 126t128 52.5q72 0 126 -52.5t54 -126.5q0 -72 -54 -124t-126 -52q-74 0 -128 51.5t-54 125zM457 1343.5q0 73.5 53 126t127 52.5t127 -52.5t53 -126t-53 -125t-127 -51.5t-127 51.5t-53 125z" glyph-name="afii10104" horiz-adv-x="514" unicode="ї"/><glyph d="M20 0l166 1065h338l-59 -375l385 375h379l-492 -453l383 -612h-356l-262 393l-99 -90l-47 -303h-336zM553 1188l264 289h289l-264 -289h-289z" glyph-name="afii10109" horiz-adv-x="1214" unicode="ќ"/><glyph d="M33 -129q217 -25 299 88q43 68 24 147l-239 959h340l127 -637l334 637h344l-592 -1051q-152 -266 -295.5 -359t-382.5 -67zM305 1477h219q-8 -137 127 -138q133 0 162 138h219q-27 -158 -130 -243t-277 -85q-176 0 -261.5 86t-58.5 242z" glyph-name="afii10110" horiz-adv-x="1210" unicode="ў"/><glyph d="M840 1434l32 204h353l-33 -204l-47 -304h-594l-180 -1130h-351l228 1434h592z" glyph-name="afii10050" horiz-adv-x="1091" unicode="Ґ"/><glyph d="M682 1065l23 135h286l-22 -135l-43 -260h-447l-123 -805h-336l166 1065h496z" glyph-name="afii10098" horiz-adv-x="917" unicode="ґ"/><glyph d="M20 0l228 1434h555q283 0 429 -149.5t146 -444.5q0 -371 -206.5 -605.5t-577.5 -234.5h-574zM383 -276.5q0 81.5 57.5 138t141.5 56.5q82 0 140 -56.5t58 -138t-58 -138t-140 -56.5q-84 0 -141.5 56.5t-57.5 138zM414 299h174q158 0 259 75t141 187.5t40 263.5 q0 174 -65.5 242t-231.5 68h-188z" glyph-name="uni1E0C" horiz-adv-x="1419" unicode="Ḍ"/><glyph d="M418 -20q-158 0 -265.5 106.5t-107.5 319.5q0 281 154.5 480t390.5 199q117 0 189.5 -48t88.5 -115h2l80 512h336l-227 -1434h-336l20 143q-31 -66 -121.5 -114.5t-203.5 -48.5zM303 -276.5q0 81.5 57.5 138t141.5 56.5q82 0 140 -56.5t58 -138t-58 -138t-140 -56.5 q-84 0 -141.5 56.5t-57.5 138zM367 473q0 -109 51 -162t139 -53q119 0 193.5 99.5t74.5 232.5q0 111 -53 164t-141 53q-117 0 -190.5 -99.5t-73.5 -234.5z" glyph-name="uni1E0D" horiz-adv-x="1247" unicode="ḍ"/><glyph d="M700 -20q-295 0 -449.5 155.5t-154.5 448.5q0 369 217 618.5t570 249.5q244 0 398.5 -126t150.5 -370h-342q-25 199 -234 199q-188 0 -299 -164t-111 -373q0 -162 71 -252t216 -90q115 0 201 62.5t113 196.5l-256 -9l45 279h598l-25 -135q-68 -358 -238 -524t-471 -166z M575 1655l31 190h690l-30 -190h-691z" glyph-name="uni1E20" horiz-adv-x="1472" unicode="Ḡ"/><glyph d="M420 29q-156 0 -264.5 98t-108.5 305q0 272 150.5 462.5t386.5 190.5q102 0 172.5 -37.5t105.5 -95.5l17 113h335l-151 -946l-8 -74q-14 -119 -66.5 -208t-118 -138t-150.5 -79t-153.5 -39t-140.5 -9q-63 0 -121.5 6t-127 29.5t-115 62.5t-71 111t-9.5 166h294 q-6 -63 51.5 -90t131.5 -27q100 0 174 55.5t86 159.5l8 74l8 39q-125 -129 -315 -129zM365 1286l30 191h690l-30 -191h-690zM369 508q0 -100 51 -150.5t139 -50.5q117 0 187.5 88t70.5 213q0 98 -53 148.5t-137 50.5q-115 0 -186.5 -88t-71.5 -211z" glyph-name="uni1E21" horiz-adv-x="1234" unicode="ḡ"/><glyph d="M883 0l92 578h-520l-93 -578h-342l228 1434h342l-90 -572h520l90 572h344l-227 -1434h-344zM377 -276.5q0 81.5 57.5 138t140.5 56.5q82 0 140.5 -56.5t58.5 -138t-58.5 -138t-140.5 -56.5q-84 0 -141 56.5t-57 138z" glyph-name="uni1E24" horiz-adv-x="1413" unicode="Ḥ"/><glyph d="M186 1065l62 369h336l-60 -369l-35 -225h15q31 94 126 169.5t238 75.5q164 0 249 -105.5t54 -299.5l-106 -680h-336l92 598q18 109 -22.5 160t-124.5 51q-178 0 -221 -203l-97 -606h-336zM272 -276.5q0 81.5 57.5 138t141.5 56.5q82 0 140.5 -56.5t58.5 -138t-58.5 -138 t-140.5 -56.5q-84 0 -141.5 56.5t-57.5 138z" glyph-name="uni1E25" unicode="ḥ"/><glyph d="M604 -20q-283 0 -429 130t-109 373h358q-10 -96 47 -157.5t184 -61.5q109 0 175.5 45t66.5 127q0 57 -39 92t-141 56l-170 32q-168 33 -266.5 112t-98.5 243q0 221 181.5 351t457.5 130q256 0 394.5 -116.5t101.5 -338.5h-354q16 88 -37.5 129t-149.5 41 q-100 0 -163.5 -44t-63.5 -117q0 -104 151 -134l156 -28q223 -43 317.5 -129t94.5 -234q0 -233 -187.5 -367t-476.5 -134zM328 -276.5q0 81.5 57 138t141 56.5q82 0 140.5 -56.5t58.5 -138t-58.5 -138t-140.5 -56.5q-84 0 -141 56.5t-57 138z" glyph-name="uni1E62" horiz-adv-x="1355" unicode="Ṣ"/><glyph d="M426 -20q-225 0 -332.5 97t-79.5 285h301q-2 -66 33 -95t113 -29q154 0 153 90q0 51 -94 67l-147 33q-270 61 -271 285q0 174 138.5 273t353.5 99q219 0 318.5 -102t66.5 -281h-279q6 68 -31.5 96.5t-111.5 28.5q-133 0 -133 -73q0 -57 115 -84l166 -39 q123 -29 192.5 -88.5t69.5 -177.5q0 -180 -154 -282.5t-387 -102.5zM188 -276.5q0 81.5 57.5 138t141.5 56.5q82 0 140.5 -56.5t58.5 -138t-58.5 -138t-140.5 -56.5q-84 0 -141.5 56.5t-57.5 138z" glyph-name="uni1E63" horiz-adv-x="1040" unicode="ṣ"/><glyph d="M365 0l180 1135h-408l49 299h1157l-49 -299h-405l-180 -1135h-344zM223 -276.5q0 81.5 57.5 138t141.5 56.5q82 0 140.5 -56.5t58.5 -138t-58.5 -138t-140.5 -56.5q-84 0 -141.5 56.5t-57.5 138z" glyph-name="uni1E6C" horiz-adv-x="1241" unicode="Ṭ"/><glyph d="M500 -14q-176 0 -260 86t-54 266l74 469h-184l41 258h184l43 278h336l-45 -278h209l-39 -258h-211l-68 -422q-27 -133 97 -133h100l-43 -260q-61 -6 -180 -6zM223 -276.5q0 81.5 57.5 138t141.5 56.5q82 0 140.5 -56.5t58.5 -138t-58.5 -138t-140.5 -56.5 q-84 0 -141.5 56.5t-57.5 138z" glyph-name="uni1E6D" horiz-adv-x="808" unicode="ṭ"/><glyph d="M328 0l-142 1434h353l59 -949h14l404 949h352l107 -949h14l358 949h357l-596 -1434h-359l-125 1001l-438 -1001h-358zM893 1845h291l172 -289h-291z" glyph-name="Wgrave" horiz-adv-x="2101" unicode="Ẁ"/><glyph d="M225 0l-108 1065h313l49 -741h8l306 741h290l76 -741h6l285 741h315l-438 -1065h-383l-74 618l-258 -618h-387zM639 1477h291l172 -289h-291z" glyph-name="wgrave" horiz-adv-x="1714" unicode="ẁ"/><glyph d="M328 0l-142 1434h353l59 -949h14l404 949h352l107 -949h14l358 949h357l-596 -1434h-359l-125 1001l-438 -1001h-358zM1057 1556l264 289h289l-264 -289h-289z" glyph-name="Wacute" horiz-adv-x="2101" unicode="Ẃ"/><glyph d="M225 0l-108 1065h313l49 -741h8l306 741h290l76 -741h6l285 741h315l-438 -1065h-383l-74 618l-258 -618h-387zM801 1188l264 289h289l-264 -289h-289z" glyph-name="wacute" horiz-adv-x="1714" unicode="ẃ"/><glyph d="M328 0l-142 1434h353l59 -949h14l404 949h352l107 -949h14l358 949h357l-596 -1434h-359l-125 1001l-438 -1001h-358zM795 1712q0 74 54 126t128 52q72 0 126 -52t54 -126q0 -72 -54 -124t-126 -52q-74 0 -128 51t-54 125zM1313 1712q0 74 53 126t127 52t127 -52t53 -126 t-53 -125t-127 -51t-127 51t-53 125z" glyph-name="Wdieresis" horiz-adv-x="2101" unicode="Ẅ"/><glyph d="M225 0l-108 1065h313l49 -741h8l306 741h290l76 -741h6l285 741h315l-438 -1065h-383l-74 618l-258 -618h-387zM541 1343.5q0 73.5 54 126t128 52.5q72 0 126 -52.5t54 -126.5q0 -72 -54 -124t-126 -52q-74 0 -128 51.5t-54 125zM1059 1343.5q0 73.5 53 126t127 52.5 t127 -52.5t53 -126t-53 -125t-127 -51.5t-127 51.5t-53 125z" glyph-name="wdieresis" horiz-adv-x="1714" unicode="ẅ"/><glyph d="M-2 0l49 299l854 836h-711l48 299h1093l-45 -299l-860 -836h735l-49 -299h-1114zM336 -276.5q0 81.5 57.5 138t141.5 56.5q82 0 140 -56.5t58 -138t-58.5 -138t-139.5 -56.5q-84 0 -141.5 56.5t-57.5 138z" glyph-name="uni1E92" horiz-adv-x="1277" unicode="Ẓ"/><glyph d="M-2 0l45 281l571 503h-473l45 281h867l-45 -281l-572 -503h494l-45 -281h-887zM201 -276.5q0 81.5 57 138t141 56.5q82 0 140.5 -56.5t58.5 -138t-58.5 -138t-140.5 -56.5q-84 0 -141 56.5t-57 138z" glyph-name="uni1E93" horiz-adv-x="1050" unicode="ẓ"/><glyph d="M879 -20q-231 0 -317.5 116.5t-53.5 341.5h323q-10 -61 10.5 -108t88.5 -47q70 0 109.5 57t39.5 131q0 166 -233 166h-258l375 516h-248q-160 0 -187 -162l-157 -991h-351l164 1030q37 219 169 322.5t372 103.5h778l-416 -545q158 -25 260.5 -125t102.5 -284 q0 -233 -156.5 -377.5t-414.5 -144.5z" glyph-name="uni1E9E" horiz-adv-x="1536" unicode="ẞ"/><glyph d="M-53 0l739 1434h447l282 -1434h-356l-43 244h-582l-119 -244h-368zM444 -276.5q0 81.5 57.5 138t141.5 56.5q82 0 140.5 -56.5t58.5 -138t-58.5 -138t-140.5 -56.5q-84 0 -141.5 56.5t-57.5 138zM559 498h412l-105 587h-18z" glyph-name="uni1EA0" horiz-adv-x="1529" unicode="Ạ"/><glyph d="M303 -20q-127 0 -210 60t-83 200q0 295 436 364l170 29q70 10 98.5 27.5t37.5 50.5l4 20q12 53 -19.5 83t-103.5 30q-150 0 -176 -121l-4 -21l-316 -4l8 56q53 332 527 331q244 0 343 -86t70 -258l-118 -741h-320l31 186h-14q-107 -206 -361 -206zM254 -276.5 q0 81.5 57.5 138t141.5 56.5q82 0 140 -56.5t58 -138t-58 -138t-140 -56.5q-84 0 -141.5 56.5t-57.5 138zM354 307q0 -90 117 -90q84 0 148.5 45t74.5 109l21 106q-12 -12 -30.5 -19t-33 -11.5t-38 -8.5t-33.5 -6l-115 -20q-111 -21 -111 -105z" glyph-name="uni1EA1" horiz-adv-x="1155" unicode="ạ"/><glyph d="M-53 0l739 1434h447l282 -1434h-356l-43 244h-582l-119 -244h-368zM559 498h412l-105 587h-18zM713 1735q0 115 64.5 168t154.5 53q96 0 161.5 -54.5t65.5 -160.5q0 -88 -54 -140.5t-144 -64.5l-60 133q76 2 76 62q0 25 -14.5 38t-34.5 13q-43 0 -49 -47h-166z" glyph-name="uni1EA2" horiz-adv-x="1529" unicode="Ả"/><glyph d="M303 -20q-127 0 -210 60t-83 200q0 295 436 364l170 29q70 10 98.5 27.5t37.5 50.5l4 20q12 53 -19.5 83t-103.5 30q-150 0 -176 -121l-4 -21l-316 -4l8 56q53 332 527 331q244 0 343 -86t70 -258l-118 -741h-320l31 186h-14q-107 -206 -361 -206zM354 307q0 -90 117 -90 q84 0 148.5 45t74.5 109l21 106q-12 -12 -30.5 -19t-33 -11.5t-38 -8.5t-33.5 -6l-115 -20q-111 -21 -111 -105zM469 1366q0 115 64.5 168t154.5 53q96 0 161.5 -54t65.5 -161q0 -88 -54 -140t-144 -65l-60 133q76 2 76 62q0 25 -14 38t-35 13q-43 0 -49 -47h-166z" glyph-name="uni1EA3" horiz-adv-x="1155" unicode="ả"/><glyph d="M-53 0l739 1434h447l282 -1434h-356l-43 244h-582l-119 -244h-368zM504 1550l231 295h488l137 -295h-311l-88 195l-144 -195h-313zM559 498h412l-105 587h-18zM1315 1761l264 289h289l-264 -289h-289z" glyph-name="uni1EA4" horiz-adv-x="1529" unicode="Ấ"/><glyph d="M303 -20q-127 0 -210 60t-83 200q0 295 436 364l170 29q70 10 98.5 27.5t37.5 50.5l4 20q12 53 -19.5 83t-103.5 30q-150 0 -176 -121l-4 -21l-316 -4l8 56q53 332 527 331q244 0 343 -86t70 -258l-118 -741h-320l31 186h-14q-107 -206 -361 -206zM262 1182l232 295h487 l137 -295h-311l-88 194l-144 -194h-313zM354 307q0 -90 117 -90q84 0 148.5 45t74.5 109l21 106q-12 -12 -30.5 -19t-33 -11.5t-38 -8.5t-33.5 -6l-115 -20q-111 -21 -111 -105zM1073 1393l264 288h289l-264 -288h-289z" glyph-name="uni1EA5" horiz-adv-x="1155" unicode="ấ"/><glyph d="M-53 0l739 1434h447l282 -1434h-356l-43 244h-582l-119 -244h-368zM504 1550l231 295h488l137 -295h-311l-88 195l-144 -195h-313zM559 498h412l-105 587h-18zM1204 2052h289l127 -289h-289z" glyph-name="uni1EA6" horiz-adv-x="1529" unicode="Ầ"/><glyph d="M303 -20q-127 0 -210 60t-83 200q0 295 436 364l170 29q70 10 98.5 27.5t37.5 50.5l4 20q12 53 -19.5 83t-103.5 30q-150 0 -176 -121l-4 -21l-316 -4l8 56q53 332 527 331q244 0 343 -86t70 -258l-118 -741h-320l31 186h-14q-107 -206 -361 -206zM262 1182l232 295h487 l137 -295h-311l-88 194l-144 -194h-313zM354 307q0 -90 117 -90q84 0 148.5 45t74.5 109l21 106q-12 -12 -30.5 -19t-33 -11.5t-38 -8.5t-33.5 -6l-115 -20q-111 -21 -111 -105zM963 1683h288l127 -288h-288z" glyph-name="uni1EA7" horiz-adv-x="1155" unicode="ầ"/><glyph d="M-53 0l739 1434h447l282 -1434h-356l-43 244h-582l-119 -244h-368zM504 1550l231 295h488l137 -295h-311l-88 195l-144 -195h-313zM559 498h412l-105 587h-18zM1118 1976q0 115 64.5 168.5t154.5 53.5q96 0 162 -54.5t66 -161.5q0 -88 -54.5 -140t-144.5 -64l-59 133 q76 2 75 61q0 25 -14 38t-35 13q-43 0 -49 -47h-166z" glyph-name="uni1EA8" horiz-adv-x="1529" unicode="Ẩ"/><glyph d="M303 -20q-127 0 -210 60t-83 200q0 295 436 364l170 29q70 10 98.5 27.5t37.5 50.5l4 20q12 53 -19.5 83t-103.5 30q-150 0 -176 -121l-4 -21l-316 -4l8 56q53 332 527 331q244 0 343 -86t70 -258l-118 -741h-320l31 186h-14q-107 -206 -361 -206zM262 1182l232 295h487 l137 -295h-311l-88 194l-144 -194h-313zM354 307q0 -90 117 -90q84 0 148.5 45t74.5 109l21 106q-12 -12 -30.5 -19t-33 -11.5t-38 -8.5t-33.5 -6l-115 -20q-111 -21 -111 -105zM877 1608q0 115 64.5 168t154.5 53q96 0 161.5 -54.5t65.5 -160.5q0 -88 -54.5 -140.5 t-144.5 -64.5l-59 133q76 2 76 62q0 25 -14.5 38t-34.5 13q-43 0 -50 -47h-165z" glyph-name="uni1EA9" horiz-adv-x="1155" unicode="ẩ"/><glyph d="M-53 0l739 1434h447l282 -1434h-356l-43 244h-582l-119 -244h-368zM504 1550l231 295h488l137 -295h-311l-88 195l-144 -195h-313zM559 498h412l-105 587h-18zM625 1962q14 117 79.5 182.5t169.5 65.5q68 0 116 -26.5t77 -53.5t53 -27q66 0 74 51h195q-14 -117 -80 -183 t-170 -66q-51 0 -92 17t-61.5 36.5t-45.5 37t-47 17.5q-66 0 -74 -51h-194z" glyph-name="uni1EAA" horiz-adv-x="1529" unicode="Ẫ"/><glyph d="M303 -20q-127 0 -210 60t-83 200q0 295 436 364l170 29q70 10 98.5 27.5t37.5 50.5l4 20q12 53 -19.5 83t-103.5 30q-150 0 -176 -121l-4 -21l-316 -4l8 56q53 332 527 331q244 0 343 -86t70 -258l-118 -741h-320l31 186h-14q-107 -206 -361 -206zM262 1182l232 295h487 l137 -295h-311l-88 194l-144 -194h-313zM354 307q0 -90 117 -90q84 0 148.5 45t74.5 109l21 106q-12 -12 -30.5 -19t-33 -11.5t-38 -8.5t-33.5 -6l-115 -20q-111 -21 -111 -105zM383 1593q14 117 79.5 182.5t170.5 65.5q68 0 116 -26.5t76.5 -53t53.5 -26.5q66 0 73 51h195 q-14 -117 -80 -183.5t-170 -66.5q-51 0 -92 17.5t-61.5 37t-45 37t-47.5 17.5q-66 0 -73 -52h-195z" glyph-name="uni1EAB" horiz-adv-x="1155" unicode="ẫ"/><glyph d="M-53 0l739 1434h447l282 -1434h-356l-43 244h-582l-119 -244h-368zM444 -276.5q0 81.5 57.5 138t141.5 56.5q82 0 140.5 -56.5t58.5 -138t-58.5 -138t-140.5 -56.5q-84 0 -141.5 56.5t-57.5 138zM504 1550l231 295h488l137 -295h-311l-88 195l-144 -195h-313zM559 498 h412l-105 587h-18z" glyph-name="uni1EAC" horiz-adv-x="1529" unicode="Ậ"/><glyph d="M303 -20q-127 0 -210 60t-83 200q0 295 436 364l170 29q70 10 98.5 27.5t37.5 50.5l4 20q12 53 -19.5 83t-103.5 30q-150 0 -176 -121l-4 -21l-316 -4l8 56q53 332 527 331q244 0 343 -86t70 -258l-118 -741h-320l31 186h-14q-107 -206 -361 -206zM254 -276.5 q0 81.5 57.5 138t141.5 56.5q82 0 140 -56.5t58 -138t-58 -138t-140 -56.5q-84 0 -141.5 56.5t-57.5 138zM262 1182l232 295h487l137 -295h-311l-88 194l-144 -194h-313zM354 307q0 -90 117 -90q84 0 148.5 45t74.5 109l21 106q-12 -12 -30.5 -19t-33 -11.5t-38 -8.5 t-33.5 -6l-115 -20q-111 -21 -111 -105z" glyph-name="uni1EAD" horiz-adv-x="1155" unicode="ậ"/><glyph d="M-53 0l739 1434h447l282 -1434h-356l-43 244h-582l-119 -244h-368zM559 498h412l-105 587h-18zM614 1845h220q-8 -137 127 -137q133 0 161 137h219q-27 -158 -130 -242.5t-277 -84.5q-176 0 -261.5 85.5t-58.5 241.5zM842 1907l264 288h289l-265 -288h-288z" glyph-name="uni1EAE" horiz-adv-x="1529" unicode="Ắ"/><glyph d="M303 -20q-127 0 -210 60t-83 200q0 295 436 364l170 29q70 10 98.5 27.5t37.5 50.5l4 20q12 53 -19.5 83t-103.5 30q-150 0 -176 -121l-4 -21l-316 -4l8 56q53 332 527 331q244 0 343 -86t70 -258l-118 -741h-320l31 186h-14q-107 -206 -361 -206zM354 307q0 -90 117 -90 q84 0 148.5 45t74.5 109l21 106q-12 -12 -30.5 -19t-33 -11.5t-38 -8.5t-33.5 -6l-115 -20q-111 -21 -111 -105zM371 1477h219q-8 -137 127 -138q133 0 162 138h219q-27 -158 -130.5 -243t-277.5 -85q-176 0 -261 86t-58 242zM598 1538l264 289h289l-264 -289h-289z" glyph-name="uni1EAF" horiz-adv-x="1155" unicode="ắ"/><glyph d="M-53 0l739 1434h447l282 -1434h-356l-43 244h-582l-119 -244h-368zM559 498h412l-105 587h-18zM614 1845h220q-8 -137 127 -137q133 0 161 137h219q-27 -158 -130 -242.5t-277 -84.5q-176 0 -261.5 85.5t-58.5 241.5zM668 2195h290l172 -288h-290z" glyph-name="uni1EB0" horiz-adv-x="1529" unicode="Ằ"/><glyph d="M303 -20q-127 0 -210 60t-83 200q0 295 436 364l170 29q70 10 98.5 27.5t37.5 50.5l4 20q12 53 -19.5 83t-103.5 30q-150 0 -176 -121l-4 -21l-316 -4l8 56q53 332 527 331q244 0 343 -86t70 -258l-118 -741h-320l31 186h-14q-107 -206 -361 -206zM354 307q0 -90 117 -90 q84 0 148.5 45t74.5 109l21 106q-12 -12 -30.5 -19t-33 -11.5t-38 -8.5t-33.5 -6l-115 -20q-111 -21 -111 -105zM371 1477h219q-8 -137 127 -138q133 0 162 138h219q-27 -158 -130.5 -243t-277.5 -85q-176 0 -261 86t-58 242zM424 1827h291l172 -289h-291z" glyph-name="uni1EB1" horiz-adv-x="1155" unicode="ằ"/><glyph d="M-53 0l739 1434h447l282 -1434h-356l-43 244h-582l-119 -244h-368zM559 498h412l-105 587h-18zM614 1845h220q-8 -137 127 -137q133 0 161 137h219q-27 -158 -130 -242.5t-277 -84.5q-176 0 -261.5 85.5t-58.5 241.5zM682 2001q0 115 64.5 168t154.5 53q96 0 161.5 -54 t65.5 -161q0 -88 -54 -140t-144 -65l-60 133q76 2 76 62q0 25 -14 38t-35 13q-43 0 -49 -47h-166z" glyph-name="uni1EB2" horiz-adv-x="1529" unicode="Ẳ"/><glyph d="M303 -20q-127 0 -210 60t-83 200q0 295 436 364l170 29q70 10 98.5 27.5t37.5 50.5l4 20q12 53 -19.5 83t-103.5 30q-150 0 -176 -121l-4 -21l-316 -4l8 56q53 332 527 331q244 0 343 -86t70 -258l-118 -741h-320l31 186h-14q-107 -206 -361 -206zM354 307q0 -90 117 -90 q84 0 148.5 45t74.5 109l21 106q-12 -12 -30.5 -19t-33 -11.5t-38 -8.5t-33.5 -6l-115 -20q-111 -21 -111 -105zM371 1477h219q-8 -137 127 -138q133 0 162 138h219q-27 -158 -130.5 -243t-277.5 -85q-176 0 -261 86t-58 242zM438 1632q0 115 64.5 168t154.5 53 q96 0 162 -54t66 -161q0 -88 -54.5 -140t-144.5 -64l-59 133q76 2 75 61q0 25 -14 38t-35 13q-43 0 -49 -47h-166z" glyph-name="uni1EB3" horiz-adv-x="1155" unicode="ẳ"/><glyph d="M-53 0l739 1434h447l282 -1434h-356l-43 244h-582l-119 -244h-368zM559 498h412l-105 587h-18zM614 1845h220q-8 -137 127 -137q133 0 161 137h219q-27 -158 -130 -242.5t-277 -84.5q-176 0 -261.5 85.5t-58.5 241.5zM631 1972q14 117 79.5 182.5t170.5 65.5 q68 0 115.5 -26.5t76.5 -53t53 -26.5q66 0 74 51h195q-14 -117 -80 -183.5t-170 -66.5q-66 0 -112 27.5t-76.5 54t-57.5 26.5q-66 0 -74 -51h-194z" glyph-name="uni1EB4" horiz-adv-x="1529" unicode="Ẵ"/><glyph d="M303 -20q-127 0 -210 60t-83 200q0 295 436 364l170 29q70 10 98.5 27.5t37.5 50.5l4 20q12 53 -19.5 83t-103.5 30q-150 0 -176 -121l-4 -21l-316 -4l8 56q53 332 527 331q244 0 343 -86t70 -258l-118 -741h-320l31 186h-14q-107 -206 -361 -206zM354 307q0 -90 117 -90 q84 0 148.5 45t74.5 109l21 106q-12 -12 -30.5 -19t-33 -11.5t-38 -8.5t-33.5 -6l-115 -20q-111 -21 -111 -105zM371 1477h219q-8 -137 127 -138q133 0 162 138h219q-27 -158 -130.5 -243t-277.5 -85q-176 0 -261 86t-58 242zM387 1604q14 117 79.5 182t170.5 65 q68 0 116 -26.5t76.5 -53t53.5 -26.5q66 0 73 51h195q-14 -117 -79.5 -183.5t-170.5 -66.5q-66 0 -112 28t-76.5 54.5t-57.5 26.5q-66 0 -73 -51h-195z" glyph-name="uni1EB5" horiz-adv-x="1155" unicode="ẵ"/><glyph d="M-53 0l739 1434h447l282 -1434h-356l-43 244h-582l-119 -244h-368zM444 -276.5q0 81.5 57.5 138t141.5 56.5q82 0 140.5 -56.5t58.5 -138t-58.5 -138t-140.5 -56.5q-84 0 -141.5 56.5t-57.5 138zM559 498h412l-105 587h-18zM614 1845h220q-8 -137 127 -137q133 0 161 137 h219q-27 -158 -130 -242.5t-277 -84.5q-176 0 -261.5 85.5t-58.5 241.5z" glyph-name="uni1EB6" horiz-adv-x="1529" unicode="Ặ"/><glyph d="M303 -20q-127 0 -210 60t-83 200q0 295 436 364l170 29q70 10 98.5 27.5t37.5 50.5l4 20q12 53 -19.5 83t-103.5 30q-150 0 -176 -121l-4 -21l-316 -4l8 56q53 332 527 331q244 0 343 -86t70 -258l-118 -741h-320l31 186h-14q-107 -206 -361 -206zM254 -276.5 q0 81.5 57.5 138t141.5 56.5q82 0 140 -56.5t58 -138t-58 -138t-140 -56.5q-84 0 -141.5 56.5t-57.5 138zM354 307q0 -90 117 -90q84 0 148.5 45t74.5 109l21 106q-12 -12 -30.5 -19t-33 -11.5t-38 -8.5t-33.5 -6l-115 -20q-111 -21 -111 -105zM371 1477h219 q-8 -137 127 -138q133 0 162 138h219q-27 -158 -130.5 -243t-277.5 -85q-176 0 -261 86t-58 242z" glyph-name="uni1EB7" horiz-adv-x="1155" unicode="ặ"/><glyph d="M20 0l228 1434h997l-49 -299h-653l-47 -279h591l-40 -266h-592l-41 -291h673l-51 -299h-1016zM307 -276.5q0 81.5 57.5 138t141.5 56.5q82 0 140.5 -56.5t58.5 -138t-58.5 -138t-140.5 -56.5q-84 0 -141.5 56.5t-57.5 138z" glyph-name="uni1EB8" horiz-adv-x="1173" unicode="Ẹ"/><glyph d="M512 -29q-94 0 -174 24.5t-147.5 77t-105.5 147.5t-38 222q0 279 168 461t451 182q203 0 326.5 -102t123.5 -330q0 -135 -31 -207h-723q4 -127 52.5 -176t142.5 -49q92 0 137 34t74 97h295q-66 -184 -208 -282.5t-343 -98.5zM262 -276.5q0 81.5 57.5 138t141.5 56.5 q82 0 140 -56.5t58 -138t-58 -138t-140 -56.5q-84 0 -141.5 56.5t-57.5 138zM379 625h430q10 90 -33 148t-149 58q-193 1 -248 -206z" glyph-name="uni1EB9" horiz-adv-x="1163" unicode="ẹ"/><glyph d="M20 0l228 1434h997l-49 -299h-653l-47 -279h591l-40 -266h-592l-41 -291h673l-51 -299h-1016zM575 1735q0 115 65 168t155 53q96 0 161.5 -54.5t65.5 -160.5q0 -88 -54.5 -140.5t-144.5 -64.5l-59 133q76 2 76 62q0 25 -14.5 38t-34.5 13q-43 0 -50 -47h-166z" glyph-name="uni1EBA" horiz-adv-x="1173" unicode="Ẻ"/><glyph d="M512 -29q-94 0 -174 24.5t-147.5 77t-105.5 147.5t-38 222q0 279 168 461t451 182q203 0 326.5 -102t123.5 -330q0 -135 -31 -207h-723q4 -127 52.5 -176t142.5 -49q92 0 137 34t74 97h295q-66 -184 -208 -282.5t-343 -98.5zM379 625h430q10 90 -33 148t-149 58 q-193 1 -248 -206zM463 1366q0 115 64.5 168t154.5 53q96 0 161.5 -54t65.5 -161q0 -88 -54 -140t-144 -65l-60 133q76 2 76 62q0 25 -14.5 38t-34.5 13q-43 0 -49 -47h-166z" glyph-name="uni1EBB" horiz-adv-x="1163" unicode="ẻ"/><glyph d="M20 0l228 1434h997l-49 -299h-653l-47 -279h591l-40 -266h-592l-41 -291h673l-51 -299h-1016zM438 1622q14 117 80 182.5t170 65.5q68 0 116 -26.5t76.5 -53.5t53.5 -27q66 0 74 52h194q-14 -117 -79.5 -183.5t-170.5 -66.5q-51 0 -92 17t-61.5 36.5t-45 37t-46.5 17.5 q-66 0 -74 -51h-195z" glyph-name="uni1EBC" horiz-adv-x="1173" unicode="Ẽ"/><glyph d="M512 -29q-94 0 -174 24.5t-147.5 77t-105.5 147.5t-38 222q0 279 168 461t451 182q203 0 326.5 -102t123.5 -330q0 -135 -31 -207h-723q4 -127 52.5 -176t142.5 -49q92 0 137 34t74 97h295q-66 -184 -208 -282.5t-343 -98.5zM328 1253q14 117 79.5 182.5t170.5 65.5 q68 0 115.5 -26.5t76.5 -53t53 -26.5q66 0 74 51h195q-14 -117 -80 -183.5t-170 -66.5q-51 0 -92 17.5t-61.5 37t-45.5 37t-47 17.5q-66 0 -74 -52h-194zM379 625h430q10 90 -33 148t-149 58q-193 1 -248 -206z" glyph-name="uni1EBD" horiz-adv-x="1163" unicode="ẽ"/><glyph d="M20 0l228 1434h997l-49 -299h-653l-47 -279h591l-40 -266h-592l-41 -291h673l-51 -299h-1016zM369 1550l231 295h487l138 -295h-312l-88 195l-143 -195h-313zM1180 1761l264 289h289l-265 -289h-288z" glyph-name="uni1EBE" horiz-adv-x="1173" unicode="Ế"/><glyph d="M512 -29q-94 0 -174 24.5t-147.5 77t-105.5 147.5t-38 222q0 279 168 461t451 182q203 0 326.5 -102t123.5 -330q0 -135 -31 -207h-723q4 -127 52.5 -176t142.5 -49q92 0 137 34t74 97h295q-66 -184 -208 -282.5t-343 -98.5zM256 1182l231 295h488l137 -295h-311l-88 194 l-144 -194h-313zM379 625h430q10 90 -33 148t-149 58q-193 1 -248 -206zM1067 1393l264 288h289l-264 -288h-289z" glyph-name="uni1EBF" horiz-adv-x="1163" unicode="ế"/><glyph d="M20 0l228 1434h997l-49 -299h-653l-47 -279h591l-40 -266h-592l-41 -291h673l-51 -299h-1016zM369 1550l231 295h487l138 -295h-312l-88 195l-143 -195h-313zM1069 2052h289l127 -289h-289z" glyph-name="uni1EC0" horiz-adv-x="1173" unicode="Ề"/><glyph d="M512 -29q-94 0 -174 24.5t-147.5 77t-105.5 147.5t-38 222q0 279 168 461t451 182q203 0 326.5 -102t123.5 -330q0 -135 -31 -207h-723q4 -127 52.5 -176t142.5 -49q92 0 137 34t74 97h295q-66 -184 -208 -282.5t-343 -98.5zM256 1182l231 295h488l137 -295h-311l-88 194 l-144 -194h-313zM379 625h430q10 90 -33 148t-149 58q-193 1 -248 -206zM956 1683h289l127 -288h-289z" glyph-name="uni1EC1" horiz-adv-x="1163" unicode="ề"/><glyph d="M20 0l228 1434h997l-49 -299h-653l-47 -279h591l-40 -266h-592l-41 -291h673l-51 -299h-1016zM369 1550l231 295h487l138 -295h-312l-88 195l-143 -195h-313zM983 1976q0 115 64.5 168.5t154.5 53.5q96 0 162 -54.5t66 -161.5q0 -88 -54.5 -140t-144.5 -64l-60 133 q76 2 76 61q0 25 -14 38t-35 13q-43 0 -49 -47h-166z" glyph-name="uni1EC2" horiz-adv-x="1173" unicode="Ể"/><glyph d="M512 -29q-94 0 -174 24.5t-147.5 77t-105.5 147.5t-38 222q0 279 168 461t451 182q203 0 326.5 -102t123.5 -330q0 -135 -31 -207h-723q4 -127 52.5 -176t142.5 -49q92 0 137 34t74 97h295q-66 -184 -208 -282.5t-343 -98.5zM256 1182l231 295h488l137 -295h-311l-88 194 l-144 -194h-313zM379 625h430q10 90 -33 148t-149 58q-193 1 -248 -206zM870 1608q0 115 64.5 168t155.5 53q96 0 161.5 -54.5t65.5 -160.5q0 -88 -54.5 -140.5t-144.5 -64.5l-59 133q76 2 76 62q0 25 -14.5 38t-35.5 13q-43 0 -49 -47h-166z" glyph-name="uni1EC3" horiz-adv-x="1163" unicode="ể"/><glyph d="M20 0l228 1434h997l-49 -299h-653l-47 -279h591l-40 -266h-592l-41 -291h673l-51 -299h-1016zM369 1550l231 295h487l138 -295h-312l-88 195l-143 -195h-313zM489 1962q14 117 80 182.5t170 65.5q68 0 116 -26.5t77 -53.5t53 -27q66 0 74 51h194q-14 -117 -79.5 -183 t-169.5 -66q-51 0 -92.5 17t-62 36.5t-45 37t-46.5 17.5q-66 0 -74 -51h-195z" glyph-name="uni1EC4" horiz-adv-x="1173" unicode="Ễ"/><glyph d="M512 -29q-94 0 -174 24.5t-147.5 77t-105.5 147.5t-38 222q0 279 168 461t451 182q203 0 326.5 -102t123.5 -330q0 -135 -31 -207h-723q4 -127 52.5 -176t142.5 -49q92 0 137 34t74 97h295q-66 -184 -208 -282.5t-343 -98.5zM256 1182l231 295h488l137 -295h-311l-88 194 l-144 -194h-313zM377 1593q14 117 79.5 182.5t170.5 65.5q68 0 116 -26.5t76.5 -53t52.5 -26.5q66 0 74 51h195q-14 -117 -80 -183.5t-170 -66.5q-51 0 -92 17.5t-61.5 37t-45 37t-47.5 17.5q-66 0 -74 -52h-194zM379 625h430q10 90 -33 148t-149 58q-193 1 -248 -206z" glyph-name="uni1EC5" horiz-adv-x="1163" unicode="ễ"/><glyph d="M20 0l228 1434h997l-49 -299h-653l-47 -279h591l-40 -266h-592l-41 -291h673l-51 -299h-1016zM307 -276.5q0 81.5 57.5 138t141.5 56.5q82 0 140.5 -56.5t58.5 -138t-58.5 -138t-140.5 -56.5q-84 0 -141.5 56.5t-57.5 138zM369 1550l231 295h487l138 -295h-312l-88 195 l-143 -195h-313z" glyph-name="uni1EC6" horiz-adv-x="1173" unicode="Ệ"/><glyph d="M512 -29q-94 0 -174 24.5t-147.5 77t-105.5 147.5t-38 222q0 279 168 461t451 182q203 0 326.5 -102t123.5 -330q0 -135 -31 -207h-723q4 -127 52.5 -176t142.5 -49q92 0 137 34t74 97h295q-66 -184 -208 -282.5t-343 -98.5zM256 1182l231 295h488l137 -295h-311l-88 194 l-144 -194h-313zM262 -276.5q0 81.5 57.5 138t141.5 56.5q82 0 140 -56.5t58 -138t-58 -138t-140 -56.5q-84 0 -141.5 56.5t-57.5 138zM379 625h430q10 90 -33 148t-149 58q-193 1 -248 -206z" glyph-name="uni1EC7" horiz-adv-x="1163" unicode="ệ"/><glyph d="M20 0l228 1434h342l-228 -1434h-342zM217 1735q0 115 64.5 168t154.5 53q96 0 162 -54.5t66 -160.5q0 -88 -54.5 -140.5t-144.5 -64.5l-59 133q76 2 75 62q0 25 -14 38t-35 13q-43 0 -49 -47h-166z" glyph-name="uni1EC8" horiz-adv-x="550" unicode="Ỉ"/><glyph d="M2 0l168 1065h336l-168 -1065h-336zM137 1366q0 115 64.5 168t154.5 53q96 0 162 -54t66 -161q0 -88 -54.5 -140t-144.5 -65l-59 133q76 2 75 62q0 25 -14 38t-35 13q-43 0 -49 -47h-166z" glyph-name="uni1EC9" horiz-adv-x="514" unicode="ỉ"/><glyph d="M20 0l228 1434h342l-228 -1434h-342zM-53 -276.5q0 81.5 57 138t141 56.5q82 0 140.5 -56.5t58.5 -138t-58.5 -138t-140.5 -56.5q-84 0 -141 56.5t-57 138z" glyph-name="uni1ECA" horiz-adv-x="550" unicode="Ị"/><glyph d="M20 0l166 1065h338l-168 -1065h-336zM-25 -276.5q0 81.5 57.5 138t141.5 56.5q82 0 140.5 -56.5t58.5 -138t-58.5 -138t-140.5 -56.5q-84 0 -141.5 56.5t-57.5 138zM217 1343.5q0 73.5 53.5 126t126.5 52.5q72 0 126.5 -52.5t54.5 -126.5q0 -72 -54.5 -124t-126.5 -52 q-74 0 -127 51.5t-53 125z" glyph-name="uni1ECB" horiz-adv-x="540" unicode="ị"/><glyph d="M692 -20q-281 0 -439.5 166.5t-158.5 453.5q0 354 221.5 603t567.5 249q283 0 439.5 -165t156.5 -449q0 -356 -220.5 -607t-566.5 -251zM446 -276.5q0 81.5 57.5 138t141.5 56.5q82 0 140.5 -56.5t58.5 -138t-58.5 -138t-140.5 -56.5q-84 0 -141.5 56.5t-57.5 138z M446 610q0 -334 271 -334q131 0 226 85t138 207t43 259q0 328 -266 328q-193 0 -302.5 -165t-109.5 -380z" glyph-name="uni1ECC" horiz-adv-x="1515" unicode="Ọ"/><glyph d="M510 -20q-201 0 -332 114.5t-131 343.5q0 270 178 458.5t451 188.5q201 0 332 -114.5t131 -343.5q0 -270 -178.5 -458.5t-450.5 -188.5zM268 -276.5q0 81.5 57.5 138t141.5 56.5q82 0 140.5 -56.5t58.5 -138t-58.5 -138t-140.5 -56.5q-84 0 -141.5 56.5t-57.5 138z M369 473q0 -109 49 -162t133 -53q127 0 196.5 100.5t69.5 233.5q0 109 -49 162t-133 53q-127 0 -196.5 -100.5t-69.5 -233.5z" glyph-name="uni1ECD" horiz-adv-x="1185" unicode="ọ"/><glyph d="M692 -20q-281 0 -439.5 166.5t-158.5 453.5q0 354 221.5 603t567.5 249q283 0 439.5 -165t156.5 -449q0 -356 -220.5 -607t-566.5 -251zM446 610q0 -334 271 -334q131 0 226 85t138 207t43 259q0 328 -266 328q-193 0 -302.5 -165t-109.5 -380zM700 1735q0 115 64.5 168 t155.5 53q96 0 161.5 -54.5t65.5 -160.5q0 -88 -54.5 -140.5t-144.5 -64.5l-59 133q76 2 76 62q0 25 -14.5 38t-35.5 13q-43 0 -49 -47h-166z" glyph-name="uni1ECE" horiz-adv-x="1515" unicode="Ỏ"/><glyph d="M510 -20q-201 0 -332 114.5t-131 343.5q0 270 178 458.5t451 188.5q201 0 332 -114.5t131 -343.5q0 -270 -178.5 -458.5t-450.5 -188.5zM369 473q0 -109 49 -162t133 -53q127 0 196.5 100.5t69.5 233.5q0 109 -49 162t-133 53q-127 0 -196.5 -100.5t-69.5 -233.5z M477 1366q0 115 64.5 168t154.5 53q96 0 162 -54t66 -161q0 -88 -54.5 -140t-144.5 -65l-59 133q76 2 75 62q0 25 -14 38t-35 13q-43 0 -49 -47h-166z" glyph-name="uni1ECF" horiz-adv-x="1185" unicode="ỏ"/><glyph d="M692 -20q-281 0 -439.5 166.5t-158.5 453.5q0 354 221.5 603t567.5 249q283 0 439.5 -165t156.5 -449q0 -356 -220.5 -607t-566.5 -251zM446 610q0 -334 271 -334q131 0 226 85t138 207t43 259q0 328 -266 328q-193 0 -302.5 -165t-109.5 -380zM494 1550l231 295h487 l138 -295h-312l-88 195l-143 -195h-313zM1305 1761l264 289h289l-265 -289h-288z" glyph-name="uni1ED0" horiz-adv-x="1515" unicode="Ố"/><glyph d="M510 -20q-201 0 -332 114.5t-131 343.5q0 270 178 458.5t451 188.5q201 0 332 -114.5t131 -343.5q0 -270 -178.5 -458.5t-450.5 -188.5zM268 1182l232 295h487l137 -295h-311l-88 194l-143 -194h-314zM369 473q0 -109 49 -162t133 -53q127 0 196.5 100.5t69.5 233.5 q0 109 -49 162t-133 53q-127 0 -196.5 -100.5t-69.5 -233.5zM1079 1393l264 288h289l-264 -288h-289z" glyph-name="uni1ED1" horiz-adv-x="1185" unicode="ố"/><glyph d="M692 -20q-281 0 -439.5 166.5t-158.5 453.5q0 354 221.5 603t567.5 249q283 0 439.5 -165t156.5 -449q0 -356 -220.5 -607t-566.5 -251zM446 610q0 -334 271 -334q131 0 226 85t138 207t43 259q0 328 -266 328q-193 0 -302.5 -165t-109.5 -380zM494 1550l231 295h487 l138 -295h-312l-88 195l-143 -195h-313zM1194 2052h289l127 -289h-289z" glyph-name="uni1ED2" horiz-adv-x="1515" unicode="Ồ"/><glyph d="M510 -20q-201 0 -332 114.5t-131 343.5q0 270 178 458.5t451 188.5q201 0 332 -114.5t131 -343.5q0 -270 -178.5 -458.5t-450.5 -188.5zM268 1182l232 295h487l137 -295h-311l-88 194l-143 -194h-314zM369 473q0 -109 49 -162t133 -53q127 0 196.5 100.5t69.5 233.5 q0 109 -49 162t-133 53q-127 0 -196.5 -100.5t-69.5 -233.5zM969 1683h288l127 -288h-288z" glyph-name="uni1ED3" horiz-adv-x="1185" unicode="ồ"/><glyph d="M692 -20q-281 0 -439.5 166.5t-158.5 453.5q0 354 221.5 603t567.5 249q283 0 439.5 -165t156.5 -449q0 -356 -220.5 -607t-566.5 -251zM446 610q0 -334 271 -334q131 0 226 85t138 207t43 259q0 328 -266 328q-193 0 -302.5 -165t-109.5 -380zM494 1550l231 295h487 l138 -295h-312l-88 195l-143 -195h-313zM1108 1976q0 115 64.5 168.5t154.5 53.5q96 0 161.5 -54.5t65.5 -161.5q0 -88 -54 -140t-144 -64l-60 133q76 2 76 61q0 25 -14.5 38t-34.5 13q-43 0 -49 -47h-166z" glyph-name="uni1ED4" horiz-adv-x="1515" unicode="Ổ"/><glyph d="M510 -20q-201 0 -332 114.5t-131 343.5q0 270 178 458.5t451 188.5q201 0 332 -114.5t131 -343.5q0 -270 -178.5 -458.5t-450.5 -188.5zM268 1182l232 295h487l137 -295h-311l-88 194l-143 -194h-314zM369 473q0 -109 49 -162t133 -53q127 0 196.5 100.5t69.5 233.5 q0 109 -49 162t-133 53q-127 0 -196.5 -100.5t-69.5 -233.5zM883 1608q0 115 64.5 168t154.5 53q96 0 161.5 -54.5t65.5 -160.5q0 -88 -54 -140.5t-145 -64.5l-59 133q76 2 76 62q0 25 -14.5 38t-34.5 13q-43 0 -49 -47h-166z" glyph-name="uni1ED5" horiz-adv-x="1185" unicode="ổ"/><glyph d="M692 -20q-281 0 -439.5 166.5t-158.5 453.5q0 354 221.5 603t567.5 249q283 0 439.5 -165t156.5 -449q0 -356 -220.5 -607t-566.5 -251zM446 610q0 -334 271 -334q131 0 226 85t138 207t43 259q0 328 -266 328q-193 0 -302.5 -165t-109.5 -380zM494 1550l231 295h487 l138 -295h-312l-88 195l-143 -195h-313zM614 1962q14 117 80 182.5t170 65.5q68 0 116 -26.5t76.5 -53.5t53.5 -27q66 0 74 51h194q-14 -117 -79.5 -183t-170.5 -66q-51 0 -92 17t-61.5 36.5t-45 37t-46.5 17.5q-66 0 -74 -51h-195z" glyph-name="uni1ED6" horiz-adv-x="1515" unicode="Ỗ"/><glyph d="M510 -20q-201 0 -332 114.5t-131 343.5q0 270 178 458.5t451 188.5q201 0 332 -114.5t131 -343.5q0 -270 -178.5 -458.5t-450.5 -188.5zM268 1182l232 295h487l137 -295h-311l-88 194l-143 -194h-314zM369 473q0 -109 49 -162t133 -53q127 0 196.5 100.5t69.5 233.5 q0 109 -49 162t-133 53q-127 0 -196.5 -100.5t-69.5 -233.5zM389 1593q14 117 80 182.5t170 65.5q68 0 116 -26.5t76.5 -53t53.5 -26.5q66 0 73 51h195q-14 -117 -79.5 -183.5t-170.5 -66.5q-51 0 -92 17.5t-61.5 37t-45 37t-47.5 17.5q-66 0 -73 -52h-195z" glyph-name="uni1ED7" horiz-adv-x="1185" unicode="ỗ"/><glyph d="M692 -20q-281 0 -439.5 166.5t-158.5 453.5q0 354 221.5 603t567.5 249q283 0 439.5 -165t156.5 -449q0 -356 -220.5 -607t-566.5 -251zM446 -276.5q0 81.5 57.5 138t141.5 56.5q82 0 140.5 -56.5t58.5 -138t-58.5 -138t-140.5 -56.5q-84 0 -141.5 56.5t-57.5 138z M446 610q0 -334 271 -334q131 0 226 85t138 207t43 259q0 328 -266 328q-193 0 -302.5 -165t-109.5 -380zM494 1550l231 295h487l138 -295h-312l-88 195l-143 -195h-313z" glyph-name="uni1ED8" horiz-adv-x="1515" unicode="Ộ"/><glyph d="M510 -20q-201 0 -332 114.5t-131 343.5q0 270 178 458.5t451 188.5q201 0 332 -114.5t131 -343.5q0 -270 -178.5 -458.5t-450.5 -188.5zM268 -276.5q0 81.5 57.5 138t141.5 56.5q82 0 140.5 -56.5t58.5 -138t-58.5 -138t-140.5 -56.5q-84 0 -141.5 56.5t-57.5 138z M268 1182l232 295h487l137 -295h-311l-88 194l-143 -194h-314zM369 473q0 -109 49 -162t133 -53q127 0 196.5 100.5t69.5 233.5q0 109 -49 162t-133 53q-127 0 -196.5 -100.5t-69.5 -233.5z" glyph-name="uni1ED9" horiz-adv-x="1185" unicode="ộ"/><glyph d="M692 -20q-281 0 -439.5 166.5t-158.5 453.5q0 354 221.5 603t567.5 249h2h448l27 162h282l-63 -416h-188q88 -147 88 -360q0 -356 -220.5 -607t-566.5 -251zM446 610q0 -334 271 -334q131 0 226 85t138 207t43 259q0 328 -266 328q-193 0 -302.5 -165t-109.5 -380z M774 1556l264 289h289l-264 -289h-289z" glyph-name="uni1EDA" horiz-adv-x="1515" unicode="Ớ"/><glyph d="M510 -20q-201 0 -332 114.5t-131 343.5q0 270 178 458.5t451 188.5h344l27 160h266l-68 -416h-141q35 -88 35 -202q0 -270 -178.5 -458.5t-450.5 -188.5zM369 473q0 -109 49 -162t133 -53q127 0 196.5 100.5t69.5 233.5q0 109 -49 162t-133 53q-127 0 -196.5 -100.5 t-69.5 -233.5zM551 1188l264 289h289l-264 -289h-289z" glyph-name="uni1EDB" horiz-adv-x="1185" unicode="ớ"/><glyph d="M692 -20q-281 0 -439.5 166.5t-158.5 453.5q0 354 221.5 603t567.5 249h2h448l27 162h282l-63 -416h-188q88 -147 88 -360q0 -356 -220.5 -607t-566.5 -251zM446 610q0 -334 271 -334q131 0 226 85t138 207t43 259q0 328 -266 328q-193 0 -302.5 -165t-109.5 -380z M600 1845h291l172 -289h-291z" glyph-name="uni1EDC" horiz-adv-x="1515" unicode="Ờ"/><glyph d="M510 -20q-201 0 -332 114.5t-131 343.5q0 270 178 458.5t451 188.5h344l27 160h266l-68 -416h-141q35 -88 35 -202q0 -270 -178.5 -458.5t-450.5 -188.5zM369 473q0 -109 49 -162t133 -53q127 0 196.5 100.5t69.5 233.5q0 109 -49 162t-133 53q-127 0 -196.5 -100.5 t-69.5 -233.5zM377 1477h291l172 -289h-291z" glyph-name="uni1EDD" horiz-adv-x="1185" unicode="ờ"/><glyph d="M692 -20q-281 0 -439.5 166.5t-158.5 453.5q0 354 221.5 603t567.5 249h2h448l27 162h282l-63 -416h-188q88 -147 88 -360q0 -356 -220.5 -607t-566.5 -251zM446 610q0 -334 271 -334q131 0 226 85t138 207t43 259q0 328 -266 328q-193 0 -302.5 -165t-109.5 -380z M700 1735q0 115 64.5 168t155.5 53q96 0 161.5 -54.5t65.5 -160.5q0 -88 -54.5 -140.5t-144.5 -64.5l-59 133q76 2 76 62q0 25 -14.5 38t-35.5 13q-43 0 -49 -47h-166z" glyph-name="uni1EDE" horiz-adv-x="1515" unicode="Ở"/><glyph d="M510 -20q-201 0 -332 114.5t-131 343.5q0 270 178 458.5t451 188.5h344l27 160h266l-68 -416h-141q35 -88 35 -202q0 -270 -178.5 -458.5t-450.5 -188.5zM369 473q0 -109 49 -162t133 -53q127 0 196.5 100.5t69.5 233.5q0 109 -49 162t-133 53q-127 0 -196.5 -100.5 t-69.5 -233.5zM477 1366q0 115 64.5 168t154.5 53q96 0 162 -54t66 -161q0 -88 -54.5 -140t-144.5 -65l-59 133q76 2 75 62q0 25 -14 38t-35 13q-43 0 -49 -47h-166z" glyph-name="uni1EDF" horiz-adv-x="1185" unicode="ở"/><glyph d="M692 -20q-281 0 -439.5 166.5t-158.5 453.5q0 354 221.5 603t567.5 249h2h448l27 162h282l-63 -416h-188q88 -147 88 -360q0 -356 -220.5 -607t-566.5 -251zM446 610q0 -334 271 -334q131 0 226 85t138 207t43 259q0 328 -266 328q-193 0 -302.5 -165t-109.5 -380z M565 1622q14 117 80 182.5t170 65.5q68 0 116 -26.5t76.5 -53.5t53.5 -27q66 0 74 52h194q-14 -117 -79.5 -183.5t-170.5 -66.5q-51 0 -92 17t-61.5 36.5t-45 37t-46.5 17.5q-66 0 -74 -51h-195z" glyph-name="uni1EE0" horiz-adv-x="1515" unicode="Ỡ"/><glyph d="M510 -20q-201 0 -332 114.5t-131 343.5q0 270 178 458.5t451 188.5h344l27 160h266l-68 -416h-141q35 -88 35 -202q0 -270 -178.5 -458.5t-450.5 -188.5zM340 1253q14 117 79.5 182.5t170.5 65.5q68 0 116 -26.5t76.5 -53t53.5 -26.5q66 0 73 51h195q-14 -117 -80 -183.5 t-170 -66.5q-51 0 -92 17.5t-61.5 37t-45 37t-47.5 17.5q-66 0 -73 -52h-195zM369 473q0 -109 49 -162t133 -53q127 0 196.5 100.5t69.5 233.5q0 109 -49 162t-133 53q-127 0 -196.5 -100.5t-69.5 -233.5z" glyph-name="uni1EE1" horiz-adv-x="1185" unicode="ỡ"/><glyph d="M692 -20q-281 0 -439.5 166.5t-158.5 453.5q0 354 221.5 603t567.5 249h2h448l27 162h282l-63 -416h-188q88 -147 88 -360q0 -356 -220.5 -607t-566.5 -251zM432 -276.5q0 81.5 57.5 138t141.5 56.5q82 0 140 -56.5t58 -138t-58 -138t-140 -56.5q-84 0 -141.5 56.5 t-57.5 138zM446 610q0 -334 271 -334q131 0 226 85t138 207t43 259q0 328 -266 328q-193 0 -302.5 -165t-109.5 -380z" glyph-name="uni1EE2" horiz-adv-x="1515" unicode="Ợ"/><glyph d="M510 -20q-201 0 -332 114.5t-131 343.5q0 270 178 458.5t451 188.5h344l27 160h266l-68 -416h-141q35 -88 35 -202q0 -270 -178.5 -458.5t-450.5 -188.5zM268 -276.5q0 81.5 57.5 138t141.5 56.5q82 0 140.5 -56.5t58.5 -138t-58.5 -138t-140.5 -56.5q-84 0 -141.5 56.5 t-57.5 138zM369 473q0 -109 49 -162t133 -53q127 0 196.5 100.5t69.5 233.5q0 109 -49 162t-133 53q-127 0 -196.5 -100.5t-69.5 -233.5z" glyph-name="uni1EE3" horiz-adv-x="1185" unicode="ợ"/><glyph d="M623 -20q-279 0 -420.5 142t-96.5 423l142 889h346l-137 -863q-23 -143 37.5 -217.5t183.5 -74.5q238 0 285 292l137 863h348l-141 -889q-47 -281 -229.5 -423t-454.5 -142zM381 -276.5q0 81.5 57.5 138t141.5 56.5q82 0 140 -56.5t58 -138t-58 -138t-140 -56.5 q-84 0 -141.5 56.5t-57.5 138z" glyph-name="uni1EE4" horiz-adv-x="1409" unicode="Ụ"/><glyph d="M432 467q-18 -109 23 -160t125 -51q178 0 221 203l96 606h336l-166 -1065h-338l35 225h-14q-31 -94 -126.5 -169.5t-238.5 -75.5q-164 0 -249 105t-54 300l106 680h336zM328 -276.5q0 81.5 57 138t141 56.5q82 0 140.5 -56.5t58.5 -138t-58.5 -138t-140.5 -56.5 q-84 0 -141 56.5t-57 138z" glyph-name="uni1EE5" unicode="ụ"/><glyph d="M623 -20q-279 0 -420.5 142t-96.5 423l142 889h346l-137 -863q-23 -143 37.5 -217.5t183.5 -74.5q238 0 285 292l137 863h348l-141 -889q-47 -281 -229.5 -423t-454.5 -142zM621 1735q0 115 64.5 168t154.5 53q96 0 161.5 -54.5t65.5 -160.5q0 -88 -54.5 -140.5 t-144.5 -64.5l-59 133q76 2 76 62q0 25 -14.5 38t-34.5 13q-43 0 -50 -47h-165z" glyph-name="uni1EE6" horiz-adv-x="1409" unicode="Ủ"/><glyph d="M432 467q-18 -109 23 -160t125 -51q178 0 221 203l96 606h336l-166 -1065h-338l35 225h-14q-31 -94 -126.5 -169.5t-238.5 -75.5q-164 0 -249 105t-54 300l106 680h336zM506 1366q0 115 64.5 168t154.5 53q96 0 161.5 -54t65.5 -161q0 -88 -54 -140t-144 -65l-60 133 q76 2 76 62q0 25 -14.5 38t-34.5 13q-43 0 -49 -47h-166z" glyph-name="uni1EE7" unicode="ủ"/><glyph d="M623 -20q-279 0 -420.5 142t-96.5 423l142 889h346l-137 -863q-23 -143 37.5 -217.5t183.5 -74.5q238 0 285 292l137 863h313l31 180h282l-71 -434h-248l-100 -635q-47 -281 -229.5 -423t-454.5 -142zM723 1556l264 289h289l-264 -289h-289z" glyph-name="uni1EE8" horiz-adv-x="1409" unicode="Ứ"/><glyph d="M432 467q-18 -109 23 -160t125 -51q178 0 221 203l96 606h336l-166 -1065h-338l35 225h-14q-31 -94 -126.5 -169.5t-238.5 -75.5q-164 0 -249 105t-54 300l106 680h336zM584 1188l264 289h289l-265 -289h-288zM1294 811l41 254h312l30 180h283l-72 -434h-594z" glyph-name="uni1EE9" unicode="ứ"/><glyph d="M623 -20q-279 0 -420.5 142t-96.5 423l142 889h346l-137 -863q-23 -143 37.5 -217.5t183.5 -74.5q238 0 285 292l137 863h313l31 180h282l-71 -434h-248l-100 -635q-47 -281 -229.5 -423t-454.5 -142zM549 1845h291l172 -289h-291z" glyph-name="uni1EEA" horiz-adv-x="1409" unicode="Ừ"/><glyph d="M432 467q-18 -109 23 -160t125 -51q178 0 221 203l96 606h336l-166 -1065h-338l35 225h-14q-31 -94 -126.5 -169.5t-238.5 -75.5q-164 0 -249 105t-54 300l106 680h336zM410 1477h290l172 -289h-290zM1294 811l41 254h312l30 180h283l-72 -434h-594z" glyph-name="uni1EEB" unicode="ừ"/><glyph d="M623 -20q-279 0 -420.5 142t-96.5 423l142 889h346l-137 -863q-23 -143 37.5 -217.5t183.5 -74.5q238 0 285 292l137 863h313l31 180h282l-71 -434h-248l-100 -635q-47 -281 -229.5 -423t-454.5 -142zM649 1735q0 115 64.5 168t154.5 53q96 0 162 -54.5t66 -160.5 q0 -88 -54.5 -140.5t-144.5 -64.5l-59 133q76 2 75 62q0 25 -14 38t-35 13q-43 0 -49 -47h-166z" glyph-name="uni1EEC" horiz-adv-x="1409" unicode="Ử"/><glyph d="M432 467q-18 -109 23 -160t125 -51q178 0 221 203l96 606h336l-166 -1065h-338l35 225h-14q-31 -94 -126.5 -169.5t-238.5 -75.5q-164 0 -249 105t-54 300l106 680h336zM508 1366q0 115 64.5 168t154.5 53q96 0 161.5 -54t65.5 -161q0 -88 -54 -140t-144 -65l-60 133 q76 2 76 62q0 25 -14.5 38t-34.5 13q-43 0 -49 -47h-166zM1294 811l41 254h312l30 180h283l-72 -434h-594z" glyph-name="uni1EED" unicode="ử"/><glyph d="M623 -20q-279 0 -420.5 142t-96.5 423l142 889h346l-137 -863q-23 -143 37.5 -217.5t183.5 -74.5q238 0 285 292l137 863h313l31 180h282l-71 -434h-248l-100 -635q-47 -281 -229.5 -423t-454.5 -142zM512 1622q14 117 79.5 182.5t170.5 65.5q68 0 116 -26.5t76.5 -53.5 t53.5 -27q66 0 73 52h195q-14 -117 -80 -183.5t-170 -66.5q-51 0 -92 17t-61.5 36.5t-45 37t-47.5 17.5q-66 0 -73 -51h-195z" glyph-name="uni1EEE" horiz-adv-x="1409" unicode="Ữ"/><glyph d="M432 467q-18 -109 23 -160t125 -51q178 0 221 203l96 606h336l-166 -1065h-338l35 225h-14q-31 -94 -126.5 -169.5t-238.5 -75.5q-164 0 -249 105t-54 300l106 680h336zM373 1253q14 117 79.5 182.5t170.5 65.5q68 0 115.5 -26.5t76.5 -53t53 -26.5q66 0 74 51h195 q-14 -117 -80 -183.5t-170 -66.5q-51 0 -92 17.5t-61.5 37t-45 37t-47.5 17.5q-66 0 -74 -52h-194zM1294 811l41 254h312l30 180h283l-72 -434h-594z" glyph-name="uni1EEF" unicode="ữ"/><glyph d="M623 -20q-279 0 -420.5 142t-96.5 423l142 889h346l-137 -863q-23 -143 37.5 -217.5t183.5 -74.5q238 0 285 292l137 863h313l31 180h282l-71 -434h-248l-100 -635q-47 -281 -229.5 -423t-454.5 -142zM381 -276.5q0 81.5 57.5 138t141.5 56.5q82 0 140 -56.5t58 -138 t-58 -138t-140 -56.5q-84 0 -141.5 56.5t-57.5 138z" glyph-name="uni1EF0" horiz-adv-x="1409" unicode="Ự"/><glyph d="M432 467q-18 -109 23 -160t125 -51q178 0 221 203l96 606h336l-166 -1065h-338l35 225h-14q-31 -94 -126.5 -169.5t-238.5 -75.5q-164 0 -249 105t-54 300l106 680h336zM299 -276.5q0 81.5 57.5 138t141.5 56.5q82 0 140 -56.5t58 -138t-58 -138t-140 -56.5 q-84 0 -141.5 56.5t-57.5 138zM1294 811l41 254h312l30 180h283l-72 -434h-594z" glyph-name="uni1EF1" unicode="ự"/><glyph d="M475 0l82 518l-371 916h392l208 -582l394 582h395l-662 -916l-84 -518h-354zM580 1845h290l172 -289h-290z" glyph-name="Ygrave" horiz-adv-x="1472" unicode="Ỳ"/><glyph d="M33 -129q217 -25 299 88q43 68 24 147l-239 959h340l127 -637l334 637h344l-592 -1051q-152 -266 -295.5 -359t-382.5 -67zM385 1477h291l172 -289h-291z" glyph-name="ygrave" horiz-adv-x="1210" unicode="ỳ"/><glyph d="M475 0l82 518l-371 916h392l208 -582l394 582h395l-662 -916l-84 -518h-354zM412 -276.5q0 81.5 57 138t141 56.5q82 0 140.5 -56.5t58.5 -138t-58.5 -138t-140.5 -56.5q-84 0 -141 56.5t-57 138z" glyph-name="uni1EF4" horiz-adv-x="1472" unicode="Ỵ"/><glyph d="M33 -129q217 -25 299 88q43 68 24 147l-239 959h340l127 -637l334 637h344l-592 -1051q-152 -266 -295.5 -359t-382.5 -67zM676 -276.5q0 81.5 57.5 138t140.5 56.5q82 0 140.5 -56.5t58.5 -138t-58.5 -138t-140.5 -56.5q-84 0 -141 56.5t-57 138z" glyph-name="uni1EF5" horiz-adv-x="1210" unicode="ỵ"/><glyph d="M475 0l82 518l-371 916h392l208 -582l394 582h395l-662 -916l-84 -518h-354zM680 1735q0 115 64.5 168t154.5 53q96 0 161.5 -54.5t65.5 -160.5q0 -88 -54 -140.5t-144 -64.5l-60 133q76 2 76 62q0 25 -14.5 38t-34.5 13q-43 0 -49 -47h-166z" glyph-name="uni1EF6" horiz-adv-x="1472" unicode="Ỷ"/><glyph d="M33 -129q217 -25 299 88q43 68 24 147l-239 959h340l127 -637l334 637h344l-592 -1051q-152 -266 -295.5 -359t-382.5 -67zM485 1366q0 115 64.5 168t155.5 53q96 0 161.5 -54t65.5 -161q0 -88 -54.5 -140t-144.5 -65l-59 133q76 2 76 62q0 25 -14.5 38t-35.5 13 q-43 0 -49 -47h-166z" glyph-name="uni1EF7" horiz-adv-x="1210" unicode="ỷ"/><glyph d="M475 0l82 518l-371 916h392l208 -582l394 582h395l-662 -916l-84 -518h-354zM543 1622q14 117 79.5 182.5t170.5 65.5q68 0 115.5 -26.5t76.5 -53.5t53 -27q66 0 74 52h195q-14 -117 -80 -183.5t-170 -66.5q-51 0 -92 17t-61.5 36.5t-45 37t-47.5 17.5q-66 0 -74 -51 h-194z" glyph-name="uni1EF8" horiz-adv-x="1472" unicode="Ỹ"/><glyph d="M33 -129q217 -25 299 88q43 68 24 147l-239 959h340l127 -637l334 637h344l-592 -1051q-152 -266 -295.5 -359t-382.5 -67zM350 1253q14 117 80 182.5t170 65.5q68 0 116 -26.5t76.5 -53t53.5 -26.5q66 0 74 51h194q-14 -117 -79.5 -183.5t-170.5 -66.5q-51 0 -92 17.5 t-61.5 37t-45 37t-47.5 17.5q-66 0 -73 -52h-195z" glyph-name="uni1EF9" horiz-adv-x="1210" unicode="ỹ"/><glyph d="M76 438l43 250h1044l-43 -250h-1044z" glyph-name="endash" horiz-adv-x="1228" unicode="–"/><glyph d="M76 438l43 250h1167l-43 -250h-1167z" glyph-name="emdash" horiz-adv-x="1351" unicode="—"/><glyph d="M541 1307q-90 -6 -131 -37t-54 -99q98 2 149.5 -48t51.5 -128q0 -86 -57.5 -144t-149.5 -60q-90 0 -146.5 59t-56.5 188q0 170 101.5 285t300.5 117h12z" glyph-name="quoteleft" horiz-adv-x="561" unicode="‘"/><glyph d="M207 938q90 6 131 36t53 97q-98 0 -149.5 50t-51.5 128q0 86 57.5 144.5t149.5 58.5q90 0 146.5 -59.5t56.5 -188.5q0 -170 -102.5 -284.5t-298.5 -114.5h-13z" glyph-name="quoteright" horiz-adv-x="565" unicode="’"/><glyph d="M35 -145q90 6 131 35.5t53 97.5q-98 0 -149.5 50t-51.5 128q0 86 57.5 144.5t149.5 58.5q90 0 146.5 -59.5t56.5 -188.5q0 -170 -102.5 -285t-298.5 -115h-13z" glyph-name="quotesinglbase" horiz-adv-x="571" unicode="‚"/><glyph d="M541 1307q-90 -6 -131 -37t-54 -99q98 2 149.5 -48t51.5 -128q0 -86 -57.5 -144t-149.5 -60q-90 0 -146.5 59t-56.5 188q0 170 101.5 285t300.5 117h12zM651 1038q0 170 101.5 285t300.5 117h12l-21 -133q-90 -6 -131 -37t-53 -99q98 2 149.5 -48t51.5 -128 q0 -86 -57.5 -144t-149.5 -60q-90 0 -146.5 59t-56.5 188z" glyph-name="quotedblleft" horiz-adv-x="1060" unicode="“"/><glyph d="M207 938q90 6 131 36t53 97q-98 0 -149.5 50t-51.5 128q0 86 57.5 144.5t149.5 58.5q90 0 146.5 -59.5t56.5 -188.5q0 -170 -102.5 -284.5t-298.5 -114.5h-13zM690 805l21 133q90 6 131 36t53 97q-98 0 -149.5 50t-51.5 128q0 86 57.5 144.5t149.5 58.5q90 0 146.5 -59.5 t56.5 -188.5q0 -170 -102.5 -284.5t-299.5 -114.5h-12z" glyph-name="quotedblright" horiz-adv-x="1067" unicode="”"/><glyph d="M532 -172q90 6 131.5 36t53.5 97q-98 0 -149.5 50t-51.5 128q0 86 57.5 144.5t149.5 58.5q90 0 146.5 -59.5t56.5 -188.5q0 -170 -102.5 -284.5t-299.5 -114.5h-12zM8 -305l21 133q90 6 131 36t53 97q-98 0 -149.5 50t-51.5 128q0 86 57.5 144.5t149.5 58.5 q90 0 146.5 -59.5t56.5 -188.5q0 -170 -102.5 -284.5t-299.5 -114.5h-12z" glyph-name="quotedblbase" horiz-adv-x="1075" unicode="„"/><glyph d="M305 365l78 501h-229l43 252h227l49 316h266l-49 -316h225l-43 -252h-223l-78 -501h-266z" glyph-name="dagger" horiz-adv-x="923" unicode="†"/><glyph d="M246 0l41 262h-230l45 252h226l63 406h-227l41 251h227l41 263h266l-41 -263h226l-41 -251h-226l-63 -406h227l-45 -252h-223l-41 -262h-266z" glyph-name="daggerdbl" horiz-adv-x="923" unicode="‡"/><glyph d="M295 352q-78 0 -133.5 55.5t-55.5 133.5q0 76 55.5 131t133.5 55t132 -54.5t54 -132t-54 -133t-132 -55.5z" glyph-name="bullet" horiz-adv-x="583" unicode="•"/><glyph d="M803 -20q-82 0 -140.5 56t-58.5 138t58.5 138.5t140.5 56.5q84 0 141 -56.5t57 -138.5t-57 -138t-141 -56zM18 174q0 82 58.5 138.5t140.5 56.5q84 0 141.5 -56.5t57.5 -138.5t-57.5 -138t-141.5 -56q-82 0 -140.5 56t-58.5 138zM1188 174q0 82 58.5 138.5t139.5 56.5 q84 0 141.5 -56.5t57.5 -138.5t-57.5 -138t-141.5 -56q-82 0 -140 56t-58 138z" glyph-name="ellipsis" horiz-adv-x="1718" unicode="…"/><glyph d="M221 215l-108 188l1265 822l107 -189zM162 1053q0 166 102.5 286.5t270.5 120.5q117 0 188.5 -66.5t71.5 -199.5q0 -166 -102.5 -287t-270.5 -121q-117 0 -188.5 66t-71.5 201zM401 1100q0 -92 62 -92q47 0 69.5 42t22.5 97q0 92 -61 92q-47 0 -70 -42t-23 -97zM809 246 q0 168 102.5 287.5t270.5 119.5q117 0 188.5 -65.5t71.5 -198.5q0 -168 -102.5 -287.5t-270.5 -119.5q-117 0 -188.5 65.5t-71.5 198.5zM1049 293q0 -92 61 -92q47 0 69.5 43t22.5 98q0 92 -61 92q-47 0 -69.5 -43t-22.5 -98zM1550 246q0 168 102.5 287.5t270.5 119.5 q117 0 188.5 -65.5t71.5 -198.5q0 -168 -102.5 -287.5t-270.5 -119.5q-117 0 -188.5 65.5t-71.5 198.5zM1790 293q0 -92 61 -92q47 0 70 43t23 98q0 92 -62 92q-47 0 -69.5 -43t-22.5 -98z" glyph-name="perthousand" horiz-adv-x="2283" unicode="‰"/><glyph d="M393 180l-321 295l45 262l413 305l-47 -297l-190 -135l147 -129z" glyph-name="guilsinglleft" horiz-adv-x="530" unicode="‹"/><glyph d="M160 1042l321 -294l-45 -263l-413 -305l47 297l190 135l-147 129z" glyph-name="guilsinglright" horiz-adv-x="528" unicode="›"/><glyph d="M-451 0l1121 1434h164l-1121 -1434h-164z" glyph-name="fraction" horiz-adv-x="323" unicode="⁄"/><glyph d="M102 733l35 201h109q82 236 269 377t454 141q260 0 413.5 -136t135.5 -401h-330q-10 127 -80 183.5t-172 56.5q-223 0 -328 -221h258l-35 -201h-282q-6 -43 -6 -88h276l-33 -201h-213q63 -168 248 -168q211 0 307 242h330q-59 -272 -244.5 -405t-435.5 -133 q-242 0 -389 118.5t-184 345.5h-148l33 201h103q4 57 8 88h-99z" glyph-name="Euro" horiz-adv-x="1521" unicode="€"/><glyph d="M598 1065l59 369h136l61 -273l145 273h140l-60 -369h-127l27 166l-80 -166h-115l-34 166l-25 -166h-127zM207 1329l18 105h369l-19 -105h-120l-41 -264h-127l43 264h-123z" glyph-name="trademark" horiz-adv-x="1077" unicode="™"/><glyph d="M535 -20q-86 0 -169 25.5t-159 80.5t-115 159.5t-18 241.5q18 127 78.5 222.5t142.5 144.5t164 72.5t162 23.5q176 0 299 -131q10 55 10 110.5t-15.5 118t-65.5 101.5t-130 39q-180 0 -234 -164h-295q14 102 77 196.5t190 163t295 68.5q291 0 405.5 -194.5t61.5 -532.5 q-63 -389 -251.5 -567t-432.5 -178zM391 479q-18 -117 43.5 -173t143 -56t161.5 52t97 173q16 119 -46.5 171t-144.5 52q-49 0 -98 -17t-95.5 -69.5t-60.5 -132.5z" glyph-name="partialdiff" horiz-adv-x="1259" unicode="∂"/><glyph d="M-53 -389l321 2027h1377l-322 -2027h-324l275 1722h-729l-275 -1722h-323z" glyph-name="product" horiz-adv-x="1560" unicode="∏"/><glyph d="M-53 -389l723 1014l-402 1013h1260l-47 -303h-725l278 -710l-497 -711h718l-49 -303h-1259z" glyph-name="summation" horiz-adv-x="1443" unicode="∑"/><glyph d="M80 385l47 250h702l-47 -250h-702z" glyph-name="minus" horiz-adv-x="917" unicode="−"/><glyph d="M565 -389l-223 862h-260l57 361h490l188 -795l664 1599h325l-843 -2027h-398z" glyph-name="radical" horiz-adv-x="1722" unicode="√"/><glyph d="M455 172q-156 0 -265.5 100.5t-109.5 264t109.5 261t265.5 97.5q197 0 409 -172q213 172 410 172q156 0 265.5 -97.5t109.5 -261t-109.5 -264t-265.5 -100.5q-197 0 -410 172q-212 -172 -409 -172zM365 537q0 -45 33.5 -80t95.5 -35q111 0 204 115q-98 117 -204 116 q-61 0 -95 -34.5t-34 -81.5zM1030 537q94 -115 203 -115q63 0 97 35t34 80q0 47 -34 81.5t-97 34.5q-105 1 -203 -116z" glyph-name="infinity" horiz-adv-x="1726" unicode="∞"/><glyph d="M-68 -102q41 0 70 14t43 45t21.5 56.5t13.5 70.5l147 948q27 186 141.5 287.5t374.5 101.5l-47 -286q-68 0 -98.5 -48.5t-46.5 -138.5l-152 -948q-33 -203 -145.5 -296t-366.5 -93z" glyph-name="integral" horiz-adv-x="653" unicode="∫"/><glyph d="M715 184q-88 0 -221.5 85t-212.5 85q-31 0 -56.5 -15t-23.5 -42h-133q0 129 69.5 213t204.5 84q88 0 221 -85t213 -85q29 0 55.5 15.5t24.5 41.5h133q0 -129 -69.5 -213t-204.5 -84zM125 625q0 129 69.5 213t204.5 84q88 0 221.5 -85t213.5 -85q29 0 55 15t24 42h134 q0 -129 -70 -213t-205 -84q-88 0 -221 85t-213 85q-31 0 -56.5 -15.5t-23.5 -41.5h-133z" glyph-name="approxequal" horiz-adv-x="1110" unicode="≈"/><glyph d="M129 0l111 274h-177l48 250h229l31 78h-250l47 250h303l119 297h201l-119 -297h198l-47 -250h-252l-30 -78h272l-47 -250h-326l-110 -274h-201z" glyph-name="notequal" horiz-adv-x="923" unicode="≠"/><glyph d="M20 0l43 252h701l-43 -252h-701zM129 643l41 256l745 320l-38 -279l-478 -172l428 -176l-39 -270z" glyph-name="lessequal" horiz-adv-x="925" unicode="≤"/><glyph d="M18 0l35 252h701l-35 -252h-701zM82 322l39 278l479 172l-428 176l39 271l659 -322l-41 -256z" glyph-name="greaterequal" horiz-adv-x="917" unicode="≥"/><glyph d="M326 0l-205 717l432 717h477l203 -717l-430 -717h-477zM459 717l141 -490l295 490l-139 489z" glyph-name="lozenge" horiz-adv-x="1296" unicode="◊"/><glyph d="M98 492l150 942h342l-148 -942h-344z" glyph-name="uniA78B" horiz-adv-x="552" unicode="Ꞌ"/><glyph d="M117 610l131 824h336l-131 -824h-336z" glyph-name="uniA78C" horiz-adv-x="542" unicode="ꞌ"/><glyph d="M631 -20q-276 0 -423 143t-102 422h347q-18 -129 41 -197.5t178 -68.5q117 0 184.5 70.5t89.5 221.5l139 863h345l-144 -889q-45 -283 -216 -424t-439 -141zM1102 1556l264 289h289l-264 -289h-289z" glyph-name="J.aalt" horiz-adv-x="1388"/><glyph d="M618 -20q-248 0 -387 151.5t-139 425.5q0 246 96.5 447.5t282.5 324.5t428 123q246 0 395.5 -125t141.5 -371h-353q-29 199 -223 199q-190 0 -299.5 -163t-109.5 -378q0 -336 280 -342q129 -4 213 62.5t107 191.5l2 13l-2 -13h-271l45 279h598l-129 -805h-323l22 135 q-78 -82 -165 -118.5t-210 -36.5z" glyph-name="G.ss01" horiz-adv-x="1462"/><glyph d="M887 0q-37 43 -4 227l16 105q10 74 -29 121t-125 47h-303l-80 -500h-342l228 1434h622q246 0 362 -101.5t116 -273.5q0 -270 -289 -404q127 -45 168 -120.5t24 -190.5l-16 -117q-33 -186 4 -227h-352zM485 776h265q106 0 166.5 57.5t60.5 149.5q0 150 -170 150h-264z" glyph-name="R.aalt" horiz-adv-x="1417"/><glyph d="M618 -20q-248 0 -387 151.5t-139 425.5q0 246 96.5 447.5t282.5 324.5t428 123q246 0 395.5 -125t141.5 -371h-353q-29 199 -223 199q-190 0 -299.5 -163t-109.5 -378q0 -336 280 -342q129 -4 213 62.5t107 191.5l2 13l-2 -13h-271l45 279h598l-129 -805h-323l22 135 q-78 -82 -165 -118.5t-210 -36.5z" glyph-name="G.ss05" horiz-adv-x="1462"/><glyph d="M2 0l168 1065h336l-168 -1065h-336zM209 1343.5q0 73.5 54 126t128 52.5q72 0 126 -52.5t54 -126.5q0 -72 -54 -124t-126 -52q-74 0 -128 51.5t-54 125z" glyph-name="i.locl" horiz-adv-x="514"/><glyph d="M-57 -401q-143 0 -191 6l43 260h115q106 0 129 133l170 1067h336l-176 -1116q-27 -180 -138.5 -265t-287.5 -85zM240 1188l264 289h289l-265 -289h-288z" glyph-name="j.aalt" horiz-adv-x="550"/><glyph d="M418 -20q-158 0 -265.5 106.5t-107.5 319.5q0 281 154.5 480t390.5 199q117 0 189.5 -48t88.5 -115h2l21 143h336l-168 -1065h-336l20 143q-31 -66 -121.5 -114.5t-203.5 -48.5zM367 473q0 -109 51 -162t139 -53q119 0 193.5 99.5t74.5 232.5q0 111 -53 164t-141 53 q-117 0 -190.5 -99.5t-73.5 -234.5z" glyph-name="a.ss01" horiz-adv-x="1247"/><glyph d="M418 -20q-158 0 -265.5 106.5t-107.5 319.5q0 281 154.5 480t390.5 199q117 0 189.5 -48t88.5 -115h2l21 143h336l-168 -1065h-336l20 143q-31 -66 -121.5 -114.5t-203.5 -48.5zM367 473q0 -109 51 -162t139 -53q119 0 193.5 99.5t74.5 232.5q0 111 -53 164t-141 53 q-117 0 -190.5 -99.5t-73.5 -234.5zM563 1188l264 289h289l-264 -289h-289z" glyph-name="aacute.ss01" horiz-adv-x="1247"/><glyph d="M418 -20q-158 0 -265.5 106.5t-107.5 319.5q0 281 154.5 480t390.5 199q117 0 189.5 -48t88.5 -115h2l21 143h336l-168 -1065h-336l20 143q-31 -66 -121.5 -114.5t-203.5 -48.5zM367 473q0 -109 51 -162t139 -53q119 0 193.5 99.5t74.5 232.5q0 111 -53 164t-141 53 q-117 0 -190.5 -99.5t-73.5 -234.5zM403 1477h220q-8 -137 127 -138q133 0 161 138h219q-27 -158 -130 -243t-277 -85q-176 0 -261.5 86t-58.5 242z" glyph-name="abreve.ss01" horiz-adv-x="1247"/><glyph d="M418 -20q-158 0 -265.5 106.5t-107.5 319.5q0 281 154.5 480t390.5 199q117 0 189.5 -48t88.5 -115h2l21 143h336l-168 -1065h-336l20 143q-31 -66 -121.5 -114.5t-203.5 -48.5zM334 1479h311l88 -195l144 195h313l-232 -295h-487zM367 473q0 -109 51 -162t139 -53 q119 0 193.5 99.5t74.5 232.5q0 111 -53 164t-141 53q-117 0 -190.5 -99.5t-73.5 -234.5z" glyph-name="uni01CE.ss01" horiz-adv-x="1247"/><glyph d="M418 -20q-158 0 -265.5 106.5t-107.5 319.5q0 281 154.5 480t390.5 199q117 0 189.5 -48t88.5 -115h2l21 143h336l-168 -1065h-336l20 143q-31 -66 -121.5 -114.5t-203.5 -48.5zM293 1182l231 295h488l137 -295h-311l-88 194l-144 -194h-313zM367 473q0 -109 51 -162 t139 -53q119 0 193.5 99.5t74.5 232.5q0 111 -53 164t-141 53q-117 0 -190.5 -99.5t-73.5 -234.5z" glyph-name="acircumflex.ss01" horiz-adv-x="1247"/><glyph d="M418 -20q-158 0 -265.5 106.5t-107.5 319.5q0 281 154.5 480t390.5 199q117 0 189.5 -48t88.5 -115h2l21 143h336l-168 -1065h-336l20 143q-31 -66 -121.5 -114.5t-203.5 -48.5zM303 1343.5q0 73.5 54.5 126t127.5 52.5q72 0 126.5 -52.5t54.5 -126.5q0 -72 -54.5 -124 t-126.5 -52q-74 0 -128 51.5t-54 125zM367 473q0 -109 51 -162t139 -53q119 0 193.5 99.5t74.5 232.5q0 111 -53 164t-141 53q-117 0 -190.5 -99.5t-73.5 -234.5zM821 1343.5q0 73.5 53.5 126t127 52.5t127 -52.5t53.5 -126t-53.5 -125t-127 -51.5t-127 51.5t-53.5 125z" glyph-name="adieresis.ss01" horiz-adv-x="1247"/><glyph d="M418 -20q-158 0 -265.5 106.5t-107.5 319.5q0 281 154.5 480t390.5 199q117 0 189.5 -48t88.5 -115h2l21 143h336l-168 -1065h-336l20 143q-31 -66 -121.5 -114.5t-203.5 -48.5zM367 473q0 -109 51 -162t139 -53q119 0 193.5 99.5t74.5 232.5q0 111 -53 164t-141 53 q-117 0 -190.5 -99.5t-73.5 -234.5zM401 1477h291l172 -289h-291z" glyph-name="agrave.ss01" horiz-adv-x="1247"/><glyph d="M418 -20q-158 0 -265.5 106.5t-107.5 319.5q0 281 154.5 480t390.5 199q117 0 189.5 -48t88.5 -115h2l21 143h336l-168 -1065h-336l20 143q-31 -66 -121.5 -114.5t-203.5 -48.5zM367 473q0 -109 51 -162t139 -53q119 0 193.5 99.5t74.5 232.5q0 111 -53 164t-141 53 q-117 0 -190.5 -99.5t-73.5 -234.5zM391 1286l31 191h690l-31 -191h-690z" glyph-name="amacron.ss01" horiz-adv-x="1247"/><glyph d="M418 -20q-158 0 -265.5 106.5t-107.5 319.5q0 281 154.5 480t390.5 199q117 0 189.5 -48t88.5 -115h2l21 143h336l-168 -1065q-127 0 -200 -44t-73 -112q0 -47 39 -62t95 7l-31 -184q-33 -18 -90.5 -22.5t-117.5 8t-104.5 59.5t-44.5 121q0 84 54.5 152.5t140.5 109.5 l16 110q-31 -66 -121.5 -114.5t-203.5 -48.5zM367 473q0 -109 51 -162t139 -53q119 0 193.5 99.5t74.5 232.5q0 111 -53 164t-141 53q-117 0 -190.5 -99.5t-73.5 -234.5z" glyph-name="aogonek.ss01" horiz-adv-x="1247"/><glyph d="M418 -20q-158 0 -265.5 106.5t-107.5 319.5q0 281 154.5 480t390.5 199q117 0 189.5 -48t88.5 -115h2l21 143h336l-168 -1065h-336l20 143q-31 -66 -121.5 -114.5t-203.5 -48.5zM367 473q0 -109 51 -162t139 -53q119 0 193.5 99.5t74.5 232.5q0 111 -53 164t-141 53 q-117 0 -190.5 -99.5t-73.5 -234.5zM524 1350q0 90 63.5 151.5t158 61.5t157 -61.5t62.5 -151.5t-62.5 -151.5t-157 -61.5t-158 61.5t-63.5 151.5zM678 1349.5q0 -30.5 18.5 -49t48.5 -18.5q29 0 48.5 18.5t19.5 49t-19.5 49t-48 18.5t-48 -18.5t-19.5 -49z" glyph-name="aring.ss01" horiz-adv-x="1247"/><glyph d="M418 -20q-158 0 -265.5 106.5t-107.5 319.5q0 281 154.5 480t390.5 199q117 0 189.5 -48t88.5 -115h2l21 143h336l-168 -1065h-336l20 143q-31 -66 -121.5 -114.5t-203.5 -48.5zM367 473q0 -109 51 -162t139 -53q119 0 193.5 99.5t74.5 232.5q0 111 -53 164t-141 53 q-117 0 -190.5 -99.5t-73.5 -234.5zM379 1253q14 117 79.5 182.5t170.5 65.5q68 0 116 -26.5t76.5 -53t52.5 -26.5q66 0 74 51h195q-14 -117 -80 -183.5t-170 -66.5q-51 0 -92 17.5t-61.5 37t-45 37t-47.5 17.5q-66 0 -74 -52h-194z" glyph-name="atilde.ss01" horiz-adv-x="1247"/><glyph d="M20 0l166 1065h338l-168 -1065h-336zM211 1204l37 248h338l-39 -248h-336z" glyph-name="i.ss01" horiz-adv-x="542"/><glyph d="M467 0q-246 -29 -338 38.5t-61 278.5l182 1133h336l-183 -1135q-4 -37 17.5 -55t81.5 -16z" glyph-name="l.ss01" horiz-adv-x="612"/><glyph d="M418 -20q-158 0 -265.5 106.5t-107.5 319.5q0 281 154.5 480t390.5 199q117 0 189.5 -48t88.5 -115h2l21 143h336l-168 -1065h-336l20 143q-31 -66 -121.5 -114.5t-203.5 -48.5zM367 473q0 -109 51 -162t139 -53q119 0 193.5 99.5t74.5 232.5q0 111 -53 164t-141 53 q-117 0 -190.5 -99.5t-73.5 -234.5z" glyph-name="a.ss02" horiz-adv-x="1247"/><glyph d="M418 -20q-158 0 -265.5 106.5t-107.5 319.5q0 281 154.5 480t390.5 199q117 0 189.5 -48t88.5 -115h2l21 143h336l-168 -1065h-336l20 143q-31 -66 -121.5 -114.5t-203.5 -48.5zM367 473q0 -109 51 -162t139 -53q119 0 193.5 99.5t74.5 232.5q0 111 -53 164t-141 53 q-117 0 -190.5 -99.5t-73.5 -234.5zM563 1188l264 289h289l-264 -289h-289z" glyph-name="aacute.ss02" horiz-adv-x="1247"/><glyph d="M418 -20q-158 0 -265.5 106.5t-107.5 319.5q0 281 154.5 480t390.5 199q117 0 189.5 -48t88.5 -115h2l21 143h336l-168 -1065h-336l20 143q-31 -66 -121.5 -114.5t-203.5 -48.5zM367 473q0 -109 51 -162t139 -53q119 0 193.5 99.5t74.5 232.5q0 111 -53 164t-141 53 q-117 0 -190.5 -99.5t-73.5 -234.5zM403 1477h220q-8 -137 127 -138q133 0 161 138h219q-27 -158 -130 -243t-277 -85q-176 0 -261.5 86t-58.5 242z" glyph-name="abreve.ss02" horiz-adv-x="1247"/><glyph d="M418 -20q-158 0 -265.5 106.5t-107.5 319.5q0 281 154.5 480t390.5 199q117 0 189.5 -48t88.5 -115h2l21 143h336l-168 -1065h-336l20 143q-31 -66 -121.5 -114.5t-203.5 -48.5zM334 1479h311l88 -195l144 195h313l-232 -295h-487zM367 473q0 -109 51 -162t139 -53 q119 0 193.5 99.5t74.5 232.5q0 111 -53 164t-141 53q-117 0 -190.5 -99.5t-73.5 -234.5z" glyph-name="uni01CE.ss02" horiz-adv-x="1247"/><glyph d="M418 -20q-158 0 -265.5 106.5t-107.5 319.5q0 281 154.5 480t390.5 199q117 0 189.5 -48t88.5 -115h2l21 143h336l-168 -1065h-336l20 143q-31 -66 -121.5 -114.5t-203.5 -48.5zM293 1182l231 295h488l137 -295h-311l-88 194l-144 -194h-313zM367 473q0 -109 51 -162 t139 -53q119 0 193.5 99.5t74.5 232.5q0 111 -53 164t-141 53q-117 0 -190.5 -99.5t-73.5 -234.5z" glyph-name="acircumflex.ss02" horiz-adv-x="1247"/><glyph d="M418 -20q-158 0 -265.5 106.5t-107.5 319.5q0 281 154.5 480t390.5 199q117 0 189.5 -48t88.5 -115h2l21 143h336l-168 -1065h-336l20 143q-31 -66 -121.5 -114.5t-203.5 -48.5zM303 1343.5q0 73.5 54.5 126t127.5 52.5q72 0 126.5 -52.5t54.5 -126.5q0 -72 -54.5 -124 t-126.5 -52q-74 0 -128 51.5t-54 125zM367 473q0 -109 51 -162t139 -53q119 0 193.5 99.5t74.5 232.5q0 111 -53 164t-141 53q-117 0 -190.5 -99.5t-73.5 -234.5zM821 1343.5q0 73.5 53.5 126t127 52.5t127 -52.5t53.5 -126t-53.5 -125t-127 -51.5t-127 51.5t-53.5 125z" glyph-name="adieresis.ss02" horiz-adv-x="1247"/><glyph d="M418 -20q-158 0 -265.5 106.5t-107.5 319.5q0 281 154.5 480t390.5 199q117 0 189.5 -48t88.5 -115h2l21 143h336l-168 -1065h-336l20 143q-31 -66 -121.5 -114.5t-203.5 -48.5zM367 473q0 -109 51 -162t139 -53q119 0 193.5 99.5t74.5 232.5q0 111 -53 164t-141 53 q-117 0 -190.5 -99.5t-73.5 -234.5zM401 1477h291l172 -289h-291z" glyph-name="agrave.ss02" horiz-adv-x="1247"/><glyph d="M418 -20q-158 0 -265.5 106.5t-107.5 319.5q0 281 154.5 480t390.5 199q117 0 189.5 -48t88.5 -115h2l21 143h336l-168 -1065h-336l20 143q-31 -66 -121.5 -114.5t-203.5 -48.5zM367 473q0 -109 51 -162t139 -53q119 0 193.5 99.5t74.5 232.5q0 111 -53 164t-141 53 q-117 0 -190.5 -99.5t-73.5 -234.5zM391 1286l31 191h690l-31 -191h-690z" glyph-name="amacron.ss02" horiz-adv-x="1247"/><glyph d="M418 -20q-158 0 -265.5 106.5t-107.5 319.5q0 281 154.5 480t390.5 199q117 0 189.5 -48t88.5 -115h2l21 143h336l-168 -1065q-127 0 -200 -44t-73 -112q0 -47 39 -62t95 7l-31 -184q-33 -18 -90.5 -22.5t-117.5 8t-104.5 59.5t-44.5 121q0 84 54.5 152.5t140.5 109.5 l16 110q-31 -66 -121.5 -114.5t-203.5 -48.5zM367 473q0 -109 51 -162t139 -53q119 0 193.5 99.5t74.5 232.5q0 111 -53 164t-141 53q-117 0 -190.5 -99.5t-73.5 -234.5z" glyph-name="aogonek.ss02" horiz-adv-x="1247"/><glyph d="M418 -20q-158 0 -265.5 106.5t-107.5 319.5q0 281 154.5 480t390.5 199q117 0 189.5 -48t88.5 -115h2l21 143h336l-168 -1065h-336l20 143q-31 -66 -121.5 -114.5t-203.5 -48.5zM367 473q0 -109 51 -162t139 -53q119 0 193.5 99.5t74.5 232.5q0 111 -53 164t-141 53 q-117 0 -190.5 -99.5t-73.5 -234.5zM524 1350q0 90 63.5 151.5t158 61.5t157 -61.5t62.5 -151.5t-62.5 -151.5t-157 -61.5t-158 61.5t-63.5 151.5zM678 1349.5q0 -30.5 18.5 -49t48.5 -18.5q29 0 48.5 18.5t19.5 49t-19.5 49t-48 18.5t-48 -18.5t-19.5 -49z" glyph-name="aring.ss02" horiz-adv-x="1247"/><glyph d="M418 -20q-158 0 -265.5 106.5t-107.5 319.5q0 281 154.5 480t390.5 199q117 0 189.5 -48t88.5 -115h2l21 143h336l-168 -1065h-336l20 143q-31 -66 -121.5 -114.5t-203.5 -48.5zM367 473q0 -109 51 -162t139 -53q119 0 193.5 99.5t74.5 232.5q0 111 -53 164t-141 53 q-117 0 -190.5 -99.5t-73.5 -234.5zM379 1253q14 117 79.5 182.5t170.5 65.5q68 0 116 -26.5t76.5 -53t52.5 -26.5q66 0 74 51h195q-14 -117 -80 -183.5t-170 -66.5q-51 0 -92 17.5t-61.5 37t-45 37t-47.5 17.5q-66 0 -74 -52h-194z" glyph-name="atilde.ss02" horiz-adv-x="1247"/><glyph d="M315 -20q-131 0 -218 62t-87 200q0 276 420 336l203 30q68 8 85 21.5t23 68.5l2 35q6 63 -30.5 85t-94.5 22q-141 0 -159 -131v-7l-318 -4l9 47q61 340 522 340q246 0 343 -93t64 -283l-67 -416q-10 -31 0 -46.5t20 -19.5t37 -6l-29 -194q-43 -35 -135 -35 q-213 0 -192 194l-2 9h-15q-12 -66 -118.5 -140.5t-262.5 -74.5zM354 307q0 -86 123 -86q88 0 145.5 47t65.5 105l17 92q-10 -8 -107 -29l-82 -14q-162 -25 -162 -115z" glyph-name="a.ss03" horiz-adv-x="1153"/><glyph d="M467 0q-246 -29 -338 38.5t-61 278.5l182 1133h336l-183 -1135q-4 -37 17.5 -55t81.5 -16z" glyph-name="l.ss04" horiz-adv-x="612"/><glyph d="M76 807l41 258h155l9 51q55 350 421 350h172l-38 -254h-95q-115 0 -135 -131l-2 -16h420l43 278h336l-45 -278h209l-39 -258h-211l-68 -422q-27 -133 97 -133h100l-43 -260q-61 -6 -180 -6q-176 0 -260 86t-54 266l74 469h-420l-127 -807h-336l131 807h-155z" glyph-name="f_t.dlig" horiz-adv-x="1531"/><glyph d="M20 0l166 1065h338l-49 -313h8q55 160 158.5 236.5t314.5 76.5h35l43 278h336l-45 -278h209l-39 -258h-211l-67 -422q-27 -133 96 -133h100l-41 -260q-63 -6 -182 -6q-176 0 -260 86t-53 266l73 469h-43q-215 0 -328.5 -72.5t-148.5 -259.5l-74 -475h-336z" glyph-name="r_t.dlig" horiz-adv-x="1499"/><glyph d="M206.5 -4q-100.5 0 -147.5 68.5t-30 185.5l4 31q16 117 86.5 187.5t171 70.5t152 -71t34.5 -187l-4 -31q-16 -115 -91 -184.5t-175.5 -69.5zM158 250q-14 -133 67 -133q45 0 78 38t41 95l4 31q6 61 -12.5 99t-63.5 38t-74.5 -39t-35.5 -98z" glyph-name="zero.dnom" horiz-adv-x="589"/><glyph d="M176 375q-45 -55 -125 -35l19 121q37 -6 75.5 18.5t55.5 55.5h121l-84 -535h-121z" glyph-name="one.dnom" horiz-adv-x="413"/><glyph d="M2 8q14 94 51 154.5t135 111.5q8 4 28 13.5t29 13.5t22.5 12.5t20.5 16.5t13 19t8 26q4 25 -15.5 39t-39.5 14q-23 0 -46.5 -16.5t-25.5 -49.5l-2 -16h-127l2 16q10 80 68.5 130.5t150.5 50.5q94 0 135.5 -49.5t28.5 -122.5q-4 -25 -15 -47.5t-22.5 -37t-37 -32.5 t-38 -26.5t-47 -28t-45.5 -25.5q-55 -31 -69 -47l-2 -16h231l-16 -111h-377z" glyph-name="two.dnom" horiz-adv-x="552"/><glyph d="M205 -8q-98 0 -145.5 48t-34.5 126h116q-2 -35 18.5 -53.5t55.5 -18.5q88 0 94 72q4 27 -17.5 48.5t-68.5 21.5h-22l14 88h23q72 0 86 53q6 27 -10.5 45t-47.5 18q-25 0 -47 -16t-26 -49h-117q10 78 67.5 123t139.5 45q84 0 126 -40t33 -104q-6 -47 -37.5 -76.5 t-68.5 -37.5q39 0 69.5 -33t20.5 -98q-12 -74 -70.5 -118t-150.5 -44z" glyph-name="three.dnom" horiz-adv-x="569"/><glyph d="M236 0l20 135h-238l17 98l284 302h121l-47 -302h62l-17 -98h-61l-21 -135h-120zM139 233h133l27 166z" glyph-name="four.dnom" horiz-adv-x="583"/><glyph d="M182 -10q-100 0 -145 48t-35 126h119q-4 -33 17.5 -50.5t47.5 -17.5q37 0 69 22.5t38 76.5q6 45 -17.5 65.5t-54.5 20.5q-51 0 -74 -33h-116l86 287h299l-17 -113h-211l-26 -88q31 35 114 35q74 0 115 -51.5t27 -139.5q-14 -92 -78 -140t-158 -48z" glyph-name="five.dnom" horiz-adv-x="536"/><glyph d="M219 -10q-100 0 -149.5 72.5t-28.5 203.5q18 123 88 199t180 76q84 0 127 -46t33 -102h-115q0 16 -15 28.5t-46 12.5q-57 0 -89 -43t-34 -92q12 20 54 39.5t89 19.5q72 0 117 -46t29 -132q-16 -94 -87 -142t-153 -48zM160 190q-4 -41 19.5 -64.5t58.5 -23.5 q33 0 59.5 22.5t28.5 59.5q6 41 -15.5 62.5t-54.5 21.5q-86 0 -96 -78z" glyph-name="six.dnom" horiz-adv-x="595"/><glyph d="M14 0l258 422h-249l18 113h375l-19 -113l-252 -422h-131z" glyph-name="seven.dnom" horiz-adv-x="477"/><glyph d="M172 -4q-80 0 -131 39t-51 108q0 94 108 150q-39 33 -39 90q0 63 53.5 109.5t133.5 46.5q68 0 106.5 -35t38.5 -88q0 -84 -76 -123q68 -39 68 -123q0 -76 -60.5 -125t-150.5 -49zM106 158q0 -68 74 -68q39 0 61.5 22.5t22.5 61.5q0 31 -20.5 48.5t-50.5 17.5 q-37 0 -62 -25.5t-25 -56.5zM166 383q0 -43 51 -43q25 0 44.5 18.5t19.5 44.5q0 45 -50 46q-29 0 -47 -17.5t-18 -48.5z" glyph-name="eight.dnom" horiz-adv-x="491"/><glyph d="M203 -10q-84 0 -126 46t-32 101h115q-2 -16 13 -28.5t46 -12.5q57 0 89 43t36 92q-12 -23 -55 -41t-90 -18q-72 0 -117 46t-29 132q16 94 87 142.5t153 48.5q100 0 150.5 -73t27.5 -204q-18 -123 -87.5 -198.5t-180.5 -75.5zM186 346q-4 -41 16.5 -62.5t55.5 -21.5 q84 0 94 78q6 41 -18.5 64.5t-59.5 23.5q-33 0 -59.5 -23.5t-28.5 -58.5z" glyph-name="nine.dnom" horiz-adv-x="595"/><glyph d="M350.5 897q-100.5 0 -147.5 68.5t-31 185.5l4 31q16 117 87 187.5t171.5 70.5t151.5 -71t35 -187l-5 -31q-16 -115 -90.5 -184.5t-175 -69.5zM301 1151q-14 -133 68 -133q45 0 77.5 38t40.5 95l5 31q6 61 -12.5 99t-63.5 38t-75 -39t-36 -98z" glyph-name="zero.numr" horiz-adv-x="589"/><glyph d="M319 1274q-45 -55 -124 -35l18 121q37 -6 76 18.5t55 55.5h121l-84 -535h-121z" glyph-name="one.numr" horiz-adv-x="413"/><glyph d="M145 909q14 94 51 154.5t136 112.5q8 4 27.5 13t28.5 13t22.5 12.5t20.5 16.5t13.5 19.5t8.5 25.5q4 25 -15.5 39t-40.5 14q-23 0 -46 -16.5t-25 -48.5l-2 -17h-127l2 17q10 80 68.5 130t150.5 50q94 0 135 -49t29 -123q-4 -25 -15.5 -47.5t-23 -36.5t-37 -32.5 t-37.5 -27t-47 -28t-45 -25.5q-55 -31 -70 -47l-2 -16h232l-17 -111h-377z" glyph-name="two.numr" horiz-adv-x="552"/><glyph d="M348 893q-98 0 -145 48t-35 126h117q-2 -35 18.5 -53.5t54.5 -18.5q88 0 95 72q4 27 -17.5 48.5t-68.5 21.5h-23l14 88h23q72 0 86 53q6 27 -10.5 45t-46.5 18q-25 0 -47.5 -16t-26.5 -49h-117q10 78 67.5 123t139.5 45q84 0 126 -40t34 -104q-6 -47 -38 -76.5t-69 -37.5 q39 0 70 -33t20 -98q-12 -74 -70.5 -118t-150.5 -44z" glyph-name="three.numr" horiz-adv-x="569"/><glyph d="M379 901l20 135h-237l16 99l285 301h121l-47 -301h61l-16 -99h-62l-20 -135h-121zM283 1135h133l26 165z" glyph-name="four.numr" horiz-adv-x="583"/><glyph d="M326 891q-100 0 -145.5 48t-35.5 126h119q-4 -33 17.5 -50.5t48.5 -17.5q37 0 68.5 22.5t37.5 76.5q6 45 -17.5 65.5t-53.5 20.5q-51 0 -74 -33h-117l86 287h299l-16 -113h-211l-27 -88q31 35 115 35q74 0 114.5 -51.5t26.5 -139.5q-14 -92 -77.5 -140t-157.5 -48z" glyph-name="five.numr" horiz-adv-x="536"/><glyph d="M362 889q-100 0 -149 72.5t-29 203.5q18 123 88 199t181 76q84 0 127 -46t32 -102h-114q0 16 -15.5 28.5t-46.5 12.5q-57 0 -89 -43t-34 -92q12 20 54.5 39.5t89.5 19.5q72 0 116.5 -46t28.5 -132q-16 -94 -87 -142t-153 -48zM303 1090q-4 -41 19.5 -65t58.5 -24 q33 0 59.5 23t28.5 59q6 41 -15.5 62.5t-54.5 21.5q-86 1 -96 -77z" glyph-name="six.numr" horiz-adv-x="595"/><glyph d="M158 901l258 422h-250l18 113h375l-18 -113l-252 -422h-131z" glyph-name="seven.numr" horiz-adv-x="477"/><glyph d="M315 897q-80 0 -131 39t-51 108q0 94 109 150q-39 33 -39 90q0 63 53 109.5t133 46.5q68 0 107 -35t39 -88q0 -84 -76 -123q68 -39 67 -123q0 -76 -60.5 -125t-150.5 -49zM250 1059q0 -68 74 -68q39 0 61.5 22.5t22.5 61.5q0 31 -20.5 48.5t-51.5 17.5q-37 0 -61.5 -25.5 t-24.5 -56.5zM309 1284q0 -43 51 -43q25 0 44.5 18.5t19.5 45.5q0 45 -49 45q-29 0 -47.5 -17.5t-18.5 -48.5z" glyph-name="eight.numr" horiz-adv-x="491"/><glyph d="M346 891q-84 0 -126 46t-32 101h115q-2 -16 13.5 -28.5t45.5 -12.5q57 0 89 43t36 93q-12 -23 -55 -41.5t-90 -18.5q-72 0 -117 46t-28 132q16 94 86.5 142.5t152.5 48.5q100 0 150.5 -73t27.5 -204q-18 -123 -87.5 -198.5t-180.5 -75.5zM330 1247q-4 -41 16.5 -62.5 t54.5 -21.5q84 0 95 78q6 41 -18.5 64.5t-59.5 23.5q-33 0 -59.5 -23.5t-28.5 -58.5z" glyph-name="nine.numr" horiz-adv-x="595"/><glyph d="M18 0l62 375h358l-61 -375h-359z" glyph-name="period.aalt" horiz-adv-x="563"/><glyph d="M469 1149q-176 0 -261 86t-58 242h219q-8 -137 127 -138q133 0 161 138h220q-27 -158 -130.5 -243t-277.5 -85zM377 1538l264 289h289l-264 -289h-289z" glyph-name="uni0306_acutecomb.ccmp" horiz-adv-x="0"/><glyph d="M469 1149q-176 0 -261 86t-58 242h219q-8 -137 127 -138q133 0 161 138h220q-27 -158 -130.5 -243t-277.5 -85zM203 1827h291l172 -289h-291z" glyph-name="uni0306_gravecomb.ccmp" horiz-adv-x="0"/><glyph d="M469 1149q-176 0 -261 86t-58 242h219q-8 -137 127 -138q133 0 161 138h220q-27 -158 -130.5 -243t-277.5 -85zM217 1632q0 115 64.5 168t154.5 53q96 0 162 -54t66 -161q0 -88 -54.5 -140t-144.5 -64l-59 133q76 2 75 61q0 25 -14 38t-35 13q-43 0 -49 -47h-166z" glyph-name="uni0306_hookabovecomb.ccmp" horiz-adv-x="0"/><glyph d="M469 1149q-176 0 -261 86t-58 242h219q-8 -137 127 -138q133 0 161 138h220q-27 -158 -130.5 -243t-277.5 -85zM166 1604q14 117 79.5 182t170.5 65q68 0 116 -26.5t76.5 -53t53.5 -26.5q66 0 73 51h195q-14 -117 -80 -183.5t-170 -66.5q-66 0 -112 28t-76.5 54.5 t-57.5 26.5q-66 0 -74 -51h-194z" glyph-name="uni0306_tildecomb.ccmp" horiz-adv-x="0"/><glyph d="M104 1182l232 295h487l138 -295h-312l-88 194l-143 -194h-314zM915 1393l265 288h288l-264 -288h-289z" glyph-name="uni0302_acutecomb.ccmp" horiz-adv-x="0"/><glyph d="M932 1395l-127 288h289l127 -288h-289zM104 1182l232 295h487l138 -295h-312l-88 194l-143 -194h-314z" glyph-name="uni0302_gravecomb.ccmp" horiz-adv-x="0"/><glyph d="M104 1182l232 295h487l138 -295h-312l-88 194l-143 -194h-314zM719 1608q0 115 64.5 168t154.5 53q96 0 161.5 -54.5t65.5 -160.5q0 -88 -54 -140.5t-144 -64.5l-60 133q76 2 76 62q0 25 -14.5 38t-34.5 13q-43 0 -49 -47h-166z" glyph-name="uni0302_hookabovecomb.ccmp" horiz-adv-x="0"/><glyph d="M104 1182l232 295h487l138 -295h-312l-88 194l-143 -194h-314zM225 1593q14 117 80 182.5t170 65.5q68 0 116 -26.5t76.5 -53t53.5 -26.5q66 0 74 51h194q-14 -117 -79.5 -183.5t-170.5 -66.5q-51 0 -92 17.5t-61.5 37t-45 37t-46.5 17.5q-66 0 -74 -52h-195z" glyph-name="uni0302_tildecomb.ccmp" horiz-adv-x="0"/><glyph d="M469 1149q-176 0 -261 86t-58 242h219q-8 -137 127 -138q133 0 161 138h220q-27 -158 -130.5 -243t-277.5 -85z" glyph-name="glyph657" horiz-adv-x="0"/><glyph d="M123 805l102 629h322l-103 -629h-321z" glyph-name="glyph658" horiz-adv-x="0"/><glyph d="M-53 0l739 1434h447l282 -1434h-356l-43 244h-582l-119 -244h-368zM559 498h412l-105 587h-18zM774 1556l264 289h289l-264 -289h-289z" glyph-name="glyph659" horiz-adv-x="1529"/><glyph d="M602 567l43 281h379q-10 143 -77.5 225t-198.5 82q-211 0 -308 -242h-329q59 272 244.5 405.5t435.5 133.5q281 0 433 -159.5t152 -461.5q0 -362 -210 -606.5t-566 -244.5q-260 0 -413.5 136t-135.5 400h330q10 -127 79.5 -183.5t172.5 -56.5q135 0 224 80t132 211h-387z M672 1556l264 289h289l-264 -289h-289z" glyph-name="glyph660" horiz-adv-x="1415"/><glyph d="M793 0l73 457h-180l-348 -457h-371l385 500q-229 88 -229 370q0 256 178 410t469 154h594l-227 -1434h-344zM483 930q0 -174 191 -174h239l60 379h-244q-117 0 -181.5 -55.5t-64.5 -149.5zM670 1556l264 289h289l-265 -289h-288z" glyph-name="glyph661" horiz-adv-x="1325"/><glyph d="M20 0l228 1434h997l-49 -299h-653l-47 -279h591l-40 -266h-592l-41 -291h673l-51 -299h-1016zM639 1556l264 289h289l-264 -289h-289z" glyph-name="glyph662" horiz-adv-x="1173"/><glyph d="M20 0l228 1434h342l-139 -879h8l667 879h357l-230 -1434h-342l136 856h-9l-651 -856h-367zM727 1556l264 289h289l-264 -289h-289z" glyph-name="glyph663" horiz-adv-x="1441"/><glyph d="M20 0l228 1434h342l-90 -572h184q74 260 274.5 425t477.5 165q283 0 439.5 -165t156.5 -449q0 -356 -220.5 -607t-566.5 -251q-274 0 -433 160.5t-165 437.5h-192l-93 -578h-342zM903 1556l264 289h289l-264 -289h-289zM999 610q0 -334 271 -334q131 0 226 85t138 207 t43 259q0 328 -266 328q-193 0 -302.5 -165t-109.5 -380z" glyph-name="glyph664" horiz-adv-x="2068"/><glyph d="M692 -20q-281 0 -439.5 166.5t-158.5 453.5q0 354 221.5 603t567.5 249q283 0 439.5 -165t156.5 -449q0 -356 -220.5 -607t-566.5 -251zM446 610q0 -334 271 -334q131 0 226 85t138 207t43 259q0 328 -266 328q-193 0 -302.5 -165t-109.5 -380zM764 1556l264 289h289 l-264 -289h-289z" glyph-name="glyph665" horiz-adv-x="1515"/><glyph d="M141 272q94 -10 153.5 5.5t79 36t34.5 53.5q39 68 2 221l-224 846h387l109 -570l295 570h391l-616 -1041q-162 -268 -297.5 -360t-362.5 -70zM639 1556l264 289h289l-264 -289h-289z" glyph-name="glyph666" horiz-adv-x="1265"/><glyph d="M20 0l228 1434h350l-74 -467h240q496 0 496 -412q0 -256 -176.5 -405.5t-471.5 -149.5h-592zM418 297h239q106 0 166 58.5t60 156.5q0 158 -170 158h-238zM793 1556l264 289h289l-265 -289h-288zM1321 0l227 1434h342l-227 -1434h-342z" glyph-name="glyph667" horiz-adv-x="1851"/><glyph d="M303 -20q-127 0 -210 60t-83 200q0 295 436 364l170 29q70 10 98.5 27.5t37.5 50.5l4 20q12 53 -19.5 83t-103.5 30q-150 0 -176 -121l-4 -21l-316 -4l8 56q53 332 527 331q244 0 343 -86t70 -258l-118 -741h-320l31 186h-14q-107 -206 -361 -206zM354 307q0 -90 117 -90 q84 0 148.5 45t74.5 109l21 106q-12 -12 -30.5 -19t-33 -11.5t-38 -8.5t-33.5 -6l-115 -20q-111 -21 -111 -105zM530 1188l265 289h288l-264 -289h-289z" glyph-name="glyph668" horiz-adv-x="1155"/></font>
</defs>
</svg>
