<?xml version="1.0" encoding="UTF-8"?>
<svg width="49px" height="49px" viewBox="0 0 49 49" version="1.1" xmlns="http://www.w3.org/2000/svg" xmlns:xlink="http://www.w3.org/1999/xlink">
    <!-- Generator: Sketch 53.2 (72643) - https://sketchapp.com -->
    <title>digitize-animation-2</title>
    <desc>Created with Sketch.</desc>
    <g id="Features" stroke="none" stroke-width="1" fill="none" fill-rule="evenodd">
        <g id="Desktop-HD---Solutions---Digitization" transform="translate(-1010.000000, -1352.000000)" fill="#0096DC">
            <path d="M1055.49959,1391.37509 C1055.49959,1395.7168 1051.96638,1399.25002 1047.62466,1399.25002 C1043.28295,1399.25002 1039.74973,1395.7168 1039.74973,1391.37509 C1039.74973,1387.03337 1043.28295,1383.50016 1047.62466,1383.50016 C1051.96638,1383.50016 1055.49959,1387.03337 1055.49959,1391.37509 L1055.49959,1391.37509 Z M1047.62466,1354.11267 L1056.88733,1363.37534 L1047.62466,1372.638 L1038.362,1363.37534 L1047.62466,1354.11267 Z M1019.62491,1371.25027 C1015.2832,1371.25027 1011.74998,1367.71705 1011.74998,1363.37534 C1011.74998,1359.03362 1015.2832,1355.50041 1019.62491,1355.50041 C1023.96663,1355.50041 1027.49984,1359.03362 1027.49984,1363.37534 C1027.49984,1367.71705 1023.96663,1371.25027 1019.62491,1371.25027 L1019.62491,1371.25027 Z M1011.74998,1399.25002 L1027.49984,1399.25002 L1027.49984,1383.50016 L1011.74998,1383.50016 L1011.74998,1399.25002 Z M1058.74406,1363.99483 C1059.08531,1363.65183 1059.08531,1363.09884 1058.74406,1362.75584 L1048.24416,1352.25594 C1047.90116,1351.91469 1047.34817,1351.91469 1047.00517,1352.25594 L1036.76251,1362.50034 L1029.20608,1362.50034 C1028.76158,1357.60214 1024.63512,1353.75042 1019.62491,1353.75042 C1014.31896,1353.75042 1010,1358.06938 1010,1363.37534 C1010,1368.38554 1013.85172,1372.512 1018.74992,1372.9565 L1018.74992,1381.75017 L1010.87499,1381.75017 C1010.392,1381.75017 1010,1382.14217 1010,1382.62516 L1010,1400.12501 C1010,1400.608 1010.392,1401 1010.87499,1401 L1028.37484,1401 C1028.85783,1401 1029.24983,1400.608 1029.24983,1400.12501 L1029.24983,1382.62516 C1029.24983,1382.14217 1028.85783,1381.75017 1028.37484,1381.75017 L1020.49991,1381.75017 L1020.49991,1372.9565 C1025.10937,1372.5365 1028.78783,1368.85979 1029.20608,1364.25033 L1036.76251,1364.25033 L1046.74967,1374.23749 L1046.74967,1381.79392 C1041.85147,1382.23842 1037.99975,1386.36488 1037.99975,1391.37509 C1037.99975,1396.68104 1042.31871,1401 1047.62466,1401 C1052.93062,1401 1057.24958,1396.68104 1057.24958,1391.37509 C1057.24958,1386.36488 1053.39786,1382.23842 1048.49966,1381.79392 L1048.49966,1374.23749 L1058.74406,1363.99483 Z" id="digitize-animation-2"></path>
        </g>
    </g>
</svg>