<?xml version="1.0" encoding="UTF-8"?>
<svg width="45px" height="56px" viewBox="0 0 45 56" version="1.1" xmlns="http://www.w3.org/2000/svg" xmlns:xlink="http://www.w3.org/1999/xlink">
    <!-- Generator: Sketch 53.2 (72643) - https://sketchapp.com -->
    <title>digitize-animation-1</title>
    <desc>Created with Sketch.</desc>
    <g id="Features" stroke="none" stroke-width="1" fill="none" fill-rule="evenodd">
        <g id="Desktop-HD---Solutions---Digitization" transform="translate(-1010.000000, -1203.000000)" fill="#0096DC">
            <path d="M1052.95455,1255.15909 L1052.95455,1206.06818 C1052.95455,1205.50568 1052.49432,1205.04545 1051.93182,1205.04545 L1013.06818,1205.04545 C1012.50568,1205.04545 1012.04545,1205.50568 1012.04545,1206.06818 L1012.04545,1255.15909 C1012.04545,1255.72159 1012.50568,1256.18182 1013.06818,1256.18182 L1051.93182,1256.18182 C1052.49432,1256.18182 1052.95455,1255.72159 1052.95455,1255.15909 Z M1051.93182,1203 C1053.62341,1203 1055,1204.37659 1055,1206.06818 L1055,1255.15909 C1055,1256.85068 1053.62341,1258.22727 1051.93182,1258.22727 L1013.06818,1258.22727 C1011.37659,1258.22727 1010,1256.85068 1010,1255.15909 L1010,1206.06818 C1010,1204.37659 1011.37659,1203 1013.06818,1203 L1051.93182,1203 Z M1049.90641,1207.09091 C1050.47095,1207.09091 1050.92914,1207.54909 1050.92914,1208.11364 C1050.92914,1208.67818 1050.47095,1209.13636 1049.90641,1209.13636 C1049.34186,1209.13636 1048.87345,1208.67818 1048.87345,1208.11364 C1048.87345,1207.54909 1049.32141,1207.09091 1049.88595,1207.09091 L1049.90641,1207.09091 Z M1045.8155,1207.09091 C1046.38005,1207.09091 1046.83823,1207.54909 1046.83823,1208.11364 C1046.83823,1208.67818 1046.38005,1209.13636 1045.8155,1209.13636 C1045.25095,1209.13636 1044.78255,1208.67818 1044.78255,1208.11364 C1044.78255,1207.54909 1045.2305,1207.09091 1045.79505,1207.09091 L1045.8155,1207.09091 Z M1041.72459,1209.13636 C1041.16005,1209.13636 1040.69164,1208.67818 1040.69164,1208.11364 C1040.69164,1207.54909 1041.13959,1207.09091 1041.70414,1207.09091 L1041.72459,1207.09091 C1042.28914,1207.09091 1042.74732,1207.54909 1042.74732,1208.11364 C1042.74732,1208.67818 1042.28914,1209.13636 1041.72459,1209.13636 Z M1045.79545,1217.31818 C1046.36,1217.31818 1046.81818,1217.77636 1046.81818,1218.34091 C1046.81818,1218.90545 1046.36,1219.36364 1045.79545,1219.36364 L1018.18182,1219.36364 C1017.61727,1219.36364 1017.15909,1218.90545 1017.15909,1218.34091 C1017.15909,1217.77636 1017.61727,1217.31818 1018.18182,1217.31818 L1045.79545,1217.31818 Z M1018.18182,1225.5 C1017.61727,1225.5 1017.15909,1225.04182 1017.15909,1224.47727 C1017.15909,1223.91273 1017.61727,1223.45455 1018.18182,1223.45455 L1036.59091,1223.45455 C1037.15545,1223.45455 1037.61364,1223.91273 1037.61364,1224.47727 C1037.61364,1225.04182 1037.15545,1225.5 1036.59091,1225.5 L1018.18182,1225.5 Z M1043.49432,1229.59091 C1044.05886,1229.59091 1044.51705,1230.04909 1044.51705,1230.61364 C1044.51705,1231.17818 1044.05886,1231.63636 1043.49432,1231.63636 L1018.18182,1231.63636 C1017.61727,1231.63636 1017.15909,1231.17818 1017.15909,1230.61364 C1017.15909,1230.04909 1017.61727,1229.59091 1018.18182,1229.59091 L1043.49432,1229.59091 Z M1032.5,1236.75 C1033.06455,1236.75 1033.52273,1237.20818 1033.52273,1237.77273 C1033.52273,1238.33727 1033.06455,1238.79545 1032.5,1238.79545 L1018.18182,1238.79545 C1017.61727,1238.79545 1017.15909,1238.33727 1017.15909,1237.77273 C1017.15909,1237.20818 1017.61727,1236.75 1018.18182,1236.75 L1032.5,1236.75 Z M1018.18182,1244.93182 C1017.61727,1244.93182 1017.15909,1244.47364 1017.15909,1243.90909 C1017.15909,1243.34455 1017.61727,1242.88636 1018.18182,1242.88636 L1027.72795,1242.88636 C1028.2925,1242.88636 1028.75068,1243.34455 1028.75068,1243.90909 C1028.75068,1244.47364 1028.2925,1244.93182 1027.72795,1244.93182 L1018.18182,1244.93182 Z M1031.3075,1249.02273 C1031.87205,1249.02273 1032.33023,1249.48091 1032.33023,1250.04545 C1032.33023,1250.61 1031.87205,1251.06818 1031.3075,1251.06818 L1018.18182,1251.06818 C1017.61727,1251.06818 1017.15909,1250.61 1017.15909,1250.04545 C1017.15909,1249.48091 1017.61727,1249.02273 1018.18182,1249.02273 L1031.3075,1249.02273 Z" id="digitize-animation-1"></path>
        </g>
    </g>
</svg>