<?xml version="1.0" encoding="UTF-8"?>
<svg width="60px" height="53px" viewBox="0 0 60 53" version="1.1" xmlns="http://www.w3.org/2000/svg" xmlns:xlink="http://www.w3.org/1999/xlink">
    <!-- Generator: Sketch 53.2 (72643) - https://sketchapp.com -->
    <title>digitize-animation-3</title>
    <desc>Created with Sketch.</desc>
    <g id="Features" stroke="none" stroke-width="1" fill="none" fill-rule="evenodd">
        <g id="Desktop-HD---Solutions---Digitization" transform="translate(-1010.000000, -1517.000000)" fill="#0096DC">
            <path d="M1051.56277,1557.67954 C1055.11326,1557.67954 1058.00176,1554.79104 1058.00176,1551.24056 C1058.00176,1547.69008 1055.11326,1544.80158 1051.56277,1544.80158 C1048.01229,1544.80158 1045.12379,1547.69008 1045.12379,1551.24056 C1045.12379,1554.79104 1048.01229,1557.67954 1051.56277,1557.67954 Z M1051.56277,1543.04565 C1056.08077,1543.04565 1059.75768,1546.72256 1059.75768,1551.24056 C1059.75768,1555.75856 1056.08077,1559.43547 1051.56277,1559.43547 C1047.04478,1559.43547 1043.36787,1555.75856 1043.36787,1551.24056 C1043.36787,1546.72256 1047.04478,1543.04565 1051.56277,1543.04565 Z M1068.24407,1553.87445 L1068.24407,1548.60667 L1066.35821,1548.60667 C1065.95083,1548.60667 1065.59614,1548.32748 1065.50307,1547.93064 C1065.15189,1546.44864 1064.56541,1545.03336 1063.75768,1543.72695 C1063.54522,1543.37928 1063.59789,1542.93327 1063.88586,1542.64355 L1065.22037,1541.30729 L1061.49605,1537.58297 L1060.15979,1538.91747 C1059.87006,1539.2072 1059.4223,1539.25812 1059.07638,1539.04565 C1057.76997,1538.23793 1056.3547,1537.65145 1054.8727,1537.30026 C1054.47586,1537.2072 1054.19666,1536.8525 1054.19666,1536.44513 L1054.19666,1534.55926 L1048.92888,1534.55926 L1048.92888,1536.44513 C1048.92888,1536.8525 1048.64969,1537.2072 1048.25285,1537.30026 C1046.77085,1537.65145 1045.35558,1538.23793 1044.04917,1539.04565 C1043.70325,1539.25812 1043.25724,1539.2072 1042.96576,1538.91747 L1041.6295,1537.58297 L1037.90518,1541.30729 L1039.23968,1542.64355 C1039.52766,1542.93327 1039.58033,1543.37928 1039.36787,1543.72695 C1038.56014,1545.03336 1037.97366,1546.44864 1037.62248,1547.93064 C1037.52941,1548.32748 1037.17471,1548.60667 1036.76734,1548.60667 L1034.88147,1548.60667 L1034.88147,1553.87445 L1036.76734,1553.87445 C1037.17471,1553.87445 1037.52941,1554.15364 1037.62248,1554.55048 C1037.97366,1556.03248 1038.56014,1557.44776 1039.36787,1558.75417 C1039.58033,1559.10184 1039.52766,1559.54785 1039.23968,1559.83758 L1037.90518,1561.17384 L1041.6295,1564.89816 L1042.96576,1563.56365 C1043.25724,1563.27568 1043.70325,1563.22476 1044.04917,1563.43547 C1045.35558,1564.2432 1046.77085,1564.82968 1048.25285,1565.18086 C1048.64969,1565.27392 1048.92888,1565.62862 1048.92888,1566.036 L1048.92888,1567.92186 L1054.19666,1567.92186 L1054.19666,1566.036 C1054.19666,1565.62862 1054.47586,1565.27392 1054.8727,1565.18086 C1056.3547,1564.82968 1057.76997,1564.2432 1059.07638,1563.43547 C1059.4223,1563.22476 1059.87006,1563.27568 1060.15979,1563.56365 L1061.49605,1564.89816 L1065.22037,1561.17384 L1063.88586,1559.83758 C1063.59789,1559.54785 1063.54522,1559.10184 1063.75768,1558.75417 C1064.56541,1557.44776 1065.15189,1556.03248 1065.50307,1554.55048 C1065.59614,1554.15364 1065.95083,1553.87445 1066.35821,1553.87445 L1068.24407,1553.87445 Z M1036.05795,1566.16594 C1037.21159,1566.16594 1038.19666,1565.37401 1038.53907,1564.29236 L1036.04214,1561.79543 C1035.69974,1561.45127 1035.69974,1560.8964 1036.04214,1560.55399 L1037.51888,1559.0755 C1037.08516,1558.30114 1036.74451,1557.48639 1036.44601,1556.65408 L1011.90869,1556.65408 C1011.85601,1556.65408 1011.80685,1556.63126 1011.75593,1556.62248 L1011.75593,1563.53205 C1011.75593,1564.9842 1012.93766,1566.16594 1014.38982,1566.16594 L1036.05795,1566.16594 Z M1014.38982,1518.75593 C1012.93766,1518.75593 1011.75593,1519.93766 1011.75593,1521.38982 L1011.75593,1524.20105 C1011.80685,1524.19227 1011.85601,1524.16945 1011.90869,1524.16945 L1022.15101,1524.16945 C1022.63565,1524.16945 1023.02897,1524.56277 1023.02897,1525.04741 C1023.02897,1525.53205 1022.63565,1525.92537 1022.15101,1525.92537 L1011.90869,1525.92537 C1011.85601,1525.92537 1011.80685,1525.90255 1011.75593,1525.89377 L1011.75593,1554.92976 C1011.80685,1554.92098 1011.85601,1554.89816 1011.90869,1554.89816 L1033.1554,1554.89816 C1033.14662,1554.84899 1033.12555,1554.80334 1033.12555,1554.75241 L1033.12555,1547.72871 C1033.12555,1547.24407 1033.51888,1546.85075 1034.00351,1546.85075 L1036.08955,1546.85075 C1036.42845,1545.65145 1036.90781,1544.49781 1037.51888,1543.40562 L1036.04214,1541.92713 C1035.69974,1541.58472 1035.69974,1541.02985 1036.04214,1540.68569 L1038.69183,1538.036 L1038.69183,1525.89377 C1038.64091,1525.90255 1038.59175,1525.92537 1038.53907,1525.92537 L1034.44249,1525.92537 C1033.95786,1525.92537 1033.56453,1525.53205 1033.56453,1525.04741 C1033.56453,1524.56277 1033.95786,1524.16945 1034.44249,1524.16945 L1038.53907,1524.16945 C1038.59175,1524.16945 1038.64091,1524.19227 1038.69183,1524.20105 L1038.69183,1521.38982 C1038.69183,1519.93766 1037.5101,1518.75593 1036.05795,1518.75593 L1014.38982,1518.75593 Z M1069.12204,1546.85075 C1069.60667,1546.85075 1070,1547.24407 1070,1547.72871 L1070,1554.75241 C1070,1555.23705 1069.60667,1555.63038 1069.12204,1555.63038 L1067.03775,1555.63038 C1066.6971,1556.82968 1066.21773,1557.98332 1065.60667,1559.0755 L1067.08341,1560.55399 C1067.42581,1560.8964 1067.42581,1561.45127 1067.08341,1561.79543 L1062.11765,1566.76119 C1061.77349,1567.1036 1061.21861,1567.1036 1060.87621,1566.76119 L1059.39772,1565.28446 C1058.30553,1565.89552 1057.15189,1566.37489 1055.95259,1566.71378 L1055.95259,1568.79982 C1055.95259,1569.28446 1055.55926,1569.67779 1055.07463,1569.67779 L1048.05092,1569.67779 C1047.56629,1569.67779 1047.17296,1569.28446 1047.17296,1568.79982 L1047.17296,1566.71378 C1045.97366,1566.37489 1044.82002,1565.89552 1043.72783,1565.28446 L1042.24934,1566.76119 C1041.90694,1567.1036 1041.35206,1567.1036 1041.0079,1566.76119 L1039.89464,1565.64794 C1039.13433,1567.00702 1037.67515,1567.92186 1036.05795,1567.92186 L1014.38982,1567.92186 C1011.96839,1567.92186 1010,1565.95347 1010,1563.53205 L1010,1521.38982 C1010,1518.96839 1011.96839,1517 1014.38982,1517 L1036.05795,1517 C1038.47937,1517 1040.44776,1518.96839 1040.44776,1521.38982 L1040.44776,1536.28007 L1041.0079,1535.71993 C1041.35206,1535.37752 1041.90694,1535.37752 1042.24934,1535.71993 L1043.72783,1537.19666 C1044.82002,1536.5856 1045.97366,1536.10623 1047.17296,1535.76558 L1047.17296,1533.6813 C1047.17296,1533.19666 1047.56629,1532.80334 1048.05092,1532.80334 L1055.07463,1532.80334 C1055.55926,1532.80334 1055.95259,1533.19666 1055.95259,1533.6813 L1055.95259,1535.76558 C1057.15189,1536.10623 1058.30553,1536.5856 1059.39772,1537.19666 L1060.87621,1535.71993 C1061.21861,1535.37752 1061.77349,1535.37752 1062.11765,1535.71993 L1067.08341,1540.68569 C1067.42581,1541.02985 1067.42581,1541.58472 1067.08341,1541.92713 L1065.60667,1543.40562 C1066.21773,1544.49781 1066.6971,1545.65145 1067.03775,1546.85075 L1069.12204,1546.85075 Z M1028.29675,1560.53292 C1028.78139,1560.53292 1029.17471,1560.92625 1029.17471,1561.41089 C1029.17471,1561.89552 1028.78139,1562.28885 1028.29675,1562.28885 L1022.15101,1562.28885 C1021.66637,1562.28885 1021.27305,1561.89552 1021.27305,1561.41089 C1021.27305,1560.92625 1021.66637,1560.53292 1022.15101,1560.53292 L1028.29675,1560.53292 Z M1026.24759,1525.92537 C1025.76295,1525.92537 1025.36962,1525.53205 1025.36962,1525.04741 C1025.36962,1524.56277 1025.76295,1524.16945 1026.24759,1524.16945 L1030.34592,1524.16945 C1030.83055,1524.16945 1031.22388,1524.56277 1031.22388,1525.04741 C1031.22388,1525.53205 1030.83055,1525.92537 1030.34592,1525.92537 L1026.24759,1525.92537 Z M1025.22388,1532.80334 C1024.73924,1532.80334 1024.34592,1532.41001 1024.34592,1531.92537 C1024.34592,1531.44074 1024.73924,1531.04741 1025.22388,1531.04741 C1025.87709,1531.04741 1026.53205,1531.11238 1027.16769,1531.24232 C1027.78578,1531.3705 1028.39684,1531.55838 1028.98332,1531.80597 C1029.42932,1531.99385 1029.64004,1532.50834 1029.4504,1532.9561 C1029.30817,1533.29148 1028.98507,1533.49342 1028.64091,1533.49342 C1028.52678,1533.49342 1028.41089,1533.47059 1028.30026,1533.42493 C1027.8209,1533.22125 1027.32221,1533.06673 1026.81826,1532.96488 C1026.295,1532.85777 1025.76119,1532.80334 1025.22388,1532.80334 Z M1029.64284,1547.25707 C1030.0432,1546.98841 1030.59104,1547.09025 1030.86146,1547.49587 C1031.13363,1547.89622 1031.02651,1548.44407 1030.62441,1548.71449 C1030.10992,1549.0604 1029.55856,1549.35891 1028.98437,1549.60299 C1028.39614,1549.85233 1027.78507,1550.04021 1027.16874,1550.16664 C1026.5331,1550.29658 1025.87638,1550.3633 1025.22318,1550.3633 C1024.56997,1550.3633 1023.91501,1550.29658 1023.27937,1550.16664 C1022.66128,1550.04021 1022.05198,1549.85233 1021.4655,1549.60474 C1020.88955,1549.35891 1020.33819,1549.0604 1019.82371,1548.71449 C1019.30922,1548.36681 1018.82985,1547.96822 1018.39438,1547.53099 C1017.96067,1547.09903 1017.56207,1546.61967 1017.21615,1546.10694 C1016.86848,1545.59069 1016.56997,1545.03933 1016.3259,1544.46514 C1016.07656,1543.87691 1015.88867,1543.2676 1015.76225,1542.64952 C1015.63231,1542.01387 1015.56558,1541.35891 1015.56558,1540.70571 C1015.56558,1540.05075 1015.63231,1539.39579 1015.76225,1538.76014 C1015.88867,1538.14381 1016.07656,1537.53275 1016.32414,1536.94627 C1016.56997,1536.37032 1016.86848,1535.81896 1017.2144,1535.30448 C1017.56207,1534.78999 1017.96067,1534.31062 1018.39789,1533.87515 C1018.82985,1533.44144 1019.30922,1533.04284 1019.82195,1532.69693 C1020.33819,1532.34925 1020.88955,1532.05075 1021.46374,1531.80667 C1021.90799,1531.61703 1022.42423,1531.82423 1022.61387,1532.27199 C1022.80351,1532.718 1022.59456,1533.23424 1022.14855,1533.42212 C1021.67972,1533.6223 1021.22669,1533.86813 1020.80527,1534.15259 C1020.38736,1534.43529 1019.99403,1534.76014 1019.63933,1535.11659 C1019.27937,1535.4748 1018.95452,1535.86813 1018.67006,1536.2878 C1018.38736,1536.70746 1018.14153,1537.16049 1017.94135,1537.63108 C1017.74118,1538.10869 1017.58665,1538.60562 1017.48306,1539.10957 C1017.3777,1539.63284 1017.32151,1540.16839 1017.32151,1540.70571 C1017.32151,1541.24126 1017.3777,1541.77682 1017.48306,1542.30009 C1017.58665,1542.80404 1017.74118,1543.30097 1017.94311,1543.78209 C1018.14153,1544.24917 1018.38736,1544.70219 1018.67182,1545.12362 C1018.95452,1545.54153 1019.27937,1545.93486 1019.63582,1546.28955 C1019.99403,1546.64952 1020.38736,1546.97436 1020.80702,1547.25882 C1021.22669,1547.54153 1021.67972,1547.78736 1022.14855,1547.98753 C1022.62792,1548.18771 1023.12485,1548.34223 1023.6288,1548.44583 C1024.67533,1548.6583 1025.77278,1548.6583 1026.81932,1548.44583 C1027.32327,1548.34223 1027.82019,1548.18771 1028.29956,1547.98578 C1028.76839,1547.78736 1029.22142,1547.54153 1029.64284,1547.25707 Z M1030.81229,1535.11993 C1030.46813,1534.77752 1030.46813,1534.2209 1030.80878,1533.87849 C1031.15119,1533.53257 1031.70781,1533.53608 1032.05022,1533.87498 C1032.48745,1534.31045 1032.88604,1534.79157 1033.23196,1535.30255 C1033.57963,1535.81879 1033.87814,1536.37015 1034.12221,1536.94434 C1034.3698,1537.53257 1034.55944,1538.14363 1034.68586,1538.75996 C1034.8158,1539.39737 1034.88077,1540.05233 1034.88077,1540.70553 C1034.88077,1541.35874 1034.8158,1542.0137 1034.68586,1542.64934 C1034.55944,1543.26743 1034.3698,1543.87673 1034.12397,1544.46321 C1033.98174,1544.80035 1033.65689,1545.00053 1033.31449,1545.00053 C1033.1986,1545.00053 1033.08446,1544.9777 1032.97208,1544.93205 C1032.52783,1544.74241 1032.31536,1544.22792 1032.505,1543.78191 C1032.70694,1543.30079 1032.86146,1542.80386 1032.96506,1542.29991 C1033.07041,1541.77665 1033.12485,1541.24109 1033.12485,1540.70553 C1033.12485,1540.16822 1033.07041,1539.63266 1032.96506,1539.10939 C1032.86146,1538.60544 1032.70694,1538.10852 1032.505,1537.62915 C1032.30658,1537.16032 1032.06076,1536.70729 1031.77629,1536.28586 C1031.49359,1535.86795 1031.16874,1535.47463 1030.81229,1535.11993 Z M1020.21335,1540.96225 C1020.55575,1540.61984 1021.11238,1540.61984 1021.45478,1540.96225 L1024.25198,1543.75944 L1028.91045,1537.54522 C1029.20544,1537.15716 1029.7568,1537.07814 1030.1396,1537.36787 C1030.52766,1537.65935 1030.60667,1538.21071 1030.31694,1538.59701 L1025.04917,1545.62072 C1024.8964,1545.82616 1024.66111,1545.95259 1024.40825,1545.97191 C1024.38718,1545.97366 1024.36611,1545.97366 1024.3468,1545.97366 C1024.11501,1545.97366 1023.89025,1545.8806 1023.7252,1545.71554 L1020.21335,1542.20369 C1019.87094,1541.86128 1019.87094,1541.30465 1020.21335,1540.96225 Z" id="digitize-animation-3"></path>
        </g>
    </g>
</svg>