<?xml version="1.0" encoding="UTF-8"?>
<svg width="45px" height="47px" viewBox="0 0 45 47" version="1.1" xmlns="http://www.w3.org/2000/svg" xmlns:xlink="http://www.w3.org/1999/xlink">
    <!-- Generator: Sketch 53.2 (72643) - https://sketchapp.com -->
    <title>digitize-animation-4</title>
    <desc>Created with Sketch.</desc>
    <g id="Features" stroke="none" stroke-width="1" fill="none" fill-rule="evenodd">
        <g id="Desktop-HD---Solutions---Digitization" transform="translate(-1010.000000, -1691.000000)" fill="#0096DC">
            <path d="M1053.26923,1735.13462 L1053.26923,1693.59615 C1053.26923,1693.12019 1052.87981,1692.73077 1052.40385,1692.73077 L1012.59615,1692.73077 C1012.12019,1692.73077 1011.73077,1693.12019 1011.73077,1693.59615 L1011.73077,1735.13462 C1011.73077,1735.61058 1012.12019,1736 1012.59615,1736 L1052.40385,1736 C1052.87981,1736 1053.26923,1735.61058 1053.26923,1735.13462 Z M1052.40385,1691 C1053.83519,1691 1055,1692.16481 1055,1693.59615 L1055,1735.13462 C1055,1736.56596 1053.83519,1737.73077 1052.40385,1737.73077 L1012.59615,1737.73077 C1011.16481,1737.73077 1010,1736.56596 1010,1735.13462 L1010,1693.59615 C1010,1692.16481 1011.16481,1691 1012.59615,1691 L1052.40385,1691 Z M1050.69004,1694.46154 C1051.16773,1694.46154 1051.55542,1694.84923 1051.55542,1695.32692 C1051.55542,1695.80462 1051.16773,1696.19231 1050.69004,1696.19231 C1050.21235,1696.19231 1049.816,1695.80462 1049.816,1695.32692 C1049.816,1694.84923 1050.19504,1694.46154 1050.67273,1694.46154 L1050.69004,1694.46154 Z M1047.2285,1696.19231 C1046.75081,1696.19231 1046.35446,1695.80462 1046.35446,1695.32692 C1046.35446,1694.84923 1046.7335,1694.46154 1047.21119,1694.46154 L1047.2285,1694.46154 C1047.70619,1694.46154 1048.09388,1694.84923 1048.09388,1695.32692 C1048.09388,1695.80462 1047.70619,1696.19231 1047.2285,1696.19231 Z M1043.76696,1696.19231 C1043.28927,1696.19231 1042.89292,1695.80462 1042.89292,1695.32692 C1042.89292,1694.84923 1043.27196,1694.46154 1043.74965,1694.46154 L1043.76696,1694.46154 C1044.24465,1694.46154 1044.63235,1694.84923 1044.63235,1695.32692 C1044.63235,1695.80462 1044.24465,1696.19231 1043.76696,1696.19231 Z M1023.84615,1713.5 C1027.66423,1713.5 1030.76923,1710.395 1030.76923,1706.57692 C1030.76923,1706.04904 1030.69827,1705.53846 1030.58577,1705.04519 L1027.27308,1706.25154 C1027.28519,1706.35885 1027.30769,1706.46615 1027.30769,1706.57692 C1027.30769,1708.48596 1025.75519,1710.03846 1023.84615,1710.03846 C1021.93712,1710.03846 1020.38462,1708.48596 1020.38462,1706.57692 C1020.38462,1704.96904 1021.49231,1703.62596 1022.98077,1703.23827 L1022.98077,1699.74212 C1019.57462,1700.17308 1016.92308,1703.05481 1016.92308,1706.57692 C1016.92308,1710.395 1020.02808,1713.5 1023.84615,1713.5 Z M1023.84615,1704.84615 C1022.89077,1704.84615 1022.11538,1705.62154 1022.11538,1706.57692 C1022.11538,1707.53231 1022.89077,1708.30769 1023.84615,1708.30769 C1024.80154,1708.30769 1025.57692,1707.53231 1025.57692,1706.57692 C1025.57692,1705.62154 1024.80154,1704.84615 1023.84615,1704.84615 Z M1029.97481,1703.42692 C1028.95019,1701.44346 1027.01346,1700.03288 1024.71154,1699.74212 L1024.71154,1703.23827 C1025.52673,1703.44942 1026.22942,1703.94442 1026.695,1704.61942 L1029.97481,1703.42692 Z M1032.01019,1703.82154 C1032.30442,1704.69212 1032.5,1705.60769 1032.5,1706.57692 C1032.5,1711.34865 1028.61788,1715.23077 1023.84615,1715.23077 C1019.07442,1715.23077 1015.19231,1711.34865 1015.19231,1706.57692 C1015.19231,1701.80519 1019.07442,1697.92308 1023.84615,1697.92308 C1027.53442,1697.92308 1030.66712,1700.25269 1031.91154,1703.50827 C1031.93231,1703.54635 1031.96173,1703.57577 1031.97731,1703.61731 C1032.00327,1703.68481 1032.00154,1703.75404 1032.01019,1703.82154 Z M1036.82692,1703.11538 C1036.34923,1703.11538 1035.96154,1702.72769 1035.96154,1702.25 C1035.96154,1701.77231 1036.34923,1701.38462 1036.82692,1701.38462 L1048.07692,1701.38462 C1048.55462,1701.38462 1048.94231,1701.77231 1048.94231,1702.25 C1048.94231,1702.72769 1048.55462,1703.11538 1048.07692,1703.11538 L1036.82692,1703.11538 Z M1036.82692,1708.30769 C1036.34923,1708.30769 1035.96154,1707.92 1035.96154,1707.44231 C1035.96154,1706.96462 1036.34923,1706.57692 1036.82692,1706.57692 L1044.32635,1706.57692 C1044.80404,1706.57692 1045.19173,1706.96462 1045.19173,1707.44231 C1045.19173,1707.92 1044.80404,1708.30769 1044.32635,1708.30769 L1036.82692,1708.30769 Z M1036.82692,1713.5 C1036.34923,1713.5 1035.96154,1713.11231 1035.96154,1712.63462 C1035.96154,1712.15692 1036.34923,1711.76923 1036.82692,1711.76923 L1047.13885,1711.76923 C1047.61654,1711.76923 1048.00423,1712.15692 1048.00423,1712.63462 C1048.00423,1713.11231 1047.61654,1713.5 1047.13885,1713.5 L1036.82692,1713.5 Z M1029.03846,1719.55769 C1029.51615,1719.55769 1029.90385,1719.94538 1029.90385,1720.42308 C1029.90385,1720.90077 1029.51615,1721.28846 1029.03846,1721.28846 L1016.92308,1721.28846 C1016.44538,1721.28846 1016.05769,1720.90077 1016.05769,1720.42308 C1016.05769,1719.94538 1016.44538,1719.55769 1016.92308,1719.55769 L1029.03846,1719.55769 Z M1016.92308,1726.48077 C1016.44538,1726.48077 1016.05769,1726.09308 1016.05769,1725.61538 C1016.05769,1725.13769 1016.44538,1724.75 1016.92308,1724.75 L1025.00058,1724.75 C1025.47827,1724.75 1025.86596,1725.13769 1025.86596,1725.61538 C1025.86596,1726.09308 1025.47827,1726.48077 1025.00058,1726.48077 L1016.92308,1726.48077 Z M1028.02942,1729.94231 C1028.50712,1729.94231 1028.89481,1730.33 1028.89481,1730.80769 C1028.89481,1731.28538 1028.50712,1731.67308 1028.02942,1731.67308 L1016.92308,1731.67308 C1016.44538,1731.67308 1016.05769,1731.28538 1016.05769,1730.80769 C1016.05769,1730.33 1016.44538,1729.94231 1016.92308,1729.94231 L1028.02942,1729.94231 Z M1048.94231,1730.80769 C1049.42,1730.80769 1049.80769,1731.19538 1049.80769,1731.67308 C1049.80769,1732.15077 1049.42,1732.53846 1048.94231,1732.53846 L1033.36538,1732.53846 C1032.88769,1732.53846 1032.5,1732.15077 1032.5,1731.67308 L1032.5,1718.69231 C1032.5,1718.21462 1032.88769,1717.82692 1033.36538,1717.82692 C1033.84308,1717.82692 1034.23077,1718.21462 1034.23077,1718.69231 L1034.23077,1730.80769 L1035.96154,1730.80769 L1035.96154,1724.75 C1035.96154,1724.27231 1036.34923,1723.88462 1036.82692,1723.88462 C1037.30462,1723.88462 1037.69231,1724.27231 1037.69231,1724.75 L1037.69231,1730.80769 L1039.42308,1730.80769 L1039.42308,1721.28846 C1039.42308,1720.81077 1039.81077,1720.42308 1040.28846,1720.42308 C1040.76615,1720.42308 1041.15385,1720.81077 1041.15385,1721.28846 L1041.15385,1730.80769 L1042.88462,1730.80769 L1042.88462,1729.44731 C1042.88462,1728.96962 1043.27231,1728.58192 1043.75,1728.58192 C1044.22769,1728.58192 1044.61538,1728.96962 1044.61538,1729.44731 L1044.61538,1730.80769 L1046.34615,1730.80769 L1046.34615,1728.33442 C1046.34615,1727.85673 1046.73385,1727.46904 1047.21154,1727.46904 C1047.68923,1727.46904 1048.07692,1727.85673 1048.07692,1728.33442 L1048.07692,1730.80769 L1048.94231,1730.80769 Z" id="digitize-animation-4"></path>
        </g>
    </g>
</svg>