<?xml version="1.0" standalone="no"?>
<!DOCTYPE svg PUBLIC "-//W3C//DTD SVG 1.1//EN" "http://www.w3.org/Graphics/SVG/1.1/DTD/svg11.dtd">
<svg xmlns="http://www.w3.org/2000/svg"><metadata>This SVG WebFont was generated by YouWorkForThem.
Copyright Â© 2020 by Connary Fagen. All rights reserved.</metadata><defs><font horiz-adv-x="1230" id="ywftsvg"><font-face ascent="1638" bbox="-444 -688 2251 2228" cap-height="1434" descent="-410" font-family="" font-stretch="normal" font-weight="700" panose-1="0 0 0 0 0 0 0 0 0 0" underline-position="0" underline-thickness="0" unicode-range="U+0020-A78C" units-per-em="2048" x-height="1065"/><missing-glyph d="M25 0l225 1434h1249l-225 -1434h-1249zM147 106h1037l192 1221h-1036zM236 184l469 539l-295 526h118l246 -446l385 446h119l-463 -526l301 -539h-119l-249 461l-394 -461h-118z" horiz-adv-x="1464"/><glyph d="M25 0l225 1434h1249l-225 -1434h-1249zM147 106h1037l192 1221h-1036zM236 184l469 539l-295 526h118l246 -446l385 446h119l-463 -526l301 -539h-119l-249 461l-394 -461h-118z" glyph-name=".notdef" horiz-adv-x="1464"/><glyph glyph-name="glyph1" horiz-adv-x="0"/><glyph glyph-name="glyph2" horiz-adv-x="681"/><glyph glyph-name="space" horiz-adv-x="471" unicode=" "/><glyph d="M166 498l113 936h303l-187 -936h-229zM49 157.5q0 73.5 53.5 126t126.5 52.5q76 0 129.5 -52.5t53.5 -125.5q0 -76 -53.5 -127t-129.5 -51q-74 0 -127 52t-53 125.5z" glyph-name="exclam" horiz-adv-x="579" unicode="!"/><glyph d="M610 831l99 603h286l-98 -603h-287zM127 831l98 603h287l-98 -603h-287z" glyph-name="quotedbl" horiz-adv-x="933" unicode="&quot;"/><glyph d="M590 0l90 350h-266l-90 -350h-181l90 350h-174l29 185h193l96 364h-178l28 184h197l90 351h180l-90 -351h266l91 351h180l-90 -351h174l-29 -184h-192l-97 -364h178l-28 -185h-197l-90 -350h-180zM461 535h266l96 364h-266z" glyph-name="numbersign" horiz-adv-x="1224" unicode="#"/><glyph d="M469 -184l27 166q-233 16 -350 143t-85 344h306q-14 -193 170 -229l59 376l-74 15q-162 35 -253 114.5t-91 237.5q0 205 153.5 331t395.5 136l27 168h123l-27 -170q207 -18 313.5 -130t75.5 -306h-303q29 145 -127 180l-55 -350l51 -11q207 -41 296 -125.5t89 -234.5 q0 -219 -159 -348t-413 -141l-26 -166h-123zM492 1014q0 -115 143 -148l51 330q-88 -10 -141 -59t-53 -123zM657 236q98 10 157.5 61t59.5 137q0 61 -36.5 99t-122.5 59z" glyph-name="dollar" horiz-adv-x="1284" unicode="$"/><glyph d="M211 223l-98 170l1263 821l97 -167zM164 1057q0 162 101.5 280.5t262.5 118.5q117 0 186.5 -65.5t69.5 -196.5q0 -162 -101 -280.5t-263 -118.5q-115 0 -185.5 65.5t-70.5 196.5zM379 1096q0 -104 78 -105q57 0 84.5 50.5t27.5 113.5q0 104 -75 105q-57 0 -86 -50.5 t-29 -113.5zM807 244q0 164 100.5 282.5t263.5 118.5q115 0 184.5 -65.5t69.5 -196.5q0 -164 -100 -282.5t-264 -118.5q-115 0 -184.5 65.5t-69.5 196.5zM1022 285q0 -104 76 -105q57 0 84.5 49.5t27.5 112.5q0 104 -75 104q-55 0 -84 -49t-29 -112z" glyph-name="percent" horiz-adv-x="1529" unicode="%"/><glyph d="M514 -20q-209 0 -334 101t-125 277q0 272 357 457q-96 154 -97 275q0 152 113 257t324 105q180 0 274 -79t94 -208q0 -266 -329 -413l198 -267q72 117 98 279h265q-47 -293 -207 -485l209 -279h-332l-78 102q-194 -122 -430 -122zM367 408q0 -78 59 -131.5t160 -53.5 q115 0 217 66l-268 354q-168 -94 -168 -235zM578 1120q0 -70 81 -192q195 92 195 211q0 106 -127 106q-68 0 -108.5 -34t-40.5 -91z" glyph-name="ampersand" horiz-adv-x="1482" unicode="&amp;"/><glyph d="M127 831l98 603h287l-98 -603h-287z" glyph-name="quotesingle" horiz-adv-x="450" unicode="'"/><glyph d="M182 -266q-156 389 -69 921q80 510 354 871h289q-266 -373 -344 -871q-84 -522 59 -921h-289z" glyph-name="parenleft" horiz-adv-x="690" unicode="("/><glyph d="M539 1526q156 -389 69 -922q-80 -510 -354 -870h-289q266 373 344 870q84 522 -59 922h289z" glyph-name="parenright" horiz-adv-x="688" unicode=")"/><glyph d="M397 618l-153 115l205 232l-254 67l81 199l265 -76l43 279h209l-50 -279l287 76l21 -199l-279 -67l131 -232l-190 -115l-119 232z" glyph-name="asterisk" horiz-adv-x="1089" unicode="*"/><glyph d="M408 74l59 375h-373l39 258h373l59 372h275l-60 -372h379l-41 -258h-377l-59 -375h-274z" glyph-name="plus" horiz-adv-x="1239" unicode="+"/><glyph d="M27 -143q84 6 123.5 35.5t52.5 93.5q-90 0 -137.5 46t-47.5 118q0 78 52.5 132t136.5 54q82 0 133 -56.5t51 -173.5q0 -158 -94 -264t-277 -106h-12z" glyph-name="comma" horiz-adv-x="540" unicode=","/><glyph d="M70 453l36 225h631l-37 -225h-630z" glyph-name="hyphen" horiz-adv-x="794" unicode="-"/><glyph d="M199 -20q-74 0 -127.5 52t-53.5 125.5t53.5 126t127.5 52.5q76 0 129 -52.5t53 -125.5q0 -76 -53 -127t-129 -51z" glyph-name="period" horiz-adv-x="518" unicode="."/><glyph d="M-23 4l787 1430h299l-787 -1430h-299z" glyph-name="slash" horiz-adv-x="980" unicode="/"/><glyph d="M575 -20q-211 0 -347 136t-136 431q0 229 79 433t240.5 338t372.5 134q213 0 347.5 -137t134.5 -432q0 -229 -77 -431t-238 -337t-376 -135zM381 578q0 -166 57.5 -257.5t167.5 -91.5q119 0 207 101.5t127 241t39 286.5q0 344 -223 344q-119 0 -208 -100.5t-128 -238.5 t-39 -285z" glyph-name="zero" horiz-adv-x="1300" unicode="0"/><glyph d="M473 1069q-119 -106 -328 -106l37 245q254 29 348 226h299l-227 -1434h-299z" glyph-name="one" horiz-adv-x="833" unicode="1"/><glyph d="M10 70q33 205 134.5 345t338.5 267q23 12 75 39t71.5 38t60.5 33.5t57.5 37t44 37t40 42t24.5 46t18 55.5q18 98 -37 143t-139 45q-90 0 -155.5 -53t-81.5 -168l-4 -29h-291l6 41q31 205 174 334t395 129q236 0 349.5 -114.5t85.5 -303.5q-10 -68 -34 -126t-69 -108 t-74.5 -81t-99.5 -72t-92.5 -54t-97.5 -52q-166 -88 -240 -151.5t-90 -133.5l-2 -8h670l-37 -248h-1012z" glyph-name="two" horiz-adv-x="1185" unicode="2"/><glyph d="M522 -20q-262 0 -382 137t-83 370h277q-20 -133 46 -194.5t179 -61.5q119 0 199 65.5t80 168.5q0 170 -238 170h-84l35 215h72q121 0 191.5 53t70.5 144q0 76 -50.5 112.5t-127.5 36.5q-205 0 -246 -229h-279q31 229 180.5 357t391.5 128q201 0 315.5 -90t114.5 -238 q0 -127 -83 -229t-208 -133q88 -10 168 -83t80 -214q0 -215 -178.5 -350t-440.5 -135z" glyph-name="three" horiz-adv-x="1222" unicode="3"/><glyph d="M602 0l53 336h-620l37 239l757 859h299l-137 -859h164l-37 -239h-164l-53 -336h-299zM334 575h358l78 498z" glyph-name="four" horiz-adv-x="1214" unicode="4"/><glyph d="M530 -20q-248 0 -370.5 133t-85.5 346h272q-16 -121 53.5 -179.5t171.5 -58.5q133 0 212 92.5t79 225.5q0 123 -64.5 173t-150.5 50q-76 0 -144.5 -34t-105.5 -95h-274l248 801h800l-38 -238h-594l-99 -319q6 10 39 34.5t113 52t172 27.5q184 0 291.5 -108.5 t107.5 -304.5q0 -262 -177 -430t-456 -168z" glyph-name="five" horiz-adv-x="1218" unicode="5"/><glyph d="M567 -20q-209 0 -339 126.5t-130 399.5q0 100 19 213q53 336 224 534.5t460 198.5q211 0 314.5 -101.5t103.5 -246.5q0 -20 -5 -66h-264q0 94 -55 135t-139 41q-88 0 -156 -42t-105.5 -110.5t-57 -129t-29.5 -125.5q162 141 358 141q76 0 144.5 -20.5t128 -64.5t95 -124 t35.5 -186q0 -248 -176 -410.5t-426 -162.5zM379 434q0 -106 62.5 -159.5t150.5 -53.5q117 0 202 84t85 209q0 106 -61.5 158.5t-153.5 52.5q-127 0 -206 -86t-79 -205z" glyph-name="six" horiz-adv-x="1249" unicode="6"/><glyph d="M145 0q141 612 654 1188h-635l41 246h915l-39 -246q-528 -629 -651 -1188h-285z" glyph-name="seven" horiz-adv-x="1048" unicode="7"/><glyph d="M502 -20q-207 0 -334 97t-127 269q0 135 79 250t224 180q-113 86 -113 246q0 180 140.5 305t363.5 125q184 0 287.5 -86t103.5 -229q0 -104 -55 -206t-156 -155q186 -92 187 -299q0 -221 -174 -359t-426 -138zM334 410q0 -80 54 -130.5t153 -50.5q123 0 198.5 72 t75.5 168q0 78 -55 126t-152 48q-123 0 -198.5 -68.5t-75.5 -164.5zM508 1028q0 -61 42 -95t109 -34q86 0 136.5 53.5t50.5 122.5q0 61 -42 95t-108 34q-88 0 -138 -53t-50 -123z" glyph-name="eight" horiz-adv-x="1183" unicode="8"/><glyph d="M739 1450q209 0 339 -127t130 -399q0 -100 -18 -213q-53 -336 -224 -535t-460 -199q-211 0 -314.5 101.5t-103.5 247.5q0 20 4 65h264q0 -94 55.5 -135t139.5 -41q88 0 155.5 42t105.5 110.5t57.5 129t29.5 126.5q-162 -141 -358 -142q-76 0 -144.5 20.5t-128 64.5 t-95.5 124t-36 187q0 248 176 410.5t426 162.5zM428 915q0 -106 61.5 -158t153.5 -52q127 0 206 86t79 204q0 106 -62.5 159.5t-150.5 53.5q-117 0 -202 -84t-85 -209z" glyph-name="nine" horiz-adv-x="1249" unicode="9"/><glyph d="M199 -20q-74 0 -127.5 52t-53.5 125.5t53.5 126t127.5 52.5q76 0 129 -52.5t53 -125.5q0 -76 -53 -127t-129 -51zM135 887q0 74 53.5 126t126.5 52q76 0 129.5 -52t53.5 -126q0 -76 -53.5 -127t-129.5 -51q-74 0 -127 52t-53 126z" glyph-name="colon" horiz-adv-x="518" unicode=":"/><glyph d="M315 709q-74 0 -127 52t-53 126t53.5 126t126.5 52q76 0 129.5 -52t53.5 -126q0 -76 -53.5 -127t-129.5 -51zM8 -264l19 121q84 6 123.5 35.5t52.5 93.5q-90 0 -137.5 46t-47.5 118q0 78 52.5 132t136.5 54q82 0 133 -56.5t51 -173.5q0 -158 -94 -264t-277 -106h-12z" glyph-name="semicolon" horiz-adv-x="540" unicode=";"/><glyph d="M862 0l-796 367l40 256l912 366l-43 -276l-621 -221l551 -226z" glyph-name="less" horiz-adv-x="1038" unicode="&lt;"/><glyph d="M70 289l41 225h682l-39 -225h-684zM127 616l39 226h684l-41 -226h-682z" glyph-name="equal" horiz-adv-x="907" unicode="="/><glyph d="M164 989l797 -366l-41 -256l-912 -367l43 276l621 222l-551 225z" glyph-name="greater" horiz-adv-x="1038" unicode=">"/><glyph d="M451 520q18 102 63 176t97.5 114t102.5 71.5t88 70.5t46 90q10 57 -25 103.5t-127 46.5q-201 0 -239 -240h-299q37 256 192.5 376t372.5 120q215 0 335 -108.5t89 -299.5q-14 -86 -54 -144t-88.5 -91t-96.5 -64.5t-87 -85t-53 -131.5l-10 -57h-316zM367 157.5 q0 73.5 53 126t127 52.5q76 0 129 -52.5t53 -125.5q0 -76 -53 -127t-129 -51q-74 0 -127 52t-53 125.5z" glyph-name="question" horiz-adv-x="1159" unicode="?"/><glyph d="M758 -20q-293 0 -475.5 168.5t-182.5 465.5q0 356 253 597t610 241q287 0 457.5 -161t170.5 -425q0 -209 -100 -354t-281 -145q-96 0 -145 49t-53 112q-16 -57 -89 -111.5t-167 -54.5q-111 0 -187.5 80t-76.5 224q0 164 102 274.5t252 110.5q94 0 156.5 -47.5 t64.5 -108.5l31 135h131l-51 -340q-25 -178 67 -178q80 0 127 104.5t47 237.5q0 201 -121.5 318.5t-347.5 117.5q-295 0 -488.5 -192.5t-193.5 -470.5q0 -231 142.5 -359.5t388.5 -128.5q141 0 231 33l-29 -156q-110 -36 -243 -36zM662 680q0 -70 33.5 -116t105.5 -46 q82 0 133 63.5t51 153.5q0 70 -33.5 115t-105.5 45q-82 0 -133 -64.5t-51 -150.5z" glyph-name="at" horiz-adv-x="1622" unicode="@"/><glyph d="M-49 0l745 1434h396l290 -1434h-317l-49 268h-602l-135 -268h-328zM526 496h447l-115 624h-18z" glyph-name="A" horiz-adv-x="1501" unicode="A"/><glyph d="M23 0l227 1434h573q207 0 312.5 -83t105.5 -239q0 -246 -256 -330q252 -72 252 -319q0 -215 -170 -339t-430 -124h-614zM369 258h274q125 0 202 65.5t77 165.5q0 168 -199 168h-289zM463 852h250q90 0 148.5 56.5t58.5 138.5q0 129 -142 129h-266z" glyph-name="B" horiz-adv-x="1306" unicode="B"/><glyph d="M680 -20q-276 0 -428 157.5t-152 458.5q0 362 209 609t563 247q252 0 401.5 -132t137.5 -384h-295q-10 131 -85 191.5t-189 60.5q-141 0 -242.5 -88t-145.5 -212t-44 -263q0 -178 77.5 -279.5t227.5 -101.5q236 0 334 254h294q-61 -262 -240 -390t-423 -128z" glyph-name="C" horiz-adv-x="1409" unicode="C"/><glyph d="M23 0l227 1434h534q575 0 576 -592q0 -371 -208 -606.5t-579 -235.5h-550zM373 266h196q248 0 365 157t117 406q0 186 -75 262t-253 76h-209z" glyph-name="D" horiz-adv-x="1402" unicode="D"/><glyph d="M23 0l227 1434h979l-43 -267h-672l-53 -321h610l-37 -240h-610l-51 -340h692l-43 -266h-999z" glyph-name="E" horiz-adv-x="1161" unicode="E"/><glyph d="M23 0l227 1434h948l-43 -267h-641l-55 -336h530l-39 -247h-530l-90 -584h-307z" glyph-name="F" horiz-adv-x="1116" unicode="F"/><glyph d="M694 -20q-289 0 -442.5 154.5t-153.5 449.5q0 238 93.5 434t274.5 315t415 119q238 0 387 -121t149 -352h-303q-31 209 -254 209q-141 0 -246.5 -87t-154.5 -216t-49 -273q0 -174 79.5 -271t233.5 -97q133 0 227 74.5t123 230.5l-276 -6l39 245h581l-20 -124 q-66 -352 -236 -518t-467 -166z" glyph-name="G" horiz-adv-x="1462" unicode="G"/><glyph d="M897 0l94 590h-567l-94 -590h-307l227 1434h307l-94 -590h567l94 590h308l-228 -1434h-307z" glyph-name="H" horiz-adv-x="1394" unicode="H"/><glyph d="M23 0l227 1434h307l-227 -1434h-307z" glyph-name="I" horiz-adv-x="520" unicode="I"/><glyph d="M623 -20q-270 0 -415 144t-99 421h309q-23 -143 42.5 -221t198.5 -78q258 0 310 321l137 867h307l-141 -889q-45 -281 -214 -423t-435 -142z" glyph-name="J" horiz-adv-x="1376" unicode="J"/><glyph d="M23 0l227 1434h307l-108 -680l679 680h361l-651 -641l479 -793h-350l-351 575l-231 -227l-55 -348h-307z" glyph-name="K" horiz-adv-x="1435" unicode="K"/><glyph d="M23 0l227 1434h307l-184 -1168h659l-43 -266h-966z" glyph-name="L" horiz-adv-x="1128" unicode="L"/><glyph d="M23 0l227 1434h387l201 -1016l516 1016h395l-227 -1434h-308l144 903h-10l-451 -903h-242l-172 903h-10l-143 -903h-307z" glyph-name="M" horiz-adv-x="1712" unicode="M"/><glyph d="M23 0l227 1434h319l422 -936h8l150 936h307l-227 -1434h-332l-418 915h-6l-143 -915h-307z" glyph-name="N" horiz-adv-x="1419" unicode="N"/><glyph d="M686 -20q-276 0 -433 163.5t-157 452.5q0 229 95.5 423.5t276.5 313.5t411 119q276 0 431.5 -163t155.5 -449q0 -356 -218 -608t-562 -252zM410 604q0 -176 77.5 -268t221.5 -92q141 0 245.5 90t151.5 221t47 276q0 176 -76 266.5t-219 90.5q-141 0 -245.5 -88 t-153.5 -218.5t-49 -277.5z" glyph-name="O" horiz-adv-x="1507" unicode="O"/><glyph d="M23 0l227 1434h575q479 0 480 -406q0 -250 -171 -400.5t-460 -150.5h-268l-76 -477h-307zM446 743h261q131 0 205.5 67t74.5 177q0 180 -215 180h-258z" glyph-name="P" horiz-adv-x="1288" unicode="P"/><glyph d="M1161 -47l-102 123q-166 -96 -373 -96q-276 0 -433 163.5t-157 452.5q0 229 95.5 423.5t276.5 313.5t411 119q276 0 431.5 -163t155.5 -449q0 -342 -198 -586l104 -125zM410 604q0 -176 77.5 -268t221.5 -92q94 0 176 43l-160 192l211 176l139 -168q78 160 78 344 q0 176 -76 266.5t-219 90.5q-141 0 -245.5 -88t-153.5 -218.5t-49 -277.5z" glyph-name="Q" horiz-adv-x="1513" unicode="Q"/><glyph d="M858 0l-199 477h-253l-76 -477h-307l227 1434h575q479 0 480 -406q0 -184 -96.5 -317t-268.5 -193l223 -518h-305zM446 743h261q131 0 205.5 67t74.5 177q0 180 -215 180h-258z" glyph-name="R" horiz-adv-x="1302" unicode="R"/><glyph d="M594 -20q-279 0 -422 128t-106 361h317q-8 -104 54.5 -170t201.5 -66q123 0 198.5 53.5t75.5 147.5q0 68 -44 106t-152 58l-170 33q-168 35 -263.5 114.5t-95.5 237.5q0 215 175.5 342t443.5 127q252 0 386 -113.5t99 -326.5h-315q18 92 -41 139t-168 47 q-115 0 -184.5 -50t-69.5 -134q0 -121 170 -152l156 -31q215 -41 308 -125.5t93 -234.5q0 -229 -182 -360t-465 -131z" glyph-name="S" horiz-adv-x="1333" unicode="S"/><glyph d="M377 0l186 1167h-418l43 267h1139l-41 -267h-418l-184 -1167h-307z" glyph-name="T" horiz-adv-x="1228" unicode="T"/><glyph d="M614 -20q-272 0 -411.5 143t-93.5 422l141 889h309l-137 -867q-25 -156 40.5 -238.5t201.5 -82.5q268 0 317 321l139 867h310l-142 -889q-45 -279 -224.5 -422t-449.5 -143z" glyph-name="U" horiz-adv-x="1392" unicode="U"/><glyph d="M479 0l-291 1434h318l209 -1121h16l561 1121h328l-746 -1434h-395z" glyph-name="V" horiz-adv-x="1521" unicode="V"/><glyph d="M334 0l-146 1434h316l71 -1002h13l434 1002h315l121 -1002h12l388 1002h317l-598 -1434h-322l-135 1047l-465 -1047h-321z" glyph-name="W" horiz-adv-x="2076" unicode="W"/><glyph d="M-49 0l606 737l-350 697h344l219 -437l358 437h340l-569 -695l371 -739h-344l-240 479l-393 -479h-342z" glyph-name="X" horiz-adv-x="1388" unicode="X"/><glyph d="M479 0l84 526l-375 908h349l231 -611l422 611h352l-663 -908l-82 -526h-318z" glyph-name="Y" horiz-adv-x="1443" unicode="Y"/><glyph d="M-2 0l43 266l901 901h-743l43 267h1083l-41 -267l-905 -901h770l-43 -266h-1108z" glyph-name="Z" horiz-adv-x="1271" unicode="Z"/><glyph d="M-20 -266l284 1792h451l-41 -256h-152l-203 -1280h152l-41 -256h-450z" glyph-name="bracketleft" horiz-adv-x="663" unicode="["/><glyph d="M543 4l-338 1430h293l338 -1430h-293z" glyph-name="backslash" horiz-adv-x="980" unicode="\"/><glyph d="M715 1526l-285 -1792h-450l40 256h152l203 1280h-152l41 256h451z" glyph-name="bracketright" horiz-adv-x="663" unicode="]"/><glyph d="M158 952l411 482h176l256 -482h-225l-147 287l-242 -287h-229z" glyph-name="asciicircum" horiz-adv-x="1028" unicode="^"/><glyph d="M-33 -256l41 256h1024l-41 -256h-1024z" glyph-name="underscore" horiz-adv-x="1208" unicode="_"/><glyph d="M336 1188l-170 287h258l172 -287h-260z" glyph-name="grave" horiz-adv-x="491" unicode="`"/><glyph d="M307 -20q-129 0 -211 60t-82 198q0 295 426 358l189 31q74 10 103.5 27.5t37.5 52.5l4 24q14 70 -22.5 103.5t-122.5 33.5q-172 0 -201 -135l-4 -22l-281 -2l7 49q51 328 516 327q238 0 335 -85t68 -261l-119 -739h-284l30 188h-12q-16 -29 -39.5 -58.5t-69 -66t-115 -60 t-153.5 -23.5zM319 297q0 -104 134 -104q100 0 174.5 54t87.5 122l20 123q-8 -10 -19 -16.5t-29.5 -11.5t-26 -7t-35 -7.5t-31.5 -5.5l-135 -22q-140 -25 -140 -125z" glyph-name="a" horiz-adv-x="1140" unicode="a"/><glyph d="M635 -20q-115 0 -191.5 48t-99.5 122l-22 -150h-299l227 1434h299l-84 -521q41 72 135 122t209 50q160 0 272.5 -107.5t112.5 -315.5q0 -279 -158.5 -480.5t-400.5 -201.5zM387 471q0 -121 60.5 -182.5t154.5 -61.5q135 0 219 111t84 262q0 119 -59.5 178.5t-155.5 59.5 q-133 0 -218 -111t-85 -256z" glyph-name="b" horiz-adv-x="1241" unicode="b"/><glyph d="M506 -20q-195 0 -326 110.5t-131 341.5q0 274 175 463.5t454 189.5q80 0 149.5 -18t137 -63.5t103.5 -135.5t30 -219h-267q-2 94 -54 140.5t-140 46.5q-145 0 -225 -112t-80 -259q0 -236 211 -236q188 0 256 187h262q-31 -127 -95.5 -217t-146.5 -135.5t-157.5 -64.5 t-155.5 -19z" glyph-name="c" horiz-adv-x="1140" unicode="c"/><glyph d="M428 -20q-162 0 -271.5 107.5t-109.5 320.5q0 279 156.5 478t394.5 199q117 0 194.5 -48t100.5 -122l82 519h299l-227 -1434h-299l24 152q-41 -72 -135 -122t-209 -50zM334 467q0 -119 58.5 -179.5t154.5 -60.5q133 0 218 111t85 258q0 121 -60.5 181.5t-158.5 60.5 q-131 0 -214 -110.5t-83 -260.5z" glyph-name="d" horiz-adv-x="1236" unicode="d"/><glyph d="M508 -27q-203 0 -330 112t-127 355q0 276 166 460.5t445 184.5q199 0 319.5 -102t120.5 -321q0 -135 -29 -205h-741q2 -143 55 -201.5t162 -58.5q166 0 235 143h263q-68 -180 -207 -273.5t-332 -93.5zM350 618h477q14 106 -35 173t-165 67q-115 0 -183.5 -65.5 t-93.5 -174.5z" glyph-name="e" horiz-adv-x="1150" unicode="e"/><glyph d="M285 1135q55 332 399 331h160l-35 -227h-88q-125 0 -146 -135l-6 -39h205l-35 -229h-207l-131 -836h-299l136 836h-154l35 229h155z" glyph-name="f" horiz-adv-x="747" unicode="f"/><glyph d="M428 27q-158 0 -268.5 100t-110.5 305q0 274 151.5 463.5t391.5 189.5q104 0 181 -40.5t112 -104.5l18 125h299l-149 -944l-11 -82q-16 -115 -66 -202t-113.5 -136t-146.5 -80t-151.5 -40t-140.5 -9q-63 0 -122.5 7t-126 31.5t-112 62.5t-69 106.5t-8.5 159.5h264 q-6 -70 54.5 -103t148.5 -33q113 0 194.5 59.5t95.5 176.5l11 82l10 51q-53 -63 -142.5 -104t-193.5 -41zM336 500q0 -113 58.5 -168.5t154.5 -55.5q129 0 211 99.5t82 238.5q0 111 -59.5 167.5t-153.5 56.5q-129 0 -211 -99.5t-82 -238.5z" glyph-name="g" horiz-adv-x="1224" unicode="g"/><glyph d="M190 1065l60 369h299l-60 -369l-34 -223h14q31 92 127 167.5t244 75.5q166 0 252 -104t55 -305l-107 -676h-299l95 604q20 117 -25 175.5t-141 58.5q-98 0 -166 -59.5t-88 -180.5l-94 -598h-299z" glyph-name="h" unicode="h"/><glyph d="M23 0l167 1065h299l-167 -1065h-299zM219 1352q0 66 49 112.5t115 46.5q68 0 116 -46t48 -113.5t-48 -114.5t-116 -47q-66 0 -115 47t-49 115z" glyph-name="i" horiz-adv-x="509" unicode="i"/><glyph d="M-66 -399q-117 0 -176 6l39 233h105q117 0 141 140l172 1085h299l-180 -1131q-50 -333 -400 -333zM244 1352q0 66 49 112.5t115 46.5q68 0 115.5 -46t47.5 -113.5t-48 -114.5t-115 -47q-66 0 -115 47t-49 115z" glyph-name="j" horiz-adv-x="534" unicode="j"/><glyph d="M23 0l227 1434h299l-129 -809l471 440h319l-501 -453l389 -612h-320l-274 428l-133 -121l-49 -307h-299z" glyph-name="k" horiz-adv-x="1196" unicode="k"/><glyph d="M23 0l227 1434h299l-227 -1434h-299z" glyph-name="l" horiz-adv-x="512" unicode="l"/><glyph d="M1452 604q20 117 -19.5 175.5t-121.5 58.5q-84 0 -143.5 -55.5t-82.5 -170.5l-96 -612h-299l94 604q20 117 -19.5 175.5t-125.5 58.5q-182 0 -223 -240l-94 -598h-299l167 1065h299l-34 -223h14q27 90 119 166.5t227 76.5q113 0 188.5 -62t94.5 -181h2q33 88 134 165.5 t243 77.5q156 0 236.5 -105.5t49.5 -303.5l-106 -676h-299z" glyph-name="m" horiz-adv-x="1847" unicode="m"/><glyph d="M836 604q20 117 -25 175.5t-141 58.5q-98 0 -166 -59.5t-88 -180.5l-94 -598h-299l167 1065h299l-34 -223h14q31 92 127 167.5t244 75.5q166 0 252 -104t55 -305l-107 -676h-299z" glyph-name="n" unicode="n"/><glyph d="M506 -20q-197 0 -326 114.5t-129 341.5q0 270 175 459.5t448 189.5q197 0 325.5 -114.5t128.5 -341.5q0 -270 -175 -459.5t-447 -189.5zM336 467q0 -121 56.5 -180.5t150.5 -59.5q141 0 221 112t80 259q0 121 -56.5 180.5t-150.5 59.5q-141 0 -221 -112t-80 -259z" glyph-name="o" horiz-adv-x="1179" unicode="o"/><glyph d="M-39 -389l229 1454h299l-24 -152q41 72 136 122t210 50q162 0 272.5 -108.5t110.5 -323.5q0 -272 -162 -472.5t-407 -200.5q-111 0 -184.5 48t-96.5 122l-84 -539h-299zM387 467q0 -119 58.5 -179.5t148.5 -60.5q137 0 224 109.5t87 259.5q0 121 -58.5 181.5t-152.5 60.5 q-137 0 -222 -110.5t-85 -260.5z" glyph-name="p" horiz-adv-x="1241" unicode="p"/><glyph d="M690 -389l82 541q-41 -72 -135 -122t-209 -50q-162 0 -271.5 107.5t-109.5 320.5q0 279 156.5 478t394.5 199q115 0 193.5 -49t101.5 -121l27 150h299l-230 -1454h-299zM334 467q0 -119 58.5 -179.5t154.5 -60.5q133 0 218 111t85 258q0 121 -60.5 181.5t-158.5 60.5 q-131 0 -214 -110.5t-83 -260.5z" glyph-name="q" horiz-adv-x="1241" unicode="q"/><glyph d="M23 0l167 1065h299l-40 -258h12q104 266 344 266q43 0 82 -10l-41 -252q-49 6 -84 6q-129 0 -228.5 -75.5t-132.5 -239.5l-79 -502h-299z" glyph-name="r" horiz-adv-x="837" unicode="r"/><glyph d="M422 -20q-217 0 -324.5 94t-81.5 276h269q-6 -141 170 -141q86 0 134 30.5t48 84.5q0 66 -111 88l-153 32q-264 59 -264 279q0 168 135 265t344 97q211 0 310 -97t71 -271h-248q4 74 -39 106.5t-125 32.5q-76 0 -119 -25.5t-43 -70.5q0 -37 30 -60.5t95 -40.5l168 -36 q125 -31 193.5 -90.5t68.5 -176.5q0 -176 -150.5 -276t-377.5 -100z" glyph-name="s" horiz-adv-x="1028" unicode="s"/><glyph d="M479 -14q-348 0 -297 333l82 517h-180l35 229h182l43 274h299l-45 -274h211l-35 -229h-213l-76 -474q-20 -137 105 -137h94l-37 -233q-57 -6 -168 -6z" glyph-name="t" horiz-adv-x="778" unicode="t"/><glyph d="M395 461q-20 -117 25 -175.5t141 -58.5q98 0 166 59.5t88 180.5l94 598h299l-168 -1065h-299l35 223h-14q-31 -92 -127 -167.5t-244 -75.5q-166 0 -252 104t-55 305l106 676h299z" glyph-name="u" unicode="u"/><glyph d="M338 0l-219 1065h303l143 -778h10l388 778h307l-549 -1065h-383z" glyph-name="v" horiz-adv-x="1220" unicode="v"/><glyph d="M236 0l-117 1065h280l62 -776h8l330 776h260l90 -776h8l305 776h283l-447 -1065h-340l-90 668l-288 -668h-344z" glyph-name="w" horiz-adv-x="1695" unicode="w"/><glyph d="M-29 0l453 539l-262 526h317l148 -313l239 313h328l-430 -526l285 -539h-318l-168 326l-264 -326h-328z" glyph-name="x" horiz-adv-x="1187" unicode="x"/><glyph d="M33 -156q219 -27 301 105q43 70 24 145l-239 971h305l139 -688l363 688h309l-602 -1071q-141 -250 -278.5 -338t-358.5 -66z" glyph-name="y" horiz-adv-x="1185" unicode="y"/><glyph d="M-2 0l41 250l614 565h-508l41 250h861l-41 -250l-617 -565h529l-39 -250h-881z" glyph-name="z" horiz-adv-x="1044" unicode="z"/><glyph d="M289 -266q-92 0 -153.5 50t-41.5 181l82 516l-70 146l117 149l82 518q20 131 99 181.5t169 50.5h211l-41 -256h-71q-72 0 -80 -62l-72 -442l-137 -139l94 -135l-71 -441q-4 -31 13 -46t50 -15h72l-41 -256h-211z" glyph-name="braceleft" horiz-adv-x="718" unicode="{"/><glyph d="M8 -389l322 2027h256l-322 -2027h-256z" glyph-name="bar" horiz-adv-x="563" unicode="|"/><glyph d="M461 1526q92 0 153.5 -50.5t40.5 -181.5l-82 -516l70 -145l-117 -150l-82 -518q-20 -131 -99 -181t-169 -50h-211l41 256h72q72 0 80 61l71 443l138 139l-95 135l72 440q4 31 -13.5 46.5t-49.5 15.5h-72l41 256h211z" glyph-name="braceright" horiz-adv-x="718" unicode="}"/><glyph d="M731 389q-88 0 -214 84t-202 84q-35 0 -62.5 -18.5t-25.5 -46.5h-123q0 123 69 201.5t194 78.5q86 0 212 -84t203 -84q35 0 61.5 18.5t24.5 47.5h123q0 -121 -67.5 -201t-192.5 -80z" glyph-name="asciitilde" horiz-adv-x="1079" unicode="~"/><glyph glyph-name="uni00A0" horiz-adv-x="471" unicode=" "/><glyph d="M414 567l-113 -936h-303l186 936h230zM168 907q0 76 53 127t129 51q74 0 127 -52t53 -125.5t-53 -126t-127 -52.5q-76 0 -129 52t-53 126z" glyph-name="exclamdown" horiz-adv-x="579" unicode="¡"/><glyph d="M438 -82l35 217q-174 14 -287.5 124t-113.5 319q0 254 158.5 435t414.5 201l35 220h106l-34 -220q74 -4 137 -26.5t119.5 -68.5t87 -130t24.5 -198h-266q-2 150 -141 178l-95 -586q145 27 203 178h262q-29 -115 -85 -198.5t-128.5 -130t-143.5 -69t-146 -28.5l-35 -217 h-107zM354 608q0 -195 158 -225l94 586q-121 -23 -186.5 -127.5t-65.5 -233.5z" glyph-name="cent" horiz-adv-x="1140" unicode="¢"/><glyph d="M27 156q258 211 258 393q0 16 -4 41h-187l27 160h104q-45 102 -45 200q0 215 166 356.5t399 141.5q207 0 335 -113.5t96 -312.5l-7 -39h-282l2 31q12 63 -30 120.5t-150.5 57.5t-172 -62.5t-63.5 -156.5q0 -29 7 -60.5t14.5 -51t22.5 -57.5t22 -54h229l-27 -160h-170 q-2 -104 -63.5 -187.5t-183.5 -169.5q109 35 228.5 24t213.5 -28.5t276 23.5l-41 -252q-127 -27 -248.5 -19.5t-208.5 30t-202 19.5t-231 -50z" glyph-name="sterling" horiz-adv-x="1183" unicode="£"/><glyph d="M727 516q-133 0 -242 70l-77 -78l-191 188l90 90q-39 90 -39 189q0 100 43 196l-94 95l191 188l84 -84q109 63 235 64q133 0 242 -70l90 90l188 -188l-102 -103q41 -88 41 -188q0 -98 -37 -180l98 -99l-188 -188l-82 82q-113 -74 -250 -74zM512 975q0 -72 50 -143.5 t165 -71.5t166 71.5t51 143.5q0 70 -51 142.5t-166 72.5t-165 -72.5t-50 -142.5z" glyph-name="currency" horiz-adv-x="1323" unicode="¤"/><glyph d="M297 362l27 175h235l-371 897h349l231 -611l422 611h352l-655 -897h239l-26 -175h-246l-10 -65h246l-27 -174h-248l-18 -123h-318l21 123h-240l27 174h239l11 65h-240z" glyph-name="yen" horiz-adv-x="1443" unicode="¥"/><glyph d="M225 983l105 655h256l-105 -655h-256zM8 -389l103 655h256l-103 -655h-256z" glyph-name="brokenbar" horiz-adv-x="563" unicode="¦"/><glyph d="M541 -483q-266 0 -404.5 121.5t-120.5 353.5h336q-2 -98 54.5 -147.5t183.5 -49.5q121 0 194.5 40t85.5 112q12 78 -27.5 114.5t-146.5 63.5l-178 41q-205 49 -301 139t-65 277q25 143 124 239q-51 90 -30 228q29 186 195.5 293.5t414.5 107.5q240 0 374 -107.5 t124 -320.5h-334q2 84 -54.5 116.5t-152.5 32.5q-111 0 -168 -37.5t-65 -93.5q-6 -51 18.5 -85.5t103.5 -55.5l207 -51q236 -55 326 -157.5t63 -287.5q-20 -137 -118 -235q43 -86 24 -225q-33 -215 -218 -320.5t-445 -105.5zM483 573q-25 -104 125 -141l207 -51 q53 -12 125 -35q18 25 25 62q12 78 -29 118.5t-145 65.5l-179 41q-35 8 -84 22q-35 -33 -45 -82z" glyph-name="section" horiz-adv-x="1421" unicode="§"/><glyph d="M784 1190q-68 0 -117 47t-49 114.5t49.5 113.5t116.5 46q66 0 115 -47t49 -112q0 -68 -49 -115t-115 -47zM131 1352q0 66 49 112.5t114.5 46.5t115 -47t49.5 -112q0 -68 -49.5 -115t-115 -47t-114.5 47t-49 115z" glyph-name="dieresis" horiz-adv-x="819" unicode="¨"/><glyph d="M719 -14q-272 0 -447.5 170t-175.5 442q0 221 119 416.5t318.5 313.5t424.5 118q272 0 446.5 -170t174.5 -440q0 -221 -118 -418t-317.5 -314.5t-424.5 -117.5zM272 625q0 -211 133.5 -342t342.5 -131q266 0 460.5 195.5t194.5 461.5q0 209 -131 340t-340 131 q-268 0 -464 -194.5t-196 -460.5zM444 645q0 199 136.5 337t328.5 138q119 0 210 -65.5t98 -227.5h-179q-6 59 -51 90t-110 31q-109 0 -176.5 -80t-67.5 -194q0 -94 48 -142.5t128 -48.5q63 0 117.5 32t77.5 93h178q-37 -113 -111 -183.5t-143.5 -92t-145.5 -21.5 q-147 0 -242.5 86t-95.5 248z" glyph-name="copyright" horiz-adv-x="1613" unicode="©"/><glyph d="M317 766q-86 0 -141 41t-55 131q0 104 75.5 163.5t202.5 69.5l197 13q12 74 -12.5 103.5t-85.5 29.5q-123 0 -133 -90h-172q16 131 98 185t227 54q176 0 230.5 -78.5t25.5 -252.5l-57 -365h-158l8 117q-88 -121 -250 -121zM330 985q0 -63 78 -63q57 0 100 26.5t61 69.5 l9 53l-156 -12q-92 -8 -92 -74z" glyph-name="ordfeminine" horiz-adv-x="786" unicode="ª"/><glyph d="M815 203l-309 286l39 244l399 287l-43 -268l-194 -142l149 -137zM76 489l37 244l399 287l-41 -268l-197 -142l150 -137l-41 -270z" glyph-name="guillemotleft" horiz-adv-x="948" unicode="«"/><glyph d="M645 205l31 205h-588l35 229h887l-66 -434h-299z" glyph-name="logicalnot" horiz-adv-x="1099" unicode="¬"/><glyph d="M70 453l36 225h631l-37 -225h-630z" glyph-name="uni00AD" horiz-adv-x="794" unicode="­"/><glyph d="M719 -14q-272 0 -447.5 170t-175.5 442q0 221 119 416.5t318.5 313.5t424.5 118q272 0 446.5 -170t174.5 -440q0 -221 -118 -418t-317.5 -314.5t-424.5 -117.5zM272 625q0 -211 133.5 -342t342.5 -131q266 0 460.5 195.5t194.5 461.5q0 209 -131 340t-340 131 q-268 0 -464 -194.5t-196 -460.5zM483 371l111 694h377q115 0 175 -54.5t60 -150.5q0 -88 -51 -153.5t-137 -96.5l123 -239h-193l-108 221h-140l-34 -221h-183zM723 737h176q66 0 96.5 30t30.5 71q0 78 -98 77h-174z" glyph-name="registered" horiz-adv-x="1613" unicode="®"/><glyph d="M123 1300l27 175h671l-26 -175h-672z" glyph-name="macron" horiz-adv-x="671" unicode="¯"/><glyph d="M475 862q-133 0 -219 87t-86 214q0 129 86 216t219 87t219 -87t86 -216q0 -127 -86 -214t-219 -87zM371 1163q0 -41 27.5 -72.5t76.5 -31.5q51 0 78 31.5t27 72.5t-27 73t-78 32q-49 0 -76.5 -32t-27.5 -73z" glyph-name="degree" horiz-adv-x="749" unicode="°"/><glyph d="M199 0l37 225h702l-39 -225h-700zM156 821l39 258h372l60 373h274l-59 -373h379l-41 -258h-377l-60 -375h-274l59 375h-372z" glyph-name="plusminus" horiz-adv-x="1241" unicode="±"/><glyph d="M145 913q12 88 51.5 147.5t135.5 110.5q8 4 29.5 14.5t29.5 15.5t22.5 14.5t20.5 17.5t13.5 19.5t9.5 25.5q4 29 -15.5 45t-46 16t-51.5 -18t-29 -55l-2 -17h-116l2 17q10 80 67.5 129t147.5 49t131 -47t28 -121q-4 -20 -11 -38.5t-20.5 -35t-23.5 -28t-32.5 -25.5 t-34 -21.5t-40 -24t-38.5 -22.5q-70 -39 -80 -65l-4 -12h239l-14 -103h-371z" glyph-name="uni00B2" horiz-adv-x="540" unicode="²"/><glyph d="M346 893q-98 0 -144 48t-34 126h106q-4 -39 18.5 -60.5t63.5 -21.5q92 0 103 78q4 31 -18.5 53.5t-73.5 22.5h-23l12 84h23q80 0 94 57q6 31 -11.5 51.5t-51.5 20.5q-72 0 -84 -76h-107q10 78 66.5 123t138.5 45q84 0 126 -40t32 -104q-6 -45 -39 -75.5t-70 -38.5 q41 -2 71.5 -35t20.5 -98q-10 -72 -68.5 -116t-150.5 -44z" glyph-name="uni00B3" horiz-adv-x="565" unicode="³"/><glyph d="M104 1188l261 287h258l-261 -287h-258z" glyph-name="acute" horiz-adv-x="475" unicode="´"/><glyph d="M-39 -389l229 1454h299l-94 -604q-20 -117 25 -175.5t141 -58.5q98 0 166 59.5t88 180.5l94 598h299l-168 -1065h-299l35 223h-14q-31 -92 -127 -167.5t-244 -75.5q-39 0 -72 6l-59 -375h-299z" glyph-name="uni00B5" unicode="µ"/><glyph d="M465 -451l166 1047h-96q-199 0 -303.5 102.5t-104.5 259.5q0 197 159.5 336.5t381.5 139.5h796l-299 -1885h-241l270 1708h-193l-270 -1708h-266z" glyph-name="paragraph" horiz-adv-x="1427" unicode="¶"/><glyph d="M274 391q-74 0 -127 52.5t-53 126t53.5 126t126.5 52.5q76 0 129.5 -52.5t53.5 -126.5q0 -76 -53.5 -127t-129.5 -51z" glyph-name="periodcentered" horiz-adv-x="538" unicode="·"/><glyph d="M-68 -369q63 -4 107.5 17.5t44.5 62.5q0 43 -42 54.5t-85 -15.5l-66 98l162 152h197l-133 -113h12q74 0 117 -42t43 -113q0 -121 -109.5 -184.5t-271.5 -63.5z" glyph-name="cedilla" horiz-adv-x="417" unicode="¸"/><glyph d="M319 1288q-47 -57 -122 -37l16 109q37 -4 75 19.5t54 54.5h111l-84 -535h-111z" glyph-name="uni00B9" horiz-adv-x="401" unicode="¹"/><glyph d="M469 766q-137 0 -229.5 80t-92.5 223q0 164 116 280.5t286 116.5q133 0 222 -78.5t89 -222.5q0 -164 -111.5 -281.5t-279.5 -117.5zM348 1092q0 -66 36 -104t97 -38q78 0 127 55.5t49 133.5q0 66 -34.5 104.5t-96.5 38.5q-78 0 -128 -55t-50 -135z" glyph-name="ordmasculine" horiz-adv-x="819" unicode="º"/><glyph d="M156 1020l309 -287l-39 -244l-399 -286l43 268l194 141l-149 138zM459 203l41 268l196 141l-149 138l41 270l307 -287l-37 -244z" glyph-name="guillemotright" horiz-adv-x="946" unicode="»"/><glyph d="M319 1288q-47 -57 -122 -37l16 109q37 -4 75 19.5t54 54.5h111l-84 -535h-111zM-10 0l1120 1434h150l-1121 -1434h-149zM674 135l14 88l289 312h110l-49 -312h62l-15 -88h-61l-20 -135h-111l20 135h-239zM786 223h142l30 185z" glyph-name="onequarter" horiz-adv-x="1239" unicode="¼"/><glyph d="M313 1288q-47 -57 -123 -37l17 109q37 -4 74.5 19.5t54.5 54.5h110l-84 -535h-110zM0 0l1120 1434h150l-1120 -1434h-150zM672 0l2 12q12 88 51 147.5t135 110.5q8 4 29.5 14.5t30 15.5t22.5 14.5t20.5 17.5t13.5 19t9 26q4 29 -15.5 45t-46 16t-51 -18.5t-28.5 -54.5 l-2 -17h-117l2 17q10 80 67.5 129t147.5 49t131 -47t29 -121q-4 -20 -11.5 -39t-20.5 -35t-23.5 -27.5t-33 -26t-33.5 -21.5t-40 -23.5t-39 -22.5q-70 -39 -80 -65l-4 -13h240l-15 -102h-370z" glyph-name="onehalf" horiz-adv-x="1218" unicode="½"/><glyph d="M346 893q-98 0 -144 48t-34 126h106q-4 -39 18.5 -60.5t63.5 -21.5q92 0 103 78q4 31 -18.5 53.5t-73.5 22.5h-23l12 84h23q80 0 94 57q6 31 -11.5 51.5t-51.5 20.5q-72 0 -84 -76h-107q10 78 66.5 123t138.5 45q84 0 126 -40t32 -104q-6 -45 -39 -75.5t-70 -38.5 q41 -2 71.5 -35t20.5 -98q-10 -72 -68.5 -116t-150.5 -44zM-16 0l1120 1434h149l-1120 -1434h-149zM717 135l14 88l289 312h110l-49 -312h62l-15 -88h-61l-20 -135h-111l20 135h-239zM829 223h142l30 185z" glyph-name="threequarters" horiz-adv-x="1243" unicode="¾"/><glyph d="M709 545q-18 -102 -63.5 -176t-97.5 -114t-102.5 -71.5t-88.5 -70.5t-46 -90q-10 -57 25 -103.5t127 -46.5q201 0 239 240h299q-37 -256 -192.5 -376t-372.5 -120q-215 0 -334.5 108.5t-89.5 299.5q14 86 54 144t88.5 91t96.5 64.5t87 85t53 131.5l10 57h316zM430 907 q0 76 53.5 127t128.5 51q74 0 127.5 -52t53.5 -125.5t-53.5 -126t-127.5 -52.5q-76 0 -129 52t-53 126z" glyph-name="questiondown" horiz-adv-x="1159" unicode="¿"/><glyph d="M-49 0l745 1434h396l290 -1434h-317l-49 268h-602l-135 -268h-328zM526 496h447l-115 624h-18zM614 1843h258l172 -287h-260z" glyph-name="Agrave" horiz-adv-x="1501" unicode="À"/><glyph d="M-49 0l745 1434h396l290 -1434h-317l-49 268h-602l-135 -268h-328zM526 496h447l-115 624h-18zM770 1556l260 287h258l-260 -287h-258z" glyph-name="Aacute" horiz-adv-x="1501" unicode="Á"/><glyph d="M-49 0l745 1434h396l290 -1434h-317l-49 268h-602l-135 -268h-328zM512 1554l236 289h430l145 -289h-279l-96 197l-155 -197h-281zM526 496h447l-115 624h-18z" glyph-name="Acircumflex" horiz-adv-x="1501" unicode="Â"/><glyph d="M-49 0l745 1434h396l290 -1434h-317l-49 268h-602l-135 -268h-328zM526 496h447l-115 624h-18zM582 1628q14 113 76.5 175.5t162.5 62.5q51 0 93 -17.5t62.5 -39t45.5 -39t47 -17.5q70 0 80 57h176q-14 -111 -76.5 -173t-163.5 -62q-66 0 -110.5 27.5t-76.5 56.5t-62 29 q-70 0 -80 -60h-174z" glyph-name="Atilde" horiz-adv-x="1501" unicode="Ã"/><glyph d="M-49 0l745 1434h396l290 -1434h-317l-49 268h-602l-135 -268h-328zM526 496h447l-115 624h-18zM532 1720q0 66 49.5 113t115 47t114.5 -47t49 -113q0 -68 -49 -114.5t-114.5 -46.5t-115 46.5t-49.5 114.5zM1020 1720.5q0 67.5 49 113.5t117 46q66 0 115 -47t49 -113 q0 -68 -49.5 -114.5t-114.5 -46.5q-68 0 -117 47t-49 114.5z" glyph-name="Adieresis" horiz-adv-x="1501" unicode="Ä"/><glyph d="M-49 0l745 1434h396l290 -1434h-317l-49 268h-602l-135 -268h-328zM526 496h447l-115 624h-18zM729 1716q0 86 61.5 145.5t149.5 59.5q90 0 151.5 -59.5t61.5 -145.5t-61.5 -145.5t-151.5 -59.5q-88 0 -149.5 59.5t-61.5 145.5zM868 1716q0 -33 20.5 -52t51.5 -19 t52.5 20.5t21.5 50.5q0 33 -21.5 53.5t-52.5 20.5t-51.5 -20.5t-20.5 -53.5z" glyph-name="Aring" horiz-adv-x="1501" unicode="Å"/><glyph d="M-49 0l1194 1434h979l-43 -267h-672l-53 -321h610l-37 -240h-610l-51 -340h692l-43 -266h-999l40 264h-462l-220 -264h-325zM696 506h301l72 446z" glyph-name="AE" horiz-adv-x="2056" unicode="Æ"/><glyph d="M467 -369q63 -4 107 17.5t44 62.5q0 43 -41.5 54.5t-84.5 -15.5l-66 98l147 138q-227 29 -350 184.5t-123 425.5q0 362 209 609t563 247q252 0 401.5 -132t137.5 -384h-295q-10 131 -85 191.5t-189 60.5q-141 0 -242.5 -88t-145.5 -212t-44 -263q0 -178 77.5 -279.5 t227.5 -101.5q236 0 334 254h294q-55 -238 -209.5 -366t-367.5 -148l-115 -97h13q74 0 116.5 -42t42.5 -113q0 -121 -109.5 -184.5t-271.5 -63.5z" glyph-name="Ccedilla" horiz-adv-x="1409" unicode="Ç"/><glyph d="M23 0l227 1434h979l-43 -267h-672l-53 -321h610l-37 -240h-610l-51 -340h692l-43 -266h-999zM481 1843h258l172 -287h-260z" glyph-name="Egrave" horiz-adv-x="1161" unicode="È"/><glyph d="M23 0l227 1434h979l-43 -267h-672l-53 -321h610l-37 -240h-610l-51 -340h692l-43 -266h-999zM637 1556l260 287h258l-260 -287h-258z" glyph-name="Eacute" horiz-adv-x="1161" unicode="É"/><glyph d="M23 0l227 1434h979l-43 -267h-672l-53 -321h610l-37 -240h-610l-51 -340h692l-43 -266h-999zM377 1554l235 289h430l146 -289h-279l-96 197l-156 -197h-280z" glyph-name="Ecircumflex" horiz-adv-x="1161" unicode="Ê"/><glyph d="M23 0l227 1434h979l-43 -267h-672l-53 -321h610l-37 -240h-610l-51 -340h692l-43 -266h-999zM397 1720q0 66 49.5 113t115 47t114.5 -47t49 -113q0 -68 -49 -114.5t-114.5 -46.5t-115 46.5t-49.5 114.5zM885 1720.5q0 67.5 49 113.5t117 46q66 0 114.5 -47t48.5 -113 q0 -68 -49 -114.5t-114 -46.5q-68 0 -117 47t-49 114.5z" glyph-name="Edieresis" horiz-adv-x="1161" unicode="Ë"/><glyph d="M23 0l227 1434h307l-227 -1434h-307zM119 1843h258l172 -287h-260z" glyph-name="Igrave" horiz-adv-x="520" unicode="Ì"/><glyph d="M23 0l227 1434h307l-227 -1434h-307zM274 1556l261 287h258l-261 -287h-258z" glyph-name="Iacute" horiz-adv-x="520" unicode="Í"/><glyph d="M23 0l227 1434h307l-227 -1434h-307zM14 1554l236 289h430l145 -289h-278l-96 197l-156 -197h-281z" glyph-name="Icircumflex" horiz-adv-x="520" unicode="Î"/><glyph d="M23 0l227 1434h307l-227 -1434h-307zM35 1720q0 66 49 113t114.5 47t114.5 -47t49 -113q0 -68 -49 -114.5t-114.5 -46.5t-114.5 46.5t-49 114.5zM522 1720.5q0 67.5 49.5 113.5t116.5 46q66 0 115 -47t49 -113q0 -68 -49 -114.5t-115 -46.5q-68 0 -117 47t-49 114.5z" glyph-name="Idieresis" horiz-adv-x="520" unicode="Ï"/><glyph d="M92 0l94 592h-155l37 225h153l98 617h535q575 0 576 -592q0 -371 -208 -606.5t-579 -235.5h-551zM442 266h197q248 0 364.5 157t116.5 406q0 186 -74.5 262t-252.5 76h-209l-56 -350h170l-36 -225h-168z" glyph-name="Eth" horiz-adv-x="1472" unicode="Ð"/><glyph d="M23 0l227 1434h319l422 -936h8l150 936h307l-227 -1434h-332l-418 915h-6l-143 -915h-307zM539 1628q14 113 76.5 175.5t162.5 62.5q51 0 93 -17.5t62.5 -39t45.5 -39t47 -17.5q70 0 80 57h176q-14 -111 -76.5 -173t-163.5 -62q-51 0 -92 17.5t-61.5 39t-46 39 t-49.5 17.5q-70 0 -80 -60h-174z" glyph-name="Ntilde" horiz-adv-x="1419" unicode="Ñ"/><glyph d="M686 -20q-276 0 -433 163.5t-157 452.5q0 229 95.5 423.5t276.5 313.5t411 119q276 0 431.5 -163t155.5 -449q0 -356 -218 -608t-562 -252zM410 604q0 -176 77.5 -268t221.5 -92q141 0 245.5 90t151.5 221t47 276q0 176 -76 266.5t-219 90.5q-141 0 -245.5 -88 t-153.5 -218.5t-49 -277.5zM614 1843h258l172 -287h-260z" glyph-name="Ograve" horiz-adv-x="1507" unicode="Ò"/><glyph d="M686 -20q-276 0 -433 163.5t-157 452.5q0 229 95.5 423.5t276.5 313.5t411 119q276 0 431.5 -163t155.5 -449q0 -356 -218 -608t-562 -252zM410 604q0 -176 77.5 -268t221.5 -92q141 0 245.5 90t151.5 221t47 276q0 176 -76 266.5t-219 90.5q-141 0 -245.5 -88 t-153.5 -218.5t-49 -277.5zM770 1556l260 287h258l-260 -287h-258z" glyph-name="Oacute" horiz-adv-x="1507" unicode="Ó"/><glyph d="M686 -20q-276 0 -433 163.5t-157 452.5q0 229 95.5 423.5t276.5 313.5t411 119q276 0 431.5 -163t155.5 -449q0 -356 -218 -608t-562 -252zM410 604q0 -176 77.5 -268t221.5 -92q141 0 245.5 90t151.5 221t47 276q0 176 -76 266.5t-219 90.5q-141 0 -245.5 -88 t-153.5 -218.5t-49 -277.5zM510 1554l235 289h431l145 -289h-279l-96 197l-155 -197h-281z" glyph-name="Ocircumflex" horiz-adv-x="1507" unicode="Ô"/><glyph d="M686 -20q-276 0 -433 163.5t-157 452.5q0 229 95.5 423.5t276.5 313.5t411 119q276 0 431.5 -163t155.5 -449q0 -356 -218 -608t-562 -252zM410 604q0 -176 77.5 -268t221.5 -92q141 0 245.5 90t151.5 221t47 276q0 176 -76 266.5t-219 90.5q-141 0 -245.5 -88 t-153.5 -218.5t-49 -277.5zM582 1628q14 113 76.5 175.5t162.5 62.5q51 0 93 -17.5t62.5 -39t45.5 -39t47 -17.5q70 0 80 57h176q-14 -111 -76.5 -173t-163.5 -62q-66 0 -110.5 27.5t-76.5 56.5t-62 29q-70 0 -80 -60h-174z" glyph-name="Otilde" horiz-adv-x="1507" unicode="Õ"/><glyph d="M686 -20q-276 0 -433 163.5t-157 452.5q0 229 95.5 423.5t276.5 313.5t411 119q276 0 431.5 -163t155.5 -449q0 -356 -218 -608t-562 -252zM410 604q0 -176 77.5 -268t221.5 -92q141 0 245.5 90t151.5 221t47 276q0 176 -76 266.5t-219 90.5q-141 0 -245.5 -88 t-153.5 -218.5t-49 -277.5zM530 1720q0 66 49.5 113t115 47t114.5 -47t49 -113q0 -68 -49 -114.5t-114.5 -46.5t-115 46.5t-49.5 114.5zM1018 1720.5q0 67.5 49 113.5t117 46q66 0 115 -47t49 -113q0 -68 -49.5 -114.5t-114.5 -46.5q-68 0 -117 47t-49 114.5z" glyph-name="Odieresis" horiz-adv-x="1507" unicode="Ö"/><glyph d="M209 59l-154 181l318 272l-230 272l213 181l228 -271l317 271l154 -181l-318 -272l230 -272l-213 -181l-228 271z" glyph-name="multiply" horiz-adv-x="1116" unicode="×"/><glyph d="M102 -102l162 235q-168 162 -168 463q0 229 95.5 423.5t276.5 313.5t411 119q147 0 260 -47l84 121h252l-164 -238q156 -162 155 -448q0 -356 -218 -608t-562 -252q-141 0 -248 43l-86 -125h-250zM410 604q0 -125 36 -205l531 768q-49 20 -119 21q-141 0 -245.5 -88 t-153.5 -218.5t-49 -277.5zM602 260q49 -16 107 -16q141 0 245.5 90t151.5 221t47 276q0 109 -29 185z" glyph-name="Oslash" horiz-adv-x="1507" unicode="Ø"/><glyph d="M614 -20q-272 0 -411.5 143t-93.5 422l141 889h309l-137 -867q-25 -156 40.5 -238.5t201.5 -82.5q268 0 317 321l139 867h310l-142 -889q-45 -279 -224.5 -422t-449.5 -143zM535 1843h258l172 -287h-260z" glyph-name="Ugrave" horiz-adv-x="1392" unicode="Ù"/><glyph d="M614 -20q-272 0 -411.5 143t-93.5 422l141 889h309l-137 -867q-25 -156 40.5 -238.5t201.5 -82.5q268 0 317 321l139 867h310l-142 -889q-45 -279 -224.5 -422t-449.5 -143zM690 1556l260 287h258l-260 -287h-258z" glyph-name="Uacute" horiz-adv-x="1392" unicode="Ú"/><glyph d="M614 -20q-272 0 -411.5 143t-93.5 422l141 889h309l-137 -867q-25 -156 40.5 -238.5t201.5 -82.5q268 0 317 321l139 867h310l-142 -889q-45 -279 -224.5 -422t-449.5 -143zM430 1554l236 289h430l145 -289h-278l-97 197l-155 -197h-281z" glyph-name="Ucircumflex" horiz-adv-x="1392" unicode="Û"/><glyph d="M614 -20q-272 0 -411.5 143t-93.5 422l141 889h309l-137 -867q-25 -156 40.5 -238.5t201.5 -82.5q268 0 317 321l139 867h310l-142 -889q-45 -279 -224.5 -422t-449.5 -143zM451 1720q0 66 49 113t114.5 47t114.5 -47t49 -113q0 -68 -49 -114.5t-114.5 -46.5t-114.5 46.5 t-49 114.5zM938 1720.5q0 67.5 49 113.5t117 46q66 0 115 -47t49 -113q0 -68 -49.5 -114.5t-114.5 -46.5q-68 0 -117 47t-49 114.5z" glyph-name="Udieresis" horiz-adv-x="1392" unicode="Ü"/><glyph d="M479 0l84 526l-375 908h349l231 -611l422 611h352l-663 -908l-82 -526h-318zM737 1556l260 287h258l-260 -287h-258z" glyph-name="Yacute" horiz-adv-x="1443" unicode="Ý"/><glyph d="M23 0l227 1434h307l-37 -238h305q479 0 480 -405q0 -250 -171 -400.5t-460 -150.5h-305l-39 -240h-307zM410 508h297q131 0 205.5 65.5t74.5 176.5q0 180 -215 180h-295z" glyph-name="Thorn" horiz-adv-x="1327" unicode="Þ"/><glyph d="M174 969q82 483 582 483q213 0 337 -86t124 -252q0 -123 -70 -208t-186 -105q102 -20 170.5 -98t68.5 -226q0 -229 -170 -353t-459 -124h-79l40 256h76q137 0 215 57.5t78 163.5q0 186 -260 187h-43l33 225h43q113 0 173 45t60 125q0 137 -180 137q-115 0 -174 -55.5 t-80 -171.5l-151 -969h-299z" glyph-name="germandbls" horiz-adv-x="1271" unicode="ß"/><glyph d="M307 -20q-129 0 -211 60t-82 198q0 295 426 358l189 31q74 10 103.5 27.5t37.5 52.5l4 24q14 70 -22.5 103.5t-122.5 33.5q-172 0 -201 -135l-4 -22l-281 -2l7 49q51 328 516 327q238 0 335 -85t68 -261l-119 -739h-284l30 188h-12q-16 -29 -39.5 -58.5t-69 -66t-115 -60 t-153.5 -23.5zM319 297q0 -104 134 -104q100 0 174.5 54t87.5 122l20 123q-8 -10 -19 -16.5t-29.5 -11.5t-26 -7t-35 -7.5t-31.5 -5.5l-135 -22q-140 -25 -140 -125zM379 1475h258l172 -287h-260z" glyph-name="agrave" horiz-adv-x="1140" unicode="à"/><glyph d="M307 -20q-129 0 -211 60t-82 198q0 295 426 358l189 31q74 10 103.5 27.5t37.5 52.5l4 24q14 70 -22.5 103.5t-122.5 33.5q-172 0 -201 -135l-4 -22l-281 -2l7 49q51 328 516 327q238 0 335 -85t68 -261l-119 -739h-284l30 188h-12q-16 -29 -39.5 -58.5t-69 -66t-115 -60 t-153.5 -23.5zM319 297q0 -104 134 -104q100 0 174.5 54t87.5 122l20 123q-8 -10 -19 -16.5t-29.5 -11.5t-26 -7t-35 -7.5t-31.5 -5.5l-135 -22q-140 -25 -140 -125zM535 1188l260 287h258l-260 -287h-258z" glyph-name="aacute" horiz-adv-x="1140" unicode="á"/><glyph d="M307 -20q-129 0 -211 60t-82 198q0 295 426 358l189 31q74 10 103.5 27.5t37.5 52.5l4 24q14 70 -22.5 103.5t-122.5 33.5q-172 0 -201 -135l-4 -22l-281 -2l7 49q51 328 516 327q238 0 335 -85t68 -261l-119 -739h-284l30 188h-12q-16 -29 -39.5 -58.5t-69 -66t-115 -60 t-153.5 -23.5zM274 1186l236 289h430l145 -289h-278l-96 196l-156 -196h-281zM319 297q0 -104 134 -104q100 0 174.5 54t87.5 122l20 123q-8 -10 -19 -16.5t-29.5 -11.5t-26 -7t-35 -7.5t-31.5 -5.5l-135 -22q-140 -25 -140 -125z" glyph-name="acircumflex" horiz-adv-x="1140" unicode="â"/><glyph d="M307 -20q-129 0 -211 60t-82 198q0 295 426 358l189 31q74 10 103.5 27.5t37.5 52.5l4 24q14 70 -22.5 103.5t-122.5 33.5q-172 0 -201 -135l-4 -22l-281 -2l7 49q51 328 516 327q238 0 335 -85t68 -261l-119 -739h-284l30 188h-12q-16 -29 -39.5 -58.5t-69 -66t-115 -60 t-153.5 -23.5zM319 297q0 -104 134 -104q100 0 174.5 54t87.5 122l20 123q-8 -10 -19 -16.5t-29.5 -11.5t-26 -7t-35 -7.5t-31.5 -5.5l-135 -22q-140 -25 -140 -125zM346 1260q14 113 76.5 175t163.5 62q51 0 93 -17.5t62.5 -39t45 -39t47.5 -17.5q70 0 79 58h177 q-14 -111 -77 -173.5t-163 -62.5q-51 0 -92 17.5t-61.5 39t-46 39t-50.5 17.5q-70 0 -80 -59h-174z" glyph-name="atilde" horiz-adv-x="1140" unicode="ã"/><glyph d="M307 -20q-129 0 -211 60t-82 198q0 295 426 358l189 31q74 10 103.5 27.5t37.5 52.5l4 24q14 70 -22.5 103.5t-122.5 33.5q-172 0 -201 -135l-4 -22l-281 -2l7 49q51 328 516 327q238 0 335 -85t68 -261l-119 -739h-284l30 188h-12q-16 -29 -39.5 -58.5t-69 -66t-115 -60 t-153.5 -23.5zM295 1352q0 66 49 112.5t114.5 46.5t115 -47t49.5 -112q0 -68 -49.5 -115t-115 -47t-114.5 47t-49 115zM319 297q0 -104 134 -104q100 0 174.5 54t87.5 122l20 123q-8 -10 -19 -16.5t-29.5 -11.5t-26 -7t-35 -7.5t-31.5 -5.5l-135 -22q-140 -25 -140 -125z M782 1351.5q0 67.5 49.5 113.5t116.5 46q66 0 115 -47t49 -112q0 -68 -49 -115t-115 -47q-68 0 -117 47t-49 114.5z" glyph-name="adieresis" horiz-adv-x="1140" unicode="ä"/><glyph d="M307 -20q-129 0 -211 60t-82 198q0 295 426 358l189 31q74 10 103.5 27.5t37.5 52.5l4 24q14 70 -22.5 103.5t-122.5 33.5q-172 0 -201 -135l-4 -22l-281 -2l7 49q51 328 516 327q238 0 335 -85t68 -261l-119 -739h-284l30 188h-12q-16 -29 -39.5 -58.5t-69 -66t-115 -60 t-153.5 -23.5zM319 297q0 -104 134 -104q100 0 174.5 54t87.5 122l20 123q-8 -10 -19 -16.5t-29.5 -11.5t-26 -7t-35 -7.5t-31.5 -5.5l-135 -22q-140 -25 -140 -125zM494 1348q0 86 61 145t150 59q90 0 151.5 -59t61.5 -145t-61.5 -145.5t-151.5 -59.5q-88 0 -149.5 59.5 t-61.5 145.5zM633 1347.5q0 -32.5 20.5 -52t51 -19.5t52 20.5t21.5 51.5q0 33 -21.5 53t-52 20t-51 -20.5t-20.5 -53z" glyph-name="aring" horiz-adv-x="1140" unicode="å"/><glyph d="M352 -20q-338 0 -338 272q0 172 124 267t327 95h287l18 109q12 76 -32 106.5t-121.5 30.5t-127 -26.5t-65.5 -104.5l-4 -20l-268 -2l8 59q51 319 495 319q242 0 322 -116q156 117 371 116q199 0 319.5 -102t120.5 -321q0 -135 -29 -205h-741q2 -143 55 -201.5t162 -58.5 q166 0 235 143h263q-68 -180 -207.5 -273.5t-331.5 -93.5q-291 0 -401 205q-55 -74 -164 -136t-277 -62zM319 305q0 -109 138 -108q106 0 175.5 59t84.5 137l8 56h-215q-80 0 -135.5 -39t-55.5 -105zM1036 618h477q14 106 -34.5 173t-165.5 67q-115 0 -183.5 -65.5 t-93.5 -174.5z" glyph-name="ae" horiz-adv-x="1837" unicode="æ"/><glyph d="M293 -369q63 -4 107 17.5t44 62.5q0 43 -42 54.5t-85 -15.5l-65 98l149 140q-156 27 -254 136t-98 308q0 274 175 463.5t454 189.5q80 0 149.5 -18t137 -63.5t103.5 -135.5t30 -219h-267q-2 94 -54 140.5t-140 46.5q-145 0 -225 -112t-80 -259q0 -236 211 -236 q188 0 256 187h262q-51 -209 -180 -309.5t-287 -120.5l-117 -99h12q74 0 117 -42t43 -113q0 -121 -109.5 -184.5t-271.5 -63.5z" glyph-name="ccedilla" horiz-adv-x="1140" unicode="ç"/><glyph d="M508 -27q-203 0 -330 112t-127 355q0 276 166 460.5t445 184.5q199 0 319.5 -102t120.5 -321q0 -135 -29 -205h-741q2 -143 55 -201.5t162 -58.5q166 0 235 143h263q-68 -180 -207 -273.5t-332 -93.5zM350 618h477q14 106 -35 173t-165 67q-115 0 -183.5 -65.5 t-93.5 -174.5zM377 1475h258l172 -287h-260z" glyph-name="egrave" horiz-adv-x="1150" unicode="è"/><glyph d="M508 -27q-203 0 -330 112t-127 355q0 276 166 460.5t445 184.5q199 0 319.5 -102t120.5 -321q0 -135 -29 -205h-741q2 -143 55 -201.5t162 -58.5q166 0 235 143h263q-68 -180 -207 -273.5t-332 -93.5zM350 618h477q14 106 -35 173t-165 67q-115 0 -183.5 -65.5 t-93.5 -174.5zM532 1188l261 287h258l-260 -287h-259z" glyph-name="eacute" horiz-adv-x="1150" unicode="é"/><glyph d="M508 -27q-203 0 -330 112t-127 355q0 276 166 460.5t445 184.5q199 0 319.5 -102t120.5 -321q0 -135 -29 -205h-741q2 -143 55 -201.5t162 -58.5q166 0 235 143h263q-68 -180 -207 -273.5t-332 -93.5zM272 1186l236 289h430l145 -289h-278l-96 196l-156 -196h-281z M350 618h477q14 106 -35 173t-165 67q-115 0 -183.5 -65.5t-93.5 -174.5z" glyph-name="ecircumflex" horiz-adv-x="1150" unicode="ê"/><glyph d="M508 -27q-203 0 -330 112t-127 355q0 276 166 460.5t445 184.5q199 0 319.5 -102t120.5 -321q0 -135 -29 -205h-741q2 -143 55 -201.5t162 -58.5q166 0 235 143h263q-68 -180 -207 -273.5t-332 -93.5zM293 1352q0 66 49 112.5t114.5 46.5t115 -47t49.5 -112 q0 -68 -49.5 -115t-115 -47t-114.5 47t-49 115zM350 618h477q14 106 -35 173t-165 67q-115 0 -183.5 -65.5t-93.5 -174.5zM780 1351.5q0 67.5 49.5 113.5t116.5 46q66 0 115 -47t49 -112q0 -68 -49 -115t-115 -47q-68 0 -117 47t-49 114.5z" glyph-name="edieresis" horiz-adv-x="1150" unicode="ë"/><glyph d="M4 0l168 1065h299l-168 -1065h-299zM39 1475h258l172 -287h-260z" glyph-name="igrave" horiz-adv-x="479" unicode="ì"/><glyph d="M4 0l168 1065h299l-168 -1065h-299zM195 1188l260 287h258l-260 -287h-258z" glyph-name="iacute" horiz-adv-x="479" unicode="í"/><glyph d="M4 0l168 1065h299l-168 -1065h-299zM-66 1186l236 289h430l145 -289h-278l-96 196l-156 -196h-281z" glyph-name="icircumflex" horiz-adv-x="479" unicode="î"/><glyph d="M4 0l168 1065h299l-168 -1065h-299zM-43 1352q0 66 49 112.5t114.5 46.5t115 -47t49.5 -112q0 -68 -49.5 -115t-115 -47t-114.5 47t-49 115zM444 1351.5q0 67.5 49.5 113.5t116.5 46q66 0 115 -47t49 -112q0 -68 -49 -115t-115 -47q-68 0 -117 47t-49 114.5z" glyph-name="idieresis" horiz-adv-x="479" unicode="ï"/><glyph d="M502 -20q-197 0 -326 111.5t-129 328.5q0 264 160 454.5t409 190.5q121 0 197 -57q-37 111 -82 192h-272l20 133h170q-41 53 -84 101h301l64 -101h276l-20 -133h-180q129 -238 129 -440q0 -336 -170 -558t-463 -222zM346 457q0 -113 53.5 -167t137.5 -54 q131 0 207.5 112.5t76.5 251.5q0 109 -53 159t-139 50q-135 0 -209 -104.5t-74 -247.5z" glyph-name="eth" horiz-adv-x="1218" unicode="ð"/><glyph d="M836 604q20 117 -25 175.5t-141 58.5q-98 0 -166 -59.5t-88 -180.5l-94 -598h-299l167 1065h299l-34 -223h14q31 92 127 167.5t244 75.5q166 0 252 -104t55 -305l-107 -676h-299zM385 1260q14 113 76.5 175t163.5 62q51 0 93 -17.5t62.5 -39t45 -39t46.5 -17.5 q70 0 80 58h176q-14 -111 -76.5 -173.5t-162.5 -62.5q-66 0 -111 28t-76.5 56.5t-62.5 28.5q-70 0 -80 -59h-174z" glyph-name="ntilde" unicode="ñ"/><glyph d="M506 -20q-197 0 -326 114.5t-129 341.5q0 270 175 459.5t448 189.5q197 0 325.5 -114.5t128.5 -341.5q0 -270 -175 -459.5t-447 -189.5zM336 467q0 -121 56.5 -180.5t150.5 -59.5q141 0 221 112t80 259q0 121 -56.5 180.5t-150.5 59.5q-141 0 -221 -112t-80 -259z M391 1475h258l172 -287h-260z" glyph-name="ograve" horiz-adv-x="1179" unicode="ò"/><glyph d="M506 -20q-197 0 -326 114.5t-129 341.5q0 270 175 459.5t448 189.5q197 0 325.5 -114.5t128.5 -341.5q0 -270 -175 -459.5t-447 -189.5zM336 467q0 -121 56.5 -180.5t150.5 -59.5q141 0 221 112t80 259q0 121 -56.5 180.5t-150.5 59.5q-141 0 -221 -112t-80 -259z M547 1188l260 287h258l-260 -287h-258z" glyph-name="oacute" horiz-adv-x="1179" unicode="ó"/><glyph d="M506 -20q-197 0 -326 114.5t-129 341.5q0 270 175 459.5t448 189.5q197 0 325.5 -114.5t128.5 -341.5q0 -270 -175 -459.5t-447 -189.5zM287 1186l235 289h430l146 -289h-279l-96 196l-156 -196h-280zM336 467q0 -121 56.5 -180.5t150.5 -59.5q141 0 221 112t80 259 q0 121 -56.5 180.5t-150.5 59.5q-141 0 -221 -112t-80 -259z" glyph-name="ocircumflex" horiz-adv-x="1179" unicode="ô"/><glyph d="M506 -20q-197 0 -326 114.5t-129 341.5q0 270 175 459.5t448 189.5q197 0 325.5 -114.5t128.5 -341.5q0 -270 -175 -459.5t-447 -189.5zM336 467q0 -121 56.5 -180.5t150.5 -59.5q141 0 221 112t80 259q0 121 -56.5 180.5t-150.5 59.5q-141 0 -221 -112t-80 -259z M358 1260q14 113 77 175t163 62q51 0 93 -17.5t62.5 -39t45 -39t47.5 -17.5q70 0 80 58h176q-14 -111 -76.5 -173.5t-163.5 -62.5q-51 0 -92 17.5t-61.5 39t-46 39t-50.5 17.5q-70 0 -80 -59h-174z" glyph-name="otilde" horiz-adv-x="1179" unicode="õ"/><glyph d="M506 -20q-197 0 -326 114.5t-129 341.5q0 270 175 459.5t448 189.5q197 0 325.5 -114.5t128.5 -341.5q0 -270 -175 -459.5t-447 -189.5zM307 1352q0 66 49.5 112.5t115 46.5t114.5 -47t49 -112q0 -68 -49 -115t-114.5 -47t-115 47t-49.5 115zM336 467q0 -121 56.5 -180.5 t150.5 -59.5q141 0 221 112t80 259q0 121 -56.5 180.5t-150.5 59.5q-141 0 -221 -112t-80 -259zM795 1351.5q0 67.5 49 113.5t117 46q66 0 114.5 -47t48.5 -112q0 -68 -49 -115t-114 -47q-68 0 -117 47t-49 114.5z" glyph-name="odieresis" horiz-adv-x="1179" unicode="ö"/><glyph d="M516 786q-55 0 -92 38t-37 91.5t37 90t92 36.5q53 0 90 -36.5t37 -90t-37 -91.5t-90 -38zM94 453l39 225h684l-41 -225h-682zM279 219q0 53 36.5 89t92.5 36q53 0 90 -37t37 -88q0 -55 -37 -93t-90 -38q-55 0 -92 38t-37 93z" glyph-name="divide" horiz-adv-x="897" unicode="÷"/><glyph d="M63 -102l123 190q-135 121 -135 348q0 270 175 459.5t448 189.5q84 0 151 -20l78 119h215l-131 -201q141 -121 141 -354q0 -270 -175 -459.5t-447 -189.5q-90 0 -160 22l-67 -104h-216zM336 467q0 -66 20 -121l320 490q-12 2 -39 2q-141 0 -221 -112t-80 -259zM496 231 q33 -4 47 -4q141 0 221 112t80 259q0 78 -25 129z" glyph-name="oslash" horiz-adv-x="1179" unicode="ø"/><glyph d="M395 461q-20 -117 25 -175.5t141 -58.5q98 0 166 59.5t88 180.5l94 598h299l-168 -1065h-299l35 223h-14q-31 -92 -127 -167.5t-244 -75.5q-166 0 -252 104t-55 305l106 676h299zM412 1475h258l172 -287h-260z" glyph-name="ugrave" unicode="ù"/><glyph d="M395 461q-20 -117 25 -175.5t141 -58.5q98 0 166 59.5t88 180.5l94 598h299l-168 -1065h-299l35 223h-14q-31 -92 -127 -167.5t-244 -75.5q-166 0 -252 104t-55 305l106 676h299zM567 1188l260 287h258l-260 -287h-258z" glyph-name="uacute" unicode="ú"/><glyph d="M395 461q-20 -117 25 -175.5t141 -58.5q98 0 166 59.5t88 180.5l94 598h299l-168 -1065h-299l35 223h-14q-31 -92 -127 -167.5t-244 -75.5q-166 0 -252 104t-55 305l106 676h299zM309 1186l236 289h430l145 -289h-278l-97 196l-155 -196h-281z" glyph-name="ucircumflex" unicode="û"/><glyph d="M395 461q-20 -117 25 -175.5t141 -58.5q98 0 166 59.5t88 180.5l94 598h299l-168 -1065h-299l35 223h-14q-31 -92 -127 -167.5t-244 -75.5q-166 0 -252 104t-55 305l106 676h299zM330 1352q0 66 49 112.5t114.5 46.5t114.5 -47t49 -112q0 -68 -49 -115t-114.5 -47 t-114.5 47t-49 115zM817 1351.5q0 67.5 49 113.5t117 46q66 0 115 -47t49 -112q0 -68 -49 -115t-115 -47q-68 0 -117 47t-49 114.5z" glyph-name="udieresis" unicode="ü"/><glyph d="M33 -156q219 -27 301 105q43 70 24 145l-239 971h305l139 -688l363 688h309l-602 -1071q-141 -250 -278.5 -338t-358.5 -66zM549 1188l260 287h258l-260 -287h-258z" glyph-name="yacute" horiz-adv-x="1185" unicode="ý"/><glyph d="M-39 -389l289 1823h299l-84 -521q41 72 135 122t209 50q160 0 272.5 -107.5t112.5 -315.5q0 -279 -158.5 -480.5t-400.5 -201.5q-115 0 -191.5 48t-99.5 122l-84 -539h-299zM387 471q0 -121 60.5 -182.5t154.5 -61.5q135 0 219 111t84 262q0 119 -59.5 178.5t-155.5 59.5 q-133 0 -218 -111t-85 -256z" glyph-name="thorn" horiz-adv-x="1241" unicode="þ"/><glyph d="M33 -156q219 -27 301 105q43 70 24 145l-239 971h305l139 -688l363 688h309l-602 -1071q-141 -250 -278.5 -338t-358.5 -66zM309 1352q0 66 49.5 112.5t115 46.5t114.5 -47t49 -112q0 -68 -49 -115t-114.5 -47t-115 47t-49.5 115zM797 1351.5q0 67.5 49 113.5t117 46 q66 0 114.5 -47t48.5 -112q0 -68 -49 -115t-114 -47q-68 0 -117 47t-49 114.5z" glyph-name="ydieresis" horiz-adv-x="1185" unicode="ÿ"/><glyph d="M-49 0l745 1434h396l290 -1434h-317l-49 268h-602l-135 -268h-328zM526 496h447l-115 624h-18zM600 1669l27 174h671l-26 -174h-672z" glyph-name="Amacron" horiz-adv-x="1501" unicode="Ā"/><glyph d="M307 -20q-129 0 -211 60t-82 198q0 295 426 358l189 31q74 10 103.5 27.5t37.5 52.5l4 24q14 70 -22.5 103.5t-122.5 33.5q-172 0 -201 -135l-4 -22l-281 -2l7 49q51 328 516 327q238 0 335 -85t68 -261l-119 -739h-284l30 188h-12q-16 -29 -39.5 -58.5t-69 -66t-115 -60 t-153.5 -23.5zM319 297q0 -104 134 -104q100 0 174.5 54t87.5 122l20 123q-8 -10 -19 -16.5t-29.5 -11.5t-26 -7t-35 -7.5t-31.5 -5.5l-135 -22q-140 -25 -140 -125zM365 1300l26 175h672l-27 -175h-671z" glyph-name="amacron" horiz-adv-x="1140" unicode="ā"/><glyph d="M-49 0l745 1434h396l290 -1434h-317l-49 268h-602l-135 -268h-328zM526 496h447l-115 624h-18zM614 1843h197q-12 -145 133 -145q139 0 168 145h199q-25 -150 -124.5 -232.5t-266.5 -82.5q-172 0 -251.5 84t-54.5 231z" glyph-name="Abreve" horiz-adv-x="1501" unicode="Ă"/><glyph d="M307 -20q-129 0 -211 60t-82 198q0 295 426 358l189 31q74 10 103.5 27.5t37.5 52.5l4 24q14 70 -22.5 103.5t-122.5 33.5q-172 0 -201 -135l-4 -22l-281 -2l7 49q51 328 516 327q238 0 335 -85t68 -261l-119 -739h-284l30 188h-12q-16 -29 -39.5 -58.5t-69 -66t-115 -60 t-153.5 -23.5zM319 297q0 -104 134 -104q100 0 174.5 54t87.5 122l20 123q-8 -10 -19 -16.5t-29.5 -11.5t-26 -7t-35 -7.5t-31.5 -5.5l-135 -22q-140 -25 -140 -125zM379 1475h196q-12 -145 134 -146q139 0 168 146h198q-25 -150 -124 -233t-267 -83q-172 0 -251 84.5 t-54 231.5z" glyph-name="abreve" horiz-adv-x="1140" unicode="ă"/><glyph d="M-49 0l745 1434h396l290 -1434q-125 0 -198.5 -45t-73.5 -117q0 -49 41 -66.5t98 1.5l-26 -166q-37 -16 -92.5 -18.5t-111.5 11t-96 58.5t-40 115q0 162 178 252l-45 243h-602l-135 -268h-328zM526 496h447l-115 624h-18z" glyph-name="Aogonek" horiz-adv-x="1501" unicode="Ą"/><glyph d="M307 -20q-129 0 -211 60t-82 198q0 295 426 358l189 31q74 10 103.5 27.5t37.5 52.5l4 24q14 70 -22.5 103.5t-122.5 33.5q-172 0 -201 -135l-4 -22l-281 -2l7 49q51 328 516 327q238 0 335 -85t68 -261l-119 -739q-125 0 -198.5 -45t-73.5 -117q0 -49 40 -66.5t99 1.5 l-26 -166q-37 -16 -92.5 -18.5t-112 11t-96 58.5t-39.5 115q0 90 62 162.5t159 107.5l24 145h-12q-16 -29 -39.5 -58.5t-69 -66t-115 -60t-153.5 -23.5zM319 297q0 -104 134 -104q100 0 174.5 54t87.5 122l20 123q-8 -10 -19 -16.5t-29.5 -11.5t-26 -7t-35 -7.5t-31.5 -5.5 l-135 -22q-140 -25 -140 -125z" glyph-name="aogonek" horiz-adv-x="1140" unicode="ą"/><glyph d="M680 -20q-276 0 -428 157.5t-152 458.5q0 362 209 609t563 247q252 0 401.5 -132t137.5 -384h-295q-10 131 -85 191.5t-189 60.5q-141 0 -242.5 -88t-145.5 -212t-44 -263q0 -178 77.5 -279.5t227.5 -101.5q236 0 334 254h294q-61 -262 -240 -390t-423 -128zM778 1556 l260 287h258l-260 -287h-258z" glyph-name="Cacute" horiz-adv-x="1409" unicode="Ć"/><glyph d="M506 -20q-195 0 -326 110.5t-131 341.5q0 274 175 463.5t454 189.5q80 0 149.5 -18t137 -63.5t103.5 -135.5t30 -219h-267q-2 94 -54 140.5t-140 46.5q-145 0 -225 -112t-80 -259q0 -236 211 -236q188 0 256 187h262q-31 -127 -95.5 -217t-146.5 -135.5t-157.5 -64.5 t-155.5 -19zM530 1188l261 287h258l-261 -287h-258z" glyph-name="cacute" horiz-adv-x="1140" unicode="ć"/><glyph d="M680 -20q-276 0 -428 157.5t-152 458.5q0 362 209 609t563 247q252 0 401.5 -132t137.5 -384h-295q-10 131 -85 191.5t-189 60.5q-141 0 -242.5 -88t-145.5 -212t-44 -263q0 -178 77.5 -279.5t227.5 -101.5q236 0 334 254h294q-61 -262 -240 -390t-423 -128zM520 1554 l236 289h430l145 -289h-278l-97 197l-155 -197h-281z" glyph-name="Ccircumflex" horiz-adv-x="1409" unicode="Ĉ"/><glyph d="M506 -20q-195 0 -326 110.5t-131 341.5q0 274 175 463.5t454 189.5q80 0 149.5 -18t137 -63.5t103.5 -135.5t30 -219h-267q-2 94 -54 140.5t-140 46.5q-145 0 -225 -112t-80 -259q0 -236 211 -236q188 0 256 187h262q-31 -127 -95.5 -217t-146.5 -135.5t-157.5 -64.5 t-155.5 -19zM272 1186l236 289h430l145 -289h-278l-96 196l-156 -196h-281z" glyph-name="ccircumflex" horiz-adv-x="1140" unicode="ĉ"/><glyph d="M680 -20q-276 0 -428 157.5t-152 458.5q0 362 209 609t563 247q252 0 401.5 -132t137.5 -384h-295q-10 131 -85 191.5t-189 60.5q-141 0 -242.5 -88t-145.5 -212t-44 -263q0 -178 77.5 -279.5t227.5 -101.5q236 0 334 254h294q-61 -262 -240 -390t-423 -128zM793 1720 q0 66 49 113t114.5 47t114.5 -47t49 -113q0 -68 -49 -114.5t-114.5 -46.5t-114.5 46.5t-49 114.5z" glyph-name="Cdotaccent" horiz-adv-x="1409" unicode="Ċ"/><glyph d="M506 -20q-195 0 -326 110.5t-131 341.5q0 274 175 463.5t454 189.5q80 0 149.5 -18t137 -63.5t103.5 -135.5t30 -219h-267q-2 94 -54 140.5t-140 46.5q-145 0 -225 -112t-80 -259q0 -236 211 -236q188 0 256 187h262q-31 -127 -95.5 -217t-146.5 -135.5t-157.5 -64.5 t-155.5 -19zM545 1352q0 66 49 112.5t114.5 46.5t114.5 -47t49 -112q0 -68 -49 -115t-114.5 -47t-114.5 47t-49 115z" glyph-name="cdotaccent" horiz-adv-x="1140" unicode="ċ"/><glyph d="M680 -20q-276 0 -428 157.5t-152 458.5q0 362 209 609t563 247q252 0 401.5 -132t137.5 -384h-295q-10 131 -85 191.5t-189 60.5q-141 0 -242.5 -88t-145.5 -212t-44 -263q0 -178 77.5 -279.5t227.5 -101.5q236 0 334 254h294q-61 -262 -240 -390t-423 -128zM559 1841 h279l96 -196l156 196h280l-235 -289h-430z" glyph-name="Ccaron" horiz-adv-x="1409" unicode="Č"/><glyph d="M506 -20q-195 0 -326 110.5t-131 341.5q0 274 175 463.5t454 189.5q80 0 149.5 -18t137 -63.5t103.5 -135.5t30 -219h-267q-2 94 -54 140.5t-140 46.5q-145 0 -225 -112t-80 -259q0 -236 211 -236q188 0 256 187h262q-31 -127 -95.5 -217t-146.5 -135.5t-157.5 -64.5 t-155.5 -19zM311 1473h279l96 -197l156 197h280l-235 -289h-430z" glyph-name="ccaron" horiz-adv-x="1140" unicode="č"/><glyph d="M23 0l227 1434h534q575 0 576 -592q0 -371 -208 -606.5t-579 -235.5h-550zM373 266h196q248 0 365 157t117 406q0 186 -75 262t-253 76h-209zM481 1841h279l96 -196l156 196h280l-235 -289h-430z" glyph-name="Dcaron" horiz-adv-x="1402" unicode="Ď"/><glyph d="M1296 1149l162 285h258l-162 -285h-258zM47 408q0 279 156.5 478t394.5 199q117 0 194.5 -48t100.5 -122l82 519h299l-227 -1434h-299l24 152q-41 -72 -135 -122t-209 -50q-162 0 -271.5 107.5t-109.5 320.5zM334 467q0 -119 58.5 -179.5t154.5 -60.5q133 0 218 111 t85 258q0 121 -60.5 181.5t-158.5 60.5q-131 0 -214 -110.5t-83 -260.5z" glyph-name="dcaron" horiz-adv-x="1343" unicode="ď"/><glyph d="M92 0l94 592h-155l37 225h153l98 617h535q575 0 576 -592q0 -371 -208 -606.5t-579 -235.5h-551zM442 266h197q248 0 364.5 157t116.5 406q0 186 -74.5 262t-252.5 76h-209l-56 -350h170l-36 -225h-168z" glyph-name="Dcroat" horiz-adv-x="1472" unicode="Đ"/><glyph d="M668 1200l22 133h268l17 101h299l-17 -101h160l-22 -133h-158l-190 -1200h-299l24 152q-41 -72 -135 -122t-209 -50q-162 0 -271.5 107.5t-109.5 320.5q0 279 156.5 478t394.5 199q117 0 194.5 -48t100.5 -122l45 285h-270zM334 467q0 -119 58.5 -179.5t154.5 -60.5 q133 0 218 111t85 258q0 121 -60.5 181.5t-158.5 60.5q-131 0 -214 -110.5t-83 -260.5z" glyph-name="dcroat" horiz-adv-x="1298" unicode="đ"/><glyph d="M23 0l227 1434h979l-43 -267h-672l-53 -321h610l-37 -240h-610l-51 -340h692l-43 -266h-999zM467 1669l27 174h671l-26 -174h-672z" glyph-name="Emacron" horiz-adv-x="1161" unicode="Ē"/><glyph d="M508 -27q-203 0 -330 112t-127 355q0 276 166 460.5t445 184.5q199 0 319.5 -102t120.5 -321q0 -135 -29 -205h-741q2 -143 55 -201.5t162 -58.5q166 0 235 143h263q-68 -180 -207 -273.5t-332 -93.5zM350 618h477q14 106 -35 173t-165 67q-115 0 -183.5 -65.5 t-93.5 -174.5zM362 1300l27 175h672l-27 -175h-672z" glyph-name="emacron" horiz-adv-x="1150" unicode="ē"/><glyph d="M23 0l227 1434h979l-43 -267h-672l-53 -321h610l-37 -240h-610l-51 -340h692l-43 -266h-999zM651 1720q0 66 49.5 113t115 47t114.5 -47t49 -113q0 -68 -49 -114.5t-114.5 -46.5t-115 46.5t-49.5 114.5z" glyph-name="Edotaccent" horiz-adv-x="1161" unicode="Ė"/><glyph d="M508 -27q-203 0 -330 112t-127 355q0 276 166 460.5t445 184.5q199 0 319.5 -102t120.5 -321q0 -135 -29 -205h-741q2 -143 55 -201.5t162 -58.5q166 0 235 143h263q-68 -180 -207 -273.5t-332 -93.5zM350 618h477q14 106 -35 173t-165 67q-115 0 -183.5 -65.5 t-93.5 -174.5zM547 1352q0 66 49 112.5t114.5 46.5t114.5 -47t49 -112q0 -68 -49 -115t-114.5 -47t-114.5 47t-49 115z" glyph-name="edotaccent" horiz-adv-x="1150" unicode="ė"/><glyph d="M23 0l227 1434h979l-43 -267h-672l-53 -321h610l-37 -240h-610l-51 -340h692l-43 -266q-125 0 -198.5 -45t-73.5 -117q0 -49 40.5 -66.5t98.5 1.5l-27 -166q-37 -16 -92 -18.5t-111.5 11t-96.5 58.5t-40 115q0 137 135 227h-634z" glyph-name="Eogonek" horiz-adv-x="1161" unicode="Ę"/><glyph d="M596 -393q-37 -16 -92 -18.5t-111.5 12t-96.5 60.5t-40 116q0 121 117 211q-322 70 -322 452q0 276 166 460.5t445 184.5q199 0 319.5 -102t120.5 -321q0 -135 -29 -205h-741q2 -143 55 -201.5t162 -58.5q166 0 235 143h263q-109 -283 -377 -348l-8 -2q-8 0 -21 -4 q-72 -16 -115 -56.5t-43 -91.5q0 -49 40 -66.5t100 1.5zM350 618h477q14 106 -35 173t-165 67q-115 0 -183.5 -65.5t-93.5 -174.5z" glyph-name="eogonek" horiz-adv-x="1146" unicode="ę"/><glyph d="M23 0l227 1434h979l-43 -267h-672l-53 -321h610l-37 -240h-610l-51 -340h692l-43 -266h-999zM418 1841h278l97 -196l155 196h281l-236 -289h-430z" glyph-name="Ecaron" horiz-adv-x="1161" unicode="Ě"/><glyph d="M508 -27q-203 0 -330 112t-127 355q0 276 166 460.5t445 184.5q199 0 319.5 -102t120.5 -321q0 -135 -29 -205h-741q2 -143 55 -201.5t162 -58.5q166 0 235 143h263q-68 -180 -207 -273.5t-332 -93.5zM313 1473h279l96 -197l156 197h280l-235 -289h-430zM350 618h477 q14 106 -35 173t-165 67q-115 0 -183.5 -65.5t-93.5 -174.5z" glyph-name="ecaron" horiz-adv-x="1150" unicode="ě"/><glyph d="M694 -20q-289 0 -442.5 154.5t-153.5 449.5q0 238 93.5 434t274.5 315t415 119q238 0 387 -121t149 -352h-303q-31 209 -254 209q-141 0 -246.5 -87t-154.5 -216t-49 -273q0 -174 79.5 -271t233.5 -97q133 0 227 74.5t123 230.5l-276 -6l39 245h581l-20 -124 q-66 -352 -236 -518t-467 -166zM500 1554l235 289h430l146 -289h-279l-96 197l-156 -197h-280z" glyph-name="Gcircumflex" horiz-adv-x="1462" unicode="Ĝ"/><glyph d="M428 27q-158 0 -268.5 100t-110.5 305q0 274 151.5 463.5t391.5 189.5q104 0 181 -40.5t112 -104.5l18 125h299l-149 -944l-11 -82q-16 -115 -66 -202t-113.5 -136t-146.5 -80t-151.5 -40t-140.5 -9q-63 0 -122.5 7t-126 31.5t-112 62.5t-69 106.5t-8.5 159.5h264 q-6 -70 54.5 -103t148.5 -33q113 0 194.5 59.5t95.5 176.5l11 82l10 51q-53 -63 -142.5 -104t-193.5 -41zM289 1186l235 289h430l146 -289h-279l-96 196l-156 -196h-280zM336 500q0 -113 58.5 -168.5t154.5 -55.5q129 0 211 99.5t82 238.5q0 111 -59.5 167.5t-153.5 56.5 q-129 0 -211 -99.5t-82 -238.5z" glyph-name="gcircumflex" horiz-adv-x="1224" unicode="ĝ"/><glyph d="M694 -20q-289 0 -442.5 154.5t-153.5 449.5q0 238 93.5 434t274.5 315t415 119q238 0 387 -121t149 -352h-303q-31 209 -254 209q-141 0 -246.5 -87t-154.5 -216t-49 -273q0 -174 79.5 -271t233.5 -97q133 0 227 74.5t123 230.5l-276 -6l39 245h581l-20 -124 q-66 -352 -236 -518t-467 -166zM602 1843h197q-12 -145 133 -145q139 0 168 145h198q-25 -150 -124 -232.5t-267 -82.5q-172 0 -251 84t-54 231z" glyph-name="Gbreve" horiz-adv-x="1462" unicode="Ğ"/><glyph d="M428 27q-158 0 -268.5 100t-110.5 305q0 274 151.5 463.5t391.5 189.5q104 0 181 -40.5t112 -104.5l18 125h299l-149 -944l-11 -82q-16 -115 -66 -202t-113.5 -136t-146.5 -80t-151.5 -40t-140.5 -9q-63 0 -122.5 7t-126 31.5t-112 62.5t-69 106.5t-8.5 159.5h264 q-6 -70 54.5 -103t148.5 -33q113 0 194.5 59.5t95.5 176.5l11 82l10 51q-53 -63 -142.5 -104t-193.5 -41zM336 500q0 -113 58.5 -168.5t154.5 -55.5q129 0 211 99.5t82 238.5q0 111 -59.5 167.5t-153.5 56.5q-129 0 -211 -99.5t-82 -238.5zM391 1475h197q-12 -145 133 -146 q139 0 168 146h198q-25 -150 -124 -233t-267 -83q-172 0 -251 84.5t-54 231.5z" glyph-name="gbreve" horiz-adv-x="1224" unicode="ğ"/><glyph d="M694 -20q-289 0 -442.5 154.5t-153.5 449.5q0 238 93.5 434t274.5 315t415 119q238 0 387 -121t149 -352h-303q-31 209 -254 209q-141 0 -246.5 -87t-154.5 -216t-49 -273q0 -174 79.5 -271t233.5 -97q133 0 227 74.5t123 230.5l-276 -6l39 245h581l-20 -124 q-66 -352 -236 -518t-467 -166zM772 1720q0 66 49 113t114.5 47t115 -47t49.5 -113q0 -68 -49.5 -114.5t-115 -46.5t-114.5 46.5t-49 114.5z" glyph-name="Gdotaccent" horiz-adv-x="1462" unicode="Ġ"/><glyph d="M428 27q-158 0 -268.5 100t-110.5 305q0 274 151.5 463.5t391.5 189.5q104 0 181 -40.5t112 -104.5l18 125h299l-149 -944l-11 -82q-16 -115 -66 -202t-113.5 -136t-146.5 -80t-151.5 -40t-140.5 -9q-63 0 -122.5 7t-126 31.5t-112 62.5t-69 106.5t-8.5 159.5h264 q-6 -70 54.5 -103t148.5 -33q113 0 194.5 59.5t95.5 176.5l11 82l10 51q-53 -63 -142.5 -104t-193.5 -41zM336 500q0 -113 58.5 -168.5t154.5 -55.5q129 0 211 99.5t82 238.5q0 111 -59.5 167.5t-153.5 56.5q-129 0 -211 -99.5t-82 -238.5zM561 1352q0 66 49 112.5t115 46.5 t115 -47t49 -112q0 -68 -49 -115t-115 -47t-115 47t-49 115z" glyph-name="gdotaccent" horiz-adv-x="1224" unicode="ġ"/><glyph d="M694 -20q-289 0 -442.5 154.5t-153.5 449.5q0 238 93.5 434t274.5 315t415 119q238 0 387 -121t149 -352h-303q-31 209 -254 209q-141 0 -246.5 -87t-154.5 -216t-49 -273q0 -174 79.5 -271t233.5 -97q133 0 227 74.5t123 230.5l-276 -6l39 245h581l-20 -124 q-66 -352 -236 -518t-467 -166zM436 -670l19 121q84 6 123.5 36t52.5 93q-90 0 -137.5 46t-47.5 118q0 78 52.5 132t136.5 54q82 0 133 -56t51 -173q0 -158 -94 -264.5t-276 -106.5h-13z" glyph-name="Gcommaaccent" horiz-adv-x="1462" unicode="Ģ"/><glyph d="M428 27q-158 0 -268.5 100t-110.5 305q0 274 151.5 463.5t391.5 189.5q104 0 181 -40.5t112 -104.5l18 125h299l-149 -944l-11 -82q-16 -115 -66 -202t-113.5 -136t-146.5 -80t-151.5 -40t-140.5 -9q-63 0 -122.5 7t-126 31.5t-112 62.5t-69 106.5t-8.5 159.5h264 q-6 -70 54.5 -103t148.5 -33q113 0 194.5 59.5t95.5 176.5l11 82l10 51q-53 -63 -142.5 -104t-193.5 -41zM336 500q0 -113 58.5 -168.5t154.5 -55.5q129 0 211 99.5t82 238.5q0 111 -59.5 167.5t-153.5 56.5q-129 0 -211 -99.5t-82 -238.5zM444 1393q0 158 94.5 264 t276.5 106h12l-18 -121q-84 -6 -124 -35.5t-52 -93.5q90 0 137 -46t47 -117q0 -78 -52 -132.5t-136 -54.5q-82 0 -133.5 56.5t-51.5 173.5z" glyph-name="gcommaaccent" horiz-adv-x="1224" unicode="ģ"/><glyph d="M897 0l94 590h-567l-94 -590h-307l227 1434h307l-94 -590h567l94 590h308l-228 -1434h-307zM453 1554l235 289h430l146 -289h-279l-96 197l-156 -197h-280z" glyph-name="Hcircumflex" horiz-adv-x="1394" unicode="Ĥ"/><glyph d="M190 1065l60 369h246l32 41h430l146 -289h-279l-96 196l-156 -196h-63l-21 -121l-34 -223h14q31 92 127 167.5t244 75.5q166 0 252 -104t55 -305l-107 -676h-299l95 604q20 117 -25 175.5t-141 58.5q-98 0 -166 -59.5t-88 -180.5l-94 -598h-299z" glyph-name="hcircumflex" unicode="ĥ"/><glyph d="M897 0l94 590h-567l-94 -590h-307l227 1434h307l-35 -222h568l34 222h308l-228 -1434h-307zM463 844h567l19 114h-568z" glyph-name="Hbar" horiz-adv-x="1398" unicode="Ħ"/><glyph d="M86 1200l23 133h124l17 101h299l-17 -101h304l-23 -133h-301l-23 -135l-34 -223h14q31 92 127 167.5t244 75.5q166 0 252 -104t55 -305l-107 -676h-299l95 604q20 117 -25 175.5t-141 58.5q-98 0 -166 -59.5t-88 -180.5l-94 -598h-299l167 1065l23 135h-127z" glyph-name="hbar" horiz-adv-x="1228" unicode="ħ"/><glyph d="M23 0l227 1434h307l-227 -1434h-307zM76 1628q14 113 76.5 175.5t162.5 62.5q51 0 93.5 -17.5t63 -39t45 -39t46.5 -17.5q70 0 80 57h176q-14 -111 -76.5 -173t-162.5 -62q-51 0 -92.5 17.5t-61.5 39t-46 39t-50 17.5q-70 0 -80 -60h-174z" glyph-name="Itilde" horiz-adv-x="520" unicode="Ĩ"/><glyph d="M4 0l168 1065h299l-168 -1065h-299zM-4 1260q14 113 76.5 175t163.5 62q51 0 93 -17.5t62.5 -39t45 -39t46.5 -17.5q70 0 80 58h176q-14 -111 -76.5 -173.5t-162.5 -62.5q-66 0 -111 28t-76.5 56.5t-62.5 28.5q-70 0 -80 -59h-174z" glyph-name="itilde" horiz-adv-x="479" unicode="ĩ"/><glyph d="M23 0l227 1434h307l-227 -1434h-307zM104 1669l27 174h672l-27 -174h-672z" glyph-name="Imacron" horiz-adv-x="520" unicode="Ī"/><glyph d="M4 0l168 1065h299l-168 -1065h-299zM25 1300l26 175h672l-27 -175h-671z" glyph-name="imacron" horiz-adv-x="479" unicode="ī"/><glyph d="M170 -393q-37 -16 -92 -18.5t-111.5 11t-96.5 58.5t-40 115q0 84 54.5 152.5t144.5 107.5l221 1401h307l-227 -1434q-125 0 -199 -45t-74 -117q0 -49 41 -66.5t99 1.5z" glyph-name="Iogonek" horiz-adv-x="520" unicode="Į"/><glyph d="M372.5 1190q-65.5 0 -114.5 47t-49 115q0 66 49 112.5t114.5 46.5t115 -47t49.5 -112q0 -68 -49.5 -115t-115 -47zM-197 -227q0 86 58.5 156.5t148.5 107.5l162 1028h299l-168 -1065q-125 0 -198.5 -45t-73.5 -117q0 -49 40 -66.5t99 1.5l-27 -166q-37 -16 -92 -18.5 t-111.5 11t-96.5 58.5t-40 115z" glyph-name="iogonek" horiz-adv-x="479" unicode="į"/><glyph d="M23 0l227 1434h307l-227 -1434h-307zM289 1720q0 66 49 113t114.5 47t114.5 -47t49 -113q0 -68 -49 -114.5t-114.5 -46.5t-114.5 46.5t-49 114.5z" glyph-name="Idotaccent" horiz-adv-x="520" unicode="İ"/><glyph d="M4 0l168 1065h299l-168 -1065h-299z" glyph-name="dotlessi" horiz-adv-x="479" unicode="ı"/><glyph d="M23 0l227 1434h307l-227 -1434h-307zM629 545h309q-23 -143 43 -221t199 -78q258 0 309 321l137 867h307l-141 -889q-45 -281 -214 -423t-435 -142q-270 0 -414.5 144.5t-99.5 420.5z" glyph-name="IJ" horiz-adv-x="1896" unicode="Ĳ"/><glyph d="M23 0l167 1065h299l-167 -1065h-299zM219 1352q0 66 49 112.5t115 46.5q68 0 116 -46t48 -113.5t-48 -114.5t-116 -47q-66 0 -115 47t-49 115zM248 -393l39 233h104q117 0 141 140l173 1085h299l-181 -1131q-49 -334 -399 -333q-117 0 -176 6zM733 1352q0 66 49 112.5 t115 46.5q68 0 116 -46t48 -113.5t-48 -114.5t-116 -47q-66 0 -115 47t-49 115z" glyph-name="ij" horiz-adv-x="1026" unicode="ĳ"/><glyph d="M623 -20q-270 0 -415 144t-99 421h309q-23 -143 42.5 -221t198.5 -78q258 0 310 321l137 867h307l-141 -889q-45 -281 -214 -423t-435 -142zM852 1554l235 289h431l145 -289h-279l-96 197l-155 -197h-281z" glyph-name="Jcircumflex" horiz-adv-x="1376" unicode="Ĵ"/><glyph d="M-66 -399q-117 0 -176 6l39 233h105q117 0 141 140l172 1085h299l-180 -1131q-50 -333 -400 -333zM-29 1186l236 289h430l145 -289h-278l-96 196l-156 -196h-281z" glyph-name="jcircumflex" horiz-adv-x="522" unicode="ĵ"/><glyph d="M23 0l227 1434h307l-108 -680l679 680h361l-651 -641l479 -793h-350l-351 575l-231 -227l-55 -348h-307zM393 -670l19 121q84 6 123.5 36t52.5 93q-90 0 -137.5 46t-47.5 118q0 78 52.5 132t136.5 54q82 0 133 -56t51 -173q0 -158 -94 -264.5t-276 -106.5h-13z" glyph-name="Kcommaaccent" horiz-adv-x="1435" unicode="Ķ"/><glyph d="M23 0l227 1434h299l-129 -809l471 440h319l-501 -453l389 -612h-320l-274 428l-133 -121l-49 -307h-299zM303 -670l19 121q84 6 123.5 36t52.5 93q-90 0 -137.5 46t-47.5 118q0 78 52.5 132t136.5 54q82 0 133 -56t51 -173q0 -158 -94 -264.5t-277 -106.5h-12z" glyph-name="kcommaaccent" horiz-adv-x="1196" unicode="ķ"/><glyph d="M23 0l227 1434h307l-184 -1168h659l-43 -266h-966zM281 1556l260 287h258l-260 -287h-258z" glyph-name="Lacute" horiz-adv-x="1128" unicode="Ĺ"/><glyph d="M23 0l227 1434h299l-227 -1434h-299zM272 1556l260 287h259l-261 -287h-258z" glyph-name="lacute" horiz-adv-x="512" unicode="ĺ"/><glyph d="M23 0l227 1434h307l-184 -1168h659l-43 -266h-966zM260 -680l19 121q84 6 123.5 35.5t52.5 93.5q-90 0 -137.5 46t-47.5 118q0 78 52.5 132t136.5 54q82 0 133 -56.5t51 -172.5q0 -158 -94 -264.5t-277 -106.5h-12z" glyph-name="Lcommaaccent" horiz-adv-x="1128" unicode="Ļ"/><glyph d="M23 0l227 1434h299l-227 -1434h-299zM-66 -670l19 121q84 6 124 36t52 93q-90 0 -137 46t-47 118q0 78 52 132t136 54q82 0 133 -56t51 -173q0 -158 -94 -264.5t-276 -106.5h-13z" glyph-name="lcommaaccent" horiz-adv-x="512" unicode="ļ"/><glyph d="M23 0l227 1434h307l-184 -1168h659l-43 -266h-966zM727 850l18 121q84 6 124 35.5t53 93.5q-90 0 -137.5 46t-47.5 118q0 78 52.5 132t136.5 54q82 0 133 -56.5t51 -172.5q0 -158 -94 -264.5t-277 -106.5h-12z" glyph-name="Lcaron" horiz-adv-x="1128" unicode="Ľ"/><glyph d="M518 831l150 603h254l-150 -603h-254zM23 0l227 1434h299l-227 -1434h-299z" glyph-name="lcaron" horiz-adv-x="618" unicode="ľ"/><glyph d="M-16 266l43 299l147 133l117 736h307l-66 -410l185 166h2l-49 -297l-185 -168l-71 -459h659l-43 -266h-967l64 397z" glyph-name="Lslash" horiz-adv-x="1169" unicode="Ł"/><glyph d="M-27 303l43 270l134 127l116 734h299l-63 -396l131 125h2l-45 -268l-129 -125l-123 -770h-299l67 432z" glyph-name="lslash" horiz-adv-x="542" unicode="ł"/><glyph d="M23 0l227 1434h319l422 -936h8l150 936h307l-227 -1434h-332l-418 915h-6l-143 -915h-307zM727 1556l260 287h258l-260 -287h-258z" glyph-name="Nacute" horiz-adv-x="1419" unicode="Ń"/><glyph d="M836 604q20 117 -25 175.5t-141 58.5q-98 0 -166 -59.5t-88 -180.5l-94 -598h-299l167 1065h299l-34 -223h14q31 92 127 167.5t244 75.5q166 0 252 -104t55 -305l-107 -676h-299zM573 1188l261 287h258l-261 -287h-258z" glyph-name="nacute" unicode="ń"/><glyph d="M23 0l227 1434h319l422 -936h8l150 936h307l-227 -1434h-332l-418 915h-6l-143 -915h-307zM389 -670l19 121q84 6 123.5 36t52.5 93q-90 0 -137.5 46t-47.5 118q0 78 52.5 132t136.5 54q82 0 133 -56t51 -173q0 -158 -94 -264.5t-277 -106.5h-12z" glyph-name="Ncommaaccent" horiz-adv-x="1419" unicode="Ņ"/><glyph d="M836 604q20 117 -25 175.5t-141 58.5q-98 0 -166 -59.5t-88 -180.5l-94 -598h-299l167 1065h299l-34 -223h14q31 92 127 167.5t244 75.5q166 0 252 -104t55 -305l-107 -676h-299zM295 -670l18 121q84 6 124 36t52 93q-90 0 -137 46t-47 118q0 78 52.5 132t136.5 54 q82 0 133 -56t51 -173q0 -158 -94.5 -264.5t-276.5 -106.5h-12z" glyph-name="ncommaaccent" unicode="ņ"/><glyph d="M23 0l227 1434h319l422 -936h8l150 936h307l-227 -1434h-332l-418 915h-6l-143 -915h-307zM508 1841h278l97 -196l155 196h281l-236 -289h-430z" glyph-name="Ncaron" horiz-adv-x="1419" unicode="Ň"/><glyph d="M836 604q20 117 -25 175.5t-141 58.5q-98 0 -166 -59.5t-88 -180.5l-94 -598h-299l167 1065h299l-34 -223h14q31 92 127 167.5t244 75.5q166 0 252 -104t55 -305l-107 -676h-299zM354 1473h279l96 -197l156 197h280l-235 -289h-430z" glyph-name="ncaron" unicode="ň"/><glyph d="M584 -451q-162 0 -258 56l45 276q125 -66 245 -65q209 0 293 184l-430 913h-6l-143 -913h-307l227 1434h311l434 -934h9l149 934h307l-207 -1319q-45 -276 -227 -421t-442 -145z" glyph-name="Eng" horiz-adv-x="1423" unicode="Ŋ"/><glyph d="M637 -451q-135 0 -215 37l37 242q88 -25 137 -25q109 0 135 129l10 68l95 604q20 117 -25 175.5t-141 58.5q-98 0 -166 -59.5t-88 -180.5l-94 -598h-299l167 1065h299l-34 -223h14q31 92 127 167.5t244 75.5q166 0 252 -104t55 -305l-107 -676l-18 -117 q-25 -166 -127 -250t-258 -84z" glyph-name="eng" unicode="ŋ"/><glyph d="M686 -20q-276 0 -433 163.5t-157 452.5q0 229 95.5 423.5t276.5 313.5t411 119q276 0 431.5 -163t155.5 -449q0 -356 -218 -608t-562 -252zM410 604q0 -176 77.5 -268t221.5 -92q141 0 245.5 90t151.5 221t47 276q0 176 -76 266.5t-219 90.5q-141 0 -245.5 -88 t-153.5 -218.5t-49 -277.5zM600 1669l27 174h671l-26 -174h-672z" glyph-name="Omacron" horiz-adv-x="1507" unicode="Ō"/><glyph d="M506 -20q-197 0 -326 114.5t-129 341.5q0 270 175 459.5t448 189.5q197 0 325.5 -114.5t128.5 -341.5q0 -270 -175 -459.5t-447 -189.5zM336 467q0 -121 56.5 -180.5t150.5 -59.5q141 0 221 112t80 259q0 121 -56.5 180.5t-150.5 59.5q-141 0 -221 -112t-80 -259z M377 1300l26 175h672l-26 -175h-672z" glyph-name="omacron" horiz-adv-x="1179" unicode="ō"/><glyph d="M686 -20q-276 0 -433 163.5t-157 452.5q0 229 95.5 423.5t276.5 313.5t411 119q276 0 431.5 -163t155.5 -449q0 -356 -218 -608t-562 -252zM410 604q0 -176 77.5 -268t221.5 -92q141 0 245.5 90t151.5 221t47 276q0 176 -76 266.5t-219 90.5q-141 0 -245.5 -88 t-153.5 -218.5t-49 -277.5zM565 1556l260 287h258l-260 -287h-258zM940 1556l260 287h258l-260 -287h-258z" glyph-name="Ohungarumlaut" horiz-adv-x="1507" unicode="Ő"/><glyph d="M506 -20q-197 0 -326 114.5t-129 341.5q0 270 175 459.5t448 189.5q197 0 325.5 -114.5t128.5 -341.5q0 -270 -175 -459.5t-447 -189.5zM336 467q0 -121 56.5 -180.5t150.5 -59.5q141 0 221 112t80 259q0 121 -56.5 180.5t-150.5 59.5q-141 0 -221 -112t-80 -259z M342 1188l260 287h258l-260 -287h-258zM717 1188l260 287h258l-260 -287h-258z" glyph-name="ohungarumlaut" horiz-adv-x="1179" unicode="ő"/><glyph d="M686 -20q-276 0 -433 163.5t-157 452.5q0 229 95.5 423.5t276.5 313.5t410.5 119t378.5 -115l15 97h979l-43 -267h-672l-53 -321h610l-37 -240h-610l-51 -340h692l-43 -266h-1000l13 76q-166 -96 -371 -96zM410 604q0 -176 77.5 -268t221.5 -92q141 0 245.5 90t151.5 221 t47 276q0 176 -76 266.5t-219 90.5q-141 0 -245.5 -88t-153.5 -218.5t-49 -277.5z" glyph-name="OE" horiz-adv-x="2183" unicode="Œ"/><glyph d="M506 -20q-197 0 -326 114.5t-129 341.5q0 270 175 459.5t448 189.5q242 0 362 -155q162 156 416 155q199 0 319.5 -102t120.5 -321q0 -135 -28 -205h-742q2 -143 55.5 -201.5t161.5 -58.5q166 0 236 143h262q-68 -180 -207 -273.5t-332 -93.5q-258 0 -374 166 q-172 -159 -418 -159zM336 467q0 -121 56.5 -180.5t150.5 -59.5q141 0 221 112t80 259q0 121 -56.5 180.5t-150.5 59.5q-141 0 -221 -112t-80 -259zM1141 618h477q14 106 -35 173t-166 67q-115 0 -183 -65.5t-93 -174.5z" glyph-name="oe" horiz-adv-x="1941" unicode="œ"/><glyph d="M901 0q-37 41 -4 229l18 107q12 84 -32.5 133t-137.5 49h-333l-82 -518h-307l227 1434h610q240 0 353.5 -98.5t113.5 -270.5q0 -283 -293 -406q127 -43 169 -119.5t24 -193.5l-17 -117q-33 -188 4 -229h-313zM451 766h288q121 0 189.5 63.5t68.5 167.5q0 168 -194 168 h-289zM592 1556l260 287h258l-260 -287h-258z" glyph-name="Racute" horiz-adv-x="1394" unicode="Ŕ"/><glyph d="M23 0l167 1065h299l-40 -258h12q104 266 344 266q43 0 82 -10l-41 -252q-49 6 -84 6q-129 0 -228.5 -75.5t-132.5 -239.5l-79 -502h-299zM414 1188l260 287h258l-260 -287h-258z" glyph-name="racute" horiz-adv-x="837" unicode="ŕ"/><glyph d="M901 0q-37 41 -4 229l18 107q12 84 -32.5 133t-137.5 49h-333l-82 -518h-307l227 1434h610q240 0 353.5 -98.5t113.5 -270.5q0 -283 -293 -406q127 -43 169 -119.5t24 -193.5l-17 -117q-33 -188 4 -229h-313zM254 -670l18 121q84 6 124 36t53 93q-90 0 -137.5 46 t-47.5 118q0 78 52.5 132t136.5 54q82 0 133 -56t51 -173q0 -158 -94 -264.5t-277 -106.5h-12zM451 766h288q121 0 189.5 63.5t68.5 167.5q0 168 -194 168h-289z" glyph-name="Rcommaaccent" horiz-adv-x="1394" unicode="Ŗ"/><glyph d="M23 0l167 1065h299l-40 -258h12q104 266 344 266q43 0 82 -10l-41 -252q-49 6 -84 6q-129 0 -228.5 -75.5t-132.5 -239.5l-79 -502h-299zM-63 -670l18 121q84 6 124 36t52 93q-90 0 -137 46t-47 118q0 78 52 132t136 54q82 0 133 -56t51 -173q0 -158 -94 -264.5 t-276 -106.5h-12z" glyph-name="rcommaaccent" horiz-adv-x="837" unicode="ŗ"/><glyph d="M901 0q-37 41 -4 229l18 107q12 84 -32.5 133t-137.5 49h-333l-82 -518h-307l227 1434h610q240 0 353.5 -98.5t113.5 -270.5q0 -283 -293 -406q127 -43 169 -119.5t24 -193.5l-17 -117q-33 -188 4 -229h-313zM373 1841h278l97 -196l155 196h281l-236 -289h-430zM451 766 h288q121 0 189.5 63.5t68.5 167.5q0 168 -194 168h-289z" glyph-name="Rcaron" horiz-adv-x="1394" unicode="Ř"/><glyph d="M23 0l167 1065h299l-40 -258h12q104 266 344 266q43 0 82 -10l-41 -252q-49 6 -84 6q-129 0 -228.5 -75.5t-132.5 -239.5l-79 -502h-299zM195 1473h278l96 -197l156 197h281l-236 -289h-430z" glyph-name="rcaron" horiz-adv-x="837" unicode="ř"/><glyph d="M594 -20q-279 0 -422 128t-106 361h317q-8 -104 54.5 -170t201.5 -66q123 0 198.5 53.5t75.5 147.5q0 68 -44 106t-152 58l-170 33q-168 35 -263.5 114.5t-95.5 237.5q0 215 175.5 342t443.5 127q252 0 386 -113.5t99 -326.5h-315q18 92 -41 139t-168 47 q-115 0 -184.5 -50t-69.5 -134q0 -121 170 -152l156 -31q215 -41 308 -125.5t93 -234.5q0 -229 -182 -360t-465 -131zM668 1556l260 287h258l-260 -287h-258z" glyph-name="Sacute" horiz-adv-x="1333" unicode="Ś"/><glyph d="M422 -20q-217 0 -324.5 94t-81.5 276h269q-6 -141 170 -141q86 0 134 30.5t48 84.5q0 66 -111 88l-153 32q-264 59 -264 279q0 168 135 265t344 97q211 0 310 -97t71 -271h-248q4 74 -39 106.5t-125 32.5q-76 0 -119 -25.5t-43 -70.5q0 -37 30 -60.5t95 -40.5l168 -36 q125 -31 193.5 -90.5t68.5 -176.5q0 -176 -150.5 -276t-377.5 -100zM467 1188l260 287h258l-260 -287h-258z" glyph-name="sacute" horiz-adv-x="1028" unicode="ś"/><glyph d="M594 -20q-279 0 -422 128t-106 361h317q-8 -104 54.5 -170t201.5 -66q123 0 198.5 53.5t75.5 147.5q0 68 -44 106t-152 58l-170 33q-168 35 -263.5 114.5t-95.5 237.5q0 215 175.5 342t443.5 127q252 0 386 -113.5t99 -326.5h-315q18 92 -41 139t-168 47 q-115 0 -184.5 -50t-69.5 -134q0 -121 170 -152l156 -31q215 -41 308 -125.5t93 -234.5q0 -229 -182 -360t-465 -131zM412 1554l235 289h430l146 -289h-279l-96 197l-156 -197h-280z" glyph-name="Scircumflex" horiz-adv-x="1333" unicode="Ŝ"/><glyph d="M422 -20q-217 0 -324.5 94t-81.5 276h269q-6 -141 170 -141q86 0 134 30.5t48 84.5q0 66 -111 88l-153 32q-264 59 -264 279q0 168 135 265t344 97q211 0 310 -97t71 -271h-248q4 74 -39 106.5t-125 32.5q-76 0 -119 -25.5t-43 -70.5q0 -37 30 -60.5t95 -40.5l168 -36 q125 -31 193.5 -90.5t68.5 -176.5q0 -176 -150.5 -276t-377.5 -100zM209 1186l235 289h430l146 -289h-279l-96 196l-156 -196h-280z" glyph-name="scircumflex" horiz-adv-x="1028" unicode="ŝ"/><glyph d="M350 -369q63 -4 107.5 17.5t44.5 62.5q0 43 -42 54.5t-85 -15.5l-66 98l150 140q-215 29 -320.5 153.5t-72.5 327.5h317q-8 -104 54.5 -170t201.5 -66q123 0 198.5 53.5t75.5 147.5q0 68 -44 106t-152 58l-170 33q-168 35 -263.5 114.5t-95.5 237.5q0 215 175.5 342 t443.5 127q252 0 386 -113.5t99 -326.5h-315q18 92 -41 139t-168 47q-115 0 -184.5 -50t-69.5 -134q0 -121 170 -152l156 -31q215 -41 308 -125.5t93 -234.5q0 -219 -166 -349t-430 -140l-110 -95h12q74 0 117 -42t43 -113q0 -121 -110 -184.5t-271 -63.5z" glyph-name="Scedilla" horiz-adv-x="1333" unicode="Ş"/><glyph d="M213 -369q63 -4 107.5 17.5t44.5 62.5q0 43 -42 54.5t-85 -15.5l-66 98l147 138q-168 23 -247.5 115t-55.5 249h269q-6 -141 170 -141q86 0 134 30.5t48 84.5q0 66 -111 88l-153 32q-264 59 -264 279q0 168 135 265t344 97q211 0 310 -97t71 -271h-248q4 74 -39 106.5 t-125 32.5q-76 0 -119 -25.5t-43 -70.5q0 -37 30 -60.5t95 -40.5l168 -36q125 -31 193.5 -90.5t68.5 -176.5q0 -158 -122.5 -256t-315.5 -116l-115 -97h13q74 0 116.5 -42t42.5 -113q0 -121 -109.5 -184.5t-271.5 -63.5z" glyph-name="scedilla" horiz-adv-x="1028" unicode="ş"/><glyph d="M594 -20q-279 0 -422 128t-106 361h317q-8 -104 54.5 -170t201.5 -66q123 0 198.5 53.5t75.5 147.5q0 68 -44 106t-152 58l-170 33q-168 35 -263.5 114.5t-95.5 237.5q0 215 175.5 342t443.5 127q252 0 386 -113.5t99 -326.5h-315q18 92 -41 139t-168 47 q-115 0 -184.5 -50t-69.5 -134q0 -121 170 -152l156 -31q215 -41 308 -125.5t93 -234.5q0 -229 -182 -360t-465 -131zM451 1841h278l96 -196l156 196h281l-236 -289h-430z" glyph-name="Scaron" horiz-adv-x="1333" unicode="Š"/><glyph d="M422 -20q-217 0 -324.5 94t-81.5 276h269q-6 -141 170 -141q86 0 134 30.5t48 84.5q0 66 -111 88l-153 32q-264 59 -264 279q0 168 135 265t344 97q211 0 310 -97t71 -271h-248q4 74 -39 106.5t-125 32.5q-76 0 -119 -25.5t-43 -70.5q0 -37 30 -60.5t95 -40.5l168 -36 q125 -31 193.5 -90.5t68.5 -176.5q0 -176 -150.5 -276t-377.5 -100zM248 1473h278l97 -197l155 197h281l-236 -289h-430z" glyph-name="scaron" horiz-adv-x="1028" unicode="š"/><glyph d="M377 0l186 1167h-418l43 267h1139l-41 -267h-418l-184 -1167h-111l-133 -113h13q74 0 116.5 -42t42.5 -113q0 -121 -109.5 -184.5t-271.5 -63.5l25 147q63 -4 107.5 17.5t44.5 62.5q0 43 -42 54.5t-85 -15.5l-66 98z" glyph-name="Tcommaaccent" horiz-adv-x="1228" unicode="Ţ"/><glyph d="M84 836l35 229h182l43 274h299l-45 -274h211l-35 -229h-213l-76 -474q-20 -137 105 -137h94l-37 -233q-61 -6 -119 -6l-116 -99h12q74 0 117 -42t43 -113q0 -121 -109.5 -184.5t-271.5 -63.5l24 147q63 -4 107.5 17.5t44.5 62.5q0 43 -42 54.5t-85 -15.5l-66 98l162 152 h6q-213 55 -172 319l82 517h-180z" glyph-name="tcommaaccent" horiz-adv-x="778" unicode="ţ"/><glyph d="M377 0l186 1167h-418l43 267h1139l-41 -267h-418l-184 -1167h-307zM412 1841h278l96 -196l156 196h281l-236 -289h-430z" glyph-name="Tcaron" horiz-adv-x="1228" unicode="Ť"/><glyph d="M479 -14q-348 0 -297 333l82 517h-180l35 229h182l43 274h299l-45 -274h211l-35 -229h-213l-76 -474q-20 -137 105 -137h94l-37 -233q-57 -6 -168 -6zM666 1182l260 286h258l-260 -286h-258z" glyph-name="tcaron" horiz-adv-x="774" unicode="ť"/><glyph d="M211 776l35 203h286l31 188h-418l43 267h1139l-41 -267h-418l-30 -188h290l-34 -203h-287l-123 -776h-307l125 776h-291z" glyph-name="Tbar" horiz-adv-x="1228" unicode="Ŧ"/><glyph d="M33 504l33 231h182l16 101h-180l35 229h182l43 274h299l-45 -274h211l-35 -229h-213l-16 -101h211l-35 -231h-213l-23 -142q-20 -137 105 -137h94l-37 -233q-57 -6 -168 -6q-348 0 -297 333l29 185h-178z" glyph-name="tbar" horiz-adv-x="778" unicode="ŧ"/><glyph d="M614 -20q-272 0 -411.5 143t-93.5 422l141 889h309l-137 -867q-25 -156 40.5 -238.5t201.5 -82.5q268 0 317 321l139 867h310l-142 -889q-45 -279 -224.5 -422t-449.5 -143zM502 1628q14 113 76.5 175.5t162.5 62.5q51 0 93.5 -17.5t63 -39t45 -39t46.5 -17.5q70 0 80 57 h176q-14 -111 -76.5 -173t-162.5 -62q-51 0 -92.5 17.5t-62 39t-46 39t-49.5 17.5q-70 0 -80 -60h-174z" glyph-name="Utilde" horiz-adv-x="1392" unicode="Ũ"/><glyph d="M395 461q-20 -117 25 -175.5t141 -58.5q98 0 166 59.5t88 180.5l94 598h299l-168 -1065h-299l35 223h-14q-31 -92 -127 -167.5t-244 -75.5q-166 0 -252 104t-55 305l106 676h299zM379 1260q14 113 76.5 175t162.5 62q51 0 93.5 -17.5t63 -39t45 -39t46.5 -17.5 q70 0 80 58h176q-14 -111 -76.5 -173.5t-162.5 -62.5q-51 0 -92 17.5t-61.5 39t-46.5 39t-50 17.5q-70 0 -80 -59h-174z" glyph-name="utilde" unicode="ũ"/><glyph d="M614 -20q-272 0 -411.5 143t-93.5 422l141 889h309l-137 -867q-25 -156 40.5 -238.5t201.5 -82.5q268 0 317 321l139 867h310l-142 -889q-45 -279 -224.5 -422t-449.5 -143zM520 1669l27 174h672l-27 -174h-672z" glyph-name="Umacron" horiz-adv-x="1392" unicode="Ū"/><glyph d="M395 461q-20 -117 25 -175.5t141 -58.5q98 0 166 59.5t88 180.5l94 598h299l-168 -1065h-299l35 223h-14q-31 -92 -127 -167.5t-244 -75.5q-166 0 -252 104t-55 305l106 676h299zM397 1300l27 175h672l-27 -175h-672z" glyph-name="umacron" unicode="ū"/><glyph d="M614 -20q-272 0 -411.5 143t-93.5 422l141 889h309l-137 -867q-25 -156 40.5 -238.5t201.5 -82.5q268 0 317 321l139 867h310l-142 -889q-45 -279 -224.5 -422t-449.5 -143zM535 1843h196q-12 -145 133 -145q139 0 168 145h199q-25 -150 -124 -232.5t-267 -82.5 q-172 0 -251 84t-54 231z" glyph-name="Ubreve" horiz-adv-x="1392" unicode="Ŭ"/><glyph d="M395 461q-20 -117 25 -175.5t141 -58.5q98 0 166 59.5t88 180.5l94 598h299l-168 -1065h-299l35 223h-14q-31 -92 -127 -167.5t-244 -75.5q-166 0 -252 104t-55 305l106 676h299zM412 1475h196q-12 -145 133 -146q139 0 168 146h199q-25 -150 -124 -233t-267 -83 q-172 0 -251 84.5t-54 231.5z" glyph-name="ubreve" unicode="ŭ"/><glyph d="M614 -20q-272 0 -411.5 143t-93.5 422l141 889h309l-137 -867q-25 -156 40.5 -238.5t201.5 -82.5q268 0 317 321l139 867h310l-142 -889q-45 -279 -224.5 -422t-449.5 -143zM649 1716q0 86 61.5 145.5t149.5 59.5q90 0 151.5 -59.5t61.5 -145.5t-61.5 -145.5 t-151.5 -59.5q-88 0 -149.5 59.5t-61.5 145.5zM788 1716q0 -33 20.5 -52t51.5 -19t52.5 20.5t21.5 50.5q0 33 -21.5 53.5t-52.5 20.5t-51.5 -20.5t-20.5 -53.5z" glyph-name="Uring" horiz-adv-x="1392" unicode="Ů"/><glyph d="M395 461q-20 -117 25 -175.5t141 -58.5q98 0 166 59.5t88 180.5l94 598h299l-168 -1065h-299l35 223h-14q-31 -92 -127 -167.5t-244 -75.5q-166 0 -252 104t-55 305l106 676h299zM526 1348q0 86 61.5 145t149.5 59q90 0 151.5 -59t61.5 -145t-61.5 -145.5t-151.5 -59.5 q-88 0 -149.5 59.5t-61.5 145.5zM666 1347.5q0 -32.5 20.5 -52t51 -19.5t52 20.5t21.5 51.5q0 33 -21.5 53t-52 20t-51 -20.5t-20.5 -53z" glyph-name="uring" unicode="ů"/><glyph d="M614 -20q-272 0 -411.5 143t-93.5 422l141 889h309l-137 -867q-25 -156 40.5 -238.5t201.5 -82.5q268 0 317 321l139 867h310l-142 -889q-45 -279 -224.5 -422t-449.5 -143zM485 1556l260 287h259l-261 -287h-258zM860 1556l260 287h258l-260 -287h-258z" glyph-name="Uhungarumlaut" horiz-adv-x="1392" unicode="Ű"/><glyph d="M395 461q-20 -117 25 -175.5t141 -58.5q98 0 166 59.5t88 180.5l94 598h299l-168 -1065h-299l35 223h-14q-31 -92 -127 -167.5t-244 -75.5q-166 0 -252 104t-55 305l106 676h299zM362 1188l261 287h258l-260 -287h-259zM737 1188l260 287h258l-260 -287h-258z" glyph-name="uhungarumlaut" unicode="ű"/><glyph d="M700 -393q-37 -16 -92 -18.5t-111.5 11t-96.5 58.5t-40 115q0 129 119 217q-209 33 -309 173t-61 382l141 889h309l-137 -867q-25 -156 40.5 -238.5t201.5 -82.5q268 0 317 321l139 867h310l-142 -889q-39 -240 -178 -380t-354 -175q-76 -14 -122 -56.5t-46 -95.5 q0 -49 40 -66.5t99 1.5z" glyph-name="Uogonek" horiz-adv-x="1392" unicode="Ų"/><glyph d="M395 461q-20 -117 25 -175.5t141 -58.5q98 0 166 59.5t88 180.5l94 598h299l-168 -1065q-125 0 -198.5 -45t-73.5 -117q0 -49 40 -66.5t99 1.5l-26 -166q-37 -16 -92.5 -18.5t-111.5 11t-96 58.5t-40 115q0 86 58 156.5t149 107.5l28 186h-14q-31 -92 -127 -167.5 t-244 -75.5q-166 0 -252 104t-55 305l106 676h299z" glyph-name="uogonek" unicode="ų"/><glyph d="M334 0l-146 1434h316l71 -1002h13l434 1002h315l121 -1002h12l388 1002h317l-598 -1434h-322l-135 1047l-465 -1047h-321zM795 1554l235 289h430l146 -289h-279l-96 197l-156 -197h-280z" glyph-name="Wcircumflex" horiz-adv-x="2076" unicode="Ŵ"/><glyph d="M236 0l-117 1065h280l62 -776h8l330 776h260l90 -776h8l305 776h283l-447 -1065h-340l-90 668l-288 -668h-344zM545 1186l235 289h430l146 -289h-279l-96 196l-156 -196h-280z" glyph-name="wcircumflex" horiz-adv-x="1695" unicode="ŵ"/><glyph d="M479 0l84 526l-375 908h349l231 -611l422 611h352l-663 -908l-82 -526h-318zM479 1554l236 289h430l145 -289h-278l-97 197l-155 -197h-281z" glyph-name="Ycircumflex" horiz-adv-x="1443" unicode="Ŷ"/><glyph d="M33 -156q219 -27 301 105q43 70 24 145l-239 971h305l139 -688l363 688h309l-602 -1071q-141 -250 -278.5 -338t-358.5 -66zM289 1186l235 289h430l146 -289h-279l-96 196l-156 -196h-280z" glyph-name="ycircumflex" horiz-adv-x="1185" unicode="ŷ"/><glyph d="M479 0l84 526l-375 908h349l231 -611l422 611h352l-663 -908l-82 -526h-318zM500 1720q0 66 49 113t114.5 47t114.5 -47t49 -113q0 -68 -49 -114.5t-114.5 -46.5t-114.5 46.5t-49 114.5zM987 1720.5q0 67.5 49 113.5t117 46q66 0 115 -47t49 -113q0 -68 -49 -114.5 t-115 -46.5q-68 0 -117 47t-49 114.5z" glyph-name="Ydieresis" horiz-adv-x="1443" unicode="Ÿ"/><glyph d="M-2 0l43 266l901 901h-743l43 267h1083l-41 -267l-905 -901h770l-43 -266h-1108zM672 1556l260 287h258l-260 -287h-258z" glyph-name="Zacute" horiz-adv-x="1271" unicode="Ź"/><glyph d="M-2 0l41 250l614 565h-508l41 250h861l-41 -250l-617 -565h529l-39 -250h-881zM465 1188l260 287h258l-260 -287h-258z" glyph-name="zacute" horiz-adv-x="1044" unicode="ź"/><glyph d="M-2 0l43 266l901 901h-743l43 267h1083l-41 -267l-905 -901h770l-43 -266h-1108zM686 1720q0 66 49 113t114.5 47t115 -47t49.5 -113q0 -68 -49.5 -114.5t-115 -46.5t-114.5 46.5t-49 114.5z" glyph-name="Zdotaccent" horiz-adv-x="1271" unicode="Ż"/><glyph d="M-2 0l41 250l614 565h-508l41 250h861l-41 -250l-617 -565h529l-39 -250h-881zM479 1352q0 66 49.5 112.5t115 46.5t114.5 -47t49 -112q0 -68 -49 -115t-114.5 -47t-115 47t-49.5 115z" glyph-name="zdotaccent" horiz-adv-x="1044" unicode="ż"/><glyph d="M-2 0l43 266l901 901h-743l43 267h1083l-41 -267l-905 -901h770l-43 -266h-1108zM453 1841h278l96 -196l156 196h281l-236 -289h-430z" glyph-name="Zcaron" horiz-adv-x="1271" unicode="Ž"/><glyph d="M-2 0l41 250l614 565h-508l41 250h861l-41 -250l-617 -565h529l-39 -250h-881zM246 1473h278l97 -197l155 197h281l-236 -289h-430z" glyph-name="zcaron" horiz-adv-x="1044" unicode="ž"/><glyph d="M631 -20q-287 0 -435.5 177t-97.5 515l19 116h979v37q0 176 -65.5 269.5t-217.5 93.5q-244 0 -334 -209h-303q68 233 248 353t418 120q268 0 420.5 -152.5t152.5 -439.5q0 -172 -52 -328.5t-148.5 -280.5t-248 -197.5t-335.5 -73.5zM387 543q-23 -158 61 -228.5 t220 -70.5q274 0 383 299h-664z" glyph-name="uni018F" horiz-adv-x="1452" unicode="Ə"/><glyph d="M-70 -133q80 0 114 50t46 142l86 549h-139l39 256h141l29 183q27 184 137.5 281t349.5 97l-39 -256q-72 0 -108.5 -49t-50.5 -143l-19 -113h127l-39 -256h-129l-98 -620q-31 -199 -141.5 -288t-346.5 -89z" glyph-name="florin" horiz-adv-x="643" unicode="ƒ"/><glyph d="M686 -20q-276 0 -433 163.5t-157 452.5q0 229 95.5 423.5t276.5 313.5t411 119h4h458l27 162h254l-61 -389h-199q104 -156 104 -385q0 -356 -218 -608t-562 -252zM410 604q0 -176 77.5 -268t221.5 -92q141 0 245.5 90t151.5 221t47 276q0 176 -76 266.5t-219 90.5 q-141 0 -245.5 -88t-153.5 -218.5t-49 -277.5z" glyph-name="Ohorn" horiz-adv-x="1507" unicode="Ơ"/><glyph d="M506 -20q-197 0 -326 114.5t-129 341.5q0 270 175 459.5t448 189.5h344l24 160h240l-63 -389h-136q45 -96 45 -227q0 -270 -175 -459.5t-447 -189.5zM336 467q0 -121 56.5 -180.5t150.5 -59.5q141 0 221 112t80 259q0 121 -56.5 180.5t-150.5 59.5q-141 0 -221 -112 t-80 -259z" glyph-name="ohorn" horiz-adv-x="1179" unicode="ơ"/><glyph d="M614 -20q-272 0 -411.5 143t-93.5 422l141 889h309l-137 -867q-25 -156 40.5 -238.5t201.5 -82.5q268 0 317 321l102 639l7 31l30 197h293l31 180h254l-68 -408h-237l-105 -661q-45 -279 -224.5 -422t-449.5 -143z" glyph-name="Uhorn" horiz-adv-x="1392" unicode="Ư"/><glyph d="M395 461q-20 -117 25 -175.5t141 -58.5q98 0 166 59.5t88 180.5l94 598h299l-168 -1065h-299l35 223h-14q-31 -92 -127 -167.5t-244 -75.5q-166 0 -252 104t-55 305l106 676h299zM1276 838l39 227h291l30 180h254l-67 -407h-547z" glyph-name="uhorn" unicode="ư"/><glyph d="M-49 0l745 1434h396l290 -1434h-317l-49 268h-602l-135 -268h-328zM526 496h447l-115 624h-18zM551 1841h278l97 -196l155 196h281l-236 -289h-430z" glyph-name="uni01CD" horiz-adv-x="1501" unicode="Ǎ"/><glyph d="M307 -20q-129 0 -211 60t-82 198q0 295 426 358l189 31q74 10 103.5 27.5t37.5 52.5l4 24q14 70 -22.5 103.5t-122.5 33.5q-172 0 -201 -135l-4 -22l-281 -2l7 49q51 328 516 327q238 0 335 -85t68 -261l-119 -739h-284l30 188h-12q-16 -29 -39.5 -58.5t-69 -66t-115 -60 t-153.5 -23.5zM315 1473h279l96 -197l156 197h280l-235 -289h-430zM319 297q0 -104 134 -104q100 0 174.5 54t87.5 122l20 123q-8 -10 -19 -16.5t-29.5 -11.5t-26 -7t-35 -7.5t-31.5 -5.5l-135 -22q-140 -25 -140 -125z" glyph-name="uni01CE" horiz-adv-x="1140" unicode="ǎ"/><glyph d="M23 0l227 1434h307l-227 -1434h-307zM55 1841h279l96 -196l156 196h280l-235 -289h-430z" glyph-name="uni01CF" horiz-adv-x="520" unicode="Ǐ"/><glyph d="M4 0l168 1065h299l-168 -1065h-299zM-25 1473h279l96 -197l156 197h280l-235 -289h-430z" glyph-name="uni01D0" horiz-adv-x="479" unicode="ǐ"/><glyph d="M686 -20q-276 0 -433 163.5t-157 452.5q0 229 95.5 423.5t276.5 313.5t411 119q276 0 431.5 -163t155.5 -449q0 -356 -218 -608t-562 -252zM410 604q0 -176 77.5 -268t221.5 -92q141 0 245.5 90t151.5 221t47 276q0 176 -76 266.5t-219 90.5q-141 0 -245.5 -88 t-153.5 -218.5t-49 -277.5zM551 1841h278l97 -196l155 196h281l-236 -289h-430z" glyph-name="uni01D1" horiz-adv-x="1507" unicode="Ǒ"/><glyph d="M506 -20q-197 0 -326 114.5t-129 341.5q0 270 175 459.5t448 189.5q197 0 325.5 -114.5t128.5 -341.5q0 -270 -175 -459.5t-447 -189.5zM328 1473h278l96 -197l156 197h281l-236 -289h-430zM336 467q0 -121 56.5 -180.5t150.5 -59.5q141 0 221 112t80 259 q0 121 -56.5 180.5t-150.5 59.5q-141 0 -221 -112t-80 -259z" glyph-name="uni01D2" horiz-adv-x="1179" unicode="ǒ"/><glyph d="M614 -20q-272 0 -411.5 143t-93.5 422l141 889h309l-137 -867q-25 -156 40.5 -238.5t201.5 -82.5q268 0 317 321l139 867h310l-142 -889q-45 -279 -224.5 -422t-449.5 -143zM471 1841h279l96 -196l155 196h281l-235 -289h-431z" glyph-name="uni01D3" horiz-adv-x="1392" unicode="Ǔ"/><glyph d="M395 461q-20 -117 25 -175.5t141 -58.5q98 0 166 59.5t88 180.5l94 598h299l-168 -1065h-299l35 223h-14q-31 -92 -127 -167.5t-244 -75.5q-166 0 -252 104t-55 305l106 676h299zM348 1473h279l96 -197l156 197h280l-235 -289h-430z" glyph-name="uni01D4" unicode="ǔ"/><glyph d="M614 -20q-272 0 -411.5 143t-93.5 422l141 889h309l-137 -867q-25 -156 40.5 -238.5t201.5 -82.5q268 0 317 321l139 867h310l-142 -889q-45 -279 -224.5 -422t-449.5 -143zM455 1720q0 66 49 113t114.5 47t114.5 -47t49 -113q0 -68 -49 -114.5t-114.5 -46.5t-114.5 46.5 t-49 114.5zM563 2054l27 174h672l-27 -174h-672zM942 1720.5q0 67.5 49 113.5t117 46q66 0 115 -47t49 -113q0 -68 -49 -114.5t-115 -46.5q-68 0 -117 47t-49 114.5z" glyph-name="uni01D5" horiz-adv-x="1392" unicode="Ǖ"/><glyph d="M395 461q-20 -117 25 -175.5t141 -58.5q98 0 166 59.5t88 180.5l94 598h299l-168 -1065h-299l35 223h-14q-31 -92 -127 -167.5t-244 -75.5q-166 0 -252 104t-55 305l106 676h299zM332 1352q0 66 49 112.5t114.5 46.5t114.5 -47t49 -112q0 -68 -49 -115t-114.5 -47 t-114.5 47t-49 115zM440 1686l27 174h672l-27 -174h-672zM819 1351.5q0 67.5 49.5 113.5t116.5 46q66 0 115 -47t49 -112q0 -68 -49 -115t-115 -47q-68 0 -117 47t-49 114.5z" glyph-name="uni01D6" unicode="ǖ"/><glyph d="M614 -20q-272 0 -411.5 143t-93.5 422l141 889h309l-137 -867q-25 -156 40.5 -238.5t201.5 -82.5q268 0 317 321l139 867h310l-142 -889q-45 -279 -224.5 -422t-449.5 -143zM455 1720q0 66 49 113t114.5 47t114.5 -47t49 -113q0 -68 -49 -114.5t-114.5 -46.5t-114.5 46.5 t-49 114.5zM748 1942l260 286h258l-260 -286h-258zM942 1720.5q0 67.5 49 113.5t117 46q66 0 115 -47t49 -113q0 -68 -49 -114.5t-115 -46.5q-68 0 -117 47t-49 114.5z" glyph-name="uni01D7" horiz-adv-x="1392" unicode="Ǘ"/><glyph d="M395 461q-20 -117 25 -175.5t141 -58.5q98 0 166 59.5t88 180.5l94 598h299l-168 -1065h-299l35 223h-14q-31 -92 -127 -167.5t-244 -75.5q-166 0 -252 104t-55 305l106 676h299zM332 1352q0 66 49 112.5t114.5 46.5t114.5 -47t49 -112q0 -68 -49 -115t-114.5 -47 t-114.5 47t-49 115zM625 1573l260 287h258l-260 -287h-258zM819 1351.5q0 67.5 49.5 113.5t116.5 46q66 0 115 -47t49 -112q0 -68 -49 -115t-115 -47q-68 0 -117 47t-49 114.5z" glyph-name="uni01D8" unicode="ǘ"/><glyph d="M614 -20q-272 0 -411.5 143t-93.5 422l141 889h309l-137 -867q-25 -156 40.5 -238.5t201.5 -82.5q268 0 317 321l139 867h310l-142 -889q-45 -279 -224.5 -422t-449.5 -143zM455 1720q0 66 49 113t114.5 47t114.5 -47t49 -113q0 -68 -49 -114.5t-114.5 -46.5t-114.5 46.5 t-49 114.5zM518 2226h279l96 -196l156 196h280l-235 -289h-430zM942 1720.5q0 67.5 49 113.5t117 46q66 0 115 -47t49 -113q0 -68 -49 -114.5t-115 -46.5q-68 0 -117 47t-49 114.5z" glyph-name="uni01D9" horiz-adv-x="1392" unicode="Ǚ"/><glyph d="M395 461q-20 -117 25 -175.5t141 -58.5q98 0 166 59.5t88 180.5l94 598h299l-168 -1065h-299l35 223h-14q-31 -92 -127 -167.5t-244 -75.5q-166 0 -252 104t-55 305l106 676h299zM332 1352q0 66 49 112.5t114.5 46.5t114.5 -47t49 -112q0 -68 -49 -115t-114.5 -47 t-114.5 47t-49 115zM395 1858h279l96 -197l156 197h280l-235 -289h-430zM819 1351.5q0 67.5 49.5 113.5t116.5 46q66 0 115 -47t49 -112q0 -68 -49 -115t-115 -47q-68 0 -117 47t-49 114.5z" glyph-name="uni01DA" unicode="ǚ"/><glyph d="M614 -20q-272 0 -411.5 143t-93.5 422l141 889h309l-137 -867q-25 -156 40.5 -238.5t201.5 -82.5q268 0 317 321l139 867h310l-142 -889q-45 -279 -224.5 -422t-449.5 -143zM455 1720q0 66 49 113t114.5 47t114.5 -47t49 -113q0 -68 -49 -114.5t-114.5 -46.5t-114.5 46.5 t-49 114.5zM578 2228h258l172 -286h-260zM942 1720.5q0 67.5 49 113.5t117 46q66 0 115 -47t49 -113q0 -68 -49 -114.5t-115 -46.5q-68 0 -117 47t-49 114.5z" glyph-name="uni01DB" horiz-adv-x="1392" unicode="Ǜ"/><glyph d="M395 461q-20 -117 25 -175.5t141 -58.5q98 0 166 59.5t88 180.5l94 598h299l-168 -1065h-299l35 223h-14q-31 -92 -127 -167.5t-244 -75.5q-166 0 -252 104t-55 305l106 676h299zM332 1352q0 66 49 112.5t114.5 46.5t114.5 -47t49 -112q0 -68 -49 -115t-114.5 -47 t-114.5 47t-49 115zM455 1860h258l172 -287h-260zM819 1351.5q0 67.5 49.5 113.5t116.5 46q66 0 115 -47t49 -112q0 -68 -49 -115t-115 -47q-68 0 -117 47t-49 114.5z" glyph-name="uni01DC" unicode="ǜ"/><glyph d="M694 -20q-289 0 -442.5 154.5t-153.5 449.5q0 238 93.5 434t274.5 315t415 119q238 0 387 -121t149 -352h-303q-31 209 -254 209q-141 0 -246.5 -87t-154.5 -216t-49 -273q0 -174 79.5 -271t233.5 -97q133 0 227 74.5t123 230.5l-276 -6l39 245h581l-20 -124 q-66 -352 -236 -518t-467 -166zM543 1841h278l97 -196l155 196h281l-236 -289h-430z" glyph-name="Gcaron" horiz-adv-x="1462" unicode="Ǧ"/><glyph d="M428 27q-158 0 -268.5 100t-110.5 305q0 274 151.5 463.5t391.5 189.5q104 0 181 -40.5t112 -104.5l18 125h299l-149 -944l-11 -82q-16 -115 -66 -202t-113.5 -136t-146.5 -80t-151.5 -40t-140.5 -9q-63 0 -122.5 7t-126 31.5t-112 62.5t-69 106.5t-8.5 159.5h264 q-6 -70 54.5 -103t148.5 -33q113 0 194.5 59.5t95.5 176.5l11 82l10 51q-53 -63 -142.5 -104t-193.5 -41zM332 1473h278l97 -197l155 197h281l-236 -289h-430zM336 500q0 -113 58.5 -168.5t154.5 -55.5q129 0 211 99.5t82 238.5q0 111 -59.5 167.5t-153.5 56.5 q-129 0 -211 -99.5t-82 -238.5z" glyph-name="gcaron" horiz-adv-x="1224" unicode="ǧ"/><glyph d="M23 0l227 1434h307l-108 -680l679 680h361l-651 -641l479 -793h-350l-351 575l-231 -227l-55 -348h-307zM518 1841h279l96 -196l156 196h280l-235 -289h-430z" glyph-name="uni01E8" horiz-adv-x="1435" unicode="Ǩ"/><glyph d="M23 0l227 1434h299l-129 -809l471 440h319l-501 -453l389 -612h-320l-274 428l-133 -121l-49 -307h-299zM47 1841h279l96 -196l156 196h280l-235 -289h-430z" glyph-name="uni01E9" horiz-adv-x="1196" unicode="ǩ"/><glyph d="M760 -393q-37 -16 -91.5 -18.5t-110.5 11t-96 58.5t-40 115q0 131 123 219q-213 41 -331 197.5t-118 406.5q0 229 95.5 423.5t276.5 313.5t411 119q276 0 431.5 -163t155.5 -449q0 -319 -179 -560t-472 -290q-78 -14 -123 -56.5t-45 -95.5q0 -49 41 -66.5t98 1.5z M410 604q0 -176 77.5 -268t221.5 -92q141 0 245.5 90t151.5 221t47 276q0 176 -76 266.5t-219 90.5q-141 0 -245.5 -88t-153.5 -218.5t-49 -277.5z" glyph-name="uni01EA" horiz-adv-x="1507" unicode="Ǫ"/><glyph d="M567 -393q-37 -16 -92 -18.5t-111.5 11t-96.5 58.5t-40 115q0 135 131 225q-139 37 -223 146.5t-84 291.5q0 270 175 459.5t448 189.5q197 0 325.5 -114.5t128.5 -341.5q0 -240 -141 -421t-371 -218q-74 -16 -117.5 -58.5t-43.5 -93.5q0 -49 41 -66.5t98 1.5zM336 467 q0 -121 56.5 -180.5t150.5 -59.5q141 0 221 112t80 259q0 121 -56.5 180.5t-150.5 59.5q-141 0 -221 -112t-80 -259z" glyph-name="uni01EB" horiz-adv-x="1179" unicode="ǫ"/><glyph d="M594 -20q-279 0 -422 128t-106 361h317q-8 -104 54.5 -170t201.5 -66q123 0 198.5 53.5t75.5 147.5q0 68 -44 106t-152 58l-170 33q-168 35 -263.5 114.5t-95.5 237.5q0 215 175.5 342t443.5 127q252 0 386 -113.5t99 -326.5h-315q18 92 -41 139t-168 47 q-115 0 -184.5 -50t-69.5 -134q0 -121 170 -152l156 -31q215 -41 308 -125.5t93 -234.5q0 -229 -182 -360t-465 -131zM324 -670l18 121q84 6 124 36t52 93q-90 0 -137 46t-47 118q0 78 52 132t136 54q82 0 133.5 -56t51.5 -173q0 -158 -94.5 -264.5t-276.5 -106.5h-12z" glyph-name="Scommaaccent" horiz-adv-x="1333" unicode="Ș"/><glyph d="M422 -20q-217 0 -324.5 94t-81.5 276h269q-6 -141 170 -141q86 0 134 30.5t48 84.5q0 66 -111 88l-153 32q-264 59 -264 279q0 168 135 265t344 97q211 0 310 -97t71 -271h-248q4 74 -39 106.5t-125 32.5q-76 0 -119 -25.5t-43 -70.5q0 -37 30 -60.5t95 -40.5l168 -36 q125 -31 193.5 -90.5t68.5 -176.5q0 -176 -150.5 -276t-377.5 -100zM225 -688l19 121q84 6 124 35.5t52 93.5q-90 0 -137 46t-47 118q0 78 52 132t136 54q82 0 133 -56.5t51 -172.5q0 -158 -94 -264.5t-276 -106.5h-13z" glyph-name="scommaaccent" horiz-adv-x="1028" unicode="ș"/><glyph d="M377 0l186 1167h-418l43 267h1139l-41 -267h-418l-184 -1167h-307zM229 -670l19 121q84 6 124 36t52 93q-90 0 -137 46t-47 118q0 78 52 132t136 54q82 0 133 -56t51 -173q0 -158 -94 -264.5t-276 -106.5h-13z" glyph-name="uni021A" horiz-adv-x="1228" unicode="Ț"/><glyph d="M479 -14q-348 0 -297 333l82 517h-180l35 229h182l43 274h299l-45 -274h211l-35 -229h-213l-76 -474q-20 -137 105 -137h94l-37 -233q-57 -6 -168 -6zM201 -670l18 121q84 6 124 36t52 93q-90 0 -137 46t-47 118q0 78 52 132t136 54q82 0 133.5 -56t51.5 -173 q0 -158 -94.5 -264.5t-276.5 -106.5h-12z" glyph-name="uni021B" horiz-adv-x="778" unicode="ț"/><glyph d="M-66 -399q-117 0 -176 6l39 233h105q117 0 141 140l172 1085h299l-180 -1131q-50 -333 -400 -333z" glyph-name="uni0237" horiz-adv-x="522" unicode="ȷ"/><glyph d="M485 -27q-199 0 -319.5 102.5t-120.5 321.5q0 135 31 205h739q-2 141 -57.5 200.5t-157.5 59.5q-176 0 -238 -145h-262q63 180 202.5 274t334.5 94q205 0 333 -111.5t128 -355.5q0 -276 -167 -460.5t-446 -184.5zM322 440q-16 -104 32.5 -171.5t165.5 -67.5 q219 0 279 239h-477z" glyph-name="uni0259" horiz-adv-x="1150" unicode="ə"/><glyph d="M104 1186l236 289h430l145 -289h-278l-96 196l-156 -196h-281z" glyph-name="circumflex" horiz-adv-x="811" unicode="ˆ"/><glyph d="M958 1473l-235 -289h-430l-146 289h279l96 -197l156 197h280z" glyph-name="caron" horiz-adv-x="811" unicode="ˇ"/><glyph d="M455 1159q-172 0 -251 84t-54 232h196q-12 -145 133 -146q139 0 168 146h199q-25 -150 -124 -233t-267 -83z" glyph-name="breve" horiz-adv-x="696" unicode="˘"/><glyph d="M294.5 1190q-65.5 0 -114.5 47t-49 115q0 66 49 112.5t114.5 46.5t115 -47t49.5 -112q0 -68 -49.5 -115t-115 -47z" glyph-name="dotaccent" horiz-adv-x="329" unicode="˙"/><glyph d="M342 1143q-88 0 -149.5 59.5t-61.5 145.5t61.5 145t149.5 59q90 0 151.5 -59t61.5 -145t-61.5 -145.5t-151.5 -59.5zM270 1347.5q0 -32.5 20.5 -52t51.5 -19.5t52.5 20.5t21.5 51.5q0 33 -21.5 53t-52.5 20t-51.5 -20.5t-20.5 -53z" glyph-name="ring" horiz-adv-x="428" unicode="˚"/><glyph d="M221 -393q-37 -16 -92 -18.5t-111.5 11t-96.5 58.5t-40 115q0 125 112.5 211t258.5 86l129 -70q-125 0 -198.5 -45t-73.5 -117q0 -49 39.5 -66.5t99.5 1.5z" glyph-name="ogonek" horiz-adv-x="464" unicode="˛"/><glyph d="M639 1206q-66 0 -111 28t-76.5 56.5t-62.5 28.5q-70 0 -80 -59h-174q14 113 76.5 175t163.5 62q51 0 93 -17.5t62.5 -39t45 -39t47.5 -17.5q70 0 79 58h177q-14 -111 -77 -173.5t-163 -62.5z" glyph-name="tilde" horiz-adv-x="753" unicode="˜"/><glyph d="M479 1188l260 287h258l-260 -287h-258zM104 1188l261 287h258l-261 -287h-258z" glyph-name="hungarumlaut" horiz-adv-x="847" unicode="˝"/><glyph d="M336 1188l-170 287h258l172 -287h-260z" glyph-name="gravecomb" horiz-adv-x="0" unicode="̀"/><glyph d="M104 1188l261 287h258l-261 -287h-258z" glyph-name="acutecomb" horiz-adv-x="0" unicode="́"/><glyph d="M104 1186l236 289h430l145 -289h-278l-96 196l-156 -196h-281z" glyph-name="uni0302" horiz-adv-x="0" unicode="̂"/><glyph d="M639 1206q-66 0 -111 28t-76.5 56.5t-62.5 28.5q-70 0 -80 -59h-174q14 113 76.5 175t163.5 62q51 0 93 -17.5t62.5 -39t45 -39t47.5 -17.5q70 0 79 58h177q-14 -111 -77 -173.5t-163 -62.5z" glyph-name="tildecomb" horiz-adv-x="0" unicode="̃"/><glyph d="M123 1300l27 175h671l-26 -175h-672z" glyph-name="uni0304" horiz-adv-x="0" unicode="̄"/><glyph d="M455 1159q-172 0 -251 84t-54 232h196q-12 -145 133 -146q139 0 168 146h199q-25 -150 -124 -233t-267 -83z" glyph-name="uni0306" horiz-adv-x="0" unicode="̆"/><glyph d="M294.5 1190q-65.5 0 -114.5 47t-49 115q0 66 49 112.5t114.5 46.5t115 -47t49.5 -112q0 -68 -49.5 -115t-115 -47z" glyph-name="uni0307" horiz-adv-x="0" unicode="̇"/><glyph d="M784 1190q-68 0 -117 47t-49 114.5t49.5 113.5t116.5 46q66 0 115 -47t49 -112q0 -68 -49 -115t-115 -47zM131 1352q0 66 49 112.5t114.5 46.5t115 -47t49.5 -112q0 -68 -49.5 -115t-115 -47t-114.5 47t-49 115z" glyph-name="uni0308" horiz-adv-x="0" unicode="̈"/><glyph d="M319 1286q86 2 87 72q0 31 -17.5 47t-44.5 16q-51 0 -57 -55h-152q0 109 63.5 161t149.5 52q92 0 156.5 -54.5t64.5 -154.5q0 -88 -54 -140t-142 -65z" glyph-name="hookabovecomb" horiz-adv-x="0" unicode="̉"/><glyph d="M342 1143q-88 0 -149.5 59.5t-61.5 145.5t61.5 145t149.5 59q90 0 151.5 -59t61.5 -145t-61.5 -145.5t-151.5 -59.5zM270 1347.5q0 -32.5 20.5 -52t51.5 -19.5t52.5 20.5t21.5 51.5q0 33 -21.5 53t-52.5 20t-51.5 -20.5t-20.5 -53z" glyph-name="uni030A" horiz-adv-x="0" unicode="̊"/><glyph d="M479 1188l260 287h258l-260 -287h-258zM104 1188l261 287h258l-261 -287h-258z" glyph-name="uni030B" horiz-adv-x="0" unicode="̋"/><glyph d="M958 1473l-235 -289h-430l-146 289h279l96 -197l156 197h280z" glyph-name="uni030C" horiz-adv-x="0" unicode="̌"/><glyph d="M518 1296q-84 -6 -124 -35.5t-52 -93.5q90 0 137 -46t47 -117q0 -78 -52 -132.5t-136 -54.5q-82 0 -133 56.5t-51 173.5q0 158 94 264t276 106h13z" glyph-name="uni0312" horiz-adv-x="0" unicode="̒"/><glyph d="M49 838l39 227h291l31 180h254l-68 -407h-547z" glyph-name="uni031B" horiz-adv-x="0" unicode="̛"/><glyph d="M154 -471q-76 0 -129.5 51t-53.5 127q0 74 53.5 126t129.5 52q74 0 127 -52t53 -126t-53 -126t-127 -52z" glyph-name="dotbelowcomb" horiz-adv-x="0" unicode="̣"/><glyph d="M-113 -549q84 6 124 36t52 93q-90 0 -137 46t-47 118q0 78 52.5 132t136.5 54q82 0 133 -56t51 -173q0 -158 -94.5 -264.5t-276.5 -106.5h-12z" glyph-name="uni0326" horiz-adv-x="0" unicode="̦"/><glyph d="M-68 -369q63 -4 107.5 17.5t44.5 62.5q0 43 -42 54.5t-85 -15.5l-66 98l162 152h197l-133 -113h12q74 0 117 -42t43 -113q0 -121 -109.5 -184.5t-271.5 -63.5z" glyph-name="uni0327" horiz-adv-x="0" unicode="̧"/><glyph d="M221 -393q-37 -16 -92 -18.5t-111.5 11t-96.5 58.5t-40 115q0 125 112.5 211t258.5 86l129 -70q-125 0 -198.5 -45t-73.5 -117q0 -49 39.5 -66.5t99.5 1.5z" glyph-name="uni0328" horiz-adv-x="0" unicode="̨"/><glyph d="M-49 0l878 1460h2l416 -1460h-1296zM358 231h560l-166 693z" glyph-name="Delta" horiz-adv-x="1366" unicode="Δ"/><glyph d="M37 0l37 242h200q-172 156 -172 399q0 213 118 400.5t310.5 297t403.5 109.5q262 0 442 -167t180 -437q0 -367 -331 -602h200l-36 -242h-545l51 324q162 66 256 200.5t94 284.5q0 156 -100.5 253t-255.5 97q-195 0 -335 -146.5t-140 -336.5q0 -242 219 -352l-53 -324 h-543z" glyph-name="Omega" horiz-adv-x="1591" unicode="Ω"/><glyph d="M-39 -389l229 1454h299l-94 -604q-20 -117 25 -175.5t141 -58.5q98 0 166 59.5t88 180.5l94 598h299l-168 -1065h-299l35 223h-14q-31 -92 -127 -167.5t-244 -75.5q-39 0 -72 6l-59 -375h-299z" glyph-name="mu" unicode="μ"/><glyph d="M1137 -12q-141 0 -227.5 76.5t-63.5 228.5l80 516h-293l-127 -809h-299l127 809h-205l41 256h1296l-41 -256h-202l-70 -453q-12 -66 9.5 -89t72.5 -23q74 0 131 32l-41 -253q-84 -35 -188 -35z" glyph-name="pi" horiz-adv-x="1480" unicode="π"/><glyph d="M23 0l227 1434h979l-43 -267h-672l-53 -321h610l-37 -240h-610l-51 -340h692l-43 -266h-999zM397 1720q0 66 49.5 113t115 47t114.5 -47t49 -113q0 -68 -49 -114.5t-114.5 -46.5t-115 46.5t-49.5 114.5zM885 1720.5q0 67.5 49 113.5t117 46q66 0 114.5 -47t48.5 -113 q0 -68 -49 -114.5t-114 -46.5q-68 0 -117 47t-49 114.5z" glyph-name="afii10023" horiz-adv-x="1161" unicode="Ё"/><glyph d="M23 0l227 1434h924l-41 -271h-613l-184 -1163h-313zM580 1556l260 287h258l-260 -287h-258z" glyph-name="afii10052" horiz-adv-x="1075" unicode="Ѓ"/><glyph d="M680 -20q-276 0 -428 157.5t-152 458.5q0 362 209 609t563 247q252 0 401.5 -132t137.5 -384h-295q-10 131 -85 191.5t-189 60.5q-152 0 -252.5 -93.5t-147.5 -242.5h410l-41 -250h-401q4 -168 81.5 -263t223.5 -95q236 0 334 254h294q-61 -262 -240 -390t-423 -128z" glyph-name="afii10053" horiz-adv-x="1409" unicode="Є"/><glyph d="M23 0l227 1434h307l-227 -1434h-307zM35 1720q0 66 49 113t114.5 47t114.5 -47t49 -113q0 -68 -49 -114.5t-114.5 -46.5t-114.5 46.5t-49 114.5zM522 1720.5q0 67.5 49.5 113.5t116.5 46q66 0 115 -47t49 -113q0 -68 -49 -114.5t-115 -46.5q-68 0 -117 47t-49 114.5z" glyph-name="afii10056" horiz-adv-x="520" unicode="Ї"/><glyph d="M23 0l227 1434h307l-108 -680l679 680h361l-651 -641l479 -793h-350l-351 575l-231 -227l-55 -348h-307zM594 1556l260 287h258l-260 -287h-258z" glyph-name="afii10061" horiz-adv-x="1435" unicode="Ќ"/><glyph d="M137 244q90 -10 149.5 6t82 38.5t43.5 61.5q39 74 6 211l-230 873h347l127 -629l331 629h348l-626 -1061q-147 -250 -278.5 -338t-340.5 -68zM481 1843h197q-12 -145 133 -145q139 0 168 145h199q-25 -150 -124.5 -232.5t-267.5 -82.5q-172 0 -251 84t-54 231z" glyph-name="afii10062" horiz-adv-x="1243" unicode="Ў"/><glyph d="M-49 0l745 1434h396l290 -1434h-317l-49 268h-602l-135 -268h-328zM526 496h447l-115 624h-18z" glyph-name="afii10017" horiz-adv-x="1501" unicode="А"/><glyph d="M23 0l227 1434h924l-41 -271h-613l-33 -209h269q477 0 477 -409q0 -250 -171 -397.5t-458 -147.5h-581zM379 266h244q133 0 203.5 66.5t70.5 173.5q0 184 -211 184h-242z" glyph-name="afii10018" horiz-adv-x="1294" unicode="Б"/><glyph d="M23 0l227 1434h573q207 0 312.5 -83t105.5 -239q0 -246 -256 -330q252 -72 252 -319q0 -215 -170 -339t-430 -124h-614zM369 258h274q125 0 202 65.5t77 165.5q0 168 -199 168h-289zM463 852h250q90 0 148.5 56.5t58.5 138.5q0 129 -142 129h-266z" glyph-name="afii10019" horiz-adv-x="1306" unicode="В"/><glyph d="M23 0l227 1434h924l-41 -271h-613l-184 -1163h-313z" glyph-name="afii10020" horiz-adv-x="1075" unicode="Г"/><glyph d="M-72 -141l64 397h100q201 145 301 760l68 418h1067l-189 -1178h140l-64 -397h-299l23 141h-889l-23 -141h-299zM422 256h606l143 907h-440l-24 -147q-101 -613 -285 -760z" glyph-name="afii10021" horiz-adv-x="1576" unicode="Д"/><glyph d="M23 0l227 1434h979l-43 -267h-672l-53 -321h610l-37 -240h-610l-51 -340h692l-43 -266h-999z" glyph-name="afii10022" horiz-adv-x="1161" unicode="Е"/><glyph d="M-49 0l743 723l-508 711h357l403 -557l88 557h314l-93 -582l584 582h354l-704 -711l485 -723h-356l-404 594l-94 -594h-313l90 569l-592 -569h-354z" glyph-name="afii10024" horiz-adv-x="2093" unicode="Ж"/><glyph d="M522 -20q-262 0 -382 137t-83 370h277q-20 -133 46 -194.5t179 -61.5q119 0 199 65.5t80 168.5q0 170 -238 170h-84l35 215h72q121 0 191.5 53t70.5 144q0 76 -50.5 112.5t-127.5 36.5q-205 0 -246 -229h-279q31 229 180.5 357t391.5 128q201 0 315.5 -90t114.5 -238 q0 -127 -83 -229t-208 -133q88 -10 168 -83t80 -214q0 -215 -178.5 -350t-440.5 -135z" glyph-name="afii10025" horiz-adv-x="1222" unicode="З"/><glyph d="M23 0l227 1434h307l-151 -942h8l727 942h319l-227 -1434h-307l147 924h-6l-713 -924h-331z" glyph-name="afii10026" horiz-adv-x="1423" unicode="И"/><glyph d="M874 1528q-172 0 -250.5 84t-54.5 231h197q-12 -145 133 -145q139 0 168 145h199q-25 -150 -124.5 -232.5t-267.5 -82.5zM23 0l227 1434h307l-151 -942h8l727 942h319l-227 -1434h-307l147 924h-6l-713 -924h-331z" glyph-name="afii10027" horiz-adv-x="1423" unicode="Й"/><glyph d="M23 0l227 1434h307l-108 -680l679 680h361l-651 -641l479 -793h-350l-351 575l-231 -227l-55 -348h-307z" glyph-name="afii10028" horiz-adv-x="1435" unicode="К"/><glyph d="M-12 256q100 -2 160.5 40t80.5 169l156 969h1057l-228 -1434h-313l184 1163h-430l-112 -712q-41 -254 -203 -372t-395 -93z" glyph-name="afii10029" horiz-adv-x="1404" unicode="Л"/><glyph d="M23 0l227 1434h387l201 -1016l516 1016h395l-227 -1434h-308l144 903h-10l-451 -903h-242l-172 903h-10l-143 -903h-307z" glyph-name="afii10030" horiz-adv-x="1712" unicode="М"/><glyph d="M897 0l94 590h-567l-94 -590h-307l227 1434h307l-94 -590h567l94 590h308l-228 -1434h-307z" glyph-name="afii10031" horiz-adv-x="1394" unicode="Н"/><glyph d="M686 -20q-276 0 -433 163.5t-157 452.5q0 229 95.5 423.5t276.5 313.5t411 119q276 0 431.5 -163t155.5 -449q0 -356 -218 -608t-562 -252zM410 604q0 -176 77.5 -268t221.5 -92q141 0 245.5 90t151.5 221t47 276q0 176 -76 266.5t-219 90.5q-141 0 -245.5 -88 t-153.5 -218.5t-49 -277.5z" glyph-name="afii10032" horiz-adv-x="1507" unicode="О"/><glyph d="M23 0l227 1434h1175l-227 -1434h-313l184 1163h-549l-184 -1163h-313z" glyph-name="afii10033" horiz-adv-x="1388" unicode="П"/><glyph d="M23 0l227 1434h575q479 0 480 -406q0 -250 -171 -400.5t-460 -150.5h-268l-76 -477h-307zM446 743h261q131 0 205.5 67t74.5 177q0 180 -215 180h-258z" glyph-name="afii10034" horiz-adv-x="1288" unicode="Р"/><glyph d="M680 -20q-276 0 -428 157.5t-152 458.5q0 362 209 609t563 247q252 0 401.5 -132t137.5 -384h-295q-10 131 -85 191.5t-189 60.5q-141 0 -242.5 -88t-145.5 -212t-44 -263q0 -178 77.5 -279.5t227.5 -101.5q236 0 334 254h294q-61 -262 -240 -390t-423 -128z" glyph-name="afii10035" horiz-adv-x="1409" unicode="С"/><glyph d="M377 0l186 1167h-418l43 267h1139l-41 -267h-418l-184 -1167h-307z" glyph-name="afii10036" horiz-adv-x="1228" unicode="Т"/><glyph d="M137 244q90 -10 149.5 6t82 38.5t43.5 61.5q39 74 6 211l-230 873h347l127 -629l331 629h348l-626 -1061q-147 -250 -278.5 -338t-340.5 -68z" glyph-name="afii10037" horiz-adv-x="1243" unicode="У"/><glyph d="M514 -31l27 164q-211 35 -326 160t-115 325q0 268 173 453.5t452 228.5l27 164h313l-27 -164q211 -33 326 -157.5t115 -325.5q0 -270 -173 -455.5t-452 -228.5l-27 -164h-313zM401 653q0 -213 179 -272l106 672q-133 -43 -209 -149t-76 -251zM893 381q135 41 210 148.5 t75 254.5q0 211 -179 269z" glyph-name="afii10038" horiz-adv-x="1517" unicode="Ф"/><glyph d="M-49 0l606 737l-350 697h344l219 -437l358 437h340l-569 -695l371 -739h-344l-240 479l-393 -479h-342z" glyph-name="afii10039" horiz-adv-x="1388" unicode="Х"/><glyph d="M23 0l227 1434h313l-184 -1164h549l184 1164h313l-184 -1164h141l-90 -559h-299l47 289h-1017z" glyph-name="afii10040" horiz-adv-x="1458" unicode="Ц"/><glyph d="M489 311q-199 0 -304 118t-66 362l100 643h313l-98 -629q-14 -104 41 -163.5t164 -59.5q133 0 222 75.5t108 145.5v-15l102 646h313l-227 -1434h-313l80 506q-191 -195 -435 -195z" glyph-name="afii10041" horiz-adv-x="1347" unicode="Ч"/><glyph d="M23 0l227 1434h313l-184 -1164h283l184 1164h311l-182 -1164h282l183 1164h313l-227 -1434h-1503z" glyph-name="afii10042" horiz-adv-x="1716" unicode="Ш"/><glyph d="M23 0l227 1434h313l-184 -1164h283l184 1164h311l-182 -1164h282l183 1164h313l-184 -1164h137l-90 -559h-299l47 289h-1341z" glyph-name="afii10043" horiz-adv-x="1781" unicode="Щ"/><glyph d="M135 1163l43 271h494l-76 -480h262q483 0 483 -405q0 -252 -172 -400.5t-462 -148.5h-576l184 1163h-180zM487 266h261q123 0 190.5 66.5t67.5 179.5q0 178 -193 178h-262z" glyph-name="afii10044" horiz-adv-x="1400" unicode="Ъ"/><glyph d="M23 0l227 1434h313l-76 -480h263q483 0 483 -405q0 -252 -172 -400.5t-463 -148.5h-575zM379 266h260q123 0 190.5 66.5t67.5 179.5q0 178 -192 178h-263zM1298 0l228 1434h307l-227 -1434h-308z" glyph-name="afii10045" horiz-adv-x="1794" unicode="Ы"/><glyph d="M23 0l227 1434h313l-76 -480h263q483 0 483 -405q0 -252 -172 -400.5t-463 -148.5h-575zM379 266h260q123 0 190.5 66.5t67.5 179.5q0 178 -192 178h-263z" glyph-name="afii10046" horiz-adv-x="1292" unicode="Ь"/><glyph d="M600 580l39 249h412q-4 168 -82 263.5t-224 95.5q-236 0 -333 -254h-295q61 262 240.5 390t422.5 128q276 0 428 -157.5t152 -458.5q0 -362 -209 -609t-563 -247q-252 0 -401.5 132t-137.5 384h295q10 -131 85 -191.5t189 -60.5q152 0 252.5 93t147.5 243h-418z" glyph-name="afii10047" horiz-adv-x="1402" unicode="Э"/><glyph d="M23 0l227 1434h307l-94 -590h188q70 268 270.5 438t481.5 170q276 0 432 -163t156 -449q0 -356 -218.5 -608t-562.5 -252q-274 0 -430.5 161.5t-158.5 448.5h-197l-94 -590h-307zM934 604q0 -176 78 -268t221 -92q141 0 245.5 90t151.5 221t47 276q0 176 -75.5 266.5 t-219.5 90.5q-141 0 -245.5 -88t-153.5 -218.5t-49 -277.5z" glyph-name="afii10048" horiz-adv-x="2031" unicode="Ю"/><glyph d="M805 0l76 477h-213l-367 -477h-330l398 512q-242 86 -242 371q0 250 174 400.5t459 150.5h579l-227 -1434h-307zM449 934q0 -190 213 -191h262l67 424h-266q-131 0 -203.5 -62t-72.5 -171z" glyph-name="afii10049" horiz-adv-x="1302" unicode="Я"/><glyph d="M307 -20q-129 0 -211 60t-82 198q0 295 426 358l189 31q74 10 103.5 27.5t37.5 52.5l4 24q14 70 -22.5 103.5t-122.5 33.5q-172 0 -201 -135l-4 -22l-281 -2l7 49q51 328 516 327q238 0 335 -85t68 -261l-119 -739h-284l30 188h-12q-16 -29 -39.5 -58.5t-69 -66t-115 -60 t-153.5 -23.5zM319 297q0 -104 134 -104q100 0 174.5 54t87.5 122l20 123q-8 -10 -19 -16.5t-29.5 -11.5t-26 -7t-35 -7.5t-31.5 -5.5l-135 -22q-140 -25 -140 -125z" glyph-name="afii10065" horiz-adv-x="1140" unicode="а"/><glyph d="M528 -18q-266 0 -372.5 185t-59.5 490l41 258q78 518 565 519h56q80 0 114.5 7t63.5 38h264q-33 -158 -109.5 -218.5t-265.5 -60.5h-129q-227 0 -270 -250l-4 -26q20 51 115.5 96t205.5 45q162 0 282 -105.5t120 -322.5q0 -279 -177.5 -467t-439.5 -188zM356 453 q0 -117 56.5 -173.5t146.5 -56.5q139 0 218 115t79 260q0 121 -57.5 180.5t-149.5 59.5q-139 0 -216 -119t-77 -266z" glyph-name="afii10066" horiz-adv-x="1191" unicode="б"/><glyph d="M23 0l167 1065h560q162 0 263 -66.5t101 -177.5q0 -78 -50 -141.5t-138 -87.5q197 -66 196 -246q0 -166 -148.5 -256t-365.5 -90h-585zM358 242h297q102 0 140.5 40t38.5 89q0 98 -148 98h-291zM424 645h260q43 0 73.5 11.5t45 28.5t20.5 32.5t6 30.5q0 76 -112 75h-264z " glyph-name="afii10067" horiz-adv-x="1210" unicode="в"/><glyph d="M23 0l167 1065h760l-39 -234h-460l-129 -831h-299z" glyph-name="afii10068" horiz-adv-x="901" unicode="г"/><glyph d="M221 0l-18 -109h-271l58 342h102q72 53 105.5 167t70.5 362l47 303h977l-131 -832h103l-58 -342h-270l18 109h-733zM383 233h479l94 598h-381l-20 -143q-29 -209 -67.5 -310.5t-104.5 -144.5z" glyph-name="afii10069" horiz-adv-x="1345" unicode="д"/><glyph d="M508 -27q-203 0 -330 112t-127 355q0 276 166 460.5t445 184.5q199 0 319.5 -102t120.5 -321q0 -135 -29 -205h-741q2 -143 55 -201.5t162 -58.5q166 0 235 143h263q-68 -180 -207 -273.5t-332 -93.5zM350 618h477q14 106 -35 173t-165 67q-115 0 -183.5 -65.5 t-93.5 -174.5z" glyph-name="afii10070" horiz-adv-x="1150" unicode="е"/><glyph d="M-70 0l596 526l-417 539h370l299 -401l64 401h299l-66 -412l441 412h366l-588 -539l430 -526h-368l-320 403l-63 -403h-299l63 395l-440 -395h-367z" glyph-name="afii10072" horiz-adv-x="1822" unicode="ж"/><glyph d="M459 -18q-236 0 -346.5 108.5t-77.5 315.5h266q-14 -96 33 -152.5t158 -56.5q96 0 156.5 41t60.5 106q0 133 -232 133l27 152q231 4 231 131q0 102 -147 102q-80 0 -133.5 -42t-67.5 -122h-270q29 186 155.5 283.5t341.5 97.5q178 0 294 -68.5t116 -195.5 q0 -92 -61.5 -160.5t-157.5 -93.5q25 -4 51.5 -15t62 -35t59 -70t23.5 -105q0 -164 -159.5 -259t-382.5 -95z" glyph-name="afii10073" horiz-adv-x="1112" unicode="з"/><glyph d="M23 0l167 1065h299l-100 -645h8l535 645h299l-168 -1065h-299l98 625h-8l-518 -625h-313z" glyph-name="afii10074" horiz-adv-x="1253" unicode="и"/><glyph d="M23 0l167 1065h299l-100 -645h8l535 645h299l-168 -1065h-299l98 625h-8l-518 -625h-313zM430 1475h197q-12 -145 133 -146q139 0 168 146h198q-25 -150 -124 -233t-267 -83q-172 0 -251 84.5t-54 231.5z" glyph-name="afii10075" horiz-adv-x="1253" unicode="й"/><glyph d="M23 0l167 1065h299l-65 -418l436 418h340l-495 -455l387 -610h-318l-280 416l-125 -115l-47 -301h-299z" glyph-name="afii10076" horiz-adv-x="1189" unicode="к"/><glyph d="M-18 227q215 -4 251 232l95 606h936l-168 -1065h-287l121 831h-340l-62 -387q-39 -254 -193.5 -364.5t-389.5 -85.5z" glyph-name="afii10077" horiz-adv-x="1286" unicode="л"/><glyph d="M23 0l167 1065h349l194 -717l418 717h350l-168 -1065h-299l96 596h-10l-327 -596h-220l-147 596h-8l-96 -596h-299z" glyph-name="afii10078" horiz-adv-x="1523" unicode="м"/><glyph d="M23 0l167 1065h299l-61 -393h365l61 393h299l-168 -1065h-299l70 438h-365l-69 -438h-299z" glyph-name="afii10079" horiz-adv-x="1175" unicode="н"/><glyph d="M506 -20q-197 0 -326 114.5t-129 341.5q0 270 175 459.5t448 189.5q197 0 325.5 -114.5t128.5 -341.5q0 -270 -175 -459.5t-447 -189.5zM336 467q0 -121 56.5 -180.5t150.5 -59.5q141 0 221 112t80 259q0 121 -56.5 180.5t-150.5 59.5q-141 0 -221 -112t-80 -259z" glyph-name="afii10080" horiz-adv-x="1179" unicode="о"/><glyph d="M23 0l167 1065h951l-168 -1065h-299l129 831h-352l-129 -831h-299z" glyph-name="afii10081" horiz-adv-x="1163" unicode="п"/><glyph d="M-39 -389l229 1454h299l-24 -152q41 72 136 122t210 50q162 0 272.5 -108.5t110.5 -323.5q0 -272 -162 -472.5t-407 -200.5q-111 0 -184.5 48t-96.5 122l-84 -539h-299zM387 467q0 -119 58.5 -179.5t148.5 -60.5q137 0 224 109.5t87 259.5q0 121 -58.5 181.5t-152.5 60.5 q-137 0 -222 -110.5t-85 -260.5z" glyph-name="afii10082" horiz-adv-x="1241" unicode="р"/><glyph d="M506 -20q-195 0 -326 110.5t-131 341.5q0 274 175 463.5t454 189.5q80 0 149.5 -18t137 -63.5t103.5 -135.5t30 -219h-267q-2 94 -54 140.5t-140 46.5q-145 0 -225 -112t-80 -259q0 -236 211 -236q188 0 256 187h262q-31 -127 -95.5 -217t-146.5 -135.5t-157.5 -64.5 t-155.5 -19z" glyph-name="afii10083" horiz-adv-x="1140" unicode="с"/><glyph d="M309 0l131 831h-334l39 234h963l-39 -234h-330l-131 -831h-299z" glyph-name="afii10084" horiz-adv-x="1085" unicode="т"/><glyph d="M33 -156q219 -27 301 105q43 70 24 145l-239 971h305l139 -688l363 688h309l-602 -1071q-141 -250 -278.5 -338t-358.5 -66z" glyph-name="afii10085" horiz-adv-x="1185" unicode="у"/><glyph d="M344 -389l62 385q-158 35 -258.5 139.5t-100.5 284.5q0 250 148.5 426t379.5 219l58 369h280l-59 -369q156 -33 255 -140.5t99 -287.5q0 -248 -147.5 -424t-374.5 -219l-61 -383h-281zM291 444q0 -172 149 -221l99 615q-121 -37 -184.5 -140.5t-63.5 -253.5zM721 223 q119 39 182.5 140.5t63.5 242.5q0 176 -148 232z" glyph-name="afii10086" horiz-adv-x="1255" unicode="ф"/><glyph d="M-29 0l453 539l-262 526h317l148 -313l239 313h328l-430 -526l285 -539h-318l-168 326l-264 -326h-328z" glyph-name="afii10087" horiz-adv-x="1187" unicode="х"/><glyph d="M23 0l167 1065h299l-129 -832h353l129 832h299l-131 -832h135l-82 -520h-287l47 287h-800z" glyph-name="afii10088" horiz-adv-x="1298" unicode="ц"/><glyph d="M772 489q-27 -78 -127 -146.5t-250 -68.5q-170 0 -258 101.5t-55 314.5l57 375h299l-53 -338q-16 -104 31 -156.5t135 -52.5q98 0 170 55.5t84 137.5l55 354h299l-168 -1065h-299z" glyph-name="afii10089" horiz-adv-x="1181" unicode="ч"/><glyph d="M23 0l167 1065h299l-129 -832h271l129 832h282l-131 -832h271l131 832h299l-168 -1065h-1421z" glyph-name="afii10090" horiz-adv-x="1634" unicode="ш"/><glyph d="M1247 -287l47 287h-1271l167 1065h299l-129 -832h271l129 832h282l-131 -832h271l131 832h299l-131 -832h135l-84 -520h-285z" glyph-name="afii10091" horiz-adv-x="1767" unicode="щ"/><glyph d="M80 831l39 234h483l-57 -356h284q182 0 280.5 -78t98.5 -213q0 -190 -137 -304t-352 -114h-584l131 831h-186zM473 233h272q80 0 125 39t45 103q0 100 -131 100h-272z" glyph-name="afii10092" horiz-adv-x="1288" unicode="ъ"/><glyph d="M23 0l167 1065h299l-57 -356h285q182 0 280.5 -78t98.5 -213q0 -190 -137.5 -304t-352.5 -114h-583zM360 233h273q80 0 125 39t45 103q0 100 -131 100h-273zM1149 0l168 1065h299l-168 -1065h-299z" glyph-name="afii10093" horiz-adv-x="1638" unicode="ы"/><glyph d="M23 0l167 1065h299l-57 -356h285q182 0 280.5 -78t98.5 -213q0 -190 -137.5 -304t-352.5 -114h-583zM360 233h273q80 0 125 39t45 103q0 100 -131 100h-273z" glyph-name="afii10094" horiz-adv-x="1175" unicode="ь"/><glyph d="M483 444l25 183h295q-12 209 -211 209q-188 0 -256 -187h-262q31 127 95 217t146 135.5t158 64.5t156 19q195 0 325.5 -110.5t130.5 -341.5q0 -274 -175 -463.5t-453 -189.5q-80 0 -149.5 18t-137.5 63t-103.5 135.5t-29.5 219.5h266q2 -94 54.5 -140.5t140.5 -46.5 q104 0 174.5 59.5t103.5 155.5h-293z" glyph-name="afii10095" horiz-adv-x="1134" unicode="э"/><glyph d="M4 0l168 1065h299l-65 -416h129q59 195 216.5 315.5t372.5 120.5q197 0 326 -114.5t129 -341.5q0 -270 -175 -459.5t-448 -189.5q-193 0 -320.5 109.5t-133.5 326.5h-133l-66 -416h-299zM786 467q0 -121 56.5 -180.5t150.5 -59.5q141 0 221 112t80 259q0 121 -56 180.5 t-151 59.5q-141 0 -221 -112t-80 -259z" glyph-name="afii10096" horiz-adv-x="1630" unicode="ю"/><glyph d="M696 0l58 356h-148l-303 -356h-311l319 375q-221 55 -221 289q0 180 136 290.5t352 110.5h585l-168 -1065h-299zM379 694q0 -104 135 -104h272l39 241h-272q-90 0 -132 -39t-42 -98z" glyph-name="afii10097" horiz-adv-x="1185" unicode="я"/><glyph d="M508 -27q-203 0 -330 112t-127 355q0 276 166 460.5t445 184.5q199 0 319.5 -102t120.5 -321q0 -135 -29 -205h-741q2 -143 55 -201.5t162 -58.5q166 0 235 143h263q-68 -180 -207 -273.5t-332 -93.5zM293 1352q0 66 49 112.5t114.5 46.5t115 -47t49.5 -112 q0 -68 -49.5 -115t-115 -47t-114.5 47t-49 115zM350 618h477q14 106 -35 173t-165 67q-115 0 -183.5 -65.5t-93.5 -174.5zM780 1351.5q0 67.5 49.5 113.5t116.5 46q66 0 115 -47t49 -112q0 -68 -49 -115t-115 -47q-68 0 -117 47t-49 114.5z" glyph-name="afii10071" horiz-adv-x="1150" unicode="ё"/><glyph d="M23 0l167 1065h760l-39 -234h-460l-129 -831h-299zM412 1188l260 287h258l-260 -287h-258z" glyph-name="afii10100" horiz-adv-x="901" unicode="ѓ"/><glyph d="M506 -20q-195 0 -326 110.5t-131 341.5q0 274 175 463.5t454 189.5q80 0 149.5 -18t137 -63.5t103.5 -135.5t30 -219h-267q-2 94 -54 140.5t-140 46.5q-102 0 -173 -57.5t-104 -151.5h293l-28 -183h-293q10 -215 211 -215q188 0 256 187h262q-31 -127 -95.5 -217 t-146.5 -135.5t-157.5 -64.5t-155.5 -19z" glyph-name="afii10101" horiz-adv-x="1140" unicode="є"/><glyph d="M4 0l168 1065h299l-168 -1065h-299zM-43 1352q0 66 49 112.5t114.5 46.5t115 -47t49.5 -112q0 -68 -49.5 -115t-115 -47t-114.5 47t-49 115zM444 1351.5q0 67.5 49.5 113.5t116.5 46q66 0 115 -47t49 -112q0 -68 -49 -115t-115 -47q-68 0 -117 47t-49 114.5z" glyph-name="afii10104" horiz-adv-x="479" unicode="ї"/><glyph d="M23 0l167 1065h299l-65 -418l436 418h340l-495 -455l387 -610h-318l-280 416l-125 -115l-47 -301h-299zM551 1188l260 287h258l-260 -287h-258z" glyph-name="afii10109" horiz-adv-x="1189" unicode="ќ"/><glyph d="M33 -156q219 -27 301 105q43 70 24 145l-239 971h305l139 -688l363 688h309l-602 -1071q-141 -250 -278.5 -338t-358.5 -66zM307 1475h197q-12 -145 133 -146q139 0 168 146h199q-25 -150 -124.5 -233t-267.5 -83q-172 0 -251 84.5t-54 231.5z" glyph-name="afii10110" horiz-adv-x="1185" unicode="ў"/><glyph d="M862 1434l33 204h311l-32 -204l-41 -271h-613l-184 -1163h-313l227 1434h612z" glyph-name="afii10050" horiz-adv-x="1075" unicode="Ґ"/><glyph d="M694 1065l23 135h256l-62 -369h-460l-129 -831h-299l167 1065h504z" glyph-name="afii10098" horiz-adv-x="901" unicode="ґ"/><glyph d="M23 0l227 1434h534q575 0 576 -592q0 -371 -208 -606.5t-579 -235.5h-550zM373 266h196q248 0 365 157t117 406q0 186 -75 262t-253 76h-209zM389 -293q0 74 53.5 126t128.5 52q74 0 127.5 -52t53.5 -126t-53.5 -126t-127.5 -52q-76 0 -129 51t-53 127z" glyph-name="uni1E0C" horiz-adv-x="1402" unicode="Ḍ"/><glyph d="M428 -20q-162 0 -271.5 107.5t-109.5 320.5q0 279 156.5 478t394.5 199q117 0 194.5 -48t100.5 -122l82 519h299l-227 -1434h-299l24 152q-41 -72 -135 -122t-209 -50zM311 -293q0 74 53.5 126t129.5 52q74 0 127 -52t53 -126t-53.5 -126t-126.5 -52q-76 0 -129.5 51 t-53.5 127zM334 467q0 -119 58.5 -179.5t154.5 -60.5q133 0 218 111t85 258q0 121 -60.5 181.5t-158.5 60.5q-131 0 -214 -110.5t-83 -260.5z" glyph-name="uni1E0D" horiz-adv-x="1236" unicode="ḍ"/><glyph d="M694 -20q-289 0 -442.5 154.5t-153.5 449.5q0 238 93.5 434t274.5 315t415 119q238 0 387 -121t149 -352h-303q-31 209 -254 209q-141 0 -246.5 -87t-154.5 -216t-49 -273q0 -174 79.5 -271t233.5 -97q133 0 227 74.5t123 230.5l-276 -6l39 245h581l-20 -124 q-66 -352 -236 -518t-467 -166zM588 1669l26 174h672l-26 -174h-672z" glyph-name="uni1E20" horiz-adv-x="1462" unicode="Ḡ"/><glyph d="M428 27q-158 0 -268.5 100t-110.5 305q0 274 151.5 463.5t391.5 189.5q104 0 181 -40.5t112 -104.5l18 125h299l-149 -944l-11 -82q-16 -115 -66 -202t-113.5 -136t-146.5 -80t-151.5 -40t-140.5 -9q-63 0 -122.5 7t-126 31.5t-112 62.5t-69 106.5t-8.5 159.5h264 q-6 -70 54.5 -103t148.5 -33q113 0 194.5 59.5t95.5 176.5l11 82l10 51q-53 -63 -142.5 -104t-193.5 -41zM336 500q0 -113 58.5 -168.5t154.5 -55.5q129 0 211 99.5t82 238.5q0 111 -59.5 167.5t-153.5 56.5q-129 0 -211 -99.5t-82 -238.5zM377 1300l26 175h672l-26 -175 h-672z" glyph-name="uni1E21" horiz-adv-x="1224" unicode="ḡ"/><glyph d="M897 0l94 590h-567l-94 -590h-307l227 1434h307l-94 -590h567l94 590h308l-228 -1434h-307zM381 -293q0 74 53 126t129 52q74 0 127 -52t53 -126t-53 -126t-127 -52q-76 0 -129 51t-53 127z" glyph-name="uni1E24" horiz-adv-x="1394" unicode="Ḥ"/><glyph d="M190 1065l60 369h299l-60 -369l-34 -223h14q31 92 127 167.5t244 75.5q166 0 252 -104t55 -305l-107 -676h-299l95 604q20 117 -25 175.5t-141 58.5q-98 0 -166 -59.5t-88 -180.5l-94 -598h-299zM283 -293q0 74 53 126t129 52q74 0 127 -52t53 -126t-53 -126t-127 -52 q-76 0 -129 51t-53 127z" glyph-name="uni1E25" unicode="ḥ"/><glyph d="M594 -20q-279 0 -422 128t-106 361h317q-8 -104 54.5 -170t201.5 -66q123 0 198.5 53.5t75.5 147.5q0 68 -44 106t-152 58l-170 33q-168 35 -263.5 114.5t-95.5 237.5q0 215 175.5 342t443.5 127q252 0 386 -113.5t99 -326.5h-315q18 92 -41 139t-168 47 q-115 0 -184.5 -50t-69.5 -134q0 -121 170 -152l156 -31q215 -41 308 -125.5t93 -234.5q0 -229 -182 -360t-465 -131zM336 -293q0 74 53 126t129 52q74 0 127 -52t53 -126t-53 -126t-127 -52q-76 0 -129 51t-53 127z" glyph-name="uni1E62" horiz-adv-x="1333" unicode="Ṣ"/><glyph d="M422 -20q-217 0 -324.5 94t-81.5 276h269q-6 -141 170 -141q86 0 134 30.5t48 84.5q0 66 -111 88l-153 32q-264 59 -264 279q0 168 135 265t344 97q211 0 310 -97t71 -271h-248q4 74 -39 106.5t-125 32.5q-76 0 -119 -25.5t-43 -70.5q0 -37 30 -60.5t95 -40.5l168 -36 q125 -31 193.5 -90.5t68.5 -176.5q0 -176 -150.5 -276t-377.5 -100zM199 -293q0 74 53 126t129 52q74 0 127 -52t53 -126t-53 -126t-127 -52q-76 0 -129 51t-53 127z" glyph-name="uni1E63" horiz-adv-x="1028" unicode="ṣ"/><glyph d="M377 0l186 1167h-418l43 267h1139l-41 -267h-418l-184 -1167h-307zM242 -293q0 74 53 126t129 52q74 0 127 -52t53 -126t-53 -126t-127 -52q-76 0 -129 51t-53 127z" glyph-name="uni1E6C" horiz-adv-x="1228" unicode="Ṭ"/><glyph d="M479 -14q-348 0 -297 333l82 517h-180l35 229h182l43 274h299l-45 -274h211l-35 -229h-213l-76 -474q-20 -137 105 -137h94l-37 -233q-57 -6 -168 -6zM213 -293q0 74 53 126t129 52q74 0 127 -52t53 -126t-53 -126t-127 -52q-76 0 -129 51t-53 127z" glyph-name="uni1E6D" horiz-adv-x="778" unicode="ṭ"/><glyph d="M334 0l-146 1434h316l71 -1002h13l434 1002h315l121 -1002h12l388 1002h317l-598 -1434h-322l-135 1047l-465 -1047h-321zM899 1843h258l172 -287h-260z" glyph-name="Wgrave" horiz-adv-x="2076" unicode="Ẁ"/><glyph d="M236 0l-117 1065h280l62 -776h8l330 776h260l90 -776h8l305 776h283l-447 -1065h-340l-90 668l-288 -668h-344zM647 1475h258l172 -287h-260z" glyph-name="wgrave" horiz-adv-x="1695" unicode="ẁ"/><glyph d="M334 0l-146 1434h316l71 -1002h13l434 1002h315l121 -1002h12l388 1002h317l-598 -1434h-322l-135 1047l-465 -1047h-321zM1055 1556l260 287h258l-260 -287h-258z" glyph-name="Wacute" horiz-adv-x="2076" unicode="Ẃ"/><glyph d="M236 0l-117 1065h280l62 -776h8l330 776h260l90 -776h8l305 776h283l-447 -1065h-340l-90 668l-288 -668h-344zM803 1188l260 287h258l-260 -287h-258z" glyph-name="wacute" horiz-adv-x="1695" unicode="ẃ"/><glyph d="M334 0l-146 1434h316l71 -1002h13l434 1002h315l121 -1002h12l388 1002h317l-598 -1434h-322l-135 1047l-465 -1047h-321zM815 1720q0 66 49 113t114.5 47t115 -47t49.5 -113q0 -68 -49.5 -114.5t-115 -46.5t-114.5 46.5t-49 114.5zM1303 1720.5q0 67.5 49 113.5t116 46 q66 0 115 -47t49 -113q0 -68 -49 -114.5t-115 -46.5q-68 0 -116.5 47t-48.5 114.5z" glyph-name="Wdieresis" horiz-adv-x="2076" unicode="Ẅ"/><glyph d="M236 0l-117 1065h280l62 -776h8l330 776h260l90 -776h8l305 776h283l-447 -1065h-340l-90 668l-288 -668h-344zM565 1352q0 66 49.5 112.5t115 46.5t114.5 -47t49 -112q0 -68 -49 -115t-114.5 -47t-115 47t-49.5 115zM1053 1351.5q0 67.5 49 113.5t117 46q66 0 114.5 -47 t48.5 -112q0 -68 -49 -115t-114 -47q-68 0 -117 47t-49 114.5z" glyph-name="wdieresis" horiz-adv-x="1695" unicode="ẅ"/><glyph d="M-2 0l43 266l901 901h-743l43 267h1083l-41 -267l-905 -901h770l-43 -266h-1108zM344 -293q0 74 53.5 126t128.5 52q74 0 127.5 -52t53.5 -126t-53.5 -126t-127.5 -52q-76 0 -129 51t-53 127z" glyph-name="uni1E92" horiz-adv-x="1271" unicode="Ẓ"/><glyph d="M-2 0l41 250l614 565h-508l41 250h861l-41 -250l-617 -565h529l-39 -250h-881zM213 -293q0 74 53 126t129 52q74 0 127 -52t53 -126t-53 -126t-127 -52q-76 0 -129 51t-53 127z" glyph-name="uni1E93" horiz-adv-x="1044" unicode="ẓ"/><glyph d="M852 -20q-432 0 -367 450h287q-10 -74 17.5 -127t107.5 -53q86 0 135 66.5t49 154.5q0 188 -258 188h-227l389 527h-295q-88 0 -133 -42t-61 -128l-160 -1016h-313l167 1049q33 211 159 309t353 98h766l-424 -551q162 -23 265.5 -123t103.5 -284q0 -229 -154.5 -373.5 t-406.5 -144.5z" glyph-name="uni1E9E" horiz-adv-x="1501" unicode="ẞ"/><glyph d="M-49 0l745 1434h396l290 -1434h-317l-49 268h-602l-135 -268h-328zM442 -293q0 74 53.5 126t129.5 52q74 0 127 -52t53 -126t-53.5 -126t-126.5 -52q-76 0 -129.5 51t-53.5 127zM526 496h447l-115 624h-18z" glyph-name="uni1EA0" horiz-adv-x="1501" unicode="Ạ"/><glyph d="M307 -20q-129 0 -211 60t-82 198q0 295 426 358l189 31q74 10 103.5 27.5t37.5 52.5l4 24q14 70 -22.5 103.5t-122.5 33.5q-172 0 -201 -135l-4 -22l-281 -2l7 49q51 328 516 327q238 0 335 -85t68 -261l-119 -739h-284l30 188h-12q-16 -29 -39.5 -58.5t-69 -66t-115 -60 t-153.5 -23.5zM262 -293q0 74 53.5 126t128.5 52q74 0 127.5 -52t53.5 -126t-53.5 -126t-127.5 -52q-76 0 -129 51t-53 127zM319 297q0 -104 134 -104q100 0 174.5 54t87.5 122l20 123q-8 -10 -19 -16.5t-29.5 -11.5t-26 -7t-35 -7.5t-31.5 -5.5l-135 -22 q-140 -25 -140 -125z" glyph-name="uni1EA1" horiz-adv-x="1140" unicode="ạ"/><glyph d="M-49 0l745 1434h396l290 -1434h-317l-49 268h-602l-135 -268h-328zM526 496h447l-115 624h-18zM705 1735q0 109 63 161t150 52q92 0 156.5 -54.5t64.5 -154.5q0 -88 -54.5 -140.5t-142.5 -64.5l-53 121q86 2 86 71q0 31 -17.5 47.5t-44.5 16.5q-51 0 -57 -55h-151z" glyph-name="uni1EA2" horiz-adv-x="1501" unicode="Ả"/><glyph d="M307 -20q-129 0 -211 60t-82 198q0 295 426 358l189 31q74 10 103.5 27.5t37.5 52.5l4 24q14 70 -22.5 103.5t-122.5 33.5q-172 0 -201 -135l-4 -22l-281 -2l7 49q51 328 516 327q238 0 335 -85t68 -261l-119 -739h-284l30 188h-12q-16 -29 -39.5 -58.5t-69 -66t-115 -60 t-153.5 -23.5zM319 297q0 -104 134 -104q100 0 174.5 54t87.5 122l20 123q-8 -10 -19 -16.5t-29.5 -11.5t-26 -7t-35 -7.5t-31.5 -5.5l-135 -22q-140 -25 -140 -125zM467 1366q0 109 63.5 161t149.5 52q92 0 156.5 -54.5t64.5 -154.5q0 -88 -54 -140t-142 -65l-54 121 q86 2 86 72q0 31 -17.5 47t-43.5 16q-51 0 -58 -55h-151z" glyph-name="uni1EA3" horiz-adv-x="1140" unicode="ả"/><glyph d="M-49 0l745 1434h396l290 -1434h-317l-49 268h-602l-135 -268h-328zM514 1554l236 289h430l145 -289h-278l-97 197l-155 -197h-281zM526 496h447l-115 624h-18zM1274 1761l260 287h258l-260 -287h-258z" glyph-name="uni1EA4" horiz-adv-x="1501" unicode="Ấ"/><glyph d="M307 -20q-129 0 -211 60t-82 198q0 295 426 358l189 31q74 10 103.5 27.5t37.5 52.5l4 24q14 70 -22.5 103.5t-122.5 33.5q-172 0 -201 -135l-4 -22l-281 -2l7 49q51 328 516 327q238 0 335 -85t68 -261l-119 -739h-284l30 188h-12q-16 -29 -39.5 -58.5t-69 -66t-115 -60 t-153.5 -23.5zM276 1186l236 289h430l145 -289h-278l-96 196l-156 -196h-281zM319 297q0 -104 134 -104q100 0 174.5 54t87.5 122l20 123q-8 -10 -19 -16.5t-29.5 -11.5t-26 -7t-35 -7.5t-31.5 -5.5l-135 -22q-140 -25 -140 -125zM1036 1393l260 286h258l-260 -286h-258z " glyph-name="uni1EA5" horiz-adv-x="1140" unicode="ấ"/><glyph d="M-49 0l745 1434h396l290 -1434h-317l-49 268h-602l-135 -268h-328zM514 1554l236 289h430l145 -289h-278l-97 197l-155 -197h-281zM526 496h447l-115 624h-18zM1161 2048h258l133 -285h-258z" glyph-name="uni1EA6" horiz-adv-x="1501" unicode="Ầ"/><glyph d="M307 -20q-129 0 -211 60t-82 198q0 295 426 358l189 31q74 10 103.5 27.5t37.5 52.5l4 24q14 70 -22.5 103.5t-122.5 33.5q-172 0 -201 -135l-4 -22l-281 -2l7 49q51 328 516 327q238 0 335 -85t68 -261l-119 -739h-284l30 188h-12q-16 -29 -39.5 -58.5t-69 -66t-115 -60 t-153.5 -23.5zM276 1186l236 289h430l145 -289h-278l-96 196l-156 -196h-281zM319 297q0 -104 134 -104q100 0 174.5 54t87.5 122l20 123q-8 -10 -19 -16.5t-29.5 -11.5t-26 -7t-35 -7.5t-31.5 -5.5l-135 -22q-140 -25 -140 -125zM924 1679h258l133 -284h-258z" glyph-name="uni1EA7" horiz-adv-x="1140" unicode="ầ"/><glyph d="M-49 0l745 1434h396l290 -1434h-317l-49 268h-602l-135 -268h-328zM514 1554l236 289h430l145 -289h-278l-97 197l-155 -197h-281zM526 496h447l-115 624h-18zM1085 1982q0 109 63.5 161t149.5 52q92 0 157 -54t65 -154q0 -88 -54.5 -140.5t-142.5 -64.5l-53 121 q86 2 86 71q0 31 -17.5 47.5t-44.5 16.5q-51 0 -57 -56h-152z" glyph-name="uni1EA8" horiz-adv-x="1501" unicode="Ẩ"/><glyph d="M307 -20q-129 0 -211 60t-82 198q0 295 426 358l189 31q74 10 103.5 27.5t37.5 52.5l4 24q14 70 -22.5 103.5t-122.5 33.5q-172 0 -201 -135l-4 -22l-281 -2l7 49q51 328 516 327q238 0 335 -85t68 -261l-119 -739h-284l30 188h-12q-16 -29 -39.5 -58.5t-69 -66t-115 -60 t-153.5 -23.5zM276 1186l236 289h430l145 -289h-278l-96 196l-156 -196h-281zM319 297q0 -104 134 -104q100 0 174.5 54t87.5 122l20 123q-8 -10 -19 -16.5t-29.5 -11.5t-26 -7t-35 -7.5t-31.5 -5.5l-135 -22q-140 -25 -140 -125zM848 1614q0 109 63.5 161t149.5 52 q92 0 156.5 -54.5t64.5 -154.5q0 -88 -54 -140.5t-143 -64.5l-53 121q86 2 86 72q0 31 -17.5 47t-43.5 16q-51 0 -58 -55h-151z" glyph-name="uni1EA9" horiz-adv-x="1140" unicode="ẩ"/><glyph d="M-49 0l745 1434h396l290 -1434h-317l-49 268h-602l-135 -268h-328zM514 1554l236 289h430l145 -289h-278l-97 197l-155 -197h-281zM526 496h447l-115 624h-18zM623 1966q14 113 76.5 175.5t162.5 62.5q66 0 113 -29t77.5 -56.5t57.5 -27.5q70 0 80 57h176 q-14 -111 -76.5 -173t-163.5 -62q-66 0 -110.5 28.5t-76.5 56t-62 27.5q-70 0 -80 -59h-174z" glyph-name="uni1EAA" horiz-adv-x="1501" unicode="Ẫ"/><glyph d="M307 -20q-129 0 -211 60t-82 198q0 295 426 358l189 31q74 10 103.5 27.5t37.5 52.5l4 24q14 70 -22.5 103.5t-122.5 33.5q-172 0 -201 -135l-4 -22l-281 -2l7 49q51 328 516 327q238 0 335 -85t68 -261l-119 -739h-284l30 188h-12q-16 -29 -39.5 -58.5t-69 -66t-115 -60 t-153.5 -23.5zM276 1186l236 289h430l145 -289h-278l-96 196l-156 -196h-281zM319 297q0 -104 134 -104q100 0 174.5 54t87.5 122l20 123q-8 -10 -19 -16.5t-29.5 -11.5t-26 -7t-35 -7.5t-31.5 -5.5l-135 -22q-140 -25 -140 -125zM385 1597q14 113 76.5 175.5t163.5 62.5 q66 0 112.5 -28.5t77.5 -56.5t57 -28q70 0 80 58h176q-14 -111 -76.5 -173.5t-162.5 -62.5q-66 0 -111 29t-76.5 56.5t-62.5 27.5q-70 0 -80 -60h-174z" glyph-name="uni1EAB" horiz-adv-x="1140" unicode="ẫ"/><glyph d="M-49 0l745 1434h396l290 -1434h-317l-49 268h-602l-135 -268h-328zM442 -293q0 74 53.5 126t129.5 52q74 0 127 -52t53 -126t-53.5 -126t-126.5 -52q-76 0 -129.5 51t-53.5 127zM514 1554l236 289h430l145 -289h-278l-97 197l-155 -197h-281zM526 496h447l-115 624h-18z " glyph-name="uni1EAC" horiz-adv-x="1501" unicode="Ậ"/><glyph d="M307 -20q-129 0 -211 60t-82 198q0 295 426 358l189 31q74 10 103.5 27.5t37.5 52.5l4 24q14 70 -22.5 103.5t-122.5 33.5q-172 0 -201 -135l-4 -22l-281 -2l7 49q51 328 516 327q238 0 335 -85t68 -261l-119 -739h-284l30 188h-12q-16 -29 -39.5 -58.5t-69 -66t-115 -60 t-153.5 -23.5zM262 -293q0 74 53.5 126t128.5 52q74 0 127.5 -52t53.5 -126t-53.5 -126t-127.5 -52q-76 0 -129 51t-53 127zM276 1186l236 289h430l145 -289h-278l-96 196l-156 -196h-281zM319 297q0 -104 134 -104q100 0 174.5 54t87.5 122l20 123q-8 -10 -19 -16.5 t-29.5 -11.5t-26 -7t-35 -7.5t-31.5 -5.5l-135 -22q-140 -25 -140 -125z" glyph-name="uni1EAD" horiz-adv-x="1140" unicode="ậ"/><glyph d="M-49 0l745 1434h396l290 -1434h-317l-49 268h-602l-135 -268h-328zM526 496h447l-115 624h-18zM614 1843h197q-12 -145 133 -145q139 0 168 145h199q-25 -150 -124.5 -232.5t-266.5 -82.5q-172 0 -251.5 84t-54.5 231zM838 1905l260 286h258l-260 -286h-258z" glyph-name="uni1EAE" horiz-adv-x="1501" unicode="Ắ"/><glyph d="M307 -20q-129 0 -211 60t-82 198q0 295 426 358l189 31q74 10 103.5 27.5t37.5 52.5l4 24q14 70 -22.5 103.5t-122.5 33.5q-172 0 -201 -135l-4 -22l-281 -2l7 49q51 328 516 327q238 0 335 -85t68 -261l-119 -739h-284l30 188h-12q-16 -29 -39.5 -58.5t-69 -66t-115 -60 t-153.5 -23.5zM319 297q0 -104 134 -104q100 0 174.5 54t87.5 122l20 123q-8 -10 -19 -16.5t-29.5 -11.5t-26 -7t-35 -7.5t-31.5 -5.5l-135 -22q-140 -25 -140 -125zM379 1475h196q-12 -145 134 -146q139 0 168 146h198q-25 -150 -124 -233t-267 -83q-172 0 -251 84.5 t-54 231.5zM602 1536l260 287h258l-260 -287h-258z" glyph-name="uni1EAF" horiz-adv-x="1140" unicode="ắ"/><glyph d="M-49 0l745 1434h396l290 -1434h-317l-49 268h-602l-135 -268h-328zM526 496h447l-115 624h-18zM614 1843h197q-12 -145 133 -145q139 0 168 145h199q-25 -150 -124.5 -232.5t-266.5 -82.5q-172 0 -251.5 84t-54.5 231zM668 2191h258l172 -286h-260z" glyph-name="uni1EB0" horiz-adv-x="1501" unicode="Ằ"/><glyph d="M307 -20q-129 0 -211 60t-82 198q0 295 426 358l189 31q74 10 103.5 27.5t37.5 52.5l4 24q14 70 -22.5 103.5t-122.5 33.5q-172 0 -201 -135l-4 -22l-281 -2l7 49q51 328 516 327q238 0 335 -85t68 -261l-119 -739h-284l30 188h-12q-16 -29 -39.5 -58.5t-69 -66t-115 -60 t-153.5 -23.5zM319 297q0 -104 134 -104q100 0 174.5 54t87.5 122l20 123q-8 -10 -19 -16.5t-29.5 -11.5t-26 -7t-35 -7.5t-31.5 -5.5l-135 -22q-140 -25 -140 -125zM379 1475h196q-12 -145 134 -146q139 0 168 146h198q-25 -150 -124 -233t-267 -83q-172 0 -251 84.5 t-54 231.5zM432 1823h258l172 -287h-260z" glyph-name="uni1EB1" horiz-adv-x="1140" unicode="ằ"/><glyph d="M-49 0l745 1434h396l290 -1434h-317l-49 268h-602l-135 -268h-328zM526 496h447l-115 624h-18zM614 1843h197q-12 -145 133 -145q139 0 168 145h199q-25 -150 -124.5 -232.5t-266.5 -82.5q-172 0 -251.5 84t-54.5 231zM680 2003q0 109 63.5 161t149.5 52 q92 0 156.5 -54.5t64.5 -154.5q0 -88 -54 -140t-142 -65l-54 121q86 2 86 72q0 31 -17.5 47t-43.5 16q-51 0 -58 -55h-151z" glyph-name="uni1EB2" horiz-adv-x="1501" unicode="Ẳ"/><glyph d="M307 -20q-129 0 -211 60t-82 198q0 295 426 358l189 31q74 10 103.5 27.5t37.5 52.5l4 24q14 70 -22.5 103.5t-122.5 33.5q-172 0 -201 -135l-4 -22l-281 -2l7 49q51 328 516 327q238 0 335 -85t68 -261l-119 -739h-284l30 188h-12q-16 -29 -39.5 -58.5t-69 -66t-115 -60 t-153.5 -23.5zM319 297q0 -104 134 -104q100 0 174.5 54t87.5 122l20 123q-8 -10 -19 -16.5t-29.5 -11.5t-26 -7t-35 -7.5t-31.5 -5.5l-135 -22q-140 -25 -140 -125zM379 1475h196q-12 -145 134 -146q139 0 168 146h198q-25 -150 -124 -233t-267 -83q-172 0 -251 84.5 t-54 231.5zM444 1634q0 109 63.5 161t149.5 52q92 0 157 -54t65 -155q0 -88 -54.5 -140t-142.5 -64l-53 120q86 2 86 72q0 31 -17.5 47.5t-44.5 16.5q-51 0 -57 -56h-152z" glyph-name="uni1EB3" horiz-adv-x="1140" unicode="ẳ"/><glyph d="M-49 0l745 1434h396l290 -1434h-317l-49 268h-602l-135 -268h-328zM526 496h447l-115 624h-18zM614 1843h197q-12 -145 133 -145q139 0 168 145h199q-25 -150 -124.5 -232.5t-266.5 -82.5q-172 0 -251.5 84t-54.5 231zM625 1976q14 113 76.5 175.5t162.5 62.5 q51 0 93 -17.5t62.5 -39t45.5 -39t47 -17.5q70 0 80 58h176q-14 -111 -76.5 -173.5t-163.5 -62.5q-51 0 -92 17.5t-61.5 39t-46 39t-49.5 17.5q-70 0 -80 -60h-174z" glyph-name="uni1EB4" horiz-adv-x="1501" unicode="Ẵ"/><glyph d="M307 -20q-129 0 -211 60t-82 198q0 295 426 358l189 31q74 10 103.5 27.5t37.5 52.5l4 24q14 70 -22.5 103.5t-122.5 33.5q-172 0 -201 -135l-4 -22l-281 -2l7 49q51 328 516 327q238 0 335 -85t68 -261l-119 -739h-284l30 188h-12q-16 -29 -39.5 -58.5t-69 -66t-115 -60 t-153.5 -23.5zM319 297q0 -104 134 -104q100 0 174.5 54t87.5 122l20 123q-8 -10 -19 -16.5t-29.5 -11.5t-26 -7t-35 -7.5t-31.5 -5.5l-135 -22q-140 -25 -140 -125zM379 1475h196q-12 -145 134 -146q139 0 168 146h198q-25 -150 -124 -233t-267 -83q-172 0 -251 84.5 t-54 231.5zM389 1608q14 113 76.5 175t163.5 62q51 0 93 -17.5t62.5 -39t45 -38.5t47.5 -17q70 0 79 57h177q-14 -111 -77 -173.5t-163 -62.5q-66 0 -111 28t-76.5 56.5t-62.5 28.5q-70 0 -80 -59h-174z" glyph-name="uni1EB5" horiz-adv-x="1140" unicode="ẵ"/><glyph d="M-49 0l745 1434h396l290 -1434h-317l-49 268h-602l-135 -268h-328zM442 -293q0 74 53.5 126t129.5 52q74 0 127 -52t53 -126t-53.5 -126t-126.5 -52q-76 0 -129.5 51t-53.5 127zM526 496h447l-115 624h-18zM614 1843h197q-12 -145 133 -145q139 0 168 145h199 q-25 -150 -124.5 -232.5t-266.5 -82.5q-172 0 -251.5 84t-54.5 231z" glyph-name="uni1EB6" horiz-adv-x="1501" unicode="Ặ"/><glyph d="M307 -20q-129 0 -211 60t-82 198q0 295 426 358l189 31q74 10 103.5 27.5t37.5 52.5l4 24q14 70 -22.5 103.5t-122.5 33.5q-172 0 -201 -135l-4 -22l-281 -2l7 49q51 328 516 327q238 0 335 -85t68 -261l-119 -739h-284l30 188h-12q-16 -29 -39.5 -58.5t-69 -66t-115 -60 t-153.5 -23.5zM262 -293q0 74 53.5 126t128.5 52q74 0 127.5 -52t53.5 -126t-53.5 -126t-127.5 -52q-76 0 -129 51t-53 127zM319 297q0 -104 134 -104q100 0 174.5 54t87.5 122l20 123q-8 -10 -19 -16.5t-29.5 -11.5t-26 -7t-35 -7.5t-31.5 -5.5l-135 -22 q-140 -25 -140 -125zM379 1475h196q-12 -145 134 -146q139 0 168 146h198q-25 -150 -124 -233t-267 -83q-172 0 -251 84.5t-54 231.5z" glyph-name="uni1EB7" horiz-adv-x="1140" unicode="ặ"/><glyph d="M23 0l227 1434h979l-43 -267h-672l-53 -321h610l-37 -240h-610l-51 -340h692l-43 -266h-999zM309 -293q0 74 53.5 126t129.5 52q74 0 127 -52t53 -126t-53.5 -126t-126.5 -52q-76 0 -129.5 51t-53.5 127z" glyph-name="uni1EB8" horiz-adv-x="1161" unicode="Ẹ"/><glyph d="M508 -27q-203 0 -330 112t-127 355q0 276 166 460.5t445 184.5q199 0 319.5 -102t120.5 -321q0 -135 -29 -205h-741q2 -143 55 -201.5t162 -58.5q166 0 235 143h263q-68 -180 -207 -273.5t-332 -93.5zM268 -293q0 74 53.5 126t129.5 52q74 0 127 -52t53 -126t-53.5 -126 t-126.5 -52q-76 0 -129.5 51t-53.5 127zM350 618h477q14 106 -35 173t-165 67q-115 0 -183.5 -65.5t-93.5 -174.5z" glyph-name="uni1EB9" horiz-adv-x="1150" unicode="ẹ"/><glyph d="M23 0l227 1434h979l-43 -267h-672l-53 -321h610l-37 -240h-610l-51 -340h692l-43 -266h-999zM569 1735q0 109 63.5 161t149.5 52q92 0 157 -54.5t65 -154.5q0 -88 -54.5 -140.5t-142.5 -64.5l-53 121q86 2 86 71q0 31 -17.5 47.5t-44.5 16.5q-51 0 -57 -55h-152z" glyph-name="uni1EBA" horiz-adv-x="1161" unicode="Ẻ"/><glyph d="M508 -27q-203 0 -330 112t-127 355q0 276 166 460.5t445 184.5q199 0 319.5 -102t120.5 -321q0 -135 -29 -205h-741q2 -143 55 -201.5t162 -58.5q166 0 235 143h263q-68 -180 -207 -273.5t-332 -93.5zM350 618h477q14 106 -35 173t-165 67q-115 0 -183.5 -65.5 t-93.5 -174.5zM465 1366q0 109 63.5 161t149.5 52q92 0 156.5 -54.5t64.5 -154.5q0 -88 -54 -140t-143 -65l-53 121q86 2 86 72q0 31 -17.5 47t-43.5 16q-51 0 -58 -55h-151z" glyph-name="uni1EBB" horiz-adv-x="1150" unicode="ẻ"/><glyph d="M23 0l227 1434h979l-43 -267h-672l-53 -321h610l-37 -240h-610l-51 -340h692l-43 -266h-999zM438 1628q14 113 77 175.5t163 62.5q51 0 93 -17.5t62.5 -39t45 -39t47.5 -17.5q70 0 80 57h176q-14 -111 -77 -173t-163 -62q-66 0 -111 27.5t-76.5 56.5t-62.5 29 q-70 0 -80 -60h-174z" glyph-name="uni1EBC" horiz-adv-x="1161" unicode="Ẽ"/><glyph d="M508 -27q-203 0 -330 112t-127 355q0 276 166 460.5t445 184.5q199 0 319.5 -102t120.5 -321q0 -135 -29 -205h-741q2 -143 55 -201.5t162 -58.5q166 0 235 143h263q-68 -180 -207 -273.5t-332 -93.5zM332 1260q14 113 76.5 175t162.5 62q51 0 93.5 -17.5t63 -39t45 -39 t46.5 -17.5q70 0 80 58h176q-14 -111 -76.5 -173.5t-162.5 -62.5q-66 0 -111 28t-77 56.5t-62 28.5q-70 0 -80 -59h-174zM350 618h477q14 106 -35 173t-165 67q-115 0 -183.5 -65.5t-93.5 -174.5z" glyph-name="uni1EBD" horiz-adv-x="1150" unicode="ẽ"/><glyph d="M23 0l227 1434h979l-43 -267h-672l-53 -321h610l-37 -240h-610l-51 -340h692l-43 -266h-999zM379 1554l235 289h430l146 -289h-279l-96 197l-156 -197h-280zM1139 1761l260 287h258l-260 -287h-258z" glyph-name="uni1EBE" horiz-adv-x="1161" unicode="Ế"/><glyph d="M508 -27q-203 0 -330 112t-127 355q0 276 166 460.5t445 184.5q199 0 319.5 -102t120.5 -321q0 -135 -29 -205h-741q2 -143 55 -201.5t162 -58.5q166 0 235 143h263q-68 -180 -207 -273.5t-332 -93.5zM274 1186l236 289h430l145 -289h-278l-96 196l-156 -196h-281z M350 618h477q14 106 -35 173t-165 67q-115 0 -183.5 -65.5t-93.5 -174.5zM1034 1393l260 286h258l-260 -286h-258z" glyph-name="uni1EBF" horiz-adv-x="1150" unicode="ế"/><glyph d="M23 0l227 1434h979l-43 -267h-672l-53 -321h610l-37 -240h-610l-51 -340h692l-43 -266h-999zM379 1554l235 289h430l146 -289h-279l-96 197l-156 -197h-280zM1026 2048h258l133 -285h-258z" glyph-name="uni1EC0" horiz-adv-x="1161" unicode="Ề"/><glyph d="M508 -27q-203 0 -330 112t-127 355q0 276 166 460.5t445 184.5q199 0 319.5 -102t120.5 -321q0 -135 -29 -205h-741q2 -143 55 -201.5t162 -58.5q166 0 235 143h263q-68 -180 -207 -273.5t-332 -93.5zM274 1186l236 289h430l145 -289h-278l-96 196l-156 -196h-281z M350 618h477q14 106 -35 173t-165 67q-115 0 -183.5 -65.5t-93.5 -174.5zM922 1679h258l133 -284h-258z" glyph-name="uni1EC1" horiz-adv-x="1150" unicode="ề"/><glyph d="M23 0l227 1434h979l-43 -267h-672l-53 -321h610l-37 -240h-610l-51 -340h692l-43 -266h-999zM379 1554l235 289h430l146 -289h-279l-96 197l-156 -197h-280zM950 1982q0 109 63.5 161t149.5 52q92 0 156.5 -54t64.5 -154q0 -88 -54 -140.5t-142 -64.5l-53 121q86 2 86 71 q0 31 -17.5 47.5t-44.5 16.5q-51 0 -57 -56h-152z" glyph-name="uni1EC2" horiz-adv-x="1161" unicode="Ể"/><glyph d="M508 -27q-203 0 -330 112t-127 355q0 276 166 460.5t445 184.5q199 0 319.5 -102t120.5 -321q0 -135 -29 -205h-741q2 -143 55 -201.5t162 -58.5q166 0 235 143h263q-68 -180 -207 -273.5t-332 -93.5zM274 1186l236 289h430l145 -289h-278l-96 196l-156 -196h-281z M350 618h477q14 106 -35 173t-165 67q-115 0 -183.5 -65.5t-93.5 -174.5zM846 1614q0 109 63.5 161t149.5 52q92 0 156.5 -54.5t64.5 -154.5q0 -88 -54.5 -140.5t-142.5 -64.5l-53 121q86 2 86 72q0 31 -17.5 47t-43.5 16q-51 0 -58 -55h-151z" glyph-name="uni1EC3" horiz-adv-x="1150" unicode="ể"/><glyph d="M23 0l227 1434h979l-43 -267h-672l-53 -321h610l-37 -240h-610l-51 -340h692l-43 -266h-999zM379 1554l235 289h430l146 -289h-279l-96 197l-156 -197h-280zM487 1966q14 113 77 175.5t163 62.5q66 0 113 -29t77.5 -56.5t57.5 -27.5q70 0 80 57h176q-14 -111 -76.5 -173 t-163.5 -62q-66 0 -110.5 28.5t-76.5 56t-63 27.5q-70 0 -79 -59h-175z" glyph-name="uni1EC4" horiz-adv-x="1161" unicode="Ễ"/><glyph d="M508 -27q-203 0 -330 112t-127 355q0 276 166 460.5t445 184.5q199 0 319.5 -102t120.5 -321q0 -135 -29 -205h-741q2 -143 55 -201.5t162 -58.5q166 0 235 143h263q-68 -180 -207 -273.5t-332 -93.5zM274 1186l236 289h430l145 -289h-278l-96 196l-156 -196h-281z M350 618h477q14 106 -35 173t-165 67q-115 0 -183.5 -65.5t-93.5 -174.5zM383 1597q14 113 76.5 175.5t163.5 62.5q66 0 112.5 -28.5t77.5 -56.5t57 -28q70 0 80 58h176q-14 -111 -76.5 -173.5t-162.5 -62.5q-66 0 -112 29t-76.5 56.5t-61.5 27.5q-70 0 -80 -60h-174z" glyph-name="uni1EC5" horiz-adv-x="1150" unicode="ễ"/><glyph d="M23 0l227 1434h979l-43 -267h-672l-53 -321h610l-37 -240h-610l-51 -340h692l-43 -266h-999zM309 -293q0 74 53.5 126t129.5 52q74 0 127 -52t53 -126t-53.5 -126t-126.5 -52q-76 0 -129.5 51t-53.5 127zM379 1554l235 289h430l146 -289h-279l-96 197l-156 -197h-280z " glyph-name="uni1EC6" horiz-adv-x="1161" unicode="Ệ"/><glyph d="M508 -27q-203 0 -330 112t-127 355q0 276 166 460.5t445 184.5q199 0 319.5 -102t120.5 -321q0 -135 -29 -205h-741q2 -143 55 -201.5t162 -58.5q166 0 235 143h263q-68 -180 -207 -273.5t-332 -93.5zM268 -293q0 74 53.5 126t129.5 52q74 0 127 -52t53 -126t-53.5 -126 t-126.5 -52q-76 0 -129.5 51t-53.5 127zM274 1186l236 289h430l145 -289h-278l-96 196l-156 -196h-281zM350 618h477q14 106 -35 173t-165 67q-115 0 -183.5 -65.5t-93.5 -174.5z" glyph-name="uni1EC7" horiz-adv-x="1150" unicode="ệ"/><glyph d="M23 0l227 1434h307l-227 -1434h-307zM207 1735q0 109 63.5 161t149.5 52q92 0 156.5 -54.5t64.5 -154.5q0 -88 -54.5 -140.5t-142.5 -64.5l-53 121q86 2 86 71q0 31 -17.5 47.5t-43.5 16.5q-51 0 -58 -55h-151z" glyph-name="uni1EC8" horiz-adv-x="520" unicode="Ỉ"/><glyph d="M4 0l168 1065h299l-168 -1065h-299zM129 1366q0 109 63.5 161t149.5 52q92 0 156.5 -54.5t64.5 -154.5q0 -88 -54 -140t-142 -65l-54 121q86 2 86 72q0 31 -17 47t-44 16q-51 0 -57 -55h-152z" glyph-name="uni1EC9" horiz-adv-x="479" unicode="ỉ"/><glyph d="M23 0l227 1434h307l-227 -1434h-307zM-53 -293q0 74 53 126t129 52q74 0 127 -52t53 -126t-53 -126t-127 -52q-76 0 -129 51t-53 127z" glyph-name="uni1ECA" horiz-adv-x="520" unicode="Ị"/><glyph d="M23 0l167 1065h299l-167 -1065h-299zM-29 -293q0 74 53.5 126t129.5 52q74 0 127 -52t53 -126t-53.5 -126t-126.5 -52q-76 0 -129.5 51t-53.5 127zM219 1352q0 66 49 112.5t115 46.5q68 0 116 -46t48 -113.5t-48 -114.5t-116 -47q-66 0 -115 47t-49 115z" glyph-name="uni1ECB" horiz-adv-x="509" unicode="ị"/><glyph d="M686 -20q-276 0 -433 163.5t-157 452.5q0 229 95.5 423.5t276.5 313.5t411 119q276 0 431.5 -163t155.5 -449q0 -356 -218 -608t-562 -252zM410 604q0 -176 77.5 -268t221.5 -92q141 0 245.5 90t151.5 221t47 276q0 176 -76 266.5t-219 90.5q-141 0 -245.5 -88 t-153.5 -218.5t-49 -277.5zM455 -293q0 74 53 126t129 52q74 0 127 -52t53 -126t-53 -126t-127 -52q-76 0 -129 51t-53 127z" glyph-name="uni1ECC" horiz-adv-x="1507" unicode="Ọ"/><glyph d="M506 -20q-197 0 -326 114.5t-129 341.5q0 270 175 459.5t448 189.5q197 0 325.5 -114.5t128.5 -341.5q0 -270 -175 -459.5t-447 -189.5zM279 -293q0 74 53 126t129 52q74 0 127 -52t53 -126t-53 -126t-127 -52q-76 0 -129 51t-53 127zM336 467q0 -121 56.5 -180.5 t150.5 -59.5q141 0 221 112t80 259q0 121 -56.5 180.5t-150.5 59.5q-141 0 -221 -112t-80 -259z" glyph-name="uni1ECD" horiz-adv-x="1179" unicode="ọ"/><glyph d="M686 -20q-276 0 -433 163.5t-157 452.5q0 229 95.5 423.5t276.5 313.5t411 119q276 0 431.5 -163t155.5 -449q0 -356 -218 -608t-562 -252zM410 604q0 -176 77.5 -268t221.5 -92q141 0 245.5 90t151.5 221t47 276q0 176 -76 266.5t-219 90.5q-141 0 -245.5 -88 t-153.5 -218.5t-49 -277.5zM702 1735q0 109 63.5 161t149.5 52q92 0 157 -54.5t65 -154.5q0 -88 -54.5 -140.5t-142.5 -64.5l-53 121q86 2 86 71q0 31 -17.5 47.5t-44.5 16.5q-51 0 -57 -55h-152z" glyph-name="uni1ECE" horiz-adv-x="1507" unicode="Ỏ"/><glyph d="M506 -20q-197 0 -326 114.5t-129 341.5q0 270 175 459.5t448 189.5q197 0 325.5 -114.5t128.5 -341.5q0 -270 -175 -459.5t-447 -189.5zM336 467q0 -121 56.5 -180.5t150.5 -59.5q141 0 221 112t80 259q0 121 -56.5 180.5t-150.5 59.5q-141 0 -221 -112t-80 -259z M479 1366q0 109 63.5 161t149.5 52q92 0 156.5 -54.5t64.5 -154.5q0 -88 -54 -140t-142 -65l-53 121q86 2 86 72q0 31 -17.5 47t-44.5 16q-51 0 -57 -55h-152z" glyph-name="uni1ECF" horiz-adv-x="1179" unicode="ỏ"/><glyph d="M686 -20q-276 0 -433 163.5t-157 452.5q0 229 95.5 423.5t276.5 313.5t411 119q276 0 431.5 -163t155.5 -449q0 -356 -218 -608t-562 -252zM410 604q0 -176 77.5 -268t221.5 -92q141 0 245.5 90t151.5 221t47 276q0 176 -76 266.5t-219 90.5q-141 0 -245.5 -88 t-153.5 -218.5t-49 -277.5zM512 1554l236 289h430l145 -289h-279l-96 197l-155 -197h-281zM1272 1761l260 287h258l-260 -287h-258z" glyph-name="uni1ED0" horiz-adv-x="1507" unicode="Ố"/><glyph d="M506 -20q-197 0 -326 114.5t-129 341.5q0 270 175 459.5t448 189.5q197 0 325.5 -114.5t128.5 -341.5q0 -270 -175 -459.5t-447 -189.5zM289 1186l235 289h430l146 -289h-279l-96 196l-156 -196h-280zM336 467q0 -121 56.5 -180.5t150.5 -59.5q141 0 221 112t80 259 q0 121 -56.5 180.5t-150.5 59.5q-141 0 -221 -112t-80 -259zM1049 1393l260 286h258l-260 -286h-258z" glyph-name="uni1ED1" horiz-adv-x="1179" unicode="ố"/><glyph d="M686 -20q-276 0 -433 163.5t-157 452.5q0 229 95.5 423.5t276.5 313.5t411 119q276 0 431.5 -163t155.5 -449q0 -356 -218 -608t-562 -252zM410 604q0 -176 77.5 -268t221.5 -92q141 0 245.5 90t151.5 221t47 276q0 176 -76 266.5t-219 90.5q-141 0 -245.5 -88 t-153.5 -218.5t-49 -277.5zM512 1554l236 289h430l145 -289h-279l-96 197l-155 -197h-281zM1159 2048h258l133 -285h-258z" glyph-name="uni1ED2" horiz-adv-x="1507" unicode="Ồ"/><glyph d="M506 -20q-197 0 -326 114.5t-129 341.5q0 270 175 459.5t448 189.5q197 0 325.5 -114.5t128.5 -341.5q0 -270 -175 -459.5t-447 -189.5zM289 1186l235 289h430l146 -289h-279l-96 196l-156 -196h-280zM336 467q0 -121 56.5 -180.5t150.5 -59.5q141 0 221 112t80 259 q0 121 -56.5 180.5t-150.5 59.5q-141 0 -221 -112t-80 -259zM936 1679h258l133 -284h-258z" glyph-name="uni1ED3" horiz-adv-x="1179" unicode="ồ"/><glyph d="M686 -20q-276 0 -433 163.5t-157 452.5q0 229 95.5 423.5t276.5 313.5t411 119q276 0 431.5 -163t155.5 -449q0 -356 -218 -608t-562 -252zM410 604q0 -176 77.5 -268t221.5 -92q141 0 245.5 90t151.5 221t47 276q0 176 -76 266.5t-219 90.5q-141 0 -245.5 -88 t-153.5 -218.5t-49 -277.5zM512 1554l236 289h430l145 -289h-279l-96 197l-155 -197h-281zM1083 1982q0 109 63.5 161t149.5 52q92 0 157 -54t65 -154q0 -88 -54.5 -140.5t-142.5 -64.5l-53 121q86 2 86 71q0 31 -17.5 47.5t-44.5 16.5q-51 0 -57 -56h-152z" glyph-name="uni1ED4" horiz-adv-x="1507" unicode="Ổ"/><glyph d="M506 -20q-197 0 -326 114.5t-129 341.5q0 270 175 459.5t448 189.5q197 0 325.5 -114.5t128.5 -341.5q0 -270 -175 -459.5t-447 -189.5zM289 1186l235 289h430l146 -289h-279l-96 196l-156 -196h-280zM336 467q0 -121 56.5 -180.5t150.5 -59.5q141 0 221 112t80 259 q0 121 -56.5 180.5t-150.5 59.5q-141 0 -221 -112t-80 -259zM860 1614q0 109 63.5 161t149.5 52q92 0 156.5 -54.5t64.5 -154.5q0 -88 -54 -140.5t-142 -64.5l-54 121q86 2 86 72q0 31 -17 47t-44 16q-51 0 -57 -55h-152z" glyph-name="uni1ED5" horiz-adv-x="1179" unicode="ổ"/><glyph d="M686 -20q-276 0 -433 163.5t-157 452.5q0 229 95.5 423.5t276.5 313.5t411 119q276 0 431.5 -163t155.5 -449q0 -356 -218 -608t-562 -252zM410 604q0 -176 77.5 -268t221.5 -92q141 0 245.5 90t151.5 221t47 276q0 176 -76 266.5t-219 90.5q-141 0 -245.5 -88 t-153.5 -218.5t-49 -277.5zM512 1554l236 289h430l145 -289h-279l-96 197l-155 -197h-281zM621 1966q14 113 76.5 175.5t162.5 62.5q66 0 113 -29t77.5 -56.5t57.5 -27.5q70 0 80 57h176q-14 -111 -76.5 -173t-163.5 -62q-66 0 -111.5 28.5t-76.5 56t-62 27.5q-70 0 -79 -59 h-174z" glyph-name="uni1ED6" horiz-adv-x="1507" unicode="Ỗ"/><glyph d="M506 -20q-197 0 -326 114.5t-129 341.5q0 270 175 459.5t448 189.5q197 0 325.5 -114.5t128.5 -341.5q0 -270 -175 -459.5t-447 -189.5zM289 1186l235 289h430l146 -289h-279l-96 196l-156 -196h-280zM336 467q0 -121 56.5 -180.5t150.5 -59.5q141 0 221 112t80 259 q0 121 -56.5 180.5t-150.5 59.5q-141 0 -221 -112t-80 -259zM397 1597q14 113 77 175.5t163 62.5q66 0 113 -28.5t77.5 -56.5t57.5 -28q70 0 80 58h176q-14 -111 -77 -173.5t-163 -62.5q-66 0 -111 29t-76.5 56.5t-62.5 27.5q-70 0 -80 -60h-174z" glyph-name="uni1ED7" horiz-adv-x="1179" unicode="ỗ"/><glyph d="M686 -20q-276 0 -433 163.5t-157 452.5q0 229 95.5 423.5t276.5 313.5t411 119q276 0 431.5 -163t155.5 -449q0 -356 -218 -608t-562 -252zM410 604q0 -176 77.5 -268t221.5 -92q141 0 245.5 90t151.5 221t47 276q0 176 -76 266.5t-219 90.5q-141 0 -245.5 -88 t-153.5 -218.5t-49 -277.5zM455 -293q0 74 53 126t129 52q74 0 127 -52t53 -126t-53 -126t-127 -52q-76 0 -129 51t-53 127zM512 1554l236 289h430l145 -289h-279l-96 197l-155 -197h-281z" glyph-name="uni1ED8" horiz-adv-x="1507" unicode="Ộ"/><glyph d="M506 -20q-197 0 -326 114.5t-129 341.5q0 270 175 459.5t448 189.5q197 0 325.5 -114.5t128.5 -341.5q0 -270 -175 -459.5t-447 -189.5zM279 -293q0 74 53 126t129 52q74 0 127 -52t53 -126t-53 -126t-127 -52q-76 0 -129 51t-53 127zM289 1186l235 289h430l146 -289 h-279l-96 196l-156 -196h-280zM336 467q0 -121 56.5 -180.5t150.5 -59.5q141 0 221 112t80 259q0 121 -56.5 180.5t-150.5 59.5q-141 0 -221 -112t-80 -259z" glyph-name="uni1ED9" horiz-adv-x="1179" unicode="ộ"/><glyph d="M686 -20q-276 0 -433 163.5t-157 452.5q0 229 95.5 423.5t276.5 313.5t411 119h4h458l27 162h254l-61 -389h-199q104 -156 104 -385q0 -356 -218 -608t-562 -252zM410 604q0 -176 77.5 -268t221.5 -92q141 0 245.5 90t151.5 221t47 276q0 176 -76 266.5t-219 90.5 q-141 0 -245.5 -88t-153.5 -218.5t-49 -277.5zM784 1556l260 287h259l-261 -287h-258z" glyph-name="uni1EDA" horiz-adv-x="1507" unicode="Ớ"/><glyph d="M506 -20q-197 0 -326 114.5t-129 341.5q0 270 175 459.5t448 189.5h344l24 160h240l-63 -389h-136q45 -96 45 -227q0 -270 -175 -459.5t-447 -189.5zM336 467q0 -121 56.5 -180.5t150.5 -59.5q141 0 221 112t80 259q0 121 -56.5 180.5t-150.5 59.5q-141 0 -221 -112 t-80 -259zM561 1188l260 287h258l-260 -287h-258z" glyph-name="uni1EDB" horiz-adv-x="1179" unicode="ớ"/><glyph d="M686 -20q-276 0 -433 163.5t-157 452.5q0 229 95.5 423.5t276.5 313.5t411 119h4h458l27 162h254l-61 -389h-199q104 -156 104 -385q0 -356 -218 -608t-562 -252zM410 604q0 -176 77.5 -268t221.5 -92q141 0 245.5 90t151.5 221t47 276q0 176 -76 266.5t-219 90.5 q-141 0 -245.5 -88t-153.5 -218.5t-49 -277.5zM614 1843h258l172 -287h-260z" glyph-name="uni1EDC" horiz-adv-x="1507" unicode="Ờ"/><glyph d="M506 -20q-197 0 -326 114.5t-129 341.5q0 270 175 459.5t448 189.5h344l24 160h240l-63 -389h-136q45 -96 45 -227q0 -270 -175 -459.5t-447 -189.5zM336 467q0 -121 56.5 -180.5t150.5 -59.5q141 0 221 112t80 259q0 121 -56.5 180.5t-150.5 59.5q-141 0 -221 -112 t-80 -259zM391 1475h258l172 -287h-260z" glyph-name="uni1EDD" horiz-adv-x="1179" unicode="ờ"/><glyph d="M686 -20q-276 0 -433 163.5t-157 452.5q0 229 95.5 423.5t276.5 313.5t411 119h4h458l27 162h254l-61 -389h-199q104 -156 104 -385q0 -356 -218 -608t-562 -252zM410 604q0 -176 77.5 -268t221.5 -92q141 0 245.5 90t151.5 221t47 276q0 176 -76 266.5t-219 90.5 q-141 0 -245.5 -88t-153.5 -218.5t-49 -277.5zM702 1735q0 109 63.5 161t149.5 52q92 0 157 -54.5t65 -154.5q0 -88 -54.5 -140.5t-142.5 -64.5l-53 121q86 2 86 71q0 31 -17.5 47.5t-44.5 16.5q-51 0 -57 -55h-152z" glyph-name="uni1EDE" horiz-adv-x="1507" unicode="Ở"/><glyph d="M506 -20q-197 0 -326 114.5t-129 341.5q0 270 175 459.5t448 189.5h344l24 160h240l-63 -389h-136q45 -96 45 -227q0 -270 -175 -459.5t-447 -189.5zM336 467q0 -121 56.5 -180.5t150.5 -59.5q141 0 221 112t80 259q0 121 -56.5 180.5t-150.5 59.5q-141 0 -221 -112 t-80 -259zM479 1366q0 109 63.5 161t149.5 52q92 0 156.5 -54.5t64.5 -154.5q0 -88 -54 -140t-142 -65l-53 121q86 2 86 72q0 31 -17.5 47t-44.5 16q-51 0 -57 -55h-152z" glyph-name="uni1EDF" horiz-adv-x="1179" unicode="ở"/><glyph d="M686 -20q-276 0 -433 163.5t-157 452.5q0 229 95.5 423.5t276.5 313.5t411 119h4h458l27 162h254l-61 -389h-199q104 -156 104 -385q0 -356 -218 -608t-562 -252zM410 604q0 -176 77.5 -268t221.5 -92q141 0 245.5 90t151.5 221t47 276q0 176 -76 266.5t-219 90.5 q-141 0 -245.5 -88t-153.5 -218.5t-49 -277.5zM569 1628q14 113 77 175.5t163 62.5q51 0 93 -17.5t62.5 -39t45 -39t47.5 -17.5q70 0 80 57h176q-14 -111 -76.5 -173t-163.5 -62q-66 0 -110.5 27.5t-76.5 56.5t-63 29q-70 0 -80 -60h-174z" glyph-name="uni1EE0" horiz-adv-x="1507" unicode="Ỡ"/><glyph d="M506 -20q-197 0 -326 114.5t-129 341.5q0 270 175 459.5t448 189.5h344l24 160h240l-63 -389h-136q45 -96 45 -227q0 -270 -175 -459.5t-447 -189.5zM336 467q0 -121 56.5 -180.5t150.5 -59.5q141 0 221 112t80 259q0 121 -56.5 180.5t-150.5 59.5q-141 0 -221 -112 t-80 -259zM348 1260q14 113 76.5 175t163.5 62q51 0 93 -17.5t62.5 -39t45 -39t47.5 -17.5q70 0 79 58h177q-14 -111 -77 -173.5t-163 -62.5q-66 0 -111 28t-76.5 56.5t-62.5 28.5q-70 0 -80 -59h-174z" glyph-name="uni1EE1" horiz-adv-x="1179" unicode="ỡ"/><glyph d="M686 -20q-276 0 -433 163.5t-157 452.5q0 229 95.5 423.5t276.5 313.5t411 119h4h458l27 162h254l-61 -389h-199q104 -156 104 -385q0 -356 -218 -608t-562 -252zM410 604q0 -176 77.5 -268t221.5 -92q141 0 245.5 90t151.5 221t47 276q0 176 -76 266.5t-219 90.5 q-141 0 -245.5 -88t-153.5 -218.5t-49 -277.5zM442 -293q0 74 53.5 126t129.5 52q74 0 127 -52t53 -126t-53.5 -126t-126.5 -52q-76 0 -129.5 51t-53.5 127z" glyph-name="uni1EE2" horiz-adv-x="1507" unicode="Ợ"/><glyph d="M506 -20q-197 0 -326 114.5t-129 341.5q0 270 175 459.5t448 189.5h344l24 160h240l-63 -389h-136q45 -96 45 -227q0 -270 -175 -459.5t-447 -189.5zM279 -293q0 74 53 126t129 52q74 0 127 -52t53 -126t-53 -126t-127 -52q-76 0 -129 51t-53 127zM336 467 q0 -121 56.5 -180.5t150.5 -59.5q141 0 221 112t80 259q0 121 -56.5 180.5t-150.5 59.5q-141 0 -221 -112t-80 -259z" glyph-name="uni1EE3" horiz-adv-x="1179" unicode="ợ"/><glyph d="M614 -20q-272 0 -411.5 143t-93.5 422l141 889h309l-137 -867q-25 -156 40.5 -238.5t201.5 -82.5q268 0 317 321l139 867h310l-142 -889q-45 -279 -224.5 -422t-449.5 -143zM387 -293q0 74 53.5 126t128.5 52q74 0 127.5 -52t53.5 -126t-53.5 -126t-127.5 -52 q-76 0 -129 51t-53 127z" glyph-name="uni1EE4" horiz-adv-x="1392" unicode="Ụ"/><glyph d="M395 461q-20 -117 25 -175.5t141 -58.5q98 0 166 59.5t88 180.5l94 598h299l-168 -1065h-299l35 223h-14q-31 -92 -127 -167.5t-244 -75.5q-166 0 -252 104t-55 305l106 676h299zM326 -293q0 74 53 126t129 52q74 0 127 -52t53 -126t-53 -126t-127 -52q-76 0 -129 51 t-53 127z" glyph-name="uni1EE5" unicode="ụ"/><glyph d="M614 -20q-272 0 -411.5 143t-93.5 422l141 889h309l-137 -867q-25 -156 40.5 -238.5t201.5 -82.5q268 0 317 321l139 867h310l-142 -889q-45 -279 -224.5 -422t-449.5 -143zM623 1735q0 109 63.5 161t149.5 52q92 0 156.5 -54.5t64.5 -154.5q0 -88 -54.5 -140.5 t-142.5 -64.5l-53 121q86 2 86 71q0 31 -17.5 47.5t-44.5 16.5q-51 0 -57 -55h-151z" glyph-name="uni1EE6" horiz-adv-x="1392" unicode="Ủ"/><glyph d="M395 461q-20 -117 25 -175.5t141 -58.5q98 0 166 59.5t88 180.5l94 598h299l-168 -1065h-299l35 223h-14q-31 -92 -127 -167.5t-244 -75.5q-166 0 -252 104t-55 305l106 676h299zM502 1366q0 109 63.5 161t149.5 52q92 0 156.5 -54.5t64.5 -154.5q0 -88 -54.5 -140 t-142.5 -65l-53 121q86 2 86 72q0 31 -17.5 47t-43.5 16q-51 0 -58 -55h-151z" glyph-name="uni1EE7" unicode="ủ"/><glyph d="M614 -20q-272 0 -411.5 143t-93.5 422l141 889h309l-137 -867q-25 -156 40.5 -238.5t201.5 -82.5q268 0 317 321l102 639l7 31l30 197h293l31 180h254l-68 -408h-237l-105 -661q-45 -279 -224.5 -422t-449.5 -143zM729 1556l260 287h258l-260 -287h-258z" glyph-name="uni1EE8" horiz-adv-x="1392" unicode="Ứ"/><glyph d="M395 461q-20 -117 25 -175.5t141 -58.5q98 0 166 59.5t88 180.5l94 598h299l-168 -1065h-299l35 223h-14q-31 -92 -127 -167.5t-244 -75.5q-166 0 -252 104t-55 305l106 676h299zM586 1188l260 287h258l-260 -287h-258zM1276 838l39 227h291l30 180h254l-67 -407h-547z " glyph-name="uni1EE9" unicode="ứ"/><glyph d="M614 -20q-272 0 -411.5 143t-93.5 422l141 889h309l-137 -867q-25 -156 40.5 -238.5t201.5 -82.5q268 0 317 321l102 639l7 31l30 197h293l31 180h254l-68 -408h-237l-105 -661q-45 -279 -224.5 -422t-449.5 -143zM559 1843h258l172 -287h-260z" glyph-name="uni1EEA" horiz-adv-x="1392" unicode="Ừ"/><glyph d="M395 461q-20 -117 25 -175.5t141 -58.5q98 0 166 59.5t88 180.5l94 598h299l-168 -1065h-299l35 223h-14q-31 -92 -127 -167.5t-244 -75.5q-166 0 -252 104t-55 305l106 676h299zM416 1475h258l172 -287h-260zM1276 838l39 227h291l30 180h254l-67 -407h-547z" glyph-name="uni1EEB" unicode="ừ"/><glyph d="M614 -20q-272 0 -411.5 143t-93.5 422l141 889h309l-137 -867q-25 -156 40.5 -238.5t201.5 -82.5q268 0 317 321l102 639l7 31l30 197h293l31 180h254l-68 -408h-237l-105 -661q-45 -279 -224.5 -422t-449.5 -143zM647 1735q0 109 63.5 161t149.5 52q92 0 156.5 -54.5 t64.5 -154.5q0 -88 -54 -140.5t-142 -64.5l-54 121q86 2 87 71q0 31 -17.5 47.5t-44.5 16.5q-51 0 -57 -55h-152z" glyph-name="uni1EEC" horiz-adv-x="1392" unicode="Ử"/><glyph d="M395 461q-20 -117 25 -175.5t141 -58.5q98 0 166 59.5t88 180.5l94 598h299l-168 -1065h-299l35 223h-14q-31 -92 -127 -167.5t-244 -75.5q-166 0 -252 104t-55 305l106 676h299zM506 1366q0 109 63.5 161t149.5 52q92 0 156.5 -54.5t64.5 -154.5q0 -88 -54.5 -140 t-142.5 -65l-53 121q86 2 86 72q0 31 -17.5 47t-43.5 16q-51 0 -58 -55h-151zM1276 838l39 227h291l30 180h254l-67 -407h-547z" glyph-name="uni1EED" unicode="ử"/><glyph d="M614 -20q-272 0 -411.5 143t-93.5 422l141 889h309l-137 -867q-25 -156 40.5 -238.5t201.5 -82.5q268 0 317 321l102 639l7 31l30 197h293l31 180h254l-68 -408h-237l-105 -661q-45 -279 -224.5 -422t-449.5 -143zM514 1628q14 113 76.5 175.5t163.5 62.5q51 0 93 -17.5 t62.5 -39t45 -39t46.5 -17.5q70 0 80 57h176q-14 -111 -76.5 -173t-162.5 -62q-51 0 -92 17.5t-61.5 39t-46 39t-50.5 17.5q-70 0 -80 -60h-174z" glyph-name="uni1EEE" horiz-adv-x="1392" unicode="Ữ"/><glyph d="M395 461q-20 -117 25 -175.5t141 -58.5q98 0 166 59.5t88 180.5l94 598h299l-168 -1065h-299l35 223h-14q-31 -92 -127 -167.5t-244 -75.5q-166 0 -252 104t-55 305l106 676h299zM373 1260q14 113 76.5 175t162.5 62q51 0 93.5 -17.5t62.5 -39t45 -39t47 -17.5 q70 0 80 58h176q-14 -111 -76.5 -173.5t-162.5 -62.5q-66 0 -111 28t-77 56.5t-62 28.5q-70 0 -80 -59h-174zM1276 838l39 227h291l30 180h254l-67 -407h-547z" glyph-name="uni1EEF" unicode="ữ"/><glyph d="M614 -20q-272 0 -411.5 143t-93.5 422l141 889h309l-137 -867q-25 -156 40.5 -238.5t201.5 -82.5q268 0 317 321l102 639l7 31l30 197h293l31 180h254l-68 -408h-237l-105 -661q-45 -279 -224.5 -422t-449.5 -143zM387 -293q0 74 53.5 126t128.5 52q74 0 127.5 -52 t53.5 -126t-53.5 -126t-127.5 -52q-76 0 -129 51t-53 127z" glyph-name="uni1EF0" horiz-adv-x="1392" unicode="Ự"/><glyph d="M395 461q-20 -117 25 -175.5t141 -58.5q98 0 166 59.5t88 180.5l94 598h299l-168 -1065h-299l35 223h-14q-31 -92 -127 -167.5t-244 -75.5q-166 0 -252 104t-55 305l106 676h299zM303 -293q0 74 53.5 126t128.5 52q74 0 127.5 -52t53.5 -126t-53.5 -126t-127.5 -52 q-76 0 -129 51t-53 127zM1276 838l39 227h291l30 180h254l-67 -407h-547z" glyph-name="uni1EF1" unicode="ự"/><glyph d="M479 0l84 526l-375 908h349l231 -611l422 611h352l-663 -908l-82 -526h-318zM582 1843h258l172 -287h-260z" glyph-name="Ygrave" horiz-adv-x="1443" unicode="Ỳ"/><glyph d="M33 -156q219 -27 301 105q43 70 24 145l-239 971h305l139 -688l363 688h309l-602 -1071q-141 -250 -278.5 -338t-358.5 -66zM393 1475h258l172 -287h-260z" glyph-name="ygrave" horiz-adv-x="1185" unicode="ỳ"/><glyph d="M479 0l84 526l-375 908h349l231 -611l422 611h352l-663 -908l-82 -526h-318zM410 -293q0 74 53 126t129 52q74 0 127 -52t53 -126t-53 -126t-127 -52q-76 0 -129 51t-53 127z" glyph-name="uni1EF4" horiz-adv-x="1443" unicode="Ỵ"/><glyph d="M33 -156q219 -27 301 105q43 70 24 145l-239 971h305l139 -688l363 688h309l-602 -1071q-141 -250 -278.5 -338t-358.5 -66zM637 -293q0 74 53 126t129 52q74 0 127 -52t53 -126t-53 -126t-127 -52q-76 0 -129 51t-53 127z" glyph-name="uni1EF5" horiz-adv-x="1185" unicode="ỵ"/><glyph d="M479 0l84 526l-375 908h349l231 -611l422 611h352l-663 -908l-82 -526h-318zM672 1735q0 109 63.5 161t149.5 52q92 0 156.5 -54.5t64.5 -154.5q0 -88 -54.5 -140.5t-142.5 -64.5l-53 121q86 2 86 71q0 31 -17.5 47.5t-43.5 16.5q-51 0 -58 -55h-151z" glyph-name="uni1EF6" horiz-adv-x="1443" unicode="Ỷ"/><glyph d="M33 -156q219 -27 301 105q43 70 24 145l-239 971h305l139 -688l363 688h309l-602 -1071q-141 -250 -278.5 -338t-358.5 -66zM481 1366q0 109 63.5 161t149.5 52q92 0 156.5 -54.5t64.5 -154.5q0 -88 -54 -140t-142 -65l-53 121q86 2 86 72q0 31 -17.5 47t-44.5 16 q-51 0 -57 -55h-152z" glyph-name="uni1EF7" horiz-adv-x="1185" unicode="ỷ"/><glyph d="M479 0l84 526l-375 908h349l231 -611l422 611h352l-663 -908l-82 -526h-318zM539 1628q14 113 76.5 175.5t162.5 62.5q51 0 93 -17.5t62.5 -39t45.5 -39t47 -17.5q70 0 80 57h176q-14 -111 -76.5 -173t-163.5 -62q-51 0 -92 17.5t-61.5 39t-46 39t-49.5 17.5 q-70 0 -80 -60h-174z" glyph-name="uni1EF8" horiz-adv-x="1443" unicode="Ỹ"/><glyph d="M33 -156q219 -27 301 105q43 70 24 145l-239 971h305l139 -688l363 688h309l-602 -1071q-141 -250 -278.5 -338t-358.5 -66zM348 1260q14 113 76.5 175t163.5 62q51 0 93 -17.5t62.5 -39t45 -39t47.5 -17.5q70 0 79 58h177q-14 -111 -77 -173.5t-163 -62.5q-66 0 -111 28 t-76.5 56.5t-62.5 28.5q-70 0 -80 -59h-174z" glyph-name="uni1EF9" horiz-adv-x="1185" unicode="ỹ"/><glyph d="M80 453l37 225h1044l-37 -225h-1044z" glyph-name="endash" horiz-adv-x="1228" unicode="–"/><glyph d="M80 453l37 225h1167l-37 -225h-1167z" glyph-name="emdash" horiz-adv-x="1351" unicode="—"/><glyph d="M520 1319q-84 -6 -124 -36t-52 -93q90 0 137 -46t47 -118q0 -78 -52 -132t-136 -54q-82 0 -133 56t-51 173q0 158 94 264.5t276 106.5h13z" glyph-name="quoteleft" horiz-adv-x="530" unicode="‘"/><glyph d="M205 973q84 6 124 35.5t52 93.5q-90 0 -137 46t-47 118q0 78 52 132t136 54q82 0 133 -56.5t51 -172.5q0 -158 -94 -264.5t-276 -106.5h-13z" glyph-name="quoteright" horiz-adv-x="532" unicode="’"/><glyph d="M27 -143q84 6 123.5 35.5t52.5 93.5q-90 0 -137.5 46t-47.5 118q0 78 52.5 132t136.5 54q82 0 133 -56.5t51 -173.5q0 -158 -94 -264t-277 -106h-12z" glyph-name="quotesinglbase" horiz-adv-x="540" unicode="‚"/><glyph d="M520 1319q-84 -6 -124 -36t-52 -93q90 0 137 -46t47 -118q0 -78 -52 -132t-136 -54q-82 0 -133 56t-51 173q0 158 94 264.5t276 106.5h13zM621 1069q0 158 94 264.5t276 106.5h13l-19 -121q-84 -6 -124 -36t-52 -93q90 0 137 -46t47 -118q0 -78 -52 -132t-136 -54 q-82 0 -133 56t-51 173z" glyph-name="quotedblleft" horiz-adv-x="989" unicode="“"/><glyph d="M205 973q84 6 124 35.5t52 93.5q-90 0 -137 46t-47 118q0 78 52 132t136 54q82 0 133 -56.5t51 -172.5q0 -158 -94 -264.5t-276 -106.5h-13zM649 852l19 121q84 6 123.5 35.5t52.5 93.5q-90 0 -137.5 46t-47.5 118q0 78 52.5 132t136.5 54q82 0 133 -56.5t51 -172.5 q0 -158 -94 -264.5t-276 -106.5h-13z" glyph-name="quotedblright" horiz-adv-x="997" unicode="”"/><glyph d="M485 -166q84 6 124 36t53 93q-90 0 -137.5 46t-47.5 118q0 78 52.5 132t136.5 54q82 0 133 -56t51 -173q0 -158 -94 -264.5t-277 -106.5h-12zM2 -287l18 121q84 6 124 36t53 93q-90 0 -137.5 46t-47.5 118q0 78 52.5 132t136.5 54q82 0 133 -56t51 -173 q0 -158 -94 -264.5t-277 -106.5h-12z" glyph-name="quotedblbase" horiz-adv-x="1003" unicode="„"/><glyph d="M301 401l80 506h-221l39 226h217l47 301h237l-47 -301h215l-39 -226h-213l-79 -506h-236z" glyph-name="dagger" horiz-adv-x="874" unicode="†"/><glyph d="M236 0l43 272h-220l39 226h217l68 438h-215l35 225h217l43 273h237l-43 -273h215l-34 -225h-217l-68 -438h215l-39 -226h-213l-43 -272h-237z" glyph-name="daggerdbl" horiz-adv-x="874" unicode="‡"/><glyph d="M291 356q-76 0 -130.5 54.5t-54.5 130.5q0 74 54.5 128t130.5 54q74 0 128 -54.5t54 -127.5q0 -76 -54 -130.5t-128 -54.5z" glyph-name="bullet" horiz-adv-x="575" unicode="•"/><glyph d="M750 -20q-74 0 -127.5 52t-53.5 125.5t53.5 126t127.5 52.5q76 0 129 -52.5t53 -125.5q0 -76 -53 -127t-129 -51zM18 157.5q0 73.5 53.5 126t127.5 52.5q76 0 129 -52.5t53 -125.5q0 -76 -53.5 -127t-128.5 -51q-74 0 -127.5 52t-53.5 125.5zM1122 157.5q0 73.5 53.5 126 t127.5 52.5q76 0 129 -52.5t53 -125.5q0 -76 -53.5 -127t-128.5 -51q-74 0 -127.5 52t-53.5 125.5z" glyph-name="ellipsis" horiz-adv-x="1622" unicode="…"/><glyph d="M211 223l-98 170l1263 821l97 -167zM164 1057q0 162 101.5 280.5t262.5 118.5q117 0 186.5 -65.5t69.5 -196.5q0 -162 -101 -280.5t-263 -118.5q-115 0 -185.5 65.5t-70.5 196.5zM379 1096q0 -104 78 -105q57 0 84.5 50.5t27.5 113.5q0 104 -75 105q-57 0 -86 -50.5 t-29 -113.5zM807 244q0 164 100.5 282.5t263.5 118.5q115 0 184.5 -65.5t69.5 -196.5q0 -164 -100 -282.5t-264 -118.5q-115 0 -184.5 65.5t-69.5 196.5zM1022 285q0 -104 76 -105q57 0 84.5 49.5t27.5 112.5q0 104 -75 104q-55 0 -84 -49t-29 -112zM1530 244 q0 164 100.5 282.5t263.5 118.5q115 0 184.5 -65.5t69.5 -196.5q0 -164 -100 -282.5t-264 -118.5q-115 0 -184.5 65.5t-69.5 196.5zM1745 285q0 -104 76 -105q57 0 84.5 49.5t27.5 112.5q0 104 -75 104q-55 0 -84 -49t-29 -112z" glyph-name="perthousand" horiz-adv-x="2252" unicode="‰"/><glyph d="M383 203l-307 286l37 234l399 297l-41 -268l-197 -142l150 -137z" glyph-name="guilsinglleft" horiz-adv-x="516" unicode="‹"/><glyph d="M158 1020l307 -287l-37 -233l-399 -297l41 268l196 141l-149 138z" glyph-name="guilsinglright" horiz-adv-x="516" unicode="›"/><glyph d="M-444 0l1120 1434h149l-1120 -1434h-149z" glyph-name="fraction" horiz-adv-x="321" unicode="⁄"/><glyph d="M104 739l29 181h113q80 242 267 387t456 145q252 0 401.5 -132t136.5 -384h-295q-10 131 -84.5 191.5t-189.5 60.5q-256 0 -373 -268h285l-29 -181h-307q-8 -66 -8 -98h301l-31 -180h-250q63 -217 285 -217q236 0 334 254h295q-61 -262 -240.5 -390t-423.5 -128 t-391 122.5t-180 358.5h-146l31 180h107q4 66 10 98h-103z" glyph-name="Euro" horiz-adv-x="1505" unicode="€"/><glyph d="M594 1065l59 369h123l70 -277l151 277h127l-59 -369h-117l29 180l-92 -180h-105l-43 180l-26 -180h-117zM209 1337l16 97h363l-17 -97h-122l-43 -272h-117l43 272h-123z" glyph-name="trademark" horiz-adv-x="1062" unicode="™"/><glyph d="M528 -20q-90 0 -173 27.5t-155.5 85t-107.5 158.5t-14 234q18 125 76.5 219.5t137.5 146.5t162 76.5t167 24.5q195 0 313 -145q14 53 10 123.5t-18.5 133t-68.5 106.5t-142 44q-199 0 -252 -176h-262q20 160 163.5 287t380.5 127q289 0 398.5 -198.5t56.5 -534.5 q-31 -197 -99.5 -344.5t-160.5 -231.5t-194.5 -123.5t-217.5 -39.5zM360 479q-20 -127 44.5 -192.5t161 -65.5t182.5 63.5t106 190.5q18 127 -48.5 188.5t-164.5 61.5q-96 0 -178.5 -60.5t-102.5 -185.5z" glyph-name="partialdiff" horiz-adv-x="1245" unicode="∂"/><glyph d="M-53 -389l321 2027h1340l-322 -2027h-287l279 1755h-764l-281 -1755h-286z" glyph-name="product" horiz-adv-x="1523" unicode="∏"/><glyph d="M-53 -389l723 1014l-402 1013h1241l-43 -270h-764l291 -743l-522 -744h760l-43 -270h-1241z" glyph-name="summation" horiz-adv-x="1425" unicode="∑"/><glyph d="M88 403l39 226h684l-41 -226h-682z" glyph-name="minus" horiz-adv-x="901" unicode="−"/><glyph d="M561 -389l-223 878h-252l51 320h455l190 -813l688 1642h291l-852 -2027h-348z" glyph-name="radical" horiz-adv-x="1677" unicode="√"/><glyph d="M451 176q-154 0 -261.5 99.5t-107.5 261.5q0 160 107.5 257t261.5 97q201 0 407 -184q207 184 406 184q154 0 261 -97.5t107 -256.5q0 -162 -107.5 -261.5t-260.5 -99.5q-201 0 -406 186q-204 -186 -407 -186zM338 536.5q0 -55.5 40 -96.5t107 -41q119 0 224 138 q-109 137 -224 137q-68 0 -107.5 -41t-39.5 -96.5zM1006 537q104 -137 225 -138q68 0 106.5 41t38.5 96.5t-39 96.5t-106 41q-116 0 -225 -137z" glyph-name="infinity" horiz-adv-x="1712" unicode="∞"/><glyph d="M-70 -133q80 0 114 50t46 142l156 988q27 184 137.5 281t349.5 97l-39 -256q-72 0 -108.5 -49t-50.5 -143l-158 -989q-31 -199 -141.5 -288t-346.5 -89z" glyph-name="integral" horiz-adv-x="643" unicode="∫"/><glyph d="M698 201q-88 0 -214 84t-201 84q-35 0 -62.5 -18.5t-25.5 -47.5h-123q0 123 68.5 202t193.5 79q86 0 212 -84t204 -84q35 0 61.5 18.5t24.5 46.5h122q0 -121 -67.5 -200.5t-192.5 -79.5zM127 631q0 123 68.5 201.5t193.5 78.5q86 0 212 -84t204 -84q35 0 61.5 18.5 t24.5 47.5h123q0 -121 -67.5 -201t-192.5 -80q-88 0 -214 84t-202 84q-35 0 -62.5 -18.5t-25.5 -46.5h-123z" glyph-name="approxequal" horiz-adv-x="1081" unicode="≈"/><glyph d="M133 0l115 289h-178l41 225h227l41 102h-252l39 226h303l123 307h180l-123 -307h201l-41 -226h-250l-41 -102h275l-39 -225h-326l-115 -289h-180z" glyph-name="notequal" horiz-adv-x="907" unicode="≠"/><glyph d="M23 0l38 225h701l-39 -225h-700zM135 653l33 234l750 332l-35 -250l-510 -201l452 -205l-34 -241z" glyph-name="lessequal" horiz-adv-x="929" unicode="≤"/><glyph d="M23 0l30 225h703l-33 -225h-700zM86 322l35 249l512 201l-455 205l37 242l655 -334l-34 -232z" glyph-name="greaterequal" horiz-adv-x="923" unicode="≥"/><glyph d="M326 0l-205 717l432 717h422l203 -717l-430 -717h-422zM422 717l147 -510l308 510l-146 510z" glyph-name="lozenge" horiz-adv-x="1241" unicode="◊"/><glyph d="M102 492l148 942h307l-147 -942h-308z" glyph-name="uniA78B" horiz-adv-x="522" unicode="Ꞌ"/><glyph d="M119 610l131 824h299l-131 -824h-299z" glyph-name="uniA78C" horiz-adv-x="512" unicode="ꞌ"/><glyph d="M623 -20q-270 0 -415 144t-99 421h309q-23 -143 42.5 -221t198.5 -78q258 0 310 321l137 867h307l-141 -889q-45 -281 -214 -423t-435 -142zM1122 1556l260 287h258l-260 -287h-258z" glyph-name="J.aalt" horiz-adv-x="1376"/><glyph d="M618.5 -20q-245.5 0 -385 150.5t-139.5 426.5q0 246 95.5 447.5t280.5 324.5t427 123q238 0 381 -120t141 -353h-311q-31 209 -246 209q-207 0 -327.5 -174t-120.5 -406q0 -365 305 -366q143 -4 239.5 73.5t116.5 219.5l2 8h-291l39 245h582l-125 -788h-289l27 156 q-156 -176 -401.5 -176z" glyph-name="G.ss01" horiz-adv-x="1452"/><glyph d="M901 0q-37 41 -4 229l18 107q12 84 -32.5 133t-137.5 49h-333l-82 -518h-307l227 1434h610q240 0 353.5 -98.5t113.5 -270.5q0 -283 -293 -406q127 -43 169 -119.5t24 -193.5l-17 -117q-33 -188 4 -229h-313zM451 766h288q121 0 189.5 63.5t68.5 167.5q0 168 -194 168 h-289z" glyph-name="R.aalt" horiz-adv-x="1394"/><glyph d="M618.5 -20q-245.5 0 -385 150.5t-139.5 426.5q0 246 95.5 447.5t280.5 324.5t427 123q238 0 381 -120t141 -353h-311q-31 209 -246 209q-207 0 -327.5 -174t-120.5 -406q0 -365 305 -366q143 -4 239.5 73.5t116.5 219.5l2 8h-291l39 245h582l-125 -788h-289l27 156 q-156 -176 -401.5 -176z" glyph-name="G.ss05" horiz-adv-x="1452"/><glyph d="M4 0l168 1065h299l-168 -1065h-299zM209 1352q0 66 49 112.5t114.5 46.5t115 -47t49.5 -112q0 -68 -49.5 -115t-115 -47t-114.5 47t-49 115z" glyph-name="i.locl" horiz-adv-x="479"/><glyph d="M-66 -399q-117 0 -176 6l39 233h105q117 0 141 140l172 1085h299l-180 -1131q-50 -333 -400 -333zM242 1188l260 287h258l-260 -287h-258z" glyph-name="j.aalt" horiz-adv-x="522"/><glyph d="M428 -20q-162 0 -271.5 107.5t-109.5 320.5q0 279 156.5 478t394.5 199q117 0 194.5 -48t100.5 -122l22 150h299l-167 -1065h-299l24 152q-41 -72 -135 -122t-209 -50zM334 467q0 -119 58.5 -179.5t154.5 -60.5q133 0 218 111t85 258q0 121 -60.5 181.5t-158.5 60.5 q-131 0 -214 -110.5t-83 -260.5z" glyph-name="a.ss01" horiz-adv-x="1236"/><glyph d="M428 -20q-162 0 -271.5 107.5t-109.5 320.5q0 279 156.5 478t394.5 199q117 0 194.5 -48t100.5 -122l22 150h299l-167 -1065h-299l24 152q-41 -72 -135 -122t-209 -50zM334 467q0 -119 58.5 -179.5t154.5 -60.5q133 0 218 111t85 258q0 121 -60.5 181.5t-158.5 60.5 q-131 0 -214 -110.5t-83 -260.5zM567 1188l260 287h258l-260 -287h-258z" glyph-name="aacute.ss01" horiz-adv-x="1236"/><glyph d="M428 -20q-162 0 -271.5 107.5t-109.5 320.5q0 279 156.5 478t394.5 199q117 0 194.5 -48t100.5 -122l22 150h299l-167 -1065h-299l24 152q-41 -72 -135 -122t-209 -50zM334 467q0 -119 58.5 -179.5t154.5 -60.5q133 0 218 111t85 258q0 121 -60.5 181.5t-158.5 60.5 q-131 0 -214 -110.5t-83 -260.5zM412 1475h196q-12 -145 133 -146q139 0 168 146h199q-25 -150 -124 -233t-267 -83q-172 0 -251 84.5t-54 231.5z" glyph-name="abreve.ss01" horiz-adv-x="1236"/><glyph d="M428 -20q-162 0 -271.5 107.5t-109.5 320.5q0 279 156.5 478t394.5 199q117 0 194.5 -48t100.5 -122l22 150h299l-167 -1065h-299l24 152q-41 -72 -135 -122t-209 -50zM334 467q0 -119 58.5 -179.5t154.5 -60.5q133 0 218 111t85 258q0 121 -60.5 181.5t-158.5 60.5 q-131 0 -214 -110.5t-83 -260.5zM348 1473h279l96 -197l156 197h280l-235 -289h-430z" glyph-name="uni01CE.ss01" horiz-adv-x="1236"/><glyph d="M428 -20q-162 0 -271.5 107.5t-109.5 320.5q0 279 156.5 478t394.5 199q117 0 194.5 -48t100.5 -122l22 150h299l-167 -1065h-299l24 152q-41 -72 -135 -122t-209 -50zM307 1186l236 289h430l145 -289h-278l-97 196l-155 -196h-281zM334 467q0 -119 58.5 -179.5 t154.5 -60.5q133 0 218 111t85 258q0 121 -60.5 181.5t-158.5 60.5q-131 0 -214 -110.5t-83 -260.5z" glyph-name="acircumflex.ss01" horiz-adv-x="1236"/><glyph d="M428 -20q-162 0 -271.5 107.5t-109.5 320.5q0 279 156.5 478t394.5 199q117 0 194.5 -48t100.5 -122l22 150h299l-167 -1065h-299l24 152q-41 -72 -135 -122t-209 -50zM328 1352q0 66 49 112.5t114.5 46.5t114.5 -47t49 -112q0 -68 -49 -115t-114.5 -47t-114.5 47 t-49 115zM334 467q0 -119 58.5 -179.5t154.5 -60.5q133 0 218 111t85 258q0 121 -60.5 181.5t-158.5 60.5q-131 0 -214 -110.5t-83 -260.5zM815 1351.5q0 67.5 49 113.5t117 46q66 0 115 -47t49 -112q0 -68 -49 -115t-115 -47q-68 0 -117 47t-49 114.5z" glyph-name="adieresis.ss01" horiz-adv-x="1236"/><glyph d="M428 -20q-162 0 -271.5 107.5t-109.5 320.5q0 279 156.5 478t394.5 199q117 0 194.5 -48t100.5 -122l22 150h299l-167 -1065h-299l24 152q-41 -72 -135 -122t-209 -50zM334 467q0 -119 58.5 -179.5t154.5 -60.5q133 0 218 111t85 258q0 121 -60.5 181.5t-158.5 60.5 q-131 0 -214 -110.5t-83 -260.5zM412 1475h258l172 -287h-260z" glyph-name="agrave.ss01" horiz-adv-x="1236"/><glyph d="M428 -20q-162 0 -271.5 107.5t-109.5 320.5q0 279 156.5 478t394.5 199q117 0 194.5 -48t100.5 -122l22 150h299l-167 -1065h-299l24 152q-41 -72 -135 -122t-209 -50zM334 467q0 -119 58.5 -179.5t154.5 -60.5q133 0 218 111t85 258q0 121 -60.5 181.5t-158.5 60.5 q-131 0 -214 -110.5t-83 -260.5zM397 1300l27 175h672l-27 -175h-672z" glyph-name="amacron.ss01" horiz-adv-x="1236"/><glyph d="M428 -20q-162 0 -271.5 107.5t-109.5 320.5q0 279 156.5 478t394.5 199q117 0 194.5 -48t100.5 -122l22 150h299l-167 -1065q-125 0 -199 -45t-74 -117q0 -49 41 -66.5t98 1.5l-26 -166q-37 -16 -92.5 -18.5t-111.5 11t-96 58.5t-40 115q0 86 58.5 156.5t148.5 107.5 l18 115q-41 -72 -135 -122t-209 -50zM334 467q0 -119 58.5 -179.5t154.5 -60.5q133 0 218 111t85 258q0 121 -60.5 181.5t-158.5 60.5q-131 0 -214 -110.5t-83 -260.5z" glyph-name="aogonek.ss01" horiz-adv-x="1236"/><glyph d="M428 -20q-162 0 -271.5 107.5t-109.5 320.5q0 279 156.5 478t394.5 199q117 0 194.5 -48t100.5 -122l22 150h299l-167 -1065h-299l24 152q-41 -72 -135 -122t-209 -50zM334 467q0 -119 58.5 -179.5t154.5 -60.5q133 0 218 111t85 258q0 121 -60.5 181.5t-158.5 60.5 q-131 0 -214 -110.5t-83 -260.5zM526 1348q0 86 61.5 145t149.5 59q90 0 151.5 -59t61.5 -145t-61.5 -145.5t-151.5 -59.5q-88 0 -149.5 59.5t-61.5 145.5zM666 1347.5q0 -32.5 20.5 -52t51 -19.5t52 20.5t21.5 51.5q0 33 -21.5 53t-52 20t-51 -20.5t-20.5 -53z" glyph-name="aring.ss01" horiz-adv-x="1236"/><glyph d="M428 -20q-162 0 -271.5 107.5t-109.5 320.5q0 279 156.5 478t394.5 199q117 0 194.5 -48t100.5 -122l22 150h299l-167 -1065h-299l24 152q-41 -72 -135 -122t-209 -50zM334 467q0 -119 58.5 -179.5t154.5 -60.5q133 0 218 111t85 258q0 121 -60.5 181.5t-158.5 60.5 q-131 0 -214 -110.5t-83 -260.5zM379 1260q14 113 76.5 175t162.5 62q51 0 93.5 -17.5t63 -39t45 -39t46.5 -17.5q70 0 80 58h176q-14 -111 -76.5 -173.5t-162.5 -62.5q-51 0 -92 17.5t-61.5 39t-46.5 39t-50 17.5q-70 0 -80 -59h-174z" glyph-name="atilde.ss01" horiz-adv-x="1236"/><glyph d="M23 0l167 1065h299l-167 -1065h-299zM217 1225l35 227h299l-35 -227h-299z" glyph-name="i.ss01" horiz-adv-x="512"/><glyph d="M430 0q-223 -25 -308 36.5t-54 254.5l186 1157h299l-186 -1157q-4 -39 16 -57.5t80 -16.5z" glyph-name="l.ss01" horiz-adv-x="571"/><glyph d="M428 -20q-162 0 -271.5 107.5t-109.5 320.5q0 279 156.5 478t394.5 199q117 0 194.5 -48t100.5 -122l22 150h299l-167 -1065h-299l24 152q-41 -72 -135 -122t-209 -50zM334 467q0 -119 58.5 -179.5t154.5 -60.5q133 0 218 111t85 258q0 121 -60.5 181.5t-158.5 60.5 q-131 0 -214 -110.5t-83 -260.5z" glyph-name="a.ss02" horiz-adv-x="1236"/><glyph d="M428 -20q-162 0 -271.5 107.5t-109.5 320.5q0 279 156.5 478t394.5 199q117 0 194.5 -48t100.5 -122l22 150h299l-167 -1065h-299l24 152q-41 -72 -135 -122t-209 -50zM334 467q0 -119 58.5 -179.5t154.5 -60.5q133 0 218 111t85 258q0 121 -60.5 181.5t-158.5 60.5 q-131 0 -214 -110.5t-83 -260.5zM567 1188l260 287h258l-260 -287h-258z" glyph-name="aacute.ss02" horiz-adv-x="1236"/><glyph d="M428 -20q-162 0 -271.5 107.5t-109.5 320.5q0 279 156.5 478t394.5 199q117 0 194.5 -48t100.5 -122l22 150h299l-167 -1065h-299l24 152q-41 -72 -135 -122t-209 -50zM334 467q0 -119 58.5 -179.5t154.5 -60.5q133 0 218 111t85 258q0 121 -60.5 181.5t-158.5 60.5 q-131 0 -214 -110.5t-83 -260.5zM412 1475h196q-12 -145 133 -146q139 0 168 146h199q-25 -150 -124 -233t-267 -83q-172 0 -251 84.5t-54 231.5z" glyph-name="abreve.ss02" horiz-adv-x="1236"/><glyph d="M428 -20q-162 0 -271.5 107.5t-109.5 320.5q0 279 156.5 478t394.5 199q117 0 194.5 -48t100.5 -122l22 150h299l-167 -1065h-299l24 152q-41 -72 -135 -122t-209 -50zM334 467q0 -119 58.5 -179.5t154.5 -60.5q133 0 218 111t85 258q0 121 -60.5 181.5t-158.5 60.5 q-131 0 -214 -110.5t-83 -260.5zM348 1473h279l96 -197l156 197h280l-235 -289h-430z" glyph-name="uni01CE.ss02" horiz-adv-x="1236"/><glyph d="M428 -20q-162 0 -271.5 107.5t-109.5 320.5q0 279 156.5 478t394.5 199q117 0 194.5 -48t100.5 -122l22 150h299l-167 -1065h-299l24 152q-41 -72 -135 -122t-209 -50zM307 1186l236 289h430l145 -289h-278l-97 196l-155 -196h-281zM334 467q0 -119 58.5 -179.5 t154.5 -60.5q133 0 218 111t85 258q0 121 -60.5 181.5t-158.5 60.5q-131 0 -214 -110.5t-83 -260.5z" glyph-name="acircumflex.ss02" horiz-adv-x="1236"/><glyph d="M428 -20q-162 0 -271.5 107.5t-109.5 320.5q0 279 156.5 478t394.5 199q117 0 194.5 -48t100.5 -122l22 150h299l-167 -1065h-299l24 152q-41 -72 -135 -122t-209 -50zM328 1352q0 66 49 112.5t114.5 46.5t114.5 -47t49 -112q0 -68 -49 -115t-114.5 -47t-114.5 47 t-49 115zM334 467q0 -119 58.5 -179.5t154.5 -60.5q133 0 218 111t85 258q0 121 -60.5 181.5t-158.5 60.5q-131 0 -214 -110.5t-83 -260.5zM815 1351.5q0 67.5 49 113.5t117 46q66 0 115 -47t49 -112q0 -68 -49 -115t-115 -47q-68 0 -117 47t-49 114.5z" glyph-name="adieresis.ss02" horiz-adv-x="1236"/><glyph d="M428 -20q-162 0 -271.5 107.5t-109.5 320.5q0 279 156.5 478t394.5 199q117 0 194.5 -48t100.5 -122l22 150h299l-167 -1065h-299l24 152q-41 -72 -135 -122t-209 -50zM334 467q0 -119 58.5 -179.5t154.5 -60.5q133 0 218 111t85 258q0 121 -60.5 181.5t-158.5 60.5 q-131 0 -214 -110.5t-83 -260.5zM412 1475h258l172 -287h-260z" glyph-name="agrave.ss02" horiz-adv-x="1236"/><glyph d="M428 -20q-162 0 -271.5 107.5t-109.5 320.5q0 279 156.5 478t394.5 199q117 0 194.5 -48t100.5 -122l22 150h299l-167 -1065h-299l24 152q-41 -72 -135 -122t-209 -50zM334 467q0 -119 58.5 -179.5t154.5 -60.5q133 0 218 111t85 258q0 121 -60.5 181.5t-158.5 60.5 q-131 0 -214 -110.5t-83 -260.5zM397 1300l27 175h672l-27 -175h-672z" glyph-name="amacron.ss02" horiz-adv-x="1236"/><glyph d="M428 -20q-162 0 -271.5 107.5t-109.5 320.5q0 279 156.5 478t394.5 199q117 0 194.5 -48t100.5 -122l22 150h299l-167 -1065q-125 0 -199 -45t-74 -117q0 -49 41 -66.5t98 1.5l-26 -166q-37 -16 -92.5 -18.5t-111.5 11t-96 58.5t-40 115q0 86 58.5 156.5t148.5 107.5 l18 115q-41 -72 -135 -122t-209 -50zM334 467q0 -119 58.5 -179.5t154.5 -60.5q133 0 218 111t85 258q0 121 -60.5 181.5t-158.5 60.5q-131 0 -214 -110.5t-83 -260.5z" glyph-name="aogonek.ss02" horiz-adv-x="1236"/><glyph d="M428 -20q-162 0 -271.5 107.5t-109.5 320.5q0 279 156.5 478t394.5 199q117 0 194.5 -48t100.5 -122l22 150h299l-167 -1065h-299l24 152q-41 -72 -135 -122t-209 -50zM334 467q0 -119 58.5 -179.5t154.5 -60.5q133 0 218 111t85 258q0 121 -60.5 181.5t-158.5 60.5 q-131 0 -214 -110.5t-83 -260.5zM526 1348q0 86 61.5 145t149.5 59q90 0 151.5 -59t61.5 -145t-61.5 -145.5t-151.5 -59.5q-88 0 -149.5 59.5t-61.5 145.5zM666 1347.5q0 -32.5 20.5 -52t51 -19.5t52 20.5t21.5 51.5q0 33 -21.5 53t-52 20t-51 -20.5t-20.5 -53z" glyph-name="aring.ss02" horiz-adv-x="1236"/><glyph d="M428 -20q-162 0 -271.5 107.5t-109.5 320.5q0 279 156.5 478t394.5 199q117 0 194.5 -48t100.5 -122l22 150h299l-167 -1065h-299l24 152q-41 -72 -135 -122t-209 -50zM334 467q0 -119 58.5 -179.5t154.5 -60.5q133 0 218 111t85 258q0 121 -60.5 181.5t-158.5 60.5 q-131 0 -214 -110.5t-83 -260.5zM379 1260q14 113 76.5 175t162.5 62q51 0 93.5 -17.5t63 -39t45 -39t46.5 -17.5q70 0 80 58h176q-14 -111 -76.5 -173.5t-162.5 -62.5q-51 0 -92 17.5t-61.5 39t-46.5 39t-50 17.5q-70 0 -80 -59h-174z" glyph-name="atilde.ss02" horiz-adv-x="1236"/><glyph d="M317 -20q-133 0 -218 62t-85 196q0 281 416 337l209 29q74 10 95.5 24.5t25.5 63.5l6 45q6 72 -37 100.5t-113 28.5q-166 0 -186 -143v-8l-283 -4l7 43q61 332 510 331q240 0 336 -91t65 -277l-74 -449q-8 -43 6.5 -55t51.5 -16l-27 -174q-39 -31 -123 -31 q-197 0 -174 186v17h-12q-18 -66 -128 -140.5t-268 -74.5zM319 297q0 -100 138 -100q104 0 172.5 55t79.5 117l18 112q-14 -14 -119 -32l-104 -17q-185 -31 -185 -135z" glyph-name="a.ss03" horiz-adv-x="1136"/><glyph d="M430 0q-223 -25 -308 36.5t-54 254.5l186 1157h299l-186 -1157q-4 -39 16 -57.5t80 -16.5z" glyph-name="l.ss04" horiz-adv-x="571"/><glyph d="M84 836l35 229h155l11 70q55 332 399 331h160l-35 -227h-88q-125 0 -146 -135l-6 -39h439l43 274h299l-45 -274h211l-35 -229h-213l-76 -474q-20 -137 104 -137h95l-37 -233q-57 -6 -168 -6q-348 0 -297 333l82 517h-439l-131 -836h-299l136 836h-154z" glyph-name="f_t.dlig" horiz-adv-x="1484"/><glyph d="M23 0l167 1065h299l-47 -305h7q53 150 158.5 227.5t312.5 77.5h53l43 274h299l-45 -274h211l-35 -229h-213l-76 -474q-20 -137 105 -137h94l-37 -233q-57 -6 -168 -6q-348 0 -297 333l82 517h-62q-209 0 -324.5 -77t-150.5 -261l-77 -498h-299z" glyph-name="r_t.dlig" horiz-adv-x="1449"/><glyph d="M207 -4q-100 0 -147.5 68.5t-30.5 185.5l4 31q16 117 86.5 187.5t171.5 70.5q98 0 148 -71t34 -187l-4 -31q-16 -115 -90 -184.5t-172 -69.5zM145 250q-16 -145 76 -146q51 0 87 40t44 106l4 31q10 66 -12 107.5t-70 41.5q-49 0 -82.5 -42t-41.5 -107z" glyph-name="zero.dnom" horiz-adv-x="585"/><glyph d="M176 389q-47 -57 -123 -37l17 109q37 -4 74.5 19.5t54.5 54.5h110l-84 -535h-110z" glyph-name="one.dnom" horiz-adv-x="401"/><glyph d="M2 12q12 88 51 147.5t135 110.5q8 4 30 14.5t30 15.5t22.5 14.5t20.5 17.5t13 19t9 26q4 29 -15 45t-46 16t-51.5 -18.5t-28.5 -54.5l-2 -17h-117l2 17q10 80 67.5 129t147.5 49t131 -47t29 -121q-4 -20 -11 -39t-20.5 -35t-23.5 -27.5t-33 -26t-34 -21.5t-39.5 -23.5 t-39.5 -22.5q-70 -39 -79 -65l-5 -13h240l-14 -102h-371z" glyph-name="two.dnom" horiz-adv-x="546"/><glyph d="M203 -8q-98 0 -144.5 48t-33.5 126h106q-4 -39 18.5 -60.5t63.5 -21.5q92 0 102 78q4 31 -18.5 53.5t-73.5 22.5h-22l12 84h23q80 0 94 57q6 31 -11.5 51.5t-52.5 20.5q-72 0 -84 -76h-106q10 78 66.5 123t138.5 45q84 0 126 -40t31 -104q-6 -45 -38.5 -75.5t-69.5 -38.5 q41 -2 71.5 -35t20.5 -98q-10 -72 -68.5 -116t-150.5 -44z" glyph-name="three.dnom" horiz-adv-x="565"/><glyph d="M238 0l20 135h-240l15 88l289 312h110l-49 -312h61l-14 -88h-61l-21 -135h-110zM131 223h141l31 185z" glyph-name="four.dnom" horiz-adv-x="575"/><glyph d="M178 -10q-96 0 -141 48t-35 126h107q-4 -37 18.5 -57.5t56.5 -20.5q39 0 73 25.5t40 78.5q6 49 -18.5 72t-59.5 23q-53 0 -82 -37h-106l86 287h295l-17 -103h-213l-32 -104q33 37 118 37q74 0 115 -50.5t27 -136.5q-14 -90 -77 -139t-155 -49z" glyph-name="five.dnom" horiz-adv-x="528"/><glyph d="M215 -10q-98 0 -147.5 71.5t-26.5 202.5q18 123 87 200t175 77q84 0 125 -45t33 -103h-105q2 20 -15 34.5t-52 14.5q-61 0 -94 -47t-37 -102q12 25 55 44t92 19q70 0 115 -45t31 -131q-16 -94 -85 -142t-151 -48zM147 188q-4 -45 21 -70.5t63 -25.5q37 0 66 24.5t33 65.5 q6 43 -17.5 67.5t-60.5 24.5q-91 0 -105 -86z" glyph-name="six.dnom" horiz-adv-x="585"/><glyph d="M18 0l265 432h-258l16 103h371l-17 -103l-258 -432h-119z" glyph-name="seven.dnom" horiz-adv-x="473"/><glyph d="M168 -4q-78 0 -128 39t-50 106q0 98 110 152q-41 33 -41 92q0 61 52.5 107.5t132.5 46.5q68 0 106.5 -34t38.5 -87q0 -82 -80 -125q72 -39 72 -123q0 -76 -61.5 -125t-151.5 -49zM96 156q0 -74 80 -74q43 0 69.5 24.5t26.5 67.5q0 31 -23.5 50.5t-55.5 19.5 q-39 0 -68 -26.5t-29 -61.5zM156 385q0 -49 59 -49q31 0 51.5 20.5t20.5 51.5q0 49 -56 49q-33 0 -54 -20.5t-21 -51.5z" glyph-name="eight.dnom" horiz-adv-x="489"/><glyph d="M199 -10q-84 0 -124 45t-32 102h104q-2 -20 14.5 -34.5t51.5 -14.5q61 0 94 46t39 104q-12 -25 -55 -44.5t-92 -19.5q-72 0 -117 45t-29 131q16 94 85 142.5t151 48.5q98 0 146 -71t28 -204q-18 -123 -86.5 -199.5t-177.5 -76.5zM174 348q-6 -43 16.5 -67.5t59.5 -24.5 q39 0 68.5 20.5t35.5 65.5t-18.5 70.5t-63.5 25.5q-37 0 -65.5 -24.5t-32.5 -65.5z" glyph-name="nine.dnom" horiz-adv-x="585"/><glyph d="M350 897q-100 0 -147 68.5t-31 185.5l4 31q16 117 87 187.5t171 70.5q98 0 148.5 -71t33.5 -187l-4 -31q-16 -115 -90 -184.5t-172 -69.5zM289 1151q-16 -145 76 -145q51 0 86.5 39.5t44.5 105.5l4 31q10 66 -12.5 107.5t-69.5 41.5q-49 0 -83 -42t-42 -107z" glyph-name="zero.numr" horiz-adv-x="585"/><glyph d="M319 1288q-47 -57 -122 -37l16 109q37 -4 75 19.5t54 54.5h111l-84 -535h-111z" glyph-name="one.numr" horiz-adv-x="401"/><glyph d="M145 913q12 88 51.5 147.5t135.5 110.5q8 4 29.5 14.5t29.5 15.5t22.5 14.5t20.5 17.5t13.5 19.5t9.5 25.5q4 29 -15.5 45t-46 16t-51.5 -18t-29 -55l-2 -17h-116l2 17q10 80 67.5 129t147.5 49t131 -47t28 -121q-4 -20 -11 -38.5t-20.5 -35t-23.5 -28t-32.5 -25.5 t-34 -21.5t-40 -24t-38.5 -22.5q-70 -39 -80 -65l-4 -12h239l-14 -103h-371z" glyph-name="two.numr" horiz-adv-x="546"/><glyph d="M346 893q-98 0 -144 48t-34 126h106q-4 -39 18.5 -60.5t63.5 -21.5q92 0 103 78q4 31 -18.5 53.5t-73.5 22.5h-23l12 84h23q80 0 94 57q6 31 -11.5 51.5t-51.5 20.5q-72 0 -84 -76h-107q10 78 66.5 123t138.5 45q84 0 126 -40t32 -104q-6 -45 -39 -75.5t-70 -38.5 q41 -2 71.5 -35t20.5 -98q-10 -72 -68.5 -116t-150.5 -44z" glyph-name="three.numr" horiz-adv-x="565"/><glyph d="M381 901l20 135h-239l14 88l289 312h110l-49 -312h62l-15 -88h-61l-20 -135h-111zM274 1124h142l30 185z" glyph-name="four.numr" horiz-adv-x="575"/><glyph d="M322 891q-96 0 -141.5 48t-35.5 126h107q-4 -37 18.5 -57.5t57.5 -20.5q39 0 72.5 25.5t39.5 79.5q6 49 -18.5 71.5t-59.5 22.5q-53 0 -81 -37h-107l86 287h295l-16 -103h-213l-33 -104q33 37 119 37q74 0 114.5 -50.5t26.5 -136.5q-14 -90 -76.5 -139t-154.5 -49z" glyph-name="five.numr" horiz-adv-x="528"/><glyph d="M358 889q-98 0 -147 71.5t-27 202.5q18 123 87 200t175 77q84 0 125 -45t33 -103h-104q2 20 -15.5 34.5t-52.5 14.5q-61 0 -94 -47t-37 -102q12 25 55 44t93 19q70 0 114.5 -45t30.5 -131q-16 -94 -85 -142t-151 -48zM291 1087q-4 -45 20.5 -70.5t63.5 -25.5 q37 0 65.5 24.5t32.5 65.5q6 43 -17.5 68t-60.5 25q-90 -1 -104 -87z" glyph-name="six.numr" horiz-adv-x="585"/><glyph d="M162 901l264 432h-258l16 103h371l-16 -103l-258 -432h-119z" glyph-name="seven.numr" horiz-adv-x="473"/><glyph d="M311 897q-78 0 -128 39t-50 106q0 98 111 152q-41 33 -41 92q0 61 52 107.5t132 46.5q68 0 106.5 -34t38.5 -87q0 -82 -79 -125q72 -39 71 -123q0 -76 -61.5 -125t-151.5 -49zM240 1057q0 -74 79 -74q43 0 70 24.5t27 67.5q0 31 -23.5 50.5t-56.5 19.5q-39 0 -67.5 -26.5 t-28.5 -61.5zM299 1286q0 -49 59 -49q31 0 51.5 20.5t20.5 51.5q0 49 -55 49q-33 0 -54.5 -20.5t-21.5 -51.5z" glyph-name="eight.numr" horiz-adv-x="489"/><glyph d="M342 891q-84 0 -124 45t-32 102h105q-2 -20 14.5 -34.5t50.5 -14.5q61 0 94 46t39 104q-12 -25 -55 -44.5t-92 -19.5q-72 0 -117 45t-28 131q16 94 84.5 142.5t150.5 48.5q98 0 146.5 -71t27.5 -204q-18 -123 -86.5 -199.5t-177.5 -76.5zM317 1249q-6 -43 16.5 -67.5 t59.5 -24.5q39 0 69 20.5t36 65.5t-18.5 70.5t-63.5 25.5q-37 0 -66 -24.5t-33 -65.5z" glyph-name="nine.numr" horiz-adv-x="585"/><glyph d="M18 0l56 340h323l-55 -340h-324z" glyph-name="period.aalt" horiz-adv-x="528"/><glyph d="M455 1159q-172 0 -251 84t-54 232h196q-12 -145 133 -146q139 0 168 146h199q-25 -150 -124 -233t-267 -83zM373 1536l260 287h258l-260 -287h-258z" glyph-name="uni0306_acutecomb.ccmp" horiz-adv-x="0"/><glyph d="M455 1159q-172 0 -251 84t-54 232h196q-12 -145 133 -146q139 0 168 146h199q-25 -150 -124 -233t-267 -83zM203 1823h258l172 -287h-260z" glyph-name="uni0306_gravecomb.ccmp" horiz-adv-x="0"/><glyph d="M455 1159q-172 0 -251 84t-54 232h196q-12 -145 133 -146q139 0 168 146h199q-25 -150 -124 -233t-267 -83zM215 1634q0 109 63.5 161t149.5 52q92 0 156.5 -54t64.5 -155q0 -88 -54 -140t-142 -64l-54 120q86 2 86 72q0 31 -17 47.5t-44 16.5q-51 0 -57 -56h-152z" glyph-name="uni0306_hookabovecomb.ccmp" horiz-adv-x="0"/><glyph d="M455 1159q-172 0 -251 84t-54 232h196q-12 -145 133 -146q139 0 168 146h199q-25 -150 -124 -233t-267 -83zM160 1608q14 113 76.5 175t162.5 62q51 0 93.5 -17.5t62.5 -39t45 -38.5t47 -17q70 0 80 57h176q-14 -111 -76.5 -173.5t-162.5 -62.5q-66 0 -111 28t-77 56.5 t-62 28.5q-70 0 -80 -59h-174z" glyph-name="uni0306_tildecomb.ccmp" horiz-adv-x="0"/><glyph d="M104 1186l236 289h430l145 -289h-278l-96 196l-156 -196h-281zM864 1393l260 286h258l-260 -286h-258z" glyph-name="uni0302_acutecomb.ccmp" horiz-adv-x="0"/><glyph d="M885 1395l-133 284h258l133 -284h-258zM104 1186l236 289h430l145 -289h-278l-96 196l-156 -196h-281z" glyph-name="uni0302_gravecomb.ccmp" horiz-adv-x="0"/><glyph d="M104 1186l236 289h430l145 -289h-278l-96 196l-156 -196h-281zM676 1614q0 109 63.5 161t149.5 52q92 0 156.5 -54.5t64.5 -154.5q0 -88 -54.5 -140.5t-142.5 -64.5l-53 121q86 2 86 72q0 31 -17.5 47t-43.5 16q-51 0 -58 -55h-151z" glyph-name="uni0302_hookabovecomb.ccmp" horiz-adv-x="0"/><glyph d="M104 1186l236 289h430l145 -289h-278l-96 196l-156 -196h-281zM213 1597q14 113 76.5 175.5t163.5 62.5q66 0 112.5 -28.5t77.5 -56.5t57 -28q70 0 80 58h176q-14 -111 -76.5 -173.5t-162.5 -62.5q-66 0 -111 29t-76.5 56.5t-62.5 27.5q-70 0 -80 -60h-174z" glyph-name="uni0302_tildecomb.ccmp" horiz-adv-x="0"/><glyph d="M455 1159q-172 0 -251 84t-54 232h196q-12 -145 133 -146q139 0 168 146h199q-25 -150 -124 -233t-267 -83z" glyph-name="glyph657" horiz-adv-x="0"/><glyph d="M127 831l98 603h287l-98 -603h-287z" glyph-name="glyph658" horiz-adv-x="0"/><glyph d="M-49 0l745 1434h396l290 -1434h-317l-49 268h-602l-135 -268h-328zM526 496h447l-115 624h-18zM770 1556l260 287h258l-260 -287h-258z" glyph-name="glyph659" horiz-adv-x="1501"/><glyph d="M600 580l39 249h412q-4 168 -82 263.5t-224 95.5q-236 0 -333 -254h-295q61 262 240.5 390t422.5 128q276 0 428 -157.5t152 -458.5q0 -362 -209 -609t-563 -247q-252 0 -401.5 132t-137.5 384h295q10 -131 85 -191.5t189 -60.5q152 0 252.5 93t147.5 243h-418zM676 1556 l260 287h258l-260 -287h-258z" glyph-name="glyph660" horiz-adv-x="1402"/><glyph d="M805 0l76 477h-213l-367 -477h-330l398 512q-242 86 -242 371q0 250 174 400.5t459 150.5h579l-227 -1434h-307zM449 934q0 -190 213 -191h262l67 424h-266q-131 0 -203.5 -62t-72.5 -171zM668 1556l260 287h258l-260 -287h-258z" glyph-name="glyph661" horiz-adv-x="1302"/><glyph d="M23 0l227 1434h979l-43 -267h-672l-53 -321h610l-37 -240h-610l-51 -340h692l-43 -266h-999zM637 1556l260 287h258l-260 -287h-258z" glyph-name="glyph662" horiz-adv-x="1161"/></font>
</defs>
</svg>
