<?xml version="1.0" encoding="UTF-8"?>
<svg width="26px" height="26px" viewBox="0 0 26 26" version="1.1" xmlns="http://www.w3.org/2000/svg" xmlns:xlink="http://www.w3.org/1999/xlink">
    <!-- Generator: Sketch 54.1 (76490) - https://sketchapp.com -->
    <title>roadmap-ico-development</title>
    <desc>Created with Sketch.</desc>
    <g id="Product-Roadmap-page" stroke="none" stroke-width="1" fill="none" fill-rule="evenodd">
        <g id="Icons-/-Roadmap-Status-/-Development" fill="#0096DC">
            <path d="M13,24 C19.065,24 24,19.065 24,13 C24,6.935 19.065,2 13,2 C6.935,2 2,6.935 2,13 C2,19.065 6.935,24 13,24 Z M13,0 C20.168,0 26,5.832 26,13 C26,20.168 20.168,26 13,26 C5.832,26 0,20.168 0,13 C0,5.832 5.832,0 13,0 Z M9.2881,7.6621 C9.7191,8.0081 9.7871,8.6371 9.4411,9.0671 L6.2821,13.0001 L9.4411,16.9331 C9.7871,17.3631 9.7191,17.9921 9.2881,18.3381 C9.1031,18.4861 8.8831,18.5581 8.6631,18.5581 C8.3701,18.5581 8.0801,18.4311 7.8831,18.1841 L4.2211,13.6261 C3.9271,13.2611 3.9271,12.7391 4.2211,12.3741 L7.8831,7.8151 C8.2281,7.3861 8.8571,7.3161 9.2881,7.6621 Z M21.7793,12.374 C22.0733,12.739 22.0733,13.261 21.7793,13.626 L18.1173,18.185 C17.9203,18.431 17.6303,18.559 17.3373,18.559 C17.1173,18.559 16.8963,18.486 16.7123,18.338 C16.2813,17.992 16.2133,17.363 16.5583,16.933 L19.7173,13 L16.5583,9.067 C16.2133,8.637 16.2813,8.008 16.7123,7.662 C17.1413,7.315 17.7713,7.385 18.1173,7.815 L21.7793,12.374 Z M14.4668,6.3984 C15.0058,6.5184 15.3458,7.0524 15.2268,7.5914 L12.7268,18.8414 C12.6228,19.3074 12.2088,19.6254 11.7508,19.6254 C11.6788,19.6254 11.6068,19.6174 11.5328,19.6014 C10.9938,19.4814 10.6538,18.9474 10.7738,18.4084 L13.2738,7.1584 C13.3938,6.6194 13.9318,6.2874 14.4668,6.3984 Z" id="Combined-Shape"></path>
        </g>
    </g>
</svg>