<?xml version="1.0" encoding="UTF-8"?>
<svg width="26px" height="26px" viewBox="0 0 26 26" version="1.1" xmlns="http://www.w3.org/2000/svg" xmlns:xlink="http://www.w3.org/1999/xlink">
    <!-- Generator: Sketch 54.1 (76490) - https://sketchapp.com -->
    <title>roadmap-ico-hold</title>
    <desc>Created with Sketch.</desc>
    <g id="Product-Roadmap-page" stroke="none" stroke-width="1" fill="none" fill-rule="evenodd">
        <g id="Icons-/-Roadmap-Status-/-Hold" fill="#A7A7A7">
            <path d="M13,24 C19.065,24 24,19.065 24,13 C24,6.935 19.065,2 13,2 C6.935,2 2,6.935 2,13 C2,19.065 6.935,24 13,24 Z M13,0 C20.168,0 26,5.832 26,13 C26,20.168 20.168,26 13,26 C5.832,26 0,20.168 0,13 C0,5.832 5.832,0 13,0 Z M10.5,8.5 C11.053,8.5 11.5,8.947 11.5,9.5 L11.5,16.5 C11.5,17.053 11.053,17.5 10.5,17.5 C9.947,17.5 9.5,17.053 9.5,16.5 L9.5,9.5 C9.5,8.947 9.947,8.5 10.5,8.5 Z M15.5,8.5 C16.053,8.5 16.5,8.947 16.5,9.5 L16.5,16.5 C16.5,17.053 16.053,17.5 15.5,17.5 C14.947,17.5 14.5,17.053 14.5,16.5 L14.5,9.5 C14.5,8.947 14.947,8.5 15.5,8.5 Z" id="Combined-Shape"></path>
        </g>
    </g>
</svg>