<?xml version="1.0" encoding="UTF-8"?>
<svg width="26px" height="26px" viewBox="0 0 26 26" version="1.1" xmlns="http://www.w3.org/2000/svg" xmlns:xlink="http://www.w3.org/1999/xlink">
    <!-- Generator: Sketch 54.1 (76490) - https://sketchapp.com -->
    <title>roadmap-ico-ready</title>
    <desc>Created with Sketch.</desc>
    <g id="Product-Roadmap-page" stroke="none" stroke-width="1" fill="none" fill-rule="evenodd">
        <g id="Icons-/-Roadmap-Status-/-Completed" fill="#14A860">
            <path d="M13,24 C19.065,24 24,19.065 24,13 C24,6.935 19.065,2 13,2 C6.935,2 2,6.935 2,13 C2,19.065 6.935,24 13,24 Z M13,0 C20.168,0 26,5.832 26,13 C26,20.168 20.168,26 13,26 C5.832,26 0,20.168 0,13 C0,5.832 5.832,0 13,0 Z M18.2129,7.3828 C18.5539,6.9488 19.1819,6.8718 19.6169,7.2128 C20.0519,7.5538 20.1279,8.1828 19.7869,8.6168 L11.7869,18.8178 C11.6199,19.0298 11.3739,19.1658 11.1059,19.1948 C11.0699,19.1978 11.0349,19.1998 10.9999,19.1998 C10.7679,19.1998 10.5399,19.1188 10.3589,18.9688 L5.5599,14.9688 C5.1359,14.6148 5.0779,13.9848 5.4319,13.5598 C5.7849,13.1368 6.4139,13.0778 6.8409,13.4318 L10.8489,16.7728 L18.2129,7.3828 Z" id="Combined-Shape"></path>
        </g>
    </g>
</svg>