<?xml version="1.0" encoding="UTF-8"?>
<svg width="26px" height="26px" viewBox="0 0 26 26" version="1.1" xmlns="http://www.w3.org/2000/svg" xmlns:xlink="http://www.w3.org/1999/xlink">
    <!-- Generator: Sketch 54.1 (76490) - https://sketchapp.com -->
    <title>roadmap-ico-planned</title>
    <desc>Created with Sketch.</desc>
    <g id="Product-Roadmap-page" stroke="none" stroke-width="1" fill="none" fill-rule="evenodd">
        <g id="Icons-/-Roadmap-Status-/-Planned" fill="#F20093">
            <path d="M13,24 C19.065,24 24,19.065 24,13 C24,6.935 19.065,2 13,2 C6.935,2 2,6.935 2,13 C2,19.065 6.935,24 13,24 Z M13,0 C20.168,0 26,5.832 26,13 C26,20.168 20.168,26 13,26 C5.832,26 0,20.168 0,13 C0,5.832 5.832,0 13,0 Z M10.085,16.751 L17.867,8.969 L17.031,8.133 L9.249,15.915 L8.623,17.377 L10.085,16.751 Z M17.738,6.012 L19.988,8.262 C20.379,8.652 20.379,9.285 19.988,9.676 L11.363,18.301 C11.313,18.352 11.249,18.377 11.191,18.415 C11.144,18.446 11.105,18.489 11.05,18.513 L11.034,18.52 C11.033,18.52 11.032,18.521 11.031,18.521 L7.112,20.2 C6.985,20.255 6.852,20.281 6.719,20.281 C6.459,20.281 6.203,20.18 6.012,19.988 C5.723,19.699 5.639,19.263 5.8,18.888 L7.48,14.969 C7.48,14.968 7.481,14.967 7.481,14.966 L7.487,14.95 C7.512,14.892 7.557,14.852 7.591,14.801 C7.627,14.745 7.651,14.685 7.699,14.637 L7.712,14.624 L7.714,14.622 L16.324,6.012 C16.715,5.621 17.348,5.621 17.738,6.012 Z" id="Combined-Shape"></path>
        </g>
    </g>
</svg>