<?xml version="1.0" encoding="UTF-8"?>
<svg width="26px" height="26px" viewBox="0 0 26 26" version="1.1" xmlns="http://www.w3.org/2000/svg" xmlns:xlink="http://www.w3.org/1999/xlink">
    <!-- Generator: Sketch 54.1 (76490) - https://sketchapp.com -->
    <title>roadmap-ico-cancelled</title>
    <desc>Created with Sketch.</desc>
    <g id="Product-Roadmap-page" stroke="none" stroke-width="1" fill="none" fill-rule="evenodd">
        <g id="Icons-/-Roadmap-Status-/-Cancelled" fill="#DE0000">
            <path d="M13,24 C19.065,24 24,19.065 24,13 C24,6.935 19.065,2 13,2 C6.935,2 2,6.935 2,13 C2,19.065 6.935,24 13,24 Z M13,0 C20.168,0 26,5.832 26,13 C26,20.168 20.168,26 13,26 C5.832,26 0,20.168 0,13 C0,5.832 5.832,0 13,0 Z M18.457,7.543 C18.848,7.934 18.848,8.566 18.457,8.957 L14.414,13 L18.457,17.043 C18.848,17.434 18.848,18.066 18.457,18.457 C18.262,18.652 18.006,18.75 17.75,18.75 C17.494,18.75 17.238,18.652 17.043,18.457 L13,14.414 L8.957,18.457 C8.762,18.652 8.506,18.75 8.25,18.75 C7.994,18.75 7.738,18.652 7.543,18.457 C7.152,18.066 7.152,17.434 7.543,17.043 L11.586,13 L7.543,8.957 C7.152,8.566 7.152,7.934 7.543,7.543 C7.934,7.152 8.566,7.152 8.957,7.543 L13,11.586 L17.043,7.543 C17.434,7.152 18.066,7.152 18.457,7.543 Z" id="Combined-Shape"></path>
        </g>
    </g>
</svg>