<?xml version="1.0" encoding="UTF-8"?>
<svg width="189px" height="42px" viewBox="0 0 189 42" version="1.1" xmlns="http://www.w3.org/2000/svg" xmlns:xlink="http://www.w3.org/1999/xlink">
    <!-- Generator: Sketch 53.2 (72643) - https://sketchapp.com -->
    <title>alemba-header-logo</title>
    <desc>Created with Sketch.</desc>
    <defs>
        <path d="M2.094,0 C0.839,0 0.054,1.168 0.681,2.101 L0.681,2.101 L13.392,21 L22.814,6.99 L18.585,0.701 C18.293,0.267 17.755,0 17.172,0 L17.172,0 L2.094,0 Z" id="path-1"></path>
        <linearGradient x1="50.0018028%" y1="100%" x2="50.0018028%" y2="0%" id="linearGradient-3">
            <stop stop-color="#BF2F62" offset="0%"></stop>
            <stop stop-color="#F20093" offset="100%"></stop>
        </linearGradient>
        <path d="M0.814,14.011 L5.045,20.3 C5.336,20.734 5.875,21 6.458,21 L6.458,21 L21.534,21 C22.791,21 23.576,19.832 22.948,18.898 L22.948,18.898 L10.237,0 L0.814,14.011 Z" id="path-4"></path>
        <linearGradient x1="50.0022981%" y1="99.9999986%" x2="50.0022981%" y2="-1.42857143e-06%" id="linearGradient-6">
            <stop stop-color="#2AB5FB" offset="0%"></stop>
            <stop stop-color="#0095DB" offset="100%"></stop>
        </linearGradient>
        <path d="M0.681,18.898 C0.054,19.832 0.839,21 2.094,21 L2.094,21 L17.172,21 C17.755,21 18.293,20.734 18.585,20.3 L18.585,20.3 L22.814,14.011 L13.392,0 L0.681,18.898 Z" id="path-7"></path>
        <linearGradient x1="50.0018028%" y1="99.9999986%" x2="50.0018028%" y2="-1.42857143e-06%" id="linearGradient-9">
            <stop stop-color="#2AB5FB" offset="0%"></stop>
            <stop stop-color="#0095DB" offset="100%"></stop>
        </linearGradient>
        <path d="M6.458,0 C5.875,0 5.336,0.267 5.045,0.701 L5.045,0.701 L0.814,6.99 L10.237,21 L22.948,2.101 C23.576,1.168 22.791,0 21.534,0 L21.534,0 L6.458,0 Z" id="path-10"></path>
        <linearGradient x1="50.0022981%" y1="100%" x2="50.0022981%" y2="0%" id="linearGradient-12">
            <stop stop-color="#BF2F62" offset="0%"></stop>
            <stop stop-color="#F20093" offset="100%"></stop>
        </linearGradient>
        <polygon id="path-13" points="0 0.4624 18.4847 0.4624 18.4847 20 0 20"></polygon>
        <polygon id="path-15" points="0 42 188.169 42 188.169 0 0 0"></polygon>
    </defs>
    <g id="Symbols" stroke="none" stroke-width="1" fill="none" fill-rule="evenodd">
        <g id="Website-Parts-/-Alemba-Desktop-Header" transform="translate(-50.000000, -30.000000)">
            <g id="alemba-header-logo" transform="translate(50.000000, 30.000000)">
                <g id="Group-3" transform="translate(143.000000, 0.000000)">
                    <mask id="mask-2" fill="white">
                        <use xlink:href="#path-1"></use>
                    </mask>
                    <g id="Clip-2"></g>
                    <path d="M2.094,0 C0.839,0 0.054,1.168 0.681,2.101 L0.681,2.101 L13.392,21 L22.814,6.99 L18.585,0.701 C18.293,0.267 17.755,0 17.172,0 L17.172,0 L2.094,0 Z" id="Fill-1" fill="url(#linearGradient-3)" mask="url(#mask-2)"></path>
                </g>
                <g id="Group-6" transform="translate(165.000000, 21.000000)">
                    <mask id="mask-5" fill="white">
                        <use xlink:href="#path-4"></use>
                    </mask>
                    <g id="Clip-5"></g>
                    <path d="M0.814,14.011 L5.045,20.3 C5.336,20.734 5.875,21 6.458,21 L6.458,21 L21.534,21 C22.791,21 23.576,19.832 22.948,18.898 L22.948,18.898 L10.237,0 L0.814,14.011 Z" id="Fill-4" fill="url(#linearGradient-6)" mask="url(#mask-5)"></path>
                </g>
                <g id="Group-9" transform="translate(143.000000, 21.000000)">
                    <mask id="mask-8" fill="white">
                        <use xlink:href="#path-7"></use>
                    </mask>
                    <g id="Clip-8"></g>
                    <path d="M0.681,18.898 C0.054,19.832 0.839,21 2.094,21 L2.094,21 L17.172,21 C17.755,21 18.293,20.734 18.585,20.3 L18.585,20.3 L22.814,14.011 L13.392,0 L0.681,18.898 Z" id="Fill-7" fill="url(#linearGradient-9)" mask="url(#mask-8)"></path>
                </g>
                <g id="Group-12" transform="translate(165.000000, 0.000000)">
                    <mask id="mask-11" fill="white">
                        <use xlink:href="#path-10"></use>
                    </mask>
                    <g id="Clip-11"></g>
                    <path d="M6.458,0 C5.875,0 5.336,0.267 5.045,0.701 L5.045,0.701 L0.814,6.99 L10.237,21 L22.948,2.101 C23.576,1.168 22.791,0 21.534,0 L21.534,0 L6.458,0 Z" id="Fill-10" fill="url(#linearGradient-12)" mask="url(#mask-11)"></path>
                </g>
                <g id="Group-24">
                    <polygon id="Fill-13" fill="#59CEFC" points="156.4024 20.9844 156.3924 21.0004 165.8144 35.0104 175.2374 21.0004 175.2274 20.9844"></polygon>
                    <g id="Group-17" transform="translate(0.000000, 22.000000)">
                        <mask id="mask-14" fill="white">
                            <use xlink:href="#path-13"></use>
                        </mask>
                        <g id="Clip-16"></g>
                        <path d="M16.8467,10.2314 C16.8467,5.4934 13.8047,2.0424 9.3597,2.0424 C4.9137,2.0424 1.8127,5.4934 1.8127,10.2314 C1.8127,14.9694 4.9137,18.4204 9.3597,18.4204 C13.8047,18.4204 16.8467,14.9694 16.8467,10.2314 M-0.0003,10.2314 C-0.0003,4.7324 3.9197,0.4624 9.3597,0.4624 C12.6357,0.4624 15.1507,2.0424 16.7297,4.9674 L16.7297,0.9304 L18.4847,0.9304 L18.4847,19.5324 L16.7297,19.5324 L16.7297,15.4964 C15.1507,18.4204 12.6357,20.0004 9.3597,20.0004 C3.9197,20.0004 -0.0003,15.7304 -0.0003,10.2314" id="Fill-15" fill="#505050" mask="url(#mask-14)"></path>
                    </g>
                    <mask id="mask-16" fill="white">
                        <use xlink:href="#path-15"></use>
                    </mask>
                    <g id="Clip-19"></g>
                    <polygon id="Fill-18" fill="#505050" mask="url(#mask-16)" points="25.797 41.532 27.551 41.532 27.551 0 25.797 0"></polygon>
                    <path d="M50.0142,31.062 C49.5452,27.083 47.2642,23.983 42.6442,23.983 C38.5492,23.983 35.6242,26.967 35.1572,31.062 L50.0142,31.062 Z M43.0532,40.479 C46.3882,40.479 48.2602,39.31 49.7212,37.496 L50.8912,38.55 C49.1952,40.714 46.6212,42 43.0532,42 C37.3202,42 33.2852,37.73 33.2852,32.231 C33.2852,26.732 37.4962,22.462 42.6442,22.462 C48.1422,22.462 51.7102,26.616 51.8272,32.583 L35.0982,32.583 C35.2722,37.496 38.6662,40.479 43.0532,40.479 L43.0532,40.479 Z" id="Fill-20" fill="#505050" mask="url(#mask-16)"></path>
                    <path d="M57.4434,22.9307 L59.1984,22.9307 L59.1984,25.7967 C60.1344,23.8077 62.2974,22.4627 64.9894,22.4627 C67.5054,22.4627 69.8444,23.6907 71.0134,26.2057 C72.3594,23.7497 74.4654,22.4627 77.4494,22.4627 C81.0164,22.4627 84.0004,24.8027 84.0004,29.1897 L84.0004,41.5327 L82.2454,41.5327 L82.2454,29.4827 C82.2454,25.8557 80.3144,24.0417 77.4494,24.0417 C73.8224,24.0417 71.5984,26.2647 71.5984,30.0677 L71.5984,41.5327 L69.8444,41.5327 L69.8444,29.5407 C69.8444,25.9137 68.0314,24.0417 64.9894,24.0417 C61.4224,24.0417 59.1984,26.2647 59.1984,30.2427 L59.1984,41.5327 L57.4434,41.5327 L57.4434,22.9307 Z" id="Fill-21" fill="#505050" mask="url(#mask-16)"></path>
                    <path d="M107.9268,32.2314 C107.9268,27.4934 104.7678,24.0424 100.2048,24.0424 C95.6418,24.0424 92.4828,27.4934 92.4828,32.2314 C92.4828,36.9694 95.6418,40.4204 100.2048,40.4204 C104.7678,40.4204 107.9268,36.9694 107.9268,32.2314 M92.5998,37.4964 L92.5998,41.5324 L90.8458,41.5324 L90.8458,0.0004 L92.5998,0.0004 L92.5998,26.9674 C94.1798,24.0424 96.8698,22.4624 100.2048,22.4624 C105.7028,22.4624 109.7398,26.7324 109.7398,32.2314 C109.7398,37.7304 105.7028,42.0004 100.2048,42.0004 C96.8698,42.0004 94.1798,40.4204 92.5998,37.4964" id="Fill-22" fill="#505050" mask="url(#mask-16)"></path>
                    <path d="M130.5655,32.2314 C130.5655,27.4934 127.5225,24.0424 123.0785,24.0424 C118.6315,24.0424 115.5315,27.4934 115.5315,32.2314 C115.5315,36.9694 118.6315,40.4204 123.0785,40.4204 C127.5225,40.4204 130.5655,36.9694 130.5655,32.2314 M113.7185,32.2314 C113.7185,26.7324 117.6365,22.4624 123.0785,22.4624 C126.3525,22.4624 128.8685,24.0424 130.4485,26.9674 L130.4485,22.9304 L132.2025,22.9304 L132.2025,41.5324 L130.4485,41.5324 L130.4485,37.4964 C128.8685,40.4204 126.3525,42.0004 123.0785,42.0004 C117.6365,42.0004 113.7185,37.7304 113.7185,32.2314" id="Fill-23" fill="#505050" mask="url(#mask-16)"></path>
                </g>
            </g>
        </g>
    </g>
</svg>