<?xml version="1.0" encoding="utf-8"?>
<!-- Generator: Adobe Illustrator 26.3.1, SVG Export Plug-In . SVG Version: 6.00 Build 0)  -->
<svg version="1.1" id="Layer_1" xmlns="http://www.w3.org/2000/svg" xmlns:xlink="http://www.w3.org/1999/xlink" x="0px" y="0px"
	 viewBox="0 0 526.6 117.6" style="enable-background:new 0 0 526.6 117.6;" xml:space="preserve">
<style type="text/css">
	.st0{fill:#FFFFFF;}
	.st1{fill:url(#SVGID_1_);}
	.st2{fill:url(#SVGID_00000034780069900357033840000001193059743471174041_);}
	.st3{fill:url(#SVGID_00000121252150299033195830000007053128683846719893_);}
	.st4{fill:url(#SVGID_00000049191085048230433630000007652052612748000386_);}
</style>
<g>
	<path class="st0" d="M0,90.2c0-15.4,11-27.3,26.2-27.3c9.2,0,16.2,4.4,20.6,12.6V64.2h4.9v52.1h-4.9v-11.3
		c-4.4,8.2-11.5,12.6-20.6,12.6C11,117.5,0,105.6,0,90.2z M47.1,90.2c0-13.3-8.5-22.9-21-22.9S5.1,76.9,5.1,90.2s8.7,22.9,21.1,22.9
		S47.1,103.5,47.1,90.2z"/>
	<path class="st0" d="M72.2,0h4.9v116.2h-4.9V0z"/>
	<path class="st0" d="M120.5,113.3c9.3,0,14.6-3.3,18.7-8.3l3.3,2.9c-4.7,6.1-11.9,9.7-21.9,9.7c-16,0-27.3-11.9-27.3-27.3
		c0-15.4,11.8-27.3,26.2-27.3c15.4,0,25.4,11.6,25.7,28.3H98.2C98.7,104.9,108.2,113.3,120.5,113.3z M140,86.9
		c-1.3-11.1-7.7-19.8-20.6-19.8c-11.5,0-19.6,8.3-21,19.8H140z"/>
	<path class="st0" d="M160.7,64.2h4.9v8c2.6-5.6,8.7-9.3,16.2-9.3c7,0,13.6,3.4,16.9,10.5c3.8-6.9,9.7-10.5,18-10.5
		c10,0,18.3,6.5,18.3,18.8v34.5h-4.9V82.5c0-10.2-5.4-15.2-13.4-15.2c-10.1,0-16.4,6.2-16.4,16.9v32.1h-4.9V82.7
		c0-10.1-5.1-15.4-13.6-15.4c-10,0-16.2,6.2-16.2,17.4v31.6h-4.9V64.2z"/>
	<path class="st0" d="M259.1,104.9v11.3h-4.9V0h4.9v75.5c4.4-8.2,11.9-12.6,21.3-12.6c15.4,0,26.7,11.9,26.7,27.3
		c0,15.4-11.3,27.3-26.7,27.3C271.1,117.5,263.6,113.1,259.1,104.9z M302,90.2c0-13.3-8.8-22.9-21.6-22.9s-21.6,9.7-21.6,22.9
		s8.8,22.9,21.6,22.9S302,103.5,302,90.2z"/>
	<path class="st0" d="M318.2,90.2c0-15.4,11-27.3,26.2-27.3c9.2,0,16.2,4.4,20.6,12.6V64.2h4.9v52.1H365v-11.3
		c-4.4,8.2-11.5,12.6-20.6,12.6C329.2,117.5,318.2,105.6,318.2,90.2z M365.4,90.2c0-13.3-8.5-22.9-21-22.9
		c-12.4,0-21.1,9.7-21.1,22.9s8.7,22.9,21.1,22.9C356.9,113.1,365.4,103.5,365.4,90.2z"/>
</g>
<linearGradient id="SVGID_1_" gradientUnits="userSpaceOnUse" x1="-244.5852" y1="821.457" x2="-185.9052" y2="821.457" gradientTransform="matrix(0 -1 1 0 -388.5792 -185.7083)">
	<stop  offset="0" style="stop-color:#FFFFFF;stop-opacity:0.5"/>
	<stop  offset="1" style="stop-color:#FFFFFF"/>
</linearGradient>
<path class="st1" d="M448.3,0.2h-42.1c-3.5,0-5.7,3.3-3.9,5.9l35.5,52.8l26.3-39.1L452.3,2.2C451.5,0.9,450,0.2,448.3,0.2z"/>
<linearGradient id="SVGID_00000113353276195475367550000001586823524640423082_" gradientUnits="userSpaceOnUse" x1="-303.2652" y1="883.9215" x2="-244.5852" y2="883.9215" gradientTransform="matrix(0 -1 1 0 -388.5792 -185.7083)">
	<stop  offset="0" style="stop-color:#FFFFFF"/>
	<stop  offset="1" style="stop-color:#FFFFFF;stop-opacity:0.3"/>
</linearGradient>
<path style="fill:url(#SVGID_00000113353276195475367550000001586823524640423082_);" d="M464.1,98l11.8,17.6c0.8,1.2,2.3,2,3.9,2
	H522c3.5,0,5.7-3.3,3.9-5.9l-35.5-52.8L464.1,98z"/>
<linearGradient id="SVGID_00000111157881981917941360000006103204106265137594_" gradientUnits="userSpaceOnUse" x1="-303.2652" y1="821.457" x2="-244.5852" y2="821.457" gradientTransform="matrix(0 -1 1 0 -388.5792 -185.7083)">
	<stop  offset="0" style="stop-color:#FFFFFF"/>
	<stop  offset="1" style="stop-color:#FFFFFF;stop-opacity:0.3"/>
</linearGradient>
<path style="fill:url(#SVGID_00000111157881981917941360000006103204106265137594_);" d="M406.2,117.6h42.1c1.6,0,3.1-0.7,3.9-2
	L464.1,98l-26.3-39.1l-35.5,52.8C400.5,114.3,402.7,117.6,406.2,117.6z"/>
<linearGradient id="SVGID_00000137091552860751492870000010987704857584848022_" gradientUnits="userSpaceOnUse" x1="-244.5852" y1="883.9215" x2="-185.9052" y2="883.9215" gradientTransform="matrix(0 -1 1 0 -388.5792 -185.7083)">
	<stop  offset="0" style="stop-color:#FFFFFF;stop-opacity:0.5"/>
	<stop  offset="1" style="stop-color:#FFFFFF"/>
</linearGradient>
<path style="fill:url(#SVGID_00000137091552860751492870000010987704857584848022_);" d="M522,0.2h-42.1c-1.6,0-3.1,0.7-3.9,2
	l-11.8,17.6l26.3,39.1L526,6.1C527.7,3.5,525.5,0.2,522,0.2z"/>
<polygon class="st0" points="437.8,58.8 437.8,58.9 464.1,98 490.4,58.9 490.4,58.8 "/>
</svg>
