<?xml version="1.0" encoding="UTF-8"?>
<svg width="84px" height="80px" viewBox="0 0 84 80" version="1.1" xmlns="http://www.w3.org/2000/svg" xmlns:xlink="http://www.w3.org/1999/xlink">
    <!-- Generator: Sketch 54.1 (76490) - https://sketchapp.com -->
    <title>alemba-logomark-white</title>
    <desc>Created with Sketch.</desc>
    <defs>
        <linearGradient x1="49.9996616%" y1="100%" x2="49.9996616%" y2="0.000929557562%" id="linearGradient-1">
            <stop stop-color="#FFFFFF" stop-opacity="0.5" offset="0%"></stop>
            <stop stop-color="#FFFFFF" offset="100%"></stop>
        </linearGradient>
        <linearGradient x1="49.9347949%" y1="99.9292649%" x2="49.9347949%" y2="1.08901861e-13%" id="linearGradient-2">
            <stop stop-color="#FFFFFF" offset="0%"></stop>
            <stop stop-color="#FFFFFF" stop-opacity="0.3" offset="100%"></stop>
        </linearGradient>
        <linearGradient x1="50%" y1="0%" x2="50%" y2="100%" id="linearGradient-3">
            <stop stop-color="#FFFFFF" stop-opacity="0.3" offset="0%"></stop>
            <stop stop-color="#FFFFFF" offset="100%"></stop>
        </linearGradient>
        <linearGradient x1="50%" y1="0%" x2="50%" y2="100%" id="linearGradient-4">
            <stop stop-color="#FFFFFF" offset="0%"></stop>
            <stop stop-color="#FFFFFF" stop-opacity="0.5" offset="100%"></stop>
        </linearGradient>
    </defs>
    <g id="Why-Alemba?" stroke="none" stroke-width="1" fill="none" fill-rule="evenodd">
        <g id="Desktop-HD---Why-Alemba" transform="translate(-678.000000, -178.000000)" fill-rule="nonzero">
            <g id="alemba-logomark-white" transform="translate(678.000000, 178.000000)">
                <path d="M31.7196221,0.425895827 L3.10378106,0.425895827 C0.719693663,0.425895827 -0.77460613,2.60081651 0.420833704,4.34208736 L24.5401908,39.5744681 L42.4242424,13.4554053 L34.3957772,1.76020299 C33.7822424,0.909271441 32.7810813,0.41010142 31.7196221,0.425895827 Z" id="Path" fill="url(#linearGradient-1)"></path>
                <path d="M41.5757576,66.526362 L49.5936986,78.2400678 C50.2161816,79.1004328 51.2332376,79.6002279 52.3070458,79.5734435 L80.8853754,79.5734435 C83.2663376,79.5734435 84.7586786,77.4000411 83.5987227,75.6599858 L59.4363657,40.4255319 L41.5757576,66.526362 Z" id="Path" fill="url(#linearGradient-2)"></path>
                <path d="M3.10378106,79.5741042 L31.7196221,79.5741042 C32.7810813,79.5898986 33.7822424,79.0907286 34.3957772,78.239797 L42.4242424,66.5445947 L24.5401908,40.4255319 L0.420833704,75.6579126 C-0.77460613,77.3991835 0.719693663,79.5741042 3.10378106,79.5741042 Z" id="Path" fill="url(#linearGradient-3)"></path>
                <path d="M80.8967158,0.426557149 L52.2854555,0.426557149 C51.21041,0.399754496 50.192182,0.899890328 49.5689817,1.76084178 L41.5757576,13.4558465 L59.4569463,39.5744681 L83.5792337,4.34268253 C84.7744821,2.60144109 83.2804215,0.426557149 80.8967158,0.426557149 Z" id="Path" fill="url(#linearGradient-4)"></path>
                <polygon id="Path" fill="#FFFFFF" points="24.6263585 40.4255319 24.6060606 40.4524602 42.4276254 66.8085106 60.2424242 40.4524602 60.2221263 40.4255319"></polygon>
            </g>
        </g>
    </g>
</svg>