<?xml version="1.0" encoding="utf-8"?>
<!-- Generator: Adobe Illustrator 23.0.2, SVG Export Plug-In . SVG Version: 6.00 Build 0)  -->
<svg version="1.1" id="Layer_1" xmlns="http://www.w3.org/2000/svg" xmlns:xlink="http://www.w3.org/1999/xlink" x="0px" y="0px"
	 viewBox="0 0 300 85.7" style="enable-background:new 0 0 300 85.7;" xml:space="preserve">
<style type="text/css">
	.st0{fill:#505050;}
	.st1{fill:url(#SVGID_1_);}
	.st2{fill:url(#SVGID_2_);}
	.st3{fill:url(#SVGID_3_);}
	.st4{fill:url(#SVGID_4_);}
	.st5{fill:#59CEFC;}
</style>
<g>
	<g>
		<path class="st0" d="M0.9,83.1c1,0.8,2.3,1.1,3.3,1.1c1.3,0,2.2-0.6,2.2-1.8c0-1.4-1.3-1.6-2.7-2c-1.5-0.4-3-1.1-3-3
			c0-1.9,1.4-3,3.5-3c1,0,2.2,0.3,3.1,0.8v1.5c-1-0.7-2.2-1-3.1-1c-1.2,0-2.1,0.5-2.1,1.6c0,1.3,1.3,1.6,2.6,1.9
			c1.6,0.4,3.1,1.1,3.1,3.1c0,2-1.5,3.1-3.6,3.1c-1,0-2.3-0.3-3.3-0.9V83.1z"/>
		<path class="st0" d="M14,74.5h6.3v1.3h-4.8v3.3h4.2v1.2h-4.2v3.7h5v1.3H14V74.5z"/>
		<path class="st0" d="M26.4,74.5h2.9c1.1,0,2.1,0,3,0.5c0.9,0.5,1.5,1.3,1.5,2.5c0,1.2-0.6,2-1.4,2.5c-0.4,0.2-0.8,0.4-1.2,0.4
			l3.5,4.8h-1.7l-3.3-4.6h-1.8v4.6h-1.4V74.5z M29.6,79.6c1,0,1.6-0.1,2.1-0.5c0.4-0.3,0.6-0.7,0.6-1.3c0-0.7-0.3-1.2-0.9-1.5
			c-0.6-0.3-1.3-0.4-2.3-0.4h-1.4v3.7H29.6z"/>
		<path class="st0" d="M38.9,74.5h1.5l2.3,6.1c0.4,0.9,0.7,1.9,1.1,2.9h0c0.4-1,0.7-1.9,1.1-2.9l2.3-6h1.5l-4.2,10.8H43L38.9,74.5z"
			/>
		<path class="st0" d="M54.2,74.5h1.4v10.8h-1.4V74.5z"/>
		<path class="st0" d="M67.5,74.4c1.1,0,2.2,0.3,3.1,0.8v1.6c-0.8-0.6-1.9-1-3.1-1c-2.5,0-4.2,1.9-4.2,4.3c0,2.4,1.7,4.3,4.3,4.3
			c1.2,0,2.3-0.4,3.1-1.1v1.6c-0.9,0.6-2,0.8-3.2,0.8c-3.3,0-5.7-2.4-5.7-5.6C61.8,76.9,64.1,74.4,67.5,74.4z"/>
		<path class="st0" d="M76.9,74.5h6.3v1.3h-4.8v3.3h4.2v1.2h-4.2v3.7h5v1.3h-6.4V74.5z"/>
		<path class="st0" d="M100.6,79.1c-0.5-0.7-1-1.4-1.5-2.1l0,0c0,0.6,0,1.5,0,2.3v6.1h-1.4V74.5h1.4l3.8,5.5l3.8-5.5h1.4v10.8h-1.4
			v-6.1c0-0.9,0-1.7,0-2.3l0,0c-0.5,0.7-1,1.4-1.5,2.1l-2.4,3.4L100.6,79.1z"/>
		<path class="st0" d="M118.2,74.5h1.4l4.5,10.8h-1.5l-1.2-3h-4.9l-1.2,3h-1.5L118.2,74.5z M116.9,81.1h3.9l-0.9-2.2
			c-0.3-0.9-0.7-1.8-1-2.7h0c-0.3,0.9-0.7,1.8-1.1,2.7L116.9,81.1z"/>
		<path class="st0" d="M129.6,85.4V74.5h1.3l4.5,6c0.6,0.8,1.3,1.7,1.9,2.5l0,0c0-0.9,0-2,0-3.1v-5.4h1.4v10.8h-1.3l-4.5-6
			c-0.6-0.8-1.3-1.7-1.9-2.5l0,0c0,0.9,0,2,0,3.1v5.4H129.6z"/>
		<path class="st0" d="M148.8,74.5h1.4l4.5,10.8h-1.5l-1.2-3H147l-1.2,3h-1.5L148.8,74.5z M147.5,81.1h3.9l-0.9-2.2
			c-0.3-0.9-0.7-1.8-1-2.7h0c-0.3,0.9-0.7,1.8-1.1,2.7L147.5,81.1z"/>
		<path class="st0" d="M164.8,74.4c1.4,0,2.5,0.4,3.3,0.9v1.6c-0.9-0.7-2.1-1.2-3.4-1.2c-2.5,0-4.3,1.9-4.3,4.3
			c0,2.3,1.6,4.3,4.3,4.3c0.8,0,1.6-0.2,2.2-0.5v-2.5h-2.4V80h3.8v4.5c-1,0.7-2.4,1.1-3.8,1.1c-3.2,0-5.6-2.3-5.6-5.6
			C159.1,76.8,161.5,74.4,164.8,74.4z"/>
		<path class="st0" d="M175.1,74.5h6.3v1.3h-4.8v3.3h4.2v1.2h-4.2v3.7h5v1.3h-6.4V74.5z"/>
		<path class="st0" d="M187.5,74.5h2.9c1.1,0,2.1,0,3,0.5c0.9,0.5,1.5,1.3,1.5,2.5c0,1.2-0.6,2-1.4,2.5c-0.4,0.2-0.8,0.4-1.2,0.4
			l3.5,4.8H194l-3.3-4.6h-1.8v4.6h-1.4V74.5z M190.7,79.6c1,0,1.6-0.1,2.1-0.5c0.4-0.3,0.6-0.7,0.6-1.3c0-0.7-0.3-1.2-0.9-1.5
			c-0.6-0.3-1.3-0.4-2.3-0.4h-1.4v3.7H190.7z"/>
	</g>
</g>
<g>
	
		<linearGradient id="SVGID_1_" gradientUnits="userSpaceOnUse" x1="-356.1919" y1="686.9402" x2="-313.3523" y2="686.9402" gradientTransform="matrix(0 -1 1 0 -455.3438 -313.3125)">
		<stop  offset="0" style="stop-color:#BF3062"/>
		<stop  offset="1" style="stop-color:#F20093"/>
	</linearGradient>
	<path class="st1" d="M242.9,0h-30.8c-2.6,0-4.2,2.4-2.9,4.3l25.9,38.6l19.2-28.6l-8.6-12.8C245.2,0.6,244.1,0,242.9,0z"/>
	
		<linearGradient id="SVGID_2_" gradientUnits="userSpaceOnUse" x1="-399.0314" y1="732.5426" x2="-356.1919" y2="732.5426" gradientTransform="matrix(0 -1 1 0 -455.3438 -313.3125)">
		<stop  offset="0" style="stop-color:#2AB5FB"/>
		<stop  offset="1" style="stop-color:#0096DC"/>
	</linearGradient>
	<path class="st2" d="M254.4,71.5l8.6,12.8c0.6,0.9,1.7,1.4,2.9,1.4h30.8c2.6,0,4.2-2.4,2.9-4.3l-25.9-38.6L254.4,71.5z"/>
	
		<linearGradient id="SVGID_3_" gradientUnits="userSpaceOnUse" x1="-399.0314" y1="686.9402" x2="-356.1919" y2="686.9402" gradientTransform="matrix(0 -1 1 0 -455.3438 -313.3125)">
		<stop  offset="0" style="stop-color:#2AB5FB"/>
		<stop  offset="1" style="stop-color:#0096DC"/>
	</linearGradient>
	<path class="st3" d="M212.1,85.7h30.8c1.2,0,2.3-0.5,2.9-1.4l8.6-12.8l-19.2-28.6l-25.9,38.6C208,83.3,209.6,85.7,212.1,85.7z"/>
	
		<linearGradient id="SVGID_4_" gradientUnits="userSpaceOnUse" x1="-356.1919" y1="732.5426" x2="-313.3523" y2="732.5426" gradientTransform="matrix(0 -1 1 0 -455.3438 -313.3125)">
		<stop  offset="0" style="stop-color:#BF3062"/>
		<stop  offset="1" style="stop-color:#F20093"/>
	</linearGradient>
	<path class="st4" d="M296.7,0h-30.8c-1.2,0-2.3,0.5-2.9,1.4l-8.6,12.8l19.2,28.6l25.9-38.6C300.8,2.4,299.2,0,296.7,0z"/>
	<polygon class="st5" points="235.2,42.8 235.2,42.9 254.4,71.5 273.6,42.9 273.6,42.8 	"/>
</g>
<g>
	<g>
		<path class="st0" d="M0,46.1C0,38,5.8,31.7,13.8,31.7c4.8,0,8.5,2.3,10.9,6.6v-5.9h2.6v27.4h-2.6v-5.9c-2.3,4.3-6,6.6-10.9,6.6
			C5.8,60.5,0,54.2,0,46.1z M24.8,46.1c0-7-4.5-12.1-11-12.1S2.7,39.1,2.7,46.1s4.6,12.1,11.1,12.1S24.8,53.1,24.8,46.1z"/>
		<path class="st0" d="M38,0h2.6v59.8H38V0z"/>
		<path class="st0" d="M63.4,58.2c4.9,0,7.7-1.7,9.8-4.4l1.7,1.6c-2.5,3.2-6.3,5.1-11.5,5.1C55,60.5,49,54.2,49,46.1
			c0-8.1,6.2-14.4,13.8-14.4c8.1,0,13.4,6.1,13.5,14.9H51.7C52,53.8,57,58.2,63.4,58.2z M73.7,44.4c-0.7-5.9-4.1-10.4-10.9-10.4
			c-6,0-10.3,4.4-11,10.4H73.7z"/>
		<path class="st0" d="M84.6,32.4h2.6v4.2c1.4-2.9,4.6-4.9,8.5-4.9c3.7,0,7.2,1.8,8.9,5.5c2-3.6,5.1-5.5,9.5-5.5
			c5.3,0,9.7,3.4,9.7,9.9v18.2h-2.6V42c0-5.3-2.8-8-7.1-8c-5.3,0-8.6,3.3-8.6,8.9v16.9h-2.6V42.1c0-5.3-2.7-8.1-7.2-8.1
			c-5.3,0-8.5,3.3-8.5,9.1v16.6h-2.6V32.4z"/>
		<path class="st0" d="M136.4,53.8v5.9h-2.6V0h2.6v38.3c2.3-4.3,6.3-6.6,11.2-6.6c8.1,0,14.1,6.3,14.1,14.4
			c0,8.1-5.9,14.4-14.1,14.4C142.7,60.5,138.8,58.1,136.4,53.8z M159,46.1c0-7-4.7-12.1-11.4-12.1s-11.4,5.1-11.4,12.1
			s4.7,12.1,11.4,12.1S159,53.1,159,46.1z"/>
		<path class="st0" d="M167.6,46.1c0-8.1,5.8-14.4,13.8-14.4c4.8,0,8.5,2.3,10.9,6.6v-5.9h2.6v27.4h-2.6v-5.9
			c-2.3,4.3-6,6.6-10.9,6.6C173.3,60.5,167.6,54.2,167.6,46.1z M192.4,46.1c0-7-4.5-12.1-11-12.1c-6.6,0-11.1,5.1-11.1,12.1
			s4.6,12.1,11.1,12.1C187.9,58.1,192.4,53.1,192.4,46.1z"/>
	</g>
</g>
</svg>
