<?xml version="1.0" encoding="utf-8"?>
<!-- Generator: Adobe Illustrator 27.8.0, SVG Export Plug-In . SVG Version: 6.00 Build 0)  -->
<svg version="1.1" id="Layer_1" xmlns="http://www.w3.org/2000/svg" xmlns:xlink="http://www.w3.org/1999/xlink" x="0px" y="0px"
	 viewBox="0 0 189 42" style="enable-background:new 0 0 189 42;" xml:space="preserve">
<style type="text/css">
	.st0{filter:url(#Adobe_OpacityMaskFilter);}
	.st1{fill-rule:evenodd;clip-rule:evenodd;fill:#FFFFFF;}
	
		.st2{mask:url(#mask-2_00000096745522778693741760000002486521086697832603_);fill-rule:evenodd;clip-rule:evenodd;fill:url(#Fill-1_00000001624780297250199270000007940624383530376615_);}
	.st3{filter:url(#Adobe_OpacityMaskFilter_00000134226949294137774810000002778070543830751365_);}
	
		.st4{mask:url(#mask-5_00000104675482813359682070000008257736965207120817_);fill-rule:evenodd;clip-rule:evenodd;fill:url(#Fill-4_00000067958396889700478110000008945234673283811252_);}
	.st5{filter:url(#Adobe_OpacityMaskFilter_00000105409958989618815270000008521709043002567081_);}
	
		.st6{mask:url(#mask-8_00000085966699680286660990000007998599559636794801_);fill-rule:evenodd;clip-rule:evenodd;fill:url(#Fill-7_00000127756040223756913410000008870033469278571665_);}
	.st7{filter:url(#Adobe_OpacityMaskFilter_00000121263152667089187960000000457503355863674246_);}
	
		.st8{mask:url(#mask-11_00000005231910521838597040000016740719213245464714_);fill-rule:evenodd;clip-rule:evenodd;fill:url(#Fill-10_00000101095697502282338790000009915980651356675730_);}
	.st9{fill-rule:evenodd;clip-rule:evenodd;fill:#59CEFC;}
	.st10{filter:url(#Adobe_OpacityMaskFilter_00000141423896164530019560000009158098929052822913_);}
	.st11{mask:url(#mask-14_00000083052950482079524980000015619310623412580243_);fill-rule:evenodd;clip-rule:evenodd;fill:#FFFFFF;}
	.st12{filter:url(#Adobe_OpacityMaskFilter_00000114033621190401930140000016666553963133713854_);}
	.st13{mask:url(#mask-16_00000113348988322904448560000015575413351590467251_);fill-rule:evenodd;clip-rule:evenodd;fill:#FFFFFF;}
	.st14{filter:url(#Adobe_OpacityMaskFilter_00000046312298835556298870000012695972168555788720_);}
	.st15{mask:url(#mask-16_00000105384458445052853960000012783618880971599773_);fill-rule:evenodd;clip-rule:evenodd;fill:#FFFFFF;}
	.st16{filter:url(#Adobe_OpacityMaskFilter_00000074432172302760804860000000881020291960289727_);}
	.st17{mask:url(#mask-16_00000032615950862027655010000009754104418410175617_);fill-rule:evenodd;clip-rule:evenodd;fill:#FFFFFF;}
	.st18{filter:url(#Adobe_OpacityMaskFilter_00000107564060941622967250000016599873031819847342_);}
	.st19{mask:url(#mask-16_00000044170297335117904670000007474466158640924035_);fill-rule:evenodd;clip-rule:evenodd;fill:#FFFFFF;}
	.st20{filter:url(#Adobe_OpacityMaskFilter_00000088830792122584817350000014840268403737462463_);}
	.st21{mask:url(#mask-16_00000133491290801277040010000004889267508038629814_);fill-rule:evenodd;clip-rule:evenodd;fill:#FFFFFF;}
</style>
<g id="Symbols">
	<g id="Website-Parts-_x2F_-Alemba-Desktop-Header" transform="translate(-50.000000, -30.000000)">
		<g id="alemba-header-logo" transform="translate(50.000000, 30.000000)">
			<g id="Group-3" transform="translate(143.000000, 0.000000)">
				<g id="Clip-2">
				</g>
				<defs>
					<filter id="Adobe_OpacityMaskFilter" filterUnits="userSpaceOnUse" x="0.5" y="0" width="22.4" height="21">
						<feColorMatrix  type="matrix" values="1 0 0 0 0  0 1 0 0 0  0 0 1 0 0  0 0 0 1 0"/>
					</filter>
				</defs>
				
					<mask maskUnits="userSpaceOnUse" x="0.5" y="0" width="22.4" height="21" id="mask-2_00000096745522778693741760000002486521086697832603_">
					<g class="st0">
						<path id="path-1_00000114793837898976507550000005045418251551850913_" class="st1" d="M2.1,0c-1.3,0-2,1.2-1.4,2.1l0,0
							L13.4,21l9.4-14l-4.2-6.3C18.3,0.3,17.8,0,17.2,0l0,0H2.1z"/>
					</g>
				</mask>
				
					<linearGradient id="Fill-1_00000052823876022557713810000002492594138940372659_" gradientUnits="userSpaceOnUse" x1="-1947.9493" y1="787.3757" x2="-1947.9493" y2="788.3757" gradientTransform="matrix(22.3535 0 0 -21 43555.0781 16555.8906)">
					<stop  offset="0" style="stop-color:#BF2F62"/>
					<stop  offset="1" style="stop-color:#F20093"/>
				</linearGradient>
				
					<path id="Fill-1" style="mask:url(#mask-2_00000096745522778693741760000002486521086697832603_);fill-rule:evenodd;clip-rule:evenodd;fill:url(#Fill-1_00000052823876022557713810000002492594138940372659_);" d="
					M2.1,0c-1.3,0-2,1.2-1.4,2.1l0,0L13.4,21l9.4-14l-4.2-6.3C18.3,0.3,17.8,0,17.2,0l0,0H2.1z"/>
			</g>
			<g id="Group-6" transform="translate(165.000000, 21.000000)">
				<g id="Clip-5">
				</g>
				<defs>
					
						<filter id="Adobe_OpacityMaskFilter_00000083801173553012064630000000357522475717470362_" filterUnits="userSpaceOnUse" x="0.8" y="0" width="22.4" height="21">
						<feColorMatrix  type="matrix" values="1 0 0 0 0  0 1 0 0 0  0 0 1 0 0  0 0 0 1 0"/>
					</filter>
				</defs>
				
					<mask maskUnits="userSpaceOnUse" x="0.8" y="0" width="22.4" height="21" id="mask-5_00000104675482813359682070000008257736965207120817_">
					<g style="filter:url(#Adobe_OpacityMaskFilter_00000083801173553012064630000000357522475717470362_);">
						<path id="path-4_00000105410875474620427660000012120044355845393563_" class="st1" d="M0.8,14L5,20.3C5.3,20.7,5.9,21,6.5,21
							l0,0h15.1c1.3,0,2-1.2,1.4-2.1l0,0L10.2,0L0.8,14z"/>
					</g>
				</mask>
				
					<linearGradient id="Fill-4_00000176731440585130852530000009895646168652872368_" gradientUnits="userSpaceOnUse" x1="-1969.9552" y1="766.3757" x2="-1969.9552" y2="767.3757" gradientTransform="matrix(22.355 0 0 -21 44050.3672 16114.8896)">
					<stop  offset="0" style="stop-color:#2AB5FB"/>
					<stop  offset="1" style="stop-color:#0095DB"/>
				</linearGradient>
				
					<path id="Fill-4" style="mask:url(#mask-5_00000104675482813359682070000008257736965207120817_);fill-rule:evenodd;clip-rule:evenodd;fill:url(#Fill-4_00000176731440585130852530000009895646168652872368_);" d="
					M0.8,14L5,20.3C5.3,20.7,5.9,21,6.5,21l0,0h15.1c1.3,0,2-1.2,1.4-2.1l0,0L10.2,0L0.8,14z"/>
			</g>
			<g id="Group-9" transform="translate(143.000000, 21.000000)">
				<g id="Clip-8">
				</g>
				<defs>
					
						<filter id="Adobe_OpacityMaskFilter_00000044177097121449651410000006919357432524250769_" filterUnits="userSpaceOnUse" x="0.5" y="0" width="22.4" height="21">
						<feColorMatrix  type="matrix" values="1 0 0 0 0  0 1 0 0 0  0 0 1 0 0  0 0 0 1 0"/>
					</filter>
				</defs>
				
					<mask maskUnits="userSpaceOnUse" x="0.5" y="0" width="22.4" height="21" id="mask-8_00000085966699680286660990000007998599559636794801_">
					<g style="filter:url(#Adobe_OpacityMaskFilter_00000044177097121449651410000006919357432524250769_);">
						<path id="path-7_00000078041272724697627870000015171506974513024675_" class="st1" d="M0.7,18.9C0.1,19.8,0.8,21,2.1,21l0,0
							h15.1c0.6,0,1.1-0.3,1.4-0.7l0,0l4.2-6.3L13.4,0L0.7,18.9z"/>
					</g>
				</mask>
				
					<linearGradient id="Fill-7_00000003815211229522123900000012616061936988240557_" gradientUnits="userSpaceOnUse" x1="-1947.9493" y1="766.3757" x2="-1947.9493" y2="767.3757" gradientTransform="matrix(22.3535 0 0 -21 43555.0781 16114.8896)">
					<stop  offset="0" style="stop-color:#2AB5FB"/>
					<stop  offset="1" style="stop-color:#0095DB"/>
				</linearGradient>
				
					<path id="Fill-7" style="mask:url(#mask-8_00000085966699680286660990000007998599559636794801_);fill-rule:evenodd;clip-rule:evenodd;fill:url(#Fill-7_00000003815211229522123900000012616061936988240557_);" d="
					M0.7,18.9C0.1,19.8,0.8,21,2.1,21l0,0h15.1c0.6,0,1.1-0.3,1.4-0.7l0,0l4.2-6.3L13.4,0L0.7,18.9z"/>
			</g>
			<g id="Group-12" transform="translate(165.000000, 0.000000)">
				<g id="Clip-11">
				</g>
				<defs>
					
						<filter id="Adobe_OpacityMaskFilter_00000181068449631421199160000001902550381252799133_" filterUnits="userSpaceOnUse" x="0.8" y="0" width="22.4" height="21">
						<feColorMatrix  type="matrix" values="1 0 0 0 0  0 1 0 0 0  0 0 1 0 0  0 0 0 1 0"/>
					</filter>
				</defs>
				
					<mask maskUnits="userSpaceOnUse" x="0.8" y="0" width="22.4" height="21" id="mask-11_00000005231910521838597040000016740719213245464714_">
					<g style="filter:url(#Adobe_OpacityMaskFilter_00000181068449631421199160000001902550381252799133_);">
						<path id="path-10_00000029008947370164491260000008609513611226262921_" class="st1" d="M6.5,0C5.9,0,5.3,0.3,5,0.7l0,0L0.8,7
							l9.4,14L22.9,2.1C23.6,1.2,22.8,0,21.5,0l0,0H6.5z"/>
					</g>
				</mask>
				
					<linearGradient id="Fill-10_00000080187775909742064310000010745977772824722090_" gradientUnits="userSpaceOnUse" x1="-1969.9552" y1="787.3757" x2="-1969.9552" y2="788.3757" gradientTransform="matrix(22.355 0 0 -21 44050.3672 16555.8906)">
					<stop  offset="0" style="stop-color:#BF2F62"/>
					<stop  offset="1" style="stop-color:#F20093"/>
				</linearGradient>
				
					<path id="Fill-10" style="mask:url(#mask-11_00000005231910521838597040000016740719213245464714_);fill-rule:evenodd;clip-rule:evenodd;fill:url(#Fill-10_00000080187775909742064310000010745977772824722090_);" d="
					M6.5,0C5.9,0,5.3,0.3,5,0.7l0,0L0.8,7l9.4,14L22.9,2.1C23.6,1.2,22.8,0,21.5,0l0,0H6.5z"/>
			</g>
			<g id="Group-24">
				<polygon id="Fill-13" class="st9" points="156.4,21 156.4,21 165.8,35 175.2,21 175.2,21 				"/>
				<g id="Group-17" transform="translate(0.000000, 22.000000)">
					<g id="Clip-16">
					</g>
					<defs>
						
							<filter id="Adobe_OpacityMaskFilter_00000034809201557804228180000001339271993447142823_" filterUnits="userSpaceOnUse" x="0" y="0.5" width="18.5" height="19.5">
							<feColorMatrix  type="matrix" values="1 0 0 0 0  0 1 0 0 0  0 0 1 0 0  0 0 0 1 0"/>
						</filter>
					</defs>
					
						<mask maskUnits="userSpaceOnUse" x="0" y="0.5" width="18.5" height="19.5" id="mask-14_00000083052950482079524980000015619310623412580243_">
						<g style="filter:url(#Adobe_OpacityMaskFilter_00000034809201557804228180000001339271993447142823_);">
							<polygon id="path-13_00000150080892914373645510000009660259546512102039_" class="st1" points="0,0.5 18.5,0.5 18.5,20 
								0,20 							"/>
						</g>
					</mask>
					<path id="Fill-15" class="st11" d="M16.8,10.2c0-4.7-3-8.2-7.5-8.2c-4.4,0-7.5,3.5-7.5,8.2s3.1,8.2,7.5,8.2
						C13.8,18.4,16.8,15,16.8,10.2 M0,10.2c0-5.5,3.9-9.8,9.4-9.8c3.3,0,5.8,1.6,7.4,4.5v-4h1.8v18.6h-1.8v-4
						c-1.6,2.9-4.1,4.5-7.4,4.5C3.9,20,0,15.7,0,10.2"/>
				</g>
				<g id="Clip-19">
				</g>
				<defs>
					
						<filter id="Adobe_OpacityMaskFilter_00000109737070345037030560000016955026360704363965_" filterUnits="userSpaceOnUse" x="25.8" y="0" width="1.8" height="41.5">
						<feColorMatrix  type="matrix" values="1 0 0 0 0  0 1 0 0 0  0 0 1 0 0  0 0 0 1 0"/>
					</filter>
				</defs>
				
					<mask maskUnits="userSpaceOnUse" x="25.8" y="0" width="1.8" height="41.5" id="mask-16_00000113348988322904448560000015575413351590467251_">
					<g style="filter:url(#Adobe_OpacityMaskFilter_00000109737070345037030560000016955026360704363965_);">
						<polygon id="path-15_00000110431913900433105650000003049335327378823595_" class="st1" points="0,42 188.2,42 188.2,0 0,0 
													"/>
					</g>
				</mask>
				<polygon id="Fill-18" class="st13" points="25.8,41.5 27.6,41.5 27.6,0 25.8,0 				"/>
				<defs>
					
						<filter id="Adobe_OpacityMaskFilter_00000032650726734548186940000018338505554569697716_" filterUnits="userSpaceOnUse" x="33.3" y="22.5" width="18.5" height="19.5">
						<feColorMatrix  type="matrix" values="1 0 0 0 0  0 1 0 0 0  0 0 1 0 0  0 0 0 1 0"/>
					</filter>
				</defs>
				
					<mask maskUnits="userSpaceOnUse" x="33.3" y="22.5" width="18.5" height="19.5" id="mask-16_00000105384458445052853960000012783618880971599773_">
					<g style="filter:url(#Adobe_OpacityMaskFilter_00000032650726734548186940000018338505554569697716_);">
						<polygon id="path-15_00000026843427227729392540000006419211175790099592_" class="st1" points="0,42 188.2,42 188.2,0 0,0 
													"/>
					</g>
				</mask>
				<path id="Fill-20" class="st15" d="M50,31.1c-0.5-4-2.8-7.1-7.4-7.1c-4.1,0-7,3-7.5,7.1H50z M43.1,40.5c3.3,0,5.2-1.2,6.7-3
					l1.2,1.1c-1.7,2.2-4.3,3.5-7.8,3.5c-5.7,0-9.8-4.3-9.8-9.8s4.2-9.8,9.4-9.8c5.5,0,9.1,4.2,9.2,10.1H35.1
					C35.3,37.5,38.7,40.5,43.1,40.5L43.1,40.5z"/>
				<defs>
					
						<filter id="Adobe_OpacityMaskFilter_00000064331246166693852530000000851219043569021584_" filterUnits="userSpaceOnUse" x="57.4" y="22.5" width="26.6" height="19.1">
						<feColorMatrix  type="matrix" values="1 0 0 0 0  0 1 0 0 0  0 0 1 0 0  0 0 0 1 0"/>
					</filter>
				</defs>
				
					<mask maskUnits="userSpaceOnUse" x="57.4" y="22.5" width="26.6" height="19.1" id="mask-16_00000032615950862027655010000009754104418410175617_">
					<g style="filter:url(#Adobe_OpacityMaskFilter_00000064331246166693852530000000851219043569021584_);">
						<polygon id="path-15_00000132800724485268039630000010574729833500837270_" class="st1" points="0,42 188.2,42 188.2,0 0,0 
													"/>
					</g>
				</mask>
				<path id="Fill-21" class="st17" d="M57.4,22.9h1.8v2.9c0.9-2,3.1-3.3,5.8-3.3c2.5,0,4.9,1.2,6,3.7c1.3-2.5,3.5-3.7,6.4-3.7
					c3.6,0,6.6,2.3,6.6,6.7v12.3h-1.8V29.5c0-3.6-1.9-5.4-4.8-5.4c-3.6,0-5.9,2.2-5.9,6v11.5h-1.8v-12c0-3.6-1.8-5.5-4.9-5.5
					c-3.6,0-5.8,2.2-5.8,6.2v11.3h-1.8V22.9z"/>
				<defs>
					
						<filter id="Adobe_OpacityMaskFilter_00000164509147090967003400000009133056212413388985_" filterUnits="userSpaceOnUse" x="90.8" y="0" width="18.9" height="42">
						<feColorMatrix  type="matrix" values="1 0 0 0 0  0 1 0 0 0  0 0 1 0 0  0 0 0 1 0"/>
					</filter>
				</defs>
				
					<mask maskUnits="userSpaceOnUse" x="90.8" y="0" width="18.9" height="42" id="mask-16_00000044170297335117904670000007474466158640924035_">
					<g style="filter:url(#Adobe_OpacityMaskFilter_00000164509147090967003400000009133056212413388985_);">
						<polygon id="path-15_00000066508317728298829180000002889934978487937424_" class="st1" points="0,42 188.2,42 188.2,0 0,0 
													"/>
					</g>
				</mask>
				<path id="Fill-22" class="st19" d="M107.9,32.2c0-4.7-3.2-8.2-7.7-8.2c-4.6,0-7.7,3.5-7.7,8.2s3.2,8.2,7.7,8.2
					C104.8,40.4,107.9,37,107.9,32.2 M92.6,37.5v4h-1.8V0h1.8v27c1.6-2.9,4.3-4.5,7.6-4.5c5.5,0,9.5,4.3,9.5,9.8s-4,9.8-9.5,9.8
					C96.9,42,94.2,40.4,92.6,37.5"/>
				<defs>
					
						<filter id="Adobe_OpacityMaskFilter_00000083085599820850650970000006089511547398646682_" filterUnits="userSpaceOnUse" x="113.7" y="22.5" width="18.5" height="19.5">
						<feColorMatrix  type="matrix" values="1 0 0 0 0  0 1 0 0 0  0 0 1 0 0  0 0 0 1 0"/>
					</filter>
				</defs>
				
					<mask maskUnits="userSpaceOnUse" x="113.7" y="22.5" width="18.5" height="19.5" id="mask-16_00000133491290801277040010000004889267508038629814_">
					<g style="filter:url(#Adobe_OpacityMaskFilter_00000083085599820850650970000006089511547398646682_);">
						<polygon id="path-15_00000026161426910365010230000008113491542272949910_" class="st1" points="0,42 188.2,42 188.2,0 0,0 
													"/>
					</g>
				</mask>
				<path id="Fill-23" class="st21" d="M130.6,32.2c0-4.7-3-8.2-7.5-8.2c-4.4,0-7.5,3.5-7.5,8.2s3.1,8.2,7.5,8.2
					C127.5,40.4,130.6,37,130.6,32.2 M113.7,32.2c0-5.5,3.9-9.8,9.4-9.8c3.3,0,5.8,1.6,7.4,4.5v-4h1.8v18.6h-1.8v-4
					c-1.6,2.9-4.1,4.5-7.4,4.5C117.6,42,113.7,37.7,113.7,32.2"/>
			</g>
		</g>
	</g>
</g>
</svg>
