<?xml version="1.0" encoding="UTF-8"?>
<svg width="300px" height="86px" viewBox="0 0 300 86" version="1.1" xmlns="http://www.w3.org/2000/svg" xmlns:xlink="http://www.w3.org/1999/xlink">
    <!-- Generator: Sketch 53.2 (72643) - https://sketchapp.com -->
    <title>alemba-service-manager-logo-whitetext-300w</title>
    <desc>Created with Sketch.</desc>
    <defs>
        <polygon id="path-1" points="0 86 300 86 300 0.281 0 0.281"></polygon>
        <path d="M4.13,0.321 C1.566,0.321 -0.035,2.702 1.245,4.608 L1.245,4.608 L27.175,43.161 L46.398,14.58 L37.768,1.75 C37.173,0.865 36.075,0.321 34.886,0.321 L34.886,0.321 L4.13,0.321 Z" id="path-3"></path>
        <linearGradient x1="50.0000155%" y1="99.9986627%" x2="50.0000155%" y2="-0.000340336134%" id="linearGradient-5">
            <stop stop-color="#BF2F62" offset="0%"></stop>
            <stop stop-color="#F20093" offset="100%"></stop>
        </linearGradient>
        <path d="M0.398,28.741 L9.026,41.571 C9.621,42.456 10.721,43 11.909,43 L11.909,43 L42.666,43 C44.597,43 45.983,41.648 46,40.166 L46,40.166 L46,40.112 C45.995,39.644 45.853,39.165 45.549,38.713 L45.549,38.713 L19.62,0.161 L0.398,28.741 Z" id="path-6"></path>
        <linearGradient x1="49.9995428%" y1="100%" x2="49.9995428%" y2="-0.0013373328%" id="linearGradient-8">
            <stop stop-color="#2AB5FB" offset="0%"></stop>
            <stop stop-color="#0095DB" offset="100%"></stop>
        </linearGradient>
        <path d="M1.245,38.713 C-0.035,40.619 1.566,43 4.13,43 L4.13,43 L34.886,43 C36.075,43 37.173,42.456 37.768,41.571 L37.768,41.571 L46.398,28.741 L27.175,0.161 L1.245,38.713 Z" id="path-9"></path>
        <linearGradient x1="50.0000155%" y1="100%" x2="50.0000155%" y2="-0.0013373328%" id="linearGradient-11">
            <stop stop-color="#2AB5FB" offset="0%"></stop>
            <stop stop-color="#0095DB" offset="100%"></stop>
        </linearGradient>
        <path d="M11.909,0.321 C10.721,0.321 9.621,0.865 9.026,1.75 L9.026,1.75 L0.398,14.58 L19.62,43.161 L45.549,4.608 C45.853,4.156 45.995,3.677 46,3.209 L46,3.209 L46,3.155 C45.983,1.673 44.597,0.321 42.666,0.321 L42.666,0.321 L11.909,0.321 Z" id="path-12"></path>
        <linearGradient x1="49.9995428%" y1="99.9986627%" x2="49.9995428%" y2="-0.000340336134%" id="linearGradient-14">
            <stop stop-color="#BF2F62" offset="0%"></stop>
            <stop stop-color="#F20093" offset="100%"></stop>
        </linearGradient>
        <polygon id="path-15" points="0 86 300 86 300 0.281 0 0.281"></polygon>
    </defs>
    <g id="Features" stroke="none" stroke-width="1" fill="none" fill-rule="evenodd">
        <g id="alemba-service-manager-logo-whitetext-300w" transform="translate(0.000000, -1.000000)">
            <g id="Group-20" transform="translate(0.000000, 0.718900)">
                <path d="M0.946,83.4174 C1.964,84.1944 3.265,84.5244 4.223,84.5244 C5.509,84.5244 6.422,83.9404 6.422,82.7594 C6.422,81.3674 5.151,81.1284 3.729,80.7244 C2.203,80.2904 0.721,79.6614 0.721,77.6874 C0.721,75.7714 2.113,74.6644 4.223,74.6644 C5.24,74.6644 6.467,74.9184 7.335,75.4724 L7.335,76.9684 C6.347,76.2804 5.12,75.9664 4.193,75.9664 C2.981,75.9664 2.128,76.4894 2.128,77.5974 C2.128,78.9434 3.385,79.1684 4.701,79.5414 C6.273,79.9904 7.828,80.6194 7.828,82.6844 C7.828,84.6594 6.377,85.8264 4.208,85.8264 C3.16,85.8264 1.889,85.5424 0.946,84.9734 L0.946,83.4174 Z" id="Fill-1" fill="#FFFFFF"></path>
                <polygon id="Fill-3" fill="#FFFFFF" points="13.9998 74.8286 20.2538 74.8286 20.2538 76.1156 15.4208 76.1156 15.4208 79.4076 19.6548 79.4076 19.6548 80.6486 15.4208 80.6486 15.4208 84.3756 20.3888 84.3756 20.3888 85.6616 13.9998 85.6616"></polygon>
                <path d="M29.6252,79.8559 C30.5832,79.8559 31.2562,79.7369 31.7502,79.3629 C32.1542,79.0629 32.3932,78.6139 32.3932,78.0159 C32.3932,77.3279 32.0792,76.7889 31.5102,76.4749 C30.9272,76.1609 30.2392,76.1159 29.1912,76.1159 L27.7852,76.1159 L27.7852,79.8559 L29.6252,79.8559 Z M26.3632,74.8289 L29.2962,74.8289 C30.3882,74.8289 31.4362,74.8739 32.3182,75.3679 C33.2162,75.8619 33.8142,76.6989 33.8142,77.8959 C33.8142,79.0629 33.2462,79.9459 32.4232,80.4399 C32.0342,80.6789 31.6302,80.8139 31.1812,80.8889 L34.6522,85.6619 L32.9322,85.6619 L29.6252,81.0229 L27.7852,81.0229 L27.7852,85.6619 L26.3632,85.6619 L26.3632,74.8289 Z" id="Fill-5" fill="#FFFFFF"></path>
                <path d="M38.8577,74.8286 L40.3837,74.8286 L42.6877,80.9036 C43.0467,81.8466 43.3917,82.7736 43.7507,83.7766 L43.7797,83.7766 C44.1397,82.7886 44.4987,81.8316 44.8727,80.8586 L47.1917,74.8286 L48.6427,74.8286 L44.4827,85.6616 L43.0317,85.6616 L38.8577,74.8286 Z" id="Fill-7" fill="#FFFFFF"></path>
                <mask id="mask-2" fill="white">
                    <use xlink:href="#path-1"></use>
                </mask>
                <g id="Clip-10"></g>
                <polygon id="Fill-9" fill="#FFFFFF" mask="url(#mask-2)" points="54.224 85.662 55.645 85.662 55.645 74.829 54.224 74.829"></polygon>
                <path d="M67.4714,74.6645 C68.6084,74.6645 69.6704,74.9485 70.5234,75.4275 L70.5234,76.9835 C69.7154,76.3855 68.6084,75.9805 67.4564,75.9805 C64.9874,75.9805 63.2524,77.8365 63.2524,80.2455 C63.2524,82.6545 64.9874,84.5095 67.5754,84.5095 C68.7734,84.5095 69.8354,84.1045 70.6884,83.4175 L70.6884,84.9875 C69.8204,85.5425 68.6384,85.8265 67.5014,85.8265 C64.2094,85.8265 61.8304,83.4475 61.8304,80.2745 C61.8304,77.1925 64.0754,74.6645 67.4714,74.6645" id="Fill-11" fill="#FFFFFF" mask="url(#mask-2)"></path>
                <polygon id="Fill-12" fill="#FFFFFF" mask="url(#mask-2)" points="76.8904 74.8286 83.1444 74.8286 83.1444 76.1156 78.3114 76.1156 78.3114 79.4076 82.5464 79.4076 82.5464 80.6486 78.3114 80.6486 78.3114 84.3756 83.2794 84.3756 83.2794 85.6616 76.8904 85.6616"></polygon>
                <path d="M100.5564,79.3325 C100.0624,78.6295 99.5844,77.9115 99.1054,77.1925 L99.0754,77.2075 C99.0904,77.8515 99.1054,78.6745 99.1054,79.5575 L99.1054,85.6615 L97.7284,85.6615 L97.7284,74.8285 L99.1054,74.8285 L102.9504,80.3355 L106.7954,74.8285 L108.1574,74.8285 L108.1574,85.6615 L106.7364,85.6615 L106.7364,79.5575 C106.7364,78.6745 106.7504,77.8515 106.7654,77.2075 L106.7364,77.1925 C106.2574,77.9115 105.7784,78.6295 105.2844,79.3325 L102.9204,82.7145 L100.5564,79.3325 Z" id="Fill-13" fill="#FFFFFF" mask="url(#mask-2)"></path>
                <path d="M116.9192,81.3979 L120.8092,81.3979 L119.9262,79.1529 C119.5822,78.2859 119.2232,77.3579 118.8942,76.4749 L118.8642,76.4749 C118.5352,77.3579 118.1762,78.2699 117.8022,79.1979 L116.9192,81.3979 Z M118.2062,74.8289 L119.5672,74.8289 L124.0412,85.6619 L122.5152,85.6619 L121.3032,82.6389 L116.4252,82.6389 L115.1982,85.6619 L113.7472,85.6619 L118.2062,74.8289 Z" id="Fill-14" fill="#FFFFFF" mask="url(#mask-2)"></path>
                <path d="M129.6238,85.6616 L129.6238,74.8286 L130.9708,74.8286 L135.5038,80.8446 C136.1328,81.6666 136.7608,82.5196 137.3748,83.3726 L137.4038,83.3576 C137.3898,82.4146 137.3748,81.3226 137.3748,80.2746 L137.3748,74.8286 L138.7508,74.8286 L138.7508,85.6616 L137.4038,85.6616 L132.8708,79.6466 C132.2418,78.8236 131.6138,77.9716 131.0008,77.1186 L130.9708,77.1336 C130.9848,78.0756 131.0008,79.1686 131.0008,80.2156 L131.0008,85.6616 L129.6238,85.6616 Z" id="Fill-15" fill="#FFFFFF" mask="url(#mask-2)"></path>
                <path d="M147.5056,81.3979 L151.3956,81.3979 L150.5126,79.1529 C150.1686,78.2859 149.8096,77.3579 149.4806,76.4749 L149.4496,76.4749 C149.1206,77.3579 148.7616,78.2699 148.3886,79.1979 L147.5056,81.3979 Z M148.7916,74.8289 L150.1526,74.8289 L154.6276,85.6619 L153.1016,85.6619 L151.8896,82.6389 L147.0116,82.6389 L145.7846,85.6619 L144.3326,85.6619 L148.7916,74.8289 Z" id="Fill-16" fill="#FFFFFF" mask="url(#mask-2)"></path>
                <path d="M164.8484,74.6645 C166.2544,74.6645 167.3924,75.0835 168.1694,75.5615 L168.1694,77.1785 C167.3024,76.4595 166.1054,75.9805 164.8184,75.9805 C162.2754,75.9805 160.5544,77.8665 160.5544,80.2455 C160.5544,82.5495 162.1694,84.5395 164.8634,84.5395 C165.7014,84.5395 166.4794,84.3455 167.0774,84.0305 L167.0774,81.5025 L164.6544,81.5025 L164.6544,80.2605 L168.4984,80.2605 L168.4984,84.7335 C167.5414,85.3925 166.1354,85.8265 164.7444,85.8265 C161.5414,85.8265 159.1324,83.4925 159.1324,80.2745 C159.1324,77.0885 161.4824,74.6645 164.8484,74.6645" id="Fill-17" fill="#FFFFFF" mask="url(#mask-2)"></path>
                <polygon id="Fill-18" fill="#FFFFFF" mask="url(#mask-2)" points="175.0945 74.8286 181.3485 74.8286 181.3485 76.1156 176.5165 76.1156 176.5165 79.4076 180.7495 79.4076 180.7495 80.6486 176.5165 80.6486 176.5165 84.3756 181.4835 84.3756 181.4835 85.6616 175.0945 85.6616"></polygon>
                <path d="M190.7205,79.8559 C191.6775,79.8559 192.3515,79.7369 192.8445,79.3629 C193.2485,79.0629 193.4885,78.6139 193.4885,78.0159 C193.4885,77.3279 193.1735,76.7889 192.6055,76.4749 C192.0225,76.1609 191.3335,76.1159 190.2855,76.1159 L188.8795,76.1159 L188.8795,79.8559 L190.7205,79.8559 Z M187.4585,74.8289 L190.3915,74.8289 C191.4835,74.8289 192.5315,74.8739 193.4135,75.3679 C194.3115,75.8619 194.9095,76.6989 194.9095,77.8959 C194.9095,79.0629 194.3405,79.9459 193.5185,80.4399 C193.1285,80.6789 192.7255,80.8139 192.2765,80.8889 L195.7475,85.6619 L194.0275,85.6619 L190.7205,81.0229 L188.8795,81.0229 L188.8795,85.6619 L187.4585,85.6619 L187.4585,74.8289 Z" id="Fill-19" fill="#FFFFFF" mask="url(#mask-2)"></path>
            </g>
            <g id="Group-23" transform="translate(208.000000, 0.718900)">
                <mask id="mask-4" fill="white">
                    <use xlink:href="#path-3"></use>
                </mask>
                <g id="Clip-22"></g>
                <path d="M4.13,0.321 C1.566,0.321 -0.035,2.702 1.245,4.608 L1.245,4.608 L27.175,43.161 L46.398,14.58 L37.768,1.75 C37.173,0.865 36.075,0.321 34.886,0.321 L34.886,0.321 L4.13,0.321 Z" id="Fill-21" fill="url(#linearGradient-5)" mask="url(#mask-4)"></path>
            </g>
            <g id="Group-26" transform="translate(254.000000, 43.718900)">
                <mask id="mask-7" fill="white">
                    <use xlink:href="#path-6"></use>
                </mask>
                <g id="Clip-25"></g>
                <path d="M0.398,28.741 L9.026,41.571 C9.621,42.456 10.721,43 11.909,43 L11.909,43 L42.666,43 C44.597,43 45.983,41.648 46,40.166 L46,40.166 L46,40.112 C45.995,39.644 45.853,39.165 45.549,38.713 L45.549,38.713 L19.62,0.161 L0.398,28.741 Z" id="Fill-24" fill="url(#linearGradient-8)" mask="url(#mask-7)"></path>
            </g>
            <g id="Group-29" transform="translate(208.000000, 43.718900)">
                <mask id="mask-10" fill="white">
                    <use xlink:href="#path-9"></use>
                </mask>
                <g id="Clip-28"></g>
                <path d="M1.245,38.713 C-0.035,40.619 1.566,43 4.13,43 L4.13,43 L34.886,43 C36.075,43 37.173,42.456 37.768,41.571 L37.768,41.571 L46.398,28.741 L27.175,0.161 L1.245,38.713 Z" id="Fill-27" fill="url(#linearGradient-11)" mask="url(#mask-10)"></path>
            </g>
            <g id="Group-32" transform="translate(254.000000, 0.718900)">
                <mask id="mask-13" fill="white">
                    <use xlink:href="#path-12"></use>
                </mask>
                <g id="Clip-31"></g>
                <path d="M11.909,0.321 C10.721,0.321 9.621,0.865 9.026,1.75 L9.026,1.75 L0.398,14.58 L19.62,43.161 L45.549,4.608 C45.853,4.156 45.995,3.677 46,3.209 L46,3.209 L46,3.155 C45.983,1.673 44.597,0.321 42.666,0.321 L42.666,0.321 L11.909,0.321 Z" id="Fill-30" fill="url(#linearGradient-14)" mask="url(#mask-13)"></path>
            </g>
            <g id="Group-43" transform="translate(0.000000, 0.718900)">
                <polygon id="Fill-33" fill="#59CEFC" points="235.197 43.1293 235.176 43.1603 254.397 71.7413 273.62 43.1603 273.599 43.1293"></polygon>
                <path d="M24.824,46.3559 C24.824,39.3739 20.342,34.2879 13.791,34.2879 C7.24,34.2879 2.672,39.3739 2.672,46.3559 C2.672,53.3369 7.24,58.4229 13.791,58.4229 C20.342,58.4229 24.824,53.3369 24.824,46.3559 M0,46.3559 C0,38.2519 5.776,31.9609 13.791,31.9609 C18.618,31.9609 22.325,34.2879 24.651,38.5979 L24.651,32.6509 L27.237,32.6509 L27.237,60.0599 L24.651,60.0599 L24.651,54.1129 C22.325,58.4229 18.618,60.7499 13.791,60.7499 C5.776,60.7499 0,54.4579 0,46.3559" id="Fill-35" fill="#FFFFFF"></path>
                <mask id="mask-16" fill="white">
                    <use xlink:href="#path-15"></use>
                </mask>
                <g id="Clip-38"></g>
                <polygon id="Fill-37" fill="#FFFFFF" mask="url(#mask-16)" points="38.012 60.06 40.597 60.06 40.597 0.281 38.012 0.281"></polygon>
                <path d="M73.6965,44.6323 C73.0055,38.7703 69.6445,34.2013 62.8365,34.2013 C56.8015,34.2013 52.4925,38.5983 51.8035,44.6323 L73.6965,44.6323 Z M63.4395,58.5083 C68.3525,58.5083 71.1115,56.7843 73.2645,54.1123 L74.9885,55.6643 C72.4895,58.8543 68.6965,60.7493 63.4395,60.7493 C54.9915,60.7493 49.0455,54.4573 49.0455,46.3563 C49.0455,38.2523 55.2505,31.9613 62.8365,31.9613 C70.9385,31.9613 76.1955,38.0813 76.3685,46.8723 L51.7175,46.8723 C51.9745,54.1123 56.9745,58.5083 63.4395,58.5083 L63.4395,58.5083 Z" id="Fill-39" fill="#FFFFFF" mask="url(#mask-16)"></path>
                <path d="M84.6433,32.6508 L87.2283,32.6508 L87.2283,36.8738 C88.6083,33.9428 91.7963,31.9608 95.7623,31.9608 C99.4693,31.9608 102.9163,33.7708 104.6403,37.4768 C106.6223,33.8568 109.7263,31.9608 114.1223,31.9608 C119.3793,31.9608 123.7743,35.4088 123.7743,41.8738 L123.7743,60.0598 L121.1893,60.0598 L121.1893,42.3038 C121.1893,36.9598 118.3443,34.2878 114.1223,34.2878 C108.7783,34.2878 105.5013,37.5638 105.5013,43.1668 L105.5013,60.0598 L102.9163,60.0598 L102.9163,42.3898 C102.9163,37.0468 100.2443,34.2878 95.7623,34.2878 C90.5053,34.2878 87.2283,37.5638 87.2283,43.4238 L87.2283,60.0598 L84.6433,60.0598 L84.6433,32.6508 Z" id="Fill-40" fill="#FFFFFF" mask="url(#mask-16)"></path>
                <path d="M159.031,46.3559 C159.031,39.3739 154.377,34.2879 147.652,34.2879 C140.928,34.2879 136.274,39.3739 136.274,46.3559 C136.274,53.3369 140.928,58.4229 147.652,58.4229 C154.377,58.4229 159.031,53.3369 159.031,46.3559 M136.447,54.1129 L136.447,60.0599 L133.861,60.0599 L133.861,0.2809 L136.447,0.2809 L136.447,38.5979 C138.775,34.2879 142.739,31.9609 147.652,31.9609 C155.755,31.9609 161.703,38.2519 161.703,46.3559 C161.703,54.4579 155.755,60.7499 147.652,60.7499 C142.739,60.7499 138.775,58.4229 136.447,54.1129" id="Fill-41" fill="#FFFFFF" mask="url(#mask-16)"></path>
                <path d="M192.3884,46.3559 C192.3884,39.3739 187.9054,34.2879 181.3564,34.2879 C174.8044,34.2879 170.2374,39.3739 170.2374,46.3559 C170.2374,53.3369 174.8044,58.4229 181.3564,58.4229 C187.9054,58.4229 192.3884,53.3369 192.3884,46.3559 M167.5654,46.3559 C167.5654,38.2519 173.3384,31.9609 181.3564,31.9609 C186.1814,31.9609 189.8874,34.2879 192.2154,38.5979 L192.2154,32.6509 L194.8014,32.6509 L194.8014,60.0599 L192.2154,60.0599 L192.2154,54.1129 C189.8874,58.4229 186.1814,60.7499 181.3564,60.7499 C173.3384,60.7499 167.5654,54.4579 167.5654,46.3559" id="Fill-42" fill="#FFFFFF" mask="url(#mask-16)"></path>
            </g>
        </g>
    </g>
</svg>