<?xml version="1.0" encoding="utf-8"?>
<!-- Generator: Adobe Illustrator 23.0.2, SVG Export Plug-In . SVG Version: 6.00 Build 0)  -->
<svg version="1.1" id="Layer_1" xmlns="http://www.w3.org/2000/svg" xmlns:xlink="http://www.w3.org/1999/xlink" x="0px" y="0px"
	 viewBox="0 0 263.3 58.8" style="enable-background:new 0 0 263.3 58.8;" xml:space="preserve">
<style type="text/css">
	.st0{fill:url(#SVGID_1_);}
	.st1{fill:url(#SVGID_2_);}
	.st2{fill:url(#SVGID_3_);}
	.st3{fill:url(#SVGID_4_);}
	.st4{fill:#59CEFC;}
	.st5{fill:#FFFFFF;}
</style>
<g>
	<g>
		
			<linearGradient id="SVGID_1_" gradientUnits="userSpaceOnUse" x1="-376.1185" y1="707.2094" x2="-346.7352" y2="707.2094" gradientTransform="matrix(0 -1 1 0 -490.8396 -346.7352)">
			<stop  offset="0" style="stop-color:#BF3062"/>
			<stop  offset="1" style="stop-color:#F20093"/>
		</linearGradient>
		<path class="st0" d="M224.1,0H203c-1.8,0-2.9,1.6-2,2.9l17.8,26.4L232,9.8L226.1,1C225.7,0.4,224.9,0,224.1,0z"/>
		
			<linearGradient id="SVGID_2_" gradientUnits="userSpaceOnUse" x1="-405.5018" y1="738.4877" x2="-376.1185" y2="738.4877" gradientTransform="matrix(0 -1 1 0 -490.8396 -346.7352)">
			<stop  offset="0" style="stop-color:#2AB5FB"/>
			<stop  offset="1" style="stop-color:#0096DC"/>
		</linearGradient>
		<path class="st1" d="M232,49l5.9,8.8c0.4,0.6,1.2,1,2,1H261c1.8,0,2.9-1.6,2-2.9l-17.8-26.4L232,49z"/>
		
			<linearGradient id="SVGID_3_" gradientUnits="userSpaceOnUse" x1="-405.5018" y1="707.2094" x2="-376.1185" y2="707.2094" gradientTransform="matrix(0 -1 1 0 -490.8396 -346.7352)">
			<stop  offset="0" style="stop-color:#2AB5FB"/>
			<stop  offset="1" style="stop-color:#0096DC"/>
		</linearGradient>
		<path class="st2" d="M203,58.8h21.1c0.8,0,1.6-0.4,2-1L232,49l-13.2-19.6L201,55.8C200.2,57.1,201.3,58.8,203,58.8z"/>
		
			<linearGradient id="SVGID_4_" gradientUnits="userSpaceOnUse" x1="-376.1185" y1="738.4877" x2="-346.7352" y2="738.4877" gradientTransform="matrix(0 -1 1 0 -490.8396 -346.7352)">
			<stop  offset="0" style="stop-color:#BF3062"/>
			<stop  offset="1" style="stop-color:#F20093"/>
		</linearGradient>
		<path class="st3" d="M261,0h-21.1c-0.8,0-1.6,0.4-2,1L232,9.8l13.2,19.6L263,2.9C263.9,1.6,262.8,0,261,0z"/>
		<polygon class="st4" points="218.8,29.4 218.8,29.4 232,49 245.2,29.4 245.2,29.4 		"/>
	</g>
	<g>
		<path class="st5" d="M0,45.1c0-7.7,5.5-13.7,13.1-13.7c4.6,0,8.1,2.2,10.3,6.3v-5.6h2.5v26h-2.5v-5.6c-2.2,4.1-5.7,6.3-10.3,6.3
			C5.5,58.8,0,52.8,0,45.1z M23.6,45.1c0-6.6-4.3-11.5-10.5-11.5S2.5,38.5,2.5,45.1s4.3,11.5,10.6,11.5S23.6,51.7,23.6,45.1z"/>
		<path class="st5" d="M36.1,0h2.5v58.1h-2.5V0z"/>
		<path class="st5" d="M60.2,56.6c4.7,0,7.3-1.6,9.3-4.2l1.6,1.5c-2.4,3-6,4.8-11,4.8c-8,0-13.7-6-13.7-13.7
			c0-7.7,5.9-13.7,13.1-13.7c7.7,0,12.7,5.8,12.8,14.2H49.1C49.4,52.5,54.1,56.6,60.2,56.6z M70,43.5c-0.7-5.6-3.8-9.9-10.3-9.9
			c-5.7,0-9.8,4.2-10.5,9.9H70z"/>
		<path class="st5" d="M80.4,32.1h2.5v4c1.3-2.8,4.3-4.7,8.1-4.7c3.5,0,6.8,1.7,8.4,5.2c1.9-3.4,4.8-5.2,9-5.2c5,0,9.2,3.3,9.2,9.4
			v17.3h-2.5V41.3c0-5.1-2.7-7.6-6.7-7.6c-5.1,0-8.2,3.1-8.2,8.4v16h-2.5V41.3c0-5.1-2.5-7.7-6.8-7.7c-5,0-8.1,3.1-8.1,8.7v15.8
			h-2.5V32.1z"/>
		<path class="st5" d="M129.6,52.5v5.6h-2.5V0h2.5v37.7c2.2-4.1,6-6.3,10.6-6.3c7.7,0,13.3,6,13.3,13.7c0,7.7-5.6,13.7-13.3,13.7
			C135.5,58.8,131.8,56.6,129.6,52.5z M151,45.1c0-6.6-4.4-11.5-10.8-11.5s-10.8,4.8-10.8,11.5s4.4,11.5,10.8,11.5
			S151,51.7,151,45.1z"/>
		<path class="st5" d="M159.1,45.1c0-7.7,5.5-13.7,13.1-13.7c4.6,0,8.1,2.2,10.3,6.3v-5.6h2.5v26h-2.5v-5.6
			c-2.2,4.1-5.7,6.3-10.3,6.3C164.6,58.8,159.1,52.8,159.1,45.1z M182.7,45.1c0-6.6-4.3-11.5-10.5-11.5c-6.2,0-10.6,4.8-10.6,11.5
			s4.3,11.5,10.6,11.5C178.4,56.6,182.7,51.7,182.7,45.1z"/>
	</g>
</g>
</svg>
