<?xml version="1.0" standalone="no"?>
<!DOCTYPE svg PUBLIC "-//W3C//DTD SVG 1.1//EN" "http://www.w3.org/Graphics/SVG/1.1/DTD/svg11.dtd">
<svg xmlns="http://www.w3.org/2000/svg"><metadata>This SVG WebFont was generated by YouWorkForThem.
Copyright Â© 2020 by Connary Fagen. All rights reserved.</metadata><defs><font horiz-adv-x="1230" id="ywftsvg"><font-face ascent="1638" bbox="-360 -688 2177 2228" cap-height="1434" descent="-410" font-family="" font-stretch="normal" font-weight="700" panose-1="0 0 0 0 0 0 0 0 0 0" underline-position="0" underline-thickness="0" unicode-range="U+0020-A78C" units-per-em="2048" x-height="1065"/><missing-glyph d="M106 0v1434h1250v-1434h-1250zM213 106h1036v1221h-1036v-1221zM289 184l385 539l-379 526h119l315 -446l315 446h119l-379 -526l385 -539h-118l-322 461l-321 -461h-119z" horiz-adv-x="1462"/><glyph d="M106 0v1434h1250v-1434h-1250zM213 106h1036v1221h-1036v-1221zM289 184l385 539l-379 526h119l315 -446l315 446h119l-379 -526l385 -539h-118l-322 461l-321 -461h-119z" glyph-name=".notdef" horiz-adv-x="1462"/><glyph glyph-name="glyph1" horiz-adv-x="0"/><glyph glyph-name="glyph2" horiz-adv-x="681"/><glyph glyph-name="space" horiz-adv-x="471" unicode=" "/><glyph d="M174 498l-39 936h303l-37 -936h-227zM106 157.5q0 73.5 53.5 126t127.5 52.5q76 0 129 -52.5t53 -125.5q0 -76 -53.5 -127t-128.5 -51q-74 0 -127.5 52t-53.5 125.5z" glyph-name="exclam" horiz-adv-x="575" unicode="!"/><glyph d="M565 831v603h287v-603h-287zM82 831v603h287v-603h-287z" glyph-name="quotedbl" horiz-adv-x="933" unicode="&quot;"/><glyph d="M674 0l35 350h-267l-34 -350h-181l35 350h-176v185h195l36 364h-176v184h195l35 351h180l-35 -351h266l35 351h180l-34 -351h176v-184h-195l-37 -364h176v-185h-194l-35 -350h-180zM461 535h266l37 364h-266z" glyph-name="numbersign" horiz-adv-x="1224" unicode="#"/><glyph d="M586 -184v166q-240 16 -374 142t-134 345h305q8 -201 203 -231v378l-70 15q-401 78 -401 401q0 188 127 297t344 121v168h121v-168q221 -14 345 -126t124 -314h-304q2 78 -43 124t-122 58v-340l57 -12q240 -51 344 -151.5t104 -266.5q0 -209 -138 -318.5t-367 -121.5 v-166h-121zM424 1032q0 -121 162 -155v317q-82 -12 -122 -56.5t-40 -105.5zM707 236q193 27 192 184q0 72 -46 110.5t-144 59.5h-2v-354z" glyph-name="dollar" horiz-adv-x="1288" unicode="$"/><glyph d="M260 223l-123 170l1131 821l123 -167zM76 1128q0 156 86 242t217 86t217 -86t86 -242q0 -164 -85 -248.5t-218 -84.5t-218 85.5t-85 247.5zM287 1128q0 -74 27.5 -105.5t64.5 -31.5q92 0 92 137q0 72 -27.5 102t-64.5 30t-64.5 -31t-27.5 -101zM848 315q0 158 86 244 t217 86t217 -87t86 -243q0 -164 -86 -248.5t-217 -84.5t-217 84.5t-86 248.5zM1059 315q0 -135 92 -135q37 0 64.5 31t27.5 104q0 70 -27.5 100.5t-64.5 30.5t-64.5 -29.5t-27.5 -101.5z" glyph-name="percent" horiz-adv-x="1529" unicode="%"/><glyph d="M610 -20q-233 0 -383.5 118.5t-150.5 309.5q0 141 76.5 234t209.5 169q-135 170 -135 309q0 137 102.5 234.5t299.5 97.5q193 0 293 -95t100 -239q0 -236 -270 -368l243 -267q55 123 56 281h264q0 -293 -129 -488l252 -276h-332l-92 100q-179 -120 -404 -120zM387 434 q0 -88 69.5 -149.5t182.5 -61.5q106 0 201 64l-324 352q-129 -82 -129 -205zM487 1122q0 -68 107 -194q166 90 166 190q0 57 -39 92t-98 35q-61 0 -98.5 -35t-37.5 -88z" glyph-name="ampersand" horiz-adv-x="1482" unicode="&amp;"/><glyph d="M82 831v603h287v-603h-287z" glyph-name="quotesingle" horiz-adv-x="450" unicode="'"/><glyph d="M309 -266q-217 387 -217 921q0 508 217 871h289q-207 -375 -207 -871q0 -524 207 -921h-289z" glyph-name="parenleft" horiz-adv-x="690" unicode="("/><glyph d="M92 -266q207 397 207 921q0 496 -207 871h289q217 -362 217 -871q0 -535 -217 -921h-289z" glyph-name="parenright" horiz-adv-x="690" unicode=")"/><glyph d="M385 618l-172 115l168 232l-264 67l51 199l274 -76l-2 279h209l-2 -279l275 76l51 -199l-268 -67l167 -232l-172 -115l-155 232z" glyph-name="asterisk" horiz-adv-x="1089" unicode="*"/><glyph d="M481 74v375h-375v258h375v372h275v-372h377v-258h-377v-375h-275z" glyph-name="plus" horiz-adv-x="1239" unicode="+"/><glyph d="M129 -143q86 2 123 32.5t37 96.5q-100 2 -156.5 53t-56.5 127t50 123t128 47q90 0 146.5 -66.5t56.5 -197.5q0 -158 -83 -247t-222 -89h-23v121z" glyph-name="comma" horiz-adv-x="532" unicode=","/><glyph d="M82 453v225h631v-225h-631z" glyph-name="hyphen" horiz-adv-x="794" unicode="-"/><glyph d="M256 -20q-74 0 -127 52t-53 125.5t53 126t127 52.5q76 0 129 -52.5t53 -125.5q0 -76 -53 -127t-129 -51z" glyph-name="period" horiz-adv-x="514" unicode="."/><glyph d="M61 4l560 1430h299l-558 -1430h-301z" glyph-name="slash" horiz-adv-x="980" unicode="/"/><glyph d="M651 -20q-111 0 -209 39.5t-182 122.5t-134 230.5t-50 344.5q0 195 50 342t134 230t182.5 123t209 40t210 -40t183 -123t133 -230.5t49.5 -341.5q0 -197 -49.5 -344.5t-133 -230.5t-182 -122.5t-211.5 -39.5zM360 717q0 -137 26 -240.5t93.5 -175.5t172 -72t172 72 t93 175.5t25.5 240.5q0 135 -25.5 238.5t-93 175t-172 71.5t-172 -71.5t-93.5 -175t-26 -238.5z" glyph-name="zero" horiz-adv-x="1302" unicode="0"/><glyph d="M387 1069q-100 -106 -311 -106v245q248 29 311 226h299v-1434h-299v1069z" glyph-name="one" horiz-adv-x="833" unicode="1"/><glyph d="M82 68q0 207 80 348t297 268q20 12 76.5 44t76 43t59.5 38t55 44t36.5 44t29 55.5t7.5 61.5q2 98 -57.5 141t-143.5 43q-90 0 -148.5 -54t-58.5 -167v-29h-289v41q0 205 124 334t376 129q238 0 367 -114.5t129 -305.5q0 -57 -14.5 -110.5t-32 -91t-55.5 -79.5 t-61.5 -63.5t-76.5 -56.5t-73.5 -46.5t-77.5 -43.5q-156 -90 -219.5 -154.5t-63.5 -132.5v-6h670v-248h-1012v68z" glyph-name="two" horiz-adv-x="1185" unicode="2"/><glyph d="M596 -20q-268 0 -400.5 136t-129.5 371h282q2 -133 75 -194.5t183 -61.5q102 0 175 51.5t73 151.5q0 90 -65.5 145.5t-204.5 55.5h-84v215h71q236 0 236 174q0 86 -56.5 129t-142.5 43q-90 0 -152.5 -54.5t-64.5 -174.5h-278q0 229 129 357t372 128q221 0 352.5 -102.5 t131.5 -274.5q0 -131 -71 -211t-163 -102q100 -10 196.5 -96t96.5 -250q0 -193 -152.5 -314.5t-408.5 -121.5z" glyph-name="three" horiz-adv-x="1222" unicode="3"/><glyph d="M686 0v336h-620v239l620 859h299v-859h164v-239h-164v-336h-299zM326 575h360v498z" glyph-name="four" horiz-adv-x="1214" unicode="4"/><glyph d="M616 -20q-252 0 -393 132t-137 347h270q4 -119 81 -178.5t171 -59.5q100 0 179 63.5t79 209.5q0 147 -77.5 207.5t-176.5 60.5q-76 0 -139 -35t-90 -94h-277l121 801h801v-238h-596l-47 -317q8 12 34.5 34.5t102.5 50t168 27.5q207 0 340 -135t133 -362 q0 -244 -148.5 -379t-398.5 -135z" glyph-name="five" horiz-adv-x="1218" unicode="5"/><glyph d="M639 -20q-242 0 -397.5 178t-155.5 561q0 336 140.5 534.5t428.5 198.5q236 0 360 -127t120 -287h-263q-27 176 -223 176q-88 0 -148.5 -42t-88 -109.5t-37.5 -129t-10 -124.5q143 143 331 143q84 0 163 -25.5t150.5 -78.5t115.5 -150.5t44 -224.5q0 -137 -50 -237.5 t-133 -153.5t-170 -77.5t-177 -24.5zM393 475q0 -127 75 -190.5t171 -63.5t171 63.5t75 190.5t-76 188.5t-172 61.5q-94 0 -169 -61.5t-75 -188.5z" glyph-name="six" horiz-adv-x="1245" unicode="6"/><glyph d="M229 0q43 555 465 1188h-633v246h916v-246q-426 -637 -467 -1188h-281z" glyph-name="seven" horiz-adv-x="1048" unicode="7"/><glyph d="M589.5 -20q-229.5 0 -376.5 114.5t-147 317.5q0 268 251 374q-176 96 -176 299q0 160 120 263.5t329 103.5t328.5 -103.5t119.5 -263.5q0 -203 -176 -299q252 -106 252 -374q0 -203 -147.5 -317.5t-377 -114.5zM350 446q0 -92 62.5 -154.5t177.5 -62.5t177 62.5t62 154.5 q0 90 -63.5 154t-176 64t-176 -64t-63.5 -154zM403 1059q0 -72 48.5 -121t138.5 -49t138 49t48 121q0 74 -49 119t-137 45t-137.5 -45t-49.5 -119z" glyph-name="eight" horiz-adv-x="1179" unicode="8"/><glyph d="M606 1450q242 0 397.5 -178t155.5 -561q0 -336 -140 -535t-429 -199q-236 0 -360 127t-119 287h262q27 -176 223 -176q88 0 148.5 42t88 109.5t38 129t10.5 125.5q-143 -143 -332 -144q-84 0 -163 25.5t-150.5 79t-115.5 150.5t-44 224q0 137 50 237.5t133 154t170 78 t177 24.5zM360 954q0 -127 76 -188t172 -61q94 0 169 61t75 188t-75 190.5t-171 63.5t-171 -63.5t-75 -190.5z" glyph-name="nine" horiz-adv-x="1245" unicode="9"/><glyph d="M256 -20q-74 0 -127 52t-53 125.5t53 126t127 52.5q76 0 129 -52.5t53 -125.5q0 -76 -53 -127t-129 -51zM76 887q0 74 53 126t127 52q76 0 129 -52t53 -126q0 -76 -53 -127t-129 -51q-74 0 -127 52t-53 126z" glyph-name="colon" horiz-adv-x="514" unicode=":"/><glyph d="M256 709q-74 0 -127 52t-53 126t53 126t127 52q76 0 129 -52t53 -126q0 -76 -53 -127t-129 -51zM76 166q0 76 50 123t128 47q90 0 146.5 -66.5t56.5 -197.5q0 -158 -83 -247t-222 -89h-23v121q86 2 123 32.5t37 96.5q-100 2 -156.5 53t-56.5 127z" glyph-name="semicolon" horiz-adv-x="532" unicode=";"/><glyph d="M946 0l-854 367v256l854 366v-278l-581 -215l581 -220v-276z" glyph-name="less" horiz-adv-x="1038" unicode="&lt;"/><glyph d="M106 289v225h685v-225h-685zM106 616v226h685v-226h-685z" glyph-name="equal" horiz-adv-x="894" unicode="="/><glyph d="M92 0v276l582 220l-582 215v278l854 -366v-256z" glyph-name="greater" horiz-adv-x="1038" unicode=">"/><glyph d="M453 520q0 96 32.5 168t78.5 113t92 74.5t79 72.5t33 86q0 63 -41 110.5t-133 47.5q-203 0 -203 -240h-299q-4 254 137.5 375t364.5 121q211 0 342 -108.5t131 -305.5q0 -84 -30.5 -144.5t-73.5 -96t-86 -68.5t-74 -84t-31 -121v-53h-319v53zM424 157.5q0 73.5 53 126 t127 52.5q76 0 129 -52.5t53 -125.5q0 -76 -53 -127t-129 -51q-74 0 -127 52t-53 125.5z" glyph-name="question" horiz-adv-x="1159" unicode="?"/><glyph d="M827 -20q-319 0 -535 197.5t-216 537.5q0 338 215 537.5t530 199.5q311 0 513 -189.5t202 -496.5q0 -201 -85 -300t-214 -99q-98 0 -157.5 49t-73.5 112q-10 -59 -76 -112.5t-162 -53.5q-121 0 -212 89.5t-91 250.5q0 164 88 256.5t211 92.5q92 0 158.5 -45t72.5 -109 l17 133h133v-342q0 -176 94 -176q66 0 97.5 72.5t31.5 179.5q0 238 -147.5 382t-401.5 144q-252 0 -413.5 -153.5t-161.5 -419.5q0 -268 165.5 -422t434.5 -154q133 0 227 33v-160q-119 -34 -244 -34zM635 704.5q0 -71.5 38 -129t117.5 -57.5t119.5 56.5t40 130.5 q0 76 -40 133t-119.5 57t-117.5 -59.5t-38 -131z" glyph-name="at" horiz-adv-x="1611" unicode="@"/><glyph d="M35 0l518 1434h395l518 -1434h-321l-92 268h-604l-93 -268h-321zM526 496h449l-215 624h-19z" glyph-name="A" horiz-adv-x="1501" unicode="A"/><glyph d="M106 0v1434h582q233 0 349 -95.5t116 -263.5q0 -221 -207 -287q305 -82 305 -368q0 -186 -134 -303t-404 -117h-607zM414 258h288q121 0 176.5 55.5t55.5 141.5q0 90 -55.5 146t-176.5 56h-288v-399zM414 852h262q74 0 122 41t48 125q0 158 -170 158h-262v-324z" glyph-name="B" horiz-adv-x="1306" unicode="B"/><glyph d="M750 -20q-311 0 -492.5 195.5t-181.5 541.5q0 344 182 539.5t496 195.5q248 0 410.5 -130t183.5 -386h-299q-57 252 -306 252q-178 0 -266 -130t-88 -341q0 -213 87 -343t267 -130q248 0 306 254h299q-20 -258 -183 -388t-415 -130z" glyph-name="C" horiz-adv-x="1409" unicode="C"/><glyph d="M106 0v1434h543q334 0 506 -184.5t172 -532.5t-172 -532.5t-506 -184.5h-543zM414 266h204q217 0 306.5 105.5t89.5 345t-89 345t-307 105.5h-204v-901z" glyph-name="D" horiz-adv-x="1402" unicode="D"/><glyph d="M106 0v1434h979v-267h-671v-321h610v-240h-610v-340h692v-266h-1000z" glyph-name="E" horiz-adv-x="1161" unicode="E"/><glyph d="M106 0v1434h949v-267h-641v-336h530v-247h-530v-584h-308z" glyph-name="F" horiz-adv-x="1116" unicode="F"/><glyph d="M745 -20q-322 0 -495.5 193.5t-173.5 537.5q0 350 179 545.5t484 195.5q240 0 408 -120t199 -353h-304q-53 209 -303 209q-182 0 -267 -127t-85 -340q0 -215 87 -346t271 -131q133 0 227.5 71.5t94.5 227.5h-276v245h581v-149q0 -322 -165 -490.5t-462 -168.5z" glyph-name="G" horiz-adv-x="1458" unicode="G"/><glyph d="M975 0v590h-561v-590h-308v1434h308v-590h561v590h307v-1434h-307z" glyph-name="H" horiz-adv-x="1388" unicode="H"/><glyph d="M106 0v1434h308v-1434h-308z" glyph-name="I" horiz-adv-x="520" unicode="I"/><glyph d="M690 -20q-268 0 -426 143t-158 422h310q0 -147 72.5 -223t203.5 -76q276 0 277 321v867h307v-891q0 -276 -159 -419.5t-427 -143.5z" glyph-name="J" horiz-adv-x="1382" unicode="J"/><glyph d="M106 0v1434h308v-674l571 674h361l-549 -639l604 -795h-352l-441 575l-194 -227v-348h-308z" glyph-name="K" horiz-adv-x="1435" unicode="K"/><glyph d="M106 0v1434h308v-1168h659v-266h-967z" glyph-name="L" horiz-adv-x="1128" unicode="L"/><glyph d="M106 0v1434h388l374 -1016l377 1016h387v-1434h-307v903h-10l-332 -903h-229l-330 903h-10v-903h-308z" glyph-name="M" horiz-adv-x="1738" unicode="M"/><glyph d="M106 0v1434h320l578 -942h6v942h307v-1434h-332l-565 924h-6v-924h-308z" glyph-name="N" horiz-adv-x="1423" unicode="N"/><glyph d="M760 -20q-309 0 -496.5 203.5t-187.5 533.5q0 332 187.5 533.5t496.5 201.5t496.5 -201.5t187.5 -533.5q0 -330 -187.5 -533.5t-496.5 -203.5zM391 717q0 -217 97.5 -345t271.5 -128t271 128t97 345t-97 344t-271 127t-271.5 -127t-97.5 -344z" glyph-name="O" horiz-adv-x="1519" unicode="O"/><glyph d="M106 0v1434h580q274 0 410.5 -129t136.5 -351q0 -219 -136 -348t-411 -129h-272v-477h-308zM414 743h262q123 0 182.5 56.5t59.5 154.5q0 213 -242 213h-262v-424z" glyph-name="P" horiz-adv-x="1288" unicode="P"/><glyph d="M1253 -47l-125 125q-158 -98 -368 -98q-309 0 -496.5 203.5t-187.5 533.5q0 332 187.5 533.5t496.5 201.5t496.5 -201.5t187.5 -533.5q0 -270 -131 -463l125 -125zM391 717q0 -217 97.5 -345t271.5 -128q90 0 168 39l-195 196l185 176l172 -174q39 98 38 236 q0 217 -97 344t-271 127t-271.5 -127t-97.5 -344z" glyph-name="Q" horiz-adv-x="1519" unicode="Q"/><glyph d="M944 0l-272 477h-258v-477h-308v1434h580q274 0 410.5 -129t136.5 -351q0 -332 -287 -436l301 -518h-303zM414 743h262q123 0 182.5 56.5t59.5 154.5q0 213 -242 213h-262v-424z" glyph-name="R" horiz-adv-x="1302" unicode="R"/><glyph d="M674 -20q-281 0 -439.5 128t-158.5 361h317q4 -104 73 -170t210 -66q121 0 188.5 49.5t67.5 137.5q0 72 -48 110.5t-151 59.5l-201 41q-418 80 -417 401q0 203 149.5 311.5t403.5 108.5q258 0 404.5 -112.5t146.5 -329.5h-316q2 92 -64.5 140t-176.5 48 q-117 0 -171.5 -48t-54.5 -118q0 -121 170 -155l185 -37q250 -51 358 -151.5t108 -266.5q0 -221 -160.5 -331.5t-422.5 -110.5z" glyph-name="S" horiz-adv-x="1333" unicode="S"/><glyph d="M461 0v1161h-416v273h1139v-273h-416v-1161h-307z" glyph-name="T" horiz-adv-x="1228" unicode="T"/><glyph d="M698 -20q-274 0 -433 143t-159 422v889h310v-867q0 -158 73.5 -239.5t208.5 -81.5q133 0 207 82t74 239v867h309v-889q0 -279 -160 -422t-430 -143z" glyph-name="U" horiz-adv-x="1394" unicode="U"/><glyph d="M563 0l-518 1434h322l385 -1121h18l385 1121h322l-519 -1434h-395z" glyph-name="V" horiz-adv-x="1521" unicode="V"/><glyph d="M418 0l-373 1434h315l230 -1002h14l277 1002h315l277 -1002h14l229 1002h316l-373 -1434h-320l-301 1047l-301 -1047h-319z" glyph-name="W" horiz-adv-x="2076" unicode="W"/><glyph d="M1010 0l-316 477l-315 -477h-344l487 739l-459 695h345l286 -435l287 435h344l-459 -695l488 -739h-344z" glyph-name="X" horiz-adv-x="1388" unicode="X"/><glyph d="M563 0v526l-518 908h348l328 -611l330 611h348l-518 -908v-526h-318z" glyph-name="Y" horiz-adv-x="1443" unicode="Y"/><glyph d="M82 0v266l760 901h-744v267h1084l2 -267l-764 -901h770v-266h-1108z" glyph-name="Z" horiz-adv-x="1271" unicode="Z"/><glyph d="M106 -266v1792h451v-256h-151v-1280h151v-256h-451z" glyph-name="bracketleft" horiz-adv-x="663" unicode="["/><glyph d="M920 4h-302l-557 1430h299z" glyph-name="backslash" horiz-adv-x="980" unicode="\"/><glyph d="M557 -266h-451v256h152v1280h-152v256h451v-1792z" glyph-name="bracketright" horiz-adv-x="663" unicode="]"/><glyph d="M92 952l332 482h184l328 -482h-266l-156 238l-156 -238h-266z" glyph-name="asciicircum" horiz-adv-x="1028" unicode="^"/><glyph d="M92 -256v256h1024v-256h-1024z" glyph-name="underscore" horiz-adv-x="1208" unicode="_"/><glyph d="M215 1188l-215 287h258l217 -287h-260z" glyph-name="grave" horiz-adv-x="475" unicode="`"/><glyph d="M397 -20q-145 0 -243.5 74.5t-98.5 228.5q0 84 31 143t90.5 92t116.5 49.5t139 28.5l180 27q76 10 102.5 28.5t26.5 61.5v14q0 143 -166 143q-182 0 -182 -141v-18l-280 -2v49q0 328 471 327q238 0 344 -85t106 -261v-739h-284v188h-13q-10 -29 -30.5 -58.5t-58.5 -66 t-103.5 -60t-147.5 -23.5zM354 307q0 -115 146 -114q102 0 171.5 56t69.5 122v118q-16 -25 -114 -40l-150 -27q-123 -19 -123 -115z" glyph-name="a" horiz-adv-x="1140" unicode="a"/><glyph d="M719 -20q-113 0 -198 50t-115 124v-154h-300v1434h300v-523q31 74 115.5 124t197.5 50q188 0 327.5 -140t139.5 -412.5t-139.5 -412.5t-327.5 -140zM393 532.5q0 -147.5 74 -226.5t180 -79q109 0 182.5 79t73.5 226.5t-73.5 226.5t-182.5 79q-106 0 -180 -79t-74 -226.5z " glyph-name="b" horiz-adv-x="1241" unicode="b"/><glyph d="M592 -20q-102 0 -194.5 30.5t-171.5 94t-125 173t-46 253t46 254t124 174t171 95t196 31.5q80 0 151.5 -18t146.5 -62t125 -134.5t64 -217.5h-270q-37 182 -219 183q-123 0 -187.5 -84t-64.5 -221.5t64.5 -219.5t187.5 -82q180 0 219 187h270q-12 -127 -62 -218.5 t-125 -136.5t-147.5 -63t-152.5 -18z" glyph-name="c" horiz-adv-x="1140" unicode="c"/><glyph d="M522 -20q-188 0 -327.5 140t-139.5 412.5t139.5 412.5t327.5 140q113 0 198 -50t116 -124v523h299v-1434h-299v154q-31 -74 -116 -124t-198 -50zM338 532.5q0 -147.5 73.5 -226.5t182.5 -79q106 0 180 79t74 226.5t-74 226.5t-180 79q-109 0 -182.5 -79t-73.5 -226.5z " glyph-name="d" horiz-adv-x="1241" unicode="d"/><glyph d="M592 -20q-106 0 -198.5 30.5t-170.5 94t-123 174t-45 256.5q0 281 151.5 415.5t383.5 134.5q225 0 365.5 -131t140.5 -415q0 -47 -6 -82h-750q23 -250 256 -250q180 0 221 141h264q-39 -178 -169 -273t-320 -95zM340 633h473q-4 100 -60.5 162.5t-170.5 62.5 q-211 0 -242 -225z" glyph-name="e" horiz-adv-x="1150" unicode="e"/><glyph d="M186 1135q0 332 351 331h159v-227h-88q-123 0 -123 -135v-39h205v-229h-205v-836h-299v836h-151v229h151v70z" glyph-name="f" horiz-adv-x="747" unicode="f"/><glyph d="M506 27q-84 0 -162 29.5t-143.5 89t-105.5 166t-40 245.5q0 266 134.5 397t316.5 131q207 0 313 -143v123h299v-1026q0 -139 -53 -237.5t-142 -145.5t-173 -65.5t-179 -18.5q-63 0 -122.5 7t-130 31.5t-121 62.5t-85 106.5t-34.5 159.5h264q4 -70 69.5 -103t151.5 -33 q113 0 184.5 58.5t71.5 177.5v131q-106 -143 -313 -143zM338 557q0 -137 70.5 -209t179.5 -72q104 0 175 72t71 209q0 135 -71 208t-175 73q-109 0 -179.5 -72t-70.5 -209z" glyph-name="g" horiz-adv-x="1224" unicode="g"/><glyph d="M106 0v1434h300v-592h12q16 92 103 167.5t237 75.5q162 0 264 -105.5t102 -303.5v-676h-299v604q0 233 -196 234q-100 0 -161.5 -58.5t-61.5 -175.5v-604h-300z" glyph-name="h" unicode="h"/><glyph d="M106 0v1065h300v-1065h-300zM92 1354q0 70 49 118t115 48t115 -48.5t49 -117.5q0 -68 -49 -116t-115 -48t-115 48t-49 116z" glyph-name="i" horiz-adv-x="512" unicode="i"/><glyph d="M80 -399q-115 0 -174 6v233h104q121 0 121 140v1085h299v-1131q0 -333 -350 -333zM117 1354q0 70 49 118t114.5 48t114.5 -48.5t49 -117.5q0 -68 -49 -116t-114.5 -48t-114.5 48t-49 116z" glyph-name="j" horiz-adv-x="536" unicode="j"/><glyph d="M106 0v1434h300v-807l391 438h329l-430 -453l486 -612h-330l-340 420l-106 -113v-307h-300z" glyph-name="k" horiz-adv-x="1196" unicode="k"/><glyph d="M106 0v1434h300v-1434h-300z" glyph-name="l" horiz-adv-x="512" unicode="l"/><glyph d="M1442 604q0 233 -176 234q-86 0 -139.5 -59.5t-53.5 -174.5v-604h-299v604q0 233 -176 234q-86 0 -139 -59.5t-53 -174.5v-604h-300v1065h300v-223h12q14 88 98 165.5t213 77.5q115 0 200 -62t122 -181q18 88 109 165.5t229 77.5q158 0 255 -104t97 -305v-676h-299v604z " glyph-name="m" horiz-adv-x="1847" unicode="m"/><glyph d="M825 604q0 233 -196 234q-100 0 -161.5 -58.5t-61.5 -175.5v-604h-300v1065h300v-223h12q16 92 103 167.5t237 75.5q162 0 264 -105.5t102 -303.5v-676h-299v604z" glyph-name="n" unicode="n"/><glyph d="M590 -20q-221 0 -378 140t-157 412.5t157 412.5t378 140t377.5 -140t156.5 -412.5t-156.5 -412.5t-377.5 -140zM336 532.5q0 -151.5 69.5 -228.5t184.5 -77t184.5 77t69.5 228.5t-69.5 228.5t-184.5 77t-184.5 -77t-69.5 -228.5z" glyph-name="o" horiz-adv-x="1179" unicode="o"/><glyph d="M106 -389v1454h300v-154q31 74 115.5 124t197.5 50q188 0 327.5 -140t139.5 -412.5t-139.5 -412.5t-327.5 -140q-113 0 -198 50t-115 124v-543h-300zM393 532.5q0 -147.5 74 -226.5t180 -79q109 0 182.5 79t73.5 226.5t-73.5 226.5t-182.5 79q-106 0 -180 -79t-74 -226.5 z" glyph-name="p" horiz-adv-x="1241" unicode="p"/><glyph d="M1135 -389h-299v543q-31 -74 -116 -124t-198 -50q-188 0 -327.5 140t-139.5 412.5t139.5 412.5t327.5 140q113 0 198 -50t116 -124v154h299v-1454zM338 532.5q0 -147.5 73.5 -226.5t182.5 -79q106 0 180 79t74 226.5t-74 226.5t-180 79q-109 0 -182.5 -79t-73.5 -226.5z " glyph-name="q" horiz-adv-x="1241" unicode="q"/><glyph d="M406 471v-471h-300v1065h300v-258h8q29 123 106.5 194.5t200.5 71.5q43 0 82 -10v-252q-49 6 -84 6q-135 0 -224 -83t-89 -263z" glyph-name="r" horiz-adv-x="837" unicode="r"/><glyph d="M506 -20q-217 0 -338 94t-123 276h268q14 -147 195 -147q168 0 168 110q0 74 -103 95l-196 41q-303 70 -303 311q0 154 119.5 239.5t316.5 85.5q211 0 322.5 -97t115.5 -271h-250q-16 145 -184 145q-150 0 -149 -94q0 -80 110 -102l201 -43q307 -68 307 -304 q0 -170 -134 -254.5t-343 -84.5z" glyph-name="s" horiz-adv-x="1028" unicode="s"/><glyph d="M569 -14q-354 0 -354 333v515h-180v231h180v274h299v-274h211v-231h-211v-472q0 -68 28.5 -102.5t106.5 -34.5q41 0 84 4v-223q-78 -20 -164 -20z" glyph-name="t" horiz-adv-x="778" unicode="t"/><glyph d="M406 461q0 -233 196 -234q100 0 161.5 58.5t61.5 175.5v604h299v-1065h-299v223h-12q-16 -92 -103 -167.5t-237 -75.5q-162 0 -264.5 105t-102.5 304v676h300v-604z" glyph-name="u" unicode="u"/><glyph d="M422 0l-387 1065h305l266 -778h10l267 778h303l-387 -1065h-377z" glyph-name="v" horiz-adv-x="1220" unicode="v"/><glyph d="M319 0l-284 1065h282l183 -776h8l211 776h258l211 -776h8l182 776h283l-285 -1065h-334l-194 668l-193 -668h-336z" glyph-name="w" horiz-adv-x="1695" unicode="w"/><glyph d="M55 0l369 539l-346 526h321l195 -311l194 311h322l-346 -526l369 -539h-322l-217 324l-217 -324h-322z" glyph-name="x" horiz-adv-x="1187" unicode="x"/><glyph d="M141 -158q98 -12 163 5.5t86.5 42t37.5 61.5q29 70 -2 145l-391 969h307l248 -688l254 688h307l-436 -1073q-100 -250 -223 -338t-351 -64v252z" glyph-name="y" horiz-adv-x="1185" unicode="y"/><glyph d="M82 0v250l522 565h-502v250h861v-250l-525 -565h525v-250h-881z" glyph-name="z" horiz-adv-x="1044" unicode="z"/><glyph d="M416 -266q-92 0 -162 50t-70 181v516l-92 146l92 149v518q0 131 71 181.5t161 50.5h211v-256h-72q-72 0 -72 -62v-442l-114 -139l114 -135v-441q0 -61 72 -61h72v-256h-211z" glyph-name="braceleft" horiz-adv-x="718" unicode="{"/><glyph d="M154 -389v2027h256v-2027h-256z" glyph-name="bar" horiz-adv-x="563" unicode="|"/><glyph d="M303 -266h-211v256h72q72 0 72 61v441l114 135l-114 139v442q0 61 -72 62h-72v256h211q90 0 161 -50.5t71 -181.5v-518l92 -149l-92 -146v-516q0 -131 -70 -181t-162 -50z" glyph-name="braceright" horiz-adv-x="718" unicode="}"/><glyph d="M844 389q-70 0 -137.5 32t-111.5 68.5t-99.5 68.5t-102.5 32t-77.5 -26.5t-30.5 -71.5h-179q-6 121 68 200.5t195 79.5q70 0 137 -31.5t111.5 -68.5t99.5 -69t102 -32t78 27t31 72h178q6 -121 -68.5 -201t-193.5 -80z" glyph-name="asciitilde" horiz-adv-x="1212" unicode="~"/><glyph glyph-name="uni00A0" horiz-adv-x="471" unicode=" "/><glyph d="M174 567h227l37 -936h-303zM106 907.5q0 73.5 53.5 125.5t127.5 52q76 0 129 -51t53 -127q0 -74 -53.5 -126t-128.5 -52q-74 0 -127.5 52.5t-53.5 126z" glyph-name="exclamdown" horiz-adv-x="575" unicode="¡"/><glyph d="M528 -82v217q-203 20 -338 154.5t-135 384.5t136.5 385t336.5 155v220h105v-220q76 -4 142.5 -25.5t133 -65.5t112.5 -128t58 -200h-270q-33 156 -176 176v-590q143 23 176 180h270q-10 -117 -55 -202t-111.5 -131t-135 -67.5t-144.5 -25.5v-217h-105zM338 674 q0 -117 48 -194t142 -95v582q-94 -18 -142 -97t-48 -196z" glyph-name="cent" horiz-adv-x="1140" unicode="¢"/><glyph d="M88 156q195 182 195 344q0 47 -13 90h-184v160h104q-82 143 -81 268q0 195 142 312.5t353 117.5q207 0 350.5 -113.5t143.5 -312.5v-39h-283v31q0 66 -49 122t-160 56q-109 0 -158 -55.5t-49 -130.5q0 -33 11.5 -70t22.5 -58.5t38 -66.5t35 -61h227v-160h-168 q2 -12 2 -39q0 -168 -196 -318q102 35 223 24t218 -28.5t273 23.5v-252q-123 -27 -245.5 -19.5t-212.5 30t-205 19.5t-223 -50z" glyph-name="sterling" horiz-adv-x="1183" unicode="£"/><glyph d="M610 516q-135 0 -243 70l-78 -78l-189 188l90 90q-39 90 -38 189q0 100 43 196l-95 95l189 188l86 -86q106 66 235 66q133 0 242 -68l88 88l190 -188l-102 -103q41 -88 41 -188q0 -98 -37 -180l98 -99l-190 -188l-82 82q-113 -74 -248 -74zM395 975q0 -72 50.5 -143.5 t165 -71.5t165.5 71.5t51 143.5q0 70 -51 142.5t-165.5 72.5t-165 -72.5t-50.5 -142.5z" glyph-name="currency" unicode="¤"/><glyph d="M324 389v148h233l-512 897h348l328 -611l330 611h348l-512 -897h239v-148h-245v-76h245v-147h-245v-166h-318v166h-239v147h239v76h-239z" glyph-name="yen" horiz-adv-x="1443" unicode="¥"/><glyph d="M154 983v655h256v-655h-256zM154 -389v655h256v-655h-256z" glyph-name="brokenbar" horiz-adv-x="563" unicode="¦"/><glyph d="M702 -483q-266 0 -423.5 121.5t-176.5 353.5h334q31 -197 269 -197q123 0 190.5 40t67.5 112q0 78 -45.5 114.5t-157.5 63.5l-185 41q-100 25 -169.5 52.5t-134 73.5t-96.5 118.5t-32 171.5q0 139 86 241q-66 88 -65 226q0 186 149.5 293.5t397.5 107.5q240 0 391 -107.5 t176 -320.5h-334q-20 150 -233 149q-109 0 -160 -37.5t-51 -93.5q0 -51 30.5 -85.5t112.5 -55.5l217 -51q246 -55 352.5 -157.5t106.5 -287.5q0 -135 -82 -233q61 -88 61 -227q0 -215 -168 -320.5t-428 -105.5zM479 573q0 -51 31 -85.5t113 -55.5l217 -51q59 -12 129 -35 q14 27 14 62q0 80 -46 119.5t-157 64.5l-184 41q-37 8 -86 22q-31 -37 -31 -82z" glyph-name="section" horiz-adv-x="1421" unicode="§"/><glyph d="M655 1190q-68 0 -115.5 47t-47.5 114.5t48 113.5t115 46q66 0 115 -47t49 -112q0 -68 -49 -115t-115 -47zM0 1352q0 66 49 112.5t115 46.5q68 0 116 -46t48 -113.5t-48.5 -114.5t-115.5 -47q-66 0 -115 47t-49 115z" glyph-name="dieresis" horiz-adv-x="819" unicode="¨"/><glyph d="M807 -14q-307 0 -519 207.5t-212 523.5q0 313 213 521t518 208t518 -208t213 -521q0 -315 -212 -523t-519 -208zM248 717q0 -246 161.5 -405.5t397 -159.5t397.5 159.5t162 405.5q0 244 -162 403.5t-397.5 159.5t-397 -159.5t-161.5 -403.5zM418 716.5q0 184.5 115.5 294 t281.5 109.5q121 0 221.5 -64.5t132.5 -228.5h-182q-12 59 -60 90t-114 31q-90 0 -148.5 -59.5t-58.5 -172t58.5 -173t148.5 -60.5q66 0 114 32t64 93h178q-20 -113 -83.5 -183.5t-129 -92t-141.5 -21.5q-166 0 -281.5 110.5t-115.5 295z" glyph-name="copyright" horiz-adv-x="1613" unicode="©"/><glyph d="M279 766q-94 0 -159 49t-65 154q0 184 244 202l197 13q2 74 -26 102.5t-89 28.5q-121 0 -121 -88h-172q2 240 297 239q170 0 234.5 -79.5t64.5 -253.5v-363h-160l-10 117q-29 -53 -93 -87t-142 -34zM258 991q0 -68 90 -67q59 0 98 27.5t50 70.5v49l-154 -10 q-84 -7 -84 -70z" glyph-name="ordfeminine" horiz-adv-x="790" unicode="ª"/><glyph d="M866 201l-354 286v246l354 287v-270l-172 -140l172 -139v-270zM82 487v246l354 287v-270l-172 -140l172 -139v-270z" glyph-name="guillemotleft" horiz-adv-x="948" unicode="«"/><glyph d="M694 205v205h-588v229h887v-434h-299z" glyph-name="logicalnot" horiz-adv-x="1099" unicode="¬"/><glyph d="M82 453v225h631v-225h-631z" glyph-name="uni00AD" horiz-adv-x="794" unicode="­"/><glyph d="M807 -14q-307 0 -519 207.5t-212 523.5q0 313 213 521t518 208t518 -208t213 -521q0 -315 -212 -523t-519 -208zM248 717q0 -246 161.5 -405.5t397 -159.5t397.5 159.5t162 405.5q0 244 -162 403.5t-397.5 159.5t-397 -159.5t-161.5 -403.5zM508 371v694h377 q131 0 201.5 -64.5t68.5 -175.5q-4 -162 -151 -215l161 -239h-192l-146 221h-135v-221h-184zM692 737h174q113 0 113 92q0 86 -113 86h-174v-178z" glyph-name="registered" horiz-adv-x="1613" unicode="®"/><glyph d="M0 1300v175h672v-175h-672z" glyph-name="macron" horiz-adv-x="671" unicode="¯"/><glyph d="M371 862q-133 0 -219 87t-86 214q0 129 86 216t219 87t219 -87t86 -216q0 -127 -86 -214t-219 -87zM266 1163q0 -41 28 -72.5t77 -31.5q51 0 77.5 31.5t26.5 72.5t-26.5 73t-77.5 32q-49 0 -77 -32t-28 -73z" glyph-name="degree" horiz-adv-x="741" unicode="°"/><glyph d="M481 401v375h-375v258h375v373h275v-373h377v-258h-377v-375h-275zM268 0v225h701v-225h-701z" glyph-name="plusminus" horiz-adv-x="1239" unicode="±"/><glyph d="M82 915q0 90 28.5 146.5t118.5 109.5q8 4 26.5 14.5t26 14.5t19.5 13.5t17.5 17.5t9.5 19.5t4 25.5q0 31 -20.5 47t-45.5 16q-27 0 -48 -18t-21 -55v-17h-115v17q0 80 46 129t138 49q90 0 138.5 -47t48.5 -121q0 -18 -4.5 -34.5t-9.5 -30t-17 -28t-20.5 -21.5t-28 -21.5 t-27.5 -19.5t-31.5 -20.5t-31.5 -19.5q-70 -37 -70 -71v-6h240v-103h-371v14z" glyph-name="uni00B2" horiz-adv-x="544" unicode="²"/><glyph d="M279 893q-96 0 -146.5 48t-50.5 126h111q4 -82 88 -82q90 0 90 78q0 76 -103 76h-22v84h22q80 0 80 67q0 27 -18.5 44.5t-50.5 17.5q-31 0 -52.5 -19.5t-21.5 -56.5h-105q0 80 49.5 124t133.5 44q82 0 129 -39t47 -102q0 -45 -26.5 -77t-63.5 -40q41 -2 77.5 -35 t36.5 -96q0 -72 -56 -117t-148 -45z" glyph-name="uni00B3" horiz-adv-x="565" unicode="³"/><glyph d="M0 1188l215 287h260l-217 -287h-258z" glyph-name="acute" horiz-adv-x="475" unicode="´"/><glyph d="M106 -389v1454h300v-604q0 -233 196 -234q100 0 161.5 58.5t61.5 175.5v604h299v-1065h-299v223h-12q-16 -92 -103 -167.5t-237 -75.5q-23 0 -67 4v-373h-300z" glyph-name="uni00B5" unicode="µ"/><glyph d="M621 -451v1047h-97q-219 0 -344 125t-125 293q0 172 125 296t344 124h797v-1885h-242v1708h-192v-1708h-266z" glyph-name="paragraph" horiz-adv-x="1427" unicode="¶"/><glyph d="M266 391q-74 0 -127 52.5t-53 126t53.5 126t126.5 52.5q76 0 129.5 -52.5t53.5 -126.5q0 -76 -53.5 -127t-129.5 -51z" glyph-name="periodcentered" horiz-adv-x="534" unicode="·"/><glyph d="M76 -369q59 -4 98 15.5t39 58.5q0 45 -45 59.5t-88 -14.5l-80 98l137 152h197l-109 -106h15q78 0 128 -54.5t50 -138.5q0 -117 -98.5 -167t-243.5 -50v147z" glyph-name="cedilla" horiz-adv-x="417" unicode="¸"/><glyph d="M199 1288q-33 -57 -117 -37v109q37 -4 70.5 19.5t46.5 54.5h110v-535h-110v389z" glyph-name="uni00B9" horiz-adv-x="401" unicode="¹"/><glyph d="M405.5 766q-145.5 0 -248 96t-102.5 258q0 160 101.5 253t249 93t249 -93t101.5 -253q0 -162 -102.5 -258t-248 -96zM244 1120q0 -74 45 -122t117 -48q74 0 117.5 47t43.5 123q0 72 -44 117t-117.5 45t-117.5 -45t-44 -117z" glyph-name="ordmasculine" horiz-adv-x="811" unicode="º"/><glyph d="M96 201v270l172 139l-172 140v270l355 -287v-246zM526 201v270l172 139l-172 140v270l355 -287v-246z" glyph-name="guillemotright" horiz-adv-x="952" unicode="»"/><glyph d="M199 1288q-33 -57 -117 -37v109q37 -4 70.5 19.5t46.5 54.5h110v-535h-110v389zM74 0l893 1434h149l-893 -1434h-149zM737 135v88l240 312h110v-312h62v-88h-62v-135h-110v135h-240zM834 223h143v185z" glyph-name="onequarter" horiz-adv-x="1241" unicode="¼"/><glyph d="M193 1288q-33 -57 -117 -37v109q37 -4 70.5 19.5t46.5 54.5h110v-535h-110v389zM84 0l893 1434h149l-893 -1434h-149zM754 0v14q0 90 28.5 146.5t118.5 109.5q8 4 26.5 14.5t26 14.5t19.5 13.5t17 17.5t9.5 19t4.5 26q0 31 -20.5 47t-45.5 16q-27 0 -48.5 -18.5 t-21.5 -54.5v-17h-114v17q0 80 46 129t138 49q90 0 138 -47t48 -121q0 -18 -4 -34.5t-9 -30t-17.5 -28t-20.5 -21.5t-27.5 -21.5t-27.5 -19.5t-31.5 -20.5t-32.5 -19.5q-70 -37 -69 -71v-7h239v-102h-370z" glyph-name="onehalf" horiz-adv-x="1216" unicode="½"/><glyph d="M279 893q-96 0 -146.5 48t-50.5 126h111q4 -82 88 -82q90 0 90 78q0 76 -103 76h-22v84h22q80 0 80 67q0 27 -18.5 44.5t-50.5 17.5q-31 0 -52.5 -19.5t-21.5 -56.5h-105q0 80 49.5 124t133.5 44q82 0 129 -39t47 -102q0 -45 -26.5 -77t-63.5 -40q41 -2 77.5 -35 t36.5 -96q0 -72 -56 -117t-148 -45zM68 0l893 1434h149l-893 -1434h-149zM780 135v88l240 312h110v-312h62v-88h-62v-135h-110v135h-240zM877 223h143v185z" glyph-name="threequarters" horiz-adv-x="1243" unicode="¾"/><glyph d="M707 545q0 -96 -33 -168t-79 -113t-92 -74.5t-79 -72.5t-33 -86q0 -63 41 -110.5t133 -47.5q203 0 203 240h299q4 -254 -137.5 -375t-364.5 -121q-211 0 -342 108.5t-131 305.5q0 84 31 144.5t74 96t86 68.5t73.5 84t30.5 121v53h320v-53zM373 907q0 76 53 127t129 51 q74 0 127 -52t53 -125.5t-53 -126t-127 -52.5q-76 0 -129 52t-53 126z" glyph-name="questiondown" horiz-adv-x="1159" unicode="¿"/><glyph d="M35 0l518 1434h395l518 -1434h-321l-92 268h-604l-93 -268h-321zM438 1843h258l217 -287h-260zM526 496h449l-215 624h-19z" glyph-name="Agrave" horiz-adv-x="1501" unicode="À"/><glyph d="M35 0l518 1434h395l518 -1434h-321l-92 268h-604l-93 -268h-321zM526 496h449l-215 624h-19zM612 1556l215 287h260l-217 -287h-258z" glyph-name="Aacute" horiz-adv-x="1501" unicode="Á"/><glyph d="M35 0l518 1434h395l518 -1434h-321l-92 268h-604l-93 -268h-321zM342 1556l199 287h417l199 -287h-268l-139 209l-140 -209h-268zM526 496h449l-215 624h-19z" glyph-name="Acircumflex" horiz-adv-x="1501" unicode="Â"/><glyph d="M35 0l518 1434h395l518 -1434h-321l-92 268h-604l-93 -268h-321zM395 1628q0 113 53.5 175.5t151.5 62.5q53 0 96 -17.5t66.5 -39t50.5 -39t51 -17.5q23 0 45.5 13.5t22.5 43.5h176q0 -113 -53.5 -174t-151.5 -61q-53 0 -96 17.5t-66.5 39t-50 39t-51.5 17.5 q-23 0 -45.5 -13.5t-22.5 -46.5h-176zM526 496h449l-215 624h-19z" glyph-name="Atilde" horiz-adv-x="1501" unicode="Ã"/><glyph d="M35 0l518 1434h395l518 -1434h-321l-92 268h-604l-93 -268h-321zM340 1720q0 66 49 113t115 47q68 0 116 -46t48 -113.5t-48.5 -114.5t-115.5 -47q-66 0 -115 46.5t-49 114.5zM526 496h449l-215 624h-19zM831 1720.5q0 67.5 48.5 113.5t115.5 46q66 0 115 -47t49 -113 q0 -68 -49 -114.5t-115 -46.5q-68 0 -116 47t-48 114.5z" glyph-name="Adieresis" horiz-adv-x="1501" unicode="Ä"/><glyph d="M35 0l518 1434h395l518 -1434h-321l-92 268h-604l-93 -268h-321zM526 496h449l-215 624h-19zM539 1716q0 86 61.5 145.5t149.5 59.5q90 0 151.5 -59.5t61.5 -145.5t-61.5 -145.5t-151.5 -59.5q-88 0 -149.5 59.5t-61.5 145.5zM678 1716q0 -33 20.5 -52t51 -19t52 20.5 t21.5 50.5q0 33 -21.5 53.5t-52 20.5t-51 -20.5t-20.5 -53.5z" glyph-name="Aring" horiz-adv-x="1501" unicode="Å"/><glyph d="M35 0l919 1434h1026v-267h-671v-321h610v-240h-610v-340h692v-266h-1000v264h-475l-168 -264h-323zM676 496h325v512z" glyph-name="AE" horiz-adv-x="2056" unicode="Æ"/><glyph d="M610 -369q59 -4 98.5 15.5t39.5 58.5q0 45 -45.5 59.5t-88.5 -14.5l-79 98l122 136q-272 29 -426.5 221t-154.5 512q0 344 182 539.5t496 195.5q248 0 410.5 -130t183.5 -386h-299q-57 252 -306 252q-178 0 -266 -130t-88 -341q0 -213 87 -343t267 -130q248 0 306 254 h299q-18 -229 -151.5 -357.5t-342.5 -154.5l-94 -92h14q78 0 128 -54.5t50 -138.5q0 -117 -98 -167t-244 -50v147z" glyph-name="Ccedilla" horiz-adv-x="1409" unicode="Ç"/><glyph d="M106 0v1434h979v-267h-671v-321h610v-240h-610v-340h692v-266h-1000zM305 1843h258l217 -287h-260z" glyph-name="Egrave" horiz-adv-x="1161" unicode="È"/><glyph d="M106 0v1434h979v-267h-671v-321h610v-240h-610v-340h692v-266h-1000zM481 1556l215 287h260l-217 -287h-258z" glyph-name="Eacute" horiz-adv-x="1161" unicode="É"/><glyph d="M106 0v1434h979v-267h-671v-321h610v-240h-610v-340h692v-266h-1000zM211 1556l199 287h417l199 -287h-268l-140 209l-139 -209h-268z" glyph-name="Ecircumflex" horiz-adv-x="1161" unicode="Ê"/><glyph d="M106 0v1434h979v-267h-671v-321h610v-240h-610v-340h692v-266h-1000zM207 1720q0 66 49 113t115 47q68 0 116 -46t48 -113.5t-48.5 -114.5t-115.5 -47q-66 0 -115 46.5t-49 114.5zM698 1720.5q0 67.5 48.5 113.5t115.5 46q66 0 115 -47t49 -113q0 -68 -49 -114.5 t-115 -46.5q-68 0 -116 47t-48 114.5z" glyph-name="Edieresis" horiz-adv-x="1161" unicode="Ë"/><glyph d="M106 0v1434h308v-1434h-308zM-57 1843h258l217 -287h-260z" glyph-name="Igrave" horiz-adv-x="520" unicode="Ì"/><glyph d="M106 0v1434h308v-1434h-308zM119 1556l215 287h260l-217 -287h-258z" glyph-name="Iacute" horiz-adv-x="520" unicode="Í"/><glyph d="M106 0v1434h308v-1434h-308zM-152 1556l199 287h418l199 -287h-269l-139 209l-139 -209h-269z" glyph-name="Icircumflex" horiz-adv-x="520" unicode="Î"/><glyph d="M106 0v1434h308v-1434h-308zM-156 1720q0 66 49.5 113t114.5 47q68 0 116 -46t48 -113.5t-48 -114.5t-116 -47q-66 0 -115 46.5t-49 114.5zM336 1720.5q0 67.5 48 113.5t116 46q66 0 115 -47t49 -113q0 -68 -49.5 -114.5t-114.5 -46.5q-68 0 -116 47t-48 114.5z" glyph-name="Idieresis" horiz-adv-x="520" unicode="Ï"/><glyph d="M176 0v592h-135v225h135v617h543q334 0 506 -184.5t172 -532.5t-172 -532.5t-506 -184.5h-543zM483 266h205q217 0 306 105.5t89 345t-89 345t-306 105.5h-205v-350h189v-225h-189v-326z" glyph-name="Eth" horiz-adv-x="1472" unicode="Ð"/><glyph d="M106 0v1434h320l578 -942h6v942h307v-1434h-332l-565 924h-6v-924h-308zM356 1628q0 113 53.5 175.5t151.5 62.5q53 0 96 -17.5t67 -39t50.5 -39t50.5 -17.5q23 0 45.5 13.5t22.5 43.5h176q0 -113 -53 -174t-152 -61q-53 0 -96 17.5t-66.5 39t-50 39t-51.5 17.5 q-23 0 -45.5 -13.5t-22.5 -46.5h-176z" glyph-name="Ntilde" horiz-adv-x="1423" unicode="Ñ"/><glyph d="M760 -20q-309 0 -496.5 203.5t-187.5 533.5q0 332 187.5 533.5t496.5 201.5t496.5 -201.5t187.5 -533.5q0 -330 -187.5 -533.5t-496.5 -203.5zM391 717q0 -217 97.5 -345t271.5 -128t271 128t97 345t-97 344t-271 127t-271.5 -127t-97.5 -344zM444 1843h258l218 -287 h-261z" glyph-name="Ograve" horiz-adv-x="1519" unicode="Ò"/><glyph d="M760 -20q-309 0 -496.5 203.5t-187.5 533.5q0 332 187.5 533.5t496.5 201.5t496.5 -201.5t187.5 -533.5q0 -330 -187.5 -533.5t-496.5 -203.5zM391 717q0 -217 97.5 -345t271.5 -128t271 128t97 345t-97 344t-271 127t-271.5 -127t-97.5 -344zM621 1556l215 287h260 l-217 -287h-258z" glyph-name="Oacute" horiz-adv-x="1519" unicode="Ó"/><glyph d="M760 -20q-309 0 -496.5 203.5t-187.5 533.5q0 332 187.5 533.5t496.5 201.5t496.5 -201.5t187.5 -533.5q0 -330 -187.5 -533.5t-496.5 -203.5zM350 1556l199 287h418l198 -287h-268l-139 209l-140 -209h-268zM391 717q0 -217 97.5 -345t271.5 -128t271 128t97 345 t-97 344t-271 127t-271.5 -127t-97.5 -344z" glyph-name="Ocircumflex" horiz-adv-x="1519" unicode="Ô"/><glyph d="M760 -20q-309 0 -496.5 203.5t-187.5 533.5q0 332 187.5 533.5t496.5 201.5t496.5 -201.5t187.5 -533.5q0 -330 -187.5 -533.5t-496.5 -203.5zM391 717q0 -217 97.5 -345t271.5 -128t271 128t97 345t-97 344t-271 127t-271.5 -127t-97.5 -344zM403 1628q0 113 53.5 175.5 t151.5 62.5q53 0 96.5 -17.5t67 -39t50 -39t50.5 -17.5q23 0 45.5 13.5t22.5 43.5h176q0 -113 -53 -174t-152 -61q-53 0 -96 17.5t-66.5 39t-50 39t-51.5 17.5q-23 0 -45 -13.5t-22 -46.5h-177z" glyph-name="Otilde" horiz-adv-x="1519" unicode="Õ"/><glyph d="M760 -20q-309 0 -496.5 203.5t-187.5 533.5q0 332 187.5 533.5t496.5 201.5t496.5 -201.5t187.5 -533.5q0 -330 -187.5 -533.5t-496.5 -203.5zM346 1720q0 66 49 113t115 47q68 0 116 -46t48 -113.5t-48 -114.5t-116 -47q-66 0 -115 46.5t-49 114.5zM391 717 q0 -217 97.5 -345t271.5 -128t271 128t97 345t-97 344t-271 127t-271.5 -127t-97.5 -344zM838 1720.5q0 67.5 48 113.5t115 46q66 0 115 -47t49 -113q0 -68 -49 -114.5t-115 -46.5q-68 0 -115.5 47t-47.5 114.5z" glyph-name="Odieresis" horiz-adv-x="1519" unicode="Ö"/><glyph d="M287 59l-185 181l275 274l-275 270l185 181l270 -271l272 271l185 -181l-273 -270l273 -274l-185 -181l-272 271z" glyph-name="multiply" horiz-adv-x="1116" unicode="×"/><glyph d="M203 -102l121 227q-248 207 -248 592q0 332 187.5 533.5t496.5 201.5q127 0 248 -39l59 113h250l-117 -221q244 -205 244 -588q0 -330 -187.5 -533.5t-496.5 -203.5q-127 0 -244 38l-63 -120h-250zM391 717q0 -197 78 -318l410 770q-55 18 -119 19q-174 0 -271.5 -127 t-97.5 -344zM645 260q55 -16 115 -16q174 0 271 128t97 345q0 190 -75 313z" glyph-name="Oslash" horiz-adv-x="1519" unicode="Ø"/><glyph d="M698 -20q-274 0 -433 143t-159 422v889h310v-867q0 -158 73.5 -239.5t208.5 -81.5q133 0 207 82t74 239v867h309v-889q0 -279 -160 -422t-430 -143zM358 1843h258l218 -287h-261z" glyph-name="Ugrave" horiz-adv-x="1394" unicode="Ù"/><glyph d="M698 -20q-274 0 -433 143t-159 422v889h310v-867q0 -158 73.5 -239.5t208.5 -81.5q133 0 207 82t74 239v867h309v-889q0 -279 -160 -422t-430 -143zM535 1556l215 287h260l-217 -287h-258z" glyph-name="Uacute" horiz-adv-x="1394" unicode="Ú"/><glyph d="M698 -20q-274 0 -433 143t-159 422v889h310v-867q0 -158 73.5 -239.5t208.5 -81.5q133 0 207 82t74 239v867h309v-889q0 -279 -160 -422t-430 -143zM264 1556l199 287h418l198 -287h-268l-139 209l-140 -209h-268z" glyph-name="Ucircumflex" horiz-adv-x="1394" unicode="Û"/><glyph d="M698 -20q-274 0 -433 143t-159 422v889h310v-867q0 -158 73.5 -239.5t208.5 -81.5q133 0 207 82t74 239v867h309v-889q0 -279 -160 -422t-430 -143zM260 1720q0 66 49 113t115 47q68 0 116 -46t48 -113.5t-48 -114.5t-116 -47q-66 0 -115 46.5t-49 114.5zM752 1720.5 q0 67.5 48 113.5t115 46q66 0 115 -47t49 -113q0 -68 -49 -114.5t-115 -46.5q-68 0 -115.5 47t-47.5 114.5z" glyph-name="Udieresis" horiz-adv-x="1394" unicode="Ü"/><glyph d="M563 0v526l-518 908h348l328 -611l330 611h348l-518 -908v-526h-318zM582 1556l215 287h260l-217 -287h-258z" glyph-name="Yacute" horiz-adv-x="1443" unicode="Ý"/><glyph d="M106 0v1434h308v-238h272q274 0 410.5 -129t136.5 -348q0 -221 -136 -350t-411 -129h-272v-240h-308zM414 508h262q242 0 242 211q0 98 -59.5 154.5t-182.5 56.5h-262v-422z" glyph-name="Thorn" horiz-adv-x="1288" unicode="Þ"/><glyph d="M106 969q0 483 512 483q229 0 366.5 -90t137.5 -277q0 -131 -65.5 -206.5t-143.5 -77.5q123 -12 212 -106.5t89 -266.5q0 -201 -139 -314.5t-424 -113.5h-76v256h76q264 0 264 205q0 203 -297 203h-43v225h43q205 0 205 153.5t-200 153.5q-217 0 -217 -227v-969h-300v969 z" glyph-name="germandbls" horiz-adv-x="1269" unicode="ß"/><glyph d="M397 -20q-145 0 -243.5 74.5t-98.5 228.5q0 84 31 143t90.5 92t116.5 49.5t139 28.5l180 27q76 10 102.5 28.5t26.5 61.5v14q0 143 -166 143q-182 0 -182 -141v-18l-280 -2v49q0 328 471 327q238 0 344 -85t106 -261v-739h-284v188h-13q-10 -29 -30.5 -58.5t-58.5 -66 t-103.5 -60t-147.5 -23.5zM266 1475h258l217 -287h-260zM354 307q0 -115 146 -114q102 0 171.5 56t69.5 122v118q-16 -25 -114 -40l-150 -27q-123 -19 -123 -115z" glyph-name="agrave" horiz-adv-x="1140" unicode="à"/><glyph d="M397 -20q-145 0 -243.5 74.5t-98.5 228.5q0 84 31 143t90.5 92t116.5 49.5t139 28.5l180 27q76 10 102.5 28.5t26.5 61.5v14q0 143 -166 143q-182 0 -182 -141v-18l-280 -2v49q0 328 471 327q238 0 344 -85t106 -261v-739h-284v188h-13q-10 -29 -30.5 -58.5t-58.5 -66 t-103.5 -60t-147.5 -23.5zM354 307q0 -115 146 -114q102 0 171.5 56t69.5 122v118q-16 -25 -114 -40l-150 -27q-123 -19 -123 -115zM442 1188l215 287h261l-218 -287h-258z" glyph-name="aacute" horiz-adv-x="1140" unicode="á"/><glyph d="M397 -20q-145 0 -243.5 74.5t-98.5 228.5q0 84 31 143t90.5 92t116.5 49.5t139 28.5l180 27q76 10 102.5 28.5t26.5 61.5v14q0 143 -166 143q-182 0 -182 -141v-18l-280 -2v49q0 328 471 327q238 0 344 -85t106 -261v-739h-284v188h-13q-10 -29 -30.5 -58.5t-58.5 -66 t-103.5 -60t-147.5 -23.5zM172 1188l199 287h417l199 -287h-268l-139 209l-140 -209h-268zM354 307q0 -115 146 -114q102 0 171.5 56t69.5 122v118q-16 -25 -114 -40l-150 -27q-123 -19 -123 -115z" glyph-name="acircumflex" horiz-adv-x="1140" unicode="â"/><glyph d="M397 -20q-145 0 -243.5 74.5t-98.5 228.5q0 84 31 143t90.5 92t116.5 49.5t139 28.5l180 27q76 10 102.5 28.5t26.5 61.5v14q0 143 -166 143q-182 0 -182 -141v-18l-280 -2v49q0 328 471 327q238 0 344 -85t106 -261v-739h-284v188h-13q-10 -29 -30.5 -58.5t-58.5 -66 t-103.5 -60t-147.5 -23.5zM225 1260q0 113 53.5 175t151.5 62q53 0 96 -17.5t66.5 -39t50.5 -39t51 -17.5q23 0 45.5 13.5t22.5 44.5h176q0 -113 -53.5 -174.5t-151.5 -61.5q-53 0 -96 17.5t-66.5 39t-50 39t-51.5 17.5q-23 0 -45.5 -13.5t-22.5 -45.5h-176zM354 307 q0 -115 146 -114q102 0 171.5 56t69.5 122v118q-16 -25 -114 -40l-150 -27q-123 -19 -123 -115z" glyph-name="atilde" horiz-adv-x="1140" unicode="ã"/><glyph d="M397 -20q-145 0 -243.5 74.5t-98.5 228.5q0 84 31 143t90.5 92t116.5 49.5t139 28.5l180 27q76 10 102.5 28.5t26.5 61.5v14q0 143 -166 143q-182 0 -182 -141v-18l-280 -2v49q0 328 471 327q238 0 344 -85t106 -261v-739h-284v188h-13q-10 -29 -30.5 -58.5t-58.5 -66 t-103.5 -60t-147.5 -23.5zM168 1352q0 66 49 112.5t115 46.5q68 0 116 -46t48 -113.5t-48.5 -114.5t-115.5 -47q-66 0 -115 47t-49 115zM354 307q0 -115 146 -114q102 0 171.5 56t69.5 122v118q-16 -25 -114 -40l-150 -27q-123 -19 -123 -115zM659 1351.5q0 67.5 48.5 113.5 t115.5 46q66 0 115 -47t49 -112q0 -68 -49 -115t-115 -47q-68 0 -116 47t-48 114.5z" glyph-name="adieresis" horiz-adv-x="1140" unicode="ä"/><glyph d="M397 -20q-145 0 -243.5 74.5t-98.5 228.5q0 84 31 143t90.5 92t116.5 49.5t139 28.5l180 27q76 10 102.5 28.5t26.5 61.5v14q0 143 -166 143q-182 0 -182 -141v-18l-280 -2v49q0 328 471 327q238 0 344 -85t106 -261v-739h-284v188h-13q-10 -29 -30.5 -58.5t-58.5 -66 t-103.5 -60t-147.5 -23.5zM354 307q0 -115 146 -114q102 0 171.5 56t69.5 122v118q-16 -25 -114 -40l-150 -27q-123 -19 -123 -115zM369 1348q0 86 61.5 145t149.5 59q90 0 151.5 -59t61.5 -145t-61.5 -145.5t-151.5 -59.5q-88 0 -149.5 59.5t-61.5 145.5zM508 1347.5 q0 -32.5 20.5 -52t51 -19.5t52 20.5t21.5 51.5q0 33 -21.5 53t-52 20t-51 -20.5t-20.5 -53z" glyph-name="aring" horiz-adv-x="1140" unicode="å"/><glyph d="M434 -20q-166 0 -272.5 77.5t-106.5 243.5q0 174 113 245.5t283 71.5h286v105q0 137 -172 137t-172 -137v-18l-270 -5v56q0 160 114.5 244.5t335.5 84.5q240 0 338 -116q137 117 362.5 116.5t366 -131.5t140.5 -415q0 -47 -6 -82h-750q23 -250 256 -250q180 0 221 141 h264q-39 -178 -169 -273t-320 -95q-287 0 -430 190q-41 -72 -146.5 -131t-265.5 -59zM354 322q0 -53 38 -89t124 -36q109 0 165 58t56 138v53h-213q-80 0 -125 -32.5t-45 -91.5zM1024 633h473q-4 100 -60.5 162.5t-170.5 62.5q-211 0 -242 -225z" glyph-name="ae" horiz-adv-x="1835" unicode="æ"/><glyph d="M436 -369q59 -4 98 15.5t39 58.5q0 45 -45 59.5t-88 -14.5l-80 98l127 140q-186 31 -309 166t-123 376q0 143 46 254t124 174.5t171 95t196 31.5q80 0 151.5 -18t146.5 -62t125 -134.5t64 -217.5h-270q-37 182 -219 183q-123 0 -187.5 -84t-64.5 -221.5t64.5 -219.5 t187.5 -82q180 0 219 187h270q-20 -209 -132.5 -309.5t-266.5 -120.5l-94 -92h14q78 0 128 -54.5t50 -138.5q0 -117 -98 -167t-244 -50v147z" glyph-name="ccedilla" horiz-adv-x="1140" unicode="ç"/><glyph d="M592 -20q-106 0 -198.5 30.5t-170.5 94t-123 174t-45 256.5q0 281 151.5 415.5t383.5 134.5q225 0 365.5 -131t140.5 -415q0 -47 -6 -82h-750q23 -250 256 -250q180 0 221 141h264q-39 -178 -169 -273t-320 -95zM260 1475h258l217 -287h-260zM340 633h473 q-4 100 -60.5 162.5t-170.5 62.5q-211 0 -242 -225z" glyph-name="egrave" horiz-adv-x="1150" unicode="è"/><glyph d="M592 -20q-106 0 -198.5 30.5t-170.5 94t-123 174t-45 256.5q0 281 151.5 415.5t383.5 134.5q225 0 365.5 -131t140.5 -415q0 -47 -6 -82h-750q23 -250 256 -250q180 0 221 141h264q-39 -178 -169 -273t-320 -95zM340 633h473q-4 100 -60.5 162.5t-170.5 62.5 q-211 0 -242 -225zM436 1188l215 287h260l-217 -287h-258z" glyph-name="eacute" horiz-adv-x="1150" unicode="é"/><glyph d="M592 -20q-106 0 -198.5 30.5t-170.5 94t-123 174t-45 256.5q0 281 151.5 415.5t383.5 134.5q225 0 365.5 -131t140.5 -415q0 -47 -6 -82h-750q23 -250 256 -250q180 0 221 141h264q-39 -178 -169 -273t-320 -95zM166 1188l199 287h417l199 -287h-268l-140 209l-139 -209 h-268zM340 633h473q-4 100 -60.5 162.5t-170.5 62.5q-211 0 -242 -225z" glyph-name="ecircumflex" horiz-adv-x="1150" unicode="ê"/><glyph d="M592 -20q-106 0 -198.5 30.5t-170.5 94t-123 174t-45 256.5q0 281 151.5 415.5t383.5 134.5q225 0 365.5 -131t140.5 -415q0 -47 -6 -82h-750q23 -250 256 -250q180 0 221 141h264q-39 -178 -169 -273t-320 -95zM162 1352q0 66 49 112.5t115 46.5q68 0 115.5 -46 t47.5 -113.5t-48 -114.5t-115 -47q-66 0 -115 47t-49 115zM340 633h473q-4 100 -60.5 162.5t-170.5 62.5q-211 0 -242 -225zM653 1351.5q0 67.5 48.5 113.5t115.5 46q66 0 115 -47t49 -112q0 -68 -49 -115t-115 -47q-68 0 -116 47t-48 114.5z" glyph-name="edieresis" horiz-adv-x="1150" unicode="ë"/><glyph d="M92 0v1065h299v-1065h-299zM-74 1475h258l217 -287h-260z" glyph-name="igrave" horiz-adv-x="483" unicode="ì"/><glyph d="M92 0v1065h299v-1065h-299zM102 1188l215 287h261l-218 -287h-258z" glyph-name="iacute" horiz-adv-x="483" unicode="í"/><glyph d="M92 0v1065h299v-1065h-299zM-168 1188l199 287h418l198 -287h-268l-139 209l-140 -209h-268z" glyph-name="icircumflex" horiz-adv-x="483" unicode="î"/><glyph d="M92 0v1065h299v-1065h-299zM-172 1352q0 66 49 112.5t115 46.5q68 0 116 -46t48 -113.5t-48.5 -114.5t-115.5 -47q-66 0 -115 47t-49 115zM319 1351.5q0 67.5 48.5 113.5t115.5 46q66 0 115 -47t49 -112q0 -68 -49 -115t-115 -47q-68 0 -116 47t-48 114.5z" glyph-name="idieresis" horiz-adv-x="483" unicode="ï"/><glyph d="M580 -20q-219 0 -372 141t-153 411q0 252 136.5 392.5t340.5 140.5q121 0 203 -57q-51 104 -110 192h-267v133h160q-74 78 -98 101h301l80 -101h284v-133h-186q123 -174 166 -308t43 -329q0 -291 -152.5 -437t-375.5 -146zM350 532q0 -152 66.5 -224t165 -72t164 72.5 t65.5 223.5q0 145 -64.5 211t-164.5 66q-98 0 -165 -67t-67 -210z" glyph-name="eth" horiz-adv-x="1214" unicode="ð"/><glyph d="M825 604q0 233 -196 234q-100 0 -161.5 -58.5t-61.5 -175.5v-604h-300v1065h300v-223h12q16 92 103 167.5t237 75.5q162 0 264 -105.5t102 -303.5v-676h-299v604zM260 1260q0 113 53.5 175t151.5 62q53 0 96 -17.5t66.5 -39t50.5 -39t51 -17.5q23 0 45.5 13.5t22.5 44.5 h176q0 -113 -53.5 -174.5t-151.5 -61.5q-53 0 -96 17.5t-66.5 39t-50.5 39t-51 17.5q-23 0 -45.5 -13.5t-22.5 -45.5h-176z" glyph-name="ntilde" unicode="ñ"/><glyph d="M590 -20q-221 0 -378 140t-157 412.5t157 412.5t378 140t377.5 -140t156.5 -412.5t-156.5 -412.5t-377.5 -140zM274 1475h258l218 -287h-261zM336 532.5q0 -151.5 69.5 -228.5t184.5 -77t184.5 77t69.5 228.5t-69.5 228.5t-184.5 77t-184.5 -77t-69.5 -228.5z" glyph-name="ograve" horiz-adv-x="1179" unicode="ò"/><glyph d="M590 -20q-221 0 -378 140t-157 412.5t157 412.5t378 140t377.5 -140t156.5 -412.5t-156.5 -412.5t-377.5 -140zM336 532.5q0 -151.5 69.5 -228.5t184.5 -77t184.5 77t69.5 228.5t-69.5 228.5t-184.5 77t-184.5 -77t-69.5 -228.5zM451 1188l215 287h260l-217 -287h-258z " glyph-name="oacute" horiz-adv-x="1179" unicode="ó"/><glyph d="M590 -20q-221 0 -378 140t-157 412.5t157 412.5t378 140t377.5 -140t156.5 -412.5t-156.5 -412.5t-377.5 -140zM180 1188l199 287h418l198 -287h-268l-139 209l-139 -209h-269zM336 532.5q0 -151.5 69.5 -228.5t184.5 -77t184.5 77t69.5 228.5t-69.5 228.5t-184.5 77 t-184.5 -77t-69.5 -228.5z" glyph-name="ocircumflex" horiz-adv-x="1179" unicode="ô"/><glyph d="M590 -20q-221 0 -378 140t-157 412.5t157 412.5t378 140t377.5 -140t156.5 -412.5t-156.5 -412.5t-377.5 -140zM233 1260q0 113 53.5 175t151.5 62q53 0 96.5 -17.5t67 -39t50 -39t50.5 -17.5q23 0 45.5 13.5t22.5 44.5h176q0 -113 -53 -174.5t-152 -61.5q-53 0 -96 17.5 t-66.5 39t-50 39t-51.5 17.5q-23 0 -45 -13.5t-22 -45.5h-177zM336 532.5q0 -151.5 69.5 -228.5t184.5 -77t184.5 77t69.5 228.5t-69.5 228.5t-184.5 77t-184.5 -77t-69.5 -228.5z" glyph-name="otilde" horiz-adv-x="1179" unicode="õ"/><glyph d="M590 -20q-221 0 -378 140t-157 412.5t157 412.5t378 140t377.5 -140t156.5 -412.5t-156.5 -412.5t-377.5 -140zM176 1352q0 66 49 112.5t115 46.5q68 0 116 -46t48 -113.5t-48 -114.5t-116 -47q-66 0 -115 47t-49 115zM336 532.5q0 -151.5 69.5 -228.5t184.5 -77 t184.5 77t69.5 228.5t-69.5 228.5t-184.5 77t-184.5 -77t-69.5 -228.5zM668 1351.5q0 67.5 48 113.5t115 46q66 0 115 -47t49 -112q0 -68 -49 -115t-115 -47q-68 0 -115.5 47t-47.5 114.5z" glyph-name="odieresis" horiz-adv-x="1179" unicode="ö"/><glyph d="M451 786q-55 0 -92 38t-37 91.5t36.5 90t92.5 36.5q53 0 90 -36.5t37 -90t-37 -91.5t-90 -38zM106 453v225h685v-225h-685zM322 219q0 53 36.5 89t92.5 36q53 0 90 -37t37 -88q0 -55 -37 -93t-90 -38q-55 0 -92 38t-37 93z" glyph-name="divide" horiz-adv-x="894" unicode="÷"/><glyph d="M166 -102l92 184q-203 147 -203 450q0 272 157 412.5t378 140.5q78 0 153 -18l58 117h215l-98 -199q207 -145 206 -453q0 -272 -156.5 -412t-377.5 -140q-84 0 -158 20l-51 -102h-215zM336 532q0 -121 47 -196l246 500q-12 2 -39 2q-115 0 -184.5 -77t-69.5 -229z M545 231q29 -4 45 -4q115 0 184.5 77t69.5 228q0 125 -49 201z" glyph-name="oslash" horiz-adv-x="1179" unicode="ø"/><glyph d="M406 461q0 -233 196 -234q100 0 161.5 58.5t61.5 175.5v604h299v-1065h-299v223h-12q-16 -92 -103 -167.5t-237 -75.5q-162 0 -264.5 105t-102.5 304v676h300v-604zM297 1475h258l217 -287h-260z" glyph-name="ugrave" unicode="ù"/><glyph d="M406 461q0 -233 196 -234q100 0 161.5 58.5t61.5 175.5v604h299v-1065h-299v223h-12q-16 -92 -103 -167.5t-237 -75.5q-162 0 -264.5 105t-102.5 304v676h300v-604zM471 1188l215 287h260l-217 -287h-258z" glyph-name="uacute" unicode="ú"/><glyph d="M406 461q0 -233 196 -234q100 0 161.5 58.5t61.5 175.5v604h299v-1065h-299v223h-12q-16 -92 -103 -167.5t-237 -75.5q-162 0 -264.5 105t-102.5 304v676h300v-604zM201 1188l198 287h418l199 -287h-268l-140 209l-139 -209h-268z" glyph-name="ucircumflex" unicode="û"/><glyph d="M406 461q0 -233 196 -234q100 0 161.5 58.5t61.5 175.5v604h299v-1065h-299v223h-12q-16 -92 -103 -167.5t-237 -75.5q-162 0 -264.5 105t-102.5 304v676h300v-604zM199 1352q0 66 49 112.5t114 46.5q68 0 116 -46t48 -113.5t-48 -114.5t-116 -47q-66 0 -114.5 47 t-48.5 115zM690 1351.5q0 67.5 48 113.5t116 46q66 0 115 -47t49 -112q0 -68 -49 -115t-115 -47q-68 0 -116 47t-48 114.5z" glyph-name="udieresis" unicode="ü"/><glyph d="M141 -158q98 -12 163 5.5t86.5 42t37.5 61.5q29 70 -2 145l-391 969h307l248 -688l254 688h307l-436 -1073q-100 -250 -223 -338t-351 -64v252zM453 1188l215 287h260l-217 -287h-258z" glyph-name="yacute" horiz-adv-x="1185" unicode="ý"/><glyph d="M106 -389v1823h300v-516q33 74 117.5 120.5t195.5 46.5q188 0 327.5 -140t139.5 -412.5t-139.5 -412.5t-327.5 -140q-111 0 -196 47t-117 120v-536h-300zM393 532.5q0 -147.5 74 -226.5t180 -79q109 0 182.5 79t73.5 226.5t-73.5 226.5t-182.5 79q-106 0 -180 -79 t-74 -226.5z" glyph-name="thorn" horiz-adv-x="1241" unicode="þ"/><glyph d="M141 -158q98 -12 163 5.5t86.5 42t37.5 61.5q29 70 -2 145l-391 969h307l248 -688l254 688h307l-436 -1073q-100 -250 -223 -338t-351 -64v252zM178 1352q0 66 49 112.5t115 46.5q68 0 116 -46t48 -113.5t-48 -114.5t-116 -47q-66 0 -115 47t-49 115zM670 1351.5 q0 67.5 48 113.5t116 46q66 0 114.5 -47t48.5 -112q0 -68 -49 -115t-114 -47q-68 0 -116 47t-48 114.5z" glyph-name="ydieresis" horiz-adv-x="1185" unicode="ÿ"/><glyph d="M35 0l518 1434h395l518 -1434h-321l-92 268h-604l-93 -268h-321zM416 1669v174h671v-174h-671zM526 496h449l-215 624h-19z" glyph-name="Amacron" horiz-adv-x="1501" unicode="Ā"/><glyph d="M397 -20q-145 0 -243.5 74.5t-98.5 228.5q0 84 31 143t90.5 92t116.5 49.5t139 28.5l180 27q76 10 102.5 28.5t26.5 61.5v14q0 143 -166 143q-182 0 -182 -141v-18l-280 -2v49q0 328 471 327q238 0 344 -85t106 -261v-739h-284v188h-13q-10 -29 -30.5 -58.5t-58.5 -66 t-103.5 -60t-147.5 -23.5zM246 1300v175h672v-175h-672zM354 307q0 -115 146 -114q102 0 171.5 56t69.5 122v118q-16 -25 -114 -40l-150 -27q-123 -19 -123 -115z" glyph-name="amacron" horiz-adv-x="1140" unicode="ā"/><glyph d="M35 0l518 1434h395l518 -1434h-321l-92 268h-604l-93 -268h-321zM420 1843h196q2 -76 35 -109.5t100.5 -33.5t100.5 33.5t35 109.5h196q0 -147 -86 -231t-245.5 -84t-245.5 84t-86 231zM526 496h449l-215 624h-19z" glyph-name="Abreve" horiz-adv-x="1501" unicode="Ă"/><glyph d="M397 -20q-145 0 -243.5 74.5t-98.5 228.5q0 84 31 143t90.5 92t116.5 49.5t139 28.5l180 27q76 10 102.5 28.5t26.5 61.5v14q0 143 -166 143q-182 0 -182 -141v-18l-280 -2v49q0 328 471 327q238 0 344 -85t106 -261v-739h-284v188h-13q-10 -29 -30.5 -58.5t-58.5 -66 t-103.5 -60t-147.5 -23.5zM250 1475h196q2 -76 35 -110t100.5 -34t100.5 34t35 110h196q0 -147 -86 -231.5t-245.5 -84.5t-245.5 84.5t-86 231.5zM354 307q0 -115 146 -114q102 0 171.5 56t69.5 122v118q-16 -25 -114 -40l-150 -27q-123 -19 -123 -115z" glyph-name="abreve" horiz-adv-x="1140" unicode="ă"/><glyph d="M35 0l518 1434h395l518 -1434q-125 0 -192.5 -45t-67.5 -107q0 -53 43 -74.5t105 -0.5v-166q-37 -16 -96.5 -16.5t-121 18t-106.5 72t-45 133.5q0 150 148 223l-80 231h-604l-93 -268h-321zM526 496h449l-215 624h-19z" glyph-name="Aogonek" horiz-adv-x="1501" unicode="Ą"/><glyph d="M397 -20q-145 0 -243.5 74.5t-98.5 228.5q0 84 31 143t90.5 92t116.5 49.5t139 28.5l180 27q76 10 102.5 28.5t26.5 61.5v14q0 143 -166 143q-182 0 -182 -141v-18l-280 -2v49q0 328 471 327q238 0 344 -85t106 -261v-739h2q-125 0 -192.5 -45t-67.5 -107q0 -53 43 -74.5 t105 -0.5v-166q-37 -16 -96.5 -16.5t-121 18t-106.5 72t-45 133.5q0 90 56.5 153.5t138.5 87.5v133h-13q-10 -29 -30.5 -58.5t-58.5 -66t-103.5 -60t-147.5 -23.5zM354 307q0 -115 146 -114q102 0 171.5 56t69.5 122v118q-16 -25 -114 -40l-150 -27q-123 -19 -123 -115z" glyph-name="aogonek" horiz-adv-x="1140" unicode="ą"/><glyph d="M750 -20q-311 0 -492.5 195.5t-181.5 541.5q0 344 182 539.5t496 195.5q248 0 410.5 -130t183.5 -386h-299q-57 252 -306 252q-178 0 -266 -130t-88 -341q0 -213 87 -343t267 -130q248 0 306 254h299q-20 -258 -183 -388t-415 -130zM623 1556l215 287h260l-217 -287h-258 z" glyph-name="Cacute" horiz-adv-x="1409" unicode="Ć"/><glyph d="M592 -20q-102 0 -194.5 30.5t-171.5 94t-125 173t-46 253t46 254t124 174t171 95t196 31.5q80 0 151.5 -18t146.5 -62t125 -134.5t64 -217.5h-270q-37 182 -219 183q-123 0 -187.5 -84t-64.5 -221.5t64.5 -219.5t187.5 -82q180 0 219 187h270q-12 -127 -62 -218.5 t-125 -136.5t-147.5 -63t-152.5 -18zM434 1188l215 287h260l-217 -287h-258z" glyph-name="cacute" horiz-adv-x="1140" unicode="ć"/><glyph d="M750 -20q-311 0 -492.5 195.5t-181.5 541.5q0 344 182 539.5t496 195.5q248 0 410.5 -130t183.5 -386h-299q-57 252 -306 252q-178 0 -266 -130t-88 -341q0 -213 87 -343t267 -130q248 0 306 254h299q-20 -258 -183 -388t-415 -130zM356 1556l199 287h418l198 -287h-268 l-139 209l-139 -209h-269z" glyph-name="Ccircumflex" horiz-adv-x="1409" unicode="Ĉ"/><glyph d="M592 -20q-102 0 -194.5 30.5t-171.5 94t-125 173t-46 253t46 254t124 174t171 95t196 31.5q80 0 151.5 -18t146.5 -62t125 -134.5t64 -217.5h-270q-37 182 -219 183q-123 0 -187.5 -84t-64.5 -221.5t64.5 -219.5t187.5 -82q180 0 219 187h270q-12 -127 -62 -218.5 t-125 -136.5t-147.5 -63t-152.5 -18zM168 1188l199 287h417l199 -287h-268l-140 209l-139 -209h-268z" glyph-name="ccircumflex" horiz-adv-x="1140" unicode="ĉ"/><glyph d="M750 -20q-311 0 -492.5 195.5t-181.5 541.5q0 344 182 539.5t496 195.5q248 0 410.5 -130t183.5 -386h-299q-57 252 -306 252q-178 0 -266 -130t-88 -341q0 -213 87 -343t267 -130q248 0 306 254h299q-20 -258 -183 -388t-415 -130zM602 1720q0 66 49 113t115 47 q68 0 116 -46t48 -113.5t-48 -114.5t-116 -47q-66 0 -115 46.5t-49 114.5z" glyph-name="Cdotaccent" horiz-adv-x="1409" unicode="Ċ"/><glyph d="M592 -20q-102 0 -194.5 30.5t-171.5 94t-125 173t-46 253t46 254t124 174t171 95t196 31.5q80 0 151.5 -18t146.5 -62t125 -134.5t64 -217.5h-270q-37 182 -219 183q-123 0 -187.5 -84t-64.5 -221.5t64.5 -219.5t187.5 -82q180 0 219 187h270q-12 -127 -62 -218.5 t-125 -136.5t-147.5 -63t-152.5 -18zM414 1352q0 66 49 112.5t115 46.5q68 0 115.5 -46t47.5 -113.5t-48 -114.5t-115 -47q-66 0 -115 47t-49 115z" glyph-name="cdotaccent" horiz-adv-x="1140" unicode="ċ"/><glyph d="M750 -20q-311 0 -492.5 195.5t-181.5 541.5q0 344 182 539.5t496 195.5q248 0 410.5 -130t183.5 -386h-299q-57 252 -306 252q-178 0 -266 -130t-88 -341q0 -213 87 -343t267 -130q248 0 306 254h299q-20 -258 -183 -388t-415 -130zM342 1839h268l140 -209l139 209h268 l-199 -287h-417z" glyph-name="Ccaron" horiz-adv-x="1409" unicode="Č"/><glyph d="M592 -20q-102 0 -194.5 30.5t-171.5 94t-125 173t-46 253t46 254t124 174t171 95t196 31.5q80 0 151.5 -18t146.5 -62t125 -134.5t64 -217.5h-270q-37 182 -219 183q-123 0 -187.5 -84t-64.5 -221.5t64.5 -219.5t187.5 -82q180 0 219 187h270q-12 -127 -62 -218.5 t-125 -136.5t-147.5 -63t-152.5 -18zM154 1470h268l139 -208l139 208h269l-199 -286h-418z" glyph-name="ccaron" horiz-adv-x="1140" unicode="č"/><glyph d="M106 0v1434h543q334 0 506 -184.5t172 -532.5t-172 -532.5t-506 -184.5h-543zM264 1839h268l140 -209l139 209h268l-198 -287h-418zM414 266h204q217 0 306.5 105.5t89.5 345t-89 345t-307 105.5h-204v-901z" glyph-name="Dcaron" horiz-adv-x="1402" unicode="Ď"/><glyph d="M522 -20q-188 0 -327.5 140t-139.5 412.5t139.5 412.5t327.5 140q113 0 198 -50t116 -124v523h299v-1434h-299v154q-31 -74 -116 -124t-198 -50zM338 532.5q0 -147.5 73.5 -226.5t182.5 -79q106 0 180 79t74 226.5t-74 226.5t-180 79q-109 0 -182.5 -79t-73.5 -226.5z M1194 1147l215 287h260l-217 -287h-258z" glyph-name="dcaron" horiz-adv-x="1357" unicode="ď"/><glyph d="M176 0v592h-135v225h135v617h543q334 0 506 -184.5t172 -532.5t-172 -532.5t-506 -184.5h-543zM483 266h205q217 0 306 105.5t89 345t-89 345t-306 105.5h-205v-350h189v-225h-189v-326z" glyph-name="Dcroat" horiz-adv-x="1472" unicode="Đ"/><glyph d="M532 1200v133h304v101h299v-101h125v-133h-125v-1200h-299v154q-31 -74 -116 -124t-198 -50q-188 0 -327.5 140t-139.5 412.5t139.5 412.5t327.5 140q113 0 198 -50t116 -124v289h-304zM338 532.5q0 -147.5 73.5 -226.5t182.5 -79q106 0 180 79t74 226.5t-74 226.5 t-180 79q-109 0 -182.5 -79t-73.5 -226.5z" glyph-name="dcroat" horiz-adv-x="1298" unicode="đ"/><glyph d="M106 0v1434h979v-267h-671v-321h610v-240h-610v-340h692v-266h-1000zM285 1669v174h671v-174h-671z" glyph-name="Emacron" horiz-adv-x="1161" unicode="Ē"/><glyph d="M592 -20q-106 0 -198.5 30.5t-170.5 94t-123 174t-45 256.5q0 281 151.5 415.5t383.5 134.5q225 0 365.5 -131t140.5 -415q0 -47 -6 -82h-750q23 -250 256 -250q180 0 221 141h264q-39 -178 -169 -273t-320 -95zM240 1300v175h671v-175h-671zM340 633h473 q-4 100 -60.5 162.5t-170.5 62.5q-211 0 -242 -225z" glyph-name="emacron" horiz-adv-x="1150" unicode="ē"/><glyph d="M106 0v1434h979v-267h-671v-321h610v-240h-610v-340h692v-266h-1000zM459 1720q0 66 49 113t115 47q68 0 115.5 -46t47.5 -113.5t-48 -114.5t-115 -47q-66 0 -115 46.5t-49 114.5z" glyph-name="Edotaccent" horiz-adv-x="1161" unicode="Ė"/><glyph d="M592 -20q-106 0 -198.5 30.5t-170.5 94t-123 174t-45 256.5q0 281 151.5 415.5t383.5 134.5q225 0 365.5 -131t140.5 -415q0 -47 -6 -82h-750q23 -250 256 -250q180 0 221 141h264q-39 -178 -169 -273t-320 -95zM340 633h473q-4 100 -60.5 162.5t-170.5 62.5 q-211 0 -242 -225zM414 1352q0 66 49 112.5t115 46.5q68 0 115.5 -46t47.5 -113.5t-48 -114.5t-115 -47q-66 0 -115 47t-49 115z" glyph-name="edotaccent" horiz-adv-x="1150" unicode="ė"/><glyph d="M106 0v1434h979v-267h-671v-321h610v-240h-610v-340h692v-266q-125 0 -192.5 -45t-67.5 -107q0 -53 43 -74.5t104 -0.5v-166q-37 -16 -96 -16.5t-120.5 18t-106.5 72t-45 133.5q0 113 90 186h-609z" glyph-name="Eogonek" horiz-adv-x="1161" unicode="Ę"/><glyph d="M731 -393q-35 -16 -94 -16.5t-120.5 18t-106.5 72t-45 133.5q0 109 81 180q-174 39 -282.5 173t-108.5 368q0 281 151.5 415.5t383.5 134.5q225 0 365.5 -131t140.5 -415q0 -47 -6 -82h-750q23 -250 256 -250q180 0 221 141h264q-31 -141 -121 -231t-223 -121l6 -6 q-78 -16 -117.5 -55t-39.5 -87q0 -53 43 -74.5t102 -0.5v-166zM340 633h473q-4 100 -60.5 162.5t-170.5 62.5q-211 0 -242 -225z" glyph-name="eogonek" horiz-adv-x="1150" unicode="ę"/><glyph d="M106 0v1434h979v-267h-671v-321h610v-240h-610v-340h692v-266h-1000zM201 1839h268l139 -209l140 209h268l-199 -287h-418z" glyph-name="Ecaron" horiz-adv-x="1161" unicode="Ě"/><glyph d="M592 -20q-106 0 -198.5 30.5t-170.5 94t-123 174t-45 256.5q0 281 151.5 415.5t383.5 134.5q225 0 365.5 -131t140.5 -415q0 -47 -6 -82h-750q23 -250 256 -250q180 0 221 141h264q-39 -178 -169 -273t-320 -95zM156 1470h268l139 -208l139 208h269l-199 -286h-418z M340 633h473q-4 100 -60.5 162.5t-170.5 62.5q-211 0 -242 -225z" glyph-name="ecaron" horiz-adv-x="1150" unicode="ě"/><glyph d="M745 -20q-322 0 -495.5 193.5t-173.5 537.5q0 350 179 545.5t484 195.5q240 0 408 -120t199 -353h-304q-53 209 -303 209q-182 0 -267 -127t-85 -340q0 -215 87 -346t271 -131q133 0 227.5 71.5t94.5 227.5h-276v245h581v-149q0 -322 -165 -490.5t-462 -168.5zM332 1556 l198 287h418l199 -287h-268l-140 209l-139 -209h-268z" glyph-name="Gcircumflex" horiz-adv-x="1458" unicode="Ĝ"/><glyph d="M506 27q-84 0 -162 29.5t-143.5 89t-105.5 166t-40 245.5q0 266 134.5 397t316.5 131q207 0 313 -143v123h299v-1026q0 -139 -53 -237.5t-142 -145.5t-173 -65.5t-179 -18.5q-63 0 -122.5 7t-130 31.5t-121 62.5t-85 106.5t-34.5 159.5h264q4 -70 69.5 -103t151.5 -33 q113 0 184.5 58.5t71.5 177.5v131q-106 -143 -313 -143zM184 1188l199 287h418l198 -287h-268l-139 209l-139 -209h-269zM338 557q0 -137 70.5 -209t179.5 -72q104 0 175 72t71 209q0 135 -71 208t-175 73q-109 0 -179.5 -72t-70.5 -209z" glyph-name="gcircumflex" horiz-adv-x="1224" unicode="ĝ"/><glyph d="M745 -20q-322 0 -495.5 193.5t-173.5 537.5q0 350 179 545.5t484 195.5q240 0 408 -120t199 -353h-304q-53 209 -303 209q-182 0 -267 -127t-85 -340q0 -215 87 -346t271 -131q133 0 227.5 71.5t94.5 227.5h-276v245h581v-149q0 -322 -165 -490.5t-462 -168.5zM406 1843 h196q2 -76 35 -109.5t100.5 -33.5t100 33.5t34.5 109.5h197q0 -147 -86 -231t-245.5 -84t-245.5 84t-86 231z" glyph-name="Gbreve" horiz-adv-x="1458" unicode="Ğ"/><glyph d="M506 27q-84 0 -162 29.5t-143.5 89t-105.5 166t-40 245.5q0 266 134.5 397t316.5 131q207 0 313 -143v123h299v-1026q0 -139 -53 -237.5t-142 -145.5t-173 -65.5t-179 -18.5q-63 0 -122.5 7t-130 31.5t-121 62.5t-85 106.5t-34.5 159.5h264q4 -70 69.5 -103t151.5 -33 q113 0 184.5 58.5t71.5 177.5v131q-106 -143 -313 -143zM258 1475h197q2 -76 34.5 -110t100 -34t100.5 34t35 110h197q0 -147 -86 -231.5t-246 -84.5t-246 84.5t-86 231.5zM338 557q0 -137 70.5 -209t179.5 -72q104 0 175 72t71 209q0 135 -71 208t-175 73 q-109 0 -179.5 -72t-70.5 -209z" glyph-name="gbreve" horiz-adv-x="1224" unicode="ğ"/><glyph d="M745 -20q-322 0 -495.5 193.5t-173.5 537.5q0 350 179 545.5t484 195.5q240 0 408 -120t199 -353h-304q-53 209 -303 209q-182 0 -267 -127t-85 -340q0 -215 87 -346t271 -131q133 0 227.5 71.5t94.5 227.5h-276v245h581v-149q0 -322 -165 -490.5t-462 -168.5zM578 1720 q0 66 49 113t114 47q68 0 116 -46t48 -113.5t-48 -114.5t-116 -47q-66 0 -114.5 46.5t-48.5 114.5z" glyph-name="Gdotaccent" horiz-adv-x="1458" unicode="Ġ"/><glyph d="M506 27q-84 0 -162 29.5t-143.5 89t-105.5 166t-40 245.5q0 266 134.5 397t316.5 131q207 0 313 -143v123h299v-1026q0 -139 -53 -237.5t-142 -145.5t-173 -65.5t-179 -18.5q-63 0 -122.5 7t-130 31.5t-121 62.5t-85 106.5t-34.5 159.5h264q4 -70 69.5 -103t151.5 -33 q113 0 184.5 58.5t71.5 177.5v131q-106 -143 -313 -143zM338 557q0 -137 70.5 -209t179.5 -72q104 0 175 72t71 209q0 135 -71 208t-175 73q-109 0 -179.5 -72t-70.5 -209zM430 1352q0 66 49 112.5t115 46.5q68 0 116 -46t48 -113.5t-48 -114.5t-116 -47q-66 0 -115 47 t-49 115z" glyph-name="gdotaccent" horiz-adv-x="1224" unicode="ġ"/><glyph d="M745 -20q-322 0 -495.5 193.5t-173.5 537.5q0 350 179 545.5t484 195.5q240 0 408 -120t199 -353h-304q-53 209 -303 209q-182 0 -267 -127t-85 -340q0 -215 87 -346t271 -131q133 0 227.5 71.5t94.5 227.5h-276v245h581v-149q0 -322 -165 -490.5t-462 -168.5z M569 -239.5q0 75.5 50.5 122.5t128.5 47q90 0 146 -66.5t56 -197.5q0 -158 -83 -247t-222 -89h-22v121q86 2 122.5 33t36.5 96q-100 2 -156.5 53.5t-56.5 127z" glyph-name="Gcommaaccent" horiz-adv-x="1458" unicode="Ģ"/><glyph d="M506 27q-84 0 -162 29.5t-143.5 89t-105.5 166t-40 245.5q0 266 134.5 397t316.5 131q207 0 313 -143v123h299v-1026q0 -139 -53 -237.5t-142 -145.5t-173 -65.5t-179 -18.5q-63 0 -122.5 7t-130 31.5t-121 62.5t-85 106.5t-34.5 159.5h264q4 -70 69.5 -103t151.5 -33 q113 0 184.5 58.5t71.5 177.5v131q-106 -143 -313 -143zM338 557q0 -137 70.5 -209t179.5 -72q104 0 175 72t71 209q0 135 -71 208t-175 73q-109 0 -179.5 -72t-70.5 -209zM362 1427q0 158 83 247t223 89h22v-121q-86 -2 -123 -32.5t-37 -96.5q100 -2 156.5 -53t56.5 -127 t-50 -123t-128 -47q-90 0 -146.5 66.5t-56.5 197.5z" glyph-name="gcommaaccent" horiz-adv-x="1224" unicode="ģ"/><glyph d="M975 0v590h-561v-590h-308v1434h308v-590h561v590h307v-1434h-307zM289 1556l198 287h418l199 -287h-268l-140 209l-139 -209h-268z" glyph-name="Hcircumflex" horiz-adv-x="1388" unicode="Ĥ"/><glyph d="M106 0v1434h252l29 41h418l199 -287h-269l-139 209l-139 -209h-51v-346h12q16 92 103 167.5t237 75.5q162 0 264 -105.5t102 -303.5v-676h-299v604q0 233 -196 234q-100 0 -161.5 -58.5t-61.5 -175.5v-604h-300z" glyph-name="hcircumflex" unicode="ĥ"/><glyph d="M975 0v590h-561v-590h-308v1434h308v-222h561v222h307v-1434h-307zM414 844h561v114h-561v-114z" glyph-name="Hbar" horiz-adv-x="1388" unicode="Ħ"/><glyph d="M-27 1200v133h133v101h300v-101h294v-133h-294v-358h12q16 92 103 167.5t237 75.5q162 0 264 -105.5t102 -303.5v-676h-299v604q0 233 -196 234q-100 0 -161.5 -58.5t-61.5 -175.5v-604h-300v1200h-133z" glyph-name="hbar" horiz-adv-x="1228" unicode="ħ"/><glyph d="M106 0v1434h308v-1434h-308zM-98 1628q0 113 53 175.5t151 62.5q53 0 96.5 -17.5t67 -39t50 -39t51.5 -17.5q23 0 45 13.5t22 43.5h176q0 -113 -53 -174t-151 -61q-53 0 -96.5 17.5t-67 39t-50 39t-51.5 17.5q-23 0 -45 -13.5t-22 -46.5h-176z" glyph-name="Itilde" horiz-adv-x="520" unicode="Ĩ"/><glyph d="M92 0v1065h299v-1065h-299zM-115 1260q0 113 53.5 175t151.5 62q53 0 96 -17.5t66.5 -39t50.5 -39t51 -17.5q23 0 45.5 13.5t22.5 44.5h176q0 -113 -53 -174.5t-152 -61.5q-53 0 -96 17.5t-66.5 39t-50 39t-51.5 17.5q-23 0 -45.5 -13.5t-22.5 -45.5h-176z" glyph-name="itilde" horiz-adv-x="483" unicode="ĩ"/><glyph d="M106 0v1434h308v-1434h-308zM-78 1669v174h672v-174h-672z" glyph-name="Imacron" horiz-adv-x="520" unicode="Ī"/><glyph d="M92 0v1065h299v-1065h-299zM-94 1300v175h672v-175h-672z" glyph-name="imacron" horiz-adv-x="483" unicode="ī"/><glyph d="M301 -393q-37 -16 -96.5 -16.5t-120.5 18t-106.5 72t-45.5 133.5q0 86 49.5 145t124.5 88v1387h308v-1434q-125 0 -192.5 -45t-67.5 -107q0 -53 43 -74.5t104 -0.5v-166z" glyph-name="Iogonek" horiz-adv-x="520" unicode="Į"/><glyph d="M244 1190q-66 0 -115 47t-49 115q0 66 49 112.5t115 46.5q68 0 116 -46t48 -113.5t-48 -114.5t-116 -47zM-90 -186q0 88 51 148.5t131 88.5v1014h299v-1065q-125 0 -192.5 -45t-67.5 -107q0 -53 43 -74.5t105 -0.5v-166q-37 -16 -96.5 -16.5t-121 18t-106.5 72t-45 133.5 z" glyph-name="iogonek" horiz-adv-x="483" unicode="į"/><glyph d="M106 0v1434h308v-1434h-308zM96 1720q0 66 49.5 113t114.5 47q68 0 116 -46t48 -113.5t-48 -114.5t-116 -47q-66 0 -115 46.5t-49 114.5z" glyph-name="Idotaccent" horiz-adv-x="520" unicode="İ"/><glyph d="M92 0v1065h299v-1065h-299z" glyph-name="dotlessi" horiz-adv-x="483" unicode="ı"/><glyph d="M106 0v1434h308v-1434h-308zM627 545h309q0 -147 72.5 -223t203.5 -76q276 0 277 321v867h307v-891q0 -276 -158.5 -419.5t-427 -143.5t-426 143t-157.5 422z" glyph-name="IJ" horiz-adv-x="1902" unicode="Ĳ"/><glyph d="M106 0v1065h300v-1065h-300zM92 1354q0 70 49 118t115 48t115 -48.5t49 -117.5q0 -68 -49 -116t-115 -48t-115 48t-49 116zM397 -393v233h105q121 0 121 140v1085h299v-1131q0 -334 -351 -333q-115 0 -174 6zM608 1354q0 70 49.5 118t115 48t114.5 -48.5t49 -117.5 q0 -68 -49 -116t-114.5 -48t-115 48t-49.5 116z" glyph-name="ij" horiz-adv-x="1028" unicode="ĳ"/><glyph d="M690 -20q-268 0 -426 143t-158 422h310q0 -147 72.5 -223t203.5 -76q276 0 277 321v867h307v-891q0 -276 -159 -419.5t-427 -143.5zM725 1556l199 287h417l199 -287h-268l-139 209l-140 -209h-268z" glyph-name="Jcircumflex" horiz-adv-x="1382" unicode="Ĵ"/><glyph d="M80 -399q-115 0 -174 6v233h104q121 0 121 140v1085h299v-1131q0 -333 -350 -333zM-129 1188l199 287h417l199 -287h-268l-139 209l-140 -209h-268z" glyph-name="jcircumflex" horiz-adv-x="522" unicode="ĵ"/><glyph d="M106 0v1434h308v-674l571 674h361l-549 -639l604 -795h-352l-441 575l-194 -227v-348h-308zM528 -239.5q0 75.5 50.5 122.5t128.5 47q90 0 146 -66.5t56 -197.5q0 -158 -83 -247t-222 -89h-22v121q86 2 122.5 33t36.5 96q-100 2 -156.5 53.5t-56.5 127z" glyph-name="Kcommaaccent" horiz-adv-x="1435" unicode="Ķ"/><glyph d="M106 0v1434h300v-807l391 438h329l-430 -453l486 -612h-330l-340 420l-106 -113v-307h-300zM438 -239.5q0 75.5 50.5 122.5t127.5 47q90 0 146.5 -66.5t56.5 -197.5q0 -158 -83 -247t-222 -89h-22v121q86 2 122.5 33t36.5 96q-100 2 -156.5 53.5t-56.5 127z" glyph-name="kcommaaccent" horiz-adv-x="1196" unicode="ķ"/><glyph d="M106 0v1434h308v-1168h659v-266h-967zM115 1556l215 287h260l-217 -287h-258z" glyph-name="Lacute" horiz-adv-x="1128" unicode="Ĺ"/><glyph d="M106 0v1434h300v-1434h-300zM117 1556l215 287h260l-217 -287h-258z" glyph-name="lacute" horiz-adv-x="512" unicode="ĺ"/><glyph d="M106 0v1434h308v-1168h659v-266h-967zM397 -250q0 76 50.5 123t127.5 47q90 0 146.5 -66.5t56.5 -197.5q0 -158 -83 -247t-222 -89h-22v121q86 2 122.5 32.5t36.5 96.5q-100 2 -156.5 53t-56.5 127z" glyph-name="Lcommaaccent" horiz-adv-x="1128" unicode="Ļ"/><glyph d="M106 0v1434h300v-1434h-300zM70 -239.5q0 75.5 50 122.5t128 47q90 0 146.5 -66.5t56.5 -197.5q0 -158 -83 -247t-223 -89h-22v121q86 2 123 33t37 96q-100 2 -156.5 53.5t-56.5 127z" glyph-name="lcommaaccent" horiz-adv-x="512" unicode="ļ"/><glyph d="M106 0v1434h308v-1168h659v-266h-967zM598 1280q0 76 50 123t128 47q90 0 146.5 -66.5t56.5 -197.5q0 -158 -83 -247t-222 -89h-23v121q86 2 123 32.5t37 96.5q-100 2 -156.5 53t-56.5 127z" glyph-name="Lcaron" horiz-adv-x="1128" unicode="Ľ"/><glyph d="M494 831l84 603h241l-86 -603h-239zM106 0v1434h300v-1434h-300z" glyph-name="lcaron" horiz-adv-x="675" unicode="ľ"/><glyph d="M25 266v299l122 131v738h308v-412l157 168h2v-297l-159 -170v-457h659v-266h-967v397z" glyph-name="Lslash" horiz-adv-x="1169" unicode="Ł"/><glyph d="M10 303v270l113 127v734h299v-394l108 123h2v-268l-110 -125v-770h-299v430z" glyph-name="lslash" horiz-adv-x="542" unicode="ł"/><glyph d="M106 0v1434h320l578 -942h6v942h307v-1434h-332l-565 924h-6v-924h-308zM573 1556l215 287h261l-218 -287h-258z" glyph-name="Nacute" horiz-adv-x="1423" unicode="Ń"/><glyph d="M825 604q0 233 -196 234q-100 0 -161.5 -58.5t-61.5 -175.5v-604h-300v1065h300v-223h12q16 92 103 167.5t237 75.5q162 0 264 -105.5t102 -303.5v-676h-299v604zM477 1188l215 287h260l-217 -287h-258z" glyph-name="nacute" unicode="ń"/><glyph d="M106 0v1434h320l578 -942h6v942h307v-1434h-332l-565 924h-6v-924h-308zM526 -239.5q0 75.5 50.5 122.5t128.5 47q90 0 146 -66.5t56 -197.5q0 -158 -83 -247t-222 -89h-22v121q86 2 122.5 33t36.5 96q-100 2 -156.5 53.5t-56.5 127z" glyph-name="Ncommaaccent" horiz-adv-x="1423" unicode="Ņ"/><glyph d="M825 604q0 233 -196 234q-100 0 -161.5 -58.5t-61.5 -175.5v-604h-300v1065h300v-223h12q16 92 103 167.5t237 75.5q162 0 264 -105.5t102 -303.5v-676h-299v604zM430 -239.5q0 75.5 50 122.5t128 47q90 0 146.5 -66.5t56.5 -197.5q0 -158 -83 -247t-222 -89h-23v121 q86 2 123 33t37 96q-100 2 -156.5 53.5t-56.5 127z" glyph-name="ncommaaccent" unicode="ņ"/><glyph d="M106 0v1434h320l578 -942h6v942h307v-1434h-332l-565 924h-6v-924h-308zM293 1839h268l139 -209l140 209h268l-199 -287h-417z" glyph-name="Ncaron" horiz-adv-x="1423" unicode="Ň"/><glyph d="M825 604q0 233 -196 234q-100 0 -161.5 -58.5t-61.5 -175.5v-604h-300v1065h300v-223h12q16 92 103 167.5t237 75.5q162 0 264 -105.5t102 -303.5v-676h-299v604zM197 1470h268l139 -208l139 208h269l-199 -286h-418z" glyph-name="ncaron" unicode="ň"/><glyph d="M739 -451q-162 0 -266 56v276q137 -66 254 -65q211 0 266 188l-573 909h-6v-913h-308v1434h312l586 -934h6v934h307v-1319q0 -276 -158 -421t-420 -145z" glyph-name="Eng" horiz-adv-x="1423" unicode="Ŋ"/><glyph d="M795 -451q-133 0 -220 37v242q90 -25 140 -25q113 0 112 129v68h-2v604q0 233 -196 234q-100 0 -161.5 -58.5t-61.5 -175.5v-604h-300v1065h300v-223h12q16 92 103 167.5t237 75.5q162 0 264 -105.5t102 -303.5v-676h2v-117q0 -168 -86.5 -251t-244.5 -83z" glyph-name="eng" horiz-adv-x="1232" unicode="ŋ"/><glyph d="M760 -20q-309 0 -496.5 203.5t-187.5 533.5q0 332 187.5 533.5t496.5 201.5t496.5 -201.5t187.5 -533.5q0 -330 -187.5 -533.5t-496.5 -203.5zM391 717q0 -217 97.5 -345t271.5 -128t271 128t97 345t-97 344t-271 127t-271.5 -127t-97.5 -344zM424 1669v174h672v-174 h-672z" glyph-name="Omacron" horiz-adv-x="1519" unicode="Ō"/><glyph d="M590 -20q-221 0 -378 140t-157 412.5t157 412.5t378 140t377.5 -140t156.5 -412.5t-156.5 -412.5t-377.5 -140zM254 1300v175h672v-175h-672zM336 532.5q0 -151.5 69.5 -228.5t184.5 -77t184.5 77t69.5 228.5t-69.5 228.5t-184.5 77t-184.5 -77t-69.5 -228.5z" glyph-name="omacron" horiz-adv-x="1179" unicode="ō"/><glyph d="M760 -20q-309 0 -496.5 203.5t-187.5 533.5q0 332 187.5 533.5t496.5 201.5t496.5 -201.5t187.5 -533.5q0 -330 -187.5 -533.5t-496.5 -203.5zM391 717q0 -217 97.5 -345t271.5 -128t271 128t97 345t-97 344t-271 127t-271.5 -127t-97.5 -344zM408 1556l215 287h260 l-217 -287h-258zM780 1556l215 287h260l-217 -287h-258z" glyph-name="Ohungarumlaut" horiz-adv-x="1519" unicode="Ő"/><glyph d="M590 -20q-221 0 -378 140t-157 412.5t157 412.5t378 140t377.5 -140t156.5 -412.5t-156.5 -412.5t-377.5 -140zM238 1188l215 287h260l-217 -287h-258zM336 532.5q0 -151.5 69.5 -228.5t184.5 -77t184.5 77t69.5 228.5t-69.5 228.5t-184.5 77t-184.5 -77t-69.5 -228.5z M610 1188l215 287h260l-217 -287h-258z" glyph-name="ohungarumlaut" horiz-adv-x="1179" unicode="ő"/><glyph d="M760 -20q-309 0 -496.5 203.5t-187.5 533.5q0 332 187.5 533.5t496.5 201.5q213 0 373 -100v82h978v-267h-671v-321h610v-240h-610v-340h692v-266h-999v80q-160 -100 -373 -100zM391 717q0 -217 97.5 -345t271.5 -128t271 128t97 345t-97 344t-271 127t-271.5 -127 t-97.5 -344z" glyph-name="OE" horiz-adv-x="2187" unicode="Œ"/><glyph d="M590 -20q-221 0 -378 140t-157 412.5t157 412.5t378 140q240 0 391 -153q145 154 401 153q225 0 365.5 -131t140.5 -415q0 -47 -6 -82h-749q23 -250 256 -250q180 0 221 141h264q-39 -178 -169 -273t-321 -95q-258 0 -401 155q-149 -155 -393 -155zM336 532.5 q0 -151.5 69.5 -228.5t184.5 -77t184.5 77t69.5 228.5t-69.5 228.5t-184.5 77t-184.5 -77t-69.5 -228.5zM1133 633h473q-4 100 -59.5 162.5t-172.5 62.5q-210 0 -241 -225z" glyph-name="oe" horiz-adv-x="1943" unicode="œ"/><glyph d="M952 0q-20 43 -20 170v137q0 211 -225 211h-293v-518h-308v1434h601q266 0 396 -117t130 -305q0 -250 -227 -353q135 -45 183 -131t48 -221v-137q0 -131 20 -170h-305zM414 766h282q106 0 166 52t60 151q0 197 -226 196h-282v-399zM436 1556l215 287h260l-217 -287h-258z " glyph-name="Racute" horiz-adv-x="1353" unicode="Ŕ"/><glyph d="M406 471v-471h-300v1065h300v-258h8q29 123 106.5 194.5t200.5 71.5q43 0 82 -10v-252q-49 6 -84 6q-135 0 -224 -83t-89 -263zM317 1188l215 287h261l-218 -287h-258z" glyph-name="racute" horiz-adv-x="837" unicode="ŕ"/><glyph d="M952 0q-20 43 -20 170v137q0 211 -225 211h-293v-518h-308v1434h601q266 0 396 -117t130 -305q0 -250 -227 -353q135 -45 183 -131t48 -221v-137q0 -131 20 -170h-305zM389 -239.5q0 75.5 50 122.5t128 47q90 0 146.5 -66.5t56.5 -197.5q0 -158 -83 -247t-222 -89h-23 v121q86 2 123 33t37 96q-100 2 -156.5 53.5t-56.5 127zM414 766h282q106 0 166 52t60 151q0 197 -226 196h-282v-399z" glyph-name="Rcommaaccent" horiz-adv-x="1353" unicode="Ŗ"/><glyph d="M406 471v-471h-300v1065h300v-258h8q29 123 106.5 194.5t200.5 71.5q43 0 82 -10v-252q-49 6 -84 6q-135 0 -224 -83t-89 -263zM72 -239.5q0 75.5 50 122.5t128 47q90 0 146.5 -66.5t56.5 -197.5q0 -158 -83 -247t-223 -89h-22v121q86 2 123 33t37 96q-100 2 -156.5 53.5 t-56.5 127z" glyph-name="rcommaaccent" horiz-adv-x="837" unicode="ŗ"/><glyph d="M952 0q-20 43 -20 170v137q0 211 -225 211h-293v-518h-308v1434h601q266 0 396 -117t130 -305q0 -250 -227 -353q135 -45 183 -131t48 -221v-137q0 -131 20 -170h-305zM156 1839h268l139 -209l139 209h269l-199 -287h-418zM414 766h282q106 0 166 52t60 151 q0 197 -226 196h-282v-399z" glyph-name="Rcaron" horiz-adv-x="1353" unicode="Ř"/><glyph d="M406 471v-471h-300v1065h300v-258h8q29 123 106.5 194.5t200.5 71.5q43 0 82 -10v-252q-49 6 -84 6q-135 0 -224 -83t-89 -263zM37 1470h268l139 -208l140 208h268l-199 -286h-417z" glyph-name="rcaron" horiz-adv-x="837" unicode="ř"/><glyph d="M674 -20q-281 0 -439.5 128t-158.5 361h317q4 -104 73 -170t210 -66q121 0 188.5 49.5t67.5 137.5q0 72 -48 110.5t-151 59.5l-201 41q-418 80 -417 401q0 203 149.5 311.5t403.5 108.5q258 0 404.5 -112.5t146.5 -329.5h-316q2 92 -64.5 140t-176.5 48 q-117 0 -171.5 -48t-54.5 -118q0 -121 170 -155l185 -37q250 -51 358 -151.5t108 -266.5q0 -221 -160.5 -331.5t-422.5 -110.5zM512 1556l215 287h260l-217 -287h-258z" glyph-name="Sacute" horiz-adv-x="1333" unicode="Ś"/><glyph d="M506 -20q-217 0 -338 94t-123 276h268q14 -147 195 -147q168 0 168 110q0 74 -103 95l-196 41q-303 70 -303 311q0 154 119.5 239.5t316.5 85.5q211 0 322.5 -97t115.5 -271h-250q-16 145 -184 145q-150 0 -149 -94q0 -80 110 -102l201 -43q307 -68 307 -304 q0 -170 -134 -254.5t-343 -84.5zM371 1188l215 287h260l-217 -287h-258z" glyph-name="sacute" horiz-adv-x="1028" unicode="ś"/><glyph d="M674 -20q-281 0 -439.5 128t-158.5 361h317q4 -104 73 -170t210 -66q121 0 188.5 49.5t67.5 137.5q0 72 -48 110.5t-151 59.5l-201 41q-418 80 -417 401q0 203 149.5 311.5t403.5 108.5q258 0 404.5 -112.5t146.5 -329.5h-316q2 92 -64.5 140t-176.5 48 q-117 0 -171.5 -48t-54.5 -118q0 -121 170 -155l185 -37q250 -51 358 -151.5t108 -266.5q0 -221 -160.5 -331.5t-422.5 -110.5zM248 1556l198 287h418l199 -287h-268l-140 209l-139 -209h-268z" glyph-name="Scircumflex" horiz-adv-x="1333" unicode="Ŝ"/><glyph d="M506 -20q-217 0 -338 94t-123 276h268q14 -147 195 -147q168 0 168 110q0 74 -103 95l-196 41q-303 70 -303 311q0 154 119.5 239.5t316.5 85.5q211 0 322.5 -97t115.5 -271h-250q-16 145 -184 145q-150 0 -149 -94q0 -80 110 -102l201 -43q307 -68 307 -304 q0 -170 -134 -254.5t-343 -84.5zM104 1188l199 287h418l199 -287h-269l-139 209l-139 -209h-269z" glyph-name="scircumflex" horiz-adv-x="1028" unicode="ŝ"/><glyph d="M494 -369q59 -4 98 15.5t39 58.5q0 45 -45 59.5t-88 -14.5l-80 98l125 140q-221 29 -344 152.5t-123 328.5h317q4 -104 73 -170t210 -66q121 0 188.5 49.5t67.5 137.5q0 72 -48 110.5t-151 59.5l-201 41q-418 80 -417 401q0 203 149.5 311.5t403.5 108.5 q258 0 404.5 -112.5t146.5 -329.5h-316q2 92 -64.5 140t-176.5 48q-117 0 -171.5 -48t-54.5 -118q0 -121 170 -155l185 -37q250 -51 358 -151.5t108 -266.5q0 -209 -143 -318.5t-381 -121.5l-90 -88h14q78 0 128.5 -54.5t50.5 -138.5q0 -117 -98.5 -167t-243.5 -50v147z" glyph-name="Scedilla" horiz-adv-x="1333" unicode="Ş"/><glyph d="M356 -369q59 -4 98.5 15.5t39.5 58.5q0 45 -45.5 59.5t-88.5 -14.5l-79 98l125 138q-172 20 -265.5 112t-95.5 252h268q14 -147 195 -147q168 0 168 110q0 74 -103 95l-196 41q-303 70 -303 311q0 154 119.5 239.5t316.5 85.5q211 0 322.5 -97t115.5 -271h-250 q-16 145 -184 145q-150 0 -149 -94q0 -80 110 -102l201 -43q307 -68 307 -304q0 -150 -105.5 -233.5t-279.5 -101.5l-92 -90h14q78 0 128 -54.5t50 -138.5q0 -117 -98 -167t-244 -50v147z" glyph-name="scedilla" horiz-adv-x="1028" unicode="ş"/><glyph d="M674 -20q-281 0 -439.5 128t-158.5 361h317q4 -104 73 -170t210 -66q121 0 188.5 49.5t67.5 137.5q0 72 -48 110.5t-151 59.5l-201 41q-418 80 -417 401q0 203 149.5 311.5t403.5 108.5q258 0 404.5 -112.5t146.5 -329.5h-316q2 92 -64.5 140t-176.5 48 q-117 0 -171.5 -48t-54.5 -118q0 -121 170 -155l185 -37q250 -51 358 -151.5t108 -266.5q0 -221 -160.5 -331.5t-422.5 -110.5zM233 1839h269l139 -209l139 209h269l-199 -287h-418z" glyph-name="Scaron" horiz-adv-x="1333" unicode="Š"/><glyph d="M506 -20q-217 0 -338 94t-123 276h268q14 -147 195 -147q168 0 168 110q0 74 -103 95l-196 41q-303 70 -303 311q0 154 119.5 239.5t316.5 85.5q211 0 322.5 -97t115.5 -271h-250q-16 145 -184 145q-150 0 -149 -94q0 -80 110 -102l201 -43q307 -68 307 -304 q0 -170 -134 -254.5t-343 -84.5zM90 1470h268l140 -208l139 208h268l-198 -286h-418z" glyph-name="scaron" horiz-adv-x="1028" unicode="š"/><glyph d="M461 0v1161h-416v273h1139v-273h-416v-1161h-111l-108 -106h14q78 0 128 -54.5t50 -138.5q0 -117 -98 -167t-244 -50v147q59 -4 98.5 15.5t39.5 58.5q0 45 -45.5 59.5t-88.5 -14.5l-79 98z" glyph-name="Tcommaaccent" horiz-adv-x="1228" unicode="Ţ"/><glyph d="M35 834v231h180v274h299v-274h211v-231h-211v-472q0 -68 28.5 -102.5t106.5 -34.5q41 0 84 4v-223q-68 -16 -117 -18l-96 -94h15q78 0 128 -54.5t50 -138.5q0 -117 -98.5 -167t-243.5 -50v147q59 -4 98 15.5t39 58.5q0 45 -45 59.5t-88 -14.5l-80 98l137 152h8 q-225 57 -225 319v515h-180z" glyph-name="tcommaaccent" horiz-adv-x="778" unicode="ţ"/><glyph d="M461 0v1161h-416v273h1139v-273h-416v-1161h-307zM195 1839h268l139 -209l139 209h269l-199 -287h-418z" glyph-name="Tcaron" horiz-adv-x="1228" unicode="Ť"/><glyph d="M569 -14q-354 0 -354 333v515h-180v231h180v274h299v-274h211v-231h-211v-472q0 -68 28.5 -102.5t106.5 -34.5q41 0 84 4v-223q-78 -20 -164 -20zM561 1182l215 286h260l-217 -286h-258z" glyph-name="tcaron" horiz-adv-x="774" unicode="ť"/><glyph d="M172 776v203h289v182h-416v273h1139v-273h-416v-182h287v-203h-287v-776h-307v776h-289z" glyph-name="Tbar" horiz-adv-x="1228" unicode="Ŧ"/><glyph d="M35 504v231h180v99h-180v231h180v274h299v-274h211v-231h-211v-99h211v-231h-211v-142q0 -68 28.5 -102.5t106.5 -34.5q41 0 84 4v-223q-78 -20 -164 -20q-354 0 -354 333v185h-180z" glyph-name="tbar" horiz-adv-x="778" unicode="ŧ"/><glyph d="M698 -20q-274 0 -433 143t-159 422v889h310v-867q0 -158 73.5 -239.5t208.5 -81.5q133 0 207 82t74 239v867h309v-889q0 -279 -160 -422t-430 -143zM317 1628q0 113 53.5 175.5t151.5 62.5q53 0 96.5 -17.5t67 -39t50 -39t50.5 -17.5q23 0 45.5 13.5t22.5 43.5h176 q0 -113 -53 -174t-152 -61q-53 0 -96 17.5t-66.5 39t-50 39t-51.5 17.5q-23 0 -45 -13.5t-22 -46.5h-177z" glyph-name="Utilde" horiz-adv-x="1394" unicode="Ũ"/><glyph d="M406 461q0 -233 196 -234q100 0 161.5 58.5t61.5 175.5v604h299v-1065h-299v223h-12q-16 -92 -103 -167.5t-237 -75.5q-162 0 -264.5 105t-102.5 304v676h300v-604zM254 1260q0 113 53 175t152 62q53 0 96 -17.5t66.5 -39t50 -39t51.5 -17.5q23 0 45.5 13.5t22.5 44.5 h176q0 -113 -53.5 -174.5t-151.5 -61.5q-53 0 -96 17.5t-67 39t-50.5 39t-50.5 17.5q-23 0 -45.5 -13.5t-22.5 -45.5h-176z" glyph-name="utilde" unicode="ũ"/><glyph d="M698 -20q-274 0 -433 143t-159 422v889h310v-867q0 -158 73.5 -239.5t208.5 -81.5q133 0 207 82t74 239v867h309v-889q0 -279 -160 -422t-430 -143zM338 1669v174h672v-174h-672z" glyph-name="Umacron" horiz-adv-x="1394" unicode="Ū"/><glyph d="M406 461q0 -233 196 -234q100 0 161.5 58.5t61.5 175.5v604h299v-1065h-299v223h-12q-16 -92 -103 -167.5t-237 -75.5q-162 0 -264.5 105t-102.5 304v676h300v-604zM274 1300v175h672v-175h-672z" glyph-name="umacron" unicode="ū"/><glyph d="M698 -20q-274 0 -433 143t-159 422v889h310v-867q0 -158 73.5 -239.5t208.5 -81.5q133 0 207 82t74 239v867h309v-889q0 -279 -160 -422t-430 -143zM342 1843h197q2 -76 34.5 -109.5t100 -33.5t100.5 33.5t35 109.5h197q0 -147 -86 -231t-246 -84t-246 84t-86 231z" glyph-name="Ubreve" horiz-adv-x="1394" unicode="Ŭ"/><glyph d="M406 461q0 -233 196 -234q100 0 161.5 58.5t61.5 175.5v604h299v-1065h-299v223h-12q-16 -92 -103 -167.5t-237 -75.5q-162 0 -264.5 105t-102.5 304v676h300v-604zM279 1475h196q2 -76 35 -110t100.5 -34t100 34t34.5 110h197q0 -147 -86 -231.5t-245.5 -84.5 t-245.5 84.5t-86 231.5z" glyph-name="ubreve" unicode="ŭ"/><glyph d="M698 -20q-274 0 -433 143t-159 422v889h310v-867q0 -158 73.5 -239.5t208.5 -81.5q133 0 207 82t74 239v867h309v-889q0 -279 -160 -422t-430 -143zM461 1716q0 86 61.5 145.5t149.5 59.5q90 0 151.5 -59.5t61.5 -145.5t-61.5 -145.5t-151.5 -59.5q-88 0 -149.5 59.5 t-61.5 145.5zM600 1716q0 -33 20.5 -52t51 -19t52 20.5t21.5 50.5q0 33 -21.5 53.5t-52 20.5t-51 -20.5t-20.5 -53.5z" glyph-name="Uring" horiz-adv-x="1394" unicode="Ů"/><glyph d="M406 461q0 -233 196 -234q100 0 161.5 58.5t61.5 175.5v604h299v-1065h-299v223h-12q-16 -92 -103 -167.5t-237 -75.5q-162 0 -264.5 105t-102.5 304v676h300v-604zM397 1348q0 86 61.5 145t149.5 59q90 0 151.5 -59t61.5 -145t-61.5 -145.5t-151.5 -59.5 q-88 0 -149.5 59.5t-61.5 145.5zM537 1347.5q0 -32.5 20.5 -52t51 -19.5t52 20.5t21.5 51.5q0 33 -21.5 53t-52 20t-51 -20.5t-20.5 -53z" glyph-name="uring" unicode="ů"/><glyph d="M698 -20q-274 0 -433 143t-159 422v889h310v-867q0 -158 73.5 -239.5t208.5 -81.5q133 0 207 82t74 239v867h309v-889q0 -279 -160 -422t-430 -143zM322 1556l215 287h260l-217 -287h-258zM694 1556l215 287h260l-217 -287h-258z" glyph-name="Uhungarumlaut" horiz-adv-x="1394" unicode="Ű"/><glyph d="M406 461q0 -233 196 -234q100 0 161.5 58.5t61.5 175.5v604h299v-1065h-299v223h-12q-16 -92 -103 -167.5t-237 -75.5q-162 0 -264.5 105t-102.5 304v676h300v-604zM258 1188l215 287h260l-217 -287h-258zM631 1188l215 287h260l-217 -287h-258z" glyph-name="uhungarumlaut" unicode="ű"/><glyph d="M827 -393q-35 -16 -94 -16.5t-120.5 18t-106.5 72t-45 133.5q0 109 82 180q-205 37 -321 176t-116 375v889h310v-867q0 -158 73.5 -239.5t208.5 -81.5q133 0 207 82t74 239v867h309v-889q0 -240 -119.5 -380t-328.5 -175q-78 -16 -118 -55t-40 -87q0 -53 43 -74.5 t102 -0.5v-166z" glyph-name="Uogonek" horiz-adv-x="1394" unicode="Ų"/><glyph d="M406 461q0 -233 196 -234q100 0 161.5 58.5t61.5 175.5v604h299v-1065q-125 0 -192.5 -45t-67.5 -107q0 -53 43 -74.5t105 -0.5v-166q-37 -16 -96.5 -16.5t-121 18t-106.5 72t-45 133.5q0 88 51 148.5t131 88.5v172h-12q-16 -92 -103 -167.5t-237 -75.5 q-162 0 -264.5 105t-102.5 304v676h300v-604z" glyph-name="uogonek" unicode="ų"/><glyph d="M418 0l-373 1434h315l230 -1002h14l277 1002h315l277 -1002h14l229 1002h316l-373 -1434h-320l-301 1047l-301 -1047h-319zM629 1556l198 287h418l199 -287h-268l-140 209l-139 -209h-268z" glyph-name="Wcircumflex" horiz-adv-x="2076" unicode="Ŵ"/><glyph d="M319 0l-284 1065h282l183 -776h8l211 776h258l211 -776h8l182 776h283l-285 -1065h-334l-194 668l-193 -668h-336zM436 1188l199 287h418l198 -287h-268l-139 209l-139 -209h-269z" glyph-name="wcircumflex" horiz-adv-x="1695" unicode="ŵ"/><glyph d="M563 0v526l-518 908h348l328 -611l330 611h348l-518 -908v-526h-318zM311 1556l199 287h418l198 -287h-268l-139 209l-139 -209h-269z" glyph-name="Ycircumflex" horiz-adv-x="1443" unicode="Ŷ"/><glyph d="M141 -158q98 -12 163 5.5t86.5 42t37.5 61.5q29 70 -2 145l-391 969h307l248 -688l254 688h307l-436 -1073q-100 -250 -223 -338t-351 -64v252zM182 1188l199 287h418l198 -287h-268l-139 209l-139 -209h-269z" glyph-name="ycircumflex" horiz-adv-x="1185" unicode="ŷ"/><glyph d="M563 0v526l-518 908h348l328 -611l330 611h348l-518 -908v-526h-318zM309 1720q0 66 49.5 113t114.5 47q68 0 116 -46t48 -113.5t-48 -114.5t-116 -47q-66 0 -115 46.5t-49 114.5zM801 1720.5q0 67.5 48 113.5t116 46q66 0 114.5 -47t48.5 -113q0 -68 -49 -114.5 t-114 -46.5q-68 0 -116 47t-48 114.5z" glyph-name="Ydieresis" horiz-adv-x="1443" unicode="Ÿ"/><glyph d="M82 0v266l760 901h-744v267h1084l2 -267l-764 -901h770v-266h-1108zM516 1556l215 287h260l-217 -287h-258z" glyph-name="Zacute" horiz-adv-x="1271" unicode="Ź"/><glyph d="M82 0v250l522 565h-502v250h861v-250l-525 -565h525v-250h-881zM369 1188l215 287h260l-217 -287h-258z" glyph-name="zacute" horiz-adv-x="1044" unicode="ź"/><glyph d="M82 0v266l760 901h-744v267h1084l2 -267l-764 -901h770v-266h-1108zM496 1720q0 66 49 113t114 47q68 0 116 -46t48 -113.5t-48 -114.5t-116 -47q-66 0 -114.5 46.5t-48.5 114.5z" glyph-name="Zdotaccent" horiz-adv-x="1271" unicode="Ż"/><glyph d="M82 0v250l522 565h-502v250h861v-250l-525 -565h525v-250h-881zM348 1352q0 66 49 112.5t115 46.5q68 0 116 -46t48 -113.5t-48 -114.5t-116 -47q-66 0 -115 47t-49 115z" glyph-name="zdotaccent" horiz-adv-x="1044" unicode="ż"/><glyph d="M82 0v266l760 901h-744v267h1084l2 -267l-764 -901h770v-266h-1108zM236 1839h268l139 -209l139 209h269l-199 -287h-418z" glyph-name="Zcaron" horiz-adv-x="1271" unicode="Ž"/><glyph d="M82 0v250l522 565h-502v250h861v-250l-525 -565h525v-250h-881zM88 1470h268l140 -208l139 208h268l-198 -286h-418z" glyph-name="zcaron" horiz-adv-x="1044" unicode="ž"/><glyph d="M705 -20q-297 0 -463 168.5t-166 490.5v149h979q-25 399 -346 400q-248 0 -301 -209h-306q31 233 199 353t408 120q303 0 483 -196.5t180 -544.5q0 -344 -174 -537.5t-493 -193.5zM383 543q0 -156 94 -227.5t228 -71.5q270 0 335 299h-657z" glyph-name="uni018F" horiz-adv-x="1447" unicode="Ə"/><glyph d="M35 -133q80 0 104.5 48t24.5 144v549h-139v256h139v183q0 186 94 282t334 96v-256q-72 0 -100.5 -49t-28.5 -143v-113h129v-256h-129v-620q0 -199 -96.5 -288t-331.5 -89v256z" glyph-name="florin" horiz-adv-x="643" unicode="ƒ"/><glyph d="M760 -20q-309 0 -496.5 203.5t-187.5 533.5q0 332 187.5 533.5t496.5 201.5h452v162h254v-389h-188q166 -199 166 -508q0 -330 -187.5 -533.5t-496.5 -203.5zM391 717q0 -217 97.5 -345t271.5 -128t271 128t97 345t-97 344t-271 127t-271.5 -127t-97.5 -344z" glyph-name="Ohorn" horiz-adv-x="1519" unicode="Ơ"/><glyph d="M590 -20q-221 0 -378 140t-157 412.5t157 412.5t378 140h319v160h240v-389h-109q84 -133 84 -324q0 -272 -156.5 -412t-377.5 -140zM336 532.5q0 -151.5 69.5 -228.5t184.5 -77t184.5 77t69.5 228.5t-69.5 228.5t-184.5 77t-184.5 -77t-69.5 -228.5z" glyph-name="ohorn" horiz-adv-x="1179" unicode="ơ"/><glyph d="M698 -20q-274 0 -433 143t-159 422v889h310v-867q0 -158 73.5 -239.5t208.5 -81.5q133 0 207 82t74 239v867h291v180h252v-408h-234v-661q0 -279 -160 -422t-430 -143z" glyph-name="Uhorn" horiz-adv-x="1394" unicode="Ư"/><glyph d="M406 461q0 -233 196 -234q100 0 161.5 58.5t61.5 175.5v604h291v180h252v-407h-244v-838h-299v223h-12q-16 -92 -103 -167.5t-237 -75.5q-162 0 -264.5 105t-102.5 304v676h300v-604z" glyph-name="uhorn" unicode="ư"/><glyph d="M35 0l518 1434h395l518 -1434h-321l-92 268h-604l-93 -268h-321zM332 1839h268l139 -209l140 209h268l-199 -287h-418zM526 496h449l-215 624h-19z" glyph-name="uni01CD" horiz-adv-x="1501" unicode="Ǎ"/><glyph d="M397 -20q-145 0 -243.5 74.5t-98.5 228.5q0 84 31 143t90.5 92t116.5 49.5t139 28.5l180 27q76 10 102.5 28.5t26.5 61.5v14q0 143 -166 143q-182 0 -182 -141v-18l-280 -2v49q0 328 471 327q238 0 344 -85t106 -261v-739h-284v188h-13q-10 -29 -30.5 -58.5t-58.5 -66 t-103.5 -60t-147.5 -23.5zM162 1470h268l139 -208l140 208h268l-199 -286h-418zM354 307q0 -115 146 -114q102 0 171.5 56t69.5 122v118q-16 -25 -114 -40l-150 -27q-123 -19 -123 -115z" glyph-name="uni01CE" horiz-adv-x="1140" unicode="ǎ"/><glyph d="M106 0v1434h308v-1434h-308zM-162 1839h268l140 -209l139 209h268l-198 -287h-418z" glyph-name="uni01CF" horiz-adv-x="520" unicode="Ǐ"/><glyph d="M92 0v1065h299v-1065h-299zM-178 1470h268l139 -208l140 208h268l-199 -286h-418z" glyph-name="uni01D0" horiz-adv-x="483" unicode="ǐ"/><glyph d="M760 -20q-309 0 -496.5 203.5t-187.5 533.5q0 332 187.5 533.5t496.5 201.5t496.5 -201.5t187.5 -533.5q0 -330 -187.5 -533.5t-496.5 -203.5zM340 1839h268l140 -209l139 209h268l-199 -287h-417zM391 717q0 -217 97.5 -345t271.5 -128t271 128t97 345t-97 344t-271 127 t-271.5 -127t-97.5 -344z" glyph-name="uni01D1" horiz-adv-x="1519" unicode="Ǒ"/><glyph d="M590 -20q-221 0 -378 140t-157 412.5t157 412.5t378 140t377.5 -140t156.5 -412.5t-156.5 -412.5t-377.5 -140zM170 1470h268l140 -208l139 208h268l-199 -286h-417zM336 532.5q0 -151.5 69.5 -228.5t184.5 -77t184.5 77t69.5 228.5t-69.5 228.5t-184.5 77t-184.5 -77 t-69.5 -228.5z" glyph-name="uni01D2" horiz-adv-x="1179" unicode="ǒ"/><glyph d="M698 -20q-274 0 -433 143t-159 422v889h310v-867q0 -158 73.5 -239.5t208.5 -81.5q133 0 207 82t74 239v867h309v-889q0 -279 -160 -422t-430 -143zM254 1839h268l140 -209l139 209h268l-199 -287h-417z" glyph-name="uni01D3" horiz-adv-x="1394" unicode="Ǔ"/><glyph d="M406 461q0 -233 196 -234q100 0 161.5 58.5t61.5 175.5v604h299v-1065h-299v223h-12q-16 -92 -103 -167.5t-237 -75.5q-162 0 -264.5 105t-102.5 304v676h300v-604zM190 1470h269l139 -208l139 208h269l-199 -286h-418z" glyph-name="uni01D4" unicode="ǔ"/><glyph d="M698 -20q-274 0 -433 143t-159 422v889h310v-867q0 -158 73.5 -239.5t208.5 -81.5q133 0 207 82t74 239v867h309v-889q0 -279 -160 -422t-430 -143zM264 1720q0 66 49 113t115 47q68 0 116 -46t48 -113.5t-48 -114.5t-116 -47q-66 0 -115 46.5t-49 114.5zM338 2054v174 h672v-174h-672zM756 1720.5q0 67.5 48 113.5t116 46q66 0 114.5 -47t48.5 -113q0 -68 -49 -114.5t-114 -46.5q-68 0 -116 47t-48 114.5z" glyph-name="uni01D5" horiz-adv-x="1394" unicode="Ǖ"/><glyph d="M406 461q0 -233 196 -234q100 0 161.5 58.5t61.5 175.5v604h299v-1065h-299v223h-12q-16 -92 -103 -167.5t-237 -75.5q-162 0 -264.5 105t-102.5 304v676h300v-604zM201 1352q0 66 49 112.5t115 46.5q68 0 115.5 -46t47.5 -113.5t-48 -114.5t-115 -47q-66 0 -115 47 t-49 115zM274 1686v174h672v-174h-672zM692 1351.5q0 67.5 48 113.5t116 46q66 0 115 -47t49 -112q0 -68 -49 -115t-115 -47q-68 0 -116 47t-48 114.5z" glyph-name="uni01D6" unicode="ǖ"/><glyph d="M698 -20q-274 0 -433 143t-159 422v889h310v-867q0 -158 73.5 -239.5t208.5 -81.5q133 0 207 82t74 239v867h309v-889q0 -279 -160 -422t-430 -143zM264 1720q0 66 49 113t115 47q68 0 116 -46t48 -113.5t-48 -114.5t-116 -47q-66 0 -115 46.5t-49 114.5zM520 1942 l215 286h260l-217 -286h-258zM756 1720.5q0 67.5 48 113.5t116 46q66 0 114.5 -47t48.5 -113q0 -68 -49 -114.5t-114 -46.5q-68 0 -116 47t-48 114.5z" glyph-name="uni01D7" horiz-adv-x="1394" unicode="Ǘ"/><glyph d="M406 461q0 -233 196 -234q100 0 161.5 58.5t61.5 175.5v604h299v-1065h-299v223h-12q-16 -92 -103 -167.5t-237 -75.5q-162 0 -264.5 105t-102.5 304v676h300v-604zM201 1352q0 66 49 112.5t115 46.5q68 0 115.5 -46t47.5 -113.5t-48 -114.5t-115 -47q-66 0 -115 47 t-49 115zM457 1573l215 287h260l-217 -287h-258zM692 1351.5q0 67.5 48 113.5t116 46q66 0 115 -47t49 -112q0 -68 -49 -115t-115 -47q-68 0 -116 47t-48 114.5z" glyph-name="uni01D8" unicode="ǘ"/><glyph d="M698 -20q-274 0 -433 143t-159 422v889h310v-867q0 -158 73.5 -239.5t208.5 -81.5q133 0 207 82t74 239v867h309v-889q0 -279 -160 -422t-430 -143zM264 1720q0 66 49 113t115 47q68 0 116 -46t48 -113.5t-48 -114.5t-116 -47q-66 0 -115 46.5t-49 114.5zM268 2224h269 l139 -209l139 209h268l-198 -287h-418zM756 1720.5q0 67.5 48 113.5t116 46q66 0 114.5 -47t48.5 -113q0 -68 -49 -114.5t-114 -46.5q-68 0 -116 47t-48 114.5z" glyph-name="uni01D9" horiz-adv-x="1394" unicode="Ǚ"/><glyph d="M406 461q0 -233 196 -234q100 0 161.5 58.5t61.5 175.5v604h299v-1065h-299v223h-12q-16 -92 -103 -167.5t-237 -75.5q-162 0 -264.5 105t-102.5 304v676h300v-604zM201 1352q0 66 49 112.5t115 46.5q68 0 115.5 -46t47.5 -113.5t-48 -114.5t-115 -47q-66 0 -115 47 t-49 115zM207 1855h268l139 -208l140 208h268l-199 -286h-417zM692 1351.5q0 67.5 48 113.5t116 46q66 0 115 -47t49 -112q0 -68 -49 -115t-115 -47q-68 0 -116 47t-48 114.5z" glyph-name="uni01DA" unicode="ǚ"/><glyph d="M698 -20q-274 0 -433 143t-159 422v889h310v-867q0 -158 73.5 -239.5t208.5 -81.5q133 0 207 82t74 239v867h309v-889q0 -279 -160 -422t-430 -143zM264 1720q0 66 49 113t115 47q68 0 116 -46t48 -113.5t-48 -114.5t-116 -47q-66 0 -115 46.5t-49 114.5zM338 2228h258 l217 -286h-260zM756 1720.5q0 67.5 48 113.5t116 46q66 0 114.5 -47t48.5 -113q0 -68 -49 -114.5t-114 -46.5q-68 0 -116 47t-48 114.5z" glyph-name="uni01DB" horiz-adv-x="1394" unicode="Ǜ"/><glyph d="M406 461q0 -233 196 -234q100 0 161.5 58.5t61.5 175.5v604h299v-1065h-299v223h-12q-16 -92 -103 -167.5t-237 -75.5q-162 0 -264.5 105t-102.5 304v676h300v-604zM201 1352q0 66 49 112.5t115 46.5q68 0 115.5 -46t47.5 -113.5t-48 -114.5t-115 -47q-66 0 -115 47 t-49 115zM276 1860h259l217 -287h-260zM692 1351.5q0 67.5 48 113.5t116 46q66 0 115 -47t49 -112q0 -68 -49 -115t-115 -47q-68 0 -116 47t-48 114.5z" glyph-name="uni01DC" unicode="ǜ"/><glyph d="M745 -20q-322 0 -495.5 193.5t-173.5 537.5q0 350 179 545.5t484 195.5q240 0 408 -120t199 -353h-304q-53 209 -303 209q-182 0 -267 -127t-85 -340q0 -215 87 -346t271 -131q133 0 227.5 71.5t94.5 227.5h-276v245h581v-149q0 -322 -165 -490.5t-462 -168.5zM332 1839 h268l139 -209l140 209h268l-199 -287h-418z" glyph-name="Gcaron" horiz-adv-x="1458" unicode="Ǧ"/><glyph d="M506 27q-84 0 -162 29.5t-143.5 89t-105.5 166t-40 245.5q0 266 134.5 397t316.5 131q207 0 313 -143v123h299v-1026q0 -139 -53 -237.5t-142 -145.5t-173 -65.5t-179 -18.5q-63 0 -122.5 7t-130 31.5t-121 62.5t-85 106.5t-34.5 159.5h264q4 -70 69.5 -103t151.5 -33 q113 0 184.5 58.5t71.5 177.5v131q-106 -143 -313 -143zM184 1470h269l139 -208l139 208h268l-198 -286h-418zM338 557q0 -137 70.5 -209t179.5 -72q104 0 175 72t71 209q0 135 -71 208t-175 73q-109 0 -179.5 -72t-70.5 -209z" glyph-name="gcaron" horiz-adv-x="1224" unicode="ǧ"/><glyph d="M106 0v1434h308v-674l571 674h361l-549 -639l604 -795h-352l-441 575l-194 -227v-348h-308zM311 1839h269l139 -209l139 209h268l-198 -287h-418z" glyph-name="uni01E8" horiz-adv-x="1435" unicode="Ǩ"/><glyph d="M106 0v1434h300v-807l391 438h329l-430 -453l486 -612h-330l-340 420l-106 -113v-307h-300zM-156 1839h269l139 -209l139 209h268l-198 -287h-418z" glyph-name="uni01E9" horiz-adv-x="1196" unicode="ǩ"/><glyph d="M881 -393q-37 -16 -96.5 -16.5t-121 18t-106.5 72t-45 133.5q0 111 86 182q-242 53 -382 245.5t-140 475.5q0 332 187.5 533.5t496.5 201.5t496.5 -201.5t187.5 -533.5q0 -293 -149.5 -488.5t-403.5 -238.5q-76 -16 -117 -55t-41 -87q0 -53 43 -74.5t105 -0.5v-166z M391 717q0 -217 97.5 -345t271.5 -128t271 128t97 345t-97 344t-271 127t-271.5 -127t-97.5 -344z" glyph-name="uni01EA" horiz-adv-x="1519" unicode="Ǫ"/><glyph d="M696 -393q-35 -16 -94 -16.5t-120.5 18t-106.5 72t-45 133.5q0 115 92 188q-162 47 -264.5 180t-102.5 350q0 272 157 412.5t378 140.5t377.5 -140t156.5 -413q0 -233 -116.5 -370t-298.5 -172q-78 -16 -118 -55t-40 -87q0 -53 43 -74.5t102 -0.5v-166zM336 532.5 q0 -151.5 69.5 -228.5t184.5 -77t184.5 77t69.5 228.5t-69.5 228.5t-184.5 77t-184.5 -77t-69.5 -228.5z" glyph-name="uni01EB" horiz-adv-x="1179" unicode="ǫ"/><glyph d="M674 -20q-281 0 -439.5 128t-158.5 361h317q4 -104 73 -170t210 -66q121 0 188.5 49.5t67.5 137.5q0 72 -48 110.5t-151 59.5l-201 41q-418 80 -417 401q0 203 149.5 311.5t403.5 108.5q258 0 404.5 -112.5t146.5 -329.5h-316q2 92 -64.5 140t-176.5 48 q-117 0 -171.5 -48t-54.5 -118q0 -121 170 -155l185 -37q250 -51 358 -151.5t108 -266.5q0 -221 -160.5 -331.5t-422.5 -110.5zM459 -239.5q0 75.5 50 122.5t128 47q90 0 146.5 -66.5t56.5 -197.5q0 -158 -83 -247t-222 -89h-23v121q86 2 123 33t37 96q-100 2 -156.5 53.5 t-56.5 127z" glyph-name="Scommaaccent" horiz-adv-x="1333" unicode="Ș"/><glyph d="M506 -20q-217 0 -338 94t-123 276h268q14 -147 195 -147q168 0 168 110q0 74 -103 95l-196 41q-303 70 -303 311q0 154 119.5 239.5t316.5 85.5q211 0 322.5 -97t115.5 -271h-250q-16 145 -184 145q-150 0 -149 -94q0 -80 110 -102l201 -43q307 -68 307 -304 q0 -170 -134 -254.5t-343 -84.5zM330 -258q0 76 50 123t128 47q90 0 146.5 -66.5t56.5 -197.5q0 -158 -83 -247t-222 -89h-23v121q86 2 123 32.5t37 96.5q-100 2 -156.5 53t-56.5 127z" glyph-name="scommaaccent" horiz-adv-x="1028" unicode="ș"/><glyph d="M461 0v1161h-416v273h1139v-273h-416v-1161h-307zM367 -239.5q0 75.5 50 122.5t128 47q90 0 146.5 -66.5t56.5 -197.5q0 -158 -83 -247t-223 -89h-22v121q86 2 123 33t37 96q-100 2 -156.5 53.5t-56.5 127z" glyph-name="uni021A" horiz-adv-x="1228" unicode="Ț"/><glyph d="M569 -14q-354 0 -354 333v515h-180v231h180v274h299v-274h211v-231h-211v-472q0 -68 28.5 -102.5t106.5 -34.5q41 0 84 4v-223q-78 -20 -164 -20zM336 -239.5q0 75.5 50 122.5t128 47q90 0 146.5 -66.5t56.5 -197.5q0 -158 -83 -247t-222 -89h-23v121q86 2 123 33t37 96 q-100 2 -156.5 53.5t-56.5 127z" glyph-name="uni021B" horiz-adv-x="778" unicode="ț"/><glyph d="M80 -399q-115 0 -174 6v233h104q121 0 121 140v1085h299v-1131q0 -333 -350 -333z" glyph-name="uni0237" horiz-adv-x="522" unicode="ȷ"/><glyph d="M561 -27q-225 0 -365.5 135.5t-140.5 426.5q0 35 6 67h752q-10 137 -71.5 198.5t-178.5 61.5q-182 0 -229 -145h-264q39 178 169 273t320 95q227 0 382 -136t155 -418.5t-152 -420t-383 -137.5zM338 440q4 -109 59.5 -174t171.5 -65q217 0 242 239h-473z" glyph-name="uni0259" horiz-adv-x="1150" unicode="ə"/><glyph d="M0 1188l199 287h417l199 -287h-268l-139 209l-140 -209h-268z" glyph-name="circumflex" horiz-adv-x="815" unicode="ˆ"/><glyph d="M0 1470h268l140 -208l139 208h268l-199 -286h-417z" glyph-name="caron" horiz-adv-x="833" unicode="ˇ"/><glyph d="M342 1159q-160 0 -246 84t-86 232h197q2 -76 34.5 -110t100.5 -34t100.5 34t34.5 110h197q0 -147 -86 -231.5t-246 -84.5z" glyph-name="breve" horiz-adv-x="684" unicode="˘"/><glyph d="M164 1190q-66 0 -115 47t-49 115q0 66 49 112.5t115 46.5q68 0 116 -46t48 -113.5t-48 -114.5t-116 -47z" glyph-name="dotaccent" horiz-adv-x="327" unicode="˙"/><glyph d="M211 1143q-88 0 -149.5 59.5t-61.5 145.5t61.5 145t149.5 59q90 0 151.5 -59t61.5 -145t-61.5 -145.5t-151.5 -59.5zM139 1347.5q0 -32.5 20.5 -52t51.5 -19.5t52.5 20.5t21.5 51.5q0 33 -21.5 53t-52.5 20t-51.5 -20.5t-20.5 -53z" glyph-name="ring" horiz-adv-x="423" unicode="˚"/><glyph d="M369 -393q-37 -16 -96.5 -16.5t-121 18t-106.5 72t-45 133.5q0 119 91 187.5t198 68.5l192 -70q-125 0 -192.5 -45t-67.5 -107q0 -53 43 -74.5t105 -0.5v-166z" glyph-name="ogonek" horiz-adv-x="481" unicode="˛"/><glyph d="M518 1206q-53 0 -96 17.5t-66.5 39t-50 39t-51.5 17.5q-23 0 -45.5 -13.5t-22.5 -45.5h-176q0 113 53.5 175t151.5 62q53 0 96 -17.5t66.5 -39t50.5 -39t51 -17.5q23 0 45.5 13.5t22.5 44.5h176q0 -113 -53.5 -174.5t-151.5 -61.5z" glyph-name="tilde" horiz-adv-x="733" unicode="˜"/><glyph d="M373 1188l215 287h260l-217 -287h-258zM0 1188l215 287h260l-217 -287h-258z" glyph-name="hungarumlaut" horiz-adv-x="847" unicode="˝"/><glyph d="M215 1188l-215 287h258l217 -287h-260z" glyph-name="gravecomb" horiz-adv-x="0" unicode="̀"/><glyph d="M0 1188l215 287h260l-217 -287h-258z" glyph-name="acutecomb" horiz-adv-x="0" unicode="́"/><glyph d="M0 1188l199 287h417l199 -287h-268l-139 209l-140 -209h-268z" glyph-name="uni0302" horiz-adv-x="0" unicode="̂"/><glyph d="M518 1206q-53 0 -96 17.5t-66.5 39t-50 39t-51.5 17.5q-23 0 -45.5 -13.5t-22.5 -45.5h-176q0 113 53.5 175t151.5 62q53 0 96 -17.5t66.5 -39t50.5 -39t51 -17.5q23 0 45.5 13.5t22.5 44.5h176q0 -113 -53.5 -174.5t-151.5 -61.5z" glyph-name="tildecomb" horiz-adv-x="0" unicode="̃"/><glyph d="M0 1300v175h672v-175h-672z" glyph-name="uni0304" horiz-adv-x="0" unicode="̄"/><glyph d="M342 1159q-160 0 -246 84t-86 232h197q2 -76 34.5 -110t100.5 -34t100.5 34t34.5 110h197q0 -147 -86 -231.5t-246 -84.5z" glyph-name="uni0306" horiz-adv-x="0" unicode="̆"/><glyph d="M164 1190q-66 0 -115 47t-49 115q0 66 49 112.5t115 46.5q68 0 116 -46t48 -113.5t-48 -114.5t-116 -47z" glyph-name="uni0307" horiz-adv-x="0" unicode="̇"/><glyph d="M655 1190q-68 0 -115.5 47t-47.5 114.5t48 113.5t115 46q66 0 115 -47t49 -112q0 -68 -49 -115t-115 -47zM0 1352q0 66 49 112.5t115 46.5q68 0 116 -46t48 -113.5t-48.5 -114.5t-115.5 -47q-66 0 -115 47t-49 115z" glyph-name="uni0308" horiz-adv-x="0" unicode="̈"/><glyph d="M252 1286q88 2 88 72q0 31 -17.5 47t-43.5 16q-51 0 -58 -55h-151q0 109 63.5 161t149.5 52q92 0 156.5 -54.5t64.5 -154.5q0 -88 -51.5 -140t-130.5 -65z" glyph-name="hookabovecomb" horiz-adv-x="0" unicode="̉"/><glyph d="M211 1143q-88 0 -149.5 59.5t-61.5 145.5t61.5 145t149.5 59q90 0 151.5 -59t61.5 -145t-61.5 -145.5t-151.5 -59.5zM139 1347.5q0 -32.5 20.5 -52t51.5 -19.5t52.5 20.5t21.5 51.5q0 33 -21.5 53t-52.5 20t-51.5 -20.5t-20.5 -53z" glyph-name="uni030A" horiz-adv-x="0" unicode="̊"/><glyph d="M373 1188l215 287h260l-217 -287h-258zM0 1188l215 287h260l-217 -287h-258z" glyph-name="uni030B" horiz-adv-x="0" unicode="̋"/><glyph d="M0 1470h268l140 -208l139 208h268l-199 -286h-417z" glyph-name="uni030C" horiz-adv-x="0" unicode="̌"/><glyph d="M393 1296q-86 -2 -123 -32.5t-37 -96.5q100 -2 156.5 -53t56.5 -127t-50 -123t-128 -47q-90 0 -146 66.5t-56 197.5q0 158 82.5 247t222.5 89h22v-121z" glyph-name="uni0312" horiz-adv-x="0" unicode="̒"/><glyph d="M0 838v227h291v180h252v-407h-543z" glyph-name="uni031B" horiz-adv-x="0" unicode="̛"/><glyph d="M283 -471q-74 0 -127.5 52t-53.5 126t53.5 126t127.5 52q76 0 129 -52t53 -126q0 -76 -53 -127t-129 -51z" glyph-name="dotbelowcomb" horiz-adv-x="0" unicode="̣"/><glyph d="M27 -549q86 2 122.5 33t36.5 96q-100 2 -156.5 53.5t-56.5 127t50.5 122.5t128.5 47q90 0 146 -66.5t56 -197.5q0 -158 -83 -247t-222 -89h-22v121z" glyph-name="uni0326" horiz-adv-x="0" unicode="̦"/><glyph d="M76 -369q59 -4 98 15.5t39 58.5q0 45 -45 59.5t-88 -14.5l-80 98l137 152h197l-109 -106h15q78 0 128 -54.5t50 -138.5q0 -117 -98.5 -167t-243.5 -50v147z" glyph-name="uni0327" horiz-adv-x="0" unicode="̧"/><glyph d="M369 -393q-37 -16 -96.5 -16.5t-121 18t-106.5 72t-45 133.5q0 119 91 187.5t198 68.5l192 -70q-125 0 -192.5 -45t-67.5 -107q0 -53 43 -74.5t105 -0.5v-166z" glyph-name="uni0328" horiz-adv-x="0" unicode="̨"/><glyph d="M35 0l647 1460h2l647 -1460h-1296zM401 231h564l-281 693z" glyph-name="Delta" horiz-adv-x="1366" unicode="Δ"/><glyph d="M117 0v242h200q-242 193 -241.5 497.5t215.5 506.5t501.5 202t501.5 -202t215 -507t-239 -497h198v-242h-542v324q135 59 205.5 171.5t70.5 243.5q0 180 -117.5 300t-292 120t-291 -119.5t-116.5 -300.5q0 -133 70.5 -244.5t206.5 -170.5v-324h-545z" glyph-name="Omega" horiz-adv-x="1585" unicode="Ω"/><glyph d="M106 -389v1454h300v-604q0 -233 196 -234q100 0 161.5 58.5t61.5 175.5v604h299v-1065h-299v223h-12q-16 -92 -103 -167.5t-237 -75.5q-23 0 -67 4v-373h-300z" glyph-name="mu" unicode="μ"/><glyph d="M1198 -12q-57 0 -107.5 12t-100.5 42t-79.5 94.5t-29.5 154.5v518h-291v-809h-299v809h-205v256h1296v-256h-202v-449q0 -68 27.5 -94t85 -26t112.5 28v-227q-53 -53 -207 -53z" glyph-name="pi" horiz-adv-x="1480" unicode="π"/><glyph d="M106 0v1434h979v-267h-671v-321h610v-240h-610v-340h692v-266h-1000zM207 1720q0 66 49 113t115 47q68 0 116 -46t48 -113.5t-48.5 -114.5t-115.5 -47q-66 0 -115 46.5t-49 114.5zM698 1720.5q0 67.5 48.5 113.5t115.5 46q66 0 115 -47t49 -113q0 -68 -49 -114.5 t-115 -46.5q-68 0 -116 47t-48 114.5z" glyph-name="afii10023" horiz-adv-x="1161" unicode="Ё"/><glyph d="M106 0v1434h924v-271h-610v-1163h-314zM424 1556l215 287h260l-217 -287h-258z" glyph-name="afii10052" horiz-adv-x="1075" unicode="Ѓ"/><glyph d="M750 -20q-311 0 -492.5 195.5t-181.5 541.5q0 344 182 539.5t496 195.5q248 0 410.5 -130t183.5 -386h-299q-57 252 -306 252q-147 0 -233 -90t-111 -246h402v-250h-406q23 -166 109 -262t239 -96q248 0 306 254h299q-20 -258 -183 -388t-415 -130z" glyph-name="afii10053" horiz-adv-x="1409" unicode="Є"/><glyph d="M106 0v1434h308v-1434h-308zM-156 1720q0 66 49.5 113t114.5 47q68 0 116 -46t48 -113.5t-48 -114.5t-116 -47q-66 0 -115 46.5t-49 114.5zM336 1720.5q0 67.5 48 113.5t116 46q66 0 115 -47t49 -113q0 -68 -49.5 -114.5t-114.5 -46.5q-68 0 -116 47t-48 114.5z" glyph-name="afii10056" horiz-adv-x="520" unicode="Ї"/><glyph d="M106 0v1434h308v-674l571 674h361l-549 -639l604 -795h-352l-441 575l-194 -227v-348h-308zM582 1556l215 287h260l-217 -287h-258z" glyph-name="afii10061" horiz-adv-x="1435" unicode="Ќ"/><glyph d="M184 244q90 -10 146.5 7t74 38.5t35.5 60.5q31 78 -26 211l-369 873h346l227 -629l234 629h346l-457 -1061q-109 -250 -226.5 -338t-330.5 -68v277zM289 1843h196q2 -76 35 -109.5t100.5 -33.5t100.5 33.5t35 109.5h196q0 -147 -86 -231t-245.5 -84t-245.5 84t-86 231z " glyph-name="afii10062" horiz-adv-x="1243" unicode="Ў"/><glyph d="M35 0l518 1434h395l518 -1434h-321l-92 268h-604l-93 -268h-321zM526 496h449l-215 624h-19z" glyph-name="afii10017" horiz-adv-x="1501" unicode="А"/><glyph d="M106 0v1434h924v-271h-610v-209h270q272 0 407.5 -127t135.5 -350t-136 -350t-407 -127h-584zM420 266h258q109 0 166 55.5t57 155.5q0 102 -57.5 157.5t-165.5 55.5h-258v-424z" glyph-name="afii10018" horiz-adv-x="1288" unicode="Б"/><glyph d="M106 0v1434h582q233 0 349 -95.5t116 -263.5q0 -221 -207 -287q305 -82 305 -368q0 -186 -134 -303t-404 -117h-607zM414 258h288q121 0 176.5 55.5t55.5 141.5q0 90 -55.5 146t-176.5 56h-288v-399zM414 852h262q74 0 122 41t48 125q0 158 -170 158h-262v-324z" glyph-name="afii10019" horiz-adv-x="1306" unicode="В"/><glyph d="M106 0v1434h924v-271h-610v-1163h-314z" glyph-name="afii10020" horiz-adv-x="1075" unicode="Г"/><glyph d="M35 -141v397h100q182 143 182 760v418h1067v-1178h138v-397h-299v141h-889v-141h-299zM465 256h606v907h-440v-147q0 -615 -166 -760z" glyph-name="afii10021" horiz-adv-x="1576" unicode="Д"/><glyph d="M106 0v1434h979v-267h-671v-321h610v-240h-610v-340h692v-266h-1000z" glyph-name="afii10022" horiz-adv-x="1161" unicode="Е"/><glyph d="M1698 0l-498 588v-588h-311v588l-498 -588h-356l604 723l-596 711h356l490 -576v576h311v-576l490 576h356l-596 -711l604 -723h-356z" glyph-name="afii10024" horiz-adv-x="2088" unicode="Ж"/><glyph d="M596 -20q-268 0 -400.5 136t-129.5 371h282q2 -133 75 -194.5t183 -61.5q102 0 175 51.5t73 151.5q0 90 -65.5 145.5t-204.5 55.5h-84v215h71q236 0 236 174q0 86 -56.5 129t-142.5 43q-90 0 -152.5 -54.5t-64.5 -174.5h-278q0 229 129 357t372 128q221 0 352.5 -102.5 t131.5 -274.5q0 -131 -71 -211t-163 -102q100 -10 196.5 -96t96.5 -250q0 -193 -152.5 -314.5t-408.5 -121.5z" glyph-name="afii10025" horiz-adv-x="1222" unicode="З"/><glyph d="M1317 0h-307v924h-6l-566 -924h-332v1434h308v-942h6l577 942h320v-1434z" glyph-name="afii10026" horiz-adv-x="1423" unicode="И"/><glyph d="M1317 0h-307v924h-6l-566 -924h-332v1434h308v-942h6l577 942h320v-1434zM379 1843h196q2 -76 35 -109.5t100.5 -33.5t100.5 33.5t35 109.5h196q0 -147 -86 -231t-245.5 -84t-245.5 84t-86 231z" glyph-name="afii10027" horiz-adv-x="1423" unicode="Й"/><glyph d="M106 0v1434h308v-674l571 674h361l-549 -639l604 -795h-352l-441 575l-194 -227v-348h-308z" glyph-name="afii10028" horiz-adv-x="1435" unicode="К"/><glyph d="M31 256q102 -2 156.5 40t54.5 169v969h1054v-1434h-313v1163h-428v-712q0 -252 -143.5 -371t-380.5 -94v270z" glyph-name="afii10029" horiz-adv-x="1402" unicode="Л"/><glyph d="M106 0v1434h388l374 -1016l377 1016h387v-1434h-307v903h-10l-332 -903h-229l-330 903h-10v-903h-308z" glyph-name="afii10030" horiz-adv-x="1738" unicode="М"/><glyph d="M975 0v590h-561v-590h-308v1434h308v-590h561v590h307v-1434h-307z" glyph-name="afii10031" horiz-adv-x="1388" unicode="Н"/><glyph d="M760 -20q-309 0 -496.5 203.5t-187.5 533.5q0 332 187.5 533.5t496.5 201.5t496.5 -201.5t187.5 -533.5q0 -330 -187.5 -533.5t-496.5 -203.5zM391 717q0 -217 97.5 -345t271.5 -128t271 128t97 345t-97 344t-271 127t-271.5 -127t-97.5 -344z" glyph-name="afii10032" horiz-adv-x="1519" unicode="О"/><glyph d="M106 0v1434h1176v-1434h-313v1163h-549v-1163h-314z" glyph-name="afii10033" horiz-adv-x="1388" unicode="П"/><glyph d="M106 0v1434h580q274 0 410.5 -129t136.5 -351q0 -219 -136 -348t-411 -129h-272v-477h-308zM414 743h262q123 0 182.5 56.5t59.5 154.5q0 213 -242 213h-262v-424z" glyph-name="afii10034" horiz-adv-x="1288" unicode="Р"/><glyph d="M750 -20q-311 0 -492.5 195.5t-181.5 541.5q0 344 182 539.5t496 195.5q248 0 410.5 -130t183.5 -386h-299q-57 252 -306 252q-178 0 -266 -130t-88 -341q0 -213 87 -343t267 -130q248 0 306 254h299q-20 -258 -183 -388t-415 -130z" glyph-name="afii10035" horiz-adv-x="1409" unicode="С"/><glyph d="M461 0v1161h-416v273h1139v-273h-416v-1161h-307z" glyph-name="afii10036" horiz-adv-x="1228" unicode="Т"/><glyph d="M184 244q90 -10 146.5 7t74 38.5t35.5 60.5q31 78 -26 211l-369 873h346l227 -629l234 629h346l-457 -1061q-109 -250 -226.5 -338t-330.5 -68v277z" glyph-name="afii10037" horiz-adv-x="1243" unicode="У"/><glyph d="M598 -31v164q-244 39 -383 192.5t-139 391.5q0 240 139 393.5t383 189.5v164h313v-164q246 -37 385.5 -190.5t139.5 -392.5q0 -238 -140.5 -391.5t-384.5 -192.5v-164h-313zM375 717q0 -125 56 -213t167 -123v672q-223 -70 -223 -336zM911 381q111 35 168.5 123t57.5 213 q0 266 -226 336v-672z" glyph-name="afii10038" horiz-adv-x="1511" unicode="Ф"/><glyph d="M1010 0l-316 477l-315 -477h-344l487 739l-459 695h345l286 -435l287 435h344l-459 -695l488 -739h-344z" glyph-name="afii10039" horiz-adv-x="1388" unicode="Х"/><glyph d="M106 0v1434h314v-1164h549v1164h313v-1164h141v-559h-299v289h-1018z" glyph-name="afii10040" horiz-adv-x="1458" unicode="Ц"/><glyph d="M494 311q-197 0 -307.5 116t-110.5 364v643h313v-629q0 -217 229 -217q131 0 215.5 73.5t94.5 141.5v631h313v-1434h-313v559q-33 -80 -147.5 -164t-286.5 -84z" glyph-name="afii10041" horiz-adv-x="1347" unicode="Ч"/><glyph d="M106 0v1434h314v-1164h282v1164h312v-1164h282v1164h314v-1434h-1504z" glyph-name="afii10042" horiz-adv-x="1716" unicode="Ш"/><glyph d="M106 0v1434h314v-1164h282v1164h312v-1164h282v1164h314v-1164h137v-559h-299v289h-1342z" glyph-name="afii10043" horiz-adv-x="1781" unicode="Щ"/><glyph d="M35 1163v271h493v-480h263q276 0 413 -126t137 -351q0 -223 -137 -350t-413 -127h-576v1163h-180zM528 266h258q109 0 166.5 55.5t57.5 155.5q0 102 -57.5 157.5t-166.5 55.5h-258v-424z" glyph-name="afii10044" horiz-adv-x="1396" unicode="Ъ"/><glyph d="M106 0v1434h314v-480h262q276 0 413.5 -126t137.5 -351q0 -223 -137.5 -350t-413.5 -127h-576zM420 266h258q109 0 166 55.5t57 155.5q0 102 -57.5 157.5t-165.5 55.5h-258v-424zM1382 0v1434h308v-1434h-308z" glyph-name="afii10045" horiz-adv-x="1794" unicode="Ы"/><glyph d="M106 0v1434h314v-480h262q276 0 413.5 -126t137.5 -351q0 -223 -137.5 -350t-413.5 -127h-576zM420 266h258q109 0 166 55.5t57 155.5q0 102 -57.5 157.5t-165.5 55.5h-258v-424z" glyph-name="afii10046" horiz-adv-x="1288" unicode="Ь"/><glyph d="M602 602v250h402q-25 156 -111 246t-234 90q-248 0 -305 -252h-299q20 256 183 386t411 130q313 0 495.5 -195.5t182.5 -539.5q0 -346 -181 -541.5t-493 -195.5q-252 0 -414.5 130t-183.5 388h299q57 -254 305 -254q154 0 240 96t109 262h-406z" glyph-name="afii10047" horiz-adv-x="1402" unicode="Э"/><glyph d="M106 0v1434h308v-590h194q35 279 216.5 443.5t459.5 164.5q309 0 496.5 -201.5t187.5 -533.5q0 -330 -187.5 -533.5t-496.5 -203.5q-276 0 -458.5 165.5t-217.5 444.5h-194v-590h-308zM915 717q0 -217 97.5 -345t271.5 -128t271.5 128t97.5 345t-97.5 344t-271.5 127 t-271.5 -127t-97.5 -344z" glyph-name="afii10048" horiz-adv-x="2043" unicode="Ю"/><glyph d="M358 0h-303l301 518q-287 104 -286 436q0 221 136 350.5t410 129.5h580v-1434h-307v477h-258zM385 954q0 -98 59.5 -154.5t182.5 -56.5h262v424h-262q-242 0 -242 -213z" glyph-name="afii10049" horiz-adv-x="1302" unicode="Я"/><glyph d="M399 -20q-143 0 -243.5 72.5t-100.5 221.5q0 82 32 140.5t89 90.5t113.5 48t132.5 25l205 26q68 8 87 29.5t19 75.5v12q0 82 -42 113.5t-118 31.5q-174 0 -174 -137v-10l-282 -2v41q0 328 465 327q238 0 344 -85t106 -265v-459q0 -51 15.5 -65t54.5 -16v-177 q-37 -31 -123 -30q-98 0 -164.5 44t-66.5 140v14h-11q-14 -63 -99 -134.5t-239 -71.5zM350 313q0 -49 37 -82.5t123 -33.5q106 0 164.5 55t58.5 117v112q-18 -23 -102 -32l-135 -21q-72 -12 -109 -38t-37 -77z" glyph-name="afii10065" horiz-adv-x="1136" unicode="а"/><glyph d="M606 -18q-92 0 -179 32.5t-169 103t-132 205t-50 314.5v246q-2 285 120.5 418t362.5 133h68q106 0 159 45h265q-41 -154 -125 -216.5t-254 -62.5h-113q-92 0 -145.5 -60.5t-53.5 -148.5v-63q14 51 99.5 95t193.5 44q82 0 162 -29.5t153.5 -89t120 -169t46.5 -253.5 q0 -147 -50.5 -257.5t-131.5 -170t-169 -88t-178 -28.5zM365 526q0 -154 69.5 -228.5t174 -74.5t174 76t69.5 227q0 156 -69.5 236t-174 80t-174 -80t-69.5 -236z" glyph-name="afii10066" horiz-adv-x="1189" unicode="б"/><glyph d="M106 0v1065h562q182 0 292.5 -67.5t110.5 -200.5q0 -154 -149 -205q111 -33 172 -106.5t61 -176.5q0 -154 -126 -231.5t-302 -77.5h-621zM406 240h270q182 0 182 114q0 117 -184 117h-268v-231zM406 641h258q131 0 131 94q0 90 -129 90h-260v-184z" glyph-name="afii10067" horiz-adv-x="1210" unicode="в"/><glyph d="M106 0v1065h760v-234h-460v-831h-300z" glyph-name="afii10068" horiz-adv-x="901" unicode="г"/><glyph d="M305 0v-109h-270v342h98q63 63 80.5 181t17.5 348v303h977v-832h103v-342h-273v109h-733zM418 233h491v598h-379v-69q0 -215 -22 -340.5t-90 -188.5z" glyph-name="afii10069" horiz-adv-x="1345" unicode="д"/><glyph d="M592 -20q-106 0 -198.5 30.5t-170.5 94t-123 174t-45 256.5q0 281 151.5 415.5t383.5 134.5q225 0 365.5 -131t140.5 -415q0 -47 -6 -82h-750q23 -250 256 -250q180 0 221 141h264q-39 -178 -169 -273t-320 -95zM340 633h473q-4 100 -60.5 162.5t-170.5 62.5 q-211 0 -242 -225z" glyph-name="afii10070" horiz-adv-x="1150" unicode="е"/><glyph d="M1430 0l-373 393v-393h-299v395l-375 -395h-369l514 526l-503 539h370l363 -401v401h299v-401l362 401h369l-502 -539l514 -526h-370z" glyph-name="afii10072" horiz-adv-x="1814" unicode="ж"/><glyph d="M539 -18q-483 0 -484 424h267q0 -96 55 -152.5t170 -56.5q88 0 140 35.5t52 97.5q0 147 -247 147v152q211 2 210 121q0 57 -47 84.5t-114 27.5q-82 0 -131.5 -42t-49.5 -122h-270q0 186 118 283.5t333 97.5q197 0 319.5 -77.5t122.5 -221.5q0 -162 -180 -219 q29 -6 58.5 -17.5t74.5 -39t72.5 -77.5t27.5 -118q0 -154 -140 -240.5t-357 -86.5z" glyph-name="afii10073" horiz-adv-x="1101" unicode="з"/><glyph d="M106 0v1065h300v-645h8l430 645h303v-1065h-299v625h-6l-420 -625h-316z" glyph-name="afii10074" horiz-adv-x="1253" unicode="и"/><glyph d="M106 0v1065h300v-645h8l430 645h303v-1065h-299v625h-6l-420 -625h-316zM297 1475h197q2 -76 34.5 -110t100 -34t100.5 34t35 110h197q0 -147 -86.5 -231.5t-246 -84.5t-245.5 84.5t-86 231.5z" glyph-name="afii10075" horiz-adv-x="1253" unicode="й"/><glyph d="M106 0v1065h300v-418l372 418h338l-424 -455l484 -610h-326l-340 412l-104 -111v-301h-300z" glyph-name="afii10076" horiz-adv-x="1189" unicode="к"/><glyph d="M31 227q98 -2 155.5 47.5t57.5 184.5v606h927v-1065h-286l-11 831h-331v-387q0 -254 -136.5 -364.5t-375.5 -85.5v233z" glyph-name="afii10077" horiz-adv-x="1277" unicode="л"/><glyph d="M106 0v1065h351l305 -717l305 717h350v-1065h-299v598h-10l-238 -598h-217l-237 598h-10v-598h-300z" glyph-name="afii10078" horiz-adv-x="1523" unicode="м"/><glyph d="M106 0v1065h300v-393h364v393h299v-1065h-299v438h-364v-438h-300z" glyph-name="afii10079" horiz-adv-x="1175" unicode="н"/><glyph d="M590 -20q-221 0 -378 140t-157 412.5t157 412.5t378 140t377.5 -140t156.5 -412.5t-156.5 -412.5t-377.5 -140zM336 532.5q0 -151.5 69.5 -228.5t184.5 -77t184.5 77t69.5 228.5t-69.5 228.5t-184.5 77t-184.5 -77t-69.5 -228.5z" glyph-name="afii10080" horiz-adv-x="1179" unicode="о"/><glyph d="M106 0v1065h951v-1065h-299v831h-352v-831h-300z" glyph-name="afii10081" horiz-adv-x="1163" unicode="п"/><glyph d="M106 -389v1454h300v-154q31 74 115.5 124t197.5 50q188 0 327.5 -140t139.5 -412.5t-139.5 -412.5t-327.5 -140q-113 0 -198 50t-115 124v-543h-300zM393 532.5q0 -147.5 74 -226.5t180 -79q109 0 182.5 79t73.5 226.5t-73.5 226.5t-182.5 79q-106 0 -180 -79t-74 -226.5 z" glyph-name="afii10082" horiz-adv-x="1241" unicode="р"/><glyph d="M592 -20q-102 0 -194.5 30.5t-171.5 94t-125 173t-46 253t46 254t124 174t171 95t196 31.5q80 0 151.5 -18t146.5 -62t125 -134.5t64 -217.5h-270q-37 182 -219 183q-123 0 -187.5 -84t-64.5 -221.5t64.5 -219.5t187.5 -82q180 0 219 187h270q-12 -127 -62 -218.5 t-125 -136.5t-147.5 -63t-152.5 -18z" glyph-name="afii10083" horiz-adv-x="1140" unicode="с"/><glyph d="M393 0v831h-332v234h963v-234h-332v-831h-299z" glyph-name="afii10084" horiz-adv-x="1085" unicode="т"/><glyph d="M141 -158q98 -12 163 5.5t86.5 42t37.5 61.5q29 70 -2 145l-391 969h307l248 -688l254 688h307l-436 -1073q-100 -250 -223 -338t-351 -64v252z" glyph-name="afii10085" horiz-adv-x="1185" unicode="у"/><glyph d="M489 -389v387q-186 39 -310 169t-124 359q0 231 124 365.5t310 173.5v369h283v-369q184 -41 307 -175t123 -364q0 -227 -124 -360t-306 -170v-385h-283zM299 526q0 -246 190 -303v615q-190 -62 -190 -312zM772 223q186 61 186 303q0 248 -186 312v-615z" glyph-name="afii10086" horiz-adv-x="1257" unicode="ф"/><glyph d="M55 0l369 539l-346 526h321l195 -311l194 311h322l-346 -526l369 -539h-322l-217 324l-217 -324h-322z" glyph-name="afii10087" horiz-adv-x="1187" unicode="х"/><glyph d="M106 0v1065h300v-832h352v832h299v-832h135v-520h-287v287h-799z" glyph-name="afii10088" horiz-adv-x="1298" unicode="ц"/><glyph d="M442 274q-170 0 -278.5 101.5t-108.5 314.5v375h299v-338q0 -104 55.5 -154.5t147.5 -50.5q102 0 160.5 59.5t58.5 145.5v338h299v-1065h-299v477q-14 -74 -101.5 -138.5t-232.5 -64.5z" glyph-name="afii10089" horiz-adv-x="1181" unicode="ч"/><glyph d="M106 0v1065h300v-832h270v832h282v-832h271v832h299v-1065h-1422z" glyph-name="afii10090" horiz-adv-x="1634" unicode="ш"/><glyph d="M1376 -287v287h-1270v1065h300v-832h270v832h282v-832h271v832h299v-832h133v-520h-285z" glyph-name="afii10091" horiz-adv-x="1767" unicode="щ"/><glyph d="M35 831v234h483v-356h289q203 0 314.5 -95.5t111.5 -259.5q0 -166 -111.5 -260t-314.5 -94h-588v831h-184zM518 233h279q150 0 149.5 121t-149.5 121h-279v-242z" glyph-name="afii10092" horiz-adv-x="1288" unicode="ъ"/><glyph d="M106 0v1065h300v-356h288q203 0 314.5 -95.5t111.5 -259.5q0 -166 -111.5 -260t-314.5 -94h-588zM406 233h278q150 0 150 121t-150 121h-278v-242zM1239 0v1065h299v-1065h-299z" glyph-name="afii10093" horiz-adv-x="1644" unicode="ы"/><glyph d="M106 0v1065h300v-356h288q203 0 314.5 -95.5t111.5 -259.5q0 -166 -111.5 -260t-314.5 -94h-588zM406 233h278q150 0 150 121t-150 121h-278v-242z" glyph-name="afii10094" horiz-adv-x="1175" unicode="ь"/><glyph d="M496 444v183h290q-18 96 -79.5 152.5t-161.5 56.5q-182 0 -219 -183h-271q14 127 64.5 217.5t125 134.5t146.5 62t152 18q102 0 195 -31.5t171 -95t124 -174t46 -254t-46 -253t-125 -173t-171 -94t-194 -30.5q-80 0 -153 18t-147.5 63t-124.5 136.5t-63 218.5h271 q39 -186 219 -187q102 0 163.5 57.5t79.5 157.5h-292z" glyph-name="afii10095" horiz-adv-x="1134" unicode="э"/><glyph d="M92 0v1065h299v-416h123q35 215 183.5 325.5t342.5 110.5q221 0 378 -140t157 -412.5t-156.5 -412.5t-378.5 -140q-195 0 -343 110.5t-183 325.5h-123v-416h-299zM786 532.5q0 -151.5 70 -228.5t184.5 -77t184 77t69.5 228.5t-69.5 228.5t-184 77t-184.5 -77t-70 -228.5z " glyph-name="afii10096" horiz-adv-x="1630" unicode="ю"/><glyph d="M76 0l256 375q-129 33 -197.5 121t-68.5 215q0 166 111.5 260t314.5 94h587v-1065h-299v356h-151l-240 -356h-313zM352 710.5q0 -120.5 150 -120.5h278v241h-278q-150 0 -150 -120.5z" glyph-name="afii10097" horiz-adv-x="1185" unicode="я"/><glyph d="M592 -20q-106 0 -198.5 30.5t-170.5 94t-123 174t-45 256.5q0 281 151.5 415.5t383.5 134.5q225 0 365.5 -131t140.5 -415q0 -47 -6 -82h-750q23 -250 256 -250q180 0 221 141h264q-39 -178 -169 -273t-320 -95zM162 1352q0 66 49 112.5t115 46.5q68 0 115.5 -46 t47.5 -113.5t-48 -114.5t-115 -47q-66 0 -115 47t-49 115zM340 633h473q-4 100 -60.5 162.5t-170.5 62.5q-211 0 -242 -225zM653 1351.5q0 67.5 48.5 113.5t115.5 46q66 0 115 -47t49 -112q0 -68 -49 -115t-115 -47q-68 0 -116 47t-48 114.5z" glyph-name="afii10071" horiz-adv-x="1150" unicode="ё"/><glyph d="M106 0v1065h760v-234h-460v-831h-300zM315 1188l215 287h261l-218 -287h-258z" glyph-name="afii10100" horiz-adv-x="901" unicode="ѓ"/><glyph d="M592 -20q-102 0 -194.5 30.5t-171.5 94t-125 173t-46 253t46 254t124 174t171 95t196 31.5q80 0 151.5 -18t146.5 -62t125 -134.5t64 -217.5h-270q-37 182 -219 183q-100 0 -161.5 -56.5t-80.5 -152.5h291v-183h-293q18 -100 79.5 -157.5t164.5 -57.5q180 0 219 187h270 q-12 -127 -62 -218.5t-125 -136.5t-147.5 -63t-152.5 -18z" glyph-name="afii10101" horiz-adv-x="1140" unicode="є"/><glyph d="M92 0v1065h299v-1065h-299zM-172 1352q0 66 49 112.5t115 46.5q68 0 116 -46t48 -113.5t-48.5 -114.5t-115.5 -47q-66 0 -115 47t-49 115zM319 1351.5q0 67.5 48.5 113.5t115.5 46q66 0 115 -47t49 -112q0 -68 -49 -115t-115 -47q-68 0 -116 47t-48 114.5z" glyph-name="afii10104" horiz-adv-x="483" unicode="ї"/><glyph d="M106 0v1065h300v-418l372 418h338l-424 -455l484 -610h-326l-340 412l-104 -111v-301h-300zM455 1188l215 287h260l-217 -287h-258z" glyph-name="afii10109" horiz-adv-x="1189" unicode="ќ"/><glyph d="M141 -158q98 -12 163 5.5t86.5 42t37.5 61.5q29 70 -2 145l-391 969h307l248 -688l254 688h307l-436 -1073q-100 -250 -223 -338t-351 -64v252zM258 1475h197q2 -76 34.5 -110t100 -34t100.5 34t35 110h197q0 -147 -86 -231.5t-246 -84.5t-246 84.5t-86 231.5z" glyph-name="afii10110" horiz-adv-x="1185" unicode="ў"/><glyph d="M420 1163v-1163h-314v1434h613v204h311v-475h-610z" glyph-name="afii10050" horiz-adv-x="1075" unicode="Ґ"/><glyph d="M406 831v-831h-300v1065h504v135h256v-369h-460z" glyph-name="afii10098" horiz-adv-x="901" unicode="ґ"/><glyph d="M106 0v1434h543q334 0 506 -184.5t172 -532.5t-172 -532.5t-506 -184.5h-543zM414 266h204q217 0 306.5 105.5t89.5 345t-89 345t-307 105.5h-204v-901zM520 -293q0 74 53.5 126t126.5 52q76 0 129.5 -52t53.5 -126q0 -76 -53.5 -127t-129.5 -51q-74 0 -127 52t-53 126z " glyph-name="uni1E0C" horiz-adv-x="1402" unicode="Ḍ"/><glyph d="M522 -20q-188 0 -327.5 140t-139.5 412.5t139.5 412.5t327.5 140q113 0 198 -50t116 -124v523h299v-1434h-299v154q-31 -74 -116 -124t-198 -50zM338 532.5q0 -147.5 73.5 -226.5t182.5 -79q106 0 180 79t74 226.5t-74 226.5t-180 79q-109 0 -182.5 -79t-73.5 -226.5z M432 -293q0 74 53.5 126t126.5 52q76 0 129.5 -52t53.5 -126q0 -76 -53.5 -127t-129.5 -51q-74 0 -127 52t-53 126z" glyph-name="uni1E0D" horiz-adv-x="1241" unicode="ḍ"/><glyph d="M745 -20q-322 0 -495.5 193.5t-173.5 537.5q0 350 179 545.5t484 195.5q240 0 408 -120t199 -353h-304q-53 209 -303 209q-182 0 -267 -127t-85 -340q0 -215 87 -346t271 -131q133 0 227.5 71.5t94.5 227.5h-276v245h581v-149q0 -322 -165 -490.5t-462 -168.5zM401 1669 v174h672v-174h-672z" glyph-name="uni1E20" horiz-adv-x="1458" unicode="Ḡ"/><glyph d="M506 27q-84 0 -162 29.5t-143.5 89t-105.5 166t-40 245.5q0 266 134.5 397t316.5 131q207 0 313 -143v123h299v-1026q0 -139 -53 -237.5t-142 -145.5t-173 -65.5t-179 -18.5q-63 0 -122.5 7t-130 31.5t-121 62.5t-85 106.5t-34.5 159.5h264q4 -70 69.5 -103t151.5 -33 q113 0 184.5 58.5t71.5 177.5v131q-106 -143 -313 -143zM254 1300v175h672v-175h-672zM338 557q0 -137 70.5 -209t179.5 -72q104 0 175 72t71 209q0 135 -71 208t-175 73q-109 0 -179.5 -72t-70.5 -209z" glyph-name="uni1E21" horiz-adv-x="1224" unicode="ḡ"/><glyph d="M975 0v590h-561v-590h-308v1434h308v-590h561v590h307v-1434h-307zM512 -293q0 74 53 126t127 52q76 0 129 -52t53 -126q0 -76 -53 -127t-129 -51q-74 0 -127 52t-53 126z" glyph-name="uni1E24" horiz-adv-x="1388" unicode="Ḥ"/><glyph d="M106 0v1434h300v-592h12q16 92 103 167.5t237 75.5q162 0 264 -105.5t102 -303.5v-676h-299v604q0 233 -196 234q-100 0 -161.5 -58.5t-61.5 -175.5v-604h-300zM414 -293q0 74 53 126t127 52q76 0 129 -52t53 -126q0 -76 -53 -127t-129 -51q-74 0 -127 52t-53 126z" glyph-name="uni1E25" unicode="ḥ"/><glyph d="M674 -20q-281 0 -439.5 128t-158.5 361h317q4 -104 73 -170t210 -66q121 0 188.5 49.5t67.5 137.5q0 72 -48 110.5t-151 59.5l-201 41q-418 80 -417 401q0 203 149.5 311.5t403.5 108.5q258 0 404.5 -112.5t146.5 -329.5h-316q2 92 -64.5 140t-176.5 48 q-117 0 -171.5 -48t-54.5 -118q0 -121 170 -155l185 -37q250 -51 358 -151.5t108 -266.5q0 -221 -160.5 -331.5t-422.5 -110.5zM465 -293q0 74 53 126t127 52q76 0 129 -52t53 -126q0 -76 -53 -127t-129 -51q-74 0 -127 52t-53 126z" glyph-name="uni1E62" horiz-adv-x="1333" unicode="Ṣ"/><glyph d="M506 -20q-217 0 -338 94t-123 276h268q14 -147 195 -147q168 0 168 110q0 74 -103 95l-196 41q-303 70 -303 311q0 154 119.5 239.5t316.5 85.5q211 0 322.5 -97t115.5 -271h-250q-16 145 -184 145q-150 0 -149 -94q0 -80 110 -102l201 -43q307 -68 307 -304 q0 -170 -134 -254.5t-343 -84.5zM330 -293q0 74 53 126t127 52q76 0 129 -52t53 -126q0 -76 -53 -127t-129 -51q-74 0 -127 52t-53 126z" glyph-name="uni1E63" horiz-adv-x="1028" unicode="ṣ"/><glyph d="M461 0v1161h-416v273h1139v-273h-416v-1161h-307zM371 -293q0 74 53 126t127 52q76 0 129 -52t53 -126q0 -76 -53 -127t-129 -51q-74 0 -127 52t-53 126z" glyph-name="uni1E6C" horiz-adv-x="1228" unicode="Ṭ"/><glyph d="M569 -14q-354 0 -354 333v515h-180v231h180v274h299v-274h211v-231h-211v-472q0 -68 28.5 -102.5t106.5 -34.5q41 0 84 4v-223q-78 -20 -164 -20zM342 -293q0 74 53.5 126t126.5 52q76 0 129.5 -52t53.5 -126q0 -76 -53.5 -127t-129.5 -51q-74 0 -127 52t-53 126z" glyph-name="uni1E6D" horiz-adv-x="778" unicode="ṭ"/><glyph d="M418 0l-373 1434h315l230 -1002h14l277 1002h315l277 -1002h14l229 1002h316l-373 -1434h-320l-301 1047l-301 -1047h-319zM723 1843h258l217 -287h-260z" glyph-name="Wgrave" horiz-adv-x="2076" unicode="Ẁ"/><glyph d="M319 0l-284 1065h282l183 -776h8l211 776h258l211 -776h8l182 776h283l-285 -1065h-334l-194 668l-193 -668h-336zM532 1475h259l217 -287h-260z" glyph-name="wgrave" horiz-adv-x="1695" unicode="ẁ"/><glyph d="M418 0l-373 1434h315l230 -1002h14l277 1002h315l277 -1002h14l229 1002h316l-373 -1434h-320l-301 1047l-301 -1047h-319zM899 1556l215 287h260l-217 -287h-258z" glyph-name="Wacute" horiz-adv-x="2076" unicode="Ẃ"/><glyph d="M319 0l-284 1065h282l183 -776h8l211 776h258l211 -776h8l182 776h283l-285 -1065h-334l-194 668l-193 -668h-336zM707 1188l215 287h260l-217 -287h-258z" glyph-name="wacute" horiz-adv-x="1695" unicode="ẃ"/><glyph d="M418 0l-373 1434h315l230 -1002h14l277 1002h315l277 -1002h14l229 1002h316l-373 -1434h-320l-301 1047l-301 -1047h-319zM625 1720q0 66 49 113t114 47q68 0 116 -46t48 -113.5t-48 -114.5t-116 -47q-66 0 -114.5 46.5t-48.5 114.5zM1116 1720.5q0 67.5 48 113.5 t116 46q66 0 115 -47t49 -113q0 -68 -49 -114.5t-115 -46.5q-68 0 -116 47t-48 114.5z" glyph-name="Wdieresis" horiz-adv-x="2076" unicode="Ẅ"/><glyph d="M319 0l-284 1065h282l183 -776h8l211 776h258l211 -776h8l182 776h283l-285 -1065h-334l-194 668l-193 -668h-336zM434 1352q0 66 49 112.5t115 46.5q68 0 116 -46t48 -113.5t-48 -114.5t-116 -47q-66 0 -115 47t-49 115zM926 1351.5q0 67.5 48 113.5t116 46 q66 0 114.5 -47t48.5 -112q0 -68 -49 -115t-114 -47q-68 0 -116 47t-48 114.5z" glyph-name="wdieresis" horiz-adv-x="1695" unicode="ẅ"/><glyph d="M82 0v266l760 901h-744v267h1084l2 -267l-764 -901h770v-266h-1108zM475 -293q0 74 53.5 126t126.5 52q76 0 129.5 -52t53.5 -126q0 -76 -53.5 -127t-129.5 -51q-74 0 -127 52t-53 126z" glyph-name="uni1E92" horiz-adv-x="1271" unicode="Ẓ"/><glyph d="M82 0v250l522 565h-502v250h861v-250l-525 -565h525v-250h-881zM342 -293q0 74 53.5 126t126.5 52q76 0 129.5 -52t53.5 -126q0 -76 -53.5 -127t-129.5 -51q-74 0 -127 52t-53 126z" glyph-name="uni1E93" horiz-adv-x="1044" unicode="ẓ"/><glyph d="M944 -20q-219 0 -327.5 116.5t-108.5 333.5h280q0 -76 36 -130t118 -54q80 0 118 55t38 135q0 223 -287 223h-236l306 527h-291q-92 0 -131 -41t-39 -129v-1016h-314v1049q0 211 111 309t340 98h766l-340 -551q199 -23 320.5 -140.5t121.5 -328.5q0 -207 -124 -331.5 t-357 -124.5z" glyph-name="uni1E9E" horiz-adv-x="1501" unicode="ẞ"/><glyph d="M35 0l518 1434h395l518 -1434h-321l-92 268h-604l-93 -268h-321zM526 496h449l-215 624h-19zM571 -293q0 74 53.5 126t127.5 52q76 0 129 -52t53 -126q0 -76 -53.5 -127t-128.5 -51q-74 0 -127.5 52t-53.5 126z" glyph-name="uni1EA0" horiz-adv-x="1501" unicode="Ạ"/><glyph d="M397 -20q-145 0 -243.5 74.5t-98.5 228.5q0 84 31 143t90.5 92t116.5 49.5t139 28.5l180 27q76 10 102.5 28.5t26.5 61.5v14q0 143 -166 143q-182 0 -182 -141v-18l-280 -2v49q0 328 471 327q238 0 344 -85t106 -261v-739h-284v188h-13q-10 -29 -30.5 -58.5t-58.5 -66 t-103.5 -60t-147.5 -23.5zM354 307q0 -115 146 -114q102 0 171.5 56t69.5 122v118q-16 -25 -114 -40l-150 -27q-123 -19 -123 -115zM393 -293q0 74 53.5 126t126.5 52q76 0 129.5 -52t53.5 -126q0 -76 -53.5 -127t-129.5 -51q-74 0 -127 52t-53 126z" glyph-name="uni1EA1" horiz-adv-x="1140" unicode="ạ"/><glyph d="M35 0l518 1434h395l518 -1434h-321l-92 268h-604l-93 -268h-321zM526 496h449l-215 624h-19zM549 1735q0 109 63.5 161t149.5 52q92 0 156.5 -54.5t64.5 -154.5q0 -88 -51 -140.5t-131 -64.5l-70 121q88 2 88 71q0 31 -17.5 47.5t-43.5 16.5q-51 0 -58 -55h-151z" glyph-name="uni1EA2" horiz-adv-x="1501" unicode="Ả"/><glyph d="M397 -20q-145 0 -243.5 74.5t-98.5 228.5q0 84 31 143t90.5 92t116.5 49.5t139 28.5l180 27q76 10 102.5 28.5t26.5 61.5v14q0 143 -166 143q-182 0 -182 -141v-18l-280 -2v49q0 328 471 327q238 0 344 -85t106 -261v-739h-284v188h-13q-10 -29 -30.5 -58.5t-58.5 -66 t-103.5 -60t-147.5 -23.5zM354 307q0 -115 146 -114q102 0 171.5 56t69.5 122v118q-16 -25 -114 -40l-150 -27q-123 -19 -123 -115zM377 1366q0 109 63.5 161t149.5 52q92 0 156.5 -54.5t64.5 -154.5q0 -88 -51 -140t-131 -65l-70 121q88 2 88 72q0 31 -17.5 47t-43.5 16 q-51 0 -58 -55h-151z" glyph-name="uni1EA3" horiz-adv-x="1140" unicode="ả"/><glyph d="M35 0l518 1434h395l518 -1434h-321l-92 268h-604l-93 -268h-321zM348 1556l199 287h418l198 -287h-268l-139 209l-140 -209h-268zM526 496h449l-215 624h-19zM1075 1761l215 287h260l-217 -287h-258z" glyph-name="uni1EA4" horiz-adv-x="1501" unicode="Ấ"/><glyph d="M397 -20q-145 0 -243.5 74.5t-98.5 228.5q0 84 31 143t90.5 92t116.5 49.5t139 28.5l180 27q76 10 102.5 28.5t26.5 61.5v14q0 143 -166 143q-182 0 -182 -141v-18l-280 -2v49q0 328 471 327q238 0 344 -85t106 -261v-739h-284v188h-13q-10 -29 -30.5 -58.5t-58.5 -66 t-103.5 -60t-147.5 -23.5zM176 1188l199 287h418l198 -287h-268l-139 209l-140 -209h-268zM354 307q0 -115 146 -114q102 0 171.5 56t69.5 122v118q-16 -25 -114 -40l-150 -27q-123 -19 -123 -115zM903 1393l215 286h260l-217 -286h-258z" glyph-name="uni1EA5" horiz-adv-x="1140" unicode="ấ"/><glyph d="M35 0l518 1434h395l518 -1434h-321l-92 268h-604l-93 -268h-321zM348 1556l199 287h418l198 -287h-268l-139 209l-140 -209h-268zM526 496h449l-215 624h-19zM946 2048h258l187 -285h-261z" glyph-name="uni1EA6" horiz-adv-x="1501" unicode="Ầ"/><glyph d="M397 -20q-145 0 -243.5 74.5t-98.5 228.5q0 84 31 143t90.5 92t116.5 49.5t139 28.5l180 27q76 10 102.5 28.5t26.5 61.5v14q0 143 -166 143q-182 0 -182 -141v-18l-280 -2v49q0 328 471 327q238 0 344 -85t106 -261v-739h-284v188h-13q-10 -29 -30.5 -58.5t-58.5 -66 t-103.5 -60t-147.5 -23.5zM176 1188l199 287h418l198 -287h-268l-139 209l-140 -209h-268zM354 307q0 -115 146 -114q102 0 171.5 56t69.5 122v118q-16 -25 -114 -40l-150 -27q-123 -19 -123 -115zM774 1679h258l187 -284h-261z" glyph-name="uni1EA7" horiz-adv-x="1140" unicode="ầ"/><glyph d="M35 0l518 1434h395l518 -1434h-321l-92 268h-604l-93 -268h-321zM348 1556l199 287h418l198 -287h-268l-139 209l-140 -209h-268zM526 496h449l-215 624h-19zM877 1982q0 109 63.5 161t149.5 52q92 0 156.5 -54t64.5 -154q0 -88 -51.5 -140.5t-131.5 -64.5l-69 121 q88 2 88 71q0 31 -17.5 47.5t-44.5 16.5q-51 0 -57 -56h-151z" glyph-name="uni1EA8" horiz-adv-x="1501" unicode="Ẩ"/><glyph d="M397 -20q-145 0 -243.5 74.5t-98.5 228.5q0 84 31 143t90.5 92t116.5 49.5t139 28.5l180 27q76 10 102.5 28.5t26.5 61.5v14q0 143 -166 143q-182 0 -182 -141v-18l-280 -2v49q0 328 471 327q238 0 344 -85t106 -261v-739h-284v188h-13q-10 -29 -30.5 -58.5t-58.5 -66 t-103.5 -60t-147.5 -23.5zM176 1188l199 287h418l198 -287h-268l-139 209l-140 -209h-268zM354 307q0 -115 146 -114q102 0 171.5 56t69.5 122v118q-16 -25 -114 -40l-150 -27q-123 -19 -123 -115zM705 1614q0 109 63 161t150 52q92 0 156.5 -54.5t64.5 -154.5 q0 -88 -51.5 -140.5t-131.5 -64.5l-69 121q88 2 88 72q0 31 -17.5 47t-44.5 16q-51 0 -57 -55h-151z" glyph-name="uni1EA9" horiz-adv-x="1140" unicode="ẩ"/><glyph d="M35 0l518 1434h395l518 -1434h-321l-92 268h-604l-93 -268h-321zM348 1556l199 287h418l198 -287h-268l-139 209l-140 -209h-268zM397 1966q0 113 53.5 175.5t151.5 62.5q68 0 118 -29t84 -56.5t62 -27.5q23 0 45.5 13.5t22.5 43.5h176q0 -113 -53 -174t-152 -61 q-68 0 -118 28.5t-83.5 56t-62.5 27.5q-23 0 -45.5 -13t-22.5 -46h-176zM526 496h449l-215 624h-19z" glyph-name="uni1EAA" horiz-adv-x="1501" unicode="Ẫ"/><glyph d="M397 -20q-145 0 -243.5 74.5t-98.5 228.5q0 84 31 143t90.5 92t116.5 49.5t139 28.5l180 27q76 10 102.5 28.5t26.5 61.5v14q0 143 -166 143q-182 0 -182 -141v-18l-280 -2v49q0 328 471 327q238 0 344 -85t106 -261v-739h-284v188h-13q-10 -29 -30.5 -58.5t-58.5 -66 t-103.5 -60t-147.5 -23.5zM176 1188l199 287h418l198 -287h-268l-139 209l-140 -209h-268zM225 1597q0 113 53.5 175.5t151.5 62.5q68 0 118 -28.5t84 -56.5t62 -28q23 0 45.5 13.5t22.5 44.5h176q0 -113 -53.5 -174.5t-151.5 -61.5q-68 0 -118 29t-83.5 56.5t-62.5 27.5 q-23 0 -45.5 -13.5t-22.5 -46.5h-176zM354 307q0 -115 146 -114q102 0 171.5 56t69.5 122v118q-16 -25 -114 -40l-150 -27q-123 -19 -123 -115z" glyph-name="uni1EAB" horiz-adv-x="1140" unicode="ẫ"/><glyph d="M35 0l518 1434h395l518 -1434h-321l-92 268h-604l-93 -268h-321zM348 1556l199 287h418l198 -287h-268l-139 209l-140 -209h-268zM526 496h449l-215 624h-19zM571 -293q0 74 53.5 126t127.5 52q76 0 129 -52t53 -126q0 -76 -53.5 -127t-128.5 -51q-74 0 -127.5 52 t-53.5 126z" glyph-name="uni1EAC" horiz-adv-x="1501" unicode="Ậ"/><glyph d="M397 -20q-145 0 -243.5 74.5t-98.5 228.5q0 84 31 143t90.5 92t116.5 49.5t139 28.5l180 27q76 10 102.5 28.5t26.5 61.5v14q0 143 -166 143q-182 0 -182 -141v-18l-280 -2v49q0 328 471 327q238 0 344 -85t106 -261v-739h-284v188h-13q-10 -29 -30.5 -58.5t-58.5 -66 t-103.5 -60t-147.5 -23.5zM176 1188l199 287h418l198 -287h-268l-139 209l-140 -209h-268zM354 307q0 -115 146 -114q102 0 171.5 56t69.5 122v118q-16 -25 -114 -40l-150 -27q-123 -19 -123 -115zM393 -293q0 74 53.5 126t126.5 52q76 0 129.5 -52t53.5 -126 q0 -76 -53.5 -127t-129.5 -51q-74 0 -127 52t-53 126z" glyph-name="uni1EAD" horiz-adv-x="1140" unicode="ậ"/><glyph d="M35 0l518 1434h395l518 -1434h-321l-92 268h-604l-93 -268h-321zM420 1843h196q2 -76 35 -109.5t100.5 -33.5t100.5 33.5t35 109.5h196q0 -147 -86 -231t-245.5 -84t-245.5 84t-86 231zM526 496h449l-215 624h-19zM598 1905l215 286h260l-217 -286h-258z" glyph-name="uni1EAE" horiz-adv-x="1501" unicode="Ắ"/><glyph d="M397 -20q-145 0 -243.5 74.5t-98.5 228.5q0 84 31 143t90.5 92t116.5 49.5t139 28.5l180 27q76 10 102.5 28.5t26.5 61.5v14q0 143 -166 143q-182 0 -182 -141v-18l-280 -2v49q0 328 471 327q238 0 344 -85t106 -261v-739h-284v188h-13q-10 -29 -30.5 -58.5t-58.5 -66 t-103.5 -60t-147.5 -23.5zM250 1475h196q2 -76 35 -110t100.5 -34t100.5 34t35 110h196q0 -147 -86 -231.5t-245.5 -84.5t-245.5 84.5t-86 231.5zM354 307q0 -115 146 -114q102 0 171.5 56t69.5 122v118q-16 -25 -114 -40l-150 -27q-123 -19 -123 -115zM428 1536l215 287 h260l-217 -287h-258z" glyph-name="uni1EAF" horiz-adv-x="1140" unicode="ắ"/><glyph d="M35 0l518 1434h395l518 -1434h-321l-92 268h-604l-93 -268h-321zM416 2191h258l217 -286h-260zM420 1843h196q2 -76 35 -109.5t100.5 -33.5t100.5 33.5t35 109.5h196q0 -147 -86 -231t-245.5 -84t-245.5 84t-86 231zM526 496h449l-215 624h-19z" glyph-name="uni1EB0" horiz-adv-x="1501" unicode="Ằ"/><glyph d="M397 -20q-145 0 -243.5 74.5t-98.5 228.5q0 84 31 143t90.5 92t116.5 49.5t139 28.5l180 27q76 10 102.5 28.5t26.5 61.5v14q0 143 -166 143q-182 0 -182 -141v-18l-280 -2v49q0 328 471 327q238 0 344 -85t106 -261v-739h-284v188h-13q-10 -29 -30.5 -58.5t-58.5 -66 t-103.5 -60t-147.5 -23.5zM246 1823h258l217 -287h-260zM250 1475h196q2 -76 35 -110t100.5 -34t100.5 34t35 110h196q0 -147 -86 -231.5t-245.5 -84.5t-245.5 84.5t-86 231.5zM354 307q0 -115 146 -114q102 0 171.5 56t69.5 122v118q-16 -25 -114 -40l-150 -27 q-123 -19 -123 -115z" glyph-name="uni1EB1" horiz-adv-x="1140" unicode="ằ"/><glyph d="M35 0l518 1434h395l518 -1434h-321l-92 268h-604l-93 -268h-321zM420 1843h196q2 -76 35 -109.5t100.5 -33.5t100.5 33.5t35 109.5h196q0 -147 -86 -231t-245.5 -84t-245.5 84t-86 231zM463 2003q0 109 63.5 161t149.5 52q92 0 156.5 -54.5t64.5 -154.5q0 -88 -51 -140 t-131 -65l-70 121q88 2 88 72q0 31 -17.5 47t-43.5 16q-51 0 -58 -55h-151zM526 496h449l-215 624h-19z" glyph-name="uni1EB2" horiz-adv-x="1501" unicode="Ẳ"/><glyph d="M397 -20q-145 0 -243.5 74.5t-98.5 228.5q0 84 31 143t90.5 92t116.5 49.5t139 28.5l180 27q76 10 102.5 28.5t26.5 61.5v14q0 143 -166 143q-182 0 -182 -141v-18l-280 -2v49q0 328 471 327q238 0 344 -85t106 -261v-739h-284v188h-13q-10 -29 -30.5 -58.5t-58.5 -66 t-103.5 -60t-147.5 -23.5zM250 1475h196q2 -76 35 -110t100.5 -34t100.5 34t35 110h196q0 -147 -86 -231.5t-245.5 -84.5t-245.5 84.5t-86 231.5zM293 1634q0 109 63.5 161t149.5 52q92 0 156.5 -54t64.5 -155q0 -88 -51 -140t-131 -64l-70 120q88 2 88 72q0 31 -17.5 47.5 t-43.5 16.5q-51 0 -58 -56h-151zM354 307q0 -115 146 -114q102 0 171.5 56t69.5 122v118q-16 -25 -114 -40l-150 -27q-123 -19 -123 -115z" glyph-name="uni1EB3" horiz-adv-x="1140" unicode="ẳ"/><glyph d="M35 0l518 1434h395l518 -1434h-321l-92 268h-604l-93 -268h-321zM395 1976q0 113 53.5 175.5t151.5 62.5q53 0 96 -17.5t66.5 -39t50.5 -39t51 -17.5q23 0 45.5 13.5t22.5 44.5h176q0 -113 -53.5 -174.5t-151.5 -61.5q-53 0 -96 17.5t-66.5 39t-50 39t-51.5 17.5 q-23 0 -45.5 -13.5t-22.5 -46.5h-176zM420 1843h196q2 -76 35 -109.5t100.5 -33.5t100.5 33.5t35 109.5h196q0 -147 -86 -231t-245.5 -84t-245.5 84t-86 231zM526 496h449l-215 624h-19z" glyph-name="uni1EB4" horiz-adv-x="1501" unicode="Ẵ"/><glyph d="M397 -20q-145 0 -243.5 74.5t-98.5 228.5q0 84 31 143t90.5 92t116.5 49.5t139 28.5l180 27q76 10 102.5 28.5t26.5 61.5v14q0 143 -166 143q-182 0 -182 -141v-18l-280 -2v49q0 328 471 327q238 0 344 -85t106 -261v-739h-284v188h-13q-10 -29 -30.5 -58.5t-58.5 -66 t-103.5 -60t-147.5 -23.5zM225 1608q0 113 53.5 175t151.5 62q53 0 96 -17.5t66.5 -39t50.5 -38.5t51 -17q23 0 45.5 13t22.5 44h176q0 -113 -53.5 -174.5t-151.5 -61.5q-53 0 -96 17.5t-66.5 39t-50 39t-51.5 17.5q-23 0 -45.5 -13.5t-22.5 -45.5h-176zM250 1475h196 q2 -76 35 -110t100.5 -34t100.5 34t35 110h196q0 -147 -86 -231.5t-245.5 -84.5t-245.5 84.5t-86 231.5zM354 307q0 -115 146 -114q102 0 171.5 56t69.5 122v118q-16 -25 -114 -40l-150 -27q-123 -19 -123 -115z" glyph-name="uni1EB5" horiz-adv-x="1140" unicode="ẵ"/><glyph d="M35 0l518 1434h395l518 -1434h-321l-92 268h-604l-93 -268h-321zM420 1843h196q2 -76 35 -109.5t100.5 -33.5t100.5 33.5t35 109.5h196q0 -147 -86 -231t-245.5 -84t-245.5 84t-86 231zM526 496h449l-215 624h-19zM571 -293q0 74 53.5 126t127.5 52q76 0 129 -52t53 -126 q0 -76 -53.5 -127t-128.5 -51q-74 0 -127.5 52t-53.5 126z" glyph-name="uni1EB6" horiz-adv-x="1501" unicode="Ặ"/><glyph d="M397 -20q-145 0 -243.5 74.5t-98.5 228.5q0 84 31 143t90.5 92t116.5 49.5t139 28.5l180 27q76 10 102.5 28.5t26.5 61.5v14q0 143 -166 143q-182 0 -182 -141v-18l-280 -2v49q0 328 471 327q238 0 344 -85t106 -261v-739h-284v188h-13q-10 -29 -30.5 -58.5t-58.5 -66 t-103.5 -60t-147.5 -23.5zM250 1475h196q2 -76 35 -110t100.5 -34t100.5 34t35 110h196q0 -147 -86 -231.5t-245.5 -84.5t-245.5 84.5t-86 231.5zM354 307q0 -115 146 -114q102 0 171.5 56t69.5 122v118q-16 -25 -114 -40l-150 -27q-123 -19 -123 -115zM393 -293 q0 74 53.5 126t126.5 52q76 0 129.5 -52t53.5 -126q0 -76 -53.5 -127t-129.5 -51q-74 0 -127 52t-53 126z" glyph-name="uni1EB7" horiz-adv-x="1140" unicode="ặ"/><glyph d="M106 0v1434h979v-267h-671v-321h610v-240h-610v-340h692v-266h-1000zM440 -293q0 74 53.5 126t127.5 52q76 0 129 -52t53 -126q0 -76 -53.5 -127t-128.5 -51q-74 0 -127.5 52t-53.5 126z" glyph-name="uni1EB8" horiz-adv-x="1161" unicode="Ẹ"/><glyph d="M592 -20q-106 0 -198.5 30.5t-170.5 94t-123 174t-45 256.5q0 281 151.5 415.5t383.5 134.5q225 0 365.5 -131t140.5 -415q0 -47 -6 -82h-750q23 -250 256 -250q180 0 221 141h264q-39 -178 -169 -273t-320 -95zM340 633h473q-4 100 -60.5 162.5t-170.5 62.5 q-211 0 -242 -225zM399 -293q0 74 53.5 126t127.5 52q76 0 129 -52t53 -126q0 -76 -53.5 -127t-128.5 -51q-74 0 -127.5 52t-53.5 126z" glyph-name="uni1EB9" horiz-adv-x="1150" unicode="ẹ"/><glyph d="M106 0v1434h979v-267h-671v-321h610v-240h-610v-340h692v-266h-1000zM416 1735q0 109 63.5 161t149.5 52q92 0 156.5 -54.5t64.5 -154.5q0 -88 -51 -140.5t-131 -64.5l-70 121q88 2 88 71q0 31 -17.5 47.5t-43.5 16.5q-51 0 -58 -55h-151z" glyph-name="uni1EBA" horiz-adv-x="1161" unicode="Ẻ"/><glyph d="M592 -20q-106 0 -198.5 30.5t-170.5 94t-123 174t-45 256.5q0 281 151.5 415.5t383.5 134.5q225 0 365.5 -131t140.5 -415q0 -47 -6 -82h-750q23 -250 256 -250q180 0 221 141h264q-39 -178 -169 -273t-320 -95zM340 633h473q-4 100 -60.5 162.5t-170.5 62.5 q-211 0 -242 -225zM371 1366q0 109 63.5 161t149.5 52q92 0 156.5 -54.5t64.5 -154.5q0 -88 -51.5 -140t-130.5 -65l-70 121q88 2 88 72q0 31 -17.5 47t-43.5 16q-51 0 -58 -55h-151z" glyph-name="uni1EBB" horiz-adv-x="1150" unicode="ẻ"/><glyph d="M106 0v1434h979v-267h-671v-321h610v-240h-610v-340h692v-266h-1000zM264 1628q0 113 53.5 175.5t151.5 62.5q53 0 96 -17.5t66.5 -39t50.5 -39t51 -17.5q23 0 45.5 13.5t22.5 43.5h176q0 -113 -53.5 -174t-151.5 -61q-53 0 -96 17.5t-66.5 39t-50.5 39t-51 17.5 q-23 0 -45.5 -13.5t-22.5 -46.5h-176z" glyph-name="uni1EBC" horiz-adv-x="1161" unicode="Ẽ"/><glyph d="M592 -20q-106 0 -198.5 30.5t-170.5 94t-123 174t-45 256.5q0 281 151.5 415.5t383.5 134.5q225 0 365.5 -131t140.5 -415q0 -47 -6 -82h-750q23 -250 256 -250q180 0 221 141h264q-39 -178 -169 -273t-320 -95zM219 1260q0 113 53.5 175t151.5 62q53 0 96 -17.5 t66.5 -39t50.5 -39t51 -17.5q23 0 45.5 13.5t22.5 44.5h176q0 -113 -53.5 -174.5t-151.5 -61.5q-53 0 -96 17.5t-66.5 39t-50.5 39t-51 17.5q-23 0 -45.5 -13.5t-22.5 -45.5h-176zM340 633h473q-4 100 -60.5 162.5t-170.5 62.5q-211 0 -242 -225z" glyph-name="uni1EBD" horiz-adv-x="1150" unicode="ẽ"/><glyph d="M106 0v1434h979v-267h-671v-321h610v-240h-610v-340h692v-266h-1000zM215 1556l199 287h417l199 -287h-268l-139 209l-140 -209h-268zM942 1761l215 287h260l-217 -287h-258z" glyph-name="uni1EBE" horiz-adv-x="1161" unicode="Ế"/><glyph d="M592 -20q-106 0 -198.5 30.5t-170.5 94t-123 174t-45 256.5q0 281 151.5 415.5t383.5 134.5q225 0 365.5 -131t140.5 -415q0 -47 -6 -82h-750q23 -250 256 -250q180 0 221 141h264q-39 -178 -169 -273t-320 -95zM170 1188l199 287h417l199 -287h-268l-139 209l-140 -209 h-268zM340 633h473q-4 100 -60.5 162.5t-170.5 62.5q-211 0 -242 -225zM897 1393l215 286h260l-217 -286h-258z" glyph-name="uni1EBF" horiz-adv-x="1150" unicode="ế"/><glyph d="M106 0v1434h979v-267h-671v-321h610v-240h-610v-340h692v-266h-1000zM215 1556l199 287h417l199 -287h-268l-139 209l-140 -209h-268zM813 2048h258l186 -285h-260z" glyph-name="uni1EC0" horiz-adv-x="1161" unicode="Ề"/><glyph d="M592 -20q-106 0 -198.5 30.5t-170.5 94t-123 174t-45 256.5q0 281 151.5 415.5t383.5 134.5q225 0 365.5 -131t140.5 -415q0 -47 -6 -82h-750q23 -250 256 -250q180 0 221 141h264q-39 -178 -169 -273t-320 -95zM170 1188l199 287h417l199 -287h-268l-139 209l-140 -209 h-268zM340 633h473q-4 100 -60.5 162.5t-170.5 62.5q-211 0 -242 -225zM768 1679h258l186 -284h-260z" glyph-name="uni1EC1" horiz-adv-x="1150" unicode="ề"/><glyph d="M106 0v1434h979v-267h-671v-321h610v-240h-610v-340h692v-266h-1000zM215 1556l199 287h417l199 -287h-268l-139 209l-140 -209h-268zM743 1982q0 109 63.5 161t149.5 52q92 0 157 -54t65 -154q0 -88 -51.5 -140.5t-131.5 -64.5l-69 121q88 2 88 71q0 31 -17.5 47.5 t-44.5 16.5q-51 0 -57 -56h-152z" glyph-name="uni1EC2" horiz-adv-x="1161" unicode="Ể"/><glyph d="M592 -20q-106 0 -198.5 30.5t-170.5 94t-123 174t-45 256.5q0 281 151.5 415.5t383.5 134.5q225 0 365.5 -131t140.5 -415q0 -47 -6 -82h-750q23 -250 256 -250q180 0 221 141h264q-39 -178 -169 -273t-320 -95zM170 1188l199 287h417l199 -287h-268l-139 209l-140 -209 h-268zM340 633h473q-4 100 -60.5 162.5t-170.5 62.5q-211 0 -242 -225zM698 1614q0 109 63.5 161t149.5 52q92 0 157 -54.5t65 -154.5q0 -88 -51.5 -140.5t-131.5 -64.5l-69 121q88 2 88 72q0 31 -17.5 47t-44.5 16q-51 0 -57 -55h-152z" glyph-name="uni1EC3" horiz-adv-x="1150" unicode="ể"/><glyph d="M106 0v1434h979v-267h-671v-321h610v-240h-610v-340h692v-266h-1000zM215 1556l199 287h417l199 -287h-268l-139 209l-140 -209h-268zM264 1966q0 113 53.5 175.5t151.5 62.5q68 0 118 -29t84 -56.5t62 -27.5q23 0 45.5 13.5t22.5 43.5h176q0 -113 -53.5 -174t-151.5 -61 q-68 0 -118 28.5t-83.5 56t-62.5 27.5q-23 0 -45.5 -13t-22.5 -46h-176z" glyph-name="uni1EC4" horiz-adv-x="1161" unicode="Ễ"/><glyph d="M592 -20q-106 0 -198.5 30.5t-170.5 94t-123 174t-45 256.5q0 281 151.5 415.5t383.5 134.5q225 0 365.5 -131t140.5 -415q0 -47 -6 -82h-750q23 -250 256 -250q180 0 221 141h264q-39 -178 -169 -273t-320 -95zM170 1188l199 287h417l199 -287h-268l-139 209l-140 -209 h-268zM219 1597q0 113 53.5 175.5t151.5 62.5q68 0 118 -28.5t83.5 -56.5t62.5 -28q23 0 45.5 13.5t22.5 44.5h176q0 -113 -53.5 -174.5t-151.5 -61.5q-68 0 -118 29t-83.5 56.5t-62.5 27.5q-23 0 -45.5 -13.5t-22.5 -46.5h-176zM340 633h473q-4 100 -60.5 162.5 t-170.5 62.5q-211 0 -242 -225z" glyph-name="uni1EC5" horiz-adv-x="1150" unicode="ễ"/><glyph d="M106 0v1434h979v-267h-671v-321h610v-240h-610v-340h692v-266h-1000zM215 1556l199 287h417l199 -287h-268l-139 209l-140 -209h-268zM440 -293q0 74 53.5 126t127.5 52q76 0 129 -52t53 -126q0 -76 -53.5 -127t-128.5 -51q-74 0 -127.5 52t-53.5 126z" glyph-name="uni1EC6" horiz-adv-x="1161" unicode="Ệ"/><glyph d="M592 -20q-106 0 -198.5 30.5t-170.5 94t-123 174t-45 256.5q0 281 151.5 415.5t383.5 134.5q225 0 365.5 -131t140.5 -415q0 -47 -6 -82h-750q23 -250 256 -250q180 0 221 141h264q-39 -178 -169 -273t-320 -95zM170 1188l199 287h417l199 -287h-268l-139 209l-140 -209 h-268zM340 633h473q-4 100 -60.5 162.5t-170.5 62.5q-211 0 -242 -225zM399 -293q0 74 53.5 126t127.5 52q76 0 129 -52t53 -126q0 -76 -53.5 -127t-128.5 -51q-74 0 -127.5 52t-53.5 126z" glyph-name="uni1EC7" horiz-adv-x="1150" unicode="ệ"/><glyph d="M106 0v1434h308v-1434h-308zM53 1735q0 109 63.5 161t149.5 52q92 0 156.5 -54.5t64.5 -154.5q0 -88 -51 -140.5t-131 -64.5l-69 121q88 2 88 71q0 31 -17.5 47.5t-44.5 16.5q-51 0 -57 -55h-152z" glyph-name="uni1EC8" horiz-adv-x="520" unicode="Ỉ"/><glyph d="M92 0v1065h299v-1065h-299zM37 1366q0 109 63.5 161t149.5 52q92 0 156.5 -54.5t64.5 -154.5q0 -88 -51 -140t-131 -65l-70 121q88 2 88 72q0 31 -17.5 47t-43.5 16q-51 0 -58 -55h-151z" glyph-name="uni1EC9" horiz-adv-x="483" unicode="ỉ"/><glyph d="M106 0v1434h308v-1434h-308zM78 -293q0 74 53 126t127 52q76 0 129 -52t53 -126q0 -76 -53 -127t-129 -51q-74 0 -127 52t-53 126z" glyph-name="uni1ECA" horiz-adv-x="520" unicode="Ị"/><glyph d="M106 0v1065h300v-1065h-300zM92 1354q0 70 49 118t115 48t115 -48.5t49 -117.5q0 -68 -49 -116t-115 -48t-115 48t-49 116zM102 -293q0 74 53.5 126t127.5 52q76 0 129 -52t53 -126q0 -76 -53.5 -127t-128.5 -51q-74 0 -127.5 52t-53.5 126z" glyph-name="uni1ECB" horiz-adv-x="512" unicode="ị"/><glyph d="M760 -20q-309 0 -496.5 203.5t-187.5 533.5q0 332 187.5 533.5t496.5 201.5t496.5 -201.5t187.5 -533.5q0 -330 -187.5 -533.5t-496.5 -203.5zM391 717q0 -217 97.5 -345t271.5 -128t271 128t97 345t-97 344t-271 127t-271.5 -127t-97.5 -344zM580 -293q0 74 53 126 t127 52q76 0 129 -52t53 -126q0 -76 -53 -127t-129 -51q-74 0 -127 52t-53 126z" glyph-name="uni1ECC" horiz-adv-x="1519" unicode="Ọ"/><glyph d="M590 -20q-221 0 -378 140t-157 412.5t157 412.5t378 140t377.5 -140t156.5 -412.5t-156.5 -412.5t-377.5 -140zM336 532.5q0 -151.5 69.5 -228.5t184.5 -77t184.5 77t69.5 228.5t-69.5 228.5t-184.5 77t-184.5 -77t-69.5 -228.5zM410 -293q0 74 53 126t127 52 q76 0 129 -52t53 -126q0 -76 -53 -127t-129 -51q-74 0 -127 52t-53 126z" glyph-name="uni1ECD" horiz-adv-x="1179" unicode="ọ"/><glyph d="M760 -20q-309 0 -496.5 203.5t-187.5 533.5q0 332 187.5 533.5t496.5 201.5t496.5 -201.5t187.5 -533.5q0 -330 -187.5 -533.5t-496.5 -203.5zM391 717q0 -217 97.5 -345t271.5 -128t271 128t97 345t-97 344t-271 127t-271.5 -127t-97.5 -344zM555 1735q0 109 63.5 161 t149.5 52q92 0 156.5 -54.5t64.5 -154.5q0 -88 -51 -140.5t-131 -64.5l-70 121q88 2 88 71q0 31 -17 47.5t-44 16.5q-51 0 -57 -55h-152z" glyph-name="uni1ECE" horiz-adv-x="1519" unicode="Ỏ"/><glyph d="M590 -20q-221 0 -378 140t-157 412.5t157 412.5t378 140t377.5 -140t156.5 -412.5t-156.5 -412.5t-377.5 -140zM336 532.5q0 -151.5 69.5 -228.5t184.5 -77t184.5 77t69.5 228.5t-69.5 228.5t-184.5 77t-184.5 -77t-69.5 -228.5zM385 1366q0 109 63.5 161t149.5 52 q92 0 156.5 -54.5t64.5 -154.5q0 -88 -51 -140t-131 -65l-70 121q88 2 88 72q0 31 -17 47t-44 16q-51 0 -57 -55h-152z" glyph-name="uni1ECF" horiz-adv-x="1179" unicode="ỏ"/><glyph d="M760 -20q-309 0 -496.5 203.5t-187.5 533.5q0 332 187.5 533.5t496.5 201.5t496.5 -201.5t187.5 -533.5q0 -330 -187.5 -533.5t-496.5 -203.5zM354 1556l199 287h418l198 -287h-268l-139 209l-139 -209h-269zM391 717q0 -217 97.5 -345t271.5 -128t271 128t97 345 t-97 344t-271 127t-271.5 -127t-97.5 -344zM1081 1761l215 287h260l-217 -287h-258z" glyph-name="uni1ED0" horiz-adv-x="1519" unicode="Ố"/><glyph d="M590 -20q-221 0 -378 140t-157 412.5t157 412.5t378 140t377.5 -140t156.5 -412.5t-156.5 -412.5t-377.5 -140zM184 1188l199 287h418l198 -287h-268l-139 209l-139 -209h-269zM336 532.5q0 -151.5 69.5 -228.5t184.5 -77t184.5 77t69.5 228.5t-69.5 228.5t-184.5 77 t-184.5 -77t-69.5 -228.5zM911 1393l215 286h260l-217 -286h-258z" glyph-name="uni1ED1" horiz-adv-x="1179" unicode="ố"/><glyph d="M760 -20q-309 0 -496.5 203.5t-187.5 533.5q0 332 187.5 533.5t496.5 201.5t496.5 -201.5t187.5 -533.5q0 -330 -187.5 -533.5t-496.5 -203.5zM354 1556l199 287h418l198 -287h-268l-139 209l-139 -209h-269zM391 717q0 -217 97.5 -345t271.5 -128t271 128t97 345 t-97 344t-271 127t-271.5 -127t-97.5 -344zM952 2048h258l187 -285h-260z" glyph-name="uni1ED2" horiz-adv-x="1519" unicode="Ồ"/><glyph d="M590 -20q-221 0 -378 140t-157 412.5t157 412.5t378 140t377.5 -140t156.5 -412.5t-156.5 -412.5t-377.5 -140zM184 1188l199 287h418l198 -287h-268l-139 209l-139 -209h-269zM336 532.5q0 -151.5 69.5 -228.5t184.5 -77t184.5 77t69.5 228.5t-69.5 228.5t-184.5 77 t-184.5 -77t-69.5 -228.5zM782 1679h258l187 -284h-260z" glyph-name="uni1ED3" horiz-adv-x="1179" unicode="ồ"/><glyph d="M760 -20q-309 0 -496.5 203.5t-187.5 533.5q0 332 187.5 533.5t496.5 201.5t496.5 -201.5t187.5 -533.5q0 -330 -187.5 -533.5t-496.5 -203.5zM354 1556l199 287h418l198 -287h-268l-139 209l-139 -209h-269zM391 717q0 -217 97.5 -345t271.5 -128t271 128t97 345 t-97 344t-271 127t-271.5 -127t-97.5 -344zM883 1982q0 109 63.5 161t149.5 52q92 0 156.5 -54t64.5 -154q0 -88 -51.5 -140.5t-130.5 -64.5l-70 121q88 2 88 71q0 31 -17.5 47.5t-43.5 16.5q-51 0 -58 -56h-151z" glyph-name="uni1ED4" horiz-adv-x="1519" unicode="Ổ"/><glyph d="M590 -20q-221 0 -378 140t-157 412.5t157 412.5t378 140t377.5 -140t156.5 -412.5t-156.5 -412.5t-377.5 -140zM184 1188l199 287h418l198 -287h-268l-139 209l-139 -209h-269zM336 532.5q0 -151.5 69.5 -228.5t184.5 -77t184.5 77t69.5 228.5t-69.5 228.5t-184.5 77 t-184.5 -77t-69.5 -228.5zM713 1614q0 109 63.5 161t149.5 52q92 0 156.5 -54.5t64.5 -154.5q0 -88 -51.5 -140.5t-130.5 -64.5l-70 121q88 2 88 72q0 31 -17.5 47t-43.5 16q-51 0 -58 -55h-151z" glyph-name="uni1ED5" horiz-adv-x="1179" unicode="ổ"/><glyph d="M760 -20q-309 0 -496.5 203.5t-187.5 533.5q0 332 187.5 533.5t496.5 201.5t496.5 -201.5t187.5 -533.5q0 -330 -187.5 -533.5t-496.5 -203.5zM354 1556l199 287h418l198 -287h-268l-139 209l-139 -209h-269zM391 717q0 -217 97.5 -345t271.5 -128t271 128t97 345 t-97 344t-271 127t-271.5 -127t-97.5 -344zM403 1966q0 113 53.5 175.5t151.5 62.5q68 0 118 -29t84 -56.5t62 -27.5q23 0 45.5 13.5t22.5 43.5h176q0 -113 -53 -174t-152 -61q-68 0 -118 28.5t-83.5 56t-62.5 27.5q-23 0 -45 -13t-22 -46h-177z" glyph-name="uni1ED6" horiz-adv-x="1519" unicode="Ỗ"/><glyph d="M590 -20q-221 0 -378 140t-157 412.5t157 412.5t378 140t377.5 -140t156.5 -412.5t-156.5 -412.5t-377.5 -140zM184 1188l199 287h418l198 -287h-268l-139 209l-139 -209h-269zM233 1597q0 113 53.5 175.5t151.5 62.5q68 0 118 -28.5t84 -56.5t62 -28q23 0 45.5 13.5 t22.5 44.5h176q0 -113 -53 -174.5t-152 -61.5q-68 0 -118 29t-83.5 56.5t-62.5 27.5q-23 0 -45 -13.5t-22 -46.5h-177zM336 532.5q0 -151.5 69.5 -228.5t184.5 -77t184.5 77t69.5 228.5t-69.5 228.5t-184.5 77t-184.5 -77t-69.5 -228.5z" glyph-name="uni1ED7" horiz-adv-x="1179" unicode="ỗ"/><glyph d="M760 -20q-309 0 -496.5 203.5t-187.5 533.5q0 332 187.5 533.5t496.5 201.5t496.5 -201.5t187.5 -533.5q0 -330 -187.5 -533.5t-496.5 -203.5zM354 1556l199 287h418l198 -287h-268l-139 209l-139 -209h-269zM391 717q0 -217 97.5 -345t271.5 -128t271 128t97 345 t-97 344t-271 127t-271.5 -127t-97.5 -344zM580 -293q0 74 53 126t127 52q76 0 129 -52t53 -126q0 -76 -53 -127t-129 -51q-74 0 -127 52t-53 126z" glyph-name="uni1ED8" horiz-adv-x="1519" unicode="Ộ"/><glyph d="M590 -20q-221 0 -378 140t-157 412.5t157 412.5t378 140t377.5 -140t156.5 -412.5t-156.5 -412.5t-377.5 -140zM184 1188l199 287h418l198 -287h-268l-139 209l-139 -209h-269zM336 532.5q0 -151.5 69.5 -228.5t184.5 -77t184.5 77t69.5 228.5t-69.5 228.5t-184.5 77 t-184.5 -77t-69.5 -228.5zM410 -293q0 74 53 126t127 52q76 0 129 -52t53 -126q0 -76 -53 -127t-129 -51q-74 0 -127 52t-53 126z" glyph-name="uni1ED9" horiz-adv-x="1179" unicode="ộ"/><glyph d="M760 -20q-309 0 -496.5 203.5t-187.5 533.5q0 332 187.5 533.5t496.5 201.5h452v162h254v-389h-188q166 -199 166 -508q0 -330 -187.5 -533.5t-496.5 -203.5zM391 717q0 -217 97.5 -345t271.5 -128t271 128t97 345t-97 344t-271 127t-271.5 -127t-97.5 -344zM606 1556 l215 287h260l-217 -287h-258z" glyph-name="uni1EDA" horiz-adv-x="1519" unicode="Ớ"/><glyph d="M590 -20q-221 0 -378 140t-157 412.5t157 412.5t378 140h319v160h240v-389h-109q84 -133 84 -324q0 -272 -156.5 -412t-377.5 -140zM336 532.5q0 -151.5 69.5 -228.5t184.5 -77t184.5 77t69.5 228.5t-69.5 228.5t-184.5 77t-184.5 -77t-69.5 -228.5zM436 1188l215 287 h260l-217 -287h-258z" glyph-name="uni1EDB" horiz-adv-x="1179" unicode="ớ"/><glyph d="M760 -20q-309 0 -496.5 203.5t-187.5 533.5q0 332 187.5 533.5t496.5 201.5h452v162h254v-389h-188q166 -199 166 -508q0 -330 -187.5 -533.5t-496.5 -203.5zM391 717q0 -217 97.5 -345t271.5 -128t271 128t97 345t-97 344t-271 127t-271.5 -127t-97.5 -344zM424 1843 h258l217 -287h-260z" glyph-name="uni1EDC" horiz-adv-x="1519" unicode="Ờ"/><glyph d="M590 -20q-221 0 -378 140t-157 412.5t157 412.5t378 140h319v160h240v-389h-109q84 -133 84 -324q0 -272 -156.5 -412t-377.5 -140zM254 1475h258l217 -287h-260zM336 532.5q0 -151.5 69.5 -228.5t184.5 -77t184.5 77t69.5 228.5t-69.5 228.5t-184.5 77t-184.5 -77 t-69.5 -228.5z" glyph-name="uni1EDD" horiz-adv-x="1179" unicode="ờ"/><glyph d="M760 -20q-309 0 -496.5 203.5t-187.5 533.5q0 332 187.5 533.5t496.5 201.5h452v162h254v-389h-188q166 -199 166 -508q0 -330 -187.5 -533.5t-496.5 -203.5zM391 717q0 -217 97.5 -345t271.5 -128t271 128t97 345t-97 344t-271 127t-271.5 -127t-97.5 -344zM555 1735 q0 109 63.5 161t149.5 52q92 0 156.5 -54.5t64.5 -154.5q0 -88 -51 -140.5t-131 -64.5l-70 121q88 2 88 71q0 31 -17 47.5t-44 16.5q-51 0 -57 -55h-152z" glyph-name="uni1EDE" horiz-adv-x="1519" unicode="Ở"/><glyph d="M590 -20q-221 0 -378 140t-157 412.5t157 412.5t378 140h319v160h240v-389h-109q84 -133 84 -324q0 -272 -156.5 -412t-377.5 -140zM336 532.5q0 -151.5 69.5 -228.5t184.5 -77t184.5 77t69.5 228.5t-69.5 228.5t-184.5 77t-184.5 -77t-69.5 -228.5zM385 1366 q0 109 63.5 161t149.5 52q92 0 156.5 -54.5t64.5 -154.5q0 -88 -51 -140t-131 -65l-70 121q88 2 88 72q0 31 -17 47t-44 16q-51 0 -57 -55h-152z" glyph-name="uni1EDF" horiz-adv-x="1179" unicode="ở"/><glyph d="M760 -20q-309 0 -496.5 203.5t-187.5 533.5q0 332 187.5 533.5t496.5 201.5h452v162h254v-389h-188q166 -199 166 -508q0 -330 -187.5 -533.5t-496.5 -203.5zM391 717q0 -217 97.5 -345t271.5 -128t271 128t97 345t-97 344t-271 127t-271.5 -127t-97.5 -344zM403 1628 q0 113 53.5 175.5t151.5 62.5q53 0 96.5 -17.5t67 -39t50 -39t50.5 -17.5q23 0 45.5 13.5t22.5 43.5h176q0 -113 -53 -174t-152 -61q-53 0 -96 17.5t-66.5 39t-50 39t-51.5 17.5q-23 0 -45 -13.5t-22 -46.5h-177z" glyph-name="uni1EE0" horiz-adv-x="1519" unicode="Ỡ"/><glyph d="M590 -20q-221 0 -378 140t-157 412.5t157 412.5t378 140h319v160h240v-389h-109q84 -133 84 -324q0 -272 -156.5 -412t-377.5 -140zM233 1260q0 113 53.5 175t151.5 62q53 0 96.5 -17.5t67 -39t50 -39t50.5 -17.5q23 0 45.5 13.5t22.5 44.5h176q0 -113 -53 -174.5 t-152 -61.5q-53 0 -96 17.5t-66.5 39t-50 39t-51.5 17.5q-23 0 -45 -13.5t-22 -45.5h-177zM336 532.5q0 -151.5 69.5 -228.5t184.5 -77t184.5 77t69.5 228.5t-69.5 228.5t-184.5 77t-184.5 -77t-69.5 -228.5z" glyph-name="uni1EE1" horiz-adv-x="1179" unicode="ỡ"/><glyph d="M760 -20q-309 0 -496.5 203.5t-187.5 533.5q0 332 187.5 533.5t496.5 201.5h452v162h254v-389h-188q166 -199 166 -508q0 -330 -187.5 -533.5t-496.5 -203.5zM391 717q0 -217 97.5 -345t271.5 -128t271 128t97 345t-97 344t-271 127t-271.5 -127t-97.5 -344zM580 -293 q0 74 53 126t127 52q76 0 129 -52t53 -126q0 -76 -53 -127t-129 -51q-74 0 -127 52t-53 126z" glyph-name="uni1EE2" horiz-adv-x="1519" unicode="Ợ"/><glyph d="M590 -20q-221 0 -378 140t-157 412.5t157 412.5t378 140h319v160h240v-389h-109q84 -133 84 -324q0 -272 -156.5 -412t-377.5 -140zM336 532.5q0 -151.5 69.5 -228.5t184.5 -77t184.5 77t69.5 228.5t-69.5 228.5t-184.5 77t-184.5 -77t-69.5 -228.5zM410 -293 q0 74 53 126t127 52q76 0 129 -52t53 -126q0 -76 -53 -127t-129 -51q-74 0 -127 52t-53 126z" glyph-name="uni1EE3" horiz-adv-x="1179" unicode="ợ"/><glyph d="M698 -20q-274 0 -433 143t-159 422v889h310v-867q0 -158 73.5 -239.5t208.5 -81.5q133 0 207 82t74 239v867h309v-889q0 -279 -160 -422t-430 -143zM516 -293q0 74 53.5 126t126.5 52q76 0 129.5 -52t53.5 -126q0 -76 -53.5 -127t-129.5 -51q-74 0 -127 52t-53 126z" glyph-name="uni1EE4" horiz-adv-x="1394" unicode="Ụ"/><glyph d="M406 461q0 -233 196 -234q100 0 161.5 58.5t61.5 175.5v604h299v-1065h-299v223h-12q-16 -92 -103 -167.5t-237 -75.5q-162 0 -264.5 105t-102.5 304v676h300v-604zM457 -293q0 74 53 126t127 52q76 0 129 -52t53 -126q0 -76 -53 -127t-129 -51q-74 0 -127 52t-53 126z " glyph-name="uni1EE5" unicode="ụ"/><glyph d="M698 -20q-274 0 -433 143t-159 422v889h310v-867q0 -158 73.5 -239.5t208.5 -81.5q133 0 207 82t74 239v867h309v-889q0 -279 -160 -422t-430 -143zM469 1735q0 109 63.5 161t149.5 52q92 0 156.5 -54.5t64.5 -154.5q0 -88 -51 -140.5t-131 -64.5l-70 121q88 2 88 71 q0 31 -17 47.5t-44 16.5q-51 0 -57 -55h-152z" glyph-name="uni1EE6" horiz-adv-x="1394" unicode="Ủ"/><glyph d="M406 461q0 -233 196 -234q100 0 161.5 58.5t61.5 175.5v604h299v-1065h-299v223h-12q-16 -92 -103 -167.5t-237 -75.5q-162 0 -264.5 105t-102.5 304v676h300v-604zM408 1366q0 109 63.5 161t149.5 52q92 0 156.5 -54.5t64.5 -154.5q0 -88 -51.5 -140t-131.5 -65l-69 121 q88 2 88 72q0 31 -17.5 47t-44.5 16q-51 0 -57 -55h-151z" glyph-name="uni1EE7" unicode="ủ"/><glyph d="M698 -20q-274 0 -433 143t-159 422v889h310v-867q0 -158 73.5 -239.5t208.5 -81.5q133 0 207 82t74 239v867h291v180h252v-408h-234v-661q0 -279 -160 -422t-430 -143zM543 1556l215 287h260l-217 -287h-258z" glyph-name="uni1EE8" horiz-adv-x="1394" unicode="Ứ"/><glyph d="M406 461q0 -233 196 -234q100 0 161.5 58.5t61.5 175.5v604h291v180h252v-407h-244v-838h-299v223h-12q-16 -92 -103 -167.5t-237 -75.5q-162 0 -264.5 105t-102.5 304v676h300v-604zM461 1188l215 287h260l-217 -287h-258z" glyph-name="uni1EE9" unicode="ứ"/><glyph d="M698 -20q-274 0 -433 143t-159 422v889h310v-867q0 -158 73.5 -239.5t208.5 -81.5q133 0 207 82t74 239v867h291v180h252v-408h-234v-661q0 -279 -160 -422t-430 -143zM362 1843h259l217 -287h-260z" glyph-name="uni1EEA" horiz-adv-x="1394" unicode="Ừ"/><glyph d="M406 461q0 -233 196 -234q100 0 161.5 58.5t61.5 175.5v604h291v180h252v-407h-244v-838h-299v223h-12q-16 -92 -103 -167.5t-237 -75.5q-162 0 -264.5 105t-102.5 304v676h300v-604zM281 1475h258l217 -287h-260z" glyph-name="uni1EEB" unicode="ừ"/><glyph d="M698 -20q-274 0 -433 143t-159 422v889h310v-867q0 -158 73.5 -239.5t208.5 -81.5q133 0 207 82t74 239v867h291v180h252v-408h-234v-661q0 -279 -160 -422t-430 -143zM494 1735q0 109 63.5 161t149.5 52q92 0 156.5 -54.5t64.5 -154.5q0 -88 -51.5 -140.5t-131.5 -64.5 l-69 121q88 2 88 71q0 31 -17.5 47.5t-44.5 16.5q-51 0 -57 -55h-151z" glyph-name="uni1EEC" horiz-adv-x="1394" unicode="Ử"/><glyph d="M406 461q0 -233 196 -234q100 0 161.5 58.5t61.5 175.5v604h291v180h252v-407h-244v-838h-299v223h-12q-16 -92 -103 -167.5t-237 -75.5q-162 0 -264.5 105t-102.5 304v676h300v-604zM412 1366q0 109 63.5 161t149.5 52q92 0 156.5 -54.5t64.5 -154.5q0 -88 -51.5 -140 t-130.5 -65l-70 121q88 2 88 72q0 31 -17.5 47t-43.5 16q-51 0 -58 -55h-151z" glyph-name="uni1EED" unicode="ử"/><glyph d="M698 -20q-274 0 -433 143t-159 422v889h310v-867q0 -158 73.5 -239.5t208.5 -81.5q133 0 207 82t74 239v867h291v180h252v-408h-234v-661q0 -279 -160 -422t-430 -143zM340 1628q0 113 53 175.5t152 62.5q53 0 96 -17.5t66.5 -39t50 -39t51.5 -17.5q23 0 45.5 13.5 t22.5 43.5h176q0 -113 -53.5 -174t-151.5 -61q-53 0 -96 17.5t-66.5 39t-50.5 39t-51 17.5q-23 0 -45.5 -13.5t-22.5 -46.5h-176z" glyph-name="uni1EEE" horiz-adv-x="1394" unicode="Ữ"/><glyph d="M406 461q0 -233 196 -234q100 0 161.5 58.5t61.5 175.5v604h291v180h252v-407h-244v-838h-299v223h-12q-16 -92 -103 -167.5t-237 -75.5q-162 0 -264.5 105t-102.5 304v676h300v-604zM258 1260q0 113 53.5 175t151.5 62q53 0 96 -17.5t66.5 -39t50 -39t51.5 -17.5 q23 0 45.5 13.5t22.5 44.5h176q0 -113 -53.5 -174.5t-151.5 -61.5q-53 0 -96 17.5t-66.5 39t-50.5 39t-51 17.5q-23 0 -45.5 -13.5t-22.5 -45.5h-176z" glyph-name="uni1EEF" unicode="ữ"/><glyph d="M698 -20q-274 0 -433 143t-159 422v889h310v-867q0 -158 73.5 -239.5t208.5 -81.5q133 0 207 82t74 239v867h291v180h252v-408h-234v-661q0 -279 -160 -422t-430 -143zM516 -293q0 74 53.5 126t126.5 52q76 0 129.5 -52t53.5 -126q0 -76 -53.5 -127t-129.5 -51 q-74 0 -127 52t-53 126z" glyph-name="uni1EF0" horiz-adv-x="1394" unicode="Ự"/><glyph d="M406 461q0 -233 196 -234q100 0 161.5 58.5t61.5 175.5v604h291v180h252v-407h-244v-838h-299v223h-12q-16 -92 -103 -167.5t-237 -75.5q-162 0 -264.5 105t-102.5 304v676h300v-604zM434 -293q0 74 53.5 126t126.5 52q76 0 129.5 -52t53.5 -126q0 -76 -53.5 -127 t-129.5 -51q-74 0 -127 52t-53 126z" glyph-name="uni1EF1" unicode="ự"/><glyph d="M563 0v526l-518 908h348l328 -611l330 611h348l-518 -908v-526h-318zM408 1843h258l217 -287h-260z" glyph-name="Ygrave" horiz-adv-x="1443" unicode="Ỳ"/><glyph d="M141 -158q98 -12 163 5.5t86.5 42t37.5 61.5q29 70 -2 145l-391 969h307l248 -688l254 688h307l-436 -1073q-100 -250 -223 -338t-351 -64v252zM276 1475h259l217 -287h-260z" glyph-name="ygrave" horiz-adv-x="1185" unicode="ỳ"/><glyph d="M563 0v526l-518 908h348l328 -611l330 611h348l-518 -908v-526h-318zM541 -293q0 74 53 126t127 52q76 0 129 -52t53 -126q0 -76 -53 -127t-129 -51q-74 0 -127 52t-53 126z" glyph-name="uni1EF4" horiz-adv-x="1443" unicode="Ỵ"/><glyph d="M141 -158q98 -12 163 5.5t86.5 42t37.5 61.5q29 70 -2 145l-391 969h307l248 -688l254 688h307l-436 -1073q-100 -250 -223 -338t-351 -64v252zM752 -293q0 74 53 126t127 52q76 0 129 -52t53 -126q0 -76 -53 -127t-129 -51q-74 0 -127 52t-53 126z" glyph-name="uni1EF5" horiz-adv-x="1185" unicode="ỵ"/><glyph d="M563 0v526l-518 908h348l328 -611l330 611h348l-518 -908v-526h-318zM518 1735q0 109 63.5 161t149.5 52q92 0 156.5 -54.5t64.5 -154.5q0 -88 -51 -140.5t-131 -64.5l-70 121q88 2 88 71q0 31 -17 47.5t-44 16.5q-51 0 -57 -55h-152z" glyph-name="uni1EF6" horiz-adv-x="1443" unicode="Ỷ"/><glyph d="M141 -158q98 -12 163 5.5t86.5 42t37.5 61.5q29 70 -2 145l-391 969h307l248 -688l254 688h307l-436 -1073q-100 -250 -223 -338t-351 -64v252zM387 1366q0 109 63.5 161t149.5 52q92 0 156.5 -54.5t64.5 -154.5q0 -88 -51 -140t-131 -65l-70 121q88 2 88 72q0 31 -17 47 t-44 16q-51 0 -57 -55h-152z" glyph-name="uni1EF7" horiz-adv-x="1185" unicode="ỷ"/><glyph d="M563 0v526l-518 908h348l328 -611l330 611h348l-518 -908v-526h-318zM365 1628q0 113 53 175.5t151 62.5q53 0 96.5 -17.5t67 -39t50 -39t51.5 -17.5q23 0 45 13.5t22 43.5h176q0 -113 -53 -174t-152 -61q-53 0 -96 17.5t-66.5 39t-50 39t-51.5 17.5q-23 0 -45 -13.5 t-22 -46.5h-176z" glyph-name="uni1EF8" horiz-adv-x="1443" unicode="Ỹ"/><glyph d="M141 -158q98 -12 163 5.5t86.5 42t37.5 61.5q29 70 -2 145l-391 969h307l248 -688l254 688h307l-436 -1073q-100 -250 -223 -338t-351 -64v252zM236 1260q0 113 53 175t151 62q53 0 96.5 -17.5t67 -39t50 -39t51.5 -17.5q23 0 45 13.5t22 44.5h176q0 -113 -53 -174.5 t-152 -61.5q-53 0 -96 17.5t-66.5 39t-50 39t-51.5 17.5q-23 0 -45 -13.5t-22 -45.5h-176z" glyph-name="uni1EF9" horiz-adv-x="1185" unicode="ỹ"/><glyph d="M92 453v225h1045v-225h-1045z" glyph-name="endash" horiz-adv-x="1228" unicode="–"/><glyph d="M92 453v225h1168v-225h-1168z" glyph-name="emdash" horiz-adv-x="1351" unicode="—"/><glyph d="M393 1323q-86 -2 -123 -32.5t-37 -96.5q100 -2 156.5 -53t56.5 -127t-50 -123t-128 -47q-90 0 -146 66.5t-56 197.5q0 158 82.5 247t222.5 89h22v-121z" glyph-name="quoteleft" horiz-adv-x="522" unicode="‘"/><glyph d="M129 973q86 2 123 32.5t37 96.5q-100 2 -156.5 53t-56.5 127t50 123t128 47q90 0 146.5 -66.5t56.5 -197.5q0 -158 -83 -247t-222 -89h-23v121z" glyph-name="quoteright" horiz-adv-x="522" unicode="’"/><glyph d="M129 -143q86 2 123 32.5t37 96.5q-100 2 -156.5 53t-56.5 127t50 123t128 47q90 0 146.5 -66.5t56.5 -197.5q0 -158 -83 -247t-222 -89h-23v121z" glyph-name="quotesinglbase" horiz-adv-x="532" unicode="‚"/><glyph d="M393 1323q-86 -2 -123 -32.5t-37 -96.5q100 -2 156.5 -53t56.5 -127t-50 -123t-128 -47q-90 0 -146 66.5t-56 197.5q0 158 82.5 247t222.5 89h22v-121zM528 1108q0 158 83 247t223 89h22v-121q-86 -2 -123 -32.5t-37 -96.5q100 -2 156.5 -53t56.5 -127t-50 -123t-128 -47 q-90 0 -146.5 66.5t-56.5 197.5z" glyph-name="quotedblleft" horiz-adv-x="985" unicode="“"/><glyph d="M129 973q86 2 123 32.5t37 96.5q-100 2 -156.5 53t-56.5 127t50 123t128 47q90 0 146.5 -66.5t56.5 -197.5q0 -158 -83 -247t-222 -89h-23v121zM539 1282q0 76 50 123t128 47q90 0 146.5 -66.5t56.5 -197.5q0 -158 -83 -247t-223 -89h-22v121q86 2 123 32.5t37 96.5 q-100 2 -156.5 53t-56.5 127z" glyph-name="quotedblright" horiz-adv-x="985" unicode="”"/><glyph d="M592 -172q86 2 123 32.5t37 96.5q-100 2 -156.5 53t-56.5 127t50 123t128 47q90 0 146.5 -66.5t56.5 -197.5q0 -158 -83 -247t-223 -89h-22v121zM76 137q0 76 50 123t128 47q90 0 146.5 -66.5t56.5 -197.5q0 -158 -83 -247t-222 -89h-23v121q86 2 123 32.5t37 96.5 q-100 2 -156.5 53t-56.5 127z" glyph-name="quotedblbase" horiz-adv-x="995" unicode="„"/><glyph d="M319 401v506h-217v226h217v301h238v-301h215v-226h-215v-506h-238z" glyph-name="dagger" horiz-adv-x="874" unicode="†"/><glyph d="M319 0v272h-217v226h217v438h-217v225h217v273h238v-273h215v-225h-215v-438h215v-226h-215v-272h-238z" glyph-name="daggerdbl" horiz-adv-x="874" unicode="‡"/><glyph d="M287 356q-76 0 -130.5 54.5t-54.5 130.5q0 74 54.5 128t130.5 54q74 0 128 -54.5t54 -127.5q0 -76 -54 -130.5t-128 -54.5z" glyph-name="bullet" horiz-adv-x="571" unicode="•"/><glyph d="M782 -20q-74 0 -127 52t-53 125.5t53.5 126t126.5 52.5q76 0 129.5 -52.5t53.5 -125.5q0 -76 -53.5 -127t-129.5 -51zM76 157.5q0 73.5 53 126t127 52.5q76 0 129 -52.5t53 -125.5q0 -76 -53 -127t-129 -51q-74 0 -127 52t-53 125.5zM1126 157.5q0 73.5 53.5 126 t127.5 52.5q76 0 129 -52.5t53 -125.5q0 -76 -53.5 -127t-128.5 -51q-74 0 -127.5 52t-53.5 125.5z" glyph-name="ellipsis" horiz-adv-x="1564" unicode="…"/><glyph d="M1874 -18q-133 0 -218 85t-85 248q0 158 86 244t217 86t217 -87t86 -243q0 -164 -85 -248.5t-218 -84.5zM76 1128q0 156 86 242t217 86t217 -86t86 -242q0 -164 -85 -248.5t-218 -84.5t-218 85.5t-85 247.5zM137 393l1131 821l123 -167l-1131 -824zM287 1128 q0 -74 27.5 -105.5t64.5 -31.5q92 0 92 137q0 72 -27.5 102t-64.5 30t-64.5 -31t-27.5 -101zM848 315q0 158 86 244t217 86t217 -87t86 -243q0 -164 -86 -248.5t-217 -84.5t-217 84.5t-86 248.5zM1059 315q0 -135 92 -135q37 0 64.5 31t27.5 104q0 70 -27.5 100.5 t-64.5 30.5t-64.5 -29.5t-27.5 -101.5zM1782 315q0 -135 92 -135q37 0 64.5 31t27.5 104q0 70 -27.5 100.5t-64.5 30.5t-64.5 -29.5t-27.5 -101.5z" glyph-name="perthousand" horiz-adv-x="2252" unicode="‰"/><glyph d="M436 205l-354 287v231l354 297v-270l-172 -136l172 -141v-268z" glyph-name="guilsinglleft" horiz-adv-x="518" unicode="‹"/><glyph d="M96 205v268l172 141l-172 136v270l355 -297v-231z" glyph-name="guilsinglright" horiz-adv-x="522" unicode="›"/><glyph d="M-360 0l892 1434h150l-893 -1434h-149z" glyph-name="fraction" horiz-adv-x="321" unicode="⁄"/><glyph d="M72 731v150h108q41 272 216 421.5t450 149.5q248 0 410.5 -130t183.5 -386h-299q-57 252 -305 252q-139 0 -224.5 -83t-113.5 -224h290v-150h-307v-14q0 -45 2 -68h305v-149h-278q76 -256 326 -256q248 0 305 254h299q-20 -258 -183 -388t-415 -130q-258 0 -429 136 t-223 384h-118v149h98q-2 23 -2 68v14h-96z" glyph-name="Euro" horiz-adv-x="1501" unicode="€"/><glyph d="M510 1065v369h123l112 -277l113 277h123v-369h-117v180l-67 -180h-103l-67 180v-180h-117zM82 1337v97h362v-97h-122v-272h-117v272h-123z" glyph-name="trademark" horiz-adv-x="1062" unicode="™"/><glyph d="M616 -20q-92 0 -179 24.5t-169 77.5t-132 153.5t-50 237.5q0 127 44 224.5t114.5 150.5t150.5 78.5t162 25.5q197 0 334 -149q0 68 -10.5 129t-38 129.5t-88 110.5t-148.5 42q-197 0 -223 -176h-262q-2 74 25.5 144.5t83 132t151.5 99.5t219 38q289 0 429 -198.5 t140 -534.5q0 -383 -155.5 -561t-397.5 -178zM371 475q0 -127 74.5 -190.5t171 -63.5t171 63.5t74.5 190.5t-74.5 188.5t-169.5 61.5q-96 0 -171.5 -61.5t-75.5 -188.5z" glyph-name="partialdiff" horiz-adv-x="1245" unicode="∂"/><glyph d="M92 -389v2027h1340v-2027h-287v1755h-766v-1755h-287z" glyph-name="product" horiz-adv-x="1523" unicode="∏"/><glyph d="M92 -389l563 1014l-563 1013h1241v-270h-764l410 -743l-410 -744h764v-270h-1241z" glyph-name="summation" horiz-adv-x="1425" unicode="∑"/><glyph d="M106 403v226h685v-226h-685z" glyph-name="minus" horiz-adv-x="894" unicode="−"/><glyph d="M707 -389l-361 878h-254v320h453l319 -813l426 1642h295l-530 -2027h-348z" glyph-name="radical" horiz-adv-x="1677" unicode="√"/><glyph d="M444 176q-154 0 -261 99.5t-107 261.5q0 160 107.5 257t260.5 97q201 0 408 -184q207 184 405 184q154 0 261.5 -97.5t107.5 -256.5q0 -162 -107.5 -261.5t-261.5 -99.5q-201 0 -405 186q-205 -186 -408 -186zM332 536.5q0 -55.5 40 -96.5t107 -41q119 0 223 138 q-109 137 -223 137q-68 0 -107.5 -41t-39.5 -96.5zM999 537q104 -137 226 -138q68 0 106.5 41t38.5 96.5t-39 96.5t-106 41q-117 0 -226 -137z" glyph-name="infinity" horiz-adv-x="1701" unicode="∞"/><glyph d="M35 -133q80 0 104.5 48t24.5 144v988q0 186 94 282t334 96v-256q-72 0 -100.5 -49t-28.5 -143v-989q0 -199 -96.5 -288t-331.5 -89v256z" glyph-name="integral" horiz-adv-x="643" unicode="∫"/><glyph d="M844 201q-70 0 -137.5 31.5t-111.5 68.5t-99.5 68.5t-102.5 31.5t-77.5 -26.5t-30.5 -71.5h-179q-6 121 68 201t195 80q70 0 137 -32t111.5 -69t99.5 -68.5t102 -31.5t78 26.5t31 71.5h178q6 -121 -68.5 -200.5t-193.5 -79.5zM106 631q-6 121 68 200.5t195 79.5 q70 0 137 -31.5t111.5 -68.5t99.5 -68.5t102 -31.5t78 26.5t31 71.5h178q6 -121 -68.5 -201t-193.5 -80q-70 0 -137.5 32t-111.5 69t-99.5 68.5t-102.5 31.5t-77.5 -26.5t-30.5 -71.5h-179z" glyph-name="approxequal" horiz-adv-x="1212" unicode="≈"/><glyph d="M129 0l117 289h-140v225h230l41 102h-271v226h363l123 307h178l-123 -307h144v-226h-236l-41 -102h277v-225h-367l-117 -289h-178z" glyph-name="notequal" horiz-adv-x="894" unicode="≠"/><glyph d="M805 322l-703 333v232l703 332v-252l-479 -197l479 -197v-251zM102 0v225h701v-225h-701z" glyph-name="lessequal" horiz-adv-x="905" unicode="≤"/><glyph d="M104 322v251l480 197l-480 197v252l703 -332v-232zM106 0v225h701v-225h-701z" glyph-name="greaterequal" horiz-adv-x="909" unicode="≥"/><glyph d="M410 0l-318 717l318 717h421l318 -717l-318 -717h-421zM395 717l226 -508l225 508l-225 508z" glyph-name="lozenge" horiz-adv-x="1241" unicode="◊"/><glyph d="M106 492v942h308v-942h-308z" glyph-name="uniA78B" horiz-adv-x="520" unicode="Ꞌ"/><glyph d="M106 610v824h300v-824h-300z" glyph-name="uniA78C" horiz-adv-x="512" unicode="ꞌ"/><glyph d="M690 -20q-268 0 -426 143t-158 422h310q0 -147 72.5 -223t203.5 -76q276 0 277 321v867h307v-891q0 -276 -159 -419.5t-427 -143.5zM977 1556l215 287h260l-217 -287h-258z" glyph-name="J.aalt" horiz-adv-x="1382"/><glyph d="M707 -20q-285 0 -458 196.5t-173 540.5t185 539.5t489 195.5q238 0 401.5 -120t198.5 -353h-314q-63 209 -280 209q-180 0 -272.5 -126t-92.5 -345q0 -213 97.5 -342t281.5 -131q143 -2 224 74.5t81 216.5v8h-291v245h582v-788h-289v154q-124 -174 -370 -174z" glyph-name="G.ss01" horiz-adv-x="1452"/><glyph d="M952 0q-20 43 -20 170v137q0 211 -225 211h-293v-518h-308v1434h601q266 0 396 -117t130 -305q0 -250 -227 -353q135 -45 183 -131t48 -221v-137q0 -131 20 -170h-305zM414 766h282q106 0 166 52t60 151q0 197 -226 196h-282v-399z" glyph-name="R.aalt" horiz-adv-x="1353"/><glyph d="M707 -20q-285 0 -458 196.5t-173 540.5t185 539.5t489 195.5q238 0 401.5 -120t198.5 -353h-314q-63 209 -280 209q-180 0 -272.5 -126t-92.5 -345q0 -213 97.5 -342t281.5 -131q143 -2 224 74.5t81 216.5v8h-291v245h582v-788h-289v154q-124 -174 -370 -174z" glyph-name="G.ss05" horiz-adv-x="1452"/><glyph d="M92 0v1065h299v-1065h-299zM80 1352q0 66 49 112.5t115 46.5q68 0 116 -46t48 -113.5t-48.5 -114.5t-115.5 -47q-66 0 -115 47t-49 115z" glyph-name="i.locl" horiz-adv-x="483"/><glyph d="M80 -399q-115 0 -174 6v233h104q121 0 121 140v1085h299v-1131q0 -333 -350 -333zM141 1188l215 287h260l-217 -287h-258z" glyph-name="j.aalt" horiz-adv-x="522"/><glyph d="M520 -20q-188 0 -326.5 140t-138.5 412.5t138.5 412.5t326.5 140q115 0 200 -50t116 -124v154h299v-1065h-299v154q-31 -74 -116 -124t-200 -50zM340 532.5q0 -145.5 73.5 -221t180 -75.5t180.5 75.5t74 221t-74 221t-180.5 75.5t-180 -75.5t-73.5 -221z" glyph-name="a.ss01" horiz-adv-x="1241"/><glyph d="M520 -20q-188 0 -326.5 140t-138.5 412.5t138.5 412.5t326.5 140q115 0 200 -50t116 -124v154h299v-1065h-299v154q-31 -74 -116 -124t-200 -50zM340 532.5q0 -145.5 73.5 -221t180 -75.5t180.5 75.5t74 221t-74 221t-180.5 75.5t-180 -75.5t-73.5 -221zM494 1188 l215 287h260l-217 -287h-258z" glyph-name="aacute.ss01" horiz-adv-x="1241"/><glyph d="M520 -20q-188 0 -326.5 140t-138.5 412.5t138.5 412.5t326.5 140q115 0 200 -50t116 -124v154h299v-1065h-299v154q-31 -74 -116 -124t-200 -50zM301 1475h197q2 -76 34.5 -110t100 -34t100.5 34t35 110h197q0 -147 -86 -231.5t-246 -84.5t-246 84.5t-86 231.5z M340 532.5q0 -145.5 73.5 -221t180 -75.5t180.5 75.5t74 221t-74 221t-180.5 75.5t-180 -75.5t-73.5 -221z" glyph-name="abreve.ss01" horiz-adv-x="1241"/><glyph d="M520 -20q-188 0 -326.5 140t-138.5 412.5t138.5 412.5t326.5 140q115 0 200 -50t116 -124v154h299v-1065h-299v154q-31 -74 -116 -124t-200 -50zM213 1470h268l140 -208l139 208h268l-199 -286h-417zM340 532.5q0 -145.5 73.5 -221t180 -75.5t180.5 75.5t74 221t-74 221 t-180.5 75.5t-180 -75.5t-73.5 -221z" glyph-name="uni01CE.ss01" horiz-adv-x="1241"/><glyph d="M520 -20q-188 0 -326.5 140t-138.5 412.5t138.5 412.5t326.5 140q115 0 200 -50t116 -124v154h299v-1065h-299v154q-31 -74 -116 -124t-200 -50zM223 1188l199 287h418l198 -287h-268l-139 209l-139 -209h-269zM340 532.5q0 -145.5 73.5 -221t180 -75.5t180.5 75.5 t74 221t-74 221t-180.5 75.5t-180 -75.5t-73.5 -221z" glyph-name="acircumflex.ss01" horiz-adv-x="1241"/><glyph d="M520 -20q-188 0 -326.5 140t-138.5 412.5t138.5 412.5t326.5 140q115 0 200 -50t116 -124v154h299v-1065h-299v154q-31 -74 -116 -124t-200 -50zM221 1352q0 66 49 112.5t115 46.5q68 0 116 -46t48 -113.5t-48 -114.5t-116 -47q-66 0 -115 47t-49 115zM340 532.5 q0 -145.5 73.5 -221t180 -75.5t180.5 75.5t74 221t-74 221t-180.5 75.5t-180 -75.5t-73.5 -221zM713 1351.5q0 67.5 48 113.5t116 46q66 0 114.5 -47t48.5 -112q0 -68 -49 -115t-114 -47q-68 0 -116 47t-48 114.5z" glyph-name="adieresis.ss01" horiz-adv-x="1241"/><glyph d="M520 -20q-188 0 -326.5 140t-138.5 412.5t138.5 412.5t326.5 140q115 0 200 -50t116 -124v154h299v-1065h-299v154q-31 -74 -116 -124t-200 -50zM319 1475h259l217 -287h-260zM340 532.5q0 -145.5 73.5 -221t180 -75.5t180.5 75.5t74 221t-74 221t-180.5 75.5t-180 -75.5 t-73.5 -221z" glyph-name="agrave.ss01" horiz-adv-x="1241"/><glyph d="M520 -20q-188 0 -326.5 140t-138.5 412.5t138.5 412.5t326.5 140q115 0 200 -50t116 -124v154h299v-1065h-299v154q-31 -74 -116 -124t-200 -50zM297 1300v175h672v-175h-672zM340 532.5q0 -145.5 73.5 -221t180 -75.5t180.5 75.5t74 221t-74 221t-180.5 75.5t-180 -75.5 t-73.5 -221z" glyph-name="amacron.ss01" horiz-adv-x="1241"/><glyph d="M520 -20q-188 0 -326.5 140t-138.5 412.5t138.5 412.5t326.5 140q115 0 200 -50t116 -124v154h299v-1065q-125 0 -193 -45t-68 -107q0 -53 43.5 -74.5t104.5 -0.5v-166q-37 -16 -96.5 -16.5t-121 18t-106.5 72t-45 133.5q0 88 51.5 148.5t131.5 88.5v103 q-31 -74 -116 -124t-200 -50zM340 532.5q0 -145.5 73.5 -221t180 -75.5t180.5 75.5t74 221t-74 221t-180.5 75.5t-180 -75.5t-73.5 -221z" glyph-name="aogonek.ss01" horiz-adv-x="1241"/><glyph d="M520 -20q-188 0 -326.5 140t-138.5 412.5t138.5 412.5t326.5 140q115 0 200 -50t116 -124v154h299v-1065h-299v154q-31 -74 -116 -124t-200 -50zM340 532.5q0 -145.5 73.5 -221t180 -75.5t180.5 75.5t74 221t-74 221t-180.5 75.5t-180 -75.5t-73.5 -221zM420 1348 q0 86 61.5 145t149.5 59q90 0 151.5 -59t61.5 -145t-61.5 -145.5t-151.5 -59.5q-88 0 -149.5 59.5t-61.5 145.5zM559 1347.5q0 -32.5 20.5 -52t51.5 -19.5t52.5 20.5t21.5 51.5q0 33 -21.5 53t-52.5 20t-51.5 -20.5t-20.5 -53z" glyph-name="aring.ss01" horiz-adv-x="1241"/><glyph d="M520 -20q-188 0 -326.5 140t-138.5 412.5t138.5 412.5t326.5 140q115 0 200 -50t116 -124v154h299v-1065h-299v154q-31 -74 -116 -124t-200 -50zM276 1260q0 113 53.5 175t151.5 62q53 0 96.5 -17.5t67 -39t50 -39t50.5 -17.5q23 0 45.5 13.5t22.5 44.5h176 q0 -113 -53 -174.5t-152 -61.5q-53 0 -96 17.5t-66.5 39t-50 39t-51.5 17.5q-23 0 -45 -13.5t-22 -45.5h-177zM340 532.5q0 -145.5 73.5 -221t180 -75.5t180.5 75.5t74 221t-74 221t-180.5 75.5t-180 -75.5t-73.5 -221z" glyph-name="atilde.ss01" horiz-adv-x="1241"/><glyph d="M553 -410q-133 0 -240.5 31t-182.5 110t-75 193q0 109 55.5 173.5t137.5 90.5q-80 4 -134.5 50.5t-54.5 121.5q0 63 39 107.5t103 56.5q-63 82 -64 203q0 162 111.5 256t294 94t291.5 -92q70 82 215 80v-217q-66 0 -115 -25q12 -43 12 -96q0 -162 -110.5 -255t-292.5 -93 q-109 0 -195 35q-53 -4 -53 -52q0 -41 44 -52t140 -11h66q100 0 187 -17.5t165 -55.5t123 -109.5t45 -167.5t-44 -169t-120 -113t-163 -58.5t-185 -18.5zM340 -53.5q0 -61.5 53 -104.5t166 -43q115 0 166 43t51 105q0 63 -52 104t-167 41q-111 0 -164 -42t-53 -103.5z M385 727q0 -55 36 -97t122 -42q84 0 120.5 43t36.5 96q0 55 -36.5 98t-120.5 43q-86 0 -122 -43t-36 -98z" glyph-name="g.ss01" horiz-adv-x="1136"/><glyph d="M106 0v1065h300v-1065h-300zM106 1225v227h300v-227h-300z" glyph-name="i.ss01" horiz-adv-x="512"/><glyph d="M514 0q-219 -25 -313.5 36.5t-94.5 254.5v1157h300v-1157q0 -76 108 -74v-217z" glyph-name="l.ss01" horiz-adv-x="571"/><glyph d="M520 -20q-188 0 -326.5 140t-138.5 412.5t138.5 412.5t326.5 140q115 0 200 -50t116 -124v154h299v-1065h-299v154q-31 -74 -116 -124t-200 -50zM340 532.5q0 -145.5 73.5 -221t180 -75.5t180.5 75.5t74 221t-74 221t-180.5 75.5t-180 -75.5t-73.5 -221z" glyph-name="a.ss02" horiz-adv-x="1241"/><glyph d="M520 -20q-188 0 -326.5 140t-138.5 412.5t138.5 412.5t326.5 140q115 0 200 -50t116 -124v154h299v-1065h-299v154q-31 -74 -116 -124t-200 -50zM340 532.5q0 -145.5 73.5 -221t180 -75.5t180.5 75.5t74 221t-74 221t-180.5 75.5t-180 -75.5t-73.5 -221zM494 1188 l215 287h260l-217 -287h-258z" glyph-name="aacute.ss02" horiz-adv-x="1241"/><glyph d="M520 -20q-188 0 -326.5 140t-138.5 412.5t138.5 412.5t326.5 140q115 0 200 -50t116 -124v154h299v-1065h-299v154q-31 -74 -116 -124t-200 -50zM301 1475h197q2 -76 34.5 -110t100 -34t100.5 34t35 110h197q0 -147 -86 -231.5t-246 -84.5t-246 84.5t-86 231.5z M340 532.5q0 -145.5 73.5 -221t180 -75.5t180.5 75.5t74 221t-74 221t-180.5 75.5t-180 -75.5t-73.5 -221z" glyph-name="abreve.ss02" horiz-adv-x="1241"/><glyph d="M520 -20q-188 0 -326.5 140t-138.5 412.5t138.5 412.5t326.5 140q115 0 200 -50t116 -124v154h299v-1065h-299v154q-31 -74 -116 -124t-200 -50zM213 1470h268l140 -208l139 208h268l-199 -286h-417zM340 532.5q0 -145.5 73.5 -221t180 -75.5t180.5 75.5t74 221t-74 221 t-180.5 75.5t-180 -75.5t-73.5 -221z" glyph-name="uni01CE.ss02" horiz-adv-x="1241"/><glyph d="M520 -20q-188 0 -326.5 140t-138.5 412.5t138.5 412.5t326.5 140q115 0 200 -50t116 -124v154h299v-1065h-299v154q-31 -74 -116 -124t-200 -50zM223 1188l199 287h418l198 -287h-268l-139 209l-139 -209h-269zM340 532.5q0 -145.5 73.5 -221t180 -75.5t180.5 75.5 t74 221t-74 221t-180.5 75.5t-180 -75.5t-73.5 -221z" glyph-name="acircumflex.ss02" horiz-adv-x="1241"/><glyph d="M520 -20q-188 0 -326.5 140t-138.5 412.5t138.5 412.5t326.5 140q115 0 200 -50t116 -124v154h299v-1065h-299v154q-31 -74 -116 -124t-200 -50zM221 1352q0 66 49 112.5t115 46.5q68 0 116 -46t48 -113.5t-48 -114.5t-116 -47q-66 0 -115 47t-49 115zM340 532.5 q0 -145.5 73.5 -221t180 -75.5t180.5 75.5t74 221t-74 221t-180.5 75.5t-180 -75.5t-73.5 -221zM713 1351.5q0 67.5 48 113.5t116 46q66 0 114.5 -47t48.5 -112q0 -68 -49 -115t-114 -47q-68 0 -116 47t-48 114.5z" glyph-name="adieresis.ss02" horiz-adv-x="1241"/><glyph d="M520 -20q-188 0 -326.5 140t-138.5 412.5t138.5 412.5t326.5 140q115 0 200 -50t116 -124v154h299v-1065h-299v154q-31 -74 -116 -124t-200 -50zM319 1475h259l217 -287h-260zM340 532.5q0 -145.5 73.5 -221t180 -75.5t180.5 75.5t74 221t-74 221t-180.5 75.5t-180 -75.5 t-73.5 -221z" glyph-name="agrave.ss02" horiz-adv-x="1241"/><glyph d="M520 -20q-188 0 -326.5 140t-138.5 412.5t138.5 412.5t326.5 140q115 0 200 -50t116 -124v154h299v-1065h-299v154q-31 -74 -116 -124t-200 -50zM297 1300v175h672v-175h-672zM340 532.5q0 -145.5 73.5 -221t180 -75.5t180.5 75.5t74 221t-74 221t-180.5 75.5t-180 -75.5 t-73.5 -221z" glyph-name="amacron.ss02" horiz-adv-x="1241"/><glyph d="M520 -20q-188 0 -326.5 140t-138.5 412.5t138.5 412.5t326.5 140q115 0 200 -50t116 -124v154h299v-1065q-125 0 -193 -45t-68 -107q0 -53 43.5 -74.5t104.5 -0.5v-166q-37 -16 -96.5 -16.5t-121 18t-106.5 72t-45 133.5q0 88 51.5 148.5t131.5 88.5v103 q-31 -74 -116 -124t-200 -50zM340 532.5q0 -145.5 73.5 -221t180 -75.5t180.5 75.5t74 221t-74 221t-180.5 75.5t-180 -75.5t-73.5 -221z" glyph-name="aogonek.ss02" horiz-adv-x="1241"/><glyph d="M520 -20q-188 0 -326.5 140t-138.5 412.5t138.5 412.5t326.5 140q115 0 200 -50t116 -124v154h299v-1065h-299v154q-31 -74 -116 -124t-200 -50zM340 532.5q0 -145.5 73.5 -221t180 -75.5t180.5 75.5t74 221t-74 221t-180.5 75.5t-180 -75.5t-73.5 -221zM420 1348 q0 86 61.5 145t149.5 59q90 0 151.5 -59t61.5 -145t-61.5 -145.5t-151.5 -59.5q-88 0 -149.5 59.5t-61.5 145.5zM559 1347.5q0 -32.5 20.5 -52t51.5 -19.5t52.5 20.5t21.5 51.5q0 33 -21.5 53t-52.5 20t-51.5 -20.5t-20.5 -53z" glyph-name="aring.ss02" horiz-adv-x="1241"/><glyph d="M520 -20q-188 0 -326.5 140t-138.5 412.5t138.5 412.5t326.5 140q115 0 200 -50t116 -124v154h299v-1065h-299v154q-31 -74 -116 -124t-200 -50zM276 1260q0 113 53.5 175t151.5 62q53 0 96.5 -17.5t67 -39t50 -39t50.5 -17.5q23 0 45.5 13.5t22.5 44.5h176 q0 -113 -53 -174.5t-152 -61.5q-53 0 -96 17.5t-66.5 39t-50 39t-51.5 17.5q-23 0 -45 -13.5t-22 -45.5h-177zM340 532.5q0 -145.5 73.5 -221t180 -75.5t180.5 75.5t74 221t-74 221t-180.5 75.5t-180 -75.5t-73.5 -221z" glyph-name="atilde.ss02" horiz-adv-x="1241"/><glyph d="M399 -20q-143 0 -243.5 72.5t-100.5 221.5q0 82 32 140.5t89 90.5t113.5 48t132.5 25l205 26q68 8 87 29.5t19 75.5v12q0 82 -42 113.5t-118 31.5q-174 0 -174 -137v-10l-282 -2v41q0 328 465 327q238 0 344 -85t106 -265v-459q0 -51 15.5 -65t54.5 -16v-177 q-37 -31 -123 -30q-98 0 -164.5 44t-66.5 140v14h-11q-14 -63 -99 -134.5t-239 -71.5zM350 313q0 -49 37 -82.5t123 -33.5q106 0 164.5 55t58.5 117v112q-18 -23 -102 -32l-135 -21q-72 -12 -109 -38t-37 -77z" glyph-name="a.ss03" horiz-adv-x="1136"/><glyph d="M553 -410q-133 0 -240.5 31t-182.5 110t-75 193q0 109 55.5 173.5t137.5 90.5q-80 4 -134.5 50.5t-54.5 121.5q0 63 39 107.5t103 56.5q-63 82 -64 203q0 162 111.5 256t294 94t291.5 -92q70 82 215 80v-217q-66 0 -115 -25q12 -43 12 -96q0 -162 -110.5 -255t-292.5 -93 q-109 0 -195 35q-53 -4 -53 -52q0 -41 44 -52t140 -11h66q100 0 187 -17.5t165 -55.5t123 -109.5t45 -167.5t-44 -169t-120 -113t-163 -58.5t-185 -18.5zM340 -53.5q0 -61.5 53 -104.5t166 -43q115 0 166 43t51 105q0 63 -52 104t-167 41q-111 0 -164 -42t-53 -103.5z M385 727q0 -55 36 -97t122 -42q84 0 120.5 43t36.5 96q0 55 -36.5 98t-120.5 43q-86 0 -122 -43t-36 -98z" glyph-name="g.ss03" horiz-adv-x="1136"/><glyph d="M514 0q-219 -25 -313.5 36.5t-94.5 254.5v1157h300v-1157q0 -76 108 -74v-217z" glyph-name="l.ss04" horiz-adv-x="571"/><glyph d="M35 836v229h151v70q0 332 351 331h159v-227h-88q-123 0 -123 -135v-39h441v274h299v-274h211v-231h-211v-472q0 -68 28.5 -102.5t106.5 -34.5q41 0 84 4v-223q-78 -20 -164 -20q-354 0 -354 333v515h-181v2h-260v-836h-299v836h-151z" glyph-name="f_t.dlig" horiz-adv-x="1488"/><glyph d="M1210 -14q-166 0 -260 82t-94 251v515h-72q-164 0 -271 -85t-107 -278v-471h-300v1065h300v-305h8q31 145 129 225t254 80h59v274h299v-274h211v-231h-211v-472q0 -68 28.5 -102.5t106.5 -34.5q41 0 84 4v-223q-78 -20 -164 -20z" glyph-name="r_t.dlig" horiz-adv-x="1419"/><glyph d="M293 -4q-98 0 -159.5 70.5t-61.5 187.5v27q0 117 61.5 187.5t159.5 70.5q100 0 160.5 -71t60.5 -187v-27q0 -117 -60.5 -187.5t-160.5 -70.5zM188 254q0 -66 28 -108t77 -42t76.5 42t27.5 108v27q0 66 -27.5 107.5t-76.5 41.5t-77 -42t-28 -107v-27z" glyph-name="zero.dnom" horiz-adv-x="585"/><glyph d="M199 389q-33 -57 -117 -37v109q37 -4 70.5 19.5t46.5 54.5h110v-535h-110v389z" glyph-name="one.dnom" horiz-adv-x="401"/><glyph d="M82 14q0 90 28.5 146.5t118.5 109.5q8 4 26.5 14.5t26 14.5t19.5 13.5t17.5 17.5t9.5 19t4 26q0 31 -20.5 47t-45.5 16q-27 0 -48 -18.5t-21 -54.5v-17h-115v17q0 80 46 129t138 49q90 0 138.5 -47t48.5 -121q0 -18 -4.5 -34.5t-9.5 -30t-17 -28t-20.5 -21.5t-28 -21.5 t-27.5 -19.5t-31.5 -20.5t-31.5 -19.5q-70 -37 -70 -71v-7h240v-102h-371v14z" glyph-name="two.dnom" horiz-adv-x="544"/><glyph d="M279 -8q-96 0 -146.5 48t-50.5 126h111q4 -82 88 -82q90 0 90 78q0 76 -103 76h-22v84h22q80 0 80 67q0 27 -18.5 44.5t-50.5 17.5q-31 0 -52.5 -19.5t-21.5 -56.5h-105q0 80 49.5 124t133.5 44q82 0 129 -39t47 -103q0 -45 -26.5 -76.5t-63.5 -39.5q41 -2 77.5 -35 t36.5 -96q0 -72 -56 -117t-148 -45z" glyph-name="three.dnom" horiz-adv-x="565"/><glyph d="M322 0v135h-240v88l240 312h110v-312h62v-88h-62v-135h-110zM178 223h144v185z" glyph-name="four.dnom" horiz-adv-x="575"/><glyph d="M256 -10q-90 0 -142.5 49t-52.5 125h109q2 -37 29.5 -57.5t60.5 -20.5q35 0 64.5 24.5t29.5 75.5q0 47 -29.5 71t-66.5 24q-51 0 -78 -37h-106l41 291h295v-103h-211l-15 -94q31 31 99 31q80 0 132 -51.5t52 -137.5q0 -90 -57.5 -140t-153.5 -50z" glyph-name="five.dnom" horiz-adv-x="528"/><glyph d="M297 -10q-94 0 -154.5 71.5t-60.5 202.5q0 123 55.5 200t163.5 77q84 0 133 -45t49 -103h-102q-12 49 -80 49q-61 0 -86 -46t-22 -103q12 25 50 44t81 19q180 0 180 -174q0 -96 -61.5 -144t-145.5 -48zM203 184q0 -45 28.5 -66.5t65.5 -21.5q39 0 62.5 23.5t23.5 66.5 q0 41 -25.5 64.5t-64.5 23.5q-35 0 -62.5 -23.5t-27.5 -66.5z" glyph-name="six.dnom" horiz-adv-x="585"/><glyph d="M90 0l215 432h-264v103h371v-103l-207 -432h-115z" glyph-name="seven.dnom" horiz-adv-x="473"/><glyph d="M248 -4q-86 0 -141.5 43t-55.5 117q0 94 88 137q-59 37 -59 104q0 59 45 100.5t123 41.5t123 -41t45 -101q0 -68 -58 -104q88 -45 88 -137q0 -74 -56 -117t-142 -43zM158 162q0 -37 23.5 -58.5t66.5 -21.5t67.5 21.5t24.5 58.5t-24.5 59.5t-67.5 22.5q-41 0 -65.5 -22.5 t-24.5 -59.5zM182 395.5q0 -59.5 66 -59.5q68 0 67.5 59.5t-67.5 59.5q-66 0 -66 -59.5z" glyph-name="eight.dnom" horiz-adv-x="497"/><glyph d="M285 -10q-84 0 -133.5 45t-49.5 102h103q12 -49 80 -49q61 0 85.5 46t22.5 104q-12 -25 -50 -44.5t-81 -19.5q-180 0 -180 174q0 96 61.5 144.5t145.5 48.5q94 0 154.5 -72t60.5 -203q0 -123 -55 -199.5t-164 -76.5zM203 344q0 -41 25.5 -64.5t64.5 -23.5q35 0 62.5 23.5 t27.5 66.5q0 45 -28.5 66.5t-65.5 21.5q-39 0 -62.5 -24.5t-23.5 -65.5z" glyph-name="nine.dnom" horiz-adv-x="585"/><glyph d="M293 897q-98 0 -159.5 70.5t-61.5 187.5v27q0 117 61.5 187.5t159.5 70.5q100 0 160.5 -71t60.5 -187v-27q0 -117 -60.5 -187.5t-160.5 -70.5zM188 1155q0 -66 28 -107.5t77 -41.5t76.5 42t27.5 107v27q0 66 -27.5 107.5t-76.5 41.5t-77 -42t-28 -107v-27z" glyph-name="zero.numr" horiz-adv-x="585"/><glyph d="M199 1288q-33 -57 -117 -37v109q37 -4 70.5 19.5t46.5 54.5h110v-535h-110v389z" glyph-name="one.numr" horiz-adv-x="401"/><glyph d="M82 915q0 90 28.5 146.5t118.5 109.5q8 4 26.5 14.5t26 14.5t19.5 13.5t17.5 17.5t9.5 19.5t4 25.5q0 31 -20.5 47t-45.5 16q-27 0 -48 -18t-21 -55v-17h-115v17q0 80 46 129t138 49q90 0 138.5 -47t48.5 -121q0 -18 -4.5 -34.5t-9.5 -30t-17 -28t-20.5 -21.5t-28 -21.5 t-27.5 -19.5t-31.5 -20.5t-31.5 -19.5q-70 -37 -70 -71v-6h240v-103h-371v14z" glyph-name="two.numr" horiz-adv-x="544"/><glyph d="M279 893q-96 0 -146.5 48t-50.5 126h111q4 -82 88 -82q90 0 90 78q0 76 -103 76h-22v84h22q80 0 80 67q0 27 -18.5 44.5t-50.5 17.5q-31 0 -52.5 -19.5t-21.5 -56.5h-105q0 80 49.5 124t133.5 44q82 0 129 -39t47 -102q0 -45 -26.5 -77t-63.5 -40q41 -2 77.5 -35 t36.5 -96q0 -72 -56 -117t-148 -45z" glyph-name="three.numr" horiz-adv-x="565"/><glyph d="M322 901v135h-240v88l240 312h110v-312h62v-88h-62v-135h-110zM178 1124h144v185z" glyph-name="four.numr" horiz-adv-x="575"/><glyph d="M256 891q-90 0 -142.5 49t-52.5 125h109q2 -37 29.5 -57.5t60.5 -20.5q35 0 64.5 24.5t29.5 75.5q0 47 -29.5 71t-66.5 24q-51 0 -78 -37h-106l41 291h295v-103h-211l-15 -94q31 31 99 31q80 0 132 -51.5t52 -137.5q0 -90 -57.5 -140t-153.5 -50z" glyph-name="five.numr" horiz-adv-x="528"/><glyph d="M297 889q-94 0 -154.5 71.5t-60.5 202.5q0 123 55.5 200t163.5 77q84 0 133 -45t49 -103h-102q-12 49 -80 49q-61 0 -86 -46t-22 -103q12 25 50 44t81 19q180 0 180 -174q0 -96 -61.5 -144t-145.5 -48zM203 1083q0 -45 28.5 -66.5t65.5 -21.5q39 0 62.5 24.5t23.5 65.5 t-25.5 65t-64.5 24q-35 0 -62.5 -24t-27.5 -67z" glyph-name="six.numr" horiz-adv-x="585"/><glyph d="M90 901l215 432h-264v103h371v-103l-207 -432h-115z" glyph-name="seven.numr" horiz-adv-x="473"/><glyph d="M248 897q-86 0 -141.5 43t-55.5 117q0 94 88 137q-59 37 -59 104q0 59 45 100.5t123 41.5t123 -41t45 -101q0 -68 -58 -104q88 -45 88 -137q0 -74 -56 -117t-142 -43zM158 1063q0 -37 23.5 -58.5t66.5 -21.5t67.5 21.5t24.5 58.5t-24.5 59.5t-67.5 22.5 q-41 0 -65.5 -22.5t-24.5 -59.5zM182 1296.5q0 -59.5 66 -59.5q68 0 67.5 59.5t-67.5 59.5q-66 0 -66 -59.5z" glyph-name="eight.numr" horiz-adv-x="497"/><glyph d="M285 891q-84 0 -133.5 45t-49.5 102h103q12 -49 80 -49q61 0 85.5 46t22.5 104q-12 -25 -50 -44.5t-81 -19.5q-180 0 -180 174q0 96 61.5 144.5t145.5 48.5q94 0 154.5 -72t60.5 -203q0 -123 -55 -199.5t-164 -76.5zM203 1245q0 -41 25.5 -64.5t64.5 -23.5 q35 0 62.5 23.5t27.5 66.5q0 45 -28.5 66.5t-65.5 21.5q-39 0 -62.5 -24.5t-23.5 -65.5z" glyph-name="nine.numr" horiz-adv-x="585"/><glyph d="M102 0v340h324v-340h-324z" glyph-name="period.aalt" horiz-adv-x="528"/><glyph d="M342 1159q-160 0 -246 84t-86 232h197q2 -76 34.5 -110t100.5 -34t100.5 34t34.5 110h197q0 -147 -86 -231.5t-246 -84.5zM188 1536l215 287h261l-218 -287h-258z" glyph-name="uni0306_acutecomb.ccmp" horiz-adv-x="0"/><glyph d="M342 1159q-160 0 -246 84t-86 232h197q2 -76 34.5 -110t100.5 -34t100.5 34t34.5 110h197q0 -147 -86 -231.5t-246 -84.5zM6 1823h258l217 -287h-260z" glyph-name="uni0306_gravecomb.ccmp" horiz-adv-x="0"/><glyph d="M342 1159q-160 0 -246 84t-86 232h197q2 -76 34.5 -110t100.5 -34t100.5 34t34.5 110h197q0 -147 -86 -231.5t-246 -84.5zM53 1634q0 109 63.5 161t149.5 52q92 0 156.5 -54t64.5 -155q0 -88 -51 -140t-131 -64l-69 120q88 2 88 72q0 31 -17.5 47.5t-44.5 16.5 q-51 0 -57 -56h-152z" glyph-name="uni0306_hookabovecomb.ccmp" horiz-adv-x="0"/><glyph d="M342 1159q-160 0 -246 84t-86 232h197q2 -76 34.5 -110t100.5 -34t100.5 34t34.5 110h197q0 -147 -86 -231.5t-246 -84.5zM-14 1608q0 113 53 175t151 62q53 0 96.5 -17.5t67 -39t50 -38.5t51.5 -17q23 0 45 13t22 44h176q0 -113 -53 -174.5t-151 -61.5q-53 0 -96.5 17.5 t-67 39t-50 39t-51.5 17.5q-23 0 -45 -13.5t-22 -45.5h-176z" glyph-name="uni0306_tildecomb.ccmp" horiz-adv-x="0"/><glyph d="M0 1188l199 287h417l199 -287h-268l-139 209l-140 -209h-268zM727 1393l215 286h260l-217 -286h-258z" glyph-name="uni0302_acutecomb.ccmp" horiz-adv-x="0"/><glyph d="M782 1395l-184 284h258l186 -284h-260zM0 1188l199 287h417l199 -287h-268l-139 209l-140 -209h-268z" glyph-name="uni0302_gravecomb.ccmp" horiz-adv-x="0"/><glyph d="M0 1188l199 287h417l199 -287h-268l-139 209l-140 -209h-268zM528 1614q0 109 63.5 161t149.5 52q92 0 157 -54.5t65 -154.5q0 -88 -51.5 -140.5t-131.5 -64.5l-69 121q88 2 88 72q0 31 -17.5 47t-44.5 16q-51 0 -57 -55h-152z" glyph-name="uni0302_hookabovecomb.ccmp" horiz-adv-x="0"/><glyph d="M0 1188l199 287h417l199 -287h-268l-139 209l-140 -209h-268zM49 1597q0 113 53.5 175.5t151.5 62.5q68 0 118 -28.5t83.5 -56.5t62.5 -28q23 0 45.5 13.5t22.5 44.5h176q0 -113 -53.5 -174.5t-151.5 -61.5q-68 0 -118 29t-83.5 56.5t-62.5 27.5q-23 0 -45.5 -13.5 t-22.5 -46.5h-176z" glyph-name="uni0302_tildecomb.ccmp" horiz-adv-x="0"/><glyph d="M342 1159q-160 0 -246 84t-86 232h197q2 -76 34.5 -110t100.5 -34t100.5 34t34.5 110h197q0 -147 -86 -231.5t-246 -84.5z" glyph-name="glyph659" horiz-adv-x="0"/><glyph d="M82 831v603h287v-603h-287z" glyph-name="glyph660" horiz-adv-x="0"/><glyph d="M35 0l518 1434h395l518 -1434h-321l-92 268h-604l-93 -268h-321zM526 496h449l-215 624h-19zM612 1556l215 287h260l-217 -287h-258z" glyph-name="glyph661" horiz-adv-x="1501"/><glyph d="M602 602v250h402q-25 156 -111 246t-234 90q-248 0 -305 -252h-299q20 256 183 386t411 130q313 0 495.5 -195.5t182.5 -539.5q0 -346 -181 -541.5t-493 -195.5q-252 0 -414.5 130t-183.5 388h299q57 -254 305 -254q154 0 240 96t109 262h-406zM520 1556l215 287h260 l-217 -287h-258z" glyph-name="glyph662" horiz-adv-x="1402"/><glyph d="M358 0h-303l301 518q-287 104 -286 436q0 221 136 350.5t410 129.5h580v-1434h-307v477h-258zM385 954q0 -98 59.5 -154.5t182.5 -56.5h262v424h-262q-242 0 -242 -213zM545 1556l215 287h260l-217 -287h-258z" glyph-name="glyph663" horiz-adv-x="1302"/><glyph d="M106 0v1434h979v-267h-671v-321h610v-240h-610v-340h692v-266h-1000zM481 1556l215 287h260l-217 -287h-258z" glyph-name="glyph664" horiz-adv-x="1161"/><glyph d="M1317 0h-307v924h-6l-566 -924h-332v1434h308v-942h6l577 942h320v-1434zM573 1556l215 287h261l-218 -287h-258z" glyph-name="glyph665" horiz-adv-x="1423"/><glyph d="M106 0v1434h308v-590h194q35 279 216.5 443.5t459.5 164.5q309 0 496.5 -201.5t187.5 -533.5q0 -330 -187.5 -533.5t-496.5 -203.5q-276 0 -458.5 165.5t-217.5 444.5h-194v-590h-308zM881 1556l215 287h260l-217 -287h-258zM915 717q0 -217 97.5 -345t271.5 -128 t271.5 128t97.5 345t-97.5 344t-271.5 127t-271.5 -127t-97.5 -344z" glyph-name="glyph666" horiz-adv-x="2043"/><glyph d="M760 -20q-309 0 -496.5 203.5t-187.5 533.5q0 332 187.5 533.5t496.5 201.5t496.5 -201.5t187.5 -533.5q0 -330 -187.5 -533.5t-496.5 -203.5zM391 717q0 -217 97.5 -345t271.5 -128t271 128t97 345t-97 344t-271 127t-271.5 -127t-97.5 -344zM621 1556l215 287h260 l-217 -287h-258z" glyph-name="glyph667" horiz-adv-x="1519"/><glyph d="M184 244q90 -10 146.5 7t74 38.5t35.5 60.5q31 78 -26 211l-369 873h346l227 -629l234 629h346l-457 -1061q-109 -250 -226.5 -338t-330.5 -68v277zM481 1556l215 287h260l-217 -287h-258z" glyph-name="glyph668" horiz-adv-x="1243"/><glyph d="M106 0v1434h314v-480h262q276 0 413.5 -126t137.5 -351q0 -223 -137.5 -350t-413.5 -127h-576zM420 266h258q109 0 166 55.5t57 155.5q0 102 -57.5 157.5t-165.5 55.5h-258v-424zM762 1556l215 287h260l-217 -287h-258zM1382 0v1434h308v-1434h-308z" glyph-name="glyph669" horiz-adv-x="1794"/><glyph d="M399 -20q-143 0 -243.5 72.5t-100.5 221.5q0 82 32 140.5t89 90.5t113.5 48t132.5 25l205 26q68 8 87 29.5t19 75.5v12q0 82 -42 113.5t-118 31.5q-174 0 -174 -137v-10l-282 -2v41q0 328 465 327q238 0 344 -85t106 -265v-459q0 -51 15.5 -65t54.5 -16v-177 q-37 -31 -123 -30q-98 0 -164.5 44t-66.5 140v14h-11q-14 -63 -99 -134.5t-239 -71.5zM350 313q0 -49 37 -82.5t123 -33.5q106 0 164.5 55t58.5 117v112q-18 -23 -102 -32l-135 -21q-72 -12 -109 -38t-37 -77zM434 1188l215 287h260l-217 -287h-258z" glyph-name="glyph670" horiz-adv-x="1136"/><glyph d="M496 444v183h290q-18 96 -79.5 152.5t-161.5 56.5q-182 0 -219 -183h-271q14 127 64.5 217.5t125 134.5t146.5 62t152 18q102 0 195 -31.5t171 -95t124 -174t46 -254t-46 -253t-125 -173t-171 -94t-194 -30.5q-80 0 -153 18t-147.5 63t-124.5 136.5t-63 218.5h271 q39 -186 219 -187q102 0 163.5 57.5t79.5 157.5h-292zM442 1188l215 287h261l-218 -287h-258z" glyph-name="glyph671" horiz-adv-x="1134"/><glyph d="M76 0l256 375q-129 33 -197.5 121t-68.5 215q0 166 111.5 260t314.5 94h587v-1065h-299v356h-151l-240 -356h-313zM352 710.5q0 -120.5 150 -120.5h278v241h-278q-150 0 -150 -120.5zM442 1188l215 287h261l-218 -287h-258z" glyph-name="glyph672" horiz-adv-x="1185"/><glyph d="M592 -20q-106 0 -198.5 30.5t-170.5 94t-123 174t-45 256.5q0 281 151.5 415.5t383.5 134.5q225 0 365.5 -131t140.5 -415q0 -47 -6 -82h-750q23 -250 256 -250q180 0 221 141h264q-39 -178 -169 -273t-320 -95zM340 633h473q-4 100 -60.5 162.5t-170.5 62.5 q-211 0 -242 -225zM436 1188l215 287h260l-217 -287h-258z" glyph-name="glyph673" horiz-adv-x="1150"/><glyph d="M106 0v1065h300v-645h8l430 645h303v-1065h-299v625h-6l-420 -625h-316zM489 1188l216 287h260l-217 -287h-259z" glyph-name="glyph674" horiz-adv-x="1253"/><glyph d="M92 0v1065h299v-416h123q35 215 183.5 325.5t342.5 110.5q221 0 378 -140t157 -412.5t-156.5 -412.5t-378.5 -140q-195 0 -343 110.5t-183 325.5h-123v-416h-299zM657 1188l215 287h261l-218 -287h-258zM786 532.5q0 -151.5 70 -228.5t184.5 -77t184 77t69.5 228.5 t-69.5 228.5t-184 77t-184.5 -77t-70 -228.5z" glyph-name="glyph675" horiz-adv-x="1630"/><glyph d="M590 -20q-221 0 -378 140t-157 412.5t157 412.5t378 140t377.5 -140t156.5 -412.5t-156.5 -412.5t-377.5 -140zM336 532.5q0 -151.5 69.5 -228.5t184.5 -77t184.5 77t69.5 228.5t-69.5 228.5t-184.5 77t-184.5 -77t-69.5 -228.5zM451 1188l215 287h260l-217 -287h-258z " glyph-name="glyph676" horiz-adv-x="1179"/><glyph d="M141 -158q98 -12 163 5.5t86.5 42t37.5 61.5q29 70 -2 145l-391 969h307l248 -688l254 688h307l-436 -1073q-100 -250 -223 -338t-351 -64v252zM451 1188l215 287h260l-217 -287h-258z" glyph-name="glyph677" horiz-adv-x="1185"/><glyph d="M106 0v1065h300v-356h288q203 0 314.5 -95.5t111.5 -259.5q0 -166 -111.5 -260t-314.5 -94h-588zM406 233h278q150 0 150 121t-150 121h-278v-242zM690 1188l215 287h260l-217 -287h-258zM1239 0v1065h299v-1065h-299z" glyph-name="glyph678" horiz-adv-x="1644"/></font>
</defs>
</svg>
