<?xml version="1.0" standalone="no"?>
<!DOCTYPE svg PUBLIC "-//W3C//DTD SVG 1.1//EN" "http://www.w3.org/Graphics/SVG/1.1/DTD/svg11.dtd">
<svg xmlns="http://www.w3.org/2000/svg"><metadata>This SVG WebFont was generated by YouWorkForThem.
Copyright Â© 2020 by Connary Fagen. All rights reserved.</metadata><defs><font horiz-adv-x="1210" id="ywftsvg"><font-face ascent="1638" bbox="-354 -637 2144 2216" cap-height="1434" descent="-410" font-family="" font-stretch="normal" font-weight="600" panose-1="0 0 0 0 0 0 0 0 0 0" underline-position="0" underline-thickness="0" unicode-range="U+0020-A78C" units-per-em="2048" x-height="1065"/><missing-glyph d="M111 0v1434h1249v-1434h-1249zM215 106h1038v1221h-1038v-1221zM293 184l385 539l-379 526h119l315 -446l314 446h120l-379 -526l386 -539h-119l-322 461l-321 -461h-119z" horiz-adv-x="1468"/><glyph d="M111 0v1434h1249v-1434h-1249zM215 106h1038v1221h-1038v-1221zM293 184l385 539l-379 526h119l315 -446l314 446h120l-379 -526l386 -539h-119l-322 461l-321 -461h-119z" glyph-name=".notdef" horiz-adv-x="1468"/><glyph glyph-name="glyph1" horiz-adv-x="0"/><glyph glyph-name="glyph2" horiz-adv-x="681"/><glyph glyph-name="space" horiz-adv-x="471" unicode=" "/><glyph d="M172 471l-33 963h267l-31 -963h-203zM111 139q0 68 47 115t114.5 47t115.5 -47t48 -115q0 -66 -48 -112.5t-115.5 -46.5t-114.5 46.5t-47 112.5z" glyph-name="exclam" horiz-adv-x="544" unicode="!"/><glyph d="M516 858v576h250v-576h-250zM82 858v576h250v-576h-250z" glyph-name="quotedbl" horiz-adv-x="847" unicode="&quot;"/><glyph d="M682 0l37 362h-283l-37 -362h-161l36 362h-184v164h201l37 381h-185v164h201l37 363h162l-37 -363h282l37 363h162l-37 -363h185v-164h-201l-37 -381h184v-164h-200l-37 -362h-162zM453 526h282l37 381h-283z" glyph-name="numbersign" horiz-adv-x="1222" unicode="#"/><glyph d="M580 -184v166q-238 14 -369 138t-131 335h266q14 -217 234 -246v424l-68 14q-393 78 -393 395q0 182 123 289t338 119v168h110v-168q217 -12 339 -121.5t122 -302.5h-264q0 84 -52.5 134t-144.5 63v-385l62 -13q229 -47 333.5 -145t104.5 -266q0 -203 -136 -312.5 t-364 -119.5v-166h-110zM389 1042q0 -139 186 -180h5v363q-98 -12 -144.5 -61.5t-46.5 -121.5zM690 207q109 8 167 62.5t58 142.5q0 84 -53 129t-162 67l-10 2v-403z" glyph-name="dollar" horiz-adv-x="1267" unicode="$"/><glyph d="M248 231l-109 150l1131 823l108 -149zM80 1130q0 154 83 239t212 85t213 -85t84 -239q0 -160 -84 -244.5t-213 -84.5t-212 84.5t-83 244.5zM266 1130q0 -80 32 -116.5t77 -36.5t76.5 37t31.5 116q0 78 -31.5 113t-76.5 35t-77 -35t-32 -113zM846 311q0 154 84 239t213 85 t213 -85t84 -239q0 -160 -84 -244.5t-213 -84.5t-213 84.5t-84 244.5zM1034 311q0 -154 108.5 -153.5t108.5 153.5q0 78 -31.5 113t-76.5 35t-77 -35t-32 -113z" glyph-name="percent" horiz-adv-x="1517" unicode="%"/><glyph d="M604 -20q-229 0 -376.5 117.5t-147.5 305.5q0 141 79 235.5t220 174.5q-145 176 -146 317q0 133 98.5 227.5t286.5 94.5q182 0 280.5 -92t98.5 -232q0 -233 -278 -368l280 -309q61 133 62 307h231q0 -291 -127 -488l246 -270h-293l-100 111q-176 -131 -414 -131zM350 428 q0 -98 77 -165.5t202 -67.5q129 0 235 81l-352 388q-162 -95 -162 -236zM461 1133q0 -80 121 -220q184 100 184 215q0 66 -42 104t-110 38q-70 0 -111.5 -39t-41.5 -98z" glyph-name="ampersand" horiz-adv-x="1458" unicode="&amp;"/><glyph d="M82 858v576h250v-576h-250z" glyph-name="quotesingle" horiz-adv-x="413" unicode="'"/><glyph d="M309 -266q-217 387 -217 921q0 508 217 871h252q-207 -375 -207 -871q0 -524 207 -921h-252z" glyph-name="parenleft" horiz-adv-x="653" unicode="("/><glyph d="M92 -266q207 397 207 921q0 496 -207 871h252q217 -362 217 -871q0 -535 -217 -921h-252z" glyph-name="parenright" horiz-adv-x="653" unicode=")"/><glyph d="M369 655l-154 103l170 231l-264 68l45 176l272 -76l-4 277h189l-5 -277l273 76l45 -176l-266 -68l168 -231l-152 -103l-158 234z" glyph-name="asterisk" horiz-adv-x="1056" unicode="*"/><glyph d="M479 92v371h-368v229h368v369h244v-369h371v-229h-371v-371h-244z" glyph-name="plus" horiz-adv-x="1204" unicode="+"/><glyph d="M123 -141q80 2 114.5 32.5t34.5 94.5q-90 0 -141 46t-51 115q0 68 45 111t115 43q82 0 133 -60.5t51 -181.5q0 -145 -77 -228t-204 -83h-20v111z" glyph-name="comma" horiz-adv-x="501" unicode=","/><glyph d="M82 469v197h612v-197h-612z" glyph-name="hyphen" horiz-adv-x="776" unicode="-"/><glyph d="M241.5 -20q-67.5 0 -114.5 47t-47 112q0 68 47 115t114.5 47t116 -47t48.5 -115q0 -66 -48.5 -112.5t-116 -46.5z" glyph-name="period" horiz-adv-x="483" unicode="."/><glyph d="M61 2l557 1432h265l-559 -1432h-263z" glyph-name="slash" horiz-adv-x="944" unicode="/"/><glyph d="M649.5 -20q-239.5 0 -404.5 182t-165 555q0 190 48 336.5t129 230.5t180.5 126t212 42t212 -42t180 -126t129 -230.5t48.5 -336.5q0 -373 -165 -555t-404.5 -182zM330 717q0 -229 78.5 -372.5t240.5 -143.5q160 0 239 143t79 373q0 227 -79 370.5t-239 143.5 q-162 0 -240.5 -143.5t-78.5 -370.5z" glyph-name="zero" horiz-adv-x="1296" unicode="0"/><glyph d="M377 1108q-98 -104 -297 -109v215q238 27 297 220h262v-1434h-262v1108z" glyph-name="one" horiz-adv-x="790" unicode="1"/><glyph d="M82 66q0 201 84 340t301 266q18 12 62 36.5t61.5 36t52.5 33t49.5 34.5t39 33.5t35.5 38t23.5 40t17.5 47t5 51.5q2 106 -63.5 156.5t-161.5 50.5q-102 0 -168 -60.5t-66 -185.5v-29h-254v41q0 203 124 330t366 127q231 0 358 -113.5t127 -300.5q0 -66 -14 -122t-49 -104 t-62.5 -81t-86 -73t-86 -56t-95.5 -55q-162 -94 -231.5 -167t-69.5 -153v-10h692v-217h-991v66z" glyph-name="two" horiz-adv-x="1165" unicode="2"/><glyph d="M590 -20q-260 0 -391 134t-129 365h245q2 -139 81 -207.5t204 -68.5q115 0 196 58t81 169q0 102 -75 162.5t-224 60.5h-78v193h65q258 0 258 192q0 92 -62.5 140.5t-158.5 48.5q-104 0 -172 -60.5t-70 -193.5h-243q0 229 127 354t362 125q217 0 344 -102.5t127 -268.5 q0 -127 -68.5 -207.5t-166.5 -107.5q109 -14 205 -102.5t96 -249.5q0 -193 -150.5 -313.5t-402.5 -120.5z" glyph-name="three" unicode="3"/><glyph d="M702 0v348h-632v211l632 875h263v-875h163v-211h-163v-348h-263zM299 559h403v557z" glyph-name="four" horiz-adv-x="1196" unicode="4"/><glyph d="M610.5 -20q-245.5 0 -384 131t-136.5 340h238q4 -125 85 -191.5t191 -66.5q115 0 199 71.5t84 224.5q0 156 -83 225.5t-196 69.5q-82 0 -150.5 -35.5t-101.5 -101.5h-243l118 787h783v-209h-602l-54 -361q25 37 107 79t211 42q207 0 339 -133t132 -363 q0 -242 -145.5 -375.5t-391 -133.5z" glyph-name="five" horiz-adv-x="1204" unicode="5"/><glyph d="M633 -20q-242 0 -392.5 179t-150.5 556q0 334 135 535.5t422 201.5q227 0 348 -122t119 -279h-231q-12 96 -79 144t-163 48q-92 0 -156.5 -44t-95.5 -117.5t-42 -141.5t-11 -143q135 156 346 155q88 0 168 -27.5t149.5 -82t110.5 -150.5t41 -219q0 -129 -47 -228.5 t-125 -154.5t-165 -82.5t-181 -27.5zM362 477q0 -137 80 -210.5t189 -73.5q111 0 190.5 73.5t79.5 210.5q0 135 -80 206t-190.5 71t-189.5 -71t-79 -206z" glyph-name="six" horiz-adv-x="1230" unicode="6"/><glyph d="M238 0q49 565 475 1219h-652v215h902v-215q-434 -659 -480 -1219h-245z" glyph-name="seven" horiz-adv-x="1034" unicode="7"/><glyph d="M588 -20q-227 0 -372.5 114.5t-145.5 315.5q0 262 247 370q-82 45 -123.5 125t-41.5 176q0 164 117.5 267.5t318 103.5t317.5 -103.5t117 -267.5q0 -96 -42 -176t-124 -125q250 -111 250 -370q0 -201 -146.5 -315.5t-371.5 -114.5zM322 430q0 -102 68.5 -165.5 t197.5 -63.5q127 0 195.5 64.5t68.5 164.5q0 104 -70.5 169t-193.5 65q-125 0 -195.5 -65t-70.5 -169zM397 1065q0 -82 48.5 -130t142.5 -48t141 48t47 130q0 168 -188 168q-191 0 -191 -168z" glyph-name="eight" horiz-adv-x="1173" unicode="8"/><glyph d="M598 1450q242 0 392.5 -179t150.5 -556q0 -160 -31 -290t-95.5 -232.5t-174 -159t-256.5 -56.5q-227 0 -348 122t-119 280h231q12 -96 79 -144.5t163 -48.5q92 0 156.5 44t95 118t42 141.5t11.5 143.5q-135 -156 -346 -156q-88 0 -168 27.5t-149.5 82t-110.5 151 t-41 218.5q0 129 47 228.5t125 155t165 83t181 27.5zM330 952q0 -135 79.5 -205.5t190.5 -70.5t189.5 70.5t78.5 205.5q0 137 -79.5 211t-188.5 74q-111 0 -190.5 -74t-79.5 -211z" glyph-name="nine" horiz-adv-x="1230" unicode="9"/><glyph d="M241.5 -20q-67.5 0 -114.5 47t-47 112q0 68 47 115t114.5 47t116 -47t48.5 -115q0 -66 -48.5 -112.5t-116 -46.5zM80 903q0 68 47 115t114.5 47t116 -47t48.5 -115q0 -66 -48.5 -113t-116 -47t-114.5 47t-47 113z" glyph-name="colon" horiz-adv-x="483" unicode=":"/><glyph d="M241.5 743q-67.5 0 -114.5 47.5t-47 112.5q0 68 47 115t114.5 47t116 -47t48.5 -115q0 -66 -48.5 -113t-116 -47zM80 147q0 68 45 111t115 43q82 0 133 -60.5t51 -181.5q0 -145 -77 -228t-204 -83h-20v111q80 2 114.5 32.5t34.5 94.5q-90 0 -141 45.5t-51 115.5z" glyph-name="semicolon" horiz-adv-x="501" unicode=";"/><glyph d="M946 0l-854 381v227l854 379v-244l-616 -249l616 -248v-246z" glyph-name="less" horiz-adv-x="1038" unicode="&lt;"/><glyph d="M111 305v197h661v-197h-661zM111 633v196h661v-196h-661z" glyph-name="equal" horiz-adv-x="882" unicode="="/><glyph d="M92 0v246l617 248l-617 249v244l854 -379v-227z" glyph-name="greater" horiz-adv-x="1038" unicode=">"/><glyph d="M455 512q0 94 33.5 166t81.5 114t95.5 76.5t81 76.5t33.5 95q0 78 -50 130.5t-150 52.5q-225 0 -226 -260h-262q-2 246 134 365.5t354 119.5q207 0 334.5 -107.5t127.5 -300.5q0 -86 -31.5 -147.5t-76.5 -98t-91 -71.5t-78 -87t-32 -124v-63h-278v63zM428 139 q0 68 47 115t114.5 47t116 -47t48.5 -115q0 -66 -48.5 -112.5t-116 -46.5t-114.5 46.5t-47 112.5z" glyph-name="question" horiz-adv-x="1134" unicode="?"/><glyph d="M834 -20q-322 0 -538 197.5t-216 537.5q0 336 214 536.5t529 200.5q311 0 512 -191.5t201 -500.5q0 -199 -83 -300.5t-210 -101.5q-96 0 -153.5 50.5t-73.5 121.5q-12 -66 -79 -120t-165 -54q-121 0 -213 91.5t-92 254.5q0 168 89 260.5t214 92.5q96 0 166 -52.5 t70 -121.5l16 153h121v-362q0 -182 102 -183q70 0 104.5 76t34.5 193q0 248 -152.5 398.5t-410.5 150.5q-260 0 -426 -158t-166 -430q0 -276 172 -435t447 -159q127 0 225 33v-144q-104 -34 -239 -34zM616 707q0 -84 46.5 -147.5t130.5 -63.5t130 61t46 150q0 86 -46 147 t-130 61t-130.5 -62t-46.5 -146z" glyph-name="at" horiz-adv-x="1615" unicode="@"/><glyph d="M39 0l526 1434h344l527 -1434h-285l-102 293h-625l-102 -293h-283zM496 494h483l-234 663h-16z" glyph-name="A" horiz-adv-x="1472" unicode="A"/><glyph d="M111 0v1434h569q227 0 341 -95.5t114 -259.5q0 -223 -211 -293q307 -78 307 -368q0 -186 -133 -302t-398 -116h-589zM379 227h309q135 0 199.5 60.5t64.5 158.5q0 100 -64.5 162t-199.5 62h-309v-443zM379 848h289q90 0 142 46t52 138q0 174 -194 174h-289v-358z" glyph-name="B" horiz-adv-x="1288" unicode="B"/><glyph d="M745 -20q-307 0 -486 194.5t-179 542.5q0 346 180 540.5t488 194.5q242 0 401.5 -125t183.5 -371h-262q-31 131 -118 197t-212 66q-190 0 -288.5 -136.5t-98.5 -365.5q0 -231 97.5 -367.5t289.5 -136.5q125 0 212 65.5t118 198.5h262q-25 -246 -184.5 -371.5 t-403.5 -125.5z" glyph-name="C" horiz-adv-x="1394" unicode="C"/><glyph d="M111 0v1434h520q334 0 506 -185.5t172 -531.5t-172 -531.5t-506 -185.5h-520zM379 236h225q231 0 330.5 113.5t99.5 367.5t-99 367.5t-331 113.5h-225v-962z" glyph-name="D" horiz-adv-x="1388" unicode="D"/><glyph d="M111 0v1434h960v-236h-692v-364h631v-211h-631v-387h713v-236h-981z" glyph-name="E" horiz-adv-x="1148" unicode="E"/><glyph d="M111 0v1434h936v-236h-668v-379h551v-219h-551v-600h-268z" glyph-name="F" horiz-adv-x="1107" unicode="F"/><glyph d="M743 -20q-315 0 -489 192.5t-174 538.5q0 352 178 546.5t481 194.5q231 0 393 -114.5t197 -333.5h-268q-59 215 -322 215q-197 0 -293 -134.5t-96 -366t98.5 -368.5t294.5 -137q150 0 250.5 84t100.5 260h-299v217h567v-135q0 -322 -162 -490.5t-457 -168.5z" glyph-name="G" horiz-adv-x="1449" unicode="G"/><glyph d="M993 0v600h-614v-600h-268v1434h268v-611h614v611h269v-1434h-269z" glyph-name="H" horiz-adv-x="1372" unicode="H"/><glyph d="M111 0v1434h268v-1434h-268z" glyph-name="I" horiz-adv-x="487" unicode="I"/><glyph d="M682 -20q-266 0 -418.5 143t-152.5 420h270q0 -162 80 -245t223 -83q145 0 225 87t80 261v871h268v-893q0 -272 -155.5 -416.5t-419.5 -144.5z" glyph-name="J" horiz-adv-x="1368" unicode="J"/><glyph d="M111 0v1434h268v-709l610 709h318l-559 -646l614 -788h-311l-469 598l-203 -236v-362h-268z" glyph-name="K" horiz-adv-x="1398" unicode="K"/><glyph d="M111 0v1434h268v-1198h680v-236h-948z" glyph-name="L" horiz-adv-x="1116" unicode="L"/><glyph d="M111 0v1434h335l418 -1072l418 1072h336v-1434h-268v963h-11l-372 -963h-205l-375 963h-8v-963h-268z" glyph-name="M" horiz-adv-x="1726" unicode="M"/><glyph d="M111 0v1434h282l627 -1006h6v1006h270v-1434h-295l-616 989h-6v-989h-268z" glyph-name="N" horiz-adv-x="1404" unicode="N"/><glyph d="M754 -20q-303 0 -488.5 201.5t-185.5 535.5q0 336 185.5 535.5t488.5 199.5t489.5 -199.5t186.5 -535.5q0 -334 -186.5 -535.5t-489.5 -201.5zM356 716.5q0 -235.5 106.5 -369.5t291 -134t291 134t106.5 369.5t-106.5 369t-291 133.5t-291 -133.5t-106.5 -369z" glyph-name="O" horiz-adv-x="1507" unicode="O"/><glyph d="M111 0v1434h563q268 0 402 -126t134 -343q0 -215 -134 -341t-402 -126h-295v-498h-268zM379 733h285q268 0 268 232q0 233 -268 233h-285v-465z" glyph-name="P" horiz-adv-x="1267" unicode="P"/><glyph d="M1262 -41l-127 129q-166 -109 -381 -108q-303 0 -488.5 201.5t-185.5 535.5q0 336 185.5 535.5t488.5 199.5t489.5 -199.5t186.5 -535.5q0 -281 -136 -473l129 -131zM356 716.5q0 -235.5 106.5 -369.5t291.5 -134q117 0 202 55l-215 217l162 154l197 -199q51 119 51 277 q0 236 -106.5 369t-291 133t-291 -133.5t-106.5 -369z" glyph-name="Q" horiz-adv-x="1507" unicode="Q"/><glyph d="M954 0l-286 498h-289v-498h-268v1434h563q268 0 402 -126t134 -343q0 -336 -299 -435l312 -530h-269zM379 733h285q268 0 268 232q0 233 -268 233h-285v-465z" glyph-name="R" horiz-adv-x="1282" unicode="R"/><glyph d="M664 -20q-274 0 -429 125.5t-155 349.5h276q6 -113 82 -181.5t228 -68.5q135 0 208.5 54t73.5 153q0 84 -55 129t-168 67l-197 39q-410 80 -409 395q0 195 144.5 302.5t394 107.5t393 -110.5t143.5 -315.5h-276q0 96 -71 148.5t-196 52.5q-129 0 -189.5 -52.5 t-60.5 -132.5q0 -139 193 -180l184 -37q240 -47 347.5 -145t107.5 -266q0 -213 -156.5 -323.5t-412.5 -110.5z" glyph-name="S" horiz-adv-x="1312" unicode="S"/><glyph d="M475 0v1194h-426v240h1120v-240h-426v-1194h-268z" glyph-name="T" horiz-adv-x="1218" unicode="T"/><glyph d="M690 -20q-268 0 -423.5 144t-155.5 419v891h270v-871q0 -170 81 -259t228.5 -89t227 89t79.5 259v871h273v-891q0 -274 -157 -418.5t-423 -144.5z" glyph-name="U" horiz-adv-x="1380" unicode="U"/><glyph d="M575 0l-526 1434h283l407 -1158h17l405 1158h285l-526 -1434h-345z" glyph-name="V" horiz-adv-x="1492" unicode="V"/><glyph d="M424 0l-375 1434h275l251 -1055h13l299 1055h278l299 -1055h13l252 1055h276l-377 -1434h-280l-322 1094l-321 -1094h-281z" glyph-name="W" horiz-adv-x="2052" unicode="W"/><glyph d="M1030 0l-344 514l-346 -514h-301l496 737l-467 697h301l317 -471l315 471h302l-467 -695l497 -739h-303z" glyph-name="X" horiz-adv-x="1370" unicode="X"/><glyph d="M569 0v537l-520 897h305l353 -637l354 637h305l-520 -897v-537h-277z" glyph-name="Y" horiz-adv-x="1413" unicode="Y"/><glyph d="M82 0v236l795 962h-773v236h1072v-236l-797 -962h805v-236h-1102z" glyph-name="Z" horiz-adv-x="1265" unicode="Z"/><glyph d="M111 -266v1792h419v-226h-157v-1341h157v-225h-419z" glyph-name="bracketleft" horiz-adv-x="638" unicode="["/><glyph d="M883 2h-262l-560 1432h265z" glyph-name="backslash" horiz-adv-x="944" unicode="\"/><glyph d="M528 -266h-419v225h157v1341h-157v226h419v-1792z" glyph-name="bracketright" horiz-adv-x="638" unicode="]"/><glyph d="M92 952l336 482h164l332 -482h-236l-180 269l-180 -269h-236z" glyph-name="asciicircum" horiz-adv-x="1015" unicode="^"/><glyph d="M92 -225v225h1024v-225h-1024z" glyph-name="underscore" horiz-adv-x="1208" unicode="_"/><glyph d="M213 1190l-213 280h229l213 -280h-229z" glyph-name="grave" horiz-adv-x="442" unicode="`"/><glyph d="M401 -20q-147 0 -244.5 74.5t-97.5 224.5q0 80 29 137t84 92t114.5 53.5t141.5 28.5l199 26q80 10 107.5 29t27.5 60v22q0 168 -193 168q-207 0 -207 -156v-20l-245 -2v47q0 322 458 321q233 0 339 -85t106 -263v-737h-252v190h-10q-16 -41 -49 -82.5t-116 -84.5 t-192 -43zM322 301q0 -131 165 -131q119 0 197 63.5t78 135.5v135q-18 -31 -125 -45l-170 -27q-145 -22 -145 -131z" glyph-name="a" horiz-adv-x="1128" unicode="a"/><glyph d="M702 -20q-115 0 -202.5 48t-126.5 126v-154h-262v1434h262v-523q39 78 127 126t202 48q190 0 329.5 -140t139.5 -412.5t-139.5 -412.5t-329.5 -140zM360 532.5q0 -161.5 82 -247.5t199 -86q119 0 202 86t83 247.5t-83 247.5t-202 86q-117 0 -199 -86t-82 -247.5z" glyph-name="b" horiz-adv-x="1230" unicode="b"/><glyph d="M590 -20q-221 0 -376 138t-155 412q0 141 45.5 251t121 174.5t167.5 97t197 32.5q78 0 149.5 -18t143 -61t121 -130.5t63.5 -209.5h-238q-37 199 -241 198q-135 0 -209 -90t-74 -243.5t74 -241.5t209 -88q205 0 241 200h238q-10 -98 -45 -174.5t-83 -122t-110.5 -75 t-120 -39.5t-118.5 -10z" glyph-name="c" horiz-adv-x="1128" unicode="c"/><glyph d="M528 -20q-190 0 -329.5 140t-139.5 412.5t139.5 412.5t329.5 140q115 0 203 -48t127 -126v523h262v-1434h-262v154q-39 -78 -127 -126t-203 -48zM305 532.5q0 -161.5 83 -247.5t202 -86q117 0 198.5 86t81.5 247.5t-81.5 247.5t-198.5 86q-119 0 -202 -86t-83 -247.5z " glyph-name="d" horiz-adv-x="1230" unicode="d"/><glyph d="M586 -20q-227 0 -377 137t-150 418q0 279 147.5 414.5t375.5 135.5q223 0 361 -132t138 -408q0 -45 -6 -80h-768q23 -285 285 -285q195 0 242 154h233q-41 -176 -169 -265t-312 -89zM309 625h525q-4 119 -69 189.5t-187 70.5q-117 0 -186 -65.5t-83 -194.5z" glyph-name="e" horiz-adv-x="1138" unicode="e"/><glyph d="M188 1155q0 311 330 311h148v-200h-84q-70 0 -100.5 -35t-30.5 -107v-59h208v-203h-208v-862h-263v862h-149v203h149v90z" glyph-name="f" horiz-adv-x="716" unicode="f"/><glyph d="M514 27q-188 0 -321.5 131t-133.5 397t134.5 398t320.5 132q111 0 198 -43t134 -116v139h262v-1032q0 -111 -36 -195t-90 -133t-129 -81t-142.5 -42t-141.5 -10q-84 0 -160.5 15.5t-153.5 51t-124 110.5t-47 179h231q4 -76 77 -114.5t171 -38.5q125 0 204 64.5t79 193.5 v153q-47 -74 -134 -116.5t-198 -42.5zM305 555q0 -150 80 -230.5t196.5 -80.5t195.5 81t79 230q0 152 -79 231.5t-195.5 79.5t-196.5 -79.5t-80 -231.5z" glyph-name="g" horiz-adv-x="1216" unicode="g"/><glyph d="M111 0v1434h262v-588h8q18 88 107.5 163.5t240.5 75.5q166 0 268.5 -104t102.5 -311v-670h-262v608q0 260 -217 260q-113 0 -180.5 -66.5t-67.5 -193.5v-608h-262z" glyph-name="h" unicode="h"/><glyph d="M111 0v1065h262v-1065h-262zM92 1361.5q0 61.5 44 104.5t106 43q59 0 103 -43t44 -104.5t-44 -104.5t-103 -43q-61 0 -105.5 43t-44.5 104.5z" glyph-name="i" horiz-adv-x="481" unicode="i"/><glyph d="M70 -395q-104 0 -158 6v205h94q72 0 101.5 35.5t29.5 107.5v1106h262v-1147q1 -313 -329 -313zM121 1361.5q0 61.5 44 104.5t103.5 43t103.5 -43t44 -104.5t-44 -104.5t-103.5 -43t-103.5 43t-44 104.5z" glyph-name="j" horiz-adv-x="509" unicode="j"/><glyph d="M111 0v1434h262v-846l434 477h291l-436 -457l493 -608h-291l-362 442l-129 -135v-307h-262z" glyph-name="k" horiz-adv-x="1171" unicode="k"/><glyph d="M111 0v1434h262v-1434h-262z" glyph-name="l" horiz-adv-x="481" unicode="l"/><glyph d="M1464 608q0 260 -198 260q-98 0 -157.5 -66.5t-59.5 -193.5v-608h-263v608q0 260 -196 260q-98 0 -157.5 -66.5t-59.5 -193.5v-608h-262v1065h262v-219h8q14 84 100 161.5t219 77.5q117 0 204 -61t122 -184q18 88 108.5 166.5t233.5 78.5q162 0 260 -104t98 -311v-670 h-262v608z" glyph-name="m" horiz-adv-x="1835" unicode="m"/><glyph d="M838 608q0 260 -217 260q-113 0 -180.5 -66.5t-67.5 -193.5v-608h-262v1065h262v-219h8q18 88 107.5 163.5t240.5 75.5q166 0 268.5 -104t102.5 -311v-670h-262v608z" glyph-name="n" unicode="n"/><glyph d="M588 -20q-221 0 -375 141t-154 411.5t154 411.5t375 141q219 0 373.5 -141t154.5 -411.5t-154.5 -411.5t-373.5 -141zM305 532.5q0 -165.5 79 -249.5t204 -84q123 0 201.5 84t78.5 249.5t-78.5 249.5t-201.5 84q-125 0 -204 -84t-79 -249.5z" glyph-name="o" horiz-adv-x="1173" unicode="o"/><glyph d="M111 -389v1454h262v-154q39 78 127 126t202 48q190 0 329.5 -140t139.5 -412.5t-139 -412.5t-330 -140q-115 0 -202.5 48t-126.5 126v-543h-262zM360 532.5q0 -161.5 82 -247.5t199 -86q119 0 202 86t83 247.5t-83 247.5t-202 86q-117 0 -199 -86t-82 -247.5z" glyph-name="p" horiz-adv-x="1230" unicode="p"/><glyph d="M1120 -389h-262v543q-39 -78 -127 -126t-203 -48q-190 0 -329.5 140t-139.5 412.5t139.5 412.5t329.5 140q115 0 203 -48t127 -126v154h262v-1454zM305 532.5q0 -161.5 83 -247.5t202 -86q117 0 198.5 86t81.5 247.5t-81.5 247.5t-198.5 86q-119 0 -202 -86t-83 -247.5z " glyph-name="q" horiz-adv-x="1230" unicode="q"/><glyph d="M373 496v-496h-262v1065h262v-254h6q29 117 108.5 189.5t206.5 72.5q47 0 82 -10v-221q-47 6 -82 6q-141 0 -231 -87t-90 -265z" glyph-name="r" horiz-adv-x="813" unicode="r"/><glyph d="M502 -20q-211 0 -331 90t-122 266h234q20 -158 223 -158q193 0 192 129q0 90 -125 115l-196 43q-299 68 -299 305q0 147 116.5 231t311.5 84q203 0 313.5 -92t114.5 -262h-217q-23 156 -209 156q-176 0 -176 -113q0 -92 129 -117l203 -45q143 -33 224 -101.5t81 -197.5 q0 -168 -132 -250.5t-335 -82.5z" glyph-name="s" horiz-adv-x="1015" unicode="s"/><glyph d="M549 -14q-332 0 -332 313v561h-178v205h178v272h262v-272h209v-205h-209v-520q0 -74 30 -108.5t109 -34.5q43 0 82 4v-197q-67 -18 -151 -18z" glyph-name="t" horiz-adv-x="747" unicode="t"/><glyph d="M373 457q0 -260 217 -260q113 0 180.5 66.5t67.5 193.5v608h262v-1065h-262v219h-9q-18 -88 -107 -163.5t-241 -75.5q-166 0 -268 104t-102 311v670h262v-608z" glyph-name="u" unicode="u"/><glyph d="M432 0l-393 1065h266l287 -815h10l287 815h268l-395 -1065h-330z" glyph-name="v" horiz-adv-x="1193" unicode="v"/><glyph d="M328 0l-289 1065h248l198 -809h9l231 809h227l232 -809h8l199 809h249l-290 -1065h-295l-215 717l-217 -717h-295z" glyph-name="w" horiz-adv-x="1677" unicode="w"/><glyph d="M59 0l371 539l-352 526h284l218 -338l215 338h284l-352 -526l373 -539h-285l-235 348l-238 -348h-283z" glyph-name="x" horiz-adv-x="1157" unicode="x"/><glyph d="M145 -182q225 -31 287 123q29 72 0 143l-393 981h268l273 -737l274 737h270l-442 -1094q-94 -231 -212 -315t-325 -62v224z" glyph-name="y" horiz-adv-x="1161" unicode="y"/><glyph d="M82 0v221l561 623h-541v221h852v-221l-559 -623h559v-221h-872z" glyph-name="z" horiz-adv-x="1036" unicode="z"/><glyph d="M401 -266q-88 0 -152.5 48t-64.5 169v530l-92 146l92 149v533q0 119 65.5 168t151.5 49h189v-226h-72q-72 0 -72 -63v-471l-108 -139l108 -135v-469q0 -63 72 -64h72v-225h-189z" glyph-name="braceleft" horiz-adv-x="681" unicode="{"/><glyph d="M154 -389v2027h225v-2027h-225z" glyph-name="bar" horiz-adv-x="532" unicode="|"/><glyph d="M281 -266h-189v225h72q72 0 72 64v469l108 135l-108 139v471q0 63 -72 63h-72v226h189q86 0 151.5 -49.5t65.5 -167.5v-533l92 -149l-92 -146v-530q0 -121 -64.5 -169t-152.5 -48z" glyph-name="braceright" horiz-adv-x="681" unicode="}"/><glyph d="M811 408q-66 0 -130.5 30.5t-106.5 66.5t-95 66.5t-100 30.5q-51 0 -81 -28.5t-30 -73.5h-157q-6 115 64.5 188.5t180.5 73.5q68 0 132.5 -31t107.5 -66.5t96 -66.5t101 -31q49 0 78.5 29t29.5 74h160q4 -115 -66.5 -188.5t-183.5 -73.5z" glyph-name="asciitilde" horiz-adv-x="1169" unicode="~"/><glyph glyph-name="uni00A0" horiz-adv-x="471" unicode=" "/><glyph d="M172 594h203l31 -963h-267zM111 926q0 66 47 112.5t114.5 46.5t115.5 -47t48 -112q0 -68 -48 -115t-115.5 -47t-114.5 47t-47 115z" glyph-name="exclamdown" horiz-adv-x="544" unicode="¡"/><glyph d="M528 -82v217q-201 18 -335 153.5t-134 385.5t134.5 385t334.5 155v220h97v-217q76 -4 142.5 -25t132 -65t110.5 -125.5t57 -194.5h-238q-35 176 -204 192v-647q170 16 204 195h238q-10 -113 -54 -196t-110.5 -127t-134.5 -65.5t-143 -25.5v-215h-97zM305 674 q0 -131 57.5 -215t165.5 -105v643q-109 -20 -166 -105t-57 -218z" glyph-name="cent" horiz-adv-x="1128" unicode="¢"/><glyph d="M92 137q195 190 195 359q0 45 -15 98h-182v143h113q-90 160 -90 289q0 190 138 306t345 116q205 0 343 -113.5t138 -312.5v-39h-250v33q0 84 -56 145.5t-173 61.5t-173 -59.5t-56 -147.5q0 -37 12 -77t23.5 -63.5t38 -72.5t34.5 -66h242v-143h-189q4 -37 5 -57 q0 -176 -193 -334q84 31 175 29.5t163 -17.5t174 -18t209 26v-223q-119 -27 -238.5 -19.5t-209 30t-204 19.5t-221.5 -50z" glyph-name="sterling" horiz-adv-x="1165" unicode="£"/><glyph d="M602 516q-135 0 -254 76l-80 -80l-168 164l93 92q-49 98 -50 207q0 119 54 215l-97 94l168 164l86 -86q115 72 248 72q137 0 250 -74l90 88l168 -164l-100 -100q51 -96 51 -209q0 -109 -47 -203l96 -96l-168 -164l-84 82q-117 -78 -256 -78zM358 975q0 -84 61.5 -164 t182.5 -80t182.5 80t61.5 164q0 82 -62.5 163t-181.5 81q-121 0 -182.5 -80t-61.5 -164z" glyph-name="currency" unicode="¤"/><glyph d="M322 410v133h243l-516 891h305l353 -637l354 637h305l-516 -891h250v-133h-254v-82h254v-133h-254v-195h-277v195h-247v133h247v82h-247z" glyph-name="yen" horiz-adv-x="1413" unicode="¥"/><glyph d="M154 983v655h225v-655h-225zM154 -389v655h225v-655h-225z" glyph-name="brokenbar" horiz-adv-x="532" unicode="¦"/><glyph d="M686 -483q-262 0 -412.5 118.5t-171.5 341.5h293q16 -106 85 -161.5t208 -55.5q137 0 211 47.5t74 131.5q0 88 -52.5 132t-168.5 70l-191 41q-203 47 -310.5 137.5t-107.5 270.5q0 141 88 239q-68 90 -67 228q0 180 143.5 286.5t386.5 106.5q236 0 381.5 -105.5 t167.5 -306.5h-291q-23 168 -258 168q-123 0 -181 -45t-58 -112q0 -129 170 -168l209 -47q238 -53 345 -153.5t107 -283.5q0 -139 -84 -235q63 -90 64 -225q0 -211 -161 -315.5t-419 -104.5zM434 582q0 -61 38 -103.5t132 -64.5l209 -47q74 -16 160 -45q20 33 20 77 q0 90 -53 136.5t-168 72.5l-190 41q-61 12 -109 31q-39 -41 -39 -98z" glyph-name="section" horiz-adv-x="1388" unicode="§"/><glyph d="M610.5 1214q-59.5 0 -103.5 42t-44 102q0 61 44 103t103.5 42t103.5 -42t44 -103q0 -59 -44 -101.5t-103.5 -42.5zM0 1358q0 61 44 103t103.5 42t103.5 -42t44 -103q0 -59 -44 -101.5t-103.5 -42.5t-103.5 42.5t-44 101.5z" glyph-name="dieresis" horiz-adv-x="757" unicode="¨"/><glyph d="M811 -14q-307 0 -519 207.5t-212 523.5q0 313 213 521t518 208t518 -208t213 -521q0 -315 -212 -523t-519 -208zM233 717q0 -254 167 -418t411 -164t411 164t167 418q0 252 -167 415.5t-411 163.5t-411 -163.5t-167 -415.5zM416 716.5q0 190.5 116.5 301t284.5 110.5 q76 0 141.5 -21.5t128 -89t84.5 -173.5h-163q-14 66 -67.5 98.5t-125.5 32.5q-102 0 -167.5 -66.5t-65.5 -191.5q0 -123 65.5 -191.5t167.5 -68.5q160 0 199 135h160q-33 -158 -134.5 -223.5t-222.5 -65.5q-168 0 -284.5 111.5t-116.5 302z" glyph-name="copyright" horiz-adv-x="1619" unicode="©"/><glyph d="M281 770q-94 0 -158 49t-64 150q0 182 238 200l209 15q0 80 -28.5 110.5t-98.5 30.5q-131 0 -131 -92h-154q2 229 287 229q166 0 228.5 -76.5t62.5 -246.5v-365h-142l-10 117q-29 -53 -94 -87t-145 -34zM238 989q0 -78 102 -78q66 0 110 31t56 74v65l-172 -12 q-96 -8 -96 -80z" glyph-name="ordfeminine" horiz-adv-x="782" unicode="ª"/><glyph d="M834 225l-340 279v215l340 276v-237l-179 -148l179 -147v-238zM82 504v215l340 276v-237l-178 -148l178 -147v-238z" glyph-name="guillemotleft" horiz-adv-x="915" unicode="«"/><glyph d="M717 223v213h-606v203h868v-416h-262z" glyph-name="logicalnot" horiz-adv-x="1087" unicode="¬"/><glyph d="M82 469v197h612v-197h-612z" glyph-name="uni00AD" horiz-adv-x="776" unicode="­"/><glyph d="M811 -14q-307 0 -519 207.5t-212 523.5q0 313 213 521t518 208t518 -208t213 -521q0 -315 -212 -523t-519 -208zM233 717q0 -254 167 -418t411 -164t411 164t167 418q0 252 -167 415.5t-411 163.5t-411 -163.5t-167 -415.5zM512 360v715h373q131 0 203.5 -65.5 t70.5 -175.5q-4 -168 -160 -222l168 -252h-172l-153 236h-166v-236h-164zM676 727h194q131 0 131 109q0 106 -131 106h-194v-215z" glyph-name="registered" horiz-adv-x="1619" unicode="®"/><glyph d="M0 1317v153h653v-153h-653z" glyph-name="macron" horiz-adv-x="653" unicode="¯"/><glyph d="M373 862q-131 0 -217 87t-86 216q0 127 86 214t217 87t218 -87t87 -214q0 -129 -87 -216t-218 -87zM248 1165.5q0 -51.5 33.5 -89.5t91 -38t92.5 38t35 89.5t-34 88t-93 36.5q-57 0 -91 -36.5t-34 -88z" glyph-name="degree" horiz-adv-x="745" unicode="°"/><glyph d="M479 377v373h-368v227h368v369h244v-369h371v-227h-371v-373h-244zM250 0v199h702v-199h-702z" glyph-name="plusminus" horiz-adv-x="1204" unicode="±"/><glyph d="M82 918q0 84 29.5 141t117.5 110q6 4 20.5 11.5t19.5 10.5t15.5 9t15.5 10t12 10.5t10.5 12.5t7.5 13t5 15.5t1 18.5q0 33 -22.5 51.5t-51.5 18.5q-33 0 -54.5 -20.5t-21.5 -59.5v-17h-104v17q0 78 46 126t134 48t135 -46t47 -118q0 -35 -10 -61.5t-42 -53t-47 -37 t-66 -41.5q-80 -45 -80 -88v-6h245v-92h-362v17z" glyph-name="uni00B2" horiz-adv-x="536" unicode="²"/><glyph d="M279 893q-96 0 -146.5 47t-50.5 127h98q4 -90 100.5 -90t96.5 84q0 82 -109 82h-22v76h22q47 0 66.5 22.5t19.5 50.5q0 31 -19.5 49.5t-56 18.5t-60 -21.5t-23.5 -62.5h-95q0 80 49.5 124t131 44t128 -40t46.5 -101q0 -45 -27 -76t-63 -41q43 -4 78.5 -37t35.5 -94 q0 -72 -54 -117t-146 -45z" glyph-name="uni00B3" horiz-adv-x="561" unicode="³"/><glyph d="M0 1190l213 280h229l-213 -280h-229z" glyph-name="acute" horiz-adv-x="442" unicode="´"/><glyph d="M111 -389v1454h262v-608q0 -260 217 -260q113 0 180.5 66.5t67.5 193.5v608h262v-1065h-262v219h-9q-18 -88 -107 -163.5t-241 -75.5q-55 0 -108 12v-381h-262z" glyph-name="uni00B5" unicode="µ"/><glyph d="M625 -451v1055h-109q-213 0 -335 121t-122 293q0 174 122 295t335 121h744v-1885h-213v1727h-189v-1727h-233z" glyph-name="paragraph" horiz-adv-x="1370" unicode="¶"/><glyph d="M251.5 410q-67.5 0 -114.5 47t-47 112q0 68 47 115t114.5 47t116 -47t48.5 -115q0 -66 -48.5 -112.5t-116 -46.5z" glyph-name="periodcentered" horiz-adv-x="503" unicode="·"/><glyph d="M68 -367q63 -4 103 17.5t40 62.5q0 47 -46 63.5t-93 -12.5l-72 91l131 145h176l-104 -104h18q74 0 123 -52.5t49 -132.5q0 -113 -94 -162t-231 -49v133z" glyph-name="cedilla" horiz-adv-x="393" unicode="¸"/><glyph d="M197 1300q-31 -53 -115 -38v98q37 -4 69.5 19.5t45.5 54.5h98v-535h-98v401z" glyph-name="uni00B9" horiz-adv-x="387" unicode="¹"/><glyph d="M403 770q-143 0 -243.5 94t-100.5 254t100.5 252t244 92t244 -92t100.5 -252t-102 -254t-243 -94zM227 1118q0 -82 49.5 -133t127 -51t126 51t48.5 133t-48.5 131t-126.5 49q-80 0 -128 -49t-48 -131z" glyph-name="ordmasculine" horiz-adv-x="804" unicode="º"/><glyph d="M86 225v238l178 147l-178 148v237l340 -276v-215zM498 225v238l178 147l-178 148v237l340 -276v-215z" glyph-name="guillemotright" horiz-adv-x="909" unicode="»"/><glyph d="M197 1300q-31 -53 -115 -38v98q37 -4 69.5 19.5t45.5 54.5h98v-535h-98v401zM80 0l893 1434h133l-893 -1434h-133zM737 135v80l240 320h100v-320h62v-80h-62v-135h-100v135h-240zM825 215h152v203z" glyph-name="onequarter" horiz-adv-x="1230" unicode="¼"/><glyph d="M195 1300q-31 -53 -115 -38v98q37 -4 69.5 19.5t45.5 54.5h98v-535h-98v401zM94 0l893 1434h133l-893 -1434h-133zM756 0v16q0 84 29.5 141.5t117.5 110.5q6 4 20.5 11.5t19.5 10.5t15.5 9t15.5 10t12 10.5t10 12.5t7.5 13t5.5 15.5t1 18.5q0 33 -22.5 51.5t-51.5 18.5 q-33 0 -54.5 -20.5t-21.5 -59.5v-17h-104v17q0 78 46 126t134 48t135 -46t47 -118q0 -35 -10 -61.5t-42 -53t-47 -37t-67 -41.5q-80 -45 -80 -88v-6h246v-92h-362z" glyph-name="onehalf" unicode="½"/><glyph d="M279 893q-96 0 -146.5 47t-50.5 127h98q4 -90 100.5 -90t96.5 84q0 82 -109 82h-22v76h22q47 0 66.5 22.5t19.5 50.5q0 31 -19.5 49.5t-56 18.5t-60 -21.5t-23.5 -62.5h-95q0 80 49.5 124t131 44t128 -40t46.5 -101q0 -45 -27 -76t-63 -41q43 -4 78.5 -37t35.5 -94 q0 -72 -54 -117t-146 -45zM98 0l893 1434h133l-893 -1434h-133zM780 135v80l240 320h100v-320h62v-80h-62v-135h-100v135h-240zM868 215h152v203z" glyph-name="threequarters" horiz-adv-x="1249" unicode="¾"/><glyph d="M680 553q0 -94 -34 -166t-81 -114t-95 -76.5t-82 -76.5t-34 -95q0 -78 50.5 -130.5t150.5 -52.5q225 0 225 260h262q2 -246 -134 -365.5t-353 -119.5q-207 0 -335 107.5t-128 300.5q0 86 32 147t77 98t91 72t77.5 87t31.5 124v63h279v-63zM381 926q0 66 48 112.5 t115.5 46.5t115 -47t47.5 -112q0 -68 -47.5 -115t-115 -47t-115.5 47t-48 115z" glyph-name="questiondown" horiz-adv-x="1134" unicode="¿"/><glyph d="M39 0l526 1434h344l527 -1434h-285l-102 293h-625l-102 -293h-283zM438 1839h230l213 -280h-230zM496 494h483l-234 663h-16z" glyph-name="Agrave" horiz-adv-x="1472" unicode="À"/><glyph d="M39 0l526 1434h344l527 -1434h-285l-102 293h-625l-102 -293h-283zM496 494h483l-234 663h-16zM614 1559l213 280h230l-213 -280h-230z" glyph-name="Aacute" horiz-adv-x="1472" unicode="Á"/><glyph d="M39 0l526 1434h344l527 -1434h-285l-102 293h-625l-102 -293h-283zM352 1559l201 280h365l200 -280h-235l-148 208l-147 -208h-236zM496 494h483l-234 663h-16z" glyph-name="Acircumflex" horiz-adv-x="1472" unicode="Â"/><glyph d="M39 0l526 1434h344l527 -1434h-285l-102 293h-625l-102 -293h-283zM391 1636q0 106 51.5 166t145.5 60q51 0 95 -18.5t67.5 -42t51 -42t54.5 -18.5t49.5 18.5t24.5 48.5h155q0 -106 -51 -165.5t-145 -59.5q-51 0 -95 18.5t-68 42t-51.5 42t-54 18.5t-49 -18.5 t-24.5 -49.5h-156zM496 494h483l-234 663h-16z" glyph-name="Atilde" horiz-adv-x="1472" unicode="Ã"/><glyph d="M39 0l526 1434h344l527 -1434h-285l-102 293h-625l-102 -293h-283zM356 1726q0 61 44 103.5t103.5 42.5t103.5 -42t44 -104q0 -59 -44 -101t-103.5 -42t-103.5 42t-44 101zM496 494h483l-234 663h-16zM819 1726q0 61 44 103.5t103.5 42.5t103.5 -42t44 -104 q0 -59 -44 -101t-103.5 -42t-103.5 42t-44 101z" glyph-name="Adieresis" horiz-adv-x="1472" unicode="Ä"/><glyph d="M39 0l526 1434h344l527 -1434h-285l-102 293h-625l-102 -293h-283zM496 494h483l-234 663h-16zM535 1716q0 82 58 139.5t144 57.5t144.5 -57.5t58.5 -139.5q0 -84 -57.5 -140t-145.5 -56q-86 0 -144 56t-58 140zM659 1716q0 -35 23 -57.5t55 -22.5q35 0 57.5 22.5 t22.5 57.5q0 33 -22.5 55.5t-57.5 22.5q-33 0 -55.5 -22.5t-22.5 -55.5z" glyph-name="Aring" horiz-adv-x="1472" unicode="Å"/><glyph d="M39 0l924 1434h1007v-236h-692v-364h631v-211h-631v-387h713v-236h-981v293h-498l-188 -293h-285zM643 498h367v573z" glyph-name="AE" horiz-adv-x="2048" unicode="Æ"/><glyph d="M610 -367q63 -4 103.5 17.5t40.5 62.5q0 47 -46 63.5t-94 -12.5l-71 91l116 129q-270 29 -424.5 220t-154.5 513q0 346 180 540.5t488 194.5q242 0 401.5 -125t183.5 -371h-262q-31 131 -118 197t-212 66q-190 0 -288.5 -136.5t-98.5 -365.5q0 -231 97.5 -367.5 t289.5 -136.5q125 0 212 65.5t118 198.5h262q-20 -223 -155.5 -347t-343.5 -146l-89 -88h19q74 0 123 -52.5t49 -132.5q0 -113 -94 -162t-232 -49v133z" glyph-name="Ccedilla" horiz-adv-x="1394" unicode="Ç"/><glyph d="M111 0v1434h960v-236h-692v-364h631v-211h-631v-387h713v-236h-981zM309 1839h230l213 -280h-230z" glyph-name="Egrave" horiz-adv-x="1148" unicode="È"/><glyph d="M111 0v1434h960v-236h-692v-364h631v-211h-631v-387h713v-236h-981zM485 1559l213 280h230l-213 -280h-230z" glyph-name="Eacute" horiz-adv-x="1148" unicode="É"/><glyph d="M111 0v1434h960v-236h-692v-364h631v-211h-631v-387h713v-236h-981zM223 1559l201 280h364l201 -280h-235l-148 208l-147 -208h-236z" glyph-name="Ecircumflex" horiz-adv-x="1148" unicode="Ê"/><glyph d="M111 0v1434h960v-236h-692v-364h631v-211h-631v-387h713v-236h-981zM227 1726q0 61 44 103.5t103.5 42.5t103.5 -42t44 -104q0 -59 -44 -101t-103.5 -42t-103.5 42t-44 101zM690 1726q0 61 44 103.5t103.5 42.5t103.5 -42t44 -104q0 -59 -44 -101t-103.5 -42t-103.5 42 t-44 101z" glyph-name="Edieresis" horiz-adv-x="1148" unicode="Ë"/><glyph d="M111 0v1434h268v-1434h-268zM-55 1839h229l213 -280h-229z" glyph-name="Igrave" horiz-adv-x="487" unicode="Ì"/><glyph d="M111 0v1434h268v-1434h-268zM119 1559l213 280h229l-213 -280h-229z" glyph-name="Iacute" horiz-adv-x="487" unicode="Í"/><glyph d="M111 0v1434h268v-1434h-268zM-143 1559l200 280h365l201 -280h-236l-147 208l-148 -208h-235z" glyph-name="Icircumflex" horiz-adv-x="487" unicode="Î"/><glyph d="M111 0v1434h268v-1434h-268zM-139 1726q0 61 44 103.5t103.5 42.5t103.5 -42t44 -104q0 -59 -44 -101t-103.5 -42t-103.5 42t-44 101zM324 1726q0 61 44 103.5t103 42.5t103 -42t44 -104q0 -59 -44 -101t-103 -42t-103 42t-44 101z" glyph-name="Idieresis" horiz-adv-x="487" unicode="Ï"/><glyph d="M174 0v608h-133v197h133v629h520q334 0 506 -185.5t172 -531.5t-172 -531.5t-506 -185.5h-520zM442 236h226q231 0 330.5 113.5t99.5 367.5t-99.5 367.5t-330.5 113.5h-226v-393h211v-197h-211v-372z" glyph-name="Eth" horiz-adv-x="1452" unicode="Ð"/><glyph d="M111 0v1434h282l627 -1006h6v1006h270v-1434h-295l-616 989h-6v-989h-268zM356 1636q0 106 51.5 166t145.5 60q51 0 95 -18.5t67.5 -42t51.5 -42t54.5 -18.5t49 18.5t24.5 48.5h156q0 -106 -51.5 -165.5t-145.5 -59.5q-51 0 -95 18.5t-67.5 42t-51.5 42t-54.5 18.5 t-49 -18.5t-24.5 -49.5h-156z" glyph-name="Ntilde" horiz-adv-x="1404" unicode="Ñ"/><glyph d="M754 -20q-303 0 -488.5 201.5t-185.5 535.5q0 336 185.5 535.5t488.5 199.5t489.5 -199.5t186.5 -535.5q0 -334 -186.5 -535.5t-489.5 -201.5zM356 716.5q0 -235.5 106.5 -369.5t291 -134t291 134t106.5 369.5t-106.5 369t-291 133.5t-291 -133.5t-106.5 -369zM455 1839 h229l213 -280h-229z" glyph-name="Ograve" horiz-adv-x="1507" unicode="Ò"/><glyph d="M754 -20q-303 0 -488.5 201.5t-185.5 535.5q0 336 185.5 535.5t488.5 199.5t489.5 -199.5t186.5 -535.5q0 -334 -186.5 -535.5t-489.5 -201.5zM356 716.5q0 -235.5 106.5 -369.5t291 -134t291 134t106.5 369.5t-106.5 369t-291 133.5t-291 -133.5t-106.5 -369zM631 1559 l213 280h229l-213 -280h-229z" glyph-name="Oacute" horiz-adv-x="1507" unicode="Ó"/><glyph d="M754 -20q-303 0 -488.5 201.5t-185.5 535.5q0 336 185.5 535.5t488.5 199.5t489.5 -199.5t186.5 -535.5q0 -334 -186.5 -535.5t-489.5 -201.5zM356 716.5q0 -235.5 106.5 -369.5t291 -134t291 134t106.5 369.5t-106.5 369t-291 133.5t-291 -133.5t-106.5 -369zM369 1559 l200 280h365l201 -280h-236l-147 208l-148 -208h-235z" glyph-name="Ocircumflex" horiz-adv-x="1507" unicode="Ô"/><glyph d="M754 -20q-303 0 -488.5 201.5t-185.5 535.5q0 336 185.5 535.5t488.5 199.5t489.5 -199.5t186.5 -535.5q0 -334 -186.5 -535.5t-489.5 -201.5zM356 716.5q0 -235.5 106.5 -369.5t291 -134t291 134t106.5 369.5t-106.5 369t-291 133.5t-291 -133.5t-106.5 -369zM408 1636 q0 106 51 166t145 60q51 0 95 -18.5t68 -42t51.5 -42t54 -18.5t49 18.5t24.5 48.5h156q0 -106 -51.5 -165.5t-145.5 -59.5q-51 0 -95 18.5t-67.5 42t-51 42t-54.5 18.5t-49.5 -18.5t-24.5 -49.5h-155z" glyph-name="Otilde" horiz-adv-x="1507" unicode="Õ"/><glyph d="M754 -20q-303 0 -488.5 201.5t-185.5 535.5q0 336 185.5 535.5t488.5 199.5t489.5 -199.5t186.5 -535.5q0 -334 -186.5 -535.5t-489.5 -201.5zM356 716.5q0 -235.5 106.5 -369.5t291 -134t291 134t106.5 369.5t-106.5 369t-291 133.5t-291 -133.5t-106.5 -369zM373 1726 q0 61 44 103.5t103.5 42.5t103.5 -42t44 -104q0 -59 -44 -101t-103.5 -42t-103.5 42t-44 101zM836 1726q0 61 44 103.5t103 42.5t103 -42t44 -104q0 -59 -44 -101t-103 -42t-103 42t-44 101z" glyph-name="Odieresis" horiz-adv-x="1507" unicode="Ö"/><glyph d="M264 86l-162 158l271 270l-271 268l162 158l268 -266l269 266l162 -158l-269 -268l269 -270l-162 -158l-269 266z" glyph-name="multiply" horiz-adv-x="1064" unicode="×"/><glyph d="M219 -102l115 219q-254 203 -254 600q0 336 185.5 535.5t488.5 199.5q139 0 252 -43l61 117h223l-110 -213q250 -205 250 -596q0 -334 -186.5 -535.5t-489.5 -201.5q-137 0 -248 43l-66 -125h-221zM356 717q0 -231 101 -363l438 840q-63 25 -141 25q-184 0 -291 -133 t-107 -369zM616 236q63 -23 138 -23q184 0 290.5 134t106.5 370q0 221 -96 356z" glyph-name="Oslash" horiz-adv-x="1507" unicode="Ø"/><glyph d="M690 -20q-268 0 -423.5 144t-155.5 419v891h270v-871q0 -170 81 -259t228.5 -89t227 89t79.5 259v871h273v-891q0 -274 -157 -418.5t-423 -144.5zM373 1839h229l213 -280h-229z" glyph-name="Ugrave" horiz-adv-x="1380" unicode="Ù"/><glyph d="M690 -20q-268 0 -423.5 144t-155.5 419v891h270v-871q0 -170 81 -259t228.5 -89t227 89t79.5 259v871h273v-891q0 -274 -157 -418.5t-423 -144.5zM547 1559l213 280h229l-213 -280h-229z" glyph-name="Uacute" horiz-adv-x="1380" unicode="Ú"/><glyph d="M690 -20q-268 0 -423.5 144t-155.5 419v891h270v-871q0 -170 81 -259t228.5 -89t227 89t79.5 259v871h273v-891q0 -274 -157 -418.5t-423 -144.5zM287 1559l200 280h365l201 -280h-236l-147 208l-148 -208h-235z" glyph-name="Ucircumflex" horiz-adv-x="1380" unicode="Û"/><glyph d="M690 -20q-268 0 -423.5 144t-155.5 419v891h270v-871q0 -170 81 -259t228.5 -89t227 89t79.5 259v871h273v-891q0 -274 -157 -418.5t-423 -144.5zM289 1726q0 61 44 103.5t103.5 42.5t103.5 -42t44 -104q0 -59 -44 -101t-103.5 -42t-103.5 42t-44 101zM752 1726 q0 61 44 103.5t103 42.5t103.5 -42t44.5 -104q0 -59 -44.5 -101t-103.5 -42t-103 42t-44 101z" glyph-name="Udieresis" horiz-adv-x="1380" unicode="Ü"/><glyph d="M569 0v537l-520 897h305l353 -637l354 637h305l-520 -897v-537h-277zM584 1559l213 280h229l-213 -280h-229z" glyph-name="Yacute" horiz-adv-x="1413" unicode="Ý"/><glyph d="M111 0v1434h268v-248h295q268 0 402 -126t134 -343q0 -215 -134 -341t-402 -126h-295v-250h-268zM379 485h285q268 0 268 232q0 236 -268 235h-285v-467z" glyph-name="Thorn" horiz-adv-x="1267" unicode="Þ"/><glyph d="M111 991q0 461 495 461q225 0 358.5 -90t133.5 -272q0 -127 -64.5 -204t-148.5 -83q129 -16 216 -112.5t87 -264.5q0 -203 -137.5 -314.5t-417.5 -111.5h-90v225h88q295 0 295 228q0 229 -320 229h-63v199h63q229 0 230 172q0 174 -226 174q-123 0 -180 -57.5t-57 -178.5 v-991h-262v991z" glyph-name="germandbls" horiz-adv-x="1245" unicode="ß"/><glyph d="M401 -20q-147 0 -244.5 74.5t-97.5 224.5q0 80 29 137t84 92t114.5 53.5t141.5 28.5l199 26q80 10 107.5 29t27.5 60v22q0 168 -193 168q-207 0 -207 -156v-20l-245 -2v47q0 322 458 321q233 0 339 -85t106 -263v-737h-252v190h-10q-16 -41 -49 -82.5t-116 -84.5 t-192 -43zM274 1470h230l213 -280h-230zM322 301q0 -131 165 -131q119 0 197 63.5t78 135.5v135q-18 -31 -125 -45l-170 -27q-145 -22 -145 -131z" glyph-name="agrave" horiz-adv-x="1128" unicode="à"/><glyph d="M401 -20q-147 0 -244.5 74.5t-97.5 224.5q0 80 29 137t84 92t114.5 53.5t141.5 28.5l199 26q80 10 107.5 29t27.5 60v22q0 168 -193 168q-207 0 -207 -156v-20l-245 -2v47q0 322 458 321q233 0 339 -85t106 -263v-737h-252v190h-10q-16 -41 -49 -82.5t-116 -84.5 t-192 -43zM322 301q0 -131 165 -131q119 0 197 63.5t78 135.5v135q-18 -31 -125 -45l-170 -27q-145 -22 -145 -131zM449 1190l213 280h229l-213 -280h-229z" glyph-name="aacute" horiz-adv-x="1128" unicode="á"/><glyph d="M401 -20q-147 0 -244.5 74.5t-97.5 224.5q0 80 29 137t84 92t114.5 53.5t141.5 28.5l199 26q80 10 107.5 29t27.5 60v22q0 168 -193 168q-207 0 -207 -156v-20l-245 -2v47q0 322 458 321q233 0 339 -85t106 -263v-737h-252v190h-10q-16 -41 -49 -82.5t-116 -84.5 t-192 -43zM188 1190l201 280h365l200 -280h-235l-148 209l-147 -209h-236zM322 301q0 -131 165 -131q119 0 197 63.5t78 135.5v135q-18 -31 -125 -45l-170 -27q-145 -22 -145 -131z" glyph-name="acircumflex" horiz-adv-x="1128" unicode="â"/><glyph d="M401 -20q-147 0 -244.5 74.5t-97.5 224.5q0 80 29 137t84 92t114.5 53.5t141.5 28.5l199 26q80 10 107.5 29t27.5 60v22q0 168 -193 168q-207 0 -207 -156v-20l-245 -2v47q0 322 458 321q233 0 339 -85t106 -263v-737h-252v190h-10q-16 -41 -49 -82.5t-116 -84.5 t-192 -43zM225 1268q0 106 51.5 165.5t145.5 59.5q51 0 95 -18.5t67.5 -42t51.5 -42t54.5 -18.5t49 18.5t24.5 49.5h156q0 -106 -51.5 -166t-145.5 -60q-51 0 -95 18.5t-67.5 42t-51.5 42t-54.5 18.5t-49 -18.5t-24.5 -48.5h-156zM322 301q0 -131 165 -131q119 0 197 63.5 t78 135.5v135q-18 -31 -125 -45l-170 -27q-145 -22 -145 -131z" glyph-name="atilde" horiz-adv-x="1128" unicode="ã"/><glyph d="M401 -20q-147 0 -244.5 74.5t-97.5 224.5q0 80 29 137t84 92t114.5 53.5t141.5 28.5l199 26q80 10 107.5 29t27.5 60v22q0 168 -193 168q-207 0 -207 -156v-20l-245 -2v47q0 322 458 321q233 0 339 -85t106 -263v-737h-252v190h-10q-16 -41 -49 -82.5t-116 -84.5 t-192 -43zM190 1358q0 61 44.5 103t103.5 42t103 -42t44 -103q0 -59 -44 -101.5t-103 -42.5t-103.5 42.5t-44.5 101.5zM322 301q0 -131 165 -131q119 0 197 63.5t78 135.5v135q-18 -31 -125 -45l-170 -27q-145 -22 -145 -131zM653 1358q0 61 44 103t103.5 42t103.5 -42 t44 -103q0 -59 -44 -101.5t-103.5 -42.5t-103.5 42.5t-44 101.5z" glyph-name="adieresis" horiz-adv-x="1128" unicode="ä"/><glyph d="M401 -20q-147 0 -244.5 74.5t-97.5 224.5q0 80 29 137t84 92t114.5 53.5t141.5 28.5l199 26q80 10 107.5 29t27.5 60v22q0 168 -193 168q-207 0 -207 -156v-20l-245 -2v47q0 322 458 321q233 0 339 -85t106 -263v-737h-252v190h-10q-16 -41 -49 -82.5t-116 -84.5 t-192 -43zM322 301q0 -131 165 -131q119 0 197 63.5t78 135.5v135q-18 -31 -125 -45l-170 -27q-145 -22 -145 -131zM369 1348q0 82 58 139t144 57t144.5 -57t58.5 -139q0 -84 -57.5 -140.5t-145.5 -56.5q-86 0 -144 56.5t-58 140.5zM494 1348q0 -35 22.5 -57.5t54.5 -22.5 q35 0 57.5 22.5t22.5 57.5q0 33 -22.5 55t-57.5 22q-33 0 -55 -22t-22 -55z" glyph-name="aring" horiz-adv-x="1128" unicode="å"/><glyph d="M430 -20q-166 0 -268.5 77.5t-102.5 237.5q0 168 110 241.5t282 73.5h305v119q0 158 -197 158t-197 -152v-18l-235 -2v49q0 158 112.5 239.5t329.5 81.5q252 0 344 -131q139 131 369 131q223 0 361.5 -132t138.5 -408q0 -45 -6 -80h-768q23 -285 284 -285q195 0 242 154 h233q-41 -176 -169 -265t-312 -89q-295 0 -432 204q-45 -78 -152.5 -141t-271.5 -63zM322 313q0 -63 44 -102t136 -39q123 0 188.5 67.5t65.5 151.5v66h-240q-96 0 -145 -39t-49 -105zM1010 625h524q-4 119 -68.5 189.5t-187.5 70.5q-117 0 -185.5 -65.5t-82.5 -194.5z" glyph-name="ae" horiz-adv-x="1839" unicode="æ"/><glyph d="M442 -367q63 -4 103.5 17.5t40.5 62.5q0 47 -46 63.5t-94 -12.5l-71 91l119 131q-188 29 -311.5 165t-123.5 379q0 141 45.5 251t121 174.5t167.5 97t197 32.5q78 0 149.5 -18t143 -61t121 -130.5t63.5 -209.5h-238q-37 199 -241 198q-135 0 -209 -90t-74 -243.5 t74 -241.5t209 -88q205 0 241 200h238q-20 -203 -133 -301t-268 -116l-88 -88h18q74 0 123 -52.5t49 -132.5q0 -113 -94 -162t-232 -49v133z" glyph-name="ccedilla" horiz-adv-x="1128" unicode="ç"/><glyph d="M586 -20q-227 0 -377 137t-150 418q0 279 147.5 414.5t375.5 135.5q223 0 361 -132t138 -408q0 -45 -6 -80h-768q23 -285 285 -285q195 0 242 154h233q-41 -176 -169 -265t-312 -89zM272 1470h230l213 -280h-230zM309 625h525q-4 119 -69 189.5t-187 70.5 q-117 0 -186 -65.5t-83 -194.5z" glyph-name="egrave" horiz-adv-x="1138" unicode="è"/><glyph d="M586 -20q-227 0 -377 137t-150 418q0 279 147.5 414.5t375.5 135.5q223 0 361 -132t138 -408q0 -45 -6 -80h-768q23 -285 285 -285q195 0 242 154h233q-41 -176 -169 -265t-312 -89zM309 625h525q-4 119 -69 189.5t-187 70.5q-117 0 -186 -65.5t-83 -194.5zM446 1190 l213 280h230l-213 -280h-230z" glyph-name="eacute" horiz-adv-x="1138" unicode="é"/><glyph d="M586 -20q-227 0 -377 137t-150 418q0 279 147.5 414.5t375.5 135.5q223 0 361 -132t138 -408q0 -45 -6 -80h-768q23 -285 285 -285q195 0 242 154h233q-41 -176 -169 -265t-312 -89zM184 1190l201 280h365l200 -280h-235l-148 209l-147 -209h-236zM309 625h525 q-4 119 -69 189.5t-187 70.5q-117 0 -186 -65.5t-83 -194.5z" glyph-name="ecircumflex" horiz-adv-x="1138" unicode="ê"/><glyph d="M586 -20q-227 0 -377 137t-150 418q0 279 147.5 414.5t375.5 135.5q223 0 361 -132t138 -408q0 -45 -6 -80h-768q23 -285 285 -285q195 0 242 154h233q-41 -176 -169 -265t-312 -89zM188 1358q0 61 44 103t103.5 42t103.5 -42t44 -103q0 -59 -44 -101.5t-103.5 -42.5 t-103.5 42.5t-44 101.5zM309 625h525q-4 119 -69 189.5t-187 70.5q-117 0 -186 -65.5t-83 -194.5zM651 1358q0 61 44 103t103.5 42t103.5 -42t44 -103q0 -59 -44 -101.5t-103.5 -42.5t-103.5 42.5t-44 101.5z" glyph-name="edieresis" horiz-adv-x="1138" unicode="ë"/><glyph d="M92 0v1065h262v-1065h-262zM-74 1470h230l213 -280h-230z" glyph-name="igrave" horiz-adv-x="448" unicode="ì"/><glyph d="M92 0v1065h262v-1065h-262zM100 1190l213 280h230l-213 -280h-230z" glyph-name="iacute" horiz-adv-x="448" unicode="í"/><glyph d="M92 0v1065h262v-1065h-262zM-162 1190l201 280h364l201 -280h-235l-148 209l-147 -209h-236z" glyph-name="icircumflex" horiz-adv-x="448" unicode="î"/><glyph d="M92 0v1065h262v-1065h-262zM-158 1358q0 61 44 103t103.5 42t103.5 -42t44 -103q0 -59 -44 -101.5t-103.5 -42.5t-103.5 42.5t-44 101.5zM305 1358q0 61 44 103t103.5 42t103.5 -42t44 -103q0 -59 -44 -101.5t-103.5 -42.5t-103.5 42.5t-44 101.5z" glyph-name="idieresis" horiz-adv-x="448" unicode="ï"/><glyph d="M575 -20q-217 0 -366.5 142t-149.5 413q0 250 134.5 390t341.5 140q131 0 221 -68q-59 115 -131 215h-258v119h161q-31 35 -98 103h264l82 -103h285v-119h-195q133 -184 180.5 -321t47.5 -332q0 -287 -149 -433t-370 -146zM317 535q0 -168 75 -249t185.5 -81t183.5 81 t73 249q0 156 -72 230.5t-184 74.5q-115 0 -188 -74.5t-73 -230.5z" glyph-name="eth" horiz-adv-x="1202" unicode="ð"/><glyph d="M838 608q0 260 -217 260q-113 0 -180.5 -66.5t-67.5 -193.5v-608h-262v1065h262v-219h8q18 88 107.5 163.5t240.5 75.5q166 0 268.5 -104t102.5 -311v-670h-262v608zM260 1268q0 106 51 165.5t146 59.5q51 0 95 -18.5t67.5 -42t51 -42t54.5 -18.5t49.5 18.5t24.5 49.5 h155q0 -106 -51 -166t-145 -60q-51 0 -95.5 18.5t-68 42t-51 42t-54 18.5t-49 -18.5t-24.5 -48.5h-156z" glyph-name="ntilde" unicode="ñ"/><glyph d="M588 -20q-221 0 -375 141t-154 411.5t154 411.5t375 141q219 0 373.5 -141t154.5 -411.5t-154.5 -411.5t-373.5 -141zM289 1470h229l213 -280h-229zM305 532.5q0 -165.5 79 -249.5t204 -84q123 0 201.5 84t78.5 249.5t-78.5 249.5t-201.5 84q-125 0 -204 -84t-79 -249.5z " glyph-name="ograve" horiz-adv-x="1173" unicode="ò"/><glyph d="M588 -20q-221 0 -375 141t-154 411.5t154 411.5t375 141q219 0 373.5 -141t154.5 -411.5t-154.5 -411.5t-373.5 -141zM305 532.5q0 -165.5 79 -249.5t204 -84q123 0 201.5 84t78.5 249.5t-78.5 249.5t-201.5 84q-125 0 -204 -84t-79 -249.5zM463 1190l213 280h229 l-213 -280h-229z" glyph-name="oacute" horiz-adv-x="1173" unicode="ó"/><glyph d="M588 -20q-221 0 -375 141t-154 411.5t154 411.5t375 141q219 0 373.5 -141t154.5 -411.5t-154.5 -411.5t-373.5 -141zM203 1190l200 280h365l201 -280h-236l-147 209l-148 -209h-235zM305 532.5q0 -165.5 79 -249.5t204 -84q123 0 201.5 84t78.5 249.5t-78.5 249.5 t-201.5 84q-125 0 -204 -84t-79 -249.5z" glyph-name="ocircumflex" horiz-adv-x="1173" unicode="ô"/><glyph d="M588 -20q-221 0 -375 141t-154 411.5t154 411.5t375 141q219 0 373.5 -141t154.5 -411.5t-154.5 -411.5t-373.5 -141zM240 1268q0 106 51 165.5t145 59.5q51 0 95 -18.5t68 -42t51.5 -42t54 -18.5t49 18.5t24.5 49.5h156q0 -106 -51.5 -166t-145.5 -60q-51 0 -95 18.5 t-67.5 42t-51 42t-54.5 18.5t-49.5 -18.5t-24.5 -48.5h-155zM305 532.5q0 -165.5 79 -249.5t204 -84q123 0 201.5 84t78.5 249.5t-78.5 249.5t-201.5 84q-125 0 -204 -84t-79 -249.5z" glyph-name="otilde" horiz-adv-x="1173" unicode="õ"/><glyph d="M588 -20q-221 0 -375 141t-154 411.5t154 411.5t375 141q219 0 373.5 -141t154.5 -411.5t-154.5 -411.5t-373.5 -141zM205 1358q0 61 44 103t103.5 42t103.5 -42t44 -103q0 -59 -44 -101.5t-103.5 -42.5t-103.5 42.5t-44 101.5zM305 532.5q0 -165.5 79 -249.5t204 -84 q123 0 201.5 84t78.5 249.5t-78.5 249.5t-201.5 84q-125 0 -204 -84t-79 -249.5zM668 1358q0 61 44 103t103 42t103.5 -42t44.5 -103q0 -59 -44.5 -101.5t-103.5 -42.5t-103 42.5t-44 101.5z" glyph-name="odieresis" horiz-adv-x="1173" unicode="ö"/><glyph d="M444 795q-49 0 -82.5 33.5t-33.5 82.5q0 47 33.5 80t82.5 33q47 0 80 -33t33 -80q0 -49 -33 -82.5t-80 -33.5zM111 469v197h661v-197h-661zM328 227q0 47 33.5 80t82.5 33q47 0 80 -33t33 -80q0 -49 -32.5 -82.5t-80.5 -33.5q-49 0 -82.5 33.5t-33.5 82.5z" glyph-name="divide" horiz-adv-x="882" unicode="÷"/><glyph d="M176 -102l88 180q-205 150 -205 454q0 270 154 411.5t375 141.5q86 0 160 -20l59 119h192l-94 -193q211 -150 211 -459q0 -270 -154.5 -411t-373.5 -141q-84 0 -168 22l-51 -104h-193zM305 532q0 -150 68 -235l276 563q-31 6 -61 6q-125 0 -204 -84t-79 -250zM520 205 q31 -6 68 -6q123 0 201.5 84t78.5 249q0 156 -71 240z" glyph-name="oslash" horiz-adv-x="1173" unicode="ø"/><glyph d="M373 457q0 -260 217 -260q113 0 180.5 66.5t67.5 193.5v608h262v-1065h-262v219h-9q-18 -88 -107 -163.5t-241 -75.5q-166 0 -268 104t-102 311v670h262v-608zM301 1470h229l213 -280h-229z" glyph-name="ugrave" unicode="ù"/><glyph d="M373 457q0 -260 217 -260q113 0 180.5 66.5t67.5 193.5v608h262v-1065h-262v219h-9q-18 -88 -107 -163.5t-241 -75.5q-166 0 -268 104t-102 311v670h262v-608zM477 1190l213 280h230l-213 -280h-230z" glyph-name="uacute" unicode="ú"/><glyph d="M373 457q0 -260 217 -260q113 0 180.5 66.5t67.5 193.5v608h262v-1065h-262v219h-9q-18 -88 -107 -163.5t-241 -75.5q-166 0 -268 104t-102 311v670h262v-608zM215 1190l201 280h364l201 -280h-236l-147 209l-147 -209h-236z" glyph-name="ucircumflex" unicode="û"/><glyph d="M373 457q0 -260 217 -260q113 0 180.5 66.5t67.5 193.5v608h262v-1065h-262v219h-9q-18 -88 -107 -163.5t-241 -75.5q-166 0 -268 104t-102 311v670h262v-608zM217 1358q0 61 44 103t103.5 42t103.5 -42t44 -103q0 -59 -44 -101.5t-103.5 -42.5t-103.5 42.5t-44 101.5z M680 1358q0 61 44 103t103.5 42t103.5 -42t44 -103q0 -59 -44 -101.5t-103.5 -42.5t-103.5 42.5t-44 101.5z" glyph-name="udieresis" unicode="ü"/><glyph d="M145 -182q225 -31 287 123q29 72 0 143l-393 981h268l273 -737l274 737h270l-442 -1094q-94 -231 -212 -315t-325 -62v224zM457 1190l213 280h229l-213 -280h-229z" glyph-name="yacute" horiz-adv-x="1161" unicode="ý"/><glyph d="M111 -389v1823h262v-525q37 78 127 127t202 49q190 0 329.5 -140t139.5 -412.5t-139 -412.5t-330 -140q-113 0 -202.5 49t-126.5 127v-545h-262zM360 532.5q0 -161.5 82 -247.5t199 -86q119 0 202 86t83 247.5t-83 247.5t-202 86q-117 0 -199 -86t-82 -247.5z" glyph-name="thorn" horiz-adv-x="1230" unicode="þ"/><glyph d="M145 -182q225 -31 287 123q29 72 0 143l-393 981h268l273 -737l274 737h270l-442 -1094q-94 -231 -212 -315t-325 -62v224zM199 1358q0 61 44 103t103.5 42t103.5 -42t44 -103q0 -59 -44 -101.5t-103.5 -42.5t-103.5 42.5t-44 101.5zM662 1358q0 61 44 103t103 42 t103 -42t44 -103q0 -59 -44 -101.5t-103 -42.5t-103 42.5t-44 101.5z" glyph-name="ydieresis" horiz-adv-x="1161" unicode="ÿ"/><glyph d="M39 0l526 1434h344l527 -1434h-285l-102 293h-625l-102 -293h-283zM412 1686v153h653v-153h-653zM496 494h483l-234 663h-16z" glyph-name="Amacron" horiz-adv-x="1472" unicode="Ā"/><glyph d="M401 -20q-147 0 -244.5 74.5t-97.5 224.5q0 80 29 137t84 92t114.5 53.5t141.5 28.5l199 26q80 10 107.5 29t27.5 60v22q0 168 -193 168q-207 0 -207 -156v-20l-245 -2v47q0 322 458 321q233 0 339 -85t106 -263v-737h-252v190h-10q-16 -41 -49 -82.5t-116 -84.5 t-192 -43zM246 1317v153h653v-153h-653zM322 301q0 -131 165 -131q119 0 197 63.5t78 135.5v135q-18 -31 -125 -45l-170 -27q-145 -22 -145 -131z" glyph-name="amacron" horiz-adv-x="1128" unicode="ā"/><glyph d="M39 0l526 1434h344l527 -1434h-285l-102 293h-625l-102 -293h-283zM418 1839h174q4 -76 38 -111.5t107.5 -35.5t107.5 35.5t38 111.5h174q0 -139 -81 -220t-239 -81q-156 0 -237.5 81t-81.5 220zM496 494h483l-234 663h-16z" glyph-name="Abreve" horiz-adv-x="1472" unicode="Ă"/><glyph d="M401 -20q-147 0 -244.5 74.5t-97.5 224.5q0 80 29 137t84 92t114.5 53.5t141.5 28.5l199 26q80 10 107.5 29t27.5 60v22q0 168 -193 168q-207 0 -207 -156v-20l-245 -2v47q0 322 458 321q233 0 339 -85t106 -263v-737h-252v190h-10q-16 -41 -49 -82.5t-116 -84.5 t-192 -43zM254 1470h174q4 -76 38 -111.5t107.5 -35.5t107.5 36t38 111h174q0 -139 -81 -220t-239 -81q-156 0 -237.5 81t-81.5 220zM322 301q0 -131 165 -131q119 0 197 63.5t78 135.5v135q-18 -31 -125 -45l-170 -27q-145 -22 -145 -131z" glyph-name="abreve" horiz-adv-x="1128" unicode="ă"/><glyph d="M39 0l526 1434h344l527 -1434q-123 0 -188.5 -45t-65.5 -111q0 -55 45 -79.5t108 -6.5v-147q-37 -18 -96 -13t-115.5 22.5t-97.5 68.5t-41 125q0 156 154 223l-90 256h-625l-102 -293h-283zM496 494h483l-234 663h-16z" glyph-name="Aogonek" horiz-adv-x="1472" unicode="Ą"/><glyph d="M401 -20q-147 0 -244.5 74.5t-97.5 224.5q0 80 29 137t84 92t114.5 53.5t141.5 28.5l199 26q80 10 107.5 29t27.5 60v22q0 168 -193 168q-207 0 -207 -156v-20l-245 -2v47q0 322 458 321q233 0 339 -85t106 -263v-737q-123 0 -188.5 -45t-65.5 -111q0 -55 45 -79.5 t109 -6.5v-147q-37 -18 -96.5 -13t-116 22.5t-97.5 68.5t-41 125q0 92 56.5 153.5t142.5 83.5v139h-10q-16 -41 -49 -82.5t-116 -84.5t-192 -43zM322 301q0 -131 165 -131q119 0 197 63.5t78 135.5v135q-18 -31 -125 -45l-170 -27q-145 -22 -145 -131z" glyph-name="aogonek" horiz-adv-x="1128" unicode="ą"/><glyph d="M745 -20q-307 0 -486 194.5t-179 542.5q0 346 180 540.5t488 194.5q242 0 401.5 -125t183.5 -371h-262q-31 131 -118 197t-212 66q-190 0 -288.5 -136.5t-98.5 -365.5q0 -231 97.5 -367.5t289.5 -136.5q125 0 212 65.5t118 198.5h262q-25 -246 -184.5 -371.5 t-403.5 -125.5zM631 1559l213 280h229l-213 -280h-229z" glyph-name="Cacute" horiz-adv-x="1394" unicode="Ć"/><glyph d="M590 -20q-221 0 -376 138t-155 412q0 141 45.5 251t121 174.5t167.5 97t197 32.5q78 0 149.5 -18t143 -61t121 -130.5t63.5 -209.5h-238q-37 199 -241 198q-135 0 -209 -90t-74 -243.5t74 -241.5t209 -88q205 0 241 200h238q-10 -98 -45 -174.5t-83 -122t-110.5 -75 t-120 -39.5t-118.5 -10zM449 1190l213 280h229l-213 -280h-229z" glyph-name="cacute" horiz-adv-x="1128" unicode="ć"/><glyph d="M745 -20q-307 0 -486 194.5t-179 542.5q0 346 180 540.5t488 194.5q242 0 401.5 -125t183.5 -371h-262q-31 131 -118 197t-212 66q-190 0 -288.5 -136.5t-98.5 -365.5q0 -231 97.5 -367.5t289.5 -136.5q125 0 212 65.5t118 198.5h262q-25 -246 -184.5 -371.5 t-403.5 -125.5zM373 1559l200 280h365l201 -280h-236l-147 208l-148 -208h-235z" glyph-name="Ccircumflex" horiz-adv-x="1394" unicode="Ĉ"/><glyph d="M590 -20q-221 0 -376 138t-155 412q0 141 45.5 251t121 174.5t167.5 97t197 32.5q78 0 149.5 -18t143 -61t121 -130.5t63.5 -209.5h-238q-37 199 -241 198q-135 0 -209 -90t-74 -243.5t74 -241.5t209 -88q205 0 241 200h238q-10 -98 -45 -174.5t-83 -122t-110.5 -75 t-120 -39.5t-118.5 -10zM190 1190l201 280h365l200 -280h-235l-148 209l-147 -209h-236z" glyph-name="ccircumflex" horiz-adv-x="1128" unicode="ĉ"/><glyph d="M745 -20q-307 0 -486 194.5t-179 542.5q0 346 180 540.5t488 194.5q242 0 401.5 -125t183.5 -371h-262q-31 131 -118 197t-212 66q-190 0 -288.5 -136.5t-98.5 -365.5q0 -231 97.5 -367.5t289.5 -136.5q125 0 212 65.5t118 198.5h262q-25 -246 -184.5 -371.5 t-403.5 -125.5zM610 1726q0 61 44 103.5t103.5 42.5t103.5 -42t44 -104q0 -59 -44 -101t-103.5 -42t-103.5 42t-44 101z" glyph-name="Cdotaccent" horiz-adv-x="1394" unicode="Ċ"/><glyph d="M590 -20q-221 0 -376 138t-155 412q0 141 45.5 251t121 174.5t167.5 97t197 32.5q78 0 149.5 -18t143 -61t121 -130.5t63.5 -209.5h-238q-37 199 -241 198q-135 0 -209 -90t-74 -243.5t74 -241.5t209 -88q205 0 241 200h238q-10 -98 -45 -174.5t-83 -122t-110.5 -75 t-120 -39.5t-118.5 -10zM428 1358q0 61 44 103t103.5 42t103.5 -42t44 -103q0 -59 -44 -101.5t-103.5 -42.5t-103.5 42.5t-44 101.5z" glyph-name="cdotaccent" horiz-adv-x="1128" unicode="ċ"/><glyph d="M745 -20q-307 0 -486 194.5t-179 542.5q0 346 180 540.5t488 194.5q242 0 401.5 -125t183.5 -371h-262q-31 131 -118 197t-212 66q-190 0 -288.5 -136.5t-98.5 -365.5q0 -231 97.5 -367.5t289.5 -136.5q125 0 212 65.5t118 198.5h262q-25 -246 -184.5 -371.5 t-403.5 -125.5zM360 1837h236l147 -209l148 209h235l-200 -281h-365z" glyph-name="Ccaron" horiz-adv-x="1394" unicode="Č"/><glyph d="M590 -20q-221 0 -376 138t-155 412q0 141 45.5 251t121 174.5t167.5 97t197 32.5q78 0 149.5 -18t143 -61t121 -130.5t63.5 -209.5h-238q-37 199 -241 198q-135 0 -209 -90t-74 -243.5t74 -241.5t209 -88q205 0 241 200h238q-10 -98 -45 -174.5t-83 -122t-110.5 -75 t-120 -39.5t-118.5 -10zM178 1468h236l147 -208l148 208h235l-201 -280h-364z" glyph-name="ccaron" horiz-adv-x="1128" unicode="č"/><glyph d="M111 0v1434h520q334 0 506 -185.5t172 -531.5t-172 -531.5t-506 -185.5h-520zM287 1837h235l148 -209l147 209h236l-201 -281h-365zM379 236h225q231 0 330.5 113.5t99.5 367.5t-99 367.5t-331 113.5h-225v-962z" glyph-name="Dcaron" horiz-adv-x="1388" unicode="Ď"/><glyph d="M528 -20q-190 0 -329.5 140t-139.5 412.5t139.5 412.5t329.5 140q115 0 203 -48t127 -126v523h262v-1434h-262v154q-39 -78 -127 -126t-203 -48zM305 532.5q0 -161.5 83 -247.5t202 -86q117 0 198.5 86t81.5 247.5t-81.5 247.5t-198.5 86q-119 0 -202 -86t-83 -247.5z M1182 1153l213 281h229l-213 -281h-229z" glyph-name="dcaron" horiz-adv-x="1325" unicode="ď"/><glyph d="M174 0v608h-133v197h133v629h520q334 0 506 -185.5t172 -531.5t-172 -531.5t-506 -185.5h-520zM442 236h226q231 0 330.5 113.5t99.5 367.5t-99.5 367.5t-330.5 113.5h-226v-393h211v-197h-211v-372z" glyph-name="Dcroat" horiz-adv-x="1452" unicode="Đ"/><glyph d="M555 1212v119h303v103h262v-103h127v-119h-127v-1212h-262v154q-39 -78 -127 -126t-203 -48q-190 0 -329.5 140t-139.5 412.5t139.5 412.5t329.5 140q115 0 203 -48t127 -126v301h-303zM305 532.5q0 -161.5 83 -247.5t202 -86q117 0 198.5 86t81.5 247.5t-81.5 247.5 t-198.5 86q-119 0 -202 -86t-83 -247.5z" glyph-name="dcroat" horiz-adv-x="1292" unicode="đ"/><glyph d="M111 0v1434h960v-236h-692v-364h631v-211h-631v-387h713v-236h-981zM283 1686v153h653v-153h-653z" glyph-name="Emacron" horiz-adv-x="1148" unicode="Ē"/><glyph d="M586 -20q-227 0 -377 137t-150 418q0 279 147.5 414.5t375.5 135.5q223 0 361 -132t138 -408q0 -45 -6 -80h-768q23 -285 285 -285q195 0 242 154h233q-41 -176 -169 -265t-312 -89zM244 1317v153h653v-153h-653zM309 625h525q-4 119 -69 189.5t-187 70.5 q-117 0 -186 -65.5t-83 -194.5z" glyph-name="emacron" horiz-adv-x="1138" unicode="ē"/><glyph d="M111 0v1434h960v-236h-692v-364h631v-211h-631v-387h713v-236h-981zM463 1726q0 61 44 103.5t103.5 42.5t103.5 -42t44 -104q0 -59 -44 -101t-103.5 -42t-103.5 42t-44 101z" glyph-name="Edotaccent" horiz-adv-x="1148" unicode="Ė"/><glyph d="M586 -20q-227 0 -377 137t-150 418q0 279 147.5 414.5t375.5 135.5q223 0 361 -132t138 -408q0 -45 -6 -80h-768q23 -285 285 -285q195 0 242 154h233q-41 -176 -169 -265t-312 -89zM309 625h525q-4 119 -69 189.5t-187 70.5q-117 0 -186 -65.5t-83 -194.5zM426 1358 q0 61 44 103t103.5 42t103.5 -42t44 -103q0 -59 -44 -101.5t-103.5 -42.5t-103.5 42.5t-44 101.5z" glyph-name="edotaccent" horiz-adv-x="1138" unicode="ė"/><glyph d="M111 0v1434h960v-236h-692v-364h631v-211h-631v-387h713v-236q-123 0 -188.5 -45t-65.5 -111q0 -55 45 -79.5t108 -6.5v-147q-37 -18 -96 -13t-115.5 22.5t-97.5 68.5t-41 125q0 115 92 186h-622z" glyph-name="Eogonek" horiz-adv-x="1148" unicode="Ę"/><glyph d="M733 -389q-37 -18 -97.5 -13t-116.5 22.5t-97 68.5t-41 125q0 109 82 176q-180 35 -292 170t-112 375q0 279 147.5 414.5t375.5 135.5q223 0 361 -132t138 -408q0 -45 -6 -80h-768q23 -285 285 -285q195 0 242 154h233q-66 -274 -336 -338l4 -4q-76 -16 -116.5 -57 t-40.5 -91q0 -55 45 -79.5t110 -6.5v-147zM309 625h525q-4 119 -69 189.5t-187 70.5q-117 0 -186 -65.5t-83 -194.5z" glyph-name="eogonek" horiz-adv-x="1138" unicode="ę"/><glyph d="M111 0v1434h960v-236h-692v-364h631v-211h-631v-387h713v-236h-981zM213 1837h236l147 -209l147 209h236l-201 -281h-364z" glyph-name="Ecaron" horiz-adv-x="1148" unicode="Ě"/><glyph d="M586 -20q-227 0 -377 137t-150 418q0 279 147.5 414.5t375.5 135.5q223 0 361 -132t138 -408q0 -45 -6 -80h-768q23 -285 285 -285q195 0 242 154h233q-41 -176 -169 -265t-312 -89zM174 1468h236l147 -208l148 208h235l-201 -280h-364zM309 625h525q-4 119 -69 189.5 t-187 70.5q-117 0 -186 -65.5t-83 -194.5z" glyph-name="ecaron" horiz-adv-x="1138" unicode="ě"/><glyph d="M743 -20q-315 0 -489 192.5t-174 538.5q0 352 178 546.5t481 194.5q231 0 393 -114.5t197 -333.5h-268q-59 215 -322 215q-197 0 -293 -134.5t-96 -366t98.5 -368.5t294.5 -137q150 0 250.5 84t100.5 260h-299v217h567v-135q0 -322 -162 -490.5t-457 -168.5zM354 1559 l201 280h365l200 -280h-235l-148 208l-147 -208h-236z" glyph-name="Gcircumflex" horiz-adv-x="1449" unicode="Ĝ"/><glyph d="M514 27q-188 0 -321.5 131t-133.5 397t134.5 398t320.5 132q111 0 198 -43t134 -116v139h262v-1032q0 -111 -36 -195t-90 -133t-129 -81t-142.5 -42t-141.5 -10q-84 0 -160.5 15.5t-153.5 51t-124 110.5t-47 179h231q4 -76 77 -114.5t171 -38.5q125 0 204 64.5t79 193.5 v153q-47 -74 -134 -116.5t-198 -42.5zM207 1190l201 280h364l201 -280h-236l-147 209l-148 -209h-235zM305 555q0 -150 80 -230.5t196.5 -80.5t195.5 81t79 230q0 152 -79 231.5t-195.5 79.5t-196.5 -79.5t-80 -231.5z" glyph-name="gcircumflex" horiz-adv-x="1216" unicode="ĝ"/><glyph d="M743 -20q-315 0 -489 192.5t-174 538.5q0 352 178 546.5t481 194.5q231 0 393 -114.5t197 -333.5h-268q-59 215 -322 215q-197 0 -293 -134.5t-96 -366t98.5 -368.5t294.5 -137q150 0 250.5 84t100.5 260h-299v217h567v-135q0 -322 -162 -490.5t-457 -168.5zM418 1839 h174q4 -76 38 -111.5t107.5 -35.5t107.5 35.5t38 111.5h174q0 -139 -81 -220t-239 -81q-156 0 -237.5 81t-81.5 220z" glyph-name="Gbreve" horiz-adv-x="1449" unicode="Ğ"/><glyph d="M514 27q-188 0 -321.5 131t-133.5 397t134.5 398t320.5 132q111 0 198 -43t134 -116v139h262v-1032q0 -111 -36 -195t-90 -133t-129 -81t-142.5 -42t-141.5 -10q-84 0 -160.5 15.5t-153.5 51t-124 110.5t-47 179h231q4 -76 77 -114.5t171 -38.5q125 0 204 64.5t79 193.5 v153q-47 -74 -134 -116.5t-198 -42.5zM270 1470h174q4 -76 38 -111.5t108 -35.5t107.5 36t37.5 111h174q0 -139 -80.5 -220t-238.5 -81q-156 0 -238 81t-82 220zM305 555q0 -150 80 -230.5t196.5 -80.5t195.5 81t79 230q0 152 -79 231.5t-195.5 79.5t-196.5 -79.5 t-80 -231.5z" glyph-name="gbreve" horiz-adv-x="1216" unicode="ğ"/><glyph d="M743 -20q-315 0 -489 192.5t-174 538.5q0 352 178 546.5t481 194.5q231 0 393 -114.5t197 -333.5h-268q-59 215 -322 215q-197 0 -293 -134.5t-96 -366t98.5 -368.5t294.5 -137q150 0 250.5 84t100.5 260h-299v217h567v-135q0 -322 -162 -490.5t-457 -168.5zM592 1726 q0 61 44 103.5t103.5 42.5t103.5 -42t44 -104q0 -59 -44 -101t-103.5 -42t-103.5 42t-44 101z" glyph-name="Gdotaccent" horiz-adv-x="1449" unicode="Ġ"/><glyph d="M514 27q-188 0 -321.5 131t-133.5 397t134.5 398t320.5 132q111 0 198 -43t134 -116v139h262v-1032q0 -111 -36 -195t-90 -133t-129 -81t-142.5 -42t-141.5 -10q-84 0 -160.5 15.5t-153.5 51t-124 110.5t-47 179h231q4 -76 77 -114.5t171 -38.5q125 0 204 64.5t79 193.5 v153q-47 -74 -134 -116.5t-198 -42.5zM305 555q0 -150 80 -230.5t196.5 -80.5t195.5 81t79 230q0 152 -79 231.5t-195.5 79.5t-196.5 -79.5t-80 -231.5zM444 1358q0 61 44 103t103.5 42t103.5 -42t44 -103q0 -59 -44 -101.5t-103.5 -42.5t-103.5 42.5t-44 101.5z" glyph-name="gdotaccent" horiz-adv-x="1216" unicode="ġ"/><glyph d="M743 -20q-315 0 -489 192.5t-174 538.5q0 352 178 546.5t481 194.5q231 0 393 -114.5t197 -333.5h-268q-59 215 -322 215q-197 0 -293 -134.5t-96 -366t98.5 -368.5t294.5 -137q150 0 250.5 84t100.5 260h-299v217h567v-135q0 -322 -162 -490.5t-457 -168.5zM586 -217 q0 68 45 111t114 43q82 0 133.5 -60.5t51.5 -181.5q0 -145 -77 -228t-204 -83h-20v110q80 2 114.5 33t34.5 94q-90 0 -141 46t-51 116z" glyph-name="Gcommaaccent" horiz-adv-x="1449" unicode="Ģ"/><glyph d="M514 27q-188 0 -321.5 131t-133.5 397t134.5 398t320.5 132q111 0 198 -43t134 -116v139h262v-1032q0 -111 -36 -195t-90 -133t-129 -81t-142.5 -42t-141.5 -10q-84 0 -160.5 15.5t-153.5 51t-124 110.5t-47 179h231q4 -76 77 -114.5t171 -38.5q125 0 204 64.5t79 193.5 v153q-47 -74 -134 -116.5t-198 -42.5zM305 555q0 -150 80 -230.5t196.5 -80.5t195.5 81t79 230q0 152 -79 231.5t-195.5 79.5t-196.5 -79.5t-80 -231.5zM381 1405q0 145 77 228t204 83h20v-110q-80 -2 -115 -33t-35 -94q90 0 141.5 -46.5t51.5 -115.5q0 -68 -45 -111 t-115 -43q-82 0 -133 60.5t-51 181.5z" glyph-name="gcommaaccent" horiz-adv-x="1216" unicode="ģ"/><glyph d="M993 0v600h-614v-600h-268v1434h268v-611h614v611h269v-1434h-269zM305 1559l201 280h364l201 -280h-235l-148 208l-147 -208h-236z" glyph-name="Hcircumflex" horiz-adv-x="1372" unicode="Ĥ"/><glyph d="M111 0v1434h262v-15l37 51h364l201 -280h-236l-147 209l-148 -209h-71v-344h8q18 88 107.5 163.5t240.5 75.5q166 0 268.5 -104t102.5 -311v-670h-262v608q0 260 -217 260q-113 0 -180.5 -66.5t-67.5 -193.5v-608h-262z" glyph-name="hcircumflex" unicode="ĥ"/><glyph d="M993 0v600h-614v-600h-268v1434h268v-248h614v248h269v-1434h-269zM379 823h614v140h-614v-140z" glyph-name="Hbar" horiz-adv-x="1372" unicode="Ħ"/><glyph d="M-25 1212v119h136v103h262v-103h297v-119h-297v-366h8q18 88 107.5 163.5t240.5 75.5q166 0 268.5 -104t102.5 -311v-670h-262v608q0 260 -217 260q-113 0 -180.5 -66.5t-67.5 -193.5v-608h-262v1212h-136z" glyph-name="hbar" horiz-adv-x="1208" unicode="ħ"/><glyph d="M111 0v1434h268v-1434h-268zM-104 1636q0 106 51 166t145 60q51 0 95 -18.5t68 -42t51.5 -42t54 -18.5t49 18.5t24.5 48.5h156q0 -106 -51.5 -165.5t-145.5 -59.5q-51 0 -95 18.5t-67.5 42t-51 42t-54.5 18.5t-49.5 -18.5t-24.5 -49.5h-155z" glyph-name="Itilde" horiz-adv-x="487" unicode="Ĩ"/><glyph d="M92 0v1065h262v-1065h-262zM-123 1268q0 106 51.5 165.5t145.5 59.5q51 0 95 -18.5t67.5 -42t51 -42t54.5 -18.5t49.5 18.5t24.5 49.5h155q0 -106 -51 -166t-145 -60q-51 0 -95 18.5t-68 42t-51.5 42t-54 18.5t-49 -18.5t-24.5 -48.5h-156z" glyph-name="itilde" horiz-adv-x="448" unicode="ĩ"/><glyph d="M111 0v1434h268v-1434h-268zM-84 1686v153h653v-153h-653z" glyph-name="Imacron" horiz-adv-x="487" unicode="Ī"/><glyph d="M92 0v1065h262v-1065h-262zM-102 1317v153h653v-153h-653z" glyph-name="imacron" horiz-adv-x="448" unicode="ī"/><glyph d="M279 -389q-37 -18 -96.5 -13t-116 22.5t-97.5 68.5t-41 125q0 86 52.5 147.5t130.5 85.5v1387h268v-1434q-123 0 -188.5 -45t-65.5 -111q0 -55 45 -79.5t109 -6.5v-147z" glyph-name="Iogonek" horiz-adv-x="487" unicode="Į"/><glyph d="M227.5 1214q-59.5 0 -103.5 42t-44 102q0 61 44 103t103.5 42t103.5 -42t44 -103q0 -59 -44 -101.5t-103.5 -42.5zM-96 -186q0 90 53 150.5t135 84.5v1016h262v-1065q-123 0 -188.5 -45t-65.5 -111q0 -55 45 -79.5t109 -6.5v-147q-37 -18 -96.5 -13t-115.5 22.5t-97 68.5 t-41 125z" glyph-name="iogonek" horiz-adv-x="448" unicode="į"/><glyph d="M111 0v1434h268v-1434h-268zM98 1726q0 61 44 103.5t103.5 42.5t103.5 -42t44 -104q0 -59 -44 -101t-103.5 -42t-103.5 42t-44 101z" glyph-name="Idotaccent" horiz-adv-x="487" unicode="İ"/><glyph d="M92 0v1065h262v-1065h-262z" glyph-name="dotlessi" horiz-adv-x="448" unicode="ı"/><glyph d="M111 0v1434h268v-1434h-268zM598 543h270q0 -162 80 -245t223 -83q145 0 225.5 87t80.5 261v871h268v-893q0 -272 -155.5 -416.5t-420.5 -144.5q-266 0 -418.5 143.5t-152.5 419.5z" glyph-name="IJ" horiz-adv-x="1855" unicode="Ĳ"/><glyph d="M111 0v1065h262v-1065h-262zM92 1361.5q0 61.5 44 104.5t106 43q59 0 103 -43t44 -104.5t-44 -104.5t-103 -43q-61 0 -105.5 43t-44.5 104.5zM373 -389v205h94q72 0 101.5 35.5t29.5 107.5v1106h262v-1147q0 -313 -330 -313q-104 0 -157 6zM582 1361.5q0 61.5 44 104.5 t103 43t103.5 -43t44.5 -104.5t-44.5 -104.5t-103.5 -43t-103 43t-44 104.5z" glyph-name="ij" horiz-adv-x="970" unicode="ĳ"/><glyph d="M682 -20q-266 0 -418.5 143t-152.5 420h270q0 -162 80 -245t223 -83q145 0 225 87t80 261v871h268v-893q0 -272 -155.5 -416.5t-419.5 -144.5zM748 1559l200 280h365l200 -280h-235l-148 208l-147 -208h-235z" glyph-name="Jcircumflex" horiz-adv-x="1368" unicode="Ĵ"/><glyph d="M70 -395q-104 0 -158 6v205h94q72 0 101.5 35.5t29.5 107.5v1106h262v-1147q1 -313 -329 -313zM-117 1190l201 280h365l200 -280h-235l-148 209l-147 -209h-236z" glyph-name="jcircumflex" horiz-adv-x="491" unicode="ĵ"/><glyph d="M111 0v1434h268v-709l610 709h318l-559 -646l614 -788h-311l-469 598l-203 -236v-362h-268zM535 -217q0 68 45 111t114 43q82 0 133.5 -60.5t51.5 -181.5q0 -145 -77 -228t-204 -83h-20v110q80 2 114.5 33t34.5 94q-90 0 -141 46t-51 116z" glyph-name="Kcommaaccent" horiz-adv-x="1398" unicode="Ķ"/><glyph d="M111 0v1434h262v-846l434 477h291l-436 -457l493 -608h-291l-362 442l-129 -135v-307h-262zM444 -217q0 68 45.5 111t114.5 43q82 0 133 -60.5t51 -181.5q0 -145 -76.5 -228t-203.5 -83h-21v110q80 2 115 33t35 94q-90 0 -141.5 46t-51.5 116z" glyph-name="kcommaaccent" horiz-adv-x="1171" unicode="ķ"/><glyph d="M111 0v1434h268v-1198h680v-236h-948zM117 1559l213 280h229l-213 -280h-229z" glyph-name="Lacute" horiz-adv-x="1116" unicode="Ĺ"/><glyph d="M111 0v1434h262v-1434h-262zM117 1559l213 280h229l-213 -280h-229z" glyph-name="lacute" horiz-adv-x="481" unicode="ĺ"/><glyph d="M111 0v1434h268v-1198h680v-236h-948zM414 -227q0 68 45 110.5t114 42.5q82 0 133.5 -60.5t51.5 -180.5q0 -145 -77 -228.5t-204 -83.5h-20v111q80 2 114.5 32.5t34.5 94.5q-90 0 -141 46t-51 116z" glyph-name="Lcommaaccent" horiz-adv-x="1116" unicode="Ļ"/><glyph d="M111 0v1434h262v-1434h-262zM74 -217q0 68 45 111t114 43q82 0 133.5 -60.5t51.5 -181.5q0 -145 -77 -228t-204 -83h-20v110q80 2 114.5 33t34.5 94q-90 0 -141 46t-51 116z" glyph-name="lcommaaccent" horiz-adv-x="481" unicode="ļ"/><glyph d="M111 0v1434h268v-1198h680v-236h-948zM575 1298q0 68 45.5 111t114.5 43q82 0 133.5 -60.5t51.5 -181.5q0 -145 -77 -228t-204 -83h-21v111q80 2 115 32.5t35 94.5q-90 0 -141.5 45.5t-51.5 115.5z" glyph-name="Lcaron" horiz-adv-x="1116" unicode="Ľ"/><glyph d="M461 858l84 576h213l-84 -576h-213zM111 0v1434h262v-1434h-262z" glyph-name="lcaron" horiz-adv-x="614" unicode="ľ"/><glyph d="M29 287v264l129 137v746h268v-461l178 190h4v-262l-182 -192v-473h680v-236h-948v424z" glyph-name="Lslash" horiz-adv-x="1163" unicode="Ł"/><glyph d="M10 315v244l121 143v732h262v-422l113 133h2v-242l-115 -135v-768h-262v459z" glyph-name="lslash" horiz-adv-x="518" unicode="ł"/><glyph d="M111 0v1434h282l627 -1006h6v1006h270v-1434h-295l-616 989h-6v-989h-268zM580 1559l213 280h229l-213 -280h-229z" glyph-name="Nacute" horiz-adv-x="1404" unicode="Ń"/><glyph d="M838 608q0 260 -217 260q-113 0 -180.5 -66.5t-67.5 -193.5v-608h-262v1065h262v-219h8q18 88 107.5 163.5t240.5 75.5q166 0 268.5 -104t102.5 -311v-670h-262v608zM483 1190l213 280h230l-213 -280h-230z" glyph-name="nacute" unicode="ń"/><glyph d="M111 0v1434h282l627 -1006h6v1006h270v-1434h-295l-616 989h-6v-989h-268zM537 -217q0 68 45 111t114 43q82 0 133.5 -60.5t51.5 -181.5q0 -145 -77 -228t-204 -83h-20v110q80 2 114.5 33t34.5 94q-90 0 -141 46t-51 116z" glyph-name="Ncommaaccent" horiz-adv-x="1404" unicode="Ņ"/><glyph d="M838 608q0 260 -217 260q-113 0 -180.5 -66.5t-67.5 -193.5v-608h-262v1065h262v-219h8q18 88 107.5 163.5t240.5 75.5q166 0 268.5 -104t102.5 -311v-670h-262v608zM440 -217q0 68 45 111t115 43q82 0 133 -60.5t51 -181.5q0 -145 -76.5 -228t-203.5 -83h-21v110 q80 2 115 33t35 94q-90 0 -141.5 46t-51.5 116z" glyph-name="ncommaaccent" unicode="ņ"/><glyph d="M111 0v1434h282l627 -1006h6v1006h270v-1434h-295l-616 989h-6v-989h-268zM309 1837h236l147 -209l148 209h235l-201 -281h-364z" glyph-name="Ncaron" horiz-adv-x="1404" unicode="Ň"/><glyph d="M838 608q0 260 -217 260q-113 0 -180.5 -66.5t-67.5 -193.5v-608h-262v1065h262v-219h8q18 88 107.5 163.5t240.5 75.5q166 0 268.5 -104t102.5 -311v-670h-262v608zM211 1468h235l148 -208l147 208h236l-201 -280h-364z" glyph-name="ncaron" unicode="ň"/><glyph d="M727 -451q-158 0 -262 54v245q119 -63 252 -63q233 0 293 213l-625 983h-6v-981h-268v1434h274l635 -1000h6v1000h270v-1321q0 -272 -155.5 -418t-413.5 -146z" glyph-name="Eng" horiz-adv-x="1404" unicode="Ŋ"/><glyph d="M791 -451q-127 0 -211 39v213q80 -27 143 -26q119 0 119 135v90h-4v608q0 260 -217 260q-113 0 -180.5 -66.5t-67.5 -193.5v-608h-262v1065h262v-219h8q18 88 107.5 163.5t240.5 75.5q166 0 268.5 -104t102.5 -311v-670h4v-131q0 -160 -83 -240t-230 -80z" glyph-name="eng" horiz-adv-x="1212" unicode="ŋ"/><glyph d="M754 -20q-303 0 -488.5 201.5t-185.5 535.5q0 336 185.5 535.5t488.5 199.5t489.5 -199.5t186.5 -535.5q0 -334 -186.5 -535.5t-489.5 -201.5zM356 716.5q0 -235.5 106.5 -369.5t291 -134t291 134t106.5 369.5t-106.5 369t-291 133.5t-291 -133.5t-106.5 -369zM428 1686 v153h653v-153h-653z" glyph-name="Omacron" horiz-adv-x="1507" unicode="Ō"/><glyph d="M588 -20q-221 0 -375 141t-154 411.5t154 411.5t375 141q219 0 373.5 -141t154.5 -411.5t-154.5 -411.5t-373.5 -141zM260 1317v153h653v-153h-653zM305 532.5q0 -165.5 79 -249.5t204 -84q123 0 201.5 84t78.5 249.5t-78.5 249.5t-201.5 84q-125 0 -204 -84t-79 -249.5z " glyph-name="omacron" horiz-adv-x="1173" unicode="ō"/><glyph d="M754 -20q-303 0 -488.5 201.5t-185.5 535.5q0 336 185.5 535.5t488.5 199.5t489.5 -199.5t186.5 -535.5q0 -334 -186.5 -535.5t-489.5 -201.5zM356 716.5q0 -235.5 106.5 -369.5t291 -134t291 134t106.5 369.5t-106.5 369t-291 133.5t-291 -133.5t-106.5 -369zM426 1559 l213 280h229l-213 -280h-229zM776 1559l213 280h230l-213 -280h-230z" glyph-name="Ohungarumlaut" horiz-adv-x="1507" unicode="Ő"/><glyph d="M588 -20q-221 0 -375 141t-154 411.5t154 411.5t375 141q219 0 373.5 -141t154.5 -411.5t-154.5 -411.5t-373.5 -141zM260 1190l213 280h229l-213 -280h-229zM305 532.5q0 -165.5 79 -249.5t204 -84q123 0 201.5 84t78.5 249.5t-78.5 249.5t-201.5 84q-125 0 -204 -84 t-79 -249.5zM610 1190l213 280h230l-213 -280h-230z" glyph-name="ohungarumlaut" horiz-adv-x="1173" unicode="ő"/><glyph d="M754 -20q-303 0 -488.5 201.5t-185.5 535.5q0 336 185.5 535.5t488.5 199.5q236 0 403 -123v105h961v-236h-693v-364h631v-211h-631v-387h713v-236h-981v104q-170 -124 -403 -124zM356 716.5q0 -235.5 106.5 -369.5t291 -134t291 134t106.5 369.5t-106.5 369t-291 133.5 t-291 -133.5t-106.5 -369z" glyph-name="OE" horiz-adv-x="2195" unicode="Œ"/><glyph d="M588 -20q-221 0 -375 141t-154 411.5t154 411.5t375 141q256 0 403 -172q139 172 406 172q223 0 361 -132t138 -408q0 -45 -6 -80h-768q23 -285 285 -285q195 0 242 154h233q-41 -176 -169 -265t-312 -89q-264 0 -410 174q-147 -174 -403 -174zM305 532.5 q0 -165.5 79 -249.5t204 -84q123 0 201.5 84t78.5 249.5t-78.5 249.5t-201.5 84q-125 0 -204 -84t-79 -249.5zM1124 625h525q-4 119 -68.5 189.5t-187.5 70.5q-117 0 -186 -65.5t-83 -194.5z" glyph-name="oe" horiz-adv-x="1953" unicode="œ"/><glyph d="M967 0q-20 39 -21 166v153q0 217 -241 218h-326v-537h-268v1434h587q258 0 386 -115t128 -301q0 -256 -231 -356q129 -41 180 -125t51 -218v-153q0 -123 21 -166h-266zM379 754h309q121 0 185.5 59t64.5 168q0 217 -250 217h-309v-444zM465 1559l213 280h229l-213 -280 h-229z" glyph-name="Racute" horiz-adv-x="1333" unicode="Ŕ"/><glyph d="M373 496v-496h-262v1065h262v-254h6q29 117 108.5 189.5t206.5 72.5q47 0 82 -10v-221q-47 6 -82 6q-141 0 -231 -87t-90 -265zM317 1190l213 280h230l-213 -280h-230z" glyph-name="racute" horiz-adv-x="813" unicode="ŕ"/><glyph d="M967 0q-20 39 -21 166v153q0 217 -241 218h-326v-537h-268v1434h587q258 0 386 -115t128 -301q0 -256 -231 -356q129 -41 180 -125t51 -218v-153q0 -123 21 -166h-266zM379 754h309q121 0 185.5 59t64.5 168q0 217 -250 217h-309v-444zM422 -217q0 68 45 111t115 43 q82 0 133 -60.5t51 -181.5q0 -145 -77 -228t-204 -83h-20v110q80 2 114.5 33t34.5 94q-90 0 -141 46t-51 116z" glyph-name="Rcommaaccent" horiz-adv-x="1333" unicode="Ŗ"/><glyph d="M373 496v-496h-262v1065h262v-254h6q29 117 108.5 189.5t206.5 72.5q47 0 82 -10v-221q-47 6 -82 6q-141 0 -231 -87t-90 -265zM78 -217q0 68 45 111t115 43q82 0 133 -60.5t51 -181.5q0 -145 -77 -228t-204 -83h-20v110q80 2 114.5 33t34.5 94q-90 0 -141 46t-51 116z " glyph-name="rcommaaccent" horiz-adv-x="813" unicode="ŗ"/><glyph d="M967 0q-20 39 -21 166v153q0 217 -241 218h-326v-537h-268v1434h587q258 0 386 -115t128 -301q0 -256 -231 -356q129 -41 180 -125t51 -218v-153q0 -123 21 -166h-266zM193 1837h235l147 -209l148 209h235l-200 -281h-365zM379 754h309q121 0 185.5 59t64.5 168 q0 217 -250 217h-309v-444z" glyph-name="Rcaron" horiz-adv-x="1333" unicode="Ř"/><glyph d="M373 496v-496h-262v1065h262v-254h6q29 117 108.5 189.5t206.5 72.5q47 0 82 -10v-221q-47 6 -82 6q-141 0 -231 -87t-90 -265zM45 1468h236l147 -208l147 208h236l-201 -280h-364z" glyph-name="rcaron" horiz-adv-x="813" unicode="ř"/><glyph d="M664 -20q-274 0 -429 125.5t-155 349.5h276q6 -113 82 -181.5t228 -68.5q135 0 208.5 54t73.5 153q0 84 -55 129t-168 67l-197 39q-410 80 -409 395q0 195 144.5 302.5t394 107.5t393 -110.5t143.5 -315.5h-276q0 96 -71 148.5t-196 52.5q-129 0 -189.5 -52.5 t-60.5 -132.5q0 -139 193 -180l184 -37q240 -47 347.5 -145t107.5 -266q0 -213 -156.5 -323.5t-412.5 -110.5zM520 1559l213 280h230l-213 -280h-230z" glyph-name="Sacute" horiz-adv-x="1312" unicode="Ś"/><glyph d="M502 -20q-211 0 -331 90t-122 266h234q20 -158 223 -158q193 0 192 129q0 90 -125 115l-196 43q-299 68 -299 305q0 147 116.5 231t311.5 84q203 0 313.5 -92t114.5 -262h-217q-23 156 -209 156q-176 0 -176 -113q0 -92 129 -117l203 -45q143 -33 224 -101.5t81 -197.5 q0 -168 -132 -250.5t-335 -82.5zM381 1190l213 280h229l-213 -280h-229z" glyph-name="sacute" horiz-adv-x="1015" unicode="ś"/><glyph d="M664 -20q-274 0 -429 125.5t-155 349.5h276q6 -113 82 -181.5t228 -68.5q135 0 208.5 54t73.5 153q0 84 -55 129t-168 67l-197 39q-410 80 -409 395q0 195 144.5 302.5t394 107.5t393 -110.5t143.5 -315.5h-276q0 96 -71 148.5t-196 52.5q-129 0 -189.5 -52.5 t-60.5 -132.5q0 -139 193 -180l184 -37q240 -47 347.5 -145t107.5 -266q0 -213 -156.5 -323.5t-412.5 -110.5zM260 1559l201 280h364l201 -280h-235l-148 208l-147 -208h-236z" glyph-name="Scircumflex" horiz-adv-x="1312" unicode="Ŝ"/><glyph d="M502 -20q-211 0 -331 90t-122 266h234q20 -158 223 -158q193 0 192 129q0 90 -125 115l-196 43q-299 68 -299 305q0 147 116.5 231t311.5 84q203 0 313.5 -92t114.5 -262h-217q-23 156 -209 156q-176 0 -176 -113q0 -92 129 -117l203 -45q143 -33 224 -101.5t81 -197.5 q0 -168 -132 -250.5t-335 -82.5zM123 1190l201 280h364l201 -280h-236l-147 209l-148 -209h-235z" glyph-name="scircumflex" horiz-adv-x="1015" unicode="ŝ"/><glyph d="M494 -367q63 -4 103 17.5t40 62.5q0 47 -46 63.5t-93 -12.5l-72 91l119 131q-221 27 -343 148.5t-122 320.5h276q6 -113 82 -181.5t228 -68.5q135 0 208.5 54t73.5 153q0 84 -55 129t-168 67l-197 39q-410 80 -409 395q0 195 144.5 302.5t394 107.5t393 -110.5 t143.5 -315.5h-276q0 96 -71 148.5t-196 52.5q-129 0 -189.5 -52.5t-60.5 -132.5q0 -139 193 -180l184 -37q240 -47 347.5 -145t107.5 -266q0 -203 -141.5 -312.5t-376.5 -119.5l-86 -86h18q74 0 123 -52.5t49 -132.5q0 -113 -94 -162t-231 -49v133z" glyph-name="Scedilla" horiz-adv-x="1312" unicode="Ş"/><glyph d="M362 -367q63 -4 103.5 17.5t40.5 62.5q0 47 -46 63.5t-93 -12.5l-72 91l117 129q-170 18 -265.5 107t-97.5 245h234q20 -158 223 -158q193 0 192 129q0 90 -125 115l-196 43q-299 68 -299 305q0 147 116.5 231t311.5 84q203 0 313.5 -92t114.5 -262h-217 q-23 156 -209 156q-176 0 -176 -113q0 -92 129 -117l203 -45q143 -33 224 -101.5t81 -197.5q0 -150 -105.5 -231.5t-277.5 -97.5l-88 -88h18q74 0 123 -52.5t49 -132.5q0 -113 -94 -162t-232 -49v133z" glyph-name="scedilla" horiz-adv-x="1015" unicode="ş"/><glyph d="M664 -20q-274 0 -429 125.5t-155 349.5h276q6 -113 82 -181.5t228 -68.5q135 0 208.5 54t73.5 153q0 84 -55 129t-168 67l-197 39q-410 80 -409 395q0 195 144.5 302.5t394 107.5t393 -110.5t143.5 -315.5h-276q0 96 -71 148.5t-196 52.5q-129 0 -189.5 -52.5 t-60.5 -132.5q0 -139 193 -180l184 -37q240 -47 347.5 -145t107.5 -266q0 -213 -156.5 -323.5t-412.5 -110.5zM248 1837h235l148 -209l147 209h236l-201 -281h-364z" glyph-name="Scaron" horiz-adv-x="1312" unicode="Š"/><glyph d="M502 -20q-211 0 -331 90t-122 266h234q20 -158 223 -158q193 0 192 129q0 90 -125 115l-196 43q-299 68 -299 305q0 147 116.5 231t311.5 84q203 0 313.5 -92t114.5 -262h-217q-23 156 -209 156q-176 0 -176 -113q0 -92 129 -117l203 -45q143 -33 224 -101.5t81 -197.5 q0 -168 -132 -250.5t-335 -82.5zM109 1468h235l148 -208l147 208h235l-200 -280h-365z" glyph-name="scaron" horiz-adv-x="1015" unicode="š"/><glyph d="M475 0v1194h-426v240h1120v-240h-426v-1194h-92l-104 -104h18q74 0 123 -52.5t49 -132.5q0 -113 -94 -162t-231 -49v133q63 -4 103 17.5t40 62.5q0 47 -46 63.5t-93 -12.5l-72 91z" glyph-name="Tcommaaccent" horiz-adv-x="1218" unicode="Ţ"/><glyph d="M39 860v205h178v272h262v-272h209v-205h-209v-520q0 -74 30 -108.5t109 -34.5q43 0 82 4v-197q-55 -14 -120 -18l-91 -90h19q74 0 123 -52.5t49 -132.5q0 -113 -94 -162t-232 -49v133q63 -4 103.5 17.5t40.5 62.5q0 47 -46 63.5t-94 -12.5l-71 91l131 145h6 q-207 53 -207 299v561h-178z" glyph-name="tcommaaccent" horiz-adv-x="747" unicode="ţ"/><glyph d="M475 0v1194h-426v240h1120v-240h-426v-1194h-268zM213 1837h236l147 -209l147 209h236l-201 -281h-364z" glyph-name="Tcaron" horiz-adv-x="1218" unicode="Ť"/><glyph d="M549 -14q-332 0 -332 313v561h-178v205h178v272h262v-272h209v-205h-209v-520q0 -74 30 -108.5t109 -34.5q43 0 82 4v-197q-67 -18 -151 -18zM526 1184l213 280h230l-213 -280h-230z" glyph-name="tcaron" horiz-adv-x="741" unicode="ť"/><glyph d="M186 815v180h289v199h-426v240h1120v-240h-426v-199h287v-180h-287v-815h-268v815h-289z" glyph-name="Tbar" horiz-adv-x="1218" unicode="Ŧ"/><glyph d="M39 543v202h178v115h-178v205h178v272h262v-272h209v-205h-209v-115h209v-202h-209v-203q0 -74 30 -108.5t109 -34.5q43 0 82 4v-197q-68 -18 -151 -18q-332 0 -332 313v244h-178z" glyph-name="tbar" horiz-adv-x="747" unicode="ŧ"/><glyph d="M690 -20q-268 0 -423.5 144t-155.5 419v891h270v-871q0 -170 81 -259t228.5 -89t227 89t79.5 259v871h273v-891q0 -274 -157 -418.5t-423 -144.5zM324 1636q0 106 51 166t145 60q51 0 95 -18.5t68 -42t51.5 -42t54 -18.5t49 18.5t24.5 48.5h156q0 -106 -51.5 -165.5 t-145.5 -59.5q-51 0 -95 18.5t-67.5 42t-51 42t-54.5 18.5t-49.5 -18.5t-24.5 -49.5h-155z" glyph-name="Utilde" horiz-adv-x="1380" unicode="Ũ"/><glyph d="M373 457q0 -260 217 -260q113 0 180.5 66.5t67.5 193.5v608h262v-1065h-262v219h-9q-18 -88 -107 -163.5t-241 -75.5q-166 0 -268 104t-102 311v670h262v-608zM252 1268q0 106 51 165.5t146 59.5q51 0 95 -18.5t67.5 -42t51 -42t54 -18.5t49 18.5t25.5 49.5h155 q0 -106 -51 -166t-145 -60q-51 0 -95.5 18.5t-68 42t-51 42t-54 18.5t-49 -18.5t-24.5 -48.5h-156z" glyph-name="utilde" unicode="ũ"/><glyph d="M690 -20q-268 0 -423.5 144t-155.5 419v891h270v-871q0 -170 81 -259t228.5 -89t227 89t79.5 259v871h273v-891q0 -274 -157 -418.5t-423 -144.5zM344 1686v153h653v-153h-653z" glyph-name="Umacron" horiz-adv-x="1380" unicode="Ū"/><glyph d="M373 457q0 -260 217 -260q113 0 180.5 66.5t67.5 193.5v608h262v-1065h-262v219h-9q-18 -88 -107 -163.5t-241 -75.5q-166 0 -268 104t-102 311v670h262v-608zM272 1317v153h654v-153h-654z" glyph-name="umacron" unicode="ū"/><glyph d="M690 -20q-268 0 -423.5 144t-155.5 419v891h270v-871q0 -170 81 -259t228.5 -89t227 89t79.5 259v871h273v-891q0 -274 -157 -418.5t-423 -144.5zM352 1839h174q4 -76 38 -111.5t107.5 -35.5t107.5 35.5t38 111.5h174q0 -139 -81 -220t-238 -81q-156 0 -238 81t-82 220z " glyph-name="Ubreve" horiz-adv-x="1380" unicode="Ŭ"/><glyph d="M373 457q0 -260 217 -260q113 0 180.5 66.5t67.5 193.5v608h262v-1065h-262v219h-9q-18 -88 -107 -163.5t-241 -75.5q-166 0 -268 104t-102 311v670h262v-608zM281 1470h174q4 -76 37.5 -111.5t107.5 -35.5t107.5 36t37.5 111h175q0 -139 -81 -220t-239 -81 q-156 0 -237.5 81t-81.5 220z" glyph-name="ubreve" unicode="ŭ"/><glyph d="M690 -20q-268 0 -423.5 144t-155.5 419v891h270v-871q0 -170 81 -259t228.5 -89t227 89t79.5 259v871h273v-891q0 -274 -157 -418.5t-423 -144.5zM467 1716q0 82 58.5 139.5t144.5 57.5t144 -57.5t58 -139.5q0 -84 -57 -140t-145 -56q-86 0 -144.5 56t-58.5 140z M592 1716q0 -35 22.5 -57.5t55.5 -22.5q35 0 57.5 22.5t22.5 57.5q0 33 -22.5 55.5t-57.5 22.5q-33 0 -55.5 -22.5t-22.5 -55.5z" glyph-name="Uring" horiz-adv-x="1380" unicode="Ů"/><glyph d="M373 457q0 -260 217 -260q113 0 180.5 66.5t67.5 193.5v608h262v-1065h-262v219h-9q-18 -88 -107 -163.5t-241 -75.5q-166 0 -268 104t-102 311v670h262v-608zM395 1348q0 82 58.5 139t144.5 57t144.5 -57t58.5 -139q0 -84 -57.5 -140.5t-145.5 -56.5q-86 0 -144.5 56.5 t-58.5 140.5zM520 1348q0 -35 22.5 -57.5t55.5 -22.5q35 0 57.5 22.5t22.5 57.5q0 33 -22.5 55t-57.5 22q-33 0 -55.5 -22t-22.5 -55z" glyph-name="uring" unicode="ů"/><glyph d="M690 -20q-268 0 -423.5 144t-155.5 419v891h270v-871q0 -170 81 -259t228.5 -89t227 89t79.5 259v871h273v-891q0 -274 -157 -418.5t-423 -144.5zM344 1559l213 280h229l-213 -280h-229zM694 1559l213 280h230l-213 -280h-230z" glyph-name="Uhungarumlaut" horiz-adv-x="1380" unicode="Ű"/><glyph d="M373 457q0 -260 217 -260q113 0 180.5 66.5t67.5 193.5v608h262v-1065h-262v219h-9q-18 -88 -107 -163.5t-241 -75.5q-166 0 -268 104t-102 311v670h262v-608zM272 1190l213 280h230l-213 -280h-230zM623 1190l213 280h229l-213 -280h-229z" glyph-name="uhungarumlaut" unicode="ű"/><glyph d="M829 -389q-37 -18 -97 -13t-116.5 22.5t-97.5 68.5t-41 125q0 106 80 176q-209 33 -327.5 173t-118.5 380v891h270v-871q0 -170 81 -259t228.5 -89t227 89t79.5 259v871h273v-891q0 -238 -119 -379t-330 -174q-72 -18 -109.5 -57t-37.5 -89q0 -55 45 -79.5t110 -6.5v-147 z" glyph-name="Uogonek" horiz-adv-x="1380" unicode="Ų"/><glyph d="M373 457q0 -260 217 -260q113 0 180.5 66.5t67.5 193.5v608h262v-1065q-123 0 -188.5 -45t-65.5 -111q0 -55 45 -79.5t108 -6.5v-147q-37 -18 -96 -13t-115.5 22.5t-97.5 68.5t-41 125q0 90 53.5 150.5t135.5 84.5v170h-9q-18 -88 -107 -163.5t-241 -75.5 q-166 0 -268 104t-102 311v670h262v-608z" glyph-name="uogonek" unicode="ų"/><glyph d="M424 0l-375 1434h275l251 -1055h13l299 1055h278l299 -1055h13l252 1055h276l-377 -1434h-280l-322 1094l-321 -1094h-281zM641 1559l201 280h364l201 -280h-236l-147 208l-147 -208h-236z" glyph-name="Wcircumflex" horiz-adv-x="2052" unicode="Ŵ"/><glyph d="M328 0l-289 1065h248l198 -809h9l231 809h227l232 -809h8l199 809h249l-290 -1065h-295l-215 717l-217 -717h-295zM453 1190l200 280h365l201 -280h-236l-147 209l-148 -209h-235z" glyph-name="wcircumflex" horiz-adv-x="1677" unicode="ŵ"/><glyph d="M569 0v537l-520 897h305l353 -637l354 637h305l-520 -897v-537h-277zM322 1559l200 280h365l200 -280h-235l-147 208l-148 -208h-235z" glyph-name="Ycircumflex" horiz-adv-x="1413" unicode="Ŷ"/><glyph d="M145 -182q225 -31 287 123q29 72 0 143l-393 981h268l273 -737l274 737h270l-442 -1094q-94 -231 -212 -315t-325 -62v224zM195 1190l200 280h365l201 -280h-236l-147 209l-148 -209h-235z" glyph-name="ycircumflex" horiz-adv-x="1161" unicode="ŷ"/><glyph d="M569 0v537l-520 897h305l353 -637l354 637h305l-520 -897v-537h-277zM326 1726q0 61 44 103.5t103 42.5t103.5 -42t44.5 -104q0 -59 -44.5 -101t-103.5 -42t-103 42t-44 101zM788 1726q0 61 44.5 103.5t103.5 42.5t103 -42t44 -104q0 -59 -44 -101t-103 -42t-103.5 42 t-44.5 101z" glyph-name="Ydieresis" horiz-adv-x="1413" unicode="Ÿ"/><glyph d="M82 0v236l795 962h-773v236h1072v-236l-797 -962h805v-236h-1102zM528 1559l213 280h230l-213 -280h-230z" glyph-name="Zacute" horiz-adv-x="1265" unicode="Ź"/><glyph d="M82 0v221l561 623h-541v221h852v-221l-559 -623h559v-221h-872zM385 1190l213 280h229l-213 -280h-229z" glyph-name="zacute" horiz-adv-x="1036" unicode="ź"/><glyph d="M82 0v236l795 962h-773v236h1072v-236l-797 -962h805v-236h-1102zM506 1726q0 61 44 103.5t103.5 42.5t103.5 -42t44 -104q0 -59 -44 -101t-103.5 -42t-103.5 42t-44 101z" glyph-name="Zdotaccent" horiz-adv-x="1265" unicode="Ż"/><glyph d="M82 0v221l561 623h-541v221h852v-221l-559 -623h559v-221h-872zM362 1358q0 61 44.5 103t103.5 42t103 -42t44 -103q0 -59 -44 -101.5t-103 -42.5t-103.5 42.5t-44.5 101.5z" glyph-name="zdotaccent" horiz-adv-x="1036" unicode="ż"/><glyph d="M82 0v236l795 962h-773v236h1072v-236l-797 -962h805v-236h-1102zM256 1837h236l147 -209l147 209h236l-201 -281h-364z" glyph-name="Zcaron" horiz-adv-x="1265" unicode="Ž"/><glyph d="M82 0v221l561 623h-541v221h852v-221l-559 -623h559v-221h-872zM113 1468h235l148 -208l147 208h236l-201 -280h-365z" glyph-name="zcaron" horiz-adv-x="1036" unicode="ž"/><glyph d="M696 -20q-291 0 -453.5 168.5t-162.5 490.5v135h1003q-10 209 -104 327t-279 118q-262 0 -321 -215h-266q35 219 195.5 333.5t391.5 114.5q303 0 482.5 -194.5t179.5 -546.5q0 -346 -175.5 -538.5t-490.5 -192.5zM346 557q2 -178 101.5 -261t248.5 -83q158 0 251 91 t124 253h-725z" glyph-name="uni018F" horiz-adv-x="1439" unicode="Ə"/><glyph d="M39 -164q80 0 110.5 50.5t30.5 148.5v608h-145v225h145v195q0 184 90 275.5t314 91.5v-226q-78 0 -110 -49t-32 -149v-138h142v-225h-142v-666q0 -195 -94 -280.5t-309 -85.5v225z" glyph-name="florin" horiz-adv-x="634" unicode="ƒ"/><glyph d="M754 -20q-303 0 -488.5 201.5t-185.5 535.5q0 336 185.5 535.5t488.5 199.5h463v162h223v-363h-197q186 -199 187 -534q0 -334 -186.5 -535.5t-489.5 -201.5zM356 716.5q0 -235.5 106.5 -369.5t291 -134t291 134t106.5 369.5t-106.5 369t-291 133.5t-291 -133.5 t-106.5 -369z" glyph-name="Ohorn" horiz-adv-x="1507" unicode="Ơ"/><glyph d="M588 -20q-221 0 -375 141t-154 411.5t154 411.5t375 141h330v160h210v-360h-114q102 -139 102 -353q0 -270 -154.5 -411t-373.5 -141zM305 532.5q0 -165.5 79 -249.5t204 -84q123 0 201.5 84t78.5 249.5t-78.5 249.5t-201.5 84q-125 0 -204 -84t-79 -249.5z" glyph-name="ohorn" horiz-adv-x="1173" unicode="ơ"/><glyph d="M690 -20q-268 0 -423.5 144t-155.5 419v891h270v-871q0 -170 81 -259t228.5 -89t227 89t79.5 259v871h275v180h223v-383h-225v-688q0 -274 -157 -418.5t-423 -144.5z" glyph-name="Uhorn" horiz-adv-x="1380" unicode="Ư"/><glyph d="M373 457q0 -260 217 -260q113 0 180.5 66.5t67.5 193.5v608h274v180h223v-383h-235v-862h-262v219h-9q-18 -88 -107 -163.5t-241 -75.5q-166 0 -268 104t-102 311v670h262v-608z" glyph-name="uhorn" unicode="ư"/><glyph d="M39 0l526 1434h344l527 -1434h-285l-102 293h-625l-102 -293h-283zM342 1837h236l147 -209l147 209h236l-201 -281h-364zM496 494h483l-234 663h-16z" glyph-name="uni01CD" horiz-adv-x="1472" unicode="Ǎ"/><glyph d="M401 -20q-147 0 -244.5 74.5t-97.5 224.5q0 80 29 137t84 92t114.5 53.5t141.5 28.5l199 26q80 10 107.5 29t27.5 60v22q0 168 -193 168q-207 0 -207 -156v-20l-245 -2v47q0 322 458 321q233 0 339 -85t106 -263v-737h-252v190h-10q-16 -41 -49 -82.5t-116 -84.5 t-192 -43zM178 1468h236l147 -208l148 208h235l-201 -280h-364zM322 301q0 -131 165 -131q119 0 197 63.5t78 135.5v135q-18 -31 -125 -45l-170 -27q-145 -22 -145 -131z" glyph-name="uni01CE" horiz-adv-x="1128" unicode="ǎ"/><glyph d="M111 0v1434h268v-1434h-268zM-154 1837h236l147 -209l148 209h235l-200 -281h-365z" glyph-name="uni01CF" horiz-adv-x="487" unicode="Ǐ"/><glyph d="M92 0v1065h262v-1065h-262zM-172 1468h235l148 -208l147 208h236l-201 -280h-364z" glyph-name="uni01D0" horiz-adv-x="448" unicode="ǐ"/><glyph d="M754 -20q-303 0 -488.5 201.5t-185.5 535.5q0 336 185.5 535.5t488.5 199.5t489.5 -199.5t186.5 -535.5q0 -334 -186.5 -535.5t-489.5 -201.5zM356 716.5q0 -235.5 106.5 -369.5t291 -134t291 134t106.5 369.5t-106.5 369t-291 133.5t-291 -133.5t-106.5 -369zM358 1837 h236l147 -209l148 209h235l-200 -281h-365z" glyph-name="uni01D1" horiz-adv-x="1507" unicode="Ǒ"/><glyph d="M588 -20q-221 0 -375 141t-154 411.5t154 411.5t375 141q219 0 373.5 -141t154.5 -411.5t-154.5 -411.5t-373.5 -141zM193 1468h235l147 -208l148 208h235l-200 -280h-365zM305 532.5q0 -165.5 79 -249.5t204 -84q123 0 201.5 84t78.5 249.5t-78.5 249.5t-201.5 84 q-125 0 -204 -84t-79 -249.5z" glyph-name="uni01D2" horiz-adv-x="1173" unicode="ǒ"/><glyph d="M690 -20q-268 0 -423.5 144t-155.5 419v891h270v-871q0 -170 81 -259t228.5 -89t227 89t79.5 259v871h273v-891q0 -274 -157 -418.5t-423 -144.5zM276 1837h236l147 -209l148 209h235l-200 -281h-365z" glyph-name="uni01D3" horiz-adv-x="1380" unicode="Ǔ"/><glyph d="M373 457q0 -260 217 -260q113 0 180.5 66.5t67.5 193.5v608h262v-1065h-262v219h-9q-18 -88 -107 -163.5t-241 -75.5q-166 0 -268 104t-102 311v670h262v-608zM205 1468h235l148 -208l147 208h236l-201 -280h-364z" glyph-name="uni01D4" unicode="ǔ"/><glyph d="M690 -20q-268 0 -423.5 144t-155.5 419v891h270v-871q0 -170 81 -259t228.5 -89t227 89t79.5 259v871h273v-891q0 -274 -157 -418.5t-423 -144.5zM293 1726q0 61 44 103.5t103.5 42.5t103.5 -42t44 -104q0 -59 -44 -101t-103.5 -42t-103.5 42t-44 101zM344 2062v154h653 v-154h-653zM756 1726q0 61 44 103.5t103.5 42.5t103.5 -42t44 -104q0 -59 -44 -101t-103.5 -42t-103.5 42t-44 101z" glyph-name="uni01D5" horiz-adv-x="1380" unicode="Ǖ"/><glyph d="M373 457q0 -260 217 -260q113 0 180.5 66.5t67.5 193.5v608h262v-1065h-262v219h-9q-18 -88 -107 -163.5t-241 -75.5q-166 0 -268 104t-102 311v670h262v-608zM221 1358q0 61 44 103t103.5 42t103.5 -42t44 -103q0 -59 -44 -101.5t-103.5 -42.5t-103.5 42.5t-44 101.5z M272 1694v153h654v-153h-654zM684 1358q0 61 44 103t103.5 42t103.5 -42t44 -103q0 -59 -44 -101.5t-103.5 -42.5t-103.5 42.5t-44 101.5z" glyph-name="uni01D6" unicode="ǖ"/><glyph d="M690 -20q-268 0 -423.5 144t-155.5 419v891h270v-871q0 -170 81 -259t228.5 -89t227 89t79.5 259v871h273v-891q0 -274 -157 -418.5t-423 -144.5zM293 1726q0 61 44 103.5t103.5 42.5t103.5 -42t44 -104q0 -59 -44 -101t-103.5 -42t-103.5 42t-44 101zM537 1935l213 281 h229l-213 -281h-229zM756 1726q0 61 44 103.5t103.5 42.5t103.5 -42t44 -104q0 -59 -44 -101t-103.5 -42t-103.5 42t-44 101z" glyph-name="uni01D7" horiz-adv-x="1380" unicode="Ǘ"/><glyph d="M373 457q0 -260 217 -260q113 0 180.5 66.5t67.5 193.5v608h262v-1065h-262v219h-9q-18 -88 -107 -163.5t-241 -75.5q-166 0 -268 104t-102 311v670h262v-608zM221 1358q0 61 44 103t103.5 42t103.5 -42t44 -103q0 -59 -44 -101.5t-103.5 -42.5t-103.5 42.5t-44 101.5z M465 1567l213 280h229l-213 -280h-229zM684 1358q0 61 44 103t103.5 42t103.5 -42t44 -103q0 -59 -44 -101.5t-103.5 -42.5t-103.5 42.5t-44 101.5z" glyph-name="uni01D8" unicode="ǘ"/><glyph d="M690 -20q-268 0 -423.5 144t-155.5 419v891h270v-871q0 -170 81 -259t228.5 -89t227 89t79.5 259v871h273v-891q0 -274 -157 -418.5t-423 -144.5zM289 2214h235l148 -209l147 209h236l-201 -281h-365zM293 1726q0 61 44 103.5t103.5 42.5t103.5 -42t44 -104 q0 -59 -44 -101t-103.5 -42t-103.5 42t-44 101zM756 1726q0 61 44 103.5t103.5 42.5t103.5 -42t44 -104q0 -59 -44 -101t-103.5 -42t-103.5 42t-44 101z" glyph-name="uni01D9" horiz-adv-x="1380" unicode="Ǚ"/><glyph d="M373 457q0 -260 217 -260q113 0 180.5 66.5t67.5 193.5v608h262v-1065h-262v219h-9q-18 -88 -107 -163.5t-241 -75.5q-166 0 -268 104t-102 311v670h262v-608zM217 1845h236l147 -209l148 209h235l-201 -280h-364zM221 1358q0 61 44 103t103.5 42t103.5 -42t44 -103 q0 -59 -44 -101.5t-103.5 -42.5t-103.5 42.5t-44 101.5zM684 1358q0 61 44 103t103.5 42t103.5 -42t44 -103q0 -59 -44 -101.5t-103.5 -42.5t-103.5 42.5t-44 101.5z" glyph-name="uni01DA" unicode="ǚ"/><glyph d="M690 -20q-268 0 -423.5 144t-155.5 419v891h270v-871q0 -170 81 -259t228.5 -89t227 89t79.5 259v871h273v-891q0 -274 -157 -418.5t-423 -144.5zM293 1726q0 61 44 103.5t103.5 42.5t103.5 -42t44 -104q0 -59 -44 -101t-103.5 -42t-103.5 42t-44 101zM352 2216h230 l213 -281h-230zM756 1726q0 61 44 103.5t103.5 42.5t103.5 -42t44 -104q0 -59 -44 -101t-103.5 -42t-103.5 42t-44 101z" glyph-name="uni01DB" horiz-adv-x="1380" unicode="Ǜ"/><glyph d="M373 457q0 -260 217 -260q113 0 180.5 66.5t67.5 193.5v608h262v-1065h-262v219h-9q-18 -88 -107 -163.5t-241 -75.5q-166 0 -268 104t-102 311v670h262v-608zM221 1358q0 61 44 103t103.5 42t103.5 -42t44 -103q0 -59 -44 -101.5t-103.5 -42.5t-103.5 42.5t-44 101.5z M281 1847h229l213 -280h-229zM684 1358q0 61 44 103t103.5 42t103.5 -42t44 -103q0 -59 -44 -101.5t-103.5 -42.5t-103.5 42.5t-44 101.5z" glyph-name="uni01DC" unicode="ǜ"/><glyph d="M743 -20q-315 0 -489 192.5t-174 538.5q0 352 178 546.5t481 194.5q231 0 393 -114.5t197 -333.5h-268q-59 215 -322 215q-197 0 -293 -134.5t-96 -366t98.5 -368.5t294.5 -137q150 0 250.5 84t100.5 260h-299v217h567v-135q0 -322 -162 -490.5t-457 -168.5zM354 1837 h236l147 -209l148 209h235l-200 -281h-365z" glyph-name="Gcaron" horiz-adv-x="1449" unicode="Ǧ"/><glyph d="M514 27q-188 0 -321.5 131t-133.5 397t134.5 398t320.5 132q111 0 198 -43t134 -116v139h262v-1032q0 -111 -36 -195t-90 -133t-129 -81t-142.5 -42t-141.5 -10q-84 0 -160.5 15.5t-153.5 51t-124 110.5t-47 179h231q4 -76 77 -114.5t171 -38.5q125 0 204 64.5t79 193.5 v153q-47 -74 -134 -116.5t-198 -42.5zM207 1468h235l148 -208l147 208h236l-201 -280h-364zM305 555q0 -150 80 -230.5t196.5 -80.5t195.5 81t79 230q0 152 -79 231.5t-195.5 79.5t-196.5 -79.5t-80 -231.5z" glyph-name="gcaron" horiz-adv-x="1216" unicode="ǧ"/><glyph d="M111 0v1434h268v-709l610 709h318l-559 -646l614 -788h-311l-469 598l-203 -236v-362h-268zM319 1837h236l147 -209l148 209h235l-200 -281h-365z" glyph-name="uni01E8" horiz-adv-x="1398" unicode="Ǩ"/><glyph d="M111 0v1434h262v-846l434 477h291l-436 -457l493 -608h-291l-362 442l-129 -135v-307h-262zM-145 1837h235l148 -209l147 209h236l-201 -281h-365z" glyph-name="uni01E9" horiz-adv-x="1171" unicode="ǩ"/><glyph d="M885 -389q-37 -18 -96.5 -13t-116 22.5t-97 68.5t-40.5 125q0 111 81 178q-246 45 -391 238.5t-145 486.5q0 336 185.5 535.5t488.5 199.5t489.5 -199.5t186.5 -535.5q0 -299 -152 -494.5t-406 -234.5q-70 -18 -106.5 -57.5t-36.5 -86.5q0 -55 45 -79.5t111 -6.5v-147z M356 716.5q0 -235.5 106.5 -369.5t291 -134t291 134t106.5 369.5t-106.5 369t-291 133.5t-291 -133.5t-106.5 -369z" glyph-name="uni01EA" horiz-adv-x="1507" unicode="Ǫ"/><glyph d="M705 -389q-37 -18 -97.5 -13t-117 22.5t-97.5 68.5t-41 125q0 111 88 184q-168 41 -274.5 176t-106.5 358q0 270 154 411.5t375 141.5q219 0 373.5 -141t154.5 -412q0 -236 -119.5 -375t-304.5 -169q-70 -18 -106.5 -57.5t-36.5 -86.5q0 -55 45 -79.5t111 -6.5v-147z M305 532.5q0 -165.5 79 -249.5t204 -84q123 0 201.5 84t78.5 249.5t-78.5 249.5t-201.5 84q-125 0 -204 -84t-79 -249.5z" glyph-name="uni01EB" horiz-adv-x="1173" unicode="ǫ"/><glyph d="M664 -20q-274 0 -429 125.5t-155 349.5h276q6 -113 82 -181.5t228 -68.5q135 0 208.5 54t73.5 153q0 84 -55 129t-168 67l-197 39q-410 80 -409 395q0 195 144.5 302.5t394 107.5t393 -110.5t143.5 -315.5h-276q0 96 -71 148.5t-196 52.5q-129 0 -189.5 -52.5 t-60.5 -132.5q0 -139 193 -180l184 -37q240 -47 347.5 -145t107.5 -266q0 -213 -156.5 -323.5t-412.5 -110.5zM473 -217q0 68 45 111t115 43q82 0 133 -60.5t51 -181.5q0 -145 -76.5 -228t-203.5 -83h-21v110q80 2 115 33t35 94q-90 0 -141.5 46t-51.5 116z" glyph-name="Scommaaccent" horiz-adv-x="1312" unicode="Ș"/><glyph d="M502 -20q-211 0 -331 90t-122 266h234q20 -158 223 -158q193 0 192 129q0 90 -125 115l-196 43q-299 68 -299 305q0 147 116.5 231t311.5 84q203 0 313.5 -92t114.5 -262h-217q-23 156 -209 156q-176 0 -176 -113q0 -92 129 -117l203 -45q143 -33 224 -101.5t81 -197.5 q0 -168 -132 -250.5t-335 -82.5zM344 -238q0 68 45 111t115 43q82 0 133 -60.5t51 -181.5q0 -145 -76.5 -228t-203.5 -83h-21v111q80 2 115 32.5t35 94.5q-90 0 -141.5 45.5t-51.5 115.5z" glyph-name="scommaaccent" horiz-adv-x="1015" unicode="ș"/><glyph d="M475 0v1194h-426v240h1120v-240h-426v-1194h-268zM391 -217q0 68 45 111t115 43q82 0 133 -60.5t51 -181.5q0 -145 -76.5 -228t-203.5 -83h-21v110q80 2 115 33t35 94q-90 0 -141.5 46t-51.5 116z" glyph-name="uni021A" horiz-adv-x="1218" unicode="Ț"/><glyph d="M549 -14q-332 0 -332 313v561h-178v205h178v272h262v-272h209v-205h-209v-520q0 -74 30 -108.5t109 -34.5q43 0 82 4v-197q-67 -18 -151 -18zM332 -217q0 68 45 111t115 43q82 0 133 -60.5t51 -181.5q0 -145 -77 -228t-204 -83h-20v110q80 2 114.5 33t34.5 94 q-90 0 -141 46t-51 116z" glyph-name="uni021B" horiz-adv-x="747" unicode="ț"/><glyph d="M70 -395q-104 0 -158 6v205h94q72 0 101.5 35.5t29.5 107.5v1106h262v-1147q1 -313 -329 -313z" glyph-name="uni0237" horiz-adv-x="491" unicode="ȷ"/><glyph d="M557 -27q-223 0 -360.5 136.5t-137.5 416.5q0 25 4 70h768q-10 152 -78.5 221.5t-197.5 69.5q-199 0 -250 -156h-231q41 176 168 265t311 89q227 0 377.5 -137t150.5 -418q0 -279 -148.5 -418t-375.5 -139zM305 449q4 -127 67.5 -201t188.5 -74q246 0 270 275h-526z" glyph-name="uni0259" horiz-adv-x="1138" unicode="ə"/><glyph d="M0 1190l201 280h364l201 -280h-236l-147 209l-147 -209h-236z" glyph-name="circumflex" horiz-adv-x="765" unicode="ˆ"/><glyph d="M0 1468h236l147 -208l147 208h236l-201 -280h-364z" glyph-name="caron" horiz-adv-x="784" unicode="ˇ"/><glyph d="M330 1169q-156 0 -238 81t-82 220h174q4 -76 38 -111.5t107.5 -35.5t107.5 36t38 111h174q0 -139 -80.5 -220t-238.5 -81z" glyph-name="breve" horiz-adv-x="659" unicode="˘"/><glyph d="M147.5 1214q-59.5 0 -103.5 42t-44 102q0 61 44 103t103.5 42t103.5 -42t44 -103q0 -59 -44 -101.5t-103.5 -42.5z" glyph-name="dotaccent" horiz-adv-x="294" unicode="˙"/><glyph d="M203 1151q-86 0 -144.5 56.5t-58.5 140.5q0 82 58.5 139t144.5 57t144.5 -57t58.5 -139q0 -84 -57.5 -140.5t-145.5 -56.5zM125 1348q0 -35 22.5 -57.5t55.5 -22.5q35 0 57.5 22.5t22.5 57.5q0 33 -22.5 55t-57.5 22q-33 0 -55.5 -22t-22.5 -55z" glyph-name="ring" horiz-adv-x="405" unicode="˚"/><glyph d="M350 -389q-37 -18 -96 -13t-115.5 22.5t-97.5 68.5t-41 125q0 117 87 183t196 66l168 -63q-123 0 -188.5 -45t-65.5 -111q0 -55 45 -79.5t108 -6.5v-147z" glyph-name="ogonek" horiz-adv-x="450" unicode="˛"/><glyph d="M508 1214q-51 0 -95 18.5t-67.5 42t-51.5 42t-54.5 18.5t-49 -18.5t-24.5 -48.5h-156q0 106 51.5 165.5t145.5 59.5q51 0 95 -18.5t67.5 -42t51.5 -42t54.5 -18.5t49 18.5t24.5 49.5h156q0 -106 -51.5 -166t-145.5 -60z" glyph-name="tilde" horiz-adv-x="714" unicode="˜"/><glyph d="M350 1190l213 280h230l-213 -280h-230zM0 1190l213 280h229l-213 -280h-229z" glyph-name="hungarumlaut" horiz-adv-x="792" unicode="˝"/><glyph d="M213 1190l-213 280h229l213 -280h-229z" glyph-name="gravecomb" horiz-adv-x="0" unicode="̀"/><glyph d="M0 1190l213 280h229l-213 -280h-229z" glyph-name="acutecomb" horiz-adv-x="0" unicode="́"/><glyph d="M0 1190l201 280h364l201 -280h-236l-147 209l-147 -209h-236z" glyph-name="uni0302" horiz-adv-x="0" unicode="̂"/><glyph d="M508 1214q-51 0 -95 18.5t-67.5 42t-51.5 42t-54.5 18.5t-49 -18.5t-24.5 -48.5h-156q0 106 51.5 165.5t145.5 59.5q51 0 95 -18.5t67.5 -42t51.5 -42t54.5 -18.5t49 18.5t24.5 49.5h156q0 -106 -51.5 -166t-145.5 -60z" glyph-name="tildecomb" horiz-adv-x="0" unicode="̃"/><glyph d="M0 1317v153h653v-153h-653z" glyph-name="uni0304" horiz-adv-x="0" unicode="̄"/><glyph d="M330 1169q-156 0 -238 81t-82 220h174q4 -76 38 -111.5t107.5 -35.5t107.5 36t38 111h174q0 -139 -80.5 -220t-238.5 -81z" glyph-name="uni0306" horiz-adv-x="0" unicode="̆"/><glyph d="M147.5 1214q-59.5 0 -103.5 42t-44 102q0 61 44 103t103.5 42t103.5 -42t44 -103q0 -59 -44 -101.5t-103.5 -42.5z" glyph-name="uni0307" horiz-adv-x="0" unicode="̇"/><glyph d="M610.5 1214q-59.5 0 -103.5 42t-44 102q0 61 44 103t103.5 42t103.5 -42t44 -103q0 -59 -44 -101.5t-103.5 -42.5zM0 1358q0 61 44 103t103.5 42t103.5 -42t44 -103q0 -59 -44 -101.5t-103.5 -42.5t-103.5 42.5t-44 101.5z" glyph-name="uni0308" horiz-adv-x="0" unicode="̈"/><glyph d="M252 1274q98 2 98 82q0 35 -19.5 55.5t-49.5 20.5q-63 0 -70 -66h-135q0 104 61.5 154.5t145.5 50.5q90 0 152.5 -53.5t62.5 -151.5q0 -86 -51.5 -138t-129.5 -63z" glyph-name="hookabovecomb" horiz-adv-x="0" unicode="̉"/><glyph d="M203 1151q-86 0 -144.5 56.5t-58.5 140.5q0 82 58.5 139t144.5 57t144.5 -57t58.5 -139q0 -84 -57.5 -140.5t-145.5 -56.5zM125 1348q0 -35 22.5 -57.5t55.5 -22.5q35 0 57.5 22.5t22.5 57.5q0 33 -22.5 55t-57.5 22q-33 0 -55.5 -22t-22.5 -55z" glyph-name="uni030A" horiz-adv-x="0" unicode="̊"/><glyph d="M350 1190l213 280h230l-213 -280h-230zM0 1190l213 280h229l-213 -280h-229z" glyph-name="uni030B" horiz-adv-x="0" unicode="̋"/><glyph d="M0 1468h236l147 -208l147 208h236l-201 -280h-364z" glyph-name="uni030C" horiz-adv-x="0" unicode="̌"/><glyph d="M369 1311q-80 -2 -115 -33t-35 -94q90 0 141.5 -46t51.5 -116q0 -68 -45 -111t-115 -43q-82 0 -133 60.5t-51 181.5q0 145 76.5 228t203.5 83h21v-110z" glyph-name="uni0312" horiz-adv-x="0" unicode="̒"/><glyph d="M0 862v203h274v180h224v-383h-498z" glyph-name="uni031B" horiz-adv-x="0" unicode="̛"/><glyph d="M266.5 -471q-67.5 0 -116 47t-48.5 113q0 68 48.5 114.5t116 46.5t114.5 -47t47 -114q0 -66 -47 -113t-114.5 -47z" glyph-name="dotbelowcomb" horiz-adv-x="0" unicode="̣"/><glyph d="M20 -506q80 2 115 33t35 94q-90 0 -141.5 46t-51.5 116q0 68 45.5 111t114.5 43q82 0 133.5 -60.5t51.5 -181.5q0 -145 -77 -228t-204 -83h-21v110z" glyph-name="uni0326" horiz-adv-x="0" unicode="̦"/><glyph d="M68 -367q63 -4 103 17.5t40 62.5q0 47 -46 63.5t-93 -12.5l-72 91l131 145h176l-104 -104h18q74 0 123 -52.5t49 -132.5q0 -113 -94 -162t-231 -49v133z" glyph-name="uni0327" horiz-adv-x="0" unicode="̧"/><glyph d="M350 -389q-37 -18 -96 -13t-115.5 22.5t-97.5 68.5t-41 125q0 117 87 183t196 66l168 -63q-123 0 -188.5 -45t-65.5 -111q0 -55 45 -79.5t108 -6.5v-147z" glyph-name="uni0328" horiz-adv-x="0" unicode="̨"/><glyph d="M39 0l647 1460h2l647 -1460h-1296zM362 205h648l-322 778z" glyph-name="Delta" horiz-adv-x="1372" unicode="Δ"/><glyph d="M123 0v213h229q-272 203 -272 528q0 305 213 506t502 201q291 0 503.5 -200.5t212.5 -506.5q0 -326 -274 -528h231v-213h-520v297q143 68 218 185.5t75 258.5q0 197 -129 325t-317 128q-186 0 -316.5 -128t-130.5 -325q0 -139 75 -257.5t218 -186.5v-297h-518z" glyph-name="Omega" horiz-adv-x="1589" unicode="Ω"/><glyph d="M111 -389v1454h262v-608q0 -260 217 -260q113 0 180.5 66.5t67.5 193.5v608h262v-1065h-262v219h-9q-18 -88 -107 -163.5t-241 -75.5q-55 0 -108 12v-381h-262z" glyph-name="mu" unicode="μ"/><glyph d="M1178 -12q-121 0 -207 62.5t-86 217.5v572h-328v-840h-262v840h-205v225h1260v-225h-203v-512q0 -66 27.5 -91.5t82.5 -25.5q59 0 115 27v-199q-51 -51 -194 -51z" glyph-name="pi" horiz-adv-x="1449" unicode="π"/><glyph d="M111 0v1434h960v-236h-692v-364h631v-211h-631v-387h713v-236h-981zM227 1726q0 61 44 103.5t103.5 42.5t103.5 -42t44 -104q0 -59 -44 -101t-103.5 -42t-103.5 42t-44 101zM690 1726q0 61 44 103.5t103.5 42.5t103.5 -42t44 -104q0 -59 -44 -101t-103.5 -42t-103.5 42 t-44 101z" glyph-name="afii10023" horiz-adv-x="1148" unicode="Ё"/><glyph d="M111 0v1434h903v-238h-631v-1196h-272zM438 1559l213 280h230l-213 -280h-230z" glyph-name="afii10052" horiz-adv-x="1060" unicode="Ѓ"/><glyph d="M745 -20q-307 0 -486 194.5t-179 542.5q0 346 180 540.5t488 194.5q242 0 401.5 -125t183.5 -371h-262q-31 131 -118 197t-212 66q-164 0 -259 -100.5t-120 -278.5h433v-222h-437q20 -190 116.5 -297.5t266.5 -107.5q125 0 212 65.5t118 198.5h262 q-25 -246 -184.5 -371.5t-403.5 -125.5z" glyph-name="afii10053" horiz-adv-x="1394" unicode="Є"/><glyph d="M111 0v1434h268v-1434h-268zM-139 1726q0 61 44 103.5t103.5 42.5t103.5 -42t44 -104q0 -59 -44 -101t-103.5 -42t-103.5 42t-44 101zM324 1726q0 61 44 103.5t103 42.5t103 -42t44 -104q0 -59 -44 -101t-103 -42t-103 42t-44 101z" glyph-name="afii10056" horiz-adv-x="487" unicode="Ї"/><glyph d="M111 0v1434h268v-709l610 709h318l-559 -646l614 -788h-311l-469 598l-203 -236v-362h-268zM582 1559l213 280h229l-213 -280h-229z" glyph-name="afii10061" horiz-adv-x="1398" unicode="Ќ"/><glyph d="M186 215q123 -14 176.5 18.5t81.5 102.5q35 80 -16 201l-379 897h301l256 -686l264 686h301l-462 -1084q-100 -231 -213 -315t-310 -64v244zM291 1839h174q4 -76 38 -111.5t107.5 -35.5t107.5 35.5t38 111.5h174q0 -139 -81 -220t-239 -81q-156 0 -237.5 81t-81.5 220z " glyph-name="afii10062" horiz-adv-x="1218" unicode="Ў"/><glyph d="M39 0l526 1434h344l527 -1434h-285l-102 293h-625l-102 -293h-283zM496 494h483l-234 663h-16z" glyph-name="afii10017" horiz-adv-x="1472" unicode="А"/><glyph d="M111 0v1434h903v-238h-631v-252h293q264 0 399 -126t135 -345q0 -223 -134 -348t-400 -125h-565zM383 233h285q250 0 250 240q0 113 -63.5 174.5t-186.5 61.5h-285v-476z" glyph-name="afii10018" horiz-adv-x="1267" unicode="Б"/><glyph d="M111 0v1434h569q227 0 341 -95.5t114 -259.5q0 -223 -211 -293q307 -78 307 -368q0 -186 -133 -302t-398 -116h-589zM379 227h309q135 0 199.5 60.5t64.5 158.5q0 100 -64.5 162t-199.5 62h-309v-443zM379 848h289q90 0 142 46t52 138q0 174 -194 174h-289v-358z" glyph-name="afii10019" horiz-adv-x="1288" unicode="В"/><glyph d="M111 0v1434h903v-238h-631v-1196h-272z" glyph-name="afii10020" horiz-adv-x="1060" unicode="Г"/><glyph d="M39 -141v366h90q180 147 180 815v394h1039v-1209h125v-366h-263v141h-909v-141h-262zM420 225h653v971h-491v-156q0 -668 -162 -815z" glyph-name="afii10021" horiz-adv-x="1531" unicode="Д"/><glyph d="M111 0v1434h960v-236h-692v-364h631v-211h-631v-387h713v-236h-981z" glyph-name="afii10022" horiz-adv-x="1148" unicode="Е"/><glyph d="M1673 0l-524 608v-608h-275v606l-522 -606h-313l618 725l-604 709h314l507 -590v590h275v-592l510 592h313l-604 -709l619 -725h-314z" glyph-name="afii10024" horiz-adv-x="2025" unicode="Ж"/><glyph d="M590 -20q-260 0 -391 134t-129 365h245q2 -139 81 -207.5t204 -68.5q115 0 196 58t81 169q0 102 -75 162.5t-224 60.5h-78v193h65q258 0 258 192q0 92 -62.5 140.5t-158.5 48.5q-104 0 -172 -60.5t-70 -193.5h-243q0 229 127 354t362 125q217 0 344 -102.5t127 -268.5 q0 -127 -68.5 -207.5t-166.5 -107.5q109 -14 205 -102.5t96 -249.5q0 -193 -150.5 -313.5t-402.5 -120.5z" glyph-name="afii10025" unicode="З"/><glyph d="M1294 0h-268v989h-6l-617 -989h-294v1434h270v-1006h6l627 1006h282v-1434z" glyph-name="afii10026" horiz-adv-x="1404" unicode="И"/><glyph d="M1294 0h-268v989h-6l-617 -989h-294v1434h270v-1006h6l627 1006h282v-1434zM383 1839h174q4 -76 38 -111.5t107.5 -35.5t107.5 35.5t38 111.5h174q0 -139 -81 -220t-239 -81q-156 0 -237.5 81t-81.5 220z" glyph-name="afii10027" horiz-adv-x="1404" unicode="Й"/><glyph d="M111 0v1434h268v-709l610 709h318l-559 -646l614 -788h-311l-469 598l-203 -236v-362h-268z" glyph-name="afii10028" horiz-adv-x="1398" unicode="К"/><glyph d="M31 223q106 -2 164.5 47t58.5 193v971h1034v-1434h-274v1196h-486v-745q0 -254 -135 -370t-362 -95v237z" glyph-name="afii10029" horiz-adv-x="1396" unicode="Л"/><glyph d="M111 0v1434h335l418 -1072l418 1072h336v-1434h-268v963h-11l-372 -963h-205l-375 963h-8v-963h-268z" glyph-name="afii10030" horiz-adv-x="1726" unicode="М"/><glyph d="M993 0v600h-614v-600h-268v1434h268v-611h614v611h269v-1434h-269z" glyph-name="afii10031" horiz-adv-x="1372" unicode="Н"/><glyph d="M754 -20q-303 0 -488.5 201.5t-185.5 535.5q0 336 185.5 535.5t488.5 199.5t489.5 -199.5t186.5 -535.5q0 -334 -186.5 -535.5t-489.5 -201.5zM356 716.5q0 -235.5 106.5 -369.5t291 -134t291 134t106.5 369.5t-106.5 369t-291 133.5t-291 -133.5t-106.5 -369z" glyph-name="afii10032" horiz-adv-x="1507" unicode="О"/><glyph d="M111 0v1434h1151v-1434h-275v1196h-604v-1196h-272z" glyph-name="afii10033" horiz-adv-x="1372" unicode="П"/><glyph d="M111 0v1434h563q268 0 402 -126t134 -343q0 -215 -134 -341t-402 -126h-295v-498h-268zM379 733h285q268 0 268 232q0 233 -268 233h-285v-465z" glyph-name="afii10034" horiz-adv-x="1267" unicode="Р"/><glyph d="M745 -20q-307 0 -486 194.5t-179 542.5q0 346 180 540.5t488 194.5q242 0 401.5 -125t183.5 -371h-262q-31 131 -118 197t-212 66q-190 0 -288.5 -136.5t-98.5 -365.5q0 -231 97.5 -367.5t289.5 -136.5q125 0 212 65.5t118 198.5h262q-25 -246 -184.5 -371.5 t-403.5 -125.5z" glyph-name="afii10035" horiz-adv-x="1394" unicode="С"/><glyph d="M475 0v1194h-426v240h1120v-240h-426v-1194h-268z" glyph-name="afii10036" horiz-adv-x="1218" unicode="Т"/><glyph d="M186 215q123 -14 176.5 18.5t81.5 102.5q35 80 -16 201l-379 897h301l256 -686l264 686h301l-462 -1084q-100 -231 -213 -315t-310 -64v244z" glyph-name="afii10037" horiz-adv-x="1218" unicode="У"/><glyph d="M612 -31v158q-248 35 -390 189.5t-142 400.5q0 248 142.5 401.5t389.5 188.5v157h275v-159q248 -35 390 -188.5t142 -399.5t-142 -399.5t-390 -188.5v-160h-275zM342 717q0 -145 69.5 -242.5t200.5 -130.5v748q-131 -33 -200.5 -130.5t-69.5 -244.5zM887 344 q133 33 201.5 130t68.5 243q0 307 -270 373v-746z" glyph-name="afii10038" horiz-adv-x="1497" unicode="Ф"/><glyph d="M1030 0l-344 514l-346 -514h-301l496 737l-467 697h301l317 -471l315 471h302l-467 -695l497 -739h-303z" glyph-name="afii10039" horiz-adv-x="1370" unicode="Х"/><glyph d="M111 0v1434h272v-1196h604v1196h275v-1196h129v-527h-263v289h-1017z" glyph-name="afii10040" horiz-adv-x="1427" unicode="Ц"/><glyph d="M498 317q-193 0 -305.5 114t-112.5 357v646h272v-633q0 -240 254 -240q141 0 233.5 79t106.5 155v639h275v-1434h-275v571q-33 -82 -152.5 -168t-295.5 -86z" glyph-name="afii10041" horiz-adv-x="1329" unicode="Ч"/><glyph d="M111 0v1434h272v-1196h324v1196h274v-1196h324v1196h274v-1434h-1468z" glyph-name="afii10042" horiz-adv-x="1689" unicode="Ш"/><glyph d="M111 0v1434h272v-1196h324v1196h274v-1196h324v1196h274v-1196h125v-527h-260v289h-1333z" glyph-name="afii10043" horiz-adv-x="1742" unicode="Щ"/><glyph d="M39 1196v238h450v-490h285q270 0 406.5 -125t136.5 -346q0 -223 -136.5 -348t-406.5 -125h-557v1196h-178zM489 233h285q250 0 250 240q0 113 -63.5 174.5t-186.5 61.5h-285v-476z" glyph-name="afii10044" horiz-adv-x="1374" unicode="Ъ"/><glyph d="M111 0v1434h272v-490h285q270 0 406 -125t136 -346q0 -223 -136 -348t-406 -125h-557zM383 233h285q250 0 250 240q0 113 -63.5 174.5t-186.5 61.5h-285v-476zM1360 0v1434h268v-1434h-268z" glyph-name="afii10045" horiz-adv-x="1738" unicode="Ы"/><glyph d="M111 0v1434h272v-490h285q270 0 406 -125t136 -346q0 -223 -136 -348t-406 -125h-557zM383 233h285q250 0 250 240q0 113 -63.5 174.5t-186.5 61.5h-285v-476z" glyph-name="afii10046" horiz-adv-x="1267" unicode="Ь"/><glyph d="M598 618v222h432q-25 178 -120 278.5t-259 100.5q-125 0 -212 -66t-117 -197h-263q25 246 184.5 371t401.5 125q307 0 487.5 -194.5t180.5 -540.5q0 -348 -179.5 -542.5t-486.5 -194.5q-244 0 -403.5 125.5t-184.5 371.5h263q31 -133 117.5 -198.5t211.5 -65.5 q170 0 266.5 107.5t116.5 297.5h-436z" glyph-name="afii10047" horiz-adv-x="1392" unicode="Э"/><glyph d="M111 0v1434h268v-611h205q29 291 210 460t457 169q303 0 489.5 -199.5t186.5 -535.5q0 -334 -186.5 -535.5t-489.5 -201.5q-274 0 -454.5 167.5t-212.5 452.5h-205v-600h-268zM854 716.5q0 -235.5 106.5 -369.5t291 -134t291 134t106.5 369.5t-106.5 369t-291 133.5 t-291 -133.5t-106.5 -369z" glyph-name="afii10048" horiz-adv-x="2004" unicode="Ю"/><glyph d="M328 0h-269l312 530q-299 98 -299 435q0 217 134 343t402 126h563v-1434h-268v498h-289zM350 965q0 -231 268 -232h285v465h-285q-268 0 -268 -233z" glyph-name="afii10049" horiz-adv-x="1282" unicode="Я"/><glyph d="M401 -20q-145 0 -243.5 72.5t-98.5 220t98.5 213t266.5 87.5l209 29q72 8 96.5 29.5t24.5 68.5v23q0 94 -48.5 131t-140.5 37q-197 0 -196 -152v-12l-248 -4v41q0 322 454 321q231 0 336 -85t105 -265v-487q0 -47 15.5 -61.5t51.5 -16.5v-156q-29 -27 -108 -26 q-90 0 -149.5 41t-59.5 129v30h-10q-16 -66 -106.5 -137t-248.5 -71zM317 305q0 -59 43 -96t134 -37q123 0 191.5 63.5t68.5 131.5v133q-14 -25 -115 -41l-152 -21q-170 -29 -170 -133z" glyph-name="afii10065" horiz-adv-x="1122" unicode="а"/><glyph d="M598 -18q-92 0 -177 32.5t-165 102t-128 201t-48 307.5v278q-2 530 473 531h90q109 0 158 45h233q-41 -137 -119.5 -193.5t-238.5 -56.5h-123q-104 0 -163.5 -65.5t-59.5 -166.5v-88q23 66 111.5 113t197.5 47q84 0 164 -30.5t152.5 -91t117.5 -169t45 -250.5 q0 -117 -32.5 -212t-85 -156.5t-122 -102.5t-139 -58t-141.5 -17zM332 526q0 -166 76.5 -248.5t193.5 -82.5q115 0 191.5 83.5t76.5 249.5q0 168 -77.5 254t-190.5 86q-115 0 -192.5 -86t-77.5 -256z" glyph-name="afii10066" horiz-adv-x="1175" unicode="б"/><glyph d="M111 0v1065h548q176 0 282 -67.5t106 -198.5q0 -156 -150 -209q113 -31 173 -104.5t60 -176.5q0 -154 -121.5 -231.5t-303.5 -77.5h-594zM373 213h289q209 0 208 133q0 139 -211 139h-286v-272zM373 637h278q154 0 154 108.5t-152 108.5h-280v-217z" glyph-name="afii10067" horiz-adv-x="1189" unicode="в"/><glyph d="M111 0v1065h737v-207h-475v-858h-262z" glyph-name="afii10068" horiz-adv-x="886" unicode="г"/><glyph d="M276 0v-115h-237v322h90q63 68 79.5 193.5t16.5 379.5v285h951v-858h94v-322h-238v115h-756zM381 207h532v651h-426v-78q0 -244 -19 -374.5t-87 -198.5z" glyph-name="afii10069" horiz-adv-x="1306" unicode="д"/><glyph d="M586 -20q-227 0 -377 137t-150 418q0 279 147.5 414.5t375.5 135.5q223 0 361 -132t138 -408q0 -45 -6 -80h-768q23 -285 285 -285q195 0 242 154h233q-41 -176 -169 -265t-312 -89zM309 625h525q-4 119 -69 189.5t-187 70.5q-117 0 -186 -65.5t-83 -194.5z" glyph-name="afii10070" horiz-adv-x="1138" unicode="е"/><glyph d="M1395 0l-396 414v-414h-262v414l-395 -414h-324l521 530l-508 535h323l383 -416v416h262v-414l383 414h324l-508 -535l520 -530h-323z" glyph-name="afii10072" horiz-adv-x="1736" unicode="ж"/><glyph d="M530 -18q-233 0 -352 106.5t-119 306.5h234q0 -102 62.5 -162.5t183.5 -60.5q100 0 158.5 42t58.5 112q0 72 -66.5 116.5t-206.5 44.5v138q233 0 234 135q0 63 -52.5 96t-129.5 33q-92 0 -146.5 -47t-54.5 -129h-238q0 176 114 271t325 95q190 0 309 -77.5t119 -215.5 q0 -174 -191 -223q33 -6 69 -20.5t79 -42t69.5 -77.5t26.5 -116q0 -154 -136.5 -239.5t-349.5 -85.5z" glyph-name="afii10073" horiz-adv-x="1083" unicode="з"/><glyph d="M111 0v1065h262v-700h6l479 700h268v-1065h-262v684h-6l-469 -684h-278z" glyph-name="afii10074" horiz-adv-x="1236" unicode="и"/><glyph d="M111 0v1065h262v-700h6l479 700h268v-1065h-262v684h-6l-469 -684h-278zM301 1470h174q4 -76 38 -111.5t107.5 -35.5t107.5 36t38 111h174q0 -139 -81 -220t-238 -81q-156 0 -238 81t-82 220z" glyph-name="afii10075" horiz-adv-x="1236" unicode="й"/><glyph d="M111 0v1065h262v-457l418 457h296l-430 -459l492 -606h-287l-366 434l-123 -131v-303h-262z" glyph-name="afii10076" horiz-adv-x="1167" unicode="к"/><glyph d="M31 199q104 -2 163.5 53t59.5 205v608h897v-1065h-250l-8 858h-377v-416q0 -252 -129 -361.5t-356 -88.5v207z" glyph-name="afii10077" horiz-adv-x="1261" unicode="л"/><glyph d="M111 0v1065h305l334 -760l333 760h308v-1065h-263v647h-10l-270 -647h-197l-270 647h-8v-647h-262z" glyph-name="afii10078" horiz-adv-x="1499" unicode="м"/><glyph d="M111 0v1065h262v-408h407v408h262v-1065h-262v451h-407v-451h-262z" glyph-name="afii10079" horiz-adv-x="1150" unicode="н"/><glyph d="M588 -20q-221 0 -375 141t-154 411.5t154 411.5t375 141q219 0 373.5 -141t154.5 -411.5t-154.5 -411.5t-373.5 -141zM305 532.5q0 -165.5 79 -249.5t204 -84q123 0 201.5 84t78.5 249.5t-78.5 249.5t-201.5 84q-125 0 -204 -84t-79 -249.5z" glyph-name="afii10080" horiz-adv-x="1173" unicode="о"/><glyph d="M111 0v1065h925v-1065h-262v858h-401v-858h-262z" glyph-name="afii10081" horiz-adv-x="1144" unicode="п"/><glyph d="M111 -389v1454h262v-154q39 78 127 126t202 48q190 0 329.5 -140t139.5 -412.5t-139 -412.5t-330 -140q-115 0 -202.5 48t-126.5 126v-543h-262zM360 532.5q0 -161.5 82 -247.5t199 -86q119 0 202 86t83 247.5t-83 247.5t-202 86q-117 0 -199 -86t-82 -247.5z" glyph-name="afii10082" horiz-adv-x="1230" unicode="р"/><glyph d="M590 -20q-221 0 -376 138t-155 412q0 141 45.5 251t121 174.5t167.5 97t197 32.5q78 0 149.5 -18t143 -61t121 -130.5t63.5 -209.5h-238q-37 199 -241 198q-135 0 -209 -90t-74 -243.5t74 -241.5t209 -88q205 0 241 200h238q-10 -98 -45 -174.5t-83 -122t-110.5 -75 t-120 -39.5t-118.5 -10z" glyph-name="afii10083" horiz-adv-x="1128" unicode="с"/><glyph d="M397 0v858h-336v207h932v-207h-334v-858h-262z" glyph-name="afii10084" horiz-adv-x="1054" unicode="т"/><glyph d="M145 -182q225 -31 287 123q29 72 0 143l-393 981h268l273 -737l274 737h270l-442 -1094q-94 -231 -212 -315t-325 -62v224z" glyph-name="afii10085" horiz-adv-x="1161" unicode="у"/><glyph d="M500 -389v383q-188 35 -314.5 168t-126.5 366.5t126 368.5t315 170v367h245v-367q188 -37 314.5 -172t126.5 -367q0 -233 -126 -367t-315 -169v-381h-245zM274 528q0 -276 226 -335v675q-226 -59 -226 -340zM745 193q225 59 225.5 335.5t-225.5 339.5v-675z" glyph-name="afii10086" horiz-adv-x="1243" unicode="ф"/><glyph d="M59 0l371 539l-352 526h284l218 -338l215 338h284l-352 -526l373 -539h-285l-235 348l-238 -348h-283z" glyph-name="afii10087" horiz-adv-x="1157" unicode="х"/><glyph d="M111 0v1065h262v-858h401v858h262v-858h121v-494h-250v287h-796z" glyph-name="afii10088" horiz-adv-x="1265" unicode="ц"/><glyph d="M442 274q-170 0 -276.5 100.5t-106.5 313.5v377h263v-346q0 -117 60 -171t159 -54q115 0 182.5 67.5t67.5 157.5v346h262v-1065h-262v485q-16 -74 -109 -142.5t-240 -68.5z" glyph-name="afii10089" horiz-adv-x="1161" unicode="ч"/><glyph d="M111 0v1065h262v-858h309v858h248v-858h309v858h262v-1065h-1390z" glyph-name="afii10090" horiz-adv-x="1611" unicode="ш"/><glyph d="M1374 -287v287h-1263v1065h262v-858h309v858h248v-858h309v858h262v-858h123v-494h-250z" glyph-name="afii10091" horiz-adv-x="1732" unicode="щ"/><glyph d="M39 858v207h446v-365h299q201 0 311.5 -94t110.5 -256q0 -166 -109.5 -258t-312.5 -92h-561v858h-184zM485 207h289q180 0 180 143q0 145 -180 146h-289v-289z" glyph-name="afii10092" horiz-adv-x="1263" unicode="ъ"/><glyph d="M111 0v1065h262v-365h299q201 0 311.5 -94t110.5 -256q0 -166 -110 -258t-312 -92h-561zM373 207h289q180 0 180 143q0 145 -180 146h-289v-289zM1208 0v1065h262v-1065h-262z" glyph-name="afii10093" horiz-adv-x="1581" unicode="ы"/><glyph d="M111 0v1065h262v-365h299q201 0 311.5 -94t110.5 -256q0 -166 -110 -258t-312 -92h-561zM373 207h289q180 0 180 143q0 145 -180 146h-289v-289z" glyph-name="afii10094" horiz-adv-x="1150" unicode="ь"/><glyph d="M500 459v162h313q-20 115 -91 179t-183 64q-205 0 -242 -198h-238q14 123 63.5 210t121 130t143.5 61t150 18q104 0 196 -32.5t168 -97t121 -174t45 -251.5q0 -274 -154.5 -412t-375.5 -138q-61 0 -119 10t-120 39.5t-110.5 75t-83 122t-45.5 174.5h238q37 -201 242 -200 q119 0 190.5 68.5t87.5 189.5h-317z" glyph-name="afii10095" horiz-adv-x="1126" unicode="э"/><glyph d="M92 0v1065h262v-430h131q31 223 178.5 336.5t344.5 113.5q219 0 373.5 -141t154.5 -411.5t-154.5 -411.5t-373.5 -141q-197 0 -344.5 113.5t-178.5 334.5h-131v-428h-262zM725 532.5q0 -165.5 79 -249.5t204 -84q123 0 201.5 84t78.5 249.5t-79 249.5t-201 84 q-125 0 -204 -84t-79 -249.5z" glyph-name="afii10096" horiz-adv-x="1593" unicode="ю"/><glyph d="M76 0l262 381q-131 33 -200.5 119t-69.5 215q0 166 109.5 258t311.5 92h562v-1065h-263v365h-190l-246 -365h-276zM319 715q0 -145 181 -146h288v289h-288q-181 0 -181 -143z" glyph-name="afii10097" horiz-adv-x="1161" unicode="я"/><glyph d="M586 -20q-227 0 -377 137t-150 418q0 279 147.5 414.5t375.5 135.5q223 0 361 -132t138 -408q0 -45 -6 -80h-768q23 -285 285 -285q195 0 242 154h233q-41 -176 -169 -265t-312 -89zM188 1358q0 61 44 103t103.5 42t103.5 -42t44 -103q0 -59 -44 -101.5t-103.5 -42.5 t-103.5 42.5t-44 101.5zM309 625h525q-4 119 -69 189.5t-187 70.5q-117 0 -186 -65.5t-83 -194.5zM651 1358q0 61 44 103t103.5 42t103.5 -42t44 -103q0 -59 -44 -101.5t-103.5 -42.5t-103.5 42.5t-44 101.5z" glyph-name="afii10071" horiz-adv-x="1138" unicode="ё"/><glyph d="M111 0v1065h737v-207h-475v-858h-262zM326 1190l213 280h229l-213 -280h-229z" glyph-name="afii10100" horiz-adv-x="886" unicode="ѓ"/><glyph d="M590 -20q-221 0 -376 138t-155 412q0 141 45.5 251t121 174.5t167.5 97t197 32.5q78 0 149.5 -18t143 -61t121 -130.5t63.5 -209.5h-238q-37 199 -241 198q-113 0 -183.5 -64.5t-91.5 -178.5h314v-162h-318q16 -121 88 -189.5t191 -68.5q205 0 241 200h238 q-10 -98 -45 -174.5t-83 -122t-110.5 -75t-120 -39.5t-118.5 -10z" glyph-name="afii10101" horiz-adv-x="1128" unicode="є"/><glyph d="M92 0v1065h262v-1065h-262zM-158 1358q0 61 44 103t103.5 42t103.5 -42t44 -103q0 -59 -44 -101.5t-103.5 -42.5t-103.5 42.5t-44 101.5zM305 1358q0 61 44 103t103.5 42t103.5 -42t44 -103q0 -59 -44 -101.5t-103.5 -42.5t-103.5 42.5t-44 101.5z" glyph-name="afii10104" horiz-adv-x="448" unicode="ї"/><glyph d="M111 0v1065h262v-457l418 457h296l-430 -459l492 -606h-287l-366 434l-123 -131v-303h-262zM461 1190l213 280h229l-213 -280h-229z" glyph-name="afii10109" horiz-adv-x="1167" unicode="ќ"/><glyph d="M145 -182q225 -31 287 123q29 72 0 143l-393 981h268l273 -737l274 737h270l-442 -1094q-94 -231 -212 -315t-325 -62v224zM260 1470h174q4 -76 38 -111.5t107.5 -35.5t107.5 36t38 111h174q0 -139 -81 -220t-238 -81q-156 0 -238 81t-82 220z" glyph-name="afii10110" horiz-adv-x="1161" unicode="ў"/><glyph d="M383 1196v-1196h-272v1434h628v204h275v-442h-631z" glyph-name="afii10050" horiz-adv-x="1060" unicode="Ґ"/><glyph d="M373 858v-858h-262v1065h512v135h225v-342h-475z" glyph-name="afii10098" horiz-adv-x="886" unicode="ґ"/><glyph d="M111 0v1434h520q334 0 506 -185.5t172 -531.5t-172 -531.5t-506 -185.5h-520zM379 236h225q231 0 330.5 113.5t99.5 367.5t-99 367.5t-331 113.5h-225v-962zM530 -311q0 68 48.5 114.5t116 46.5t114.5 -47t47 -114q0 -66 -47 -113t-114.5 -47t-116 47t-48.5 113z" glyph-name="uni1E0C" horiz-adv-x="1388" unicode="Ḍ"/><glyph d="M528 -20q-190 0 -329.5 140t-139.5 412.5t139.5 412.5t329.5 140q115 0 203 -48t127 -126v523h262v-1434h-262v154q-39 -78 -127 -126t-203 -48zM305 532.5q0 -161.5 83 -247.5t202 -86q117 0 198.5 86t81.5 247.5t-81.5 247.5t-198.5 86q-119 0 -202 -86t-83 -247.5z M446 -311q0 68 48.5 114.5t116 46.5t114.5 -47t47 -114q0 -66 -47 -113t-114.5 -47t-116 47t-48.5 113z" glyph-name="uni1E0D" horiz-adv-x="1230" unicode="ḍ"/><glyph d="M743 -20q-315 0 -489 192.5t-174 538.5q0 352 178 546.5t481 194.5q231 0 393 -114.5t197 -333.5h-268q-59 215 -322 215q-197 0 -293 -134.5t-96 -366t98.5 -368.5t294.5 -137q150 0 250.5 84t100.5 260h-299v217h567v-135q0 -322 -162 -490.5t-457 -168.5zM410 1686 v153h653v-153h-653z" glyph-name="uni1E20" horiz-adv-x="1449" unicode="Ḡ"/><glyph d="M514 27q-188 0 -321.5 131t-133.5 397t134.5 398t320.5 132q111 0 198 -43t134 -116v139h262v-1032q0 -111 -36 -195t-90 -133t-129 -81t-142.5 -42t-141.5 -10q-84 0 -160.5 15.5t-153.5 51t-124 110.5t-47 179h231q4 -76 77 -114.5t171 -38.5q125 0 204 64.5t79 193.5 v153q-47 -74 -134 -116.5t-198 -42.5zM262 1317v153h653v-153h-653zM305 555q0 -150 80 -230.5t196.5 -80.5t195.5 81t79 230q0 152 -79 231.5t-195.5 79.5t-196.5 -79.5t-80 -231.5z" glyph-name="uni1E21" horiz-adv-x="1216" unicode="ḡ"/><glyph d="M993 0v600h-614v-600h-268v1434h268v-611h614v611h269v-1434h-269zM522 -311q0 68 48 114.5t116 46.5t115 -47t47 -114q0 -66 -47 -113t-115 -47t-116 47t-48 113z" glyph-name="uni1E24" horiz-adv-x="1372" unicode="Ḥ"/><glyph d="M111 0v1434h262v-588h8q18 88 107.5 163.5t240.5 75.5q166 0 268.5 -104t102.5 -311v-670h-262v608q0 260 -217 260q-113 0 -180.5 -66.5t-67.5 -193.5v-608h-262zM426 -311q0 68 48 114.5t115.5 46.5t115 -47t47.5 -114q0 -66 -47.5 -113t-115 -47t-115.5 47t-48 113z " glyph-name="uni1E25" unicode="ḥ"/><glyph d="M664 -20q-274 0 -429 125.5t-155 349.5h276q6 -113 82 -181.5t228 -68.5q135 0 208.5 54t73.5 153q0 84 -55 129t-168 67l-197 39q-410 80 -409 395q0 195 144.5 302.5t394 107.5t393 -110.5t143.5 -315.5h-276q0 96 -71 148.5t-196 52.5q-129 0 -189.5 -52.5 t-60.5 -132.5q0 -139 193 -180l184 -37q240 -47 347.5 -145t107.5 -266q0 -213 -156.5 -323.5t-412.5 -110.5zM477 -311q0 68 48 114.5t116 46.5t115 -47t47 -114q0 -66 -47 -113t-115 -47t-116 47t-48 113z" glyph-name="uni1E62" horiz-adv-x="1312" unicode="Ṣ"/><glyph d="M502 -20q-211 0 -331 90t-122 266h234q20 -158 223 -158q193 0 192 129q0 90 -125 115l-196 43q-299 68 -299 305q0 147 116.5 231t311.5 84q203 0 313.5 -92t114.5 -262h-217q-23 156 -209 156q-176 0 -176 -113q0 -92 129 -117l203 -45q143 -33 224 -101.5t81 -197.5 q0 -168 -132 -250.5t-335 -82.5zM344 -311q0 68 48 114.5t115.5 46.5t115 -47t47.5 -114q0 -66 -47.5 -113t-115 -47t-115.5 47t-48 113z" glyph-name="uni1E63" horiz-adv-x="1015" unicode="ṣ"/><glyph d="M475 0v1194h-426v240h1120v-240h-426v-1194h-268zM393 -311q0 68 48 114.5t116 46.5t115 -47t47 -114q0 -66 -47 -113t-115 -47t-116 47t-48 113z" glyph-name="uni1E6C" horiz-adv-x="1218" unicode="Ṭ"/><glyph d="M549 -14q-332 0 -332 313v561h-178v205h178v272h262v-272h209v-205h-209v-520q0 -74 30 -108.5t109 -34.5q43 0 82 4v-197q-67 -18 -151 -18zM336 -311q0 68 48 114.5t115.5 46.5t115 -47t47.5 -114q0 -66 -47.5 -113t-115 -47t-115.5 47t-48 113z" glyph-name="uni1E6D" horiz-adv-x="747" unicode="ṭ"/><glyph d="M424 0l-375 1434h275l251 -1055h13l299 1055h278l299 -1055h13l252 1055h276l-377 -1434h-280l-322 1094l-321 -1094h-281zM727 1839h229l213 -280h-229z" glyph-name="Wgrave" horiz-adv-x="2052" unicode="Ẁ"/><glyph d="M328 0l-289 1065h248l198 -809h9l231 809h227l232 -809h8l199 809h249l-290 -1065h-295l-215 717l-217 -717h-295zM539 1470h229l213 -280h-229z" glyph-name="wgrave" horiz-adv-x="1677" unicode="ẁ"/><glyph d="M424 0l-375 1434h275l251 -1055h13l299 1055h278l299 -1055h13l252 1055h276l-377 -1434h-280l-322 1094l-321 -1094h-281zM903 1559l213 280h230l-213 -280h-230z" glyph-name="Wacute" horiz-adv-x="2052" unicode="Ẃ"/><glyph d="M328 0l-289 1065h248l198 -809h9l231 809h227l232 -809h8l199 809h249l-290 -1065h-295l-215 717l-217 -717h-295zM715 1190l213 280h229l-213 -280h-229z" glyph-name="wacute" horiz-adv-x="1677" unicode="ẃ"/><glyph d="M424 0l-375 1434h275l251 -1055h13l299 1055h278l299 -1055h13l252 1055h276l-377 -1434h-280l-322 1094l-321 -1094h-281zM645 1726q0 61 44 103.5t103.5 42.5t103.5 -42t44 -104q0 -59 -44 -101t-103.5 -42t-103.5 42t-44 101zM1108 1726q0 61 44 103.5t103.5 42.5 t103.5 -42t44 -104q0 -59 -44 -101t-103.5 -42t-103.5 42t-44 101z" glyph-name="Wdieresis" horiz-adv-x="2052" unicode="Ẅ"/><glyph d="M328 0l-289 1065h248l198 -809h9l231 809h227l232 -809h8l199 809h249l-290 -1065h-295l-215 717l-217 -717h-295zM457 1358q0 61 44 103t103.5 42t103.5 -42t44 -103q0 -59 -44 -101.5t-103.5 -42.5t-103.5 42.5t-44 101.5zM920 1358q0 61 44 103t103 42t103 -42 t44 -103q0 -59 -44 -101.5t-103 -42.5t-103 42.5t-44 101.5z" glyph-name="wdieresis" horiz-adv-x="1677" unicode="ẅ"/><glyph d="M82 0v236l795 962h-773v236h1072v-236l-797 -962h805v-236h-1102zM487 -311q0 68 48.5 114.5t116 46.5t114.5 -47t47 -114q0 -66 -47 -113t-114.5 -47t-116 47t-48.5 113z" glyph-name="uni1E92" horiz-adv-x="1265" unicode="Ẓ"/><glyph d="M82 0v221l561 623h-541v221h852v-221l-559 -623h559v-221h-872zM356 -311q0 68 48.5 114.5t116 46.5t114.5 -47t47 -114q0 -66 -47 -113t-114.5 -47t-116 47t-48.5 113z" glyph-name="uni1E93" horiz-adv-x="1036" unicode="ẓ"/><glyph d="M918 -20q-215 0 -324 114.5t-109 325.5h246q0 -84 45 -144.5t139.5 -60.5t140.5 63.5t46 153.5q0 117 -79 184.5t-237 67.5h-204l315 533h-338q-96 0 -136 -43.5t-40 -135.5v-1038h-272v1065q0 205 102 297t319 92h756l-346 -557q199 -20 323 -138t124 -327 q0 -205 -123 -328.5t-348 -123.5z" glyph-name="uni1E9E" horiz-adv-x="1468" unicode="ẞ"/><glyph d="M39 0l526 1434h344l527 -1434h-285l-102 293h-625l-102 -293h-283zM496 494h483l-234 663h-16zM575 -311q0 68 48.5 114.5t116 46.5t114.5 -47t47 -114q0 -66 -47 -113t-114.5 -47t-116 47t-48.5 113z" glyph-name="uni1EA0" horiz-adv-x="1472" unicode="Ạ"/><glyph d="M401 -20q-147 0 -244.5 74.5t-97.5 224.5q0 80 29 137t84 92t114.5 53.5t141.5 28.5l199 26q80 10 107.5 29t27.5 60v22q0 168 -193 168q-207 0 -207 -156v-20l-245 -2v47q0 322 458 321q233 0 339 -85t106 -263v-737h-252v190h-10q-16 -41 -49 -82.5t-116 -84.5 t-192 -43zM322 301q0 -131 165 -131q119 0 197 63.5t78 135.5v135q-18 -31 -125 -45l-170 -27q-145 -22 -145 -131zM406 -311q0 68 48 114.5t115.5 46.5t114.5 -47t47 -114q0 -66 -47 -113t-114.5 -47t-115.5 47t-48 113z" glyph-name="uni1EA1" horiz-adv-x="1128" unicode="ạ"/><glyph d="M39 0l526 1434h344l527 -1434h-285l-102 293h-625l-102 -293h-283zM496 494h483l-234 663h-16zM541 1735q0 104 61.5 154t145.5 50q90 0 152.5 -53t62.5 -151q0 -86 -51.5 -138.5t-129.5 -62.5l-65 108q98 2 98 82q0 35 -19.5 55.5t-50.5 20.5q-63 0 -69 -65h-135z" glyph-name="uni1EA2" horiz-adv-x="1472" unicode="Ả"/><glyph d="M401 -20q-147 0 -244.5 74.5t-97.5 224.5q0 80 29 137t84 92t114.5 53.5t141.5 28.5l199 26q80 10 107.5 29t27.5 60v22q0 168 -193 168q-207 0 -207 -156v-20l-245 -2v47q0 322 458 321q233 0 339 -85t106 -263v-737h-252v190h-10q-16 -41 -49 -82.5t-116 -84.5 t-192 -43zM322 301q0 -131 165 -131q119 0 197 63.5t78 135.5v135q-18 -31 -125 -45l-170 -27q-145 -22 -145 -131zM375 1366q0 104 61.5 154.5t145.5 50.5q90 0 152.5 -53.5t62.5 -151.5q0 -86 -51.5 -138t-129.5 -63l-65 109q98 2 98 82q0 35 -19.5 55.5t-49.5 20.5 q-63 0 -70 -66h-135z" glyph-name="uni1EA3" horiz-adv-x="1128" unicode="ả"/><glyph d="M39 0l526 1434h344l527 -1434h-285l-102 293h-625l-102 -293h-283zM356 1559l201 280h365l200 -280h-235l-148 208l-147 -208h-236zM496 494h483l-234 663h-16zM1032 1761l213 281h230l-213 -281h-230z" glyph-name="uni1EA4" horiz-adv-x="1472" unicode="Ấ"/><glyph d="M401 -20q-147 0 -244.5 74.5t-97.5 224.5q0 80 29 137t84 92t114.5 53.5t141.5 28.5l199 26q80 10 107.5 29t27.5 60v22q0 168 -193 168q-207 0 -207 -156v-20l-245 -2v47q0 322 458 321q233 0 339 -85t106 -263v-737h-252v190h-10q-16 -41 -49 -82.5t-116 -84.5 t-192 -43zM190 1190l201 280h365l200 -280h-235l-148 209l-147 -209h-236zM322 301q0 -131 165 -131q119 0 197 63.5t78 135.5v135q-18 -31 -125 -45l-170 -27q-145 -22 -145 -131zM866 1393l213 280h230l-213 -280h-230z" glyph-name="uni1EA5" horiz-adv-x="1128" unicode="ấ"/><glyph d="M39 0l526 1434h344l527 -1434h-285l-102 293h-625l-102 -293h-283zM356 1559l201 280h365l200 -280h-235l-148 208l-147 -208h-236zM496 494h483l-234 663h-16zM901 2042h229l187 -281h-227z" glyph-name="uni1EA6" horiz-adv-x="1472" unicode="Ầ"/><glyph d="M401 -20q-147 0 -244.5 74.5t-97.5 224.5q0 80 29 137t84 92t114.5 53.5t141.5 28.5l199 26q80 10 107.5 29t27.5 60v22q0 168 -193 168q-207 0 -207 -156v-20l-245 -2v47q0 322 458 321q233 0 339 -85t106 -263v-737h-252v190h-10q-16 -41 -49 -82.5t-116 -84.5 t-192 -43zM190 1190l201 280h365l200 -280h-235l-148 209l-147 -209h-236zM322 301q0 -131 165 -131q119 0 197 63.5t78 135.5v135q-18 -31 -125 -45l-170 -27q-145 -22 -145 -131zM735 1673h230l186 -280h-227z" glyph-name="uni1EA7" horiz-adv-x="1128" unicode="ầ"/><glyph d="M39 0l526 1434h344l527 -1434h-285l-102 293h-625l-102 -293h-283zM356 1559l201 280h365l200 -280h-235l-148 208l-147 -208h-236zM496 494h483l-234 663h-16zM840 1989q0 104 61.5 154t145.5 50q90 0 152.5 -53t62.5 -151q0 -86 -51.5 -138.5t-129.5 -62.5l-65 108 q98 2 98 82q0 35 -19.5 55.5t-50.5 20.5q-63 0 -69 -65h-135z" glyph-name="uni1EA8" horiz-adv-x="1472" unicode="Ẩ"/><glyph d="M401 -20q-147 0 -244.5 74.5t-97.5 224.5q0 80 29 137t84 92t114.5 53.5t141.5 28.5l199 26q80 10 107.5 29t27.5 60v22q0 168 -193 168q-207 0 -207 -156v-20l-245 -2v47q0 322 458 321q233 0 339 -85t106 -263v-737h-252v190h-10q-16 -41 -49 -82.5t-116 -84.5 t-192 -43zM190 1190l201 280h365l200 -280h-235l-148 209l-147 -209h-236zM322 301q0 -131 165 -131q119 0 197 63.5t78 135.5v135q-18 -31 -125 -45l-170 -27q-145 -22 -145 -131zM674 1620q0 104 61.5 154.5t145.5 50.5q90 0 152.5 -53.5t62.5 -151.5q0 -86 -51.5 -138 t-129.5 -63l-65 109q98 2 98 82q0 35 -19.5 55.5t-49.5 20.5q-63 0 -70 -66h-135z" glyph-name="uni1EA9" horiz-adv-x="1128" unicode="ẩ"/><glyph d="M39 0l526 1434h344l527 -1434h-285l-102 293h-625l-102 -293h-283zM356 1559l201 280h365l200 -280h-235l-148 208l-147 -208h-236zM391 1970q0 106 51.5 165.5t145.5 59.5q66 0 116 -30.5t85.5 -60t66.5 -29.5q27 0 49.5 18t24.5 49h155q0 -106 -51 -165.5t-145 -59.5 q-66 0 -116 30.5t-86 60.5t-66 30q-27 0 -49.5 -18.5t-24.5 -49.5h-156zM496 494h483l-234 663h-16z" glyph-name="uni1EAA" horiz-adv-x="1472" unicode="Ẫ"/><glyph d="M401 -20q-147 0 -244.5 74.5t-97.5 224.5q0 80 29 137t84 92t114.5 53.5t141.5 28.5l199 26q80 10 107.5 29t27.5 60v22q0 168 -193 168q-207 0 -207 -156v-20l-245 -2v47q0 322 458 321q233 0 339 -85t106 -263v-737h-252v190h-10q-16 -41 -49 -82.5t-116 -84.5 t-192 -43zM190 1190l201 280h365l200 -280h-235l-148 209l-147 -209h-236zM225 1602q0 106 51.5 165.5t145.5 59.5q66 0 116 -31t85.5 -60.5t66.5 -29.5q27 0 49.5 18.5t24.5 49.5h156q0 -106 -51.5 -166t-145.5 -60q-66 0 -116 31t-86 60.5t-66 29.5q-27 0 -49.5 -18.5 t-24.5 -48.5h-156zM322 301q0 -131 165 -131q119 0 197 63.5t78 135.5v135q-18 -31 -125 -45l-170 -27q-145 -22 -145 -131z" glyph-name="uni1EAB" horiz-adv-x="1128" unicode="ẫ"/><glyph d="M39 0l526 1434h344l527 -1434h-285l-102 293h-625l-102 -293h-283zM356 1559l201 280h365l200 -280h-235l-148 208l-147 -208h-236zM496 494h483l-234 663h-16zM575 -311q0 68 48.5 114.5t116 46.5t114.5 -47t47 -114q0 -66 -47 -113t-114.5 -47t-116 47t-48.5 113z" glyph-name="uni1EAC" horiz-adv-x="1472" unicode="Ậ"/><glyph d="M401 -20q-147 0 -244.5 74.5t-97.5 224.5q0 80 29 137t84 92t114.5 53.5t141.5 28.5l199 26q80 10 107.5 29t27.5 60v22q0 168 -193 168q-207 0 -207 -156v-20l-245 -2v47q0 322 458 321q233 0 339 -85t106 -263v-737h-252v190h-10q-16 -41 -49 -82.5t-116 -84.5 t-192 -43zM190 1190l201 280h365l200 -280h-235l-148 209l-147 -209h-236zM322 301q0 -131 165 -131q119 0 197 63.5t78 135.5v135q-18 -31 -125 -45l-170 -27q-145 -22 -145 -131zM406 -311q0 68 48 114.5t115.5 46.5t114.5 -47t47 -114q0 -66 -47 -113t-114.5 -47 t-115.5 47t-48 113z" glyph-name="uni1EAD" horiz-adv-x="1128" unicode="ậ"/><glyph d="M39 0l526 1434h344l527 -1434h-285l-102 293h-625l-102 -293h-283zM418 1839h174q4 -76 38 -111.5t107.5 -35.5t107.5 35.5t38 111.5h174q0 -139 -81 -220t-239 -81q-156 0 -237.5 81t-81.5 220zM496 494h483l-234 663h-16zM602 1903l213 280h229l-213 -280h-229z" glyph-name="uni1EAE" horiz-adv-x="1472" unicode="Ắ"/><glyph d="M401 -20q-147 0 -244.5 74.5t-97.5 224.5q0 80 29 137t84 92t114.5 53.5t141.5 28.5l199 26q80 10 107.5 29t27.5 60v22q0 168 -193 168q-207 0 -207 -156v-20l-245 -2v47q0 322 458 321q233 0 339 -85t106 -263v-737h-252v190h-10q-16 -41 -49 -82.5t-116 -84.5 t-192 -43zM254 1470h174q4 -76 38 -111.5t107.5 -35.5t107.5 36t38 111h174q0 -139 -81 -220t-239 -81q-156 0 -237.5 81t-81.5 220zM322 301q0 -131 165 -131q119 0 197 63.5t78 135.5v135q-18 -31 -125 -45l-170 -27q-145 -22 -145 -131zM438 1534l213 281h230l-213 -281 h-230z" glyph-name="uni1EAF" horiz-adv-x="1128" unicode="ắ"/><glyph d="M39 0l526 1434h344l527 -1434h-285l-102 293h-625l-102 -293h-283zM418 1839h174q4 -76 38 -111.5t107.5 -35.5t107.5 35.5t38 111.5h174q0 -139 -81 -220t-239 -81q-156 0 -237.5 81t-81.5 220zM418 2183h229l213 -280h-229zM496 494h483l-234 663h-16z" glyph-name="uni1EB0" horiz-adv-x="1472" unicode="Ằ"/><glyph d="M401 -20q-147 0 -244.5 74.5t-97.5 224.5q0 80 29 137t84 92t114.5 53.5t141.5 28.5l199 26q80 10 107.5 29t27.5 60v22q0 168 -193 168q-207 0 -207 -156v-20l-245 -2v47q0 322 458 321q233 0 339 -85t106 -263v-737h-252v190h-10q-16 -41 -49 -82.5t-116 -84.5 t-192 -43zM254 1470h174q4 -76 38 -111.5t107.5 -35.5t107.5 36t38 111h174q0 -139 -81 -220t-239 -81q-156 0 -237.5 81t-81.5 220zM254 1815h229l213 -281h-229zM322 301q0 -131 165 -131q119 0 197 63.5t78 135.5v135q-18 -31 -125 -45l-170 -27q-145 -22 -145 -131z" glyph-name="uni1EB1" horiz-adv-x="1128" unicode="ằ"/><glyph d="M39 0l526 1434h344l527 -1434h-285l-102 293h-625l-102 -293h-283zM418 1839h174q4 -76 38 -111.5t107.5 -35.5t107.5 35.5t38 111.5h174q0 -139 -81 -220t-239 -81q-156 0 -237.5 81t-81.5 220zM461 2003q0 104 61.5 154.5t145.5 50.5q90 0 152.5 -53.5t62.5 -151.5 q0 -86 -51.5 -138.5t-129.5 -62.5l-65 109q98 2 98 82q0 35 -19.5 55t-49.5 20q-63 0 -70 -65h-135zM496 494h483l-234 663h-16z" glyph-name="uni1EB2" horiz-adv-x="1472" unicode="Ẳ"/><glyph d="M401 -20q-147 0 -244.5 74.5t-97.5 224.5q0 80 29 137t84 92t114.5 53.5t141.5 28.5l199 26q80 10 107.5 29t27.5 60v22q0 168 -193 168q-207 0 -207 -156v-20l-245 -2v47q0 322 458 321q233 0 339 -85t106 -263v-737h-252v190h-10q-16 -41 -49 -82.5t-116 -84.5 t-192 -43zM254 1470h174q4 -76 38 -111.5t107.5 -35.5t107.5 36t38 111h174q0 -139 -81 -220t-239 -81q-156 0 -237.5 81t-81.5 220zM297 1634q0 104 61.5 154.5t145.5 50.5q90 0 152.5 -53t62.5 -152q0 -86 -51.5 -138t-128.5 -62l-66 108q98 2 98 82q0 35 -19.5 55.5 t-49.5 20.5q-63 0 -70 -66h-135zM322 301q0 -131 165 -131q119 0 197 63.5t78 135.5v135q-18 -31 -125 -45l-170 -27q-145 -22 -145 -131z" glyph-name="uni1EB3" horiz-adv-x="1128" unicode="ẳ"/><glyph d="M39 0l526 1434h344l527 -1434h-285l-102 293h-625l-102 -293h-283zM391 1980q0 106 51.5 166t145.5 60q51 0 95 -18.5t67.5 -42t51 -42t54.5 -18.5t49.5 18.5t24.5 48.5h155q0 -106 -51 -165.5t-145 -59.5q-51 0 -95 18.5t-68 42t-51.5 42t-54 18.5t-49 -18.5 t-24.5 -49.5h-156zM418 1839h174q4 -76 38 -111.5t107.5 -35.5t107.5 35.5t38 111.5h174q0 -139 -81 -220t-239 -81q-156 0 -237.5 81t-81.5 220zM496 494h483l-234 663h-16z" glyph-name="uni1EB4" horiz-adv-x="1472" unicode="Ẵ"/><glyph d="M401 -20q-147 0 -244.5 74.5t-97.5 224.5q0 80 29 137t84 92t114.5 53.5t141.5 28.5l199 26q80 10 107.5 29t27.5 60v22q0 168 -193 168q-207 0 -207 -156v-20l-245 -2v47q0 322 458 321q233 0 339 -85t106 -263v-737h-252v190h-10q-16 -41 -49 -82.5t-116 -84.5 t-192 -43zM227 1612q0 106 51.5 165.5t145.5 59.5q51 0 95 -18.5t67.5 -42t51.5 -42t54.5 -18.5t49 18.5t24.5 49.5h156q0 -106 -51.5 -165.5t-145.5 -59.5q-51 0 -95 18t-67.5 41.5t-51.5 42t-54.5 18.5t-49 -18.5t-24.5 -48.5h-156zM254 1470h174q4 -76 38 -111.5 t107.5 -35.5t107.5 36t38 111h174q0 -139 -81 -220t-239 -81q-156 0 -237.5 81t-81.5 220zM322 301q0 -131 165 -131q119 0 197 63.5t78 135.5v135q-18 -31 -125 -45l-170 -27q-145 -22 -145 -131z" glyph-name="uni1EB5" horiz-adv-x="1128" unicode="ẵ"/><glyph d="M39 0l526 1434h344l527 -1434h-285l-102 293h-625l-102 -293h-283zM418 1839h174q4 -76 38 -111.5t107.5 -35.5t107.5 35.5t38 111.5h174q0 -139 -81 -220t-239 -81q-156 0 -237.5 81t-81.5 220zM496 494h483l-234 663h-16zM575 -311q0 68 48.5 114.5t116 46.5t114.5 -47 t47 -114q0 -66 -47 -113t-114.5 -47t-116 47t-48.5 113z" glyph-name="uni1EB6" horiz-adv-x="1472" unicode="Ặ"/><glyph d="M401 -20q-147 0 -244.5 74.5t-97.5 224.5q0 80 29 137t84 92t114.5 53.5t141.5 28.5l199 26q80 10 107.5 29t27.5 60v22q0 168 -193 168q-207 0 -207 -156v-20l-245 -2v47q0 322 458 321q233 0 339 -85t106 -263v-737h-252v190h-10q-16 -41 -49 -82.5t-116 -84.5 t-192 -43zM254 1470h174q4 -76 38 -111.5t107.5 -35.5t107.5 36t38 111h174q0 -139 -81 -220t-239 -81q-156 0 -237.5 81t-81.5 220zM322 301q0 -131 165 -131q119 0 197 63.5t78 135.5v135q-18 -31 -125 -45l-170 -27q-145 -22 -145 -131zM406 -311q0 68 48 114.5 t115.5 46.5t114.5 -47t47 -114q0 -66 -47 -113t-114.5 -47t-115.5 47t-48 113z" glyph-name="uni1EB7" horiz-adv-x="1128" unicode="ặ"/><glyph d="M111 0v1434h960v-236h-692v-364h631v-211h-631v-387h713v-236h-981zM444 -311q0 68 48.5 114.5t116 46.5t114.5 -47t47 -114q0 -66 -47 -113t-114.5 -47t-116 47t-48.5 113z" glyph-name="uni1EB8" horiz-adv-x="1148" unicode="Ẹ"/><glyph d="M586 -20q-227 0 -377 137t-150 418q0 279 147.5 414.5t375.5 135.5q223 0 361 -132t138 -408q0 -45 -6 -80h-768q23 -285 285 -285q195 0 242 154h233q-41 -176 -169 -265t-312 -89zM309 625h525q-4 119 -69 189.5t-187 70.5q-117 0 -186 -65.5t-83 -194.5zM410 -311 q0 68 48 114.5t115.5 46.5t114.5 -47t47 -114q0 -66 -47 -113t-114.5 -47t-115.5 47t-48 113z" glyph-name="uni1EB9" horiz-adv-x="1138" unicode="ẹ"/><glyph d="M111 0v1434h960v-236h-692v-364h631v-211h-631v-387h713v-236h-981zM412 1735q0 104 61.5 154t144.5 50q90 0 153 -53t63 -151q0 -86 -51.5 -138.5t-129.5 -62.5l-65 108q98 2 98 82q0 35 -19.5 55.5t-50.5 20.5q-63 0 -69 -65h-135z" glyph-name="uni1EBA" horiz-adv-x="1148" unicode="Ẻ"/><glyph d="M586 -20q-227 0 -377 137t-150 418q0 279 147.5 414.5t375.5 135.5q223 0 361 -132t138 -408q0 -45 -6 -80h-768q23 -285 285 -285q195 0 242 154h233q-41 -176 -169 -265t-312 -89zM309 625h525q-4 119 -69 189.5t-187 70.5q-117 0 -186 -65.5t-83 -194.5zM373 1366 q0 104 61.5 154.5t145.5 50.5q90 0 152.5 -53.5t62.5 -151.5q0 -86 -51.5 -138t-129.5 -63l-65 109q98 2 98 82q0 35 -19.5 55.5t-49.5 20.5q-63 0 -70 -66h-135z" glyph-name="uni1EBB" horiz-adv-x="1138" unicode="ẻ"/><glyph d="M111 0v1434h960v-236h-692v-364h631v-211h-631v-387h713v-236h-981zM262 1636q0 106 51.5 166t145.5 60q51 0 95 -18.5t67.5 -42t51 -42t54.5 -18.5t49.5 18.5t24.5 48.5h155q0 -106 -51 -165.5t-145 -59.5q-51 0 -95 18.5t-68 42t-51.5 42t-54 18.5t-49 -18.5 t-24.5 -49.5h-156z" glyph-name="uni1EBC" horiz-adv-x="1148" unicode="Ẽ"/><glyph d="M586 -20q-227 0 -377 137t-150 418q0 279 147.5 414.5t375.5 135.5q223 0 361 -132t138 -408q0 -45 -6 -80h-768q23 -285 285 -285q195 0 242 154h233q-41 -176 -169 -265t-312 -89zM223 1268q0 106 51.5 165.5t145.5 59.5q51 0 95 -18.5t67.5 -42t51.5 -42t54.5 -18.5 t49 18.5t24.5 49.5h156q0 -106 -51.5 -166t-145.5 -60q-51 0 -95 18.5t-67.5 42t-51.5 42t-54.5 18.5t-49 -18.5t-24.5 -48.5h-156zM309 625h525q-4 119 -69 189.5t-187 70.5q-117 0 -186 -65.5t-83 -194.5z" glyph-name="uni1EBD" horiz-adv-x="1138" unicode="ẽ"/><glyph d="M111 0v1434h960v-236h-692v-364h631v-211h-631v-387h713v-236h-981zM227 1559l201 280h365l200 -280h-235l-148 208l-147 -208h-236zM903 1761l213 281h230l-213 -281h-230z" glyph-name="uni1EBE" horiz-adv-x="1148" unicode="Ế"/><glyph d="M586 -20q-227 0 -377 137t-150 418q0 279 147.5 414.5t375.5 135.5q223 0 361 -132t138 -408q0 -45 -6 -80h-768q23 -285 285 -285q195 0 242 154h233q-41 -176 -169 -265t-312 -89zM188 1190l201 280h365l200 -280h-235l-148 209l-147 -209h-236zM309 625h525 q-4 119 -69 189.5t-187 70.5q-117 0 -186 -65.5t-83 -194.5zM864 1393l213 280h230l-213 -280h-230z" glyph-name="uni1EBF" horiz-adv-x="1138" unicode="ế"/><glyph d="M111 0v1434h960v-236h-692v-364h631v-211h-631v-387h713v-236h-981zM227 1559l201 280h365l200 -280h-235l-148 208l-147 -208h-236zM772 2042h229l187 -281h-227z" glyph-name="uni1EC0" horiz-adv-x="1148" unicode="Ề"/><glyph d="M586 -20q-227 0 -377 137t-150 418q0 279 147.5 414.5t375.5 135.5q223 0 361 -132t138 -408q0 -45 -6 -80h-768q23 -285 285 -285q195 0 242 154h233q-41 -176 -169 -265t-312 -89zM188 1190l201 280h365l200 -280h-235l-148 209l-147 -209h-236zM309 625h525 q-4 119 -69 189.5t-187 70.5q-117 0 -186 -65.5t-83 -194.5zM733 1673h230l186 -280h-227z" glyph-name="uni1EC1" horiz-adv-x="1138" unicode="ề"/><glyph d="M111 0v1434h960v-236h-692v-364h631v-211h-631v-387h713v-236h-981zM227 1559l201 280h365l200 -280h-235l-148 208l-147 -208h-236zM711 1989q0 104 61.5 154t145.5 50q90 0 152.5 -53t62.5 -151q0 -86 -51.5 -138.5t-129.5 -62.5l-65 108q98 2 98 82q0 35 -19.5 55.5 t-50.5 20.5q-63 0 -69 -65h-135z" glyph-name="uni1EC2" horiz-adv-x="1148" unicode="Ể"/><glyph d="M586 -20q-227 0 -377 137t-150 418q0 279 147.5 414.5t375.5 135.5q223 0 361 -132t138 -408q0 -45 -6 -80h-768q23 -285 285 -285q195 0 242 154h233q-41 -176 -169 -265t-312 -89zM188 1190l201 280h365l200 -280h-235l-148 209l-147 -209h-236zM309 625h525 q-4 119 -69 189.5t-187 70.5q-117 0 -186 -65.5t-83 -194.5zM672 1620q0 104 61.5 154.5t145.5 50.5q90 0 152.5 -53.5t62.5 -151.5q0 -86 -51.5 -138t-129.5 -63l-65 109q98 2 98 82q0 35 -19.5 55.5t-49.5 20.5q-63 0 -70 -66h-135z" glyph-name="uni1EC3" horiz-adv-x="1138" unicode="ể"/><glyph d="M111 0v1434h960v-236h-692v-364h631v-211h-631v-387h713v-236h-981zM227 1559l201 280h365l200 -280h-235l-148 208l-147 -208h-236zM262 1970q0 106 51.5 165.5t145.5 59.5q66 0 116 -30.5t85.5 -60t66.5 -29.5q27 0 49.5 18t24.5 49h155q0 -106 -51 -165.5t-145 -59.5 q-66 0 -116 30.5t-86 60.5t-66 30q-27 0 -49.5 -18.5t-24.5 -49.5h-156z" glyph-name="uni1EC4" horiz-adv-x="1148" unicode="Ễ"/><glyph d="M586 -20q-227 0 -377 137t-150 418q0 279 147.5 414.5t375.5 135.5q223 0 361 -132t138 -408q0 -45 -6 -80h-768q23 -285 285 -285q195 0 242 154h233q-41 -176 -169 -265t-312 -89zM188 1190l201 280h365l200 -280h-235l-148 209l-147 -209h-236zM223 1602 q0 106 51.5 165.5t145.5 59.5q66 0 116 -31t85.5 -60.5t66.5 -29.5q27 0 49.5 18.5t24.5 49.5h156q0 -106 -51.5 -166t-145.5 -60q-66 0 -116 31t-86 60.5t-66 29.5q-27 0 -49.5 -18.5t-24.5 -48.5h-156zM309 625h525q-4 119 -69 189.5t-187 70.5q-117 0 -186 -65.5 t-83 -194.5z" glyph-name="uni1EC5" horiz-adv-x="1138" unicode="ễ"/><glyph d="M111 0v1434h960v-236h-692v-364h631v-211h-631v-387h713v-236h-981zM227 1559l201 280h365l200 -280h-235l-148 208l-147 -208h-236zM444 -311q0 68 48.5 114.5t116 46.5t114.5 -47t47 -114q0 -66 -47 -113t-114.5 -47t-116 47t-48.5 113z" glyph-name="uni1EC6" horiz-adv-x="1148" unicode="Ệ"/><glyph d="M586 -20q-227 0 -377 137t-150 418q0 279 147.5 414.5t375.5 135.5q223 0 361 -132t138 -408q0 -45 -6 -80h-768q23 -285 285 -285q195 0 242 154h233q-41 -176 -169 -265t-312 -89zM188 1190l201 280h365l200 -280h-235l-148 209l-147 -209h-236zM309 625h525 q-4 119 -69 189.5t-187 70.5q-117 0 -186 -65.5t-83 -194.5zM410 -311q0 68 48 114.5t115.5 46.5t114.5 -47t47 -114q0 -66 -47 -113t-114.5 -47t-115.5 47t-48 113z" glyph-name="uni1EC7" horiz-adv-x="1138" unicode="ệ"/><glyph d="M111 0v1434h268v-1434h-268zM45 1735q0 104 61.5 154t145.5 50q90 0 152.5 -53t62.5 -151q0 -86 -51 -138.5t-129 -62.5l-66 108q98 2 98 82q0 35 -19 55.5t-50 20.5q-63 0 -70 -65h-135z" glyph-name="uni1EC8" horiz-adv-x="487" unicode="Ỉ"/><glyph d="M92 0v1065h262v-1065h-262zM27 1366q0 104 61.5 154.5t144.5 50.5q90 0 153 -53.5t63 -151.5q0 -86 -51.5 -138t-129.5 -63l-65 109q98 2 98 82q0 35 -19.5 55.5t-50.5 20.5q-63 0 -69 -66h-135z" glyph-name="uni1EC9" horiz-adv-x="448" unicode="ỉ"/><glyph d="M111 0v1434h268v-1434h-268zM80 -311q0 68 48 114.5t115.5 46.5t115 -47t47.5 -114q0 -66 -47.5 -113t-115 -47t-115.5 47t-48 113z" glyph-name="uni1ECA" horiz-adv-x="487" unicode="Ị"/><glyph d="M111 0v1065h262v-1065h-262zM92 1361.5q0 61.5 44 104.5t106 43q59 0 103 -43t44 -104.5t-44 -104.5t-103 -43q-61 0 -105.5 43t-44.5 104.5zM102 -311q0 68 48.5 114.5t116 46.5t114.5 -47t47 -114q0 -66 -47 -113t-114.5 -47t-116 47t-48.5 113z" glyph-name="uni1ECB" horiz-adv-x="481" unicode="ị"/><glyph d="M754 -20q-303 0 -488.5 201.5t-185.5 535.5q0 336 185.5 535.5t488.5 199.5t489.5 -199.5t186.5 -535.5q0 -334 -186.5 -535.5t-489.5 -201.5zM356 716.5q0 -235.5 106.5 -369.5t291 -134t291 134t106.5 369.5t-106.5 369t-291 133.5t-291 -133.5t-106.5 -369zM590 -311 q0 68 48 114.5t115.5 46.5t114.5 -47t47 -114q0 -66 -47 -113t-114.5 -47t-115.5 47t-48 113z" glyph-name="uni1ECC" horiz-adv-x="1507" unicode="Ọ"/><glyph d="M588 -20q-221 0 -375 141t-154 411.5t154 411.5t375 141q219 0 373.5 -141t154.5 -411.5t-154.5 -411.5t-373.5 -141zM305 532.5q0 -165.5 79 -249.5t204 -84q123 0 201.5 84t78.5 249.5t-78.5 249.5t-201.5 84q-125 0 -204 -84t-79 -249.5zM424 -311q0 68 48 114.5 t115.5 46.5t115 -47t47.5 -114q0 -66 -47.5 -113t-115 -47t-115.5 47t-48 113z" glyph-name="uni1ECD" horiz-adv-x="1173" unicode="ọ"/><glyph d="M754 -20q-303 0 -488.5 201.5t-185.5 535.5q0 336 185.5 535.5t488.5 199.5t489.5 -199.5t186.5 -535.5q0 -334 -186.5 -535.5t-489.5 -201.5zM356 716.5q0 -235.5 106.5 -369.5t291 -134t291 134t106.5 369.5t-106.5 369t-291 133.5t-291 -133.5t-106.5 -369zM557 1735 q0 104 61.5 154t145.5 50q90 0 152.5 -53t62.5 -151q0 -86 -51 -138.5t-129 -62.5l-66 108q98 2 98 82q0 35 -19 55.5t-50 20.5q-63 0 -70 -65h-135z" glyph-name="uni1ECE" horiz-adv-x="1507" unicode="Ỏ"/><glyph d="M588 -20q-221 0 -375 141t-154 411.5t154 411.5t375 141q219 0 373.5 -141t154.5 -411.5t-154.5 -411.5t-373.5 -141zM305 532.5q0 -165.5 79 -249.5t204 -84q123 0 201.5 84t78.5 249.5t-78.5 249.5t-201.5 84q-125 0 -204 -84t-79 -249.5zM389 1366q0 104 61.5 154.5 t145.5 50.5q90 0 152.5 -53.5t62.5 -151.5q0 -86 -51 -138t-129 -63l-66 109q98 2 99 82q0 35 -19.5 55.5t-50.5 20.5q-63 0 -70 -66h-135z" glyph-name="uni1ECF" horiz-adv-x="1173" unicode="ỏ"/><glyph d="M754 -20q-303 0 -488.5 201.5t-185.5 535.5q0 336 185.5 535.5t488.5 199.5t489.5 -199.5t186.5 -535.5q0 -334 -186.5 -535.5t-489.5 -201.5zM356 716.5q0 -235.5 106.5 -369.5t291 -134t291 134t106.5 369.5t-106.5 369t-291 133.5t-291 -133.5t-106.5 -369zM373 1559 l200 280h365l201 -280h-236l-147 208l-148 -208h-235zM1049 1761l213 281h229l-213 -281h-229z" glyph-name="uni1ED0" horiz-adv-x="1507" unicode="Ố"/><glyph d="M588 -20q-221 0 -375 141t-154 411.5t154 411.5t375 141q219 0 373.5 -141t154.5 -411.5t-154.5 -411.5t-373.5 -141zM205 1190l201 280h364l201 -280h-236l-147 209l-148 -209h-235zM305 532.5q0 -165.5 79 -249.5t204 -84q123 0 201.5 84t78.5 249.5t-78.5 249.5 t-201.5 84q-125 0 -204 -84t-79 -249.5zM881 1393l213 280h229l-213 -280h-229z" glyph-name="uni1ED1" horiz-adv-x="1173" unicode="ố"/><glyph d="M754 -20q-303 0 -488.5 201.5t-185.5 535.5q0 336 185.5 535.5t488.5 199.5t489.5 -199.5t186.5 -535.5q0 -334 -186.5 -535.5t-489.5 -201.5zM356 716.5q0 -235.5 106.5 -369.5t291 -134t291 134t106.5 369.5t-106.5 369t-291 133.5t-291 -133.5t-106.5 -369zM373 1559 l200 280h365l201 -280h-236l-147 208l-148 -208h-235zM918 2042h229l186 -281h-227z" glyph-name="uni1ED2" horiz-adv-x="1507" unicode="Ồ"/><glyph d="M588 -20q-221 0 -375 141t-154 411.5t154 411.5t375 141q219 0 373.5 -141t154.5 -411.5t-154.5 -411.5t-373.5 -141zM205 1190l201 280h364l201 -280h-236l-147 209l-148 -209h-235zM305 532.5q0 -165.5 79 -249.5t204 -84q123 0 201.5 84t78.5 249.5t-78.5 249.5 t-201.5 84q-125 0 -204 -84t-79 -249.5zM750 1673h229l186 -280h-227z" glyph-name="uni1ED3" horiz-adv-x="1173" unicode="ồ"/><glyph d="M754 -20q-303 0 -488.5 201.5t-185.5 535.5q0 336 185.5 535.5t488.5 199.5t489.5 -199.5t186.5 -535.5q0 -334 -186.5 -535.5t-489.5 -201.5zM356 716.5q0 -235.5 106.5 -369.5t291 -134t291 134t106.5 369.5t-106.5 369t-291 133.5t-291 -133.5t-106.5 -369zM373 1559 l200 280h365l201 -280h-236l-147 208l-148 -208h-235zM856 1989q0 104 61.5 154t145.5 50q90 0 152.5 -53t62.5 -151q0 -86 -51 -138.5t-129 -62.5l-66 108q98 2 98 82q0 35 -19 55.5t-50 20.5q-63 0 -70 -65h-135z" glyph-name="uni1ED4" horiz-adv-x="1507" unicode="Ổ"/><glyph d="M588 -20q-221 0 -375 141t-154 411.5t154 411.5t375 141q219 0 373.5 -141t154.5 -411.5t-154.5 -411.5t-373.5 -141zM205 1190l201 280h364l201 -280h-236l-147 209l-148 -209h-235zM305 532.5q0 -165.5 79 -249.5t204 -84q123 0 201.5 84t78.5 249.5t-78.5 249.5 t-201.5 84q-125 0 -204 -84t-79 -249.5zM688 1620q0 104 61.5 154.5t145.5 50.5q90 0 152.5 -53.5t62.5 -151.5q0 -86 -51 -138t-129 -63l-66 109q98 2 99 82q0 35 -19.5 55.5t-50.5 20.5q-63 0 -70 -66h-135z" glyph-name="uni1ED5" horiz-adv-x="1173" unicode="ổ"/><glyph d="M754 -20q-303 0 -488.5 201.5t-185.5 535.5q0 336 185.5 535.5t488.5 199.5t489.5 -199.5t186.5 -535.5q0 -334 -186.5 -535.5t-489.5 -201.5zM356 716.5q0 -235.5 106.5 -369.5t291 -134t291 134t106.5 369.5t-106.5 369t-291 133.5t-291 -133.5t-106.5 -369zM373 1559 l200 280h365l201 -280h-236l-147 208l-148 -208h-235zM408 1970q0 106 51 165.5t145 59.5q66 0 116 -30.5t86 -60t66 -29.5q27 0 49.5 18t24.5 49h156q0 -106 -51.5 -165.5t-145.5 -59.5q-66 0 -116 30.5t-85.5 60.5t-66.5 30q-27 0 -49.5 -18.5t-24.5 -49.5h-155z" glyph-name="uni1ED6" horiz-adv-x="1507" unicode="Ỗ"/><glyph d="M588 -20q-221 0 -375 141t-154 411.5t154 411.5t375 141q219 0 373.5 -141t154.5 -411.5t-154.5 -411.5t-373.5 -141zM205 1190l201 280h364l201 -280h-236l-147 209l-148 -209h-235zM240 1602q0 106 51 165.5t145 59.5q66 0 116 -31t86 -60.5t67 -29.5q27 0 49 18.5 t24 49.5h156q0 -106 -51.5 -166t-145.5 -60q-66 0 -116 31t-85.5 60.5t-66.5 29.5q-27 0 -49.5 -18.5t-24.5 -48.5h-155zM305 532.5q0 -165.5 79 -249.5t204 -84q123 0 201.5 84t78.5 249.5t-78.5 249.5t-201.5 84q-125 0 -204 -84t-79 -249.5z" glyph-name="uni1ED7" horiz-adv-x="1173" unicode="ỗ"/><glyph d="M754 -20q-303 0 -488.5 201.5t-185.5 535.5q0 336 185.5 535.5t488.5 199.5t489.5 -199.5t186.5 -535.5q0 -334 -186.5 -535.5t-489.5 -201.5zM356 716.5q0 -235.5 106.5 -369.5t291 -134t291 134t106.5 369.5t-106.5 369t-291 133.5t-291 -133.5t-106.5 -369zM373 1559 l200 280h365l201 -280h-236l-147 208l-148 -208h-235zM590 -311q0 68 48 114.5t115.5 46.5t114.5 -47t47 -114q0 -66 -47 -113t-114.5 -47t-115.5 47t-48 113z" glyph-name="uni1ED8" horiz-adv-x="1507" unicode="Ộ"/><glyph d="M588 -20q-221 0 -375 141t-154 411.5t154 411.5t375 141q219 0 373.5 -141t154.5 -411.5t-154.5 -411.5t-373.5 -141zM205 1190l201 280h364l201 -280h-236l-147 209l-148 -209h-235zM305 532.5q0 -165.5 79 -249.5t204 -84q123 0 201.5 84t78.5 249.5t-78.5 249.5 t-201.5 84q-125 0 -204 -84t-79 -249.5zM424 -311q0 68 48 114.5t115.5 46.5t115 -47t47.5 -114q0 -66 -47.5 -113t-115 -47t-115.5 47t-48 113z" glyph-name="uni1ED9" horiz-adv-x="1173" unicode="ộ"/><glyph d="M754 -20q-303 0 -488.5 201.5t-185.5 535.5q0 336 185.5 535.5t488.5 199.5h463v162h223v-363h-197q186 -199 187 -534q0 -334 -186.5 -535.5t-489.5 -201.5zM356 716.5q0 -235.5 106.5 -369.5t291 -134t291 134t106.5 369.5t-106.5 369t-291 133.5t-291 -133.5 t-106.5 -369zM618 1559l213 280h230l-213 -280h-230z" glyph-name="uni1EDA" horiz-adv-x="1507" unicode="Ớ"/><glyph d="M588 -20q-221 0 -375 141t-154 411.5t154 411.5t375 141h330v160h210v-360h-114q102 -139 102 -353q0 -270 -154.5 -411t-373.5 -141zM305 532.5q0 -165.5 79 -249.5t204 -84q123 0 201.5 84t78.5 249.5t-78.5 249.5t-201.5 84q-125 0 -204 -84t-79 -249.5zM453 1190 l213 280h229l-213 -280h-229z" glyph-name="uni1EDB" horiz-adv-x="1173" unicode="ớ"/><glyph d="M754 -20q-303 0 -488.5 201.5t-185.5 535.5q0 336 185.5 535.5t488.5 199.5h463v162h223v-363h-197q186 -199 187 -534q0 -334 -186.5 -535.5t-489.5 -201.5zM356 716.5q0 -235.5 106.5 -369.5t291 -134t291 134t106.5 369.5t-106.5 369t-291 133.5t-291 -133.5 t-106.5 -369zM434 1839h230l213 -280h-230z" glyph-name="uni1EDC" horiz-adv-x="1507" unicode="Ờ"/><glyph d="M588 -20q-221 0 -375 141t-154 411.5t154 411.5t375 141h330v160h210v-360h-114q102 -139 102 -353q0 -270 -154.5 -411t-373.5 -141zM268 1470h230l213 -280h-230zM305 532.5q0 -165.5 79 -249.5t204 -84q123 0 201.5 84t78.5 249.5t-78.5 249.5t-201.5 84 q-125 0 -204 -84t-79 -249.5z" glyph-name="uni1EDD" horiz-adv-x="1173" unicode="ờ"/><glyph d="M754 -20q-303 0 -488.5 201.5t-185.5 535.5q0 336 185.5 535.5t488.5 199.5h463v162h223v-363h-197q186 -199 187 -534q0 -334 -186.5 -535.5t-489.5 -201.5zM356 716.5q0 -235.5 106.5 -369.5t291 -134t291 134t106.5 369.5t-106.5 369t-291 133.5t-291 -133.5 t-106.5 -369zM557 1735q0 104 61.5 154t145.5 50q90 0 152.5 -53t62.5 -151q0 -86 -51 -138.5t-129 -62.5l-66 108q98 2 98 82q0 35 -19 55.5t-50 20.5q-63 0 -70 -65h-135z" glyph-name="uni1EDE" horiz-adv-x="1507" unicode="Ở"/><glyph d="M588 -20q-221 0 -375 141t-154 411.5t154 411.5t375 141h330v160h210v-360h-114q102 -139 102 -353q0 -270 -154.5 -411t-373.5 -141zM305 532.5q0 -165.5 79 -249.5t204 -84q123 0 201.5 84t78.5 249.5t-78.5 249.5t-201.5 84q-125 0 -204 -84t-79 -249.5zM389 1366 q0 104 61.5 154.5t145.5 50.5q90 0 152.5 -53.5t62.5 -151.5q0 -86 -51 -138t-129 -63l-66 109q98 2 99 82q0 35 -19.5 55.5t-50.5 20.5q-63 0 -70 -66h-135z" glyph-name="uni1EDF" horiz-adv-x="1173" unicode="ở"/><glyph d="M754 -20q-303 0 -488.5 201.5t-185.5 535.5q0 336 185.5 535.5t488.5 199.5h463v162h223v-363h-197q186 -199 187 -534q0 -334 -186.5 -535.5t-489.5 -201.5zM356 716.5q0 -235.5 106.5 -369.5t291 -134t291 134t106.5 369.5t-106.5 369t-291 133.5t-291 -133.5 t-106.5 -369zM408 1636q0 106 51 166t145 60q51 0 95 -18.5t68 -42t51.5 -42t54 -18.5t49 18.5t24.5 48.5h156q0 -106 -51.5 -165.5t-145.5 -59.5q-51 0 -95 18.5t-67.5 42t-51 42t-54.5 18.5t-49.5 -18.5t-24.5 -49.5h-155z" glyph-name="uni1EE0" horiz-adv-x="1507" unicode="Ỡ"/><glyph d="M588 -20q-221 0 -375 141t-154 411.5t154 411.5t375 141h330v160h210v-360h-114q102 -139 102 -353q0 -270 -154.5 -411t-373.5 -141zM240 1268q0 106 51 165.5t145 59.5q51 0 95 -18.5t68 -42t51.5 -42t54 -18.5t49 18.5t24.5 49.5h156q0 -106 -51.5 -166t-145.5 -60 q-51 0 -95 18.5t-67.5 42t-51 42t-54.5 18.5t-49.5 -18.5t-24.5 -48.5h-155zM305 532.5q0 -165.5 79 -249.5t204 -84q123 0 201.5 84t78.5 249.5t-78.5 249.5t-201.5 84q-125 0 -204 -84t-79 -249.5z" glyph-name="uni1EE1" horiz-adv-x="1173" unicode="ỡ"/><glyph d="M754 -20q-303 0 -488.5 201.5t-185.5 535.5q0 336 185.5 535.5t488.5 199.5h463v162h223v-363h-197q186 -199 187 -534q0 -334 -186.5 -535.5t-489.5 -201.5zM356 716.5q0 -235.5 106.5 -369.5t291 -134t291 134t106.5 369.5t-106.5 369t-291 133.5t-291 -133.5 t-106.5 -369zM590 -311q0 68 48 114.5t115.5 46.5t114.5 -47t47 -114q0 -66 -47 -113t-114.5 -47t-115.5 47t-48 113z" glyph-name="uni1EE2" horiz-adv-x="1507" unicode="Ợ"/><glyph d="M588 -20q-221 0 -375 141t-154 411.5t154 411.5t375 141h330v160h210v-360h-114q102 -139 102 -353q0 -270 -154.5 -411t-373.5 -141zM305 532.5q0 -165.5 79 -249.5t204 -84q123 0 201.5 84t78.5 249.5t-78.5 249.5t-201.5 84q-125 0 -204 -84t-79 -249.5zM424 -311 q0 68 48 114.5t115.5 46.5t115 -47t47.5 -114q0 -66 -47.5 -113t-115 -47t-115.5 47t-48 113z" glyph-name="uni1EE3" horiz-adv-x="1173" unicode="ợ"/><glyph d="M690 -20q-268 0 -423.5 144t-155.5 419v891h270v-871q0 -170 81 -259t228.5 -89t227 89t79.5 259v871h273v-891q0 -274 -157 -418.5t-423 -144.5zM526 -311q0 68 48.5 114.5t116 46.5t114.5 -47t47 -114q0 -66 -47 -113t-114.5 -47t-116 47t-48.5 113z" glyph-name="uni1EE4" horiz-adv-x="1380" unicode="Ụ"/><glyph d="M373 457q0 -260 217 -260q113 0 180.5 66.5t67.5 193.5v608h262v-1065h-262v219h-9q-18 -88 -107 -163.5t-241 -75.5q-166 0 -268 104t-102 311v670h262v-608zM457 -311q0 68 48 114.5t115.5 46.5t114.5 -47t47 -114q0 -66 -47 -113t-114.5 -47t-115.5 47t-48 113z" glyph-name="uni1EE5" unicode="ụ"/><glyph d="M690 -20q-268 0 -423.5 144t-155.5 419v891h270v-871q0 -170 81 -259t228.5 -89t227 89t79.5 259v871h273v-891q0 -274 -157 -418.5t-423 -144.5zM473 1735q0 104 61.5 154t145.5 50q90 0 152.5 -53t62.5 -151q0 -86 -51 -138.5t-129 -62.5l-66 108q98 2 99 82 q0 35 -19.5 55.5t-50.5 20.5q-63 0 -70 -65h-135z" glyph-name="uni1EE6" horiz-adv-x="1380" unicode="Ủ"/><glyph d="M373 457q0 -260 217 -260q113 0 180.5 66.5t67.5 193.5v608h262v-1065h-262v219h-9q-18 -88 -107 -163.5t-241 -75.5q-166 0 -268 104t-102 311v670h262v-608zM401 1366q0 104 61.5 154.5t145.5 50.5q90 0 152.5 -53.5t62.5 -151.5q0 -86 -51 -138t-129 -63l-65 109 q98 2 98 82q0 35 -19.5 55.5t-50.5 20.5q-63 0 -69 -66h-136z" glyph-name="uni1EE7" unicode="ủ"/><glyph d="M690 -20q-268 0 -423.5 144t-155.5 419v891h270v-871q0 -170 81 -259t228.5 -89t227 89t79.5 259v871h275v180h223v-383h-225v-688q0 -274 -157 -418.5t-423 -144.5zM555 1559l213 280h229l-213 -280h-229z" glyph-name="uni1EE8" horiz-adv-x="1380" unicode="Ứ"/><glyph d="M373 457q0 -260 217 -260q113 0 180.5 66.5t67.5 193.5v608h274v180h223v-383h-235v-862h-262v219h-9q-18 -88 -107 -163.5t-241 -75.5q-166 0 -268 104t-102 311v670h262v-608zM469 1190l213 280h229l-213 -280h-229z" glyph-name="uni1EE9" unicode="ứ"/><glyph d="M690 -20q-268 0 -423.5 144t-155.5 419v891h270v-871q0 -170 81 -259t228.5 -89t227 89t79.5 259v871h275v180h223v-383h-225v-688q0 -274 -157 -418.5t-423 -144.5zM371 1839h229l213 -280h-229z" glyph-name="uni1EEA" horiz-adv-x="1380" unicode="Ừ"/><glyph d="M373 457q0 -260 217 -260q113 0 180.5 66.5t67.5 193.5v608h274v180h223v-383h-235v-862h-262v219h-9q-18 -88 -107 -163.5t-241 -75.5q-166 0 -268 104t-102 311v670h262v-608zM285 1470h229l213 -280h-229z" glyph-name="uni1EEB" unicode="ừ"/><glyph d="M690 -20q-268 0 -423.5 144t-155.5 419v891h270v-871q0 -170 81 -259t228.5 -89t227 89t79.5 259v871h275v180h223v-383h-225v-688q0 -274 -157 -418.5t-423 -144.5zM492 1735q0 104 61 154t145 50q90 0 152.5 -53t62.5 -151q0 -86 -51 -138.5t-129 -62.5l-65 108 q98 2 98 82q0 35 -19.5 55.5t-50.5 20.5q-63 0 -69 -65h-135z" glyph-name="uni1EEC" horiz-adv-x="1380" unicode="Ử"/><glyph d="M373 457q0 -260 217 -260q113 0 180.5 66.5t67.5 193.5v608h274v180h223v-383h-235v-862h-262v219h-9q-18 -88 -107 -163.5t-241 -75.5q-166 0 -268 104t-102 311v670h262v-608zM408 1366q0 104 61 154.5t145 50.5q90 0 152.5 -53.5t62.5 -151.5q0 -86 -51 -138t-129 -63 l-65 109q98 2 98 82q0 35 -19.5 55.5t-50.5 20.5q-63 0 -69 -66h-135z" glyph-name="uni1EED" unicode="ử"/><glyph d="M690 -20q-268 0 -423.5 144t-155.5 419v891h270v-871q0 -170 81 -259t228.5 -89t227 89t79.5 259v871h275v180h223v-383h-225v-688q0 -274 -157 -418.5t-423 -144.5zM342 1636q0 106 51 166t146 60q51 0 95 -18.5t67.5 -42t51 -42t54.5 -18.5t49.5 18.5t24.5 48.5h155 q0 -106 -51 -165.5t-145 -59.5q-51 0 -95.5 18.5t-68 42t-51 42t-54 18.5t-49 -18.5t-24.5 -49.5h-156z" glyph-name="uni1EEE" horiz-adv-x="1380" unicode="Ữ"/><glyph d="M373 457q0 -260 217 -260q113 0 180.5 66.5t67.5 193.5v608h274v180h223v-383h-235v-862h-262v219h-9q-18 -88 -107 -163.5t-241 -75.5q-166 0 -268 104t-102 311v670h262v-608zM258 1268q0 106 51 165.5t146 59.5q51 0 95 -18.5t67.5 -42t51 -42t54.5 -18.5t49.5 18.5 t24.5 49.5h155q0 -106 -51 -166t-145 -60q-51 0 -95.5 18.5t-68 42t-51 42t-54 18.5t-49 -18.5t-24.5 -48.5h-156z" glyph-name="uni1EEF" unicode="ữ"/><glyph d="M690 -20q-268 0 -423.5 144t-155.5 419v891h270v-871q0 -170 81 -259t228.5 -89t227 89t79.5 259v871h275v180h223v-383h-225v-688q0 -274 -157 -418.5t-423 -144.5zM526 -311q0 68 48.5 114.5t116 46.5t114.5 -47t47 -114q0 -66 -47 -113t-114.5 -47t-116 47t-48.5 113z " glyph-name="uni1EF0" horiz-adv-x="1380" unicode="Ự"/><glyph d="M373 457q0 -260 217 -260q113 0 180.5 66.5t67.5 193.5v608h274v180h223v-383h-235v-862h-262v219h-9q-18 -88 -107 -163.5t-241 -75.5q-166 0 -268 104t-102 311v670h262v-608zM440 -311q0 68 48.5 114.5t116 46.5t114.5 -47t47 -114q0 -66 -47 -113t-114.5 -47t-116 47 t-48.5 113z" glyph-name="uni1EF1" unicode="ự"/><glyph d="M569 0v537l-520 897h305l353 -637l354 637h305l-520 -897v-537h-277zM408 1839h229l213 -280h-229z" glyph-name="Ygrave" horiz-adv-x="1413" unicode="Ỳ"/><glyph d="M145 -182q225 -31 287 123q29 72 0 143l-393 981h268l273 -737l274 737h270l-442 -1094q-94 -231 -212 -315t-325 -62v224zM283 1470h229l213 -280h-229z" glyph-name="ygrave" horiz-adv-x="1161" unicode="ỳ"/><glyph d="M569 0v537l-520 897h305l353 -637l354 637h305l-520 -897v-537h-277zM545 -311q0 68 48 114.5t115.5 46.5t114.5 -47t47 -114q0 -66 -47 -113t-114.5 -47t-115.5 47t-48 113z" glyph-name="uni1EF4" horiz-adv-x="1413" unicode="Ỵ"/><glyph d="M145 -182q225 -31 287 123q29 72 0 143l-393 981h268l273 -737l274 737h270l-442 -1094q-94 -231 -212 -315t-325 -62v224zM721 -311q0 68 48 114.5t115.5 46.5t115 -47t47.5 -114q0 -66 -47.5 -113t-115 -47t-115.5 47t-48 113z" glyph-name="uni1EF5" horiz-adv-x="1161" unicode="ỵ"/><glyph d="M569 0v537l-520 897h305l353 -637l354 637h305l-520 -897v-537h-277zM510 1735q0 104 61.5 154t145.5 50q90 0 152.5 -53t62.5 -151q0 -86 -51.5 -138.5t-128.5 -62.5l-66 108q98 2 98 82q0 35 -19.5 55.5t-49.5 20.5q-63 0 -70 -65h-135z" glyph-name="uni1EF6" horiz-adv-x="1413" unicode="Ỷ"/><glyph d="M145 -182q225 -31 287 123q29 72 0 143l-393 981h268l273 -737l274 737h270l-442 -1094q-94 -231 -212 -315t-325 -62v224zM383 1366q0 104 61.5 154.5t145.5 50.5q90 0 152.5 -53.5t62.5 -151.5q0 -86 -51.5 -138t-128.5 -63l-66 109q98 2 98 82q0 35 -19.5 55.5 t-49.5 20.5q-63 0 -70 -66h-135z" glyph-name="uni1EF7" horiz-adv-x="1161" unicode="ỷ"/><glyph d="M569 0v537l-520 897h305l353 -637l354 637h305l-520 -897v-537h-277zM360 1636q0 106 51.5 166t145.5 60q51 0 95 -18.5t67.5 -42t51.5 -42t54.5 -18.5t49 18.5t24.5 48.5h156q0 -106 -51.5 -165.5t-145.5 -59.5q-51 0 -95 18.5t-67.5 42t-51.5 42t-54.5 18.5t-49 -18.5 t-24.5 -49.5h-156z" glyph-name="uni1EF8" horiz-adv-x="1413" unicode="Ỹ"/><glyph d="M145 -182q225 -31 287 123q29 72 0 143l-393 981h268l273 -737l274 737h270l-442 -1094q-94 -231 -212 -315t-325 -62v224zM233 1268q0 106 51.5 165.5t145.5 59.5q51 0 95 -18.5t67.5 -42t51.5 -42t54.5 -18.5t49 18.5t24.5 49.5h156q0 -106 -51.5 -166t-145.5 -60 q-51 0 -95 18.5t-67.5 42t-51.5 42t-54.5 18.5t-49 -18.5t-24.5 -48.5h-156z" glyph-name="uni1EF9" horiz-adv-x="1161" unicode="ỹ"/><glyph d="M92 469v197h1045v-197h-1045z" glyph-name="endash" horiz-adv-x="1228" unicode="–"/><glyph d="M92 469v197h1168v-197h-1168z" glyph-name="emdash" horiz-adv-x="1351" unicode="—"/><glyph d="M369 1335q-80 -2 -115 -32.5t-35 -94.5q90 0 141.5 -46t51.5 -115q0 -68 -45 -111t-115 -43q-82 0 -133 60.5t-51 181.5q0 145 76.5 228t203.5 83h21v-111z" glyph-name="quoteleft" horiz-adv-x="491" unicode="‘"/><glyph d="M123 1010q80 2 114.5 32.5t34.5 94.5q-90 0 -141 46t-51 115q0 68 45 111t115 43q82 0 133 -60.5t51 -181.5q0 -145 -77 -228t-204 -83h-20v111z" glyph-name="quoteright" horiz-adv-x="491" unicode="’"/><glyph d="M123 -141q80 2 114.5 32.5t34.5 94.5q-90 0 -141 46t-51 115q0 68 45 111t115 43q82 0 133 -60.5t51 -181.5q0 -145 -77 -228t-204 -83h-20v111z" glyph-name="quotesinglbase" horiz-adv-x="501" unicode="‚"/><glyph d="M369 1335q-80 -2 -115 -32.5t-35 -94.5q90 0 141.5 -46t51.5 -115q0 -68 -45 -111t-115 -43q-82 0 -133 60.5t-51 181.5q0 145 76.5 228t203.5 83h21v-111zM492 1135q0 145 76.5 228t203.5 83h21v-111q-80 -2 -115 -32.5t-35 -94.5q90 0 141.5 -46t51.5 -115 q0 -68 -45.5 -111t-114.5 -43q-82 0 -133 60.5t-51 181.5z" glyph-name="quotedblleft" horiz-adv-x="915" unicode="“"/><glyph d="M123 1010q80 2 114.5 32.5t34.5 94.5q-90 0 -141 46t-51 115q0 68 45 111t115 43q82 0 133 -60.5t51 -181.5q0 -145 -77 -228t-204 -83h-20v111zM504 1298q0 68 45 111t115 43q82 0 133 -60.5t51 -181.5q0 -145 -77 -228t-204 -83h-20v111q80 2 114.5 32.5t34.5 94.5 q-90 0 -141 45.5t-51 115.5z" glyph-name="quotedblright" horiz-adv-x="915" unicode="”"/><glyph d="M547 -166q80 2 114.5 33t34.5 94q-90 0 -141 46t-51 116q0 68 45 110.5t115 42.5q82 0 133 -60t51 -181q0 -145 -77 -228t-204 -83h-20v110zM80 123q0 68 45 110.5t115 42.5q82 0 133 -60t51 -181q0 -145 -77 -228t-204 -83h-20v110q80 2 114.5 33t34.5 94q-90 0 -141 46 t-51 116z" glyph-name="quotedblbase" horiz-adv-x="925" unicode="„"/><glyph d="M309 438v510h-207v199h207v287h209v-287h205v-199h-205v-510h-209z" glyph-name="dagger" horiz-adv-x="825" unicode="†"/><glyph d="M309 0v283h-207v198h207v471h-207v199h207v283h209v-283h205v-199h-205v-471h205v-198h-205v-283h-209z" glyph-name="daggerdbl" horiz-adv-x="825" unicode="‡"/><glyph d="M280.5 362q-73.5 0 -126 52.5t-52.5 126.5q0 72 52.5 124t126 52t126 -52.5t52.5 -123.5q0 -74 -52.5 -126.5t-126 -52.5z" glyph-name="bullet" horiz-adv-x="561" unicode="•"/><glyph d="M739.5 -20q-67.5 0 -114.5 47t-47 112q0 68 47 115t114.5 47t115.5 -47t48 -115q0 -66 -48 -112.5t-115.5 -46.5zM80 139q0 68 47 115t114.5 47t116 -47t48.5 -115q0 -66 -48.5 -112.5t-116 -46.5t-114.5 46.5t-47 112.5zM1075 139q0 68 47 115t115 47t116 -47t48 -115 q0 -66 -48 -112.5t-116 -46.5t-115 46.5t-47 112.5z" glyph-name="ellipsis" horiz-adv-x="1478" unicode="…"/><glyph d="M1847 -18q-129 0 -213 85t-84 244q0 154 84 239t213 85t213 -85t84 -239q0 -160 -84 -244.5t-213 -84.5zM80 1130q0 154 83 239t212 85t213 -85t84 -239q0 -160 -84 -244.5t-213 -84.5t-212 84.5t-83 244.5zM139 381l1131 823l108 -149l-1130 -824zM266 1130 q0 -80 32 -116.5t77 -36.5t76.5 37t31.5 116q0 78 -31.5 113t-76.5 35t-77 -35t-32 -113zM846 311q0 154 84 239t213 85t213 -85t84 -239q0 -160 -84 -244.5t-213 -84.5t-213 84.5t-84 244.5zM1034 311q0 -154 108.5 -153.5t108.5 153.5q0 78 -31.5 113t-76.5 35t-77 -35 t-32 -113zM1739 311q0 -154 108.5 -153.5t108.5 153.5q0 78 -32 113t-77 35t-76.5 -35t-31.5 -113z" glyph-name="perthousand" horiz-adv-x="2222" unicode="‰"/><glyph d="M422 227l-340 279v205l340 284v-237l-178 -146l178 -145v-240z" glyph-name="guilsinglleft" horiz-adv-x="503" unicode="‹"/><glyph d="M86 227v240l178 145l-178 146v237l340 -284v-205z" glyph-name="guilsinglright" horiz-adv-x="497" unicode="›"/><glyph d="M-354 0l893 1434h133l-893 -1434h-133z" glyph-name="fraction" horiz-adv-x="317" unicode="⁄"/><glyph d="M72 739v133h110q39 276 213 428t445 152q242 0 401.5 -125t183.5 -371h-262q-31 131 -118 197t-211 66q-154 0 -249.5 -92.5t-125.5 -254.5h317v-133h-330v-22q0 -49 3 -72h327v-133h-307q78 -299 365 -299q125 0 212 65.5t117 198.5h262q-25 -246 -184.5 -371.5 t-402.5 -125.5q-256 0 -426 138t-222 394h-118v133h102q-2 23 -2 72v22h-100z" glyph-name="Euro" horiz-adv-x="1486" unicode="€"/><glyph d="M506 1065v369h112l119 -281l117 281h113v-369h-107v192l-78 -192h-92l-78 192v-192h-106zM82 1343v91h356v-91h-125v-278h-106v278h-125z" glyph-name="trademark" horiz-adv-x="1048" unicode="™"/><glyph d="M608 -20q-94 0 -181 27.5t-165 82.5t-125 154.5t-47 228.5q0 123 41 219t110.5 150.5t149.5 82t168 27.5q213 0 346 -159q0 78 -12 146.5t-42 142t-94.5 117.5t-156.5 44q-96 0 -162.5 -48t-79.5 -144h-231q-2 158 119 279.5t348 121.5q287 0 422 -201.5t135 -535.5 q0 -377 -150.5 -556t-392.5 -179zM340 477q0 -137 80 -210.5t190 -73.5q109 0 189 73.5t80 210.5q0 135 -79 206t-189.5 71t-190.5 -71t-80 -206z" glyph-name="partialdiff" horiz-adv-x="1230" unicode="∂"/><glyph d="M92 -389v2027h1303v-2027h-252v1790h-799v-1790h-252z" glyph-name="product" horiz-adv-x="1486" unicode="∏"/><glyph d="M92 -389l563 1014l-563 1013h1223v-237h-803l428 -776l-428 -777h803v-237h-1223z" glyph-name="summation" horiz-adv-x="1406" unicode="∑"/><glyph d="M111 422v196h661v-196h-661z" glyph-name="minus" horiz-adv-x="882" unicode="−"/><glyph d="M700 -389l-362 895h-246v280h422l324 -835l446 1687h258l-538 -2027h-304z" glyph-name="radical" horiz-adv-x="1634" unicode="√"/><glyph d="M440 180q-150 0 -255 99.5t-105 257t104.5 254t255.5 96.5q201 0 404 -199q203 199 405 199q152 0 256.5 -96.5t104.5 -254t-105.5 -257t-255.5 -99.5q-203 0 -405 199q-203 -199 -404 -199zM305 536.5q0 -65.5 44 -111.5t120 -46q123 0 244 158q-121 156 -244 155 q-76 0 -120 -45t-44 -110.5zM977 537q117 -158 244 -158q74 0 118.5 47t44.5 110.5t-45 109.5t-118 46q-127 1 -244 -155z" glyph-name="infinity" horiz-adv-x="1689" unicode="∞"/><glyph d="M39 -164q80 0 110.5 50.5t30.5 148.5v1028q0 184 90 275.5t314 91.5v-226q-78 0 -110 -49t-32 -149v-1029q0 -195 -94 -280.5t-309 -85.5v225z" glyph-name="integral" horiz-adv-x="634" unicode="∫"/><glyph d="M811 219q-66 0 -130.5 31t-106.5 66.5t-95 66.5t-100 31q-51 0 -81 -29t-30 -74h-157q-6 115 64.5 188.5t180.5 73.5q68 0 132.5 -30.5t107.5 -66.5t96 -66.5t101 -30.5q49 0 78.5 28.5t29.5 73.5h160q4 -115 -66.5 -188.5t-183.5 -73.5zM111 639q-6 115 64.5 188.5 t180.5 73.5q68 0 132.5 -30.5t107.5 -66.5t96 -66.5t101 -30.5q49 0 78.5 28.5t29.5 73.5h160q4 -115 -66.5 -188.5t-183.5 -73.5q-66 0 -130.5 30.5t-106.5 66.5t-95 66.5t-100 30.5q-51 0 -81 -28.5t-30 -73.5h-157z" glyph-name="approxequal" horiz-adv-x="1169" unicode="≈"/><glyph d="M133 0l123 305h-145v197h223l53 131h-276v196h354l129 320h158l-127 -320h147v-196h-227l-51 -131h278v-197h-358l-121 -305h-160z" glyph-name="notequal" horiz-adv-x="882" unicode="≠"/><glyph d="M805 322l-703 344v206l703 345v-222l-508 -225l508 -227v-221zM102 0v199h703v-199h-703z" glyph-name="lessequal" horiz-adv-x="907" unicode="≤"/><glyph d="M104 322v221l508 227l-508 225v222l703 -345v-206zM104 0v199h703v-199h-703z" glyph-name="greaterequal" horiz-adv-x="909" unicode="≥"/><glyph d="M410 0l-318 717l318 717h366l318 -717l-318 -717h-366zM358 717l236 -531l233 531l-233 530z" glyph-name="lozenge" horiz-adv-x="1185" unicode="◊"/><glyph d="M111 492v942h268v-942h-268z" glyph-name="uniA78B" horiz-adv-x="487" unicode="Ꞌ"/><glyph d="M111 610v824h262v-824h-262z" glyph-name="uniA78C" horiz-adv-x="481" unicode="ꞌ"/><glyph d="M682 -20q-266 0 -418.5 143t-152.5 420h270q0 -162 80 -245t223 -83q145 0 225 87t80 261v871h268v-893q0 -272 -155.5 -416.5t-419.5 -144.5zM993 1559l213 280h230l-213 -280h-230z" glyph-name="J.aalt" horiz-adv-x="1368"/><glyph d="M707 -20q-283 0 -455 195.5t-172 541.5q0 348 184.5 541.5t485.5 193.5q229 0 386.5 -113.5t194.5 -334.5h-274q-70 215 -303 215q-193 0 -295.5 -132.5t-102.5 -369.5q0 -231 106.5 -366.5t301.5 -137.5q154 -4 245 81t91 234v29h-312v217h566v-774h-252v174 q-129 -194 -395 -194z" glyph-name="G.ss01" horiz-adv-x="1443"/><glyph d="M967 0q-20 39 -21 166v153q0 217 -241 218h-326v-537h-268v1434h587q258 0 386 -115t128 -301q0 -256 -231 -356q129 -41 180 -125t51 -218v-153q0 -123 21 -166h-266zM379 754h309q121 0 185.5 59t64.5 168q0 217 -250 217h-309v-444z" glyph-name="R.aalt" horiz-adv-x="1333"/><glyph d="M707 -20q-283 0 -455 195.5t-172 541.5q0 348 184.5 541.5t485.5 193.5q229 0 386.5 -113.5t194.5 -334.5h-274q-70 215 -303 215q-193 0 -295.5 -132.5t-102.5 -369.5q0 -231 106.5 -366.5t301.5 -137.5q154 -4 245 81t91 234v29h-312v217h566v-774h-252v174 q-129 -194 -395 -194z" glyph-name="G.ss05" horiz-adv-x="1443"/><glyph d="M92 0v1065h262v-1065h-262zM80 1358q0 61 44 103t103.5 42t103.5 -42t44 -103q0 -59 -44 -101.5t-103.5 -42.5t-103.5 42.5t-44 101.5z" glyph-name="i.locl" horiz-adv-x="448"/><glyph d="M70 -395q-104 0 -158 6v205h94q72 0 101.5 35.5t29.5 107.5v1106h262v-1147q1 -313 -329 -313zM145 1190l213 280h230l-213 -280h-230z" glyph-name="j.aalt" horiz-adv-x="491"/><glyph d="M528 -20q-190 0 -329.5 140t-139.5 412.5t139.5 412.5t329.5 140q115 0 202 -48t128 -128v156h262v-1065h-262v156q-41 -80 -128 -128t-202 -48zM309 532.5q0 -161.5 81 -245.5t198 -84q119 0 200.5 84t81.5 245.5t-81.5 245.5t-200.5 84q-117 0 -198 -84t-81 -245.5z " glyph-name="a.ss01" horiz-adv-x="1230"/><glyph d="M528 -20q-190 0 -329.5 140t-139.5 412.5t139.5 412.5t329.5 140q115 0 202 -48t128 -128v156h262v-1065h-262v156q-41 -80 -128 -128t-202 -48zM309 532.5q0 -161.5 81 -245.5t198 -84q119 0 200.5 84t81.5 245.5t-81.5 245.5t-200.5 84q-117 0 -198 -84t-81 -245.5z M502 1190l213 280h229l-213 -280h-229z" glyph-name="aacute.ss01" horiz-adv-x="1230"/><glyph d="M528 -20q-190 0 -329.5 140t-139.5 412.5t139.5 412.5t329.5 140q115 0 202 -48t128 -128v156h262v-1065h-262v156q-41 -80 -128 -128t-202 -48zM305 1470h174q4 -76 38 -111.5t107.5 -35.5t107.5 36t38 111h174q0 -139 -81 -220t-238 -81q-156 0 -238 81t-82 220z M309 532.5q0 -161.5 81 -245.5t198 -84q119 0 200.5 84t81.5 245.5t-81.5 245.5t-200.5 84q-117 0 -198 -84t-81 -245.5z" glyph-name="abreve.ss01" horiz-adv-x="1230"/><glyph d="M528 -20q-190 0 -329.5 140t-139.5 412.5t139.5 412.5t329.5 140q115 0 202 -48t128 -128v156h262v-1065h-262v156q-41 -80 -128 -128t-202 -48zM229 1468h236l147 -208l148 208h235l-200 -280h-365zM309 532.5q0 -161.5 81 -245.5t198 -84q119 0 200.5 84t81.5 245.5 t-81.5 245.5t-200.5 84q-117 0 -198 -84t-81 -245.5z" glyph-name="uni01CE.ss01" horiz-adv-x="1230"/><glyph d="M528 -20q-190 0 -329.5 140t-139.5 412.5t139.5 412.5t329.5 140q115 0 202 -48t128 -128v156h262v-1065h-262v156q-41 -80 -128 -128t-202 -48zM240 1190l200 280h365l201 -280h-236l-147 209l-148 -209h-235zM309 532.5q0 -161.5 81 -245.5t198 -84q119 0 200.5 84 t81.5 245.5t-81.5 245.5t-200.5 84q-117 0 -198 -84t-81 -245.5z" glyph-name="acircumflex.ss01" horiz-adv-x="1230"/><glyph d="M528 -20q-190 0 -329.5 140t-139.5 412.5t139.5 412.5t329.5 140q115 0 202 -48t128 -128v156h262v-1065h-262v156q-41 -80 -128 -128t-202 -48zM244 1358q0 61 44 103t103.5 42t103.5 -42t44 -103q0 -59 -44 -101.5t-103.5 -42.5t-103.5 42.5t-44 101.5zM309 532.5 q0 -161.5 81 -245.5t198 -84q119 0 200.5 84t81.5 245.5t-81.5 245.5t-200.5 84q-117 0 -198 -84t-81 -245.5zM707 1358q0 61 44 103t103 42t103 -42t44 -103q0 -59 -44 -101.5t-103 -42.5t-103 42.5t-44 101.5z" glyph-name="adieresis.ss01" horiz-adv-x="1230"/><glyph d="M528 -20q-190 0 -329.5 140t-139.5 412.5t139.5 412.5t329.5 140q115 0 202 -48t128 -128v156h262v-1065h-262v156q-41 -80 -128 -128t-202 -48zM309 532.5q0 -161.5 81 -245.5t198 -84q119 0 200.5 84t81.5 245.5t-81.5 245.5t-200.5 84q-117 0 -198 -84t-81 -245.5z M326 1470h229l213 -280h-229z" glyph-name="agrave.ss01" horiz-adv-x="1230"/><glyph d="M528 -20q-190 0 -329.5 140t-139.5 412.5t139.5 412.5t329.5 140q115 0 202 -48t128 -128v156h262v-1065h-262v156q-41 -80 -128 -128t-202 -48zM299 1317v153h653v-153h-653zM309 532.5q0 -161.5 81 -245.5t198 -84q119 0 200.5 84t81.5 245.5t-81.5 245.5t-200.5 84 q-117 0 -198 -84t-81 -245.5z" glyph-name="amacron.ss01" horiz-adv-x="1230"/><glyph d="M528 -20q-190 0 -329.5 140t-139.5 412.5t139.5 412.5t329.5 140q115 0 202 -48t128 -128v156h262v-1065q-123 0 -188.5 -45t-65.5 -111q0 -55 45 -79.5t109 -6.5v-147q-37 -18 -96.5 -13t-115.5 22.5t-97 68.5t-41 125q0 90 53 150.5t135 84.5v107q-41 -80 -128 -128 t-202 -48zM309 532.5q0 -161.5 81 -245.5t198 -84q119 0 200.5 84t81.5 245.5t-81.5 245.5t-200.5 84q-117 0 -198 -84t-81 -245.5z" glyph-name="aogonek.ss01" horiz-adv-x="1230"/><glyph d="M528 -20q-190 0 -329.5 140t-139.5 412.5t139.5 412.5t329.5 140q115 0 202 -48t128 -128v156h262v-1065h-262v156q-41 -80 -128 -128t-202 -48zM309 532.5q0 -161.5 81 -245.5t198 -84q119 0 200.5 84t81.5 245.5t-81.5 245.5t-200.5 84q-117 0 -198 -84t-81 -245.5z M422 1348q0 82 58.5 139t144.5 57t144 -57t58 -139q0 -84 -57 -140.5t-145 -56.5q-86 0 -144.5 56.5t-58.5 140.5zM547 1348q0 -35 22.5 -57.5t55.5 -22.5q35 0 57.5 22.5t22.5 57.5q0 33 -23 55t-57 22q-33 0 -55.5 -22t-22.5 -55z" glyph-name="aring.ss01" horiz-adv-x="1230"/><glyph d="M528 -20q-190 0 -329.5 140t-139.5 412.5t139.5 412.5t329.5 140q115 0 202 -48t128 -128v156h262v-1065h-262v156q-41 -80 -128 -128t-202 -48zM279 1268q0 106 51 165.5t145 59.5q51 0 95 -18.5t68 -42t51.5 -42t54 -18.5t49 18.5t24.5 49.5h156q0 -106 -51.5 -166 t-145.5 -60q-51 0 -95 18.5t-67.5 42t-51 42t-54.5 18.5t-49.5 -18.5t-24.5 -48.5h-155zM309 532.5q0 -161.5 81 -245.5t198 -84q119 0 200.5 84t81.5 245.5t-81.5 245.5t-200.5 84q-117 0 -198 -84t-81 -245.5z" glyph-name="atilde.ss01" horiz-adv-x="1230"/><glyph d="M547 -410q-205 0 -346.5 82t-141.5 252q0 106 55.5 174t139.5 95q-80 4 -134 48t-54 119q0 61 37.5 104.5t101.5 55.5q-68 86 -68 209q0 162 110.5 255t291 93t288.5 -92q66 82 207 80v-191q-66 0 -114 -26q18 -51 18 -119q0 -162 -109.5 -254t-289.5 -92q-115 0 -201 37 q-63 0 -64 -58q0 -43 46.5 -57t140.5 -14h84q133 0 240.5 -29t186.5 -110.5t79 -206.5q0 -96 -43 -167t-118 -111t-160 -58.5t-183 -18.5zM309 -57q0 -74 62.5 -121t181.5 -47q121 0 182.5 46t61.5 121.5t-61.5 122t-182.5 46.5t-182.5 -46t-61.5 -122zM356 729 q0 -66 44 -114t138.5 -48t138.5 48.5t44 113.5q0 68 -44 115t-138.5 47t-138.5 -47t-44 -115z" glyph-name="g.ss01" horiz-adv-x="1122"/><glyph d="M111 0v1065h262v-1065h-262zM111 1245v207h262v-207h-262z" glyph-name="i.ss01" horiz-adv-x="481"/><glyph d="M477 -2q-197 -23 -281.5 34.5t-84.5 233.5v1182h262v-1184q0 -76 104 -74v-192z" glyph-name="l.ss01" horiz-adv-x="532"/><glyph d="M528 -20q-190 0 -329.5 140t-139.5 412.5t139.5 412.5t329.5 140q115 0 202 -48t128 -128v156h262v-1065h-262v156q-41 -80 -128 -128t-202 -48zM309 532.5q0 -161.5 81 -245.5t198 -84q119 0 200.5 84t81.5 245.5t-81.5 245.5t-200.5 84q-117 0 -198 -84t-81 -245.5z " glyph-name="a.ss02" horiz-adv-x="1230"/><glyph d="M528 -20q-190 0 -329.5 140t-139.5 412.5t139.5 412.5t329.5 140q115 0 202 -48t128 -128v156h262v-1065h-262v156q-41 -80 -128 -128t-202 -48zM309 532.5q0 -161.5 81 -245.5t198 -84q119 0 200.5 84t81.5 245.5t-81.5 245.5t-200.5 84q-117 0 -198 -84t-81 -245.5z M502 1190l213 280h229l-213 -280h-229z" glyph-name="aacute.ss02" horiz-adv-x="1230"/><glyph d="M528 -20q-190 0 -329.5 140t-139.5 412.5t139.5 412.5t329.5 140q115 0 202 -48t128 -128v156h262v-1065h-262v156q-41 -80 -128 -128t-202 -48zM305 1470h174q4 -76 38 -111.5t107.5 -35.5t107.5 36t38 111h174q0 -139 -81 -220t-238 -81q-156 0 -238 81t-82 220z M309 532.5q0 -161.5 81 -245.5t198 -84q119 0 200.5 84t81.5 245.5t-81.5 245.5t-200.5 84q-117 0 -198 -84t-81 -245.5z" glyph-name="abreve.ss02" horiz-adv-x="1230"/><glyph d="M528 -20q-190 0 -329.5 140t-139.5 412.5t139.5 412.5t329.5 140q115 0 202 -48t128 -128v156h262v-1065h-262v156q-41 -80 -128 -128t-202 -48zM229 1468h236l147 -208l148 208h235l-200 -280h-365zM309 532.5q0 -161.5 81 -245.5t198 -84q119 0 200.5 84t81.5 245.5 t-81.5 245.5t-200.5 84q-117 0 -198 -84t-81 -245.5z" glyph-name="uni01CE.ss02" horiz-adv-x="1230"/><glyph d="M528 -20q-190 0 -329.5 140t-139.5 412.5t139.5 412.5t329.5 140q115 0 202 -48t128 -128v156h262v-1065h-262v156q-41 -80 -128 -128t-202 -48zM240 1190l200 280h365l201 -280h-236l-147 209l-148 -209h-235zM309 532.5q0 -161.5 81 -245.5t198 -84q119 0 200.5 84 t81.5 245.5t-81.5 245.5t-200.5 84q-117 0 -198 -84t-81 -245.5z" glyph-name="acircumflex.ss02" horiz-adv-x="1230"/><glyph d="M528 -20q-190 0 -329.5 140t-139.5 412.5t139.5 412.5t329.5 140q115 0 202 -48t128 -128v156h262v-1065h-262v156q-41 -80 -128 -128t-202 -48zM244 1358q0 61 44 103t103.5 42t103.5 -42t44 -103q0 -59 -44 -101.5t-103.5 -42.5t-103.5 42.5t-44 101.5zM309 532.5 q0 -161.5 81 -245.5t198 -84q119 0 200.5 84t81.5 245.5t-81.5 245.5t-200.5 84q-117 0 -198 -84t-81 -245.5zM707 1358q0 61 44 103t103 42t103 -42t44 -103q0 -59 -44 -101.5t-103 -42.5t-103 42.5t-44 101.5z" glyph-name="adieresis.ss02" horiz-adv-x="1230"/><glyph d="M528 -20q-190 0 -329.5 140t-139.5 412.5t139.5 412.5t329.5 140q115 0 202 -48t128 -128v156h262v-1065h-262v156q-41 -80 -128 -128t-202 -48zM309 532.5q0 -161.5 81 -245.5t198 -84q119 0 200.5 84t81.5 245.5t-81.5 245.5t-200.5 84q-117 0 -198 -84t-81 -245.5z M326 1470h229l213 -280h-229z" glyph-name="agrave.ss02" horiz-adv-x="1230"/><glyph d="M528 -20q-190 0 -329.5 140t-139.5 412.5t139.5 412.5t329.5 140q115 0 202 -48t128 -128v156h262v-1065h-262v156q-41 -80 -128 -128t-202 -48zM299 1317v153h653v-153h-653zM309 532.5q0 -161.5 81 -245.5t198 -84q119 0 200.5 84t81.5 245.5t-81.5 245.5t-200.5 84 q-117 0 -198 -84t-81 -245.5z" glyph-name="amacron.ss02" horiz-adv-x="1230"/><glyph d="M528 -20q-190 0 -329.5 140t-139.5 412.5t139.5 412.5t329.5 140q115 0 202 -48t128 -128v156h262v-1065q-123 0 -188.5 -45t-65.5 -111q0 -55 45 -79.5t109 -6.5v-147q-37 -18 -96.5 -13t-115.5 22.5t-97 68.5t-41 125q0 90 53 150.5t135 84.5v107q-41 -80 -128 -128 t-202 -48zM309 532.5q0 -161.5 81 -245.5t198 -84q119 0 200.5 84t81.5 245.5t-81.5 245.5t-200.5 84q-117 0 -198 -84t-81 -245.5z" glyph-name="aogonek.ss02" horiz-adv-x="1230"/><glyph d="M528 -20q-190 0 -329.5 140t-139.5 412.5t139.5 412.5t329.5 140q115 0 202 -48t128 -128v156h262v-1065h-262v156q-41 -80 -128 -128t-202 -48zM309 532.5q0 -161.5 81 -245.5t198 -84q119 0 200.5 84t81.5 245.5t-81.5 245.5t-200.5 84q-117 0 -198 -84t-81 -245.5z M422 1348q0 82 58.5 139t144.5 57t144 -57t58 -139q0 -84 -57 -140.5t-145 -56.5q-86 0 -144.5 56.5t-58.5 140.5zM547 1348q0 -35 22.5 -57.5t55.5 -22.5q35 0 57.5 22.5t22.5 57.5q0 33 -23 55t-57 22q-33 0 -55.5 -22t-22.5 -55z" glyph-name="aring.ss02" horiz-adv-x="1230"/><glyph d="M528 -20q-190 0 -329.5 140t-139.5 412.5t139.5 412.5t329.5 140q115 0 202 -48t128 -128v156h262v-1065h-262v156q-41 -80 -128 -128t-202 -48zM279 1268q0 106 51 165.5t145 59.5q51 0 95 -18.5t68 -42t51.5 -42t54 -18.5t49 18.5t24.5 49.5h156q0 -106 -51.5 -166 t-145.5 -60q-51 0 -95 18.5t-67.5 42t-51 42t-54.5 18.5t-49.5 -18.5t-24.5 -48.5h-155zM309 532.5q0 -161.5 81 -245.5t198 -84q119 0 200.5 84t81.5 245.5t-81.5 245.5t-200.5 84q-117 0 -198 -84t-81 -245.5z" glyph-name="atilde.ss02" horiz-adv-x="1230"/><glyph d="M401 -20q-145 0 -243.5 72.5t-98.5 220t98.5 213t266.5 87.5l209 29q72 8 96.5 29.5t24.5 68.5v23q0 94 -48.5 131t-140.5 37q-197 0 -196 -152v-12l-248 -4v41q0 322 454 321q231 0 336 -85t105 -265v-487q0 -47 15.5 -61.5t51.5 -16.5v-156q-29 -27 -108 -26 q-90 0 -149.5 41t-59.5 129v30h-10q-16 -66 -106.5 -137t-248.5 -71zM317 305q0 -59 43 -96t134 -37q123 0 191.5 63.5t68.5 131.5v133q-14 -25 -115 -41l-152 -21q-170 -29 -170 -133z" glyph-name="a.ss03" horiz-adv-x="1122"/><glyph d="M547 -410q-205 0 -346.5 82t-141.5 252q0 106 55.5 174t139.5 95q-80 4 -134 48t-54 119q0 61 37.5 104.5t101.5 55.5q-68 86 -68 209q0 162 110.5 255t291 93t288.5 -92q66 82 207 80v-191q-66 0 -114 -26q18 -51 18 -119q0 -162 -109.5 -254t-289.5 -92q-115 0 -201 37 q-63 0 -64 -58q0 -43 46.5 -57t140.5 -14h84q133 0 240.5 -29t186.5 -110.5t79 -206.5q0 -96 -43 -167t-118 -111t-160 -58.5t-183 -18.5zM309 -57q0 -74 62.5 -121t181.5 -47q121 0 182.5 46t61.5 121.5t-61.5 122t-182.5 46.5t-182.5 -46t-61.5 -122zM356 729 q0 -66 44 -114t138.5 -48t138.5 48.5t44 113.5q0 68 -44 115t-138.5 47t-138.5 -47t-44 -115z" glyph-name="g.ss03" horiz-adv-x="1122"/><glyph d="M477 -2q-197 -23 -281.5 34.5t-84.5 233.5v1182h262v-1184q0 -76 104 -74v-192z" glyph-name="l.ss04" horiz-adv-x="532"/><glyph d="M39 862v203h149v90q0 311 330 311h148v-200h-84q-70 0 -100.5 -35t-30.5 -107v-59h460v272h263v-272h208v-205h-208v-520q0 -74 29.5 -108.5t109.5 -34.5q43 0 82 4v-197q-68 -18 -152 -18q-332 0 -332 313v561h-178v2h-282v-862h-263v862h-149z" glyph-name="f_t.dlig" horiz-adv-x="1441"/><glyph d="M1171 -14q-332 0 -331 313v561h-84q-170 0 -276.5 -88t-106.5 -276v-496h-262v1065h262v-297h6q31 137 128 217t259 80h74v272h262v-272h209v-205h-209v-520q0 -74 29.5 -108.5t109.5 -34.5q43 0 82 4v-197q-68 -18 -152 -18z" glyph-name="r_t.dlig" horiz-adv-x="1370"/><glyph d="M293 -4q-100 0 -160.5 71.5t-60.5 186.5v27q0 115 60.5 186.5t160.5 71.5q98 0 158.5 -72t60.5 -186v-27q0 -115 -60.5 -186.5t-158.5 -71.5zM176 254q0 -72 32 -116t85 -44q51 0 83 44t32 116v27q0 72 -32 115.5t-83 43.5q-53 0 -85 -44t-32 -115v-27z" glyph-name="zero.dnom" horiz-adv-x="583"/><glyph d="M197 401q-31 -53 -115 -39v99q37 -4 69.5 19.5t45.5 54.5h98v-535h-98v401z" glyph-name="one.dnom" horiz-adv-x="387"/><glyph d="M82 16q0 84 29.5 141.5t117.5 110.5q6 4 20.5 11.5t19.5 10.5t15.5 9t15.5 10t12 10.5t10.5 12.5t7.5 13t5 15.5t1 18.5q0 33 -22.5 51.5t-51.5 18.5q-33 0 -54.5 -20.5t-21.5 -59.5v-17h-104v17q0 78 46 126t134 48t135 -46t47 -118q0 -35 -10 -61.5t-42 -53t-47 -37 t-66 -41.5q-80 -45 -80 -88v-6h245v-92h-362v16z" glyph-name="two.dnom" horiz-adv-x="536"/><glyph d="M279 -8q-96 0 -146.5 47t-50.5 127h98q4 -90 100.5 -90t96.5 84q0 82 -109 82h-22v75h22q47 0 66.5 22.5t19.5 51.5q0 31 -19.5 49.5t-56 18.5t-60 -21.5t-23.5 -62.5h-95q0 80 49.5 124t131 44t128 -40t46.5 -102q0 -45 -27 -75.5t-63 -40.5q43 -4 78.5 -37t35.5 -94 q0 -72 -54 -117t-146 -45z" glyph-name="three.dnom" horiz-adv-x="561"/><glyph d="M322 0v135h-240v80l240 320h100v-320h61v-80h-61v-135h-100zM170 215h152v203z" glyph-name="four.dnom" horiz-adv-x="565"/><glyph d="M254 -10q-90 0 -141.5 49t-51.5 125h99q2 -39 30.5 -62.5t67.5 -23.5t70.5 26.5t31.5 79.5q0 51 -31.5 76t-70.5 25q-55 0 -88 -39h-96l43 289h289v-93h-216l-18 -112q37 37 107 37q78 0 129 -50.5t51 -136.5q0 -90 -55.5 -140t-149.5 -50z" glyph-name="five.dnom" horiz-adv-x="520"/><glyph d="M293 -10q-94 0 -152.5 69.5t-58.5 202.5q0 125 54 202t161 77q82 0 130 -45t48 -101h-92q-12 57 -86 58q-66 0 -91.5 -50.5t-23.5 -113.5q12 25 51 45t82 20q84 0 132.5 -43t48.5 -129q0 -96 -59.5 -144t-143.5 -48zM193 184q0 -49 29.5 -74.5t70.5 -25.5t67.5 26.5 t26.5 73.5q0 45 -26.5 70t-69.5 25q-39 0 -68.5 -25t-29.5 -70z" glyph-name="six.dnom" horiz-adv-x="577"/><glyph d="M94 0l219 442h-272v93h369v-93l-211 -442h-105z" glyph-name="seven.dnom" horiz-adv-x="471"/><glyph d="M246 -4q-86 0 -140.5 42t-54.5 118q0 92 90 137q-59 37 -59 106q0 59 43 99.5t121 40.5q76 0 121 -41t45 -99q0 -70 -62 -106q90 -43 90 -137q0 -76 -54 -118t-140 -42zM145 160q0 -39 28 -62.5t73 -23.5t72.5 23.5t27.5 62.5t-27.5 63.5t-72.5 24.5t-73 -24.5t-28 -63.5 zM172 397q0 -29 20.5 -48t53.5 -19q35 0 55.5 18.5t20.5 48.5q0 66 -76 66q-74 0 -74 -66z" glyph-name="eight.dnom" horiz-adv-x="491"/><glyph d="M281 -10q-82 0 -130.5 45t-50.5 100h95q4 -23 25.5 -40t60.5 -17q115 0 114 164q-12 -25 -51 -45.5t-82 -20.5q-84 0 -132 43t-48 129q0 96 59.5 144.5t141.5 48.5q94 0 153.5 -70t59.5 -203q0 -123 -54.5 -200.5t-160.5 -77.5zM188 346q0 -45 28 -69.5t71 -24.5 q39 0 68.5 24.5t29.5 69.5q0 49 -29.5 74.5t-70.5 25.5t-69 -26.5t-28 -73.5z" glyph-name="nine.dnom" horiz-adv-x="577"/><glyph d="M293 897q-100 0 -160.5 71.5t-60.5 186.5v27q0 115 60.5 186.5t160.5 71.5q98 0 158.5 -72t60.5 -186v-27q0 -115 -60.5 -186.5t-158.5 -71.5zM176 1155q0 -72 32 -116t85 -44q51 0 83 44t32 116v27q0 72 -32 115.5t-83 43.5q-53 0 -85 -44t-32 -115v-27z" glyph-name="zero.numr" horiz-adv-x="583"/><glyph d="M197 1300q-31 -53 -115 -38v98q37 -4 69.5 19.5t45.5 54.5h98v-535h-98v401z" glyph-name="one.numr" horiz-adv-x="387"/><glyph d="M82 918q0 84 29.5 141t117.5 110q6 4 20.5 11.5t19.5 10.5t15.5 9t15.5 10t12 10.5t10.5 12.5t7.5 13t5 15.5t1 18.5q0 33 -22.5 51.5t-51.5 18.5q-33 0 -54.5 -20.5t-21.5 -59.5v-17h-104v17q0 78 46 126t134 48t135 -46t47 -118q0 -35 -10 -61.5t-42 -53t-47 -37 t-66 -41.5q-80 -45 -80 -88v-6h245v-92h-362v17z" glyph-name="two.numr" horiz-adv-x="536"/><glyph d="M279 893q-96 0 -146.5 47t-50.5 127h98q4 -90 100.5 -90t96.5 84q0 82 -109 82h-22v76h22q47 0 66.5 22.5t19.5 50.5q0 31 -19.5 49.5t-56 18.5t-60 -21.5t-23.5 -62.5h-95q0 80 49.5 124t131 44t128 -40t46.5 -101q0 -45 -27 -76t-63 -41q43 -4 78.5 -37t35.5 -94 q0 -72 -54 -117t-146 -45z" glyph-name="three.numr" horiz-adv-x="561"/><glyph d="M322 901v135h-240v80l240 320h100v-320h61v-80h-61v-135h-100zM170 1116h152v203z" glyph-name="four.numr" horiz-adv-x="565"/><glyph d="M254 891q-90 0 -141.5 49t-51.5 125h99q2 -39 30.5 -62.5t67.5 -23.5t70.5 26.5t31.5 79.5q0 51 -31.5 76t-70.5 25q-55 0 -88 -39h-96l43 289h289v-93h-216l-18 -112q37 37 107 37q78 0 129 -50.5t51 -136.5q0 -90 -55.5 -140t-149.5 -50z" glyph-name="five.numr" horiz-adv-x="520"/><glyph d="M293 889q-94 0 -152.5 69.5t-58.5 202.5q0 125 54 202t161 77q82 0 130 -45t48 -101h-92q-12 57 -86 58q-66 0 -91.5 -50.5t-23.5 -113.5q12 25 51 45t82 20q84 0 132.5 -43t48.5 -129q0 -96 -59.5 -144t-143.5 -48zM193 1083q0 -49 29.5 -74.5t70.5 -25.5t67.5 26.5 t26.5 73.5q0 45 -26.5 70t-69.5 25q-39 0 -68.5 -25t-29.5 -70z" glyph-name="six.numr" horiz-adv-x="577"/><glyph d="M94 901l219 442h-272v93h369v-93l-211 -442h-105z" glyph-name="seven.numr" horiz-adv-x="471"/><glyph d="M246 897q-86 0 -140.5 42t-54.5 118q0 92 90 137q-59 37 -59 106q0 59 43 99.5t121 40.5q76 0 121 -41t45 -99q0 -70 -62 -106q90 -43 90 -137q0 -76 -54 -118t-140 -42zM145 1061q0 -39 28 -62.5t73 -23.5t72.5 23.5t27.5 62.5t-27.5 63.5t-72.5 24.5t-73 -24.5 t-28 -63.5zM172 1298q0 -29 20.5 -48t53.5 -19q35 0 55.5 18.5t20.5 48.5q0 66 -76 66q-74 0 -74 -66z" glyph-name="eight.numr" horiz-adv-x="491"/><glyph d="M281 891q-82 0 -130.5 45t-50.5 100h95q4 -23 25.5 -40t60.5 -17q115 0 114 164q-12 -25 -51 -45.5t-82 -20.5q-84 0 -132 43t-48 129q0 96 59.5 144.5t141.5 48.5q94 0 153.5 -69.5t59.5 -203.5q0 -123 -54.5 -200.5t-160.5 -77.5zM188 1247q0 -45 28 -69.5t71 -24.5 q39 0 68.5 24.5t29.5 69.5q0 49 -29.5 75t-70.5 26t-69 -27t-28 -74z" glyph-name="nine.numr" horiz-adv-x="577"/><glyph d="M102 0v303h289v-303h-289z" glyph-name="period.aalt" horiz-adv-x="493"/><glyph d="M330 1169q-156 0 -238 81t-82 220h174q4 -76 38 -111.5t107.5 -35.5t107.5 36t38 111h174q0 -139 -80.5 -220t-238.5 -81zM195 1534l213 281h229l-213 -281h-229z" glyph-name="uni0306_acutecomb.ccmp" horiz-adv-x="0"/><glyph d="M330 1169q-156 0 -238 81t-82 220h174q4 -76 38 -111.5t107.5 -35.5t107.5 36t38 111h174q0 -139 -80.5 -220t-238.5 -81zM10 1815h230l213 -281h-230z" glyph-name="uni0306_gravecomb.ccmp" horiz-adv-x="0"/><glyph d="M330 1169q-156 0 -238 81t-82 220h174q4 -76 38 -111.5t107.5 -35.5t107.5 36t38 111h174q0 -139 -80.5 -220t-238.5 -81zM53 1634q0 104 61.5 154.5t145.5 50.5q90 0 152.5 -53t62.5 -152q0 -86 -51 -138t-129 -62l-66 108q98 2 99 82q0 35 -19.5 55.5t-50.5 20.5 q-63 0 -70 -66h-135z" glyph-name="uni0306_hookabovecomb.ccmp" horiz-adv-x="0"/><glyph d="M330 1169q-156 0 -238 81t-82 220h174q4 -76 38 -111.5t107.5 -35.5t107.5 36t38 111h174q0 -139 -80.5 -220t-238.5 -81zM-18 1612q0 106 52 165.5t146 59.5q51 0 95 -18.5t68 -42t51.5 -42t54 -18.5t49 18.5t24.5 49.5h156q0 -106 -51.5 -165.5t-145.5 -59.5 q-51 0 -95 18t-67.5 41.5t-51 42t-54.5 18.5t-49.5 -18.5t-24.5 -48.5h-157z" glyph-name="uni0306_tildecomb.ccmp" horiz-adv-x="0"/><glyph d="M0 1190l201 280h364l201 -280h-236l-147 209l-147 -209h-236zM676 1393l213 280h229l-213 -280h-229z" glyph-name="uni0302_acutecomb.ccmp" horiz-adv-x="0"/><glyph d="M733 1393l-188 280h229l187 -280h-228zM0 1190l201 280h364l201 -280h-236l-147 209l-147 -209h-236z" glyph-name="uni0302_gravecomb.ccmp" horiz-adv-x="0"/><glyph d="M0 1190l201 280h364l201 -280h-236l-147 209l-147 -209h-236zM483 1620q0 104 61.5 154.5t145.5 50.5q90 0 152.5 -53.5t62.5 -151.5q0 -86 -51 -138t-129 -63l-66 109q98 2 99 82q0 35 -19.5 55.5t-50.5 20.5q-63 0 -70 -66h-135z" glyph-name="uni0302_hookabovecomb.ccmp" horiz-adv-x="0"/><glyph d="M0 1190l201 280h364l201 -280h-236l-147 209l-147 -209h-236zM35 1602q0 106 51 165.5t145 59.5q66 0 116 -31t86 -60.5t67 -29.5q27 0 49 18.5t24 49.5h156q0 -106 -51 -166t-146 -60q-66 0 -115.5 31t-85.5 60.5t-67 29.5q-27 0 -49 -18.5t-25 -48.5h-155z" glyph-name="uni0302_tildecomb.ccmp" horiz-adv-x="0"/><glyph d="M330 1169q-156 0 -238 81t-82 220h174q4 -76 38 -111.5t107.5 -35.5t107.5 36t38 111h174q0 -139 -80.5 -220t-238.5 -81z" glyph-name="glyph659" horiz-adv-x="0"/><glyph d="M82 858v576h250v-576h-250z" glyph-name="glyph660" horiz-adv-x="0"/><glyph d="M39 0l526 1434h344l527 -1434h-285l-102 293h-625l-102 -293h-283zM496 494h483l-234 663h-16zM614 1559l213 280h230l-213 -280h-230z" glyph-name="glyph661" horiz-adv-x="1472"/><glyph d="M598 618v222h432q-25 178 -120 278.5t-259 100.5q-125 0 -212 -66t-117 -197h-263q25 246 184.5 371t401.5 125q307 0 487.5 -194.5t180.5 -540.5q0 -348 -179.5 -542.5t-486.5 -194.5q-244 0 -403.5 125.5t-184.5 371.5h263q31 -133 117.5 -198.5t211.5 -65.5 q170 0 266.5 107.5t116.5 297.5h-436zM532 1559l213 280h230l-213 -280h-230z" glyph-name="glyph662" horiz-adv-x="1392"/><glyph d="M328 0h-269l312 530q-299 98 -299 435q0 217 134 343t402 126h563v-1434h-268v498h-289zM350 965q0 -231 268 -232h285v465h-285q-268 0 -268 -233zM549 1559l213 280h229l-213 -280h-229z" glyph-name="glyph663" horiz-adv-x="1282"/><glyph d="M111 0v1434h960v-236h-692v-364h631v-211h-631v-387h713v-236h-981zM485 1559l213 280h230l-213 -280h-230z" glyph-name="glyph664" horiz-adv-x="1148"/><glyph d="M1294 0h-268v989h-6l-617 -989h-294v1434h270v-1006h6l627 1006h282v-1434zM580 1559l213 280h229l-213 -280h-229z" glyph-name="glyph665" horiz-adv-x="1404"/><glyph d="M111 0v1434h268v-611h205q29 291 210 460t457 169q303 0 489.5 -199.5t186.5 -535.5q0 -334 -186.5 -535.5t-489.5 -201.5q-274 0 -454.5 167.5t-212.5 452.5h-205v-600h-268zM854 716.5q0 -235.5 106.5 -369.5t291 -134t291 134t106.5 369.5t-106.5 369t-291 133.5 t-291 -133.5t-106.5 -369zM877 1559l213 280h229l-213 -280h-229z" glyph-name="glyph666" horiz-adv-x="2004"/><glyph d="M754 -20q-303 0 -488.5 201.5t-185.5 535.5q0 336 185.5 535.5t488.5 199.5t489.5 -199.5t186.5 -535.5q0 -334 -186.5 -535.5t-489.5 -201.5zM356 716.5q0 -235.5 106.5 -369.5t291 -134t291 134t106.5 369.5t-106.5 369t-291 133.5t-291 -133.5t-106.5 -369zM631 1559 l213 280h229l-213 -280h-229z" glyph-name="glyph667" horiz-adv-x="1507"/><glyph d="M186 215q123 -14 176.5 18.5t81.5 102.5q35 80 -16 201l-379 897h301l256 -686l264 686h301l-462 -1084q-100 -231 -213 -315t-310 -64v244zM487 1559l213 280h230l-213 -280h-230z" glyph-name="glyph668" horiz-adv-x="1218"/><glyph d="M111 0v1434h272v-490h285q270 0 406 -125t136 -346q0 -223 -136 -348t-406 -125h-557zM383 233h285q250 0 250 240q0 113 -63.5 174.5t-186.5 61.5h-285v-476zM750 1559l213 280h229l-213 -280h-229zM1360 0v1434h268v-1434h-268z" glyph-name="glyph669" horiz-adv-x="1738"/><glyph d="M401 -20q-145 0 -243.5 72.5t-98.5 220t98.5 213t266.5 87.5l209 29q72 8 96.5 29.5t24.5 68.5v23q0 94 -48.5 131t-140.5 37q-197 0 -196 -152v-12l-248 -4v41q0 322 454 321q231 0 336 -85t105 -265v-487q0 -47 15.5 -61.5t51.5 -16.5v-156q-29 -27 -108 -26 q-90 0 -149.5 41t-59.5 129v30h-10q-16 -66 -106.5 -137t-248.5 -71zM317 305q0 -59 43 -96t134 -37q123 0 191.5 63.5t68.5 131.5v133q-14 -25 -115 -41l-152 -21q-170 -29 -170 -133zM444 1190l213 280h230l-213 -280h-230z" glyph-name="glyph670" horiz-adv-x="1122"/><glyph d="M500 459v162h313q-20 115 -91 179t-183 64q-205 0 -242 -198h-238q14 123 63.5 210t121 130t143.5 61t150 18q104 0 196 -32.5t168 -97t121 -174t45 -251.5q0 -274 -154.5 -412t-375.5 -138q-61 0 -119 10t-120 39.5t-110.5 75t-83 122t-45.5 174.5h238q37 -201 242 -200 q119 0 190.5 68.5t87.5 189.5h-317zM453 1190l213 280h229l-213 -280h-229z" glyph-name="glyph671" horiz-adv-x="1126"/><glyph d="M76 0l262 381q-131 33 -200.5 119t-69.5 215q0 166 109.5 258t311.5 92h562v-1065h-263v365h-190l-246 -365h-276zM319 715q0 -145 181 -146h288v289h-288q-181 0 -181 -143zM451 1190l213 280h229l-213 -280h-229z" glyph-name="glyph672" horiz-adv-x="1161"/><glyph d="M586 -20q-227 0 -377 137t-150 418q0 279 147.5 414.5t375.5 135.5q223 0 361 -132t138 -408q0 -45 -6 -80h-768q23 -285 285 -285q195 0 242 154h233q-41 -176 -169 -265t-312 -89zM309 625h525q-4 119 -69 189.5t-187 70.5q-117 0 -186 -65.5t-83 -194.5zM446 1190 l213 280h230l-213 -280h-230z" glyph-name="glyph673" horiz-adv-x="1138"/><glyph d="M111 0v1065h262v-700h6l479 700h268v-1065h-262v684h-6l-469 -684h-278zM496 1190l213 280h229l-213 -280h-229z" glyph-name="glyph674" horiz-adv-x="1236"/><glyph d="M92 0v1065h262v-430h131q31 223 178.5 336.5t344.5 113.5q219 0 373.5 -141t154.5 -411.5t-154.5 -411.5t-373.5 -141q-197 0 -344.5 113.5t-178.5 334.5h-131v-428h-262zM651 1190l213 280h230l-213 -280h-230zM725 532.5q0 -165.5 79 -249.5t204 -84q123 0 201.5 84 t78.5 249.5t-79 249.5t-201 84q-125 0 -204 -84t-79 -249.5z" glyph-name="glyph675" horiz-adv-x="1593"/><glyph d="M588 -20q-221 0 -375 141t-154 411.5t154 411.5t375 141q219 0 373.5 -141t154.5 -411.5t-154.5 -411.5t-373.5 -141zM305 532.5q0 -165.5 79 -249.5t204 -84q123 0 201.5 84t78.5 249.5t-78.5 249.5t-201.5 84q-125 0 -204 -84t-79 -249.5zM463 1190l213 280h229 l-213 -280h-229z" glyph-name="glyph676" horiz-adv-x="1173"/><glyph d="M145 -182q225 -31 287 123q29 72 0 143l-393 981h268l273 -737l274 737h270l-442 -1094q-94 -231 -212 -315t-325 -62v224zM457 1190l213 280h229l-213 -280h-229z" glyph-name="glyph677" horiz-adv-x="1161"/><glyph d="M111 0v1065h262v-365h299q201 0 311.5 -94t110.5 -256q0 -166 -110 -258t-312 -92h-561zM373 207h289q180 0 180 143q0 145 -180 146h-289v-289zM676 1190l213 280h229l-213 -280h-229zM1208 0v1065h262v-1065h-262z" glyph-name="glyph678" horiz-adv-x="1581"/></font>
</defs>
</svg>
