<?xml version="1.0" standalone="no"?>
<!DOCTYPE svg PUBLIC "-//W3C//DTD SVG 1.1//EN" "http://www.w3.org/Graphics/SVG/1.1/DTD/svg11.dtd">
<svg xmlns="http://www.w3.org/2000/svg"><metadata>This SVG WebFont was generated by YouWorkForThem.
</metadata><defs><font horiz-adv-x="1087" id="ywftsvg"><font-face ascent="1638" bbox="-403 -483 2292 2183" cap-height="1434" descent="-410" font-family="" font-stretch="normal" font-weight="100" panose-1="0 0 0 0 0 0 0 0 0 0" underline-position="0" underline-thickness="0" unicode-range="U+0020-A78C" units-per-em="2048" x-height="1065"/><missing-glyph d="M45 0l225 1434h1250l-226 -1434h-1249zM168 106h1036l193 1221h-1037zM256 184l469 539l-295 526h119l246 -446l385 446h118l-462 -526l301 -539h-119l-250 461l-393 -461h-119z" horiz-adv-x="1505"/><glyph d="M45 0l225 1434h1250l-226 -1434h-1249zM168 106h1036l193 1221h-1037zM256 184l469 539l-295 526h119l246 -446l385 446h118l-462 -526l301 -539h-119l-250 461l-393 -461h-119z" glyph-name=".notdef" horiz-adv-x="1505"/><glyph glyph-name="glyph1" horiz-adv-x="0"/><glyph glyph-name="glyph2" horiz-adv-x="681"/><glyph glyph-name="space" horiz-adv-x="471" unicode=" "/><glyph d="M129 330l174 1104h57l-174 -1104h-57zM49 43q0 25 18.5 44t43.5 19q27 0 45 -19t18 -44q0 -27 -18.5 -45t-44.5 -18q-25 0 -43.5 18t-18.5 45z" glyph-name="exclam" horiz-adv-x="378" unicode="!"/><glyph d="M307 1016l66 418h49l-66 -418h-49zM160 1016l65 418h49l-65 -418h-49z" glyph-name="quotedbl" horiz-adv-x="360" unicode="&quot;"/><glyph d="M643 0l111 424h-381l-111 -424h-49l111 424h-236l8 49h240l125 488h-238l8 49h242l111 424h49l-111 -424h381l111 424h49l-111 -424h236l-8 -49h-240l-125 -488h238l-9 -49h-241l-111 -424h-49zM385 473h381l125 488h-381z" glyph-name="numbersign" horiz-adv-x="1220" unicode="#"/><glyph d="M432 -184l27 166q-211 12 -310.5 123.5t-76.5 269.5h49q-12 -145 74 -238.5t272 -101.5l108 692l-49 10q-303 74 -303 328q0 176 127 280.5t340 106.5l27 166h53l-27 -168q184 -12 276.5 -105.5t74.5 -226.5h-47q6 111 -71 189.5t-241 89.5l-98 -629l82 -18 q145 -35 229 -109t84 -227q0 -195 -143.5 -313.5t-376.5 -120.5l-27 -164h-53zM274 1063q0 -113 68 -178.5t211 -96.5l31 -8l98 619q-190 -2 -299 -92t-109 -244zM520 33q215 2 337 106.5t122 274.5q0 133 -74 193.5t-215 92.5l-63 15z" glyph-name="dollar" horiz-adv-x="1153" unicode="$"/><glyph d="M137 276l-20 43l1251 826l23 -41zM188 1085q0 143 85 249t219 106q100 0 159.5 -63.5t59.5 -178.5q0 -143 -85 -248.5t-218 -105.5q-100 0 -160 63t-60 178zM240 1079q0 -186 172 -186q119 0 183 93t64 218q0 186 -170 187q-119 0 -184 -93.5t-65 -218.5zM795 223 q0 143 85 250t218 107q100 0 158.5 -63.5t58.5 -178.5q0 -143 -85 -249.5t-218 -106.5q-100 0 -158.5 63t-58.5 178zM846 219q0 -186 170 -186q119 0 183.5 92t64.5 217q0 186 -170 186q-119 0 -183.5 -93t-64.5 -216z" glyph-name="percent" horiz-adv-x="1447" unicode="%"/><glyph d="M489 -20q-193 0 -305 98t-112 260q0 297 415 481l21 8q-139 178 -139 320q0 127 87 216t238 89q121 0 191.5 -60.5t70.5 -172.5q0 -139 -99 -233.5t-275 -176.5l391 -537q125 170 168 451h51q-45 -303 -191 -492l168 -231h-65l-137 190q-189 -210 -478 -210zM125 342 q0 -145 99.5 -228t271.5 -83q272 0 442 198l-401 562l-9 -5q-184 -82 -293.5 -186t-109.5 -258zM422 1145q0 -131 131 -297l25 12q330 145 329 352q0 92 -57 140.5t-156 48.5q-125 0 -198.5 -69.5t-73.5 -186.5z" glyph-name="ampersand" horiz-adv-x="1318" unicode="&amp;"/><glyph d="M160 1016l65 418h49l-65 -418h-49z" glyph-name="quotesingle" horiz-adv-x="212" unicode="'"/><glyph d="M182 -266q-156 389 -69 921q80 510 354 871h43q-266 -373 -344 -871q-84 -522 59 -921h-43z" glyph-name="parenleft" horiz-adv-x="444" unicode="("/><glyph d="M293 1526q156 -389 69 -922q-80 -510 -354 -870h-43q266 373 344 870q84 522 -59 922h43z" glyph-name="parenright" horiz-adv-x="442" unicode=")"/><glyph d="M326 858l-35 31l194 223l33 -25zM242 1190l22 49l236 -72l-19 -43zM516 1180l37 254h51l-41 -254h-47zM535 1087l38 25l121 -223l-45 -31zM573 1167l258 72l7 -49l-256 -66z" glyph-name="asterisk" horiz-adv-x="872" unicode="*"/><glyph d="M424 197l57 354h-350l6 53h352l56 352h53l-55 -352h350l-8 -53h-350l-58 -354h-53z" glyph-name="plus" horiz-adv-x="1009" unicode="+"/><glyph d="M-23 -131q109 6 115 108q-31 0 -52.5 16.5t-21.5 45.5t18.5 48t47.5 19t47.5 -24.5t18.5 -65.5q0 -70 -44.5 -130t-121.5 -60h-13z" glyph-name="comma" horiz-adv-x="331" unicode=","/><glyph d="M86 555l8 49h508l-8 -49h-508z" glyph-name="hyphen" horiz-adv-x="671" unicode="-"/><glyph d="M80 -20q-25 0 -43.5 18t-18.5 45q0 25 18.5 44t43.5 19q27 0 45 -19t18 -44q0 -27 -18 -45t-45 -18z" glyph-name="period" horiz-adv-x="317" unicode="."/><glyph d="M-23 0l775 1434h57l-774 -1434h-58z" glyph-name="slash" horiz-adv-x="727" unicode="/"/><glyph d="M539 -20q-207 0 -316.5 145t-109.5 410q0 170 45 332.5t127 293.5t211 211t284 80q207 0 317.5 -145.5t110.5 -407.5q0 -172 -45 -335t-128 -294t-211.5 -210.5t-284.5 -79.5zM164 532q0 -248 100.5 -375.5t284.5 -127.5q188 0 331.5 135t211 329.5t67.5 405.5 q0 246 -102.5 375t-288.5 129q-188 0 -330.5 -136.5t-208 -330t-65.5 -404.5z" glyph-name="zero" horiz-adv-x="1263" unicode="0"/><glyph d="M444 1331q-100 -119 -241 -123l8 49q80 4 154.5 61.5t95.5 115.5h53l-227 -1434h-54z" glyph-name="one" horiz-adv-x="538" unicode="1"/><glyph d="M6 49q27 180 141.5 301t368.5 266q117 66 180.5 106t134 98.5t105.5 119.5t45 135q20 145 -65 236.5t-250 91.5q-170 0 -289 -100.5t-146 -276.5l-4 -29h-57l6 33q35 193 169 307.5t323 114.5q193 0 293 -110.5t71 -278.5q-25 -150 -134.5 -251t-340.5 -230 q-229 -129 -351 -245t-138 -265l-2 -21h825l-8 -51h-885z" glyph-name="two" horiz-adv-x="1058" unicode="2"/><glyph d="M477 -20q-221 0 -329.5 124.5t-77.5 329.5h51q-25 -178 68.5 -290.5t295.5 -112.5q209 0 354.5 120.5t145.5 301.5q0 150 -106.5 227.5t-298.5 77.5h-43l6 55h39q188 0 305 93t117 243q0 121 -77 186.5t-229 65.5q-176 0 -292.5 -94.5t-141.5 -290.5h-53 q33 221 163 328.5t322 107.5q176 0 268.5 -80t92.5 -215q0 -129 -82 -227.5t-221 -138.5q131 -27 207.5 -111t76.5 -219q0 -207 -164 -344t-397 -137z" glyph-name="three" horiz-adv-x="1140" unicode="3"/><glyph d="M705 0l65 418h-702l8 47l856 969h53l-154 -969h164l-8 -47h-164l-65 -418h-53zM137 465h641l140 887z" glyph-name="four" horiz-adv-x="1091" unicode="4"/><glyph d="M489 -20q-213 0 -319.5 122.5t-83.5 311.5h51q-20 -166 74 -275.5t287 -109.5q225 0 362 155.5t137 366.5q0 168 -92 263t-262 95q-236 0 -397 -182h-66l228 707h677l-10 -45h-635l-196 -611q160 180 405 180q178 0 289 -104t111 -301q0 -240 -157 -406.5t-403 -166.5z " glyph-name="five" horiz-adv-x="1128" unicode="5"/><glyph d="M506 -20q-395 0 -395 473q0 104 18 229q121 770 614 770q170 0 261.5 -82t91.5 -201q0 -20 -4 -41h-48q10 109 -62.5 192t-238.5 83q-246 0 -382 -201t-191 -577q70 180 206 258t288 78q190 0 290.5 -110t100.5 -294q0 -240 -153.5 -408.5t-395.5 -168.5zM166 401 q0 -168 91 -270t261 -102q215 0 349 159.5t134 370.5q0 164 -89 257t-257 93q-217 0 -353 -148.5t-136 -359.5z" glyph-name="six" horiz-adv-x="1155" unicode="6"/><glyph d="M199 0q174 641 755 1384h-757l8 50h817l-6 -50q-586 -737 -758 -1384h-59z" glyph-name="seven" horiz-adv-x="950" unicode="7"/><glyph d="M489 -20q-197 0 -312.5 94t-115.5 268q0 164 105.5 287t279.5 168q-80 23 -131 95.5t-51 178.5q0 160 121 270.5t322 110.5q170 0 262 -83t92 -220q0 -133 -82 -224t-199 -128q119 -35 189.5 -123t70.5 -221q0 -205 -156.5 -339t-394.5 -134zM113 344 q0 -154 104.5 -234.5t274.5 -80.5q209 0 352 116.5t143 303.5q0 154 -103.5 237.5t-275.5 83.5q-211 0 -353 -121t-142 -305zM315 1069q0 -117 76 -184.5t223 -67.5q178 0 287 96.5t109 239.5q0 117 -78 184.5t-223 67.5q-178 0 -286 -95.5t-108 -240.5z" glyph-name="eight" horiz-adv-x="1142" unicode="8"/><glyph d="M707 1450q395 0 395 -473q0 -104 -19 -229q-121 -770 -614 -771q-170 0 -261 82t-91 201q0 20 4 41h47q-10 -109 62.5 -191.5t238.5 -82.5q246 0 382 200.5t191 577.5q-70 -180 -206 -258t-287 -78q-190 0 -290.5 109.5t-100.5 293.5q0 240 153.5 409t395.5 169zM211 870 q0 -164 89 -257t257 -93q217 0 353.5 148.5t136.5 359.5q0 168 -91.5 270.5t-261.5 102.5q-215 0 -349 -160t-134 -371z" glyph-name="nine" horiz-adv-x="1155" unicode="9"/><glyph d="M80 -20q-25 0 -43.5 18t-18.5 45q0 25 18.5 44t43.5 19q27 0 45 -19t18 -44q0 -27 -18 -45t-45 -18zM172 1001q0 25 18.5 44.5t42.5 19.5q27 0 45.5 -19.5t18.5 -44.5q0 -27 -18.5 -45t-45.5 -18q-25 0 -43 18t-18 45z" glyph-name="colon" horiz-adv-x="321" unicode=":"/><glyph d="M233 938q-25 0 -43 18.5t-18 44.5q0 25 18.5 44.5t42.5 19.5q27 0 45.5 -19.5t18.5 -44.5q0 -27 -18.5 -45t-45.5 -18zM-29 -174l6 43q109 6 115 108q-31 0 -52.5 16.5t-21.5 45.5t18.5 48t47.5 19t47.5 -24.5t18.5 -65.5q0 -70 -44.5 -130t-121.5 -60h-13z" glyph-name="semicolon" horiz-adv-x="331" unicode=";"/><glyph d="M862 0l-780 453l8 75l928 457l-10 -67l-875 -431l739 -421z" glyph-name="less" horiz-adv-x="1038" unicode="&lt;"/><glyph d="M104 391l9 49h551l-11 -49h-549zM158 719l8 49h549l-8 -49h-549z" glyph-name="equal" horiz-adv-x="804" unicode="="/><glyph d="M164 985l780 -453l-8 -75l-928 -457l10 68l875 430l-739 422z" glyph-name="greater" horiz-adv-x="1038" unicode=">"/><glyph d="M455 459q14 92 65 161.5t115.5 112.5l129 86t116 109.5t65.5 154.5q25 156 -63 235t-240 79q-164 0 -278.5 -93.5t-141.5 -285.5h-53q23 197 149.5 313.5t325.5 116.5q184 0 282.5 -97.5t71.5 -269.5q-14 -96 -66 -167.5t-116.5 -115.5t-129 -87t-115 -105.5 t-62.5 -146.5l-18 -115h-54zM367 43q0 25 18 44t43 19q27 0 45.5 -19t18.5 -44q0 -27 -18.5 -45t-45.5 -18q-25 0 -43 18t-18 45z" glyph-name="question" horiz-adv-x="1003" unicode="?"/><glyph d="M803 -20q-307 0 -494.5 168.5t-187.5 465.5q0 348 241.5 593t600.5 245q281 0 452.5 -163t171.5 -439q0 -203 -87 -365.5t-228 -162.5q-84 0 -136.5 57t-45.5 153q-55 -102 -142.5 -156t-179.5 -54q-115 0 -191.5 82.5t-76.5 236.5q0 184 106.5 311t267.5 127 q96 0 168 -47t95 -137l30 160h45l-75 -480q-14 -82 19.5 -144t109.5 -62q84 0 148.5 78.5t94 186t29.5 220.5q0 256 -160.5 401.5t-419.5 145.5q-340 0 -564 -230.5t-224 -552.5q0 -281 176 -433t461 -152q129 0 203 20v-49q-74 -24 -207 -24zM551 639q0 -135 64.5 -201.5 t160.5 -66.5q141 0 240.5 128t99.5 285q0 123 -68.5 184.5t-168.5 61.5q-145 0 -236.5 -113.5t-91.5 -277.5z" glyph-name="at" horiz-adv-x="1642" unicode="@"/><glyph d="M-29 0l799 1434h55l344 -1434h-59l-100 432h-738l-239 -432h-62zM301 483h696l-204 875h-7z" glyph-name="A" horiz-adv-x="1308" unicode="A"/><glyph d="M43 0l227 1434h498q176 0 261 -79t85 -210q0 -129 -78 -227.5t-215 -135.5q268 -55 269 -327q0 -211 -152 -333t-401 -122h-494zM106 53h431q225 0 359 108.5t134 295.5q0 299 -379 299h-432zM227 809h432q186 0 291 94t105 250q0 115 -70 171t-231 56h-435z" glyph-name="B" horiz-adv-x="1183" unicode="B"/><glyph d="M655 -20q-244 0 -391 147t-147 440q0 172 51 331t144.5 283t237.5 197.5t318 73.5q201 0 327 -98.5t142 -274.5h-53q-16 152 -126.5 237t-291.5 85q-213 0 -375.5 -121t-242.5 -307.5t-80 -401.5q0 -272 135 -406t354 -134q180 0 310.5 86t195.5 237h58 q-74 -182 -220.5 -278t-345.5 -96z" glyph-name="C" horiz-adv-x="1310" unicode="C"/><glyph d="M43 0l227 1434h396q293 0 434 -141.5t141 -438.5q0 -375 -211 -614.5t-588 -239.5h-399zM106 53h340q354 0 549 226.5t195 578.5q0 272 -128 397t-392 125h-353z" glyph-name="D" horiz-adv-x="1300" unicode="D"/><glyph d="M43 0l227 1434h856l-10 -54h-799l-94 -608h738l-9 -55h-737l-109 -664h820l-6 -53h-877z" glyph-name="E" horiz-adv-x="1079" unicode="E"/><glyph d="M43 0l227 1434h883l-10 -54h-826l-100 -630h674l-6 -56h-674l-111 -694h-57z" glyph-name="F" horiz-adv-x="1071" unicode="F"/><glyph d="M653 -20q-248 0 -391 149.5t-143 450.5q0 233 85 428.5t260 319.5t408 124q197 0 309.5 -84t141.5 -233h-49q-70 266 -397 266q-223 0 -387 -118t-243 -302t-79 -406q0 -274 130 -409t355 -135q252 0 408 156.5t201 455.5l-428 -2l6 49h479l-8 -67q-45 -311 -218.5 -477 t-439.5 -166z" glyph-name="G" horiz-adv-x="1400" unicode="G"/><glyph d="M1004 0l106 668h-903l-107 -668h-57l227 1434h58l-113 -717h903l113 717h57l-227 -1434h-57z" glyph-name="H" horiz-adv-x="1271" unicode="H"/><glyph d="M43 0l227 1434h58l-228 -1434h-57z" glyph-name="I" horiz-adv-x="311" unicode="I"/><glyph d="M573 -20q-246 0 -366.5 150.5t-77.5 410.5h55q-39 -238 67.5 -373t326.5 -135q215 0 355 132t179 374l141 895h58l-142 -893q-41 -262 -196.5 -411.5t-399.5 -149.5z" glyph-name="J" horiz-adv-x="1294" unicode="J"/><glyph d="M43 0l227 1434h58l-142 -891l967 891h78l-742 -678l562 -756h-72l-530 719l-275 -252l-74 -467h-57z" glyph-name="K" horiz-adv-x="1189" unicode="K"/><glyph d="M43 0l227 1434h58l-222 -1381h795l-6 -53h-852z" glyph-name="L" horiz-adv-x="1054" unicode="L"/><glyph d="M43 0l227 1434h56l434 -1377l868 1377h60l-228 -1434h-57l205 1300h-2l-815 -1300h-70l-414 1300h-2l-205 -1300h-57z" glyph-name="M" horiz-adv-x="1671" unicode="M"/><glyph d="M43 0l227 1434h82l684 -1366h4l215 1366h58l-228 -1434h-81l-685 1370h-2l-217 -1370h-57z" glyph-name="N" horiz-adv-x="1296" unicode="N"/><glyph d="M641 -20q-238 0 -381 145t-143 438q0 233 85 433t258 328t398 128q238 0 382 -146.5t144 -441.5q0 -229 -86 -428.5t-259 -327.5t-398 -128zM168 563q0 -268 130 -400t345 -132q211 0 372 122.5t239.5 310t78.5 400.5q0 270 -130 403.5t-345 133.5q-160 0 -293 -72 t-219 -189.5t-132 -267t-46 -309.5z" glyph-name="O" horiz-adv-x="1441" unicode="O"/><glyph d="M43 0l227 1434h473q410 0 410 -353q0 -215 -148.5 -342t-392.5 -127h-415l-97 -612h-57zM205 666h416q223 0 350 111.5t127 299.5q0 303 -367 303h-414z" glyph-name="P" horiz-adv-x="1148" unicode="P"/><glyph d="M1223 -14l-133 161q-190 -168 -449 -167q-238 0 -381 145t-143 438q0 233 85 433t258 328t398 128q238 0 382 -146.5t144 -441.5q0 -197 -66.5 -376t-189.5 -304l134 -161zM168 563q0 -268 130 -400t345 -132q238 0 414 155l-271 326l39 37l271 -326q115 119 176 288 t61 353q0 270 -130 403.5t-345 133.5q-160 0 -293 -72t-219 -189.5t-132 -267t-46 -309.5z" glyph-name="Q" horiz-adv-x="1439" unicode="Q"/><glyph d="M940 0l-276 614q-16 -2 -52 -2h-415l-97 -612h-57l227 1434h473q410 0 410 -353q0 -190 -116.5 -312t-315.5 -148l278 -621h-59zM205 666h416q223 0 350 111.5t127 299.5q0 303 -367 303h-414z" glyph-name="R" horiz-adv-x="1159" unicode="R"/><glyph d="M520 -20q-244 0 -360.5 113.5t-89.5 281.5h51q-14 -154 86 -248t317 -94q227 0 357.5 104.5t130.5 276.5q0 133 -77 193.5t-222 92.5l-170 37q-317 74 -318 328q0 176 134.5 281.5t357.5 105.5q217 0 326.5 -95t89.5 -239h-50q6 117 -84 199t-284 82q-203 0 -318.5 -90 t-115.5 -246q0 -113 69.5 -178.5t218.5 -96.5l172 -38q154 -35 241 -109t87 -227q0 -197 -151.5 -315.5t-397.5 -118.5z" glyph-name="S" horiz-adv-x="1189" unicode="S"/><glyph d="M463 0l219 1380h-483l10 54h1020l-8 -54h-484l-217 -1380h-57z" glyph-name="T" horiz-adv-x="1150" unicode="T"/><glyph d="M565.5 -20q-243.5 0 -360.5 150.5t-76 410.5l141 893h56l-142 -895q-39 -242 65.5 -374t324 -132t358.5 132t176 374l143 895h56l-142 -893q-41 -262 -198.5 -411.5t-401 -149.5z" glyph-name="U" horiz-adv-x="1290" unicode="U"/><glyph d="M553 0l-344 1434h59l320 -1358h4l754 1358h61l-799 -1434h-55z" glyph-name="V" horiz-adv-x="1329" unicode="V"/><glyph d="M375 0l-166 1434h57l154 -1358h4l639 1358h70l210 -1358h5l583 1358h60l-619 -1434h-72l-213 1358l-641 -1358h-71z" glyph-name="W" horiz-adv-x="1912" unicode="W"/><glyph d="M-29 0l662 743l-397 691h65l371 -646l575 646h70l-617 -695l426 -739h-65l-399 694l-619 -694h-72z" glyph-name="X" horiz-adv-x="1265" unicode="X"/><glyph d="M512 0l92 588l-395 846h61l371 -791l619 791h65l-668 -846l-90 -588h-55z" glyph-name="Y" horiz-adv-x="1247" unicode="Y"/><glyph d="M-2 0l6 53l1200 1327h-940l10 54h1010l-12 -54l-1196 -1327h995l-6 -53h-1067z" glyph-name="Z" horiz-adv-x="1230" unicode="Z"/><glyph d="M0 -266l285 1792h245l-8 -51h-192l-269 -1690h193l-8 -51h-246z" glyph-name="bracketleft" horiz-adv-x="499" unicode="["/><glyph d="M535 0l-330 1434h47l330 -1434h-47z" glyph-name="backslash" horiz-adv-x="727" unicode="\"/><glyph d="M530 1526l-284 -1792h-246l8 51h193l268 1690h-193l9 51h245z" glyph-name="bracketright" horiz-adv-x="499" unicode="]"/><glyph d="M158 952l432 482h53l277 -482h-58l-250 439l-389 -439h-65z" glyph-name="asciicircum" horiz-adv-x="946" unicode="^"/><glyph d="M0 -51l8 51h1024l-8 -51h-1024z" glyph-name="underscore" horiz-adv-x="1208" unicode="_"/><glyph d="M307 1192l-166 258h49l168 -258h-51z" glyph-name="grave" horiz-adv-x="253" unicode="`"/><glyph d="M326 -20q-141 0 -219 63t-78 180q0 135 99 217t275 101l293 34q106 10 146.5 33t50.5 74l8 57q27 160 -43 229.5t-250 69.5q-174 0 -263 -61.5t-109 -183.5l-5 -25h-51l2 25q35 293 436 292q199 0 282 -82.5t52 -267.5l-114 -735h-54l33 215h-6q-45 -78 -180 -156.5 t-305 -78.5zM82 223q0 -195 246 -194q203 0 352 114.5t162 202.5l37 248q-6 -47 -195 -68l-270 -30q-158 -16 -245 -86t-87 -187z" glyph-name="a" horiz-adv-x="1048" unicode="a"/><glyph d="M535 -20q-141 0 -251 70.5t-147 215.5l-41 -266h-53l227 1434h54l-101 -631q170 283 473 282q184 0 296 -111.5t112 -334.5q0 -274 -162.5 -466.5t-406.5 -192.5zM166 416q0 -188 106.5 -288.5t266.5 -100.5q152 0 272.5 92t182 230t61.5 290q0 199 -99.5 299t-261.5 100 q-227 0 -377.5 -184t-150.5 -438z" glyph-name="b" horiz-adv-x="1173" unicode="b"/><glyph d="M489 -20q-195 0 -307 115.5t-112 336.5q0 268 160.5 460.5t422.5 192.5q162 0 268.5 -82.5t110.5 -259.5h-53q-4 154 -97.5 223.5t-228.5 69.5q-238 0 -384 -177t-146 -427q0 -205 101.5 -304t269.5 -99q137 0 250.5 69.5t164.5 231.5h54q-55 -184 -184.5 -267 t-289.5 -83z" glyph-name="c" horiz-adv-x="1058" unicode="c"/><glyph d="M479 -20q-182 0 -296.5 112.5t-114.5 325.5q0 279 159.5 473t411.5 194q139 0 243.5 -68.5t151.5 -213.5l103 631h53l-227 -1434h-54l41 266q-82 -147 -207 -216.5t-264 -69.5zM117 424q0 -197 102.5 -297t265.5 -100q225 0 373 182t148 430q0 195 -105.5 297t-267.5 102 q-154 0 -274.5 -91t-181 -230t-60.5 -293z" glyph-name="d" horiz-adv-x="1173" unicode="d"/><glyph d="M481 -18q-201 0 -307 109.5t-106 326.5q0 129 37.5 247.5t107.5 213t179.5 150.5t240.5 56q178 0 278.5 -100t100.5 -274q0 -129 -27 -195h-858q-6 -49 -6 -100q0 -383 360 -383q285 0 400 231h55q-138 -282 -455 -282zM135 565h809q49 229 -44 349t-275 120 q-199 0 -326 -133t-164 -336z" glyph-name="e" horiz-adv-x="1069" unicode="e"/><glyph d="M313 1262q33 205 248 204h78l-6 -51h-60q-100 0 -146 -36t-60 -136l-29 -178h231l-6 -49h-233l-162 -1016h-53l159 1016h-141l6 49h144z" glyph-name="f" horiz-adv-x="542" unicode="f"/><glyph d="M475 20q-180 0 -292.5 106.5t-112.5 311.5q0 268 157.5 457.5t411.5 189.5q141 0 245.5 -64.5t147.5 -201.5h2l37 246h53l-145 -936l-23 -131q-27 -154 -114.5 -253t-195 -136t-238.5 -37q-193 0 -303.5 82t-90.5 223h47q-14 -117 78 -187.5t273 -70.5q195 0 325.5 91 t165.5 288l23 131l24 158h-4q-168 -267 -471 -267zM123 449q0 -186 101.5 -283.5t254.5 -97.5q227 0 377 172t150 411q0 190 -103.5 288.5t-265.5 98.5q-227 0 -370.5 -172.5t-143.5 -416.5z" glyph-name="g" horiz-adv-x="1167" unicode="g"/><glyph d="M43 0l227 1434h54l-91 -578q29 72 135.5 150.5t278.5 78.5q80 0 144.5 -21.5t115.5 -69.5t71.5 -138t0.5 -213l-102 -643h-54l103 641q29 184 -39 288.5t-246 104.5q-174 0 -291 -99t-147 -265l-107 -670h-53z" glyph-name="h" unicode="h"/><glyph d="M43 0l168 1065h53l-168 -1065h-53zM240 1401q0 20 15 36.5t37.5 16.5t38 -15.5t15.5 -38t-15.5 -38.5t-37.5 -16q-20 0 -36.5 16t-16.5 39z" glyph-name="i" horiz-adv-x="309" unicode="i"/><glyph d="M-131 -375q-10 0 -32.5 3t-33.5 3l7 45h38q104 0 151.5 37t63.5 140l193 1212h53l-196 -1233q-29 -207 -244 -207zM285 1401q0 20 15 36.5t37.5 16.5t38 -15.5t15.5 -38t-15.5 -38.5t-37.5 -16q-20 0 -36.5 16t-16.5 39z" glyph-name="j" horiz-adv-x="354" unicode="j"/><glyph d="M43 0l227 1434h54l-166 -1043l782 674h78l-549 -471l444 -594h-65l-418 559l-285 -244l-49 -315h-53z" glyph-name="k" horiz-adv-x="1032" unicode="k"/><glyph d="M43 0l227 1434h54l-228 -1434h-53z" glyph-name="l" horiz-adv-x="307" unicode="l"/><glyph d="M1575 641q61 393 -254 393q-162 0 -267.5 -98t-135.5 -266l-5 -27l-102 -643h-53l102 641q61 393 -254 393q-166 0 -272.5 -104.5t-134.5 -280.5l-103 -649h-53l168 1065h53l-31 -199h7q14 29 35.5 57.5t64.5 69.5t114.5 66.5t159.5 25.5q270 0 306 -247h2q2 4 6 10 q25 41 46 69.5t68.5 73.5t119 69.5t161.5 24.5q377 0 305 -442l-102 -643h-53z" glyph-name="m" horiz-adv-x="1736" unicode="m"/><glyph d="M926 641q29 184 -39 288.5t-246 104.5t-296 -105.5t-146 -279.5l-103 -649h-53l168 1065h53l-31 -199h3q16 29 44.5 60.5t77 70.5t125 63.5t164.5 24.5q80 0 144.5 -21.5t115.5 -69.5t71.5 -138t0.5 -213l-102 -643h-54z" glyph-name="n" unicode="n"/><glyph d="M489 -20q-184 0 -302.5 112.5t-118.5 331.5q0 266 162.5 463.5t418.5 197.5q184 0 303 -112.5t119 -331.5q0 -266 -163 -463.5t-419 -197.5zM123 426q0 -201 104.5 -300t266.5 -99q227 0 374.5 183t147.5 429q0 201 -104.5 300t-266.5 99q-227 0 -374.5 -183t-147.5 -429 z" glyph-name="o" horiz-adv-x="1138" unicode="o"/><glyph d="M-18 -389l229 1454h53l-41 -262q164 283 467 282q182 0 298 -110.5t116 -323.5q0 -285 -161 -478t-411 -193q-301 0 -395 286l-102 -655h-53zM166 426q0 -195 104.5 -297t266.5 -102q229 0 373.5 187t144.5 427q0 197 -101.5 297t-261.5 100q-229 0 -377.5 -182 t-148.5 -430z" glyph-name="p" horiz-adv-x="1173" unicode="p"/><glyph d="M848 -389l102 655q-82 -147 -207 -216.5t-264 -69.5q-182 0 -296.5 112.5t-114.5 325.5q0 279 159.5 473t411.5 194q139 0 243.5 -68.5t151.5 -213.5l43 262h53l-229 -1454h-53zM117 424q0 -197 102.5 -297t265.5 -100q225 0 373 182t148 430q0 195 -105.5 297 t-267.5 102q-154 0 -274.5 -91t-181 -230t-60.5 -293z" glyph-name="q" horiz-adv-x="1173" unicode="q"/><glyph d="M43 0l168 1065h53l-35 -215q43 80 143.5 151.5t252.5 71.5q55 0 77 -10l-8 -47q-31 6 -71 6q-170 0 -277.5 -99.5t-142.5 -250.5l-107 -672h-53z" glyph-name="r" horiz-adv-x="673" unicode="r"/><glyph d="M406 -20q-168 0 -281 71.5t-100 212.5h51q-4 -86 49 -141t125 -74.5t160 -19.5q162 0 270 70.5t108 203.5q0 92 -53 133t-172 74l-190 49q-111 31 -169.5 85t-58.5 149q0 135 113 213.5t293 78.5q160 0 257 -66.5t91 -207.5h-47q-8 225 -299 225q-162 0 -258 -62.5 t-96 -176.5q0 -76 46 -121t156 -74l177 -45q133 -37 197.5 -90t64.5 -160q0 -156 -125 -241.5t-309 -85.5z" glyph-name="s" horiz-adv-x="946" unicode="s"/><glyph d="M348 -14q-213 0 -182 207l129 823h-162l6 49h164l41 258h53l-41 -258h215l-6 -49h-215l-127 -805q-14 -102 19.5 -138t134.5 -36h53l-8 -45q-25 -6 -74 -6z" glyph-name="t" horiz-adv-x="573" unicode="t"/><glyph d="M162 424q-29 -184 38.5 -288.5t246 -104.5t296 105.5t146.5 279.5l102 649h53l-167 -1065h-54l31 199h-2q-16 -29 -45 -61t-77 -70.5t-125 -63t-165 -24.5q-80 0 -144.5 21.5t-115.5 69.5t-71.5 138t0.5 213l102 643h53z" glyph-name="u" unicode="u"/><glyph d="M403 0l-264 1065h54l249 -1016h2l568 1016h57l-598 -1065h-68z" glyph-name="v" horiz-adv-x="1040" unicode="v"/><glyph d="M293 0l-154 1065h56l139 -997h8l498 997h55l192 -997h9l448 997h58l-484 -1065h-69l-189 995l-498 -995h-69z" glyph-name="w" horiz-adv-x="1572" unicode="w"/><glyph d="M-8 0l473 539l-303 526h63l271 -481l424 481h69l-471 -526l305 -539h-63l-271 498l-428 -498h-69z" glyph-name="x" horiz-adv-x="983" unicode="x"/><glyph d="M33 -332q182 -33 313 207q49 94 37 141l-244 1049h56l237 -1028l559 1028h60l-668 -1219q-145 -262 -358 -231z" glyph-name="y" horiz-adv-x="1021" unicode="y"/><glyph d="M-2 0l8 49l918 967h-746l8 49h815l-8 -49l-919 -967h766l-6 -49h-836z" glyph-name="z" horiz-adv-x="999" unicode="z"/><glyph d="M186 -266q-59 0 -87.5 41t-20.5 92l98 614l-70 146l117 149l99 617q8 51 49 92t100 41h68l-9 -51h-71q-33 0 -56.5 -20.5t-27.5 -53.5l-101 -635l-96 -139l53 -135l-100 -633q-4 -33 11.5 -53.5t47.5 -20.5h72l-8 -51h-68z" glyph-name="braceleft" horiz-adv-x="473" unicode="{"/><glyph d="M8 -389l322 2027h51l-322 -2027h-51z" glyph-name="bar" horiz-adv-x="358" unicode="|"/><glyph d="M317 1526q59 0 88 -41t21 -92l-98 -615l69 -145l-116 -150l-99 -616q-8 -51 -49 -92t-100 -41h-68l8 51h72q33 0 56.5 20.5t27.5 53.5l100 635l97 139l-54 135l101 633q4 33 -11.5 53.5t-48.5 20.5h-71l8 51h67z" glyph-name="braceright" horiz-adv-x="473" unicode="}"/><glyph d="M604 504q-61 0 -110.5 37t-93.5 73.5t-89 36.5q-70 0 -102.5 -35.5t-30.5 -78.5h-49q0 82 53.5 123.5t122.5 41.5q74 0 157 -73.5t136 -73.5q70 0 101.5 37t29.5 78h49q0 -80 -53 -123t-121 -43z" glyph-name="asciitilde" horiz-adv-x="886" unicode="~"/><glyph glyph-name="uni00A0" horiz-adv-x="471" unicode=" "/><glyph d="M250 735l-174 -1104h-58l175 1104h57zM205 1022q0 27 18.5 45t44.5 18q25 0 43.5 -18t18.5 -45q0 -25 -18.5 -44.5t-43.5 -19.5q-27 0 -45 19.5t-18 44.5z" glyph-name="exclamdown" horiz-adv-x="378" unicode="¡"/><glyph d="M434 -82l35 217q-176 12 -276.5 125t-100.5 318q0 254 150.5 439t398.5 200l35 217h49l-35 -217q156 -4 258.5 -85t106.5 -249h-54q-4 147 -95 215.5t-224 70.5l-156 -987q86 2 160 26.5t142.5 93.5t103.5 175h53q-55 -180 -182 -261t-285 -83l-35 -215h-49zM145 578 q0 -188 90.5 -284.5t241.5 -109.5l156 983q-219 -16 -353.5 -186t-134.5 -403z" glyph-name="cent" horiz-adv-x="1058" unicode="¢"/><glyph d="M31 41q270 236 270 487q0 41 -6 82h-176l6 49h160q-8 35 -28.5 103.5t-32 126t-11.5 115.5q0 195 128 319.5t335 124.5q195 0 291 -113.5t65 -312.5l-6 -39h-49l6 35q29 193 -59 286t-248 93q-178 0 -295 -106.5t-117 -280.5q0 -55 11.5 -112.5t31 -129.5t27.5 -109h315 l-6 -49h-299q6 -43 6 -90q0 -252 -256 -483q102 37 209 38t183.5 -18.5t178 -25.5t193.5 20l-8 -51q-117 -33 -259 -13.5t-241.5 36t-283.5 -42.5z" glyph-name="sterling" horiz-adv-x="1060" unicode="£"/><glyph d="M678 516q-172 0 -299 111l-98 -99l-43 41l98 99q-117 133 -117 307t117 307l-98 98l43 41l98 -98q127 111 299 111t299 -111l98 98l41 -41l-98 -98q119 -129 119 -307t-119 -307l98 -99l-41 -41l-98 99q-127 -111 -299 -111zM270 975q0 -172 124 -290t284 -118t284.5 118 t124.5 290q0 170 -124.5 288.5t-284.5 118.5q-158 0 -283 -118.5t-125 -288.5z" glyph-name="currency" horiz-adv-x="1212" unicode="¤"/><glyph d="M301 535l10 43h291l2 10l-395 846h61l371 -791l619 791h65l-668 -846l-2 -10h295l-10 -43h-291l-22 -144h295l-11 -43h-290l-54 -348h-55l55 348h-295l11 43h290l23 144h-295z" glyph-name="yen" horiz-adv-x="1247" unicode="¥"/><glyph d="M225 983l105 655h51l-105 -655h-51zM8 -389l103 655h51l-103 -655h-51z" glyph-name="brokenbar" horiz-adv-x="358" unicode="¦"/><glyph d="M434 -483q-434 0 -434 381h53q2 -152 87 -242t302 -90q432 0 486 328q23 145 -56 225t-217 108l-219 45q-166 35 -234.5 128.5t-49.5 226.5q25 156 133 247l8 -4q-70 90 -47 224q25 158 149.5 257t349.5 99q215 0 306.5 -86t93.5 -236h-51q-4 125 -77 199t-277.5 74 t-312.5 -83t-130 -220q-39 -254 262 -314l166 -34q184 -39 279.5 -127t68.5 -261q-23 -158 -129 -249q55 -88 35 -219q-27 -172 -163 -274.5t-382 -102.5zM205 631q-35 -254 260 -314l166 -34q201 -39 284 -133q84 82 107 212q41 268 -272 332l-220 45q-141 31 -215 105 q-90 -80 -110 -213z" glyph-name="section" horiz-adv-x="1204" unicode="§"/><glyph d="M494 1346q-23 0 -39.5 16t-16.5 38.5t16.5 38t39 15.5t38 -16.5t15.5 -36.5q0 -23 -16.5 -39t-36.5 -16zM139 1401q0 20 16.5 36.5t37 16.5t37 -16.5t16.5 -36.5q0 -23 -16.5 -39t-37 -16t-37 16t-16.5 39z" glyph-name="dieresis" horiz-adv-x="409" unicode="¨"/><glyph d="M756 -14q-279 0 -459 172t-180 448q0 344 249.5 592t596.5 248q279 0 457.5 -171t178.5 -444q0 -348 -248.5 -596.5t-594.5 -248.5zM166 608q0 -258 165 -416.5t425 -158.5q328 0 561 237.5t233 554.5q0 258 -165.5 416t-423.5 158q-326 0 -560.5 -237t-234.5 -554z M424 645q0 213 141.5 366.5t360.5 153.5q125 0 212 -56t115 -171h-55q-45 178 -276 178q-199 0 -324 -137t-125 -334q0 -158 88 -244t240 -86q233 0 329 183h56q-63 -117 -168 -174.5t-223 -57.5q-164 0 -267.5 101.5t-103.5 277.5z" glyph-name="copyright" horiz-adv-x="1658" unicode="©"/><glyph d="M322 795q-82 0 -129.5 42t-47.5 121q0 172 234 193l274 25q14 119 -15.5 169t-148.5 50q-193 0 -206 -135h-50q27 178 261 178q137 0 181 -62.5t21 -204.5l-57 -372h-47l16 116q-43 -47 -122.5 -83.5t-163.5 -36.5zM190 961q0 -121 148 -121q100 0 176 51t109 98l20 144 l-266 -25q-187 -18 -187 -147z" glyph-name="ordfeminine" horiz-adv-x="724" unicode="ª"/><glyph d="M610 358l-223 234l6 39l297 233l-10 -71l-231 -183l174 -186zM92 592l4 39l297 233l-8 -71l-233 -183l174 -186l-13 -66z" glyph-name="guillemotleft" horiz-adv-x="722" unicode="«"/><glyph d="M805 328l39 258h-711l10 53h764l-49 -311h-53z" glyph-name="logicalnot" horiz-adv-x="1017" unicode="¬"/><glyph d="M86 555l8 49h508l-8 -49h-508z" glyph-name="uni00AD" horiz-adv-x="671" unicode="­"/><glyph d="M756 -14q-279 0 -459 172t-180 448q0 344 249.5 592t596.5 248q279 0 457.5 -171t178.5 -444q0 -348 -248.5 -596.5t-594.5 -248.5zM166 608q0 -258 165 -416.5t425 -158.5q328 0 561 237.5t233 554.5q0 258 -165.5 416t-423.5 158q-326 0 -560.5 -237t-234.5 -554z M500 305l131 821h356q119 0 185.5 -57t66.5 -164q0 -111 -72.5 -187.5t-191.5 -94.5l166 -318h-58l-157 311h-21h-307l-51 -311h-47zM604 659h303q131 0 209 68t78 176q0 180 -221 180h-301z" glyph-name="registered" horiz-adv-x="1658" unicode="®"/><glyph d="M139 1403l6 47h549l-6 -47h-549z" glyph-name="macron" horiz-adv-x="548" unicode="¯"/><glyph d="M487 870q-125 0 -211 85t-86 212q0 129 86 214t211 85t211 -85t86 -214q0 -127 -86 -212t-211 -85zM240 1167.5q0 -112.5 70.5 -180t177 -67.5t177 67.5t70.5 179.5q0 115 -70.5 181.5t-177 66.5t-177 -67.5t-70.5 -180z" glyph-name="degree" horiz-adv-x="774" unicode="°"/><glyph d="M92 0l4 49h707l-6 -49h-705zM139 608l6 54h353l55 352h53l-55 -352h350l-8 -54h-350l-58 -354h-53l57 354h-350z" glyph-name="plusminus" horiz-adv-x="1007" unicode="±"/><glyph d="M145 930q4 68 50.5 118t140.5 103q55 33 78.5 48t44 41t26.5 58q8 49 -18.5 80t-83.5 31q-117 0 -141 -123l-2 -12h-39l2 12q14 72 62 115t120 43t107.5 -39t27.5 -100q-8 -59 -49 -99.5t-119 -83.5q-76 -41 -122 -91t-44 -93h289l-6 -37h-326z" glyph-name="uni00B2" horiz-adv-x="503" unicode="²"/><glyph d="M326 893q-86 0 -128 47t-30 127h37q-20 -139 131 -139q63 0 108 29.5t55.5 89t-27.5 88t-110 28.5h-22l4 35h23q61 0 103 31t48 76q12 104 -108 104q-135 0 -154 -133h-37q10 80 61.5 124t131.5 44q78 0 115.5 -42t25.5 -102q-8 -43 -39 -73.5t-78 -40.5q49 -12 79 -48 t22 -94q-8 -66 -64.5 -108.5t-146.5 -42.5z" glyph-name="uni00B3" horiz-adv-x="536" unicode="³"/><glyph d="M104 1192l240 258h57l-239 -258h-58z" glyph-name="acute" horiz-adv-x="258" unicode="´"/><glyph d="M-18 -389l120 768l7 43l102 643h53l-108 -684q-16 -166 54.5 -258t235.5 -92q178 0 296 105.5t147 279.5l102 649h53l-167 -1065h-54l31 199h-2q-16 -29 -45 -61t-77 -70.5t-125 -63t-165 -24.5q-248 0 -317 184l-88 -553h-53z" glyph-name="uni00B5" unicode="µ"/><glyph d="M489 -451l175 1100h-179q-162 0 -247.5 84t-85.5 242q0 199 127 329t331 130h445l-8 -54l-291 -1831h-49l290 1831h-168l-290 -1831h-50z" glyph-name="paragraph" horiz-adv-x="1038" unicode="¶"/><glyph d="M176 514q-25 0 -43 18.5t-18 45.5q0 25 18.5 44t42.5 19q27 0 45.5 -19.5t18.5 -43.5q0 -27 -18.5 -45.5t-45.5 -18.5z" glyph-name="periodcentered" horiz-adv-x="337" unicode="·"/><glyph d="M-117 -352q90 0 143.5 34.5t53.5 94.5q0 55 -42 76.5t-114 -5.5l-28 33l108 119h66l-93 -96q25 4 33 4q51 0 87 -32t36 -95q0 -90 -73.5 -138.5t-184.5 -48.5z" glyph-name="cedilla" horiz-adv-x="253" unicode="¸"/><glyph d="M319 1378q-39 -55 -110 -49l4 31q78 4 117 74h37l-84 -535h-37z" glyph-name="uni00B9" horiz-adv-x="315" unicode="¹"/><glyph d="M424 795q-111 0 -185.5 69.5t-74.5 196.5q0 158 106.5 267.5t253.5 109.5q113 0 190 -69t77 -195q0 -156 -111 -267.5t-256 -111.5zM209 1063q0 -109 63.5 -166t159.5 -57q131 0 221 98t90 233q0 106 -62.5 164t-158.5 58q-133 0 -223 -97.5t-90 -232.5z" glyph-name="ordmasculine" horiz-adv-x="770" unicode="º"/><glyph d="M139 864l223 -233l-6 -39l-297 -234l11 72l231 182l-174 187zM356 358l9 72l233 182l-174 187l12 65l221 -233l-4 -39z" glyph-name="guillemotright" horiz-adv-x="724" unicode="»"/><glyph d="M319 1378q-39 -55 -110 -49l4 31q78 4 117 74h37l-84 -535h-37zM31 0l1120 1434h43l-1120 -1434h-43zM674 135l6 31l305 369h37l-57 -369h61l-6 -31h-62l-20 -135h-37l21 135h-248zM721 166h207l47 307z" glyph-name="onequarter" horiz-adv-x="1173" unicode="¼"/><glyph d="M334 1378q-39 -55 -111 -49l4 31q78 4 117 74h37l-84 -535h-37zM61 0l1121 1434h43l-1121 -1434h-43zM684 0l2 29q4 68 50 118t141 103q55 33 78.5 48t44 41t26.5 58q8 49 -18.5 80t-83.5 31q-117 0 -142 -123l-2 -12h-39l2 12q14 72 62.5 115t120 43t107.5 -39t28 -101 q-8 -59 -49 -99t-119 -83q-76 -41 -122 -91t-44 -93h289l-6 -37h-326z" glyph-name="onehalf" horiz-adv-x="1185" unicode="½"/><glyph d="M326 893q-86 0 -128 47t-30 127h37q-20 -139 131 -139q63 0 108 29.5t55.5 89t-27.5 88t-110 28.5h-22l4 35h23q61 0 103 31t48 76q12 104 -108 104q-135 0 -154 -133h-37q10 80 61.5 124t131.5 44q78 0 115.5 -42t25.5 -102q-8 -43 -39 -73.5t-78 -40.5q49 -12 79 -48 t22 -94q-8 -66 -64.5 -108.5t-146.5 -42.5zM188 0l1121 1434h43l-1121 -1434h-43zM717 135l6 31l305 369h37l-57 -369h61l-6 -31h-62l-20 -135h-37l21 135h-248zM764 166h207l47 307z" glyph-name="threequarters" horiz-adv-x="1275" unicode="¾"/><glyph d="M549 606q-14 -92 -65.5 -161.5t-116 -112.5l-129 -86t-115.5 -109.5t-66 -154.5q-25 -156 63.5 -235t239.5 -79q164 0 279 93.5t141 285.5h54q-23 -197 -150 -313.5t-326 -116.5q-184 0 -282.5 97.5t-71.5 269.5q14 96 66.5 167.5t117 115.5t129 87t114.5 105.5t63 146.5 l18 115h53zM512 1022q0 27 18.5 45t44.5 18q25 0 43.5 -18t18.5 -45q0 -25 -18.5 -44.5t-43.5 -19.5q-27 0 -45 19.5t-18 44.5z" glyph-name="questiondown" horiz-adv-x="1003" unicode="¿"/><glyph d="M-29 0l799 1434h55l344 -1434h-59l-100 432h-738l-239 -432h-62zM301 483h696l-204 875h-7zM623 1819h49l168 -258h-52z" glyph-name="Agrave" horiz-adv-x="1308" unicode="À"/><glyph d="M-29 0l799 1434h55l344 -1434h-59l-100 432h-738l-239 -432h-62zM301 483h696l-204 875h-7zM741 1561l240 258h57l-239 -258h-58z" glyph-name="Aacute" horiz-adv-x="1308" unicode="Á"/><glyph d="M-29 0l799 1434h55l344 -1434h-59l-100 432h-738l-239 -432h-62zM301 483h696l-204 875h-7zM569 1571l256 248h66l178 -248h-53l-158 221l-225 -221h-64z" glyph-name="Acircumflex" horiz-adv-x="1308" unicode="Â"/><glyph d="M-29 0l799 1434h55l344 -1434h-59l-100 432h-738l-239 -432h-62zM301 483h696l-204 875h-7zM532 1673q27 164 166 164q47 0 85 -24.5t59.5 -54t56.5 -54.5t76 -25q59 0 85.5 37t31.5 78h49q-12 -82 -58.5 -122t-107.5 -40q-47 0 -86 24.5t-60.5 54.5t-56.5 54.5t-76 24.5 q-57 0 -84.5 -37t-31.5 -80h-48z" glyph-name="Atilde" horiz-adv-x="1308" unicode="Ã"/><glyph d="M-29 0l799 1434h55l344 -1434h-59l-100 432h-738l-239 -432h-62zM301 483h696l-204 875h-7zM651 1769q0 20 16.5 37t37 17t37 -16.5t16.5 -37.5q0 -23 -16.5 -39t-37 -16t-37 16t-16.5 39zM950 1769.5q0 22.5 16.5 38t39 15.5t38 -16.5t15.5 -37.5q0 -23 -16.5 -39 t-36.5 -16q-23 0 -39.5 16.5t-16.5 39z" glyph-name="Adieresis" horiz-adv-x="1308" unicode="Ä"/><glyph d="M-29 0l799 1434h55l344 -1434h-59l-100 432h-738l-239 -432h-62zM301 483h696l-204 875h-7zM692 1708q0 61 45 106.5t109 45.5q66 0 110.5 -45.5t44.5 -106.5t-45 -106.5t-110 -45.5q-63 0 -108.5 45.5t-45.5 106.5zM737 1708q0 -45 32 -77t77 -32t77.5 32t32.5 77 t-31.5 78t-78.5 33q-45 0 -77 -32t-32 -79z" glyph-name="Aring" horiz-adv-x="1308" unicode="Å"/><glyph d="M-29 0l1215 1434h856l-10 -54h-799l-94 -608h737l-8 -55h-738l-108 -664h819l-6 -53h-877l72 449h-612l-379 -449h-68zM463 502h575l133 841z" glyph-name="AE" horiz-adv-x="1994" unicode="Æ"/><glyph d="M655 -20h-14l-72 -76q25 4 33 4q51 0 87 -32t36 -95q0 -90 -73.5 -138.5t-184.5 -48.5l8 54q90 0 143.5 34.5t53.5 94.5q0 55 -43 76.5t-113 -5.5l-29 33l95 103q-215 20 -340 166.5t-125 416.5q0 172 51 331t144.5 283t237.5 197.5t318 73.5q201 0 327 -98.5t142 -274.5 h-53q-16 152 -126.5 237t-291.5 85q-213 0 -375.5 -121t-242.5 -307.5t-80 -401.5q0 -272 135 -406t354 -134q180 0 310.5 86t195.5 237h58q-74 -182 -220.5 -278t-345.5 -96z" glyph-name="Ccedilla" horiz-adv-x="1310" unicode="Ç"/><glyph d="M43 0l227 1434h856l-10 -54h-799l-94 -608h738l-9 -55h-737l-109 -664h820l-6 -53h-877zM506 1819h49l168 -258h-51z" glyph-name="Egrave" horiz-adv-x="1079" unicode="È"/><glyph d="M43 0l227 1434h856l-10 -54h-799l-94 -608h738l-9 -55h-737l-109 -664h820l-6 -53h-877zM625 1561l239 258h58l-240 -258h-57z" glyph-name="Eacute" horiz-adv-x="1079" unicode="É"/><glyph d="M43 0l227 1434h856l-10 -54h-799l-94 -608h738l-9 -55h-737l-109 -664h820l-6 -53h-877zM451 1571l256 248h65l178 -248h-53l-158 221l-225 -221h-63z" glyph-name="Ecircumflex" horiz-adv-x="1079" unicode="Ê"/><glyph d="M43 0l227 1434h856l-10 -54h-799l-94 -608h738l-9 -55h-737l-109 -664h820l-6 -53h-877zM532 1769q0 20 16.5 37t37 17t37 -16.5t16.5 -37.5q0 -23 -16.5 -39t-37 -16t-37 16t-16.5 39zM831 1769.5q0 22.5 16.5 38t39 15.5t38 -16.5t15.5 -37.5q0 -23 -16.5 -39 t-36.5 -16q-23 0 -39.5 16.5t-16.5 39z" glyph-name="Edieresis" horiz-adv-x="1079" unicode="Ë"/><glyph d="M43 0l227 1434h58l-228 -1434h-57zM123 1819h49l168 -258h-51z" glyph-name="Igrave" horiz-adv-x="311" unicode="Ì"/><glyph d="M43 0l227 1434h58l-228 -1434h-57zM242 1561l239 258h58l-240 -258h-57z" glyph-name="Iacute" horiz-adv-x="311" unicode="Í"/><glyph d="M43 0l227 1434h58l-228 -1434h-57zM68 1571l256 248h65l178 -248h-53l-158 221l-225 -221h-63z" glyph-name="Icircumflex" horiz-adv-x="311" unicode="Î"/><glyph d="M43 0l227 1434h58l-228 -1434h-57zM150 1769q0 20 15 37t37.5 17t38 -16.5t15.5 -37.5q0 -23 -16.5 -39t-37 -16t-36.5 16t-16 39zM449 1769.5q0 22.5 16 38t39 15.5q20 0 36.5 -16.5t16.5 -37.5q0 -23 -16.5 -39t-36.5 -16q-23 0 -39 16.5t-16 39z" glyph-name="Idieresis" horiz-adv-x="311" unicode="Ï"/><glyph d="M72 0l110 694h-135l8 49h135l109 691h395q293 0 434.5 -141.5t141.5 -438.5q0 -375 -211 -614.5t-588 -239.5h-399zM135 53h340q354 0 549 226.5t195 578.5q0 272 -128 397t-393 125h-352l-100 -637h317l-8 -49h-317z" glyph-name="Eth" horiz-adv-x="1329" unicode="Ð"/><glyph d="M43 0l227 1434h82l684 -1366h4l215 1366h58l-228 -1434h-81l-685 1370h-2l-217 -1370h-57zM526 1673q27 164 166 164q47 0 85 -24.5t59.5 -54t56.5 -54.5t76 -25q59 0 85.5 37t30.5 78h50q-12 -82 -58.5 -122t-107.5 -40q-47 0 -86 24.5t-60.5 54.5t-56.5 54.5t-76 24.5 q-57 0 -84.5 -37t-32.5 -80h-47z" glyph-name="Ntilde" horiz-adv-x="1296" unicode="Ñ"/><glyph d="M641 -20q-238 0 -381 145t-143 438q0 233 85 433t258 328t398 128q238 0 382 -146.5t144 -441.5q0 -229 -86 -428.5t-259 -327.5t-398 -128zM168 563q0 -268 130 -400t345 -132q211 0 372 122.5t239.5 310t78.5 400.5q0 270 -130 403.5t-345 133.5q-160 0 -293 -72 t-219 -189.5t-132 -267t-46 -309.5zM688 1819h49l168 -258h-51z" glyph-name="Ograve" horiz-adv-x="1441" unicode="Ò"/><glyph d="M641 -20q-238 0 -381 145t-143 438q0 233 85 433t258 328t398 128q238 0 382 -146.5t144 -441.5q0 -229 -86 -428.5t-259 -327.5t-398 -128zM168 563q0 -268 130 -400t345 -132q211 0 372 122.5t239.5 310t78.5 400.5q0 270 -130 403.5t-345 133.5q-160 0 -293 -72 t-219 -189.5t-132 -267t-46 -309.5zM807 1561l240 258h57l-240 -258h-57z" glyph-name="Oacute" horiz-adv-x="1441" unicode="Ó"/><glyph d="M641 -20q-238 0 -381 145t-143 438q0 233 85 433t258 328t398 128q238 0 382 -146.5t144 -441.5q0 -229 -86 -428.5t-259 -327.5t-398 -128zM168 563q0 -268 130 -400t345 -132q211 0 372 122.5t239.5 310t78.5 400.5q0 270 -130 403.5t-345 133.5q-160 0 -293 -72 t-219 -189.5t-132 -267t-46 -309.5zM633 1571l256 248h65l179 -248h-54l-157 221l-226 -221h-63z" glyph-name="Ocircumflex" horiz-adv-x="1441" unicode="Ô"/><glyph d="M641 -20q-238 0 -381 145t-143 438q0 233 85 433t258 328t398 128q238 0 382 -146.5t144 -441.5q0 -229 -86 -428.5t-259 -327.5t-398 -128zM168 563q0 -268 130 -400t345 -132q211 0 372 122.5t239.5 310t78.5 400.5q0 270 -130 403.5t-345 133.5q-160 0 -293 -72 t-219 -189.5t-132 -267t-46 -309.5zM598 1673q27 164 166 164q47 0 85 -24.5t59.5 -54t56 -54.5t75.5 -25q59 0 86 37t31 78h49q-12 -82 -58 -122t-108 -40q-47 0 -86 24.5t-60.5 54.5t-56 54.5t-75.5 24.5q-57 0 -85 -37t-32 -80h-47z" glyph-name="Otilde" horiz-adv-x="1441" unicode="Õ"/><glyph d="M641 -20q-238 0 -381 145t-143 438q0 233 85 433t258 328t398 128q238 0 382 -146.5t144 -441.5q0 -229 -86 -428.5t-259 -327.5t-398 -128zM168 563q0 -268 130 -400t345 -132q211 0 372 122.5t239.5 310t78.5 400.5q0 270 -130 403.5t-345 133.5q-160 0 -293 -72 t-219 -189.5t-132 -267t-46 -309.5zM715 1769q0 20 15 37t38 17t38 -16.5t15 -37.5q0 -23 -16.5 -39t-36.5 -16t-36.5 16t-16.5 39zM1014 1769.5q0 22.5 16.5 38t38.5 15.5q20 0 36.5 -16.5t16.5 -37.5q0 -23 -16 -39t-37 -16q-23 0 -39 16.5t-16 39z" glyph-name="Odieresis" horiz-adv-x="1441" unicode="Ö"/><glyph d="M94 227l-35 37l285 252l-205 248l41 37l205 -250l283 250l34 -37l-284 -252l205 -248l-41 -37l-205 250z" glyph-name="multiply" horiz-adv-x="768" unicode="×"/><glyph d="M201 -102l112 180q-197 147 -196 485q0 233 85 433t258 328t398 128q166 0 281 -68l88 142h59l-106 -168q205 -145 204 -494q0 -229 -86 -428.5t-259 -327.5t-398 -128q-166 0 -287 69l-96 -151h-57zM168 563q0 -305 174 -440l768 1218q-104 59 -252 60q-160 0 -293 -72 t-219 -189.5t-132 -267t-46 -309.5zM383 94q109 -63 260 -63q211 0 372 122.5t239.5 310t78.5 400.5q0 315 -180 449z" glyph-name="Oslash" horiz-adv-x="1441" unicode="Ø"/><glyph d="M565.5 -20q-243.5 0 -360.5 150.5t-76 410.5l141 893h56l-142 -895q-39 -242 65.5 -374t324 -132t358.5 132t176 374l143 895h56l-142 -893q-41 -262 -198.5 -411.5t-401 -149.5zM621 1819h49l168 -258h-52z" glyph-name="Ugrave" horiz-adv-x="1290" unicode="Ù"/><glyph d="M565.5 -20q-243.5 0 -360.5 150.5t-76 410.5l141 893h56l-142 -895q-39 -242 65.5 -374t324 -132t358.5 132t176 374l143 895h56l-142 -893q-41 -262 -198.5 -411.5t-401 -149.5zM739 1561l240 258h57l-239 -258h-58z" glyph-name="Uacute" horiz-adv-x="1290" unicode="Ú"/><glyph d="M565.5 -20q-243.5 0 -360.5 150.5t-76 410.5l141 893h56l-142 -895q-39 -242 65.5 -374t324 -132t358.5 132t176 374l143 895h56l-142 -893q-41 -262 -198.5 -411.5t-401 -149.5zM565 1571l256 248h66l178 -248h-53l-158 221l-225 -221h-64z" glyph-name="Ucircumflex" horiz-adv-x="1290" unicode="Û"/><glyph d="M565.5 -20q-243.5 0 -360.5 150.5t-76 410.5l141 893h56l-142 -895q-39 -242 65.5 -374t324 -132t358.5 132t176 374l143 895h56l-142 -893q-41 -262 -198.5 -411.5t-401 -149.5zM647 1769q0 20 16.5 37t37 17t37 -16.5t16.5 -37.5q0 -23 -16.5 -39t-37 -16t-37 16 t-16.5 39zM946 1769.5q0 22.5 16.5 38t39 15.5t38 -16.5t15.5 -37.5q0 -23 -16.5 -39t-37.5 -16q-23 0 -39 16.5t-16 39z" glyph-name="Udieresis" horiz-adv-x="1290" unicode="Ü"/><glyph d="M512 0l92 588l-395 846h61l371 -791l619 791h65l-668 -846l-90 -588h-55zM709 1561l239 258h58l-240 -258h-57z" glyph-name="Yacute" horiz-adv-x="1247" unicode="Ý"/><glyph d="M43 0l227 1434h54l-48 -308h467q410 0 410 -352q0 -215 -148.5 -342t-392.5 -127h-465l-47 -305h-57zM156 360h465q223 0 350 111t127 299q0 303 -367 303h-463z" glyph-name="Thorn" horiz-adv-x="1196" unicode="Þ"/><glyph d="M219 1112q53 340 463 340q367 0 367 -293q0 -131 -75 -224t-218 -130q268 -66 268 -332q0 -225 -157.5 -349t-430.5 -124h-170l8 51h158q252 0 395.5 109.5t143.5 308.5q0 160 -100.5 234.5t-303.5 74.5h-178l8 53h178q199 0 308.5 82t109.5 244q0 129 -76.5 186.5 t-246.5 57.5q-354 0 -398 -289l-176 -1112h-53z" glyph-name="germandbls" horiz-adv-x="1116" unicode="ß"/><glyph d="M326 -20q-141 0 -219 63t-78 180q0 135 99 217t275 101l293 34q106 10 146.5 33t50.5 74l8 57q27 160 -43 229.5t-250 69.5q-174 0 -263 -61.5t-109 -183.5l-5 -25h-51l2 25q35 293 436 292q199 0 282 -82.5t52 -267.5l-114 -735h-54l33 215h-6q-45 -78 -180 -156.5 t-305 -78.5zM82 223q0 -195 246 -194q203 0 352 114.5t162 202.5l37 248q-6 -47 -195 -68l-270 -30q-158 -16 -245 -86t-87 -187zM432 1450h49l168 -258h-51z" glyph-name="agrave" horiz-adv-x="1048" unicode="à"/><glyph d="M326 -20q-141 0 -219 63t-78 180q0 135 99 217t275 101l293 34q106 10 146.5 33t50.5 74l8 57q27 160 -43 229.5t-250 69.5q-174 0 -263 -61.5t-109 -183.5l-5 -25h-51l2 25q35 293 436 292q199 0 282 -82.5t52 -267.5l-114 -735h-54l33 215h-6q-45 -78 -180 -156.5 t-305 -78.5zM82 223q0 -195 246 -194q203 0 352 114.5t162 202.5l37 248q-6 -47 -195 -68l-270 -30q-158 -16 -245 -86t-87 -187zM551 1192l240 258h57l-240 -258h-57z" glyph-name="aacute" horiz-adv-x="1048" unicode="á"/><glyph d="M326 -20q-141 0 -219 63t-78 180q0 135 99 217t275 101l293 34q106 10 146.5 33t50.5 74l8 57q27 160 -43 229.5t-250 69.5q-174 0 -263 -61.5t-109 -183.5l-5 -25h-51l2 25q35 293 436 292q199 0 282 -82.5t52 -267.5l-114 -735h-54l33 215h-6q-45 -78 -180 -156.5 t-305 -78.5zM82 223q0 -195 246 -194q203 0 352 114.5t162 202.5l37 248q-6 -47 -195 -68l-270 -30q-158 -16 -245 -86t-87 -187zM377 1202l256 248h65l179 -248h-54l-157 221l-226 -221h-63z" glyph-name="acircumflex" horiz-adv-x="1048" unicode="â"/><glyph d="M326 -20q-141 0 -219 63t-78 180q0 135 99 217t275 101l293 34q106 10 146.5 33t50.5 74l8 57q27 160 -43 229.5t-250 69.5q-174 0 -263 -61.5t-109 -183.5l-5 -25h-51l2 25q35 293 436 292q199 0 282 -82.5t52 -267.5l-114 -735h-54l33 215h-6q-45 -78 -180 -156.5 t-305 -78.5zM82 223q0 -195 246 -194q203 0 352 114.5t162 202.5l37 248q-6 -47 -195 -68l-270 -30q-158 -16 -245 -86t-87 -187zM342 1305q27 164 166 163q47 0 85 -24.5t59.5 -54t56 -54t75.5 -24.5q59 0 86 36.5t31 77.5h49q-12 -82 -58 -121.5t-108 -39.5 q-47 0 -86 24.5t-60.5 54t-56 54t-75.5 24.5q-57 0 -85 -36.5t-32 -79.5h-47z" glyph-name="atilde" horiz-adv-x="1048" unicode="ã"/><glyph d="M326 -20q-141 0 -219 63t-78 180q0 135 99 217t275 101l293 34q106 10 146.5 33t50.5 74l8 57q27 160 -43 229.5t-250 69.5q-174 0 -263 -61.5t-109 -183.5l-5 -25h-51l2 25q35 293 436 292q199 0 282 -82.5t52 -267.5l-114 -735h-54l33 215h-6q-45 -78 -180 -156.5 t-305 -78.5zM82 223q0 -195 246 -194q203 0 352 114.5t162 202.5l37 248q-6 -47 -195 -68l-270 -30q-158 -16 -245 -86t-87 -187zM459 1401q0 20 16.5 36.5t36.5 16.5t36.5 -16.5t16.5 -36.5q0 -23 -16.5 -39t-36.5 -16t-36.5 16t-16.5 39zM758 1400.5q0 22.5 16.5 38 t39 15.5t37.5 -16.5t15 -36.5q0 -23 -16 -39t-37 -16q-23 0 -39 16t-16 38.5z" glyph-name="adieresis" horiz-adv-x="1048" unicode="ä"/><glyph d="M326 -20q-141 0 -219 63t-78 180q0 135 99 217t275 101l293 34q106 10 146.5 33t50.5 74l8 57q27 160 -43 229.5t-250 69.5q-174 0 -263 -61.5t-109 -183.5l-5 -25h-51l2 25q35 293 436 292q199 0 282 -82.5t52 -267.5l-114 -735h-54l33 215h-6q-45 -78 -180 -156.5 t-305 -78.5zM82 223q0 -195 246 -194q203 0 352 114.5t162 202.5l37 248q-6 -47 -195 -68l-270 -30q-158 -16 -245 -86t-87 -187zM502 1339.5q0 61.5 45 106.5t108 45q66 0 111 -45t45 -106.5t-45 -106.5t-111 -45q-63 0 -108 45t-45 106.5zM547 1339q0 -45 31.5 -76.5 t76.5 -31.5t78 31.5t33 76.5t-33 78t-78 33t-76.5 -32t-31.5 -79z" glyph-name="aring" horiz-adv-x="1048" unicode="å"/><glyph d="M340 -20q-152 0 -228.5 68.5t-76.5 187.5q0 150 113.5 241.5t312.5 91.5h418l4 19l26 176q20 141 -54.5 206.5t-246.5 65.5q-330 0 -364 -225l-4 -29l-52 2l5 27q51 274 421 274q184 0 269.5 -67.5t77.5 -214.5q74 131 193.5 206.5t275.5 75.5q178 0 278 -100t100 -274 q0 -129 -26 -195h-858q-6 -49 -6 -100q0 -383 360 -383q283 0 399 231h56q-137 -283 -455 -282q-344 0 -401 307q-74 -135 -217.5 -222t-319.5 -87zM90 240q0 -207 256 -207q203 0 344 118.5t158 221.5l20 135l2 10h-405q-170 0 -272.5 -74.5t-102.5 -203.5zM932 565h809 q49 229 -44 349t-276 120q-199 0 -325.5 -133t-163.5 -336z" glyph-name="ae" horiz-adv-x="1865" unicode="æ"/><glyph d="M330 -352q90 0 143 34.5t53 94.5q0 55 -42 76.5t-113 -5.5l-29 33l92 101q-170 16 -267 130.5t-97 319.5q0 268 160.5 460.5t422.5 192.5q162 0 268.5 -82.5t110.5 -259.5h-53q-4 154 -97.5 223.5t-228.5 69.5q-238 0 -384 -177t-146 -427q0 -205 101.5 -304t269.5 -99 q137 0 250.5 69.5t164.5 231.5h54q-55 -182 -182.5 -265t-284.5 -85l-72 -76q25 4 33 4q51 0 87 -32t36 -95q0 -90 -74 -138.5t-184 -48.5z" glyph-name="ccedilla" horiz-adv-x="1058" unicode="ç"/><glyph d="M481 -18q-201 0 -307 109.5t-106 326.5q0 129 37.5 247.5t107.5 213t179.5 150.5t240.5 56q178 0 278.5 -100t100.5 -274q0 -129 -27 -195h-858q-6 -49 -6 -100q0 -383 360 -383q285 0 400 231h55q-138 -282 -455 -282zM135 565h809q49 229 -44 349t-275 120 q-199 0 -326 -133t-164 -336zM451 1450h49l168 -258h-52z" glyph-name="egrave" horiz-adv-x="1069" unicode="è"/><glyph d="M481 -18q-201 0 -307 109.5t-106 326.5q0 129 37.5 247.5t107.5 213t179.5 150.5t240.5 56q178 0 278.5 -100t100.5 -274q0 -129 -27 -195h-858q-6 -49 -6 -100q0 -383 360 -383q285 0 400 231h55q-138 -282 -455 -282zM135 565h809q49 229 -44 349t-275 120 q-199 0 -326 -133t-164 -336zM569 1192l240 258h57l-239 -258h-58z" glyph-name="eacute" horiz-adv-x="1069" unicode="é"/><glyph d="M481 -18q-201 0 -307 109.5t-106 326.5q0 129 37.5 247.5t107.5 213t179.5 150.5t240.5 56q178 0 278.5 -100t100.5 -274q0 -129 -27 -195h-858q-6 -49 -6 -100q0 -383 360 -383q285 0 400 231h55q-138 -282 -455 -282zM135 565h809q49 229 -44 349t-275 120 q-199 0 -326 -133t-164 -336zM395 1202l256 248h66l178 -248h-53l-158 221l-225 -221h-64z" glyph-name="ecircumflex" horiz-adv-x="1069" unicode="ê"/><glyph d="M481 -18q-201 0 -307 109.5t-106 326.5q0 129 37.5 247.5t107.5 213t179.5 150.5t240.5 56q178 0 278.5 -100t100.5 -274q0 -129 -27 -195h-858q-6 -49 -6 -100q0 -383 360 -383q285 0 400 231h55q-138 -282 -455 -282zM135 565h809q49 229 -44 349t-275 120 q-199 0 -326 -133t-164 -336zM477 1401q0 20 15.5 36.5t38 16.5t38 -16.5t15.5 -36.5q0 -23 -16.5 -39t-37 -16t-37 16t-16.5 39zM776 1400.5q0 22.5 16.5 38t38.5 15.5q20 0 37 -16.5t17 -36.5q0 -23 -16.5 -39t-37.5 -16q-23 0 -39 16t-16 38.5z" glyph-name="edieresis" horiz-adv-x="1069" unicode="ë"/><glyph d="M16 0l168 1065h54l-168 -1065h-54zM35 1450h49l168 -258h-51z" glyph-name="igrave" horiz-adv-x="253" unicode="ì"/><glyph d="M16 0l168 1065h54l-168 -1065h-54zM154 1192l239 258h58l-240 -258h-57z" glyph-name="iacute" horiz-adv-x="253" unicode="í"/><glyph d="M16 0l168 1065h54l-168 -1065h-54zM-20 1202l256 248h65l178 -248h-53l-158 221l-225 -221h-63z" glyph-name="icircumflex" horiz-adv-x="253" unicode="î"/><glyph d="M16 0l168 1065h54l-168 -1065h-54zM63 1401q0 20 15.5 36.5t38 16.5t38 -16.5t15.5 -36.5q0 -23 -16.5 -39t-37 -16t-37 16t-16.5 39zM362 1400.5q0 22.5 16.5 38t39.5 15.5q20 0 36.5 -16.5t16.5 -36.5q0 -23 -16.5 -39t-36.5 -16q-23 0 -39.5 16t-16.5 38.5z" glyph-name="idieresis" horiz-adv-x="253" unicode="ï"/><glyph d="M461 -20q-182 0 -287.5 111.5t-105.5 320.5q0 287 149.5 470t411.5 183q211 0 299 -127q-76 145 -195 336h-172l4 47h140l-74 113h67l72 -113h297l-4 -47h-262q125 -203 176 -336t51 -264q0 -289 -156.5 -491.5t-410.5 -202.5zM121 416q0 -195 92 -290t254 -95 q158 0 275.5 93t174 234.5t56.5 307.5q0 348 -348 348q-244 0 -374 -168t-130 -430z" glyph-name="eth" horiz-adv-x="1144" unicode="ð"/><glyph d="M926 641q29 184 -39 288.5t-246 104.5t-296 -105.5t-146 -279.5l-103 -649h-53l168 1065h53l-31 -199h3q16 29 44.5 60.5t77 70.5t125 63.5t164.5 24.5q80 0 144.5 -21.5t115.5 -69.5t71.5 -138t0.5 -213l-102 -643h-54zM365 1305q27 164 165 163q47 0 85 -24.5t59.5 -54 t56.5 -54t76 -24.5q59 0 86 36.5t31 77.5h49q-12 -82 -58.5 -121.5t-107.5 -39.5q-47 0 -86 24.5t-60.5 54t-56.5 54t-76 24.5q-57 0 -84.5 -36.5t-31.5 -79.5h-47z" glyph-name="ntilde" unicode="ñ"/><glyph d="M489 -20q-184 0 -302.5 112.5t-118.5 331.5q0 266 162.5 463.5t418.5 197.5q184 0 303 -112.5t119 -331.5q0 -266 -163 -463.5t-419 -197.5zM123 426q0 -201 104.5 -300t266.5 -99q227 0 374.5 183t147.5 429q0 201 -104.5 300t-266.5 99q-227 0 -374.5 -183t-147.5 -429 zM477 1450h49l168 -258h-51z" glyph-name="ograve" horiz-adv-x="1138" unicode="ò"/><glyph d="M489 -20q-184 0 -302.5 112.5t-118.5 331.5q0 266 162.5 463.5t418.5 197.5q184 0 303 -112.5t119 -331.5q0 -266 -163 -463.5t-419 -197.5zM123 426q0 -201 104.5 -300t266.5 -99q227 0 374.5 183t147.5 429q0 201 -104.5 300t-266.5 99q-227 0 -374.5 -183t-147.5 -429 zM596 1192l240 258h57l-240 -258h-57z" glyph-name="oacute" horiz-adv-x="1138" unicode="ó"/><glyph d="M489 -20q-184 0 -302.5 112.5t-118.5 331.5q0 266 162.5 463.5t418.5 197.5q184 0 303 -112.5t119 -331.5q0 -266 -163 -463.5t-419 -197.5zM123 426q0 -201 104.5 -300t266.5 -99q227 0 374.5 183t147.5 429q0 201 -104.5 300t-266.5 99q-227 0 -374.5 -183t-147.5 -429 zM422 1202l256 248h65l179 -248h-54l-157 221l-226 -221h-63z" glyph-name="ocircumflex" horiz-adv-x="1138" unicode="ô"/><glyph d="M489 -20q-184 0 -302.5 112.5t-118.5 331.5q0 266 162.5 463.5t418.5 197.5q184 0 303 -112.5t119 -331.5q0 -266 -163 -463.5t-419 -197.5zM123 426q0 -201 104.5 -300t266.5 -99q227 0 374.5 183t147.5 429q0 201 -104.5 300t-266.5 99q-227 0 -374.5 -183t-147.5 -429 zM387 1305q27 164 166 163q47 0 85 -24.5t59.5 -54t56 -54t75.5 -24.5q59 0 86 36.5t31 77.5h49q-12 -82 -58 -121.5t-108 -39.5q-47 0 -85.5 24.5t-60 54t-56.5 54t-76 24.5q-57 0 -85 -36.5t-32 -79.5h-47z" glyph-name="otilde" horiz-adv-x="1138" unicode="õ"/><glyph d="M489 -20q-184 0 -302.5 112.5t-118.5 331.5q0 266 162.5 463.5t418.5 197.5q184 0 303 -112.5t119 -331.5q0 -266 -163 -463.5t-419 -197.5zM123 426q0 -201 104.5 -300t266.5 -99q227 0 374.5 183t147.5 429q0 201 -104.5 300t-266.5 99q-227 0 -374.5 -183t-147.5 -429 zM504 1401q0 20 16.5 36.5t37 16.5t36.5 -16.5t16 -36.5q0 -23 -16 -39t-36.5 -16t-37 16t-16.5 39zM803 1400.5q0 22.5 16.5 38t39 15.5t37.5 -16.5t15 -36.5q0 -23 -16 -39t-37 -16q-23 0 -39 16t-16 38.5z" glyph-name="odieresis" horiz-adv-x="1138" unicode="ö"/><glyph d="M434.5 840q-14.5 0 -27 12t-12.5 27q0 16 11.5 28.5t28 12.5t28.5 -12.5t12 -28.5q0 -14 -13 -26.5t-27.5 -12.5zM131 555l10 49h549l-8 -49h-551zM299 276q0 14 12.5 26.5t26.5 12.5q16 0 28.5 -12t12.5 -26.5t-13.5 -27.5t-27.5 -13t-26.5 12t-12.5 28z" glyph-name="divide" horiz-adv-x="806" unicode="÷"/><glyph d="M133 -102l100 155q-166 119 -165 371q0 266 162.5 463.5t418.5 197.5q123 0 211 -47l92 146h60l-109 -170q168 -115 168 -373q0 -266 -163 -463.5t-419 -197.5q-121 0 -217 49l-84 -131h-55zM123 426q0 -225 137 -330l574 899q-82 43 -189 43q-227 0 -374.5 -183 t-147.5 -429zM299 72q84 -45 195 -45q227 0 374.5 183t147.5 429q0 227 -142 332z" glyph-name="oslash" horiz-adv-x="1138" unicode="ø"/><glyph d="M162 424q-29 -184 38.5 -288.5t246 -104.5t296 105.5t146.5 279.5l102 649h53l-167 -1065h-54l31 199h-2q-16 -29 -45 -61t-77 -70.5t-125 -63t-165 -24.5q-80 0 -144.5 21.5t-115.5 69.5t-71.5 138t0.5 213l102 643h53zM440 1450h49l168 -258h-51z" glyph-name="ugrave" unicode="ù"/><glyph d="M162 424q-29 -184 38.5 -288.5t246 -104.5t296 105.5t146.5 279.5l102 649h53l-167 -1065h-54l31 199h-2q-16 -29 -45 -61t-77 -70.5t-125 -63t-165 -24.5q-80 0 -144.5 21.5t-115.5 69.5t-71.5 138t0.5 213l102 643h53zM559 1192l240 258h57l-240 -258h-57z" glyph-name="uacute" unicode="ú"/><glyph d="M162 424q-29 -184 38.5 -288.5t246 -104.5t296 105.5t146.5 279.5l102 649h53l-167 -1065h-54l31 199h-2q-16 -29 -45 -61t-77 -70.5t-125 -63t-165 -24.5q-80 0 -144.5 21.5t-115.5 69.5t-71.5 138t0.5 213l102 643h53zM387 1202l256 248h66l178 -248h-53l-158 221 l-225 -221h-64z" glyph-name="ucircumflex" unicode="û"/><glyph d="M162 424q-29 -184 38.5 -288.5t246 -104.5t296 105.5t146.5 279.5l102 649h53l-167 -1065h-54l31 199h-2q-16 -29 -45 -61t-77 -70.5t-125 -63t-165 -24.5q-80 0 -144.5 21.5t-115.5 69.5t-71.5 138t0.5 213l102 643h53zM469 1401q0 20 15.5 36.5t38 16.5t37.5 -16.5 t15 -36.5q0 -23 -16 -39t-36.5 -16t-37 16t-16.5 39zM768 1400.5q0 22.5 16.5 38t38.5 15.5q20 0 37 -16.5t17 -36.5q0 -23 -16.5 -39t-37.5 -16q-23 0 -39 16t-16 38.5z" glyph-name="udieresis" unicode="ü"/><glyph d="M33 -332q182 -33 313 207q49 94 37 141l-244 1049h56l237 -1028l559 1028h60l-668 -1219q-145 -262 -358 -231zM545 1192l239 258h58l-240 -258h-57z" glyph-name="yacute" horiz-adv-x="1021" unicode="ý"/><glyph d="M-18 -389l288 1823h54l-101 -631q170 283 475 282q184 0 295 -111.5t111 -332.5q0 -276 -163 -468.5t-409 -192.5q-141 0 -249.5 70.5t-145.5 215.5l-102 -655h-53zM166 414q0 -186 106.5 -286.5t268.5 -100.5q225 0 369.5 188t144.5 426q0 197 -99.5 297t-261.5 100 q-227 0 -377.5 -184t-150.5 -440z" glyph-name="thorn" horiz-adv-x="1171" unicode="þ"/><glyph d="M33 -332q182 -33 313 207q49 94 37 141l-244 1049h56l237 -1028l559 1028h60l-668 -1219q-145 -262 -358 -231zM453 1401q0 20 15 36.5t37.5 16.5t38 -16.5t15.5 -36.5q0 -23 -16.5 -39t-37 -16t-36.5 16t-16 39zM752 1400.5q0 22.5 16 38t39 15.5q20 0 36.5 -16.5 t16.5 -36.5q0 -23 -16.5 -39t-36.5 -16q-23 0 -39 16t-16 38.5z" glyph-name="ydieresis" horiz-adv-x="1021" unicode="ÿ"/><glyph d="M-29 0l799 1434h55l344 -1434h-59l-100 432h-738l-239 -432h-62zM301 483h696l-204 875h-7zM580 1772l6 47h549l-7 -47h-548z" glyph-name="Amacron" horiz-adv-x="1308" unicode="Ā"/><glyph d="M326 -20q-141 0 -219 63t-78 180q0 135 99 217t275 101l293 34q106 10 146.5 33t50.5 74l8 57q27 160 -43 229.5t-250 69.5q-174 0 -263 -61.5t-109 -183.5l-5 -25h-51l2 25q35 293 436 292q199 0 282 -82.5t52 -267.5l-114 -735h-54l33 215h-6q-45 -78 -180 -156.5 t-305 -78.5zM82 223q0 -195 246 -194q203 0 352 114.5t162 202.5l37 248q-6 -47 -195 -68l-270 -30q-158 -16 -245 -86t-87 -187zM389 1403l6 47h549l-6 -47h-549z" glyph-name="amacron" horiz-adv-x="1048" unicode="ā"/><glyph d="M-29 0l799 1434h55l344 -1434h-59l-100 432h-738l-239 -432h-62zM301 483h696l-204 875h-7zM614 1819h45q-23 -178 175 -179q199 0 225 179h47q-14 -92 -79.5 -157t-197.5 -65q-133 0 -181 66t-34 156z" glyph-name="Abreve" horiz-adv-x="1308" unicode="Ă"/><glyph d="M326 -20q-141 0 -219 63t-78 180q0 135 99 217t275 101l293 34q106 10 146.5 33t50.5 74l8 57q27 160 -43 229.5t-250 69.5q-174 0 -263 -61.5t-109 -183.5l-5 -25h-51l2 25q35 293 436 292q199 0 282 -82.5t52 -267.5l-114 -735h-54l33 215h-6q-45 -78 -180 -156.5 t-305 -78.5zM82 223q0 -195 246 -194q203 0 352 114.5t162 202.5l37 248q-6 -47 -195 -68l-270 -30q-158 -16 -245 -86t-87 -187zM424 1450h45q-23 -178 174 -178q199 0 225 178h47q-14 -92 -79.5 -156.5t-196.5 -64.5q-133 0 -181 65.5t-34 155.5z" glyph-name="abreve" horiz-adv-x="1048" unicode="ă"/><glyph d="M-29 0l799 1434h55l344 -1434q-111 0 -185.5 -54.5t-74.5 -144.5q0 -70 48.5 -101.5t132.5 -25.5l-7 -43q-106 -14 -165.5 33t-59.5 133q0 94 69.5 158.5t174.5 77.5l-92 399h-738l-239 -432h-62zM301 483h696l-204 875h-7z" glyph-name="Aogonek" horiz-adv-x="1308" unicode="Ą"/><glyph d="M326 -20q-141 0 -219 63t-78 180q0 135 99 217t275 101l293 34q106 10 146.5 33t50.5 74l8 57q27 160 -43 229.5t-250 69.5q-174 0 -263 -61.5t-109 -183.5l-5 -25h-51l2 25q35 293 436 292q199 0 282 -82.5t52 -267.5l-114 -735q-111 0 -185.5 -54.5t-74.5 -144.5 q0 -70 48 -101.5t132 -25.5l-6 -43q-106 -14 -166 33t-60 133q0 98 76 164t189 74l26 180h-6q-45 -78 -180 -156.5t-305 -78.5zM82 223q0 -195 246 -194q203 0 352 114.5t162 202.5l37 248q-6 -47 -195 -68l-270 -30q-158 -16 -245 -86t-87 -187z" glyph-name="aogonek" horiz-adv-x="1048" unicode="ą"/><glyph d="M655 -20q-244 0 -391 147t-147 440q0 172 51 331t144.5 283t237.5 197.5t318 73.5q201 0 327 -98.5t142 -274.5h-53q-16 152 -126.5 237t-291.5 85q-213 0 -375.5 -121t-242.5 -307.5t-80 -401.5q0 -272 135 -406t354 -134q180 0 310.5 86t195.5 237h58 q-74 -182 -220.5 -278t-345.5 -96zM799 1561l239 258h58l-240 -258h-57z" glyph-name="Cacute" horiz-adv-x="1310" unicode="Ć"/><glyph d="M489 -20q-195 0 -307 115.5t-112 336.5q0 268 160.5 460.5t422.5 192.5q162 0 268.5 -82.5t110.5 -259.5h-53q-4 154 -97.5 223.5t-228.5 69.5q-238 0 -384 -177t-146 -427q0 -205 101.5 -304t269.5 -99q137 0 250.5 69.5t164.5 231.5h54q-55 -184 -184.5 -267 t-289.5 -83zM592 1192l239 258h58l-240 -258h-57z" glyph-name="cacute" horiz-adv-x="1058" unicode="ć"/><glyph d="M655 -20q-244 0 -391 147t-147 440q0 172 51 331t144.5 283t237.5 197.5t318 73.5q201 0 327 -98.5t142 -274.5h-53q-16 152 -126.5 237t-291.5 85q-213 0 -375.5 -121t-242.5 -307.5t-80 -401.5q0 -272 135 -406t354 -134q180 0 310.5 86t195.5 237h58 q-74 -182 -220.5 -278t-345.5 -96zM627 1571l256 248h65l178 -248h-53l-158 221l-225 -221h-63z" glyph-name="Ccircumflex" horiz-adv-x="1310" unicode="Ĉ"/><glyph d="M489 -20q-195 0 -307 115.5t-112 336.5q0 268 160.5 460.5t422.5 192.5q162 0 268.5 -82.5t110.5 -259.5h-53q-4 154 -97.5 223.5t-228.5 69.5q-238 0 -384 -177t-146 -427q0 -205 101.5 -304t269.5 -99q137 0 250.5 69.5t164.5 231.5h54q-55 -184 -184.5 -267 t-289.5 -83zM420 1202l256 248h65l179 -248h-54l-157 221l-226 -221h-63z" glyph-name="ccircumflex" horiz-adv-x="1058" unicode="ĉ"/><glyph d="M655 -20q-244 0 -391 147t-147 440q0 172 51 331t144.5 283t237.5 197.5t318 73.5q201 0 327 -98.5t142 -274.5h-53q-16 152 -126.5 237t-291.5 85q-213 0 -375.5 -121t-242.5 -307.5t-80 -401.5q0 -272 135 -406t354 -134q180 0 310.5 86t195.5 237h58 q-74 -182 -220.5 -278t-345.5 -96zM854 1769q0 20 15.5 37t38 17t38 -16.5t15.5 -37.5q0 -23 -16.5 -39t-37 -16t-37 16t-16.5 39z" glyph-name="Cdotaccent" horiz-adv-x="1310" unicode="Ċ"/><glyph d="M489 -20q-195 0 -307 115.5t-112 336.5q0 268 160.5 460.5t422.5 192.5q162 0 268.5 -82.5t110.5 -259.5h-53q-4 154 -97.5 223.5t-228.5 69.5q-238 0 -384 -177t-146 -427q0 -205 101.5 -304t269.5 -99q137 0 250.5 69.5t164.5 231.5h54q-55 -184 -184.5 -267 t-289.5 -83zM647 1401q0 20 16.5 36.5t37 16.5t37 -16.5t16.5 -36.5q0 -23 -16.5 -39t-37 -16t-37 16t-16.5 39z" glyph-name="cdotaccent" horiz-adv-x="1058" unicode="ċ"/><glyph d="M655 -20q-244 0 -391 147t-147 440q0 172 51 331t144.5 283t237.5 197.5t318 73.5q201 0 327 -98.5t142 -274.5h-53q-16 152 -126.5 237t-291.5 85q-213 0 -375.5 -121t-242.5 -307.5t-80 -401.5q0 -272 135 -406t354 -134q180 0 310.5 86t195.5 237h58 q-74 -182 -220.5 -278t-345.5 -96zM670 1817h53l158 -222l225 222h63l-256 -248h-65z" glyph-name="Ccaron" horiz-adv-x="1310" unicode="Č"/><glyph d="M489 -20q-195 0 -307 115.5t-112 336.5q0 268 160.5 460.5t422.5 192.5q162 0 268.5 -82.5t110.5 -259.5h-53q-4 154 -97.5 223.5t-228.5 69.5q-238 0 -384 -177t-146 -427q0 -205 101.5 -304t269.5 -99q137 0 250.5 69.5t164.5 231.5h54q-55 -184 -184.5 -267 t-289.5 -83zM463 1448h53l158 -221l225 221h64l-256 -248h-66z" glyph-name="ccaron" horiz-adv-x="1058" unicode="č"/><glyph d="M43 0l227 1434h396q293 0 434 -141.5t141 -438.5q0 -375 -211 -614.5t-588 -239.5h-399zM106 53h340q354 0 549 226.5t195 578.5q0 272 -128 397t-392 125h-353zM629 1817h53l158 -222l225 222h63l-256 -248h-65z" glyph-name="Dcaron" horiz-adv-x="1300" unicode="Ď"/><glyph d="M1219 1178l211 256h61l-211 -256h-61zM68 418q0 279 159.5 473t411.5 194q139 0 243.5 -68.5t151.5 -213.5l103 631h53l-227 -1434h-54l41 266q-82 -147 -207 -216.5t-264 -69.5q-182 0 -296.5 112.5t-114.5 325.5zM117 424q0 -197 102.5 -297t265.5 -100q225 0 373 182 t148 430q0 195 -105.5 297t-267.5 102q-154 0 -274.5 -91t-181 -230t-60.5 -293z" glyph-name="dcaron" horiz-adv-x="1200" unicode="ď"/><glyph d="M72 0l110 694h-135l8 49h135l109 691h395q293 0 434.5 -141.5t141.5 -438.5q0 -375 -211 -614.5t-588 -239.5h-399zM135 53h340q354 0 549 226.5t195 578.5q0 272 -128 397t-393 125h-352l-100 -637h317l-8 -49h-317z" glyph-name="Dcroat" horiz-adv-x="1329" unicode="Đ"/><glyph d="M823 1274l6 47h289l19 113h53l-19 -113h160l-6 -47h-160l-202 -1274h-54l41 266q-82 -147 -207 -216.5t-264 -69.5q-182 0 -296.5 112.5t-114.5 325.5q0 279 159.5 473t411.5 194q139 0 243.5 -68.5t151.5 -213.5l76 471h-287zM117 424q0 -197 102.5 -297t265.5 -100 q225 0 373 182t148 430q0 195 -105.5 297t-267.5 102q-154 0 -274.5 -91t-181 -230t-60.5 -293z" glyph-name="dcroat" horiz-adv-x="1257" unicode="đ"/><glyph d="M43 0l227 1434h856l-10 -54h-799l-94 -608h738l-9 -55h-737l-109 -664h820l-6 -53h-877zM463 1772l6 47h549l-6 -47h-549z" glyph-name="Emacron" horiz-adv-x="1079" unicode="Ē"/><glyph d="M481 -18q-201 0 -307 109.5t-106 326.5q0 129 37.5 247.5t107.5 213t179.5 150.5t240.5 56q178 0 278.5 -100t100.5 -274q0 -129 -27 -195h-858q-6 -49 -6 -100q0 -383 360 -383q285 0 400 231h55q-138 -282 -455 -282zM135 565h809q49 229 -44 349t-275 120 q-199 0 -326 -133t-164 -336zM408 1403l6 47h549l-7 -47h-548z" glyph-name="emacron" horiz-adv-x="1069" unicode="ē"/><glyph d="M43 0l227 1434h856l-10 -54h-799l-94 -608h738l-9 -55h-737l-109 -664h820l-6 -53h-877zM680 1769q0 20 16.5 37t37 17t36.5 -16.5t16 -37.5q0 -23 -16 -39t-36.5 -16t-37 16t-16.5 39z" glyph-name="Edotaccent" horiz-adv-x="1079" unicode="Ė"/><glyph d="M481 -18q-201 0 -307 109.5t-106 326.5q0 129 37.5 247.5t107.5 213t179.5 150.5t240.5 56q178 0 278.5 -100t100.5 -274q0 -129 -27 -195h-858q-6 -49 -6 -100q0 -383 360 -383q285 0 400 231h55q-138 -282 -455 -282zM135 565h809q49 229 -44 349t-275 120 q-199 0 -326 -133t-164 -336zM625 1401q0 20 15 36.5t37.5 16.5t38 -16.5t15.5 -36.5q0 -23 -16.5 -39t-37 -16t-36.5 16t-16 39z" glyph-name="edotaccent" horiz-adv-x="1069" unicode="ė"/><glyph d="M43 0l227 1434h856l-10 -54h-799l-94 -608h738l-9 -55h-737l-109 -664h820l-6 -53q-111 0 -186 -54.5t-75 -144.5q0 -70 48.5 -101.5t132.5 -25.5l-6 -43q-106 -14 -166 33t-60 133q0 135 133 203h-698z" glyph-name="Eogonek" horiz-adv-x="1079" unicode="Ę"/><glyph d="M590 -369q-106 -14 -165.5 33t-59.5 133q0 113 102 185q-399 10 -399 436q0 129 37.5 247.5t107.5 213t179.5 150.5t240.5 56q178 0 278.5 -100t100.5 -274q0 -129 -27 -195h-858q-6 -49 -6 -100q0 -383 360 -383q285 0 400 231h55q-113 -229 -338 -272 q-82 -18 -132 -67.5t-50 -123.5q0 -70 48 -101.5t132 -25.5zM135 565h809q49 229 -44 349t-275 120q-199 0 -326 -133t-164 -336z" glyph-name="eogonek" horiz-adv-x="1069" unicode="ę"/><glyph d="M43 0l227 1434h856l-10 -54h-799l-94 -608h738l-9 -55h-737l-109 -664h820l-6 -53h-877zM496 1817h53l158 -222l225 222h63l-256 -248h-65z" glyph-name="Ecaron" horiz-adv-x="1079" unicode="Ě"/><glyph d="M481 -18q-201 0 -307 109.5t-106 326.5q0 129 37.5 247.5t107.5 213t179.5 150.5t240.5 56q178 0 278.5 -100t100.5 -274q0 -129 -27 -195h-858q-6 -49 -6 -100q0 -383 360 -383q285 0 400 231h55q-138 -282 -455 -282zM135 565h809q49 229 -44 349t-275 120 q-199 0 -326 -133t-164 -336zM440 1448h54l157 -221l226 221h63l-256 -248h-66z" glyph-name="ecaron" horiz-adv-x="1069" unicode="ě"/><glyph d="M653 -20q-248 0 -391 149.5t-143 450.5q0 233 85 428.5t260 319.5t408 124q197 0 309.5 -84t141.5 -233h-49q-70 266 -397 266q-223 0 -387 -118t-243 -302t-79 -406q0 -274 130 -409t355 -135q252 0 408 156.5t201 455.5l-428 -2l6 49h479l-8 -67q-45 -311 -218.5 -477 t-439.5 -166zM643 1571l256 248h66l178 -248h-53l-158 221l-225 -221h-64z" glyph-name="Gcircumflex" horiz-adv-x="1400" unicode="Ĝ"/><glyph d="M475 20q-180 0 -292.5 106.5t-112.5 311.5q0 268 157.5 457.5t411.5 189.5q141 0 245.5 -64.5t147.5 -201.5h2l37 246h53l-145 -936l-23 -131q-27 -154 -114.5 -253t-195 -136t-238.5 -37q-193 0 -303.5 82t-90.5 223h47q-14 -117 78 -187.5t273 -70.5q195 0 325.5 91 t165.5 288l23 131l24 158h-4q-168 -267 -471 -267zM123 449q0 -186 101.5 -283.5t254.5 -97.5q227 0 377 172t150 411q0 190 -103.5 288.5t-265.5 98.5q-227 0 -370.5 -172.5t-143.5 -416.5zM436 1202l256 248h66l178 -248h-53l-158 221l-225 -221h-64z" glyph-name="gcircumflex" horiz-adv-x="1167" unicode="ĝ"/><glyph d="M653 -20q-248 0 -391 149.5t-143 450.5q0 233 85 428.5t260 319.5t408 124q197 0 309.5 -84t141.5 -233h-49q-70 266 -397 266q-223 0 -387 -118t-243 -302t-79 -406q0 -274 130 -409t355 -135q252 0 408 156.5t201 455.5l-428 -2l6 49h479l-8 -67q-45 -311 -218.5 -477 t-439.5 -166zM688 1819h45q-23 -178 174 -179q199 0 226 179h47q-14 -92 -80 -157t-197 -65q-133 0 -181 66t-34 156z" glyph-name="Gbreve" horiz-adv-x="1400" unicode="Ğ"/><glyph d="M475 20q-180 0 -292.5 106.5t-112.5 311.5q0 268 157.5 457.5t411.5 189.5q141 0 245.5 -64.5t147.5 -201.5h2l37 246h53l-145 -936l-23 -131q-27 -154 -114.5 -253t-195 -136t-238.5 -37q-193 0 -303.5 82t-90.5 223h47q-14 -117 78 -187.5t273 -70.5q195 0 325.5 91 t165.5 288l23 131l24 158h-4q-168 -267 -471 -267zM123 449q0 -186 101.5 -283.5t254.5 -97.5q227 0 377 172t150 411q0 190 -103.5 288.5t-265.5 98.5q-227 0 -370.5 -172.5t-143.5 -416.5zM481 1450h45q-23 -178 174 -178q199 0 226 178h47q-14 -92 -80 -156.5t-197 -64.5 q-133 0 -181 65.5t-34 155.5z" glyph-name="gbreve" horiz-adv-x="1167" unicode="ğ"/><glyph d="M653 -20q-248 0 -391 149.5t-143 450.5q0 233 85 428.5t260 319.5t408 124q197 0 309.5 -84t141.5 -233h-49q-70 266 -397 266q-223 0 -387 -118t-243 -302t-79 -406q0 -274 130 -409t355 -135q252 0 408 156.5t201 455.5l-428 -2l6 49h479l-8 -67q-45 -311 -218.5 -477 t-439.5 -166zM870 1769q0 20 15.5 37t38 17t38 -16.5t15.5 -37.5q0 -23 -16.5 -39t-37 -16t-37 16t-16.5 39z" glyph-name="Gdotaccent" horiz-adv-x="1400" unicode="Ġ"/><glyph d="M475 20q-180 0 -292.5 106.5t-112.5 311.5q0 268 157.5 457.5t411.5 189.5q141 0 245.5 -64.5t147.5 -201.5h2l37 246h53l-145 -936l-23 -131q-27 -154 -114.5 -253t-195 -136t-238.5 -37q-193 0 -303.5 82t-90.5 223h47q-14 -117 78 -187.5t273 -70.5q195 0 325.5 91 t165.5 288l23 131l24 158h-4q-168 -267 -471 -267zM123 449q0 -186 101.5 -283.5t254.5 -97.5q227 0 377 172t150 411q0 190 -103.5 288.5t-265.5 98.5q-227 0 -370.5 -172.5t-143.5 -416.5zM664 1401q0 20 16 36.5t36.5 16.5t37 -16.5t16.5 -36.5q0 -23 -16.5 -39t-37 -16 t-36.5 16t-16 39z" glyph-name="gdotaccent" horiz-adv-x="1167" unicode="ġ"/><glyph d="M653 -20q-248 0 -391 149.5t-143 450.5q0 233 85 428.5t260 319.5t408 124q197 0 309.5 -84t141.5 -233h-49q-70 266 -397 266q-223 0 -387 -118t-243 -302t-79 -406q0 -274 130 -409t355 -135q252 0 408 156.5t201 455.5l-428 -2l6 49h479l-8 -67q-45 -311 -218.5 -477 t-439.5 -166zM506 -309l6 43q109 6 115 108q-31 0 -52.5 16.5t-21.5 45t18.5 48t47 19.5t47 -24.5t18.5 -65.5q0 -70 -44 -130t-122 -60h-12z" glyph-name="Gcommaaccent" horiz-adv-x="1400" unicode="Ģ"/><glyph d="M475 20q-180 0 -292.5 106.5t-112.5 311.5q0 268 157.5 457.5t411.5 189.5q141 0 245.5 -64.5t147.5 -201.5h2l37 246h53l-145 -936l-23 -131q-27 -154 -114.5 -253t-195 -136t-238.5 -37q-193 0 -303.5 82t-90.5 223h47q-14 -117 78 -187.5t273 -70.5q195 0 325.5 91 t165.5 288l23 131l24 158h-4q-168 -267 -471 -267zM123 449q0 -186 101.5 -283.5t254.5 -97.5q227 0 377 172t150 411q0 190 -103.5 288.5t-265.5 98.5q-227 0 -370.5 -172.5t-143.5 -416.5zM571 1253q0 70 44 130.5t122 60.5h13l-7 -43q-109 -6 -114 -109q31 0 52 -16 t21 -45t-18 -48.5t-47 -19.5t-47.5 24.5t-18.5 65.5z" glyph-name="gcommaaccent" horiz-adv-x="1167" unicode="ģ"/><glyph d="M1004 0l106 668h-903l-107 -668h-57l227 1434h58l-113 -717h903l113 717h57l-227 -1434h-57zM551 1571l256 248h65l179 -248h-54l-157 221l-226 -221h-63z" glyph-name="Hcircumflex" horiz-adv-x="1271" unicode="Ĥ"/><glyph d="M43 0l227 1434h54l-91 -578q29 72 135.5 150.5t278.5 78.5q80 0 144.5 -21.5t115.5 -69.5t71.5 -138t0.5 -213l-102 -643h-54l103 641q29 184 -39 288.5t-246 104.5q-174 0 -291 -99t-147 -265l-107 -670h-53zM68 1571l256 248h65l178 -248h-53l-158 221l-225 -221h-63z " glyph-name="hcircumflex" unicode="ĥ"/><glyph d="M1004 0l106 668h-903l-107 -668h-57l227 1434h58l-64 -406h903l64 406h57l-227 -1434h-57zM215 717h903l41 262h-903z" glyph-name="Hbar" horiz-adv-x="1275" unicode="Ħ"/><glyph d="M98 1274l6 47h148l18 113h54l-19 -113h301l-6 -47h-301l-66 -418q29 72 135.5 150.5t278.5 78.5q80 0 144.5 -21.5t115.5 -69.5t71.5 -138t0.5 -213l-102 -643h-54l103 641q29 184 -39 288.5t-246 104.5q-174 0 -291 -99t-147 -265l-107 -670h-53l203 1274h-148z" glyph-name="hbar" horiz-adv-x="1089" unicode="ħ"/><glyph d="M43 0l227 1434h58l-228 -1434h-57zM39 1673q27 164 166 164q47 0 85 -24.5t59.5 -54t56 -54.5t75.5 -25q59 0 86 37t31 78h49q-12 -82 -58 -122t-108 -40q-47 0 -86 24.5t-60.5 54.5t-56 54.5t-75.5 24.5q-57 0 -85 -37t-32 -80h-47z" glyph-name="Itilde" horiz-adv-x="311" unicode="Ĩ"/><glyph d="M16 0l168 1065h54l-168 -1065h-54zM-49 1305q27 164 166 163q47 0 85 -24.5t59.5 -54t56 -54t75.5 -24.5q59 0 86 36.5t31 77.5h49q-12 -82 -58 -121.5t-108 -39.5q-47 0 -86 24.5t-60.5 54t-56 54t-75.5 24.5q-57 0 -85 -36.5t-32 -79.5h-47z" glyph-name="itilde" horiz-adv-x="253" unicode="ĩ"/><glyph d="M43 0l227 1434h58l-228 -1434h-57zM80 1772l6 47h549l-6 -47h-549z" glyph-name="Imacron" horiz-adv-x="311" unicode="Ī"/><glyph d="M16 0l168 1065h54l-168 -1065h-54zM-8 1403l6 47h549l-6 -47h-549z" glyph-name="imacron" horiz-adv-x="253" unicode="ī"/><glyph d="M14 -369q-106 -14 -165.5 33t-59.5 133q0 98 75 163t185 75l221 1399h58l-228 -1434q-111 0 -185.5 -54.5t-74.5 -144.5q0 -70 48.5 -101.5t131.5 -25.5z" glyph-name="Iogonek" horiz-adv-x="311" unicode="Į"/><glyph d="M262.5 1346q-20.5 0 -37 16t-16.5 39q0 20 16.5 36.5t37 16.5t36.5 -16.5t16 -36.5q0 -23 -16 -39t-36.5 -16zM-242 -203q0 98 76 164t189 74l161 1030h54l-168 -1065q-111 0 -185.5 -54.5t-74.5 -144.5q0 -70 48 -101.5t132 -25.5l-6 -43q-106 -14 -166 33t-60 133z" glyph-name="iogonek" horiz-adv-x="253" unicode="į"/><glyph d="M43 0l227 1434h58l-228 -1434h-57zM297 1769q0 20 15.5 37t38 17t37.5 -16.5t15 -37.5q0 -23 -16 -39t-36.5 -16t-37 16t-16.5 39z" glyph-name="Idotaccent" horiz-adv-x="311" unicode="İ"/><glyph d="M16 0l168 1065h54l-168 -1065h-54z" glyph-name="dotlessi" horiz-adv-x="253" unicode="ı"/><glyph d="M43 0l227 1434h58l-228 -1434h-57zM440 541h56q-39 -238 67.5 -373t325.5 -135q215 0 355 132t179 374l142 895h57l-141 -893q-41 -262 -197 -411.5t-399 -149.5q-246 0 -367 150.5t-78 410.5z" glyph-name="IJ" horiz-adv-x="1605" unicode="Ĳ"/><glyph d="M43 0l168 1065h53l-168 -1065h-53zM92 -369l6 45h39q104 0 151.5 37t63.5 140l193 1212h53l-197 -1233q-29 -207 -243 -207q-10 0 -33 3t-33 3zM240 1401q0 20 15 36.5t37.5 16.5t38 -15.5t15.5 -38t-15.5 -38.5t-37.5 -16q-20 0 -36.5 16t-16.5 39zM573 1401 q0 20 16.5 36.5t37.5 16.5q23 0 38 -15.5t15 -38t-15.5 -38.5t-37.5 -16q-20 0 -37 16t-17 39z" glyph-name="ij" horiz-adv-x="645" unicode="ĳ"/><glyph d="M573 -20q-246 0 -366.5 150.5t-77.5 410.5h55q-39 -238 67.5 -373t326.5 -135q215 0 355 132t179 374l141 895h58l-142 -893q-41 -262 -196.5 -411.5t-399.5 -149.5zM1065 1571l256 248h65l179 -248h-54l-157 221l-226 -221h-63z" glyph-name="Jcircumflex" horiz-adv-x="1294" unicode="Ĵ"/><glyph d="M-131 -375q-10 0 -32.5 3t-33.5 3l7 45h38q104 0 151.5 37t63.5 140l193 1212h53l-196 -1233q-33 -207 -244 -207zM55 1202l256 248h66l178 -248h-53l-158 221l-225 -221h-64z" glyph-name="jcircumflex" horiz-adv-x="325" unicode="ĵ"/><glyph d="M43 0l227 1434h58l-142 -891l967 891h78l-742 -678l562 -756h-72l-530 719l-275 -252l-74 -467h-57zM397 -309l6 43q109 6 115 108q-31 0 -52.5 16.5t-21.5 45t18.5 48t47.5 19.5t47 -24.5t18 -65.5q0 -70 -44 -130t-121 -60h-13z" glyph-name="Kcommaaccent" horiz-adv-x="1189" unicode="Ķ"/><glyph d="M43 0l227 1434h54l-166 -1043l782 674h78l-549 -471l444 -594h-65l-418 559l-285 -244l-49 -315h-53zM299 -309l6 43q109 6 115 108q-31 0 -52.5 16.5t-21.5 45t18.5 48t47 19.5t47 -24.5t18.5 -65.5q0 -70 -44 -130t-122 -60h-12z" glyph-name="kcommaaccent" horiz-adv-x="1032" unicode="ķ"/><glyph d="M43 0l227 1434h58l-222 -1381h795l-6 -53h-852zM276 1561l240 258h57l-239 -258h-58z" glyph-name="Lacute" horiz-adv-x="1054" unicode="Ĺ"/><glyph d="M43 0l227 1434h54l-228 -1434h-53zM240 1561l239 258h58l-240 -258h-57z" glyph-name="lacute" horiz-adv-x="307" unicode="ĺ"/><glyph d="M43 0l227 1434h58l-222 -1381h795l-6 -53h-852zM326 -319l6 43q109 6 114 108q-31 0 -52 16.5t-21 45t18.5 48t47 19.5t47 -24.5t18.5 -65.5q0 -70 -44 -130t-122 -60h-12z" glyph-name="Lcommaaccent" horiz-adv-x="1054" unicode="Ļ"/><glyph d="M43 0l227 1434h54l-228 -1434h-53zM-66 -309l7 43q109 6 114 108q-31 0 -52 16.5t-21 45t18 48t47 19.5t47.5 -24.5t18.5 -65.5q0 -70 -44 -130t-122 -60h-13z" glyph-name="lcommaaccent" horiz-adv-x="307" unicode="ļ"/><glyph d="M43 0l227 1434h58l-222 -1381h795l-6 -53h-852zM473 1178l6 43q109 6 115 108q-31 0 -52.5 16.5t-21.5 45t18.5 48t47 19.5t47 -24.5t18.5 -65.5q0 -70 -44 -130t-122 -60h-12z" glyph-name="Lcaron" horiz-adv-x="1054" unicode="Ľ"/><glyph d="M342 1016l117 418h53l-117 -418h-53zM43 0l227 1434h54l-228 -1434h-53z" glyph-name="lcaron" horiz-adv-x="331" unicode="ľ"/><glyph d="M25 401l14 78l188 168l125 787h58l-117 -729l346 309h2l-8 -76l-352 -311l-93 -574h795l-6 -53h-852l90 569z" glyph-name="Lslash" horiz-adv-x="1136" unicode="Ł"/><glyph d="M-14 385l14 94l195 246l112 709h53l-98 -625l182 231h2l-12 -92l-188 -235l-113 -713h-53l100 629z" glyph-name="lslash" horiz-adv-x="378" unicode="ł"/><glyph d="M43 0l227 1434h82l684 -1366h4l215 1366h58l-228 -1434h-81l-685 1370h-2l-217 -1370h-57zM735 1561l240 258h57l-239 -258h-58z" glyph-name="Nacute" horiz-adv-x="1296" unicode="Ń"/><glyph d="M926 641q29 184 -39 288.5t-246 104.5t-296 -105.5t-146 -279.5l-103 -649h-53l168 1065h53l-31 -199h3q16 29 44.5 60.5t77 70.5t125 63.5t164.5 24.5q80 0 144.5 -21.5t115.5 -69.5t71.5 -138t0.5 -213l-102 -643h-54zM573 1192l240 258h57l-239 -258h-58z" glyph-name="nacute" unicode="ń"/><glyph d="M43 0l227 1434h82l684 -1366h4l215 1366h58l-228 -1434h-81l-685 1370h-2l-217 -1370h-57zM430 -309l6 43q109 6 115 108q-31 0 -52.5 16.5t-21.5 45t18.5 48t47 19.5t47 -24.5t18.5 -65.5q0 -70 -44 -130t-122 -60h-12z" glyph-name="Ncommaaccent" horiz-adv-x="1296" unicode="Ņ"/><glyph d="M926 641q29 184 -39 288.5t-246 104.5t-296 -105.5t-146 -279.5l-103 -649h-53l168 1065h53l-31 -199h3q16 29 44.5 60.5t77 70.5t125 63.5t164.5 24.5q80 0 144.5 -21.5t115.5 -69.5t71.5 -138t0.5 -213l-102 -643h-54zM328 -309l6 43q109 6 115 108q-31 0 -52.5 16.5 t-21.5 45t18.5 48t47 19.5t47 -24.5t18.5 -65.5q0 -70 -44 -130t-122 -60h-12z" glyph-name="ncommaaccent" unicode="ņ"/><glyph d="M43 0l227 1434h82l684 -1366h4l215 1366h58l-228 -1434h-81l-685 1370h-2l-217 -1370h-57zM606 1817h53l158 -222l225 222h64l-256 -248h-66z" glyph-name="Ncaron" horiz-adv-x="1296" unicode="Ň"/><glyph d="M926 641q29 184 -39 288.5t-246 104.5t-296 -105.5t-146 -279.5l-103 -649h-53l168 1065h53l-31 -199h3q16 29 44.5 60.5t77 70.5t125 63.5t164.5 24.5q80 0 144.5 -21.5t115.5 -69.5t71.5 -138t0.5 -213l-102 -643h-54zM444 1448h54l157 -221l226 221h63l-256 -248h-65z " glyph-name="ncaron" unicode="ň"/><glyph d="M494 -451q-131 0 -230 48l8 63q88 -57 230 -57q188 0 322 97t196 280l-701 1392h-2l-217 -1372h-57l227 1434h82l688 -1368h4l216 1368h57l-211 -1323q-41 -262 -202.5 -412t-409.5 -150z" glyph-name="Eng" horiz-adv-x="1300" unicode="Ŋ"/><glyph d="M604 -451q-109 0 -162 50l9 53q68 -49 165 -49q68 0 113 46t59 132l35 219l103 641q29 184 -39 288.5t-246 104.5t-296 -105.5t-146 -279.5l-103 -649h-53l168 1065h53l-31 -199h3q16 29 44.5 60.5t77 70.5t125 63.5t164.5 24.5q80 0 144.5 -21.5t115.5 -69.5t71.5 -138 t0.5 -213l-102 -643l-35 -203q-39 -248 -238 -248z" glyph-name="eng" unicode="ŋ"/><glyph d="M641 -20q-238 0 -381 145t-143 438q0 233 85 433t258 328t398 128q238 0 382 -146.5t144 -441.5q0 -229 -86 -428.5t-259 -327.5t-398 -128zM168 563q0 -268 130 -400t345 -132q211 0 372 122.5t239.5 310t78.5 400.5q0 270 -130 403.5t-345 133.5q-160 0 -293 -72 t-219 -189.5t-132 -267t-46 -309.5zM645 1772l6 47h549l-6 -47h-549z" glyph-name="Omacron" horiz-adv-x="1441" unicode="Ō"/><glyph d="M489 -20q-184 0 -302.5 112.5t-118.5 331.5q0 266 162.5 463.5t418.5 197.5q184 0 303 -112.5t119 -331.5q0 -266 -163 -463.5t-419 -197.5zM123 426q0 -201 104.5 -300t266.5 -99q227 0 374.5 183t147.5 429q0 201 -104.5 300t-266.5 99q-227 0 -374.5 -183t-147.5 -429 zM434 1403l6 47h549l-6 -47h-549z" glyph-name="omacron" horiz-adv-x="1138" unicode="ō"/><glyph d="M641 -20q-238 0 -381 145t-143 438q0 233 85 433t258 328t398 128q238 0 382 -146.5t144 -441.5q0 -229 -86 -428.5t-259 -327.5t-398 -128zM168 563q0 -268 130 -400t345 -132q211 0 372 122.5t239.5 310t78.5 400.5q0 270 -130 403.5t-345 133.5q-160 0 -293 -72 t-219 -189.5t-132 -267t-46 -309.5zM705 1561l239 258h57l-239 -258h-57zM924 1561l239 258h58l-240 -258h-57z" glyph-name="Ohungarumlaut" horiz-adv-x="1441" unicode="Ő"/><glyph d="M489 -20q-184 0 -302.5 112.5t-118.5 331.5q0 266 162.5 463.5t418.5 197.5q184 0 303 -112.5t119 -331.5q0 -266 -163 -463.5t-419 -197.5zM123 426q0 -201 104.5 -300t266.5 -99q227 0 374.5 183t147.5 429q0 201 -104.5 300t-266.5 99q-227 0 -374.5 -183t-147.5 -429 zM494 1192l239 258h58l-240 -258h-57zM713 1192l239 258h58l-240 -258h-57z" glyph-name="ohungarumlaut" horiz-adv-x="1138" unicode="ő"/><glyph d="M641 -20q-238 0 -381 145t-143 438q0 233 85 433t258 328t398 128q201 0 338 -105.5t174 -320.5l66 408h856l-11 -54h-798l-94 -608h737l-8 -55h-738l-108 -664h819l-6 -53h-877l60 377q-96 -182 -257 -289.5t-370 -107.5zM168 563q0 -268 130 -400t345 -132 q262 0 438 177t232 447l14 90q6 59 6 119q0 270 -130 403.5t-345 133.5q-160 0 -293 -72t-219 -189.5t-132 -267t-46 -309.5z" glyph-name="OE" horiz-adv-x="2244" unicode="Œ"/><glyph d="M489 -20q-184 0 -302.5 112.5t-118.5 331.5q0 266 162.5 463.5t418.5 197.5q166 0 278.5 -91t137.5 -267q68 162 198 260t308 98t278.5 -100t100.5 -274q0 -129 -27 -195h-858q-6 -49 -6 -100q0 -383 360 -383q285 0 400 231h55q-137 -283 -455 -282q-373 0 -409 358 q-70 -162 -206.5 -261t-314.5 -99zM123 426q0 -201 104.5 -300t266.5 -99q227 0 374.5 183t147.5 429q0 201 -104.5 300t-266.5 99q-227 0 -374.5 -183t-147.5 -429zM1073 565h809q49 229 -44 349t-275 120q-199 0 -326 -133t-164 -336z" glyph-name="oe" horiz-adv-x="2007" unicode="œ"/><glyph d="M995 0q-33 45 -4 242l23 127q12 84 -4.5 141t-59.5 84t-90 37t-110 10h-547l-103 -641h-57l227 1434h533q389 0 389 -328q0 -156 -85 -274.5t-233 -155.5q123 -25 169.5 -97.5t23.5 -211.5l-20 -125q-29 -197 4 -242h-56zM211 692h467q215 0 339 113t124 295 q0 145 -87 213.5t-268 68.5h-467zM735 1561l240 258h57l-239 -258h-58z" glyph-name="Racute" horiz-adv-x="1251" unicode="Ŕ"/><glyph d="M43 0l168 1065h53l-35 -215q43 80 143.5 151.5t252.5 71.5q55 0 77 -10l-8 -47q-31 6 -71 6q-170 0 -277.5 -99.5t-142.5 -250.5l-107 -672h-53zM373 1192l239 258h58l-240 -258h-57z" glyph-name="racute" horiz-adv-x="673" unicode="ŕ"/><glyph d="M995 0q-33 45 -4 242l23 127q12 84 -4.5 141t-59.5 84t-90 37t-110 10h-547l-103 -641h-57l227 1434h533q389 0 389 -328q0 -156 -85 -274.5t-233 -155.5q123 -25 169.5 -97.5t23.5 -211.5l-20 -125q-29 -197 4 -242h-56zM211 692h467q215 0 339 113t124 295 q0 145 -87 213.5t-268 68.5h-467zM430 -309l6 43q109 6 115 108q-31 0 -52.5 16.5t-21.5 45t18.5 48t47 19.5t47 -24.5t18.5 -65.5q0 -70 -44 -130t-122 -60h-12z" glyph-name="Rcommaaccent" horiz-adv-x="1251" unicode="Ŗ"/><glyph d="M43 0l168 1065h53l-35 -215q43 80 143.5 151.5t252.5 71.5q55 0 77 -10l-8 -47q-31 6 -71 6q-170 0 -277.5 -99.5t-142.5 -250.5l-107 -672h-53zM-68 -309l7 43q109 6 114 108q-31 0 -52 16.5t-21 45t18 48t47 19.5t47.5 -24.5t18.5 -65.5q0 -70 -44 -130t-122 -60h-13z " glyph-name="rcommaaccent" horiz-adv-x="673" unicode="ŗ"/><glyph d="M995 0q-33 45 -4 242l23 127q12 84 -4.5 141t-59.5 84t-90 37t-110 10h-547l-103 -641h-57l227 1434h533q389 0 389 -328q0 -156 -85 -274.5t-233 -155.5q123 -25 169.5 -97.5t23.5 -211.5l-20 -125q-29 -197 4 -242h-56zM211 692h467q215 0 339 113t124 295 q0 145 -87 213.5t-268 68.5h-467zM606 1817h53l158 -222l225 222h64l-256 -248h-66z" glyph-name="Rcaron" horiz-adv-x="1251" unicode="Ř"/><glyph d="M43 0l168 1065h53l-35 -215q43 80 143.5 151.5t252.5 71.5q55 0 77 -10l-8 -47q-31 6 -71 6q-170 0 -277.5 -99.5t-142.5 -250.5l-107 -672h-53zM244 1448h53l158 -221l225 221h63l-256 -248h-65z" glyph-name="rcaron" horiz-adv-x="673" unicode="ř"/><glyph d="M520 -20q-244 0 -360.5 113.5t-89.5 281.5h51q-14 -154 86 -248t317 -94q227 0 357.5 104.5t130.5 276.5q0 133 -77 193.5t-222 92.5l-170 37q-317 74 -318 328q0 176 134.5 281.5t357.5 105.5q217 0 326.5 -95t89.5 -239h-50q6 117 -84 199t-284 82q-203 0 -318.5 -90 t-115.5 -246q0 -113 69.5 -178.5t218.5 -96.5l172 -38q154 -35 241 -109t87 -227q0 -197 -151.5 -315.5t-397.5 -118.5zM672 1561l239 258h58l-240 -258h-57z" glyph-name="Sacute" horiz-adv-x="1189" unicode="Ś"/><glyph d="M406 -20q-168 0 -281 71.5t-100 212.5h51q-4 -86 49 -141t125 -74.5t160 -19.5q162 0 270 70.5t108 203.5q0 92 -53 133t-172 74l-190 49q-111 31 -169.5 85t-58.5 149q0 135 113 213.5t293 78.5q160 0 257 -66.5t91 -207.5h-47q-8 225 -299 225q-162 0 -258 -62.5 t-96 -176.5q0 -76 46 -121t156 -74l177 -45q133 -37 197.5 -90t64.5 -160q0 -156 -125 -241.5t-309 -85.5zM504 1192l239 258h58l-240 -258h-57z" glyph-name="sacute" horiz-adv-x="946" unicode="ś"/><glyph d="M520 -20q-244 0 -360.5 113.5t-89.5 281.5h51q-14 -154 86 -248t317 -94q227 0 357.5 104.5t130.5 276.5q0 133 -77 193.5t-222 92.5l-170 37q-317 74 -318 328q0 176 134.5 281.5t357.5 105.5q217 0 326.5 -95t89.5 -239h-50q6 117 -84 199t-284 82q-203 0 -318.5 -90 t-115.5 -246q0 -113 69.5 -178.5t218.5 -96.5l172 -38q154 -35 241 -109t87 -227q0 -197 -151.5 -315.5t-397.5 -118.5zM502 1571l256 248h65l178 -248h-53l-157 221l-226 -221h-63z" glyph-name="Scircumflex" horiz-adv-x="1189" unicode="Ŝ"/><glyph d="M406 -20q-168 0 -281 71.5t-100 212.5h51q-4 -86 49 -141t125 -74.5t160 -19.5q162 0 270 70.5t108 203.5q0 92 -53 133t-172 74l-190 49q-111 31 -169.5 85t-58.5 149q0 135 113 213.5t293 78.5q160 0 257 -66.5t91 -207.5h-47q-8 225 -299 225q-162 0 -258 -62.5 t-96 -176.5q0 -76 46 -121t156 -74l177 -45q133 -37 197.5 -90t64.5 -160q0 -156 -125 -241.5t-309 -85.5zM332 1202l256 248h65l178 -248h-53l-157 221l-226 -221h-63z" glyph-name="scircumflex" horiz-adv-x="946" unicode="ŝ"/><glyph d="M362 -352q90 0 143.5 34.5t53.5 94.5q0 55 -42 76.5t-114 -5.5l-28 33l92 101q-217 12 -319.5 124.5t-77.5 268.5h51q-14 -154 86 -248t317 -94q227 0 357.5 104.5t130.5 276.5q0 133 -77 193.5t-222 92.5l-170 37q-317 74 -318 328q0 176 134.5 281.5t357.5 105.5 q217 0 326.5 -95t89.5 -239h-50q6 117 -84 199t-284 82q-203 0 -318.5 -90t-115.5 -246q0 -113 69.5 -178.5t218.5 -96.5l172 -38q154 -35 241 -109t87 -227q0 -195 -148.5 -312.5t-392.5 -121.5l-71 -76q25 4 32 4q51 0 87 -32t36 -95q0 -90 -73.5 -138.5t-184.5 -48.5z " glyph-name="Scedilla" horiz-adv-x="1189" unicode="Ş"/><glyph d="M250 -352q90 0 143 34.5t53 94.5q0 55 -43 76.5t-112 -5.5l-29 33l92 101q-150 10 -245 81.5t-84 200.5h51q-4 -86 49 -141t125 -74.5t160 -19.5q162 0 270 70.5t108 203.5q0 92 -53 133t-172 74l-190 49q-111 31 -169.5 85t-58.5 149q0 135 113 213.5t293 78.5 q160 0 257 -66.5t91 -207.5h-47q-8 225 -299 225q-162 0 -258 -62.5t-96 -176.5q0 -76 46 -121t156 -74l177 -45q133 -37 197.5 -90t64.5 -160q0 -154 -122 -238.5t-302 -88.5l-72 -76q25 4 33 4q51 0 87 -32t36 -95q0 -90 -74 -138.5t-184 -48.5z" glyph-name="scedilla" horiz-adv-x="946" unicode="ş"/><glyph d="M520 -20q-244 0 -360.5 113.5t-89.5 281.5h51q-14 -154 86 -248t317 -94q227 0 357.5 104.5t130.5 276.5q0 133 -77 193.5t-222 92.5l-170 37q-317 74 -318 328q0 176 134.5 281.5t357.5 105.5q217 0 326.5 -95t89.5 -239h-50q6 117 -84 199t-284 82q-203 0 -318.5 -90 t-115.5 -246q0 -113 69.5 -178.5t218.5 -96.5l172 -38q154 -35 241 -109t87 -227q0 -197 -151.5 -315.5t-397.5 -118.5zM545 1817h53l158 -222l225 222h63l-256 -248h-65z" glyph-name="Scaron" horiz-adv-x="1189" unicode="Š"/><glyph d="M406 -20q-168 0 -281 71.5t-100 212.5h51q-4 -86 49 -141t125 -74.5t160 -19.5q162 0 270 70.5t108 203.5q0 92 -53 133t-172 74l-190 49q-111 31 -169.5 85t-58.5 149q0 135 113 213.5t293 78.5q160 0 257 -66.5t91 -207.5h-47q-8 225 -299 225q-162 0 -258 -62.5 t-96 -176.5q0 -76 46 -121t156 -74l177 -45q133 -37 197.5 -90t64.5 -160q0 -156 -125 -241.5t-309 -85.5zM375 1448h53l158 -221l225 221h63l-256 -248h-65z" glyph-name="scaron" horiz-adv-x="946" unicode="š"/><glyph d="M463 0l219 1380h-483l10 54h1020l-8 -54h-484l-217 -1380h8l-92 -96q25 4 33 4q51 0 87 -32t36 -95q0 -90 -74 -138.5t-184 -48.5l8 54q90 0 143.5 34.5t53.5 94.5q0 55 -42 76.5t-114 -5.5l-29 33z" glyph-name="Tcommaaccent" horiz-adv-x="1150" unicode="Ţ"/><glyph d="M348 -14q-18 0 -55 4l-82 -86q25 4 33 4q51 0 87 -32t36 -95q0 -90 -74 -138.5t-184 -48.5l8 54q90 0 143 34.5t53 94.5q0 55 -42 76.5t-113 -5.5l-29 33l109 119h14q-109 37 -86 193l129 823h-162l6 49h164l41 258h53l-41 -258h215l-6 -49h-215l-127 -805 q-14 -102 19.5 -138t134.5 -36h53l-8 -45q-25 -6 -74 -6z" glyph-name="tcommaaccent" horiz-adv-x="573" unicode="ţ"/><glyph d="M463 0l219 1380h-483l10 54h1020l-8 -54h-484l-217 -1380h-57zM530 1817h54l157 -222l226 222h63l-256 -248h-65z" glyph-name="Tcaron" horiz-adv-x="1150" unicode="Ť"/><glyph d="M348 -14q-213 0 -182 207l129 823h-162l6 49h164l41 258h53l-41 -258h215l-6 -49h-215l-127 -805q-14 -102 19.5 -138t134.5 -36h53l-8 -45q-25 -6 -74 -6zM432 1186l240 258h57l-240 -258h-57z" glyph-name="tcaron" horiz-adv-x="548" unicode="ť"/><glyph d="M338 1038l10 52h287l47 290h-483l10 54h1020l-8 -54h-484l-45 -290h289l-10 -52h-287l-164 -1038h-57l164 1038h-289z" glyph-name="Tbar" horiz-adv-x="1150" unicode="Ŧ"/><glyph d="M90 754l8 51h164l33 211h-162l6 49h164l41 258h53l-41 -258h215l-6 -49h-215l-35 -211h215l-10 -51h-213l-84 -543q-14 -102 19.5 -138t134.5 -36h53l-8 -45q-25 -6 -74 -6q-213 0 -182 207l88 561h-164z" glyph-name="tbar" horiz-adv-x="573" unicode="ŧ"/><glyph d="M565.5 -20q-243.5 0 -360.5 150.5t-76 410.5l141 893h56l-142 -895q-39 -242 65.5 -374t324 -132t358.5 132t176 374l143 895h56l-142 -893q-41 -262 -198.5 -411.5t-401 -149.5zM530 1673q27 164 166 164q47 0 85 -24.5t59.5 -54t56.5 -54.5t76 -25q59 0 85.5 37 t31.5 78h49q-12 -82 -58.5 -122t-107.5 -40q-47 0 -86 24.5t-60.5 54.5t-56.5 54.5t-76 24.5q-57 0 -84.5 -37t-31.5 -80h-48z" glyph-name="Utilde" horiz-adv-x="1290" unicode="Ũ"/><glyph d="M162 424q-29 -184 38.5 -288.5t246 -104.5t296 105.5t146.5 279.5l102 649h53l-167 -1065h-54l31 199h-2q-16 -29 -45 -61t-77 -70.5t-125 -63t-165 -24.5q-80 0 -144.5 21.5t-115.5 69.5t-71.5 138t0.5 213l102 643h53zM350 1305q27 164 166 163q47 0 85 -24.5t59.5 -54 t56.5 -54t76 -24.5q59 0 85.5 36.5t30.5 77.5h49q-12 -82 -58 -121.5t-107 -39.5q-47 0 -86 24.5t-60.5 54t-56.5 54t-76 24.5q-57 0 -85 -36.5t-32 -79.5h-47z" glyph-name="utilde" unicode="ũ"/><glyph d="M565.5 -20q-243.5 0 -360.5 150.5t-76 410.5l141 893h56l-142 -895q-39 -242 65.5 -374t324 -132t358.5 132t176 374l143 895h56l-142 -893q-41 -262 -198.5 -411.5t-401 -149.5zM578 1772l6 47h549l-7 -47h-548z" glyph-name="Umacron" horiz-adv-x="1290" unicode="Ū"/><glyph d="M162 424q-29 -184 38.5 -288.5t246 -104.5t296 105.5t146.5 279.5l102 649h53l-167 -1065h-54l31 199h-2q-16 -29 -45 -61t-77 -70.5t-125 -63t-165 -24.5q-80 0 -144.5 21.5t-115.5 69.5t-71.5 138t0.5 213l102 643h53zM397 1403l6 47h549l-6 -47h-549z" glyph-name="umacron" unicode="ū"/><glyph d="M565.5 -20q-243.5 0 -360.5 150.5t-76 410.5l141 893h56l-142 -895q-39 -242 65.5 -374t324 -132t358.5 132t176 374l143 895h56l-142 -893q-41 -262 -198.5 -411.5t-401 -149.5zM612 1819h45q-23 -178 174 -179q199 0 226 179h47q-14 -92 -80 -157t-197 -65 q-133 0 -181 66t-34 156z" glyph-name="Ubreve" horiz-adv-x="1290" unicode="Ŭ"/><glyph d="M162 424q-29 -184 38.5 -288.5t246 -104.5t296 105.5t146.5 279.5l102 649h53l-167 -1065h-54l31 199h-2q-16 -29 -45 -61t-77 -70.5t-125 -63t-165 -24.5q-80 0 -144.5 21.5t-115.5 69.5t-71.5 138t0.5 213l102 643h53zM432 1450h45q-23 -178 174 -178q199 0 226 178h47 q-14 -92 -80 -156.5t-197 -64.5q-133 0 -181 65.5t-34 155.5z" glyph-name="ubreve" unicode="ŭ"/><glyph d="M565.5 -20q-243.5 0 -360.5 150.5t-76 410.5l141 893h56l-142 -895q-39 -242 65.5 -374t324 -132t358.5 132t176 374l143 895h56l-142 -893q-41 -262 -198.5 -411.5t-401 -149.5zM690 1708q0 61 45 106.5t109 45.5q66 0 110.5 -45.5t44.5 -106.5t-45 -106.5t-110 -45.5 q-63 0 -108.5 45.5t-45.5 106.5zM735 1708q0 -45 32 -77t77 -32t77.5 32t32.5 77t-32.5 78t-77.5 33t-77 -32t-32 -79z" glyph-name="Uring" horiz-adv-x="1290" unicode="Ů"/><glyph d="M162 424q-29 -184 38.5 -288.5t246 -104.5t296 105.5t146.5 279.5l102 649h53l-167 -1065h-54l31 199h-2q-16 -29 -45 -61t-77 -70.5t-125 -63t-165 -24.5q-80 0 -144.5 21.5t-115.5 69.5t-71.5 138t0.5 213l102 643h53zM510 1339.5q0 61.5 45 106.5t109 45 q66 0 110.5 -45t44.5 -106.5t-45 -106.5t-110 -45q-63 0 -108.5 45t-45.5 106.5zM555 1339q0 -45 31.5 -76.5t77 -31.5t78 31.5t32.5 76.5t-32.5 78t-78 33t-77 -32t-31.5 -79z" glyph-name="uring" unicode="ů"/><glyph d="M565.5 -20q-243.5 0 -360.5 150.5t-76 410.5l141 893h56l-142 -895q-39 -242 65.5 -374t324 -132t358.5 132t176 374l143 895h56l-142 -893q-41 -262 -198.5 -411.5t-401 -149.5zM637 1561l240 258h57l-240 -258h-57zM856 1561l240 258h57l-240 -258h-57z" glyph-name="Uhungarumlaut" horiz-adv-x="1290" unicode="Ű"/><glyph d="M162 424q-29 -184 38.5 -288.5t246 -104.5t296 105.5t146.5 279.5l102 649h53l-167 -1065h-54l31 199h-2q-16 -29 -45 -61t-77 -70.5t-125 -63t-165 -24.5q-80 0 -144.5 21.5t-115.5 69.5t-71.5 138t0.5 213l102 643h53zM457 1192l239 258h58l-240 -258h-57zM676 1192 l239 258h58l-240 -258h-57z" glyph-name="uhungarumlaut" unicode="ű"/><glyph d="M688 -369q-109 -14 -167 33t-58 133q0 111 98 183q-242 2 -357.5 152.5t-74.5 408.5l141 893h56l-142 -895q-39 -242 65.5 -374t324 -132t358.5 132t176 374l143 895h56l-142 -893q-35 -227 -159.5 -371.5t-317.5 -179.5q-80 -18 -127 -67.5t-47 -121.5q0 -70 48 -101.5 t132 -25.5z" glyph-name="Uogonek" horiz-adv-x="1290" unicode="Ų"/><glyph d="M162 424q-29 -184 38.5 -288.5t246 -104.5t296 105.5t146.5 279.5l102 649h53l-167 -1065q-111 0 -186 -54.5t-75 -144.5q0 -70 48.5 -101.5t132.5 -25.5l-6 -43q-106 -14 -166 33t-60 133q0 98 76 164t188 74l25 164h-2q-16 -29 -45 -61t-77 -70.5t-125 -63t-165 -24.5 q-80 0 -144.5 21.5t-115.5 69.5t-71.5 138t0.5 213l102 643h53z" glyph-name="uogonek" unicode="ų"/><glyph d="M375 0l-166 1434h57l154 -1358h4l639 1358h70l210 -1358h5l583 1358h60l-619 -1434h-72l-213 1358l-641 -1358h-71zM868 1571l256 248h66l178 -248h-53l-158 221l-225 -221h-64z" glyph-name="Wcircumflex" horiz-adv-x="1912" unicode="Ŵ"/><glyph d="M293 0l-154 1065h56l139 -997h8l498 997h55l192 -997h9l448 997h58l-484 -1065h-69l-189 995l-498 -995h-69zM643 1202l256 248h66l178 -248h-53l-158 221l-225 -221h-64z" glyph-name="wcircumflex" horiz-adv-x="1572" unicode="ŵ"/><glyph d="M512 0l92 588l-395 846h61l371 -791l619 791h65l-668 -846l-90 -588h-55zM537 1571l256 248h65l178 -248h-53l-158 221l-225 -221h-63z" glyph-name="Ycircumflex" horiz-adv-x="1247" unicode="Ŷ"/><glyph d="M33 -332q182 -33 313 207q49 94 37 141l-244 1049h56l237 -1028l559 1028h60l-668 -1219q-145 -262 -358 -231zM371 1202l256 248h65l178 -248h-53l-158 221l-225 -221h-63z" glyph-name="ycircumflex" horiz-adv-x="1021" unicode="ŷ"/><glyph d="M512 0l92 588l-395 846h61l371 -791l619 791h65l-668 -846l-90 -588h-55zM618 1769q0 20 16.5 37t37 17t37 -16.5t16.5 -37.5q0 -23 -16.5 -39t-37 -16t-37 16t-16.5 39zM918 1769.5q0 22.5 16 38t38.5 15.5t38 -16.5t15.5 -37.5q0 -23 -16.5 -39t-36.5 -16 q-23 0 -39 16.5t-16 39z" glyph-name="Ydieresis" horiz-adv-x="1247" unicode="Ÿ"/><glyph d="M-2 0l6 53l1200 1327h-940l10 54h1010l-12 -54l-1196 -1327h995l-6 -53h-1067zM705 1561l239 258h57l-239 -258h-57z" glyph-name="Zacute" horiz-adv-x="1230" unicode="Ź"/><glyph d="M-2 0l8 49l918 967h-746l8 49h815l-8 -49l-919 -967h766l-6 -49h-836zM526 1192l240 258h57l-239 -258h-58z" glyph-name="zacute" horiz-adv-x="999" unicode="ź"/><glyph d="M-2 0l6 53l1200 1327h-940l10 54h1010l-12 -54l-1196 -1327h995l-6 -53h-1067zM760 1769q0 20 15.5 37t38 17t37.5 -16.5t15 -37.5q0 -23 -16 -39t-36.5 -16t-37 16t-16.5 39z" glyph-name="Zdotaccent" horiz-adv-x="1230" unicode="Ż"/><glyph d="M-2 0l8 49l918 967h-746l8 49h815l-8 -49l-919 -967h766l-6 -49h-836zM582 1401q0 20 16 36.5t36.5 16.5t37 -16.5t16.5 -36.5q0 -23 -16.5 -39t-37 -16t-36.5 16t-16 39z" glyph-name="zdotaccent" horiz-adv-x="999" unicode="ż"/><glyph d="M-2 0l6 53l1200 1327h-940l10 54h1010l-12 -54l-1196 -1327h995l-6 -53h-1067zM575 1817h54l157 -222l226 222h63l-256 -248h-65z" glyph-name="Zcaron" horiz-adv-x="1230" unicode="Ž"/><glyph d="M-2 0l8 49l918 967h-746l8 49h815l-8 -49l-919 -967h766l-6 -49h-836zM397 1448h54l157 -221l226 221h63l-256 -248h-66z" glyph-name="zcaron" horiz-adv-x="999" unicode="ž"/><glyph d="M569 -20q-274 0 -392 165.5t-66 481.5l10 63h1145q14 84 14 180q0 270 -127 400.5t-352 130.5q-330 0 -486 -266h-57q74 152 216 234.5t335 82.5q248 0 386 -142.5t138 -432.5q0 -170 -48 -327t-138 -286t-241 -206.5t-337 -77.5zM162 641q-51 -303 54.5 -456.5 t356.5 -153.5q276 0 450.5 173t231.5 437h-1093z" glyph-name="uni018F" horiz-adv-x="1390" unicode="Ə"/><glyph d="M-82 -338q209 0 246 234l149 938h-178l6 51h181l43 268q14 96 45.5 159.5t79 92.5t89.5 39t97 10l-6 -51q-104 0 -167 -48t-83 -186l-45 -284h211l-6 -51h-213l-146 -924q-47 -299 -311 -299z" glyph-name="florin" horiz-adv-x="581" unicode="ƒ"/><glyph d="M641 -20q-238 0 -381 145t-143 438q0 233 85 433t258 328t398 128h537l26 162h54l-37 -213h-330q276 -129 276 -537q0 -229 -86 -428.5t-259 -327.5t-398 -128zM168 563q0 -268 130 -400t345 -132q211 0 372 122.5t239.5 310t78.5 400.5q0 270 -130 403.5t-345 133.5 q-160 0 -293 -72t-219 -189.5t-132 -267t-46 -309.5z" glyph-name="Ohorn" horiz-adv-x="1441" unicode="Ơ"/><glyph d="M489 -20q-184 0 -302.5 112.5t-118.5 331.5q0 266 162.5 463.5t418.5 197.5h348l25 160h51l-31 -205h-186q215 -106 215 -399q0 -266 -163 -463.5t-419 -197.5zM123 426q0 -201 104.5 -300t266.5 -99q227 0 374.5 183t147.5 429q0 201 -104.5 300t-266.5 99 q-227 0 -374.5 -183t-147.5 -429z" glyph-name="ohorn" horiz-adv-x="1138" unicode="ơ"/><glyph d="M565.5 -20q-243.5 0 -360.5 150.5t-76 410.5l141 893h56l-142 -895q-39 -242 65.5 -374t324 -132t358.5 132t176 374l143 895h170l27 180h53l-26 -180l-9 -56h-168l-133 -837q-41 -262 -198.5 -411.5t-401 -149.5z" glyph-name="Uhorn" horiz-adv-x="1290" unicode="Ư"/><glyph d="M162 424q-29 -184 38.5 -288.5t246 -104.5t296 105.5t146.5 279.5l102 649h170l27 180h53l-27 -180l-8 -55h-170l-159 -1010h-54l31 199h-2q-16 -29 -45 -61t-77 -70.5t-125 -63t-165 -24.5q-80 0 -144.5 21.5t-115.5 69.5t-71.5 138t0.5 213l102 643h53z" glyph-name="uhorn" unicode="ư"/><glyph d="M-29 0l799 1434h55l344 -1434h-59l-100 432h-738l-239 -432h-62zM301 483h696l-204 875h-7zM612 1817h54l157 -222l226 222h63l-256 -248h-65z" glyph-name="uni01CD" horiz-adv-x="1308" unicode="Ǎ"/><glyph d="M326 -20q-141 0 -219 63t-78 180q0 135 99 217t275 101l293 34q106 10 146.5 33t50.5 74l8 57q27 160 -43 229.5t-250 69.5q-174 0 -263 -61.5t-109 -183.5l-5 -25h-51l2 25q35 293 436 292q199 0 282 -82.5t52 -267.5l-114 -735h-54l33 215h-6q-45 -78 -180 -156.5 t-305 -78.5zM82 223q0 -195 246 -194q203 0 352 114.5t162 202.5l37 248q-6 -47 -195 -68l-270 -30q-158 -16 -245 -86t-87 -187zM422 1448h53l158 -221l225 221h64l-256 -248h-66z" glyph-name="uni01CE" horiz-adv-x="1048" unicode="ǎ"/><glyph d="M43 0l227 1434h58l-228 -1434h-57zM113 1817h53l158 -222l225 222h63l-256 -248h-65z" glyph-name="uni01CF" horiz-adv-x="311" unicode="Ǐ"/><glyph d="M16 0l168 1065h54l-168 -1065h-54zM25 1448h53l158 -221l225 221h63l-256 -248h-65z" glyph-name="uni01D0" horiz-adv-x="253" unicode="ǐ"/><glyph d="M641 -20q-238 0 -381 145t-143 438q0 233 85 433t258 328t398 128q238 0 382 -146.5t144 -441.5q0 -229 -86 -428.5t-259 -327.5t-398 -128zM168 563q0 -268 130 -400t345 -132q211 0 372 122.5t239.5 310t78.5 400.5q0 270 -130 403.5t-345 133.5q-160 0 -293 -72 t-219 -189.5t-132 -267t-46 -309.5zM678 1817h53l158 -222l225 222h64l-256 -248h-66z" glyph-name="uni01D1" horiz-adv-x="1441" unicode="Ǒ"/><glyph d="M489 -20q-184 0 -302.5 112.5t-118.5 331.5q0 266 162.5 463.5t418.5 197.5q184 0 303 -112.5t119 -331.5q0 -266 -163 -463.5t-419 -197.5zM123 426q0 -201 104.5 -300t266.5 -99q227 0 374.5 183t147.5 429q0 201 -104.5 300t-266.5 99q-227 0 -374.5 -183t-147.5 -429 zM467 1448h53l158 -221l225 221h64l-256 -248h-66z" glyph-name="uni01D2" horiz-adv-x="1138" unicode="ǒ"/><glyph d="M565.5 -20q-243.5 0 -360.5 150.5t-76 410.5l141 893h56l-142 -895q-39 -242 65.5 -374t324 -132t358.5 132t176 374l143 895h56l-142 -893q-41 -262 -198.5 -411.5t-401 -149.5zM610 1817h54l157 -222l226 222h63l-256 -248h-66z" glyph-name="uni01D3" horiz-adv-x="1290" unicode="Ǔ"/><glyph d="M162 424q-29 -184 38.5 -288.5t246 -104.5t296 105.5t146.5 279.5l102 649h53l-167 -1065h-54l31 199h-2q-16 -29 -45 -61t-77 -70.5t-125 -63t-165 -24.5q-80 0 -144.5 21.5t-115.5 69.5t-71.5 138t0.5 213l102 643h53zM430 1448h53l158 -221l225 221h64l-256 -248h-66z " glyph-name="uni01D4" unicode="ǔ"/><glyph d="M565.5 -20q-243.5 0 -360.5 150.5t-76 410.5l141 893h56l-142 -895q-39 -242 65.5 -374t324 -132t358.5 132t176 374l143 895h56l-142 -893q-41 -262 -198.5 -411.5t-401 -149.5zM629 2099l6 47h549l-6 -47h-549zM647 1769q0 20 16.5 37t37 17t37 -16.5t16.5 -37.5 q0 -23 -16.5 -39t-37 -16t-37 16t-16.5 39zM946 1769.5q0 22.5 16.5 38t39 15.5t38 -16.5t15.5 -37.5q0 -23 -16.5 -39t-37.5 -16q-23 0 -39 16.5t-16 39z" glyph-name="uni01D5" horiz-adv-x="1290" unicode="Ǖ"/><glyph d="M162 424q-29 -184 38.5 -288.5t246 -104.5t296 105.5t146.5 279.5l102 649h53l-167 -1065h-54l31 199h-2q-16 -29 -45 -61t-77 -70.5t-125 -63t-165 -24.5q-80 0 -144.5 21.5t-115.5 69.5t-71.5 138t0.5 213l102 643h53zM449 1731l6 47h549l-7 -47h-548zM467 1401 q0 20 16.5 36.5t37 16.5t36.5 -16.5t16 -36.5q0 -23 -16 -39t-36.5 -16t-37 16t-16.5 39zM766 1400.5q0 22.5 16.5 38t39 15.5t37.5 -16.5t15 -36.5q0 -23 -16 -39t-37 -16q-23 0 -39 16t-16 38.5z" glyph-name="uni01D6" unicode="ǖ"/><glyph d="M565.5 -20q-243.5 0 -360.5 150.5t-76 410.5l141 893h56l-142 -895q-39 -242 65.5 -374t324 -132t358.5 132t176 374l143 895h56l-142 -893q-41 -262 -198.5 -411.5t-401 -149.5zM647 1769q0 20 16.5 37t37 17t37 -16.5t16.5 -37.5q0 -23 -16.5 -39t-37 -16t-37 16 t-16.5 39zM825 1888l240 258h57l-239 -258h-58zM946 1769.5q0 22.5 16.5 38t39 15.5t38 -16.5t15.5 -37.5q0 -23 -16.5 -39t-37.5 -16q-23 0 -39 16.5t-16 39z" glyph-name="uni01D7" horiz-adv-x="1290" unicode="Ǘ"/><glyph d="M162 424q-29 -184 38.5 -288.5t246 -104.5t296 105.5t146.5 279.5l102 649h53l-167 -1065h-54l31 199h-2q-16 -29 -45 -61t-77 -70.5t-125 -63t-165 -24.5q-80 0 -144.5 21.5t-115.5 69.5t-71.5 138t0.5 213l102 643h53zM467 1401q0 20 16.5 36.5t37 16.5t36.5 -16.5 t16 -36.5q0 -23 -16 -39t-36.5 -16t-37 16t-16.5 39zM645 1520l240 258h57l-240 -258h-57zM766 1400.5q0 22.5 16.5 38t39 15.5t37.5 -16.5t15 -36.5q0 -23 -16 -39t-37 -16q-23 0 -39 16t-16 38.5z" glyph-name="uni01D8" unicode="ǘ"/><glyph d="M565.5 -20q-243.5 0 -360.5 150.5t-76 410.5l141 893h56l-142 -895q-39 -242 65.5 -374t324 -132t358.5 132t176 374l143 895h56l-142 -893q-41 -262 -198.5 -411.5t-401 -149.5zM647 1769q0 20 16.5 37t37 17t37 -16.5t16.5 -37.5q0 -23 -16.5 -39t-37 -16t-37 16 t-16.5 39zM657 2144h54l157 -221l226 221h63l-256 -248h-65zM946 1769.5q0 22.5 16.5 38t39 15.5t38 -16.5t15.5 -37.5q0 -23 -16.5 -39t-37.5 -16q-23 0 -39 16.5t-16 39z" glyph-name="uni01D9" horiz-adv-x="1290" unicode="Ǚ"/><glyph d="M162 424q-29 -184 38.5 -288.5t246 -104.5t296 105.5t146.5 279.5l102 649h53l-167 -1065h-54l31 199h-2q-16 -29 -45 -61t-77 -70.5t-125 -63t-165 -24.5q-80 0 -144.5 21.5t-115.5 69.5t-71.5 138t0.5 213l102 643h53zM467 1401q0 20 16.5 36.5t37 16.5t36.5 -16.5 t16 -36.5q0 -23 -16 -39t-36.5 -16t-37 16t-16.5 39zM477 1776h53l158 -222l225 222h64l-256 -248h-66zM766 1400.5q0 22.5 16.5 38t39 15.5t37.5 -16.5t15 -36.5q0 -23 -16 -39t-37 -16q-23 0 -39 16t-16 38.5z" glyph-name="uni01DA" unicode="ǚ"/><glyph d="M565.5 -20q-243.5 0 -360.5 150.5t-76 410.5l141 893h56l-142 -895q-39 -242 65.5 -374t324 -132t358.5 132t176 374l143 895h56l-142 -893q-41 -262 -198.5 -411.5t-401 -149.5zM647 1769q0 20 16.5 37t37 17t37 -16.5t16.5 -37.5q0 -23 -16.5 -39t-37 -16t-37 16 t-16.5 39zM672 2146h49l168 -258h-51zM946 1769.5q0 22.5 16.5 38t39 15.5t38 -16.5t15.5 -37.5q0 -23 -16.5 -39t-37.5 -16q-23 0 -39 16.5t-16 39z" glyph-name="uni01DB" horiz-adv-x="1290" unicode="Ǜ"/><glyph d="M162 424q-29 -184 38.5 -288.5t246 -104.5t296 105.5t146.5 279.5l102 649h53l-167 -1065h-54l31 199h-2q-16 -29 -45 -61t-77 -70.5t-125 -63t-165 -24.5q-80 0 -144.5 21.5t-115.5 69.5t-71.5 138t0.5 213l102 643h53zM467 1401q0 20 16.5 36.5t37 16.5t36.5 -16.5 t16 -36.5q0 -23 -16 -39t-36.5 -16t-37 16t-16.5 39zM492 1778h49l168 -258h-52zM766 1400.5q0 22.5 16.5 38t39 15.5t37.5 -16.5t15 -36.5q0 -23 -16 -39t-37 -16q-23 0 -39 16t-16 38.5z" glyph-name="uni01DC" unicode="ǜ"/><glyph d="M653 -20q-248 0 -391 149.5t-143 450.5q0 233 85 428.5t260 319.5t408 124q197 0 309.5 -84t141.5 -233h-49q-70 266 -397 266q-223 0 -387 -118t-243 -302t-79 -406q0 -274 130 -409t355 -135q252 0 408 156.5t201 455.5l-428 -2l6 49h479l-8 -67q-45 -311 -218.5 -477 t-439.5 -166zM682 1817h53l158 -222l225 222h64l-256 -248h-66z" glyph-name="Gcaron" horiz-adv-x="1400" unicode="Ǧ"/><glyph d="M475 20q-180 0 -292.5 106.5t-112.5 311.5q0 268 157.5 457.5t411.5 189.5q141 0 245.5 -64.5t147.5 -201.5h2l37 246h53l-145 -936l-23 -131q-27 -154 -114.5 -253t-195 -136t-238.5 -37q-193 0 -303.5 82t-90.5 223h47q-14 -117 78 -187.5t273 -70.5q195 0 325.5 91 t165.5 288l23 131l24 158h-4q-168 -267 -471 -267zM123 449q0 -186 101.5 -283.5t254.5 -97.5q227 0 377 172t150 411q0 190 -103.5 288.5t-265.5 98.5q-227 0 -370.5 -172.5t-143.5 -416.5zM475 1448h53l158 -221l225 221h64l-256 -248h-66z" glyph-name="gcaron" horiz-adv-x="1167" unicode="ǧ"/><glyph d="M43 0l227 1434h58l-142 -891l967 891h78l-742 -678l562 -756h-72l-530 719l-275 -252l-74 -467h-57zM571 1817h54l157 -222l226 222h63l-256 -248h-65z" glyph-name="uni01E8" horiz-adv-x="1189" unicode="Ǩ"/><glyph d="M43 0l227 1434h54l-166 -1043l782 674h78l-549 -471l444 -594h-65l-418 559l-285 -244l-49 -315h-53zM100 1817h54l157 -222l226 222h63l-256 -248h-65z" glyph-name="uni01E9" horiz-adv-x="1032" unicode="ǩ"/><glyph d="M764 -369q-106 -14 -164.5 33t-58.5 133q0 111 98 183q-238 0 -380 145t-142 438q0 233 85 433t258 328t398 128q238 0 382 -146.5t144 -441.5q0 -322 -167.5 -572.5t-452.5 -301.5q-80 -18 -127 -67.5t-47 -121.5q0 -70 48 -101.5t132 -25.5zM168 563q0 -268 130 -400 t345 -132q211 0 372 122.5t239.5 310t78.5 400.5q0 270 -130 403.5t-345 133.5q-160 0 -293 -72t-219 -189.5t-132 -267t-46 -309.5z" glyph-name="uni01EA" horiz-adv-x="1441" unicode="Ǫ"/><glyph d="M600 -369q-106 -14 -165.5 33t-59.5 133q0 113 100 183q-180 4 -293.5 117.5t-113.5 326.5q0 266 162.5 463.5t418.5 197.5q184 0 303 -112.5t119 -331.5q0 -231 -127 -416.5t-336 -232.5q-82 -18 -132 -67.5t-50 -123.5q0 -70 48 -101.5t132 -25.5zM123 426 q0 -201 104.5 -300t266.5 -99q227 0 374.5 183t147.5 429q0 201 -104.5 300t-266.5 99q-227 0 -374.5 -183t-147.5 -429z" glyph-name="uni01EB" horiz-adv-x="1138" unicode="ǫ"/><glyph d="M520 -20q-244 0 -360.5 113.5t-89.5 281.5h51q-14 -154 86 -248t317 -94q227 0 357.5 104.5t130.5 276.5q0 133 -77 193.5t-222 92.5l-170 37q-317 74 -318 328q0 176 134.5 281.5t357.5 105.5q217 0 326.5 -95t89.5 -239h-50q6 117 -84 199t-284 82q-203 0 -318.5 -90 t-115.5 -246q0 -113 69.5 -178.5t218.5 -96.5l172 -38q154 -35 241 -109t87 -227q0 -197 -151.5 -315.5t-397.5 -118.5zM381 -309l6 43q109 6 115 108q-31 0 -52.5 16.5t-21.5 45t18.5 48t47 19.5t47 -24.5t18.5 -65.5q0 -70 -44 -130t-122 -60h-12z" glyph-name="Scommaaccent" horiz-adv-x="1189" unicode="Ș"/><glyph d="M406 -20q-168 0 -281 71.5t-100 212.5h51q-4 -86 49 -141t125 -74.5t160 -19.5q162 0 270 70.5t108 203.5q0 92 -53 133t-172 74l-190 49q-111 31 -169.5 85t-58.5 149q0 135 113 213.5t293 78.5q160 0 257 -66.5t91 -207.5h-47q-8 225 -299 225q-162 0 -258 -62.5 t-96 -176.5q0 -76 46 -121t156 -74l177 -45q133 -37 197.5 -90t64.5 -160q0 -156 -125 -241.5t-309 -85.5zM287 -332l6 43q109 6 115 109q-31 0 -52.5 16.5t-21.5 45t18.5 48t47 19.5t47 -24.5t18.5 -65.5q0 -70 -44 -130.5t-122 -60.5h-12z" glyph-name="scommaaccent" horiz-adv-x="946" unicode="ș"/><glyph d="M463 0l219 1380h-483l10 54h1020l-8 -54h-484l-217 -1380h-57zM360 -309l7 43q109 6 114 108q-31 0 -52 16.5t-21 45t18 48t47 19.5t47.5 -24.5t18.5 -65.5q0 -70 -44 -130t-122 -60h-13z" glyph-name="uni021A" horiz-adv-x="1150" unicode="Ț"/><glyph d="M348 -14q-213 0 -182 207l129 823h-162l6 49h164l41 258h53l-41 -258h215l-6 -49h-215l-127 -805q-14 -102 19.5 -138t134.5 -36h53l-8 -45q-25 -6 -74 -6zM135 -309l6 43q109 6 115 108q-31 0 -52.5 16.5t-21.5 45t18.5 48t47 19.5t47 -24.5t18.5 -65.5q0 -70 -44 -130 t-122 -60h-12z" glyph-name="uni021B" horiz-adv-x="573" unicode="ț"/><glyph d="M-131 -375q-10 0 -32.5 3t-33.5 3l7 45h38q104 0 151.5 37t63.5 140l193 1212h53l-196 -1233q-33 -207 -244 -207z" glyph-name="uni0237" horiz-adv-x="325" unicode="ȷ"/><glyph d="M436 -18q-176 0 -277.5 100t-101.5 274q0 127 27 195h860q6 49 6 100q0 383 -368 383q-279 0 -392 -231h-57q137 283 457 282q199 0 305 -109.5t106 -326.5q0 -129 -37.5 -247.5t-107.5 -213t-179.5 -150.5t-240.5 -56zM125 502q-49 -231 43 -350t276 -119q199 0 327 133 t165 336h-811z" glyph-name="uni0259" horiz-adv-x="1069" unicode="ə"/><glyph d="M104 1202l256 248h66l178 -248h-53l-158 221l-225 -221h-64z" glyph-name="circumflex" horiz-adv-x="499" unicode="ˆ"/><glyph d="M643 1448l-256 -248h-65l-179 248h54l157 -221l226 221h63z" glyph-name="caron" horiz-adv-x="499" unicode="ˇ"/><glyph d="M360 1229q-133 0 -181 65.5t-34 155.5h45q-23 -178 175 -178q199 0 225 178h47q-14 -92 -80 -156.5t-197 -64.5z" glyph-name="breve" horiz-adv-x="491" unicode="˘"/><glyph d="M192.5 1346q-20.5 0 -37 16t-16.5 39q0 20 16.5 36.5t37 16.5t37 -16.5t16.5 -36.5q0 -23 -16.5 -39t-37 -16z" glyph-name="dotaccent" horiz-adv-x="108" unicode="˙"/><glyph d="M285 1188q-63 0 -108.5 45t-45.5 106.5t45 106.5t109 45q66 0 110.5 -45t44.5 -106.5t-44.5 -106.5t-110.5 -45zM176 1339q0 -45 32 -76.5t77 -31.5t77.5 31.5t32.5 76.5t-31.5 78t-78.5 33q-45 0 -77 -32t-32 -79z" glyph-name="ring" horiz-adv-x="313" unicode="˚"/><glyph d="M111 -369q-106 -14 -166 33t-60 133q0 104 86 172t207 68l19 -37q-111 0 -185.5 -54.5t-74.5 -144.5q0 -70 48 -101.5t132 -25.5z" glyph-name="ogonek" horiz-adv-x="280" unicode="˛"/><glyph d="M586 1264q-47 0 -86 24.5t-60.5 54t-56.5 54t-76 24.5q-57 0 -84.5 -36.5t-32.5 -79.5h-47q27 164 166 163q47 0 85 -24.5t59.5 -54t56.5 -54t76 -24.5q59 0 85.5 36.5t30.5 77.5h50q-12 -82 -58.5 -121.5t-107.5 -39.5z" glyph-name="tilde" horiz-adv-x="630" unicode="˜"/><glyph d="M324 1192l239 258h58l-240 -258h-57zM104 1192l240 258h57l-239 -258h-58z" glyph-name="hungarumlaut" horiz-adv-x="479" unicode="˝"/><glyph d="M307 1192l-166 258h49l168 -258h-51z" glyph-name="gravecomb" horiz-adv-x="0" unicode="̀"/><glyph d="M104 1192l240 258h57l-239 -258h-58z" glyph-name="acutecomb" horiz-adv-x="0" unicode="́"/><glyph d="M104 1202l256 248h66l178 -248h-53l-158 221l-225 -221h-64z" glyph-name="uni0302" horiz-adv-x="0" unicode="̂"/><glyph d="M586 1264q-47 0 -86 24.5t-60.5 54t-56.5 54t-76 24.5q-57 0 -84.5 -36.5t-32.5 -79.5h-47q27 164 166 163q47 0 85 -24.5t59.5 -54t56.5 -54t76 -24.5q59 0 85.5 36.5t30.5 77.5h50q-12 -82 -58.5 -121.5t-107.5 -39.5z" glyph-name="tildecomb" horiz-adv-x="0" unicode="̃"/><glyph d="M139 1403l6 47h549l-6 -47h-549z" glyph-name="uni0304" horiz-adv-x="0" unicode="̄"/><glyph d="M360 1229q-133 0 -181 65.5t-34 155.5h45q-23 -178 175 -178q199 0 225 178h47q-14 -92 -80 -156.5t-197 -64.5z" glyph-name="uni0306" horiz-adv-x="0" unicode="̆"/><glyph d="M192.5 1346q-20.5 0 -37 16t-16.5 39q0 20 16.5 36.5t37 16.5t37 -16.5t16.5 -36.5q0 -23 -16.5 -39t-37 -16z" glyph-name="uni0307" horiz-adv-x="0" unicode="̇"/><glyph d="M494 1346q-23 0 -39.5 16t-16.5 38.5t16.5 38t39 15.5t38 -16.5t15.5 -36.5q0 -23 -16.5 -39t-36.5 -16zM139 1401q0 20 16.5 36.5t37 16.5t37 -16.5t16.5 -36.5q0 -23 -16.5 -39t-37 -16t-37 16t-16.5 39z" glyph-name="uni0308" horiz-adv-x="0" unicode="̈"/><glyph d="M287 1196q70 2 112.5 40t42.5 105q0 66 -36.5 104t-98.5 38q-55 0 -90 -31t-37 -86h-45q0 72 51.5 116t120.5 44q74 0 127 -49.5t53 -130.5q0 -84 -52 -134.5t-120 -54.5z" glyph-name="hookabovecomb" horiz-adv-x="0" unicode="̉"/><glyph d="M285 1188q-63 0 -108.5 45t-45.5 106.5t45 106.5t109 45q66 0 110.5 -45t44.5 -106.5t-44.5 -106.5t-110.5 -45zM176 1339q0 -45 32 -76.5t77 -31.5t77.5 31.5t32.5 76.5t-31.5 78t-78.5 33q-45 0 -77 -32t-32 -79z" glyph-name="uni030A" horiz-adv-x="0" unicode="̊"/><glyph d="M324 1192l239 258h58l-240 -258h-57zM104 1192l240 258h57l-239 -258h-58z" glyph-name="uni030B" horiz-adv-x="0" unicode="̋"/><glyph d="M643 1448l-256 -248h-65l-179 248h54l157 -221l226 221h63z" glyph-name="uni030C" horiz-adv-x="0" unicode="̌"/><glyph d="M375 1403q-109 -6 -115 -109q31 0 52.5 -16t21.5 -45t-18.5 -48.5t-47 -19.5t-47 24.5t-18.5 65.5q0 70 44 130.5t122 60.5h12z" glyph-name="uni0312" horiz-adv-x="0" unicode="̒"/><glyph d="M74 1010l10 55h168l27 180h53l-27 -180l-8 -55h-223z" glyph-name="uni031B" horiz-adv-x="0" unicode="̛"/><glyph d="M18 -471q-27 0 -45 18.5t-18 44.5q0 25 18.5 44.5t44.5 19.5q25 0 43.5 -19.5t18.5 -44.5q0 -27 -18.5 -45t-43.5 -18z" glyph-name="dotbelowcomb" horiz-adv-x="0" unicode="̣"/><glyph d="M-141 -266q109 6 114 108q-31 0 -52 16.5t-21 45t18.5 48t47 19.5t47 -24.5t18.5 -65.5q0 -70 -44 -130t-122 -60h-12z" glyph-name="uni0326" horiz-adv-x="0" unicode="̦"/><glyph d="M-117 -352q90 0 143.5 34.5t53.5 94.5q0 55 -42 76.5t-114 -5.5l-28 33l108 119h66l-93 -96q25 4 33 4q51 0 87 -32t36 -95q0 -90 -73.5 -138.5t-184.5 -48.5z" glyph-name="uni0327" horiz-adv-x="0" unicode="̧"/><glyph d="M111 -369q-106 -14 -166 33t-60 133q0 104 86 172t207 68l19 -37q-111 0 -185.5 -54.5t-74.5 -144.5q0 -70 48 -101.5t132 -25.5z" glyph-name="uni0328" horiz-adv-x="0" unicode="̨"/><glyph d="M-29 0l879 1460h2l416 -1460h-1297zM72 55h1116l-354 1274z" glyph-name="Delta" horiz-adv-x="1406" unicode="Δ"/><glyph d="M66 0l8 49h323l9 72q-129 86 -206 222t-77 306q0 209 111.5 393.5t302 295t405.5 110.5q268 0 441 -168t173 -428q0 -225 -133 -419.5t-352 -311.5l-10 -72h323l-8 -49h-377l23 147q227 121 356 302.5t129 400.5q0 254 -165.5 402.5t-407.5 148.5q-305 0 -531.5 -223.5 t-226.5 -530.5q0 -319 289 -500l-25 -147h-374z" glyph-name="Omega" horiz-adv-x="1611" unicode="Ω"/><glyph d="M-18 -389l120 768l7 43l102 643h53l-108 -684q-16 -166 54.5 -258t235.5 -92q178 0 296 105.5t147 279.5l102 649h53l-167 -1065h-54l31 199h-2q-16 -29 -45 -61t-77 -70.5t-125 -63t-165 -24.5q-248 0 -317 184l-88 -553h-53z" glyph-name="mu" unicode="μ"/><glyph d="M965 -12q-152 0 -123 174l135 852h-537l-159 -1014h-54l160 1014h-205l8 51h1051l-8 -51h-203l-135 -862q-10 -59 9.5 -86t72.5 -27q55 0 131 37l-8 -49q-78 -39 -135 -39z" glyph-name="pi" horiz-adv-x="1275" unicode="π"/><glyph d="M43 0l227 1434h856l-10 -54h-799l-94 -608h738l-9 -55h-737l-109 -664h820l-6 -53h-877zM532 1769q0 20 16.5 37t37 17t37 -16.5t16.5 -37.5q0 -23 -16.5 -39t-37 -16t-37 16t-16.5 39zM831 1769.5q0 22.5 16.5 38t39 15.5t38 -16.5t15.5 -37.5q0 -23 -16.5 -39 t-36.5 -16q-23 0 -39.5 16.5t-16.5 39z" glyph-name="afii10023" horiz-adv-x="1079" unicode="Ё"/><glyph d="M43 0l227 1434h785l-8 -54h-732l-217 -1380h-55zM633 1561l239 258h58l-240 -258h-57z" glyph-name="afii10052" horiz-adv-x="976" unicode="Ѓ"/><glyph d="M655 -20q-244 0 -391 147t-147 440q0 172 51 331t144.5 283t237.5 197.5t318 73.5q201 0 327 -98.5t142 -274.5h-53q-16 152 -126.5 237t-291.5 85q-268 0 -447 -179.5t-233 -451.5h605l-9 -49h-604q-10 -82 -10 -150q0 -272 135 -406t354 -134q180 0 310.5 86t195.5 237 h58q-74 -182 -220.5 -278t-345.5 -96z" glyph-name="afii10053" horiz-adv-x="1310" unicode="Є"/><glyph d="M43 0l227 1434h58l-228 -1434h-57zM150 1769q0 20 15 37t37.5 17t38 -16.5t15.5 -37.5q0 -23 -16.5 -39t-37 -16t-36.5 16t-16 39zM449 1769.5q0 22.5 16 38t39 15.5q20 0 36.5 -16.5t16.5 -37.5q0 -23 -16.5 -39t-36.5 -16q-23 0 -39 16.5t-16 39z" glyph-name="afii10056" horiz-adv-x="311" unicode="Ї"/><glyph d="M43 0l227 1434h58l-142 -891l967 891h78l-742 -678l562 -756h-72l-530 719l-275 -252l-74 -467h-57zM545 1561l239 258h58l-240 -258h-57z" glyph-name="afii10061" horiz-adv-x="1189" unicode="Ќ"/><glyph d="M121 51q180 -25 311 201q55 98 47 137l-270 1045h55l262 -1014l582 1014h57l-692 -1209q-72 -131 -167 -188t-193 -41zM502 1819h45q-23 -178 174 -179q199 0 225 179h47q-14 -92 -79.5 -157t-196.5 -65q-133 0 -181 66t-34 156z" glyph-name="afii10062" unicode="Ў"/><glyph d="M-29 0l799 1434h55l344 -1434h-59l-100 432h-738l-239 -432h-62zM301 483h696l-204 875h-7z" glyph-name="afii10017" horiz-adv-x="1308" unicode="А"/><glyph d="M43 0l227 1434h785l-8 -54h-732l-79 -503h426q199 0 303 -92.5t104 -268.5q0 -229 -150.5 -372.5t-396.5 -143.5h-479zM106 57h422q223 0 353.5 126t130.5 327q0 311 -363 311h-422z" glyph-name="afii10018" horiz-adv-x="1155" unicode="Б"/><glyph d="M43 0l227 1434h498q176 0 261 -79t85 -210q0 -129 -78 -227.5t-215 -135.5q268 -55 269 -327q0 -211 -152 -333t-401 -122h-494zM106 53h431q225 0 359 108.5t134 295.5q0 299 -379 299h-432zM227 809h432q186 0 291 94t105 250q0 115 -70 171t-231 56h-435z" glyph-name="afii10019" horiz-adv-x="1183" unicode="В"/><glyph d="M43 0l227 1434h785l-8 -54h-732l-217 -1380h-55z" glyph-name="afii10020" horiz-adv-x="976" unicode="Г"/><glyph d="M-51 -141l31 192h47q123 106 184 340t149 789l39 254h883l-219 -1383h55l-31 -192h-53l23 141h-1032l-23 -141h-53zM90 51h920l207 1329h-771l-30 -200q-94 -604 -144 -779q-67 -250 -182 -350z" glyph-name="afii10021" horiz-adv-x="1269" unicode="Д"/><glyph d="M43 0l227 1434h856l-10 -54h-799l-94 -608h738l-9 -55h-737l-109 -664h820l-6 -53h-877z" glyph-name="afii10022" horiz-adv-x="1079" unicode="Е"/><glyph d="M-29 0l813 739l-536 695h69l521 -666l106 666h55l-106 -672l729 672h76l-758 -695l580 -739h-70l-563 717l-115 -717h-55l112 711l-782 -711h-76z" glyph-name="afii10024" horiz-adv-x="1658" unicode="Ж"/><glyph d="M477 -20q-221 0 -329.5 124.5t-77.5 329.5h51q-25 -178 68.5 -290.5t295.5 -112.5q209 0 354.5 120.5t145.5 301.5q0 150 -106.5 227.5t-298.5 77.5h-43l6 55h39q188 0 305 93t117 243q0 121 -77 186.5t-229 65.5q-176 0 -292.5 -94.5t-141.5 -290.5h-53 q33 221 163 328.5t322 107.5q176 0 268.5 -80t92.5 -215q0 -129 -82 -227.5t-221 -138.5q131 -27 207.5 -111t76.5 -219q0 -207 -164 -344t-397 -137z" glyph-name="afii10025" horiz-adv-x="1140" unicode="З"/><glyph d="M43 0l227 1434h58l-217 -1364h4l1120 1364h82l-227 -1434h-58l217 1370h-2l-1122 -1370h-82z" glyph-name="afii10026" horiz-adv-x="1300" unicode="И"/><glyph d="M821 1597q-133 0 -181 66t-34 156h45q-23 -178 174 -179q199 0 226 179h47q-14 -92 -80 -157t-197 -65zM43 0l227 1434h58l-217 -1364h4l1120 1364h82l-227 -1434h-58l217 1370h-2l-1122 -1370h-82z" glyph-name="afii10027" horiz-adv-x="1300" unicode="Й"/><glyph d="M43 0l227 1434h58l-142 -891l967 891h78l-742 -678l562 -756h-72l-530 719l-275 -252l-74 -467h-57z" glyph-name="afii10028" horiz-adv-x="1189" unicode="К"/><glyph d="M-49 39q301 -4 368 410l156 985h905l-227 -1434h-55l217 1380h-795l-145 -929q-41 -254 -156 -361.5t-274 -103.5z" glyph-name="afii10029" horiz-adv-x="1363" unicode="Л"/><glyph d="M43 0l227 1434h56l434 -1377l868 1377h60l-228 -1434h-57l205 1300h-2l-815 -1300h-70l-414 1300h-2l-205 -1300h-57z" glyph-name="afii10030" horiz-adv-x="1671" unicode="М"/><glyph d="M1004 0l106 668h-903l-107 -668h-57l227 1434h58l-113 -717h903l113 717h57l-227 -1434h-57z" glyph-name="afii10031" horiz-adv-x="1271" unicode="Н"/><glyph d="M641 -20q-238 0 -381 145t-143 438q0 233 85 433t258 328t398 128q238 0 382 -146.5t144 -441.5q0 -229 -86 -428.5t-259 -327.5t-398 -128zM168 563q0 -268 130 -400t345 -132q211 0 372 122.5t239.5 310t78.5 400.5q0 270 -130 403.5t-345 133.5q-160 0 -293 -72 t-219 -189.5t-132 -267t-46 -309.5z" glyph-name="afii10032" horiz-adv-x="1441" unicode="О"/><glyph d="M43 0l227 1434h1028l-227 -1434h-55l217 1380h-918l-217 -1380h-55z" glyph-name="afii10033" horiz-adv-x="1282" unicode="П"/><glyph d="M43 0l227 1434h473q410 0 410 -353q0 -215 -148.5 -342t-392.5 -127h-415l-97 -612h-57zM205 666h416q223 0 350 111.5t127 299.5q0 303 -367 303h-414z" glyph-name="afii10034" horiz-adv-x="1148" unicode="Р"/><glyph d="M655 -20q-244 0 -391 147t-147 440q0 172 51 331t144.5 283t237.5 197.5t318 73.5q201 0 327 -98.5t142 -274.5h-53q-16 152 -126.5 237t-291.5 85q-213 0 -375.5 -121t-242.5 -307.5t-80 -401.5q0 -272 135 -406t354 -134q180 0 310.5 86t195.5 237h58 q-74 -182 -220.5 -278t-345.5 -96z" glyph-name="afii10035" horiz-adv-x="1310" unicode="С"/><glyph d="M463 0l219 1380h-483l10 54h1020l-8 -54h-484l-217 -1380h-57z" glyph-name="afii10036" horiz-adv-x="1150" unicode="Т"/><glyph d="M121 51q180 -25 311 201q55 98 47 137l-270 1045h55l262 -1014l582 1014h57l-692 -1209q-72 -131 -167 -188t-193 -41z" glyph-name="afii10037" unicode="У"/><glyph d="M596 -31l22 148q-233 8 -367 126.5t-134 346.5q0 315 188.5 516t505.5 211l23 147h55l-23 -147q233 -6 367.5 -126t134.5 -349q0 -315 -189.5 -516t-504.5 -209l-23 -148h-55zM168 600q0 -211 125 -321.5t334 -116.5l176 1110q-289 -8 -462 -195.5t-173 -476.5zM682 162 q289 10 462 197.5t173 474.5q0 211 -124 320.5t-335 117.5z" glyph-name="afii10038" horiz-adv-x="1427" unicode="Ф"/><glyph d="M-29 0l662 743l-397 691h65l371 -646l575 646h70l-617 -695l426 -739h-65l-399 694l-619 -694h-72z" glyph-name="afii10039" horiz-adv-x="1265" unicode="Х"/><glyph d="M43 0l227 1434h56l-222 -1381h918l221 1381h55l-219 -1381h49l-53 -342h-53l45 289h-1024z" glyph-name="afii10040" horiz-adv-x="1261" unicode="Ц"/><glyph d="M497.5 352q-186.5 0 -292 102.5t-70.5 323.5l105 656h55l-107 -654q-31 -201 62.5 -287.5t261.5 -86.5q205 0 362.5 111.5t200.5 223.5v-6l111 699h55l-227 -1434h-56l101 633q-59 -100 -217 -190.5t-344.5 -90.5z" glyph-name="afii10041" horiz-adv-x="1224" unicode="Ч"/><glyph d="M43 0l227 1434h56l-222 -1381h558l221 1381h53l-219 -1381h557l219 1381h55l-227 -1434h-1278z" glyph-name="afii10042" horiz-adv-x="1531" unicode="Ш"/><glyph d="M43 0l227 1434h56l-222 -1381h558l221 1381h53l-219 -1381h557l219 1381h55l-227 -1434h-1278zM1280 -289l55 342h56l-54 -342h-57z" glyph-name="afii10043" horiz-adv-x="1523" unicode="Щ"/><glyph d="M188 1380l11 54h215l-88 -557h405q203 0 310.5 -93.5t107.5 -271.5q0 -227 -153.5 -369.5t-403.5 -142.5h-461l219 1380h-162zM197 57h407q225 0 356.5 126t131.5 325q0 313 -365 313h-410z" glyph-name="afii10044" horiz-adv-x="1236" unicode="Ъ"/><glyph d="M43 0l227 1434h56l-88 -557h405q203 0 310.5 -93.5t107.5 -271.5q0 -227 -153.5 -369.5t-403.5 -142.5h-461zM109 57h407q225 0 356.5 126t131.5 325q0 313 -365 313h-410zM1151 0l227 1434h58l-228 -1434h-57z" glyph-name="afii10045" horiz-adv-x="1417" unicode="Ы"/><glyph d="M43 0l227 1434h56l-88 -557h405q203 0 310.5 -93.5t107.5 -271.5q0 -227 -153.5 -369.5t-403.5 -142.5h-461zM109 57h407q225 0 356.5 126t131.5 325q0 313 -365 313h-410z" glyph-name="afii10046" horiz-adv-x="1148" unicode="Ь"/><glyph d="M588 662l6 49h610q10 82 10 149q0 272 -135 406.5t-354 134.5q-180 0 -310 -86t-196 -238h-57q74 182 220 278.5t345 96.5q244 0 391.5 -147.5t147.5 -440.5q0 -172 -51.5 -330.5t-144.5 -282.5t-237.5 -197.5t-318.5 -73.5q-201 0 -327 98t-142 274h53 q16 -152 127 -236.5t291 -84.5q266 0 446.5 179t233.5 452h-608z" glyph-name="afii10047" horiz-adv-x="1325" unicode="Э"/><glyph d="M43 0l227 1434h58l-113 -717h234v-49h-242l-107 -668h-57zM457 563q0 233 85 433t258 328t398 128q238 0 382 -146.5t144 -441.5q0 -229 -86 -428.5t-259 -327.5t-398 -128q-238 0 -381 145t-143 438zM508 563q0 -268 130 -400t345 -132q211 0 372 122.5t239.5 310 t78.5 400.5q0 270 -130 403.5t-345 133.5q-160 0 -293 -72t-219 -189.5t-132 -267t-46 -309.5z" glyph-name="afii10048" horiz-adv-x="1781" unicode="Ю"/><glyph d="M891 0l96 612h-420l-508 -612h-67l510 614q-168 14 -257 101.5t-89 245.5q0 215 148.5 344t393.5 129h478l-228 -1434h-57zM211 963q0 -297 369 -297h417l113 714h-418q-223 0 -352 -113.5t-129 -303.5z" glyph-name="afii10049" horiz-adv-x="1159" unicode="Я"/><glyph d="M326 -20q-141 0 -219 63t-78 180q0 135 99 217t275 101l293 34q106 10 146.5 33t50.5 74l8 57q27 160 -43 229.5t-250 69.5q-174 0 -263 -61.5t-109 -183.5l-5 -25h-51l2 25q35 293 436 292q199 0 282 -82.5t52 -267.5l-114 -735h-54l33 215h-6q-45 -78 -180 -156.5 t-305 -78.5zM82 223q0 -195 246 -194q203 0 352 114.5t162 202.5l37 248q-6 -47 -195 -68l-270 -30q-158 -16 -245 -86t-87 -187z" glyph-name="afii10065" horiz-adv-x="1048" unicode="а"/><glyph d="M483 -18q-229 0 -325.5 163.5t-53.5 429.5l66 426q33 209 162 321t338 112h231q125 0 133 45h64q-18 -53 -80 -74t-172 -21h-191q-176 0 -289.5 -97t-144.5 -296l-28 -186q86 145 207.5 210.5t244.5 65.5q172 0 282.5 -112.5t110.5 -319.5q0 -268 -159.5 -467.5 t-395.5 -199.5zM139 424q0 -193 98.5 -291t251.5 -98q213 0 353.5 183t140.5 425q0 190 -97.5 288.5t-248.5 98.5q-213 0 -355.5 -182t-142.5 -424z" glyph-name="afii10066" horiz-adv-x="1105" unicode="б"/><glyph d="M43 0l168 1065h461q283 0 282 -223q0 -190 -213 -258q109 -18 161 -86t52 -168q0 -162 -124.5 -246t-340.5 -84h-446zM104 53h379q416 0 416 277q0 229 -332 229h-385zM195 612h391q141 0 229 58.5t88 171.5q0 90 -63.5 130t-196.5 40h-387z" glyph-name="afii10067" horiz-adv-x="1067" unicode="в"/><glyph d="M43 0l168 1065h616l-6 -49h-563l-162 -1016h-53z" glyph-name="afii10068" horiz-adv-x="798" unicode="г"/><glyph d="M20 0l-22 -150h-49l28 199h58q70 72 107.5 228.5t97.5 529.5q8 51 12 78l31 180h788l-160 -1016h50l-29 -199h-49l22 150h-885zM92 49h766l156 967h-684l-29 -164q-10 -63 -26.5 -162.5t-24.5 -147.5t-21.5 -121t-22.5 -109t-22.5 -84t-26 -75.5t-29 -55.5t-36.5 -48z " glyph-name="afii10069" horiz-adv-x="1095" unicode="д"/><glyph d="M481 -18q-201 0 -307 109.5t-106 326.5q0 129 37.5 247.5t107.5 213t179.5 150.5t240.5 56q178 0 278.5 -100t100.5 -274q0 -129 -27 -195h-858q-6 -49 -6 -100q0 -383 360 -383q285 0 400 231h55q-138 -282 -455 -282zM135 565h809q49 229 -44 349t-275 120 q-199 0 -326 -133t-164 -336z" glyph-name="afii10070" horiz-adv-x="1069" unicode="е"/><glyph d="M-49 0l641 547l-451 518h68l422 -485l76 485h53l-76 -481l565 481h72l-612 -518l467 -547h-66l-438 510l-80 -510h-53l79 512l-595 -512h-72z" glyph-name="afii10072" horiz-adv-x="1294" unicode="ж"/><glyph d="M406 -18q-193 0 -290.5 97t-72.5 249h53q-20 -129 66 -212t252 -83q164 0 278.5 82t114.5 209q0 115 -99.5 169t-258.5 50l6 49q164 4 273.5 66.5t109.5 175.5q0 88 -70 142t-197 54q-145 0 -241.5 -71.5t-114.5 -174.5h-53q20 125 129.5 210t281.5 85q152 0 234 -66.5 t82 -168.5q0 -100 -75 -171t-202 -100q117 -16 181.5 -78.5t64.5 -162.5q0 -158 -131 -254t-321 -96z" glyph-name="afii10073" horiz-adv-x="989" unicode="з"/><glyph d="M43 0l168 1065h53l-162 -1014h4l904 1014h82l-168 -1065h-54l164 1018h-4l-903 -1018h-84z" glyph-name="afii10074" horiz-adv-x="1134" unicode="и"/><glyph d="M43 0l168 1065h53l-162 -1014h4l904 1014h82l-168 -1065h-54l164 1018h-4l-903 -1018h-84zM467 1450h45q-23 -178 174 -178q199 0 225 178h47q-14 -92 -79.5 -156.5t-196.5 -64.5q-133 0 -181 65.5t-34 155.5z" glyph-name="afii10075" horiz-adv-x="1134" unicode="й"/><glyph d="M43 0l168 1065h53l-108 -684l778 684h74l-539 -471l442 -594h-67l-412 561l-287 -250l-49 -311h-53z" glyph-name="afii10076" horiz-adv-x="1030" unicode="к"/><glyph d="M-47 39q137 -2 221 85t121 314l98 627h727l-168 -1065h-57l166 1016h-619l-94 -576q-41 -256 -142.5 -355t-260.5 -95z" glyph-name="afii10077" horiz-adv-x="1163" unicode="л"/><glyph d="M43 0l168 1065h49l342 -1012l664 1012h51l-168 -1065h-53l145 924h-6l-606 -924h-60l-323 924h-4l-146 -924h-53z" glyph-name="afii10078" horiz-adv-x="1359" unicode="м"/><glyph d="M43 0l168 1065h53l-78 -487h652l77 487h54l-168 -1065h-53l81 528h-651l-82 -528h-53z" glyph-name="afii10079" horiz-adv-x="1011" unicode="н"/><glyph d="M489 -20q-184 0 -302.5 112.5t-118.5 331.5q0 266 162.5 463.5t418.5 197.5q184 0 303 -112.5t119 -331.5q0 -266 -163 -463.5t-419 -197.5zM123 426q0 -201 104.5 -300t266.5 -99q227 0 374.5 183t147.5 429q0 201 -104.5 300t-266.5 99q-227 0 -374.5 -183t-147.5 -429 z" glyph-name="afii10080" horiz-adv-x="1138" unicode="о"/><glyph d="M43 0l168 1065h786l-168 -1065h-53l162 1016h-680l-162 -1016h-53z" glyph-name="afii10081" horiz-adv-x="1040" unicode="п"/><glyph d="M-18 -389l229 1454h53l-41 -262q164 283 467 282q182 0 298 -110.5t116 -323.5q0 -285 -161 -478t-411 -193q-301 0 -395 286l-102 -655h-53zM166 426q0 -195 104.5 -297t266.5 -102q229 0 373.5 187t144.5 427q0 197 -101.5 297t-261.5 100q-229 0 -377.5 -182 t-148.5 -430z" glyph-name="afii10082" horiz-adv-x="1173" unicode="р"/><glyph d="M489 -20q-195 0 -307 115.5t-112 336.5q0 268 160.5 460.5t422.5 192.5q162 0 268.5 -82.5t110.5 -259.5h-53q-4 154 -97.5 223.5t-228.5 69.5q-238 0 -384 -177t-146 -427q0 -205 101.5 -304t269.5 -99q137 0 250.5 69.5t164.5 231.5h54q-55 -184 -184.5 -267 t-289.5 -83z" glyph-name="afii10083" horiz-adv-x="1058" unicode="с"/><glyph d="M330 0l159 1016h-350l6 49h758l-6 -49h-354l-160 -1016h-53z" glyph-name="afii10084" horiz-adv-x="880" unicode="т"/><glyph d="M33 -332q182 -33 313 207q49 94 37 141l-244 1049h56l237 -1028l559 1028h60l-668 -1219q-145 -262 -358 -231z" glyph-name="afii10085" horiz-adv-x="1021" unicode="у"/><glyph d="M414 -389l59 371q-184 8 -294.5 120.5t-110.5 313.5q0 272 159.5 463.5t419.5 199.5l55 355h48l-56 -355q182 -8 293 -120.5t111 -313.5q0 -272 -159 -462.5t-419 -200.5l-59 -371h-47zM123 416q0 -184 99.5 -281.5t258.5 -103.5l158 999q-236 -8 -376 -185t-140 -429z M528 31q231 8 373.5 183t142.5 433q0 182 -99 278.5t-259 104.5z" glyph-name="afii10086" horiz-adv-x="1165" unicode="ф"/><glyph d="M-8 0l473 539l-303 526h63l271 -481l424 481h69l-471 -526l305 -539h-63l-271 498l-428 -498h-69z" glyph-name="afii10087" horiz-adv-x="983" unicode="х"/><glyph d="M43 0l168 1065h53l-162 -1016h680l162 1016h53l-159 -1016h45l-49 -336h-54l43 287h-780z" glyph-name="afii10088" horiz-adv-x="1089" unicode="ц"/><glyph d="M862 522q-49 -82 -166.5 -160.5t-283.5 -78.5t-256 95t-58 300l62 387h53l-61 -383q-55 -348 264 -348q188 0 320 115.5t151 236.5l59 379h53l-168 -1065h-53z" glyph-name="afii10089" horiz-adv-x="1042" unicode="ч"/><glyph d="M43 0l168 1065h53l-162 -1016h537l162 1016h53l-164 -1016h537l164 1016h53l-168 -1065h-1233z" glyph-name="afii10090" horiz-adv-x="1486" unicode="ш"/><glyph d="M1227 -287l43 287h-1227l168 1065h53l-162 -1016h537l162 1016h53l-164 -1016h537l164 1016h53l-160 -1016h45l-51 -336h-51z" glyph-name="afii10091" horiz-adv-x="1533" unicode="щ"/><glyph d="M133 1016l6 49h238l-66 -414h359q346 0 346 -282q0 -172 -120 -270.5t-329 -98.5h-411l159 1016h-182zM215 49h350q190 0 295 83t105 235q0 123 -73 179t-239 56h-350z" glyph-name="afii10092" horiz-adv-x="1124" unicode="ъ"/><glyph d="M43 0l168 1065h53l-65 -414h358q346 0 346 -282q0 -172 -119.5 -270.5t-328.5 -98.5h-412zM102 49h351q190 0 294.5 83t104.5 235q0 123 -72.5 179t-238.5 56h-351zM965 0l168 1065h53l-168 -1065h-53z" glyph-name="afii10093" horiz-adv-x="1228" unicode="ы"/><glyph d="M43 0l168 1065h53l-65 -414h358q346 0 346 -282q0 -172 -119.5 -270.5t-328.5 -98.5h-412zM102 49h351q190 0 294.5 83t104.5 235q0 123 -72.5 179t-238.5 56h-351z" glyph-name="afii10094" horiz-adv-x="1011" unicode="ь"/><glyph d="M512 530l8 48h428q2 18 2 55q0 205 -101 304t-269 99q-137 0 -251 -69.5t-165 -231.5h-53q55 184 184 267t289 83q195 0 307.5 -115.5t112.5 -336.5q0 -268 -161 -460.5t-423 -192.5q-162 0 -268.5 82.5t-110.5 259.5h53q4 -154 97.5 -223.5t228.5 -69.5q211 0 352 143 t172 358h-432z" glyph-name="afii10095" horiz-adv-x="1073" unicode="э"/><glyph d="M16 0l168 1065h54l-80 -510h168q39 225 193.5 377.5t375.5 152.5q184 0 303 -112.5t119 -331.5q0 -266 -163 -463.5t-419 -197.5q-184 0 -303 112.5t-119 331.5q0 29 4 82h-167l-80 -506h-54zM369 426q0 -201 104.5 -300t265.5 -99q227 0 375 183t148 429 q0 201 -104.5 300t-266.5 99q-227 0 -374.5 -183t-147.5 -429z" glyph-name="afii10096" horiz-adv-x="1384" unicode="ю"/><glyph d="M758 0l65 414h-356l-51 2l-350 -416h-66l360 422q-242 41 -241 278q0 170 121.5 267.5t328.5 97.5h410l-168 -1065h-53zM170 702q0 -121 73.5 -180t237.5 -59h350l89 553h-351q-186 0 -292.5 -83.5t-106.5 -230.5z" glyph-name="afii10097" horiz-adv-x="1021" unicode="я"/><glyph d="M481 -18q-201 0 -307 109.5t-106 326.5q0 129 37.5 247.5t107.5 213t179.5 150.5t240.5 56q178 0 278.5 -100t100.5 -274q0 -129 -27 -195h-858q-6 -49 -6 -100q0 -383 360 -383q285 0 400 231h55q-138 -282 -455 -282zM135 565h809q49 229 -44 349t-275 120 q-199 0 -326 -133t-164 -336zM477 1401q0 20 15.5 36.5t38 16.5t38 -16.5t15.5 -36.5q0 -23 -16.5 -39t-37 -16t-37 16t-16.5 39zM776 1400.5q0 22.5 16.5 38t38.5 15.5q20 0 37 -16.5t17 -36.5q0 -23 -16.5 -39t-37.5 -16q-23 0 -39 16t-16 38.5z" glyph-name="afii10071" horiz-adv-x="1069" unicode="ё"/><glyph d="M43 0l168 1065h616l-6 -49h-563l-162 -1016h-53zM432 1192l240 258h57l-240 -258h-57z" glyph-name="afii10100" horiz-adv-x="798" unicode="ѓ"/><glyph d="M489 -20q-195 0 -307 115.5t-112 336.5q0 268 160.5 460.5t422.5 192.5q162 0 268.5 -82.5t110.5 -259.5h-53q-4 154 -97.5 223.5t-228.5 69.5q-199 0 -338 -130t-178 -328h426l-4 -48h-430q-6 -49 -6 -98q0 -205 101.5 -304t269.5 -99q137 0 250.5 69.5t164.5 231.5h54 q-55 -184 -184.5 -267t-289.5 -83z" glyph-name="afii10101" horiz-adv-x="1058" unicode="є"/><glyph d="M16 0l168 1065h54l-168 -1065h-54zM63 1401q0 20 15.5 36.5t38 16.5t38 -16.5t15.5 -36.5q0 -23 -16.5 -39t-37 -16t-37 16t-16.5 39zM362 1400.5q0 22.5 16.5 38t39.5 15.5q20 0 36.5 -16.5t16.5 -36.5q0 -23 -16.5 -39t-36.5 -16q-23 0 -39.5 16t-16.5 38.5z" glyph-name="afii10104" horiz-adv-x="253" unicode="ї"/><glyph d="M43 0l168 1065h53l-108 -684l778 684h74l-539 -471l442 -594h-67l-412 561l-287 -250l-49 -311h-53zM543 1192l239 258h58l-240 -258h-57z" glyph-name="afii10109" horiz-adv-x="1030" unicode="ќ"/><glyph d="M33 -332q182 -33 313 207q49 94 37 141l-244 1049h56l237 -1028l559 1028h60l-668 -1219q-145 -262 -358 -231zM328 1450h45q-23 -178 174 -178q199 0 225 178h47q-14 -92 -79.5 -156.5t-196.5 -64.5q-133 0 -181 65.5t-34 155.5z" glyph-name="afii10110" horiz-adv-x="1021" unicode="ў"/><glyph d="M1001 1434l33 204h53l-32 -204l-8 -54h-732l-217 -1380h-55l227 1434h731z" glyph-name="afii10050" horiz-adv-x="976" unicode="Ґ"/><glyph d="M776 1065l23 135h51l-23 -135l-6 -49h-563l-162 -1016h-53l168 1065h565z" glyph-name="afii10098" horiz-adv-x="798" unicode="ґ"/><glyph d="M43 0l227 1434h396q293 0 434 -141.5t141 -438.5q0 -375 -211 -614.5t-588 -239.5h-399zM106 53h340q354 0 549 226.5t195 578.5q0 272 -128 397t-392 125h-353zM446 -408q0 25 18.5 44.5t45.5 19.5q25 0 43 -19.5t18 -44.5q0 -27 -18 -45t-43 -18q-27 0 -45.5 18 t-18.5 45z" glyph-name="uni1E0C" horiz-adv-x="1300" unicode="Ḍ"/><glyph d="M479 -20q-182 0 -296.5 112.5t-114.5 325.5q0 279 159.5 473t411.5 194q139 0 243.5 -68.5t151.5 -213.5l103 631h53l-227 -1434h-54l41 266q-82 -147 -207 -216.5t-264 -69.5zM117 424q0 -197 102.5 -297t265.5 -100q225 0 373 182t148 430q0 195 -105.5 297t-267.5 102 q-154 0 -274.5 -91t-181 -230t-60.5 -293zM403 -408q0 25 18.5 44.5t45.5 19.5q25 0 43 -19.5t18 -44.5q0 -27 -18 -45t-43 -18q-27 0 -45.5 18t-18.5 45z" glyph-name="uni1E0D" horiz-adv-x="1173" unicode="ḍ"/><glyph d="M653 -20q-248 0 -391 149.5t-143 450.5q0 233 85 428.5t260 319.5t408 124q197 0 309.5 -84t141.5 -233h-49q-70 266 -397 266q-223 0 -387 -118t-243 -302t-79 -406q0 -274 130 -409t355 -135q252 0 408 156.5t201 455.5l-428 -2l6 49h479l-8 -67q-45 -311 -218.5 -477 t-439.5 -166zM653 1772l6 47h549l-6 -47h-549z" glyph-name="uni1E20" horiz-adv-x="1400" unicode="Ḡ"/><glyph d="M475 20q-180 0 -292.5 106.5t-112.5 311.5q0 268 157.5 457.5t411.5 189.5q141 0 245.5 -64.5t147.5 -201.5h2l37 246h53l-145 -936l-23 -131q-27 -154 -114.5 -253t-195 -136t-238.5 -37q-193 0 -303.5 82t-90.5 223h47q-14 -117 78 -187.5t273 -70.5q195 0 325.5 91 t165.5 288l23 131l24 158h-4q-168 -267 -471 -267zM123 449q0 -186 101.5 -283.5t254.5 -97.5q227 0 377 172t150 411q0 190 -103.5 288.5t-265.5 98.5q-227 0 -370.5 -172.5t-143.5 -416.5zM446 1403l7 47h548l-6 -47h-549z" glyph-name="uni1E21" horiz-adv-x="1167" unicode="ḡ"/><glyph d="M1004 0l106 668h-903l-107 -668h-57l227 1434h58l-113 -717h903l113 717h57l-227 -1434h-57zM430 -408q0 25 18.5 44.5t45.5 19.5q25 0 43 -19.5t18 -44.5q0 -27 -18.5 -45t-42.5 -18q-27 0 -45.5 18t-18.5 45z" glyph-name="uni1E24" horiz-adv-x="1271" unicode="Ḥ"/><glyph d="M43 0l227 1434h54l-91 -578q29 72 135.5 150.5t278.5 78.5q80 0 144.5 -21.5t115.5 -69.5t71.5 -138t0.5 -213l-102 -643h-54l103 641q29 184 -39 288.5t-246 104.5q-174 0 -291 -99t-147 -265l-107 -670h-53zM360 -408q0 25 18.5 44.5t45.5 19.5q25 0 43 -19.5t18 -44.5 q0 -27 -18 -45t-43 -18q-27 0 -45.5 18t-18.5 45z" glyph-name="uni1E25" unicode="ḥ"/><glyph d="M520 -20q-244 0 -360.5 113.5t-89.5 281.5h51q-14 -154 86 -248t317 -94q227 0 357.5 104.5t130.5 276.5q0 133 -77 193.5t-222 92.5l-170 37q-317 74 -318 328q0 176 134.5 281.5t357.5 105.5q217 0 326.5 -95t89.5 -239h-50q6 117 -84 199t-284 82q-203 0 -318.5 -90 t-115.5 -246q0 -113 69.5 -178.5t218.5 -96.5l172 -38q154 -35 241 -109t87 -227q0 -197 -151.5 -315.5t-397.5 -118.5zM397 -408q0 25 18.5 44.5t45.5 19.5q25 0 43 -19.5t18 -44.5q0 -27 -18.5 -45t-42.5 -18q-27 0 -45.5 18t-18.5 45z" glyph-name="uni1E62" horiz-adv-x="1189" unicode="Ṣ"/><glyph d="M406 -20q-168 0 -281 71.5t-100 212.5h51q-4 -86 49 -141t125 -74.5t160 -19.5q162 0 270 70.5t108 203.5q0 92 -53 133t-172 74l-190 49q-111 31 -169.5 85t-58.5 149q0 135 113 213.5t293 78.5q160 0 257 -66.5t91 -207.5h-47q-8 225 -299 225q-162 0 -258 -62.5 t-96 -176.5q0 -76 46 -121t156 -74l177 -45q133 -37 197.5 -90t64.5 -160q0 -156 -125 -241.5t-309 -85.5zM285 -408q0 25 18.5 44.5t44.5 19.5q25 0 43.5 -19.5t18.5 -44.5q0 -27 -18.5 -45t-43.5 -18q-27 0 -45 18t-18 45z" glyph-name="uni1E63" horiz-adv-x="946" unicode="ṣ"/><glyph d="M463 0l219 1380h-483l10 54h1020l-8 -54h-484l-217 -1380h-57zM377 -408q0 25 18.5 44.5t44.5 19.5q25 0 43.5 -19.5t18.5 -44.5q0 -27 -18.5 -45t-43.5 -18q-27 0 -45 18t-18 45z" glyph-name="uni1E6C" horiz-adv-x="1150" unicode="Ṭ"/><glyph d="M348 -14q-213 0 -182 207l129 823h-162l6 49h164l41 258h53l-41 -258h215l-6 -49h-215l-127 -805q-14 -102 19.5 -138t134.5 -36h53l-8 -45q-25 -6 -74 -6zM152 -408q0 25 18 44.5t45 19.5q25 0 43 -19.5t18 -44.5q0 -27 -18 -45t-43 -18q-27 0 -45 18t-18 45z" glyph-name="uni1E6D" horiz-adv-x="573" unicode="ṭ"/><glyph d="M375 0l-166 1434h57l154 -1358h4l639 1358h70l210 -1358h5l583 1358h60l-619 -1434h-72l-213 1358l-641 -1358h-71zM924 1819h49l168 -258h-51z" glyph-name="Wgrave" horiz-adv-x="1912" unicode="Ẁ"/><glyph d="M293 0l-154 1065h56l139 -997h8l498 997h55l192 -997h9l448 997h58l-484 -1065h-69l-189 995l-498 -995h-69zM696 1450h49l168 -258h-51z" glyph-name="wgrave" horiz-adv-x="1572" unicode="ẁ"/><glyph d="M375 0l-166 1434h57l154 -1358h4l639 1358h70l210 -1358h5l583 1358h60l-619 -1434h-72l-213 1358l-641 -1358h-71zM1042 1561l240 258h57l-239 -258h-58z" glyph-name="Wacute" horiz-adv-x="1912" unicode="Ẃ"/><glyph d="M293 0l-154 1065h56l139 -997h8l498 997h55l192 -997h9l448 997h58l-484 -1065h-69l-189 995l-498 -995h-69zM815 1192l240 258h57l-240 -258h-57z" glyph-name="wacute" horiz-adv-x="1572" unicode="ẃ"/><glyph d="M375 0l-166 1434h57l154 -1358h4l639 1358h70l210 -1358h5l583 1358h60l-619 -1434h-72l-213 1358l-641 -1358h-71zM950 1769q0 20 16.5 37t37 17t37 -16.5t16.5 -37.5q0 -23 -16.5 -39t-37 -16t-37 16t-16.5 39zM1249 1769.5q0 22.5 16.5 38t39 15.5t38 -16.5 t15.5 -37.5q0 -23 -16.5 -39t-36.5 -16q-23 0 -39.5 16.5t-16.5 39z" glyph-name="Wdieresis" horiz-adv-x="1912" unicode="Ẅ"/><glyph d="M293 0l-154 1065h56l139 -997h8l498 997h55l192 -997h9l448 997h58l-484 -1065h-69l-189 995l-498 -995h-69zM725 1401q0 20 16.5 36.5t37 16.5t36.5 -16.5t16 -36.5q0 -23 -16 -39t-36.5 -16t-37 16t-16.5 39zM1024 1400.5q0 22.5 16.5 38t39 15.5t38 -16.5t15.5 -36.5 q0 -23 -16.5 -39t-37.5 -16q-23 0 -39 16t-16 38.5z" glyph-name="wdieresis" horiz-adv-x="1572" unicode="ẅ"/><glyph d="M-2 0l6 53l1200 1327h-940l10 54h1010l-12 -54l-1196 -1327h995l-6 -53h-1067zM414 -408q0 25 18.5 44.5t44.5 19.5q25 0 43.5 -19.5t18.5 -44.5q0 -27 -18.5 -45t-43.5 -18q-27 0 -45 18t-18 45z" glyph-name="uni1E92" horiz-adv-x="1230" unicode="Ẓ"/><glyph d="M-2 0l8 49l918 967h-746l8 49h815l-8 -49l-919 -967h766l-6 -49h-836zM295 -408q0 25 18.5 44.5t44.5 19.5q25 0 43.5 -19.5t18.5 -44.5q0 -27 -18.5 -45t-43.5 -18q-27 0 -45 18t-18 45z" glyph-name="uni1E93" horiz-adv-x="999" unicode="ẓ"/><glyph d="M676 -20q-176 0 -272.5 103t-69.5 282h53q-20 -141 55.5 -236.5t237.5 -95.5q184 0 305 128t121 306q0 164 -112.5 256t-309.5 92h-35l475 584h-594q-123 0 -175 -52.5t-72 -170.5l-185 -1176h-55l184 1167q25 162 98.5 223.5t221.5 61.5h688l-481 -592 q193 -10 301 -111.5t108 -279.5q0 -203 -138 -346t-349 -143z" glyph-name="uni1E9E" horiz-adv-x="1275" unicode="ẞ"/><glyph d="M-29 0l799 1434h55l344 -1434h-59l-100 432h-738l-239 -432h-62zM301 483h696l-204 875h-7zM451 -408q0 25 18 44.5t45 19.5q25 0 43 -19.5t18 -44.5q0 -27 -18 -45t-43 -18q-27 0 -45 18t-18 45z" glyph-name="uni1EA0" horiz-adv-x="1308" unicode="Ạ"/><glyph d="M326 -20q-141 0 -219 63t-78 180q0 135 99 217t275 101l293 34q106 10 146.5 33t50.5 74l8 57q27 160 -43 229.5t-250 69.5q-174 0 -263 -61.5t-109 -183.5l-5 -25h-51l2 25q35 293 436 292q199 0 282 -82.5t52 -267.5l-114 -735h-54l33 215h-6q-45 -78 -180 -156.5 t-305 -78.5zM82 223q0 -195 246 -194q203 0 352 114.5t162 202.5l37 248q-6 -47 -195 -68l-270 -30q-158 -16 -245 -86t-87 -187zM322 -408q0 25 18 44.5t45 19.5q25 0 43 -19.5t18 -44.5q0 -27 -18 -45t-43 -18q-27 0 -45 18t-18 45z" glyph-name="uni1EA1" horiz-adv-x="1048" unicode="ạ"/><glyph d="M-29 0l799 1434h55l344 -1434h-59l-100 432h-738l-239 -432h-62zM301 483h696l-204 875h-7zM651 1735q0 72 51.5 115.5t120.5 43.5q74 0 127.5 -49t53.5 -131q0 -84 -52.5 -134t-120.5 -54l-28 39q70 2 112.5 39.5t42.5 105.5q0 66 -36.5 103.5t-98.5 37.5 q-55 0 -90 -30.5t-37 -85.5h-45z" glyph-name="uni1EA2" horiz-adv-x="1308" unicode="Ả"/><glyph d="M326 -20q-141 0 -219 63t-78 180q0 135 99 217t275 101l293 34q106 10 146.5 33t50.5 74l8 57q27 160 -43 229.5t-250 69.5q-174 0 -263 -61.5t-109 -183.5l-5 -25h-51l2 25q35 293 436 292q199 0 282 -82.5t52 -267.5l-114 -735h-54l33 215h-6q-45 -78 -180 -156.5 t-305 -78.5zM82 223q0 -195 246 -194q203 0 352 114.5t162 202.5l37 248q-6 -47 -195 -68l-270 -30q-158 -16 -245 -86t-87 -187zM459 1366q0 72 51 116t121 44q74 0 127 -49.5t53 -130.5q0 -84 -52 -134.5t-120 -54.5l-29 39q70 2 113 40t43 105q0 66 -37 104t-98 38 q-55 0 -90 -31t-37 -86h-45z" glyph-name="uni1EA3" horiz-adv-x="1048" unicode="ả"/><glyph d="M-29 0l799 1434h55l344 -1434h-59l-100 432h-738l-239 -432h-62zM301 483h696l-204 875h-7zM571 1571l256 248h66l178 -248h-53l-158 221l-225 -221h-64zM991 1761l240 258h57l-239 -258h-58z" glyph-name="uni1EA4" horiz-adv-x="1308" unicode="Ấ"/><glyph d="M326 -20q-141 0 -219 63t-78 180q0 135 99 217t275 101l293 34q106 10 146.5 33t50.5 74l8 57q27 160 -43 229.5t-250 69.5q-174 0 -263 -61.5t-109 -183.5l-5 -25h-51l2 25q35 293 436 292q199 0 282 -82.5t52 -267.5l-114 -735h-54l33 215h-6q-45 -78 -180 -156.5 t-305 -78.5zM82 223q0 -195 246 -194q203 0 352 114.5t162 202.5l37 248q-6 -47 -195 -68l-270 -30q-158 -16 -245 -86t-87 -187zM379 1202l256 248h65l179 -248h-54l-157 221l-226 -221h-63zM799 1393l239 258h58l-240 -258h-57z" glyph-name="uni1EA5" horiz-adv-x="1048" unicode="ấ"/><glyph d="M-29 0l799 1434h55l344 -1434h-59l-100 432h-738l-239 -432h-62zM301 483h696l-204 875h-7zM571 1571l256 248h66l178 -248h-53l-158 221l-225 -221h-64zM874 2015h54l162 -256h-54z" glyph-name="uni1EA6" horiz-adv-x="1308" unicode="Ầ"/><glyph d="M326 -20q-141 0 -219 63t-78 180q0 135 99 217t275 101l293 34q106 10 146.5 33t50.5 74l8 57q27 160 -43 229.5t-250 69.5q-174 0 -263 -61.5t-109 -183.5l-5 -25h-51l2 25q35 293 436 292q199 0 282 -82.5t52 -267.5l-114 -735h-54l33 215h-6q-45 -78 -180 -156.5 t-305 -78.5zM82 223q0 -195 246 -194q203 0 352 114.5t162 202.5l37 248q-6 -47 -195 -68l-270 -30q-158 -16 -245 -86t-87 -187zM379 1202l256 248h65l179 -248h-54l-157 221l-226 -221h-63zM682 1647h53l162 -256h-53z" glyph-name="uni1EA7" horiz-adv-x="1048" unicode="ầ"/><glyph d="M-29 0l799 1434h55l344 -1434h-59l-100 432h-738l-239 -432h-62zM301 483h696l-204 875h-7zM571 1571l256 248h66l178 -248h-53l-158 221l-225 -221h-64zM856 2023q0 72 51 116t121 44q74 0 127 -49t53 -131q0 -84 -52 -134t-120 -54l-28 38q70 2 112.5 40t42.5 106 q0 66 -36.5 103.5t-98.5 37.5q-55 0 -90 -30.5t-37 -86.5h-45z" glyph-name="uni1EA8" horiz-adv-x="1308" unicode="Ẩ"/><glyph d="M326 -20q-141 0 -219 63t-78 180q0 135 99 217t275 101l293 34q106 10 146.5 33t50.5 74l8 57q27 160 -43 229.5t-250 69.5q-174 0 -263 -61.5t-109 -183.5l-5 -25h-51l2 25q35 293 436 292q199 0 282 -82.5t52 -267.5l-114 -735h-54l33 215h-6q-45 -78 -180 -156.5 t-305 -78.5zM82 223q0 -195 246 -194q203 0 352 114.5t162 202.5l37 248q-6 -47 -195 -68l-270 -30q-158 -16 -245 -86t-87 -187zM379 1202l256 248h65l179 -248h-54l-157 221l-226 -221h-63zM664 1655q0 72 51 116t121 44q74 0 127 -49.5t53 -131.5q0 -84 -52.5 -134 t-119.5 -54l-29 39q70 2 113 40t43 105q0 66 -37 104t-98 38q-55 0 -90 -31t-37 -86h-45z" glyph-name="uni1EA9" horiz-adv-x="1048" unicode="ẩ"/><glyph d="M-29 0l799 1434h55l344 -1434h-59l-100 432h-738l-239 -432h-62zM301 483h696l-204 875h-7zM571 1571l256 248h66l178 -248h-53l-158 221l-225 -221h-64zM594 1987q27 164 166 163q47 0 85 -24.5t59.5 -54t56 -54t75.5 -24.5q59 0 86 36.5t31 77.5h49q-12 -82 -58 -121.5 t-108 -39.5q-47 0 -86 24.5t-60.5 54t-56 54t-75.5 24.5q-57 0 -85 -36.5t-32 -79.5h-47z" glyph-name="uni1EAA" horiz-adv-x="1308" unicode="Ẫ"/><glyph d="M326 -20q-141 0 -219 63t-78 180q0 135 99 217t275 101l293 34q106 10 146.5 33t50.5 74l8 57q27 160 -43 229.5t-250 69.5q-174 0 -263 -61.5t-109 -183.5l-5 -25h-51l2 25q35 293 436 292q199 0 282 -82.5t52 -267.5l-114 -735h-54l33 215h-6q-45 -78 -180 -156.5 t-305 -78.5zM82 223q0 -195 246 -194q203 0 352 114.5t162 202.5l37 248q-6 -47 -195 -68l-270 -30q-158 -16 -245 -86t-87 -187zM379 1202l256 248h65l179 -248h-54l-157 221l-226 -221h-63zM401 1618q27 164 166 164q47 0 85 -24.5t59.5 -54.5t56.5 -54.5t76 -24.5 q59 0 85.5 37t31.5 78h49q-12 -82 -58.5 -122t-107.5 -40q-47 0 -86 24.5t-60.5 54.5t-56.5 54.5t-76 24.5q-57 0 -84.5 -37t-31.5 -80h-48z" glyph-name="uni1EAB" horiz-adv-x="1048" unicode="ẫ"/><glyph d="M-29 0l799 1434h55l344 -1434h-59l-100 432h-738l-239 -432h-62zM301 483h696l-204 875h-7zM451 -408q0 25 18 44.5t45 19.5q25 0 43 -19.5t18 -44.5q0 -27 -18 -45t-43 -18q-27 0 -45 18t-18 45zM571 1571l256 248h66l178 -248h-53l-158 221l-225 -221h-64z" glyph-name="uni1EAC" horiz-adv-x="1308" unicode="Ậ"/><glyph d="M326 -20q-141 0 -219 63t-78 180q0 135 99 217t275 101l293 34q106 10 146.5 33t50.5 74l8 57q27 160 -43 229.5t-250 69.5q-174 0 -263 -61.5t-109 -183.5l-5 -25h-51l2 25q35 293 436 292q199 0 282 -82.5t52 -267.5l-114 -735h-54l33 215h-6q-45 -78 -180 -156.5 t-305 -78.5zM82 223q0 -195 246 -194q203 0 352 114.5t162 202.5l37 248q-6 -47 -195 -68l-270 -30q-158 -16 -245 -86t-87 -187zM322 -408q0 25 18 44.5t45 19.5q25 0 43 -19.5t18 -44.5q0 -27 -18 -45t-43 -18q-27 0 -45 18t-18 45zM379 1202l256 248h65l179 -248h-54 l-157 221l-226 -221h-63z" glyph-name="uni1EAD" horiz-adv-x="1048" unicode="ậ"/><glyph d="M-29 0l799 1434h55l344 -1434h-59l-100 432h-738l-239 -432h-62zM301 483h696l-204 875h-7zM614 1819h45q-23 -178 175 -179q199 0 225 179h47q-14 -92 -79.5 -157t-197.5 -65q-133 0 -181 66t-34 156zM825 1884l240 258h57l-239 -258h-58z" glyph-name="uni1EAE" horiz-adv-x="1308" unicode="Ắ"/><glyph d="M326 -20q-141 0 -219 63t-78 180q0 135 99 217t275 101l293 34q106 10 146.5 33t50.5 74l8 57q27 160 -43 229.5t-250 69.5q-174 0 -263 -61.5t-109 -183.5l-5 -25h-51l2 25q35 293 436 292q199 0 282 -82.5t52 -267.5l-114 -735h-54l33 215h-6q-45 -78 -180 -156.5 t-305 -78.5zM82 223q0 -195 246 -194q203 0 352 114.5t162 202.5l37 248q-6 -47 -195 -68l-270 -30q-158 -16 -245 -86t-87 -187zM424 1450h45q-23 -178 174 -178q199 0 225 178h47q-14 -92 -79.5 -156.5t-196.5 -64.5q-133 0 -181 65.5t-34 155.5zM635 1516l239 258h58 l-240 -258h-57z" glyph-name="uni1EAF" horiz-adv-x="1048" unicode="ắ"/><glyph d="M-29 0l799 1434h55l344 -1434h-59l-100 432h-738l-239 -432h-62zM301 483h696l-204 875h-7zM614 1819h45q-23 -178 175 -179q199 0 225 179h47q-14 -92 -79.5 -157t-197.5 -65q-133 0 -181 66t-34 156zM672 2142h49l168 -258h-51z" glyph-name="uni1EB0" horiz-adv-x="1308" unicode="Ằ"/><glyph d="M326 -20q-141 0 -219 63t-78 180q0 135 99 217t275 101l293 34q106 10 146.5 33t50.5 74l8 57q27 160 -43 229.5t-250 69.5q-174 0 -263 -61.5t-109 -183.5l-5 -25h-51l2 25q35 293 436 292q199 0 282 -82.5t52 -267.5l-114 -735h-54l33 215h-6q-45 -78 -180 -156.5 t-305 -78.5zM82 223q0 -195 246 -194q203 0 352 114.5t162 202.5l37 248q-6 -47 -195 -68l-270 -30q-158 -16 -245 -86t-87 -187zM424 1450h45q-23 -178 174 -178q199 0 225 178h47q-14 -92 -79.5 -156.5t-196.5 -64.5q-133 0 -181 65.5t-34 155.5zM481 1774h49l168 -258 h-51z" glyph-name="uni1EB1" horiz-adv-x="1048" unicode="ằ"/><glyph d="M-29 0l799 1434h55l344 -1434h-59l-100 432h-738l-239 -432h-62zM301 483h696l-204 875h-7zM614 1819h45q-23 -178 175 -179q199 0 225 179h47q-14 -92 -79.5 -157t-197.5 -65q-133 0 -181 66t-34 156zM659 2011q0 72 51.5 116t120.5 44q74 0 127.5 -49t53.5 -131 q0 -84 -52.5 -134.5t-119.5 -54.5l-29 39q70 2 113 40t43 106q0 66 -37 103.5t-99 37.5q-55 0 -89.5 -31t-36.5 -86h-46z" glyph-name="uni1EB2" horiz-adv-x="1308" unicode="Ẳ"/><glyph d="M326 -20q-141 0 -219 63t-78 180q0 135 99 217t275 101l293 34q106 10 146.5 33t50.5 74l8 57q27 160 -43 229.5t-250 69.5q-174 0 -263 -61.5t-109 -183.5l-5 -25h-51l2 25q35 293 436 292q199 0 282 -82.5t52 -267.5l-114 -735h-54l33 215h-6q-45 -78 -180 -156.5 t-305 -78.5zM82 223q0 -195 246 -194q203 0 352 114.5t162 202.5l37 248q-6 -47 -195 -68l-270 -30q-158 -16 -245 -86t-87 -187zM424 1450h45q-23 -178 174 -178q199 0 225 178h47q-14 -92 -79.5 -156.5t-196.5 -64.5q-133 0 -181 65.5t-34 155.5zM469 1642q0 72 51 116 t121 44q74 0 127 -49t53 -131q0 -84 -52 -134t-120 -54l-28 39q70 2 112.5 39.5t42.5 105.5q0 66 -37 103.5t-98 37.5q-55 0 -90 -30.5t-37 -86.5h-45z" glyph-name="uni1EB3" horiz-adv-x="1048" unicode="ẳ"/><glyph d="M-29 0l799 1434h55l344 -1434h-59l-100 432h-738l-239 -432h-62zM301 483h696l-204 875h-7zM588 1997q27 164 166 164q74 0 144.5 -79t131.5 -79q59 0 86 37t31 78h49q-12 -82 -58 -122t-108 -40q-47 0 -86 24.5t-60.5 54t-56 54.5t-75.5 25q-57 0 -85 -37t-32 -80h-47z M614 1819h45q-23 -178 175 -179q199 0 225 179h47q-14 -92 -79.5 -157t-197.5 -65q-133 0 -181 66t-34 156z" glyph-name="uni1EB4" horiz-adv-x="1308" unicode="Ẵ"/><glyph d="M326 -20q-141 0 -219 63t-78 180q0 135 99 217t275 101l293 34q106 10 146.5 33t50.5 74l8 57q27 160 -43 229.5t-250 69.5q-174 0 -263 -61.5t-109 -183.5l-5 -25h-51l2 25q35 293 436 292q199 0 282 -82.5t52 -267.5l-114 -735h-54l33 215h-6q-45 -78 -180 -156.5 t-305 -78.5zM82 223q0 -195 246 -194q203 0 352 114.5t162 202.5l37 248q-6 -47 -195 -68l-270 -30q-158 -16 -245 -86t-87 -187zM397 1628q27 164 166 164q47 0 85 -24.5t59.5 -54.5t56.5 -54.5t76 -24.5q59 0 85.5 37t30.5 78h50q-12 -82 -58.5 -122t-107.5 -40 q-47 0 -86 24.5t-60.5 54.5t-56.5 54.5t-76 24.5q-57 0 -84.5 -37t-32.5 -80h-47zM424 1450h45q-23 -178 174 -178q199 0 225 178h47q-14 -92 -79.5 -156.5t-196.5 -64.5q-133 0 -181 65.5t-34 155.5z" glyph-name="uni1EB5" horiz-adv-x="1048" unicode="ẵ"/><glyph d="M-29 0l799 1434h55l344 -1434h-59l-100 432h-738l-239 -432h-62zM301 483h696l-204 875h-7zM451 -408q0 25 18 44.5t45 19.5q25 0 43 -19.5t18 -44.5q0 -27 -18 -45t-43 -18q-27 0 -45 18t-18 45zM614 1819h45q-23 -178 175 -179q199 0 225 179h47q-14 -92 -79.5 -157 t-197.5 -65q-133 0 -181 66t-34 156z" glyph-name="uni1EB6" horiz-adv-x="1308" unicode="Ặ"/><glyph d="M326 -20q-141 0 -219 63t-78 180q0 135 99 217t275 101l293 34q106 10 146.5 33t50.5 74l8 57q27 160 -43 229.5t-250 69.5q-174 0 -263 -61.5t-109 -183.5l-5 -25h-51l2 25q35 293 436 292q199 0 282 -82.5t52 -267.5l-114 -735h-54l33 215h-6q-45 -78 -180 -156.5 t-305 -78.5zM82 223q0 -195 246 -194q203 0 352 114.5t162 202.5l37 248q-6 -47 -195 -68l-270 -30q-158 -16 -245 -86t-87 -187zM322 -408q0 25 18 44.5t45 19.5q25 0 43 -19.5t18 -44.5q0 -27 -18 -45t-43 -18q-27 0 -45 18t-18 45zM424 1450h45q-23 -178 174 -178 q199 0 225 178h47q-14 -92 -79.5 -156.5t-196.5 -64.5q-133 0 -181 65.5t-34 155.5z" glyph-name="uni1EB7" horiz-adv-x="1048" unicode="ặ"/><glyph d="M43 0l227 1434h856l-10 -54h-799l-94 -608h738l-9 -55h-737l-109 -664h820l-6 -53h-877zM334 -408q0 25 18.5 44.5t44.5 19.5q25 0 43.5 -19.5t18.5 -44.5q0 -27 -18.5 -45t-43.5 -18q-27 0 -45 18t-18 45z" glyph-name="uni1EB8" horiz-adv-x="1079" unicode="Ẹ"/><glyph d="M481 -18q-201 0 -307 109.5t-106 326.5q0 129 37.5 247.5t107.5 213t179.5 150.5t240.5 56q178 0 278.5 -100t100.5 -274q0 -129 -27 -195h-858q-6 -49 -6 -100q0 -383 360 -383q285 0 400 231h55q-138 -282 -455 -282zM135 565h809q49 229 -44 349t-275 120 q-199 0 -326 -133t-164 -336zM326 -408q0 25 18 44.5t45 19.5q25 0 43.5 -19.5t18.5 -44.5q0 -27 -18.5 -45t-43.5 -18q-27 0 -45 18t-18 45z" glyph-name="uni1EB9" horiz-adv-x="1069" unicode="ẹ"/><glyph d="M43 0l227 1434h856l-10 -54h-799l-94 -608h738l-9 -55h-737l-109 -664h820l-6 -53h-877zM532 1735q0 72 51.5 115.5t121.5 43.5q74 0 127 -49t53 -131q0 -84 -52.5 -134t-119.5 -54l-29 39q70 2 113 39.5t43 105.5q0 66 -37 103.5t-98 37.5q-55 0 -90 -30.5t-37 -85.5 h-46z" glyph-name="uni1EBA" horiz-adv-x="1079" unicode="Ẻ"/><glyph d="M481 -18q-201 0 -307 109.5t-106 326.5q0 129 37.5 247.5t107.5 213t179.5 150.5t240.5 56q178 0 278.5 -100t100.5 -274q0 -129 -27 -195h-858q-6 -49 -6 -100q0 -383 360 -383q285 0 400 231h55q-138 -282 -455 -282zM135 565h809q49 229 -44 349t-275 120 q-199 0 -326 -133t-164 -336zM477 1366q0 72 51.5 116t120.5 44q74 0 127 -49.5t53 -130.5q0 -84 -52 -134.5t-120 -54.5l-28 39q70 2 112.5 40t42.5 105q0 66 -36.5 104t-98.5 38q-55 0 -90 -31t-37 -86h-45z" glyph-name="uni1EBB" horiz-adv-x="1069" unicode="ẻ"/><glyph d="M43 0l227 1434h856l-10 -54h-799l-94 -608h738l-9 -55h-737l-109 -664h820l-6 -53h-877zM422 1673q27 164 166 164q47 0 85 -24.5t59.5 -54t56 -54.5t75.5 -25q59 0 86 37t31 78h49q-12 -82 -58 -122t-108 -40q-47 0 -86 24.5t-60.5 54.5t-56 54.5t-75.5 24.5 q-57 0 -85 -37t-32 -80h-47z" glyph-name="uni1EBC" horiz-adv-x="1079" unicode="Ẽ"/><glyph d="M481 -18q-201 0 -307 109.5t-106 326.5q0 129 37.5 247.5t107.5 213t179.5 150.5t240.5 56q178 0 278.5 -100t100.5 -274q0 -129 -27 -195h-858q-6 -49 -6 -100q0 -383 360 -383q285 0 400 231h55q-138 -282 -455 -282zM135 565h809q49 229 -44 349t-275 120 q-199 0 -326 -133t-164 -336zM365 1305q27 164 165 163q47 0 85 -24.5t59.5 -54t56.5 -54t76 -24.5q59 0 86 36.5t31 77.5h49q-12 -82 -58.5 -121.5t-107.5 -39.5q-47 0 -86 24.5t-60.5 54t-56.5 54t-76 24.5q-57 0 -84.5 -36.5t-31.5 -79.5h-47z" glyph-name="uni1EBD" horiz-adv-x="1069" unicode="ẽ"/><glyph d="M43 0l227 1434h856l-10 -54h-799l-94 -608h738l-9 -55h-737l-109 -664h820l-6 -53h-877zM453 1571l256 248h65l178 -248h-53l-158 221l-225 -221h-63zM872 1761l240 258h57l-239 -258h-58z" glyph-name="uni1EBE" horiz-adv-x="1079" unicode="Ế"/><glyph d="M481 -18q-201 0 -307 109.5t-106 326.5q0 129 37.5 247.5t107.5 213t179.5 150.5t240.5 56q178 0 278.5 -100t100.5 -274q0 -129 -27 -195h-858q-6 -49 -6 -100q0 -383 360 -383q285 0 400 231h55q-138 -282 -455 -282zM135 565h809q49 229 -44 349t-275 120 q-199 0 -326 -133t-164 -336zM397 1202l256 248h66l178 -248h-53l-158 221l-225 -221h-64zM817 1393l240 258h57l-240 -258h-57z" glyph-name="uni1EBF" horiz-adv-x="1069" unicode="ế"/><glyph d="M43 0l227 1434h856l-10 -54h-799l-94 -608h738l-9 -55h-737l-109 -664h820l-6 -53h-877zM453 1571l256 248h65l178 -248h-53l-158 221l-225 -221h-63zM756 2015h53l162 -256h-53z" glyph-name="uni1EC0" horiz-adv-x="1079" unicode="Ề"/><glyph d="M481 -18q-201 0 -307 109.5t-106 326.5q0 129 37.5 247.5t107.5 213t179.5 150.5t240.5 56q178 0 278.5 -100t100.5 -274q0 -129 -27 -195h-858q-6 -49 -6 -100q0 -383 360 -383q285 0 400 231h55q-138 -282 -455 -282zM135 565h809q49 229 -44 349t-275 120 q-199 0 -326 -133t-164 -336zM397 1202l256 248h66l178 -248h-53l-158 221l-225 -221h-64zM700 1647h54l161 -256h-53z" glyph-name="uni1EC1" horiz-adv-x="1069" unicode="ề"/><glyph d="M43 0l227 1434h856l-10 -54h-799l-94 -608h738l-9 -55h-737l-109 -664h820l-6 -53h-877zM453 1571l256 248h65l178 -248h-53l-158 221l-225 -221h-63zM737 2023q0 72 51.5 116t120.5 44q74 0 127.5 -49t53.5 -131q0 -84 -52.5 -134t-119.5 -54l-29 38q70 2 112.5 40 t42.5 106q0 66 -36.5 103.5t-98.5 37.5q-55 0 -90 -30.5t-37 -86.5h-45z" glyph-name="uni1EC2" horiz-adv-x="1079" unicode="Ể"/><glyph d="M481 -18q-201 0 -307 109.5t-106 326.5q0 129 37.5 247.5t107.5 213t179.5 150.5t240.5 56q178 0 278.5 -100t100.5 -274q0 -129 -27 -195h-858q-6 -49 -6 -100q0 -383 360 -383q285 0 400 231h55q-138 -282 -455 -282zM135 565h809q49 229 -44 349t-275 120 q-199 0 -326 -133t-164 -336zM397 1202l256 248h66l178 -248h-53l-158 221l-225 -221h-64zM682 1655q0 72 51 116t121 44q74 0 127 -49.5t53 -131.5q0 -84 -52 -134t-120 -54l-28 39q70 2 112.5 40t42.5 105q0 66 -37 104t-98 38q-55 0 -90 -31t-37 -86h-45z" glyph-name="uni1EC3" horiz-adv-x="1069" unicode="ể"/><glyph d="M43 0l227 1434h856l-10 -54h-799l-94 -608h738l-9 -55h-737l-109 -664h820l-6 -53h-877zM453 1571l256 248h65l178 -248h-53l-158 221l-225 -221h-63zM475 1987q27 164 166 163q47 0 85 -24.5t59.5 -54t56.5 -54t76 -24.5q59 0 85.5 36.5t30.5 77.5h49 q-12 -82 -58 -121.5t-107 -39.5q-47 0 -86 24.5t-60.5 54t-56.5 54t-76 24.5q-57 0 -85 -36.5t-32 -79.5h-47z" glyph-name="uni1EC4" horiz-adv-x="1079" unicode="Ễ"/><glyph d="M481 -18q-201 0 -307 109.5t-106 326.5q0 129 37.5 247.5t107.5 213t179.5 150.5t240.5 56q178 0 278.5 -100t100.5 -274q0 -129 -27 -195h-858q-6 -49 -6 -100q0 -383 360 -383q285 0 400 231h55q-138 -282 -455 -282zM135 565h809q49 229 -44 349t-275 120 q-199 0 -326 -133t-164 -336zM397 1202l256 248h66l178 -248h-53l-158 221l-225 -221h-64zM420 1618q27 164 166 164q47 0 85 -24.5t59.5 -54.5t56 -54.5t75.5 -24.5q59 0 86 37t31 78h49q-12 -82 -58 -122t-108 -40q-47 0 -86 24.5t-60.5 54.5t-56 54.5t-75.5 24.5 q-57 0 -85 -37t-32 -80h-47z" glyph-name="uni1EC5" horiz-adv-x="1069" unicode="ễ"/><glyph d="M43 0l227 1434h856l-10 -54h-799l-94 -608h738l-9 -55h-737l-109 -664h820l-6 -53h-877zM334 -408q0 25 18.5 44.5t44.5 19.5q25 0 43.5 -19.5t18.5 -44.5q0 -27 -18.5 -45t-43.5 -18q-27 0 -45 18t-18 45zM453 1571l256 248h65l178 -248h-53l-158 221l-225 -221h-63z " glyph-name="uni1EC6" horiz-adv-x="1079" unicode="Ệ"/><glyph d="M481 -18q-201 0 -307 109.5t-106 326.5q0 129 37.5 247.5t107.5 213t179.5 150.5t240.5 56q178 0 278.5 -100t100.5 -274q0 -129 -27 -195h-858q-6 -49 -6 -100q0 -383 360 -383q285 0 400 231h55q-138 -282 -455 -282zM135 565h809q49 229 -44 349t-275 120 q-199 0 -326 -133t-164 -336zM326 -408q0 25 18 44.5t45 19.5q25 0 43.5 -19.5t18.5 -44.5q0 -27 -18.5 -45t-43.5 -18q-27 0 -45 18t-18 45zM397 1202l256 248h66l178 -248h-53l-158 221l-225 -221h-64z" glyph-name="uni1EC7" horiz-adv-x="1069" unicode="ệ"/><glyph d="M43 0l227 1434h58l-228 -1434h-57zM150 1735q0 72 51 115.5t121 43.5q74 0 127 -49t53 -131q0 -84 -52.5 -134t-119.5 -54l-29 39q70 2 113 39.5t43 105.5q0 66 -37 103.5t-98 37.5q-55 0 -90 -30.5t-37 -85.5h-45z" glyph-name="uni1EC8" horiz-adv-x="311" unicode="Ỉ"/><glyph d="M16 0l168 1065h54l-168 -1065h-54zM63 1366q0 72 51.5 116t121.5 44q74 0 127 -49.5t53 -130.5q0 -84 -52.5 -134.5t-119.5 -54.5l-29 39q70 2 113 40t43 105q0 66 -37 104t-98 38q-55 0 -90 -31t-37 -86h-46z" glyph-name="uni1EC9" horiz-adv-x="253" unicode="ỉ"/><glyph d="M43 0l227 1434h58l-228 -1434h-57zM-49 -408q0 25 18.5 44.5t44.5 19.5q25 0 43.5 -19.5t18.5 -44.5q0 -27 -18.5 -45t-43.5 -18q-27 0 -45 18t-18 45z" glyph-name="uni1ECA" horiz-adv-x="311" unicode="Ị"/><glyph d="M43 0l168 1065h53l-168 -1065h-53zM-45 -408q0 25 18.5 44.5t44.5 19.5q25 0 43.5 -19.5t18.5 -44.5q0 -27 -18.5 -45t-43.5 -18q-27 0 -45 18t-18 45zM240 1401q0 20 15 36.5t37.5 16.5t38 -15.5t15.5 -38t-15.5 -38.5t-37.5 -16q-20 0 -36.5 16t-16.5 39z" glyph-name="uni1ECB" horiz-adv-x="309" unicode="ị"/><glyph d="M641 -20q-238 0 -381 145t-143 438q0 233 85 433t258 328t398 128q238 0 382 -146.5t144 -441.5q0 -229 -86 -428.5t-259 -327.5t-398 -128zM168 563q0 -268 130 -400t345 -132q211 0 372 122.5t239.5 310t78.5 400.5q0 270 -130 403.5t-345 133.5q-160 0 -293 -72 t-219 -189.5t-132 -267t-46 -309.5zM516 -408q0 25 18.5 44.5t45.5 19.5q25 0 43 -19.5t18 -44.5q0 -27 -18.5 -45t-42.5 -18q-27 0 -45.5 18t-18.5 45z" glyph-name="uni1ECC" horiz-adv-x="1441" unicode="Ọ"/><glyph d="M489 -20q-184 0 -302.5 112.5t-118.5 331.5q0 266 162.5 463.5t418.5 197.5q184 0 303 -112.5t119 -331.5q0 -266 -163 -463.5t-419 -197.5zM123 426q0 -201 104.5 -300t266.5 -99q227 0 374.5 183t147.5 429q0 201 -104.5 300t-266.5 99q-227 0 -374.5 -183t-147.5 -429 zM365 -408q0 25 18 44.5t45 19.5q25 0 43 -19.5t18 -44.5q0 -27 -18 -45t-43 -18q-27 0 -45 18t-18 45z" glyph-name="uni1ECD" horiz-adv-x="1138" unicode="ọ"/><glyph d="M641 -20q-238 0 -381 145t-143 438q0 233 85 433t258 328t398 128q238 0 382 -146.5t144 -441.5q0 -229 -86 -428.5t-259 -327.5t-398 -128zM168 563q0 -268 130 -400t345 -132q211 0 372 122.5t239.5 310t78.5 400.5q0 270 -130 403.5t-345 133.5q-160 0 -293 -72 t-219 -189.5t-132 -267t-46 -309.5zM715 1735q0 72 51 115.5t121 43.5q74 0 127 -49t53 -131q0 -84 -52 -134t-120 -54l-29 39q70 2 113 39.5t43 105.5q0 66 -37 103.5t-98 37.5q-55 0 -90 -30.5t-37 -85.5h-45z" glyph-name="uni1ECE" horiz-adv-x="1441" unicode="Ỏ"/><glyph d="M489 -20q-184 0 -302.5 112.5t-118.5 331.5q0 266 162.5 463.5t418.5 197.5q184 0 303 -112.5t119 -331.5q0 -266 -163 -463.5t-419 -197.5zM123 426q0 -201 104.5 -300t266.5 -99q227 0 374.5 183t147.5 429q0 201 -104.5 300t-266.5 99q-227 0 -374.5 -183t-147.5 -429 zM504 1366q0 72 51 116t121 44q74 0 127 -49.5t53 -130.5q0 -84 -52 -134.5t-120 -54.5l-29 39q70 2 113 40t43 105q0 66 -37 104t-98 38q-55 0 -90 -31t-37 -86h-45z" glyph-name="uni1ECF" horiz-adv-x="1138" unicode="ỏ"/><glyph d="M641 -20q-238 0 -381 145t-143 438q0 233 85 433t258 328t398 128q238 0 382 -146.5t144 -441.5q0 -229 -86 -428.5t-259 -327.5t-398 -128zM168 563q0 -268 130 -400t345 -132q211 0 372 122.5t239.5 310t78.5 400.5q0 270 -130 403.5t-345 133.5q-160 0 -293 -72 t-219 -189.5t-132 -267t-46 -309.5zM635 1571l256 248h65l179 -248h-54l-157 221l-226 -221h-63zM1055 1761l239 258h58l-240 -258h-57z" glyph-name="uni1ED0" horiz-adv-x="1441" unicode="Ố"/><glyph d="M489 -20q-184 0 -302.5 112.5t-118.5 331.5q0 266 162.5 463.5t418.5 197.5q184 0 303 -112.5t119 -331.5q0 -266 -163 -463.5t-419 -197.5zM123 426q0 -201 104.5 -300t266.5 -99q227 0 374.5 183t147.5 429q0 201 -104.5 300t-266.5 99q-227 0 -374.5 -183t-147.5 -429 zM424 1202l256 248h65l179 -248h-54l-157 221l-226 -221h-63zM844 1393l239 258h58l-240 -258h-57z" glyph-name="uni1ED1" horiz-adv-x="1138" unicode="ố"/><glyph d="M641 -20q-238 0 -381 145t-143 438q0 233 85 433t258 328t398 128q238 0 382 -146.5t144 -441.5q0 -229 -86 -428.5t-259 -327.5t-398 -128zM168 563q0 -268 130 -400t345 -132q211 0 372 122.5t239.5 310t78.5 400.5q0 270 -130 403.5t-345 133.5q-160 0 -293 -72 t-219 -189.5t-132 -267t-46 -309.5zM635 1571l256 248h65l179 -248h-54l-157 221l-226 -221h-63zM938 2015h53l162 -256h-53z" glyph-name="uni1ED2" horiz-adv-x="1441" unicode="Ồ"/><glyph d="M489 -20q-184 0 -302.5 112.5t-118.5 331.5q0 266 162.5 463.5t418.5 197.5q184 0 303 -112.5t119 -331.5q0 -266 -163 -463.5t-419 -197.5zM123 426q0 -201 104.5 -300t266.5 -99q227 0 374.5 183t147.5 429q0 201 -104.5 300t-266.5 99q-227 0 -374.5 -183t-147.5 -429 zM424 1202l256 248h65l179 -248h-54l-157 221l-226 -221h-63zM727 1647h53l162 -256h-53z" glyph-name="uni1ED3" horiz-adv-x="1138" unicode="ồ"/><glyph d="M641 -20q-238 0 -381 145t-143 438q0 233 85 433t258 328t398 128q238 0 382 -146.5t144 -441.5q0 -229 -86 -428.5t-259 -327.5t-398 -128zM168 563q0 -268 130 -400t345 -132q211 0 372 122.5t239.5 310t78.5 400.5q0 270 -130 403.5t-345 133.5q-160 0 -293 -72 t-219 -189.5t-132 -267t-46 -309.5zM635 1571l256 248h65l179 -248h-54l-157 221l-226 -221h-63zM920 2023q0 72 51 116t121 44q74 0 127 -49t53 -131q0 -84 -52.5 -134t-119.5 -54l-29 38q70 2 113 40t43 106q0 66 -37 103.5t-98 37.5q-55 0 -90 -30.5t-37 -86.5h-45z" glyph-name="uni1ED4" horiz-adv-x="1441" unicode="Ổ"/><glyph d="M489 -20q-184 0 -302.5 112.5t-118.5 331.5q0 266 162.5 463.5t418.5 197.5q184 0 303 -112.5t119 -331.5q0 -266 -163 -463.5t-419 -197.5zM123 426q0 -201 104.5 -300t266.5 -99q227 0 374.5 183t147.5 429q0 201 -104.5 300t-266.5 99q-227 0 -374.5 -183t-147.5 -429 zM424 1202l256 248h65l179 -248h-54l-157 221l-226 -221h-63zM709 1655q0 72 51 116t121 44q74 0 127 -49.5t53 -131.5q0 -84 -52.5 -134t-119.5 -54l-29 39q70 2 113 40t43 105q0 66 -37 104t-98 38q-55 0 -90 -31t-37 -86h-45z" glyph-name="uni1ED5" horiz-adv-x="1138" unicode="ổ"/><glyph d="M641 -20q-238 0 -381 145t-143 438q0 233 85 433t258 328t398 128q238 0 382 -146.5t144 -441.5q0 -229 -86 -428.5t-259 -327.5t-398 -128zM168 563q0 -268 130 -400t345 -132q211 0 372 122.5t239.5 310t78.5 400.5q0 270 -130 403.5t-345 133.5q-160 0 -293 -72 t-219 -189.5t-132 -267t-46 -309.5zM635 1571l256 248h65l179 -248h-54l-157 221l-226 -221h-63zM657 1987q27 164 166 163q47 0 85 -24.5t59.5 -54t56.5 -54t76 -24.5q59 0 85.5 36.5t31.5 77.5h49q-12 -82 -58.5 -121.5t-107.5 -39.5q-47 0 -86 24.5t-60.5 54t-56.5 54 t-76 24.5q-57 0 -84.5 -36.5t-31.5 -79.5h-48z" glyph-name="uni1ED6" horiz-adv-x="1441" unicode="Ỗ"/><glyph d="M489 -20q-184 0 -302.5 112.5t-118.5 331.5q0 266 162.5 463.5t418.5 197.5q184 0 303 -112.5t119 -331.5q0 -266 -163 -463.5t-419 -197.5zM123 426q0 -201 104.5 -300t266.5 -99q227 0 374.5 183t147.5 429q0 201 -104.5 300t-266.5 99q-227 0 -374.5 -183t-147.5 -429 zM424 1202l256 248h65l179 -248h-54l-157 221l-226 -221h-63zM446 1618q27 164 166 164q47 0 85 -24.5t59.5 -54.5t56.5 -54.5t76 -24.5q59 0 85.5 37t31.5 78h49q-12 -82 -58.5 -122t-107.5 -40q-47 0 -86 24.5t-60.5 54.5t-56.5 54.5t-76 24.5q-57 0 -84.5 -37t-31.5 -80 h-48z" glyph-name="uni1ED7" horiz-adv-x="1138" unicode="ỗ"/><glyph d="M641 -20q-238 0 -381 145t-143 438q0 233 85 433t258 328t398 128q238 0 382 -146.5t144 -441.5q0 -229 -86 -428.5t-259 -327.5t-398 -128zM168 563q0 -268 130 -400t345 -132q211 0 372 122.5t239.5 310t78.5 400.5q0 270 -130 403.5t-345 133.5q-160 0 -293 -72 t-219 -189.5t-132 -267t-46 -309.5zM516 -408q0 25 18.5 44.5t45.5 19.5q25 0 43 -19.5t18 -44.5q0 -27 -18.5 -45t-42.5 -18q-27 0 -45.5 18t-18.5 45zM635 1571l256 248h65l179 -248h-54l-157 221l-226 -221h-63z" glyph-name="uni1ED8" horiz-adv-x="1441" unicode="Ộ"/><glyph d="M489 -20q-184 0 -302.5 112.5t-118.5 331.5q0 266 162.5 463.5t418.5 197.5q184 0 303 -112.5t119 -331.5q0 -266 -163 -463.5t-419 -197.5zM123 426q0 -201 104.5 -300t266.5 -99q227 0 374.5 183t147.5 429q0 201 -104.5 300t-266.5 99q-227 0 -374.5 -183t-147.5 -429 zM365 -408q0 25 18 44.5t45 19.5q25 0 43 -19.5t18 -44.5q0 -27 -18 -45t-43 -18q-27 0 -45 18t-18 45zM424 1202l256 248h65l179 -248h-54l-157 221l-226 -221h-63z" glyph-name="uni1ED9" horiz-adv-x="1138" unicode="ộ"/><glyph d="M641 -20q-238 0 -381 145t-143 438q0 233 85 433t258 328t398 128h537l26 162h54l-37 -213h-330q276 -129 276 -537q0 -229 -86 -428.5t-259 -327.5t-398 -128zM168 563q0 -268 130 -400t345 -132q211 0 372 122.5t239.5 310t78.5 400.5q0 270 -130 403.5t-345 133.5 q-160 0 -293 -72t-219 -189.5t-132 -267t-46 -309.5zM842 1561l239 258h58l-240 -258h-57z" glyph-name="uni1EDA" horiz-adv-x="1441" unicode="Ớ"/><glyph d="M489 -20q-184 0 -302.5 112.5t-118.5 331.5q0 266 162.5 463.5t418.5 197.5h348l25 160h51l-31 -205h-186q215 -106 215 -399q0 -266 -163 -463.5t-419 -197.5zM123 426q0 -201 104.5 -300t266.5 -99q227 0 374.5 183t147.5 429q0 201 -104.5 300t-266.5 99 q-227 0 -374.5 -183t-147.5 -429zM631 1192l239 258h58l-240 -258h-57z" glyph-name="uni1EDB" horiz-adv-x="1138" unicode="ớ"/><glyph d="M641 -20q-238 0 -381 145t-143 438q0 233 85 433t258 328t398 128h537l26 162h54l-37 -213h-330q276 -129 276 -537q0 -229 -86 -428.5t-259 -327.5t-398 -128zM168 563q0 -268 130 -400t345 -132q211 0 372 122.5t239.5 310t78.5 400.5q0 270 -130 403.5t-345 133.5 q-160 0 -293 -72t-219 -189.5t-132 -267t-46 -309.5zM688 1819h49l168 -258h-51z" glyph-name="uni1EDC" horiz-adv-x="1441" unicode="Ờ"/><glyph d="M489 -20q-184 0 -302.5 112.5t-118.5 331.5q0 266 162.5 463.5t418.5 197.5h348l25 160h51l-31 -205h-186q215 -106 215 -399q0 -266 -163 -463.5t-419 -197.5zM123 426q0 -201 104.5 -300t266.5 -99q227 0 374.5 183t147.5 429q0 201 -104.5 300t-266.5 99 q-227 0 -374.5 -183t-147.5 -429zM477 1450h49l168 -258h-51z" glyph-name="uni1EDD" horiz-adv-x="1138" unicode="ờ"/><glyph d="M641 -20q-238 0 -381 145t-143 438q0 233 85 433t258 328t398 128h537l26 162h54l-37 -213h-330q276 -129 276 -537q0 -229 -86 -428.5t-259 -327.5t-398 -128zM168 563q0 -268 130 -400t345 -132q211 0 372 122.5t239.5 310t78.5 400.5q0 270 -130 403.5t-345 133.5 q-160 0 -293 -72t-219 -189.5t-132 -267t-46 -309.5zM715 1735q0 72 51 115.5t121 43.5q74 0 127 -49t53 -131q0 -84 -52 -134t-120 -54l-29 39q70 2 113 39.5t43 105.5q0 66 -37 103.5t-98 37.5q-55 0 -90 -30.5t-37 -85.5h-45z" glyph-name="uni1EDE" horiz-adv-x="1441" unicode="Ở"/><glyph d="M489 -20q-184 0 -302.5 112.5t-118.5 331.5q0 266 162.5 463.5t418.5 197.5h348l25 160h51l-31 -205h-186q215 -106 215 -399q0 -266 -163 -463.5t-419 -197.5zM123 426q0 -201 104.5 -300t266.5 -99q227 0 374.5 183t147.5 429q0 201 -104.5 300t-266.5 99 q-227 0 -374.5 -183t-147.5 -429zM504 1366q0 72 51 116t121 44q74 0 127 -49.5t53 -130.5q0 -84 -52 -134.5t-120 -54.5l-29 39q70 2 113 40t43 105q0 66 -37 104t-98 38q-55 0 -90 -31t-37 -86h-45z" glyph-name="uni1EDF" horiz-adv-x="1138" unicode="ở"/><glyph d="M641 -20q-238 0 -381 145t-143 438q0 233 85 433t258 328t398 128h537l26 162h54l-37 -213h-330q276 -129 276 -537q0 -229 -86 -428.5t-259 -327.5t-398 -128zM168 563q0 -268 130 -400t345 -132q211 0 372 122.5t239.5 310t78.5 400.5q0 270 -130 403.5t-345 133.5 q-160 0 -293 -72t-219 -189.5t-132 -267t-46 -309.5zM602 1673q27 164 166 164q47 0 85 -24.5t59.5 -54t56.5 -54.5t75 -25q59 0 86 37t31 78h49q-12 -82 -58 -122t-108 -40q-47 0 -85.5 24.5t-60 54.5t-56.5 54.5t-76 24.5q-57 0 -85 -37t-32 -80h-47z" glyph-name="uni1EE0" horiz-adv-x="1441" unicode="Ỡ"/><glyph d="M489 -20q-184 0 -302.5 112.5t-118.5 331.5q0 266 162.5 463.5t418.5 197.5h348l25 160h51l-31 -205h-186q215 -106 215 -399q0 -266 -163 -463.5t-419 -197.5zM123 426q0 -201 104.5 -300t266.5 -99q227 0 374.5 183t147.5 429q0 201 -104.5 300t-266.5 99 q-227 0 -374.5 -183t-147.5 -429zM393 1305q27 164 166 163q47 0 85 -24.5t59.5 -54t56.5 -54t76 -24.5q59 0 85.5 36.5t30.5 77.5h49q-12 -82 -58 -121.5t-107 -39.5q-47 0 -86 24.5t-60.5 54t-56.5 54t-76 24.5q-57 0 -85 -36.5t-32 -79.5h-47z" glyph-name="uni1EE1" horiz-adv-x="1138" unicode="ỡ"/><glyph d="M641 -20q-238 0 -381 145t-143 438q0 233 85 433t258 328t398 128h537l26 162h54l-37 -213h-330q276 -129 276 -537q0 -229 -86 -428.5t-259 -327.5t-398 -128zM168 563q0 -268 130 -400t345 -132q211 0 372 122.5t239.5 310t78.5 400.5q0 270 -130 403.5t-345 133.5 q-160 0 -293 -72t-219 -189.5t-132 -267t-46 -309.5zM516 -408q0 25 18.5 44.5t45.5 19.5q25 0 43 -19.5t18 -44.5q0 -27 -18.5 -45t-42.5 -18q-27 0 -45.5 18t-18.5 45z" glyph-name="uni1EE2" horiz-adv-x="1441" unicode="Ợ"/><glyph d="M489 -20q-184 0 -302.5 112.5t-118.5 331.5q0 266 162.5 463.5t418.5 197.5h348l25 160h51l-31 -205h-186q215 -106 215 -399q0 -266 -163 -463.5t-419 -197.5zM123 426q0 -201 104.5 -300t266.5 -99q227 0 374.5 183t147.5 429q0 201 -104.5 300t-266.5 99 q-227 0 -374.5 -183t-147.5 -429zM365 -408q0 25 18 44.5t45 19.5q25 0 43 -19.5t18 -44.5q0 -27 -18 -45t-43 -18q-27 0 -45 18t-18 45z" glyph-name="uni1EE3" horiz-adv-x="1138" unicode="ợ"/><glyph d="M565.5 -20q-243.5 0 -360.5 150.5t-76 410.5l141 893h56l-142 -895q-39 -242 65.5 -374t324 -132t358.5 132t176 374l143 895h56l-142 -893q-41 -262 -198.5 -411.5t-401 -149.5zM440 -408q0 25 18.5 44.5t45.5 19.5q25 0 43 -19.5t18 -44.5q0 -27 -18.5 -45t-42.5 -18 q-27 0 -45.5 18t-18.5 45z" glyph-name="uni1EE4" horiz-adv-x="1290" unicode="Ụ"/><glyph d="M162 424q-29 -184 38.5 -288.5t246 -104.5t296 105.5t146.5 279.5l102 649h53l-167 -1065h-54l31 199h-2q-16 -29 -45 -61t-77 -70.5t-125 -63t-165 -24.5q-80 0 -144.5 21.5t-115.5 69.5t-71.5 138t0.5 213l102 643h53zM322 -408q0 25 18 44.5t45 19.5q25 0 43 -19.5 t18 -44.5q0 -27 -18 -45t-43 -18q-27 0 -45 18t-18 45z" glyph-name="uni1EE5" unicode="ụ"/><glyph d="M565.5 -20q-243.5 0 -360.5 150.5t-76 410.5l141 893h56l-142 -895q-39 -242 65.5 -374t324 -132t358.5 132t176 374l143 895h56l-142 -893q-41 -262 -198.5 -411.5t-401 -149.5zM647 1735q0 72 51.5 115.5t120.5 43.5q74 0 127 -49t53 -131q0 -84 -52 -134t-120 -54 l-28 39q70 2 112.5 39.5t42.5 105.5q0 66 -36.5 103.5t-98.5 37.5q-55 0 -90 -30.5t-37 -85.5h-45z" glyph-name="uni1EE6" horiz-adv-x="1290" unicode="Ủ"/><glyph d="M162 424q-29 -184 38.5 -288.5t246 -104.5t296 105.5t146.5 279.5l102 649h53l-167 -1065h-54l31 199h-2q-16 -29 -45 -61t-77 -70.5t-125 -63t-165 -24.5q-80 0 -144.5 21.5t-115.5 69.5t-71.5 138t0.5 213l102 643h53zM469 1366q0 72 51 116t121 44q74 0 127 -49.5 t53 -130.5q0 -84 -52 -134.5t-120 -54.5l-28 39q70 2 112.5 40t42.5 105q0 66 -37 104t-98 38q-55 0 -90 -31t-37 -86h-45z" glyph-name="uni1EE7" unicode="ủ"/><glyph d="M565.5 -20q-243.5 0 -360.5 150.5t-76 410.5l141 893h56l-142 -895q-39 -242 65.5 -374t324 -132t358.5 132t176 374l143 895h170l27 180h53l-26 -180l-9 -56h-168l-133 -837q-41 -262 -198.5 -411.5t-401 -149.5zM766 1561l240 258h57l-240 -258h-57z" glyph-name="uni1EE8" horiz-adv-x="1290" unicode="Ứ"/><glyph d="M162 424q-29 -184 38.5 -288.5t246 -104.5t296 105.5t146.5 279.5l102 649h170l27 180h53l-27 -180l-8 -55h-170l-159 -1010h-54l31 199h-2q-16 -29 -45 -61t-77 -70.5t-125 -63t-165 -24.5q-80 0 -144.5 21.5t-115.5 69.5t-71.5 138t0.5 213l102 643h53zM606 1192 l240 258h57l-239 -258h-58z" glyph-name="uni1EE9" unicode="ứ"/><glyph d="M565.5 -20q-243.5 0 -360.5 150.5t-76 410.5l141 893h56l-142 -895q-39 -242 65.5 -374t324 -132t358.5 132t176 374l143 895h170l27 180h53l-26 -180l-9 -56h-168l-133 -837q-41 -262 -198.5 -411.5t-401 -149.5zM612 1819h50l167 -258h-51z" glyph-name="uni1EEA" horiz-adv-x="1290" unicode="Ừ"/><glyph d="M162 424q-29 -184 38.5 -288.5t246 -104.5t296 105.5t146.5 279.5l102 649h170l27 180h53l-27 -180l-8 -55h-170l-159 -1010h-54l31 199h-2q-16 -29 -45 -61t-77 -70.5t-125 -63t-165 -24.5q-80 0 -144.5 21.5t-115.5 69.5t-71.5 138t0.5 213l102 643h53zM453 1450h49 l168 -258h-52z" glyph-name="uni1EEB" unicode="ừ"/><glyph d="M565.5 -20q-243.5 0 -360.5 150.5t-76 410.5l141 893h56l-142 -895q-39 -242 65.5 -374t324 -132t358.5 132t176 374l143 895h170l27 180h53l-26 -180l-9 -56h-168l-133 -837q-41 -262 -198.5 -411.5t-401 -149.5zM639 1735q0 72 51 115.5t121 43.5q74 0 127 -49t53 -131 q0 -84 -52 -134t-120 -54l-28 39q70 2 112.5 39.5t42.5 105.5q0 66 -37 103.5t-98 37.5q-55 0 -90 -30.5t-37 -85.5h-45z" glyph-name="uni1EEC" horiz-adv-x="1290" unicode="Ử"/><glyph d="M162 424q-29 -184 38.5 -288.5t246 -104.5t296 105.5t146.5 279.5l102 649h170l27 180h53l-27 -180l-8 -55h-170l-159 -1010h-54l31 199h-2q-16 -29 -45 -61t-77 -70.5t-125 -63t-165 -24.5q-80 0 -144.5 21.5t-115.5 69.5t-71.5 138t0.5 213l102 643h53zM481 1366 q0 72 51.5 116t120.5 44q74 0 127.5 -49.5t53.5 -130.5q0 -84 -52.5 -134.5t-119.5 -54.5l-29 39q70 2 112.5 40t42.5 105q0 66 -36.5 104t-98.5 38q-55 0 -90 -31t-37 -86h-45z" glyph-name="uni1EED" unicode="ử"/><glyph d="M565.5 -20q-243.5 0 -360.5 150.5t-76 410.5l141 893h56l-142 -895q-39 -242 65.5 -374t324 -132t358.5 132t176 374l143 895h170l27 180h53l-26 -180l-9 -56h-168l-133 -837q-41 -262 -198.5 -411.5t-401 -149.5zM526 1673q27 164 166 164q47 0 85 -24.5t59.5 -54 t56.5 -54.5t76 -25q59 0 85.5 37t30.5 78h50q-12 -82 -58.5 -122t-107.5 -40q-47 0 -86 24.5t-60.5 54.5t-56.5 54.5t-76 24.5q-57 0 -84.5 -37t-32.5 -80h-47z" glyph-name="uni1EEE" horiz-adv-x="1290" unicode="Ữ"/><glyph d="M162 424q-29 -184 38.5 -288.5t246 -104.5t296 105.5t146.5 279.5l102 649h170l27 180h53l-27 -180l-8 -55h-170l-159 -1010h-54l31 199h-2q-16 -29 -45 -61t-77 -70.5t-125 -63t-165 -24.5q-80 0 -144.5 21.5t-115.5 69.5t-71.5 138t0.5 213l102 643h53zM369 1305 q27 164 166 163q47 0 84.5 -24.5t59 -54t56.5 -54t76 -24.5q59 0 86 36.5t31 77.5h49q-12 -82 -58.5 -121.5t-107.5 -39.5q-47 0 -86 24.5t-60.5 54t-56.5 54t-76 24.5q-57 0 -84.5 -36.5t-31.5 -79.5h-47z" glyph-name="uni1EEF" unicode="ữ"/><glyph d="M565.5 -20q-243.5 0 -360.5 150.5t-76 410.5l141 893h56l-142 -895q-39 -242 65.5 -374t324 -132t358.5 132t176 374l143 895h170l27 180h53l-26 -180l-9 -56h-168l-133 -837q-41 -262 -198.5 -411.5t-401 -149.5zM440 -408q0 25 18.5 44.5t45.5 19.5q25 0 43 -19.5 t18 -44.5q0 -27 -18.5 -45t-42.5 -18q-27 0 -45.5 18t-18.5 45z" glyph-name="uni1EF0" horiz-adv-x="1290" unicode="Ự"/><glyph d="M162 424q-29 -184 38.5 -288.5t246 -104.5t296 105.5t146.5 279.5l102 649h170l27 180h53l-27 -180l-8 -55h-170l-159 -1010h-54l31 199h-2q-16 -29 -45 -61t-77 -70.5t-125 -63t-165 -24.5q-80 0 -144.5 21.5t-115.5 69.5t-71.5 138t0.5 213l102 643h53zM340 -408 q0 25 18.5 44.5t44.5 19.5q25 0 43.5 -19.5t18.5 -44.5q0 -27 -18.5 -45t-43.5 -18q-27 0 -45 18t-18 45z" glyph-name="uni1EF1" unicode="ự"/><glyph d="M512 0l92 588l-395 846h61l371 -791l619 791h65l-668 -846l-90 -588h-55zM590 1819h49l168 -258h-51z" glyph-name="Ygrave" horiz-adv-x="1247" unicode="Ỳ"/><glyph d="M33 -332q182 -33 313 207q49 94 37 141l-244 1049h56l237 -1028l559 1028h60l-668 -1219q-145 -262 -358 -231zM426 1450h49l168 -258h-51z" glyph-name="ygrave" horiz-adv-x="1021" unicode="ỳ"/><glyph d="M512 0l92 588l-395 846h61l371 -791l619 791h65l-668 -846l-90 -588h-55zM418 -408q0 25 18.5 44.5t44.5 19.5q25 0 43.5 -19.5t18.5 -44.5q0 -27 -18.5 -45t-43.5 -18q-27 0 -45 18t-18 45z" glyph-name="uni1EF4" horiz-adv-x="1247" unicode="Ỵ"/><glyph d="M33 -332q182 -33 313 207q49 94 37 141l-244 1049h56l237 -1028l559 1028h60l-668 -1219q-145 -262 -358 -231zM399 -408q0 25 18.5 44.5t45.5 19.5q25 0 43 -19.5t18 -44.5q0 -27 -18.5 -45t-42.5 -18q-27 0 -45.5 18t-18.5 45z" glyph-name="uni1EF5" horiz-adv-x="1021" unicode="ỵ"/><glyph d="M512 0l92 588l-395 846h61l371 -791l619 791h65l-668 -846l-90 -588h-55zM618 1735q0 72 51.5 115.5t121.5 43.5q74 0 127 -49t53 -131q0 -84 -52.5 -134t-119.5 -54l-29 39q70 2 113 39.5t43 105.5q0 66 -37 103.5t-98 37.5q-55 0 -90 -30.5t-37 -85.5h-46z" glyph-name="uni1EF6" horiz-adv-x="1247" unicode="Ỷ"/><glyph d="M33 -332q182 -33 313 207q49 94 37 141l-244 1049h56l237 -1028l559 1028h60l-668 -1219q-145 -262 -358 -231zM453 1366q0 72 51 116t121 44q74 0 127 -49.5t53 -130.5q0 -84 -52.5 -134.5t-119.5 -54.5l-29 39q70 2 113 40t43 105q0 66 -37 104t-98 38q-55 0 -90 -31 t-37 -86h-45z" glyph-name="uni1EF7" horiz-adv-x="1021" unicode="ỷ"/><glyph d="M512 0l92 588l-395 846h61l371 -791l619 791h65l-668 -846l-90 -588h-55zM506 1673q27 164 166 164q47 0 85 -24.5t59.5 -54t56 -54.5t75.5 -25q59 0 86 37t31 78h49q-12 -82 -58 -122t-108 -40q-47 0 -86 24.5t-60.5 54.5t-56 54.5t-75.5 24.5q-57 0 -85 -37t-32 -80 h-47z" glyph-name="uni1EF8" horiz-adv-x="1247" unicode="Ỹ"/><glyph d="M33 -332q182 -33 313 207q49 94 37 141l-244 1049h56l237 -1028l559 1028h60l-668 -1219q-145 -262 -358 -231zM340 1305q27 164 166 163q47 0 85 -24.5t59.5 -54t56 -54t75.5 -24.5q59 0 86 36.5t31 77.5h49q-12 -82 -58 -121.5t-108 -39.5q-47 0 -86 24.5t-60.5 54 t-56 54t-75.5 24.5q-57 0 -85 -36.5t-32 -79.5h-47z" glyph-name="uni1EF9" horiz-adv-x="1021" unicode="ỹ"/><glyph d="M96 555l8 49h1045l-8 -49h-1045z" glyph-name="endash" horiz-adv-x="1228" unicode="–"/><glyph d="M96 555l8 49h1168l-8 -49h-1168z" glyph-name="emdash" horiz-adv-x="1351" unicode="—"/><glyph d="M377 1409q-109 -6 -115 -109q31 0 52.5 -16t21.5 -45t-18.5 -48.5t-47 -19.5t-47 25t-18.5 66q0 70 44 130t122 60h12z" glyph-name="quoteleft" horiz-adv-x="321" unicode="‘"/><glyph d="M193 1214q109 6 114 109q-31 0 -52.5 16.5t-21.5 45t18.5 48t47.5 19.5t47.5 -24.5t18.5 -65.5q0 -70 -44.5 -130.5t-121.5 -60.5h-13z" glyph-name="quoteright" horiz-adv-x="319" unicode="’"/><glyph d="M-23 -131q109 6 115 108q-31 0 -52.5 16.5t-21.5 45.5t18.5 48t47.5 19t47.5 -24.5t18.5 -65.5q0 -70 -44.5 -130t-121.5 -60h-13z" glyph-name="quotesinglbase" horiz-adv-x="331" unicode="‚"/><glyph d="M377 1409q-109 -6 -115 -109q31 0 52.5 -16t21.5 -45t-18.5 -48.5t-47 -19.5t-47 25t-18.5 66q0 70 44 130t122 60h12zM408 1262q0 70 44 130t121 60h13l-6 -43q-109 -6 -115 -109q31 0 52.5 -16t21.5 -45t-18.5 -48.5t-47.5 -19.5t-47 25t-18 66z" glyph-name="quotedblleft" horiz-adv-x="522" unicode="“"/><glyph d="M193 1214q109 6 114 109q-31 0 -52.5 16.5t-21.5 45t18.5 48t47.5 19.5t47.5 -24.5t18.5 -65.5q0 -70 -44.5 -130.5t-121.5 -60.5h-13zM387 1171l6 43q109 6 115 109q-31 0 -52.5 16.5t-21.5 45t18.5 48t47 19.5t47 -24.5t18.5 -65.5q0 -70 -44 -130.5t-122 -60.5h-12z " glyph-name="quotedblright" horiz-adv-x="522" unicode="”"/><glyph d="M178 -137q109 6 115 108q-31 0 -52.5 16.5t-21.5 45t18.5 48t47 19.5t47 -24.5t18.5 -65.5q0 -70 -44 -130t-122 -60h-12zM-31 -180l6 43q109 6 115 108q-31 0 -52.5 16.5t-21.5 45t18.5 48t47.5 19.5t47 -24.5t18 -65.5q0 -70 -44 -130t-121 -60h-13z" glyph-name="quotedblbase" horiz-adv-x="532" unicode="„"/><glyph d="M268 647l84 535h-147l6 45h149l33 207h49l-32 -207h143l-6 -45h-146l-86 -535h-47z" glyph-name="dagger" horiz-adv-x="546" unicode="†"/><glyph d="M166 0l53 342h-147l6 45h149l105 660h-148l6 45h150l53 342h49l-53 -342h143l-6 -45h-145l-105 -660h144l-6 -45h-146l-53 -342h-49z" glyph-name="daggerdbl" horiz-adv-x="546" unicode="‡"/><glyph d="M258 389q-63 0 -107.5 44t-44.5 108q0 61 44.5 105t107.5 44q61 0 105.5 -44t44.5 -105q0 -63 -44.5 -107.5t-105.5 -44.5z" glyph-name="bullet" horiz-adv-x="509" unicode="•"/><glyph d="M410 -20q-25 0 -43.5 18t-18.5 45q0 25 18.5 44t43.5 19q27 0 45 -19t18 -44q0 -27 -18 -45t-45 -18zM18 43q0 25 18.5 44t43.5 19q27 0 45 -19t18 -44q0 -27 -18.5 -45t-44.5 -18q-25 0 -43.5 18t-18.5 45zM680 43q0 25 18.5 44t42.5 19q27 0 45.5 -19t18.5 -44 q0 -27 -18.5 -45t-45.5 -18q-25 0 -43 18t-18 45z" glyph-name="ellipsis" horiz-adv-x="978" unicode="…"/><glyph d="M137 276l-20 43l1251 826l23 -41zM188 1085q0 143 85 249t219 106q100 0 159.5 -63.5t59.5 -178.5q0 -143 -85 -248.5t-218 -105.5q-100 0 -160 63t-60 178zM240 1079q0 -186 172 -186q119 0 183 93t64 218q0 186 -170 187q-119 0 -184 -93.5t-65 -218.5zM795 223 q0 143 85 250t218 107q100 0 158.5 -63.5t58.5 -178.5q0 -143 -85 -249.5t-218 -106.5q-100 0 -158.5 63t-58.5 178zM846 219q0 -186 170 -186q119 0 183.5 92t64.5 217q0 186 -170 186q-119 0 -183.5 -93t-64.5 -216zM1395 223q0 143 85 250t218 107q100 0 158.5 -63.5 t58.5 -178.5q0 -143 -85 -249.5t-218 -106.5q-100 0 -158.5 63t-58.5 178zM1446 219q0 -186 170 -186q119 0 183.5 92t64.5 217q0 186 -170 186q-119 0 -183.5 -93t-64.5 -216z" glyph-name="perthousand" horiz-adv-x="2048" unicode="‰"/><glyph d="M313 358l-221 234l4 41l297 231l-8 -71l-233 -183l174 -186z" glyph-name="guilsinglleft" horiz-adv-x="425" unicode="‹"/><glyph d="M141 864l221 -233l-4 -41l-297 -232l9 72l233 182l-174 187z" glyph-name="guilsinglright" horiz-adv-x="430" unicode="›"/><glyph d="M-403 0l1120 1434h43l-1120 -1434h-43z" glyph-name="fraction" horiz-adv-x="296" unicode="⁄"/><glyph d="M113 780l4 45h123q66 274 255 450.5t466 176.5q201 0 326.5 -98.5t142.5 -274.5h-54q-16 152 -126.5 237t-291.5 85q-252 0 -427 -162t-240 -414h461l-4 -45h-467q-14 -76 -19 -159h459l-6 -46h-455v-4q0 -272 135 -406t355 -134q180 0 310 86t195 237h58 q-74 -182 -220.5 -278t-344.5 -96q-244 0 -391.5 147t-147.5 440v8h-129l6 46h125q4 84 18 159h-116z" glyph-name="Euro" horiz-adv-x="1402" unicode="€"/><glyph d="M565 1065l60 369h53l102 -306l193 306h57l-59 -369h-51l45 270l-174 -270h-39l-93 270l-43 -270h-51zM217 1386l8 48h322l-8 -48h-136l-51 -321h-51l51 321h-135z" glyph-name="trademark" horiz-adv-x="968" unicode="™"/><glyph d="M483 -20q-225 0 -322.5 142t-62.5 355q33 211 172.5 347.5t354.5 136.5q72 0 136 -16.5t122.5 -54.5t95.5 -108.5t41 -169.5q63 383 -8.5 587t-317.5 204q-164 0 -265 -84t-122 -191h-49q27 135 145.5 229.5t301.5 94.5q494 0 372 -770q-53 -344 -202.5 -523t-391.5 -179 zM152 479q-31 -195 54 -322.5t281.5 -127.5t324.5 130t161 320q31 188 -59.5 309t-289 121t-321 -120t-151.5 -310z" glyph-name="partialdiff" horiz-adv-x="1150" unicode="∂"/><glyph d="M-53 -389l321 2027h1094l-322 -2027h-45l312 1980h-1002l-313 -1980h-45z" glyph-name="product" horiz-adv-x="1277" unicode="∏"/><glyph d="M-53 -389l723 1014l-402 1013h1118l-10 -53h-1030l385 -960l-686 -961h1026l-6 -53h-1118z" glyph-name="summation" horiz-adv-x="1302" unicode="∑"/><glyph d="M125 522l10 49h549l-8 -49h-551z" glyph-name="minus" horiz-adv-x="802" unicode="−"/><glyph d="M528 -389l-219 989h-207l11 49h233l203 -944l860 1933h57l-901 -2027h-37z" glyph-name="radical" horiz-adv-x="1382" unicode="√"/><glyph d="M422 205q-135 0 -227.5 95t-92.5 236.5t92.5 233.5t227.5 92q205 0 391 -270q186 270 389 270q135 0 227.5 -92t92.5 -233.5t-92.5 -236.5t-227.5 -95q-207 0 -389 276q-182 -276 -391 -276zM162 537q0 -121 73.5 -199t184.5 -78q109 0 192.5 75t165.5 202 q-80 123 -165 195.5t-193 72.5q-111 0 -184.5 -74.5t-73.5 -193.5zM846 537q82 -127 167 -202t193.5 -75t182 78t73.5 199q0 119 -73.5 193.5t-182.5 74.5q-111 0 -195.5 -72.5t-164.5 -195.5z" glyph-name="infinity" horiz-adv-x="1622" unicode="∞"/><glyph d="M-82 -338q209 0 246 234l201 1257q14 96 45.5 159.5t79 92.5t89.5 39t97 10l-6 -51q-104 0 -167 -48t-83 -186l-199 -1259q-47 -299 -311 -299z" glyph-name="integral" horiz-adv-x="581" unicode="∫"/><glyph d="M580 315q-61 0 -110.5 37t-93.5 74t-89 37q-70 0 -102.5 -36t-30.5 -79h-50q0 82 53.5 124t123.5 42q74 0 156.5 -73.5t135.5 -73.5q70 0 102 36.5t30 77.5h49q0 -80 -53 -123t-121 -43zM152 676q0 82 53 124t123 42q74 0 156.5 -74t136.5 -74q70 0 101.5 37t29.5 78h49 q0 -80 -53.5 -123t-120.5 -43q-61 0 -110.5 37t-93.5 74t-89 37q-70 0 -102.5 -36t-30.5 -79h-49z" glyph-name="approxequal" horiz-adv-x="888" unicode="≈"/><glyph d="M162 0l151 391h-209l9 49h219l106 279h-280l8 49h291l147 381h49l-147 -381h209l-8 -49h-220l-106 -279h283l-11 -49h-291l-151 -391h-49z" glyph-name="notequal" horiz-adv-x="804" unicode="≠"/><glyph d="M43 0l6 49h705l-6 -49h-705zM160 731l6 70l764 413l-8 -61l-719 -389l608 -383l-8 -59z" glyph-name="lessequal" horiz-adv-x="962" unicode="≤"/><glyph d="M51 0l6 49h707l-8 -49h-705zM106 319l9 62l721 391l-611 383l11 59l641 -411l-7 -68z" glyph-name="greaterequal" horiz-adv-x="964" unicode="≥"/><glyph d="M322 0l2 4l-203 713l430 713l-2 4h61l-2 -4l201 -713l-428 -713l2 -4h-61zM180 717l182 -647l388 647l-181 647z" glyph-name="lozenge" horiz-adv-x="872" unicode="◊"/><glyph d="M123 492l147 942h58l-148 -942h-57z" glyph-name="uniA78B" horiz-adv-x="313" unicode="Ꞌ"/><glyph d="M139 610l131 824h54l-131 -824h-54z" glyph-name="uniA78C" horiz-adv-x="307" unicode="ꞌ"/><glyph d="M573 -20q-246 0 -366.5 150.5t-77.5 410.5h55q-39 -238 67.5 -373t326.5 -135q215 0 355 132t179 374l141 895h58l-142 -893q-41 -262 -196.5 -411.5t-399.5 -149.5zM1270 1561l239 258h58l-240 -258h-57z" glyph-name="J.aalt" horiz-adv-x="1294"/><glyph d="M623 -20q-231 0 -369.5 143t-138.5 430q0 248 88 449.5t266 325.5t416 124q379 0 436 -317h-53q-53 266 -394 266q-166 0 -302 -69.5t-223 -186.5t-134 -266.5t-47 -315.5q0 -281 128 -406.5t337 -123.5q225 0 392 133t202 336l22 139h-426l6 49h480l-109 -690h-51 l43 287q-86 -145 -237.5 -226t-331.5 -81z" glyph-name="G.ss01" horiz-adv-x="1390"/><glyph d="M995 0q-33 45 -4 242l23 127q12 84 -4.5 141t-59.5 84t-90 37t-110 10h-547l-103 -641h-57l227 1434h533q389 0 389 -328q0 -156 -85 -274.5t-233 -155.5q123 -25 169.5 -97.5t23.5 -211.5l-20 -125q-29 -197 4 -242h-56zM211 692h467q215 0 339 113t124 295 q0 145 -87 213.5t-268 68.5h-467z" glyph-name="R.aalt" horiz-adv-x="1251"/><glyph d="M623 -20q-231 0 -369.5 143t-138.5 430q0 248 88 449.5t266 325.5t416 124q379 0 436 -317h-53q-53 266 -394 266q-166 0 -302 -69.5t-223 -186.5t-134 -266.5t-47 -315.5q0 -281 128 -406.5t337 -123.5q225 0 392 133t202 336l22 139h-426l6 49h480l-109 -690h-51 l43 287q-86 -145 -237.5 -226t-331.5 -81z" glyph-name="G.ss05" horiz-adv-x="1390"/><glyph d="M16 0l168 1065h54l-168 -1065h-54zM209 1401q0 20 16.5 36.5t37 16.5t36.5 -16.5t16 -36.5q0 -23 -16 -39t-36.5 -16t-37 16t-16.5 39z" glyph-name="i.locl" horiz-adv-x="253"/><glyph d="M-131 -375q-10 0 -32.5 3t-33.5 3l7 45h38q104 0 151.5 37t63.5 140l193 1212h53l-196 -1233q-33 -207 -244 -207zM262 1192l240 258h57l-240 -258h-57z" glyph-name="j.aalt" horiz-adv-x="325"/><glyph d="M479 -20q-182 0 -296.5 112.5t-114.5 325.5q0 279 159.5 473t411.5 194q139 0 243.5 -68.5t151.5 -213.5l43 262h53l-167 -1065h-54l41 266q-82 -147 -207 -216.5t-264 -69.5zM117 424q0 -197 102.5 -297t265.5 -100q225 0 373 182t148 430q0 195 -105.5 297t-267.5 102 q-154 0 -274.5 -91t-181 -230t-60.5 -293z" glyph-name="a.ss01" horiz-adv-x="1173"/><glyph d="M479 -20q-182 0 -296.5 112.5t-114.5 325.5q0 279 159.5 473t411.5 194q139 0 243.5 -68.5t151.5 -213.5l43 262h53l-167 -1065h-54l41 266q-82 -147 -207 -216.5t-264 -69.5zM117 424q0 -197 102.5 -297t265.5 -100q225 0 373 182t148 430q0 195 -105.5 297t-267.5 102 q-154 0 -274.5 -91t-181 -230t-60.5 -293zM582 1192l239 258h58l-240 -258h-57z" glyph-name="aacute.ss01" horiz-adv-x="1173"/><glyph d="M479 -20q-182 0 -296.5 112.5t-114.5 325.5q0 279 159.5 473t411.5 194q139 0 243.5 -68.5t151.5 -213.5l43 262h53l-167 -1065h-54l41 266q-82 -147 -207 -216.5t-264 -69.5zM117 424q0 -197 102.5 -297t265.5 -100q225 0 373 182t148 430q0 195 -105.5 297t-267.5 102 q-154 0 -274.5 -91t-181 -230t-60.5 -293zM455 1450h45q-23 -178 174 -178q199 0 225 178h47q-14 -92 -79.5 -156.5t-196.5 -64.5q-133 0 -181 65.5t-34 155.5z" glyph-name="abreve.ss01" horiz-adv-x="1173"/><glyph d="M479 -20q-182 0 -296.5 112.5t-114.5 325.5q0 279 159.5 473t411.5 194q139 0 243.5 -68.5t151.5 -213.5l43 262h53l-167 -1065h-54l41 266q-82 -147 -207 -216.5t-264 -69.5zM117 424q0 -197 102.5 -297t265.5 -100q225 0 373 182t148 430q0 195 -105.5 297t-267.5 102 q-154 0 -274.5 -91t-181 -230t-60.5 -293zM453 1448h53l158 -221l225 221h63l-256 -248h-65z" glyph-name="uni01CE.ss01" horiz-adv-x="1173"/><glyph d="M479 -20q-182 0 -296.5 112.5t-114.5 325.5q0 279 159.5 473t411.5 194q139 0 243.5 -68.5t151.5 -213.5l43 262h53l-167 -1065h-54l41 266q-82 -147 -207 -216.5t-264 -69.5zM117 424q0 -197 102.5 -297t265.5 -100q225 0 373 182t148 430q0 195 -105.5 297t-267.5 102 q-154 0 -274.5 -91t-181 -230t-60.5 -293zM408 1202l256 248h65l178 -248h-53l-158 221l-225 -221h-63z" glyph-name="acircumflex.ss01" horiz-adv-x="1173"/><glyph d="M479 -20q-182 0 -296.5 112.5t-114.5 325.5q0 279 159.5 473t411.5 194q139 0 243.5 -68.5t151.5 -213.5l43 262h53l-167 -1065h-54l41 266q-82 -147 -207 -216.5t-264 -69.5zM117 424q0 -197 102.5 -297t265.5 -100q225 0 373 182t148 430q0 195 -105.5 297t-267.5 102 q-154 0 -274.5 -91t-181 -230t-60.5 -293zM489 1401q0 20 15.5 36.5t38 16.5t38 -16.5t15.5 -36.5q0 -23 -16.5 -39t-37 -16t-37 16t-16.5 39zM788 1400.5q0 22.5 16.5 38t39.5 15.5q20 0 36.5 -16.5t16.5 -36.5q0 -23 -16.5 -39t-36.5 -16q-23 0 -39.5 16t-16.5 38.5z" glyph-name="adieresis.ss01" horiz-adv-x="1173"/><glyph d="M479 -20q-182 0 -296.5 112.5t-114.5 325.5q0 279 159.5 473t411.5 194q139 0 243.5 -68.5t151.5 -213.5l43 262h53l-167 -1065h-54l41 266q-82 -147 -207 -216.5t-264 -69.5zM117 424q0 -197 102.5 -297t265.5 -100q225 0 373 182t148 430q0 195 -105.5 297t-267.5 102 q-154 0 -274.5 -91t-181 -230t-60.5 -293zM463 1450h49l168 -258h-51z" glyph-name="agrave.ss01" horiz-adv-x="1173"/><glyph d="M479 -20q-182 0 -296.5 112.5t-114.5 325.5q0 279 159.5 473t411.5 194q139 0 243.5 -68.5t151.5 -213.5l43 262h53l-167 -1065h-54l41 266q-82 -147 -207 -216.5t-264 -69.5zM117 424q0 -197 102.5 -297t265.5 -100q225 0 373 182t148 430q0 195 -105.5 297t-267.5 102 q-154 0 -274.5 -91t-181 -230t-60.5 -293zM420 1403l6 47h549l-6 -47h-549z" glyph-name="amacron.ss01" horiz-adv-x="1173"/><glyph d="M479 -20q-182 0 -296.5 112.5t-114.5 325.5q0 279 159.5 473t411.5 194q139 0 243.5 -68.5t151.5 -213.5l43 262h53l-167 -1065q-111 0 -186 -54.5t-75 -144.5q0 -70 48.5 -101.5t132.5 -25.5l-6 -43q-106 -14 -166 33t-60 133q0 98 76 164t188 74l35 231 q-82 -147 -207 -216.5t-264 -69.5zM117 424q0 -197 102.5 -297t265.5 -100q225 0 373 182t148 430q0 195 -105.5 297t-267.5 102q-154 0 -274.5 -91t-181 -230t-60.5 -293z" glyph-name="aogonek.ss01" horiz-adv-x="1173"/><glyph d="M479 -20q-182 0 -296.5 112.5t-114.5 325.5q0 279 159.5 473t411.5 194q139 0 243.5 -68.5t151.5 -213.5l43 262h53l-167 -1065h-54l41 266q-82 -147 -207 -216.5t-264 -69.5zM117 424q0 -197 102.5 -297t265.5 -100q225 0 373 182t148 430q0 195 -105.5 297t-267.5 102 q-154 0 -274.5 -91t-181 -230t-60.5 -293zM532 1339.5q0 61.5 45.5 106.5t108.5 45q66 0 111 -45t45 -106.5t-45 -106.5t-111 -45q-63 0 -108.5 45t-45.5 106.5zM578 1339q0 -45 31.5 -76.5t76.5 -31.5t78 31.5t33 76.5t-32 78t-79 33q-45 0 -76.5 -32t-31.5 -79z" glyph-name="aring.ss01" horiz-adv-x="1173"/><glyph d="M479 -20q-182 0 -296.5 112.5t-114.5 325.5q0 279 159.5 473t411.5 194q139 0 243.5 -68.5t151.5 -213.5l43 262h53l-167 -1065h-54l41 266q-82 -147 -207 -216.5t-264 -69.5zM117 424q0 -197 102.5 -297t265.5 -100q225 0 373 182t148 430q0 195 -105.5 297t-267.5 102 q-154 0 -274.5 -91t-181 -230t-60.5 -293zM373 1305q27 164 166 163q47 0 85 -24.5t59.5 -54t56 -54t75.5 -24.5q59 0 86 36.5t31 77.5h49q-12 -82 -58 -121.5t-108 -39.5q-47 0 -86 24.5t-60.5 54t-56 54t-75.5 24.5q-57 0 -85 -36.5t-32 -79.5h-47z" glyph-name="atilde.ss01" horiz-adv-x="1173"/><glyph d="M43 0l168 1065h53l-168 -1065h-53zM258 1360l14 92h54l-15 -92h-53z" glyph-name="i.ss01" horiz-adv-x="307"/><glyph d="M184 -4q-72 -10 -102.5 20.5t-18.5 102.5l207 1321h54l-207 -1317q-8 -43 9 -63.5t67 -18.5z" glyph-name="l.ss01" horiz-adv-x="305"/><glyph d="M479 -20q-182 0 -296.5 112.5t-114.5 325.5q0 279 159.5 473t411.5 194q139 0 243.5 -68.5t151.5 -213.5l43 262h53l-167 -1065h-54l41 266q-82 -147 -207 -216.5t-264 -69.5zM117 424q0 -197 102.5 -297t265.5 -100q225 0 373 182t148 430q0 195 -105.5 297t-267.5 102 q-154 0 -274.5 -91t-181 -230t-60.5 -293z" glyph-name="a.ss02" horiz-adv-x="1173"/><glyph d="M479 -20q-182 0 -296.5 112.5t-114.5 325.5q0 279 159.5 473t411.5 194q139 0 243.5 -68.5t151.5 -213.5l43 262h53l-167 -1065h-54l41 266q-82 -147 -207 -216.5t-264 -69.5zM117 424q0 -197 102.5 -297t265.5 -100q225 0 373 182t148 430q0 195 -105.5 297t-267.5 102 q-154 0 -274.5 -91t-181 -230t-60.5 -293zM582 1192l239 258h58l-240 -258h-57z" glyph-name="aacute.ss02" horiz-adv-x="1173"/><glyph d="M479 -20q-182 0 -296.5 112.5t-114.5 325.5q0 279 159.5 473t411.5 194q139 0 243.5 -68.5t151.5 -213.5l43 262h53l-167 -1065h-54l41 266q-82 -147 -207 -216.5t-264 -69.5zM117 424q0 -197 102.5 -297t265.5 -100q225 0 373 182t148 430q0 195 -105.5 297t-267.5 102 q-154 0 -274.5 -91t-181 -230t-60.5 -293zM455 1450h45q-23 -178 174 -178q199 0 225 178h47q-14 -92 -79.5 -156.5t-196.5 -64.5q-133 0 -181 65.5t-34 155.5z" glyph-name="abreve.ss02" horiz-adv-x="1173"/><glyph d="M479 -20q-182 0 -296.5 112.5t-114.5 325.5q0 279 159.5 473t411.5 194q139 0 243.5 -68.5t151.5 -213.5l43 262h53l-167 -1065h-54l41 266q-82 -147 -207 -216.5t-264 -69.5zM117 424q0 -197 102.5 -297t265.5 -100q225 0 373 182t148 430q0 195 -105.5 297t-267.5 102 q-154 0 -274.5 -91t-181 -230t-60.5 -293zM453 1448h53l158 -221l225 221h63l-256 -248h-65z" glyph-name="uni01CE.ss02" horiz-adv-x="1173"/><glyph d="M479 -20q-182 0 -296.5 112.5t-114.5 325.5q0 279 159.5 473t411.5 194q139 0 243.5 -68.5t151.5 -213.5l43 262h53l-167 -1065h-54l41 266q-82 -147 -207 -216.5t-264 -69.5zM117 424q0 -197 102.5 -297t265.5 -100q225 0 373 182t148 430q0 195 -105.5 297t-267.5 102 q-154 0 -274.5 -91t-181 -230t-60.5 -293zM408 1202l256 248h65l178 -248h-53l-158 221l-225 -221h-63z" glyph-name="acircumflex.ss02" horiz-adv-x="1173"/><glyph d="M479 -20q-182 0 -296.5 112.5t-114.5 325.5q0 279 159.5 473t411.5 194q139 0 243.5 -68.5t151.5 -213.5l43 262h53l-167 -1065h-54l41 266q-82 -147 -207 -216.5t-264 -69.5zM117 424q0 -197 102.5 -297t265.5 -100q225 0 373 182t148 430q0 195 -105.5 297t-267.5 102 q-154 0 -274.5 -91t-181 -230t-60.5 -293zM489 1401q0 20 15.5 36.5t38 16.5t38 -16.5t15.5 -36.5q0 -23 -16.5 -39t-37 -16t-37 16t-16.5 39zM788 1400.5q0 22.5 16.5 38t39.5 15.5q20 0 36.5 -16.5t16.5 -36.5q0 -23 -16.5 -39t-36.5 -16q-23 0 -39.5 16t-16.5 38.5z" glyph-name="adieresis.ss02" horiz-adv-x="1173"/><glyph d="M479 -20q-182 0 -296.5 112.5t-114.5 325.5q0 279 159.5 473t411.5 194q139 0 243.5 -68.5t151.5 -213.5l43 262h53l-167 -1065h-54l41 266q-82 -147 -207 -216.5t-264 -69.5zM117 424q0 -197 102.5 -297t265.5 -100q225 0 373 182t148 430q0 195 -105.5 297t-267.5 102 q-154 0 -274.5 -91t-181 -230t-60.5 -293zM463 1450h49l168 -258h-51z" glyph-name="agrave.ss02" horiz-adv-x="1173"/><glyph d="M479 -20q-182 0 -296.5 112.5t-114.5 325.5q0 279 159.5 473t411.5 194q139 0 243.5 -68.5t151.5 -213.5l43 262h53l-167 -1065h-54l41 266q-82 -147 -207 -216.5t-264 -69.5zM117 424q0 -197 102.5 -297t265.5 -100q225 0 373 182t148 430q0 195 -105.5 297t-267.5 102 q-154 0 -274.5 -91t-181 -230t-60.5 -293zM420 1403l6 47h549l-6 -47h-549z" glyph-name="amacron.ss02" horiz-adv-x="1173"/><glyph d="M479 -20q-182 0 -296.5 112.5t-114.5 325.5q0 279 159.5 473t411.5 194q139 0 243.5 -68.5t151.5 -213.5l43 262h53l-167 -1065q-111 0 -186 -54.5t-75 -144.5q0 -70 48.5 -101.5t132.5 -25.5l-6 -43q-106 -14 -166 33t-60 133q0 98 76 164t188 74l35 231 q-82 -147 -207 -216.5t-264 -69.5zM117 424q0 -197 102.5 -297t265.5 -100q225 0 373 182t148 430q0 195 -105.5 297t-267.5 102q-154 0 -274.5 -91t-181 -230t-60.5 -293z" glyph-name="aogonek.ss02" horiz-adv-x="1173"/><glyph d="M479 -20q-182 0 -296.5 112.5t-114.5 325.5q0 279 159.5 473t411.5 194q139 0 243.5 -68.5t151.5 -213.5l43 262h53l-167 -1065h-54l41 266q-82 -147 -207 -216.5t-264 -69.5zM117 424q0 -197 102.5 -297t265.5 -100q225 0 373 182t148 430q0 195 -105.5 297t-267.5 102 q-154 0 -274.5 -91t-181 -230t-60.5 -293zM532 1339.5q0 61.5 45.5 106.5t108.5 45q66 0 111 -45t45 -106.5t-45 -106.5t-111 -45q-63 0 -108.5 45t-45.5 106.5zM578 1339q0 -45 31.5 -76.5t76.5 -31.5t78 31.5t33 76.5t-32 78t-79 33q-45 0 -76.5 -32t-31.5 -79z" glyph-name="aring.ss02" horiz-adv-x="1173"/><glyph d="M479 -20q-182 0 -296.5 112.5t-114.5 325.5q0 279 159.5 473t411.5 194q139 0 243.5 -68.5t151.5 -213.5l43 262h53l-167 -1065h-54l41 266q-82 -147 -207 -216.5t-264 -69.5zM117 424q0 -197 102.5 -297t265.5 -100q225 0 373 182t148 430q0 195 -105.5 297t-267.5 102 q-154 0 -274.5 -91t-181 -230t-60.5 -293zM373 1305q27 164 166 163q47 0 85 -24.5t59.5 -54t56 -54t75.5 -24.5q59 0 86 36.5t31 77.5h49q-12 -82 -58 -121.5t-108 -39.5q-47 0 -86 24.5t-60.5 54t-56 54t-75.5 24.5q-57 0 -85 -36.5t-32 -79.5h-47z" glyph-name="atilde.ss02" horiz-adv-x="1173"/><glyph d="M324 -20q-143 0 -219 61t-76 178q0 268 401 326l238 35q211 31 219 82l14 112q20 135 -50.5 199.5t-240.5 64.5q-334 0 -372 -221l-5 -22h-49l2 20q18 137 129 203.5t293 66.5q193 0 282 -76.5t64 -238.5l-102 -661q-4 -43 5 -56.5t40 -11.5l-6 -43q-14 -6 -37 -6 q-41 0 -52 31.5t1 111.5l14 76h-6q-41 -74 -176 -152.5t-311 -78.5zM80 221q0 -193 250 -192q205 0 347 110.5t157 198.5l43 268q-16 -47 -205 -74l-242 -36q-350 -56 -350 -275z" glyph-name="a.ss03" horiz-adv-x="1030"/><glyph d="M184 -4q-72 -10 -102.5 20.5t-18.5 102.5l207 1321h54l-207 -1317q-8 -43 9 -63.5t67 -18.5z" glyph-name="l.ss04" horiz-adv-x="305"/><glyph d="M133 1016l6 49h144l30 197q33 205 248 204h78l-6 -51h-60q-100 0 -146 -36t-60 -136l-29 -178h569l41 258h53l-40 -258h215l-7 -49h-215l-127 -805q-14 -102 20 -138t134 -36h53l-8 -45q-25 -6 -74 -6q-213 0 -182 207l129 823h-569l-162 -1016h-53l159 1016h-141z" glyph-name="f_t.dlig" horiz-adv-x="1177"/><glyph d="M43 0l168 1065h53l-39 -252h2q41 92 153 172t294 80h178l41 258h53l-41 -258h215l-6 -49h-215l-127 -805q-14 -102 19.5 -138t134.5 -36h53l-8 -45q-25 -6 -74 -6q-213 0 -182 207l129 823h-182q-186 0 -308.5 -105.5t-154.5 -261.5l-103 -649h-53z" glyph-name="r_t.dlig" horiz-adv-x="1122"/><glyph d="M203 -4q-96 0 -143.5 72.5t-30.5 185.5l4 27q16 115 86.5 186.5t167.5 71.5q94 0 140 -72t30 -186l-4 -27q-16 -113 -86 -185.5t-164 -72.5zM63 254q-16 -106 25 -166.5t117 -60.5q78 0 137 60t76 167l4 27q18 106 -22 166.5t-117.5 60.5t-138 -60.5t-76.5 -166.5z" glyph-name="zero.dnom" horiz-adv-x="569"/><glyph d="M176 479q-39 -55 -110 -49l4 31q78 4 116 74h37l-84 -535h-37z" glyph-name="one.dnom" horiz-adv-x="315"/><glyph d="M2 29q4 68 50 118t141 103q55 33 78.5 48t44 41t26.5 58q8 49 -18.5 80t-83.5 31q-117 0 -142 -123l-2 -12h-39l2 12q14 72 62.5 115t120 43t107.5 -39t28 -101q-8 -59 -49 -99t-119 -83q-76 -41 -122 -91t-44 -93h289l-6 -37h-326z" glyph-name="two.dnom" horiz-adv-x="501"/><glyph d="M182 -8q-86 0 -128 47t-29 127h36q-20 -139 132 -139q63 0 108 29.5t55.5 89t-27.5 88t-110 28.5h-22l4 35h22q61 0 103.5 30.5t48.5 75.5q12 104 -109 105q-135 0 -153 -133h-37q10 80 61 124t131 44q78 0 116 -42t26 -102q-8 -43 -39 -73.5t-78 -40.5q49 -12 78.5 -48 t21.5 -94q-8 -66 -64.5 -108.5t-146.5 -42.5z" glyph-name="three.dnom" horiz-adv-x="536"/><glyph d="M246 0l20 135h-248l7 31l305 369h37l-58 -369h62l-6 -31h-62l-20 -135h-37zM66 166h206l47 307z" glyph-name="four.dnom" horiz-adv-x="509"/><glyph d="M150 -10q-78 0 -118 49t-30 125h29q-6 -59 23.5 -99t105.5 -40q72 0 112.5 39.5t53.5 105.5q12 76 -24 111.5t-95 35.5q-74 0 -144 -69h-36l90 287h262l-4 -33h-234l-69 -215q14 20 53 40.5t90 20.5q72 0 115 -46t30 -128q-10 -84 -68 -134t-142 -50z" glyph-name="five.dnom" horiz-adv-x="479"/><glyph d="M182 -10q-82 0 -126 60.5t-19 201.5q47 289 229 289q80 0 112 -43t30 -101h-31q-4 111 -117 111q-47 0 -82 -22.5t-56.5 -68.5t-30.5 -78t-19 -83q59 88 168 88q68 0 112.5 -41t32.5 -127q-14 -92 -70.5 -139t-132.5 -47zM70 176q-10 -68 22.5 -110.5t97.5 -42.5 q135 0 160 151q12 68 -20.5 102.5t-93.5 34.5q-63 0 -109.5 -38t-56.5 -97z" glyph-name="six.dnom" horiz-adv-x="524"/><glyph d="M47 0l305 502h-315l4 33h350l-4 -33l-303 -502h-37z" glyph-name="seven.dnom" horiz-adv-x="452"/><glyph d="M147 -4q-70 0 -113.5 36t-43.5 97q0 121 123 164q-53 39 -54 100q0 57 47.5 101.5t124.5 44.5q66 0 100 -32t34 -77q0 -82 -93 -137q84 -39 84 -119q0 -78 -61.5 -128t-147.5 -50zM23 131q0 -47 36.5 -74.5t96.5 -27.5q70 0 118 37.5t48 103.5q0 102 -129 102 q-72 0 -121 -35.5t-49 -105.5zM94 397q0 -41 30 -67.5t71 -26.5q57 0 97 35t40 86q0 82 -105 82q-61 0 -97 -33t-36 -76z" glyph-name="eight.dnom" horiz-adv-x="464"/><glyph d="M170 -10q-78 0 -109.5 43t-29.5 100h30q4 -111 115 -110q39 0 71 18t49 39.5t33.5 64.5t21.5 62.5t16 66.5q-59 -88 -168 -88q-70 0 -114 41t-32 127q14 92 70.5 139.5t132.5 47.5q82 0 125 -60.5t20 -201.5q-47 -289 -231 -289zM88 356q-12 -68 20.5 -102.5t92.5 -34.5 q63 0 109 38t57 97q12 68 -20 111t-99 43q-135 0 -160 -152z" glyph-name="nine.dnom" horiz-adv-x="524"/><glyph d="M346 897q-96 0 -143 72.5t-31 185.5l4 27q16 115 87 186.5t167 71.5q94 0 140 -72t30 -186l-4 -27q-16 -113 -86 -185.5t-164 -72.5zM207 1155q-16 -106 24.5 -166.5t116.5 -60.5q78 0 137.5 60.5t75.5 166.5l4 27q18 106 -21.5 166.5t-117.5 60.5t-138.5 -60.5 t-76.5 -166.5z" glyph-name="zero.numr" horiz-adv-x="569"/><glyph d="M319 1378q-39 -55 -110 -49l4 31q78 4 117 74h37l-84 -535h-37z" glyph-name="one.numr" horiz-adv-x="315"/><glyph d="M145 930q4 68 50.5 118t140.5 103q55 33 78.5 48t44 41t26.5 58q8 49 -18.5 80t-83.5 31q-117 0 -141 -123l-2 -12h-39l2 12q14 72 62 115t120 43t107.5 -39t27.5 -100q-8 -59 -49 -99.5t-119 -83.5q-76 -41 -122 -91t-44 -93h289l-6 -37h-326z" glyph-name="two.numr" horiz-adv-x="501"/><glyph d="M326 893q-86 0 -128 47t-30 127h37q-20 -139 131 -139q63 0 108 29.5t55.5 89t-27.5 88t-110 28.5h-22l4 35h23q61 0 103 31t48 76q12 104 -108 104q-135 0 -154 -133h-37q10 80 61.5 124t131.5 44q78 0 115.5 -42t25.5 -102q-8 -43 -39 -73.5t-78 -40.5q49 -12 79 -48 t22 -94q-8 -66 -64.5 -108.5t-146.5 -42.5z" glyph-name="three.numr" horiz-adv-x="536"/><glyph d="M389 901l21 135h-248l6 31l305 369h37l-57 -369h61l-6 -31h-62l-20 -135h-37zM209 1067h207l47 307z" glyph-name="four.numr" horiz-adv-x="509"/><glyph d="M293 891q-78 0 -118 49t-30 125h29q-6 -59 23.5 -99t105.5 -40q72 0 113 40t53 105q12 76 -23.5 112t-95.5 36q-74 0 -143 -70h-37l90 287h262l-4 -33h-233l-70 -215q14 20 53 40.5t90 20.5q72 0 115 -46t31 -128q-10 -84 -68.5 -134t-142.5 -50z" glyph-name="five.numr" horiz-adv-x="479"/><glyph d="M326 889q-82 0 -126 60.5t-20 201.5q47 289 230 289q80 0 111.5 -43t29.5 -101h-31q-4 111 -117 111q-47 0 -81.5 -22.5t-56 -68.5t-31 -78t-19.5 -83q59 88 168 88q68 0 113 -41t32 -127q-14 -92 -70 -139t-132 -47zM213 1075q-10 -68 22.5 -110.5t98.5 -42.5 q135 0 160 151q12 68 -21 102.5t-94 34.5q-63 0 -109.5 -38t-56.5 -97z" glyph-name="six.numr" horiz-adv-x="524"/><glyph d="M190 901l306 502h-316l4 33h351l-5 -33l-303 -502h-37z" glyph-name="seven.numr" horiz-adv-x="452"/><glyph d="M291 897q-70 0 -114 36t-44 97q0 121 123 164q-53 39 -53 100q0 57 47 101.5t125 44.5q66 0 99.5 -32t33.5 -77q0 -82 -92 -137q84 -39 84 -119q0 -78 -61.5 -128t-147.5 -50zM166 1032q0 -47 37 -74.5t96 -27.5q70 0 118 38t48 103q0 102 -129 103q-72 0 -121 -36 t-49 -106zM238 1298q0 -41 29.5 -67.5t70.5 -26.5q57 0 97 35t40 86q0 82 -104 82q-61 0 -97 -33t-36 -76z" glyph-name="eight.numr" horiz-adv-x="464"/><glyph d="M313 891q-78 0 -109.5 43t-29.5 100h31q4 -111 114 -110q39 0 71 18.5t49.5 40t33.5 64.5t21.5 62t15.5 67q-59 -88 -168 -89q-70 0 -114 41t-31 127q14 92 70.5 139.5t131.5 47.5q82 0 125 -60.5t21 -201.5q-48 -289 -232 -289zM231 1257q-12 -68 21 -102.5t92 -34.5 q63 0 109.5 38t56.5 97q12 68 -19.5 111t-99.5 43q-135 0 -160 -152z" glyph-name="nine.numr" horiz-adv-x="524"/><glyph d="M18 0l15 102h90l-14 -102h-91z" glyph-name="period.aalt" horiz-adv-x="294"/><glyph d="M360 1229q-133 0 -181 65.5t-34 155.5h45q-23 -178 175 -178q199 0 225 178h47q-14 -92 -80 -156.5t-197 -64.5zM356 1516l240 258h57l-239 -258h-58z" glyph-name="uni0306_acutecomb.ccmp" horiz-adv-x="0"/><glyph d="M360 1229q-133 0 -181 65.5t-34 155.5h45q-23 -178 175 -178q199 0 225 178h47q-14 -92 -80 -156.5t-197 -64.5zM203 1774h49l168 -258h-51z" glyph-name="uni0306_gravecomb.ccmp" horiz-adv-x="0"/><glyph d="M360 1229q-133 0 -181 65.5t-34 155.5h45q-23 -178 175 -178q199 0 225 178h47q-14 -92 -80 -156.5t-197 -64.5zM190 1642q0 72 51.5 116t120.5 44q74 0 127.5 -49t53.5 -131q0 -84 -52.5 -134t-119.5 -54l-29 39q70 2 113 39.5t43 105.5q0 66 -37 103.5t-99 37.5 q-55 0 -89.5 -30.5t-36.5 -86.5h-46z" glyph-name="uni0306_hookabovecomb.ccmp" horiz-adv-x="0"/><glyph d="M360 1229q-133 0 -181 65.5t-34 155.5h45q-23 -178 175 -178q199 0 225 178h47q-14 -92 -80 -156.5t-197 -64.5zM119 1628q27 164 166 164q47 0 85 -24.5t59.5 -54.5t56 -54.5t75.5 -24.5q59 0 86 37t31 78h49q-12 -82 -58 -122t-108 -40q-47 0 -86 24.5t-60.5 54.5 t-56 54.5t-75.5 24.5q-57 0 -85 -37t-32 -80h-47z" glyph-name="uni0306_tildecomb.ccmp" horiz-adv-x="0"/><glyph d="M104 1202l256 248h66l178 -248h-53l-158 221l-225 -221h-64zM524 1393l240 258h57l-239 -258h-58z" glyph-name="uni0302_acutecomb.ccmp" horiz-adv-x="0"/><glyph d="M569 1391l-161 256h53l162 -256h-54zM104 1202l256 248h66l178 -248h-53l-158 221l-225 -221h-64z" glyph-name="uni0302_gravecomb.ccmp" horiz-adv-x="0"/><glyph d="M104 1202l256 248h66l178 -248h-53l-158 221l-225 -221h-64zM389 1655q0 72 51.5 116t120.5 44q74 0 127 -49.5t53 -131.5q0 -84 -52 -134t-120 -54l-28 39q70 2 112.5 40t42.5 105q0 66 -36.5 104t-98.5 38q-55 0 -90 -31t-37 -86h-45z" glyph-name="uni0302_hookabovecomb.ccmp" horiz-adv-x="0"/><glyph d="M104 1202l256 248h66l178 -248h-53l-158 221l-225 -221h-64zM127 1618q27 164 166 164q47 0 85 -24.5t59.5 -54.5t56 -54.5t75.5 -24.5q59 0 86 37t31 78h49q-12 -82 -58 -122t-108 -40q-47 0 -86 24.5t-60.5 54.5t-56 54.5t-75.5 24.5q-57 0 -85 -37t-32 -80h-47z" glyph-name="uni0302_tildecomb.ccmp" horiz-adv-x="0"/><glyph d="M360 1229q-133 0 -181 65.5t-34 155.5h45q-23 -178 175 -178q199 0 225 178h47q-14 -92 -80 -156.5t-197 -64.5z" glyph-name="glyph657" horiz-adv-x="0"/><glyph d="M160 1016l65 418h49l-65 -418h-49z" glyph-name="glyph658" horiz-adv-x="0"/><glyph d="M-29 0l799 1434h55l344 -1434h-59l-100 432h-738l-239 -432h-62zM301 483h696l-204 875h-7zM741 1561l240 258h57l-239 -258h-58z" glyph-name="glyph659" horiz-adv-x="1308"/><glyph d="M588 662l6 49h610q10 82 10 149q0 272 -135 406.5t-354 134.5q-180 0 -310 -86t-196 -238h-57q74 182 220 278.5t345 96.5q244 0 391.5 -147.5t147.5 -440.5q0 -172 -51.5 -330.5t-144.5 -282.5t-237.5 -197.5t-318.5 -73.5q-201 0 -327 98t-142 274h53 q16 -152 127 -236.5t291 -84.5q266 0 446.5 179t233.5 452h-608zM709 1561l239 258h58l-240 -258h-57z" glyph-name="glyph660" horiz-adv-x="1325"/></font>
</defs>
</svg>
