<?xml version="1.0" standalone="no"?>
<!DOCTYPE svg PUBLIC "-//W3C//DTD SVG 1.1//EN" "http://www.w3.org/Graphics/SVG/1.1/DTD/svg11.dtd">
<svg xmlns="http://www.w3.org/2000/svg"><metadata>This SVG WebFont was generated by YouWorkForThem.
</metadata><defs><font horiz-adv-x="1105" id="ywftsvg"><font-face ascent="1638" bbox="-410 -483 2286 2185" cap-height="1434" descent="-410" font-family="" font-stretch="normal" font-weight="200" panose-1="0 0 0 0 0 0 0 0 0 0" underline-position="0" underline-thickness="0" unicode-range="U+0020-A78C" units-per-em="2048" x-height="1065"/><missing-glyph d="M43 0l225 1434h1250l-226 -1434h-1249zM166 106h1036l193 1221h-1037zM254 184l469 539l-295 526h119l246 -446l385 446h118l-462 -526l301 -539h-119l-250 461l-393 -461h-119z" horiz-adv-x="1501"/><glyph d="M43 0l225 1434h1250l-226 -1434h-1249zM166 106h1036l193 1221h-1037zM254 184l469 539l-295 526h119l246 -446l385 446h118l-462 -526l301 -539h-119l-250 461l-393 -461h-119z" glyph-name=".notdef" horiz-adv-x="1501"/><glyph glyph-name="glyph1" horiz-adv-x="0"/><glyph glyph-name="glyph2" horiz-adv-x="681"/><glyph glyph-name="space" horiz-adv-x="471" unicode=" "/><glyph d="M135 350l166 1084h88l-178 -1084h-76zM49 57q0 31 22.5 54.5t55.5 23.5q31 0 53.5 -23.5t22.5 -54.5q0 -33 -22.5 -55t-53.5 -22q-33 0 -55.5 22t-22.5 55z" glyph-name="exclam" horiz-adv-x="405" unicode="!"/><glyph d="M346 993l70 441h78l-68 -441h-80zM156 993l69 441h78l-67 -441h-80z" glyph-name="quotedbl" horiz-adv-x="432" unicode="&quot;"/><glyph d="M637 0l106 416h-366l-107 -416h-65l106 416h-227l10 65h236l121 471h-230l10 66h238l106 416h66l-106 -416h366l107 416h65l-106 -416h227l-12 -66h-234l-121 -471h230l-10 -65h-238l-107 -416h-65zM395 481h367l121 471h-367z" glyph-name="numbersign" horiz-adv-x="1220" unicode="#"/><glyph d="M438 -184l27 166q-215 12 -316.5 124.5t-76.5 280.5h80q-12 -139 68.5 -227t256.5 -99l103 652l-54 12q-311 70 -311 330q0 180 132 287.5t349 109.5l27 166h59l-26 -168q188 -12 282.5 -107.5t73.5 -236.5h-78q6 104 -65.5 179t-225.5 85l-94 -592l80 -18 q154 -35 240 -111t86 -227q0 -199 -146.5 -318.5t-384.5 -123.5l-26 -164h-60zM301 1057q0 -104 64.5 -167t199.5 -93l27 -6l92 581q-178 -2 -280.5 -88t-102.5 -227zM537 59q201 2 314.5 99.5t113.5 257.5q0 125 -69 182t-206 90l-53 12z" glyph-name="dollar" horiz-adv-x="1169" unicode="$"/><glyph d="M145 270l-28 58l1253 825l31 -57zM186 1081q0 145 87 253t225 108q102 0 161.5 -63.5t59.5 -180.5q0 -145 -86 -252.5t-223 -107.5q-102 0 -163 63t-61 180zM258 1081q0 -176 158 -176q113 0 172 88t59 205q0 176 -158 176q-111 0 -171 -88t-60 -205zM797 225 q0 145 86 254t223 109q102 0 162.5 -64.5t60.5 -181.5q0 -145 -87 -252.5t-224 -107.5q-102 0 -161.5 63t-59.5 180zM868 227q0 -176 158 -176q111 0 171 87t60 204q0 176 -157 176q-113 0 -172.5 -87t-59.5 -204z" glyph-name="percent" horiz-adv-x="1458" unicode="%"/><glyph d="M492 -20q-195 0 -308.5 98t-113.5 262q0 299 424 487q-131 170 -132 312q0 129 90.5 221t249.5 92q129 0 202 -62.5t73 -177.5q0 -244 -371 -409l369 -504q119 166 160 430h77q-45 -299 -192 -491l172 -238h-98l-127 176q-194 -196 -475 -196zM156 350q0 -137 94 -216 t258 -79q248 0 416 181l-389 536q-379 -166 -379 -422zM440 1143q0 -55 23.5 -114.5t44 -90.5t57.5 -80l17 6q319 141 319 340q0 86 -54 132t-149 46q-117 0 -187.5 -65t-70.5 -174z" glyph-name="ampersand" horiz-adv-x="1339" unicode="&amp;"/><glyph d="M156 993l69 441h78l-67 -441h-80z" glyph-name="quotesingle" horiz-adv-x="241" unicode="'"/><glyph d="M182 -266q-156 389 -69 921q80 510 354 871h74q-266 -373 -344 -871q-84 -522 59 -921h-74z" glyph-name="parenleft" horiz-adv-x="475" unicode="("/><glyph d="M324 1526q156 -389 69 -922q-80 -510 -354 -870h-74q266 373 344 870q84 522 -59 922h74z" glyph-name="parenright" horiz-adv-x="473" unicode=")"/><glyph d="M336 819l-49 41l200 227l43 -36zM236 1167l30 66l242 -74l-25 -59zM524 1171l39 263h70l-45 -263h-64zM547 1051l55 36l125 -227l-63 -41zM600 1159l268 74l9 -66l-267 -67z" glyph-name="asterisk" horiz-adv-x="911" unicode="*"/><glyph d="M422 182l55 357h-352l12 77h355l55 357h82l-56 -357h353l-13 -77h-354l-55 -357h-82z" glyph-name="plus" horiz-adv-x="1038" unicode="+"/><glyph d="M-16 -133q115 6 122 113q-39 0 -63.5 19t-24.5 54t22.5 58.5t59.5 23.5q35 0 57.5 -27.5t22.5 -78.5q0 -80 -50 -147.5t-140 -67.5h-13z" glyph-name="comma" horiz-adv-x="356" unicode=","/><glyph d="M84 543l12 69h522l-12 -69h-522z" glyph-name="hyphen" horiz-adv-x="688" unicode="-"/><glyph d="M96 -20q-33 0 -55.5 22.5t-22.5 54.5q0 31 22.5 54.5t55.5 23.5q31 0 53.5 -23.5t22.5 -54.5q0 -33 -22.5 -55t-53.5 -22z" glyph-name="period" horiz-adv-x="344" unicode="."/><glyph d="M-23 0l777 1434h88l-776 -1434h-89z" glyph-name="slash" horiz-adv-x="759" unicode="/"/><glyph d="M545 -20q-209 0 -321.5 144t-112.5 413q0 170 45 332.5t127 292.5t212 210t285 80q209 0 323 -144.5t114 -410.5q0 -231 -76 -437t-233.5 -343t-362.5 -137zM190 537q0 -236 95.5 -359t271.5 -123q180 0 316.5 131t200 318.5t63.5 390.5q0 236 -96.5 358.5t-274.5 122.5 q-180 0 -315.5 -131t-198 -318t-62.5 -390z" glyph-name="zero" horiz-adv-x="1269" unicode="0"/><glyph d="M449 1298q-104 -117 -254 -120l12 73q84 4 160.5 61.5t101.5 121.5h84l-227 -1434h-84z" glyph-name="one" horiz-adv-x="575" unicode="1"/><glyph d="M6 51q29 182 142.5 306t363.5 268q117 66 176.5 102.5t130 93t105 115.5t45.5 131q20 139 -62 225t-237 86q-160 0 -272.5 -94t-137.5 -264l-4 -29h-86l6 35q35 195 169 310.5t331 115.5q199 0 301 -111.5t74 -281.5q-25 -154 -136.5 -255.5t-339.5 -225.5 q-223 -127 -337.5 -234.5t-131.5 -249.5l-2 -18h805l-12 -76h-899z" glyph-name="two" horiz-adv-x="1073" unicode="2"/><glyph d="M481 -20q-225 0 -334.5 126.5t-78.5 333.5h79q-25 -172 66.5 -277.5t280.5 -105.5q201 0 337 114t136 284q0 139 -101.5 213.5t-283.5 74.5h-47l10 76h43q180 0 289.5 87t109.5 231q0 115 -72.5 177t-214.5 62q-164 0 -275.5 -90t-135.5 -276h-82q33 221 166 331.5 t332 110.5q178 0 272 -82t94 -217q0 -129 -81 -227.5t-218 -139.5q125 -25 202 -106.5t77 -218.5q0 -207 -166 -344t-404 -137z" glyph-name="three" horiz-adv-x="1150" unicode="3"/><glyph d="M692 0l64 408h-693l13 71l844 955h84l-152 -955h164l-12 -71h-164l-64 -408h-84zM162 479h606l131 838z" glyph-name="four" horiz-adv-x="1107" unicode="4"/><glyph d="M496 -20q-217 0 -327 123.5t-85 314.5h78q-18 -158 73 -261.5t271 -103.5q215 0 345 146.5t130 349.5q0 162 -89 252t-249 90q-227 0 -379 -176h-92l229 719h695l-13 -70h-630l-185 -573q154 172 396 172q178 0 288.5 -105.5t110.5 -302.5q0 -244 -158.5 -409.5 t-408.5 -165.5z" glyph-name="five" horiz-adv-x="1140" unicode="5"/><glyph d="M514 -20q-199 0 -302 121.5t-103 357.5q0 100 18 229q123 764 625 764q174 0 267 -84t93 -207q0 -20 -4 -45h-76q10 106 -61.5 185t-225.5 79q-121 0 -214 -52t-156.5 -151.5t-104.5 -223.5t-67 -285q72 152 199.5 221t273.5 69q186 0 289.5 -107.5t103.5 -293.5 q0 -240 -156.5 -408.5t-398.5 -168.5zM193 406q0 -160 88 -256.5t245 -96.5q205 0 333 149.5t128 352.5q0 156 -86 244t-244 88q-207 0 -335.5 -140t-128.5 -341z" glyph-name="six" horiz-adv-x="1167" unicode="6"/><glyph d="M193 0q170 635 743 1360h-743l12 74h829l-10 -74q-580 -727 -743 -1360h-88z" glyph-name="seven" horiz-adv-x="962" unicode="7"/><glyph d="M492 -20q-199 0 -316 94t-117 268q0 162 102.5 284t272.5 169q-78 27 -126 97.5t-48 172.5q0 162 123 274.5t328 112.5q170 0 264 -84t94 -221q0 -129 -79 -221t-193 -131q117 -39 184.5 -125t67.5 -215q0 -205 -158.5 -340t-398.5 -135zM141 352q0 -143 97.5 -220 t259.5 -77q199 0 333 110.5t134 285.5q0 145 -97.5 225t-259.5 80q-199 0 -333 -116t-134 -288zM340 1065q0 -111 71.5 -174.5t206.5 -63.5q168 0 269.5 90.5t101.5 225.5q0 111 -72.5 173t-209.5 62q-166 0 -266.5 -89t-100.5 -224z" glyph-name="eight" horiz-adv-x="1148" unicode="8"/><glyph d="M711 1450q199 0 302 -122t103 -357q0 -100 -18 -230q-123 -764 -625 -764q-174 0 -267 84t-93 207q0 20 4 45h76q-10 -106 61.5 -185t224.5 -79q121 0 214 52.5t156.5 151.5t104.5 223t68 286q-72 -152 -200 -221.5t-273 -69.5q-186 0 -289.5 107.5t-103.5 293.5 q0 240 156.5 409t398.5 169zM238 874q0 -156 86 -243.5t243 -87.5q207 0 336 140t129 341q0 160 -88 256t-246 96q-205 0 -332.5 -149.5t-127.5 -352.5z" glyph-name="nine" horiz-adv-x="1167" unicode="9"/><glyph d="M96 -20q-33 0 -55.5 22.5t-22.5 54.5q0 31 22.5 54.5t55.5 23.5q31 0 53.5 -23.5t22.5 -54.5q0 -33 -22.5 -55t-53.5 -22zM166 987q0 31 22.5 54.5t55.5 23.5q31 0 53 -23.5t22 -54.5q0 -33 -22.5 -55.5t-52.5 -22.5q-33 0 -55.5 22.5t-22.5 55.5z" glyph-name="colon" horiz-adv-x="346" unicode=":"/><glyph d="M244 909q-33 0 -55.5 22.5t-22.5 55.5q0 31 22.5 54.5t55.5 23.5q31 0 53 -23.5t22 -54.5q0 -33 -22 -55.5t-53 -22.5zM-23 -186l7 53q115 6 122 113q-39 0 -63.5 19t-24.5 54t22.5 58.5t59.5 23.5q35 0 57.5 -27.5t22.5 -78.5q0 -80 -50 -147.5t-140 -67.5h-13z" glyph-name="semicolon" horiz-adv-x="356" unicode=";"/><glyph d="M862 0l-782 442l12 99l926 444l-14 -92l-842 -406l715 -395z" glyph-name="less" horiz-adv-x="1038" unicode="&lt;"/><glyph d="M100 379l13 70h565l-12 -70h-566zM154 707l12 69h565l-12 -69h-565z" glyph-name="equal" horiz-adv-x="817" unicode="="/><glyph d="M164 985l782 -442l-12 -99l-926 -444l15 92l841 406l-714 395z" glyph-name="greater" horiz-adv-x="1038" unicode=">"/><glyph d="M455 467q14 94 65 163.5t113.5 112.5t125 84t112 104.5t63.5 147.5q23 143 -58 218t-227 75q-156 0 -264.5 -90t-132.5 -272h-84q27 205 157 321.5t330 116.5q186 0 287.5 -98.5t75.5 -272.5q-14 -94 -65.5 -164.5t-114 -113.5t-125 -85t-110.5 -103.5t-60 -143.5 l-19 -107h-86zM367 57q0 31 22.5 54.5t54.5 23.5q31 0 53.5 -23.5t22.5 -54.5q0 -33 -22.5 -55t-53.5 -22q-33 0 -55 22t-22 55z" glyph-name="question" horiz-adv-x="1021" unicode="?"/><glyph d="M799 -20q-307 0 -493.5 168.5t-186.5 465.5q0 350 243.5 594t600.5 244q283 0 453.5 -162t170.5 -438q0 -205 -89 -365.5t-234 -160.5q-86 0 -137.5 57t-47.5 149q-49 -98 -134 -151t-179 -53q-113 0 -190.5 82t-77.5 233q0 182 106.5 307t265.5 125q98 0 170 -49 t86 -137l33 164h55l-71 -463q-14 -82 16.5 -142.5t104.5 -60.5q80 0 141 75t89 179t28 213q0 250 -156 391t-410 141q-334 0 -554 -225t-220 -540q0 -276 172 -426t451 -150q129 0 207 25l-4 -64q-76 -26 -209 -26zM565 645q0 -127 60.5 -191.5t152.5 -64.5q133 0 227.5 121 t94.5 268q0 117 -64.5 176.5t-161.5 59.5q-137 0 -223 -107.5t-86 -261.5z" glyph-name="at" horiz-adv-x="1640" unicode="@"/><glyph d="M-31 0l793 1434h96l338 -1434h-90l-94 412h-723l-226 -412h-94zM330 485h665l-194 844h-8z" glyph-name="A" horiz-adv-x="1333" unicode="A"/><glyph d="M41 0l227 1434h506q180 0 267 -79t87 -214q0 -127 -74.5 -223.5t-207.5 -135.5q262 -59 262 -325q0 -211 -153.5 -334t-405.5 -123h-508zM139 80h410q211 0 339 102.5t128 276.5q0 281 -357 280h-415zM258 817h408q174 0 273 88t99 236q0 109 -66.5 162t-215.5 53h-412z " glyph-name="B" horiz-adv-x="1200" unicode="B"/><glyph d="M657 -20q-248 0 -395 148t-147 443q0 233 86 431t261 324t406 126q209 0 337 -103.5t141 -287.5h-82q-16 150 -122 231.5t-278 81.5q-203 0 -358.5 -116.5t-231 -295t-75.5 -384.5q0 -260 127 -390.5t340 -130.5q172 0 294.5 83t188.5 233h88q-74 -193 -224.5 -293 t-355.5 -100z" glyph-name="C" horiz-adv-x="1323" unicode="C"/><glyph d="M41 0l227 1434h414q291 0 433 -143.5t142 -438.5q0 -375 -210.5 -613.5t-587.5 -238.5h-418zM139 80h324q340 0 524 218t184 556q0 262 -120.5 381t-374.5 119h-334z" glyph-name="D" horiz-adv-x="1312" unicode="D"/><glyph d="M41 0l227 1434h871l-15 -80h-782l-90 -574h723l-12 -78h-723l-101 -622h805l-12 -80h-891z" glyph-name="E" horiz-adv-x="1089" unicode="E"/><glyph d="M41 0l227 1434h889l-12 -80h-803l-94 -594h655l-10 -80h-657l-107 -680h-88z" glyph-name="F" horiz-adv-x="1075" unicode="F"/><glyph d="M659 -20q-254 0 -398 149.5t-144 450.5q0 233 86 428.5t262 319.5t409 124q201 0 319 -88t142 -248h-82q-63 258 -379 258q-213 0 -369.5 -114.5t-231 -290.5t-74.5 -387q0 -264 123.5 -394.5t339.5 -130.5q238 0 386 146.5t191 427.5l-412 -2l13 73h491l-10 -73 q-47 -317 -219.5 -483t-442.5 -166z" glyph-name="G" horiz-adv-x="1409" unicode="G"/><glyph d="M991 0l105 657h-863l-104 -657h-88l227 1434h88l-110 -703h862l111 703h88l-228 -1434h-88z" glyph-name="H" horiz-adv-x="1288" unicode="H"/><glyph d="M41 0l227 1434h88l-227 -1434h-88z" glyph-name="I" horiz-adv-x="335" unicode="I"/><glyph d="M579.5 -20q-247.5 0 -371.5 149.5t-81 411.5h86q-35 -227 66.5 -354.5t308.5 -127.5q205 0 338 126t168 358l141 891h88l-141 -893q-41 -264 -198 -412.5t-404.5 -148.5z" glyph-name="J" horiz-adv-x="1304" unicode="J"/><glyph d="M41 0l227 1434h88l-137 -865l932 865h113l-729 -674l548 -760h-106l-506 700l-270 -249l-72 -451h-88z" glyph-name="K" horiz-adv-x="1220" unicode="K"/><glyph d="M41 0l227 1434h88l-217 -1354h779l-11 -80h-866z" glyph-name="L" horiz-adv-x="1062" unicode="L"/><glyph d="M41 0l227 1434h97l405 -1332l823 1332h103l-228 -1434h-88l197 1251h-4l-770 -1251h-90l-383 1251h-4l-197 -1251h-88z" glyph-name="M" horiz-adv-x="1677" unicode="M"/><glyph d="M41 0l227 1434h111l653 -1313h4l207 1313h88l-227 -1434h-113l-651 1315h-4l-207 -1315h-88z" glyph-name="N" horiz-adv-x="1312" unicode="N"/><glyph d="M645 -20q-240 0 -385 147t-145 440q0 233 87 432t260 326t398 127q244 0 389.5 -147.5t145.5 -442.5q0 -172 -52.5 -329.5t-146.5 -281.5t-237.5 -197.5t-313.5 -73.5zM199 569q0 -256 122.5 -384t329.5 -128q203 0 356.5 119t228.5 298t75 386q0 258 -124 386t-329 128 q-203 0 -356.5 -118.5t-228 -299t-74.5 -387.5z" glyph-name="O" horiz-adv-x="1449" unicode="O"/><glyph d="M41 0l227 1434h486q418 0 417 -359q0 -219 -150.5 -349t-399.5 -130h-400l-92 -596h-88zM236 676h395q211 0 331.5 105.5t120.5 283.5q0 289 -346 289h-395z" glyph-name="P" horiz-adv-x="1167" unicode="P"/><glyph d="M1214 -18l-129 155q-186 -158 -440 -157q-240 0 -385 147t-145 440q0 233 87 432t260 326t398 127q244 0 389.5 -147.5t145.5 -442.5q0 -195 -64.5 -370t-185.5 -299l131 -158zM199 569q0 -256 122.5 -384t329.5 -128q219 0 385 140l-258 311l62 53l254 -307 q104 113 160.5 273.5t56.5 332.5q0 258 -124 386t-329 128q-203 0 -356.5 -118.5t-228 -299t-74.5 -387.5z" glyph-name="Q" horiz-adv-x="1447" unicode="Q"/><glyph d="M930 0l-264 598q-14 -2 -45 -2h-400l-92 -596h-88l227 1434h486q418 0 417 -359q0 -188 -113.5 -313t-307.5 -156l270 -606h-90zM236 676h395q211 0 331.5 105.5t120.5 283.5q0 289 -346 289h-395z" glyph-name="R" horiz-adv-x="1177" unicode="R"/><glyph d="M528 -20q-248 0 -366.5 115.5t-91.5 291.5h84q-14 -147 82 -237.5t303 -90.5q215 0 337.5 97.5t122.5 259.5q0 125 -71.5 182t-214.5 90l-170 37q-324 70 -324 330q0 182 140.5 289.5t369.5 107.5q219 0 333 -98.5t91 -247.5h-82q6 113 -81 189.5t-269 76.5 q-190 0 -301 -85t-111 -230q0 -104 66.5 -167t208.5 -93l170 -37q162 -35 250 -111t88 -227q0 -201 -156 -321.5t-408 -120.5z" glyph-name="S" horiz-adv-x="1208" unicode="S"/><glyph d="M453 0l213 1354h-473l14 80h1034l-12 -80h-475l-213 -1354h-88z" glyph-name="T" horiz-adv-x="1161" unicode="T"/><glyph d="M571 -20q-248 0 -366.5 149.5t-77.5 411.5l141 893h86l-141 -891q-35 -229 64.5 -356.5t308.5 -127.5q207 0 339 126t169 358l141 891h88l-141 -893q-41 -264 -203 -412.5t-408 -148.5z" glyph-name="U" horiz-adv-x="1302" unicode="U"/><glyph d="M545 0l-338 1434h90l305 -1330h8l729 1330h95l-793 -1434h-96z" glyph-name="V" horiz-adv-x="1353" unicode="V"/><glyph d="M371 0l-164 1434h88l143 -1313h6l615 1313h100l199 -1313h6l559 1313h90l-614 -1434h-103l-204 1319l-621 -1319h-100z" glyph-name="W" horiz-adv-x="1933" unicode="W"/><glyph d="M-31 0l654 743l-392 691h101l352 -621l547 621h104l-610 -695l420 -739h-101l-380 672l-590 -672h-105z" glyph-name="X" horiz-adv-x="1282" unicode="X"/><glyph d="M508 0l92 580l-393 854h96l352 -768l596 768h101l-666 -854l-90 -580h-88z" glyph-name="Y" horiz-adv-x="1271" unicode="Y"/><glyph d="M-2 0l12 80l1161 1274h-915l14 80h1020l-16 -80l-1159 -1274h966l-10 -80h-1073z" glyph-name="Z" horiz-adv-x="1236" unicode="Z"/><glyph d="M-2 -266l285 1792h270l-12 -76h-187l-260 -1640h187l-13 -76h-270z" glyph-name="bracketleft" horiz-adv-x="520" unicode="["/><glyph d="M537 0l-332 1434h78l331 -1434h-77z" glyph-name="backslash" horiz-adv-x="759" unicode="\"/><glyph d="M553 1526l-285 -1792h-270l12 76h187l260 1640h-187l13 76h270z" glyph-name="bracketright" horiz-adv-x="520" unicode="]"/><glyph d="M158 952l430 482h67l275 -482h-78l-238 420l-370 -420h-86z" glyph-name="asciicircum" horiz-adv-x="956" unicode="^"/><glyph d="M-4 -78l12 78h1024l-12 -78h-1024z" glyph-name="underscore" horiz-adv-x="1208" unicode="_"/><glyph d="M311 1192l-168 260h76l168 -260h-76z" glyph-name="grave" horiz-adv-x="282" unicode="`"/><glyph d="M328 -20q-141 0 -221 63t-80 182q0 137 101 221t278 105l286 33q100 10 138 31.5t47 68.5l10 51q25 150 -43 215.5t-234 65.5q-313 0 -350 -232l-4 -24h-80l2 28q37 297 447 297q205 0 289.5 -83.5t54.5 -270.5l-117 -731h-80l31 205h-6q-43 -74 -171 -149.5t-298 -75.5z M111 231q0 -180 233 -180q193 0 332 107.5t151 197.5l33 222q-10 -43 -184 -64l-256 -31q-145 -16 -227 -79.5t-82 -172.5z" glyph-name="a" horiz-adv-x="1060" unicode="a"/><glyph d="M549 -20q-137 0 -242.5 66.5t-142.5 201.5l-39 -248h-84l227 1434h84l-98 -617q160 268 457 268q182 0 293.5 -110.5t111.5 -331.5q0 -274 -160.5 -468.5t-406.5 -194.5zM195 422q0 -178 100 -273.5t252 -95.5q215 0 352 177.5t137 404.5q0 188 -94 282.5t-248 94.5 q-217 0 -358 -174t-141 -416z" glyph-name="b" horiz-adv-x="1181" unicode="b"/><glyph d="M492 -20q-193 0 -308.5 114.5t-115.5 337.5q0 270 161.5 461.5t425.5 191.5q166 0 274.5 -85t110.5 -269h-79q-4 147 -91.5 213t-218.5 66q-225 0 -364.5 -168t-139.5 -406q0 -193 96.5 -287t256.5 -94q84 0 155.5 23.5t139 90.5t100.5 171h80q-55 -190 -188 -275 t-295 -85z" glyph-name="c" horiz-adv-x="1069" unicode="c"/><glyph d="M473 -20q-180 0 -293.5 110.5t-113.5 325.5q0 279 158.5 474t408.5 195q139 0 240.5 -66.5t144.5 -201.5h2l98 617h84l-227 -1434h-84l37 248q-76 -135 -198 -201.5t-257 -66.5zM145 430q0 -188 96.5 -282.5t252.5 -94.5q215 0 354 173t139 409q0 184 -99.5 280.5 t-252.5 96.5q-217 0 -353.5 -176.5t-136.5 -405.5z" glyph-name="d" horiz-adv-x="1181" unicode="d"/><glyph d="M483 -20q-199 0 -308 110.5t-109 329.5q0 174 65.5 323.5t197.5 245.5t308 96q180 0 283.5 -100t103.5 -280q0 -121 -27 -197h-845q-4 -57 -5 -88q0 -367 342 -367q268 0 379 219h82q-139 -292 -467 -292zM162 575h768q45 213 -42 325t-261 112q-186 0 -307 -123.5 t-158 -313.5z" glyph-name="e" horiz-adv-x="1079" unicode="e"/><glyph d="M309 1247q37 219 269 219h88l-11 -73h-63q-96 0 -140 -35t-61 -133l-24 -160h229l-10 -72h-232l-157 -993h-84l155 993h-141l10 72h144z" glyph-name="f" horiz-adv-x="569" unicode="f"/><glyph d="M471 20q-178 0 -290.5 105.5t-112.5 310.5q0 270 157.5 459.5t409.5 189.5q135 0 236.5 -61t142.5 -186h2l35 227h84l-148 -938l-20 -123q-20 -121 -76.5 -208t-135.5 -134t-164 -68.5t-181 -21.5q-193 0 -307.5 81t-92.5 232h74q-12 -111 77 -177t257 -66q184 0 308 87 t157 275l20 123l23 141h-4q-80 -125 -199 -186.5t-252 -61.5zM150 453q0 -176 95 -267.5t242 -91.5q215 0 356.5 163t141.5 390q0 180 -98.5 272.5t-251.5 92.5q-215 0 -350 -164t-135 -395z" glyph-name="g" horiz-adv-x="1175" unicode="g"/><glyph d="M41 0l227 1434h84l-90 -572q12 29 41 62.5t77 71.5t125 63.5t165 25.5q172 0 269 -103t60 -335l-102 -647h-84l100 635q29 178 -35.5 276.5t-230.5 98.5t-276.5 -94.5t-141.5 -253.5l-104 -662h-84z" glyph-name="h" unicode="h"/><glyph d="M41 0l168 1065h84l-168 -1065h-84zM238 1394.5q0 26.5 20.5 47t47 20.5t47 -20.5t20.5 -47t-20.5 -47t-47 -20.5t-47 20.5t-20.5 47z" glyph-name="i" horiz-adv-x="335" unicode="i"/><glyph d="M-123 -377q-35 0 -78 6l8 68h48q100 0 145 36t61 134l191 1198h84l-195 -1221q-35 -221 -264 -221zM281 1394.5q0 26.5 19 47t46 20.5t47.5 -20.5t20.5 -47t-20.5 -47t-47.5 -20.5t-46 20.5t-19 47z" glyph-name="j" horiz-adv-x="376" unicode="j"/><glyph d="M41 0l227 1434h84l-162 -1014l744 645h108l-542 -469l436 -596h-96l-400 543l-266 -230l-49 -313h-84z" glyph-name="k" horiz-adv-x="1052" unicode="k"/><glyph d="M41 0l227 1434h84l-227 -1434h-84z" glyph-name="l" horiz-adv-x="333" unicode="l"/><glyph d="M1561 635q57 375 -240 375q-156 0 -257 -99.5t-128 -265.5l-102 -645h-84l102 635q57 375 -242 375q-147 0 -246.5 -89.5t-132.5 -242.5l-106 -678h-84l168 1065h84l-31 -201h2q14 29 37 59.5t67 70.5t115.5 65.5t157.5 25.5q268 0 301 -245q131 246 401 245 q168 0 254 -102t50 -336l-103 -647h-84z" glyph-name="m" horiz-adv-x="1753" unicode="m"/><glyph d="M913 635q29 178 -35.5 276.5t-230.5 98.5q-160 0 -270.5 -90.5t-145.5 -243.5l-106 -676h-84l168 1065h84l-31 -201q23 43 64 87t135 89t209 45q172 0 269 -103t60 -335l-102 -647h-84z" glyph-name="n" unicode="n"/><glyph d="M492 -20q-186 0 -306 113.5t-120 332.5q0 266 164.5 462.5t420.5 196.5q188 0 308 -113.5t120 -332.5q0 -266 -164.5 -462.5t-422.5 -196.5zM150 432q0 -193 98 -286t252 -93q217 0 355 174t138 408q0 190 -98 283.5t-252 93.5q-217 0 -355 -174.5t-138 -405.5z" glyph-name="o" horiz-adv-x="1144" unicode="o"/><glyph d="M-20 -389l229 1454h84l-39 -248q80 135 198.5 201.5t254.5 66.5q180 0 294.5 -109.5t114.5 -322.5q0 -283 -160.5 -478t-410.5 -195q-291 0 -381 268l-101 -637h-83zM195 432q0 -186 98 -282.5t252 -96.5q219 0 355 177.5t136 406.5q0 186 -96 280.5t-248 94.5 q-217 0 -357 -172t-140 -408z" glyph-name="p" horiz-adv-x="1181" unicode="p"/><glyph d="M829 -389l99 637q-76 -135 -198 -201.5t-257 -66.5q-180 0 -293.5 110.5t-113.5 325.5q0 279 158.5 474t408.5 195q139 0 240.5 -66.5t144.5 -201.5h2l39 248h84l-230 -1454h-84zM145 430q0 -188 96.5 -282.5t252.5 -94.5q215 0 354 173t139 409q0 184 -99.5 280.5 t-252.5 96.5q-217 0 -353.5 -176.5t-136.5 -405.5z" glyph-name="q" horiz-adv-x="1181" unicode="q"/><glyph d="M41 0l168 1065h84l-35 -225q41 86 140.5 159.5t248.5 73.5q55 0 78 -10l-12 -72q-31 6 -72 6q-170 0 -276.5 -100t-139.5 -260l-100 -637h-84z" glyph-name="r" horiz-adv-x="694" unicode="r"/><glyph d="M408 -20q-174 0 -286 74.5t-99 219.5h77q-4 -119 89.5 -171t224.5 -52q154 0 255 65.5t101 188.5q0 86 -50 124t-163 69l-184 47q-115 31 -174.5 87t-59.5 152q0 139 116 220t302 81q166 0 262 -70.5t88 -215.5h-71q-8 215 -283 215q-150 0 -240 -57.5t-90 -165.5 q0 -70 44 -112t151 -69l174 -45q133 -37 197.5 -90t64.5 -162q0 -160 -128 -246.5t-318 -86.5z" glyph-name="s" horiz-adv-x="956" unicode="s"/><glyph d="M365 -14q-231 0 -197 221l123 786h-164l10 72h166l41 260h84l-41 -260h213l-10 -72h-213l-121 -764q-14 -98 18.5 -134t128.5 -36h60l-12 -67q-29 -6 -86 -6z" glyph-name="t" horiz-adv-x="600" unicode="t"/><glyph d="M193 430q-29 -178 35.5 -276.5t230.5 -98.5q160 0 270.5 90.5t144.5 243.5l107 676h84l-168 -1065h-84l31 201q-23 -43 -64 -87t-135 -89t-209 -45q-172 0 -269 103t-61 335l103 647h84z" glyph-name="u" unicode="u"/><glyph d="M395 0l-258 1065h84l238 -987h2l545 987h90l-594 -1065h-107z" glyph-name="v" horiz-adv-x="1062" unicode="v"/><glyph d="M285 0l-148 1065h84l127 -969h8l480 969h79l181 -969h8l430 969h86l-479 -1065h-105l-174 954l-473 -954h-104z" glyph-name="w" horiz-adv-x="1589" unicode="w"/><glyph d="M-10 0l471 539l-299 526h96l254 -461l401 461h103l-467 -526l303 -539h-96l-258 475l-408 -475h-100z" glyph-name="x" horiz-adv-x="1009" unicode="x"/><glyph d="M33 -309q190 -31 311 192q49 94 37 144l-244 1038h86l226 -985l534 985h90l-659 -1200q-158 -289 -394 -252z" glyph-name="y" horiz-adv-x="1042" unicode="y"/><glyph d="M-2 0l12 76l881 913h-717l12 76h820l-11 -76l-882 -913h737l-12 -76h-840z" glyph-name="z" horiz-adv-x="1003" unicode="z"/><glyph d="M199 -266q-61 0 -95 42t-24 103l96 602l-70 146l117 149l96 604q10 61 55.5 103.5t108.5 42.5h86l-12 -76h-72q-33 0 -56 -20.5t-28 -53.5l-96 -610l-100 -139l57 -135l-96 -609q-4 -33 11.5 -53t47.5 -20h72l-12 -76h-86z" glyph-name="braceleft" horiz-adv-x="503" unicode="{"/><glyph d="M8 -389l322 2027h78l-322 -2027h-78z" glyph-name="bar" horiz-adv-x="385" unicode="|"/><glyph d="M336 1526q61 0 95 -42t24 -104l-97 -602l70 -145l-117 -150l-96 -604q-10 -61 -55 -103t-109 -42h-86l12 76h72q33 0 56.5 20t27.5 53l96 611l101 139l-58 135l97 608q4 33 -11.5 53.5t-48.5 20.5h-71l12 76h86z" glyph-name="braceright" horiz-adv-x="503" unicode="}"/><glyph d="M618.5 489q-75.5 0 -163.5 75t-144 75q-66 0 -97.5 -34t-29.5 -73h-57q0 86 55.5 132.5t131 46.5t163.5 -75t144 -75q68 0 98.5 35t28.5 74h57q0 -86 -55.5 -133.5t-131 -47.5z" glyph-name="asciitilde" horiz-adv-x="911" unicode="~"/><glyph glyph-name="uni00A0" horiz-adv-x="471" unicode=" "/><glyph d="M270 715l-166 -1084h-88l179 1084h75zM203 1008q0 33 22.5 55t53.5 22q33 0 55 -22.5t22 -54.5q0 -31 -22.5 -54.5t-54.5 -23.5q-31 0 -53.5 23.5t-22.5 54.5z" glyph-name="exclamdown" horiz-adv-x="405" unicode="¡"/><glyph d="M434 -82l35 217q-174 12 -276.5 125t-102.5 318q0 254 151.5 438t399.5 198l35 220h57l-35 -217q158 -6 260.5 -89.5t104.5 -257.5h-80q-4 139 -87 204t-210 69l-147 -936q127 4 229 69.5t150 210.5h79q-53 -184 -183 -267t-288 -87l-34 -215h-58zM170 582 q0 -176 84 -268.5t227 -104.5l148 932q-207 -18 -333 -179t-126 -380z" glyph-name="cent" horiz-adv-x="1069" unicode="¢"/><glyph d="M31 55q268 233 268 475q0 41 -6 78h-176l8 64h154q-6 23 -28 94.5t-32 123.5t-10 107q0 197 133 324t342 127q197 0 297 -113.5t70 -312.5l-7 -39h-79l6 35q29 176 -54 265t-237 89q-170 0 -280.5 -101.5t-110.5 -266.5q0 -53 11 -106.5t31.5 -123t28.5 -102.5h306 l-11 -64h-282q6 -39 6 -80q0 -246 -256 -467q100 37 203.5 37t179.5 -18.5t178 -23.5t197 22l-13 -78q-100 -27 -204.5 -20.5t-183.5 27t-189.5 18.5t-220.5 -45z" glyph-name="sterling" horiz-adv-x="1077" unicode="£"/><glyph d="M684 516q-166 0 -293 105l-96 -95l-59 58l96 98q-106 123 -107 293q0 166 107 295l-96 96l59 59l96 -96q127 104 293 104.5t291 -104.5l98 96l60 -59l-97 -96q106 -129 107 -295q0 -170 -107 -293l97 -98l-60 -58l-96 95q-127 -105 -293 -105zM301 975 q0 -158 114.5 -270.5t268.5 -112.5t269.5 112.5t115.5 270.5q0 156 -116.5 269.5t-268.5 113.5t-267.5 -113.5t-115.5 -269.5z" glyph-name="currency" horiz-adv-x="1226" unicode="¤"/><glyph d="M301 512l12 61h287v7l-393 854h96l352 -768l596 768h101l-666 -854v-7h287l-12 -61h-285l-21 -133h287l-12 -60h-285l-49 -319h-88l51 319h-289l13 60h284l23 133h-289z" glyph-name="yen" horiz-adv-x="1271" unicode="¥"/><glyph d="M225 983l105 655h78l-105 -655h-78zM8 -389l103 655h77l-102 -655h-78z" glyph-name="brokenbar" horiz-adv-x="385" unicode="¦"/><glyph d="M446 -483q-240 0 -344 106.5t-100 286.5h88q2 -145 84 -230.5t287 -85.5q412 0 459 306q41 252 -258 315l-216 45q-336 72 -294 363q27 158 137 245q-66 90 -43 222q27 160 156.5 260t357.5 100q414 0 409 -334h-84q-4 119 -75.5 187.5t-261.5 68.5q-193 0 -294.5 -77.5 t-119.5 -204.5q-39 -236 244 -291l170 -37q193 -41 286.5 -131t67.5 -262q-23 -152 -127 -248q53 -92 33 -221q-29 -178 -171.5 -280.5t-390.5 -102.5zM240 623q-33 -236 243 -291l170 -37q184 -37 271 -115q72 72 90 187q41 252 -258 315l-215 45q-127 27 -201 86 q-84 -71 -100 -190z" glyph-name="section" horiz-adv-x="1230" unicode="§"/><glyph d="M528.5 1327q-28.5 0 -48 20.5t-19.5 47t19.5 47t48 20.5t48 -20.5t19.5 -47t-19.5 -47t-48 -20.5zM137 1394.5q0 26.5 19.5 47t48 20.5t48 -20.5t19.5 -47t-19.5 -47t-48 -20.5t-48 20.5t-19.5 47z" glyph-name="dieresis" horiz-adv-x="460" unicode="¨"/><glyph d="M750 -14q-276 0 -455.5 171t-179.5 447q0 344 250.5 593t597.5 249q276 0 455 -171t179 -444q0 -346 -250.5 -595.5t-596.5 -249.5zM178 610q0 -252 161 -406.5t415 -154.5q319 0 548.5 231.5t229.5 542.5q0 252 -162 405.5t-414 153.5q-319 0 -548.5 -230.5 t-229.5 -541.5zM426 645q0 209 141.5 362.5t356.5 153.5q123 0 211 -58.5t112 -178.5h-69q-41 172 -260 172q-188 0 -306 -130t-118 -317q0 -152 82.5 -232.5t226.5 -80.5q219 0 313 176h70q-61 -123 -167 -182.5t-226 -59.5q-160 0 -263.5 100.5t-103.5 274.5z" glyph-name="copyright" horiz-adv-x="1654" unicode="©"/><glyph d="M321.5 791q-81.5 0 -130 41.5t-48.5 123.5q0 176 238 197l264 25q14 113 -14.5 159.5t-138.5 46.5q-184 0 -199 -129h-64q23 186 267 187q143 0 188 -64.5t23 -212.5l-58 -370h-61l16 116q-43 -47 -122 -83.5t-160.5 -36.5zM209 963q0 -113 137 -113q96 0 168 48t102 95 l19 131l-254 -22q-172 -14 -172 -139z" glyph-name="ordfeminine" horiz-adv-x="733" unicode="ª"/><glyph d="M637 340l-234 240l9 63l311 240l-14 -95l-228 -178l170 -180zM90 580l8 63l312 240l-15 -95l-227 -178l170 -180l-16 -90z" glyph-name="guillemotleft" horiz-adv-x="751" unicode="«"/><glyph d="M784 313l39 250h-694l12 76h779l-52 -326h-84z" glyph-name="logicalnot" horiz-adv-x="1028" unicode="¬"/><glyph d="M84 543l12 69h522l-12 -69h-522z" glyph-name="uni00AD" horiz-adv-x="688" unicode="­"/><glyph d="M750 -14q-276 0 -455.5 171t-179.5 447q0 344 250.5 593t597.5 249q276 0 455 -171t179 -444q0 -346 -250.5 -595.5t-596.5 -249.5zM178 610q0 -252 161 -406.5t415 -154.5q319 0 548.5 231.5t229.5 542.5q0 252 -162 405.5t-414 153.5q-319 0 -548.5 -230.5 t-229.5 -541.5zM498 313l127 805h360q119 0 184.5 -56t65.5 -161q0 -109 -69.5 -184.5t-184.5 -95.5l160 -308h-74l-154 301h-10h-293l-47 -301h-65zM621 670h284q123 0 196 62.5t73 162.5q0 168 -205 168h-287z" glyph-name="registered" horiz-adv-x="1654" unicode="®"/><glyph d="M137 1391l8 61h564l-9 -61h-563z" glyph-name="macron" horiz-adv-x="565" unicode="¯"/><glyph d="M485 868q-125 0 -211 85t-86 214t86 214t211 85q127 0 213 -85t86 -214t-86 -214t-213 -85zM256 1167.5q0 -104.5 65.5 -167t163.5 -62.5q100 0 166 62.5t66 167t-65.5 167t-166.5 62.5q-98 0 -163.5 -62.5t-65.5 -167z" glyph-name="degree" horiz-adv-x="772" unicode="°"/><glyph d="M104 0l11 72h704l-10 -72h-705zM139 635l13 78h354l55 356h82l-55 -356h352l-12 -78h-355l-55 -356h-82l56 356h-353z" glyph-name="plusminus" horiz-adv-x="1036" unicode="±"/><glyph d="M145 928q10 127 191 225q47 27 60.5 35t38 27.5t33.5 38t13 42.5q8 45 -17.5 75t-78.5 30q-113 0 -135 -117l-2 -12h-47l2 12q12 72 61 116t125 44q74 0 111 -40t26 -104q-8 -59 -51 -100t-121 -82q-70 -39 -112.5 -85t-42.5 -85v-2h282l-8 -45h-330z" glyph-name="uni00B2" horiz-adv-x="509" unicode="²"/><glyph d="M328 893q-88 0 -130 47t-30 127h45q-18 -131 125 -131q137 0 158 113q8 55 -29 83.5t-105 28.5h-22l6 39h23q59 0 99 30t46 73q6 47 -20.5 72.5t-83.5 25.5q-127 0 -146 -125h-45q10 80 62.5 124t132.5 44q78 0 115.5 -41t27.5 -103q-16 -90 -115 -114q45 -10 76 -46 t23 -93q-10 -68 -66.5 -111t-146.5 -43z" glyph-name="uni00B3" horiz-adv-x="540" unicode="³"/><glyph d="M104 1192l242 260h84l-242 -260h-84z" glyph-name="acute" horiz-adv-x="284" unicode="´"/><glyph d="M-20 -389l122 782l4 25l103 647h84l-105 -655q-23 -168 43 -261.5t228 -93.5q160 0 270.5 90.5t144.5 243.5l107 676h84l-168 -1065h-84l31 201q-23 -43 -64 -87t-135 -89t-209 -45q-211 0 -293 137l-80 -506h-83z" glyph-name="uni00B5" unicode="µ"/><glyph d="M487 -451l172 1094h-167q-166 0 -254 86t-88 244q0 199 131 330t337 131h488l-10 -68l-289 -1817h-74l289 1817h-170l-289 -1817h-76z" glyph-name="paragraph" horiz-adv-x="1087" unicode="¶"/><glyph d="M190 500q-33 0 -55 22.5t-22 55.5q0 31 22.5 54t54.5 23q31 0 53.5 -23.5t22.5 -53.5q0 -33 -22.5 -55.5t-53.5 -22.5z" glyph-name="periodcentered" horiz-adv-x="364" unicode="·"/><glyph d="M-111 -354q88 0 139.5 32.5t51.5 90.5q0 53 -42 73.5t-110 -6.5l-32 41l114 123h82l-98 -98q25 4 33 4q53 0 89 -33t36 -98q0 -94 -78 -144.5t-195 -50.5z" glyph-name="cedilla" horiz-adv-x="274" unicode="¸"/><glyph d="M319 1366q-37 -53 -112 -47l6 41q35 0 68.5 22.5t50.5 51.5h45l-84 -535h-45z" glyph-name="uni00B9" horiz-adv-x="325" unicode="¹"/><glyph d="M428 791q-113 0 -189.5 71.5t-76.5 200.5q0 158 106.5 268.5t257.5 110.5q117 0 195 -71t78 -200q0 -158 -110.5 -269t-260.5 -111zM227 1067q0 -102 59.5 -157.5t151.5 -55.5q125 0 210 92t85 221q0 102 -59.5 156.5t-151.5 54.5q-125 0 -210 -91t-85 -220z" glyph-name="ordmasculine" horiz-adv-x="776" unicode="º"/><glyph d="M141 883l234 -240l-8 -63l-312 -240l15 94l227 178l-170 181zM369 340l14 94l227 178l-170 181l17 90l231 -240l-8 -63z" glyph-name="guillemotright" horiz-adv-x="753" unicode="»"/><glyph d="M319 1366q-37 -53 -112 -47l6 41q35 0 68.5 22.5t50.5 51.5h45l-84 -535h-45zM25 0l1122 1434h55l-1120 -1434h-57zM674 135l8 39l301 361h47l-57 -361h61l-6 -39h-61l-21 -135h-47l21 135h-246zM729 174h199l45 291z" glyph-name="onequarter" horiz-adv-x="1181" unicode="¼"/><glyph d="M332 1366q-37 -53 -113 -47l6 41q35 0 69 22.5t50 51.5h45l-84 -535h-45zM53 0l1123 1434h55l-1120 -1434h-58zM682 0l2 27q10 127 190 225q47 27 60.5 35t38 27.5t34 38t13.5 42.5q8 45 -17.5 75t-78.5 30q-113 0 -136 -117l-2 -12h-47l2 12q12 72 61.5 116t125.5 44 q74 0 110.5 -40t26.5 -104q-8 -59 -51 -100t-121 -82q-70 -39 -113 -85t-43 -85v-2h283l-8 -45h-330z" glyph-name="onehalf" horiz-adv-x="1189" unicode="½"/><glyph d="M328 893q-88 0 -130 47t-30 127h45q-18 -131 125 -131q137 0 158 113q8 55 -29 83.5t-105 28.5h-22l6 39h23q59 0 99 30t46 73q6 47 -20.5 72.5t-83.5 25.5q-127 0 -146 -125h-45q10 80 62.5 124t132.5 44q78 0 115.5 -41t27.5 -103q-16 -90 -115 -114q45 -10 76 -46 t23 -93q-10 -68 -66.5 -111t-146.5 -43zM162 0l1122 1434h55l-1120 -1434h-57zM717 135l8 39l301 361h47l-57 -361h61l-6 -39h-61l-21 -135h-47l21 135h-246zM772 174h199l45 291z" glyph-name="threequarters" horiz-adv-x="1271" unicode="¾"/><glyph d="M567 598q-14 -94 -65 -163.5t-113.5 -112.5t-125 -84t-112 -104.5t-63.5 -147.5q-23 -143 58 -218t227 -75q156 0 264 90t133 272h84q-27 -205 -157 -321.5t-330 -116.5q-186 0 -288 98.5t-75 272.5q14 94 65.5 164.5t114 113.5t125 85t110.5 103.5t60 143.5l19 107h86z M502 1008q0 33 22.5 55t53.5 22q33 0 55 -22.5t22 -54.5q0 -31 -22.5 -54.5t-54.5 -23.5q-31 0 -53.5 23.5t-22.5 54.5z" glyph-name="questiondown" horiz-adv-x="1021" unicode="¿"/><glyph d="M-31 0l793 1434h96l338 -1434h-90l-94 412h-723l-226 -412h-94zM330 485h665l-194 844h-8zM621 1821h75l168 -260h-76z" glyph-name="Agrave" horiz-adv-x="1333" unicode="À"/><glyph d="M-31 0l793 1434h96l338 -1434h-90l-94 412h-723l-226 -412h-94zM330 485h665l-194 844h-8zM745 1561l242 260h84l-242 -260h-84z" glyph-name="Aacute" horiz-adv-x="1333" unicode="Á"/><glyph d="M-31 0l793 1434h96l338 -1434h-90l-94 412h-723l-226 -412h-94zM330 485h665l-194 844h-8zM561 1569l254 252h111l174 -252h-82l-150 219l-217 -219h-90z" glyph-name="Acircumflex" horiz-adv-x="1333" unicode="Â"/><glyph d="M-31 0l793 1434h96l338 -1434h-90l-94 412h-723l-226 -412h-94zM330 485h665l-194 844h-8zM539 1669q12 86 60 129t116 43q47 0 86 -23.5t60.5 -53t55 -53t72.5 -23.5q53 0 80 34.5t31 73.5h63q-12 -86 -60 -129t-114 -43q-49 0 -88 23.5t-59.5 53.5t-54 53.5t-72.5 23.5 q-53 0 -80 -35t-31 -74h-65z" glyph-name="Atilde" horiz-adv-x="1333" unicode="Ã"/><glyph d="M-31 0l793 1434h96l338 -1434h-90l-94 412h-723l-226 -412h-94zM330 485h665l-194 844h-8zM635 1763.5q0 26.5 20.5 47t47 20.5t47 -20.5t20.5 -47t-20.5 -47t-47 -20.5t-47 20.5t-20.5 47zM958 1763.5q0 26.5 20.5 47t47.5 20.5t47.5 -20.5t20.5 -47t-20.5 -47 t-47.5 -20.5t-47.5 20.5t-20.5 47z" glyph-name="Adieresis" horiz-adv-x="1333" unicode="Ä"/><glyph d="M-31 0l793 1434h96l338 -1434h-90l-94 412h-723l-226 -412h-94zM330 485h665l-194 844h-8zM698 1710.5q0 65.5 47.5 111.5t115 46t114.5 -46t47 -111.5t-47 -112t-114.5 -46.5t-115 46.5t-47.5 112zM756 1710q0 -45 29.5 -75.5t74.5 -30.5t75 30.5t30 75.5q0 43 -30 74 t-75 31t-74.5 -31t-29.5 -74z" glyph-name="Aring" horiz-adv-x="1333" unicode="Å"/><glyph d="M-31 0l1213 1434h870l-14 -80h-783l-90 -574h723l-12 -78h-723l-100 -622h805l-13 -80h-891l68 426h-596l-358 -426h-99zM489 502h545l125 794z" glyph-name="AE" horiz-adv-x="2002" unicode="Æ"/><glyph d="M655 -20l-77 -78q25 4 32 4q53 0 89 -33t36 -98q0 -94 -77.5 -144.5t-194.5 -50.5l10 66q88 0 139.5 32.5t51.5 90.5q0 53 -42 73.5t-110 -6.5l-33 41l101 107q-215 23 -340 170t-125 417q0 233 86 431t261 324t406 126q209 0 337 -103.5t141 -287.5h-82 q-16 150 -122 231.5t-278 81.5q-203 0 -358.5 -116.5t-231 -295t-75.5 -384.5q0 -260 127 -390.5t340 -130.5q172 0 294.5 83t188.5 233h88q-74 -193 -224.5 -293t-357.5 -100z" glyph-name="Ccedilla" horiz-adv-x="1323" unicode="Ç"/><glyph d="M41 0l227 1434h871l-15 -80h-782l-90 -574h723l-12 -78h-723l-101 -622h805l-12 -80h-891zM502 1821h76l167 -260h-75z" glyph-name="Egrave" horiz-adv-x="1089" unicode="È"/><glyph d="M41 0l227 1434h871l-15 -80h-782l-90 -574h723l-12 -78h-723l-101 -622h805l-12 -80h-891zM627 1561l241 260h84l-241 -260h-84z" glyph-name="Eacute" horiz-adv-x="1089" unicode="É"/><glyph d="M41 0l227 1434h871l-15 -80h-782l-90 -574h723l-12 -78h-723l-101 -622h805l-12 -80h-891zM442 1569l254 252h111l174 -252h-82l-149 219l-218 -219h-90z" glyph-name="Ecircumflex" horiz-adv-x="1089" unicode="Ê"/><glyph d="M41 0l227 1434h871l-15 -80h-782l-90 -574h723l-12 -78h-723l-101 -622h805l-12 -80h-891zM516 1763.5q0 26.5 20.5 47t47 20.5t47 -20.5t20.5 -47t-20.5 -47t-47 -20.5t-47 20.5t-20.5 47zM840 1763.5q0 26.5 20.5 47t47 20.5t47 -20.5t20.5 -47t-20.5 -47t-47 -20.5 t-47 20.5t-20.5 47z" glyph-name="Edieresis" horiz-adv-x="1089" unicode="Ë"/><glyph d="M41 0l227 1434h88l-227 -1434h-88zM121 1821h76l168 -260h-76z" glyph-name="Igrave" horiz-adv-x="335" unicode="Ì"/><glyph d="M41 0l227 1434h88l-227 -1434h-88zM246 1561l241 260h84l-241 -260h-84z" glyph-name="Iacute" horiz-adv-x="335" unicode="Í"/><glyph d="M41 0l227 1434h88l-227 -1434h-88zM61 1569l254 252h111l174 -252h-82l-149 219l-217 -219h-91z" glyph-name="Icircumflex" horiz-adv-x="335" unicode="Î"/><glyph d="M41 0l227 1434h88l-227 -1434h-88zM135 1763.5q0 26.5 20.5 47t47 20.5t47 -20.5t20.5 -47t-20.5 -47t-47 -20.5t-47 20.5t-20.5 47zM459 1763.5q0 26.5 20.5 47t47 20.5t47 -20.5t20.5 -47t-20.5 -47t-47 -20.5t-47 20.5t-20.5 47z" glyph-name="Idieresis" horiz-adv-x="335" unicode="Ï"/><glyph d="M76 0l108 682h-139l12 70h138l108 682h414q291 0 433 -143.5t142 -438.5q0 -375 -211 -613.5t-587 -238.5h-418zM174 80h324q340 0 524 218t184 556q0 262 -120.5 381t-374.5 119h-334l-96 -602h299l-13 -70h-297z" glyph-name="Eth" horiz-adv-x="1347" unicode="Ð"/><glyph d="M41 0l227 1434h111l653 -1313h4l207 1313h88l-227 -1434h-113l-651 1315h-4l-207 -1315h-88zM526 1669q12 86 60.5 129t115.5 43q47 0 86 -23.5t60.5 -53t55.5 -53t73 -23.5q53 0 79.5 34.5t30.5 73.5h64q-12 -86 -60.5 -129t-113.5 -43q-49 0 -88 23.5t-59.5 53.5 t-54.5 53.5t-73 23.5q-53 0 -79.5 -35t-30.5 -74h-66z" glyph-name="Ntilde" horiz-adv-x="1312" unicode="Ñ"/><glyph d="M645 -20q-240 0 -385 147t-145 440q0 233 87 432t260 326t398 127q244 0 389.5 -147.5t145.5 -442.5q0 -172 -52.5 -329.5t-146.5 -281.5t-237.5 -197.5t-313.5 -73.5zM199 569q0 -256 122.5 -384t329.5 -128q203 0 356.5 119t228.5 298t75 386q0 258 -124 386t-329 128 q-203 0 -356.5 -118.5t-228 -299t-74.5 -387.5zM678 1821h76l168 -260h-76z" glyph-name="Ograve" horiz-adv-x="1449" unicode="Ò"/><glyph d="M645 -20q-240 0 -385 147t-145 440q0 233 87 432t260 326t398 127q244 0 389.5 -147.5t145.5 -442.5q0 -172 -52.5 -329.5t-146.5 -281.5t-237.5 -197.5t-313.5 -73.5zM199 569q0 -256 122.5 -384t329.5 -128q203 0 356.5 119t228.5 298t75 386q0 258 -124 386t-329 128 q-203 0 -356.5 -118.5t-228 -299t-74.5 -387.5zM801 1561l241 260h84l-241 -260h-84z" glyph-name="Oacute" horiz-adv-x="1449" unicode="Ó"/><glyph d="M645 -20q-240 0 -385 147t-145 440q0 233 87 432t260 326t398 127q244 0 389.5 -147.5t145.5 -442.5q0 -172 -52.5 -329.5t-146.5 -281.5t-237.5 -197.5t-313.5 -73.5zM199 569q0 -256 122.5 -384t329.5 -128q203 0 356.5 119t228.5 298t75 386q0 258 -124 386t-329 128 q-203 0 -356.5 -118.5t-228 -299t-74.5 -387.5zM618 1569l254 252h111l174 -252h-82l-149 219l-217 -219h-91z" glyph-name="Ocircumflex" horiz-adv-x="1449" unicode="Ô"/><glyph d="M645 -20q-240 0 -385 147t-145 440q0 233 87 432t260 326t398 127q244 0 389.5 -147.5t145.5 -442.5q0 -172 -52.5 -329.5t-146.5 -281.5t-237.5 -197.5t-313.5 -73.5zM199 569q0 -256 122.5 -384t329.5 -128q203 0 356.5 119t228.5 298t75 386q0 258 -124 386t-329 128 q-203 0 -356.5 -118.5t-228 -299t-74.5 -387.5zM594 1669q12 86 60 129t116 43q74 0 145.5 -76.5t128.5 -76.5q53 0 80 34.5t31 73.5h64q-12 -86 -60.5 -129t-114.5 -43q-49 0 -87.5 23.5t-59 53.5t-54.5 53.5t-73 23.5q-53 0 -79.5 -35t-31.5 -74h-65z" glyph-name="Otilde" horiz-adv-x="1449" unicode="Õ"/><glyph d="M645 -20q-240 0 -385 147t-145 440q0 233 87 432t260 326t398 127q244 0 389.5 -147.5t145.5 -442.5q0 -172 -52.5 -329.5t-146.5 -281.5t-237.5 -197.5t-313.5 -73.5zM199 569q0 -256 122.5 -384t329.5 -128q203 0 356.5 119t228.5 298t75 386q0 258 -124 386t-329 128 q-203 0 -356.5 -118.5t-228 -299t-74.5 -387.5zM690 1763.5q0 26.5 19.5 47t48 20.5t48 -20.5t19.5 -47t-19.5 -47t-48 -20.5t-48 20.5t-19.5 47zM1014 1763.5q0 26.5 19.5 47t48 20.5t48 -20.5t19.5 -47t-19.5 -47t-48 -20.5t-48 20.5t-19.5 47z" glyph-name="Odieresis" horiz-adv-x="1449" unicode="Ö"/><glyph d="M109 207l-50 55l289 254l-209 250l64 55l207 -252l286 252l49 -55l-288 -252l209 -252l-62 -55l-209 252z" glyph-name="multiply" horiz-adv-x="811" unicode="×"/><glyph d="M188 -102l119 186q-193 154 -192 483q0 233 87 432t260 326t398 127q160 0 279 -63l88 137h82l-111 -174q197 -154 197 -490q0 -172 -52.5 -329.5t-146.5 -281.5t-237.5 -197.5t-313.5 -73.5q-160 0 -280 65l-95 -147h-82zM199 569q0 -283 153 -413l742 1163 q-102 55 -236 55q-203 0 -356.5 -118.5t-228 -299t-74.5 -387.5zM410 115q100 -57 241 -58q203 0 356.5 119t228.5 298t75 386q0 289 -160 420z" glyph-name="Oslash" horiz-adv-x="1449" unicode="Ø"/><glyph d="M571 -20q-248 0 -366.5 149.5t-77.5 411.5l141 893h86l-141 -891q-35 -229 64.5 -356.5t308.5 -127.5q207 0 339 126t169 358l141 891h88l-141 -893q-41 -264 -203 -412.5t-408 -148.5zM608 1821h76l168 -260h-76z" glyph-name="Ugrave" horiz-adv-x="1302" unicode="Ù"/><glyph d="M571 -20q-248 0 -366.5 149.5t-77.5 411.5l141 893h86l-141 -891q-35 -229 64.5 -356.5t308.5 -127.5q207 0 339 126t169 358l141 891h88l-141 -893q-41 -264 -203 -412.5t-408 -148.5zM733 1561l242 260h84l-242 -260h-84z" glyph-name="Uacute" horiz-adv-x="1302" unicode="Ú"/><glyph d="M571 -20q-248 0 -366.5 149.5t-77.5 411.5l141 893h86l-141 -891q-35 -229 64.5 -356.5t308.5 -127.5q207 0 339 126t169 358l141 891h88l-141 -893q-41 -264 -203 -412.5t-408 -148.5zM549 1569l254 252h110l174 -252h-81l-150 219l-217 -219h-90z" glyph-name="Ucircumflex" horiz-adv-x="1302" unicode="Û"/><glyph d="M571 -20q-248 0 -366.5 149.5t-77.5 411.5l141 893h86l-141 -891q-35 -229 64.5 -356.5t308.5 -127.5q207 0 339 126t169 358l141 891h88l-141 -893q-41 -264 -203 -412.5t-408 -148.5zM623 1763.5q0 26.5 20.5 47t47 20.5t47 -20.5t20.5 -47t-20.5 -47t-47 -20.5 t-47 20.5t-20.5 47zM946 1763.5q0 26.5 20.5 47t47 20.5t47 -20.5t20.5 -47t-20.5 -47t-47 -20.5t-47 20.5t-20.5 47z" glyph-name="Udieresis" horiz-adv-x="1302" unicode="Ü"/><glyph d="M508 0l92 580l-393 854h96l352 -768l596 768h101l-666 -854l-90 -580h-88zM713 1561l241 260h84l-241 -260h-84z" glyph-name="Yacute" horiz-adv-x="1271" unicode="Ý"/><glyph d="M41 0l227 1434h84l-47 -299h449q418 0 417 -359q0 -219 -150.5 -349t-399.5 -130h-445l-47 -297h-88zM188 379h443q211 0 331.5 105.5t120.5 283.5q0 287 -346 287h-444z" glyph-name="Thorn" horiz-adv-x="1212" unicode="Þ"/><glyph d="M215 1094q55 358 475 358q379 0 379 -297q0 -129 -73.5 -222t-213.5 -128q264 -66 265 -332q0 -225 -160 -349t-434 -124h-158l12 78h148q238 0 373 102.5t135 290.5q0 293 -388 293h-161l12 76h162q186 0 290.5 76.5t104.5 228.5q0 121 -73.5 176t-231.5 55 q-338 0 -379 -282l-174 -1094h-84z" glyph-name="germandbls" horiz-adv-x="1134" unicode="ß"/><glyph d="M328 -20q-141 0 -221 63t-80 182q0 137 101 221t278 105l286 33q100 10 138 31.5t47 68.5l10 51q25 150 -43 215.5t-234 65.5q-313 0 -350 -232l-4 -24h-80l2 28q37 297 447 297q205 0 289.5 -83.5t54.5 -270.5l-117 -731h-80l31 205h-6q-43 -74 -171 -149.5t-298 -75.5z M111 231q0 -180 233 -180q193 0 332 107.5t151 197.5l33 222q-10 -43 -184 -64l-256 -31q-145 -16 -227 -79.5t-82 -172.5zM424 1452h76l168 -260h-76z" glyph-name="agrave" horiz-adv-x="1060" unicode="à"/><glyph d="M328 -20q-141 0 -221 63t-80 182q0 137 101 221t278 105l286 33q100 10 138 31.5t47 68.5l10 51q25 150 -43 215.5t-234 65.5q-313 0 -350 -232l-4 -24h-80l2 28q37 297 447 297q205 0 289.5 -83.5t54.5 -270.5l-117 -731h-80l31 205h-6q-43 -74 -171 -149.5t-298 -75.5z M111 231q0 -180 233 -180q193 0 332 107.5t151 197.5l33 222q-10 -43 -184 -64l-256 -31q-145 -16 -227 -79.5t-82 -172.5zM549 1192l242 260h83l-241 -260h-84z" glyph-name="aacute" horiz-adv-x="1060" unicode="á"/><glyph d="M328 -20q-141 0 -221 63t-80 182q0 137 101 221t278 105l286 33q100 10 138 31.5t47 68.5l10 51q25 150 -43 215.5t-234 65.5q-313 0 -350 -232l-4 -24h-80l2 28q37 297 447 297q205 0 289.5 -83.5t54.5 -270.5l-117 -731h-80l31 205h-6q-43 -74 -171 -149.5t-298 -75.5z M111 231q0 -180 233 -180q193 0 332 107.5t151 197.5l33 222q-10 -43 -184 -64l-256 -31q-145 -16 -227 -79.5t-82 -172.5zM365 1200l253 252h111l174 -252h-82l-149 219l-217 -219h-90z" glyph-name="acircumflex" horiz-adv-x="1060" unicode="â"/><glyph d="M328 -20q-141 0 -221 63t-80 182q0 137 101 221t278 105l286 33q100 10 138 31.5t47 68.5l10 51q25 150 -43 215.5t-234 65.5q-313 0 -350 -232l-4 -24h-80l2 28q37 297 447 297q205 0 289.5 -83.5t54.5 -270.5l-117 -731h-80l31 205h-6q-43 -74 -171 -149.5t-298 -75.5z M111 231q0 -180 233 -180q193 0 332 107.5t151 197.5l33 222q-10 -43 -184 -64l-256 -31q-145 -16 -227 -79.5t-82 -172.5zM342 1300q12 86 60.5 129.5t115.5 43.5q47 0 86 -24t60.5 -53.5t55.5 -53t73 -23.5q53 0 79.5 35t30.5 73h64q-12 -86 -60.5 -129t-113.5 -43 q-49 0 -88 24t-59.5 53.5t-54.5 53t-73 23.5q-53 0 -79.5 -35t-30.5 -74h-66z" glyph-name="atilde" horiz-adv-x="1060" unicode="ã"/><glyph d="M328 -20q-141 0 -221 63t-80 182q0 137 101 221t278 105l286 33q100 10 138 31.5t47 68.5l10 51q25 150 -43 215.5t-234 65.5q-313 0 -350 -232l-4 -24h-80l2 28q37 297 447 297q205 0 289.5 -83.5t54.5 -270.5l-117 -731h-80l31 205h-6q-43 -74 -171 -149.5t-298 -75.5z M111 231q0 -180 233 -180q193 0 332 107.5t151 197.5l33 222q-10 -43 -184 -64l-256 -31q-145 -16 -227 -79.5t-82 -172.5zM438 1394.5q0 26.5 20.5 47t47 20.5t47 -20.5t20.5 -47t-20.5 -47t-47 -20.5t-47 20.5t-20.5 47zM762 1394.5q0 26.5 20.5 47t47 20.5t47 -20.5 t20.5 -47t-20.5 -47t-47 -20.5t-47 20.5t-20.5 47z" glyph-name="adieresis" horiz-adv-x="1060" unicode="ä"/><glyph d="M328 -20q-141 0 -221 63t-80 182q0 137 101 221t278 105l286 33q100 10 138 31.5t47 68.5l10 51q25 150 -43 215.5t-234 65.5q-313 0 -350 -232l-4 -24h-80l2 28q37 297 447 297q205 0 289.5 -83.5t54.5 -270.5l-117 -731h-80l31 205h-6q-43 -74 -171 -149.5t-298 -75.5z M111 231q0 -180 233 -180q193 0 332 107.5t151 197.5l33 222q-10 -43 -184 -64l-256 -31q-145 -16 -227 -79.5t-82 -172.5zM500 1341.5q0 65.5 47 111.5t114.5 46t114.5 -46t47 -111.5t-47 -111.5t-114.5 -46t-114.5 46t-47 111.5zM557 1341q0 -45 29.5 -75.5t75 -30.5 t75 30.5t29.5 75.5q0 43 -29.5 74t-75 31t-75 -31t-29.5 -74z" glyph-name="aring" horiz-adv-x="1060" unicode="å"/><glyph d="M342 -20q-152 0 -230.5 67.5t-78.5 190.5q0 152 114.5 243.5t313.5 91.5h401v2l29 185q20 133 -49.5 193.5t-231.5 60.5q-309 0 -344 -213l-4 -27h-80l6 33q49 279 433 278q170 0 256 -58t92 -183q166 242 450 241q180 0 283.5 -100t103.5 -280q0 -121 -26 -197h-846 q-4 -57 -4 -88q0 -367 342 -367q268 0 379 219h82q-139 -293 -467 -292q-334 0 -402 290q-72 -125 -210 -207.5t-312 -82.5zM119 248q0 -195 241 -195q190 0 322.5 110.5t148.5 211.5l21 135h-383q-158 0 -254 -70.5t-96 -191.5zM944 575h768q45 213 -42 325t-261 112 q-186 0 -307 -123.5t-158 -313.5z" glyph-name="ae" horiz-adv-x="1861" unicode="æ"/><glyph d="M326 -354q88 0 139 32.5t51 90.5q0 53 -42 73.5t-109 -6.5l-33 41l98 107q-168 18 -265 130.5t-97 317.5q0 270 161.5 461.5t425.5 191.5q166 0 274.5 -85t110.5 -269h-79q-4 147 -91.5 213t-218.5 66q-225 0 -364.5 -168t-139.5 -406q0 -193 96.5 -287t256.5 -94 q84 0 155.5 23.5t139 90.5t100.5 171h80q-53 -186 -181 -271t-286 -89l-78 -78q25 4 33 4q53 0 89 -33t36 -98q0 -94 -78 -144.5t-195 -50.5z" glyph-name="ccedilla" horiz-adv-x="1069" unicode="ç"/><glyph d="M483 -20q-199 0 -308 110.5t-109 329.5q0 174 65.5 323.5t197.5 245.5t308 96q180 0 283.5 -100t103.5 -280q0 -121 -27 -197h-845q-4 -57 -5 -88q0 -367 342 -367q268 0 379 219h82q-139 -292 -467 -292zM162 575h768q45 213 -42 325t-261 112q-186 0 -307 -123.5 t-158 -313.5zM440 1452h76l168 -260h-76z" glyph-name="egrave" horiz-adv-x="1079" unicode="è"/><glyph d="M483 -20q-199 0 -308 110.5t-109 329.5q0 174 65.5 323.5t197.5 245.5t308 96q180 0 283.5 -100t103.5 -280q0 -121 -27 -197h-845q-4 -57 -5 -88q0 -367 342 -367q268 0 379 219h82q-139 -292 -467 -292zM162 575h768q45 213 -42 325t-261 112q-186 0 -307 -123.5 t-158 -313.5zM563 1192l242 260h84l-242 -260h-84z" glyph-name="eacute" horiz-adv-x="1079" unicode="é"/><glyph d="M483 -20q-199 0 -308 110.5t-109 329.5q0 174 65.5 323.5t197.5 245.5t308 96q180 0 283.5 -100t103.5 -280q0 -121 -27 -197h-845q-4 -57 -5 -88q0 -367 342 -367q268 0 379 219h82q-139 -292 -467 -292zM162 575h768q45 213 -42 325t-261 112q-186 0 -307 -123.5 t-158 -313.5zM381 1200l254 252h110l175 -252h-82l-150 219l-217 -219h-90z" glyph-name="ecircumflex" horiz-adv-x="1079" unicode="ê"/><glyph d="M483 -20q-199 0 -308 110.5t-109 329.5q0 174 65.5 323.5t197.5 245.5t308 96q180 0 283.5 -100t103.5 -280q0 -121 -27 -197h-845q-4 -57 -5 -88q0 -367 342 -367q268 0 379 219h82q-139 -292 -467 -292zM162 575h768q45 213 -42 325t-261 112q-186 0 -307 -123.5 t-158 -313.5zM453 1394.5q0 26.5 19.5 47t48 20.5t48 -20.5t19.5 -47t-19.5 -47t-48 -20.5t-48 20.5t-19.5 47zM776 1394.5q0 26.5 19.5 47t48 20.5t48 -20.5t19.5 -47t-19.5 -47t-48 -20.5t-48 20.5t-19.5 47z" glyph-name="edieresis" horiz-adv-x="1079" unicode="ë"/><glyph d="M14 0l168 1065h84l-168 -1065h-84zM35 1452h76l168 -260h-76z" glyph-name="igrave" horiz-adv-x="282" unicode="ì"/><glyph d="M14 0l168 1065h84l-168 -1065h-84zM160 1192l241 260h84l-241 -260h-84z" glyph-name="iacute" horiz-adv-x="282" unicode="í"/><glyph d="M14 0l168 1065h84l-168 -1065h-84zM-25 1200l254 252h111l174 -252h-82l-149 219l-217 -219h-91z" glyph-name="icircumflex" horiz-adv-x="282" unicode="î"/><glyph d="M14 0l168 1065h84l-168 -1065h-84zM49 1394.5q0 26.5 20.5 47t47 20.5t47 -20.5t20.5 -47t-20.5 -47t-47 -20.5t-47 20.5t-20.5 47zM373 1394.5q0 26.5 20.5 47t47 20.5t47 -20.5t20.5 -47t-20.5 -47t-47 -20.5t-47 20.5t-20.5 47z" glyph-name="idieresis" horiz-adv-x="282" unicode="ï"/><glyph d="M467 -20q-184 0 -292.5 111.5t-108.5 322.5q0 283 150.5 467t410.5 184q201 0 286 -119q-70 147 -180 320h-184l6 57h141l-73 111h96l72 -111h294l-6 -57h-252q117 -193 165 -322t48 -260q0 -295 -157.5 -499.5t-415.5 -204.5zM150 422q0 -186 87 -275.5t238 -89.5 q223 0 351 178.5t128 421.5q0 332 -329 332q-231 0 -353 -159.5t-122 -407.5z" glyph-name="eth" horiz-adv-x="1153" unicode="ð"/><glyph d="M913 635q29 178 -35.5 276.5t-230.5 98.5q-160 0 -270.5 -90.5t-145.5 -243.5l-106 -676h-84l168 1065h84l-31 -201q23 43 64 87t135 89t209 45q172 0 269 -103t60 -335l-102 -647h-84zM367 1300q12 86 60 129.5t116 43.5q47 0 86 -24t60.5 -53.5t55 -53t72.5 -23.5 q53 0 80 35t31 73h63q-12 -86 -60 -129t-114 -43q-49 0 -88 24t-59.5 53.5t-54 53t-72.5 23.5q-53 0 -80 -35t-31 -74h-65z" glyph-name="ntilde" unicode="ñ"/><glyph d="M492 -20q-186 0 -306 113.5t-120 332.5q0 266 164.5 462.5t420.5 196.5q188 0 308 -113.5t120 -332.5q0 -266 -164.5 -462.5t-422.5 -196.5zM150 432q0 -193 98 -286t252 -93q217 0 355 174t138 408q0 190 -98 283.5t-252 93.5q-217 0 -355 -174.5t-138 -405.5zM465 1452 h76l168 -260h-76z" glyph-name="ograve" horiz-adv-x="1144" unicode="ò"/><glyph d="M492 -20q-186 0 -306 113.5t-120 332.5q0 266 164.5 462.5t420.5 196.5q188 0 308 -113.5t120 -332.5q0 -266 -164.5 -462.5t-422.5 -196.5zM150 432q0 -193 98 -286t252 -93q217 0 355 174t138 408q0 190 -98 283.5t-252 93.5q-217 0 -355 -174.5t-138 -405.5zM590 1192 l241 260h84l-241 -260h-84z" glyph-name="oacute" horiz-adv-x="1144" unicode="ó"/><glyph d="M492 -20q-186 0 -306 113.5t-120 332.5q0 266 164.5 462.5t420.5 196.5q188 0 308 -113.5t120 -332.5q0 -266 -164.5 -462.5t-422.5 -196.5zM150 432q0 -193 98 -286t252 -93q217 0 355 174t138 408q0 190 -98 283.5t-252 93.5q-217 0 -355 -174.5t-138 -405.5zM406 1200 l253 252h111l174 -252h-82l-149 219l-217 -219h-90z" glyph-name="ocircumflex" horiz-adv-x="1144" unicode="ô"/><glyph d="M492 -20q-186 0 -306 113.5t-120 332.5q0 266 164.5 462.5t420.5 196.5q188 0 308 -113.5t120 -332.5q0 -266 -164.5 -462.5t-422.5 -196.5zM150 432q0 -193 98 -286t252 -93q217 0 355 174t138 408q0 190 -98 283.5t-252 93.5q-217 0 -355 -174.5t-138 -405.5zM383 1300 q12 86 60.5 129.5t115.5 43.5q47 0 86 -24t60.5 -53.5t55.5 -53t73 -23.5q53 0 79.5 35t30.5 73h64q-12 -86 -60.5 -129t-113.5 -43q-49 0 -88 24t-59.5 53.5t-54.5 53t-73 23.5q-53 0 -79.5 -35t-30.5 -74h-66z" glyph-name="otilde" horiz-adv-x="1144" unicode="õ"/><glyph d="M492 -20q-186 0 -306 113.5t-120 332.5q0 266 164.5 462.5t420.5 196.5q188 0 308 -113.5t120 -332.5q0 -266 -164.5 -462.5t-422.5 -196.5zM150 432q0 -193 98 -286t252 -93q217 0 355 174t138 408q0 190 -98 283.5t-252 93.5q-217 0 -355 -174.5t-138 -405.5z M479 1394.5q0 26.5 20.5 47t47 20.5t47 -20.5t20.5 -47t-20.5 -47t-47 -20.5t-47 20.5t-20.5 47zM803 1394.5q0 26.5 20.5 47t47 20.5t47 -20.5t20.5 -47t-20.5 -47t-47 -20.5t-47 20.5t-20.5 47z" glyph-name="odieresis" horiz-adv-x="1144" unicode="ö"/><glyph d="M444.5 834q-20.5 0 -36 15t-15.5 35.5t15.5 36t36 15.5t36 -15.5t15.5 -36t-15.5 -35.5t-36 -15zM127 543l14 69h566l-15 -69h-565zM297 268.5q0 20.5 14.5 35.5t35 15t35.5 -15t15 -35.5t-15 -36t-35.5 -15.5t-35 15.5t-14.5 36z" glyph-name="divide" horiz-adv-x="819" unicode="÷"/><glyph d="M125 -102l102 159q-162 119 -161 369q0 266 164.5 462.5t420.5 196.5q113 0 205 -43l90 142h78l-111 -174q166 -115 166 -371q0 -266 -164.5 -462.5t-422.5 -196.5q-119 0 -209 45l-82 -127h-76zM150 432q0 -207 120 -307l543 852q-80 35 -170 35q-217 0 -355 -174.5 t-138 -405.5zM326 92q76 -39 174 -39q217 0 355 174t138 408q0 209 -125 307z" glyph-name="oslash" horiz-adv-x="1144" unicode="ø"/><glyph d="M193 430q-29 -178 35.5 -276.5t230.5 -98.5q160 0 270.5 90.5t144.5 243.5l107 676h84l-168 -1065h-84l31 201q-23 -43 -64 -87t-135 -89t-209 -45q-172 0 -269 103t-61 335l103 647h84zM436 1452h76l168 -260h-76z" glyph-name="ugrave" unicode="ù"/><glyph d="M193 430q-29 -178 35.5 -276.5t230.5 -98.5q160 0 270.5 90.5t144.5 243.5l107 676h84l-168 -1065h-84l31 201q-23 -43 -64 -87t-135 -89t-209 -45q-172 0 -269 103t-61 335l103 647h84zM561 1192l242 260h84l-242 -260h-84z" glyph-name="uacute" unicode="ú"/><glyph d="M193 430q-29 -178 35.5 -276.5t230.5 -98.5q160 0 270.5 90.5t144.5 243.5l107 676h84l-168 -1065h-84l31 201q-23 -43 -64 -87t-135 -89t-209 -45q-172 0 -269 103t-61 335l103 647h84zM377 1200l254 252h110l174 -252h-81l-150 219l-217 -219h-90z" glyph-name="ucircumflex" unicode="û"/><glyph d="M193 430q-29 -178 35.5 -276.5t230.5 -98.5q160 0 270.5 90.5t144.5 243.5l107 676h84l-168 -1065h-84l31 201q-23 -43 -64 -87t-135 -89t-209 -45q-172 0 -269 103t-61 335l103 647h84zM451 1394.5q0 26.5 20.5 47t47 20.5t47 -20.5t20.5 -47t-20.5 -47t-47 -20.5 t-47 20.5t-20.5 47zM774 1394.5q0 26.5 20.5 47t47 20.5t47 -20.5t20.5 -47t-20.5 -47t-47 -20.5t-47 20.5t-20.5 47z" glyph-name="udieresis" unicode="ü"/><glyph d="M33 -309q190 -31 311 192q49 94 37 144l-244 1038h86l226 -985l534 985h90l-659 -1200q-158 -289 -394 -252zM545 1192l241 260h84l-241 -260h-84z" glyph-name="yacute" horiz-adv-x="1042" unicode="ý"/><glyph d="M-20 -389l288 1823h84l-98 -617q160 268 461 268q180 0 290.5 -110.5t110.5 -331.5q0 -274 -160.5 -468.5t-406.5 -194.5q-137 0 -242.5 66.5t-142.5 201.5l-101 -637h-83zM195 422q0 -178 100 -273.5t254 -95.5q215 0 351 177.5t136 404.5q0 188 -94 282.5t-248 94.5 q-217 0 -358 -174t-141 -416z" glyph-name="thorn" horiz-adv-x="1181" unicode="þ"/><glyph d="M33 -309q190 -31 311 192q49 94 37 144l-244 1038h86l226 -985l534 985h90l-659 -1200q-158 -289 -394 -252zM434 1394.5q0 26.5 20.5 47t47 20.5t47 -20.5t20.5 -47t-20.5 -47t-47 -20.5t-47 20.5t-20.5 47zM758 1394.5q0 26.5 20.5 47t47 20.5t47 -20.5t20.5 -47 t-20.5 -47t-47 -20.5t-47 20.5t-20.5 47z" glyph-name="ydieresis" horiz-adv-x="1042" unicode="ÿ"/><glyph d="M-31 0l793 1434h96l338 -1434h-90l-94 412h-723l-226 -412h-94zM330 485h665l-194 844h-8zM584 1759l8 62h563l-8 -62h-563z" glyph-name="Amacron" horiz-adv-x="1333" unicode="Ā"/><glyph d="M328 -20q-141 0 -221 63t-80 182q0 137 101 221t278 105l286 33q100 10 138 31.5t47 68.5l10 51q25 150 -43 215.5t-234 65.5q-313 0 -350 -232l-4 -24h-80l2 28q37 297 447 297q205 0 289.5 -83.5t54.5 -270.5l-117 -731h-80l31 205h-6q-43 -74 -171 -149.5t-298 -75.5z M111 231q0 -180 233 -180q193 0 332 107.5t151 197.5l33 222q-10 -43 -184 -64l-256 -31q-145 -16 -227 -79.5t-82 -172.5zM385 1391l8 61h563l-8 -61h-563z" glyph-name="amacron" horiz-adv-x="1060" unicode="ā"/><glyph d="M-31 0l793 1434h96l338 -1434h-90l-94 412h-723l-226 -412h-94zM330 485h665l-194 844h-8zM614 1821h64q-18 -172 170 -172q190 0 219 172h63q-14 -96 -83.5 -164t-204.5 -68q-137 0 -190.5 68t-37.5 164z" glyph-name="Abreve" horiz-adv-x="1333" unicode="Ă"/><glyph d="M328 -20q-141 0 -221 63t-80 182q0 137 101 221t278 105l286 33q100 10 138 31.5t47 68.5l10 51q25 150 -43 215.5t-234 65.5q-313 0 -350 -232l-4 -24h-80l2 28q37 297 447 297q205 0 289.5 -83.5t54.5 -270.5l-117 -731h-80l31 205h-6q-43 -74 -171 -149.5t-298 -75.5z M111 231q0 -180 233 -180q193 0 332 107.5t151 197.5l33 222q-10 -43 -184 -64l-256 -31q-145 -16 -227 -79.5t-82 -172.5zM418 1452h63q-18 -172 170 -172q190 0 219 172h64q-14 -96 -84 -163.5t-205 -67.5q-137 0 -190 67.5t-37 163.5z" glyph-name="abreve" horiz-adv-x="1060" unicode="ă"/><glyph d="M-31 0l793 1434h96l338 -1434q-113 0 -186.5 -52t-73.5 -141q0 -137 174 -120l-8 -58q-106 -16 -173 29t-67 137t67.5 156.5t168.5 83.5l-86 377h-723l-226 -412h-94zM330 485h665l-194 844h-8z" glyph-name="Aogonek" horiz-adv-x="1333" unicode="Ą"/><glyph d="M328 -20q-141 0 -221 63t-80 182q0 137 101 221t278 105l286 33q100 10 138 31.5t47 68.5l10 51q25 150 -43 215.5t-234 65.5q-313 0 -350 -232l-4 -24h-80l2 28q37 297 447 297q205 0 289.5 -83.5t54.5 -270.5l-117 -731q-113 0 -186.5 -52t-73.5 -141q0 -137 174 -120 l-8 -58q-106 -16 -173 29t-67 137q0 96 75 164t185 80l25 166h-6q-43 -74 -171 -149.5t-298 -75.5zM111 231q0 -180 233 -180q193 0 332 107.5t151 197.5l33 222q-10 -43 -184 -64l-256 -31q-145 -16 -227 -79.5t-82 -172.5z" glyph-name="aogonek" horiz-adv-x="1060" unicode="ą"/><glyph d="M657 -20q-248 0 -395 148t-147 443q0 233 86 431t261 324t406 126q209 0 337 -103.5t141 -287.5h-82q-16 150 -122 231.5t-278 81.5q-203 0 -358.5 -116.5t-231 -295t-75.5 -384.5q0 -260 127 -390.5t340 -130.5q172 0 294.5 83t188.5 233h88q-74 -193 -224.5 -293 t-355.5 -100zM797 1561l241 260h84l-241 -260h-84z" glyph-name="Cacute" horiz-adv-x="1323" unicode="Ć"/><glyph d="M492 -20q-193 0 -308.5 114.5t-115.5 337.5q0 270 161.5 461.5t425.5 191.5q166 0 274.5 -85t110.5 -269h-79q-4 147 -91.5 213t-218.5 66q-225 0 -364.5 -168t-139.5 -406q0 -193 96.5 -287t256.5 -94q84 0 155.5 23.5t139 90.5t100.5 171h80q-55 -190 -188 -275 t-295 -85zM584 1192l241 260h84l-241 -260h-84z" glyph-name="cacute" horiz-adv-x="1069" unicode="ć"/><glyph d="M657 -20q-248 0 -395 148t-147 443q0 233 86 431t261 324t406 126q209 0 337 -103.5t141 -287.5h-82q-16 150 -122 231.5t-278 81.5q-203 0 -358.5 -116.5t-231 -295t-75.5 -384.5q0 -260 127 -390.5t340 -130.5q172 0 294.5 83t188.5 233h88q-74 -193 -224.5 -293 t-355.5 -100zM614 1569l254 252h111l174 -252h-82l-149 219l-217 -219h-91z" glyph-name="Ccircumflex" horiz-adv-x="1323" unicode="Ĉ"/><glyph d="M492 -20q-193 0 -308.5 114.5t-115.5 337.5q0 270 161.5 461.5t425.5 191.5q166 0 274.5 -85t110.5 -269h-79q-4 147 -91.5 213t-218.5 66q-225 0 -364.5 -168t-139.5 -406q0 -193 96.5 -287t256.5 -94q84 0 155.5 23.5t139 90.5t100.5 171h80q-55 -190 -188 -275 t-295 -85zM401 1200l254 252h111l174 -252h-82l-149 219l-217 -219h-91z" glyph-name="ccircumflex" horiz-adv-x="1069" unicode="ĉ"/><glyph d="M657 -20q-248 0 -395 148t-147 443q0 233 86 431t261 324t406 126q209 0 337 -103.5t141 -287.5h-82q-16 150 -122 231.5t-278 81.5q-203 0 -358.5 -116.5t-231 -295t-75.5 -384.5q0 -260 127 -390.5t340 -130.5q172 0 294.5 83t188.5 233h88q-74 -193 -224.5 -293 t-355.5 -100zM846 1763.5q0 26.5 19.5 47t48 20.5t48 -20.5t19.5 -47t-19.5 -47t-48 -20.5t-48 20.5t-19.5 47z" glyph-name="Cdotaccent" horiz-adv-x="1323" unicode="Ċ"/><glyph d="M492 -20q-193 0 -308.5 114.5t-115.5 337.5q0 270 161.5 461.5t425.5 191.5q166 0 274.5 -85t110.5 -269h-79q-4 147 -91.5 213t-218.5 66q-225 0 -364.5 -168t-139.5 -406q0 -193 96.5 -287t256.5 -94q84 0 155.5 23.5t139 90.5t100.5 171h80q-55 -190 -188 -275 t-295 -85zM633 1394.5q0 26.5 19.5 47t48 20.5t48 -20.5t19.5 -47t-19.5 -47t-48 -20.5t-48 20.5t-19.5 47z" glyph-name="cdotaccent" horiz-adv-x="1069" unicode="ċ"/><glyph d="M657 -20q-248 0 -395 148t-147 443q0 233 86 431t261 324t406 126q209 0 337 -103.5t141 -287.5h-82q-16 150 -122 231.5t-278 81.5q-203 0 -358.5 -116.5t-231 -295t-75.5 -384.5q0 -260 127 -390.5t340 -130.5q172 0 294.5 83t188.5 233h88q-74 -193 -224.5 -293 t-355.5 -100zM655 1821h82l150 -219l217 219h90l-254 -252h-111z" glyph-name="Ccaron" horiz-adv-x="1323" unicode="Č"/><glyph d="M492 -20q-193 0 -308.5 114.5t-115.5 337.5q0 270 161.5 461.5t425.5 191.5q166 0 274.5 -85t110.5 -269h-79q-4 147 -91.5 213t-218.5 66q-225 0 -364.5 -168t-139.5 -406q0 -193 96.5 -287t256.5 -94q84 0 155.5 23.5t139 90.5t100.5 171h80q-55 -190 -188 -275 t-295 -85zM444 1452h82l150 -219l217 219h90l-254 -252h-111z" glyph-name="ccaron" horiz-adv-x="1069" unicode="č"/><glyph d="M41 0l227 1434h414q291 0 433 -143.5t142 -438.5q0 -375 -210.5 -613.5t-587.5 -238.5h-418zM139 80h324q340 0 524 218t184 556q0 262 -120.5 381t-374.5 119h-334zM610 1821h82l150 -219l217 219h90l-254 -252h-111z" glyph-name="Dcaron" horiz-adv-x="1312" unicode="Ď"/><glyph d="M1229 1174l205 260h86l-205 -260h-86zM66 416q0 279 158.5 474t408.5 195q139 0 240.5 -66.5t144.5 -201.5h2l98 617h84l-227 -1434h-84l37 248q-76 -135 -198 -201.5t-257 -66.5q-180 0 -293.5 110.5t-113.5 325.5zM145 430q0 -188 96.5 -282.5t252.5 -94.5 q215 0 354 173t139 409q0 184 -99.5 280.5t-252.5 96.5q-217 0 -353.5 -176.5t-136.5 -405.5z" glyph-name="dcaron" horiz-adv-x="1218" unicode="ď"/><glyph d="M76 0l108 682h-139l12 70h138l108 682h414q291 0 433 -143.5t142 -438.5q0 -375 -211 -613.5t-587 -238.5h-418zM174 80h324q340 0 524 218t184 556q0 262 -120.5 381t-374.5 119h-334l-96 -602h299l-13 -70h-297z" glyph-name="Dcroat" horiz-adv-x="1347" unicode="Đ"/><glyph d="M805 1266l6 57h289l18 111h84l-18 -111h157l-8 -57h-157l-201 -1266h-84l37 248q-76 -135 -198 -201.5t-257 -66.5q-180 0 -293.5 110.5t-113.5 325.5q0 279 158.5 474t408.5 195q139 0 240.5 -66.5t144.5 -201.5h2l72 449h-287zM145 430q0 -188 96.5 -282.5t252.5 -94.5 q215 0 354 173t139 409q0 184 -99.5 280.5t-252.5 96.5q-217 0 -353.5 -176.5t-136.5 -405.5z" glyph-name="dcroat" horiz-adv-x="1263" unicode="đ"/><glyph d="M41 0l227 1434h871l-15 -80h-782l-90 -574h723l-12 -78h-723l-101 -622h805l-12 -80h-891zM463 1759l8 62h563l-8 -62h-563z" glyph-name="Emacron" horiz-adv-x="1089" unicode="Ē"/><glyph d="M483 -20q-199 0 -308 110.5t-109 329.5q0 174 65.5 323.5t197.5 245.5t308 96q180 0 283.5 -100t103.5 -280q0 -121 -27 -197h-845q-4 -57 -5 -88q0 -367 342 -367q268 0 379 219h82q-139 -292 -467 -292zM162 575h768q45 213 -42 325t-261 112q-186 0 -307 -123.5 t-158 -313.5zM401 1391l9 61h563l-8 -61h-564z" glyph-name="emacron" horiz-adv-x="1079" unicode="ē"/><glyph d="M41 0l227 1434h871l-15 -80h-782l-90 -574h723l-12 -78h-723l-101 -622h805l-12 -80h-891zM676 1763.5q0 26.5 20.5 47t47 20.5t47 -20.5t20.5 -47t-20.5 -47t-47 -20.5t-47 20.5t-20.5 47z" glyph-name="Edotaccent" horiz-adv-x="1089" unicode="Ė"/><glyph d="M483 -20q-199 0 -308 110.5t-109 329.5q0 174 65.5 323.5t197.5 245.5t308 96q180 0 283.5 -100t103.5 -280q0 -121 -27 -197h-845q-4 -57 -5 -88q0 -367 342 -367q268 0 379 219h82q-139 -292 -467 -292zM162 575h768q45 213 -42 325t-261 112q-186 0 -307 -123.5 t-158 -313.5zM614 1394.5q0 26.5 20.5 47t47.5 20.5t47.5 -20.5t20.5 -47t-20.5 -47t-47.5 -20.5t-47.5 20.5t-20.5 47z" glyph-name="edotaccent" horiz-adv-x="1079" unicode="ė"/><glyph d="M41 0l227 1434h871l-15 -80h-782l-90 -574h723l-12 -78h-723l-101 -622h805l-12 -80q-113 0 -186.5 -52t-73.5 -141q0 -137 174 -120l-8 -58q-106 -16 -173 29t-67 137q0 133 131 205h-688z" glyph-name="Eogonek" horiz-adv-x="1089" unicode="Ę"/><glyph d="M592 -371q-106 -16 -173 29t-67 137q0 115 101 185q-186 10 -286.5 119.5t-100.5 320.5q0 174 65.5 323.5t197.5 245.5t308 96q180 0 283.5 -100t103.5 -280q0 -121 -27 -197h-845q-4 -57 -5 -88q0 -367 342 -367q268 0 379 219h82q-117 -242 -358 -284 q-76 -18 -122 -65.5t-46 -115t47 -98.5t129 -22zM162 575h768q45 213 -42 325t-261 112q-186 0 -307 -123.5t-158 -313.5z" glyph-name="eogonek" horiz-adv-x="1079" unicode="ę"/><glyph d="M41 0l227 1434h871l-15 -80h-782l-90 -574h723l-12 -78h-723l-101 -622h805l-12 -80h-891zM485 1821h82l150 -219l217 219h90l-254 -252h-111z" glyph-name="Ecaron" horiz-adv-x="1089" unicode="Ě"/><glyph d="M483 -20q-199 0 -308 110.5t-109 329.5q0 174 65.5 323.5t197.5 245.5t308 96q180 0 283.5 -100t103.5 -280q0 -121 -27 -197h-845q-4 -57 -5 -88q0 -367 342 -367q268 0 379 219h82q-139 -292 -467 -292zM162 575h768q45 213 -42 325t-261 112q-186 0 -307 -123.5 t-158 -313.5zM424 1452h82l149 -219l217 219h91l-254 -252h-111z" glyph-name="ecaron" horiz-adv-x="1079" unicode="ě"/><glyph d="M659 -20q-254 0 -398 149.5t-144 450.5q0 233 86 428.5t262 319.5t409 124q201 0 319 -88t142 -248h-82q-63 258 -379 258q-213 0 -369.5 -114.5t-231 -290.5t-74.5 -387q0 -264 123.5 -394.5t339.5 -130.5q238 0 386 146.5t191 427.5l-412 -2l13 73h491l-10 -73 q-47 -317 -219.5 -483t-442.5 -166zM625 1569l254 252h110l174 -252h-82l-149 219l-217 -219h-90z" glyph-name="Gcircumflex" horiz-adv-x="1409" unicode="Ĝ"/><glyph d="M471 20q-178 0 -290.5 105.5t-112.5 310.5q0 270 157.5 459.5t409.5 189.5q135 0 236.5 -61t142.5 -186h2l35 227h84l-148 -938l-20 -123q-20 -121 -76.5 -208t-135.5 -134t-164 -68.5t-181 -21.5q-193 0 -307.5 81t-92.5 232h74q-12 -111 77 -177t257 -66q184 0 308 87 t157 275l20 123l23 141h-4q-80 -125 -199 -186.5t-252 -61.5zM150 453q0 -176 95 -267.5t242 -91.5q215 0 356.5 163t141.5 390q0 180 -98.5 272.5t-251.5 92.5q-215 0 -350 -164t-135 -395zM418 1200l254 252h110l174 -252h-82l-149 219l-217 -219h-90z" glyph-name="gcircumflex" horiz-adv-x="1175" unicode="ĝ"/><glyph d="M659 -20q-254 0 -398 149.5t-144 450.5q0 233 86 428.5t262 319.5t409 124q201 0 319 -88t142 -248h-82q-63 258 -379 258q-213 0 -369.5 -114.5t-231 -290.5t-74.5 -387q0 -264 123.5 -394.5t339.5 -130.5q238 0 386 146.5t191 427.5l-412 -2l13 73h491l-10 -73 q-47 -317 -219.5 -483t-442.5 -166zM676 1821h63q-18 -172 170 -172q190 0 219 172h64q-14 -96 -84 -164t-205 -68q-137 0 -190 68t-37 164z" glyph-name="Gbreve" horiz-adv-x="1409" unicode="Ğ"/><glyph d="M471 20q-178 0 -290.5 105.5t-112.5 310.5q0 270 157.5 459.5t409.5 189.5q135 0 236.5 -61t142.5 -186h2l35 227h84l-148 -938l-20 -123q-20 -121 -76.5 -208t-135.5 -134t-164 -68.5t-181 -21.5q-193 0 -307.5 81t-92.5 232h74q-12 -111 77 -177t257 -66q184 0 308 87 t157 275l20 123l23 141h-4q-80 -125 -199 -186.5t-252 -61.5zM150 453q0 -176 95 -267.5t242 -91.5q215 0 356.5 163t141.5 390q0 180 -98.5 272.5t-251.5 92.5q-215 0 -350 -164t-135 -395zM469 1452h63q-18 -172 170 -172q190 0 220 172h63q-14 -96 -84 -163.5t-205 -67.5 q-137 0 -190 67.5t-37 163.5z" glyph-name="gbreve" horiz-adv-x="1175" unicode="ğ"/><glyph d="M659 -20q-254 0 -398 149.5t-144 450.5q0 233 86 428.5t262 319.5t409 124q201 0 319 -88t142 -248h-82q-63 258 -379 258q-213 0 -369.5 -114.5t-231 -290.5t-74.5 -387q0 -264 123.5 -394.5t339.5 -130.5q238 0 386 146.5t191 427.5l-412 -2l13 73h491l-10 -73 q-47 -317 -219.5 -483t-442.5 -166zM856 1763.5q0 26.5 20.5 47t47 20.5t47 -20.5t20.5 -47t-20.5 -47t-47 -20.5t-47 20.5t-20.5 47z" glyph-name="Gdotaccent" horiz-adv-x="1409" unicode="Ġ"/><glyph d="M471 20q-178 0 -290.5 105.5t-112.5 310.5q0 270 157.5 459.5t409.5 189.5q135 0 236.5 -61t142.5 -186h2l35 227h84l-148 -938l-20 -123q-20 -121 -76.5 -208t-135.5 -134t-164 -68.5t-181 -21.5q-193 0 -307.5 81t-92.5 232h74q-12 -111 77 -177t257 -66q184 0 308 87 t157 275l20 123l23 141h-4q-80 -125 -199 -186.5t-252 -61.5zM150 453q0 -176 95 -267.5t242 -91.5q215 0 356.5 163t141.5 390q0 180 -98.5 272.5t-251.5 92.5q-215 0 -350 -164t-135 -395zM649 1394.5q0 26.5 19.5 47t48 20.5t48 -20.5t19.5 -47t-19.5 -47t-48 -20.5 t-48 20.5t-19.5 47z" glyph-name="gdotaccent" horiz-adv-x="1175" unicode="ġ"/><glyph d="M659 -20q-254 0 -398 149.5t-144 450.5q0 233 86 428.5t262 319.5t409 124q201 0 319 -88t142 -248h-82q-63 258 -379 258q-213 0 -369.5 -114.5t-231 -290.5t-74.5 -387q0 -264 123.5 -394.5t339.5 -130.5q238 0 386 146.5t191 427.5l-412 -2l13 73h491l-10 -73 q-47 -317 -219.5 -483t-442.5 -166zM500 -354l6 53q115 6 123 113q-39 0 -63.5 19t-24.5 54t22.5 58.5t59.5 23.5q35 0 57 -27.5t22 -78.5q0 -80 -50 -147.5t-140 -67.5h-12z" glyph-name="Gcommaaccent" horiz-adv-x="1409" unicode="Ģ"/><glyph d="M471 20q-178 0 -290.5 105.5t-112.5 310.5q0 270 157.5 459.5t409.5 189.5q135 0 236.5 -61t142.5 -186h2l35 227h84l-148 -938l-20 -123q-20 -121 -76.5 -208t-135.5 -134t-164 -68.5t-181 -21.5q-193 0 -307.5 81t-92.5 232h74q-12 -111 77 -177t257 -66q184 0 308 87 t157 275l20 123l23 141h-4q-80 -125 -199 -186.5t-252 -61.5zM150 453q0 -176 95 -267.5t242 -91.5q215 0 356.5 163t141.5 390q0 180 -98.5 272.5t-251.5 92.5q-215 0 -350 -164t-135 -395zM555 1270q0 80 50 147.5t140 67.5h13l-6 -53q-115 -6 -123 -113q39 0 63.5 -19.5 t24.5 -54.5t-22.5 -58.5t-59.5 -23.5q-35 0 -57.5 28t-22.5 79z" glyph-name="gcommaaccent" horiz-adv-x="1175" unicode="ģ"/><glyph d="M991 0l105 657h-863l-104 -657h-88l227 1434h88l-110 -703h862l111 703h88l-228 -1434h-88zM539 1569l254 252h110l174 -252h-82l-149 219l-217 -219h-90z" glyph-name="Hcircumflex" horiz-adv-x="1288" unicode="Ĥ"/><glyph d="M41 0l227 1434h84l-90 -572q12 29 41 62.5t77 71.5t125 63.5t165 25.5q172 0 269 -103t60 -335l-102 -647h-84l100 635q29 178 -35.5 276.5t-230.5 98.5t-276.5 -94.5t-141.5 -253.5l-104 -662h-84zM59 1569l254 252h111l174 -252h-82l-149 219l-217 -219h-91z" glyph-name="hcircumflex" unicode="ĥ"/><glyph d="M991 0l105 657h-863l-104 -657h-88l227 1434h88l-61 -383h862l62 383h88l-228 -1434h-88zM246 731h862l39 246h-862z" glyph-name="Hbar" horiz-adv-x="1292" unicode="Ħ"/><glyph d="M96 1266l8 57h146l18 111h84l-18 -111h301l-8 -57h-301l-64 -404q12 29 41 62.5t77 71.5t125 63.5t165 25.5q172 0 269 -103t60 -335l-102 -647h-84l100 635q29 178 -35.5 276.5t-230.5 98.5t-276.5 -94.5t-141.5 -253.5l-104 -662h-84l201 1266h-146z" glyph-name="hbar" horiz-adv-x="1107" unicode="ħ"/><glyph d="M41 0l227 1434h88l-227 -1434h-88zM41 1669q12 86 60.5 129t115.5 43q74 0 145.5 -76.5t129.5 -76.5q53 0 79.5 34.5t30.5 73.5h64q-12 -86 -60.5 -129t-113.5 -43q-49 0 -88 23.5t-59.5 53.5t-54.5 53.5t-73 23.5q-53 0 -79.5 -35t-31.5 -74h-65z" glyph-name="Itilde" horiz-adv-x="335" unicode="Ĩ"/><glyph d="M14 0l168 1065h84l-168 -1065h-84zM-45 1300q12 86 60 129.5t116 43.5q47 0 86 -24t60.5 -53.5t55.5 -53t73 -23.5q53 0 79.5 35t30.5 73h64q-12 -86 -60.5 -129t-113.5 -43q-49 0 -88 24t-59.5 53.5t-54.5 53t-73 23.5q-53 0 -79.5 -35t-31.5 -74h-65z" glyph-name="itilde" horiz-adv-x="282" unicode="ĩ"/><glyph d="M41 0l227 1434h88l-227 -1434h-88zM82 1759l8 62h563l-8 -62h-563z" glyph-name="Imacron" horiz-adv-x="335" unicode="Ī"/><glyph d="M14 0l168 1065h84l-168 -1065h-84zM-4 1391l8 61h563l-8 -61h-563z" glyph-name="imacron" horiz-adv-x="282" unicode="ī"/><glyph d="M33 -371q-106 -16 -173 29t-67 137q0 96 73 163t181 81l221 1395h88l-227 -1434h-2q-113 0 -186.5 -52t-73.5 -141q0 -137 174 -120z" glyph-name="Iogonek" horiz-adv-x="335" unicode="Į"/><glyph d="M276.5 1327q-26.5 0 -47 20.5t-20.5 47t20.5 47t47 20.5t47 -20.5t20.5 -47t-20.5 -47t-47 -20.5zM-236 -205q0 96 74 164t182 80l162 1026h84l-168 -1065q-113 0 -186.5 -52t-73.5 -141q0 -137 174 -120l-8 -58q-106 -16 -173 29t-67 137z" glyph-name="iogonek" horiz-adv-x="282" unicode="į"/><glyph d="M41 0l227 1434h88l-227 -1434h-88zM295 1763.5q0 26.5 20.5 47t47 20.5t47 -20.5t20.5 -47t-20.5 -47t-47 -20.5t-47 20.5t-20.5 47z" glyph-name="Idotaccent" horiz-adv-x="335" unicode="İ"/><glyph d="M14 0l168 1065h84l-168 -1065h-84z" glyph-name="dotlessi" horiz-adv-x="282" unicode="ı"/><glyph d="M41 0l227 1434h88l-227 -1434h-88zM463 541h86q-35 -227 66.5 -354.5t308.5 -127.5q205 0 338 126t168 358l141 891h88l-141 -893q-41 -264 -198 -412.5t-404.5 -148.5t-371.5 149.5t-81 411.5z" glyph-name="IJ" horiz-adv-x="1640" unicode="Ĳ"/><glyph d="M41 0l168 1065h84l-168 -1065h-84zM115 -371l8 68h47q100 0 145 36t62 134l190 1198h84l-194 -1221q-35 -221 -264 -221q-35 0 -78 6zM238 1394.5q0 26.5 20.5 47t47 20.5t47 -20.5t20.5 -47t-20.5 -47t-47 -20.5t-47 20.5t-20.5 47zM596 1394.5q0 26.5 19.5 47t46 20.5 t47 -20.5t20.5 -47t-20.5 -47t-47 -20.5t-46 20.5t-19.5 47z" glyph-name="ij" horiz-adv-x="692" unicode="ĳ"/><glyph d="M579.5 -20q-247.5 0 -371.5 149.5t-81 411.5h86q-35 -227 66.5 -354.5t308.5 -127.5q205 0 338 126t168 358l141 891h88l-141 -893q-41 -264 -198 -412.5t-404.5 -148.5zM1038 1569l254 252h111l174 -252h-82l-149 219l-218 -219h-90z" glyph-name="Jcircumflex" horiz-adv-x="1304" unicode="Ĵ"/><glyph d="M-123 -377q-35 0 -78 6l8 68h48q100 0 145 36t61 134l191 1198h84l-195 -1221q-37 -221 -264 -221zM45 1200l254 252h111l174 -252h-82l-150 219l-217 -219h-90z" glyph-name="jcircumflex" horiz-adv-x="350" unicode="ĵ"/><glyph d="M41 0l227 1434h88l-137 -865l932 865h113l-729 -674l548 -760h-106l-506 700l-270 -249l-72 -451h-88zM399 -354l7 53q115 6 122 113q-39 0 -63.5 19t-24.5 54t22.5 58.5t59.5 23.5q35 0 57.5 -27.5t22.5 -78.5q0 -80 -50 -147.5t-140 -67.5h-13z" glyph-name="Kcommaaccent" horiz-adv-x="1220" unicode="Ķ"/><glyph d="M41 0l227 1434h84l-162 -1014l744 645h108l-542 -469l436 -596h-96l-400 543l-266 -230l-49 -313h-84zM301 -354l6 53q115 6 123 113q-39 0 -63.5 19t-24.5 54t22.5 58.5t59.5 23.5q35 0 57.5 -27.5t22.5 -78.5q0 -80 -50.5 -147.5t-140.5 -67.5h-12z" glyph-name="kcommaaccent" horiz-adv-x="1052" unicode="ķ"/><glyph d="M41 0l227 1434h88l-217 -1354h779l-11 -80h-866zM276 1561l242 260h84l-242 -260h-84z" glyph-name="Lacute" horiz-adv-x="1062" unicode="Ĺ"/><glyph d="M41 0l227 1434h84l-227 -1434h-84zM244 1561l241 260h84l-241 -260h-84z" glyph-name="lacute" horiz-adv-x="333" unicode="ĺ"/><glyph d="M41 0l227 1434h88l-217 -1354h779l-11 -80h-866zM319 -365l7 54q115 6 123 112q-39 0 -64 19.5t-25 54.5t23 58.5t59 23.5q35 0 57.5 -27.5t22.5 -79.5q0 -80 -50 -147.5t-140 -67.5h-13z" glyph-name="Lcommaaccent" horiz-adv-x="1062" unicode="Ļ"/><glyph d="M41 0l227 1434h84l-227 -1434h-84zM-63 -354l6 53q115 6 123 113q-39 0 -64 19t-25 54t23 58.5t59 23.5q35 0 57.5 -27.5t22.5 -78.5q0 -80 -50 -147.5t-140 -67.5h-12z" glyph-name="lcommaaccent" horiz-adv-x="333" unicode="ļ"/><glyph d="M41 0l227 1434h88l-217 -1354h779l-11 -80h-866zM506 1137l6 53q115 6 123 113q-39 0 -63.5 19t-24.5 54t22.5 58.5t59.5 23.5q35 0 57.5 -27.5t22.5 -78.5q0 -80 -50.5 -147.5t-140.5 -67.5h-12z" glyph-name="Lcaron" horiz-adv-x="1062" unicode="Ľ"/><glyph d="M365 993l118 441h80l-121 -441h-77zM41 0l227 1434h84l-227 -1434h-84z" glyph-name="lcaron" horiz-adv-x="368" unicode="ľ"/><glyph d="M20 385l17 104l186 166l123 779h88l-110 -689l325 291h2l-12 -102l-332 -295l-90 -559h778l-10 -80h-866l88 549z" glyph-name="Lslash" horiz-adv-x="1140" unicode="Ł"/><glyph d="M-16 375l18 117l188 229l113 713h84l-92 -588l172 211h2l-16 -115l-179 -215l-114 -727h-84l96 602z" glyph-name="lslash" horiz-adv-x="399" unicode="ł"/><glyph d="M41 0l227 1434h111l653 -1313h4l207 1313h88l-227 -1434h-113l-651 1315h-4l-207 -1315h-88zM733 1561l242 260h84l-242 -260h-84z" glyph-name="Nacute" horiz-adv-x="1312" unicode="Ń"/><glyph d="M913 635q29 178 -35.5 276.5t-230.5 98.5q-160 0 -270.5 -90.5t-145.5 -243.5l-106 -676h-84l168 1065h84l-31 -201q23 43 64 87t135 89t209 45q172 0 269 -103t60 -335l-102 -647h-84zM573 1192l242 260h84l-242 -260h-84z" glyph-name="nacute" unicode="ń"/><glyph d="M41 0l227 1434h111l653 -1313h4l207 1313h88l-227 -1434h-113l-651 1315h-4l-207 -1315h-88zM426 -354l6 53q115 6 123 113q-39 0 -63.5 19t-24.5 54t22.5 58.5t59.5 23.5q35 0 57.5 -27.5t22.5 -78.5q0 -80 -50.5 -147.5t-140.5 -67.5h-12z" glyph-name="Ncommaaccent" horiz-adv-x="1312" unicode="Ņ"/><glyph d="M913 635q29 178 -35.5 276.5t-230.5 98.5q-160 0 -270.5 -90.5t-145.5 -243.5l-106 -676h-84l168 1065h84l-31 -201q23 43 64 87t135 89t209 45q172 0 269 -103t60 -335l-102 -647h-84zM326 -354l6 53q115 6 123 113q-39 0 -63.5 19t-24.5 54t22.5 58.5t59.5 23.5 q35 0 57 -27.5t22 -78.5q0 -80 -50 -147.5t-140 -67.5h-12z" glyph-name="ncommaaccent" unicode="ņ"/><glyph d="M41 0l227 1434h111l653 -1313h4l207 1313h88l-227 -1434h-113l-651 1315h-4l-207 -1315h-88zM594 1821h82l149 -219l217 219h91l-254 -252h-111z" glyph-name="Ncaron" horiz-adv-x="1312" unicode="Ň"/><glyph d="M913 635q29 178 -35.5 276.5t-230.5 98.5q-160 0 -270.5 -90.5t-145.5 -243.5l-106 -676h-84l168 1065h84l-31 -201q23 43 64 87t135 89t209 45q172 0 269 -103t60 -335l-102 -647h-84zM432 1452h82l150 -219l217 219h90l-254 -252h-111z" glyph-name="ncaron" unicode="ň"/><glyph d="M506 -451q-137 0 -234 50l13 90q88 -59 231 -60q176 0 304 91.5t186 261.5l-666 1333h-4l-207 -1315h-88l227 1434h109l659 -1315h4l207 1315h88l-211 -1323q-41 -264 -204.5 -413t-413.5 -149z" glyph-name="Eng" horiz-adv-x="1316" unicode="Ŋ"/><glyph d="M608 -451q-111 0 -168 48l13 77q70 -45 161 -45q139 0 166 170l33 201l100 635q29 178 -35.5 276.5t-230.5 98.5q-160 0 -270.5 -90.5t-145.5 -243.5l-106 -676h-84l168 1065h84l-31 -201q23 43 64 87t135 89t209 45q172 0 269 -103t60 -335l-102 -647l-33 -193 q-41 -258 -256 -258z" glyph-name="eng" unicode="ŋ"/><glyph d="M645 -20q-240 0 -385 147t-145 440q0 233 87 432t260 326t398 127q244 0 389.5 -147.5t145.5 -442.5q0 -172 -52.5 -329.5t-146.5 -281.5t-237.5 -197.5t-313.5 -73.5zM199 569q0 -256 122.5 -384t329.5 -128q203 0 356.5 119t228.5 298t75 386q0 258 -124 386t-329 128 q-203 0 -356.5 -118.5t-228 -299t-74.5 -387.5zM639 1759l8 62h563l-8 -62h-563z" glyph-name="Omacron" horiz-adv-x="1449" unicode="Ō"/><glyph d="M492 -20q-186 0 -306 113.5t-120 332.5q0 266 164.5 462.5t420.5 196.5q188 0 308 -113.5t120 -332.5q0 -266 -164.5 -462.5t-422.5 -196.5zM150 432q0 -193 98 -286t252 -93q217 0 355 174t138 408q0 190 -98 283.5t-252 93.5q-217 0 -355 -174.5t-138 -405.5zM426 1391 l8 61h563l-8 -61h-563z" glyph-name="omacron" horiz-adv-x="1144" unicode="ō"/><glyph d="M645 -20q-240 0 -385 147t-145 440q0 233 87 432t260 326t398 127q244 0 389.5 -147.5t145.5 -442.5q0 -172 -52.5 -329.5t-146.5 -281.5t-237.5 -197.5t-313.5 -73.5zM199 569q0 -256 122.5 -384t329.5 -128q203 0 356.5 119t228.5 298t75 386q0 258 -124 386t-329 128 q-203 0 -356.5 -118.5t-228 -299t-74.5 -387.5zM686 1561l242 260h84l-242 -260h-84zM924 1561l241 260h84l-241 -260h-84z" glyph-name="Ohungarumlaut" horiz-adv-x="1449" unicode="Ő"/><glyph d="M492 -20q-186 0 -306 113.5t-120 332.5q0 266 164.5 462.5t420.5 196.5q188 0 308 -113.5t120 -332.5q0 -266 -164.5 -462.5t-422.5 -196.5zM150 432q0 -193 98 -286t252 -93q217 0 355 174t138 408q0 190 -98 283.5t-252 93.5q-217 0 -355 -174.5t-138 -405.5zM475 1192 l242 260h84l-242 -260h-84zM713 1192l241 260h84l-241 -260h-84z" glyph-name="ohungarumlaut" horiz-adv-x="1144" unicode="ő"/><glyph d="M645 -20q-240 0 -385 147t-145 440q0 233 87 432t260 326t398 127q186 0 317.5 -88t184.5 -262l53 332h871l-15 -80h-782l-90 -574h723l-13 -78h-723l-100 -622h805l-12 -80h-891l49 307q-100 -152 -252 -239.5t-340 -87.5zM199 569q0 -256 122.5 -384t329.5 -128 q203 0 356.5 119t228.5 298t75 386q0 258 -124 386t-329 128q-203 0 -356.5 -118.5t-228 -299t-74.5 -387.5z" glyph-name="OE" horiz-adv-x="2236" unicode="Œ"/><glyph d="M492 -20q-186 0 -306 113.5t-120 332.5q0 266 164.5 462.5t420.5 196.5q156 0 267.5 -78.5t146.5 -234.5q72 143 198 228t293 85q180 0 284 -100t104 -280q0 -121 -27 -197h-846q-4 -57 -4 -88q0 -367 342 -367q268 0 379 219h82q-139 -293 -467 -292q-350 0 -408 317 q-76 -145 -206.5 -231t-296.5 -86zM150 432q0 -193 98 -286t252 -93q217 0 355 174t138 408q0 190 -98 283.5t-252 93.5q-217 0 -355 -174.5t-138 -405.5zM1081 575h768q45 213 -42 325t-261 112q-186 0 -307 -123.5t-158 -313.5z" glyph-name="oe" horiz-adv-x="1998" unicode="œ"/><glyph d="M983 0q-33 45 -4 240l22 125q12 80 -4 134t-56 80.5t-86 37t-105 10.5h-521l-100 -627h-88l227 1434h543q197 0 297 -86t100 -246q0 -154 -84 -271.5t-229 -156.5q123 -27 169 -100.5t23 -208.5l-20 -125q-29 -197 4 -240h-88zM240 700h446q203 0 319.5 107.5 t116.5 279.5q0 139 -82 204t-252 65h-444zM717 1561l241 260h84l-241 -260h-84z" glyph-name="Racute" horiz-adv-x="1269" unicode="Ŕ"/><glyph d="M41 0l168 1065h84l-35 -225q41 86 140.5 159.5t248.5 73.5q55 0 78 -10l-12 -72q-31 6 -72 6q-170 0 -276.5 -100t-139.5 -260l-100 -637h-84zM379 1192l242 260h84l-242 -260h-84z" glyph-name="racute" horiz-adv-x="694" unicode="ŕ"/><glyph d="M983 0q-33 45 -4 240l22 125q12 80 -4 134t-56 80.5t-86 37t-105 10.5h-521l-100 -627h-88l227 1434h543q197 0 297 -86t100 -246q0 -154 -84 -271.5t-229 -156.5q123 -27 169 -100.5t23 -208.5l-20 -125q-29 -197 4 -240h-88zM240 700h446q203 0 319.5 107.5 t116.5 279.5q0 139 -82 204t-252 65h-444zM410 -354l6 53q115 6 123 113q-39 0 -63.5 19t-24.5 54t22.5 58.5t58.5 23.5q35 0 57.5 -27.5t22.5 -78.5q0 -80 -50 -147.5t-140 -67.5h-12z" glyph-name="Rcommaaccent" horiz-adv-x="1269" unicode="Ŗ"/><glyph d="M41 0l168 1065h84l-35 -225q41 86 140.5 159.5t248.5 73.5q55 0 78 -10l-12 -72q-31 6 -72 6q-170 0 -276.5 -100t-139.5 -260l-100 -637h-84zM-66 -354l7 53q115 6 122 113q-39 0 -63.5 19t-24.5 54t22.5 58.5t59.5 23.5q35 0 57.5 -27.5t22.5 -78.5q0 -80 -50 -147.5 t-140 -67.5h-13z" glyph-name="rcommaaccent" horiz-adv-x="694" unicode="ŗ"/><glyph d="M983 0q-33 45 -4 240l22 125q12 80 -4 134t-56 80.5t-86 37t-105 10.5h-521l-100 -627h-88l227 1434h543q197 0 297 -86t100 -246q0 -154 -84 -271.5t-229 -156.5q123 -27 169 -100.5t23 -208.5l-20 -125q-29 -197 4 -240h-88zM240 700h446q203 0 319.5 107.5 t116.5 279.5q0 139 -82 204t-252 65h-444zM578 1821h81l150 -219l217 219h90l-254 -252h-110z" glyph-name="Rcaron" horiz-adv-x="1269" unicode="Ř"/><glyph d="M41 0l168 1065h84l-35 -225q41 86 140.5 159.5t248.5 73.5q55 0 78 -10l-12 -72q-31 6 -72 6q-170 0 -276.5 -100t-139.5 -260l-100 -637h-84zM238 1452h81l150 -219l217 219h90l-254 -252h-110z" glyph-name="rcaron" horiz-adv-x="694" unicode="ř"/><glyph d="M528 -20q-248 0 -366.5 115.5t-91.5 291.5h84q-14 -147 82 -237.5t303 -90.5q215 0 337.5 97.5t122.5 259.5q0 125 -71.5 182t-214.5 90l-170 37q-324 70 -324 330q0 182 140.5 289.5t369.5 107.5q219 0 333 -98.5t91 -247.5h-82q6 113 -81 189.5t-269 76.5 q-190 0 -301 -85t-111 -230q0 -104 66.5 -167t208.5 -93l170 -37q162 -35 250 -111t88 -227q0 -201 -156 -321.5t-408 -120.5zM672 1561l241 260h84l-241 -260h-84z" glyph-name="Sacute" horiz-adv-x="1208" unicode="Ś"/><glyph d="M408 -20q-174 0 -286 74.5t-99 219.5h77q-4 -119 89.5 -171t224.5 -52q154 0 255 65.5t101 188.5q0 86 -50 124t-163 69l-184 47q-115 31 -174.5 87t-59.5 152q0 139 116 220t302 81q166 0 262 -70.5t88 -215.5h-71q-8 215 -283 215q-150 0 -240 -57.5t-90 -165.5 q0 -70 44 -112t151 -69l174 -45q133 -37 197.5 -90t64.5 -162q0 -160 -128 -246.5t-318 -86.5zM498 1192l241 260h84l-241 -260h-84z" glyph-name="sacute" horiz-adv-x="956" unicode="ś"/><glyph d="M528 -20q-248 0 -366.5 115.5t-91.5 291.5h84q-14 -147 82 -237.5t303 -90.5q215 0 337.5 97.5t122.5 259.5q0 125 -71.5 182t-214.5 90l-170 37q-324 70 -324 330q0 182 140.5 289.5t369.5 107.5q219 0 333 -98.5t91 -247.5h-82q6 113 -81 189.5t-269 76.5 q-190 0 -301 -85t-111 -230q0 -104 66.5 -167t208.5 -93l170 -37q162 -35 250 -111t88 -227q0 -201 -156 -321.5t-408 -120.5zM489 1569l254 252h111l174 -252h-82l-149 219l-217 -219h-91z" glyph-name="Scircumflex" horiz-adv-x="1208" unicode="Ŝ"/><glyph d="M408 -20q-174 0 -286 74.5t-99 219.5h77q-4 -119 89.5 -171t224.5 -52q154 0 255 65.5t101 188.5q0 86 -50 124t-163 69l-184 47q-115 31 -174.5 87t-59.5 152q0 139 116 220t302 81q166 0 262 -70.5t88 -215.5h-71q-8 215 -283 215q-150 0 -240 -57.5t-90 -165.5 q0 -70 44 -112t151 -69l174 -45q133 -37 197.5 -90t64.5 -162q0 -160 -128 -246.5t-318 -86.5zM317 1200l254 252h111l174 -252h-82l-149 219l-217 -219h-91z" glyph-name="scircumflex" horiz-adv-x="956" unicode="ŝ"/><glyph d="M360 -354q88 0 139.5 32.5t51.5 90.5q0 53 -42 73.5t-110 -6.5l-32 41l98 105q-217 16 -319.5 128.5t-75.5 276.5h84q-14 -147 82 -237.5t303 -90.5q215 0 337.5 97.5t122.5 259.5q0 125 -71.5 182t-214.5 90l-170 37q-324 70 -324 330q0 182 140.5 289.5t369.5 107.5 q219 0 333 -98.5t91 -247.5h-82q6 113 -81 189.5t-269 76.5q-190 0 -301 -85t-111 -230q0 -104 66.5 -167t208.5 -93l170 -37q162 -35 250 -111t88 -227q0 -199 -152 -318.5t-397 -123.5l-78 -78q25 4 33 4q53 0 89 -33t36 -98q0 -94 -78 -144.5t-195 -50.5z" glyph-name="Scedilla" horiz-adv-x="1208" unicode="Ş"/><glyph d="M246 -354q88 0 139 32.5t51 90.5q0 53 -42 73.5t-109 -6.5l-33 41l98 105q-154 12 -247 85.5t-80 206.5h77q-4 -119 89.5 -171t224.5 -52q154 0 255 65.5t101 188.5q0 86 -50 124t-163 69l-184 47q-115 31 -174.5 87t-59.5 152q0 139 116 220t302 81q166 0 262 -70.5 t88 -215.5h-71q-8 215 -283 215q-150 0 -240 -57.5t-90 -165.5q0 -70 44 -112t151 -69l174 -45q133 -37 197.5 -90t64.5 -162q0 -156 -122 -242.5t-304 -90.5l-78 -78q25 4 33 4q53 0 89 -33t36 -98q0 -94 -78 -144.5t-194 -50.5z" glyph-name="scedilla" horiz-adv-x="956" unicode="ş"/><glyph d="M528 -20q-248 0 -366.5 115.5t-91.5 291.5h84q-14 -147 82 -237.5t303 -90.5q215 0 337.5 97.5t122.5 259.5q0 125 -71.5 182t-214.5 90l-170 37q-324 70 -324 330q0 182 140.5 289.5t369.5 107.5q219 0 333 -98.5t91 -247.5h-82q6 113 -81 189.5t-269 76.5 q-190 0 -301 -85t-111 -230q0 -104 66.5 -167t208.5 -93l170 -37q162 -35 250 -111t88 -227q0 -201 -156 -321.5t-408 -120.5zM532 1821h82l150 -219l217 219h90l-254 -252h-110z" glyph-name="Scaron" horiz-adv-x="1208" unicode="Š"/><glyph d="M408 -20q-174 0 -286 74.5t-99 219.5h77q-4 -119 89.5 -171t224.5 -52q154 0 255 65.5t101 188.5q0 86 -50 124t-163 69l-184 47q-115 31 -174.5 87t-59.5 152q0 139 116 220t302 81q166 0 262 -70.5t88 -215.5h-71q-8 215 -283 215q-150 0 -240 -57.5t-90 -165.5 q0 -70 44 -112t151 -69l174 -45q133 -37 197.5 -90t64.5 -162q0 -160 -128 -246.5t-318 -86.5zM358 1452h82l150 -219l217 219h90l-254 -252h-111z" glyph-name="scaron" horiz-adv-x="956" unicode="š"/><glyph d="M453 0l213 1354h-473l14 80h1034l-12 -80h-475l-213 -1354h-6l-99 -98q25 4 33 4q53 0 89 -33t36 -98q0 -94 -78 -144.5t-194 -50.5l10 66q88 0 139 32.5t51 90.5q0 53 -42 73.5t-109 -6.5l-33 41z" glyph-name="Tcommaaccent" horiz-adv-x="1161" unicode="Ţ"/><glyph d="M365 -14q-29 0 -43 2l-86 -86q25 4 32 4q53 0 89 -33t36 -98q0 -94 -77.5 -144.5t-194.5 -50.5l10 66q88 0 139.5 32.5t51.5 90.5q0 53 -42 73.5t-110 -6.5l-33 41l115 123h12q-121 41 -96 207l123 786h-164l10 72h166l41 260h84l-41 -260h213l-10 -72h-213l-121 -764 q-14 -98 18.5 -134t128.5 -36h60l-12 -67q-29 -6 -86 -6z" glyph-name="tcommaaccent" horiz-adv-x="600" unicode="ţ"/><glyph d="M453 0l213 1354h-473l14 80h1034l-12 -80h-475l-213 -1354h-88zM516 1821h82l150 -219l217 219h90l-254 -252h-111z" glyph-name="Tcaron" horiz-adv-x="1161" unicode="Ť"/><glyph d="M365 -14q-231 0 -197 221l123 786h-164l10 72h166l41 260h84l-41 -260h213l-10 -72h-213l-121 -764q-14 -98 18.5 -134t128.5 -36h60l-12 -67q-29 -6 -86 -6zM461 1186l241 260h84l-241 -260h-84z" glyph-name="tcaron" horiz-adv-x="577" unicode="ť"/><glyph d="M324 1006l12 69h287l43 279h-473l14 80h1034l-12 -80h-475l-43 -279h288l-12 -69h-289l-157 -1006h-88l157 1006h-286z" glyph-name="Tbar" horiz-adv-x="1161" unicode="Ŧ"/><glyph d="M82 723l12 74h166l31 196h-164l10 72h166l41 260h84l-41 -260h213l-10 -72h-213l-33 -196h215l-12 -74h-213l-78 -494q-14 -98 18.5 -134t128.5 -36h60l-12 -67q-29 -6 -86 -6q-231 0 -197 221l82 516h-168z" glyph-name="tbar" horiz-adv-x="600" unicode="ŧ"/><glyph d="M571 -20q-248 0 -366.5 149.5t-77.5 411.5l141 893h86l-141 -891q-35 -229 64.5 -356.5t308.5 -127.5q207 0 339 126t169 358l141 891h88l-141 -893q-41 -264 -203 -412.5t-408 -148.5zM526 1669q12 86 60.5 129t115.5 43q47 0 86 -23.5t60.5 -53t55.5 -53t73 -23.5 q53 0 79.5 34.5t30.5 73.5h64q-12 -86 -60.5 -129t-113.5 -43q-49 0 -88 23.5t-59.5 53.5t-54.5 53.5t-73 23.5q-53 0 -79.5 -35t-30.5 -74h-66z" glyph-name="Utilde" horiz-adv-x="1302" unicode="Ũ"/><glyph d="M193 430q-29 -178 35.5 -276.5t230.5 -98.5q160 0 270.5 90.5t144.5 243.5l107 676h84l-168 -1065h-84l31 201q-23 -43 -64 -87t-135 -89t-209 -45q-172 0 -269 103t-61 335l103 647h84zM354 1300q12 86 60.5 129.5t115.5 43.5q47 0 86 -24t60.5 -53.5t55.5 -53t73 -23.5 q53 0 79.5 35t30.5 73h64q-12 -86 -60.5 -129t-113.5 -43q-49 0 -88 24t-59.5 53.5t-54.5 53t-73 23.5q-53 0 -79.5 -35t-30.5 -74h-66z" glyph-name="utilde" unicode="ũ"/><glyph d="M571 -20q-248 0 -366.5 149.5t-77.5 411.5l141 893h86l-141 -891q-35 -229 64.5 -356.5t308.5 -127.5q207 0 339 126t169 358l141 891h88l-141 -893q-41 -264 -203 -412.5t-408 -148.5zM569 1759l9 62h563l-8 -62h-564z" glyph-name="Umacron" horiz-adv-x="1302" unicode="Ū"/><glyph d="M193 430q-29 -178 35.5 -276.5t230.5 -98.5q160 0 270.5 90.5t144.5 243.5l107 676h84l-168 -1065h-84l31 201q-23 -43 -64 -87t-135 -89t-209 -45q-172 0 -269 103t-61 335l103 647h84zM397 1391l9 61h563l-8 -61h-564z" glyph-name="umacron" unicode="ū"/><glyph d="M571 -20q-248 0 -366.5 149.5t-77.5 411.5l141 893h86l-141 -891q-35 -229 64.5 -356.5t308.5 -127.5q207 0 339 126t169 358l141 891h88l-141 -893q-41 -264 -203 -412.5t-408 -148.5zM602 1821h64q-18 -172 170 -172q190 0 219 172h63q-14 -96 -83.5 -164t-205.5 -68 q-137 0 -190 68t-37 164z" glyph-name="Ubreve" horiz-adv-x="1302" unicode="Ŭ"/><glyph d="M193 430q-29 -178 35.5 -276.5t230.5 -98.5q160 0 270.5 90.5t144.5 243.5l107 676h84l-168 -1065h-84l31 201q-23 -43 -64 -87t-135 -89t-209 -45q-172 0 -269 103t-61 335l103 647h84zM430 1452h64q-18 -172 170 -172q190 0 219 172h63q-14 -96 -83.5 -163.5 t-205.5 -67.5q-137 0 -190 67.5t-37 163.5z" glyph-name="ubreve" unicode="ŭ"/><glyph d="M571 -20q-248 0 -366.5 149.5t-77.5 411.5l141 893h86l-141 -891q-35 -229 64.5 -356.5t308.5 -127.5q207 0 339 126t169 358l141 891h88l-141 -893q-41 -264 -203 -412.5t-408 -148.5zM686 1710.5q0 65.5 47 111.5t114.5 46t115 -46t47.5 -111.5t-47.5 -112t-115 -46.5 t-114.5 46.5t-47 112zM743 1710q0 -45 30 -75.5t75 -30.5t74.5 30.5t29.5 75.5q0 43 -29.5 74t-74.5 31t-75 -31t-30 -74z" glyph-name="Uring" horiz-adv-x="1302" unicode="Ů"/><glyph d="M193 430q-29 -178 35.5 -276.5t230.5 -98.5q160 0 270.5 90.5t144.5 243.5l107 676h84l-168 -1065h-84l31 201q-23 -43 -64 -87t-135 -89t-209 -45q-172 0 -269 103t-61 335l103 647h84zM512 1341.5q0 65.5 47 111.5t114.5 46t115 -46t47.5 -111.5t-47.5 -111.5t-115 -46 t-114.5 46t-47 111.5zM569 1341q0 -45 30 -75.5t75 -30.5t74.5 30.5t29.5 75.5q0 43 -29.5 74t-74.5 31t-75 -31t-30 -74z" glyph-name="uring" unicode="ů"/><glyph d="M571 -20q-248 0 -366.5 149.5t-77.5 411.5l141 893h86l-141 -891q-35 -229 64.5 -356.5t308.5 -127.5q207 0 339 126t169 358l141 891h88l-141 -893q-41 -264 -203 -412.5t-408 -148.5zM618 1561l242 260h84l-242 -260h-84zM856 1561l242 260h84l-242 -260h-84z" glyph-name="Uhungarumlaut" horiz-adv-x="1302" unicode="Ű"/><glyph d="M193 430q-29 -178 35.5 -276.5t230.5 -98.5q160 0 270.5 90.5t144.5 243.5l107 676h84l-168 -1065h-84l31 201q-23 -43 -64 -87t-135 -89t-209 -45q-172 0 -269 103t-61 335l103 647h84zM444 1192l242 260h84l-242 -260h-84zM682 1192l242 260h84l-242 -260h-84z" glyph-name="uhungarumlaut" unicode="ű"/><glyph d="M690 -371q-109 -16 -174 29t-65 137q0 115 100 185q-238 8 -350.5 156.5t-73.5 404.5l141 893h86l-141 -891q-35 -229 64.5 -356.5t308.5 -127.5q207 0 339 126t169 358l141 891h88l-141 -893q-35 -227 -162 -371.5t-324 -179.5q-80 -16 -127 -64.5t-47 -118.5 q0 -68 47 -98.5t129 -21.5z" glyph-name="Uogonek" horiz-adv-x="1302" unicode="Ų"/><glyph d="M193 430q-29 -178 35.5 -276.5t230.5 -98.5q160 0 270.5 90.5t144.5 243.5l107 676h84l-168 -1065q-113 0 -186.5 -52t-73.5 -141q0 -137 174 -120l-8 -58q-106 -16 -173 29t-67 137q0 96 74 164t182 80l25 162q-23 -43 -64 -87t-135 -89t-209 -45q-172 0 -269 103 t-61 335l103 647h84z" glyph-name="uogonek" unicode="ų"/><glyph d="M371 0l-164 1434h88l143 -1313h6l615 1313h100l199 -1313h6l559 1313h90l-614 -1434h-103l-204 1319l-621 -1319h-100zM860 1569l254 252h111l174 -252h-82l-150 219l-217 -219h-90z" glyph-name="Wcircumflex" horiz-adv-x="1933" unicode="Ŵ"/><glyph d="M285 0l-148 1065h84l127 -969h8l480 969h79l181 -969h8l430 969h86l-479 -1065h-105l-174 954l-473 -954h-104zM631 1200l254 252h110l174 -252h-82l-149 219l-217 -219h-90z" glyph-name="wcircumflex" horiz-adv-x="1589" unicode="ŵ"/><glyph d="M508 0l92 580l-393 854h96l352 -768l596 768h101l-666 -854l-90 -580h-88zM528 1569l254 252h111l174 -252h-82l-149 219l-218 -219h-90z" glyph-name="Ycircumflex" horiz-adv-x="1271" unicode="Ŷ"/><glyph d="M33 -309q190 -31 311 192q49 94 37 144l-244 1038h86l226 -985l534 985h90l-659 -1200q-158 -289 -394 -252zM360 1200l254 252h111l174 -252h-82l-149 219l-217 -219h-91z" glyph-name="ycircumflex" horiz-adv-x="1042" unicode="ŷ"/><glyph d="M508 0l92 580l-393 854h96l352 -768l596 768h101l-666 -854l-90 -580h-88zM602 1763.5q0 26.5 20.5 47t47 20.5t47 -20.5t20.5 -47t-20.5 -47t-47 -20.5t-47 20.5t-20.5 47zM926 1763.5q0 26.5 20.5 47t47 20.5t47 -20.5t20.5 -47t-20.5 -47t-47 -20.5t-47 20.5t-20.5 47 z" glyph-name="Ydieresis" horiz-adv-x="1271" unicode="Ÿ"/><glyph d="M-2 0l12 80l1161 1274h-915l14 80h1020l-16 -80l-1159 -1274h966l-10 -80h-1073zM700 1561l242 260h84l-242 -260h-84z" glyph-name="Zacute" horiz-adv-x="1236" unicode="Ź"/><glyph d="M-2 0l12 76l881 913h-717l12 76h820l-11 -76l-882 -913h737l-12 -76h-840zM518 1192l242 260h84l-242 -260h-84z" glyph-name="zacute" horiz-adv-x="1003" unicode="ź"/><glyph d="M-2 0l12 80l1161 1274h-915l14 80h1020l-16 -80l-1159 -1274h966l-10 -80h-1073zM750 1763.5q0 26.5 20.5 47t47 20.5t47 -20.5t20.5 -47t-20.5 -47t-47 -20.5t-47 20.5t-20.5 47z" glyph-name="Zdotaccent" horiz-adv-x="1236" unicode="Ż"/><glyph d="M-2 0l12 76l881 913h-717l12 76h820l-11 -76l-882 -913h737l-12 -76h-840zM567 1394.5q0 26.5 19.5 47t48.5 20.5t48 -20.5t19 -47t-19 -47t-48 -20.5t-48.5 20.5t-19.5 47z" glyph-name="zdotaccent" horiz-adv-x="1003" unicode="ż"/><glyph d="M-2 0l12 80l1161 1274h-915l14 80h1020l-16 -80l-1159 -1274h966l-10 -80h-1073zM561 1821h82l150 -219l217 219h90l-254 -252h-111z" glyph-name="Zcaron" horiz-adv-x="1236" unicode="Ž"/><glyph d="M-2 0l12 76l881 913h-717l12 76h820l-11 -76l-882 -913h737l-12 -76h-840zM379 1452h82l149 -219l217 219h91l-254 -252h-111z" glyph-name="zcaron" horiz-adv-x="1003" unicode="ž"/><glyph d="M578 -20q-276 0 -398.5 166.5t-70.5 484.5l12 71h1124q12 84 12 164q0 258 -118.5 383t-335.5 125q-319 0 -467 -258h-88q74 160 220 248t345 88q250 0 390 -144.5t140 -433.5q0 -170 -48 -326.5t-140 -285.5t-241.5 -205.5t-335.5 -76.5zM190 629q-49 -283 54.5 -427.5 t341.5 -144.5q260 0 424 162t221 410h-1041z" glyph-name="uni018F" horiz-adv-x="1398" unicode="Ə"/><glyph d="M-80 -313q197 0 236 229l139 889h-172l10 78h174l41 258q16 94 48 157.5t79 95t96.5 44t112.5 12.5l-12 -76q-100 0 -158.5 -49t-79.5 -180l-41 -262h201l-12 -78h-201l-141 -885q-49 -309 -332 -309z" glyph-name="florin" horiz-adv-x="589" unicode="ƒ"/><glyph d="M645 -20q-240 0 -385 147t-145 440q0 233 87 432t260 326t398 127h529l26 162h78l-39 -236h-297q238 -143 238 -516q0 -172 -52.5 -329.5t-146.5 -281.5t-237.5 -197.5t-313.5 -73.5zM199 569q0 -256 122.5 -384t329.5 -128q203 0 356.5 119t228.5 298t75 386 q0 258 -124 386t-329 128q-203 0 -356.5 -118.5t-228 -299t-74.5 -387.5z" glyph-name="Ohorn" horiz-adv-x="1449" unicode="Ơ"/><glyph d="M492 -20q-186 0 -306 113.5t-120 332.5q0 266 164.5 462.5t420.5 196.5h348l25 160h74l-33 -227h-164q178 -115 178 -379q0 -266 -164.5 -462.5t-422.5 -196.5zM150 432q0 -193 98 -286t252 -93q217 0 355 174t138 408q0 190 -98 283.5t-252 93.5q-217 0 -355 -174.5 t-138 -405.5z" glyph-name="ohorn" horiz-adv-x="1144" unicode="ơ"/><glyph d="M571 -20q-248 0 -366.5 149.5t-77.5 411.5l141 893h86l-141 -891q-35 -229 64.5 -356.5t308.5 -127.5q207 0 339 126t169 358l141 891h186l27 180h78l-27 -180l-12 -78h-176l-129 -815q-41 -264 -203 -412.5t-408 -148.5z" glyph-name="Uhorn" horiz-adv-x="1302" unicode="Ư"/><glyph d="M193 430q-29 -178 35.5 -276.5t230.5 -98.5q160 0 270.5 90.5t144.5 243.5l107 676h186l27 180h78l-27 -180l-12 -78h-180l-156 -987h-84l31 201q-23 -43 -64 -87t-135 -89t-209 -45q-172 0 -269 103t-61 335l103 647h84z" glyph-name="uhorn" unicode="ư"/><glyph d="M-31 0l793 1434h96l338 -1434h-90l-94 412h-723l-226 -412h-94zM330 485h665l-194 844h-8zM604 1821h82l150 -219l217 219h90l-254 -252h-111z" glyph-name="uni01CD" horiz-adv-x="1333" unicode="Ǎ"/><glyph d="M328 -20q-141 0 -221 63t-80 182q0 137 101 221t278 105l286 33q100 10 138 31.5t47 68.5l10 51q25 150 -43 215.5t-234 65.5q-313 0 -350 -232l-4 -24h-80l2 28q37 297 447 297q205 0 289.5 -83.5t54.5 -270.5l-117 -731h-80l31 205h-6q-43 -74 -171 -149.5t-298 -75.5z M111 231q0 -180 233 -180q193 0 332 107.5t151 197.5l33 222q-10 -43 -184 -64l-256 -31q-145 -16 -227 -79.5t-82 -172.5zM408 1452h81l150 -219l217 219h90l-254 -252h-110z" glyph-name="uni01CE" horiz-adv-x="1060" unicode="ǎ"/><glyph d="M41 0l227 1434h88l-227 -1434h-88zM104 1821h82l150 -219l217 219h90l-254 -252h-110z" glyph-name="uni01CF" horiz-adv-x="335" unicode="Ǐ"/><glyph d="M14 0l168 1065h84l-168 -1065h-84zM18 1452h82l150 -219l217 219h90l-254 -252h-110z" glyph-name="uni01D0" horiz-adv-x="282" unicode="ǐ"/><glyph d="M645 -20q-240 0 -385 147t-145 440q0 233 87 432t260 326t398 127q244 0 389.5 -147.5t145.5 -442.5q0 -172 -52.5 -329.5t-146.5 -281.5t-237.5 -197.5t-313.5 -73.5zM199 569q0 -256 122.5 -384t329.5 -128q203 0 356.5 119t228.5 298t75 386q0 258 -124 386t-329 128 q-203 0 -356.5 -118.5t-228 -299t-74.5 -387.5zM662 1821h81l150 -219l217 219h90l-254 -252h-110z" glyph-name="uni01D1" horiz-adv-x="1449" unicode="Ǒ"/><glyph d="M492 -20q-186 0 -306 113.5t-120 332.5q0 266 164.5 462.5t420.5 196.5q188 0 308 -113.5t120 -332.5q0 -266 -164.5 -462.5t-422.5 -196.5zM150 432q0 -193 98 -286t252 -93q217 0 355 174t138 408q0 190 -98 283.5t-252 93.5q-217 0 -355 -174.5t-138 -405.5zM449 1452 h81l150 -219l217 219h90l-254 -252h-110z" glyph-name="uni01D2" horiz-adv-x="1144" unicode="ǒ"/><glyph d="M571 -20q-248 0 -366.5 149.5t-77.5 411.5l141 893h86l-141 -891q-35 -229 64.5 -356.5t308.5 -127.5q207 0 339 126t169 358l141 891h88l-141 -893q-41 -264 -203 -412.5t-408 -148.5zM592 1821h82l149 -219l217 219h90l-253 -252h-111z" glyph-name="uni01D3" horiz-adv-x="1302" unicode="Ǔ"/><glyph d="M193 430q-29 -178 35.5 -276.5t230.5 -98.5q160 0 270.5 90.5t144.5 243.5l107 676h84l-168 -1065h-84l31 201q-23 -43 -64 -87t-135 -89t-209 -45q-172 0 -269 103t-61 335l103 647h84zM420 1452h82l149 -219l217 219h90l-253 -252h-111z" glyph-name="uni01D4" unicode="ǔ"/><glyph d="M571 -20q-248 0 -366.5 149.5t-77.5 411.5l141 893h86l-141 -891q-35 -229 64.5 -356.5t308.5 -127.5q207 0 339 126t169 358l141 891h88l-141 -893q-41 -264 -203 -412.5t-408 -148.5zM621 2095l8 62h563l-8 -62h-563zM623 1763.5q0 26.5 20.5 47t47 20.5t47 -20.5 t20.5 -47t-20.5 -47t-47 -20.5t-47 20.5t-20.5 47zM946 1763.5q0 26.5 20.5 47t47 20.5t47 -20.5t20.5 -47t-20.5 -47t-47 -20.5t-47 20.5t-20.5 47z" glyph-name="uni01D5" horiz-adv-x="1302" unicode="Ǖ"/><glyph d="M193 430q-29 -178 35.5 -276.5t230.5 -98.5q160 0 270.5 90.5t144.5 243.5l107 676h84l-168 -1065h-84l31 201q-23 -43 -64 -87t-135 -89t-209 -45q-172 0 -269 103t-61 335l103 647h84zM449 1726l8 62h563l-8 -62h-563zM451 1394.5q0 26.5 20.5 47t47 20.5t47 -20.5 t20.5 -47t-20.5 -47t-47 -20.5t-47 20.5t-20.5 47zM774 1394.5q0 26.5 20.5 47t47 20.5t47 -20.5t20.5 -47t-20.5 -47t-47 -20.5t-47 20.5t-20.5 47z" glyph-name="uni01D6" unicode="ǖ"/><glyph d="M571 -20q-248 0 -366.5 149.5t-77.5 411.5l141 893h86l-141 -891q-35 -229 64.5 -356.5t308.5 -127.5q207 0 339 126t169 358l141 891h88l-141 -893q-41 -264 -203 -412.5t-408 -148.5zM623 1763.5q0 26.5 20.5 47t47 20.5t47 -20.5t20.5 -47t-20.5 -47t-47 -20.5 t-47 20.5t-20.5 47zM815 1896l242 261h84l-242 -261h-84zM946 1763.5q0 26.5 20.5 47t47 20.5t47 -20.5t20.5 -47t-20.5 -47t-47 -20.5t-47 20.5t-20.5 47z" glyph-name="uni01D7" horiz-adv-x="1302" unicode="Ǘ"/><glyph d="M193 430q-29 -178 35.5 -276.5t230.5 -98.5q160 0 270.5 90.5t144.5 243.5l107 676h84l-168 -1065h-84l31 201q-23 -43 -64 -87t-135 -89t-209 -45q-172 0 -269 103t-61 335l103 647h84zM451 1394.5q0 26.5 20.5 47t47 20.5t47 -20.5t20.5 -47t-20.5 -47t-47 -20.5 t-47 20.5t-20.5 47zM643 1528l242 260h84l-242 -260h-84zM774 1394.5q0 26.5 20.5 47t47 20.5t47 -20.5t20.5 -47t-20.5 -47t-47 -20.5t-47 20.5t-20.5 47z" glyph-name="uni01D8" unicode="ǘ"/><glyph d="M571 -20q-248 0 -366.5 149.5t-77.5 411.5l141 893h86l-141 -891q-35 -229 64.5 -356.5t308.5 -127.5q207 0 339 126t169 358l141 891h88l-141 -893q-41 -264 -203 -412.5t-408 -148.5zM623 1763.5q0 26.5 20.5 47t47 20.5t47 -20.5t20.5 -47t-20.5 -47t-47 -20.5 t-47 20.5t-20.5 47zM639 2157h82l149 -220l217 220h91l-254 -252h-111zM946 1763.5q0 26.5 20.5 47t47 20.5t47 -20.5t20.5 -47t-20.5 -47t-47 -20.5t-47 20.5t-20.5 47z" glyph-name="uni01D9" horiz-adv-x="1302" unicode="Ǚ"/><glyph d="M193 430q-29 -178 35.5 -276.5t230.5 -98.5q160 0 270.5 90.5t144.5 243.5l107 676h84l-168 -1065h-84l31 201q-23 -43 -64 -87t-135 -89t-209 -45q-172 0 -269 103t-61 335l103 647h84zM451 1394.5q0 26.5 20.5 47t47 20.5t47 -20.5t20.5 -47t-20.5 -47t-47 -20.5 t-47 20.5t-20.5 47zM467 1788h82l149 -219l217 219h91l-254 -252h-111zM774 1394.5q0 26.5 20.5 47t47 20.5t47 -20.5t20.5 -47t-20.5 -47t-47 -20.5t-47 20.5t-20.5 47z" glyph-name="uni01DA" unicode="ǚ"/><glyph d="M571 -20q-248 0 -366.5 149.5t-77.5 411.5l141 893h86l-141 -891q-35 -229 64.5 -356.5t308.5 -127.5q207 0 339 126t169 358l141 891h88l-141 -893q-41 -264 -203 -412.5t-408 -148.5zM623 1763.5q0 26.5 20.5 47t47 20.5t47 -20.5t20.5 -47t-20.5 -47t-47 -20.5 t-47 20.5t-20.5 47zM657 2157h76l168 -261h-76zM946 1763.5q0 26.5 20.5 47t47 20.5t47 -20.5t20.5 -47t-20.5 -47t-47 -20.5t-47 20.5t-20.5 47z" glyph-name="uni01DB" horiz-adv-x="1302" unicode="Ǜ"/><glyph d="M193 430q-29 -178 35.5 -276.5t230.5 -98.5q160 0 270.5 90.5t144.5 243.5l107 676h84l-168 -1065h-84l31 201q-23 -43 -64 -87t-135 -89t-209 -45q-172 0 -269 103t-61 335l103 647h84zM451 1394.5q0 26.5 20.5 47t47 20.5t47 -20.5t20.5 -47t-20.5 -47t-47 -20.5 t-47 20.5t-20.5 47zM485 1788h76l168 -260h-76zM774 1394.5q0 26.5 20.5 47t47 20.5t47 -20.5t20.5 -47t-20.5 -47t-47 -20.5t-47 20.5t-20.5 47z" glyph-name="uni01DC" unicode="ǜ"/><glyph d="M659 -20q-254 0 -398 149.5t-144 450.5q0 233 86 428.5t262 319.5t409 124q201 0 319 -88t142 -248h-82q-63 258 -379 258q-213 0 -369.5 -114.5t-231 -290.5t-74.5 -387q0 -264 123.5 -394.5t339.5 -130.5q238 0 386 146.5t191 427.5l-412 -2l13 73h491l-10 -73 q-47 -317 -219.5 -483t-442.5 -166zM664 1821h81l150 -219l217 219h90l-254 -252h-110z" glyph-name="Gcaron" horiz-adv-x="1409" unicode="Ǧ"/><glyph d="M471 20q-178 0 -290.5 105.5t-112.5 310.5q0 270 157.5 459.5t409.5 189.5q135 0 236.5 -61t142.5 -186h2l35 227h84l-148 -938l-20 -123q-20 -121 -76.5 -208t-135.5 -134t-164 -68.5t-181 -21.5q-193 0 -307.5 81t-92.5 232h74q-12 -111 77 -177t257 -66q184 0 308 87 t157 275l20 123l23 141h-4q-80 -125 -199 -186.5t-252 -61.5zM150 453q0 -176 95 -267.5t242 -91.5q215 0 356.5 163t141.5 390q0 180 -98.5 272.5t-251.5 92.5q-215 0 -350 -164t-135 -395zM457 1452h82l149 -219l217 219h90l-254 -252h-110z" glyph-name="gcaron" horiz-adv-x="1175" unicode="ǧ"/><glyph d="M41 0l227 1434h88l-137 -865l932 865h113l-729 -674l548 -760h-106l-506 700l-270 -249l-72 -451h-88zM563 1821h82l150 -219l217 219h90l-254 -252h-111z" glyph-name="uni01E8" horiz-adv-x="1220" unicode="Ǩ"/><glyph d="M41 0l227 1434h84l-162 -1014l744 645h108l-542 -469l436 -596h-96l-400 543l-266 -230l-49 -313h-84zM92 1821h82l150 -219l217 219h90l-254 -252h-111z" glyph-name="uni01E9" horiz-adv-x="1052" unicode="ǩ"/><glyph d="M764 -371q-106 -16 -173 29t-67 137q0 115 101 185q-231 6 -370.5 153.5t-139.5 433.5q0 233 87 432t260 326t398 127q244 0 389.5 -147.5t145.5 -442.5q0 -322 -169 -571.5t-454 -300.5q-80 -16 -127 -64.5t-47 -118.5q0 -137 174 -120zM199 569q0 -256 122.5 -384 t329.5 -128q203 0 356.5 119t228.5 298t75 386q0 258 -124 386t-329 128q-203 0 -356.5 -118.5t-228 -299t-74.5 -387.5z" glyph-name="uni01EA" horiz-adv-x="1449" unicode="Ǫ"/><glyph d="M596 -371q-106 -16 -173 29t-67 137q0 115 103 185q-174 12 -283.5 124.5t-109.5 321.5q0 266 164.5 462.5t420.5 196.5q188 0 308 -113.5t120 -332.5q0 -231 -129 -416.5t-340 -230.5q-82 -16 -131 -65.5t-49 -119.5q0 -137 174 -120zM150 432q0 -193 98 -286t252 -93 q217 0 355 174t138 408q0 190 -98 283.5t-252 93.5q-217 0 -355 -174.5t-138 -405.5z" glyph-name="uni01EB" horiz-adv-x="1144" unicode="ǫ"/><glyph d="M528 -20q-248 0 -366.5 115.5t-91.5 291.5h84q-14 -147 82 -237.5t303 -90.5q215 0 337.5 97.5t122.5 259.5q0 125 -71.5 182t-214.5 90l-170 37q-324 70 -324 330q0 182 140.5 289.5t369.5 107.5q219 0 333 -98.5t91 -247.5h-82q6 113 -81 189.5t-269 76.5 q-190 0 -301 -85t-111 -230q0 -104 66.5 -167t208.5 -93l170 -37q162 -35 250 -111t88 -227q0 -201 -156 -321.5t-408 -120.5zM377 -354l6 53q115 6 123 113q-39 0 -63.5 19t-24.5 54t22.5 58.5t59.5 23.5q35 0 57.5 -27.5t22.5 -78.5q0 -80 -50.5 -147.5t-140.5 -67.5h-12z " glyph-name="Scommaaccent" horiz-adv-x="1208" unicode="Ș"/><glyph d="M408 -20q-174 0 -286 74.5t-99 219.5h77q-4 -119 89.5 -171t224.5 -52q154 0 255 65.5t101 188.5q0 86 -50 124t-163 69l-184 47q-115 31 -174.5 87t-59.5 152q0 139 116 220t302 81q166 0 262 -70.5t88 -215.5h-71q-8 215 -283 215q-150 0 -240 -57.5t-90 -165.5 q0 -70 44 -112t151 -69l174 -45q133 -37 197.5 -90t64.5 -162q0 -160 -128 -246.5t-318 -86.5zM281 -377l6 53q115 6 123 113q-39 0 -63.5 19.5t-24.5 54.5t22.5 58.5t58.5 23.5q35 0 57.5 -28t22.5 -79q0 -80 -50 -147.5t-140 -67.5h-12z" glyph-name="scommaaccent" horiz-adv-x="956" unicode="ș"/><glyph d="M453 0l213 1354h-473l14 80h1034l-12 -80h-475l-213 -1354h-88zM346 -354l6 53q115 6 123 113q-39 0 -63.5 19t-24.5 54t22.5 58.5t59.5 23.5q35 0 57.5 -27.5t22.5 -78.5q0 -80 -50 -147.5t-141 -67.5h-12z" glyph-name="uni021A" horiz-adv-x="1161" unicode="Ț"/><glyph d="M365 -14q-231 0 -197 221l123 786h-164l10 72h166l41 260h84l-41 -260h213l-10 -72h-213l-121 -764q-14 -98 18.5 -134t128.5 -36h60l-12 -67q-29 -6 -86 -6zM145 -354l7 53q115 6 122 113q-39 0 -63.5 19t-24.5 54t22.5 58.5t59.5 23.5q35 0 57.5 -27.5t22.5 -78.5 q0 -80 -50 -147.5t-140 -67.5h-13z" glyph-name="uni021B" horiz-adv-x="600" unicode="ț"/><glyph d="M-123 -377q-35 0 -78 6l8 68h48q100 0 145 36t61 134l191 1198h84l-195 -1221q-37 -221 -264 -221z" glyph-name="uni0237" horiz-adv-x="350" unicode="ȷ"/><glyph d="M442 -20q-178 0 -282.5 101t-104.5 281q0 121 27 197h848q4 57 4 86q0 367 -346 367q-270 0 -375 -219h-84q133 293 467 292q199 0 308.5 -110.5t109.5 -327.5q0 -174 -65.5 -324.5t-198 -246.5t-308.5 -96zM150 489q-45 -215 42 -325.5t261 -110.5q186 0 308 123 t159 313h-770z" glyph-name="uni0259" horiz-adv-x="1079" unicode="ə"/><glyph d="M104 1200l254 252h111l174 -252h-82l-149 219l-217 -219h-91z" glyph-name="circumflex" horiz-adv-x="538" unicode="ˆ"/><glyph d="M682 1452l-254 -252h-111l-174 252h82l150 -219l217 219h90z" glyph-name="caron" horiz-adv-x="538" unicode="ˇ"/><glyph d="M373 1221q-137 0 -190.5 67.5t-37.5 163.5h64q-18 -172 170 -172q190 0 219 172h64q-14 -96 -84 -163.5t-205 -67.5z" glyph-name="breve" horiz-adv-x="518" unicode="˘"/><glyph d="M204.5 1327q-28.5 0 -48 20.5t-19.5 47t19.5 47t48 20.5t48 -20.5t19.5 -47t-19.5 -47t-48 -20.5z" glyph-name="dotaccent" horiz-adv-x="137" unicode="˙"/><glyph d="M292.5 1184q-67.5 0 -114.5 46t-47 111.5t47 111.5t114.5 46t115 -46t47.5 -111.5t-47.5 -111.5t-115 -46zM188 1341q0 -45 30 -75.5t75 -30.5t74.5 30.5t29.5 75.5q0 43 -29.5 74t-74.5 31t-75 -31t-30 -74z" glyph-name="ring" horiz-adv-x="327" unicode="˚"/><glyph d="M125 -371q-106 -16 -173 29t-67 137q0 106 88 176t213 70l33 -41q-113 0 -186.5 -52t-73.5 -141q0 -137 174 -120z" glyph-name="ogonek" horiz-adv-x="303" unicode="˛"/><glyph d="M592 1255q-49 0 -88 24t-59.5 53.5t-54.5 53t-73 23.5q-53 0 -79.5 -35t-30.5 -74h-66q12 86 60.5 129.5t115.5 43.5q47 0 86 -24t60.5 -53.5t55.5 -53t73 -23.5q53 0 79.5 35t30.5 73h64q-12 -86 -60 -129t-114 -43z" glyph-name="tilde" horiz-adv-x="647" unicode="˜"/><glyph d="M342 1192l242 260h84l-242 -260h-84zM104 1192l242 260h84l-242 -260h-84z" glyph-name="hungarumlaut" horiz-adv-x="526" unicode="˝"/><glyph d="M311 1192l-168 260h76l168 -260h-76z" glyph-name="gravecomb" horiz-adv-x="0" unicode="̀"/><glyph d="M104 1192l242 260h84l-242 -260h-84z" glyph-name="acutecomb" horiz-adv-x="0" unicode="́"/><glyph d="M104 1200l254 252h111l174 -252h-82l-149 219l-217 -219h-91z" glyph-name="uni0302" horiz-adv-x="0" unicode="̂"/><glyph d="M592 1255q-49 0 -88 24t-59.5 53.5t-54.5 53t-73 23.5q-53 0 -79.5 -35t-30.5 -74h-66q12 86 60.5 129.5t115.5 43.5q47 0 86 -24t60.5 -53.5t55.5 -53t73 -23.5q53 0 79.5 35t30.5 73h64q-12 -86 -60 -129t-114 -43z" glyph-name="tildecomb" horiz-adv-x="0" unicode="̃"/><glyph d="M137 1391l8 61h564l-9 -61h-563z" glyph-name="uni0304" horiz-adv-x="0" unicode="̄"/><glyph d="M373 1221q-137 0 -190.5 67.5t-37.5 163.5h64q-18 -172 170 -172q190 0 219 172h64q-14 -96 -84 -163.5t-205 -67.5z" glyph-name="uni0306" horiz-adv-x="0" unicode="̆"/><glyph d="M204.5 1327q-28.5 0 -48 20.5t-19.5 47t19.5 47t48 20.5t48 -20.5t19.5 -47t-19.5 -47t-48 -20.5z" glyph-name="uni0307" horiz-adv-x="0" unicode="̇"/><glyph d="M528.5 1327q-28.5 0 -48 20.5t-19.5 47t19.5 47t48 20.5t48 -20.5t19.5 -47t-19.5 -47t-48 -20.5zM137 1394.5q0 26.5 19.5 47t48 20.5t48 -20.5t19.5 -47t-19.5 -47t-48 -20.5t-48 20.5t-19.5 47z" glyph-name="uni0308" horiz-adv-x="0" unicode="̈"/><glyph d="M291 1208q68 2 106.5 37t38.5 98q0 61 -33.5 96.5t-89.5 35.5q-51 0 -84.5 -29t-35.5 -80h-58q0 78 53.5 122t124.5 44q76 0 130.5 -50t54.5 -134t-52.5 -134.5t-121.5 -54.5z" glyph-name="hookabovecomb" horiz-adv-x="0" unicode="̉"/><glyph d="M292.5 1184q-67.5 0 -114.5 46t-47 111.5t47 111.5t114.5 46t115 -46t47.5 -111.5t-47.5 -111.5t-115 -46zM188 1341q0 -45 30 -75.5t75 -30.5t74.5 30.5t29.5 75.5q0 43 -29.5 74t-74.5 31t-75 -31t-30 -74z" glyph-name="uni030A" horiz-adv-x="0" unicode="̊"/><glyph d="M342 1192l242 260h84l-242 -260h-84zM104 1192l242 260h84l-242 -260h-84z" glyph-name="uni030B" horiz-adv-x="0" unicode="̋"/><glyph d="M682 1452l-254 -252h-111l-174 252h82l150 -219l217 219h90z" glyph-name="uni030C" horiz-adv-x="0" unicode="̌"/><glyph d="M393 1389q-115 -6 -123 -113q39 0 63.5 -19.5t24.5 -54.5t-22.5 -58.5t-59.5 -23.5q-35 0 -57 28t-22 79q0 80 50 147.5t140 67.5h12z" glyph-name="uni0312" horiz-adv-x="0" unicode="̒"/><glyph d="M72 987l12 78h184l27 180h78l-27 -180l-12 -78h-262z" glyph-name="uni031B" horiz-adv-x="0" unicode="̛"/><glyph d="M35 -471q-33 0 -55.5 22.5t-22.5 55.5q0 31 22.5 54.5t55.5 23.5t55.5 -23.5t22.5 -54.5q0 -33 -22.5 -55.5t-55.5 -22.5z" glyph-name="dotbelowcomb" horiz-adv-x="0" unicode="̣"/><glyph d="M-137 -301q115 6 123 113q-39 0 -63.5 19t-24.5 54t22.5 58.5t59.5 23.5q35 0 57 -27.5t22 -78.5q0 -80 -50 -147.5t-140 -67.5h-12z" glyph-name="uni0326" horiz-adv-x="0" unicode="̦"/><glyph d="M-111 -354q88 0 139.5 32.5t51.5 90.5q0 53 -42 73.5t-110 -6.5l-32 41l114 123h82l-98 -98q25 4 33 4q53 0 89 -33t36 -98q0 -94 -78 -144.5t-195 -50.5z" glyph-name="uni0327" horiz-adv-x="0" unicode="̧"/><glyph d="M125 -371q-106 -16 -173 29t-67 137q0 106 88 176t213 70l33 -41q-113 0 -186.5 -52t-73.5 -141q0 -137 174 -120z" glyph-name="uni0328" horiz-adv-x="0" unicode="̨"/><glyph d="M-31 0l879 1460h2l416 -1460h-1297zM109 78h1046l-332 1200z" glyph-name="Delta" horiz-adv-x="1402" unicode="Δ"/><glyph d="M61 0l13 74h332l6 47q-291 188 -291 526q0 319 245.5 560t573.5 241q268 0 442 -168t174 -430q0 -225 -134 -418.5t-357 -310.5l-6 -47h332l-13 -74h-397l27 170q217 115 342 290t125 386q0 242 -157 383t-388 141q-293 0 -509 -213t-216 -506q0 -313 280 -481l-26 -170 h-398z" glyph-name="Omega" horiz-adv-x="1609" unicode="Ω"/><glyph d="M-20 -389l122 782l4 25l103 647h84l-105 -655q-23 -168 43 -261.5t228 -93.5q160 0 270.5 90.5t144.5 243.5l107 676h84l-168 -1065h-84l31 201q-23 -43 -64 -87t-135 -89t-209 -45q-211 0 -293 137l-80 -506h-83z" glyph-name="mu" unicode="μ"/><glyph d="M987 -12q-176 0 -145 190l129 811h-506l-156 -989h-84l156 989h-205l12 76h1082l-13 -76h-202l-127 -811q-8 -61 10 -86.5t72 -25.5q55 0 131 36l-13 -75q-78 -39 -141 -39z" glyph-name="pi" horiz-adv-x="1302" unicode="π"/><glyph d="M41 0l227 1434h871l-15 -80h-782l-90 -574h723l-12 -78h-723l-101 -622h805l-12 -80h-891zM516 1763.5q0 26.5 20.5 47t47 20.5t47 -20.5t20.5 -47t-20.5 -47t-47 -20.5t-47 20.5t-20.5 47zM840 1763.5q0 26.5 20.5 47t47 20.5t47 -20.5t20.5 -47t-20.5 -47t-47 -20.5 t-47 20.5t-20.5 47z" glyph-name="afii10023" horiz-adv-x="1089" unicode="Ё"/><glyph d="M41 0l227 1434h803l-14 -80h-715l-215 -1354h-86zM627 1561l241 260h84l-241 -260h-84z" glyph-name="afii10052" horiz-adv-x="989" unicode="Ѓ"/><glyph d="M657 -20q-248 0 -395 148t-147 443q0 233 86 431t261 324t406 126q209 0 337 -103.5t141 -287.5h-82q-16 150 -122 231.5t-278 81.5q-252 0 -422 -168t-223 -426h580l-13 -75h-579q-8 -55 -8 -127q0 -260 127 -390.5t340 -130.5q172 0 294.5 83t188.5 233h88 q-74 -193 -224.5 -293t-355.5 -100z" glyph-name="afii10053" horiz-adv-x="1323" unicode="Є"/><glyph d="M41 0l227 1434h88l-227 -1434h-88zM135 1763.5q0 26.5 20.5 47t47 20.5t47 -20.5t20.5 -47t-20.5 -47t-47 -20.5t-47 20.5t-20.5 47zM459 1763.5q0 26.5 20.5 47t47 20.5t47 -20.5t20.5 -47t-20.5 -47t-47 -20.5t-47 20.5t-20.5 47z" glyph-name="afii10056" horiz-adv-x="335" unicode="Ї"/><glyph d="M41 0l227 1434h88l-137 -865l932 865h113l-729 -674l548 -760h-106l-506 700l-270 -249l-72 -451h-88zM551 1561l242 260h84l-242 -260h-84z" glyph-name="afii10061" horiz-adv-x="1220" unicode="Ќ"/><glyph d="M123 76q184 -27 307 188q53 98 41 148l-264 1022h90l246 -965l551 965h94l-684 -1190q-160 -287 -393 -252zM500 1821h63q-18 -172 170 -172q190 0 219 172h64q-14 -96 -84 -164t-205 -68q-137 0 -190 68t-37 164z" glyph-name="afii10062" unicode="Ў"/><glyph d="M-31 0l793 1434h96l338 -1434h-90l-94 412h-723l-226 -412h-94zM330 485h665l-194 844h-8z" glyph-name="afii10017" horiz-adv-x="1333" unicode="А"/><glyph d="M41 0l227 1434h803l-14 -80h-715l-74 -467h406q203 0 309.5 -93.5t106.5 -273.5q0 -231 -154 -375.5t-404 -144.5h-491zM139 82h402q211 0 333.5 118.5t122.5 309.5q0 295 -342 295h-401z" glyph-name="afii10018" horiz-adv-x="1173" unicode="Б"/><glyph d="M41 0l227 1434h506q180 0 267 -79t87 -214q0 -127 -74.5 -223.5t-207.5 -135.5q262 -59 262 -325q0 -211 -153.5 -334t-405.5 -123h-508zM139 80h410q211 0 339 102.5t128 276.5q0 281 -357 280h-415zM258 817h408q174 0 273 88t99 236q0 109 -66.5 162t-215.5 53h-412z " glyph-name="afii10019" horiz-adv-x="1200" unicode="В"/><glyph d="M41 0l227 1434h803l-14 -80h-715l-215 -1354h-86z" glyph-name="afii10020" horiz-adv-x="989" unicode="Г"/><glyph d="M-53 -141l35 219h53q119 100 183.5 333.5t146.5 747.5l43 275h905l-215 -1356h65l-35 -219h-84l23 141h-1014l-22 -141h-84zM131 78h881l200 1276h-731l-30 -195q-82 -524 -142.5 -752.5t-177.5 -328.5z" glyph-name="afii10021" horiz-adv-x="1308" unicode="Д"/><glyph d="M41 0l227 1434h871l-15 -80h-782l-90 -574h723l-12 -78h-723l-101 -622h805l-12 -80h-891z" glyph-name="afii10022" horiz-adv-x="1089" unicode="Е"/><glyph d="M-31 0l803 737l-532 697h106l506 -656l104 656h86l-104 -664l711 664h110l-749 -697l565 -737h-105l-542 705l-113 -705h-86l111 696l-760 -696h-111z" glyph-name="afii10024" horiz-adv-x="1712" unicode="Ж"/><glyph d="M481 -20q-225 0 -334.5 126.5t-78.5 333.5h79q-25 -172 66.5 -277.5t280.5 -105.5q201 0 337 114t136 284q0 139 -101.5 213.5t-283.5 74.5h-47l10 76h43q180 0 289.5 87t109.5 231q0 115 -72.5 177t-214.5 62q-164 0 -275.5 -90t-135.5 -276h-82q33 221 166 331.5 t332 110.5q178 0 272 -82t94 -217q0 -129 -81 -227.5t-218 -139.5q125 -25 202 -106.5t77 -218.5q0 -207 -166 -344t-404 -137z" glyph-name="afii10025" horiz-adv-x="1150" unicode="З"/><glyph d="M41 0l227 1434h88l-209 -1311h5l1071 1311h112l-227 -1434h-88l207 1313h-2l-1071 -1313h-113z" glyph-name="afii10026" horiz-adv-x="1316" unicode="И"/><glyph d="M829 1589q-137 0 -190 67.5t-37 164.5h64q-18 -172 170 -172q190 0 219 172h63q-14 -96 -84 -164t-205 -68zM41 0l227 1434h88l-209 -1311h5l1071 1311h112l-227 -1434h-88l207 1313h-2l-1071 -1313h-113z" glyph-name="afii10027" horiz-adv-x="1316" unicode="Й"/><glyph d="M41 0l227 1434h88l-137 -865l932 865h113l-729 -674l548 -760h-106l-506 700l-270 -249l-72 -451h-88z" glyph-name="afii10028" horiz-adv-x="1220" unicode="К"/><glyph d="M-43 66q135 -2 225 85t125 300l156 983h926l-228 -1434h-88l213 1354h-749l-142 -903q-41 -252 -160.5 -361.5t-289.5 -103.5z" glyph-name="afii10029" horiz-adv-x="1370" unicode="Л"/><glyph d="M41 0l227 1434h97l405 -1332l823 1332h103l-228 -1434h-88l197 1251h-4l-770 -1251h-90l-383 1251h-4l-197 -1251h-88z" glyph-name="afii10030" horiz-adv-x="1677" unicode="М"/><glyph d="M991 0l105 657h-863l-104 -657h-88l227 1434h88l-110 -703h862l111 703h88l-228 -1434h-88z" glyph-name="afii10031" horiz-adv-x="1288" unicode="Н"/><glyph d="M645 -20q-240 0 -385 147t-145 440q0 233 87 432t260 326t398 127q244 0 389.5 -147.5t145.5 -442.5q0 -172 -52.5 -329.5t-146.5 -281.5t-237.5 -197.5t-313.5 -73.5zM199 569q0 -256 122.5 -384t329.5 -128q203 0 356.5 119t228.5 298t75 386q0 258 -124 386t-329 128 q-203 0 -356.5 -118.5t-228 -299t-74.5 -387.5z" glyph-name="afii10032" horiz-adv-x="1449" unicode="О"/><glyph d="M41 0l227 1434h1045l-228 -1434h-86l213 1354h-870l-215 -1354h-86z" glyph-name="afii10033" horiz-adv-x="1294" unicode="П"/><glyph d="M41 0l227 1434h486q418 0 417 -359q0 -219 -150.5 -349t-399.5 -130h-400l-92 -596h-88zM236 676h395q211 0 331.5 105.5t120.5 283.5q0 289 -346 289h-395z" glyph-name="afii10034" horiz-adv-x="1167" unicode="Р"/><glyph d="M657 -20q-248 0 -395 148t-147 443q0 233 86 431t261 324t406 126q209 0 337 -103.5t141 -287.5h-82q-16 150 -122 231.5t-278 81.5q-203 0 -358.5 -116.5t-231 -295t-75.5 -384.5q0 -260 127 -390.5t340 -130.5q172 0 294.5 83t188.5 233h88q-74 -193 -224.5 -293 t-355.5 -100z" glyph-name="afii10035" horiz-adv-x="1323" unicode="С"/><glyph d="M453 0l213 1354h-473l14 80h1034l-12 -80h-475l-213 -1354h-88z" glyph-name="afii10036" horiz-adv-x="1161" unicode="Т"/><glyph d="M123 76q184 -27 307 188q53 98 41 148l-264 1022h90l246 -965l551 965h94l-684 -1190q-160 -287 -393 -252z" glyph-name="afii10037" unicode="У"/><glyph d="M586 -31l24 148q-231 10 -363 131t-132 346q0 309 187 509t497 214l24 147h88l-24 -147q231 -10 363 -131t132 -346q0 -309 -186 -509t-498 -214l-24 -148h-88zM197 606q0 -199 113.5 -303t310.5 -115l167 1057q-270 -14 -430.5 -191.5t-160.5 -447.5zM709 188 q270 14 429.5 191.5t159.5 447.5q0 197 -112.5 302.5t-308.5 115.5z" glyph-name="afii10038" horiz-adv-x="1439" unicode="Ф"/><glyph d="M-31 0l654 743l-392 691h101l352 -621l547 621h104l-610 -695l420 -739h-101l-380 672l-590 -672h-105z" glyph-name="afii10039" horiz-adv-x="1282" unicode="Х"/><glyph d="M41 0l227 1434h86l-215 -1354h871l217 1354h86l-215 -1354h63l-59 -369h-84l47 289h-1024z" glyph-name="afii10040" horiz-adv-x="1286" unicode="Ц"/><glyph d="M496 348q-88 0 -160 23.5t-125 73t-74.5 135.5t-3.5 200l105 654h86l-105 -652q-31 -188 58.5 -271t248.5 -83q195 0 345.5 106.5t191.5 215.5l108 684h89l-228 -1434h-88l98 614q-68 -100 -216 -183t-330 -83z" glyph-name="afii10041" horiz-adv-x="1241" unicode="Ч"/><glyph d="M41 0l227 1434h86l-215 -1354h523l215 1354h88l-215 -1354h522l215 1354h88l-227 -1434h-1307z" glyph-name="afii10042" horiz-adv-x="1554" unicode="Ш"/><glyph d="M41 0l227 1434h86l-215 -1354h523l215 1354h88l-215 -1354h522l215 1354h88l-215 -1354h70l-58 -369h-86l45 289h-1290z" glyph-name="afii10043" horiz-adv-x="1556" unicode="Щ"/><glyph d="M182 1354l15 80h247l-86 -547h387q209 0 319 -94.5t110 -274.5q0 -231 -157 -374.5t-411 -143.5h-475l215 1354h-164zM231 82h392q213 0 335.5 120t122.5 306q0 297 -344 297h-391z" glyph-name="afii10044" horiz-adv-x="1257" unicode="Ъ"/><glyph d="M41 0l227 1434h86l-86 -547h387q209 0 318.5 -94.5t109.5 -274.5q0 -231 -156.5 -374.5t-410.5 -143.5h-475zM141 82h391q213 0 336 120t123 306q0 297 -344 297h-391zM1169 0l228 1434h88l-228 -1434h-88z" glyph-name="afii10045" horiz-adv-x="1464" unicode="Ы"/><glyph d="M41 0l227 1434h86l-86 -547h387q209 0 318.5 -94.5t109.5 -274.5q0 -231 -156.5 -374.5t-410.5 -143.5h-475zM141 82h391q213 0 336 120t123 306q0 297 -344 297h-391z" glyph-name="afii10046" horiz-adv-x="1167" unicode="Ь"/><glyph d="M590 651l8 76h588q8 55 8 127q0 260 -127 390t-340 130q-172 0 -295 -83t-188 -232h-88q74 193 224 293t355 100q248 0 395.5 -148.5t147.5 -443.5q0 -233 -86 -431t-261 -323.5t-407 -125.5q-209 0 -337 103t-140 288h82q16 -150 121.5 -232t277.5 -82q252 0 422 168 t224 426h-584z" glyph-name="afii10047" horiz-adv-x="1335" unicode="Э"/><glyph d="M41 0l227 1434h88l-110 -703h241v-12q41 313 239 523t497 210q244 0 389 -147.5t145 -442.5q0 -172 -52 -329.5t-146.5 -281.5t-237.5 -197.5t-313 -73.5q-240 0 -385.5 147t-145.5 440q0 29 4 90h-248l-104 -657h-88zM561 569q0 -256 123 -384t330 -128q203 0 356.5 119 t228 298t74.5 386q0 258 -124 386t-328 128q-203 0 -356.5 -118.5t-228.5 -299t-75 -387.5z" glyph-name="afii10048" horiz-adv-x="1812" unicode="Ю"/><glyph d="M881 0l94 596h-393l-492 -596h-100l493 600q-332 37 -331 350q0 219 152.5 351.5t402.5 132.5h489l-227 -1434h-88zM240 958q0 -283 350 -282h399l105 678h-398q-213 0 -334.5 -108t-121.5 -288z" glyph-name="afii10049" horiz-adv-x="1177" unicode="Я"/><glyph d="M328 -20q-141 0 -221 63t-80 182q0 137 101 221t278 105l286 33q100 10 138 31.5t47 68.5l10 51q25 150 -43 215.5t-234 65.5q-313 0 -350 -232l-4 -24h-80l2 28q37 297 447 297q205 0 289.5 -83.5t54.5 -270.5l-117 -731h-80l31 205h-6q-43 -74 -171 -149.5t-298 -75.5z M111 231q0 -180 233 -180q193 0 332 107.5t151 197.5l33 222q-10 -43 -184 -64l-256 -31q-145 -16 -227 -79.5t-82 -172.5z" glyph-name="afii10065" horiz-adv-x="1060" unicode="а"/><glyph d="M487 -18q-233 0 -330.5 166.5t-54.5 437.5l64 405q35 215 166 329t342 114h209q125 0 139 45h88q-20 -66 -83.5 -91.5t-182.5 -25.5h-182q-170 0 -278 -94t-136 -281l-27 -166q78 133 197 195.5t239 62.5q170 0 282 -111.5t112 -320.5q0 -270 -163 -467.5t-401 -197.5z M166 428q0 -182 93 -276.5t239 -94.5q205 0 338 175.5t133 406.5q0 180 -93.5 273.5t-236.5 93.5q-205 0 -339 -174.5t-134 -403.5z" glyph-name="afii10066" horiz-adv-x="1116" unicode="б"/><glyph d="M41 0l168 1065h473q143 0 218 -58.5t75 -166.5q0 -190 -211 -254q106 -20 158.5 -88t52.5 -166q0 -162 -127 -247t-342 -85h-465zM137 76h369q385 0 385 260q0 211 -307 211h-375zM223 616h375q135 0 216 55.5t81 157.5q0 160 -244 160h-370z" glyph-name="afii10067" horiz-adv-x="1085" unicode="в"/><glyph d="M41 0l168 1065h635l-10 -72h-551l-158 -993h-84z" glyph-name="afii10068" horiz-adv-x="811" unicode="г"/><glyph d="M47 0l-22 -145h-78l33 217h61q39 39 66.5 96t55 183t41 208t50.5 311l33 195h813l-156 -993h55l-32 -217h-78l22 145h-864zM127 72h733l146 921h-646l-26 -162q-80 -469 -107 -565q-39 -135 -100 -194z" glyph-name="afii10069" horiz-adv-x="1126" unicode="д"/><glyph d="M483 -20q-199 0 -308 110.5t-109 329.5q0 174 65.5 323.5t197.5 245.5t308 96q180 0 283.5 -100t103.5 -280q0 -121 -27 -197h-845q-4 -57 -5 -88q0 -367 342 -367q268 0 379 219h82q-139 -292 -467 -292zM162 575h768q45 213 -42 325t-261 112q-186 0 -307 -123.5 t-158 -313.5z" glyph-name="afii10070" horiz-adv-x="1079" unicode="е"/><glyph d="M-51 0l635 545l-447 520h105l407 -473l74 473h84l-74 -473l549 473h109l-609 -520l463 -545h-104l-424 498l-78 -498h-84l78 498l-576 -498h-108z" glyph-name="afii10072" horiz-adv-x="1361" unicode="ж"/><glyph d="M412 -18q-199 0 -297.5 98t-73.5 258h82q-20 -125 60.5 -205t240.5 -80q154 0 262.5 76t108.5 197q0 109 -93.5 161t-248.5 48l8 63q158 4 261 62.5t103 164.5q0 82 -66.5 133.5t-185.5 51.5q-137 0 -228 -68t-107 -168h-80q20 133 131.5 219t290.5 86q156 0 240.5 -66.5 t84.5 -172.5q0 -98 -72.5 -169t-195.5 -100q111 -14 175.5 -75.5t64.5 -163.5q0 -158 -135 -254t-330 -96z" glyph-name="afii10073" horiz-adv-x="1005" unicode="з"/><glyph d="M41 0l168 1065h84l-154 -967h2l858 967h111l-168 -1065h-84l154 969h-4l-856 -969h-111z" glyph-name="afii10074" horiz-adv-x="1150" unicode="и"/><glyph d="M41 0l168 1065h84l-154 -967h2l858 967h111l-168 -1065h-84l154 969h-4l-856 -969h-111zM461 1452h63q-18 -172 170 -172q190 0 219 172h64q-14 -96 -84 -163.5t-205 -67.5q-137 0 -190 67.5t-37 163.5z" glyph-name="afii10075" horiz-adv-x="1150" unicode="й"/><glyph d="M41 0l168 1065h84l-103 -651l736 651h106l-534 -469l436 -596h-98l-398 543l-264 -234l-49 -309h-84z" glyph-name="afii10076" horiz-adv-x="1050" unicode="к"/><glyph d="M-43 61q133 -2 215 81t115 298l98 625h754l-168 -1065h-86l159 993h-583l-90 -553q-41 -254 -149.5 -355t-276.5 -95z" glyph-name="afii10077" horiz-adv-x="1179" unicode="л"/><glyph d="M41 0l168 1065h86l323 -975l633 975h88l-168 -1065h-84l140 883h-6l-572 -883h-80l-301 883h-4l-139 -883h-84z" glyph-name="afii10078" horiz-adv-x="1380" unicode="м"/><glyph d="M41 0l168 1065h84l-76 -475h617l73 475h84l-168 -1065h-84l82 516h-616l-80 -516h-84z" glyph-name="afii10079" horiz-adv-x="1032" unicode="н"/><glyph d="M492 -20q-186 0 -306 113.5t-120 332.5q0 266 164.5 462.5t420.5 196.5q188 0 308 -113.5t120 -332.5q0 -266 -164.5 -462.5t-422.5 -196.5zM150 432q0 -193 98 -286t252 -93q217 0 355 174t138 408q0 190 -98 283.5t-252 93.5q-217 0 -355 -174.5t-138 -405.5z" glyph-name="afii10080" horiz-adv-x="1144" unicode="о"/><glyph d="M41 0l168 1065h807l-168 -1065h-84l158 993h-639l-158 -993h-84z" glyph-name="afii10081" horiz-adv-x="1056" unicode="п"/><glyph d="M-20 -389l229 1454h84l-39 -248q80 135 198.5 201.5t254.5 66.5q180 0 294.5 -109.5t114.5 -322.5q0 -283 -160.5 -478t-410.5 -195q-291 0 -381 268l-101 -637h-83zM195 432q0 -186 98 -282.5t252 -96.5q219 0 355 177.5t136 406.5q0 186 -96 280.5t-248 94.5 q-217 0 -357 -172t-140 -408z" glyph-name="afii10082" horiz-adv-x="1181" unicode="р"/><glyph d="M492 -20q-193 0 -308.5 114.5t-115.5 337.5q0 270 161.5 461.5t425.5 191.5q166 0 274.5 -85t110.5 -269h-79q-4 147 -91.5 213t-218.5 66q-225 0 -364.5 -168t-139.5 -406q0 -193 96.5 -287t256.5 -94q84 0 155.5 23.5t139 90.5t100.5 171h80q-55 -190 -188 -275 t-295 -85z" glyph-name="afii10083" horiz-adv-x="1069" unicode="с"/><glyph d="M328 0l155 993h-348l10 72h785l-10 -72h-353l-155 -993h-84z" glyph-name="afii10084" horiz-adv-x="907" unicode="т"/><glyph d="M33 -309q190 -31 311 192q49 94 37 144l-244 1038h86l226 -985l534 985h90l-659 -1200q-158 -289 -394 -252z" glyph-name="afii10085" horiz-adv-x="1042" unicode="у"/><glyph d="M406 -389l59 373q-178 10 -288.5 121.5t-110.5 310.5q0 270 157.5 459.5t415.5 203.5l55 355h76l-57 -357q178 -10 288.5 -122.5t110.5 -311.5q0 -270 -157.5 -457.5t-413.5 -201.5l-60 -373h-75zM143 420q0 -174 91.5 -264t240.5 -101l152 951q-223 -14 -353.5 -180 t-130.5 -406zM551 55q221 14 352 179t131 409q0 170 -91 261t-241 102z" glyph-name="afii10086" horiz-adv-x="1177" unicode="ф"/><glyph d="M-10 0l471 539l-299 526h96l254 -461l401 461h103l-467 -526l303 -539h-96l-258 475l-408 -475h-100z" glyph-name="afii10087" horiz-adv-x="1009" unicode="х"/><glyph d="M41 0l168 1065h84l-158 -993h639l158 993h84l-156 -993h55l-53 -359h-82l45 287h-784z" glyph-name="afii10088" horiz-adv-x="1114" unicode="ц"/><glyph d="M850 518q-43 -80 -160 -158.5t-280 -78.5q-166 0 -256.5 96t-57.5 303l62 385h84l-62 -379q-27 -176 45 -253t207 -77q176 0 301 108.5t144 223.5l59 377h84l-168 -1065h-84z" glyph-name="afii10089" horiz-adv-x="1060" unicode="ч"/><glyph d="M41 0l168 1065h84l-158 -993h502l160 993h80l-158 -993h504l157 993h84l-168 -1065h-1255z" glyph-name="afii10090" horiz-adv-x="1505" unicode="ш"/><glyph d="M1229 -287l45 287h-1233l168 1065h84l-158 -993h502l160 993h80l-158 -993h504l157 993h84l-155 -993h57l-55 -359h-82z" glyph-name="afii10091" horiz-adv-x="1562" unicode="щ"/><glyph d="M127 993l10 72h269l-66 -406h350q350 0 350 -284q0 -176 -122.5 -275.5t-331.5 -99.5h-432l155 993h-182zM248 72h340q176 0 273 76.5t97 220.5q0 113 -67.5 166t-220.5 53h-342z" glyph-name="afii10092" horiz-adv-x="1144" unicode="ъ"/><glyph d="M41 0l168 1065h84l-66 -406h351q350 0 350 -284q0 -176 -123 -275.5t-332 -99.5h-432zM135 72h340q176 0 273.5 76.5t97.5 220.5q0 113 -67.5 166t-221.5 53h-342zM987 0l168 1065h84l-168 -1065h-84z" glyph-name="afii10093" horiz-adv-x="1280" unicode="ы"/><glyph d="M41 0l168 1065h84l-66 -406h351q350 0 350 -284q0 -176 -123 -275.5t-332 -99.5h-432zM135 72h340q176 0 273.5 76.5t97.5 220.5q0 113 -67.5 166t-221.5 53h-342z" glyph-name="afii10094" horiz-adv-x="1032" unicode="ь"/><glyph d="M508 520l10 64h414q2 14 2 45q0 193 -96.5 287t-255.5 94q-84 0 -156 -23.5t-139.5 -90.5t-100.5 -171h-80q55 190 188.5 275t295.5 85q193 0 308.5 -114.5t115.5 -337.5q0 -270 -162 -461.5t-426 -191.5q-166 0 -274.5 85t-110.5 269h80q4 -147 91 -213t218 -66 q199 0 331 132t165 333h-418z" glyph-name="afii10095" horiz-adv-x="1081" unicode="э"/><glyph d="M14 0l168 1065h84l-78 -498h164q41 221 195.5 369.5t376.5 148.5q188 0 308 -113.5t120 -332.5q0 -266 -165 -462.5t-423 -196.5q-186 0 -306 113.5t-120 332.5q0 12 1 34.5t1 33.5h-164l-78 -494h-84zM422 432q0 -193 98 -286t252 -93q217 0 355.5 174t138.5 408 q0 190 -98.5 283.5t-252.5 93.5q-217 0 -355 -174.5t-138 -405.5z" glyph-name="afii10096" horiz-adv-x="1415" unicode="ю"/><glyph d="M750 0l65 406h-348h-31l-342 -406h-96l354 416q-238 45 -237 278q0 172 123.5 271.5t332.5 99.5h430l-167 -1065h-84zM195 700q0 -223 290 -223h342l80 516h-340q-174 0 -273 -78t-99 -215z" glyph-name="afii10097" horiz-adv-x="1042" unicode="я"/><glyph d="M483 -20q-199 0 -308 110.5t-109 329.5q0 174 65.5 323.5t197.5 245.5t308 96q180 0 283.5 -100t103.5 -280q0 -121 -27 -197h-845q-4 -57 -5 -88q0 -367 342 -367q268 0 379 219h82q-139 -292 -467 -292zM162 575h768q45 213 -42 325t-261 112q-186 0 -307 -123.5 t-158 -313.5zM453 1394.5q0 26.5 19.5 47t48 20.5t48 -20.5t19.5 -47t-19.5 -47t-48 -20.5t-48 20.5t-19.5 47zM776 1394.5q0 26.5 19.5 47t48 20.5t48 -20.5t19.5 -47t-19.5 -47t-48 -20.5t-48 20.5t-19.5 47z" glyph-name="afii10071" horiz-adv-x="1079" unicode="ё"/><glyph d="M41 0l168 1065h635l-10 -72h-551l-158 -993h-84zM430 1192l242 260h84l-242 -260h-84z" glyph-name="afii10100" horiz-adv-x="811" unicode="ѓ"/><glyph d="M492 -20q-193 0 -308.5 114.5t-115.5 337.5q0 270 161.5 461.5t425.5 191.5q166 0 274.5 -85t110.5 -269h-79q-4 147 -91.5 213t-218.5 66q-188 0 -317 -120t-170 -306h411l-8 -64h-415q-4 -53 -5 -84q0 -193 96.5 -287t256.5 -94q84 0 155.5 23.5t139 90.5t100.5 171h80 q-55 -190 -188 -275t-295 -85z" glyph-name="afii10101" horiz-adv-x="1069" unicode="є"/><glyph d="M14 0l168 1065h84l-168 -1065h-84zM49 1394.5q0 26.5 20.5 47t47 20.5t47 -20.5t20.5 -47t-20.5 -47t-47 -20.5t-47 20.5t-20.5 47zM373 1394.5q0 26.5 20.5 47t47 20.5t47 -20.5t20.5 -47t-20.5 -47t-47 -20.5t-47 20.5t-20.5 47z" glyph-name="afii10104" horiz-adv-x="282" unicode="ї"/><glyph d="M41 0l168 1065h84l-103 -651l736 651h106l-534 -469l436 -596h-98l-398 543l-264 -234l-49 -309h-84zM545 1192l241 260h84l-241 -260h-84z" glyph-name="afii10109" horiz-adv-x="1050" unicode="ќ"/><glyph d="M33 -309q190 -31 311 192q49 94 37 144l-244 1038h86l226 -985l534 985h90l-659 -1200q-158 -289 -394 -252zM326 1452h63q-18 -172 170 -172q190 0 219 172h64q-14 -96 -84 -163.5t-205 -67.5q-137 0 -190 67.5t-37 163.5z" glyph-name="afii10110" horiz-adv-x="1042" unicode="ў"/><glyph d="M983 1434l33 204h88l-33 -204l-14 -80h-715l-215 -1354h-86l227 1434h715z" glyph-name="afii10050" horiz-adv-x="989" unicode="Ґ"/><glyph d="M766 1065l22 135h78l-22 -135l-10 -72h-551l-158 -993h-84l168 1065h557z" glyph-name="afii10098" horiz-adv-x="811" unicode="ґ"/><glyph d="M41 0l227 1434h414q291 0 433 -143.5t142 -438.5q0 -375 -210.5 -613.5t-587.5 -238.5h-418zM139 80h324q340 0 524 218t184 556q0 262 -120.5 381t-374.5 119h-334zM440 -393q0 31 22.5 54.5t55.5 23.5t55.5 -23.5t22.5 -54.5q0 -33 -22.5 -55.5t-55.5 -22.5t-55.5 22.5 t-22.5 55.5z" glyph-name="uni1E0C" horiz-adv-x="1312" unicode="Ḍ"/><glyph d="M473 -20q-180 0 -293.5 110.5t-113.5 325.5q0 279 158.5 474t408.5 195q139 0 240.5 -66.5t144.5 -201.5h2l98 617h84l-227 -1434h-84l37 248q-76 -135 -198 -201.5t-257 -66.5zM145 430q0 -188 96.5 -282.5t252.5 -94.5q215 0 354 173t139 409q0 184 -99.5 280.5 t-252.5 96.5q-217 0 -353.5 -176.5t-136.5 -405.5zM389 -393q0 31 22.5 54.5t55.5 23.5t55.5 -23.5t22.5 -54.5q0 -33 -22.5 -55.5t-55.5 -22.5t-55.5 22.5t-22.5 55.5z" glyph-name="uni1E0D" horiz-adv-x="1181" unicode="ḍ"/><glyph d="M659 -20q-254 0 -398 149.5t-144 450.5q0 233 86 428.5t262 319.5t409 124q201 0 319 -88t142 -248h-82q-63 258 -379 258q-213 0 -369.5 -114.5t-231 -290.5t-74.5 -387q0 -264 123.5 -394.5t339.5 -130.5q238 0 386 146.5t191 427.5l-412 -2l13 73h491l-10 -73 q-47 -317 -219.5 -483t-442.5 -166zM645 1759l8 62h564l-9 -62h-563z" glyph-name="uni1E20" horiz-adv-x="1409" unicode="Ḡ"/><glyph d="M471 20q-178 0 -290.5 105.5t-112.5 310.5q0 270 157.5 459.5t409.5 189.5q135 0 236.5 -61t142.5 -186h2l35 227h84l-148 -938l-20 -123q-20 -121 -76.5 -208t-135.5 -134t-164 -68.5t-181 -21.5q-193 0 -307.5 81t-92.5 232h74q-12 -111 77 -177t257 -66q184 0 308 87 t157 275l20 123l23 141h-4q-80 -125 -199 -186.5t-252 -61.5zM150 453q0 -176 95 -267.5t242 -91.5q215 0 356.5 163t141.5 390q0 180 -98.5 272.5t-251.5 92.5q-215 0 -350 -164t-135 -395zM438 1391l8 61h564l-9 -61h-563z" glyph-name="uni1E21" horiz-adv-x="1175" unicode="ḡ"/><glyph d="M991 0l105 657h-863l-104 -657h-88l227 1434h88l-110 -703h862l111 703h88l-228 -1434h-88zM424 -393q0 31 22.5 54.5t55.5 23.5t55.5 -23.5t22.5 -54.5q0 -33 -22.5 -55.5t-55.5 -22.5t-55.5 22.5t-22.5 55.5z" glyph-name="uni1E24" horiz-adv-x="1288" unicode="Ḥ"/><glyph d="M41 0l227 1434h84l-90 -572q12 29 41 62.5t77 71.5t125 63.5t165 25.5q172 0 269 -103t60 -335l-102 -647h-84l100 635q29 178 -35.5 276.5t-230.5 98.5t-276.5 -94.5t-141.5 -253.5l-104 -662h-84zM350 -393q0 31 22.5 54.5t55.5 23.5t55.5 -23.5t22.5 -54.5 q0 -33 -22.5 -55.5t-55.5 -22.5t-55.5 22.5t-22.5 55.5z" glyph-name="uni1E25" unicode="ḥ"/><glyph d="M528 -20q-248 0 -366.5 115.5t-91.5 291.5h84q-14 -147 82 -237.5t303 -90.5q215 0 337.5 97.5t122.5 259.5q0 125 -71.5 182t-214.5 90l-170 37q-324 70 -324 330q0 182 140.5 289.5t369.5 107.5q219 0 333 -98.5t91 -247.5h-82q6 113 -81 189.5t-269 76.5 q-190 0 -301 -85t-111 -230q0 -104 66.5 -167t208.5 -93l170 -37q162 -35 250 -111t88 -227q0 -201 -156 -321.5t-408 -120.5zM389 -393q0 31 22.5 54.5t55.5 23.5t55.5 -23.5t22.5 -54.5q0 -33 -22.5 -55.5t-55.5 -22.5t-55.5 22.5t-22.5 55.5z" glyph-name="uni1E62" horiz-adv-x="1208" unicode="Ṣ"/><glyph d="M408 -20q-174 0 -286 74.5t-99 219.5h77q-4 -119 89.5 -171t224.5 -52q154 0 255 65.5t101 188.5q0 86 -50 124t-163 69l-184 47q-115 31 -174.5 87t-59.5 152q0 139 116 220t302 81q166 0 262 -70.5t88 -215.5h-71q-8 215 -283 215q-150 0 -240 -57.5t-90 -165.5 q0 -70 44 -112t151 -69l174 -45q133 -37 197.5 -90t64.5 -162q0 -160 -128 -246.5t-318 -86.5zM274 -393q0 31 22.5 54.5t55.5 23.5t55.5 -23.5t22.5 -54.5q0 -33 -22.5 -55.5t-55.5 -22.5t-55.5 22.5t-22.5 55.5z" glyph-name="uni1E63" horiz-adv-x="956" unicode="ṣ"/><glyph d="M453 0l213 1354h-473l14 80h1034l-12 -80h-475l-213 -1354h-88zM360 -393q0 31 23 54.5t55.5 23.5t55 -23.5t22.5 -54.5q0 -33 -22.5 -55.5t-55 -22.5t-55.5 22.5t-23 55.5z" glyph-name="uni1E6C" horiz-adv-x="1161" unicode="Ṭ"/><glyph d="M365 -14q-231 0 -197 221l123 786h-164l10 72h166l41 260h84l-41 -260h213l-10 -72h-213l-121 -764q-14 -98 18.5 -134t128.5 -36h60l-12 -67q-29 -6 -86 -6zM158 -393q0 31 22.5 54.5t55 23.5t55 -23.5t22.5 -54.5q0 -33 -22.5 -55.5t-55 -22.5t-55 22.5t-22.5 55.5z " glyph-name="uni1E6D" horiz-adv-x="600" unicode="ṭ"/><glyph d="M371 0l-164 1434h88l143 -1313h6l615 1313h100l199 -1313h6l559 1313h90l-614 -1434h-103l-204 1319l-621 -1319h-100zM920 1821h75l168 -260h-76z" glyph-name="Wgrave" horiz-adv-x="1933" unicode="Ẁ"/><glyph d="M285 0l-148 1065h84l127 -969h8l480 969h79l181 -969h8l430 969h86l-479 -1065h-105l-174 954l-473 -954h-104zM690 1452h76l168 -260h-76z" glyph-name="wgrave" horiz-adv-x="1589" unicode="ẁ"/><glyph d="M371 0l-164 1434h88l143 -1313h6l615 1313h100l199 -1313h6l559 1313h90l-614 -1434h-103l-204 1319l-621 -1319h-100zM1044 1561l242 260h84l-242 -260h-84z" glyph-name="Wacute" horiz-adv-x="1933" unicode="Ẃ"/><glyph d="M285 0l-148 1065h84l127 -969h8l480 969h79l181 -969h8l430 969h86l-479 -1065h-105l-174 954l-473 -954h-104zM813 1192l242 260h84l-242 -260h-84z" glyph-name="wacute" horiz-adv-x="1589" unicode="ẃ"/><glyph d="M371 0l-164 1434h88l143 -1313h6l615 1313h100l199 -1313h6l559 1313h90l-614 -1434h-103l-204 1319l-621 -1319h-100zM934 1763.5q0 26.5 20.5 47t47 20.5t47 -20.5t20.5 -47t-20.5 -47t-47 -20.5t-47 20.5t-20.5 47zM1257 1763.5q0 26.5 20.5 47t47.5 20.5t47.5 -20.5 t20.5 -47t-20.5 -47t-47.5 -20.5t-47.5 20.5t-20.5 47z" glyph-name="Wdieresis" horiz-adv-x="1933" unicode="Ẅ"/><glyph d="M285 0l-148 1065h84l127 -969h8l480 969h79l181 -969h8l430 969h86l-479 -1065h-105l-174 954l-473 -954h-104zM705 1394.5q0 26.5 20 47t47 20.5t47.5 -20.5t20.5 -47t-20.5 -47t-47.5 -20.5t-47 20.5t-20 47zM1028 1394.5q0 26.5 20.5 47t47 20.5t47 -20.5t20.5 -47 t-20.5 -47t-47 -20.5t-47 20.5t-20.5 47z" glyph-name="wdieresis" horiz-adv-x="1589" unicode="ẅ"/><glyph d="M-2 0l12 80l1161 1274h-915l14 80h1020l-16 -80l-1159 -1274h966l-10 -80h-1073zM406 -393q0 31 22.5 54.5t55 23.5t55 -23.5t22.5 -54.5q0 -33 -22.5 -55.5t-55 -22.5t-55 22.5t-22.5 55.5z" glyph-name="uni1E92" horiz-adv-x="1236" unicode="Ẓ"/><glyph d="M-2 0l12 76l881 913h-717l12 76h820l-11 -76l-882 -913h737l-12 -76h-840zM285 -393q0 31 22.5 54.5t55 23.5t55 -23.5t22.5 -54.5q0 -33 -22.5 -55.5t-55 -22.5t-55 22.5t-22.5 55.5z" glyph-name="uni1E93" horiz-adv-x="1003" unicode="ẓ"/><glyph d="M698 -20q-182 0 -277 105t-69 288h84q-20 -133 50.5 -223.5t220.5 -90.5q172 0 284.5 120t112.5 288q0 156 -106.5 243t-295.5 87h-59l463 575h-555q-119 0 -171 -51t-71 -166l-182 -1155h-86l180 1151q27 170 107 235.5t237 65.5h699l-476 -588q188 -10 297 -111.5 t109 -279.5q0 -207 -139.5 -350t-356.5 -143z" glyph-name="uni1E9E" horiz-adv-x="1304" unicode="ẞ"/><glyph d="M-31 0l793 1434h96l338 -1434h-90l-94 412h-723l-226 -412h-94zM330 485h665l-194 844h-8zM451 -393q0 31 22.5 54.5t55 23.5t55 -23.5t22.5 -54.5q0 -33 -22.5 -55.5t-55 -22.5t-55 22.5t-22.5 55.5z" glyph-name="uni1EA0" horiz-adv-x="1333" unicode="Ạ"/><glyph d="M328 -20q-141 0 -221 63t-80 182q0 137 101 221t278 105l286 33q100 10 138 31.5t47 68.5l10 51q25 150 -43 215.5t-234 65.5q-313 0 -350 -232l-4 -24h-80l2 28q37 297 447 297q205 0 289.5 -83.5t54.5 -270.5l-117 -731h-80l31 205h-6q-43 -74 -171 -149.5t-298 -75.5z M111 231q0 -180 233 -180q193 0 332 107.5t151 197.5l33 222q-10 -43 -184 -64l-256 -31q-145 -16 -227 -79.5t-82 -172.5zM315 -393q0 31 22.5 54.5t55.5 23.5t55.5 -23.5t22.5 -54.5q0 -33 -22.5 -55.5t-55.5 -22.5t-55.5 22.5t-22.5 55.5z" glyph-name="uni1EA1" horiz-adv-x="1060" unicode="ạ"/><glyph d="M-31 0l793 1434h96l338 -1434h-90l-94 412h-723l-226 -412h-94zM330 485h665l-194 844h-8zM657 1735q0 78 53.5 122t125.5 44q76 0 130 -50.5t54 -134.5t-52.5 -134t-121.5 -54l-33 49q68 2 106.5 37t38.5 98q0 61 -33.5 96t-88.5 35q-51 0 -85 -28.5t-36 -79.5h-58z" glyph-name="uni1EA2" horiz-adv-x="1333" unicode="Ả"/><glyph d="M328 -20q-141 0 -221 63t-80 182q0 137 101 221t278 105l286 33q100 10 138 31.5t47 68.5l10 51q25 150 -43 215.5t-234 65.5q-313 0 -350 -232l-4 -24h-80l2 28q37 297 447 297q205 0 289.5 -83.5t54.5 -270.5l-117 -731h-80l31 205h-6q-43 -74 -171 -149.5t-298 -75.5z M111 231q0 -180 233 -180q193 0 332 107.5t151 197.5l33 222q-10 -43 -184 -64l-256 -31q-145 -16 -227 -79.5t-82 -172.5zM461 1366q0 78 53 122t125 44q76 0 130 -50t54 -134t-52 -134.5t-122 -54.5l-33 49q68 2 107 37t39 98q0 61 -34 96.5t-89 35.5q-51 0 -85 -29 t-36 -80h-57z" glyph-name="uni1EA3" horiz-adv-x="1060" unicode="ả"/><glyph d="M-31 0l793 1434h96l338 -1434h-90l-94 412h-723l-226 -412h-94zM330 485h665l-194 844h-8zM563 1569l254 252h111l174 -252h-82l-150 219l-217 -219h-90zM1026 1761l242 260h84l-242 -260h-84z" glyph-name="uni1EA4" horiz-adv-x="1333" unicode="Ấ"/><glyph d="M328 -20q-141 0 -221 63t-80 182q0 137 101 221t278 105l286 33q100 10 138 31.5t47 68.5l10 51q25 150 -43 215.5t-234 65.5q-313 0 -350 -232l-4 -24h-80l2 28q37 297 447 297q205 0 289.5 -83.5t54.5 -270.5l-117 -731h-80l31 205h-6q-43 -74 -171 -149.5t-298 -75.5z M111 231q0 -180 233 -180q193 0 332 107.5t151 197.5l33 222q-10 -43 -184 -64l-256 -31q-145 -16 -227 -79.5t-82 -172.5zM367 1200l254 252h110l174 -252h-82l-149 219l-217 -219h-90zM829 1393l242 260h84l-242 -260h-84z" glyph-name="uni1EA5" horiz-adv-x="1060" unicode="ấ"/><glyph d="M-31 0l793 1434h96l338 -1434h-90l-94 412h-723l-226 -412h-94zM330 485h665l-194 844h-8zM563 1569l254 252h111l174 -252h-82l-150 219l-217 -219h-90zM909 2019h80l158 -260h-80z" glyph-name="uni1EA6" horiz-adv-x="1333" unicode="Ầ"/><glyph d="M328 -20q-141 0 -221 63t-80 182q0 137 101 221t278 105l286 33q100 10 138 31.5t47 68.5l10 51q25 150 -43 215.5t-234 65.5q-313 0 -350 -232l-4 -24h-80l2 28q37 297 447 297q205 0 289.5 -83.5t54.5 -270.5l-117 -731h-80l31 205h-6q-43 -74 -171 -149.5t-298 -75.5z M111 231q0 -180 233 -180q193 0 332 107.5t151 197.5l33 222q-10 -43 -184 -64l-256 -31q-145 -16 -227 -79.5t-82 -172.5zM367 1200l254 252h110l174 -252h-82l-149 219l-217 -219h-90zM713 1651h80l157 -260h-80z" glyph-name="uni1EA7" horiz-adv-x="1060" unicode="ầ"/><glyph d="M-31 0l793 1434h96l338 -1434h-90l-94 412h-723l-226 -412h-94zM330 485h665l-194 844h-8zM563 1569l254 252h111l174 -252h-82l-150 219l-217 -219h-90zM885 2019q0 78 53 122t125 44q76 0 130 -50t54 -134t-52 -134t-122 -55l-33 50q68 2 107 36.5t39 98.5q0 61 -34 96 t-89 35q-51 0 -85 -28.5t-36 -80.5h-57z" glyph-name="uni1EA8" horiz-adv-x="1333" unicode="Ẩ"/><glyph d="M328 -20q-141 0 -221 63t-80 182q0 137 101 221t278 105l286 33q100 10 138 31.5t47 68.5l10 51q25 150 -43 215.5t-234 65.5q-313 0 -350 -232l-4 -24h-80l2 28q37 297 447 297q205 0 289.5 -83.5t54.5 -270.5l-117 -731h-80l31 205h-6q-43 -74 -171 -149.5t-298 -75.5z M111 231q0 -180 233 -180q193 0 332 107.5t151 197.5l33 222q-10 -43 -184 -64l-256 -31q-145 -16 -227 -79.5t-82 -172.5zM367 1200l254 252h110l174 -252h-82l-149 219l-217 -219h-90zM688 1651q0 78 53.5 122t124.5 44q76 0 130.5 -50.5t54.5 -134.5t-52.5 -134 t-121.5 -54l-33 49q68 2 106.5 37t38.5 98q0 61 -33.5 96t-89.5 35q-51 0 -84.5 -28.5t-36.5 -79.5h-57z" glyph-name="uni1EA9" horiz-adv-x="1060" unicode="ẩ"/><glyph d="M-31 0l793 1434h96l338 -1434h-90l-94 412h-723l-226 -412h-94zM330 485h665l-194 844h-8zM563 1569l254 252h111l174 -252h-82l-150 219l-217 -219h-90zM596 1985q12 86 60.5 129t115.5 43q47 0 86 -24t60.5 -53.5t55.5 -53t73 -23.5q53 0 79.5 35t30.5 73h64 q-12 -86 -60.5 -129t-113.5 -43q-49 0 -88 24t-59.5 53.5t-54.5 53t-73 23.5q-53 0 -79.5 -35t-30.5 -73h-66z" glyph-name="uni1EAA" horiz-adv-x="1333" unicode="Ẫ"/><glyph d="M328 -20q-141 0 -221 63t-80 182q0 137 101 221t278 105l286 33q100 10 138 31.5t47 68.5l10 51q25 150 -43 215.5t-234 65.5q-313 0 -350 -232l-4 -24h-80l2 28q37 297 447 297q205 0 289.5 -83.5t54.5 -270.5l-117 -731h-80l31 205h-6q-43 -74 -171 -149.5t-298 -75.5z M111 231q0 -180 233 -180q193 0 332 107.5t151 197.5l33 222q-10 -43 -184 -64l-256 -31q-145 -16 -227 -79.5t-82 -172.5zM367 1200l254 252h110l174 -252h-82l-149 219l-217 -219h-90zM399 1616q12 86 60.5 129t115.5 43q47 0 86 -23.5t60.5 -53.5t55.5 -53.5t73 -23.5 q53 0 79.5 35t31.5 74h63q-12 -86 -60.5 -129t-113.5 -43q-49 0 -88 23.5t-59.5 53t-54.5 53t-73 23.5q-53 0 -79.5 -34.5t-30.5 -73.5h-66z" glyph-name="uni1EAB" horiz-adv-x="1060" unicode="ẫ"/><glyph d="M-31 0l793 1434h96l338 -1434h-90l-94 412h-723l-226 -412h-94zM330 485h665l-194 844h-8zM451 -393q0 31 22.5 54.5t55 23.5t55 -23.5t22.5 -54.5q0 -33 -22.5 -55.5t-55 -22.5t-55 22.5t-22.5 55.5zM563 1569l254 252h111l174 -252h-82l-150 219l-217 -219h-90z" glyph-name="uni1EAC" horiz-adv-x="1333" unicode="Ậ"/><glyph d="M328 -20q-141 0 -221 63t-80 182q0 137 101 221t278 105l286 33q100 10 138 31.5t47 68.5l10 51q25 150 -43 215.5t-234 65.5q-313 0 -350 -232l-4 -24h-80l2 28q37 297 447 297q205 0 289.5 -83.5t54.5 -270.5l-117 -731h-80l31 205h-6q-43 -74 -171 -149.5t-298 -75.5z M111 231q0 -180 233 -180q193 0 332 107.5t151 197.5l33 222q-10 -43 -184 -64l-256 -31q-145 -16 -227 -79.5t-82 -172.5zM315 -393q0 31 22.5 54.5t55.5 23.5t55.5 -23.5t22.5 -54.5q0 -33 -22.5 -55.5t-55.5 -22.5t-55.5 22.5t-22.5 55.5zM367 1200l254 252h110l174 -252 h-82l-149 219l-217 -219h-90z" glyph-name="uni1EAD" horiz-adv-x="1060" unicode="ậ"/><glyph d="M-31 0l793 1434h96l338 -1434h-90l-94 412h-723l-226 -412h-94zM330 485h665l-194 844h-8zM614 1821h64q-18 -172 170 -172q190 0 219 172h63q-14 -96 -83.5 -164t-204.5 -68q-137 0 -190.5 68t-37.5 164zM827 1886l242 260h84l-242 -260h-84z" glyph-name="uni1EAE" horiz-adv-x="1333" unicode="Ắ"/><glyph d="M328 -20q-141 0 -221 63t-80 182q0 137 101 221t278 105l286 33q100 10 138 31.5t47 68.5l10 51q25 150 -43 215.5t-234 65.5q-313 0 -350 -232l-4 -24h-80l2 28q37 297 447 297q205 0 289.5 -83.5t54.5 -270.5l-117 -731h-80l31 205h-6q-43 -74 -171 -149.5t-298 -75.5z M111 231q0 -180 233 -180q193 0 332 107.5t151 197.5l33 222q-10 -43 -184 -64l-256 -31q-145 -16 -227 -79.5t-82 -172.5zM418 1452h63q-18 -172 170 -172q190 0 219 172h64q-14 -96 -84 -163.5t-205 -67.5q-137 0 -190 67.5t-37 163.5zM631 1518l241 260h84l-241 -260h-84 z" glyph-name="uni1EAF" horiz-adv-x="1060" unicode="ắ"/><glyph d="M-31 0l793 1434h96l338 -1434h-90l-94 412h-723l-226 -412h-94zM330 485h665l-194 844h-8zM614 1821h64q-18 -172 170 -172q190 0 219 172h63q-14 -96 -83.5 -164t-204.5 -68q-137 0 -190.5 68t-37.5 164zM672 2146h76l167 -260h-75z" glyph-name="uni1EB0" horiz-adv-x="1333" unicode="Ằ"/><glyph d="M328 -20q-141 0 -221 63t-80 182q0 137 101 221t278 105l286 33q100 10 138 31.5t47 68.5l10 51q25 150 -43 215.5t-234 65.5q-313 0 -350 -232l-4 -24h-80l2 28q37 297 447 297q205 0 289.5 -83.5t54.5 -270.5l-117 -731h-80l31 205h-6q-43 -74 -171 -149.5t-298 -75.5z M111 231q0 -180 233 -180q193 0 332 107.5t151 197.5l33 222q-10 -43 -184 -64l-256 -31q-145 -16 -227 -79.5t-82 -172.5zM418 1452h63q-18 -172 170 -172q190 0 219 172h64q-14 -96 -84 -163.5t-205 -67.5q-137 0 -190 67.5t-37 163.5zM475 1778h76l168 -260h-76z" glyph-name="uni1EB1" horiz-adv-x="1060" unicode="ằ"/><glyph d="M-31 0l793 1434h96l338 -1434h-90l-94 412h-723l-226 -412h-94zM330 485h665l-194 844h-8zM614 1821h64q-18 -172 170 -172q190 0 219 172h63q-14 -96 -83.5 -164t-204.5 -68q-137 0 -190.5 68t-37.5 164zM662 2009q0 78 53 122t125 44q76 0 130 -50t54 -134t-52 -134.5 t-122 -54.5l-33 49q68 2 107 37t39 99q0 61 -34 96t-89 35q-51 0 -85 -29t-36 -80h-57z" glyph-name="uni1EB2" horiz-adv-x="1333" unicode="Ẳ"/><glyph d="M328 -20q-141 0 -221 63t-80 182q0 137 101 221t278 105l286 33q100 10 138 31.5t47 68.5l10 51q25 150 -43 215.5t-234 65.5q-313 0 -350 -232l-4 -24h-80l2 28q37 297 447 297q205 0 289.5 -83.5t54.5 -270.5l-117 -731h-80l31 205h-6q-43 -74 -171 -149.5t-298 -75.5z M111 231q0 -180 233 -180q193 0 332 107.5t151 197.5l33 222q-10 -43 -184 -64l-256 -31q-145 -16 -227 -79.5t-82 -172.5zM418 1452h63q-18 -172 170 -172q190 0 219 172h64q-14 -96 -84 -163.5t-205 -67.5q-137 0 -190 67.5t-37 163.5zM465 1640q0 78 53 122t125 44 q76 0 130 -50t54 -134t-52 -134t-122 -54l-32 49q68 2 106.5 36.5t38.5 98.5q0 61 -34 96t-89 35q-51 0 -85 -28.5t-36 -80.5h-57z" glyph-name="uni1EB3" horiz-adv-x="1060" unicode="ẳ"/><glyph d="M-31 0l793 1434h96l338 -1434h-90l-94 412h-723l-226 -412h-94zM330 485h665l-194 844h-8zM592 1995q12 86 60 129t116 43q47 0 86 -23.5t60.5 -53.5t55.5 -53.5t72 -23.5q53 0 80 35t31 74h64q-12 -86 -60.5 -129t-114.5 -43q-49 0 -88 23.5t-59.5 53t-54 53t-72.5 23.5 q-53 0 -79.5 -34.5t-31.5 -73.5h-65zM614 1821h64q-18 -172 170 -172q190 0 219 172h63q-14 -96 -83.5 -164t-204.5 -68q-137 0 -190.5 68t-37.5 164z" glyph-name="uni1EB4" horiz-adv-x="1333" unicode="Ẵ"/><glyph d="M328 -20q-141 0 -221 63t-80 182q0 137 101 221t278 105l286 33q100 10 138 31.5t47 68.5l10 51q25 150 -43 215.5t-234 65.5q-313 0 -350 -232l-4 -24h-80l2 28q37 297 447 297q205 0 289.5 -83.5t54.5 -270.5l-117 -731h-80l31 205h-6q-43 -74 -171 -149.5t-298 -75.5z M111 231q0 -180 233 -180q193 0 332 107.5t151 197.5l33 222q-10 -43 -184 -64l-256 -31q-145 -16 -227 -79.5t-82 -172.5zM395 1626q12 86 60.5 129t115.5 43q47 0 86 -23.5t60.5 -53t55.5 -53t73 -23.5q53 0 79.5 34.5t30.5 73.5h64q-12 -86 -60.5 -129t-113.5 -43 q-49 0 -88 23.5t-59.5 53.5t-54.5 53.5t-73 23.5q-53 0 -79.5 -35t-30.5 -74h-66zM418 1452h63q-18 -172 170 -172q190 0 219 172h64q-14 -96 -84 -163.5t-205 -67.5q-137 0 -190 67.5t-37 163.5z" glyph-name="uni1EB5" horiz-adv-x="1060" unicode="ẵ"/><glyph d="M-31 0l793 1434h96l338 -1434h-90l-94 412h-723l-226 -412h-94zM330 485h665l-194 844h-8zM451 -393q0 31 22.5 54.5t55 23.5t55 -23.5t22.5 -54.5q0 -33 -22.5 -55.5t-55 -22.5t-55 22.5t-22.5 55.5zM614 1821h64q-18 -172 170 -172q190 0 219 172h63 q-14 -96 -83.5 -164t-204.5 -68q-137 0 -190.5 68t-37.5 164z" glyph-name="uni1EB6" horiz-adv-x="1333" unicode="Ặ"/><glyph d="M328 -20q-141 0 -221 63t-80 182q0 137 101 221t278 105l286 33q100 10 138 31.5t47 68.5l10 51q25 150 -43 215.5t-234 65.5q-313 0 -350 -232l-4 -24h-80l2 28q37 297 447 297q205 0 289.5 -83.5t54.5 -270.5l-117 -731h-80l31 205h-6q-43 -74 -171 -149.5t-298 -75.5z M111 231q0 -180 233 -180q193 0 332 107.5t151 197.5l33 222q-10 -43 -184 -64l-256 -31q-145 -16 -227 -79.5t-82 -172.5zM315 -393q0 31 22.5 54.5t55.5 23.5t55.5 -23.5t22.5 -54.5q0 -33 -22.5 -55.5t-55.5 -22.5t-55.5 22.5t-22.5 55.5zM418 1452h63q-18 -172 170 -172 q190 0 219 172h64q-14 -96 -84 -163.5t-205 -67.5q-137 0 -190 67.5t-37 163.5z" glyph-name="uni1EB7" horiz-adv-x="1060" unicode="ặ"/><glyph d="M41 0l227 1434h871l-15 -80h-782l-90 -574h723l-12 -78h-723l-101 -622h805l-12 -80h-891zM332 -393q0 31 22.5 54.5t55 23.5t55 -23.5t22.5 -54.5q0 -33 -22.5 -55.5t-55 -22.5t-55 22.5t-22.5 55.5z" glyph-name="uni1EB8" horiz-adv-x="1089" unicode="Ẹ"/><glyph d="M483 -20q-199 0 -308 110.5t-109 329.5q0 174 65.5 323.5t197.5 245.5t308 96q180 0 283.5 -100t103.5 -280q0 -121 -27 -197h-845q-4 -57 -5 -88q0 -367 342 -367q268 0 379 219h82q-139 -292 -467 -292zM162 575h768q45 213 -42 325t-261 112q-186 0 -307 -123.5 t-158 -313.5zM319 -393q0 31 23 54.5t55.5 23.5t55 -23.5t22.5 -54.5q0 -33 -22.5 -55.5t-55 -22.5t-55.5 22.5t-23 55.5z" glyph-name="uni1EB9" horiz-adv-x="1079" unicode="ẹ"/><glyph d="M41 0l227 1434h871l-15 -80h-782l-90 -574h723l-12 -78h-723l-101 -622h805l-12 -80h-891zM539 1735q0 78 53 122t125 44q76 0 130 -50.5t54 -134.5t-52 -134t-122 -54l-33 49q68 2 107 37t39 98q0 61 -34 96t-89 35q-51 0 -85 -28.5t-36 -79.5h-57z" glyph-name="uni1EBA" horiz-adv-x="1089" unicode="Ẻ"/><glyph d="M483 -20q-199 0 -308 110.5t-109 329.5q0 174 65.5 323.5t197.5 245.5t308 96q180 0 283.5 -100t103.5 -280q0 -121 -27 -197h-845q-4 -57 -5 -88q0 -367 342 -367q268 0 379 219h82q-139 -292 -467 -292zM162 575h768q45 213 -42 325t-261 112q-186 0 -307 -123.5 t-158 -313.5zM475 1366q0 78 53.5 122t124.5 44q76 0 130.5 -50t54.5 -134t-52.5 -134.5t-121.5 -54.5l-33 49q68 2 106.5 37t38.5 98q0 61 -33.5 96.5t-89.5 35.5q-51 0 -84.5 -29t-36.5 -80h-57z" glyph-name="uni1EBB" horiz-adv-x="1079" unicode="ẻ"/><glyph d="M41 0l227 1434h871l-15 -80h-782l-90 -574h723l-12 -78h-723l-101 -622h805l-12 -80h-891zM422 1669q12 86 60 129t116 43q74 0 145.5 -76.5t128.5 -76.5q53 0 80 34.5t31 73.5h64q-12 -86 -60.5 -129t-114.5 -43q-49 0 -88 23.5t-59 53.5t-54 53.5t-73 23.5 q-53 0 -79.5 -35t-31.5 -74h-65z" glyph-name="uni1EBC" horiz-adv-x="1089" unicode="Ẽ"/><glyph d="M483 -20q-199 0 -308 110.5t-109 329.5q0 174 65.5 323.5t197.5 245.5t308 96q180 0 283.5 -100t103.5 -280q0 -121 -27 -197h-845q-4 -57 -5 -88q0 -367 342 -367q268 0 379 219h82q-139 -292 -467 -292zM162 575h768q45 213 -42 325t-261 112q-186 0 -307 -123.5 t-158 -313.5zM360 1300q12 86 60.5 129.5t116.5 43.5q74 0 145.5 -77t128.5 -77q53 0 80 35t31 73h63q-12 -86 -60 -129t-114 -43q-49 0 -88 24t-59.5 53.5t-54.5 53t-72 23.5q-53 0 -80 -35t-31 -74h-66z" glyph-name="uni1EBD" horiz-adv-x="1079" unicode="ẽ"/><glyph d="M41 0l227 1434h871l-15 -80h-782l-90 -574h723l-12 -78h-723l-101 -622h805l-12 -80h-891zM444 1569l254 252h111l174 -252h-82l-149 219l-217 -219h-91zM907 1761l242 260h84l-242 -260h-84z" glyph-name="uni1EBE" horiz-adv-x="1089" unicode="Ế"/><glyph d="M483 -20q-199 0 -308 110.5t-109 329.5q0 174 65.5 323.5t197.5 245.5t308 96q180 0 283.5 -100t103.5 -280q0 -121 -27 -197h-845q-4 -57 -5 -88q0 -367 342 -367q268 0 379 219h82q-139 -292 -467 -292zM162 575h768q45 213 -42 325t-261 112q-186 0 -307 -123.5 t-158 -313.5zM383 1200l254 252h111l174 -252h-82l-150 219l-217 -219h-90zM846 1393l241 260h84l-241 -260h-84z" glyph-name="uni1EBF" horiz-adv-x="1079" unicode="ế"/><glyph d="M41 0l227 1434h871l-15 -80h-782l-90 -574h723l-12 -78h-723l-101 -622h805l-12 -80h-891zM444 1569l254 252h111l174 -252h-82l-149 219l-217 -219h-91zM791 2019h79l158 -260h-80z" glyph-name="uni1EC0" horiz-adv-x="1089" unicode="Ề"/><glyph d="M483 -20q-199 0 -308 110.5t-109 329.5q0 174 65.5 323.5t197.5 245.5t308 96q180 0 283.5 -100t103.5 -280q0 -121 -27 -197h-845q-4 -57 -5 -88q0 -367 342 -367q268 0 379 219h82q-139 -292 -467 -292zM162 575h768q45 213 -42 325t-261 112q-186 0 -307 -123.5 t-158 -313.5zM383 1200l254 252h111l174 -252h-82l-150 219l-217 -219h-90zM729 1651h80l158 -260h-80z" glyph-name="uni1EC1" horiz-adv-x="1079" unicode="ề"/><glyph d="M41 0l227 1434h871l-15 -80h-782l-90 -574h723l-12 -78h-723l-101 -622h805l-12 -80h-891zM444 1569l254 252h111l174 -252h-82l-149 219l-217 -219h-91zM766 2019q0 78 53 122t125 44q76 0 130 -50t54 -134t-52 -134t-122 -55l-32 50q68 2 106.5 36.5t38.5 98.5 q0 61 -34 96t-89 35q-51 0 -85 -28.5t-36 -80.5h-57z" glyph-name="uni1EC2" horiz-adv-x="1089" unicode="Ể"/><glyph d="M483 -20q-199 0 -308 110.5t-109 329.5q0 174 65.5 323.5t197.5 245.5t308 96q180 0 283.5 -100t103.5 -280q0 -121 -27 -197h-845q-4 -57 -5 -88q0 -367 342 -367q268 0 379 219h82q-139 -292 -467 -292zM162 575h768q45 213 -42 325t-261 112q-186 0 -307 -123.5 t-158 -313.5zM383 1200l254 252h111l174 -252h-82l-150 219l-217 -219h-90zM705 1651q0 78 53 122t125 44q76 0 130 -50.5t54 -134.5t-52 -134t-122 -54l-33 49q68 2 107 37t39 98q0 61 -34 96t-89 35q-51 0 -85 -28.5t-36 -79.5h-57z" glyph-name="uni1EC3" horiz-adv-x="1079" unicode="ể"/><glyph d="M41 0l227 1434h871l-15 -80h-782l-90 -574h723l-12 -78h-723l-101 -622h805l-12 -80h-891zM444 1569l254 252h111l174 -252h-82l-149 219l-217 -219h-91zM477 1985q12 86 60.5 129t115.5 43q47 0 86 -24t60.5 -53.5t55.5 -53t73 -23.5q53 0 79.5 35t30.5 73h64 q-12 -86 -60.5 -129t-113.5 -43q-49 0 -88 24t-59.5 53.5t-54.5 53t-73 23.5q-53 0 -79.5 -35t-30.5 -73h-66z" glyph-name="uni1EC4" horiz-adv-x="1089" unicode="Ễ"/><glyph d="M483 -20q-199 0 -308 110.5t-109 329.5q0 174 65.5 323.5t197.5 245.5t308 96q180 0 283.5 -100t103.5 -280q0 -121 -27 -197h-845q-4 -57 -5 -88q0 -367 342 -367q268 0 379 219h82q-139 -292 -467 -292zM162 575h768q45 213 -42 325t-261 112q-186 0 -307 -123.5 t-158 -313.5zM383 1200l254 252h111l174 -252h-82l-150 219l-217 -219h-90zM416 1616q12 86 60 129t116 43q47 0 86 -23.5t60.5 -53.5t55 -53.5t72.5 -23.5q53 0 80 35t31 74h63q-12 -86 -60 -129t-114 -43q-49 0 -88 23.5t-59.5 53t-54 53t-72.5 23.5q-53 0 -80 -34.5 t-31 -73.5h-65z" glyph-name="uni1EC5" horiz-adv-x="1079" unicode="ễ"/><glyph d="M41 0l227 1434h871l-15 -80h-782l-90 -574h723l-12 -78h-723l-101 -622h805l-12 -80h-891zM332 -393q0 31 22.5 54.5t55 23.5t55 -23.5t22.5 -54.5q0 -33 -22.5 -55.5t-55 -22.5t-55 22.5t-22.5 55.5zM444 1569l254 252h111l174 -252h-82l-149 219l-217 -219h-91z" glyph-name="uni1EC6" horiz-adv-x="1089" unicode="Ệ"/><glyph d="M483 -20q-199 0 -308 110.5t-109 329.5q0 174 65.5 323.5t197.5 245.5t308 96q180 0 283.5 -100t103.5 -280q0 -121 -27 -197h-845q-4 -57 -5 -88q0 -367 342 -367q268 0 379 219h82q-139 -292 -467 -292zM162 575h768q45 213 -42 325t-261 112q-186 0 -307 -123.5 t-158 -313.5zM319 -393q0 31 23 54.5t55.5 23.5t55 -23.5t22.5 -54.5q0 -33 -22.5 -55.5t-55 -22.5t-55.5 22.5t-23 55.5zM383 1200l254 252h111l174 -252h-82l-150 219l-217 -219h-90z" glyph-name="uni1EC7" horiz-adv-x="1079" unicode="ệ"/><glyph d="M41 0l227 1434h88l-227 -1434h-88zM158 1735q0 78 53 122t125 44q76 0 130 -50.5t54 -134.5t-52 -134t-122 -54l-33 49q68 2 107 37t39 98q0 61 -34 96t-89 35q-51 0 -85 -28.5t-36 -79.5h-57z" glyph-name="uni1EC8" horiz-adv-x="335" unicode="Ỉ"/><glyph d="M14 0l168 1065h84l-168 -1065h-84zM72 1366q0 78 53 122t125 44q76 0 130 -50t54 -134t-52 -134.5t-122 -54.5l-33 49q68 2 107 37t39 98q0 61 -34 96.5t-89 35.5q-51 0 -85 -29t-36 -80h-57z" glyph-name="uni1EC9" horiz-adv-x="282" unicode="ỉ"/><glyph d="M41 0l227 1434h88l-227 -1434h-88zM-49 -393q0 31 22.5 54.5t55 23.5t55 -23.5t22.5 -54.5q0 -33 -22.5 -55.5t-55 -22.5t-55 22.5t-22.5 55.5z" glyph-name="uni1ECA" horiz-adv-x="335" unicode="Ị"/><glyph d="M41 0l168 1065h84l-168 -1065h-84zM-43 -393q0 31 22.5 54.5t55.5 23.5t55.5 -23.5t22.5 -54.5q0 -33 -22.5 -55.5t-55.5 -22.5t-55.5 22.5t-22.5 55.5zM238 1394.5q0 26.5 20.5 47t47 20.5t47 -20.5t20.5 -47t-20.5 -47t-47 -20.5t-47 20.5t-20.5 47z" glyph-name="uni1ECB" horiz-adv-x="335" unicode="ị"/><glyph d="M645 -20q-240 0 -385 147t-145 440q0 233 87 432t260 326t398 127q244 0 389.5 -147.5t145.5 -442.5q0 -172 -52.5 -329.5t-146.5 -281.5t-237.5 -197.5t-313.5 -73.5zM199 569q0 -256 122.5 -384t329.5 -128q203 0 356.5 119t228.5 298t75 386q0 258 -124 386t-329 128 q-203 0 -356.5 -118.5t-228 -299t-74.5 -387.5zM508 -393q0 31 22.5 54.5t55 23.5t55.5 -23.5t23 -54.5q0 -33 -23 -55.5t-55.5 -22.5t-55 22.5t-22.5 55.5z" glyph-name="uni1ECC" horiz-adv-x="1449" unicode="Ọ"/><glyph d="M492 -20q-186 0 -306 113.5t-120 332.5q0 266 164.5 462.5t420.5 196.5q188 0 308 -113.5t120 -332.5q0 -266 -164.5 -462.5t-422.5 -196.5zM150 432q0 -193 98 -286t252 -93q217 0 355 174t138 408q0 190 -98 283.5t-252 93.5q-217 0 -355 -174.5t-138 -405.5zM354 -393 q0 31 22.5 54.5t55.5 23.5t55.5 -23.5t22.5 -54.5q0 -33 -22.5 -55.5t-55.5 -22.5t-55.5 22.5t-22.5 55.5z" glyph-name="uni1ECD" horiz-adv-x="1144" unicode="ọ"/><glyph d="M645 -20q-240 0 -385 147t-145 440q0 233 87 432t260 326t398 127q244 0 389.5 -147.5t145.5 -442.5q0 -172 -52.5 -329.5t-146.5 -281.5t-237.5 -197.5t-313.5 -73.5zM199 569q0 -256 122.5 -384t329.5 -128q203 0 356.5 119t228.5 298t75 386q0 258 -124 386t-329 128 q-203 0 -356.5 -118.5t-228 -299t-74.5 -387.5zM713 1735q0 78 53 122t125 44q76 0 130 -50.5t54 -134.5t-52 -134t-122 -54l-33 49q68 2 107 37t39 98q0 61 -34 96t-89 35q-51 0 -85 -28.5t-36 -79.5h-57z" glyph-name="uni1ECE" horiz-adv-x="1449" unicode="Ỏ"/><glyph d="M492 -20q-186 0 -306 113.5t-120 332.5q0 266 164.5 462.5t420.5 196.5q188 0 308 -113.5t120 -332.5q0 -266 -164.5 -462.5t-422.5 -196.5zM150 432q0 -193 98 -286t252 -93q217 0 355 174t138 408q0 190 -98 283.5t-252 93.5q-217 0 -355 -174.5t-138 -405.5zM502 1366 q0 78 53 122t125 44q76 0 130 -50t54 -134t-52 -134.5t-122 -54.5l-33 49q68 2 107 37t39 98q0 61 -34 96.5t-89 35.5q-51 0 -85 -29t-36 -80h-57z" glyph-name="uni1ECF" horiz-adv-x="1144" unicode="ỏ"/><glyph d="M645 -20q-240 0 -385 147t-145 440q0 233 87 432t260 326t398 127q244 0 389.5 -147.5t145.5 -442.5q0 -172 -52.5 -329.5t-146.5 -281.5t-237.5 -197.5t-313.5 -73.5zM199 569q0 -256 122.5 -384t329.5 -128q203 0 356.5 119t228.5 298t75 386q0 258 -124 386t-329 128 q-203 0 -356.5 -118.5t-228 -299t-74.5 -387.5zM621 1569l253 252h111l174 -252h-82l-149 219l-217 -219h-90zM1083 1761l242 260h84l-242 -260h-84z" glyph-name="uni1ED0" horiz-adv-x="1449" unicode="Ố"/><glyph d="M492 -20q-186 0 -306 113.5t-120 332.5q0 266 164.5 462.5t420.5 196.5q188 0 308 -113.5t120 -332.5q0 -266 -164.5 -462.5t-422.5 -196.5zM150 432q0 -193 98 -286t252 -93q217 0 355 174t138 408q0 190 -98 283.5t-252 93.5q-217 0 -355 -174.5t-138 -405.5zM408 1200 l254 252h110l174 -252h-82l-149 219l-217 -219h-90zM870 1393l242 260h84l-242 -260h-84z" glyph-name="uni1ED1" horiz-adv-x="1144" unicode="ố"/><glyph d="M645 -20q-240 0 -385 147t-145 440q0 233 87 432t260 326t398 127q244 0 389.5 -147.5t145.5 -442.5q0 -172 -52.5 -329.5t-146.5 -281.5t-237.5 -197.5t-313.5 -73.5zM199 569q0 -256 122.5 -384t329.5 -128q203 0 356.5 119t228.5 298t75 386q0 258 -124 386t-329 128 q-203 0 -356.5 -118.5t-228 -299t-74.5 -387.5zM621 1569l253 252h111l174 -252h-82l-149 219l-217 -219h-90zM967 2019h80l157 -260h-80z" glyph-name="uni1ED2" horiz-adv-x="1449" unicode="Ồ"/><glyph d="M492 -20q-186 0 -306 113.5t-120 332.5q0 266 164.5 462.5t420.5 196.5q188 0 308 -113.5t120 -332.5q0 -266 -164.5 -462.5t-422.5 -196.5zM150 432q0 -193 98 -286t252 -93q217 0 355 174t138 408q0 190 -98 283.5t-252 93.5q-217 0 -355 -174.5t-138 -405.5zM408 1200 l254 252h110l174 -252h-82l-149 219l-217 -219h-90zM754 1651h80l157 -260h-80z" glyph-name="uni1ED3" horiz-adv-x="1144" unicode="ồ"/><glyph d="M645 -20q-240 0 -385 147t-145 440q0 233 87 432t260 326t398 127q244 0 389.5 -147.5t145.5 -442.5q0 -172 -52.5 -329.5t-146.5 -281.5t-237.5 -197.5t-313.5 -73.5zM199 569q0 -256 122.5 -384t329.5 -128q203 0 356.5 119t228.5 298t75 386q0 258 -124 386t-329 128 q-203 0 -356.5 -118.5t-228 -299t-74.5 -387.5zM621 1569l253 252h111l174 -252h-82l-149 219l-217 -219h-90zM942 2019q0 78 53.5 122t124.5 44q76 0 130.5 -50t54.5 -134t-52.5 -134t-122.5 -55l-32 50q68 2 106.5 36.5t38.5 98.5q0 61 -33.5 96t-89.5 35q-51 0 -85 -28.5 t-36 -80.5h-57z" glyph-name="uni1ED4" horiz-adv-x="1449" unicode="Ổ"/><glyph d="M492 -20q-186 0 -306 113.5t-120 332.5q0 266 164.5 462.5t420.5 196.5q188 0 308 -113.5t120 -332.5q0 -266 -164.5 -462.5t-422.5 -196.5zM150 432q0 -193 98 -286t252 -93q217 0 355 174t138 408q0 190 -98 283.5t-252 93.5q-217 0 -355 -174.5t-138 -405.5zM408 1200 l254 252h110l174 -252h-82l-149 219l-217 -219h-90zM729 1651q0 78 53.5 122t124.5 44q76 0 130.5 -50.5t54.5 -134.5t-52.5 -134t-121.5 -54l-33 49q68 2 106.5 37t38.5 98q0 61 -33.5 96t-89.5 35q-51 0 -85 -28.5t-36 -79.5h-57z" glyph-name="uni1ED5" horiz-adv-x="1144" unicode="ổ"/><glyph d="M645 -20q-240 0 -385 147t-145 440q0 233 87 432t260 326t398 127q244 0 389.5 -147.5t145.5 -442.5q0 -172 -52.5 -329.5t-146.5 -281.5t-237.5 -197.5t-313.5 -73.5zM199 569q0 -256 122.5 -384t329.5 -128q203 0 356.5 119t228.5 298t75 386q0 258 -124 386t-329 128 q-203 0 -356.5 -118.5t-228 -299t-74.5 -387.5zM621 1569l253 252h111l174 -252h-82l-149 219l-217 -219h-90zM653 1985q12 86 60.5 129t115.5 43q47 0 86 -24t60.5 -53.5t55.5 -53t73 -23.5q53 0 79.5 35t30.5 73h64q-12 -86 -60.5 -129t-113.5 -43q-49 0 -88 24 t-59.5 53.5t-54.5 53t-73 23.5q-53 0 -79.5 -35t-30.5 -73h-66z" glyph-name="uni1ED6" horiz-adv-x="1449" unicode="Ỗ"/><glyph d="M492 -20q-186 0 -306 113.5t-120 332.5q0 266 164.5 462.5t420.5 196.5q188 0 308 -113.5t120 -332.5q0 -266 -164.5 -462.5t-422.5 -196.5zM150 432q0 -193 98 -286t252 -93q217 0 355 174t138 408q0 190 -98 283.5t-252 93.5q-217 0 -355 -174.5t-138 -405.5zM408 1200 l254 252h110l174 -252h-82l-149 219l-217 -219h-90zM440 1616q12 86 60.5 129t115.5 43q47 0 86 -23.5t60.5 -53.5t55.5 -53.5t73 -23.5q53 0 79.5 35t30.5 74h64q-12 -86 -60.5 -129t-113.5 -43q-49 0 -88 23.5t-59.5 53t-54.5 53t-73 23.5q-53 0 -79.5 -34.5t-30.5 -73.5 h-66z" glyph-name="uni1ED7" horiz-adv-x="1144" unicode="ỗ"/><glyph d="M645 -20q-240 0 -385 147t-145 440q0 233 87 432t260 326t398 127q244 0 389.5 -147.5t145.5 -442.5q0 -172 -52.5 -329.5t-146.5 -281.5t-237.5 -197.5t-313.5 -73.5zM199 569q0 -256 122.5 -384t329.5 -128q203 0 356.5 119t228.5 298t75 386q0 258 -124 386t-329 128 q-203 0 -356.5 -118.5t-228 -299t-74.5 -387.5zM508 -393q0 31 22.5 54.5t55 23.5t55.5 -23.5t23 -54.5q0 -33 -23 -55.5t-55.5 -22.5t-55 22.5t-22.5 55.5zM621 1569l253 252h111l174 -252h-82l-149 219l-217 -219h-90z" glyph-name="uni1ED8" horiz-adv-x="1449" unicode="Ộ"/><glyph d="M492 -20q-186 0 -306 113.5t-120 332.5q0 266 164.5 462.5t420.5 196.5q188 0 308 -113.5t120 -332.5q0 -266 -164.5 -462.5t-422.5 -196.5zM150 432q0 -193 98 -286t252 -93q217 0 355 174t138 408q0 190 -98 283.5t-252 93.5q-217 0 -355 -174.5t-138 -405.5zM354 -393 q0 31 22.5 54.5t55.5 23.5t55.5 -23.5t22.5 -54.5q0 -33 -22.5 -55.5t-55.5 -22.5t-55.5 22.5t-22.5 55.5zM408 1200l254 252h110l174 -252h-82l-149 219l-217 -219h-90z" glyph-name="uni1ED9" horiz-adv-x="1144" unicode="ộ"/><glyph d="M645 -20q-240 0 -385 147t-145 440q0 233 87 432t260 326t398 127h529l26 162h78l-39 -236h-297q238 -143 238 -516q0 -172 -52.5 -329.5t-146.5 -281.5t-237.5 -197.5t-313.5 -73.5zM199 569q0 -256 122.5 -384t329.5 -128q203 0 356.5 119t228.5 298t75 386 q0 258 -124 386t-329 128q-203 0 -356.5 -118.5t-228 -299t-74.5 -387.5zM834 1561l241 260h84l-241 -260h-84z" glyph-name="uni1EDA" horiz-adv-x="1449" unicode="Ớ"/><glyph d="M492 -20q-186 0 -306 113.5t-120 332.5q0 266 164.5 462.5t420.5 196.5h348l25 160h74l-33 -227h-164q178 -115 178 -379q0 -266 -164.5 -462.5t-422.5 -196.5zM150 432q0 -193 98 -286t252 -93q217 0 355 174t138 408q0 190 -98 283.5t-252 93.5q-217 0 -355 -174.5 t-138 -405.5zM623 1192l241 260h84l-241 -260h-84z" glyph-name="uni1EDB" horiz-adv-x="1144" unicode="ớ"/><glyph d="M645 -20q-240 0 -385 147t-145 440q0 233 87 432t260 326t398 127h529l26 162h78l-39 -236h-297q238 -143 238 -516q0 -172 -52.5 -329.5t-146.5 -281.5t-237.5 -197.5t-313.5 -73.5zM199 569q0 -256 122.5 -384t329.5 -128q203 0 356.5 119t228.5 298t75 386 q0 258 -124 386t-329 128q-203 0 -356.5 -118.5t-228 -299t-74.5 -387.5zM678 1821h76l168 -260h-76z" glyph-name="uni1EDC" horiz-adv-x="1449" unicode="Ờ"/><glyph d="M492 -20q-186 0 -306 113.5t-120 332.5q0 266 164.5 462.5t420.5 196.5h348l25 160h74l-33 -227h-164q178 -115 178 -379q0 -266 -164.5 -462.5t-422.5 -196.5zM150 432q0 -193 98 -286t252 -93q217 0 355 174t138 408q0 190 -98 283.5t-252 93.5q-217 0 -355 -174.5 t-138 -405.5zM465 1452h76l168 -260h-76z" glyph-name="uni1EDD" horiz-adv-x="1144" unicode="ờ"/><glyph d="M645 -20q-240 0 -385 147t-145 440q0 233 87 432t260 326t398 127h529l26 162h78l-39 -236h-297q238 -143 238 -516q0 -172 -52.5 -329.5t-146.5 -281.5t-237.5 -197.5t-313.5 -73.5zM199 569q0 -256 122.5 -384t329.5 -128q203 0 356.5 119t228.5 298t75 386 q0 258 -124 386t-329 128q-203 0 -356.5 -118.5t-228 -299t-74.5 -387.5zM713 1735q0 78 53 122t125 44q76 0 130 -50.5t54 -134.5t-52 -134t-122 -54l-33 49q68 2 107 37t39 98q0 61 -34 96t-89 35q-51 0 -85 -28.5t-36 -79.5h-57z" glyph-name="uni1EDE" horiz-adv-x="1449" unicode="Ở"/><glyph d="M492 -20q-186 0 -306 113.5t-120 332.5q0 266 164.5 462.5t420.5 196.5h348l25 160h74l-33 -227h-164q178 -115 178 -379q0 -266 -164.5 -462.5t-422.5 -196.5zM150 432q0 -193 98 -286t252 -93q217 0 355 174t138 408q0 190 -98 283.5t-252 93.5q-217 0 -355 -174.5 t-138 -405.5zM502 1366q0 78 53 122t125 44q76 0 130 -50t54 -134t-52 -134.5t-122 -54.5l-33 49q68 2 107 37t39 98q0 61 -34 96.5t-89 35.5q-51 0 -85 -29t-36 -80h-57z" glyph-name="uni1EDF" horiz-adv-x="1144" unicode="ở"/><glyph d="M645 -20q-240 0 -385 147t-145 440q0 233 87 432t260 326t398 127h529l26 162h78l-39 -236h-297q238 -143 238 -516q0 -172 -52.5 -329.5t-146.5 -281.5t-237.5 -197.5t-313.5 -73.5zM199 569q0 -256 122.5 -384t329.5 -128q203 0 356.5 119t228.5 298t75 386 q0 258 -124 386t-329 128q-203 0 -356.5 -118.5t-228 -299t-74.5 -387.5zM598 1669q12 86 60.5 129t115.5 43q74 0 145.5 -76.5t129.5 -76.5q53 0 79.5 34.5t30.5 73.5h64q-12 -86 -60.5 -129t-113.5 -43q-49 0 -88 23.5t-59.5 53.5t-54.5 53.5t-73 23.5q-53 0 -79.5 -35 t-30.5 -74h-66z" glyph-name="uni1EE0" horiz-adv-x="1449" unicode="Ỡ"/><glyph d="M492 -20q-186 0 -306 113.5t-120 332.5q0 266 164.5 462.5t420.5 196.5h348l25 160h74l-33 -227h-164q178 -115 178 -379q0 -266 -164.5 -462.5t-422.5 -196.5zM150 432q0 -193 98 -286t252 -93q217 0 355 174t138 408q0 190 -98 283.5t-252 93.5q-217 0 -355 -174.5 t-138 -405.5zM385 1300q12 86 60.5 129.5t115.5 43.5q74 0 145.5 -77t129.5 -77q53 0 79.5 35t30.5 73h64q-12 -86 -60.5 -129t-113.5 -43q-49 0 -88 24t-59.5 53.5t-54.5 53t-73 23.5q-53 0 -79.5 -35t-30.5 -74h-66z" glyph-name="uni1EE1" horiz-adv-x="1144" unicode="ỡ"/><glyph d="M645 -20q-240 0 -385 147t-145 440q0 233 87 432t260 326t398 127h529l26 162h78l-39 -236h-297q238 -143 238 -516q0 -172 -52.5 -329.5t-146.5 -281.5t-237.5 -197.5t-313.5 -73.5zM199 569q0 -256 122.5 -384t329.5 -128q203 0 356.5 119t228.5 298t75 386 q0 258 -124 386t-329 128q-203 0 -356.5 -118.5t-228 -299t-74.5 -387.5zM506 -393q0 31 22.5 54.5t55 23.5t55.5 -23.5t23 -54.5q0 -33 -23 -55.5t-55.5 -22.5t-55 22.5t-22.5 55.5z" glyph-name="uni1EE2" horiz-adv-x="1449" unicode="Ợ"/><glyph d="M492 -20q-186 0 -306 113.5t-120 332.5q0 266 164.5 462.5t420.5 196.5h348l25 160h74l-33 -227h-164q178 -115 178 -379q0 -266 -164.5 -462.5t-422.5 -196.5zM150 432q0 -193 98 -286t252 -93q217 0 355 174t138 408q0 190 -98 283.5t-252 93.5q-217 0 -355 -174.5 t-138 -405.5zM354 -393q0 31 22.5 54.5t55.5 23.5t55.5 -23.5t22.5 -54.5q0 -33 -22.5 -55.5t-55.5 -22.5t-55.5 22.5t-22.5 55.5z" glyph-name="uni1EE3" horiz-adv-x="1144" unicode="ợ"/><glyph d="M571 -20q-248 0 -366.5 149.5t-77.5 411.5l141 893h86l-141 -891q-35 -229 64.5 -356.5t308.5 -127.5q207 0 339 126t169 358l141 891h88l-141 -893q-41 -264 -203 -412.5t-408 -148.5zM434 -393q0 31 22.5 54.5t55.5 23.5t55.5 -23.5t22.5 -54.5q0 -33 -22.5 -55.5 t-55.5 -22.5t-55.5 22.5t-22.5 55.5z" glyph-name="uni1EE4" horiz-adv-x="1302" unicode="Ụ"/><glyph d="M193 430q-29 -178 35.5 -276.5t230.5 -98.5q160 0 270.5 90.5t144.5 243.5l107 676h84l-168 -1065h-84l31 201q-23 -43 -64 -87t-135 -89t-209 -45q-172 0 -269 103t-61 335l103 647h84zM322 -393q0 31 22.5 54.5t55 23.5t55 -23.5t22.5 -54.5q0 -33 -22.5 -55.5 t-55 -22.5t-55 22.5t-22.5 55.5z" glyph-name="uni1EE5" unicode="ụ"/><glyph d="M571 -20q-248 0 -366.5 149.5t-77.5 411.5l141 893h86l-141 -891q-35 -229 64.5 -356.5t308.5 -127.5q207 0 339 126t169 358l141 891h88l-141 -893q-41 -264 -203 -412.5t-408 -148.5zM645 1735q0 78 53.5 122t124.5 44q76 0 130.5 -50.5t54.5 -134.5t-52.5 -134 t-121.5 -54l-33 49q68 2 106.5 37t38.5 98q0 61 -33.5 96t-89.5 35q-51 0 -84.5 -28.5t-36.5 -79.5h-57z" glyph-name="uni1EE6" horiz-adv-x="1302" unicode="Ủ"/><glyph d="M193 430q-29 -178 35.5 -276.5t230.5 -98.5q160 0 270.5 90.5t144.5 243.5l107 676h84l-168 -1065h-84l31 201q-23 -43 -64 -87t-135 -89t-209 -45q-172 0 -269 103t-61 335l103 647h84zM473 1366q0 78 53.5 122t124.5 44q76 0 130.5 -50t54.5 -134t-52.5 -134.5 t-121.5 -54.5l-33 49q68 2 106.5 37t38.5 98q0 61 -33.5 96.5t-89.5 35.5q-51 0 -85 -29t-36 -80h-57z" glyph-name="uni1EE7" unicode="ủ"/><glyph d="M571 -20q-248 0 -366.5 149.5t-77.5 411.5l141 893h86l-141 -891q-35 -229 64.5 -356.5t308.5 -127.5q207 0 339 126t169 358l141 891h186l27 180h78l-27 -180l-12 -78h-176l-129 -815q-41 -264 -203 -412.5t-408 -148.5zM760 1561l241 260h84l-241 -260h-84z" glyph-name="uni1EE8" horiz-adv-x="1302" unicode="Ứ"/><glyph d="M193 430q-29 -178 35.5 -276.5t230.5 -98.5q160 0 270.5 90.5t144.5 243.5l107 676h186l27 180h78l-27 -180l-12 -78h-180l-156 -987h-84l31 201q-23 -43 -64 -87t-135 -89t-209 -45q-172 0 -269 103t-61 335l103 647h84zM604 1192l242 260h84l-242 -260h-84z" glyph-name="uni1EE9" unicode="ứ"/><glyph d="M571 -20q-248 0 -366.5 149.5t-77.5 411.5l141 893h86l-141 -891q-35 -229 64.5 -356.5t308.5 -127.5q207 0 339 126t169 358l141 891h186l27 180h78l-27 -180l-12 -78h-176l-129 -815q-41 -264 -203 -412.5t-408 -148.5zM604 1821h76l168 -260h-76z" glyph-name="uni1EEA" horiz-adv-x="1302" unicode="Ừ"/><glyph d="M193 430q-29 -178 35.5 -276.5t230.5 -98.5q160 0 270.5 90.5t144.5 243.5l107 676h186l27 180h78l-27 -180l-12 -78h-180l-156 -987h-84l31 201q-23 -43 -64 -87t-135 -89t-209 -45q-172 0 -269 103t-61 335l103 647h84zM446 1452h76l168 -260h-76z" glyph-name="uni1EEB" unicode="ừ"/><glyph d="M571 -20q-248 0 -366.5 149.5t-77.5 411.5l141 893h86l-141 -891q-35 -229 64.5 -356.5t308.5 -127.5q207 0 339 126t169 358l141 891h186l27 180h78l-27 -180l-12 -78h-176l-129 -815q-41 -264 -203 -412.5t-408 -148.5zM641 1735q0 78 53.5 122t124.5 44 q76 0 130.5 -50.5t54.5 -134.5t-52.5 -134t-122.5 -54l-32 49q68 2 106.5 37t38.5 98q0 61 -34 96t-89 35q-51 0 -85 -28.5t-36 -79.5h-57z" glyph-name="uni1EEC" horiz-adv-x="1302" unicode="Ử"/><glyph d="M193 430q-29 -178 35.5 -276.5t230.5 -98.5q160 0 270.5 90.5t144.5 243.5l107 676h186l27 180h78l-27 -180l-12 -78h-180l-156 -987h-84l31 201q-23 -43 -64 -87t-135 -89t-209 -45q-172 0 -269 103t-61 335l103 647h84zM483 1366q0 78 53.5 122t125.5 44q76 0 130 -50 t54 -134t-52.5 -134.5t-121.5 -54.5l-33 49q68 2 106.5 37t38.5 98q0 61 -33.5 96.5t-88.5 35.5q-51 0 -85 -29t-36 -80h-58z" glyph-name="uni1EED" unicode="ử"/><glyph d="M571 -20q-248 0 -366.5 149.5t-77.5 411.5l141 893h86l-141 -891q-35 -229 64.5 -356.5t308.5 -127.5q207 0 339 126t169 358l141 891h186l27 180h78l-27 -180l-12 -78h-176l-129 -815q-41 -264 -203 -412.5t-408 -148.5zM524 1669q12 86 60.5 129t115.5 43 q74 0 146 -76.5t129 -76.5q53 0 79.5 34.5t30.5 73.5h64q-12 -86 -60.5 -129t-113.5 -43q-49 0 -88 23.5t-59.5 53.5t-54.5 53.5t-73 23.5q-53 0 -79.5 -35t-30.5 -74h-66z" glyph-name="uni1EEE" horiz-adv-x="1302" unicode="Ữ"/><glyph d="M193 430q-29 -178 35.5 -276.5t230.5 -98.5q160 0 270.5 90.5t144.5 243.5l107 676h186l27 180h78l-27 -180l-12 -78h-180l-156 -987h-84l31 201q-23 -43 -64 -87t-135 -89t-209 -45q-172 0 -269 103t-61 335l103 647h84zM369 1300q12 86 60 129.5t116 43.5 q74 0 145.5 -77t128.5 -77q53 0 80 35t31 73h63q-12 -86 -60 -129t-114 -43q-49 0 -88 24t-59.5 53.5t-54 53t-72.5 23.5q-53 0 -80 -35t-31 -74h-65z" glyph-name="uni1EEF" unicode="ữ"/><glyph d="M571 -20q-248 0 -366.5 149.5t-77.5 411.5l141 893h86l-141 -891q-35 -229 64.5 -356.5t308.5 -127.5q207 0 339 126t169 358l141 891h186l27 180h78l-27 -180l-12 -78h-176l-129 -815q-41 -264 -203 -412.5t-408 -148.5zM434 -393q0 31 22.5 54.5t55.5 23.5t55.5 -23.5 t22.5 -54.5q0 -33 -22.5 -55.5t-55.5 -22.5t-55.5 22.5t-22.5 55.5z" glyph-name="uni1EF0" horiz-adv-x="1302" unicode="Ự"/><glyph d="M193 430q-29 -178 35.5 -276.5t230.5 -98.5q160 0 270.5 90.5t144.5 243.5l107 676h186l27 180h78l-27 -180l-12 -78h-180l-156 -987h-84l31 201q-23 -43 -64 -87t-135 -89t-209 -45q-172 0 -269 103t-61 335l103 647h84zM336 -393q0 31 22.5 54.5t55 23.5t55.5 -23.5 t23 -54.5q0 -33 -23 -55.5t-55.5 -22.5t-55 22.5t-22.5 55.5z" glyph-name="uni1EF1" unicode="ự"/><glyph d="M508 0l92 580l-393 854h96l352 -768l596 768h101l-666 -854l-90 -580h-88zM588 1821h76l167 -260h-75z" glyph-name="Ygrave" horiz-adv-x="1271" unicode="Ỳ"/><glyph d="M33 -309q190 -31 311 192q49 94 37 144l-244 1038h86l226 -985l534 985h90l-659 -1200q-158 -289 -394 -252zM420 1452h76l168 -260h-76z" glyph-name="ygrave" horiz-adv-x="1042" unicode="ỳ"/><glyph d="M508 0l92 580l-393 854h96l352 -768l596 768h101l-666 -854l-90 -580h-88zM418 -393q0 31 22.5 54.5t55 23.5t55 -23.5t22.5 -54.5q0 -33 -22.5 -55.5t-55 -22.5t-55 22.5t-22.5 55.5z" glyph-name="uni1EF4" horiz-adv-x="1271" unicode="Ỵ"/><glyph d="M33 -309q190 -31 311 192q49 94 37 144l-244 1038h86l226 -985l534 985h90l-659 -1200q-158 -289 -394 -252zM430 -393q0 31 22.5 54.5t55.5 23.5t55.5 -23.5t22.5 -54.5q0 -33 -22.5 -55.5t-55.5 -22.5t-55.5 22.5t-22.5 55.5z" glyph-name="uni1EF5" horiz-adv-x="1042" unicode="ỵ"/><glyph d="M508 0l92 580l-393 854h96l352 -768l596 768h101l-666 -854l-90 -580h-88zM625 1735q0 78 53 122t125 44q76 0 130 -50.5t54 -134.5t-52 -134t-122 -54l-33 49q68 2 107 37t39 98q0 61 -34 96t-89 35q-51 0 -85 -28.5t-36 -79.5h-57z" glyph-name="uni1EF6" horiz-adv-x="1271" unicode="Ỷ"/><glyph d="M33 -309q190 -31 311 192q49 94 37 144l-244 1038h86l226 -985l534 985h90l-659 -1200q-158 -289 -394 -252zM457 1366q0 78 53 122t125 44q76 0 130 -50t54 -134t-52 -134.5t-122 -54.5l-33 49q68 2 107 37t39 98q0 61 -34 96.5t-89 35.5q-51 0 -85 -29t-36 -80h-57z " glyph-name="uni1EF7" horiz-adv-x="1042" unicode="ỷ"/><glyph d="M508 0l92 580l-393 854h96l352 -768l596 768h101l-666 -854l-90 -580h-88zM510 1669q12 86 60 129t116 43q47 0 86 -23.5t60.5 -53t55.5 -53t73 -23.5q53 0 79.5 34.5t30.5 73.5h64q-12 -86 -60.5 -129t-113.5 -43q-49 0 -88 23.5t-59.5 53.5t-54.5 53.5t-73 23.5 q-53 0 -79.5 -35t-31.5 -74h-65z" glyph-name="uni1EF8" horiz-adv-x="1271" unicode="Ỹ"/><glyph d="M33 -309q190 -31 311 192q49 94 37 144l-244 1038h86l226 -985l534 985h90l-659 -1200q-158 -289 -394 -252zM340 1300q12 86 60.5 129.5t115.5 43.5q74 0 145.5 -77t129.5 -77q53 0 79.5 35t30.5 73h64q-12 -86 -60.5 -129t-113.5 -43q-49 0 -88 24t-59.5 53.5t-54.5 53 t-73 23.5q-53 0 -79.5 -35t-30.5 -74h-66z" glyph-name="uni1EF9" horiz-adv-x="1042" unicode="ỹ"/><glyph d="M94 543l12 69h1045l-12 -69h-1045z" glyph-name="endash" horiz-adv-x="1228" unicode="–"/><glyph d="M94 543l12 69h1168l-12 -69h-1168z" glyph-name="emdash" horiz-adv-x="1351" unicode="—"/><glyph d="M395 1399q-115 -6 -123 -113q39 0 63.5 -19.5t24.5 -54t-22.5 -58.5t-58.5 -24q-35 0 -57.5 28t-22.5 79q0 80 50 147.5t140 67.5h12z" glyph-name="quoteleft" horiz-adv-x="346" unicode="‘"/><glyph d="M193 1184q115 6 122 112q-39 0 -63.5 19.5t-24.5 54.5t22.5 58.5t59.5 23.5q35 0 57.5 -27.5t22.5 -78.5q0 -80 -50 -148t-140 -68h-13z" glyph-name="quoteright" horiz-adv-x="346" unicode="’"/><glyph d="M-16 -133q115 6 122 113q-39 0 -63.5 19t-24.5 54t22.5 58.5t59.5 23.5q35 0 57.5 -27.5t22.5 -78.5q0 -80 -50 -147.5t-140 -67.5h-13z" glyph-name="quotesinglbase" horiz-adv-x="356" unicode="‚"/><glyph d="M395 1399q-115 -6 -123 -113q39 0 63.5 -19.5t24.5 -54t-22.5 -58.5t-58.5 -24q-35 0 -57.5 28t-22.5 79q0 80 50 147.5t140 67.5h12zM432 1237q0 80 50 147.5t141 67.5h12l-6 -53q-115 -6 -123 -113q39 0 63.5 -19.5t24.5 -54t-22.5 -58.5t-59.5 -24q-35 0 -57.5 28 t-22.5 79z" glyph-name="quotedblleft" horiz-adv-x="581" unicode="“"/><glyph d="M193 1184q115 6 122 112q-39 0 -63.5 19.5t-24.5 54.5t22.5 58.5t59.5 23.5q35 0 57.5 -27.5t22.5 -78.5q0 -80 -50 -148t-140 -68h-13zM422 1130l6 54q115 6 123 112q-39 0 -63.5 19.5t-24.5 54.5t22.5 58.5t59.5 23.5q35 0 57.5 -27.5t22.5 -78.5q0 -80 -50.5 -148 t-140.5 -68h-12z" glyph-name="quotedblright" horiz-adv-x="581" unicode="”"/><glyph d="M217 -141q115 6 123 112q-39 0 -63.5 19.5t-24.5 54.5t22.5 58.5t59.5 23.5q35 0 57.5 -27.5t22.5 -79.5q0 -80 -50.5 -147.5t-140.5 -67.5h-12zM-25 -195l7 54q115 6 122 112q-39 0 -63.5 19.5t-24.5 54.5t22.5 58.5t59.5 23.5q35 0 57.5 -27.5t22.5 -79.5 q0 -80 -50 -147.5t-140 -67.5h-13z" glyph-name="quotedblbase" horiz-adv-x="591" unicode="„"/><glyph d="M272 616l84 531h-155l8 67h158l34 220h74l-35 -220h152l-8 -67h-154l-86 -531h-72z" glyph-name="dagger" horiz-adv-x="587" unicode="†"/><glyph d="M174 0l53 334h-157l10 67h158l100 631h-156l11 68h155l53 334h74l-53 -334h153l-10 -68h-153l-101 -631h152l-10 -67h-152l-53 -334h-74z" glyph-name="daggerdbl" horiz-adv-x="587" unicode="‡"/><glyph d="M262 385q-66 0 -111 45t-45 111q0 63 45.5 108t110.5 45q63 0 108.5 -45t45.5 -108.5t-45.5 -109.5t-108.5 -46z" glyph-name="bullet" horiz-adv-x="518" unicode="•"/><glyph d="M455 -20q-33 0 -55.5 22.5t-22.5 54.5q0 31 22.5 54.5t55.5 23.5q31 0 53 -23.5t22 -54.5q0 -33 -22 -55t-53 -22zM18 57q0 31 22.5 54.5t55.5 23.5q31 0 53.5 -23.5t22.5 -54.5q0 -33 -22.5 -55t-53.5 -22q-33 0 -55.5 22t-22.5 55zM735 57q0 31 22.5 54.5t55.5 23.5 q31 0 53.5 -23.5t22.5 -54.5q0 -33 -22.5 -55t-53.5 -22q-33 0 -55.5 22t-22.5 55z" glyph-name="ellipsis" horiz-adv-x="1058" unicode="…"/><glyph d="M145 270l-28 58l1253 825l31 -57zM186 1081q0 145 87 253t225 108q102 0 161.5 -63.5t59.5 -180.5q0 -145 -86 -252.5t-223 -107.5q-102 0 -163 63t-61 180zM258 1081q0 -176 158 -176q113 0 172 88t59 205q0 176 -158 176q-111 0 -171 -88t-60 -205zM797 225 q0 145 86 254t223 109q102 0 162.5 -64.5t60.5 -181.5q0 -145 -87 -252.5t-224 -107.5q-102 0 -161.5 63t-59.5 180zM868 227q0 -176 158 -176q111 0 171 87t60 204q0 176 -157 176q-113 0 -172.5 -87t-59.5 -204zM1411 225q0 145 87 254t224 109q102 0 162 -64.5t60 -181.5 q0 -145 -86 -252.5t-224 -107.5q-102 0 -162.5 63t-60.5 180zM1483 227q0 -176 159 -176q111 0 170.5 87t59.5 204q0 176 -158 176q-111 0 -171 -88t-60 -203z" glyph-name="perthousand" horiz-adv-x="2074" unicode="‰"/><glyph d="M322 340l-232 240l8 65l312 238l-15 -95l-227 -178l170 -180z" glyph-name="guilsinglleft" horiz-adv-x="438" unicode="‹"/><glyph d="M143 883l232 -240l-8 -65l-312 -238l15 94l227 178l-170 181z" glyph-name="guilsinglright" horiz-adv-x="440" unicode="›"/><glyph d="M-410 0l1123 1434h55l-1120 -1434h-58z" glyph-name="fraction" horiz-adv-x="299" unicode="⁄"/><glyph d="M111 776l8 62h121q66 270 255 442t466 172q209 0 336.5 -103.5t140.5 -287.5h-82q-16 150 -122 231.5t-278 81.5q-238 0 -402.5 -150.5t-227.5 -385.5h438l-8 -62h-445q-14 -68 -20 -153h440l-8 -62h-432q4 -252 131 -378t336 -126q172 0 295 83t188 233h88 q-74 -193 -224.5 -293t-354.5 -100q-246 0 -393.5 145t-149.5 436h-129l8 62h123q2 74 16 153h-114z" glyph-name="Euro" horiz-adv-x="1415" unicode="€"/><glyph d="M569 1065l60 369h61l98 -301l187 301h67l-59 -369h-59l43 258l-164 -258h-47l-86 258l-41 -258h-60zM215 1380l10 54h328l-10 -54h-135l-50 -315h-59l51 315h-135z" glyph-name="trademark" horiz-adv-x="980" unicode="™"/><glyph d="M487 -20q-221 0 -323.5 141t-67.5 358q33 213 175.5 346t353.5 133q147 0 255.5 -71.5t131.5 -224.5q29 156 25.5 286.5t-34 227t-108.5 150.5t-199 54q-154 0 -250 -78.5t-120 -185.5h-76q27 139 149.5 237.5t311.5 98.5q502 0 383 -764q-55 -350 -209 -529t-398 -179z M176 479q-29 -186 54 -306t267.5 -120t307.5 122t151 304q31 180 -56 294t-273 114q-184 0 -302 -113t-149 -295z" glyph-name="partialdiff" horiz-adv-x="1163" unicode="∂"/><glyph d="M-53 -389l321 2027h1125l-322 -2027h-76l308 1952h-973l-307 -1952h-76z" glyph-name="product" horiz-adv-x="1308" unicode="∏"/><glyph d="M-53 -389l723 1014l-402 1013h1135l-14 -79h-998l373 -934l-666 -934h994l-11 -80h-1134z" glyph-name="summation" horiz-adv-x="1318" unicode="∑"/><glyph d="M121 508l14 70h565l-14 -70h-565z" glyph-name="minus" horiz-adv-x="815" unicode="−"/><glyph d="M532 -389l-219 975h-213l15 84h262l201 -930l839 1898h86l-895 -2027h-76z" glyph-name="radical" horiz-adv-x="1419" unicode="√"/><glyph d="M426 201q-137 0 -231.5 96t-94.5 239.5t94.5 236.5t231.5 93q203 0 391 -260q188 260 393 260q137 0 231.5 -93t94.5 -236.5t-94 -239.5t-232 -96q-207 0 -393 264q-186 -264 -391 -264zM184 537q0 -113 70 -185.5t174 -72.5q102 0 183 69.5t159 188.5q-168 252 -342 251 q-104 0 -174 -70t-70 -181zM866 537q78 -119 159 -188.5t183 -69.5q104 0 174 72.5t70 185.5q0 111 -69.5 181t-174.5 70q-102 0 -183 -67t-159 -184z" glyph-name="infinity" horiz-adv-x="1634" unicode="∞"/><glyph d="M-80 -313q197 0 236 229l192 1225q16 94 48 157.5t79 95t96.5 44t112.5 12.5l-12 -76q-100 0 -158.5 -49t-79.5 -180l-194 -1225q-49 -309 -332 -309z" glyph-name="integral" horiz-adv-x="589" unicode="∫"/><glyph d="M592 301q-76 0 -164 75t-143 75q-66 0 -97.5 -34t-29.5 -73h-58q0 86 55.5 132t131 46t164 -74.5t143.5 -74.5q68 0 98.5 34.5t28.5 73.5h57q0 -86 -55 -133t-131 -47zM150 672q0 86 55 132t131 46t164 -75t143 -75q68 0 98.5 35t28.5 74h57q0 -86 -55 -133t-131 -47 t-164 74.5t-143 74.5q-66 0 -97.5 -33.5t-29.5 -72.5h-57z" glyph-name="approxequal" horiz-adv-x="913" unicode="≈"/><glyph d="M158 0l147 379h-205l13 70h219l98 258h-276l12 69h293l143 373h68l-146 -373h207l-12 -69h-221l-101 -258h281l-12 -70h-295l-148 -379h-65z" glyph-name="notequal" horiz-adv-x="817" unicode="≠"/><glyph d="M41 0l10 72h705l-11 -72h-704zM158 723l8 88l762 403l-10 -84l-695 -366l590 -358l-12 -84z" glyph-name="lessequal" horiz-adv-x="958" unicode="≤"/><glyph d="M47 0l10 72h705l-10 -72h-705zM104 322l11 81l694 369l-588 358l10 84l646 -401l-11 -90z" glyph-name="greaterequal" horiz-adv-x="960" unicode="≥"/><glyph d="M326 0l-205 717l432 717h100l203 -717l-430 -717h-100zM211 717l178 -631l375 631l-174 631z" glyph-name="lozenge" horiz-adv-x="919" unicode="◊"/><glyph d="M121 492l147 942h88l-147 -942h-88z" glyph-name="uniA78B" horiz-adv-x="337" unicode="Ꞌ"/><glyph d="M137 610l131 824h84l-131 -824h-84z" glyph-name="uniA78C" horiz-adv-x="333" unicode="ꞌ"/><glyph d="M579.5 -20q-247.5 0 -371.5 149.5t-81 411.5h86q-35 -227 66.5 -354.5t308.5 -127.5q205 0 338 126t168 358l141 891h88l-141 -893q-41 -264 -198 -412.5t-404.5 -148.5zM1251 1561l242 260h84l-242 -260h-84z" glyph-name="J.aalt" horiz-adv-x="1304"/><glyph d="M623 -20q-233 0 -371.5 144t-138.5 429q0 248 89 449.5t268 325.5t417 124q195 0 309.5 -86t136.5 -250h-86q-49 258 -375 258q-209 0 -365.5 -115.5t-232 -296t-75.5 -395.5q0 -266 120.5 -388t323.5 -122q217 2 375 128t190 321l19 123h-410l12 73h492l-111 -702h-80 l39 270q-86 -139 -229 -214.5t-317 -75.5z" glyph-name="G.ss01" horiz-adv-x="1398"/><glyph d="M983 0q-33 45 -4 240l22 125q12 80 -4 134t-56 80.5t-86 37t-105 10.5h-521l-100 -627h-88l227 1434h543q197 0 297 -86t100 -246q0 -154 -84 -271.5t-229 -156.5q123 -27 169 -100.5t23 -208.5l-20 -125q-29 -197 4 -240h-88zM240 700h446q203 0 319.5 107.5 t116.5 279.5q0 139 -82 204t-252 65h-444z" glyph-name="R.aalt" horiz-adv-x="1269"/><glyph d="M623 -20q-233 0 -371.5 144t-138.5 429q0 248 89 449.5t268 325.5t417 124q195 0 309.5 -86t136.5 -250h-86q-49 258 -375 258q-209 0 -365.5 -115.5t-232 -296t-75.5 -395.5q0 -266 120.5 -388t323.5 -122q217 2 375 128t190 321l19 123h-410l12 73h492l-111 -702h-80 l39 270q-86 -139 -229 -214.5t-317 -75.5z" glyph-name="G.ss05" horiz-adv-x="1398"/><glyph d="M14 0l168 1065h84l-168 -1065h-84zM209 1394.5q0 26.5 20.5 47t47 20.5t47 -20.5t20.5 -47t-20.5 -47t-47 -20.5t-47 20.5t-20.5 47z" glyph-name="i.locl" horiz-adv-x="282"/><glyph d="M-123 -377q-35 0 -78 6l8 68h48q100 0 145 36t61 134l191 1198h84l-195 -1221q-37 -221 -264 -221zM260 1192l242 260h84l-242 -260h-84z" glyph-name="j.aalt" horiz-adv-x="350"/><glyph d="M473 -20q-180 0 -293.5 110.5t-113.5 325.5q0 279 158.5 474t408.5 195q139 0 240.5 -66.5t144.5 -201.5h2l39 248h84l-168 -1065h-84l37 248q-76 -135 -198 -201.5t-257 -66.5zM145 430q0 -188 96.5 -282.5t252.5 -94.5q215 0 354 173t139 409q0 184 -99.5 280.5 t-252.5 96.5q-217 0 -353.5 -176.5t-136.5 -405.5z" glyph-name="a.ss01" horiz-adv-x="1181"/><glyph d="M473 -20q-180 0 -293.5 110.5t-113.5 325.5q0 279 158.5 474t408.5 195q139 0 240.5 -66.5t144.5 -201.5h2l39 248h84l-168 -1065h-84l37 248q-76 -135 -198 -201.5t-257 -66.5zM145 430q0 -188 96.5 -282.5t252.5 -94.5q215 0 354 173t139 409q0 184 -99.5 280.5 t-252.5 96.5q-217 0 -353.5 -176.5t-136.5 -405.5zM580 1192l241 260h84l-241 -260h-84z" glyph-name="aacute.ss01" horiz-adv-x="1181"/><glyph d="M473 -20q-180 0 -293.5 110.5t-113.5 325.5q0 279 158.5 474t408.5 195q139 0 240.5 -66.5t144.5 -201.5h2l39 248h84l-168 -1065h-84l37 248q-76 -135 -198 -201.5t-257 -66.5zM145 430q0 -188 96.5 -282.5t252.5 -94.5q215 0 354 173t139 409q0 184 -99.5 280.5 t-252.5 96.5q-217 0 -353.5 -176.5t-136.5 -405.5zM451 1452h63q-18 -172 170 -172q190 0 219 172h64q-14 -96 -84 -163.5t-205 -67.5q-137 0 -190 67.5t-37 163.5z" glyph-name="abreve.ss01" horiz-adv-x="1181"/><glyph d="M473 -20q-180 0 -293.5 110.5t-113.5 325.5q0 279 158.5 474t408.5 195q139 0 240.5 -66.5t144.5 -201.5h2l39 248h84l-168 -1065h-84l37 248q-76 -135 -198 -201.5t-257 -66.5zM145 430q0 -188 96.5 -282.5t252.5 -94.5q215 0 354 173t139 409q0 184 -99.5 280.5 t-252.5 96.5q-217 0 -353.5 -176.5t-136.5 -405.5zM440 1452h82l150 -219l217 219h90l-254 -252h-111z" glyph-name="uni01CE.ss01" horiz-adv-x="1181"/><glyph d="M473 -20q-180 0 -293.5 110.5t-113.5 325.5q0 279 158.5 474t408.5 195q139 0 240.5 -66.5t144.5 -201.5h2l39 248h84l-168 -1065h-84l37 248q-76 -135 -198 -201.5t-257 -66.5zM145 430q0 -188 96.5 -282.5t252.5 -94.5q215 0 354 173t139 409q0 184 -99.5 280.5 t-252.5 96.5q-217 0 -353.5 -176.5t-136.5 -405.5zM395 1200l254 252h111l174 -252h-82l-150 219l-217 -219h-90z" glyph-name="acircumflex.ss01" horiz-adv-x="1181"/><glyph d="M473 -20q-180 0 -293.5 110.5t-113.5 325.5q0 279 158.5 474t408.5 195q139 0 240.5 -66.5t144.5 -201.5h2l39 248h84l-168 -1065h-84l37 248q-76 -135 -198 -201.5t-257 -66.5zM145 430q0 -188 96.5 -282.5t252.5 -94.5q215 0 354 173t139 409q0 184 -99.5 280.5 t-252.5 96.5q-217 0 -353.5 -176.5t-136.5 -405.5zM469 1394.5q0 26.5 19.5 47t48 20.5t48 -20.5t19.5 -47t-19.5 -47t-48 -20.5t-48 20.5t-19.5 47zM793 1394.5q0 26.5 19 47t48 20.5t48.5 -20.5t19.5 -47t-19.5 -47t-48.5 -20.5t-48 20.5t-19 47z" glyph-name="adieresis.ss01" horiz-adv-x="1181"/><glyph d="M473 -20q-180 0 -293.5 110.5t-113.5 325.5q0 279 158.5 474t408.5 195q139 0 240.5 -66.5t144.5 -201.5h2l39 248h84l-168 -1065h-84l37 248q-76 -135 -198 -201.5t-257 -66.5zM145 430q0 -188 96.5 -282.5t252.5 -94.5q215 0 354 173t139 409q0 184 -99.5 280.5 t-252.5 96.5q-217 0 -353.5 -176.5t-136.5 -405.5zM457 1452h75l168 -260h-75z" glyph-name="agrave.ss01" horiz-adv-x="1181"/><glyph d="M473 -20q-180 0 -293.5 110.5t-113.5 325.5q0 279 158.5 474t408.5 195q139 0 240.5 -66.5t144.5 -201.5h2l39 248h84l-168 -1065h-84l37 248q-76 -135 -198 -201.5t-257 -66.5zM145 430q0 -188 96.5 -282.5t252.5 -94.5q215 0 354 173t139 409q0 184 -99.5 280.5 t-252.5 96.5q-217 0 -353.5 -176.5t-136.5 -405.5zM418 1391l8 61h563l-8 -61h-563z" glyph-name="amacron.ss01" horiz-adv-x="1181"/><glyph d="M473 -20q-180 0 -293.5 110.5t-113.5 325.5q0 279 158.5 474t408.5 195q139 0 240.5 -66.5t144.5 -201.5h2l39 248h84l-168 -1065h-2q-113 0 -186.5 -52t-73.5 -141q0 -137 174 -120l-8 -58q-106 -16 -173 29t-67 137q0 98 73.5 165t184.5 79l31 209 q-76 -135 -198 -201.5t-257 -66.5zM145 430q0 -188 96.5 -282.5t252.5 -94.5q215 0 354 173t139 409q0 184 -99.5 280.5t-252.5 96.5q-217 0 -353.5 -176.5t-136.5 -405.5z" glyph-name="aogonek.ss01" horiz-adv-x="1181"/><glyph d="M473 -20q-180 0 -293.5 110.5t-113.5 325.5q0 279 158.5 474t408.5 195q139 0 240.5 -66.5t144.5 -201.5h2l39 248h84l-168 -1065h-84l37 248q-76 -135 -198 -201.5t-257 -66.5zM145 430q0 -188 96.5 -282.5t252.5 -94.5q215 0 354 173t139 409q0 184 -99.5 280.5 t-252.5 96.5q-217 0 -353.5 -176.5t-136.5 -405.5zM532 1341.5q0 65.5 47.5 111.5t115 46t114.5 -46t47 -111.5t-47 -111.5t-114.5 -46t-115 46t-47.5 111.5zM590 1341q0 -45 29.5 -75.5t74.5 -30.5t75 30.5t30 75.5q0 43 -30 74t-75 31t-74.5 -31t-29.5 -74z" glyph-name="aring.ss01" horiz-adv-x="1181"/><glyph d="M473 -20q-180 0 -293.5 110.5t-113.5 325.5q0 279 158.5 474t408.5 195q139 0 240.5 -66.5t144.5 -201.5h2l39 248h84l-168 -1065h-84l37 248q-76 -135 -198 -201.5t-257 -66.5zM145 430q0 -188 96.5 -282.5t252.5 -94.5q215 0 354 173t139 409q0 184 -99.5 280.5 t-252.5 96.5q-217 0 -353.5 -176.5t-136.5 -405.5zM373 1300q12 86 60 129.5t116 43.5q74 0 145.5 -77t128.5 -77q53 0 80 35t31 73h63q-12 -86 -60 -129t-114 -43q-49 0 -88 24t-59.5 53.5t-54 53t-72.5 23.5q-53 0 -80 -35t-31 -74h-65z" glyph-name="atilde.ss01" horiz-adv-x="1181"/><glyph d="M41 0l168 1065h84l-168 -1065h-84zM254 1343l16 109h84l-16 -109h-84z" glyph-name="i.ss01" horiz-adv-x="333"/><glyph d="M215 -4q-90 -10 -128 23.5t-24 121.5l205 1301h84l-205 -1299q-6 -41 11.5 -61.5t66.5 -18.5z" glyph-name="l.ss01" horiz-adv-x="337"/><glyph d="M473 -20q-180 0 -293.5 110.5t-113.5 325.5q0 279 158.5 474t408.5 195q139 0 240.5 -66.5t144.5 -201.5h2l39 248h84l-168 -1065h-84l37 248q-76 -135 -198 -201.5t-257 -66.5zM145 430q0 -188 96.5 -282.5t252.5 -94.5q215 0 354 173t139 409q0 184 -99.5 280.5 t-252.5 96.5q-217 0 -353.5 -176.5t-136.5 -405.5z" glyph-name="a.ss02" horiz-adv-x="1181"/><glyph d="M473 -20q-180 0 -293.5 110.5t-113.5 325.5q0 279 158.5 474t408.5 195q139 0 240.5 -66.5t144.5 -201.5h2l39 248h84l-168 -1065h-84l37 248q-76 -135 -198 -201.5t-257 -66.5zM145 430q0 -188 96.5 -282.5t252.5 -94.5q215 0 354 173t139 409q0 184 -99.5 280.5 t-252.5 96.5q-217 0 -353.5 -176.5t-136.5 -405.5zM580 1192l241 260h84l-241 -260h-84z" glyph-name="aacute.ss02" horiz-adv-x="1181"/><glyph d="M473 -20q-180 0 -293.5 110.5t-113.5 325.5q0 279 158.5 474t408.5 195q139 0 240.5 -66.5t144.5 -201.5h2l39 248h84l-168 -1065h-84l37 248q-76 -135 -198 -201.5t-257 -66.5zM145 430q0 -188 96.5 -282.5t252.5 -94.5q215 0 354 173t139 409q0 184 -99.5 280.5 t-252.5 96.5q-217 0 -353.5 -176.5t-136.5 -405.5zM451 1452h63q-18 -172 170 -172q190 0 219 172h64q-14 -96 -84 -163.5t-205 -67.5q-137 0 -190 67.5t-37 163.5z" glyph-name="abreve.ss02" horiz-adv-x="1181"/><glyph d="M473 -20q-180 0 -293.5 110.5t-113.5 325.5q0 279 158.5 474t408.5 195q139 0 240.5 -66.5t144.5 -201.5h2l39 248h84l-168 -1065h-84l37 248q-76 -135 -198 -201.5t-257 -66.5zM145 430q0 -188 96.5 -282.5t252.5 -94.5q215 0 354 173t139 409q0 184 -99.5 280.5 t-252.5 96.5q-217 0 -353.5 -176.5t-136.5 -405.5zM440 1452h82l150 -219l217 219h90l-254 -252h-111z" glyph-name="uni01CE.ss02" horiz-adv-x="1181"/><glyph d="M473 -20q-180 0 -293.5 110.5t-113.5 325.5q0 279 158.5 474t408.5 195q139 0 240.5 -66.5t144.5 -201.5h2l39 248h84l-168 -1065h-84l37 248q-76 -135 -198 -201.5t-257 -66.5zM145 430q0 -188 96.5 -282.5t252.5 -94.5q215 0 354 173t139 409q0 184 -99.5 280.5 t-252.5 96.5q-217 0 -353.5 -176.5t-136.5 -405.5zM395 1200l254 252h111l174 -252h-82l-150 219l-217 -219h-90z" glyph-name="acircumflex.ss02" horiz-adv-x="1181"/><glyph d="M473 -20q-180 0 -293.5 110.5t-113.5 325.5q0 279 158.5 474t408.5 195q139 0 240.5 -66.5t144.5 -201.5h2l39 248h84l-168 -1065h-84l37 248q-76 -135 -198 -201.5t-257 -66.5zM145 430q0 -188 96.5 -282.5t252.5 -94.5q215 0 354 173t139 409q0 184 -99.5 280.5 t-252.5 96.5q-217 0 -353.5 -176.5t-136.5 -405.5zM469 1394.5q0 26.5 19.5 47t48 20.5t48 -20.5t19.5 -47t-19.5 -47t-48 -20.5t-48 20.5t-19.5 47zM793 1394.5q0 26.5 19 47t48 20.5t48.5 -20.5t19.5 -47t-19.5 -47t-48.5 -20.5t-48 20.5t-19 47z" glyph-name="adieresis.ss02" horiz-adv-x="1181"/><glyph d="M473 -20q-180 0 -293.5 110.5t-113.5 325.5q0 279 158.5 474t408.5 195q139 0 240.5 -66.5t144.5 -201.5h2l39 248h84l-168 -1065h-84l37 248q-76 -135 -198 -201.5t-257 -66.5zM145 430q0 -188 96.5 -282.5t252.5 -94.5q215 0 354 173t139 409q0 184 -99.5 280.5 t-252.5 96.5q-217 0 -353.5 -176.5t-136.5 -405.5zM457 1452h75l168 -260h-75z" glyph-name="agrave.ss02" horiz-adv-x="1181"/><glyph d="M473 -20q-180 0 -293.5 110.5t-113.5 325.5q0 279 158.5 474t408.5 195q139 0 240.5 -66.5t144.5 -201.5h2l39 248h84l-168 -1065h-84l37 248q-76 -135 -198 -201.5t-257 -66.5zM145 430q0 -188 96.5 -282.5t252.5 -94.5q215 0 354 173t139 409q0 184 -99.5 280.5 t-252.5 96.5q-217 0 -353.5 -176.5t-136.5 -405.5zM418 1391l8 61h563l-8 -61h-563z" glyph-name="amacron.ss02" horiz-adv-x="1181"/><glyph d="M473 -20q-180 0 -293.5 110.5t-113.5 325.5q0 279 158.5 474t408.5 195q139 0 240.5 -66.5t144.5 -201.5h2l39 248h84l-168 -1065h-2q-113 0 -186.5 -52t-73.5 -141q0 -137 174 -120l-8 -58q-106 -16 -173 29t-67 137q0 98 73.5 165t184.5 79l31 209 q-76 -135 -198 -201.5t-257 -66.5zM145 430q0 -188 96.5 -282.5t252.5 -94.5q215 0 354 173t139 409q0 184 -99.5 280.5t-252.5 96.5q-217 0 -353.5 -176.5t-136.5 -405.5z" glyph-name="aogonek.ss02" horiz-adv-x="1181"/><glyph d="M473 -20q-180 0 -293.5 110.5t-113.5 325.5q0 279 158.5 474t408.5 195q139 0 240.5 -66.5t144.5 -201.5h2l39 248h84l-168 -1065h-84l37 248q-76 -135 -198 -201.5t-257 -66.5zM145 430q0 -188 96.5 -282.5t252.5 -94.5q215 0 354 173t139 409q0 184 -99.5 280.5 t-252.5 96.5q-217 0 -353.5 -176.5t-136.5 -405.5zM532 1341.5q0 65.5 47.5 111.5t115 46t114.5 -46t47 -111.5t-47 -111.5t-114.5 -46t-115 46t-47.5 111.5zM590 1341q0 -45 29.5 -75.5t74.5 -30.5t75 30.5t30 75.5q0 43 -30 74t-75 31t-74.5 -31t-29.5 -74z" glyph-name="aring.ss02" horiz-adv-x="1181"/><glyph d="M473 -20q-180 0 -293.5 110.5t-113.5 325.5q0 279 158.5 474t408.5 195q139 0 240.5 -66.5t144.5 -201.5h2l39 248h84l-168 -1065h-84l37 248q-76 -135 -198 -201.5t-257 -66.5zM145 430q0 -188 96.5 -282.5t252.5 -94.5q215 0 354 173t139 409q0 184 -99.5 280.5 t-252.5 96.5q-217 0 -353.5 -176.5t-136.5 -405.5zM373 1300q12 86 60 129.5t116 43.5q74 0 145.5 -77t128.5 -77q53 0 80 35t31 73h63q-12 -86 -60 -129t-114 -43q-49 0 -88 24t-59.5 53.5t-54 53t-72.5 23.5q-53 0 -80 -35t-31 -74h-65z" glyph-name="atilde.ss02" horiz-adv-x="1181"/><glyph d="M326 -20q-143 0 -221 61t-78 182q0 272 403 328l238 33q199 31 202 80l17 102q20 129 -48.5 189.5t-228.5 60.5q-311 0 -348 -211l-4 -23h-78l2 25q39 279 434 278q199 0 289 -78.5t66 -242.5l-101 -635q-4 -43 5.5 -57.5t42.5 -12.5l-9 -59q-18 -8 -45 -8q-96 0 -71 143 l12 66h-6q-41 -70 -170 -145.5t-303 -75.5zM111 231q0 -180 233 -180q195 0 329 106.5t148 192.5l37 236q-18 -45 -188 -68l-236 -35q-323 -49 -323 -252z" glyph-name="a.ss03" horiz-adv-x="1046"/><glyph d="M215 -4q-90 -10 -128 23.5t-24 121.5l205 1301h84l-205 -1299q-6 -41 11.5 -61.5t66.5 -18.5z" glyph-name="l.ss04" horiz-adv-x="337"/><glyph d="M127 993l10 72h144l28 182q37 219 269 219h88l-11 -73h-63q-96 0 -140 -35t-61 -133l-24 -160h553l41 260h83l-40 -260h215l-7 -35l-6 -37h-213l-121 -764q-14 -98 19 -134t129 -36h59l-12 -67q-29 -6 -86 -6q-231 0 -197 221l123 786h-553l-157 -993h-84l155 993h-141z " glyph-name="f_t.dlig" horiz-adv-x="1216"/><glyph d="M41 0l168 1065h84l-41 -258h4q41 100 152.5 179t296.5 79h163l41 260h84l-41 -260h213l-10 -72h-213l-121 -764q-14 -98 18.5 -134t129.5 -36h57l-12 -67q-29 -6 -84 -6q-233 0 -197 221l123 786h-168q-188 0 -310 -102.5t-153 -259.5l-100 -631h-84z" glyph-name="r_t.dlig" horiz-adv-x="1163"/><glyph d="M202.5 -4q-96.5 0 -143.5 71.5t-30 186.5l4 27q16 115 86.5 186.5t167 71.5t142.5 -72t30 -186l-4 -27q-16 -115 -86 -186.5t-166.5 -71.5zM74 254q-14 -102 22.5 -159.5t110.5 -57.5t131 57.5t72 159.5l4 27q16 102 -22 159.5t-111.5 57.5t-131 -58.5t-71.5 -158.5z" glyph-name="zero.dnom" horiz-adv-x="571"/><glyph d="M176 467q-37 -53 -113 -47l7 41q35 0 68.5 22.5t49.5 51.5h45l-83 -535h-46z" glyph-name="one.dnom" horiz-adv-x="325"/><glyph d="M2 27q10 127 191 225q47 27 60 35t37.5 27.5t34 38t13.5 42.5q8 45 -17.5 75t-78.5 30q-113 0 -136 -117l-2 -12h-47l2 12q12 72 61.5 116t125.5 44q74 0 110.5 -40t26.5 -104q-8 -59 -51 -100t-121 -82q-70 -39 -113 -85t-43 -85v-2h283l-8 -45h-330z" glyph-name="two.dnom" horiz-adv-x="505"/><glyph d="M184 -8q-88 0 -130 47t-29 127h45q-18 -131 125 -131q137 0 157 112q8 55 -28.5 84t-104.5 29h-22l6 39h22q59 0 99.5 29.5t46.5 72.5q6 47 -20.5 73t-84.5 26q-127 0 -145 -125h-45q10 80 62 124t132 44q78 0 116 -41t28 -103q-16 -90 -115 -114q45 -10 76 -46t22 -94 q-10 -68 -66.5 -110.5t-146.5 -42.5z" glyph-name="three.dnom" horiz-adv-x="540"/><glyph d="M244 0l20 135h-246l9 39l301 361h47l-58 -361h62l-6 -39h-62l-20 -135h-47zM74 174h198l45 291z" glyph-name="four.dnom" horiz-adv-x="518"/><glyph d="M154 -10q-80 0 -121 49t-31 125h39q-6 -55 23.5 -93t97 -38t108.5 38t52 101q12 74 -23 107.5t-90 33.5q-76 0 -137 -65h-45l90 287h266l-6 -41h-230l-65 -201q14 20 52 38.5t87 18.5q74 0 116 -46t29.5 -130t-69.5 -134t-143 -50z" glyph-name="five.dnom" horiz-adv-x="485"/><glyph d="M186 -10q-84 0 -128 62.5t-21 201.5q47 287 235 287q80 0 113 -43t29 -101h-39q-4 102 -111 103q-47 0 -80.5 -22.5t-53 -64.5t-29 -73t-19.5 -78q57 84 166 84q68 0 113 -42t32 -128q-14 -92 -72.5 -139t-134.5 -47zM80 178q-10 -63 21.5 -105t95.5 -42q125 0 151 145 q10 63 -21.5 96t-88.5 33q-59 0 -104.5 -36t-53.5 -91z" glyph-name="six.dnom" horiz-adv-x="532"/><glyph d="M43 0l301 494h-309l6 41h352l-4 -41l-299 -494h-47z" glyph-name="seven.dnom" horiz-adv-x="454"/><glyph d="M150 -4q-70 0 -115 37t-45 98q0 117 121 162q-51 39 -51.5 98.5t47 103.5t126.5 44q66 0 100 -32t34 -79q0 -84 -88 -135q80 -39 79 -119q0 -78 -61 -128t-147 -50zM31 133q0 -45 35.5 -71.5t91.5 -26.5q68 0 112.5 37t44.5 98q0 98 -122 98q-68 0 -115 -34.5t-47 -100.5 zM102 395q0 -37 29 -62.5t66 -25.5q53 0 92 34t39 81q0 35 -26 56.5t-75 21.5q-59 0 -92 -31t-33 -74z" glyph-name="eight.dnom" horiz-adv-x="466"/><glyph d="M174 -10q-80 0 -112.5 43t-28.5 100h39q4 -102 110 -102q45 0 79 21.5t54.5 64.5t29.5 72.5t20 78.5q-61 -84 -166 -84q-70 0 -114 42t-32 128q14 92 72.5 139.5t134.5 47.5q84 0 128 -62.5t22 -202.5q-48 -286 -236 -286zM98 354q-10 -63 21 -96t88 -33q59 0 104 35 t54 92q12 63 -20 105.5t-95 42.5q-129 -1 -152 -146z" glyph-name="nine.dnom" horiz-adv-x="532"/><glyph d="M346 897q-96 0 -143 71.5t-31 186.5l4 27q16 115 87 186.5t167 71.5t142 -72t30 -186l-4 -27q-16 -115 -86 -186.5t-166 -71.5zM217 1155q-14 -102 22.5 -159.5t110.5 -57.5t131.5 57.5t71.5 159.5l4 27q16 102 -21.5 159.5t-111.5 57.5t-131 -58.5t-72 -158.5z" glyph-name="zero.numr" horiz-adv-x="571"/><glyph d="M319 1366q-37 -53 -112 -47l6 41q35 0 68.5 22.5t50.5 51.5h45l-84 -535h-45z" glyph-name="one.numr" horiz-adv-x="325"/><glyph d="M145 928q10 127 191 225q47 27 60.5 35t38 27.5t33.5 38t13 42.5q8 45 -17.5 75t-78.5 30q-113 0 -135 -117l-2 -12h-47l2 12q12 72 61 116t125 44q74 0 111 -40t26 -104q-8 -59 -51 -100t-121 -82q-70 -39 -112.5 -85t-42.5 -85v-2h282l-8 -45h-330z" glyph-name="two.numr" horiz-adv-x="505"/><glyph d="M328 893q-88 0 -130 47t-30 127h45q-18 -131 125 -131q137 0 158 113q8 55 -29 83.5t-105 28.5h-22l6 39h23q59 0 99 30t46 73q6 47 -20.5 72.5t-83.5 25.5q-127 0 -146 -125h-45q10 80 62.5 124t132.5 44q78 0 115.5 -41t27.5 -103q-16 -90 -115 -114q45 -10 76 -46 t23 -93q-10 -68 -66.5 -111t-146.5 -43z" glyph-name="three.numr" horiz-adv-x="540"/><glyph d="M387 901l21 135h-246l8 39l301 361h47l-57 -361h61l-6 -39h-61l-21 -135h-47zM217 1075h199l45 291z" glyph-name="four.numr" horiz-adv-x="518"/><glyph d="M297 891q-80 0 -121 49t-31 125h39q-6 -55 24 -93t97.5 -38t108.5 38t51 101q12 74 -22.5 107.5t-90.5 33.5q-76 0 -137 -65h-45l90 287h266l-6 -41h-229l-66 -201q14 20 52 38.5t88 18.5q74 0 115.5 -46t29.5 -130t-69.5 -134t-143.5 -50z" glyph-name="five.numr" horiz-adv-x="485"/><glyph d="M330 889q-84 0 -128 62.5t-22 201.5q47 287 236 287q80 0 112.5 -43t28.5 -101h-39q-4 102 -110 103q-47 0 -81 -22.5t-53.5 -64.5t-28.5 -73t-20 -78q57 84 166 84q68 0 113 -42t33 -128q-14 -92 -72.5 -139t-134.5 -47zM223 1077q-10 -63 21.5 -105t95.5 -42 q125 0 152 145q10 63 -22 96t-89 33q-59 0 -104.5 -36t-53.5 -91z" glyph-name="six.numr" horiz-adv-x="532"/><glyph d="M186 901l301 494h-309l6 41h353l-5 -41l-299 -494h-47z" glyph-name="seven.numr" horiz-adv-x="454"/><glyph d="M293 897q-70 0 -115 37t-45 98q0 117 121 162q-51 39 -51 98.5t47 103.5t127 44q66 0 99.5 -32t33.5 -79q0 -84 -88 -135q80 -39 80 -119q0 -78 -61.5 -128t-147.5 -50zM174 1034q0 -45 36 -71.5t91 -26.5q68 0 113 37t45 98q0 98 -123 98q-68 0 -115 -34.5t-47 -100.5z M246 1296q0 -37 28.5 -62.5t65.5 -25.5q53 0 92 34t39 81q0 35 -25.5 56.5t-74.5 21.5q-59 0 -92 -31t-33 -74z" glyph-name="eight.numr" horiz-adv-x="466"/><glyph d="M317 891q-80 0 -112.5 43t-28.5 100h39q4 -102 111 -102q45 0 78.5 21.5t54 64.5t30 72.5t19.5 78.5q-61 -84 -166 -84q-70 0 -114 42t-31 128q14 92 72.5 139.5t133.5 47.5q84 0 128 -62.5t22 -201.5q-48 -287 -236 -287zM242 1255q-10 -63 20.5 -96t87.5 -33 q59 0 104.5 35t53.5 92q12 63 -19.5 105.5t-95.5 42.5q-128 -1 -151 -146z" glyph-name="nine.numr" horiz-adv-x="532"/><glyph d="M18 0l21 131h119l-21 -131h-119z" glyph-name="period.aalt" horiz-adv-x="323"/><glyph d="M373 1221q-137 0 -190.5 67.5t-37.5 163.5h64q-18 -172 170 -172q190 0 219 172h64q-14 -96 -84 -163.5t-205 -67.5zM358 1518l242 260h84l-242 -260h-84z" glyph-name="uni0306_acutecomb.ccmp" horiz-adv-x="0"/><glyph d="M373 1221q-137 0 -190.5 67.5t-37.5 163.5h64q-18 -172 170 -172q190 0 219 172h64q-14 -96 -84 -163.5t-205 -67.5zM203 1778h76l167 -260h-75z" glyph-name="uni0306_gravecomb.ccmp" horiz-adv-x="0"/><glyph d="M373 1221q-137 0 -190.5 67.5t-37.5 163.5h64q-18 -172 170 -172q190 0 219 172h64q-14 -96 -84 -163.5t-205 -67.5zM193 1640q0 78 53 122t125 44q76 0 130 -50t54 -134t-52 -134t-122 -54l-33 49q68 2 107 36.5t39 98.5q0 61 -34 96t-89 35q-51 0 -85 -28.5t-36 -80.5 h-57z" glyph-name="uni0306_hookabovecomb.ccmp" horiz-adv-x="0"/><glyph d="M373 1221q-137 0 -190.5 67.5t-37.5 163.5h64q-18 -172 170 -172q190 0 219 172h64q-14 -96 -84 -163.5t-205 -67.5zM123 1626q12 86 60 129t116 43q74 0 145.5 -76.5t128.5 -76.5q53 0 80 34.5t31 73.5h64q-12 -86 -60.5 -129t-114.5 -43q-49 0 -88 23.5t-59 53.5 t-54 53.5t-73 23.5q-53 0 -79.5 -35t-31.5 -74h-65z" glyph-name="uni0306_tildecomb.ccmp" horiz-adv-x="0"/><glyph d="M104 1200l254 252h111l174 -252h-82l-149 219l-217 -219h-91zM567 1393l242 260h84l-242 -260h-84z" glyph-name="uni0302_acutecomb.ccmp" horiz-adv-x="0"/><glyph d="M608 1391l-157 260h79l158 -260h-80zM104 1200l254 252h111l174 -252h-82l-149 219l-217 -219h-91z" glyph-name="uni0302_gravecomb.ccmp" horiz-adv-x="0"/><glyph d="M104 1200l254 252h111l174 -252h-82l-149 219l-217 -219h-91zM426 1651q0 78 53 122t125 44q76 0 130 -50.5t54 -134.5t-52 -134t-122 -54l-32 49q68 2 106.5 37t38.5 98q0 61 -34 96t-89 35q-51 0 -85 -28.5t-36 -79.5h-57z" glyph-name="uni0302_hookabovecomb.ccmp" horiz-adv-x="0"/><glyph d="M104 1200l254 252h111l174 -252h-82l-149 219l-217 -219h-91zM137 1616q12 86 60.5 129t115.5 43q47 0 86 -23.5t60.5 -53.5t55.5 -53.5t73 -23.5q53 0 79.5 35t30.5 74h64q-12 -86 -60.5 -129t-113.5 -43q-49 0 -88 23.5t-59.5 53t-54.5 53t-73 23.5q-53 0 -79.5 -34.5 t-30.5 -73.5h-66z" glyph-name="uni0302_tildecomb.ccmp" horiz-adv-x="0"/><glyph d="M373 1221q-137 0 -190.5 67.5t-37.5 163.5h64q-18 -172 170 -172q190 0 219 172h64q-14 -96 -84 -163.5t-205 -67.5z" glyph-name="glyph657" horiz-adv-x="0"/><glyph d="M156 993l69 441h78l-67 -441h-80z" glyph-name="glyph658" horiz-adv-x="0"/><glyph d="M-31 0l793 1434h96l338 -1434h-90l-94 412h-723l-226 -412h-94zM330 485h665l-194 844h-8zM745 1561l242 260h84l-242 -260h-84z" glyph-name="glyph659" horiz-adv-x="1333"/><glyph d="M590 651l8 76h588q8 55 8 127q0 260 -127 390t-340 130q-172 0 -295 -83t-188 -232h-88q74 193 224 293t355 100q248 0 395.5 -148.5t147.5 -443.5q0 -233 -86 -431t-261 -323.5t-407 -125.5q-209 0 -337 103t-140 288h82q16 -150 121.5 -232t277.5 -82q252 0 422 168 t224 426h-584zM705 1561l241 260h84l-242 -260h-83z" glyph-name="glyph660" horiz-adv-x="1335"/><glyph d="M881 0l94 596h-393l-492 -596h-100l493 600q-332 37 -331 350q0 219 152.5 351.5t402.5 132.5h489l-227 -1434h-88zM240 958q0 -283 350 -282h399l105 678h-398q-213 0 -334.5 -108t-121.5 -288zM666 1561l241 260h84l-241 -260h-84z" glyph-name="glyph661" horiz-adv-x="1177"/><glyph d="M41 0l227 1434h871l-15 -80h-782l-90 -574h723l-12 -78h-723l-101 -622h805l-12 -80h-891zM627 1561l241 260h84l-241 -260h-84z" glyph-name="glyph662" horiz-adv-x="1089"/><glyph d="M41 0l227 1434h88l-209 -1311h5l1071 1311h112l-227 -1434h-88l207 1313h-2l-1071 -1313h-113zM735 1561l242 260h84l-242 -260h-84z" glyph-name="glyph663" horiz-adv-x="1316"/><glyph d="M41 0l227 1434h88l-110 -703h241v-12q41 313 239 523t497 210q244 0 389 -147.5t145 -442.5q0 -172 -52 -329.5t-146.5 -281.5t-237.5 -197.5t-313 -73.5q-240 0 -385.5 147t-145.5 440q0 29 4 90h-248l-104 -657h-88zM561 569q0 -256 123 -384t330 -128q203 0 356.5 119 t228 298t74.5 386q0 258 -124 386t-328 128q-203 0 -356.5 -118.5t-228.5 -299t-75 -387.5zM831 1561l242 260h84l-242 -260h-84z" glyph-name="glyph664" horiz-adv-x="1812"/></font>
</defs>
</svg>
