<?xml version="1.0" standalone="no"?>
<!DOCTYPE svg PUBLIC "-//W3C//DTD SVG 1.1//EN" "http://www.w3.org/Graphics/SVG/1.1/DTD/svg11.dtd">
<svg xmlns="http://www.w3.org/2000/svg"><metadata>This SVG WebFont was generated by YouWorkForThem.
</metadata><defs><font horiz-adv-x="1140" id="ywftsvg"><font-face ascent="1638" bbox="-420 -483 2277 2189" cap-height="1434" descent="-410" font-family="" font-stretch="normal" font-weight="400" panose-1="0 0 0 0 0 0 0 0 0 0" underline-position="0" underline-thickness="0" unicode-range="U+0020-A78C" units-per-em="2048" x-height="1065"/><missing-glyph d="M37 0l225 1434h1249l-225 -1434h-1249zM160 106h1036l193 1221h-1037zM248 184l469 539l-295 526h119l245 -446l385 446h119l-463 -526l301 -539h-118l-250 461l-393 -461h-119z" horiz-adv-x="1490"/><glyph d="M37 0l225 1434h1249l-225 -1434h-1249zM160 106h1036l193 1221h-1037zM248 184l469 539l-295 526h119l245 -446l385 446h119l-463 -526l301 -539h-118l-250 461l-393 -461h-119z" glyph-name=".notdef" horiz-adv-x="1490"/><glyph glyph-name="glyph1" horiz-adv-x="0"/><glyph glyph-name="glyph2" horiz-adv-x="681"/><glyph glyph-name="space" horiz-adv-x="471" unicode=" "/><glyph d="M143 391l152 1043h149l-180 -1043h-121zM49 86q0 43 32 75t75 32q45 0 75.5 -32t30.5 -75q0 -45 -30.5 -75.5t-75.5 -30.5q-43 0 -75 30.5t-32 75.5z" glyph-name="exclam" horiz-adv-x="454" unicode="!"/><glyph d="M422 946l78 488h137l-76 -488h-139zM147 946l78 488h137l-75 -488h-140z" glyph-name="quotedbl" horiz-adv-x="575" unicode="&quot;"/><glyph d="M623 0l102 397h-338l-102 -397h-99l103 397h-211l14 99h223l113 442h-213l16 98h224l102 398h98l-102 -398h338l102 398h101l-103 -398h211l-16 -98h-221l-113 -442h213l-16 -99h-224l-102 -397h-100zM414 496h338l112 442h-338z" glyph-name="numbersign" horiz-adv-x="1220" unicode="#"/><glyph d="M446 -184l27 166q-219 14 -325.5 130.5t-77.5 297.5h143q-12 -123 57.5 -205t223.5 -94l90 573l-60 14q-319 72 -319 336q0 186 138 300t362 118l26 166h78l-27 -168q193 -14 292.5 -114.5t76.5 -256.5h-145q8 96 -53.5 163t-190.5 79l-82 -524l70 -17 q170 -37 257 -114.5t87 -229.5q0 -205 -150.5 -327.5t-392.5 -128.5l-27 -164h-78zM356 1044q0 -90 55.5 -146t180.5 -83l12 -2l80 510q-152 -6 -240 -81t-88 -198zM571 109q172 6 270.5 90t98.5 223q0 109 -62.5 161t-189.5 79l-29 6z" glyph-name="dollar" horiz-adv-x="1202" unicode="$"/><glyph d="M164 256l-47 90l1255 825l49 -90zM180 1075q0 150 91 260.5t235 110.5q106 0 168.5 -63.5t62.5 -184.5q0 -152 -90 -262.5t-235 -110.5q-106 0 -169 64.5t-63 185.5zM293 1085q0 -156 135 -155q96 0 146.5 76.5t50.5 179.5q0 156 -136 155q-94 0 -145 -77t-51 -179z M799 231q0 152 91 262.5t234 110.5q106 0 169 -64.5t63 -185.5q0 -152 -90 -262t-236 -110q-106 0 -168.5 64t-62.5 185zM911 244q0 -156 136 -156q96 0 146 76t50 178q0 156 -133 156q-96 0 -147.5 -77t-51.5 -177z" glyph-name="percent" horiz-adv-x="1478" unicode="%"/><glyph d="M498 -20q-199 0 -315.5 99t-116.5 267q0 289 405 477q-123 168 -123 301q0 137 96.5 232.5t272.5 95.5q143 0 222 -67.5t79 -186.5q0 -252 -359 -410l320 -436q106 156 141 387h133q-47 -301 -198 -489l184 -250h-166l-110 152q-195 -172 -465 -172zM217 367 q0 -119 84 -192t229 -73q209 0 363 146l-356 487q-320 -141 -320 -368zM479 1137q0 -106 113 -260q295 127 295 309q0 76 -48 116.5t-132 40.5q-104 0 -166 -57t-62 -149z" glyph-name="ampersand" horiz-adv-x="1380" unicode="&amp;"/><glyph d="M147 946l78 488h137l-75 -488h-140z" glyph-name="quotesingle" horiz-adv-x="301" unicode="'"/><glyph d="M182 -266q-156 389 -69 921q80 510 354 871h135q-266 -373 -344 -871q-84 -522 59 -921h-135z" glyph-name="parenleft" horiz-adv-x="536" unicode="("/><glyph d="M385 1526q156 -389 70 -922q-80 -510 -355 -870h-135q266 373 344 870q84 522 -59 922h135z" glyph-name="parenright" horiz-adv-x="534" unicode=")"/><glyph d="M356 739l-77 62l210 237l68 -57zM223 1124l45 101l258 -82l-41 -92zM543 1153l41 281h104l-47 -281h-98zM573 981l86 57l134 -237l-97 -62zM653 1143l287 82l12 -101l-286 -73z" glyph-name="asterisk" horiz-adv-x="989" unicode="*"/><glyph d="M418 152l57 360h-358l20 131h359l57 361h137l-57 -361h360l-20 -131h-361l-57 -360h-137z" glyph-name="plus" horiz-adv-x="1095" unicode="+"/><glyph d="M-4 -135q125 6 137 117q-53 0 -84 26.5t-31 71.5q0 49 32 81t81 32t80 -36t31 -106q0 -102 -63.5 -181t-180.5 -79h-12z" glyph-name="comma" horiz-adv-x="409" unicode=","/><glyph d="M80 516l18 115h555l-20 -115h-553z" glyph-name="hyphen" horiz-adv-x="718" unicode="-"/><glyph d="M125 -20q-43 0 -75 30.5t-32 75.5q0 43 32 75t75 32q45 0 75.5 -32t30.5 -75q0 -45 -30.5 -75.5t-75.5 -30.5z" glyph-name="period" horiz-adv-x="393" unicode="."/><glyph d="M-23 0l779 1434h149l-778 -1434h-150z" glyph-name="slash" horiz-adv-x="823" unicode="/"/><glyph d="M553 -20q-209 0 -329 141t-120 418q0 170 45.5 331.5t129 292.5t214 210t287.5 79q209 0 330 -142.5t121 -416.5q0 -170 -45 -332t-129 -293t-215 -209.5t-289 -78.5zM246 549q0 -215 84 -330t241 -115q164 0 286 123t178.5 296t56.5 362q0 215 -85 328.5t-243 113.5 q-164 0 -286 -123t-177 -296t-55 -359z" glyph-name="zero" horiz-adv-x="1277" unicode="0"/><glyph d="M455 1233q-111 -111 -275 -117l21 123q96 8 175 63.5t111 131.5h146l-227 -1434h-146z" glyph-name="one" horiz-adv-x="649" unicode="1"/><glyph d="M6 57q31 188 142.5 318.5t355.5 265.5q84 47 114.5 64.5t95 57.5t90 64.5t62.5 62.5t53.5 77t22.5 84q20 127 -54.5 201.5t-209.5 74.5q-139 0 -238.5 -83t-122.5 -236l-4 -29h-143l6 37q33 197 170 316.5t348 119.5q209 0 314.5 -111.5t76.5 -287.5q-12 -86 -52 -157 t-112.5 -131t-134 -98t-172.5 -100q-207 -115 -310 -210t-120 -216l-2 -16h766l-18 -125h-932z" glyph-name="two" horiz-adv-x="1105" unicode="2"/><glyph d="M494 -20q-238 0 -349.5 130t-78.5 345h135q-23 -162 61 -255.5t250 -93.5q176 0 297 99.5t121 251.5q0 123 -88 189.5t-254 66.5h-60l19 114h51q162 0 261 78t99 205q0 104 -66.5 159.5t-189.5 55.5q-143 0 -242.5 -80t-121.5 -248h-137q31 223 169 339t349 116 q184 0 284.5 -84t100.5 -223q0 -127 -82 -227.5t-215 -137.5q115 -20 192.5 -101t77.5 -218q0 -209 -168.5 -345t-414.5 -136z" glyph-name="three" horiz-adv-x="1171" unicode="3"/><glyph d="M666 0l61 387h-672l21 119l817 928h145l-145 -928h164l-21 -119h-164l-61 -387h-145zM211 506h537l114 741z" glyph-name="four" horiz-adv-x="1138" unicode="4"/><glyph d="M506 -20q-227 0 -340 126.5t-84 323.5h133q-18 -147 67 -238.5t242 -91.5q190 0 306 131t116 316q0 150 -82 228.5t-221 78.5q-209 0 -340 -162h-145l235 742h723l-18 -117h-621l-160 -502q59 68 157.5 112t217.5 44q180 0 290 -106.5t110 -303.5q0 -248 -164 -414.5 t-422 -166.5z" glyph-name="five" horiz-adv-x="1163" unicode="5"/><glyph d="M528 -20q-201 0 -311.5 123.5t-110.5 369.5q0 100 19 223q25 152 69 279t117.5 238.5t190 175t264.5 63.5q184 0 280.5 -89t96.5 -218q0 -23 -4 -51h-129q6 102 -61.5 170.5t-200.5 68.5q-377 0 -482 -602q74 109 189.5 167t246.5 58q180 0 288 -104t108 -295 q0 -244 -162 -410.5t-408 -166.5zM246 414q0 -145 81 -229.5t218 -84.5q180 0 295.5 132.5t115.5 310.5q0 143 -78.5 220t-218.5 77q-184 0 -298.5 -125t-114.5 -301z" glyph-name="six" horiz-adv-x="1189" unicode="6"/><glyph d="M178 0q166 639 719 1311h-713l21 123h854l-19 -123q-563 -696 -716 -1311h-146z" glyph-name="seven" horiz-adv-x="987" unicode="7"/><glyph d="M494 -20q-201 0 -321 95t-120 267q0 154 95.5 273.5t259.5 172.5q-72 31 -114 100.5t-42 164.5q0 168 127 283.5t338 115.5q176 0 272 -84t96 -223q0 -123 -71.5 -218.5t-182.5 -138.5q231 -86 232 -327q0 -209 -162.5 -345t-406.5 -136zM197 369q0 -127 85 -196t228 -69 q176 0 294 100.5t118 252.5q0 127 -84 196.5t-230 69.5q-178 0 -294.5 -102t-116.5 -252zM387 1055q0 -98 63.5 -152.5t180.5 -54.5q145 0 231 79t86 195q0 98 -63.5 152.5t-179.5 54.5q-145 0 -231.5 -78.5t-86.5 -195.5z" glyph-name="eight" horiz-adv-x="1159" unicode="8"/><glyph d="M719 1450q201 0 311.5 -124t110.5 -370q0 -100 -19 -223q-25 -152 -68.5 -278.5t-117.5 -238.5t-190.5 -175.5t-264.5 -63.5q-184 0 -280.5 89.5t-96.5 218.5q0 23 5 51h129q-6 -102 61.5 -171t200.5 -69q377 0 481 602q-74 -109 -189.5 -167t-246.5 -58 q-180 0 -287.5 104.5t-107.5 294.5q0 244 161.5 411t407.5 167zM291 887q0 -143 79 -220t218 -77q184 0 298.5 125t114.5 301q0 145 -80.5 229t-218.5 84q-180 0 -295.5 -132t-115.5 -310z" glyph-name="nine" horiz-adv-x="1189" unicode="9"/><glyph d="M125 -20q-43 0 -75 30.5t-32 75.5q0 43 32 75t75 32q45 0 75.5 -32t30.5 -75q0 -45 -30.5 -75.5t-75.5 -30.5zM158 958q0 43 31.5 75t74.5 32q45 0 76 -32t31 -75q0 -45 -31 -75.5t-76 -30.5q-43 0 -74.5 30.5t-31.5 75.5z" glyph-name="colon" horiz-adv-x="395" unicode=":"/><glyph d="M264 852q-43 0 -74.5 30.5t-31.5 75.5q0 43 31.5 75t74.5 32q45 0 76 -32t31 -75q0 -45 -31 -75.5t-76 -30.5zM-14 -209l10 74q125 6 137 117q-53 0 -84 26.5t-31 71.5q0 49 32 81t81 32t80 -36t31 -106q0 -102 -63.5 -181t-180.5 -79h-12z" glyph-name="semicolon" horiz-adv-x="409" unicode=";"/><glyph d="M862 0l-786 422l20 141l922 422l-23 -143l-778 -355l668 -346z" glyph-name="less" horiz-adv-x="1038" unicode="&lt;"/><glyph d="M92 352l21 115h600l-23 -115h-598zM145 680l21 115h600l-23 -115h-598z" glyph-name="equal" horiz-adv-x="843" unicode="="/><glyph d="M164 985l786 -422l-20 -141l-922 -422l23 143l778 355l-668 346z" glyph-name="greater" horiz-adv-x="1038" unicode=">"/><glyph d="M455 481q14 82 51 146.5t83 101.5t98 75t97 68.5t80 82t45 114.5q20 117 -48 184.5t-197 67.5q-141 0 -235.5 -84t-117.5 -244h-145q29 219 166 337t344 118q195 0 300 -101.5t79 -279.5q-14 -92 -61.5 -158.5t-107 -107.5t-117.5 -79t-104.5 -97.5t-58.5 -141.5l-14 -92 h-154zM367 86q0 43 31.5 75t74.5 32q45 0 76 -32t31 -75q0 -45 -31 -75.5t-76 -30.5q-43 0 -74.5 30.5t-31.5 75.5z" glyph-name="question" horiz-adv-x="1060" unicode="?"/><glyph d="M786 -20q-303 0 -488 168.5t-185 465.5q0 352 245.5 595t604.5 243q283 0 453.5 -162t170.5 -434q0 -205 -92 -361.5t-246 -156.5q-90 0 -141 54t-49 140q-41 -88 -121 -141t-174 -53q-113 0 -190.5 81t-77.5 230q0 176 105.5 298t262.5 122q100 0 171 -54t71 -138 l35 170h78l-66 -429q-14 -80 10.5 -138t93.5 -58q109 0 172.5 134t63.5 298q0 236 -146.5 371t-392.5 135q-322 0 -534.5 -216t-212.5 -521q0 -264 164 -407.5t432 -143.5q129 0 215 26l-12 -90q-83 -28 -220 -28zM592 655q0 -111 53 -170t139 -59q119 0 201 104.5t82 235.5 q0 102 -56.5 157.5t-144.5 55.5q-121 0 -197.5 -94.5t-76.5 -229.5z" glyph-name="at" horiz-adv-x="1634" unicode="@"/><glyph d="M-37 0l780 1434h183l323 -1434h-155l-80 371h-690l-199 -371h-162zM387 487h600l-170 783h-10z" glyph-name="A" horiz-adv-x="1380" unicode="A"/><glyph d="M35 0l227 1434h524q188 0 281.5 -80t93.5 -219q0 -125 -69.5 -219.5t-196.5 -133.5q250 -63 250 -323q0 -213 -159 -336t-415 -123h-536zM205 131h370q184 0 299 91t115 241q0 244 -315 244h-377zM319 836h359q150 0 238 76.5t88 201.5q0 190 -244 191h-367z" glyph-name="B" horiz-adv-x="1230" unicode="B"/><glyph d="M664 -20q-256 0 -404.5 151.5t-148.5 446.5q0 362 205.5 618t551.5 256q221 0 356.5 -110.5t139.5 -315.5h-141q-16 143 -112.5 219t-252.5 76q-186 0 -325.5 -108.5t-206 -271.5t-66.5 -349q0 -238 112.5 -359.5t307.5 -121.5q156 0 267.5 76.5t172.5 220.5h148 q-70 -211 -228.5 -319.5t-375.5 -108.5z" glyph-name="C" horiz-adv-x="1347" unicode="C"/><glyph d="M35 0l227 1434h449q289 0 432 -144.5t143 -439.5q0 -375 -210 -612.5t-584 -237.5h-457zM207 133h287q313 0 478 201t165 514q0 240 -107.5 346t-339.5 106h-299z" glyph-name="D" horiz-adv-x="1339" unicode="D"/><glyph d="M35 0l227 1434h903l-22 -134h-752l-80 -501h690l-18 -123h-690l-86 -543h772l-21 -133h-923z" glyph-name="E" horiz-adv-x="1110" unicode="E"/><glyph d="M35 0l227 1434h907l-22 -134h-756l-82 -520h619l-19 -127h-620l-103 -653h-151z" glyph-name="F" horiz-adv-x="1087" unicode="F"/><glyph d="M670 -20q-264 0 -411.5 150.5t-147.5 449.5q0 365 207.5 618.5t558.5 253.5q211 0 337.5 -97.5t143.5 -277.5h-146q-51 244 -342 244q-190 0 -332.5 -106.5t-210 -269.5t-67.5 -355q0 -240 110.5 -359.5t309.5 -119.5q207 0 341 127t171 370l-373 -4l21 123h516l-15 -88 q-51 -328 -223 -493.5t-448 -165.5z" glyph-name="G" horiz-adv-x="1423" unicode="G"/><glyph d="M965 0l100 637h-778l-101 -637h-151l227 1434h152l-107 -670h778l107 670h149l-227 -1434h-149z" glyph-name="H" horiz-adv-x="1318" unicode="H"/><glyph d="M35 0l227 1434h152l-228 -1434h-151z" glyph-name="I" horiz-adv-x="389" unicode="I"/><glyph d="M592 -20q-254 0 -384 148t-87 413h151q-33 -203 58.5 -315.5t277.5 -112.5q184 0 301 112.5t150 323.5l139 885h152l-142 -893q-43 -268 -203.5 -414.5t-412.5 -146.5z" glyph-name="J" horiz-adv-x="1325" unicode="J"/><glyph d="M35 0l227 1434h152l-129 -811l860 811h182l-704 -664l528 -770h-176l-463 666l-258 -244l-68 -422h-151z" glyph-name="K" horiz-adv-x="1282" unicode="K"/><glyph d="M35 0l227 1434h152l-207 -1301h743l-20 -133h-895z" glyph-name="L" horiz-adv-x="1081" unicode="L"/><glyph d="M35 0l227 1434h180l349 -1241l735 1241h184l-227 -1434h-150l183 1151h-7l-680 -1151h-133l-323 1151h-6l-181 -1151h-151z" glyph-name="M" horiz-adv-x="1687" unicode="M"/><glyph d="M35 0l227 1434h172l586 -1205h6l191 1205h149l-227 -1434h-174l-584 1200h-6l-189 -1200h-151z" glyph-name="N" horiz-adv-x="1343" unicode="N"/><glyph d="M657 -20q-252 0 -400 152.5t-148 442.5q0 231 89 430t265 323t403 124q252 0 400.5 -152.5t148.5 -443.5q0 -231 -90 -429t-265.5 -322.5t-402.5 -124.5zM260 580q0 -236 109.5 -352.5t298.5 -116.5q184 0 323 110.5t207 276.5t68 354q0 233 -109.5 351t-298.5 118 q-184 0 -324.5 -109.5t-207 -275.5t-66.5 -356z" glyph-name="O" horiz-adv-x="1466" unicode="O"/><glyph d="M35 0l227 1434h512q436 0 436 -373q0 -229 -156.5 -364.5t-418.5 -135.5h-361l-88 -561h-151zM297 696h354q188 0 297 93.5t109 252.5q0 258 -309 258h-357z" glyph-name="P" horiz-adv-x="1202" unicode="P"/><glyph d="M1200 -27l-121 146q-182 -139 -422 -139q-252 0 -400 152.5t-148 442.5q0 231 89 430t265 323t403 124q252 0 400.5 -152.5t148.5 -443.5q0 -184 -61.5 -354t-173.5 -293l123 -148zM260 580q0 -236 109.5 -352.5t298.5 -116.5q186 0 325 110l-229 279l102 88l226 -271 q174 215 174 535q0 233 -109.5 351t-298.5 118q-184 0 -324.5 -109.5t-207 -275.5t-66.5 -356z" glyph-name="Q" horiz-adv-x="1466" unicode="Q"/><glyph d="M909 0l-245 561h-29h-361l-88 -561h-151l227 1434h512q436 0 436 -373q0 -186 -108.5 -314.5t-296.5 -168.5l256 -578h-152zM297 696h354q188 0 297 93.5t109 252.5q0 258 -309 258h-357z" glyph-name="R" horiz-adv-x="1212" unicode="R"/><glyph d="M547 -20q-256 0 -382 119.5t-95 310.5h149q-12 -133 74 -217t274.5 -84t298 85t109.5 228q0 109 -64.5 161t-197.5 79l-170 36q-332 72 -332 336q0 190 149.5 304t391.5 114q227 0 347 -102.5t95 -270.5h-150q10 106 -68.5 175t-240.5 69q-170 0 -268 -76t-98 -203 q0 -90 57 -146t186 -83l166 -35q176 -37 266.5 -114.5t90.5 -229.5q0 -209 -164 -332.5t-424 -123.5z" glyph-name="S" horiz-adv-x="1243" unicode="S"/><glyph d="M432 0l205 1300h-459l23 134h1065l-21 -134h-459l-204 -1300h-150z" glyph-name="T" horiz-adv-x="1181" unicode="T"/><glyph d="M584 -20q-254 0 -379 147t-84 414l141 893h152l-142 -885q-33 -209 57.5 -322.5t278.5 -113.5q186 0 303 112.5t150 323.5l141 885h152l-142 -893q-43 -266 -208.5 -413.5t-419.5 -147.5z" glyph-name="U" horiz-adv-x="1329" unicode="U"/><glyph d="M526 0l-325 1434h155l279 -1270h10l680 1270h162l-778 -1434h-183z" glyph-name="V" horiz-adv-x="1400" unicode="V"/><glyph d="M360 0l-159 1434h153l123 -1225h8l564 1225h161l176 -1225h9l510 1225h155l-610 -1434h-166l-184 1241l-576 -1241h-164z" glyph-name="W" horiz-adv-x="1974" unicode="W"/><glyph d="M-37 0l641 741l-379 693h168l314 -574l495 574h172l-600 -695l406 -739h-170l-340 621l-535 -621h-172z" glyph-name="X" horiz-adv-x="1312" unicode="X"/><glyph d="M500 0l90 565l-389 869h170l317 -723l545 723h174l-666 -869l-88 -565h-153z" glyph-name="Y" horiz-adv-x="1320" unicode="Y"/><glyph d="M-2 0l20 133l1088 1167h-866l22 134h1038l-24 -134l-1086 -1167h912l-21 -133h-1083z" glyph-name="Z" horiz-adv-x="1247" unicode="Z"/><glyph d="M-8 -266l284 1792h324l-20 -127h-179l-243 -1538h178l-21 -127h-323z" glyph-name="bracketleft" horiz-adv-x="561" unicode="["/><glyph d="M539 0l-334 1434h139l334 -1434h-139z" glyph-name="backslash" horiz-adv-x="823" unicode="\"/><glyph d="M600 1526l-285 -1792h-323l20 127h178l244 1538h-178l20 127h324z" glyph-name="bracketright" horiz-adv-x="561" unicode="]"/><glyph d="M158 952l424 482h100l268 -482h-119l-213 381l-333 -381h-127z" glyph-name="asciicircum" horiz-adv-x="976" unicode="^"/><glyph d="M-12 -129l20 129h1024l-20 -129h-1024z" glyph-name="underscore" horiz-adv-x="1208" unicode="_"/><glyph d="M317 1192l-167 266h129l167 -266h-129z" glyph-name="grave" horiz-adv-x="342" unicode="`"/><glyph d="M334 -20q-145 0 -227 62t-82 189q0 141 102 229.5t283 110.5l274 31q90 10 123 27.5t41 56.5l6 37q25 135 -34.5 192.5t-203.5 57.5q-274 0 -309 -207l-4 -25h-137l4 35q47 309 467 309q215 0 304 -86t58 -276l-114 -723h-137l28 184h-8q-41 -66 -154.5 -135t-279.5 -69z M170 250q0 -154 207 -154q174 0 291.5 92.5t132.5 188.5l24 168q-18 -39 -168 -58l-227 -26q-260 -31 -260 -211z" glyph-name="a" horiz-adv-x="1087" unicode="a"/><glyph d="M565 -20q-123 0 -219 52t-137 148l-29 -180h-145l227 1434h146l-86 -549q70 96 180 148t233 52q178 0 291 -109.5t113 -326.5q0 -279 -160 -474t-414 -195zM250 436q0 -162 89 -248t224 -86q190 0 313 155t123 364q0 168 -87 255t-222 87q-193 0 -316.5 -156t-123.5 -371 z" glyph-name="b" horiz-adv-x="1200" unicode="b"/><glyph d="M496 -20q-195 0 -315 113.5t-120 338.5q0 270 167 461.5t434 191.5q170 0 283.5 -88t111.5 -288h-133q-2 131 -81 191.5t-196 60.5q-203 0 -324.5 -153t-121.5 -364q0 -170 84 -255t227 -85q119 0 215 60.5t141 195.5h131q-39 -139 -126 -229t-180 -120.5t-197 -30.5z " glyph-name="c" horiz-adv-x="1089" unicode="c"/><glyph d="M463 -20q-176 0 -290 110.5t-114 325.5q0 274 160 471.5t412 197.5q125 0 221 -51t137 -149l88 549h146l-228 -1434h-145l29 180q-72 -96 -182.5 -148t-233.5 -52zM201 444q0 -168 86 -255t221 -87q193 0 316.5 155t123.5 366q0 166 -89 253t-224 87q-190 0 -312 -155 t-122 -364z" glyph-name="d" horiz-adv-x="1198" unicode="d"/><glyph d="M489 -23q-201 0 -314.5 110t-113.5 335q0 178 68 327.5t203 242.5t313 93q186 0 294 -101t108 -292q0 -123 -27 -203h-817q-2 -18 -2 -57q0 -176 76.5 -257t230.5 -81q238 0 338 197h133q-140 -314 -490 -314zM219 596h682q33 178 -42 275.5t-230 97.5 q-164 0 -268.5 -103.5t-141.5 -269.5z" glyph-name="e" horiz-adv-x="1099" unicode="e"/><glyph d="M303 1214q41 252 305 252h109l-19 -116h-69q-86 0 -128 -36t-57 -124l-20 -125h223l-18 -117h-223l-150 -948h-145l149 948h-145l16 117h148z" glyph-name="f" horiz-adv-x="620" unicode="f"/><glyph d="M459 23q-174 0 -286 104t-112 309q0 268 157 458.5t405 190.5q123 0 219 -50t139 -146l29 176h145l-149 -940l-19 -111q-20 -125 -78.5 -216t-142.5 -138t-170 -67.5t-180 -20.5q-90 0 -166 18.5t-138.5 55.5t-91 102.5t-16.5 151.5h127q-10 -98 72 -154.5t225 -56.5 q162 0 274.5 78.5t139.5 246.5l35 207q-74 -96 -185.5 -147t-232.5 -51zM203 467q0 -158 85 -240t218 -82q190 0 314 144.5t124 347.5q0 160 -87 243t-224 83q-190 0 -310 -145.5t-120 -350.5z" glyph-name="g" horiz-adv-x="1189" unicode="g"/><glyph d="M35 0l227 1434h146l-89 -562q41 76 142.5 144.5t255.5 68.5q172 0 266 -103t57 -327l-102 -655h-145l98 627q55 334 -236 334q-145 0 -244.5 -84t-127.5 -230l-103 -647h-145z" glyph-name="h" unicode="h"/><glyph d="M35 0l168 1065h145l-168 -1065h-145zM231 1382q0 39 29 67t68 28t66.5 -28t27.5 -67t-27.5 -66.5t-66.5 -27.5t-68 27.5t-29 66.5z" glyph-name="i" horiz-adv-x="385" unicode="i"/><glyph d="M-106 -383q-49 0 -107 6l18 115h64q88 0 130 36t56 126l187 1165h145l-190 -1194q-37 -254 -303 -254zM270 1382q0 39 28 67t66.5 28t66.5 -28t28 -67t-28 -66.5t-66.5 -27.5t-66.5 27.5t-28 66.5z" glyph-name="j" horiz-adv-x="421" unicode="j"/><glyph d="M35 0l227 1434h146l-152 -961l666 592h168l-529 -463l422 -602h-162l-362 510l-230 -201l-49 -309h-145z" glyph-name="k" horiz-adv-x="1093" unicode="k"/><glyph d="M35 0l227 1434h146l-228 -1434h-145z" glyph-name="l" horiz-adv-x="385" unicode="l"/><glyph d="M1534 627q53 334 -213 334q-131 0 -221 -84t-119 -232l-100 -645h-146l99 627q53 334 -211 334q-137 0 -227.5 -88.5t-114.5 -243.5v8l-101 -637h-145l168 1065h145l-31 -199q37 76 131.5 147.5t243.5 71.5q256 0 295 -233q45 88 143.5 160.5t253.5 72.5q166 0 251 -103 t48 -327l-104 -655h-145z" glyph-name="m" horiz-adv-x="1783" unicode="m"/><glyph d="M891 627q55 334 -236 334q-150 0 -250 -88.5t-124 -243.5v8l-101 -637h-145l168 1065h145l-31 -195q41 78 144.5 146.5t255.5 68.5q172 0 266 -103t57 -327l-102 -655h-145z" glyph-name="n" unicode="n"/><glyph d="M496 -20q-190 0 -312.5 113.5t-122.5 334.5q0 266 168 461.5t428 195.5q190 0 313.5 -113.5t123.5 -334.5q0 -268 -168 -462.5t-430 -194.5zM203 442q0 -172 86 -256t223 -84q195 0 316.5 157t121.5 366q0 170 -86 254t-223 84q-195 0 -316.5 -156t-121.5 -365z" glyph-name="o" horiz-adv-x="1155" unicode="o"/><glyph d="M-27 -389l230 1454h145l-26 -180q70 98 178 149t229 51q176 0 293 -109.5t117 -322.5q0 -281 -161 -477t-415 -196q-123 0 -218 52t-136 148l-90 -569h-146zM250 442q0 -166 88 -253t223 -87q193 0 314.5 156t121.5 367q0 166 -87 252t-220 86q-193 0 -316.5 -155 t-123.5 -366z" glyph-name="p" horiz-adv-x="1200" unicode="p"/><glyph d="M788 -389l91 571q-72 -98 -182.5 -150t-233.5 -52q-176 0 -290 110.5t-114 325.5q0 274 160 471.5t412 197.5q125 0 221 -51t137 -149l29 180h145l-229 -1454h-146zM201 444q0 -168 86 -255t221 -87q193 0 316.5 155t123.5 366q0 166 -89 253t-224 87q-190 0 -312 -155 t-122 -364z" glyph-name="q" horiz-adv-x="1200" unicode="q"/><glyph d="M35 0l168 1065h145l-37 -236h4q41 96 137.5 170t239.5 74q51 0 80 -10l-20 -123q-37 6 -76 6q-160 0 -266.5 -96t-137.5 -260l-92 -590h-145z" glyph-name="r" horiz-adv-x="735" unicode="r"/><glyph d="M412 -20q-184 0 -296 79.5t-96 235.5h134q-4 -104 74.5 -151.5t197.5 -47.5q133 0 219 55.5t86 159.5q0 70 -43 102.5t-139 59.5l-176 43q-242 61 -242 250q0 147 121 233t313 86q178 0 276.5 -77.5t84.5 -231.5h-123q-2 193 -250 193q-129 0 -205 -49.5t-76 -137.5 q0 -59 40 -96t134 -61l172 -43q131 -35 197 -90.5t66 -165.5q0 -164 -134 -255t-335 -91z" glyph-name="s" horiz-adv-x="976" unicode="s"/><glyph d="M397 -14q-266 0 -225 254l113 708h-170l16 117h172l41 264h145l-40 -264h210l-16 -117h-213l-108 -680q-14 -88 16.5 -125t118.5 -37h69l-20 -114q-37 -6 -109 -6z" glyph-name="t" horiz-adv-x="651" unicode="t"/><glyph d="M250 438q-55 -334 235 -334q150 0 250.5 88.5t124.5 243.5v-8l101 637h145l-168 -1065h-145l30 195q-41 -78 -144.5 -146.5t-254.5 -68.5q-172 0 -266.5 103t-57.5 327l103 655h145z" glyph-name="u" unicode="u"/><glyph d="M379 0l-248 1065h148l210 -928h5l499 928h152l-582 -1065h-184z" glyph-name="v" horiz-adv-x="1107" unicode="v"/><glyph d="M270 0l-139 1065h141l109 -913h8l436 913h131l154 -913h8l395 913h142l-469 -1065h-172l-150 872l-420 -872h-174z" glyph-name="w" horiz-adv-x="1619" unicode="w"/><glyph d="M-16 0l467 539l-289 526h160l223 -420l354 420h168l-457 -526l297 -539h-157l-234 432l-366 -432h-166z" glyph-name="x" horiz-adv-x="1060" unicode="x"/><glyph d="M33 -266q201 -29 309 168q47 84 33 145l-244 1018h150l200 -901l486 901h153l-645 -1163q-96 -176 -206.5 -245t-254.5 -50z" glyph-name="y" horiz-adv-x="1083" unicode="y"/><glyph d="M-2 0l20 125l805 815h-657l20 125h832l-21 -125l-804 -815h677l-20 -125h-852z" glyph-name="z" horiz-adv-x="1015" unicode="z"/><glyph d="M225 -266q-70 0 -111.5 45t-29.5 125l92 577l-70 146l117 149l92 580q12 80 68.5 125t126.5 45h121l-21 -127h-71q-72 0 -82 -70l-90 -563l-111 -139l68 -135l-91 -562q-4 -33 12.5 -51t49.5 -18h72l-21 -127h-121z" glyph-name="braceleft" horiz-adv-x="565" unicode="{"/><glyph d="M8 -389l322 2027h129l-322 -2027h-129z" glyph-name="bar" horiz-adv-x="436" unicode="|"/><glyph d="M371 1526q70 0 111.5 -45t29.5 -125l-92 -578l69 -145l-116 -150l-92 -579q-12 -80 -68.5 -125t-126.5 -45h-121l21 127h71q72 0 82 69l90 564l111 139l-68 135l90 561q4 33 -12 51.5t-49 18.5h-72l21 127h121z" glyph-name="braceright" horiz-adv-x="565" unicode="}"/><glyph d="M651 461q-80 0 -179 77.5t-161 77.5q-55 0 -85.5 -29.5t-28.5 -66.5h-76q0 96 59.5 152.5t147.5 56.5q80 0 179 -78t161 -78q57 0 86.5 30t27.5 67h76q0 -96 -59.5 -152.5t-147.5 -56.5z" glyph-name="asciitilde" horiz-adv-x="958" unicode="~"/><glyph glyph-name="uni00A0" horiz-adv-x="471" unicode=" "/><glyph d="M311 674l-151 -1043h-150l180 1043h121zM193 979q0 45 30.5 75.5t75.5 30.5q43 0 75 -30.5t32 -75.5q0 -43 -32 -75t-75 -32q-45 0 -75.5 32t-30.5 75z" glyph-name="exclamdown" horiz-adv-x="454" unicode="¡"/><glyph d="M434 -82l35 217q-174 14 -279.5 126t-105.5 317q0 252 153.5 436t403.5 200l35 220h72l-35 -217q160 -6 264 -94.5t102 -274.5h-133q-2 121 -72.5 181.5t-179.5 66.5l-135 -840q254 16 332 250h131q-53 -193 -186.5 -280t-294.5 -93l-35 -215h-72zM223 590 q0 -152 71 -236t193 -96l134 836q-180 -18 -289 -164.5t-109 -339.5z" glyph-name="cent" horiz-adv-x="1089" unicode="¢"/><glyph d="M31 84q264 225 264 453q0 35 -6 65h-178l14 92h141q-4 16 -20.5 64.5t-23.5 74t-14 68.5t-7 82q0 203 143 334t358 131q199 0 306.5 -114.5t76.5 -311.5l-6 -39h-137l6 35q23 143 -49 223t-211 80q-152 0 -249 -90t-97 -236q0 -47 10 -94t33 -114.5t29 -92.5h280l-14 -92 h-250q4 -37 4 -55q0 -229 -254 -436q96 35 195.5 34.5t173.5 -18.5t176 -22.5t203 22.5l-21 -127q-109 -27 -218 -19.5t-190 28t-192.5 18.5t-224.5 -47z" glyph-name="sterling" horiz-adv-x="1107" unicode="£"/><glyph d="M696.5 516q-157.5 0 -280.5 94l-88 -90l-99 96l95 93q-86 115 -86 266q0 145 86 268l-95 94l99 97l92 -93q121 92 276.5 92.5t278.5 -94.5l94 95l96 -97l-96 -96q86 -115 86 -266q0 -147 -84 -264l94 -95l-96 -96l-92 92q-123 -96 -280.5 -96zM362 975 q0 -131 96.5 -233.5t238 -102.5t239.5 102.5t98 233.5t-98 233.5t-240 102.5q-139 0 -236.5 -102.5t-97.5 -233.5z" glyph-name="currency" horiz-adv-x="1253" unicode="¤"/><glyph d="M301 469l14 94h275v2l-389 869h170l317 -723l545 723h174l-666 -869v-2h275l-15 -94h-274l-18 -113h274l-14 -92h-275l-41 -264h-153l43 264h-275l15 92h274l18 113h-274z" glyph-name="yen" horiz-adv-x="1320" unicode="¥"/><glyph d="M225 983l105 655h129l-105 -655h-129zM8 -389l103 655h129l-103 -655h-129z" glyph-name="brokenbar" horiz-adv-x="436" unicode="¦"/><glyph d="M473 -483q-246 0 -360.5 110.5t-106.5 304.5h160q0 -281 332 -280q369 0 407 262q37 215 -233 274l-205 45q-362 80 -315 377q23 150 135 244q-61 86 -41 223q27 168 168 270.5t372 102.5q223 0 332 -94t105 -266h-156q-2 106 -69.5 165.5t-231.5 59.5q-168 0 -257 -66.5 t-106 -173.5q-29 -197 209 -248l183 -41q203 -45 296 -138t66 -269q-20 -145 -125 -244q51 -90 31 -223q-29 -188 -184.5 -291.5t-405.5 -103.5zM309 608q-29 -197 209 -248l182 -41q150 -33 234 -86q53 59 65 146q37 217 -233 276l-205 45q-100 23 -170 62 q-70 -64 -82 -154z" glyph-name="section" horiz-adv-x="1286" unicode="§"/><glyph d="M602 1288q-39 0 -67.5 27.5t-28.5 66.5t28.5 67t67.5 28t66.5 -28t27.5 -67t-27.5 -66.5t-66.5 -27.5zM135 1382q0 39 29 67t67.5 28t66.5 -28t28 -67t-28 -66.5t-66.5 -27.5t-67.5 27.5t-29 66.5z" glyph-name="dieresis" horiz-adv-x="563" unicode="¨"/><glyph d="M741 -14q-276 0 -454 171t-178 445q0 342 253.5 593t600.5 251q274 0 451 -171t177 -444q0 -342 -252 -593.5t-598 -251.5zM205 614q0 -240 153.5 -388t393.5 -148q305 0 524 221t219 520q0 240 -152.5 387.5t-392.5 147.5q-303 0 -524 -220.5t-221 -519.5zM432 645 q0 207 139.5 355.5t348.5 148.5q123 0 212 -59.5t107 -192.5h-102q-33 158 -232 158q-164 0 -267 -117t-103 -283q0 -133 72.5 -205.5t197.5 -72.5q199 0 278 162h103q-61 -135 -168 -195.5t-227 -60.5q-158 0 -258.5 95t-100.5 267z" glyph-name="copyright" horiz-adv-x="1642" unicode="©"/><glyph d="M322 784q-84 0 -134.5 41t-50.5 125q0 188 250 209l244 21q14 100 -13.5 142t-123.5 42q-166 0 -181 -117h-94q25 201 283 201q152 0 200 -68.5t25 -222.5l-57 -369h-90l14 117q-41 -49 -115.5 -85t-156.5 -36zM244 969q0 -98 121 -99q84 0 148.5 42t88.5 87l16 111 l-225 -20q-149 -15 -149 -121z" glyph-name="ordfeminine" horiz-adv-x="747" unicode="ª"/><glyph d="M688 301l-256 252l19 117l335 252l-22 -144l-219 -168l166 -168zM86 553l16 117l336 252l-22 -144l-217 -168l163 -168l-22 -141z" glyph-name="guillemotleft" horiz-adv-x="806" unicode="«"/><glyph d="M743 283l39 237h-665l18 119h811l-57 -356h-146z" glyph-name="logicalnot" horiz-adv-x="1048" unicode="¬"/><glyph d="M80 516l18 115h555l-20 -115h-553z" glyph-name="uni00AD" horiz-adv-x="718" unicode="­"/><glyph d="M741 -14q-276 0 -454 171t-178 445q0 342 253.5 593t600.5 251q274 0 451 -171t177 -444q0 -342 -252 -593.5t-598 -251.5zM205 614q0 -240 153.5 -388t393.5 -148q305 0 524 221t219 520q0 240 -152.5 387.5t-392.5 147.5q-303 0 -524 -220.5t-221 -519.5zM494 330 l122 774h365q117 0 181.5 -56.5t64.5 -159t-64.5 -176t-171.5 -96.5l150 -286h-109l-139 278h-256l-45 -278h-98zM649 690h254q106 0 168 52.5t62 136.5q0 143 -177 143h-254z" glyph-name="registered" horiz-adv-x="1642" unicode="®"/><glyph d="M133 1364l12 94h596l-14 -94h-594z" glyph-name="macron" horiz-adv-x="595" unicode="¯"/><glyph d="M483 866q-127 0 -214 86t-87 215q0 127 87 213t214 86t214 -86t87 -213q0 -129 -87 -215t-214 -86zM289 1167q0 -86 55 -140t139 -54t139.5 54t55.5 140t-54.5 139.5t-140.5 53.5t-140 -53.5t-54 -139.5z" glyph-name="degree" horiz-adv-x="765" unicode="°"/><glyph d="M131 0l19 115h704l-18 -115h-705zM145 688l21 131h358l58 361h137l-57 -361h360l-21 -131h-360l-57 -360h-138l58 360h-359z" glyph-name="plusminus" horiz-adv-x="1095" unicode="±"/><glyph d="M145 924q8 74 52.5 128t138.5 107q6 4 22.5 13.5t21.5 12.5t18.5 10t18.5 11t14 11.5t13.5 11.5t10.5 12t9 15.5t6 15.5t5 18q6 41 -18.5 66.5t-69.5 25.5q-100 0 -119 -104l-2 -12h-65l2 12q10 76 61 121t131 45t118 -42t28 -108q-10 -61 -53.5 -101t-127.5 -85 q-131 -74 -135 -139v-6h271l-11 -62h-342z" glyph-name="uni00B2" horiz-adv-x="518" unicode="²"/><glyph d="M334 893q-92 0 -135 47t-31 127h63q-14 -117 113 -117q123 0 141 103q8 49 -25.5 75.5t-97.5 26.5h-22l8 51h23q55 0 90 25.5t41 64.5q6 41 -18.5 65.5t-73.5 24.5q-113 0 -127 -110h-64q10 80 63.5 124t133.5 44t118.5 -41t28.5 -103q-14 -90 -112 -114q45 -8 75.5 -43 t20.5 -94q-10 -68 -66.5 -112t-146.5 -44z" glyph-name="uni00B3" horiz-adv-x="546" unicode="³"/><glyph d="M104 1192l248 266h133l-247 -266h-134z" glyph-name="acute" horiz-adv-x="339" unicode="´"/><glyph d="M-27 -389l230 1454h145l-98 -627q-55 -334 235 -334q150 0 250.5 88.5t124.5 243.5v-8l101 637h145l-168 -1065h-145l30 195q-41 -78 -144.5 -146.5t-254.5 -68.5q-147 0 -236 73l-69 -442h-146z" glyph-name="uni00B5" unicode="µ"/><glyph d="M481 -451l170 1080h-147q-174 0 -267.5 92t-93.5 248q0 199 139.5 332t350.5 133h575l-299 -1885h-121l283 1786h-178l-283 -1786h-129z" glyph-name="paragraph" horiz-adv-x="1183" unicode="¶"/><glyph d="M213 469q-43 0 -75 30.5t-32 75.5q0 43 32 75t75 32q45 0 75.5 -32t30.5 -75q0 -45 -30.5 -75.5t-75.5 -30.5z" glyph-name="periodcentered" horiz-adv-x="413" unicode="·"/><glyph d="M-98 -358q80 -2 129 27.5t49 82.5q0 49 -41 66.5t-102 -6.5l-41 57l127 131h114l-108 -102q8 2 26 2q59 0 97 -36t38 -102q0 -102 -87 -155t-216 -53z" glyph-name="cedilla" horiz-adv-x="315" unicode="¸"/><glyph d="M319 1343q-35 -51 -114 -45l8 62q35 -2 69.5 20.5t51.5 53.5h63l-84 -535h-63z" glyph-name="uni00B9" horiz-adv-x="346" unicode="¹"/><glyph d="M440 784q-121 0 -201.5 74t-80.5 207q0 158 109.5 270.5t264.5 112.5q121 0 203 -72.5t82 -206.5q0 -158 -110.5 -271.5t-266.5 -113.5zM262 1073q0 -92 52.5 -142t136.5 -50q111 0 186.5 81.5t75.5 196.5q0 92 -53.5 142.5t-137.5 50.5q-111 0 -185.5 -82t-74.5 -197z " glyph-name="ordmasculine" horiz-adv-x="788" unicode="º"/><glyph d="M145 922l256 -252l-18 -117l-336 -252l23 143l219 168l-166 168zM395 301l23 143l217 168l-164 168l23 142l254 -252l-17 -117z" glyph-name="guillemotright" horiz-adv-x="808" unicode="»"/><glyph d="M319 1343q-35 -51 -114 -45l8 62q35 -2 69.5 20.5t51.5 53.5h63l-84 -535h-63zM14 0l1123 1434h82l-1121 -1434h-84zM674 135l10 53l297 347h66l-56 -347h62l-9 -53h-61l-20 -135h-66l21 135h-244zM745 188h183l41 261z" glyph-name="onequarter" horiz-adv-x="1198" unicode="¼"/><glyph d="M326 1343q-35 -51 -115 -45l8 62q35 -2 70 20.5t51 53.5h63l-84 -535h-63zM37 0l1122 1434h82l-1120 -1434h-84zM680 0l2 23q8 74 52 128t138 107q6 4 22.5 12.5t22 12.5t18.5 11t18 11t14.5 11.5t13.5 11.5t10 12t9.5 15t6.5 15.5t5 18.5q6 41 -18.5 66.5t-69.5 25.5 q-100 0 -119 -104l-2 -12h-66l2 12q10 76 61.5 121t131.5 45t117.5 -42t27.5 -108q-10 -61 -53 -101t-127 -85q-131 -74 -135 -139v-7h270l-10 -61h-342z" glyph-name="onehalf" horiz-adv-x="1198" unicode="½"/><glyph d="M334 893q-92 0 -135 47t-31 127h63q-14 -117 113 -117q123 0 141 103q8 49 -25.5 75.5t-97.5 26.5h-22l8 51h23q55 0 90 25.5t41 64.5q6 41 -18.5 65.5t-73.5 24.5q-113 0 -127 -110h-64q10 80 63.5 124t133.5 44t118.5 -41t28.5 -103q-14 -90 -112 -114q45 -8 75.5 -43 t20.5 -94q-10 -68 -66.5 -112t-146.5 -44zM111 0l1122 1434h82l-1120 -1434h-84zM717 135l10 53l297 347h66l-56 -347h62l-9 -53h-61l-20 -135h-66l21 135h-244zM788 188h183l41 261z" glyph-name="threequarters" horiz-adv-x="1263" unicode="¾"/><glyph d="M606 584q-14 -82 -51 -146.5t-83 -101.5t-98 -75t-97.5 -68.5t-80 -82t-44.5 -114.5q-20 -117 48 -184.5t197 -67.5q141 0 235.5 84t117.5 244h145q-29 -219 -166 -337t-344 -118q-195 0 -300 101.5t-79 279.5q14 92 61.5 158.5t106.5 107.5t117.5 79t104.5 97.5 t59 141.5l14 92h154zM481 979q0 45 31 75.5t76 30.5q43 0 74.5 -30.5t31.5 -75.5q0 -43 -31.5 -75t-74.5 -32q-45 0 -76 32t-31 75z" glyph-name="questiondown" horiz-adv-x="1060" unicode="¿"/><glyph d="M-37 0l780 1434h183l323 -1434h-155l-80 371h-690l-199 -371h-162zM387 487h600l-170 783h-10zM618 1827h130l167 -266h-129z" glyph-name="Agrave" horiz-adv-x="1380" unicode="À"/><glyph d="M-37 0l780 1434h183l323 -1434h-155l-80 371h-690l-199 -371h-162zM387 487h600l-170 783h-10zM752 1561l247 266h134l-248 -266h-133z" glyph-name="Aacute" horiz-adv-x="1380" unicode="Á"/><glyph d="M-37 0l780 1434h183l323 -1434h-155l-80 371h-690l-199 -371h-162zM387 487h600l-170 783h-10zM547 1565l248 262h202l166 -262h-139l-133 213l-199 -213h-145z" glyph-name="Acircumflex" horiz-adv-x="1380" unicode="Â"/><glyph d="M-37 0l780 1434h183l323 -1434h-155l-80 371h-690l-199 -371h-162zM387 487h600l-170 783h-10zM551 1657q14 94 66.5 142t127.5 48q49 0 89 -22.5t60.5 -48t51.5 -48t66 -22.5q45 0 71.5 28.5t30.5 65.5h96q-14 -92 -65 -141t-127 -49q-49 0 -89 22.5t-60.5 48t-52.5 48 t-66 22.5q-43 0 -70 -28.5t-33 -65.5h-96z" glyph-name="Atilde" horiz-adv-x="1380" unicode="Ã"/><glyph d="M-37 0l780 1434h183l323 -1434h-155l-80 371h-690l-199 -371h-162zM387 487h600l-170 783h-10zM606 1751q0 39 29 66.5t67.5 27.5t66.5 -27.5t28 -66.5t-28 -66.5t-66.5 -27.5t-67.5 27.5t-29 66.5zM977 1751q0 39 28.5 66.5t67.5 27.5t66.5 -27.5t27.5 -66.5 t-27.5 -66.5t-66.5 -27.5t-67.5 27.5t-28.5 66.5z" glyph-name="Adieresis" horiz-adv-x="1380" unicode="Ä"/><glyph d="M-37 0l780 1434h183l323 -1434h-155l-80 371h-690l-199 -371h-162zM387 487h600l-170 783h-10zM707 1712q0 72 50 121t125.5 49t126 -49t50.5 -121t-51.5 -122t-125 -50t-124.5 50t-51 122zM786 1712q0 -41 28 -68.5t69 -27.5t68.5 27.5t27.5 68.5t-28.5 68.5t-67.5 27.5 t-68 -27.5t-29 -68.5z" glyph-name="Aring" horiz-adv-x="1380" unicode="Å"/><glyph d="M-37 0l1206 1432v2h904l-23 -134h-752l-79 -501h690l-19 -123h-690l-86 -543h772l-20 -133h-924l59 379h-557l-317 -379h-164zM549 502h473l111 694z" glyph-name="AE" horiz-adv-x="2017" unicode="Æ"/><glyph d="M471 -358q80 -2 129 27.5t49 82.5q0 49 -41 66.5t-102 -6.5l-41 57l113 115q-219 25 -343 175t-124 419q0 362 205.5 618t551.5 256q221 0 356.5 -110.5t139.5 -315.5h-141q-16 143 -112.5 219t-252.5 76q-186 0 -325.5 -108.5t-206 -271.5t-66.5 -349 q0 -238 112.5 -359.5t307.5 -121.5q156 0 267.5 76.5t172.5 220.5h148q-68 -205 -220.5 -313.5t-363.5 -114.5l-86 -82q8 2 27 2q59 0 97 -36t38 -102q0 -102 -87 -155t-216 -53z" glyph-name="Ccedilla" horiz-adv-x="1347" unicode="Ç"/><glyph d="M35 0l227 1434h903l-22 -134h-752l-80 -501h690l-18 -123h-690l-86 -543h772l-21 -133h-923zM496 1827h129l168 -266h-129z" glyph-name="Egrave" horiz-adv-x="1110" unicode="È"/><glyph d="M35 0l227 1434h903l-22 -134h-752l-80 -501h690l-18 -123h-690l-86 -543h772l-21 -133h-923zM629 1561l248 266h133l-248 -266h-133z" glyph-name="Eacute" horiz-adv-x="1110" unicode="É"/><glyph d="M35 0l227 1434h903l-22 -134h-752l-80 -501h690l-18 -123h-690l-86 -543h772l-21 -133h-923zM424 1565l248 262h202l166 -262h-139l-133 213l-199 -213h-145z" glyph-name="Ecircumflex" horiz-adv-x="1110" unicode="Ê"/><glyph d="M35 0l227 1434h903l-22 -134h-752l-80 -501h690l-18 -123h-690l-86 -543h772l-21 -133h-923zM481 1751q0 39 29 66.5t67.5 27.5t66.5 -27.5t28 -66.5t-28 -66.5t-66.5 -27.5t-67.5 27.5t-29 66.5zM852 1751q0 39 28.5 66.5t67.5 27.5t66.5 -27.5t27.5 -66.5t-27.5 -66.5 t-66.5 -27.5t-67.5 27.5t-28.5 66.5z" glyph-name="Edieresis" horiz-adv-x="1110" unicode="Ë"/><glyph d="M35 0l227 1434h152l-228 -1434h-151zM121 1827h129l168 -266h-129z" glyph-name="Igrave" horiz-adv-x="389" unicode="Ì"/><glyph d="M35 0l227 1434h152l-228 -1434h-151zM254 1561l248 266h133l-248 -266h-133z" glyph-name="Iacute" horiz-adv-x="389" unicode="Í"/><glyph d="M35 0l227 1434h152l-228 -1434h-151zM47 1565l248 262h203l166 -262h-140l-133 213l-198 -213h-146z" glyph-name="Icircumflex" horiz-adv-x="389" unicode="Î"/><glyph d="M35 0l227 1434h152l-228 -1434h-151zM106 1751q0 39 29 66.5t68 27.5t66.5 -27.5t27.5 -66.5t-27.5 -66.5t-66.5 -27.5t-68 27.5t-29 66.5zM477 1751q0 39 29 66.5t67.5 27.5t66.5 -27.5t28 -66.5t-28 -66.5t-66.5 -27.5t-67.5 27.5t-29 66.5z" glyph-name="Idieresis" horiz-adv-x="389" unicode="Ï"/><glyph d="M80 0l104 655h-143l18 115h144l104 664h449q289 0 432 -144.5t143 -439.5q0 -375 -210 -612.5t-584 -237.5h-457zM252 133h287q313 0 478 201t165 514q0 240 -107.5 346t-339.5 106h-299l-84 -530h262l-20 -115h-260z" glyph-name="Eth" horiz-adv-x="1382" unicode="Ð"/><glyph d="M35 0l227 1434h172l586 -1205h6l191 1205h149l-227 -1434h-174l-584 1200h-6l-189 -1200h-151zM530 1657q14 94 66.5 142t128.5 48q49 0 89 -22.5t60.5 -48t51 -48t65.5 -22.5q45 0 72 28.5t31 65.5h96q-14 -92 -65.5 -141t-127.5 -49q-49 0 -89 22.5t-60.5 48t-52 48 t-66.5 22.5q-43 0 -69.5 -28.5t-32.5 -65.5h-97z" glyph-name="Ntilde" horiz-adv-x="1343" unicode="Ñ"/><glyph d="M657 -20q-252 0 -400 152.5t-148 442.5q0 231 89 430t265 323t403 124q252 0 400.5 -152.5t148.5 -443.5q0 -231 -90 -429t-265.5 -322.5t-402.5 -124.5zM260 580q0 -236 109.5 -352.5t298.5 -116.5q184 0 323 110.5t207 276.5t68 354q0 233 -109.5 351t-298.5 118 q-184 0 -324.5 -109.5t-207 -275.5t-66.5 -356zM659 1827h129l168 -266h-129z" glyph-name="Ograve" horiz-adv-x="1466" unicode="Ò"/><glyph d="M657 -20q-252 0 -400 152.5t-148 442.5q0 231 89 430t265 323t403 124q252 0 400.5 -152.5t148.5 -443.5q0 -231 -90 -429t-265.5 -322.5t-402.5 -124.5zM260 580q0 -236 109.5 -352.5t298.5 -116.5q184 0 323 110.5t207 276.5t68 354q0 233 -109.5 351t-298.5 118 q-184 0 -324.5 -109.5t-207 -275.5t-66.5 -356zM793 1561l247 266h134l-248 -266h-133z" glyph-name="Oacute" horiz-adv-x="1466" unicode="Ó"/><glyph d="M657 -20q-252 0 -400 152.5t-148 442.5q0 231 89 430t265 323t403 124q252 0 400.5 -152.5t148.5 -443.5q0 -231 -90 -429t-265.5 -322.5t-402.5 -124.5zM260 580q0 -236 109.5 -352.5t298.5 -116.5q184 0 323 110.5t207 276.5t68 354q0 233 -109.5 351t-298.5 118 q-184 0 -324.5 -109.5t-207 -275.5t-66.5 -356zM586 1565l248 262h202l166 -262h-139l-133 213l-199 -213h-145z" glyph-name="Ocircumflex" horiz-adv-x="1466" unicode="Ô"/><glyph d="M657 -20q-252 0 -400 152.5t-148 442.5q0 231 89 430t265 323t403 124q252 0 400.5 -152.5t148.5 -443.5q0 -231 -90 -429t-265.5 -322.5t-402.5 -124.5zM260 580q0 -236 109.5 -352.5t298.5 -116.5q184 0 323 110.5t207 276.5t68 354q0 233 -109.5 351t-298.5 118 q-184 0 -324.5 -109.5t-207 -275.5t-66.5 -356zM590 1657q14 94 66.5 142t127.5 48q49 0 89 -22.5t60.5 -48t51.5 -48t66 -22.5q45 0 71.5 28.5t30.5 65.5h96q-14 -92 -66.5 -141t-125.5 -49q-49 0 -89 22.5t-60.5 48t-52.5 48t-67 22.5q-43 0 -69.5 -28.5t-32.5 -65.5h-96z " glyph-name="Otilde" horiz-adv-x="1466" unicode="Õ"/><glyph d="M657 -20q-252 0 -400 152.5t-148 442.5q0 231 89 430t265 323t403 124q252 0 400.5 -152.5t148.5 -443.5q0 -231 -90 -429t-265.5 -322.5t-402.5 -124.5zM260 580q0 -236 109.5 -352.5t298.5 -116.5q184 0 323 110.5t207 276.5t68 354q0 233 -109.5 351t-298.5 118 q-184 0 -324.5 -109.5t-207 -275.5t-66.5 -356zM645 1751q0 39 28.5 66.5t67.5 27.5t67 -27.5t28 -66.5t-28 -66.5t-67 -27.5t-67.5 27.5t-28.5 66.5zM1016 1751q0 39 28.5 66.5t67.5 27.5t66.5 -27.5t27.5 -66.5t-27.5 -66.5t-66.5 -27.5t-67.5 27.5t-28.5 66.5z" glyph-name="Odieresis" horiz-adv-x="1466" unicode="Ö"/><glyph d="M137 166l-78 90l297 258l-217 258l107 90l215 -258l295 258l78 -90l-297 -258l215 -258l-105 -90l-215 256z" glyph-name="multiply" horiz-adv-x="899" unicode="×"/><glyph d="M164 -102l131 200q-186 154 -186 477q0 231 89 430t265 323t403 124q152 0 275 -59l86 133h129l-125 -193q184 -152 184 -477q0 -231 -90 -429t-265 -322.5t-403 -124.5q-154 0 -272 59l-92 -141h-129zM260 580q0 -233 115 -359l688 1055q-88 45 -205 45 q-184 0 -324.5 -109.5t-207 -275.5t-66.5 -356zM461 156q88 -45 207 -45q184 0 323 110.5t207 276.5t68 354q0 236 -117 358z" glyph-name="Oslash" horiz-adv-x="1466" unicode="Ø"/><glyph d="M584 -20q-254 0 -379 147t-84 414l141 893h152l-142 -885q-33 -209 57.5 -322.5t278.5 -113.5q186 0 303 112.5t150 323.5l141 885h152l-142 -893q-43 -266 -208.5 -413.5t-419.5 -147.5zM588 1827h129l168 -266h-129z" glyph-name="Ugrave" horiz-adv-x="1329" unicode="Ù"/><glyph d="M584 -20q-254 0 -379 147t-84 414l141 893h152l-142 -885q-33 -209 57.5 -322.5t278.5 -113.5q186 0 303 112.5t150 323.5l141 885h152l-142 -893q-43 -266 -208.5 -413.5t-419.5 -147.5zM721 1561l248 266h133l-248 -266h-133z" glyph-name="Uacute" horiz-adv-x="1329" unicode="Ú"/><glyph d="M584 -20q-254 0 -379 147t-84 414l141 893h152l-142 -885q-33 -209 57.5 -322.5t278.5 -113.5q186 0 303 112.5t150 323.5l141 885h152l-142 -893q-43 -266 -208.5 -413.5t-419.5 -147.5zM514 1565l248 262h203l165 -262h-139l-133 213l-199 -213h-145z" glyph-name="Ucircumflex" horiz-adv-x="1329" unicode="Û"/><glyph d="M584 -20q-254 0 -379 147t-84 414l141 893h152l-142 -885q-33 -209 57.5 -322.5t278.5 -113.5q186 0 303 112.5t150 323.5l141 885h152l-142 -893q-43 -266 -208.5 -413.5t-419.5 -147.5zM573 1751q0 39 29 66.5t68 27.5t66.5 -27.5t27.5 -66.5t-27.5 -66.5t-66.5 -27.5 t-68 27.5t-29 66.5zM944 1751q0 39 28.5 66.5t67.5 27.5t67 -27.5t28 -66.5t-28 -66.5t-67 -27.5t-67.5 27.5t-28.5 66.5z" glyph-name="Udieresis" horiz-adv-x="1329" unicode="Ü"/><glyph d="M500 0l90 565l-389 869h170l317 -723l545 723h174l-666 -869l-88 -565h-153zM719 1561l248 266h133l-248 -266h-133z" glyph-name="Yacute" horiz-adv-x="1320" unicode="Ý"/><glyph d="M35 0l227 1434h150l-45 -281h407q436 0 436 -373q0 -229 -156.5 -364t-418.5 -135h-404l-45 -281h-151zM252 416h399q188 0 297 93t109 253q0 258 -309 258h-402z" glyph-name="Thorn" horiz-adv-x="1245" unicode="Þ"/><glyph d="M203 1059q63 393 506 393q193 0 297 -78t104 -231q0 -127 -72.5 -217t-203.5 -121q256 -61 256 -332q0 -225 -162 -349t-441 -124h-137l21 129h127q209 0 327.5 89t118.5 255q0 262 -350 262h-127l18 119h127q166 0 258.5 67.5t92.5 198.5q0 205 -271 205 q-154 0 -238.5 -64.5t-105.5 -201.5l-168 -1059h-145z" glyph-name="germandbls" horiz-adv-x="1173" unicode="ß"/><glyph d="M334 -20q-145 0 -227 62t-82 189q0 141 102 229.5t283 110.5l274 31q90 10 123 27.5t41 56.5l6 37q25 135 -34.5 192.5t-203.5 57.5q-274 0 -309 -207l-4 -25h-137l4 35q47 309 467 309q215 0 304 -86t58 -276l-114 -723h-137l28 184h-8q-41 -66 -154.5 -135t-279.5 -69z M170 250q0 -154 207 -154q174 0 291.5 92.5t132.5 188.5l24 168q-18 -39 -168 -58l-227 -26q-260 -31 -260 -211zM410 1458h129l168 -266h-129z" glyph-name="agrave" horiz-adv-x="1087" unicode="à"/><glyph d="M334 -20q-145 0 -227 62t-82 189q0 141 102 229.5t283 110.5l274 31q90 10 123 27.5t41 56.5l6 37q25 135 -34.5 192.5t-203.5 57.5q-274 0 -309 -207l-4 -25h-137l4 35q47 309 467 309q215 0 304 -86t58 -276l-114 -723h-137l28 184h-8q-41 -66 -154.5 -135t-279.5 -69z M170 250q0 -154 207 -154q174 0 291.5 92.5t132.5 188.5l24 168q-18 -39 -168 -58l-227 -26q-260 -31 -260 -211zM545 1192l248 266h133l-248 -266h-133z" glyph-name="aacute" horiz-adv-x="1087" unicode="á"/><glyph d="M334 -20q-145 0 -227 62t-82 189q0 141 102 229.5t283 110.5l274 31q90 10 123 27.5t41 56.5l6 37q25 135 -34.5 192.5t-203.5 57.5q-274 0 -309 -207l-4 -25h-137l4 35q47 309 467 309q215 0 304 -86t58 -276l-114 -723h-137l28 184h-8q-41 -66 -154.5 -135t-279.5 -69z M170 250q0 -154 207 -154q174 0 291.5 92.5t132.5 188.5l24 168q-18 -39 -168 -58l-227 -26q-260 -31 -260 -211zM338 1196l248 262h202l166 -262h-139l-133 213l-199 -213h-145z" glyph-name="acircumflex" horiz-adv-x="1087" unicode="â"/><glyph d="M334 -20q-145 0 -227 62t-82 189q0 141 102 229.5t283 110.5l274 31q90 10 123 27.5t41 56.5l6 37q25 135 -34.5 192.5t-203.5 57.5q-274 0 -309 -207l-4 -25h-137l4 35q47 309 467 309q215 0 304 -86t58 -276l-114 -723h-137l28 184h-8q-41 -66 -154.5 -135t-279.5 -69z M170 250q0 -154 207 -154q174 0 291.5 92.5t132.5 188.5l24 168q-18 -39 -168 -58l-227 -26q-260 -31 -260 -211zM342 1288q14 94 66.5 142.5t128.5 48.5q49 0 89 -22.5t60.5 -48.5t51 -48.5t65.5 -22.5q45 0 71.5 29t30.5 66h96q-14 -92 -65 -141.5t-127 -49.5 q-49 0 -89 22.5t-60.5 48t-52.5 48t-66 22.5q-43 0 -70 -28.5t-33 -65.5h-96z" glyph-name="atilde" horiz-adv-x="1087" unicode="ã"/><glyph d="M334 -20q-145 0 -227 62t-82 189q0 141 102 229.5t283 110.5l274 31q90 10 123 27.5t41 56.5l6 37q25 135 -34.5 192.5t-203.5 57.5q-274 0 -309 -207l-4 -25h-137l4 35q47 309 467 309q215 0 304 -86t58 -276l-114 -723h-137l28 184h-8q-41 -66 -154.5 -135t-279.5 -69z M170 250q0 -154 207 -154q174 0 291.5 92.5t132.5 188.5l24 168q-18 -39 -168 -58l-227 -26q-260 -31 -260 -211zM397 1382q0 39 29 67t67.5 28t66.5 -28t28 -67t-28 -66.5t-66.5 -27.5t-67.5 27.5t-29 66.5zM768 1382q0 39 28.5 67t67.5 28t66.5 -28t27.5 -67t-27.5 -66.5 t-66.5 -27.5t-67.5 27.5t-28.5 66.5z" glyph-name="adieresis" horiz-adv-x="1087" unicode="ä"/><glyph d="M334 -20q-145 0 -227 62t-82 189q0 141 102 229.5t283 110.5l274 31q90 10 123 27.5t41 56.5l6 37q25 135 -34.5 192.5t-203.5 57.5q-274 0 -309 -207l-4 -25h-137l4 35q47 309 467 309q215 0 304 -86t58 -276l-114 -723h-137l28 184h-8q-41 -66 -154.5 -135t-279.5 -69z M170 250q0 -154 207 -154q174 0 291.5 92.5t132.5 188.5l24 168q-18 -39 -168 -58l-227 -26q-260 -31 -260 -211zM498 1343.5q0 71.5 50 120.5t126 49t126 -49t50 -120.5t-51 -122t-125 -50.5t-125 50.5t-51 122zM578 1343.5q0 -40.5 27.5 -68.5t68.5 -28t68.5 28t27.5 68.5 t-28.5 68.5t-67.5 28t-67.5 -28t-28.5 -68.5z" glyph-name="aring" horiz-adv-x="1087" unicode="å"/><glyph d="M344 -20q-152 0 -234.5 67.5t-82.5 194.5q0 158 117.5 251t316.5 93h370l25 164q18 117 -44 169t-200 52q-266 0 -301 -191l-4 -24l-133 -2l6 41q51 291 451 290q303 0 346 -192q166 193 424 192q186 0 293.5 -101t107.5 -292q0 -123 -26 -203h-818q-2 -18 -2 -57 q0 -176 77 -257t231 -81q238 0 338 197h133q-139 -313 -490 -314q-324 0 -403 263q-66 -109 -196 -184.5t-302 -75.5zM176 264q0 -170 211 -170q168 0 282.5 96.5t129.5 190.5l16 111h-334q-137 0 -221 -61t-84 -167zM975 596h682q33 178 -42 275.5t-231 97.5 q-164 0 -268 -103.5t-141 -269.5z" glyph-name="ae" horiz-adv-x="1855" unicode="æ"/><glyph d="M317 -358q80 -2 129.5 27.5t49.5 82.5q0 49 -41 66.5t-103 -6.5l-41 57l111 115q-164 20 -262.5 133.5t-98.5 314.5q0 270 167 461.5t434 191.5q170 0 283.5 -88t111.5 -288h-133q-2 131 -81 191.5t-196 60.5q-203 0 -324.5 -153t-121.5 -364q0 -170 84 -255t227 -85 q119 0 215 60.5t141 195.5h131q-35 -131 -115.5 -218t-166.5 -120.5t-185 -39.5l-88 -84q8 2 27 2q59 0 97 -36t38 -102q0 -102 -87 -155t-216 -53z" glyph-name="ccedilla" horiz-adv-x="1089" unicode="ç"/><glyph d="M489 -23q-201 0 -314.5 110t-113.5 335q0 178 68 327.5t203 242.5t313 93q186 0 294 -101t108 -292q0 -123 -27 -203h-817q-2 -18 -2 -57q0 -176 76.5 -257t230.5 -81q238 0 338 197h133q-140 -314 -490 -314zM219 596h682q33 178 -42 275.5t-230 97.5 q-164 0 -268.5 -103.5t-141.5 -269.5zM422 1458h129l168 -266h-129z" glyph-name="egrave" horiz-adv-x="1099" unicode="è"/><glyph d="M489 -23q-201 0 -314.5 110t-113.5 335q0 178 68 327.5t203 242.5t313 93q186 0 294 -101t108 -292q0 -123 -27 -203h-817q-2 -18 -2 -57q0 -176 76.5 -257t230.5 -81q238 0 338 197h133q-140 -314 -490 -314zM219 596h682q33 178 -42 275.5t-230 97.5 q-164 0 -268.5 -103.5t-141.5 -269.5zM555 1192l248 266h133l-248 -266h-133z" glyph-name="eacute" horiz-adv-x="1099" unicode="é"/><glyph d="M489 -23q-201 0 -314.5 110t-113.5 335q0 178 68 327.5t203 242.5t313 93q186 0 294 -101t108 -292q0 -123 -27 -203h-817q-2 -18 -2 -57q0 -176 76.5 -257t230.5 -81q238 0 338 197h133q-140 -314 -490 -314zM219 596h682q33 178 -42 275.5t-230 97.5 q-164 0 -268.5 -103.5t-141.5 -269.5zM348 1196l248 262h203l166 -262h-140l-133 213l-198 -213h-146z" glyph-name="ecircumflex" horiz-adv-x="1099" unicode="ê"/><glyph d="M489 -23q-201 0 -314.5 110t-113.5 335q0 178 68 327.5t203 242.5t313 93q186 0 294 -101t108 -292q0 -123 -27 -203h-817q-2 -18 -2 -57q0 -176 76.5 -257t230.5 -81q238 0 338 197h133q-140 -314 -490 -314zM219 596h682q33 178 -42 275.5t-230 97.5 q-164 0 -268.5 -103.5t-141.5 -269.5zM408 1382q0 39 28.5 67t67.5 28t66.5 -28t27.5 -67t-27.5 -66.5t-66.5 -27.5t-67.5 27.5t-28.5 66.5zM778 1382q0 39 29 67t67.5 28t66.5 -28t28 -67t-28 -66.5t-66.5 -27.5t-67.5 27.5t-29 66.5z" glyph-name="edieresis" horiz-adv-x="1099" unicode="ë"/><glyph d="M12 0l168 1065h146l-168 -1065h-146zM35 1458h129l168 -266h-129z" glyph-name="igrave" horiz-adv-x="337" unicode="ì"/><glyph d="M12 0l168 1065h146l-168 -1065h-146zM170 1192l248 266h133l-248 -266h-133z" glyph-name="iacute" horiz-adv-x="337" unicode="í"/><glyph d="M12 0l168 1065h146l-168 -1065h-146zM-37 1196l248 262h203l166 -262h-140l-133 213l-198 -213h-146z" glyph-name="icircumflex" horiz-adv-x="337" unicode="î"/><glyph d="M12 0l168 1065h146l-168 -1065h-146zM23 1382q0 39 28.5 67t67.5 28t66.5 -28t27.5 -67t-27.5 -66.5t-66.5 -27.5t-67.5 27.5t-28.5 66.5zM393 1382q0 39 29 67t67.5 28t66.5 -28t28 -67t-28 -66.5t-66.5 -27.5t-67.5 27.5t-29 66.5z" glyph-name="idieresis" horiz-adv-x="337" unicode="ï"/><glyph d="M477 -20q-188 0 -303 111.5t-115 324.5q0 276 153 462.5t413 186.5q174 0 260 -100q-57 131 -152 282h-211l13 78h149q-6 10 -78 109h154l69 -109h291l-10 -78h-231q102 -174 145 -295t43 -247q0 -307 -162 -516t-428 -209zM205 432q0 -164 77.5 -243.5t211.5 -79.5 q197 0 309 158.5t112 373.5q0 297 -290 297q-203 0 -311.5 -144.5t-108.5 -361.5z" glyph-name="eth" horiz-adv-x="1171" unicode="ð"/><glyph d="M891 627q55 334 -236 334q-150 0 -250 -88.5t-124 -243.5v8l-101 -637h-145l168 1065h145l-31 -195q41 78 144.5 146.5t255.5 68.5q172 0 266 -103t57 -327l-102 -655h-145zM371 1288q14 94 66 142.5t128 48.5q49 0 89 -22.5t60.5 -48.5t51.5 -48.5t65 -22.5q45 0 72 29 t31 66h96q-14 -92 -65.5 -141.5t-126.5 -49.5q-49 0 -89 22.5t-60.5 48t-52.5 48t-67 22.5q-43 0 -69.5 -28.5t-32.5 -65.5h-96z" glyph-name="ntilde" unicode="ñ"/><glyph d="M496 -20q-190 0 -312.5 113.5t-122.5 334.5q0 266 168 461.5t428 195.5q190 0 313.5 -113.5t123.5 -334.5q0 -268 -168 -462.5t-430 -194.5zM203 442q0 -172 86 -256t223 -84q195 0 316.5 157t121.5 366q0 170 -86 254t-223 84q-195 0 -316.5 -156t-121.5 -365zM444 1458 h129l168 -266h-129z" glyph-name="ograve" horiz-adv-x="1155" unicode="ò"/><glyph d="M496 -20q-190 0 -312.5 113.5t-122.5 334.5q0 266 168 461.5t428 195.5q190 0 313.5 -113.5t123.5 -334.5q0 -268 -168 -462.5t-430 -194.5zM203 442q0 -172 86 -256t223 -84q195 0 316.5 157t121.5 366q0 170 -86 254t-223 84q-195 0 -316.5 -156t-121.5 -365zM578 1192 l247 266h133l-247 -266h-133z" glyph-name="oacute" horiz-adv-x="1155" unicode="ó"/><glyph d="M496 -20q-190 0 -312.5 113.5t-122.5 334.5q0 266 168 461.5t428 195.5q190 0 313.5 -113.5t123.5 -334.5q0 -268 -168 -462.5t-430 -194.5zM203 442q0 -172 86 -256t223 -84q195 0 316.5 157t121.5 366q0 170 -86 254t-223 84q-195 0 -316.5 -156t-121.5 -365zM371 1196 l247 262h203l166 -262h-139l-133 213l-199 -213h-145z" glyph-name="ocircumflex" horiz-adv-x="1155" unicode="ô"/><glyph d="M496 -20q-190 0 -312.5 113.5t-122.5 334.5q0 266 168 461.5t428 195.5q190 0 313.5 -113.5t123.5 -334.5q0 -268 -168 -462.5t-430 -194.5zM203 442q0 -172 86 -256t223 -84q195 0 316.5 157t121.5 366q0 170 -86 254t-223 84q-195 0 -316.5 -156t-121.5 -365zM375 1288 q14 94 66.5 142.5t127.5 48.5q49 0 89 -22.5t60.5 -48.5t51.5 -48.5t66 -22.5q45 0 71.5 29t30.5 66h96q-14 -92 -65 -141.5t-127 -49.5q-49 0 -89 22.5t-60.5 48t-52.5 48t-67 22.5q-43 0 -69.5 -28.5t-32.5 -65.5h-96z" glyph-name="otilde" horiz-adv-x="1155" unicode="õ"/><glyph d="M496 -20q-190 0 -312.5 113.5t-122.5 334.5q0 266 168 461.5t428 195.5q190 0 313.5 -113.5t123.5 -334.5q0 -268 -168 -462.5t-430 -194.5zM203 442q0 -172 86 -256t223 -84q195 0 316.5 157t121.5 366q0 170 -86 254t-223 84q-195 0 -316.5 -156t-121.5 -365zM430 1382 q0 39 28.5 67t67.5 28t67 -28t28 -67t-28 -66.5t-67 -27.5t-67.5 27.5t-28.5 66.5zM801 1382q0 39 28.5 67t67.5 28t66.5 -28t27.5 -67t-27.5 -66.5t-66.5 -27.5t-67.5 27.5t-28.5 66.5z" glyph-name="odieresis" horiz-adv-x="1155" unicode="ö"/><glyph d="M465 819q-31 0 -52.5 22.5t-21.5 51.5t21.5 51.5t52.5 22.5q29 0 50.5 -22.5t21.5 -51.5t-21.5 -51.5t-50.5 -22.5zM117 516l20 115h600l-20 -115h-600zM291 254q0 29 21.5 50.5t52.5 21.5q29 0 50 -21.5t21 -50.5t-21.5 -51.5t-49.5 -22.5q-31 0 -52.5 22.5t-21.5 51.5z " glyph-name="divide" horiz-adv-x="841" unicode="÷"/><glyph d="M106 -102l109 168q-154 121 -154 362q0 266 168 461.5t428 195.5q102 0 191 -34l86 133h117l-117 -180q160 -123 160 -367q0 -268 -168 -462.5t-430 -194.5q-106 0 -197 36l-76 -118h-117zM203 442q0 -170 88 -258l485 754q-61 25 -135 25q-195 0 -316.5 -156 t-121.5 -365zM373 129q59 -27 139 -27q195 0 316.5 157t121.5 366q0 172 -92 260z" glyph-name="oslash" horiz-adv-x="1155" unicode="ø"/><glyph d="M250 438q-55 -334 235 -334q150 0 250.5 88.5t124.5 243.5v-8l101 637h145l-168 -1065h-145l30 195q-41 -78 -144.5 -146.5t-254.5 -68.5q-172 0 -266.5 103t-57.5 327l103 655h145zM428 1458h129l168 -266h-129z" glyph-name="ugrave" unicode="ù"/><glyph d="M250 438q-55 -334 235 -334q150 0 250.5 88.5t124.5 243.5v-8l101 637h145l-168 -1065h-145l30 195q-41 -78 -144.5 -146.5t-254.5 -68.5q-172 0 -266.5 103t-57.5 327l103 655h145zM563 1192l248 266h133l-248 -266h-133z" glyph-name="uacute" unicode="ú"/><glyph d="M250 438q-55 -334 235 -334q150 0 250.5 88.5t124.5 243.5v-8l101 637h145l-168 -1065h-145l30 195q-41 -78 -144.5 -146.5t-254.5 -68.5q-172 0 -266.5 103t-57.5 327l103 655h145zM356 1196l248 262h203l166 -262h-139l-134 213l-198 -213h-146z" glyph-name="ucircumflex" unicode="û"/><glyph d="M250 438q-55 -334 235 -334q150 0 250.5 88.5t124.5 243.5v-8l101 637h145l-168 -1065h-145l30 195q-41 -78 -144.5 -146.5t-254.5 -68.5q-172 0 -266.5 103t-57.5 327l103 655h145zM416 1382q0 39 28.5 67t67.5 28t66.5 -28t27.5 -67t-27.5 -66.5t-66.5 -27.5 t-67.5 27.5t-28.5 66.5zM786 1382q0 39 29 67t68 28t66.5 -28t27.5 -67t-27.5 -66.5t-66.5 -27.5t-68 27.5t-29 66.5z" glyph-name="udieresis" unicode="ü"/><glyph d="M33 -266q201 -29 309 168q47 84 33 145l-244 1018h150l200 -901l486 901h153l-645 -1163q-96 -176 -206.5 -245t-254.5 -50zM545 1192l248 266h133l-248 -266h-133z" glyph-name="yacute" horiz-adv-x="1083" unicode="ý"/><glyph d="M-27 -389l289 1823h146l-86 -549q70 96 180 148t233 52q178 0 291 -109.5t113 -326.5q0 -279 -160 -474t-414 -195q-123 0 -219 52t-137 148l-90 -569h-146zM250 436q0 -162 89 -248t224 -86q190 0 313 155t123 364q0 168 -87 255t-222 87q-193 0 -316.5 -156 t-123.5 -371z" glyph-name="thorn" horiz-adv-x="1200" unicode="þ"/><glyph d="M33 -266q201 -29 309 168q47 84 33 145l-244 1018h150l200 -901l486 901h153l-645 -1163q-96 -176 -206.5 -245t-254.5 -50zM397 1382q0 39 29 67t67.5 28t66.5 -28t28 -67t-28 -66.5t-66.5 -27.5t-67.5 27.5t-29 66.5zM768 1382q0 39 28.5 67t67.5 28t66.5 -28t27.5 -67 t-27.5 -66.5t-66.5 -27.5t-67.5 27.5t-28.5 66.5z" glyph-name="ydieresis" horiz-adv-x="1083" unicode="ÿ"/><glyph d="M-37 0l780 1434h183l323 -1434h-155l-80 371h-690l-199 -371h-162zM387 487h600l-170 783h-10zM588 1733l12 94h596l-14 -94h-594z" glyph-name="Amacron" horiz-adv-x="1380" unicode="Ā"/><glyph d="M334 -20q-145 0 -227 62t-82 189q0 141 102 229.5t283 110.5l274 31q90 10 123 27.5t41 56.5l6 37q25 135 -34.5 192.5t-203.5 57.5q-274 0 -309 -207l-4 -25h-137l4 35q47 309 467 309q215 0 304 -86t58 -276l-114 -723h-137l28 184h-8q-41 -66 -154.5 -135t-279.5 -69z M170 250q0 -154 207 -154q174 0 291.5 92.5t132.5 188.5l24 168q-18 -39 -168 -58l-227 -26q-260 -31 -260 -211zM379 1364l12 94h596l-14 -94h-594z" glyph-name="amacron" horiz-adv-x="1087" unicode="ā"/><glyph d="M-37 0l780 1434h183l323 -1434h-155l-80 371h-690l-199 -371h-162zM387 487h600l-170 783h-10zM614 1827h103q-14 -164 160 -164q176 0 204 164h103q-18 -113 -96 -184.5t-223.5 -71.5t-206 72.5t-44.5 183.5z" glyph-name="Abreve" horiz-adv-x="1380" unicode="Ă"/><glyph d="M334 -20q-145 0 -227 62t-82 189q0 141 102 229.5t283 110.5l274 31q90 10 123 27.5t41 56.5l6 37q25 135 -34.5 192.5t-203.5 57.5q-274 0 -309 -207l-4 -25h-137l4 35q47 309 467 309q215 0 304 -86t58 -276l-114 -723h-137l28 184h-8q-41 -66 -154.5 -135t-279.5 -69z M170 250q0 -154 207 -154q174 0 291.5 92.5t132.5 188.5l24 168q-18 -39 -168 -58l-227 -26q-260 -31 -260 -211zM406 1458h102q-14 -164 160 -164q176 0 204 164h103q-18 -113 -96 -184.5t-223.5 -71.5t-205.5 72.5t-44 183.5z" glyph-name="abreve" horiz-adv-x="1087" unicode="ă"/><glyph d="M-37 0l780 1434h183l323 -1434q-117 0 -190.5 -51t-73.5 -133q0 -61 44 -88t120 -17l-14 -88q-102 -23 -184.5 20.5t-82.5 145.5q0 88 60.5 154.5t156.5 91.5l-71 336h-690l-199 -371h-162zM387 487h600l-170 783h-10z" glyph-name="Aogonek" horiz-adv-x="1380" unicode="Ą"/><glyph d="M334 -20q-145 0 -227 62t-82 189q0 141 102 229.5t283 110.5l274 31q90 10 123 27.5t41 56.5l6 37q25 135 -34.5 192.5t-203.5 57.5q-274 0 -309 -207l-4 -25h-137l4 35q47 309 467 309q215 0 304 -86t58 -276l-114 -723q-117 0 -190.5 -51t-73.5 -133q0 -61 44 -88 t119 -17l-14 -88q-102 -23 -184 20.5t-82 145.5q0 96 71.5 166t178.5 88l22 141h-8q-41 -66 -154.5 -135t-279.5 -69zM170 250q0 -154 207 -154q174 0 291.5 92.5t132.5 188.5l24 168q-18 -39 -168 -58l-227 -26q-260 -31 -260 -211z" glyph-name="aogonek" horiz-adv-x="1087" unicode="ą"/><glyph d="M664 -20q-256 0 -404.5 151.5t-148.5 446.5q0 362 205.5 618t551.5 256q221 0 356.5 -110.5t139.5 -315.5h-141q-16 143 -112.5 219t-252.5 76q-186 0 -325.5 -108.5t-206 -271.5t-66.5 -349q0 -238 112.5 -359.5t307.5 -121.5q156 0 267.5 76.5t172.5 220.5h148 q-70 -211 -228.5 -319.5t-375.5 -108.5zM791 1561l247 266h133l-247 -266h-133z" glyph-name="Cacute" horiz-adv-x="1347" unicode="Ć"/><glyph d="M496 -20q-195 0 -315 113.5t-120 338.5q0 270 167 461.5t434 191.5q170 0 283.5 -88t111.5 -288h-133q-2 131 -81 191.5t-196 60.5q-203 0 -324.5 -153t-121.5 -364q0 -170 84 -255t227 -85q119 0 215 60.5t141 195.5h131q-39 -139 -126 -229t-180 -120.5t-197 -30.5z M569 1192l248 266h133l-248 -266h-133z" glyph-name="cacute" horiz-adv-x="1089" unicode="ć"/><glyph d="M664 -20q-256 0 -404.5 151.5t-148.5 446.5q0 362 205.5 618t551.5 256q221 0 356.5 -110.5t139.5 -315.5h-141q-16 143 -112.5 219t-252.5 76q-186 0 -325.5 -108.5t-206 -271.5t-66.5 -349q0 -238 112.5 -359.5t307.5 -121.5q156 0 267.5 76.5t172.5 220.5h148 q-70 -211 -228.5 -319.5t-375.5 -108.5zM588 1565l248 262h202l166 -262h-139l-133 213l-199 -213h-145z" glyph-name="Ccircumflex" horiz-adv-x="1347" unicode="Ĉ"/><glyph d="M496 -20q-195 0 -315 113.5t-120 338.5q0 270 167 461.5t434 191.5q170 0 283.5 -88t111.5 -288h-133q-2 131 -81 191.5t-196 60.5q-203 0 -324.5 -153t-121.5 -364q0 -170 84 -255t227 -85q119 0 215 60.5t141 195.5h131q-39 -139 -126 -229t-180 -120.5t-197 -30.5z M365 1196l247 262h203l166 -262h-139l-133 213l-199 -213h-145z" glyph-name="ccircumflex" horiz-adv-x="1089" unicode="ĉ"/><glyph d="M664 -20q-256 0 -404.5 151.5t-148.5 446.5q0 362 205.5 618t551.5 256q221 0 356.5 -110.5t139.5 -315.5h-141q-16 143 -112.5 219t-252.5 76q-186 0 -325.5 -108.5t-206 -271.5t-66.5 -349q0 -238 112.5 -359.5t307.5 -121.5q156 0 267.5 76.5t172.5 220.5h148 q-70 -211 -228.5 -319.5t-375.5 -108.5zM829 1751q0 39 29 66.5t68 27.5t66.5 -27.5t27.5 -66.5t-27.5 -66.5t-66.5 -27.5t-68 27.5t-29 66.5z" glyph-name="Cdotaccent" horiz-adv-x="1347" unicode="Ċ"/><glyph d="M496 -20q-195 0 -315 113.5t-120 338.5q0 270 167 461.5t434 191.5q170 0 283.5 -88t111.5 -288h-133q-2 131 -81 191.5t-196 60.5q-203 0 -324.5 -153t-121.5 -364q0 -170 84 -255t227 -85q119 0 215 60.5t141 195.5h131q-39 -139 -126 -229t-180 -120.5t-197 -30.5z M608 1382q0 39 29 67t67.5 28t66.5 -28t28 -67t-28 -66.5t-66.5 -27.5t-67.5 27.5t-29 66.5z" glyph-name="cdotaccent" horiz-adv-x="1089" unicode="ċ"/><glyph d="M664 -20q-256 0 -404.5 151.5t-148.5 446.5q0 362 205.5 618t551.5 256q221 0 356.5 -110.5t139.5 -315.5h-141q-16 143 -112.5 219t-252.5 76q-186 0 -325.5 -108.5t-206 -271.5t-66.5 -349q0 -238 112.5 -359.5t307.5 -121.5q156 0 267.5 76.5t172.5 220.5h148 q-70 -211 -228.5 -319.5t-375.5 -108.5zM629 1827h139l133 -213l199 213h145l-248 -262h-202z" glyph-name="Ccaron" horiz-adv-x="1347" unicode="Č"/><glyph d="M496 -20q-195 0 -315 113.5t-120 338.5q0 270 167 461.5t434 191.5q170 0 283.5 -88t111.5 -288h-133q-2 131 -81 191.5t-196 60.5q-203 0 -324.5 -153t-121.5 -364q0 -170 84 -255t227 -85q119 0 215 60.5t141 195.5h131q-39 -139 -126 -229t-180 -120.5t-197 -30.5z M408 1458h139l133 -213l199 213h145l-248 -262h-203z" glyph-name="ccaron" horiz-adv-x="1089" unicode="č"/><glyph d="M35 0l227 1434h449q289 0 432 -144.5t143 -439.5q0 -375 -210 -612.5t-584 -237.5h-457zM207 133h287q313 0 478 201t165 514q0 240 -107.5 346t-339.5 106h-299zM573 1827h140l133 -213l198 213h146l-248 -262h-203z" glyph-name="Dcaron" horiz-adv-x="1339" unicode="Ď"/><glyph d="M1249 1167l191 267h135l-193 -267h-133zM59 416q0 274 160 471.5t412 197.5q125 0 221 -51t137 -149l88 549h146l-228 -1434h-145l29 180q-72 -96 -182.5 -148t-233.5 -52q-176 0 -290 110.5t-114 325.5zM201 444q0 -168 86 -255t221 -87q193 0 316.5 155t123.5 366 q0 166 -89 253t-224 87q-190 0 -312 -155t-122 -364z" glyph-name="dcaron" horiz-adv-x="1253" unicode="ď"/><glyph d="M80 0l104 655h-143l18 115h144l104 664h449q289 0 432 -144.5t143 -439.5q0 -375 -210 -612.5t-584 -237.5h-457zM252 133h287q313 0 478 201t165 514q0 240 -107.5 346t-339.5 106h-299l-84 -530h262l-20 -115h-260z" glyph-name="Dcroat" horiz-adv-x="1382" unicode="Đ"/><glyph d="M766 1247l10 78h283l18 109h146l-17 -109h156l-10 -78h-158l-199 -1247h-145l29 180q-72 -96 -182.5 -148t-233.5 -52q-176 0 -290 110.5t-114 325.5q0 274 160 471.5t412 197.5q125 0 221 -51t137 -149l58 362h-281zM201 444q0 -168 86 -255t221 -87q193 0 316.5 155 t123.5 366q0 166 -89 253t-224 87q-190 0 -312 -155t-122 -364z" glyph-name="dcroat" horiz-adv-x="1273" unicode="đ"/><glyph d="M35 0l227 1434h903l-22 -134h-752l-80 -501h690l-18 -123h-690l-86 -543h772l-21 -133h-923zM465 1733l12 94h596l-14 -94h-594z" glyph-name="Emacron" horiz-adv-x="1110" unicode="Ē"/><glyph d="M489 -23q-201 0 -314.5 110t-113.5 335q0 178 68 327.5t203 242.5t313 93q186 0 294 -101t108 -292q0 -123 -27 -203h-817q-2 -18 -2 -57q0 -176 76.5 -257t230.5 -81q238 0 338 197h133q-140 -314 -490 -314zM219 596h682q33 178 -42 275.5t-230 97.5 q-164 0 -268.5 -103.5t-141.5 -269.5zM391 1364l12 94h596l-14 -94h-594z" glyph-name="emacron" horiz-adv-x="1099" unicode="ē"/><glyph d="M35 0l227 1434h903l-22 -134h-752l-80 -501h690l-18 -123h-690l-86 -543h772l-21 -133h-923zM668 1751q0 39 28.5 66.5t67.5 27.5t66.5 -27.5t27.5 -66.5t-27.5 -66.5t-66.5 -27.5t-67.5 27.5t-28.5 66.5z" glyph-name="Edotaccent" horiz-adv-x="1110" unicode="Ė"/><glyph d="M489 -23q-201 0 -314.5 110t-113.5 335q0 178 68 327.5t203 242.5t313 93q186 0 294 -101t108 -292q0 -123 -27 -203h-817q-2 -18 -2 -57q0 -176 76.5 -257t230.5 -81q238 0 338 197h133q-140 -314 -490 -314zM219 596h682q33 178 -42 275.5t-230 97.5 q-164 0 -268.5 -103.5t-141.5 -269.5zM594 1382q0 39 28.5 67t67.5 28t66.5 -28t27.5 -67t-27.5 -66.5t-66.5 -27.5t-67.5 27.5t-28.5 66.5z" glyph-name="edotaccent" horiz-adv-x="1099" unicode="ė"/><glyph d="M35 0l227 1434h903l-22 -134h-752l-80 -501h690l-18 -123h-690l-86 -543h772l-21 -133q-117 0 -190.5 -51t-73.5 -133q0 -61 44 -88t120 -17l-14 -88q-102 -23 -184 20.5t-82 145.5q0 135 133 211h-676z" glyph-name="Eogonek" horiz-adv-x="1110" unicode="Ę"/><glyph d="M594 -377q-102 -23 -185 20.5t-83 145.5q0 115 102 191q-174 16 -270.5 125.5t-96.5 316.5q0 178 68 327.5t203 242.5t313 93q186 0 294 -101t108 -292q0 -123 -27 -203h-817q-2 -18 -2 -57q0 -176 76.5 -257t230.5 -81q238 0 338 197h133q-115 -254 -373 -303 q-164 -41 -164 -172q0 -61 44 -88t120 -17zM219 596h682q33 178 -42 275.5t-230 97.5q-164 0 -268.5 -103.5t-141.5 -269.5z" glyph-name="eogonek" horiz-adv-x="1099" unicode="ę"/><glyph d="M35 0l227 1434h903l-22 -134h-752l-80 -501h690l-18 -123h-690l-86 -543h772l-21 -133h-923zM467 1827h139l133 -213l199 213h145l-247 -262h-203z" glyph-name="Ecaron" horiz-adv-x="1110" unicode="Ě"/><glyph d="M489 -23q-201 0 -314.5 110t-113.5 335q0 178 68 327.5t203 242.5t313 93q186 0 294 -101t108 -292q0 -123 -27 -203h-817q-2 -18 -2 -57q0 -176 76.5 -257t230.5 -81q238 0 338 197h133q-140 -314 -490 -314zM219 596h682q33 178 -42 275.5t-230 97.5 q-164 0 -268.5 -103.5t-141.5 -269.5zM393 1458h139l134 -213l198 213h146l-248 -262h-203z" glyph-name="ecaron" horiz-adv-x="1099" unicode="ě"/><glyph d="M670 -20q-264 0 -411.5 150.5t-147.5 449.5q0 365 207.5 618.5t558.5 253.5q211 0 337.5 -97.5t143.5 -277.5h-146q-51 244 -342 244q-190 0 -332.5 -106.5t-210 -269.5t-67.5 -355q0 -240 110.5 -359.5t309.5 -119.5q207 0 341 127t171 370l-373 -4l21 123h516l-15 -88 q-51 -328 -223 -493.5t-448 -165.5zM590 1565l248 262h202l166 -262h-139l-133 213l-199 -213h-145z" glyph-name="Gcircumflex" horiz-adv-x="1423" unicode="Ĝ"/><glyph d="M459 23q-174 0 -286 104t-112 309q0 268 157 458.5t405 190.5q123 0 219 -50t139 -146l29 176h145l-149 -940l-19 -111q-20 -125 -78.5 -216t-142.5 -138t-170 -67.5t-180 -20.5q-90 0 -166 18.5t-138.5 55.5t-91 102.5t-16.5 151.5h127q-10 -98 72 -154.5t225 -56.5 q162 0 274.5 78.5t139.5 246.5l35 207q-74 -96 -185.5 -147t-232.5 -51zM203 467q0 -158 85 -240t218 -82q190 0 314 144.5t124 347.5q0 160 -87 243t-224 83q-190 0 -310 -145.5t-120 -350.5zM381 1196l248 262h202l166 -262h-139l-133 213l-199 -213h-145z" glyph-name="gcircumflex" horiz-adv-x="1189" unicode="ĝ"/><glyph d="M670 -20q-264 0 -411.5 150.5t-147.5 449.5q0 365 207.5 618.5t558.5 253.5q211 0 337.5 -97.5t143.5 -277.5h-146q-51 244 -342 244q-190 0 -332.5 -106.5t-210 -269.5t-67.5 -355q0 -240 110.5 -359.5t309.5 -119.5q207 0 341 127t171 370l-373 -4l21 123h516l-15 -88 q-51 -328 -223 -493.5t-448 -165.5zM653 1827h103q-14 -164 159 -164q176 0 205 164h103q-18 -113 -96 -184.5t-223.5 -71.5t-206 72.5t-44.5 183.5z" glyph-name="Gbreve" horiz-adv-x="1423" unicode="Ğ"/><glyph d="M459 23q-174 0 -286 104t-112 309q0 268 157 458.5t405 190.5q123 0 219 -50t139 -146l29 176h145l-149 -940l-19 -111q-20 -125 -78.5 -216t-142.5 -138t-170 -67.5t-180 -20.5q-90 0 -166 18.5t-138.5 55.5t-91 102.5t-16.5 151.5h127q-10 -98 72 -154.5t225 -56.5 q162 0 274.5 78.5t139.5 246.5l35 207q-74 -96 -185.5 -147t-232.5 -51zM203 467q0 -158 85 -240t218 -82q190 0 314 144.5t124 347.5q0 160 -87 243t-224 83q-190 0 -310 -145.5t-120 -350.5zM446 1458h103q-14 -164 160 -164q176 0 204 164h103q-18 -113 -96 -184.5 t-223.5 -71.5t-206 72.5t-44.5 183.5z" glyph-name="gbreve" horiz-adv-x="1189" unicode="ğ"/><glyph d="M670 -20q-264 0 -411.5 150.5t-147.5 449.5q0 365 207.5 618.5t558.5 253.5q211 0 337.5 -97.5t143.5 -277.5h-146q-51 244 -342 244q-190 0 -332.5 -106.5t-210 -269.5t-67.5 -355q0 -240 110.5 -359.5t309.5 -119.5q207 0 341 127t171 370l-373 -4l21 123h516l-15 -88 q-51 -328 -223 -493.5t-448 -165.5zM831 1751q0 39 29 66.5t68 27.5t66.5 -27.5t27.5 -66.5t-27.5 -66.5t-66.5 -27.5t-68 27.5t-29 66.5z" glyph-name="Gdotaccent" horiz-adv-x="1423" unicode="Ġ"/><glyph d="M459 23q-174 0 -286 104t-112 309q0 268 157 458.5t405 190.5q123 0 219 -50t139 -146l29 176h145l-149 -940l-19 -111q-20 -125 -78.5 -216t-142.5 -138t-170 -67.5t-180 -20.5q-90 0 -166 18.5t-138.5 55.5t-91 102.5t-16.5 151.5h127q-10 -98 72 -154.5t225 -56.5 q162 0 274.5 78.5t139.5 246.5l35 207q-74 -96 -185.5 -147t-232.5 -51zM203 467q0 -158 85 -240t218 -82q190 0 314 144.5t124 347.5q0 160 -87 243t-224 83q-190 0 -310 -145.5t-120 -350.5zM625 1382q0 39 28.5 67t67.5 28t66.5 -28t27.5 -67t-27.5 -66.5t-66.5 -27.5 t-67.5 27.5t-28.5 66.5z" glyph-name="gdotaccent" horiz-adv-x="1189" unicode="ġ"/><glyph d="M670 -20q-264 0 -411.5 150.5t-147.5 449.5q0 365 207.5 618.5t558.5 253.5q211 0 337.5 -97.5t143.5 -277.5h-146q-51 244 -342 244q-190 0 -332.5 -106.5t-210 -269.5t-67.5 -355q0 -240 110.5 -359.5t309.5 -119.5q207 0 341 127t171 370l-373 -4l21 123h516l-15 -88 q-51 -328 -223 -493.5t-448 -165.5zM481 -444l11 73q125 6 137 117q-53 0 -84 26.5t-31 71.5q0 49 32 81t81 32t79.5 -36t30.5 -105q0 -102 -63.5 -181t-179.5 -79h-13z" glyph-name="Gcommaaccent" horiz-adv-x="1423" unicode="Ģ"/><glyph d="M459 23q-174 0 -286 104t-112 309q0 268 157 458.5t405 190.5q123 0 219 -50t139 -146l29 176h145l-149 -940l-19 -111q-20 -125 -78.5 -216t-142.5 -138t-170 -67.5t-180 -20.5q-90 0 -166 18.5t-138.5 55.5t-91 102.5t-16.5 151.5h127q-10 -98 72 -154.5t225 -56.5 q162 0 274.5 78.5t139.5 246.5l35 207q-74 -96 -185.5 -147t-232.5 -51zM203 467q0 -158 85 -240t218 -82q190 0 314 144.5t124 347.5q0 160 -87 243t-224 83q-190 0 -310 -145.5t-120 -350.5zM522 1305q0 102 63.5 181t180.5 79h12l-10 -74q-125 -6 -137 -117 q53 0 83.5 -26.5t30.5 -71.5q0 -49 -31.5 -81t-80.5 -32t-80 36t-31 106z" glyph-name="gcommaaccent" horiz-adv-x="1189" unicode="ģ"/><glyph d="M965 0l100 637h-778l-101 -637h-151l227 1434h152l-107 -670h778l107 670h149l-227 -1434h-149zM514 1565l248 262h203l165 -262h-139l-133 213l-199 -213h-145z" glyph-name="Hcircumflex" horiz-adv-x="1318" unicode="Ĥ"/><glyph d="M35 0l227 1434h146l-89 -562q41 76 142.5 144.5t255.5 68.5q172 0 266 -103t57 -327l-102 -655h-145l98 627q55 334 -236 334q-145 0 -244.5 -84t-127.5 -230l-103 -647h-145zM45 1565l248 262h203l166 -262h-140l-133 213l-199 -213h-145z" glyph-name="hcircumflex" unicode="ĥ"/><glyph d="M965 0l100 637h-778l-101 -637h-151l227 1434h152l-54 -336h779l53 336h149l-227 -1434h-149zM307 764h778l33 207h-778z" glyph-name="Hbar" horiz-adv-x="1323" unicode="Ħ"/><glyph d="M94 1247l10 78h142l16 109h146l-17 -109h301l-12 -78h-301l-60 -375q41 76 142.5 144.5t255.5 68.5q172 0 266 -103t57 -327l-102 -655h-145l98 627q55 334 -236 334q-145 0 -244.5 -84t-127.5 -230l-103 -647h-145l198 1247h-139z" glyph-name="hbar" horiz-adv-x="1142" unicode="ħ"/><glyph d="M35 0l227 1434h152l-228 -1434h-151zM51 1657q14 94 66.5 142t128.5 48q49 0 89 -22.5t60.5 -48t51 -48t65.5 -22.5q45 0 71.5 28.5t30.5 65.5h97q-14 -92 -65.5 -141t-127.5 -49q-49 0 -89 22.5t-60.5 48t-52 48t-66.5 22.5q-43 0 -69.5 -28.5t-33.5 -65.5h-96z" glyph-name="Itilde" horiz-adv-x="389" unicode="Ĩ"/><glyph d="M12 0l168 1065h146l-168 -1065h-146zM-33 1288q14 94 66.5 142.5t128.5 48.5q49 0 89 -22.5t60.5 -48.5t51 -48.5t65.5 -22.5q45 0 71.5 29t30.5 66h97q-14 -92 -66.5 -141.5t-126.5 -49.5q-49 0 -89 22.5t-60.5 48t-52 48t-66.5 22.5q-43 0 -69.5 -28.5t-33.5 -65.5h-96 z" glyph-name="itilde" horiz-adv-x="337" unicode="ĩ"/><glyph d="M35 0l227 1434h152l-228 -1434h-151zM88 1733l12 94h596l-14 -94h-594z" glyph-name="Imacron" horiz-adv-x="389" unicode="Ī"/><glyph d="M12 0l168 1065h146l-168 -1065h-146zM4 1364l12 94h596l-14 -94h-594z" glyph-name="imacron" horiz-adv-x="337" unicode="ī"/><glyph d="M72 -377q-102 -23 -184.5 20.5t-82.5 145.5q0 90 67 158.5t169 93.5l221 1393h152l-228 -1434q-117 0 -190.5 -51t-73.5 -133q0 -61 44 -88t120 -17z" glyph-name="Iogonek" horiz-adv-x="389" unicode="Į"/><glyph d="M305 1288q-39 0 -67.5 27.5t-28.5 66.5t28.5 67t67.5 28t66.5 -28t27.5 -67t-27.5 -66.5t-66.5 -27.5zM-223 -211q0 92 69.5 161.5t171.5 90.5l162 1024h146l-168 -1065q-117 0 -190.5 -51t-73.5 -133q0 -61 44 -88t119 -17l-14 -88q-102 -23 -184 20.5t-82 145.5z" glyph-name="iogonek" horiz-adv-x="337" unicode="į"/><glyph d="M35 0l227 1434h152l-228 -1434h-151zM293 1751q0 39 28.5 66.5t67.5 27.5t66.5 -27.5t27.5 -66.5t-27.5 -66.5t-66.5 -27.5t-67.5 27.5t-28.5 66.5z" glyph-name="Idotaccent" horiz-adv-x="389" unicode="İ"/><glyph d="M12 0l168 1065h146l-168 -1065h-146z" glyph-name="dotlessi" horiz-adv-x="337" unicode="ı"/><glyph d="M35 0l227 1434h152l-228 -1434h-151zM510 541h152q-33 -203 58 -315.5t277 -112.5q184 0 301 112.5t150 323.5l139 885h152l-142 -893q-43 -268 -203.5 -414.5t-412.5 -146.5q-254 0 -384 148.5t-87 412.5z" glyph-name="IJ" horiz-adv-x="1714" unicode="Ĳ"/><glyph d="M35 0l168 1065h145l-168 -1065h-145zM152 -377l18 115h63q88 0 130.5 36t56.5 126l186 1165h146l-191 -1194q-37 -254 -303 -254q-49 0 -106 6zM231 1382q0 39 29 67t68 28t66.5 -28t27.5 -67t-27.5 -66.5t-66.5 -27.5t-68 27.5t-29 66.5zM635 1382q0 39 27.5 67t66.5 28 t66.5 -28t27.5 -67t-27.5 -66.5t-66.5 -27.5t-66.5 27.5t-27.5 66.5z" glyph-name="ij" horiz-adv-x="788" unicode="ĳ"/><glyph d="M592 -20q-254 0 -384 148t-87 413h151q-33 -203 58.5 -315.5t277.5 -112.5q184 0 301 112.5t150 323.5l139 885h152l-142 -893q-43 -268 -203.5 -414.5t-412.5 -146.5zM985 1565l248 262h203l166 -262h-140l-133 213l-199 -213h-145z" glyph-name="Jcircumflex" horiz-adv-x="1325" unicode="Ĵ"/><glyph d="M-106 -383q-49 0 -107 6l18 115h64q88 0 130 36t56 126l187 1165h145l-190 -1194q-41 -254 -303 -254zM25 1196l247 262h203l166 -262h-139l-133 213l-199 -213h-145z" glyph-name="jcircumflex" horiz-adv-x="399" unicode="ĵ"/><glyph d="M35 0l227 1434h152l-129 -811l860 811h182l-704 -664l528 -770h-176l-463 666l-258 -244l-68 -422h-151zM395 -444l11 73q125 6 137 117q-53 0 -84 26.5t-31 71.5q0 49 32 81t81 32t79.5 -36t30.5 -105q0 -102 -63.5 -181t-179.5 -79h-13z" glyph-name="Kcommaaccent" horiz-adv-x="1282" unicode="Ķ"/><glyph d="M35 0l227 1434h146l-152 -961l666 592h168l-529 -463l422 -602h-162l-362 510l-230 -201l-49 -309h-145zM301 -444l10 73q125 6 138 117q-53 0 -84 26.5t-31 71.5q0 49 31.5 81t81 32t80 -36t30.5 -105q0 -102 -63.5 -181t-180.5 -79h-12z" glyph-name="kcommaaccent" horiz-adv-x="1093" unicode="ķ"/><glyph d="M35 0l227 1434h152l-207 -1301h743l-20 -133h-895zM276 1561l248 266h133l-247 -266h-134z" glyph-name="Lacute" horiz-adv-x="1081" unicode="Ĺ"/><glyph d="M35 0l227 1434h146l-228 -1434h-145zM252 1561l248 266h133l-248 -266h-133z" glyph-name="lacute" horiz-adv-x="385" unicode="ĺ"/><glyph d="M35 0l227 1434h152l-207 -1301h743l-20 -133h-895zM301 -455l10 74q125 6 138 117q-53 0 -84 26.5t-31 71.5q0 49 31.5 81t81 32t80 -36t30.5 -106q0 -102 -63.5 -181t-180.5 -79h-12z" glyph-name="Lcommaaccent" horiz-adv-x="1081" unicode="Ļ"/><glyph d="M35 0l227 1434h146l-228 -1434h-145zM-66 -444l11 73q125 6 137 117q-53 0 -84 26.5t-31 71.5q0 49 32 81t81 32t79.5 -36t30.5 -105q0 -102 -63.5 -181t-179.5 -79h-13z" glyph-name="lcommaaccent" horiz-adv-x="385" unicode="ļ"/><glyph d="M35 0l227 1434h152l-207 -1301h743l-20 -133h-895zM569 1055l11 73q125 6 137 117q-53 0 -84 26.5t-31 71.5q0 49 32 81t81 32t79.5 -36t30.5 -105q0 -102 -63.5 -181t-179.5 -79h-13z" glyph-name="Lcaron" horiz-adv-x="1081" unicode="Ľ"/><glyph d="M408 946l129 488h129l-129 -488h-129zM35 0l227 1434h146l-228 -1434h-145z" glyph-name="lcaron" horiz-adv-x="440" unicode="ľ"/><glyph d="M10 350l25 160l174 156l121 768h151l-96 -611l285 256h2l-25 -157l-289 -258l-84 -531h744l-21 -133h-895l80 504z" glyph-name="Lslash" horiz-adv-x="1148" unicode="Ł"/><glyph d="M-18 354l24 160l170 191l115 729h145l-84 -529l162 182h2l-24 -159l-166 -187l-117 -741h-146l87 543z" glyph-name="lslash" horiz-adv-x="440" unicode="ł"/><glyph d="M35 0l227 1434h172l586 -1205h6l191 1205h149l-227 -1434h-174l-584 1200h-6l-189 -1200h-151zM731 1561l248 266h133l-248 -266h-133z" glyph-name="Nacute" horiz-adv-x="1343" unicode="Ń"/><glyph d="M891 627q55 334 -236 334q-150 0 -250 -88.5t-124 -243.5v8l-101 -637h-145l168 1065h145l-31 -195q41 78 144.5 146.5t255.5 68.5q172 0 266 -103t57 -327l-102 -655h-145zM573 1192l248 266h133l-247 -266h-134z" glyph-name="nacute" unicode="ń"/><glyph d="M35 0l227 1434h172l586 -1205h6l191 1205h149l-227 -1434h-174l-584 1200h-6l-189 -1200h-151zM414 -444l10 73q125 6 137 117q-53 0 -84 26.5t-31 71.5q0 49 32 81t81 32t80 -36t31 -105q0 -102 -63.5 -181t-180.5 -79h-12z" glyph-name="Ncommaaccent" horiz-adv-x="1343" unicode="Ņ"/><glyph d="M891 627q55 334 -236 334q-150 0 -250 -88.5t-124 -243.5v8l-101 -637h-145l168 1065h145l-31 -195q41 78 144.5 146.5t255.5 68.5q172 0 266 -103t57 -327l-102 -655h-145zM315 -444l11 73q125 6 137 117q-53 0 -84 26.5t-31 71.5q0 49 32 81t81 32t79.5 -36t30.5 -105 q0 -102 -63.5 -181t-179.5 -79h-13z" glyph-name="ncommaaccent" unicode="ņ"/><glyph d="M35 0l227 1434h172l586 -1205h6l191 1205h149l-227 -1434h-174l-584 1200h-6l-189 -1200h-151zM569 1827h140l133 -213l198 213h146l-248 -262h-203z" glyph-name="Ncaron" horiz-adv-x="1343" unicode="Ň"/><glyph d="M891 627q55 334 -236 334q-150 0 -250 -88.5t-124 -243.5v8l-101 -637h-145l168 1065h145l-31 -195q41 78 144.5 146.5t255.5 68.5q172 0 266 -103t57 -327l-102 -655h-145zM412 1458h139l133 -213l199 213h145l-248 -262h-202z" glyph-name="ncaron" unicode="ň"/><glyph d="M528 -451q-145 0 -241 52l22 143q96 -61 236 -61q156 0 268.5 78.5t165.5 226.5l-598 1212h-6l-189 -1200h-151l227 1434h168l594 -1207h6l191 1207h149l-209 -1323q-43 -266 -212 -414t-421 -148z" glyph-name="Eng" horiz-adv-x="1347" unicode="Ŋ"/><glyph d="M616 -451q-113 0 -182 45l21 123q82 -39 153 -39q133 0 158 160l27 162l98 627q55 334 -236 334q-150 0 -250 -88.5t-124 -243.5v8l-101 -637h-145l168 1065h145l-31 -195q41 78 144.5 146.5t255.5 68.5q172 0 266 -103t57 -327l-102 -655l-29 -172q-45 -279 -293 -279z " glyph-name="eng" unicode="ŋ"/><glyph d="M657 -20q-252 0 -400 152.5t-148 442.5q0 231 89 430t265 323t403 124q252 0 400.5 -152.5t148.5 -443.5q0 -231 -90 -429t-265.5 -322.5t-402.5 -124.5zM260 580q0 -236 109.5 -352.5t298.5 -116.5q184 0 323 110.5t207 276.5t68 354q0 233 -109.5 351t-298.5 118 q-184 0 -324.5 -109.5t-207 -275.5t-66.5 -356zM629 1733l12 94h596l-14 -94h-594z" glyph-name="Omacron" horiz-adv-x="1466" unicode="Ō"/><glyph d="M496 -20q-190 0 -312.5 113.5t-122.5 334.5q0 266 168 461.5t428 195.5q190 0 313.5 -113.5t123.5 -334.5q0 -268 -168 -462.5t-430 -194.5zM203 442q0 -172 86 -256t223 -84q195 0 316.5 157t121.5 366q0 170 -86 254t-223 84q-195 0 -316.5 -156t-121.5 -365zM414 1364 l12 94h596l-14 -94h-594z" glyph-name="omacron" horiz-adv-x="1155" unicode="ō"/><glyph d="M657 -20q-252 0 -400 152.5t-148 442.5q0 231 89 430t265 323t403 124q252 0 400.5 -152.5t148.5 -443.5q0 -231 -90 -429t-265.5 -322.5t-402.5 -124.5zM260 580q0 -236 109.5 -352.5t298.5 -116.5q184 0 323 110.5t207 276.5t68 354q0 233 -109.5 351t-298.5 118 q-184 0 -324.5 -109.5t-207 -275.5t-66.5 -356zM651 1561l248 266h133l-248 -266h-133zM928 1561l248 266h133l-248 -266h-133z" glyph-name="Ohungarumlaut" horiz-adv-x="1466" unicode="Ő"/><glyph d="M496 -20q-190 0 -312.5 113.5t-122.5 334.5q0 266 168 461.5t428 195.5q190 0 313.5 -113.5t123.5 -334.5q0 -268 -168 -462.5t-430 -194.5zM203 442q0 -172 86 -256t223 -84q195 0 316.5 157t121.5 366q0 170 -86 254t-223 84q-195 0 -316.5 -156t-121.5 -365zM436 1192 l248 266h133l-248 -266h-133zM713 1192l248 266h133l-248 -266h-133z" glyph-name="ohungarumlaut" horiz-adv-x="1155" unicode="ő"/><glyph d="M657 -20q-252 0 -400 152.5t-148 442.5q0 231 89 430t265 323t403 124q334 0 471 -250l37 232h903l-22 -134h-752l-80 -501h691l-19 -123h-690l-86 -543h772l-20 -133h-924l33 209q-210 -229 -523 -229zM260 580q0 -236 109.5 -352.5t298.5 -116.5q184 0 323 110.5 t207 276.5t68 354q0 233 -109.5 351t-298.5 118q-184 0 -324.5 -109.5t-207 -275.5t-66.5 -356z" glyph-name="OE" horiz-adv-x="2222" unicode="Œ"/><glyph d="M496 -20q-190 0 -312.5 113.5t-122.5 334.5q0 266 168 461.5t428 195.5q141 0 248 -63.5t156 -187.5q164 252 467 251q186 0 293.5 -101t107.5 -292q0 -123 -26 -203h-818q-2 -18 -2 -57q0 -176 77 -257t231 -81q238 0 338 197h133q-139 -313 -490 -314q-317 0 -401 256 q-82 -119 -203.5 -186t-271.5 -67zM203 442q0 -172 86 -256t223 -84q195 0 316.5 157t121.5 366q0 170 -86 254t-223 84q-195 0 -316.5 -156t-121.5 -365zM1102 596h682q33 178 -42 275.5t-231 97.5q-164 0 -268 -103.5t-141 -269.5z" glyph-name="oe" horiz-adv-x="1982" unicode="œ"/><glyph d="M961 0q-35 39 -5 238l21 118q37 240 -227 240h-469l-95 -596h-151l227 1434h563q209 0 313.5 -89.5t104.5 -252.5q0 -150 -82 -263.5t-225 -158.5q123 -33 168 -107t24 -205l-20 -120q-31 -199 4 -238h-151zM301 719h399q180 0 283.5 95t103.5 247q0 125 -72.5 182 t-221.5 57h-400zM682 1561l248 266h133l-248 -266h-133z" glyph-name="Racute" horiz-adv-x="1304" unicode="Ŕ"/><glyph d="M35 0l168 1065h145l-37 -236h4q41 96 137.5 170t239.5 74q51 0 80 -10l-20 -123q-37 6 -76 6q-160 0 -266.5 -96t-137.5 -260l-92 -590h-145zM389 1192l248 266h133l-248 -266h-133z" glyph-name="racute" horiz-adv-x="735" unicode="ŕ"/><glyph d="M961 0q-35 39 -5 238l21 118q37 240 -227 240h-469l-95 -596h-151l227 1434h563q209 0 313.5 -89.5t104.5 -252.5q0 -150 -82 -263.5t-225 -158.5q123 -33 168 -107t24 -205l-20 -120q-31 -199 4 -238h-151zM301 719h399q180 0 283.5 95t103.5 247q0 125 -72.5 182 t-221.5 57h-400zM365 -444l10 73q125 6 137 117q-53 0 -84 26.5t-31 71.5q0 49 32 81t81 32t80 -36t31 -105q0 -102 -63.5 -181t-180.5 -79h-12z" glyph-name="Rcommaaccent" horiz-adv-x="1304" unicode="Ŗ"/><glyph d="M35 0l168 1065h145l-37 -236h4q41 96 137.5 170t239.5 74q51 0 80 -10l-20 -123q-37 6 -76 6q-160 0 -266.5 -96t-137.5 -260l-92 -590h-145zM-66 -444l11 73q125 6 137 117q-53 0 -84 26.5t-31 71.5q0 49 32 81t81 32t79.5 -36t30.5 -105q0 -102 -63.5 -181t-179.5 -79 h-13z" glyph-name="rcommaaccent" horiz-adv-x="735" unicode="ŗ"/><glyph d="M961 0q-35 39 -5 238l21 118q37 240 -227 240h-469l-95 -596h-151l227 1434h563q209 0 313.5 -89.5t104.5 -252.5q0 -150 -82 -263.5t-225 -158.5q123 -33 168 -107t24 -205l-20 -120q-31 -199 4 -238h-151zM301 719h399q180 0 283.5 95t103.5 247q0 125 -72.5 182 t-221.5 57h-400zM520 1827h139l134 -213l198 213h146l-248 -262h-203z" glyph-name="Rcaron" horiz-adv-x="1304" unicode="Ř"/><glyph d="M35 0l168 1065h145l-37 -236h4q41 96 137.5 170t239.5 74q51 0 80 -10l-20 -123q-37 6 -76 6q-160 0 -266.5 -96t-137.5 -260l-92 -590h-145zM225 1458h140l133 -213l198 213h146l-248 -262h-203z" glyph-name="rcaron" horiz-adv-x="735" unicode="ř"/><glyph d="M547 -20q-256 0 -382 119.5t-95 310.5h149q-12 -133 74 -217t274.5 -84t298 85t109.5 228q0 109 -64.5 161t-197.5 79l-170 36q-332 72 -332 336q0 190 149.5 304t391.5 114q227 0 347 -102.5t95 -270.5h-150q10 106 -68.5 175t-240.5 69q-170 0 -268 -76t-98 -203 q0 -90 57 -146t186 -83l166 -35q176 -37 266.5 -114.5t90.5 -229.5q0 -209 -164 -332.5t-424 -123.5zM672 1561l248 266h133l-248 -266h-133z" glyph-name="Sacute" horiz-adv-x="1243" unicode="Ś"/><glyph d="M412 -20q-184 0 -296 79.5t-96 235.5h134q-4 -104 74.5 -151.5t197.5 -47.5q133 0 219 55.5t86 159.5q0 70 -43 102.5t-139 59.5l-176 43q-242 61 -242 250q0 147 121 233t313 86q178 0 276.5 -77.5t84.5 -231.5h-123q-2 193 -250 193q-129 0 -205 -49.5t-76 -137.5 q0 -59 40 -96t134 -61l172 -43q131 -35 197 -90.5t66 -165.5q0 -164 -134 -255t-335 -91zM489 1192l248 266h133l-247 -266h-134z" glyph-name="sacute" horiz-adv-x="976" unicode="ś"/><glyph d="M547 -20q-256 0 -382 119.5t-95 310.5h149q-12 -133 74 -217t274.5 -84t298 85t109.5 228q0 109 -64.5 161t-197.5 79l-170 36q-332 72 -332 336q0 190 149.5 304t391.5 114q227 0 347 -102.5t95 -270.5h-150q10 106 -68.5 175t-240.5 69q-170 0 -268 -76t-98 -203 q0 -90 57 -146t186 -83l166 -35q176 -37 266.5 -114.5t90.5 -229.5q0 -209 -164 -332.5t-424 -123.5zM467 1565l248 262h203l165 -262h-139l-133 213l-199 -213h-145z" glyph-name="Scircumflex" horiz-adv-x="1243" unicode="Ŝ"/><glyph d="M412 -20q-184 0 -296 79.5t-96 235.5h134q-4 -104 74.5 -151.5t197.5 -47.5q133 0 219 55.5t86 159.5q0 70 -43 102.5t-139 59.5l-176 43q-242 61 -242 250q0 147 121 233t313 86q178 0 276.5 -77.5t84.5 -231.5h-123q-2 193 -250 193q-129 0 -205 -49.5t-76 -137.5 q0 -59 40 -96t134 -61l172 -43q131 -35 197 -90.5t66 -165.5q0 -164 -134 -255t-335 -91zM287 1196l248 262h202l166 -262h-139l-133 213l-199 -213h-145z" glyph-name="scircumflex" horiz-adv-x="976" unicode="ŝ"/><glyph d="M358 -358q80 -2 129.5 27.5t49.5 82.5q0 49 -41 66.5t-103 -6.5l-41 57l111 115q-215 20 -318.5 136t-74.5 290h149q-12 -133 74 -217t274.5 -84t298 85t109.5 228q0 109 -64.5 161t-197.5 79l-170 36q-332 72 -332 336q0 190 149.5 304t391.5 114q227 0 347 -102.5 t95 -270.5h-150q10 106 -68.5 175t-240.5 69q-170 0 -268 -76t-98 -203q0 -90 57 -146t186 -83l166 -35q176 -37 266.5 -114.5t90.5 -229.5q0 -205 -156 -327.5t-406 -128.5l-88 -82q8 2 27 2q59 0 97 -36t38 -102q0 -102 -87 -155t-216 -53z" glyph-name="Scedilla" horiz-adv-x="1243" unicode="Ş"/><glyph d="M238 -358q80 -2 129 27.5t49 82.5q0 49 -41 66.5t-103 -6.5l-41 57l111 115q-158 14 -247 93t-75 218h134q-4 -104 74.5 -151.5t197.5 -47.5q133 0 219 55.5t86 159.5q0 70 -43 102.5t-139 59.5l-176 43q-242 61 -242 250q0 147 121 233t313 86q178 0 276.5 -77.5 t84.5 -231.5h-123q-2 193 -250 193q-129 0 -205 -49.5t-76 -137.5q0 -59 40 -96t134 -61l172 -43q131 -35 197 -90.5t66 -165.5q0 -156 -121 -246t-307 -100l-88 -82q8 2 26 2q59 0 97 -36t38 -102q0 -102 -87 -155t-216 -53z" glyph-name="scedilla" horiz-adv-x="976" unicode="ş"/><glyph d="M547 -20q-256 0 -382 119.5t-95 310.5h149q-12 -133 74 -217t274.5 -84t298 85t109.5 228q0 109 -64.5 161t-197.5 79l-170 36q-332 72 -332 336q0 190 149.5 304t391.5 114q227 0 347 -102.5t95 -270.5h-150q10 106 -68.5 175t-240.5 69q-170 0 -268 -76t-98 -203 q0 -90 57 -146t186 -83l166 -35q176 -37 266.5 -114.5t90.5 -229.5q0 -209 -164 -332.5t-424 -123.5zM510 1827h139l133 -213l199 213h145l-247 -262h-203z" glyph-name="Scaron" horiz-adv-x="1243" unicode="Š"/><glyph d="M412 -20q-184 0 -296 79.5t-96 235.5h134q-4 -104 74.5 -151.5t197.5 -47.5q133 0 219 55.5t86 159.5q0 70 -43 102.5t-139 59.5l-176 43q-242 61 -242 250q0 147 121 233t313 86q178 0 276.5 -77.5t84.5 -231.5h-123q-2 193 -250 193q-129 0 -205 -49.5t-76 -137.5 q0 -59 40 -96t134 -61l172 -43q131 -35 197 -90.5t66 -165.5q0 -164 -134 -255t-335 -91zM328 1458h139l133 -213l199 213h145l-248 -262h-202z" glyph-name="scaron" horiz-adv-x="976" unicode="š"/><glyph d="M432 0l205 1300h-459l23 134h1065l-21 -134h-459l-204 -1300h-37l-109 -102q8 2 27 2q59 0 97 -36t38 -102q0 -102 -87 -155t-216 -53l14 88q80 -2 129 27.5t49 82.5q0 49 -40.5 66.5t-102.5 -6.5l-41 57l127 131h2z" glyph-name="Tcommaaccent" horiz-adv-x="1181" unicode="Ţ"/><glyph d="M397 -14h-18l-94 -88q8 2 26 2q59 0 97 -36t38 -102q0 -102 -87 -155t-216 -53l15 88q80 -2 129 27.5t49 82.5q0 49 -41 66.5t-102 -6.5l-41 57l127 131h10q-147 47 -117 240l113 708h-170l16 117h172l41 264h145l-40 -264h210l-16 -117h-213l-108 -680 q-14 -88 16.5 -125t118.5 -37h69l-20 -114q-37 -6 -109 -6z" glyph-name="tcommaaccent" horiz-adv-x="651" unicode="ţ"/><glyph d="M432 0l205 1300h-459l23 134h1065l-21 -134h-459l-204 -1300h-150zM487 1827h140l133 -213l198 213h146l-248 -262h-203z" glyph-name="Tcaron" horiz-adv-x="1181" unicode="Ť"/><glyph d="M397 -14q-266 0 -225 254l113 708h-170l16 117h172l41 264h145l-40 -264h210l-16 -117h-213l-108 -680q-14 -88 16.5 -125t118.5 -37h69l-20 -114q-37 -6 -109 -6zM520 1186l248 266h133l-248 -266h-133z" glyph-name="tcaron" horiz-adv-x="632" unicode="ť"/><glyph d="M291 940l18 109h289l39 251h-459l23 134h1065l-21 -134h-459l-38 -251h288l-18 -109h-289l-147 -940h-150l148 940h-289z" glyph-name="Tbar" horiz-adv-x="1181" unicode="Ŧ"/><glyph d="M68 662l18 116h172l27 170h-170l16 117h172l41 264h145l-40 -264h210l-16 -117h-213l-29 -170h213l-18 -116h-213l-61 -394q-14 -88 16.5 -125t118.5 -37h69l-20 -114q-37 -6 -109 -6q-266 0 -225 254l68 422h-172z" glyph-name="tbar" horiz-adv-x="651" unicode="ŧ"/><glyph d="M584 -20q-254 0 -379 147t-84 414l141 893h152l-142 -885q-33 -209 57.5 -322.5t278.5 -113.5q186 0 303 112.5t150 323.5l141 885h152l-142 -893q-43 -266 -208.5 -413.5t-419.5 -147.5zM518 1657q14 94 66.5 142t128.5 48q49 0 89 -22.5t60.5 -48t51 -48t65.5 -22.5 q45 0 71.5 28.5t30.5 65.5h97q-14 -92 -65.5 -141t-127.5 -49q-49 0 -89 22.5t-60.5 48t-52 48t-66.5 22.5q-43 0 -69.5 -28.5t-33.5 -65.5h-96z" glyph-name="Utilde" horiz-adv-x="1329" unicode="Ũ"/><glyph d="M250 438q-55 -334 235 -334q150 0 250.5 88.5t124.5 243.5v-8l101 637h145l-168 -1065h-145l30 195q-41 -78 -144.5 -146.5t-254.5 -68.5q-172 0 -266.5 103t-57.5 327l103 655h145zM360 1288q14 94 66.5 142.5t128.5 48.5q49 0 89 -22.5t60.5 -48.5t51 -48.5t65.5 -22.5 q45 0 72 29t31 66h96q-14 -92 -66.5 -141.5t-126.5 -49.5q-49 0 -89 22.5t-60.5 48t-52 48t-66.5 22.5q-43 0 -69.5 -28.5t-32.5 -65.5h-97z" glyph-name="utilde" unicode="ũ"/><glyph d="M584 -20q-254 0 -379 147t-84 414l141 893h152l-142 -885q-33 -209 57.5 -322.5t278.5 -113.5q186 0 303 112.5t150 323.5l141 885h152l-142 -893q-43 -266 -208.5 -413.5t-419.5 -147.5zM557 1733l12 94h596l-14 -94h-594z" glyph-name="Umacron" horiz-adv-x="1329" unicode="Ū"/><glyph d="M250 438q-55 -334 235 -334q150 0 250.5 88.5t124.5 243.5v-8l101 637h145l-168 -1065h-145l30 195q-41 -78 -144.5 -146.5t-254.5 -68.5q-172 0 -266.5 103t-57.5 327l103 655h145zM397 1364l13 94h596l-15 -94h-594z" glyph-name="umacron" unicode="ū"/><glyph d="M584 -20q-254 0 -379 147t-84 414l141 893h152l-142 -885q-33 -209 57.5 -322.5t278.5 -113.5q186 0 303 112.5t150 323.5l141 885h152l-142 -893q-43 -266 -208.5 -413.5t-419.5 -147.5zM582 1827h102q-14 -164 160 -164q176 0 205 164h102q-18 -113 -96 -184.5 t-223.5 -71.5t-205.5 72.5t-44 183.5z" glyph-name="Ubreve" horiz-adv-x="1329" unicode="Ŭ"/><glyph d="M250 438q-55 -334 235 -334q150 0 250.5 88.5t124.5 243.5v-8l101 637h145l-168 -1065h-145l30 195q-41 -78 -144.5 -146.5t-254.5 -68.5q-172 0 -266.5 103t-57.5 327l103 655h145zM424 1458h102q-14 -164 160 -164q176 0 205 164h102q-18 -113 -96 -184.5t-223.5 -71.5 t-205.5 72.5t-44 183.5z" glyph-name="ubreve" unicode="ŭ"/><glyph d="M584 -20q-254 0 -379 147t-84 414l141 893h152l-142 -885q-33 -209 57.5 -322.5t278.5 -113.5q186 0 303 112.5t150 323.5l141 885h152l-142 -893q-43 -266 -208.5 -413.5t-419.5 -147.5zM676 1712q0 72 50 121t126 49t126 -49t50 -121t-51 -122t-125 -50t-125 50 t-51 122zM756 1712q0 -41 27.5 -68.5t68.5 -27.5t68.5 27.5t27.5 68.5t-27.5 68.5t-68.5 27.5t-68.5 -27.5t-27.5 -68.5z" glyph-name="Uring" horiz-adv-x="1329" unicode="Ů"/><glyph d="M250 438q-55 -334 235 -334q150 0 250.5 88.5t124.5 243.5v-8l101 637h145l-168 -1065h-145l30 195q-41 -78 -144.5 -146.5t-254.5 -68.5q-172 0 -266.5 103t-57.5 327l103 655h145zM516 1343.5q0 71.5 50 120.5t126 49t126 -49t50 -120.5t-51 -122t-125 -50.5t-125 50.5 t-51 122zM596 1343.5q0 -40.5 27.5 -68.5t68.5 -28t68.5 28t27.5 68.5t-27.5 68.5t-68.5 28t-68.5 -28t-27.5 -68.5z" glyph-name="uring" unicode="ů"/><glyph d="M584 -20q-254 0 -379 147t-84 414l141 893h152l-142 -885q-33 -209 57.5 -322.5t278.5 -113.5q186 0 303 112.5t150 323.5l141 885h152l-142 -893q-43 -266 -208.5 -413.5t-419.5 -147.5zM580 1561l247 266h134l-248 -266h-133zM856 1561l248 266h133l-248 -266h-133z " glyph-name="Uhungarumlaut" horiz-adv-x="1329" unicode="Ű"/><glyph d="M250 438q-55 -334 235 -334q150 0 250.5 88.5t124.5 243.5v-8l101 637h145l-168 -1065h-145l30 195q-41 -78 -144.5 -146.5t-254.5 -68.5q-172 0 -266.5 103t-57.5 327l103 655h145zM422 1192l248 266h133l-248 -266h-133zM698 1192l248 266h133l-248 -266h-133z" glyph-name="uhungarumlaut" unicode="ű"/><glyph d="M692 -377q-102 -23 -185 20.5t-83 145.5q0 115 104 193q-227 16 -336.5 161.5t-70.5 397.5l141 893h152l-142 -885q-33 -209 57.5 -322.5t278.5 -113.5q186 0 303 112.5t150 323.5l141 885h152l-142 -893q-37 -229 -165.5 -371.5t-327.5 -177.5q-82 -16 -130 -63.5 t-48 -112.5q0 -61 45 -88t121 -17z" glyph-name="Uogonek" horiz-adv-x="1329" unicode="Ų"/><glyph d="M250 438q-55 -334 235 -334q150 0 250.5 88.5t124.5 243.5v-8l101 637h145l-168 -1065q-117 0 -190.5 -51t-73.5 -133q0 -61 44 -88t120 -17l-15 -88q-102 -23 -184 20.5t-82 145.5q0 92 69.5 161.5t172.5 90.5l24 154q-41 -78 -144.5 -146.5t-254.5 -68.5 q-172 0 -266.5 103t-57.5 327l103 655h145z" glyph-name="uogonek" unicode="ų"/><glyph d="M360 0l-159 1434h153l123 -1225h8l564 1225h161l176 -1225h9l510 1225h155l-610 -1434h-166l-184 1241l-576 -1241h-164zM842 1565l248 262h202l166 -262h-139l-133 213l-199 -213h-145z" glyph-name="Wcircumflex" horiz-adv-x="1974" unicode="Ŵ"/><glyph d="M270 0l-139 1065h141l109 -913h8l436 913h131l154 -913h8l395 913h142l-469 -1065h-172l-150 872l-420 -872h-174zM606 1196l248 262h203l166 -262h-140l-133 213l-198 -213h-146z" glyph-name="wcircumflex" horiz-adv-x="1619" unicode="ŵ"/><glyph d="M500 0l90 565l-389 869h170l317 -723l545 723h174l-666 -869l-88 -565h-153zM514 1565l248 262h203l165 -262h-139l-133 213l-199 -213h-145z" glyph-name="Ycircumflex" horiz-adv-x="1320" unicode="Ŷ"/><glyph d="M33 -266q201 -29 309 168q47 84 33 145l-244 1018h150l200 -901l486 901h153l-645 -1163q-96 -176 -206.5 -245t-254.5 -50zM340 1196l248 262h203l165 -262h-139l-133 213l-199 -213h-145z" glyph-name="ycircumflex" horiz-adv-x="1083" unicode="ŷ"/><glyph d="M500 0l90 565l-389 869h170l317 -723l545 723h174l-666 -869l-88 -565h-153zM573 1751q0 39 29 66.5t68 27.5t66.5 -27.5t27.5 -66.5t-27.5 -66.5t-66.5 -27.5t-68 27.5t-29 66.5zM944 1751q0 39 28.5 66.5t67.5 27.5t67 -27.5t28 -66.5t-28 -66.5t-67 -27.5t-67.5 27.5 t-28.5 66.5z" glyph-name="Ydieresis" horiz-adv-x="1320" unicode="Ÿ"/><glyph d="M-2 0l20 133l1088 1167h-866l22 134h1038l-24 -134l-1086 -1167h912l-21 -133h-1083zM692 1561l248 266h133l-248 -266h-133z" glyph-name="Zacute" horiz-adv-x="1247" unicode="Ź"/><glyph d="M-2 0l20 125l805 815h-657l20 125h832l-21 -125l-804 -815h677l-20 -125h-852zM504 1192l248 266h133l-248 -266h-133z" glyph-name="zacute" horiz-adv-x="1015" unicode="ź"/><glyph d="M-2 0l20 133l1088 1167h-866l22 134h1038l-24 -134l-1086 -1167h912l-21 -133h-1083zM731 1751q0 39 28.5 66.5t67.5 27.5t67 -27.5t28 -66.5t-28 -66.5t-67 -27.5t-67.5 27.5t-28.5 66.5z" glyph-name="Zdotaccent" horiz-adv-x="1247" unicode="Ż"/><glyph d="M-2 0l20 125l805 815h-657l20 125h832l-21 -125l-804 -815h677l-20 -125h-852zM543 1382q0 39 28.5 67t67.5 28t66.5 -28t27.5 -67t-27.5 -66.5t-66.5 -27.5t-67.5 27.5t-28.5 66.5z" glyph-name="zdotaccent" horiz-adv-x="1015" unicode="ż"/><glyph d="M-2 0l20 133l1088 1167h-866l22 134h1038l-24 -134l-1086 -1167h912l-21 -133h-1083zM530 1827h140l133 -213l198 213h146l-248 -262h-203z" glyph-name="Zcaron" horiz-adv-x="1247" unicode="Ž"/><glyph d="M-2 0l20 125l805 815h-657l20 125h832l-21 -125l-804 -815h677l-20 -125h-852zM342 1458h139l133 -213l199 213h145l-247 -262h-203z" glyph-name="zcaron" horiz-adv-x="1015" unicode="ž"/><glyph d="M592 -20q-279 0 -408 169.5t-78 493.5l15 84h1081q8 57 8 127q0 467 -405 467q-299 0 -428 -244h-150q74 182 228.5 278.5t365.5 96.5q254 0 398.5 -146.5t144.5 -435.5q0 -170 -49 -326.5t-142.5 -284.5t-244 -203.5t-336.5 -75.5zM246 604q-41 -246 57 -369.5 t305 -123.5q225 0 369.5 138t202.5 355h-934z" glyph-name="uni018F" horiz-adv-x="1413" unicode="Ə"/><glyph d="M-78 -262q88 0 142.5 51t72.5 168l125 793h-164l19 127h166l36 237q29 180 122.5 255t256.5 75l-20 -129q-90 0 -143.5 -49t-71.5 -168l-35 -221h180l-20 -127h-180l-129 -809q-29 -182 -126.5 -256t-250.5 -74z" glyph-name="florin" horiz-adv-x="604" unicode="ƒ"/><glyph d="M657 -20q-252 0 -400 152.5t-148 442.5q0 231 89 430t265 323t403 124h508l27 162h129l-45 -279h-256q186 -158 186 -479q0 -231 -90 -429t-265.5 -322.5t-402.5 -124.5zM260 580q0 -236 109.5 -352.5t298.5 -116.5q184 0 323 110.5t207 276.5t68 354q0 233 -109.5 351 t-298.5 118q-184 0 -324.5 -109.5t-207 -275.5t-66.5 -356z" glyph-name="Ohorn" horiz-adv-x="1466" unicode="Ơ"/><glyph d="M496 -20q-190 0 -312.5 113.5t-122.5 334.5q0 266 168 461.5t428 195.5h349l24 160h121l-43 -274h-137q123 -119 123 -334q0 -268 -168 -462.5t-430 -194.5zM203 442q0 -172 86 -256t223 -84q195 0 316.5 157t121.5 366q0 170 -86 254t-223 84q-195 0 -316.5 -156 t-121.5 -365z" glyph-name="ohorn" horiz-adv-x="1155" unicode="ơ"/><glyph d="M584 -20q-254 0 -379 147t-84 414l141 893h152l-142 -885q-33 -209 57.5 -322.5t278.5 -113.5q186 0 303 112.5t150 323.5l141 885h215l29 180h127l-27 -180l-18 -121h-193l-123 -772q-43 -266 -208.5 -413.5t-419.5 -147.5z" glyph-name="Uhorn" horiz-adv-x="1329" unicode="Ư"/><glyph d="M250 438q-55 -334 235 -334q150 0 250.5 88.5t124.5 243.5v-8l101 637h217l28 180h127l-26 -180l-19 -121h-201l-149 -944h-145l30 195q-41 -78 -144.5 -146.5t-254.5 -68.5q-172 0 -266.5 103t-57.5 327l103 655h145z" glyph-name="uhorn" unicode="ư"/><glyph d="M-37 0l780 1434h183l323 -1434h-155l-80 371h-690l-199 -371h-162zM387 487h600l-170 783h-10zM590 1827h139l133 -213l199 213h145l-248 -262h-202z" glyph-name="uni01CD" horiz-adv-x="1380" unicode="Ǎ"/><glyph d="M334 -20q-145 0 -227 62t-82 189q0 141 102 229.5t283 110.5l274 31q90 10 123 27.5t41 56.5l6 37q25 135 -34.5 192.5t-203.5 57.5q-274 0 -309 -207l-4 -25h-137l4 35q47 309 467 309q215 0 304 -86t58 -276l-114 -723h-137l28 184h-8q-41 -66 -154.5 -135t-279.5 -69z M170 250q0 -154 207 -154q174 0 291.5 92.5t132.5 188.5l24 168q-18 -39 -168 -58l-227 -26q-260 -31 -260 -211zM383 1458h139l133 -213l199 213h145l-247 -262h-203z" glyph-name="uni01CE" horiz-adv-x="1087" unicode="ǎ"/><glyph d="M35 0l227 1434h152l-228 -1434h-151zM92 1827h139l134 -213l198 213h146l-248 -262h-203z" glyph-name="uni01CF" horiz-adv-x="389" unicode="Ǐ"/><glyph d="M12 0l168 1065h146l-168 -1065h-146zM6 1458h139l134 -213l198 213h146l-248 -262h-203z" glyph-name="uni01D0" horiz-adv-x="337" unicode="ǐ"/><glyph d="M657 -20q-252 0 -400 152.5t-148 442.5q0 231 89 430t265 323t403 124q252 0 400.5 -152.5t148.5 -443.5q0 -231 -90 -429t-265.5 -322.5t-402.5 -124.5zM260 580q0 -236 109.5 -352.5t298.5 -116.5q184 0 323 110.5t207 276.5t68 354q0 233 -109.5 351t-298.5 118 q-184 0 -324.5 -109.5t-207 -275.5t-66.5 -356zM631 1827h139l133 -213l199 213h145l-248 -262h-202z" glyph-name="uni01D1" horiz-adv-x="1466" unicode="Ǒ"/><glyph d="M496 -20q-190 0 -312.5 113.5t-122.5 334.5q0 266 168 461.5t428 195.5q190 0 313.5 -113.5t123.5 -334.5q0 -268 -168 -462.5t-430 -194.5zM203 442q0 -172 86 -256t223 -84q195 0 316.5 157t121.5 366q0 170 -86 254t-223 84q-195 0 -316.5 -156t-121.5 -365zM416 1458 h139l133 -213l199 213h145l-248 -262h-202z" glyph-name="uni01D2" horiz-adv-x="1155" unicode="ǒ"/><glyph d="M584 -20q-254 0 -379 147t-84 414l141 893h152l-142 -885q-33 -209 57.5 -322.5t278.5 -113.5q186 0 303 112.5t150 323.5l141 885h152l-142 -893q-43 -266 -208.5 -413.5t-419.5 -147.5zM559 1827h139l133 -213l199 213h146l-248 -262h-203z" glyph-name="uni01D3" horiz-adv-x="1329" unicode="Ǔ"/><glyph d="M250 438q-55 -334 235 -334q150 0 250.5 88.5t124.5 243.5v-8l101 637h145l-168 -1065h-145l30 195q-41 -78 -144.5 -146.5t-254.5 -68.5q-172 0 -266.5 103t-57.5 327l103 655h145zM401 1458h140l133 -213l198 213h146l-248 -262h-203z" glyph-name="uni01D4" unicode="ǔ"/><glyph d="M584 -20q-254 0 -379 147t-84 414l141 893h152l-142 -885q-33 -209 57.5 -322.5t278.5 -113.5q186 0 303 112.5t150 323.5l141 885h152l-142 -893q-43 -266 -208.5 -413.5t-419.5 -147.5zM573 1751q0 39 29 66.5t68 27.5t66.5 -27.5t27.5 -66.5t-27.5 -66.5t-66.5 -27.5 t-68 27.5t-29 66.5zM604 2083l12 94h596l-14 -94h-594zM944 1751q0 39 28.5 66.5t67.5 27.5t67 -27.5t28 -66.5t-28 -66.5t-67 -27.5t-67.5 27.5t-28.5 66.5z" glyph-name="uni01D5" horiz-adv-x="1329" unicode="Ǖ"/><glyph d="M250 438q-55 -334 235 -334q150 0 250.5 88.5t124.5 243.5v-8l101 637h145l-168 -1065h-145l30 195q-41 -78 -144.5 -146.5t-254.5 -68.5q-172 0 -266.5 103t-57.5 327l103 655h145zM416 1382q0 39 28.5 67t67.5 28t66.5 -28t27.5 -67t-27.5 -66.5t-66.5 -27.5 t-67.5 27.5t-28.5 66.5zM446 1714l13 94h596l-15 -94h-594zM786 1382q0 39 29 67t68 28t66.5 -28t27.5 -67t-27.5 -66.5t-66.5 -27.5t-68 27.5t-29 66.5z" glyph-name="uni01D6" unicode="ǖ"/><glyph d="M584 -20q-254 0 -379 147t-84 414l141 893h152l-142 -885q-33 -209 57.5 -322.5t278.5 -113.5q186 0 303 112.5t150 323.5l141 885h152l-142 -893q-43 -266 -208.5 -413.5t-419.5 -147.5zM573 1751q0 39 29 66.5t68 27.5t66.5 -27.5t27.5 -66.5t-27.5 -66.5t-66.5 -27.5 t-68 27.5t-29 66.5zM795 1911l247 266h134l-248 -266h-133zM944 1751q0 39 28.5 66.5t67.5 27.5t67 -27.5t28 -66.5t-28 -66.5t-67 -27.5t-67.5 27.5t-28.5 66.5z" glyph-name="uni01D7" horiz-adv-x="1329" unicode="Ǘ"/><glyph d="M250 438q-55 -334 235 -334q150 0 250.5 88.5t124.5 243.5v-8l101 637h145l-168 -1065h-145l30 195q-41 -78 -144.5 -146.5t-254.5 -68.5q-172 0 -266.5 103t-57.5 327l103 655h145zM416 1382q0 39 28.5 67t67.5 28t66.5 -28t27.5 -67t-27.5 -66.5t-66.5 -27.5 t-67.5 27.5t-28.5 66.5zM637 1542l248 266h133l-248 -266h-133zM786 1382q0 39 29 67t68 28t66.5 -28t27.5 -67t-27.5 -66.5t-66.5 -27.5t-68 27.5t-29 66.5z" glyph-name="uni01D8" unicode="ǘ"/><glyph d="M584 -20q-254 0 -379 147t-84 414l141 893h152l-142 -885q-33 -209 57.5 -322.5t278.5 -113.5q186 0 303 112.5t150 323.5l141 885h152l-142 -893q-43 -266 -208.5 -413.5t-419.5 -147.5zM573 1751q0 39 29 66.5t68 27.5t66.5 -27.5t27.5 -66.5t-27.5 -66.5t-66.5 -27.5 t-68 27.5t-29 66.5zM606 2177h139l134 -213l198 213h146l-248 -262h-203zM944 1751q0 39 28.5 66.5t67.5 27.5t67 -27.5t28 -66.5t-28 -66.5t-67 -27.5t-67.5 27.5t-28.5 66.5z" glyph-name="uni01D9" horiz-adv-x="1329" unicode="Ǚ"/><glyph d="M250 438q-55 -334 235 -334q150 0 250.5 88.5t124.5 243.5v-8l101 637h145l-168 -1065h-145l30 195q-41 -78 -144.5 -146.5t-254.5 -68.5q-172 0 -266.5 103t-57.5 327l103 655h145zM416 1382q0 39 28.5 67t67.5 28t66.5 -28t27.5 -67t-27.5 -66.5t-66.5 -27.5 t-67.5 27.5t-28.5 66.5zM449 1808h139l133 -213l199 213h145l-248 -262h-203zM786 1382q0 39 29 67t68 28t66.5 -28t27.5 -67t-27.5 -66.5t-66.5 -27.5t-68 27.5t-29 66.5z" glyph-name="uni01DA" unicode="ǚ"/><glyph d="M584 -20q-254 0 -379 147t-84 414l141 893h152l-142 -885q-33 -209 57.5 -322.5t278.5 -113.5q186 0 303 112.5t150 323.5l141 885h152l-142 -893q-43 -266 -208.5 -413.5t-419.5 -147.5zM573 1751q0 39 29 66.5t68 27.5t66.5 -27.5t27.5 -66.5t-27.5 -66.5t-66.5 -27.5 t-68 27.5t-29 66.5zM635 2177h129l168 -266h-129zM944 1751q0 39 28.5 66.5t67.5 27.5t67 -27.5t28 -66.5t-28 -66.5t-67 -27.5t-67.5 27.5t-28.5 66.5z" glyph-name="uni01DB" horiz-adv-x="1329" unicode="Ǜ"/><glyph d="M250 438q-55 -334 235 -334q150 0 250.5 88.5t124.5 243.5v-8l101 637h145l-168 -1065h-145l30 195q-41 -78 -144.5 -146.5t-254.5 -68.5q-172 0 -266.5 103t-57.5 327l103 655h145zM416 1382q0 39 28.5 67t67.5 28t66.5 -28t27.5 -67t-27.5 -66.5t-66.5 -27.5 t-67.5 27.5t-28.5 66.5zM477 1808h129l168 -266h-129zM786 1382q0 39 29 67t68 28t66.5 -28t27.5 -67t-27.5 -66.5t-66.5 -27.5t-68 27.5t-29 66.5z" glyph-name="uni01DC" unicode="ǜ"/><glyph d="M670 -20q-264 0 -411.5 150.5t-147.5 449.5q0 365 207.5 618.5t558.5 253.5q211 0 337.5 -97.5t143.5 -277.5h-146q-51 244 -342 244q-190 0 -332.5 -106.5t-210 -269.5t-67.5 -355q0 -240 110.5 -359.5t309.5 -119.5q207 0 341 127t171 370l-373 -4l21 123h516l-15 -88 q-51 -328 -223 -493.5t-448 -165.5zM631 1827h139l133 -213l199 213h145l-248 -262h-202z" glyph-name="Gcaron" horiz-adv-x="1423" unicode="Ǧ"/><glyph d="M459 23q-174 0 -286 104t-112 309q0 268 157 458.5t405 190.5q123 0 219 -50t139 -146l29 176h145l-149 -940l-19 -111q-20 -125 -78.5 -216t-142.5 -138t-170 -67.5t-180 -20.5q-90 0 -166 18.5t-138.5 55.5t-91 102.5t-16.5 151.5h127q-10 -98 72 -154.5t225 -56.5 q162 0 274.5 78.5t139.5 246.5l35 207q-74 -96 -185.5 -147t-232.5 -51zM203 467q0 -158 85 -240t218 -82q190 0 314 144.5t124 347.5q0 160 -87 243t-224 83q-190 0 -310 -145.5t-120 -350.5zM422 1458h139l133 -213l199 213h145l-247 -262h-203z" glyph-name="gcaron" horiz-adv-x="1189" unicode="ǧ"/><glyph d="M35 0l227 1434h152l-129 -811l860 811h182l-704 -664l528 -770h-176l-463 666l-258 -244l-68 -422h-151zM551 1827h139l133 -213l199 213h145l-247 -262h-203z" glyph-name="uni01E8" horiz-adv-x="1282" unicode="Ǩ"/><glyph d="M35 0l227 1434h146l-152 -961l666 592h168l-529 -463l422 -602h-162l-362 510l-230 -201l-49 -309h-145zM80 1827h139l133 -213l199 213h145l-247 -262h-203z" glyph-name="uni01E9" horiz-adv-x="1093" unicode="ǩ"/><glyph d="M764 -377q-102 -23 -185 20.5t-83 145.5q0 115 104 193q-227 18 -359 169.5t-132 423.5q0 231 89 430t265 323t403 124q252 0 400.5 -152.5t148.5 -443.5q0 -319 -170 -566t-454 -298q-84 -18 -131.5 -64.5t-47.5 -111.5q0 -61 44 -88t120 -17zM260 580 q0 -236 109.5 -352.5t298.5 -116.5q184 0 323 110.5t207 276.5t68 354q0 233 -109.5 351t-298.5 118q-184 0 -324.5 -109.5t-207 -275.5t-66.5 -356z" glyph-name="uni01EA" horiz-adv-x="1466" unicode="Ǫ"/><glyph d="M588 -377q-102 -23 -185.5 20.5t-83.5 145.5q0 117 109 195q-164 20 -265.5 131.5t-101.5 312.5q0 266 168 461.5t428 195.5q190 0 313.5 -113.5t123.5 -334.5q0 -233 -132.5 -416.5t-345.5 -228.5q-82 -16 -131 -63.5t-49 -112.5q0 -61 45 -88t121 -17zM203 442 q0 -172 86 -256t223 -84q195 0 316.5 157t121.5 366q0 170 -86 254t-223 84q-195 0 -316.5 -156t-121.5 -365z" glyph-name="uni01EB" horiz-adv-x="1155" unicode="ǫ"/><glyph d="M547 -20q-256 0 -382 119.5t-95 310.5h149q-12 -133 74 -217t274.5 -84t298 85t109.5 228q0 109 -64.5 161t-197.5 79l-170 36q-332 72 -332 336q0 190 149.5 304t391.5 114q227 0 347 -102.5t95 -270.5h-150q10 106 -68.5 175t-240.5 69q-170 0 -268 -76t-98 -203 q0 -90 57 -146t186 -83l166 -35q176 -37 266.5 -114.5t90.5 -229.5q0 -209 -164 -332.5t-424 -123.5zM360 -444l11 73q125 6 137 117q-53 0 -84 26.5t-31 71.5q0 49 32 81t81 32t79.5 -36t30.5 -105q0 -102 -63.5 -181t-179.5 -79h-13z" glyph-name="Scommaaccent" horiz-adv-x="1243" unicode="Ș"/><glyph d="M412 -20q-184 0 -296 79.5t-96 235.5h134q-4 -104 74.5 -151.5t197.5 -47.5q133 0 219 55.5t86 159.5q0 70 -43 102.5t-139 59.5l-176 43q-242 61 -242 250q0 147 121 233t313 86q178 0 276.5 -77.5t84.5 -231.5h-123q-2 193 -250 193q-129 0 -205 -49.5t-76 -137.5 q0 -59 40 -96t134 -61l172 -43q131 -35 197 -90.5t66 -165.5q0 -164 -134 -255t-335 -91zM264 -467l10 74q125 6 138 117q-53 0 -84 26.5t-31 71.5q0 49 31.5 80.5t81 31.5t80 -35.5t30.5 -105.5q0 -102 -63.5 -181t-180.5 -79h-12z" glyph-name="scommaaccent" horiz-adv-x="976" unicode="ș"/><glyph d="M432 0l205 1300h-459l23 134h1065l-21 -134h-459l-204 -1300h-150zM311 -444l11 73q125 6 137 117q-53 0 -84 26.5t-31 71.5q0 49 32 81t81 32t79.5 -36t30.5 -105q0 -102 -63.5 -181t-179.5 -79h-13z" glyph-name="uni021A" horiz-adv-x="1181" unicode="Ț"/><glyph d="M397 -14q-266 0 -225 254l113 708h-170l16 117h172l41 264h145l-40 -264h210l-16 -117h-213l-108 -680q-14 -88 16.5 -125t118.5 -37h69l-20 -114q-37 -6 -109 -6zM160 -444l10 73q125 6 137 117q-53 0 -83.5 26.5t-30.5 71.5q0 49 31.5 81t80.5 32t80 -36t31 -105 q0 -102 -63.5 -181t-180.5 -79h-12z" glyph-name="uni021B" horiz-adv-x="651" unicode="ț"/><glyph d="M-106 -383q-49 0 -107 6l18 115h64q88 0 130 36t56 126l187 1165h145l-190 -1194q-41 -254 -303 -254z" glyph-name="uni0237" horiz-adv-x="399" unicode="ȷ"/><glyph d="M455 -23q-184 0 -293 101.5t-109 294.5q0 123 27 202h817q2 18 2 56q0 176 -77 257t-226 81q-252 0 -340 -197h-135q66 166 195.5 239.5t293.5 73.5q201 0 314.5 -110.5t113.5 -333.5q0 -274 -158.5 -469t-424.5 -195zM199 467q-33 -178 41.5 -275.5t230.5 -97.5 q164 0 268.5 103.5t141.5 269.5h-682z" glyph-name="uni0259" horiz-adv-x="1099" unicode="ə"/><glyph d="M104 1196l248 262h203l166 -262h-139l-133 213l-199 -213h-146z" glyph-name="circumflex" horiz-adv-x="616" unicode="ˆ"/><glyph d="M762 1458l-248 -262h-203l-166 262h140l133 -213l198 213h146z" glyph-name="caron" horiz-adv-x="616" unicode="ˇ"/><glyph d="M395.5 1202q-145.5 0 -206 73t-44.5 183h103q-14 -164 160 -164q176 0 204 164h103q-18 -113 -96 -184.5t-223.5 -71.5z" glyph-name="breve" horiz-adv-x="569" unicode="˘"/><glyph d="M231.5 1288q-38.5 0 -67.5 27.5t-29 66.5t29 67t67.5 28t66.5 -28t28 -67t-28 -66.5t-66.5 -27.5z" glyph-name="dotaccent" horiz-adv-x="192" unicode="˙"/><glyph d="M307 1171q-74 0 -125 50.5t-51 122t50 120.5t126 49t126 -49t50 -120.5t-51 -122t-125 -50.5zM211 1343.5q0 -40.5 27.5 -68.5t68.5 -28t68.5 28t27.5 68.5t-27.5 68.5t-68.5 28t-68.5 -28t-27.5 -68.5z" glyph-name="ring" horiz-adv-x="356" unicode="˚"/><glyph d="M152 -377q-102 -23 -184.5 20.5t-82.5 145.5q0 111 95.5 185.5t224.5 74.5l61 -49q-117 0 -190.5 -51t-73.5 -133q0 -61 44 -88t120 -17z" glyph-name="ogonek" horiz-adv-x="350" unicode="˛"/><glyph d="M606 1241q-49 0 -89 22.5t-60.5 48t-52 48t-66.5 22.5q-43 0 -69.5 -28.5t-32.5 -65.5h-97q14 94 66.5 142.5t128.5 48.5q49 0 89 -22.5t60.5 -48.5t51 -48.5t65.5 -22.5q45 0 71.5 29t30.5 66h97q-14 -92 -66.5 -141.5t-126.5 -49.5z" glyph-name="tilde" horiz-adv-x="677" unicode="˜"/><glyph d="M381 1192l248 266h133l-248 -266h-133zM104 1192l248 266h133l-247 -266h-134z" glyph-name="hungarumlaut" horiz-adv-x="618" unicode="˝"/><glyph d="M317 1192l-167 266h129l167 -266h-129z" glyph-name="gravecomb" horiz-adv-x="0" unicode="̀"/><glyph d="M104 1192l248 266h133l-247 -266h-134z" glyph-name="acutecomb" horiz-adv-x="0" unicode="́"/><glyph d="M104 1196l248 262h203l166 -262h-139l-133 213l-199 -213h-146z" glyph-name="uni0302" horiz-adv-x="0" unicode="̂"/><glyph d="M606 1241q-49 0 -89 22.5t-60.5 48t-52 48t-66.5 22.5q-43 0 -69.5 -28.5t-32.5 -65.5h-97q14 94 66.5 142.5t128.5 48.5q49 0 89 -22.5t60.5 -48.5t51 -48.5t65.5 -22.5q45 0 71.5 29t30.5 66h97q-14 -92 -66.5 -141.5t-126.5 -49.5z" glyph-name="tildecomb" horiz-adv-x="0" unicode="̃"/><glyph d="M133 1364l12 94h596l-14 -94h-594z" glyph-name="uni0304" horiz-adv-x="0" unicode="̄"/><glyph d="M395.5 1202q-145.5 0 -206 73t-44.5 183h103q-14 -164 160 -164q176 0 204 164h103q-18 -113 -96 -184.5t-223.5 -71.5z" glyph-name="uni0306" horiz-adv-x="0" unicode="̆"/><glyph d="M231.5 1288q-38.5 0 -67.5 27.5t-29 66.5t29 67t67.5 28t66.5 -28t28 -67t-28 -66.5t-66.5 -27.5z" glyph-name="uni0307" horiz-adv-x="0" unicode="̇"/><glyph d="M602 1288q-39 0 -67.5 27.5t-28.5 66.5t28.5 67t67.5 28t66.5 -28t27.5 -67t-27.5 -66.5t-66.5 -27.5zM135 1382q0 39 29 67t67.5 28t66.5 -28t28 -67t-28 -66.5t-66.5 -27.5t-67.5 27.5t-29 66.5z" glyph-name="uni0308" horiz-adv-x="0" unicode="̈"/><glyph d="M299 1231q59 2 94 31.5t35 85.5q0 53 -29.5 82.5t-76.5 29.5q-43 0 -72 -24.5t-31 -69.5h-84q0 86 55.5 133t133.5 47q80 0 137 -51t57 -141q0 -84 -53 -135.5t-127 -57.5z" glyph-name="hookabovecomb" horiz-adv-x="0" unicode="̉"/><glyph d="M307 1171q-74 0 -125 50.5t-51 122t50 120.5t126 49t126 -49t50 -120.5t-51 -122t-125 -50.5zM211 1343.5q0 -40.5 27.5 -68.5t68.5 -28t68.5 28t27.5 68.5t-27.5 68.5t-68.5 28t-68.5 -28t-27.5 -68.5z" glyph-name="uni030A" horiz-adv-x="0" unicode="̊"/><glyph d="M381 1192l248 266h133l-248 -266h-133zM104 1192l248 266h133l-247 -266h-134z" glyph-name="uni030B" horiz-adv-x="0" unicode="̋"/><glyph d="M762 1458l-248 -262h-203l-166 262h140l133 -213l198 213h146z" glyph-name="uni030C" horiz-adv-x="0" unicode="̌"/><glyph d="M428 1362q-125 -6 -137 -117q53 0 84 -26.5t31 -71.5q0 -49 -32 -81t-81 -32t-80 36t-31 106q0 102 63.5 181t180.5 79h12z" glyph-name="uni0312" horiz-adv-x="0" unicode="̒"/><glyph d="M66 944l18 121h215l29 180h127l-27 -180l-18 -121h-344z" glyph-name="uni031B" horiz-adv-x="0" unicode="̛"/><glyph d="M70 -471q-45 0 -77 30.5t-32 75.5q0 43 32 75t77 32q43 0 74.5 -32t31.5 -75q0 -45 -31.5 -75.5t-74.5 -30.5z" glyph-name="dotbelowcomb" horiz-adv-x="0" unicode="̣"/><glyph d="M-131 -371q125 6 137 117q-53 0 -84 26.5t-31 71.5q0 49 32 81t81 32t80 -36t31 -105q0 -102 -63.5 -181t-180.5 -79h-12z" glyph-name="uni0326" horiz-adv-x="0" unicode="̦"/><glyph d="M-98 -358q80 -2 129 27.5t49 82.5q0 49 -41 66.5t-102 -6.5l-41 57l127 131h114l-108 -102q8 2 26 2q59 0 97 -36t38 -102q0 -102 -87 -155t-216 -53z" glyph-name="uni0327" horiz-adv-x="0" unicode="̧"/><glyph d="M152 -377q-102 -23 -184.5 20.5t-82.5 145.5q0 111 95.5 185.5t224.5 74.5l61 -49q-117 0 -190.5 -51t-73.5 -133q0 -61 44 -88t120 -17z" glyph-name="uni0328" horiz-adv-x="0" unicode="̨"/><glyph d="M-37 0l879 1460h2l416 -1460h-1297zM180 121h907l-284 1055z" glyph-name="Delta" horiz-adv-x="1392" unicode="Δ"/><glyph d="M55 0l19 121h346q-305 186 -305 524q0 209 113.5 395.5t304 297t405.5 110.5q266 0 442 -168t176 -432q0 -229 -136 -419.5t-369 -307.5h350l-21 -121h-438l33 213q201 100 317.5 264t116.5 359q0 217 -141.5 345t-349.5 128q-264 0 -459 -193.5t-195 -458.5 q0 -289 262 -444l-32 -213h-439z" glyph-name="Omega" horiz-adv-x="1603" unicode="Ω"/><glyph d="M-27 -389l230 1454h145l-98 -627q-55 -334 235 -334q150 0 250.5 88.5t124.5 243.5v-8l101 637h145l-168 -1065h-145l30 195q-41 -78 -144.5 -146.5t-254.5 -68.5q-147 0 -236 73l-69 -442h-146z" glyph-name="mu" unicode="μ"/><glyph d="M1030 -12q-100 0 -153.5 55t-34.5 168l114 727h-444l-147 -938h-146l148 938h-205l20 127h1143l-20 -127h-203l-111 -709q-8 -63 11.5 -87.5t70.5 -24.5q63 0 131 35l-20 -125q-78 -39 -154 -39z" glyph-name="pi" horiz-adv-x="1353" unicode="π"/><glyph d="M35 0l227 1434h903l-22 -134h-752l-80 -501h690l-18 -123h-690l-86 -543h772l-21 -133h-923zM481 1751q0 39 29 66.5t67.5 27.5t66.5 -27.5t28 -66.5t-28 -66.5t-66.5 -27.5t-67.5 27.5t-29 66.5zM852 1751q0 39 28.5 66.5t67.5 27.5t66.5 -27.5t27.5 -66.5t-27.5 -66.5 t-66.5 -27.5t-67.5 27.5t-28.5 66.5z" glyph-name="afii10023" horiz-adv-x="1110" unicode="Ё"/><glyph d="M35 0l227 1434h838l-23 -136h-684l-207 -1298h-151zM612 1561l248 266h133l-248 -266h-133z" glyph-name="afii10052" horiz-adv-x="1013" unicode="Ѓ"/><glyph d="M664 -20q-256 0 -404.5 151.5t-148.5 446.5q0 362 205.5 618t551.5 256q221 0 356.5 -110.5t139.5 -315.5h-141q-16 143 -112.5 219t-252.5 76q-223 0 -372.5 -146.5t-202.5 -373.5h530l-20 -125h-529q-4 -57 -4 -84q0 -238 112.5 -359.5t307.5 -121.5q156 0 267.5 76.5 t172.5 220.5h148q-70 -211 -228.5 -319.5t-375.5 -108.5z" glyph-name="afii10053" horiz-adv-x="1347" unicode="Є"/><glyph d="M35 0l227 1434h152l-228 -1434h-151zM106 1751q0 39 29 66.5t68 27.5t66.5 -27.5t27.5 -66.5t-27.5 -66.5t-66.5 -27.5t-68 27.5t-29 66.5zM477 1751q0 39 29 66.5t67.5 27.5t66.5 -27.5t28 -66.5t-28 -66.5t-66.5 -27.5t-67.5 27.5t-29 66.5z" glyph-name="afii10056" horiz-adv-x="389" unicode="Ї"/><glyph d="M35 0l227 1434h152l-129 -811l860 811h182l-704 -664l528 -770h-176l-463 666l-258 -244l-68 -422h-151zM563 1561l248 266h133l-248 -266h-133z" glyph-name="afii10061" horiz-adv-x="1282" unicode="Ќ"/><glyph d="M127 123q106 -12 175 29t122 137q49 90 33 166l-256 979h164l213 -869l487 869h166l-666 -1153q-100 -176 -208.5 -245t-250.5 -50zM494 1827h102q-14 -164 160 -164q176 0 205 164h102q-18 -113 -96 -184.5t-223.5 -71.5t-205.5 72.5t-44 183.5z" glyph-name="afii10062" horiz-adv-x="1144" unicode="Ў"/><glyph d="M-37 0l780 1434h183l323 -1434h-155l-80 371h-690l-199 -371h-162zM387 487h600l-170 783h-10z" glyph-name="afii10017" horiz-adv-x="1380" unicode="А"/><glyph d="M35 0l227 1434h838l-23 -136h-684l-61 -391h364q215 0 324.5 -97t109.5 -284q0 -236 -157.5 -381t-419.5 -145h-518zM209 135h354q190 0 298 104.5t108 270.5q0 262 -305 262h-355z" glyph-name="afii10018" horiz-adv-x="1208" unicode="Б"/><glyph d="M35 0l227 1434h524q188 0 281.5 -80t93.5 -219q0 -125 -69.5 -219.5t-196.5 -133.5q250 -63 250 -323q0 -213 -159 -336t-415 -123h-536zM205 131h370q184 0 299 91t115 241q0 244 -315 244h-377zM319 836h359q150 0 238 76.5t88 201.5q0 190 -244 191h-367z" glyph-name="afii10019" horiz-adv-x="1230" unicode="В"/><glyph d="M35 0l227 1434h838l-23 -136h-684l-207 -1298h-151z" glyph-name="afii10020" horiz-adv-x="1013" unicode="Г"/><glyph d="M-59 -141l43 270h67q111 90 180.5 313.5t141.5 675.5l49 316h952l-207 -1305h86l-43 -270h-145l22 141h-978l-23 -141h-145zM213 129h803l184 1169h-647l-29 -180q-74 -459 -139.5 -679t-171.5 -310z" glyph-name="afii10021" horiz-adv-x="1384" unicode="Д"/><glyph d="M35 0l227 1434h903l-22 -134h-752l-80 -501h690l-18 -123h-690l-86 -543h772l-21 -133h-923z" glyph-name="afii10022" horiz-adv-x="1110" unicode="Е"/><glyph d="M-37 0l787 733l-525 701h176l478 -629l100 629h151l-100 -639l674 639h178l-735 -701l543 -733h-179l-501 672l-107 -672h-151l104 662l-713 -662h-180z" glyph-name="afii10024" horiz-adv-x="1820" unicode="Ж"/><glyph d="M494 -20q-238 0 -349.5 130t-78.5 345h135q-23 -162 61 -255.5t250 -93.5q176 0 297 99.5t121 251.5q0 123 -88 189.5t-254 66.5h-60l19 114h51q162 0 261 78t99 205q0 104 -66.5 159.5t-189.5 55.5q-143 0 -242.5 -80t-121.5 -248h-137q31 223 169 339t349 116 q184 0 284.5 -84t100.5 -223q0 -127 -82 -227.5t-215 -137.5q115 -20 192.5 -101t77.5 -218q0 -209 -168.5 -345t-414.5 -136z" glyph-name="afii10025" horiz-adv-x="1171" unicode="З"/><glyph d="M35 0l227 1434h152l-193 -1207h6l973 1207h170l-227 -1434h-150l191 1202h-4l-969 -1202h-176z" glyph-name="afii10026" horiz-adv-x="1347" unicode="И"/><glyph d="M841.5 1571q-145.5 0 -206 72.5t-43.5 183.5h102q-14 -164 160 -164q176 0 205 164h102q-18 -113 -96 -184.5t-223.5 -71.5zM35 0l227 1434h152l-193 -1207h6l973 1207h170l-227 -1434h-150l191 1202h-4l-969 -1202h-176z" glyph-name="afii10027" horiz-adv-x="1347" unicode="Й"/><glyph d="M35 0l227 1434h152l-129 -811l860 811h182l-704 -664l528 -770h-176l-463 666l-258 -244l-68 -422h-151z" glyph-name="afii10028" horiz-adv-x="1282" unicode="К"/><glyph d="M-35 121q125 -2 207 71.5t113 262.5l155 979h963l-227 -1434h-152l205 1298h-658l-135 -847q-41 -254 -172 -366t-319 -99z" glyph-name="afii10029" horiz-adv-x="1380" unicode="Л"/><glyph d="M35 0l227 1434h180l349 -1241l735 1241h184l-227 -1434h-150l183 1151h-7l-680 -1151h-133l-323 1151h-6l-181 -1151h-151z" glyph-name="afii10030" horiz-adv-x="1687" unicode="М"/><glyph d="M965 0l100 637h-778l-101 -637h-151l227 1434h152l-107 -670h778l107 670h149l-227 -1434h-149z" glyph-name="afii10031" horiz-adv-x="1318" unicode="Н"/><glyph d="M657 -20q-252 0 -400 152.5t-148 442.5q0 231 89 430t265 323t403 124q252 0 400.5 -152.5t148.5 -443.5q0 -231 -90 -429t-265.5 -322.5t-402.5 -124.5zM260 580q0 -236 109.5 -352.5t298.5 -116.5q184 0 323 110.5t207 276.5t68 354q0 233 -109.5 351t-298.5 118 q-184 0 -324.5 -109.5t-207 -275.5t-66.5 -356z" glyph-name="afii10032" horiz-adv-x="1466" unicode="О"/><glyph d="M35 0l227 1434h1084l-228 -1434h-151l204 1298h-778l-207 -1298h-151z" glyph-name="afii10033" horiz-adv-x="1320" unicode="П"/><glyph d="M35 0l227 1434h512q436 0 436 -373q0 -229 -156.5 -364.5t-418.5 -135.5h-361l-88 -561h-151zM297 696h354q188 0 297 93.5t109 252.5q0 258 -309 258h-357z" glyph-name="afii10034" horiz-adv-x="1202" unicode="Р"/><glyph d="M664 -20q-256 0 -404.5 151.5t-148.5 446.5q0 362 205.5 618t551.5 256q221 0 356.5 -110.5t139.5 -315.5h-141q-16 143 -112.5 219t-252.5 76q-186 0 -325.5 -108.5t-206 -271.5t-66.5 -349q0 -238 112.5 -359.5t307.5 -121.5q156 0 267.5 76.5t172.5 220.5h148 q-70 -211 -228.5 -319.5t-375.5 -108.5z" glyph-name="afii10035" horiz-adv-x="1347" unicode="С"/><glyph d="M432 0l205 1300h-459l23 134h1065l-21 -134h-459l-204 -1300h-150z" glyph-name="afii10036" horiz-adv-x="1181" unicode="Т"/><glyph d="M127 123q106 -12 175 29t122 137q49 90 33 166l-256 979h164l213 -869l487 869h166l-666 -1153q-100 -176 -208.5 -245t-250.5 -50z" glyph-name="afii10037" horiz-adv-x="1144" unicode="У"/><glyph d="M565 -31l25 150q-225 18 -352 141t-127 340q0 299 183 494.5t484 220.5l25 149h151l-24 -149q225 -18 352 -141t127 -340q0 -299 -183.5 -495t-484.5 -220l-24 -150h-152zM256 621q0 -170 93 -267.5t259 -113.5l152 954q-231 -25 -367.5 -182.5t-136.5 -390.5zM760 240 q231 25 367.5 182.5t136.5 392.5q0 170 -93.5 266.5t-259.5 112.5z" glyph-name="afii10038" horiz-adv-x="1462" unicode="Ф"/><glyph d="M-37 0l641 741l-379 693h168l314 -574l495 574h172l-600 -695l406 -739h-170l-340 621l-535 -621h-172z" glyph-name="afii10039" horiz-adv-x="1312" unicode="Х"/><glyph d="M35 0l227 1434h152l-207 -1299h780l207 1299h152l-207 -1299h86l-68 -424h-145l45 289h-1022z" glyph-name="afii10040" horiz-adv-x="1335" unicode="Ц"/><glyph d="M494 338q-190 0 -296 107.5t-69 336.5l102 652h152l-102 -646q-27 -164 53 -240.5t225 -76.5q176 0 308 97.5t169 193.5l107 672h151l-227 -1434h-152l93 582q-74 -94 -209 -169t-305 -75z" glyph-name="afii10041" horiz-adv-x="1271" unicode="Ч"/><glyph d="M35 0l227 1434h152l-207 -1299h455l206 1299h152l-207 -1299h455l205 1299h153l-227 -1434h-1364z" glyph-name="afii10042" horiz-adv-x="1601" unicode="Ш"/><glyph d="M35 0l227 1434h152l-207 -1299h455l206 1299h152l-207 -1299h455l205 1299h153l-207 -1299h90l-67 -424h-148l45 289h-1304z" glyph-name="afii10043" horiz-adv-x="1619" unicode="Щ"/><glyph d="M168 1298l22 136h320l-84 -527h352q219 0 332 -97t113 -284q0 -238 -161 -382t-427 -144h-504l207 1298h-170zM305 135h354q186 0 294 103.5t108 269.5q0 264 -301 264h-354z" glyph-name="afii10044" horiz-adv-x="1298" unicode="Ъ"/><glyph d="M35 0l227 1434h152l-84 -527h352q219 0 331.5 -97t112.5 -284q0 -238 -160.5 -382t-426.5 -144h-504zM209 135h354q186 0 294 103.5t108 269.5q0 264 -301 264h-355zM1204 0l228 1434h151l-227 -1434h-152z" glyph-name="afii10045" horiz-adv-x="1558" unicode="Ы"/><glyph d="M35 0l227 1434h152l-84 -527h352q219 0 331.5 -97t112.5 -284q0 -238 -160.5 -382t-426.5 -144h-504zM209 135h354q186 0 294 103.5t108 269.5q0 264 -301 264h-355z" glyph-name="afii10046" horiz-adv-x="1202" unicode="Ь"/><glyph d="M592 631l18 125h539q4 57 4 84q0 238 -112.5 359.5t-307.5 121.5q-156 0 -267.5 -77t-172.5 -220h-148q70 211 228.5 319.5t376.5 108.5q256 0 404.5 -151.5t148.5 -446.5q0 -362 -206 -618t-552 -256q-221 0 -356.5 110.5t-139.5 315.5h141q16 -143 112.5 -219 t252.5 -76q223 0 372.5 146t202.5 374h-538z" glyph-name="afii10047" horiz-adv-x="1355" unicode="Э"/><glyph d="M35 0l227 1434h152l-107 -670h228q53 297 250.5 492.5t490.5 195.5q252 0 400.5 -152.5t148.5 -443.5q0 -231 -90 -429t-265.5 -322.5t-402.5 -124.5q-252 0 -400.5 152.5t-148.5 442.5l2 62h-233l-101 -637h-151zM670 580q0 -236 109.5 -352.5t297.5 -116.5 q184 0 323.5 110.5t207 276.5t67.5 354q0 233 -109.5 351t-297.5 118q-184 0 -324.5 -109.5t-207 -275.5t-66.5 -356z" glyph-name="afii10048" horiz-adv-x="1873" unicode="Ю"/><glyph d="M860 0l88 561h-346l-450 -561h-168l465 571q-303 55 -304 359q0 229 158 366.5t418 137.5h516l-227 -1434h-150zM299 952q0 -256 311 -256h361l94 604h-360q-190 0 -298 -95t-108 -253z" glyph-name="afii10049" horiz-adv-x="1212" unicode="Я"/><glyph d="M334 -20q-145 0 -227 62t-82 189q0 141 102 229.5t283 110.5l274 31q90 10 123 27.5t41 56.5l6 37q25 135 -34.5 192.5t-203.5 57.5q-274 0 -309 -207l-4 -25h-137l4 35q47 309 467 309q215 0 304 -86t58 -276l-114 -723h-137l28 184h-8q-41 -66 -154.5 -135t-279.5 -69z M170 250q0 -154 207 -154q174 0 291.5 92.5t132.5 188.5l24 168q-18 -39 -168 -58l-227 -26q-260 -31 -260 -211z" glyph-name="afii10065" horiz-adv-x="1087" unicode="а"/><glyph d="M499.5 -18q-243.5 0 -343 172t-56.5 452l58 365q37 229 171 346t353 117h166q123 0 149 45h140q-27 -92 -93.5 -128t-205.5 -36h-166q-154 0 -250 -86t-123 -252l-20 -127q63 111 172.5 168t230.5 57q168 0 281.5 -109.5t113.5 -320.5q0 -272 -167 -467.5t-410.5 -195.5z M221 434q0 -164 83 -247t212 -83q186 0 303 158t117 365q0 166 -83 248.5t-212 82.5q-186 0 -303 -158.5t-117 -365.5z" glyph-name="afii10066" horiz-adv-x="1136" unicode="б"/><glyph d="M35 0l168 1065h499q150 0 232 -61.5t82 -169.5q0 -82 -51.5 -149t-153.5 -97q205 -49 205 -252q0 -164 -133 -250t-348 -86h-500zM201 123h348q160 0 242.5 57.5t82.5 165.5q0 178 -262 178h-350zM281 625h342q119 0 186.5 49t67.5 133q0 135 -207 135h-340z" glyph-name="afii10067" horiz-adv-x="1120" unicode="в"/><glyph d="M35 0l168 1065h671l-18 -119h-526l-150 -946h-145z" glyph-name="afii10068" horiz-adv-x="837" unicode="г"/><glyph d="M96 0l-20 -135h-133l39 254h73q51 47 88 152.5t56.5 210t58.5 358.5l37 225h860l-149 -946h69l-41 -254h-131l21 135h-828zM201 119h659l131 827h-569l-25 -155q-53 -334 -89.5 -472.5t-106.5 -199.5z" glyph-name="afii10069" horiz-adv-x="1187" unicode="д"/><glyph d="M489 -23q-201 0 -314.5 110t-113.5 335q0 178 68 327.5t203 242.5t313 93q186 0 294 -101t108 -292q0 -123 -27 -203h-817q-2 -18 -2 -57q0 -176 76.5 -257t230.5 -81q238 0 338 197h133q-140 -314 -490 -314zM219 596h682q33 178 -42 275.5t-230 97.5 q-164 0 -268.5 -103.5t-141.5 -269.5z" glyph-name="afii10070" horiz-adv-x="1099" unicode="е"/><glyph d="M-57 0l624 539l-438 526h180l377 -457l72 457h145l-72 -459l519 459h182l-604 -526l454 -539h-180l-393 471l-74 -471h-145l74 469l-539 -469h-182z" glyph-name="afii10072" horiz-adv-x="1492" unicode="ж"/><glyph d="M426 -18q-211 0 -312.5 102t-74.5 274h135q-18 -117 53.5 -190.5t216.5 -73.5q137 0 231.5 66.5t94.5 171.5q0 92 -83 140t-228 46l14 88q143 4 234.5 55.5t91.5 145.5q0 76 -59.5 119t-161.5 43q-121 0 -202 -60.5t-95 -154.5h-136q25 147 140.5 236t304.5 89 q162 0 256 -67.5t94 -177.5q0 -98 -69.5 -168t-186.5 -97q96 -14 161.5 -72.5t65.5 -164.5q0 -160 -141 -255t-344 -95z" glyph-name="afii10073" horiz-adv-x="1036" unicode="з"/><glyph d="M35 0l168 1065h145l-137 -875h4l764 875h166l-168 -1065h-146l138 870h-4l-760 -870h-170z" glyph-name="afii10074" horiz-adv-x="1179" unicode="и"/><glyph d="M35 0l168 1065h145l-137 -875h4l764 875h166l-168 -1065h-146l138 870h-4l-760 -870h-170zM453 1458h102q-14 -164 160 -164q176 0 205 164h102q-18 -113 -96 -184.5t-223.5 -71.5t-205.5 72.5t-44 183.5z" glyph-name="afii10075" horiz-adv-x="1179" unicode="й"/><glyph d="M35 0l168 1065h145l-92 -588l651 588h172l-522 -465l422 -600h-162l-362 508l-226 -201l-49 -307h-145z" glyph-name="afii10076" horiz-adv-x="1091" unicode="к"/><glyph d="M-37 109q123 -2 201 71.5t108 265.5l97 619h805l-168 -1065h-142l148 946h-514l-82 -506q-74 -475 -471 -450z" glyph-name="afii10077" horiz-adv-x="1210" unicode="л"/><glyph d="M35 0l168 1065h162l286 -901l572 901h163l-167 -1065h-146l127 801h-8l-502 -801h-121l-256 801h-6l-127 -801h-145z" glyph-name="afii10078" horiz-adv-x="1421" unicode="м"/><glyph d="M35 0l168 1065h145l-69 -453h542l72 453h145l-168 -1065h-145l78 494h-545l-78 -494h-145z" glyph-name="afii10079" horiz-adv-x="1073" unicode="н"/><glyph d="M496 -20q-190 0 -312.5 113.5t-122.5 334.5q0 266 168 461.5t428 195.5q190 0 313.5 -113.5t123.5 -334.5q0 -268 -168 -462.5t-430 -194.5zM203 442q0 -172 86 -256t223 -84q195 0 316.5 157t121.5 366q0 170 -86 254t-223 84q-195 0 -316.5 -156t-121.5 -365z" glyph-name="afii10080" horiz-adv-x="1155" unicode="о"/><glyph d="M35 0l168 1065h848l-168 -1065h-146l150 946h-557l-150 -946h-145z" glyph-name="afii10081" horiz-adv-x="1087" unicode="п"/><glyph d="M-27 -389l230 1454h145l-26 -180q70 98 178 149t229 51q176 0 293 -109.5t117 -322.5q0 -281 -161 -477t-415 -196q-123 0 -218 52t-136 148l-90 -569h-146zM250 442q0 -166 88 -253t223 -87q193 0 314.5 156t121.5 367q0 166 -87 252t-220 86q-193 0 -316.5 -155 t-123.5 -366z" glyph-name="afii10082" horiz-adv-x="1200" unicode="р"/><glyph d="M496 -20q-195 0 -315 113.5t-120 338.5q0 270 167 461.5t434 191.5q170 0 283.5 -88t111.5 -288h-133q-2 131 -81 191.5t-196 60.5q-203 0 -324.5 -153t-121.5 -364q0 -170 84 -255t227 -85q119 0 215 60.5t141 195.5h131q-39 -139 -126 -229t-180 -120.5t-197 -30.5z " glyph-name="afii10083" horiz-adv-x="1089" unicode="с"/><glyph d="M322 0l149 946h-344l18 119h836l-18 -119h-347l-149 -946h-145z" glyph-name="afii10084" horiz-adv-x="958" unicode="т"/><glyph d="M33 -266q201 -29 309 168q47 84 33 145l-244 1018h150l200 -901l486 901h153l-645 -1163q-96 -176 -206.5 -245t-254.5 -50z" glyph-name="afii10085" horiz-adv-x="1083" unicode="у"/><glyph d="M387 -389l59 375q-172 18 -279.5 127.5t-107.5 302.5q0 266 156 450.5t403 208.5l58 359h135l-57 -359q170 -20 277.5 -130.5t107.5 -303.5q0 -262 -155 -447.5t-402 -207.5l-60 -375h-135zM184 426q0 -145 76 -227t205 -99l135 861q-195 -25 -305.5 -172.5 t-110.5 -362.5zM600 100q193 25 303.5 172.5t110.5 360.5q0 147 -75 228t-204 100z" glyph-name="afii10086" horiz-adv-x="1200" unicode="ф"/><glyph d="M-16 0l467 539l-289 526h160l223 -420l354 420h168l-457 -526l297 -539h-157l-234 432l-366 -432h-166z" glyph-name="afii10087" horiz-adv-x="1060" unicode="х"/><glyph d="M35 0l168 1065h145l-149 -946h557l149 946h146l-150 -946h80l-61 -406h-140l43 287h-788z" glyph-name="afii10088" horiz-adv-x="1167" unicode="ц"/><glyph d="M827 510q-37 -80 -149.5 -155.5t-271.5 -75.5q-166 0 -256.5 97t-57.5 306l60 383h145l-57 -367q-25 -156 39.5 -225.5t187.5 -69.5q154 0 263.5 93.5t125.5 197.5l59 371h146l-168 -1065h-145z" glyph-name="afii10089" horiz-adv-x="1095" unicode="ч"/><glyph d="M35 0l168 1065h145l-149 -946h436l151 946h138l-150 -946h436l150 946h145l-168 -1065h-1302z" glyph-name="afii10090" horiz-adv-x="1542" unicode="ш"/><glyph d="M1235 -287l45 287h-1245l168 1065h145l-149 -946h436l151 946h138l-150 -946h436l150 946h145l-149 -946h82l-64 -406h-139z" glyph-name="afii10091" horiz-adv-x="1622" unicode="щ"/><glyph d="M113 946l18 119h330l-62 -391h332q356 0 356 -287q0 -180 -126.5 -283.5t-335.5 -103.5h-478l150 946h-184zM311 119h322q150 0 231.5 66.5t81.5 185.5q0 92 -57.5 138t-186.5 46h-321z" glyph-name="afii10092" horiz-adv-x="1185" unicode="ъ"/><glyph d="M35 0l168 1065h145l-61 -391h331q356 0 357 -287q0 -180 -127 -283.5t-336 -103.5h-477zM199 119h321q150 0 232 66.5t82 185.5q0 92 -57.5 138t-186.5 46h-322zM1034 0l168 1065h146l-168 -1065h-146z" glyph-name="afii10093" horiz-adv-x="1382" unicode="ы"/><glyph d="M35 0l168 1065h145l-61 -391h331q356 0 357 -287q0 -180 -127 -283.5t-336 -103.5h-477zM199 119h321q150 0 232 66.5t82 185.5q0 92 -57.5 138t-186.5 46h-322z" glyph-name="afii10094" horiz-adv-x="1073" unicode="ь"/><glyph d="M502 500l14 96h379v25q0 170 -84 255t-227 85q-119 0 -215.5 -60.5t-141.5 -195.5h-131q39 139 126 229t180.5 120.5t197.5 30.5q195 0 314.5 -113.5t119.5 -338.5q0 -270 -167 -461.5t-433 -191.5q-170 0 -283.5 88t-111.5 288h133q2 -131 81 -191.5t196 -60.5 q172 0 286.5 112t147.5 284h-381z" glyph-name="afii10095" horiz-adv-x="1095" unicode="э"/><glyph d="M12 0l168 1065h146l-76 -475h153q47 215 203 355t375 140q190 0 313 -113.5t123 -334.5q0 -268 -168 -462.5t-430 -194.5q-190 0 -312 113.5t-122 334.5l2 43h-156l-73 -471h-146zM526 442q0 -172 86 -256t224 -84q195 0 316.5 157t121.5 366q0 170 -86 254t-223 84 q-195 0 -317 -156t-122 -365z" glyph-name="afii10096" horiz-adv-x="1476" unicode="ю"/><glyph d="M735 0l62 391h-314l-329 -391h-158l344 403q-231 49 -231 283q0 174 126.5 276.5t337.5 102.5h476l-168 -1065h-146zM248 698q0 -188 246 -188h321l70 436h-322q-150 0 -232.5 -66.5t-82.5 -181.5z" glyph-name="afii10097" horiz-adv-x="1083" unicode="я"/><glyph d="M489 -23q-201 0 -314.5 110t-113.5 335q0 178 68 327.5t203 242.5t313 93q186 0 294 -101t108 -292q0 -123 -27 -203h-817q-2 -18 -2 -57q0 -176 76.5 -257t230.5 -81q238 0 338 197h133q-140 -314 -490 -314zM219 596h682q33 178 -42 275.5t-230 97.5 q-164 0 -268.5 -103.5t-141.5 -269.5zM408 1382q0 39 28.5 67t67.5 28t66.5 -28t27.5 -67t-27.5 -66.5t-66.5 -27.5t-67.5 27.5t-28.5 66.5zM778 1382q0 39 29 67t67.5 28t66.5 -28t28 -67t-28 -66.5t-66.5 -27.5t-67.5 27.5t-29 66.5z" glyph-name="afii10071" horiz-adv-x="1099" unicode="ё"/><glyph d="M35 0l168 1065h671l-18 -119h-526l-150 -946h-145zM424 1192l248 266h133l-248 -266h-133z" glyph-name="afii10100" horiz-adv-x="837" unicode="ѓ"/><glyph d="M496 -20q-195 0 -315 113.5t-120 338.5q0 270 167 461.5t434 191.5q170 0 283.5 -88t111.5 -288h-133q-2 131 -81 191.5t-196 60.5q-164 0 -276.5 -102.5t-151.5 -262.5h379l-14 -96h-381q-2 -18 -2 -56q0 -170 84 -255t227 -85q119 0 215 60.5t141 195.5h131 q-39 -139 -126 -229t-180 -120.5t-197 -30.5z" glyph-name="afii10101" horiz-adv-x="1089" unicode="є"/><glyph d="M12 0l168 1065h146l-168 -1065h-146zM23 1382q0 39 28.5 67t67.5 28t66.5 -28t27.5 -67t-27.5 -66.5t-66.5 -27.5t-67.5 27.5t-28.5 66.5zM393 1382q0 39 29 67t67.5 28t66.5 -28t28 -67t-28 -66.5t-66.5 -27.5t-67.5 27.5t-29 66.5z" glyph-name="afii10104" horiz-adv-x="337" unicode="ї"/><glyph d="M35 0l168 1065h145l-92 -588l651 588h172l-522 -465l422 -600h-162l-362 508l-226 -201l-49 -307h-145zM547 1192l248 266h133l-248 -266h-133z" glyph-name="afii10109" horiz-adv-x="1091" unicode="ќ"/><glyph d="M33 -266q201 -29 309 168q47 84 33 145l-244 1018h150l200 -901l486 901h153l-645 -1163q-96 -176 -206.5 -245t-254.5 -50zM319 1458h103q-14 -164 160 -164q176 0 204 164h103q-18 -113 -96 -184.5t-223.5 -71.5t-206 72.5t-44.5 183.5z" glyph-name="afii10110" horiz-adv-x="1083" unicode="ў"/><glyph d="M948 1434l33 204h152l-33 -204l-23 -136h-684l-207 -1298h-151l227 1434h686z" glyph-name="afii10050" horiz-adv-x="1013" unicode="Ґ"/><glyph d="M745 1065l23 135h129l-23 -135l-18 -119h-526l-150 -946h-145l168 1065h542z" glyph-name="afii10098" horiz-adv-x="837" unicode="ґ"/><glyph d="M35 0l227 1434h449q289 0 432 -144.5t143 -439.5q0 -375 -210 -612.5t-584 -237.5h-457zM207 133h287q313 0 478 201t165 514q0 240 -107.5 346t-339.5 106h-299zM426 -365q0 43 31.5 75t77.5 32q43 0 74.5 -32t31.5 -75q0 -45 -31.5 -75.5t-74.5 -30.5q-45 0 -77 30.5 t-32 75.5z" glyph-name="uni1E0C" horiz-adv-x="1339" unicode="Ḍ"/><glyph d="M463 -20q-176 0 -290 110.5t-114 325.5q0 274 160 471.5t412 197.5q125 0 221 -51t137 -149l88 549h146l-228 -1434h-145l29 180q-72 -96 -182.5 -148t-233.5 -52zM201 444q0 -168 86 -255t221 -87q193 0 316.5 155t123.5 366q0 166 -89 253t-224 87q-190 0 -312 -155 t-122 -364zM356 -365q0 43 32 75t77 32q43 0 74.5 -32t31.5 -75q0 -45 -31.5 -75.5t-74.5 -30.5q-45 0 -77 30.5t-32 75.5z" glyph-name="uni1E0D" horiz-adv-x="1198" unicode="ḍ"/><glyph d="M670 -20q-264 0 -411.5 150.5t-147.5 449.5q0 365 207.5 618.5t558.5 253.5q211 0 337.5 -97.5t143.5 -277.5h-146q-51 244 -342 244q-190 0 -332.5 -106.5t-210 -269.5t-67.5 -355q0 -240 110.5 -359.5t309.5 -119.5q207 0 341 127t171 370l-373 -4l21 123h516l-15 -88 q-51 -328 -223 -493.5t-448 -165.5zM629 1733l12 94h596l-14 -94h-594z" glyph-name="uni1E20" horiz-adv-x="1423" unicode="Ḡ"/><glyph d="M459 23q-174 0 -286 104t-112 309q0 268 157 458.5t405 190.5q123 0 219 -50t139 -146l29 176h145l-149 -940l-19 -111q-20 -125 -78.5 -216t-142.5 -138t-170 -67.5t-180 -20.5q-90 0 -166 18.5t-138.5 55.5t-91 102.5t-16.5 151.5h127q-10 -98 72 -154.5t225 -56.5 q162 0 274.5 78.5t139.5 246.5l35 207q-74 -96 -185.5 -147t-232.5 -51zM203 467q0 -158 85 -240t218 -82q190 0 314 144.5t124 347.5q0 160 -87 243t-224 83q-190 0 -310 -145.5t-120 -350.5zM420 1364l12 94h596l-14 -94h-594z" glyph-name="uni1E21" horiz-adv-x="1189" unicode="ḡ"/><glyph d="M965 0l100 637h-778l-101 -637h-151l227 1434h152l-107 -670h778l107 670h149l-227 -1434h-149zM412 -365q0 43 31.5 75t76.5 32q43 0 75 -32t32 -75q0 -45 -32 -75.5t-75 -30.5q-45 0 -76.5 30.5t-31.5 75.5z" glyph-name="uni1E24" horiz-adv-x="1318" unicode="Ḥ"/><glyph d="M35 0l227 1434h146l-89 -562q41 76 142.5 144.5t255.5 68.5q172 0 266 -103t57 -327l-102 -655h-145l98 627q55 334 -236 334q-145 0 -244.5 -84t-127.5 -230l-103 -647h-145zM332 -365q0 43 31.5 75t76.5 32q43 0 75 -32t32 -75q0 -45 -32 -75.5t-75 -30.5 q-45 0 -76.5 30.5t-31.5 75.5z" glyph-name="uni1E25" unicode="ḥ"/><glyph d="M547 -20q-256 0 -382 119.5t-95 310.5h149q-12 -133 74 -217t274.5 -84t298 85t109.5 228q0 109 -64.5 161t-197.5 79l-170 36q-332 72 -332 336q0 190 149.5 304t391.5 114q227 0 347 -102.5t95 -270.5h-150q10 106 -68.5 175t-240.5 69q-170 0 -268 -76t-98 -203 q0 -90 57 -146t186 -83l166 -35q176 -37 266.5 -114.5t90.5 -229.5q0 -209 -164 -332.5t-424 -123.5zM373 -365q0 43 31.5 75t76.5 32q43 0 75 -32t32 -75q0 -45 -32 -75.5t-75 -30.5q-45 0 -76.5 30.5t-31.5 75.5z" glyph-name="uni1E62" horiz-adv-x="1243" unicode="Ṣ"/><glyph d="M412 -20q-184 0 -296 79.5t-96 235.5h134q-4 -104 74.5 -151.5t197.5 -47.5q133 0 219 55.5t86 159.5q0 70 -43 102.5t-139 59.5l-176 43q-242 61 -242 250q0 147 121 233t313 86q178 0 276.5 -77.5t84.5 -231.5h-123q-2 193 -250 193q-129 0 -205 -49.5t-76 -137.5 q0 -59 40 -96t134 -61l172 -43q131 -35 197 -90.5t66 -165.5q0 -164 -134 -255t-335 -91zM252 -365q0 43 31.5 75t76.5 32q43 0 75 -32t32 -75q0 -45 -32 -75.5t-75 -30.5q-45 0 -76.5 30.5t-31.5 75.5z" glyph-name="uni1E63" horiz-adv-x="976" unicode="ṣ"/><glyph d="M432 0l205 1300h-459l23 134h1065l-21 -134h-459l-204 -1300h-150zM326 -365q0 43 31.5 75t76.5 32q43 0 75 -32t32 -75q0 -45 -32 -75.5t-75 -30.5q-45 0 -76.5 30.5t-31.5 75.5z" glyph-name="uni1E6C" horiz-adv-x="1181" unicode="Ṭ"/><glyph d="M397 -14q-266 0 -225 254l113 708h-170l16 117h172l41 264h145l-40 -264h210l-16 -117h-213l-108 -680q-14 -88 16.5 -125t118.5 -37h69l-20 -114q-37 -6 -109 -6zM174 -365q0 43 32 75t77 32q43 0 74.5 -32t31.5 -75q0 -45 -31.5 -75.5t-74.5 -30.5q-45 0 -77 30.5 t-32 75.5z" glyph-name="uni1E6D" horiz-adv-x="651" unicode="ṭ"/><glyph d="M360 0l-159 1434h153l123 -1225h8l564 1225h161l176 -1225h9l510 1225h155l-610 -1434h-166l-184 1241l-576 -1241h-164zM913 1827h129l168 -266h-129z" glyph-name="Wgrave" horiz-adv-x="1974" unicode="Ẁ"/><glyph d="M270 0l-139 1065h141l109 -913h8l436 913h131l154 -913h8l395 913h142l-469 -1065h-172l-150 872l-420 -872h-174zM678 1458h129l168 -266h-129z" glyph-name="wgrave" horiz-adv-x="1619" unicode="ẁ"/><glyph d="M360 0l-159 1434h153l123 -1225h8l564 1225h161l176 -1225h9l510 1225h155l-610 -1434h-166l-184 1241l-576 -1241h-164zM1047 1561l247 266h133l-247 -266h-133z" glyph-name="Wacute" horiz-adv-x="1974" unicode="Ẃ"/><glyph d="M270 0l-139 1065h141l109 -913h8l436 913h131l154 -913h8l395 913h142l-469 -1065h-172l-150 872l-420 -872h-174zM811 1192l248 266h133l-248 -266h-133z" glyph-name="wacute" horiz-adv-x="1619" unicode="ẃ"/><glyph d="M360 0l-159 1434h153l123 -1225h8l564 1225h161l176 -1225h9l510 1225h155l-610 -1434h-166l-184 1241l-576 -1241h-164zM899 1751q0 39 28.5 66.5t67.5 27.5t67 -27.5t28 -66.5t-28 -66.5t-67 -27.5t-67.5 27.5t-28.5 66.5zM1270 1751q0 39 28.5 66.5t67.5 27.5 t66.5 -27.5t27.5 -66.5t-27.5 -66.5t-66.5 -27.5t-67.5 27.5t-28.5 66.5z" glyph-name="Wdieresis" horiz-adv-x="1974" unicode="Ẅ"/><glyph d="M270 0l-139 1065h141l109 -913h8l436 913h131l154 -913h8l395 913h142l-469 -1065h-172l-150 872l-420 -872h-174zM664 1382q0 39 28.5 67t67.5 28t66.5 -28t27.5 -67t-27.5 -66.5t-66.5 -27.5t-67.5 27.5t-28.5 66.5zM1034 1382q0 39 29 67t67.5 28t66.5 -28t28 -67 t-28 -66.5t-66.5 -27.5t-67.5 27.5t-29 66.5z" glyph-name="wdieresis" horiz-adv-x="1619" unicode="ẅ"/><glyph d="M-2 0l20 133l1088 1167h-866l22 134h1038l-24 -134l-1086 -1167h912l-21 -133h-1083zM389 -365q0 43 32 75t77 32q43 0 74.5 -32t31.5 -75q0 -45 -31.5 -75.5t-74.5 -30.5q-45 0 -77 30.5t-32 75.5z" glyph-name="uni1E92" horiz-adv-x="1247" unicode="Ẓ"/><glyph d="M-2 0l20 125l805 815h-657l20 125h832l-21 -125l-804 -815h677l-20 -125h-852zM264 -365q0 43 32 75t77 32q43 0 74.5 -32t31.5 -75q0 -45 -31.5 -75.5t-74.5 -30.5q-45 0 -77 30.5t-32 75.5z" glyph-name="uni1E93" horiz-adv-x="1015" unicode="ẓ"/><glyph d="M741 -20q-195 0 -287 108.5t-63 300.5h141q-18 -115 41.5 -194.5t188.5 -79.5q145 0 240.5 104.5t95.5 247.5q0 137 -94.5 214t-266.5 77h-108l442 561h-479q-111 0 -161 -48t-69 -157l-176 -1114h-151l178 1122q29 180 121 255t270 75h719l-461 -575q180 -14 286.5 -116 t106.5 -282q0 -213 -143.5 -356t-370.5 -143z" glyph-name="uni1E9E" horiz-adv-x="1359" unicode="ẞ"/><glyph d="M-37 0l780 1434h183l323 -1434h-155l-80 371h-690l-199 -371h-162zM387 487h600l-170 783h-10zM449 -365q0 43 31.5 75t76.5 32q43 0 75 -32t32 -75q0 -45 -32 -75.5t-75 -30.5q-45 0 -76.5 30.5t-31.5 75.5z" glyph-name="uni1EA0" horiz-adv-x="1380" unicode="Ạ"/><glyph d="M334 -20q-145 0 -227 62t-82 189q0 141 102 229.5t283 110.5l274 31q90 10 123 27.5t41 56.5l6 37q25 135 -34.5 192.5t-203.5 57.5q-274 0 -309 -207l-4 -25h-137l4 35q47 309 467 309q215 0 304 -86t58 -276l-114 -723h-137l28 184h-8q-41 -66 -154.5 -135t-279.5 -69z M170 250q0 -154 207 -154q174 0 291.5 92.5t132.5 188.5l24 168q-18 -39 -168 -58l-227 -26q-260 -31 -260 -211zM301 -365q0 43 32 75t77 32q43 0 74.5 -32t31.5 -75q0 -45 -31.5 -75.5t-74.5 -30.5q-45 0 -77 30.5t-32 75.5z" glyph-name="uni1EA1" horiz-adv-x="1087" unicode="ạ"/><glyph d="M-37 0l780 1434h183l323 -1434h-155l-80 371h-690l-199 -371h-162zM387 487h600l-170 783h-10zM672 1735q0 86 55 133t133 47q80 0 137.5 -51.5t57.5 -141.5q0 -84 -53.5 -135t-127.5 -57l-38 69q59 2 94 32t35 85q0 53 -30 83t-77 30q-43 0 -71.5 -24.5t-30.5 -69.5h-84 z" glyph-name="uni1EA2" horiz-adv-x="1380" unicode="Ả"/><glyph d="M334 -20q-145 0 -227 62t-82 189q0 141 102 229.5t283 110.5l274 31q90 10 123 27.5t41 56.5l6 37q25 135 -34.5 192.5t-203.5 57.5q-274 0 -309 -207l-4 -25h-137l4 35q47 309 467 309q215 0 304 -86t58 -276l-114 -723h-137l28 184h-8q-41 -66 -154.5 -135t-279.5 -69z M170 250q0 -154 207 -154q174 0 291.5 92.5t132.5 188.5l24 168q-18 -39 -168 -58l-227 -26q-260 -31 -260 -211zM463 1366q0 86 55 133t133 47q80 0 137.5 -51t57.5 -141q0 -84 -53.5 -135.5t-126.5 -57.5l-39 70q59 2 94 31.5t35 85.5q0 53 -30 82.5t-77 29.5 q-43 0 -71.5 -24.5t-30.5 -69.5h-84z" glyph-name="uni1EA3" horiz-adv-x="1087" unicode="ả"/><glyph d="M-37 0l780 1434h183l323 -1434h-155l-80 371h-690l-199 -371h-162zM387 487h600l-170 783h-10zM549 1565l248 262h202l166 -262h-139l-133 213l-199 -213h-145zM1096 1761l247 267h134l-248 -267h-133z" glyph-name="uni1EA4" horiz-adv-x="1380" unicode="Ấ"/><glyph d="M334 -20q-145 0 -227 62t-82 189q0 141 102 229.5t283 110.5l274 31q90 10 123 27.5t41 56.5l6 37q25 135 -34.5 192.5t-203.5 57.5q-274 0 -309 -207l-4 -25h-137l4 35q47 309 467 309q215 0 304 -86t58 -276l-114 -723h-137l28 184h-8q-41 -66 -154.5 -135t-279.5 -69z M170 250q0 -154 207 -154q174 0 291.5 92.5t132.5 188.5l24 168q-18 -39 -168 -58l-227 -26q-260 -31 -260 -211zM340 1196l248 262h203l165 -262h-139l-133 213l-199 -213h-145zM887 1393l248 266h133l-248 -266h-133z" glyph-name="uni1EA5" horiz-adv-x="1087" unicode="ấ"/><glyph d="M-37 0l780 1434h183l323 -1434h-155l-80 371h-690l-199 -371h-162zM387 487h600l-170 783h-10zM549 1565l248 262h202l166 -262h-139l-133 213l-199 -213h-145zM981 2028h131l150 -269h-129z" glyph-name="uni1EA6" horiz-adv-x="1380" unicode="Ầ"/><glyph d="M334 -20q-145 0 -227 62t-82 189q0 141 102 229.5t283 110.5l274 31q90 10 123 27.5t41 56.5l6 37q25 135 -34.5 192.5t-203.5 57.5q-274 0 -309 -207l-4 -25h-137l4 35q47 309 467 309q215 0 304 -86t58 -276l-114 -723h-137l28 184h-8q-41 -66 -154.5 -135t-279.5 -69z M170 250q0 -154 207 -154q174 0 291.5 92.5t132.5 188.5l24 168q-18 -39 -168 -58l-227 -26q-260 -31 -260 -211zM340 1196l248 262h203l165 -262h-139l-133 213l-199 -213h-145zM772 1659h131l150 -268h-129z" glyph-name="uni1EA7" horiz-adv-x="1087" unicode="ầ"/><glyph d="M-37 0l780 1434h183l323 -1434h-155l-80 371h-690l-199 -371h-162zM387 487h600l-170 783h-10zM549 1565l248 262h202l166 -262h-139l-133 213l-199 -213h-145zM942 2009q0 86 55.5 133t132.5 47q80 0 137.5 -51t57.5 -141q0 -84 -53 -135.5t-127 -57.5l-39 70 q59 2 94 31.5t35 85.5q0 53 -29.5 82.5t-77.5 29.5q-43 0 -71.5 -24.5t-30.5 -69.5h-84z" glyph-name="uni1EA8" horiz-adv-x="1380" unicode="Ẩ"/><glyph d="M334 -20q-145 0 -227 62t-82 189q0 141 102 229.5t283 110.5l274 31q90 10 123 27.5t41 56.5l6 37q25 135 -34.5 192.5t-203.5 57.5q-274 0 -309 -207l-4 -25h-137l4 35q47 309 467 309q215 0 304 -86t58 -276l-114 -723h-137l28 184h-8q-41 -66 -154.5 -135t-279.5 -69z M170 250q0 -154 207 -154q174 0 291.5 92.5t132.5 188.5l24 168q-18 -39 -168 -58l-227 -26q-260 -31 -260 -211zM340 1196l248 262h203l165 -262h-139l-133 213l-199 -213h-145zM733 1640q0 86 55.5 133.5t133.5 47.5q80 0 137 -51.5t57 -141.5q0 -84 -53 -135t-127 -57 l-39 69q59 2 94 32t35 85q0 53 -29.5 83t-76.5 30q-43 0 -72 -24.5t-31 -70.5h-84z" glyph-name="uni1EA9" horiz-adv-x="1087" unicode="ẩ"/><glyph d="M-37 0l780 1434h183l323 -1434h-155l-80 371h-690l-199 -371h-162zM387 487h600l-170 783h-10zM549 1565l248 262h202l166 -262h-139l-133 213l-199 -213h-145zM602 1978q14 94 66.5 142.5t128.5 48.5q63 0 107 -36t80 -70.5t79 -34.5q45 0 71.5 28.5t30.5 65.5h97 q-14 -92 -66.5 -141.5t-126.5 -49.5q-63 0 -107 36t-81 71t-80 35t-69.5 -29t-33.5 -66h-96z" glyph-name="uni1EAA" horiz-adv-x="1380" unicode="Ẫ"/><glyph d="M334 -20q-145 0 -227 62t-82 189q0 141 102 229.5t283 110.5l274 31q90 10 123 27.5t41 56.5l6 37q25 135 -34.5 192.5t-203.5 57.5q-274 0 -309 -207l-4 -25h-137l4 35q47 309 467 309q215 0 304 -86t58 -276l-114 -723h-137l28 184h-8q-41 -66 -154.5 -135t-279.5 -69z M170 250q0 -154 207 -154q174 0 291.5 92.5t132.5 188.5l24 168q-18 -39 -168 -58l-227 -26q-260 -31 -260 -211zM340 1196l248 262h203l165 -262h-139l-133 213l-199 -213h-145zM393 1610q14 94 66.5 142t128.5 48q63 0 107 -35.5t80 -70.5t79 -35q45 0 71.5 28.5 t30.5 65.5h97q-14 -92 -66.5 -141t-126.5 -49q-63 0 -107 35.5t-81 70.5t-80 35t-69.5 -28.5t-33.5 -65.5h-96z" glyph-name="uni1EAB" horiz-adv-x="1087" unicode="ẫ"/><glyph d="M-37 0l780 1434h183l323 -1434h-155l-80 371h-690l-199 -371h-162zM387 487h600l-170 783h-10zM449 -365q0 43 31.5 75t76.5 32q43 0 75 -32t32 -75q0 -45 -32 -75.5t-75 -30.5q-45 0 -76.5 30.5t-31.5 75.5zM549 1565l248 262h202l166 -262h-139l-133 213l-199 -213 h-145z" glyph-name="uni1EAC" horiz-adv-x="1380" unicode="Ậ"/><glyph d="M334 -20q-145 0 -227 62t-82 189q0 141 102 229.5t283 110.5l274 31q90 10 123 27.5t41 56.5l6 37q25 135 -34.5 192.5t-203.5 57.5q-274 0 -309 -207l-4 -25h-137l4 35q47 309 467 309q215 0 304 -86t58 -276l-114 -723h-137l28 184h-8q-41 -66 -154.5 -135t-279.5 -69z M170 250q0 -154 207 -154q174 0 291.5 92.5t132.5 188.5l24 168q-18 -39 -168 -58l-227 -26q-260 -31 -260 -211zM301 -365q0 43 32 75t77 32q43 0 74.5 -32t31.5 -75q0 -45 -31.5 -75.5t-74.5 -30.5q-45 0 -77 30.5t-32 75.5zM340 1196l248 262h203l165 -262h-139l-133 213 l-199 -213h-145z" glyph-name="uni1EAD" horiz-adv-x="1087" unicode="ậ"/><glyph d="M-37 0l780 1434h183l323 -1434h-155l-80 371h-690l-199 -371h-162zM387 487h600l-170 783h-10zM614 1827h103q-14 -164 160 -164q176 0 204 164h103q-18 -113 -96 -184.5t-223.5 -71.5t-206 72.5t-44.5 183.5zM831 1892l248 267h133l-247 -267h-134z" glyph-name="uni1EAE" horiz-adv-x="1380" unicode="Ắ"/><glyph d="M334 -20q-145 0 -227 62t-82 189q0 141 102 229.5t283 110.5l274 31q90 10 123 27.5t41 56.5l6 37q25 135 -34.5 192.5t-203.5 57.5q-274 0 -309 -207l-4 -25h-137l4 35q47 309 467 309q215 0 304 -86t58 -276l-114 -723h-137l28 184h-8q-41 -66 -154.5 -135t-279.5 -69z M170 250q0 -154 207 -154q174 0 291.5 92.5t132.5 188.5l24 168q-18 -39 -168 -58l-227 -26q-260 -31 -260 -211zM406 1458h102q-14 -164 160 -164q176 0 204 164h103q-18 -113 -96 -184.5t-223.5 -71.5t-205.5 72.5t-44 183.5zM623 1524l247 266h134l-248 -266h-133z" glyph-name="uni1EAF" horiz-adv-x="1087" unicode="ắ"/><glyph d="M-37 0l780 1434h183l323 -1434h-155l-80 371h-690l-199 -371h-162zM387 487h600l-170 783h-10zM614 1827h103q-14 -164 160 -164q176 0 204 164h103q-18 -113 -96 -184.5t-223.5 -71.5t-206 72.5t-44.5 183.5zM672 2159h129l168 -267h-129z" glyph-name="uni1EB0" horiz-adv-x="1380" unicode="Ằ"/><glyph d="M334 -20q-145 0 -227 62t-82 189q0 141 102 229.5t283 110.5l274 31q90 10 123 27.5t41 56.5l6 37q25 135 -34.5 192.5t-203.5 57.5q-274 0 -309 -207l-4 -25h-137l4 35q47 309 467 309q215 0 304 -86t58 -276l-114 -723h-137l28 184h-8q-41 -66 -154.5 -135t-279.5 -69z M170 250q0 -154 207 -154q174 0 291.5 92.5t132.5 188.5l24 168q-18 -39 -168 -58l-227 -26q-260 -31 -260 -211zM406 1458h102q-14 -164 160 -164q176 0 204 164h103q-18 -113 -96 -184.5t-223.5 -71.5t-205.5 72.5t-44 183.5zM463 1790h129l168 -266h-129z" glyph-name="uni1EB1" horiz-adv-x="1087" unicode="ằ"/><glyph d="M-37 0l780 1434h183l323 -1434h-155l-80 371h-690l-199 -371h-162zM387 487h600l-170 783h-10zM614 1827h103q-14 -164 160 -164q176 0 204 164h103q-18 -113 -96 -184.5t-223.5 -71.5t-206 72.5t-44.5 183.5zM668 2007q0 86 55 133t133 47q80 0 137.5 -51t57.5 -141 q0 -84 -53.5 -135.5t-127.5 -57.5l-39 70q59 2 94.5 31.5t35.5 85.5q0 53 -30 82.5t-77 29.5q-43 0 -71.5 -24.5t-30.5 -69.5h-84z" glyph-name="uni1EB2" horiz-adv-x="1380" unicode="Ẳ"/><glyph d="M334 -20q-145 0 -227 62t-82 189q0 141 102 229.5t283 110.5l274 31q90 10 123 27.5t41 56.5l6 37q25 135 -34.5 192.5t-203.5 57.5q-274 0 -309 -207l-4 -25h-137l4 35q47 309 467 309q215 0 304 -86t58 -276l-114 -723h-137l28 184h-8q-41 -66 -154.5 -135t-279.5 -69z M170 250q0 -154 207 -154q174 0 291.5 92.5t132.5 188.5l24 168q-18 -39 -168 -58l-227 -26q-260 -31 -260 -211zM406 1458h102q-14 -164 160 -164q176 0 204 164h103q-18 -113 -96 -184.5t-223.5 -71.5t-205.5 72.5t-44 183.5zM459 1638q0 86 55 133.5t133 47.5 q80 0 137.5 -51.5t57.5 -141.5q0 -84 -53.5 -135t-126.5 -57l-39 69q59 2 94 32t35 85q0 53 -30 83t-77 30q-43 0 -71.5 -25t-30.5 -70h-84z" glyph-name="uni1EB3" horiz-adv-x="1087" unicode="ẳ"/><glyph d="M-37 0l780 1434h183l323 -1434h-155l-80 371h-690l-199 -371h-162zM387 487h600l-170 783h-10zM602 1989q14 94 66.5 142t128.5 48q49 0 89 -22.5t60.5 -48t51 -48t65.5 -22.5q45 0 71.5 28.5t30.5 65.5h97q-14 -92 -66.5 -141t-126.5 -49q-49 0 -89 22.5t-60.5 48 t-52 48t-66.5 22.5q-43 0 -69.5 -29t-33.5 -65h-96zM614 1827h103q-14 -164 160 -164q176 0 204 164h103q-18 -113 -96 -184.5t-223.5 -71.5t-206 72.5t-44.5 183.5z" glyph-name="uni1EB4" horiz-adv-x="1380" unicode="Ẵ"/><glyph d="M334 -20q-145 0 -227 62t-82 189q0 141 102 229.5t283 110.5l274 31q90 10 123 27.5t41 56.5l6 37q25 135 -34.5 192.5t-203.5 57.5q-274 0 -309 -207l-4 -25h-137l4 35q47 309 467 309q215 0 304 -86t58 -276l-114 -723h-137l28 184h-8q-41 -66 -154.5 -135t-279.5 -69z M170 250q0 -154 207 -154q174 0 291.5 92.5t132.5 188.5l24 168q-18 -39 -168 -58l-227 -26q-260 -31 -260 -211zM393 1620q14 94 66.5 142t128.5 48q49 0 89 -22.5t60.5 -48t51 -48t65.5 -22.5q45 0 71.5 28.5t30.5 65.5h97q-14 -92 -66.5 -141t-126.5 -49q-49 0 -89 22.5 t-60.5 48t-52 48t-66.5 22.5q-43 0 -69.5 -28.5t-33.5 -65.5h-96zM406 1458h102q-14 -164 160 -164q176 0 204 164h103q-18 -113 -96 -184.5t-223.5 -71.5t-205.5 72.5t-44 183.5z" glyph-name="uni1EB5" horiz-adv-x="1087" unicode="ẵ"/><glyph d="M-37 0l780 1434h183l323 -1434h-155l-80 371h-690l-199 -371h-162zM387 487h600l-170 783h-10zM449 -365q0 43 31.5 75t76.5 32q43 0 75 -32t32 -75q0 -45 -32 -75.5t-75 -30.5q-45 0 -76.5 30.5t-31.5 75.5zM614 1827h103q-14 -164 160 -164q176 0 204 164h103 q-18 -113 -96 -184.5t-223.5 -71.5t-206 72.5t-44.5 183.5z" glyph-name="uni1EB6" horiz-adv-x="1380" unicode="Ặ"/><glyph d="M334 -20q-145 0 -227 62t-82 189q0 141 102 229.5t283 110.5l274 31q90 10 123 27.5t41 56.5l6 37q25 135 -34.5 192.5t-203.5 57.5q-274 0 -309 -207l-4 -25h-137l4 35q47 309 467 309q215 0 304 -86t58 -276l-114 -723h-137l28 184h-8q-41 -66 -154.5 -135t-279.5 -69z M170 250q0 -154 207 -154q174 0 291.5 92.5t132.5 188.5l24 168q-18 -39 -168 -58l-227 -26q-260 -31 -260 -211zM301 -365q0 43 32 75t77 32q43 0 74.5 -32t31.5 -75q0 -45 -31.5 -75.5t-74.5 -30.5q-45 0 -77 30.5t-32 75.5zM406 1458h102q-14 -164 160 -164 q176 0 204 164h103q-18 -113 -96 -184.5t-223.5 -71.5t-205.5 72.5t-44 183.5z" glyph-name="uni1EB7" horiz-adv-x="1087" unicode="ặ"/><glyph d="M35 0l227 1434h903l-22 -134h-752l-80 -501h690l-18 -123h-690l-86 -543h772l-21 -133h-923zM326 -365q0 43 31.5 75t76.5 32q43 0 75 -32t32 -75q0 -45 -32 -75.5t-75 -30.5q-45 0 -76.5 30.5t-31.5 75.5z" glyph-name="uni1EB8" horiz-adv-x="1110" unicode="Ẹ"/><glyph d="M489 -23q-201 0 -314.5 110t-113.5 335q0 178 68 327.5t203 242.5t313 93q186 0 294 -101t108 -292q0 -123 -27 -203h-817q-2 -18 -2 -57q0 -176 76.5 -257t230.5 -81q238 0 338 197h133q-140 -314 -490 -314zM219 596h682q33 178 -42 275.5t-230 97.5 q-164 0 -268.5 -103.5t-141.5 -269.5zM305 -365q0 43 32 75t77 32q43 0 74.5 -32t31.5 -75q0 -45 -31.5 -75.5t-74.5 -30.5q-45 0 -77 30.5t-32 75.5z" glyph-name="uni1EB9" horiz-adv-x="1099" unicode="ẹ"/><glyph d="M35 0l227 1434h903l-22 -134h-752l-80 -501h690l-18 -123h-690l-86 -543h772l-21 -133h-923zM547 1735q0 86 55 133t133 47q80 0 137.5 -51.5t57.5 -141.5q0 -84 -53.5 -135t-126.5 -57l-39 69q59 2 94 32t35 85q0 53 -30 83t-77 30q-43 0 -71.5 -24.5t-30.5 -69.5h-84z " glyph-name="uni1EBA" horiz-adv-x="1110" unicode="Ẻ"/><glyph d="M489 -23q-201 0 -314.5 110t-113.5 335q0 178 68 327.5t203 242.5t313 93q186 0 294 -101t108 -292q0 -123 -27 -203h-817q-2 -18 -2 -57q0 -176 76.5 -257t230.5 -81q238 0 338 197h133q-140 -314 -490 -314zM219 596h682q33 178 -42 275.5t-230 97.5 q-164 0 -268.5 -103.5t-141.5 -269.5zM473 1366q0 86 55.5 133t133.5 47q80 0 137 -51t57 -141q0 -84 -53 -135.5t-127 -57.5l-39 70q59 2 94 31.5t35 85.5q0 53 -29.5 82.5t-77.5 29.5q-43 0 -71.5 -24.5t-30.5 -69.5h-84z" glyph-name="uni1EBB" horiz-adv-x="1099" unicode="ẻ"/><glyph d="M35 0l227 1434h903l-22 -134h-752l-80 -501h690l-18 -123h-690l-86 -543h772l-21 -133h-923zM426 1657q14 94 66.5 142t128.5 48q49 0 89 -22.5t60.5 -48t51 -48t65.5 -22.5q45 0 71.5 28.5t30.5 65.5h96q-14 -92 -66 -141t-126 -49q-49 0 -89 22.5t-60.5 48t-52.5 48 t-66 22.5q-43 0 -70 -28.5t-33 -65.5h-96z" glyph-name="uni1EBC" horiz-adv-x="1110" unicode="Ẽ"/><glyph d="M489 -23q-201 0 -314.5 110t-113.5 335q0 178 68 327.5t203 242.5t313 93q186 0 294 -101t108 -292q0 -123 -27 -203h-817q-2 -18 -2 -57q0 -176 76.5 -257t230.5 -81q238 0 338 197h133q-140 -314 -490 -314zM219 596h682q33 178 -42 275.5t-230 97.5 q-164 0 -268.5 -103.5t-141.5 -269.5zM352 1288q14 94 66.5 142.5t128.5 48.5q49 0 89 -22.5t60.5 -48.5t51 -48.5t65.5 -22.5q45 0 71.5 29t30.5 66h97q-14 -92 -66.5 -141.5t-126.5 -49.5q-49 0 -89 22.5t-60.5 48t-52 48t-66.5 22.5q-43 0 -69.5 -28.5t-32.5 -65.5h-97z " glyph-name="uni1EBD" horiz-adv-x="1099" unicode="ẽ"/><glyph d="M35 0l227 1434h903l-22 -134h-752l-80 -501h690l-18 -123h-690l-86 -543h772l-21 -133h-923zM426 1565l248 262h203l165 -262h-139l-133 213l-199 -213h-145zM973 1761l248 267h133l-248 -267h-133z" glyph-name="uni1EBE" horiz-adv-x="1110" unicode="Ế"/><glyph d="M489 -23q-201 0 -314.5 110t-113.5 335q0 178 68 327.5t203 242.5t313 93q186 0 294 -101t108 -292q0 -123 -27 -203h-817q-2 -18 -2 -57q0 -176 76.5 -257t230.5 -81q238 0 338 197h133q-140 -314 -490 -314zM219 596h682q33 178 -42 275.5t-230 97.5 q-164 0 -268.5 -103.5t-141.5 -269.5zM350 1196l248 262h203l166 -262h-140l-133 213l-198 -213h-146zM897 1393l248 266h133l-248 -266h-133z" glyph-name="uni1EBF" horiz-adv-x="1099" unicode="ế"/><glyph d="M35 0l227 1434h903l-22 -134h-752l-80 -501h690l-18 -123h-690l-86 -543h772l-21 -133h-923zM426 1565l248 262h203l165 -262h-139l-133 213l-199 -213h-145zM858 2028h131l150 -269h-129z" glyph-name="uni1EC0" horiz-adv-x="1110" unicode="Ề"/><glyph d="M489 -23q-201 0 -314.5 110t-113.5 335q0 178 68 327.5t203 242.5t313 93q186 0 294 -101t108 -292q0 -123 -27 -203h-817q-2 -18 -2 -57q0 -176 76.5 -257t230.5 -81q238 0 338 197h133q-140 -314 -490 -314zM219 596h682q33 178 -42 275.5t-230 97.5 q-164 0 -268.5 -103.5t-141.5 -269.5zM350 1196l248 262h203l166 -262h-140l-133 213l-198 -213h-146zM782 1659h131l150 -268h-129z" glyph-name="uni1EC1" horiz-adv-x="1099" unicode="ề"/><glyph d="M35 0l227 1434h903l-22 -134h-752l-80 -501h690l-18 -123h-690l-86 -543h772l-21 -133h-923zM426 1565l248 262h203l165 -262h-139l-133 213l-199 -213h-145zM819 2009q0 86 55.5 133t133.5 47q80 0 137 -51t57 -141q0 -84 -53 -135.5t-127 -57.5l-39 70q59 2 94 31.5 t35 85.5q0 53 -29.5 82.5t-76.5 29.5q-43 0 -72 -24.5t-31 -69.5h-84z" glyph-name="uni1EC2" horiz-adv-x="1110" unicode="Ể"/><glyph d="M489 -23q-201 0 -314.5 110t-113.5 335q0 178 68 327.5t203 242.5t313 93q186 0 294 -101t108 -292q0 -123 -27 -203h-817q-2 -18 -2 -57q0 -176 76.5 -257t230.5 -81q238 0 338 197h133q-140 -314 -490 -314zM219 596h682q33 178 -42 275.5t-230 97.5 q-164 0 -268.5 -103.5t-141.5 -269.5zM350 1196l248 262h203l166 -262h-140l-133 213l-198 -213h-146zM743 1640q0 86 55.5 133.5t133.5 47.5q80 0 137 -51.5t57 -141.5q0 -84 -53 -135t-127 -57l-39 69q59 2 94 32t35 85q0 53 -29.5 83t-76.5 30q-43 0 -72 -24.5t-31 -70.5 h-84z" glyph-name="uni1EC3" horiz-adv-x="1099" unicode="ể"/><glyph d="M35 0l227 1434h903l-22 -134h-752l-80 -501h690l-18 -123h-690l-86 -543h772l-21 -133h-923zM426 1565l248 262h203l165 -262h-139l-133 213l-199 -213h-145zM479 1978q14 94 66.5 142.5t128.5 48.5q63 0 107 -36t80 -70.5t79 -34.5q45 0 71.5 28.5t30.5 65.5h97 q-14 -92 -66.5 -141.5t-126.5 -49.5q-63 0 -107 36t-81 71t-80 35t-69.5 -29t-33.5 -66h-96z" glyph-name="uni1EC4" horiz-adv-x="1110" unicode="Ễ"/><glyph d="M489 -23q-201 0 -314.5 110t-113.5 335q0 178 68 327.5t203 242.5t313 93q186 0 294 -101t108 -292q0 -123 -27 -203h-817q-2 -18 -2 -57q0 -176 76.5 -257t230.5 -81q238 0 338 197h133q-140 -314 -490 -314zM219 596h682q33 178 -42 275.5t-230 97.5 q-164 0 -268.5 -103.5t-141.5 -269.5zM350 1196l248 262h203l166 -262h-140l-133 213l-198 -213h-146zM403 1610q14 94 66.5 142t128.5 48q63 0 107.5 -35.5t80 -70.5t78.5 -35q45 0 72 28.5t31 65.5h96q-14 -92 -65.5 -141t-127.5 -49q-63 0 -107 35.5t-81 70.5t-80 35 t-69.5 -28.5t-32.5 -65.5h-97z" glyph-name="uni1EC5" horiz-adv-x="1099" unicode="ễ"/><glyph d="M35 0l227 1434h903l-22 -134h-752l-80 -501h690l-18 -123h-690l-86 -543h772l-21 -133h-923zM326 -365q0 43 31.5 75t76.5 32q43 0 75 -32t32 -75q0 -45 -32 -75.5t-75 -30.5q-45 0 -76.5 30.5t-31.5 75.5zM426 1565l248 262h203l165 -262h-139l-133 213l-199 -213h-145z " glyph-name="uni1EC6" horiz-adv-x="1110" unicode="Ệ"/><glyph d="M489 -23q-201 0 -314.5 110t-113.5 335q0 178 68 327.5t203 242.5t313 93q186 0 294 -101t108 -292q0 -123 -27 -203h-817q-2 -18 -2 -57q0 -176 76.5 -257t230.5 -81q238 0 338 197h133q-140 -314 -490 -314zM219 596h682q33 178 -42 275.5t-230 97.5 q-164 0 -268.5 -103.5t-141.5 -269.5zM305 -365q0 43 32 75t77 32q43 0 74.5 -32t31.5 -75q0 -45 -31.5 -75.5t-74.5 -30.5q-45 0 -77 30.5t-32 75.5zM350 1196l248 262h203l166 -262h-140l-133 213l-198 -213h-146z" glyph-name="uni1EC7" horiz-adv-x="1099" unicode="ệ"/><glyph d="M35 0l227 1434h152l-228 -1434h-151zM172 1735q0 86 55.5 133t132.5 47q80 0 137.5 -51.5t57.5 -141.5q0 -84 -53 -135t-127 -57l-39 69q59 2 94 32t35 85q0 53 -29.5 83t-77.5 30q-43 0 -71.5 -24.5t-30.5 -69.5h-84z" glyph-name="uni1EC8" horiz-adv-x="389" unicode="Ỉ"/><glyph d="M12 0l168 1065h146l-168 -1065h-146zM88 1366q0 86 55.5 133t132.5 47q80 0 137.5 -51t57.5 -141q0 -84 -53 -135.5t-127 -57.5l-39 70q59 2 94 31.5t35 85.5q0 53 -29.5 82.5t-77.5 29.5q-43 0 -71.5 -24.5t-30.5 -69.5h-84z" glyph-name="uni1EC9" horiz-adv-x="337" unicode="ỉ"/><glyph d="M35 0l227 1434h152l-228 -1434h-151zM-51 -365q0 43 31.5 75t76.5 32q43 0 75 -32t32 -75q0 -45 -32 -75.5t-75 -30.5q-45 0 -76.5 30.5t-31.5 75.5z" glyph-name="uni1ECA" horiz-adv-x="389" unicode="Ị"/><glyph d="M35 0l168 1065h145l-168 -1065h-145zM-39 -365q0 43 32 75t77 32q43 0 74.5 -32t31.5 -75q0 -45 -31.5 -75.5t-74.5 -30.5q-45 0 -77 30.5t-32 75.5zM231 1382q0 39 29 67t68 28t66.5 -28t27.5 -67t-27.5 -66.5t-66.5 -27.5t-68 27.5t-29 66.5z" glyph-name="uni1ECB" horiz-adv-x="385" unicode="ị"/><glyph d="M657 -20q-252 0 -400 152.5t-148 442.5q0 231 89 430t265 323t403 124q252 0 400.5 -152.5t148.5 -443.5q0 -231 -90 -429t-265.5 -322.5t-402.5 -124.5zM260 580q0 -236 109.5 -352.5t298.5 -116.5q184 0 323 110.5t207 276.5t68 354q0 233 -109.5 351t-298.5 118 q-184 0 -324.5 -109.5t-207 -275.5t-66.5 -356zM492 -365q0 43 31.5 75t76.5 32q43 0 75 -32t32 -75q0 -45 -32 -75.5t-75 -30.5q-45 0 -76.5 30.5t-31.5 75.5z" glyph-name="uni1ECC" horiz-adv-x="1466" unicode="Ọ"/><glyph d="M496 -20q-190 0 -312.5 113.5t-122.5 334.5q0 266 168 461.5t428 195.5q190 0 313.5 -113.5t123.5 -334.5q0 -268 -168 -462.5t-430 -194.5zM203 442q0 -172 86 -256t223 -84q195 0 316.5 157t121.5 366q0 170 -86 254t-223 84q-195 0 -316.5 -156t-121.5 -365zM332 -365 q0 43 31.5 75t76.5 32q43 0 75 -32t32 -75q0 -45 -32 -75.5t-75 -30.5q-45 0 -76.5 30.5t-31.5 75.5z" glyph-name="uni1ECD" horiz-adv-x="1155" unicode="ọ"/><glyph d="M657 -20q-252 0 -400 152.5t-148 442.5q0 231 89 430t265 323t403 124q252 0 400.5 -152.5t148.5 -443.5q0 -231 -90 -429t-265.5 -322.5t-402.5 -124.5zM260 580q0 -236 109.5 -352.5t298.5 -116.5q184 0 323 110.5t207 276.5t68 354q0 233 -109.5 351t-298.5 118 q-184 0 -324.5 -109.5t-207 -275.5t-66.5 -356zM711 1735q0 86 55 133t133 47q80 0 137.5 -51.5t57.5 -141.5q0 -84 -53.5 -135t-127.5 -57l-39 69q59 2 94.5 32t35.5 85q0 53 -30 83t-77 30q-43 0 -71.5 -24.5t-30.5 -69.5h-84z" glyph-name="uni1ECE" horiz-adv-x="1466" unicode="Ỏ"/><glyph d="M496 -20q-190 0 -312.5 113.5t-122.5 334.5q0 266 168 461.5t428 195.5q190 0 313.5 -113.5t123.5 -334.5q0 -268 -168 -462.5t-430 -194.5zM203 442q0 -172 86 -256t223 -84q195 0 316.5 157t121.5 366q0 170 -86 254t-223 84q-195 0 -316.5 -156t-121.5 -365zM496 1366 q0 86 55 133t133 47q80 0 137.5 -51t57.5 -141q0 -84 -53.5 -135.5t-127.5 -57.5l-39 70q59 2 94 31.5t35 85.5q0 53 -29.5 82.5t-76.5 29.5q-43 0 -71.5 -24.5t-30.5 -69.5h-84z" glyph-name="uni1ECF" horiz-adv-x="1155" unicode="ỏ"/><glyph d="M657 -20q-252 0 -400 152.5t-148 442.5q0 231 89 430t265 323t403 124q252 0 400.5 -152.5t148.5 -443.5q0 -231 -90 -429t-265.5 -322.5t-402.5 -124.5zM260 580q0 -236 109.5 -352.5t298.5 -116.5q184 0 323 110.5t207 276.5t68 354q0 233 -109.5 351t-298.5 118 q-184 0 -324.5 -109.5t-207 -275.5t-66.5 -356zM588 1565l248 262h202l166 -262h-139l-133 213l-199 -213h-145zM1135 1761l247 267h134l-248 -267h-133z" glyph-name="uni1ED0" horiz-adv-x="1466" unicode="Ố"/><glyph d="M496 -20q-190 0 -312.5 113.5t-122.5 334.5q0 266 168 461.5t428 195.5q190 0 313.5 -113.5t123.5 -334.5q0 -268 -168 -462.5t-430 -194.5zM203 442q0 -172 86 -256t223 -84q195 0 316.5 157t121.5 366q0 170 -86 254t-223 84q-195 0 -316.5 -156t-121.5 -365zM373 1196 l248 262h202l166 -262h-139l-133 213l-199 -213h-145zM920 1393l247 266h133l-247 -266h-133z" glyph-name="uni1ED1" horiz-adv-x="1155" unicode="ố"/><glyph d="M657 -20q-252 0 -400 152.5t-148 442.5q0 231 89 430t265 323t403 124q252 0 400.5 -152.5t148.5 -443.5q0 -231 -90 -429t-265.5 -322.5t-402.5 -124.5zM260 580q0 -236 109.5 -352.5t298.5 -116.5q184 0 323 110.5t207 276.5t68 354q0 233 -109.5 351t-298.5 118 q-184 0 -324.5 -109.5t-207 -275.5t-66.5 -356zM588 1565l248 262h202l166 -262h-139l-133 213l-199 -213h-145zM1020 2028h131l149 -269h-129z" glyph-name="uni1ED2" horiz-adv-x="1466" unicode="Ồ"/><glyph d="M496 -20q-190 0 -312.5 113.5t-122.5 334.5q0 266 168 461.5t428 195.5q190 0 313.5 -113.5t123.5 -334.5q0 -268 -168 -462.5t-430 -194.5zM203 442q0 -172 86 -256t223 -84q195 0 316.5 157t121.5 366q0 170 -86 254t-223 84q-195 0 -316.5 -156t-121.5 -365zM373 1196 l248 262h202l166 -262h-139l-133 213l-199 -213h-145zM805 1659h131l149 -268h-129z" glyph-name="uni1ED3" horiz-adv-x="1155" unicode="ồ"/><glyph d="M657 -20q-252 0 -400 152.5t-148 442.5q0 231 89 430t265 323t403 124q252 0 400.5 -152.5t148.5 -443.5q0 -231 -90 -429t-265.5 -322.5t-402.5 -124.5zM260 580q0 -236 109.5 -352.5t298.5 -116.5q184 0 323 110.5t207 276.5t68 354q0 233 -109.5 351t-298.5 118 q-184 0 -324.5 -109.5t-207 -275.5t-66.5 -356zM588 1565l248 262h202l166 -262h-139l-133 213l-199 -213h-145zM981 2009q0 86 55.5 133t132.5 47q80 0 137.5 -51t57.5 -141q0 -84 -53.5 -135.5t-126.5 -57.5l-39 70q59 2 94 31.5t35 85.5q0 53 -30 82.5t-77 29.5 q-43 0 -71.5 -24.5t-30.5 -69.5h-84z" glyph-name="uni1ED4" horiz-adv-x="1466" unicode="Ổ"/><glyph d="M496 -20q-190 0 -312.5 113.5t-122.5 334.5q0 266 168 461.5t428 195.5q190 0 313.5 -113.5t123.5 -334.5q0 -268 -168 -462.5t-430 -194.5zM203 442q0 -172 86 -256t223 -84q195 0 316.5 157t121.5 366q0 170 -86 254t-223 84q-195 0 -316.5 -156t-121.5 -365zM373 1196 l248 262h202l166 -262h-139l-133 213l-199 -213h-145zM766 1640q0 86 55.5 133.5t132.5 47.5q80 0 137.5 -51.5t57.5 -141.5q0 -84 -53.5 -135t-126.5 -57l-39 69q59 2 94 32t35 85q0 53 -30 83t-77 30q-43 0 -71.5 -24.5t-30.5 -70.5h-84z" glyph-name="uni1ED5" horiz-adv-x="1155" unicode="ổ"/><glyph d="M657 -20q-252 0 -400 152.5t-148 442.5q0 231 89 430t265 323t403 124q252 0 400.5 -152.5t148.5 -443.5q0 -231 -90 -429t-265.5 -322.5t-402.5 -124.5zM260 580q0 -236 109.5 -352.5t298.5 -116.5q184 0 323 110.5t207 276.5t68 354q0 233 -109.5 351t-298.5 118 q-184 0 -324.5 -109.5t-207 -275.5t-66.5 -356zM588 1565l248 262h202l166 -262h-139l-133 213l-199 -213h-145zM641 1978q14 94 66.5 142.5t128.5 48.5q63 0 107 -36t80 -70.5t79 -34.5q45 0 71.5 28.5t30.5 65.5h96q-14 -92 -65 -141.5t-127 -49.5q-63 0 -107.5 36t-81 71 t-79.5 35t-70 -29t-33 -66h-96z" glyph-name="uni1ED6" horiz-adv-x="1466" unicode="Ỗ"/><glyph d="M496 -20q-190 0 -312.5 113.5t-122.5 334.5q0 266 168 461.5t428 195.5q190 0 313.5 -113.5t123.5 -334.5q0 -268 -168 -462.5t-430 -194.5zM203 442q0 -172 86 -256t223 -84q195 0 316.5 157t121.5 366q0 170 -86 254t-223 84q-195 0 -316.5 -156t-121.5 -365zM373 1196 l248 262h202l166 -262h-139l-133 213l-199 -213h-145zM426 1610q14 94 66.5 142t128.5 48q63 0 107 -35.5t80 -70.5t79 -35q45 0 71.5 28.5t30.5 65.5h96q-14 -92 -66 -141t-126 -49q-63 0 -107.5 35.5t-81 70.5t-79.5 35t-70 -28.5t-33 -65.5h-96z" glyph-name="uni1ED7" horiz-adv-x="1155" unicode="ỗ"/><glyph d="M657 -20q-252 0 -400 152.5t-148 442.5q0 231 89 430t265 323t403 124q252 0 400.5 -152.5t148.5 -443.5q0 -231 -90 -429t-265.5 -322.5t-402.5 -124.5zM260 580q0 -236 109.5 -352.5t298.5 -116.5q184 0 323 110.5t207 276.5t68 354q0 233 -109.5 351t-298.5 118 q-184 0 -324.5 -109.5t-207 -275.5t-66.5 -356zM492 -365q0 43 31.5 75t76.5 32q43 0 75 -32t32 -75q0 -45 -32 -75.5t-75 -30.5q-45 0 -76.5 30.5t-31.5 75.5zM588 1565l248 262h202l166 -262h-139l-133 213l-199 -213h-145z" glyph-name="uni1ED8" horiz-adv-x="1466" unicode="Ộ"/><glyph d="M496 -20q-190 0 -312.5 113.5t-122.5 334.5q0 266 168 461.5t428 195.5q190 0 313.5 -113.5t123.5 -334.5q0 -268 -168 -462.5t-430 -194.5zM203 442q0 -172 86 -256t223 -84q195 0 316.5 157t121.5 366q0 170 -86 254t-223 84q-195 0 -316.5 -156t-121.5 -365zM332 -365 q0 43 31.5 75t76.5 32q43 0 75 -32t32 -75q0 -45 -32 -75.5t-75 -30.5q-45 0 -76.5 30.5t-31.5 75.5zM373 1196l248 262h202l166 -262h-139l-133 213l-199 -213h-145z" glyph-name="uni1ED9" horiz-adv-x="1155" unicode="ộ"/><glyph d="M657 -20q-252 0 -400 152.5t-148 442.5q0 231 89 430t265 323t403 124h508l27 162h129l-45 -279h-256q186 -158 186 -479q0 -231 -90 -429t-265.5 -322.5t-402.5 -124.5zM260 580q0 -236 109.5 -352.5t298.5 -116.5q184 0 323 110.5t207 276.5t68 354q0 233 -109.5 351 t-298.5 118q-184 0 -324.5 -109.5t-207 -275.5t-66.5 -356zM819 1561l248 266h133l-248 -266h-133z" glyph-name="uni1EDA" horiz-adv-x="1466" unicode="Ớ"/><glyph d="M496 -20q-190 0 -312.5 113.5t-122.5 334.5q0 266 168 461.5t428 195.5h349l24 160h121l-43 -274h-137q123 -119 123 -334q0 -268 -168 -462.5t-430 -194.5zM203 442q0 -172 86 -256t223 -84q195 0 316.5 157t121.5 366q0 170 -86 254t-223 84q-195 0 -316.5 -156 t-121.5 -365zM604 1192l248 266h133l-248 -266h-133z" glyph-name="uni1EDB" horiz-adv-x="1155" unicode="ớ"/><glyph d="M657 -20q-252 0 -400 152.5t-148 442.5q0 231 89 430t265 323t403 124h508l27 162h129l-45 -279h-256q186 -158 186 -479q0 -231 -90 -429t-265.5 -322.5t-402.5 -124.5zM260 580q0 -236 109.5 -352.5t298.5 -116.5q184 0 323 110.5t207 276.5t68 354q0 233 -109.5 351 t-298.5 118q-184 0 -324.5 -109.5t-207 -275.5t-66.5 -356zM659 1827h129l168 -266h-129z" glyph-name="uni1EDC" horiz-adv-x="1466" unicode="Ờ"/><glyph d="M496 -20q-190 0 -312.5 113.5t-122.5 334.5q0 266 168 461.5t428 195.5h349l24 160h121l-43 -274h-137q123 -119 123 -334q0 -268 -168 -462.5t-430 -194.5zM203 442q0 -172 86 -256t223 -84q195 0 316.5 157t121.5 366q0 170 -86 254t-223 84q-195 0 -316.5 -156 t-121.5 -365zM444 1458h129l168 -266h-129z" glyph-name="uni1EDD" horiz-adv-x="1155" unicode="ờ"/><glyph d="M657 -20q-252 0 -400 152.5t-148 442.5q0 231 89 430t265 323t403 124h508l27 162h129l-45 -279h-256q186 -158 186 -479q0 -231 -90 -429t-265.5 -322.5t-402.5 -124.5zM260 580q0 -236 109.5 -352.5t298.5 -116.5q184 0 323 110.5t207 276.5t68 354q0 233 -109.5 351 t-298.5 118q-184 0 -324.5 -109.5t-207 -275.5t-66.5 -356zM711 1735q0 86 55 133t133 47q80 0 137.5 -51.5t57.5 -141.5q0 -84 -53.5 -135t-127.5 -57l-39 69q59 2 94.5 32t35.5 85q0 53 -30 83t-77 30q-43 0 -71.5 -24.5t-30.5 -69.5h-84z" glyph-name="uni1EDE" horiz-adv-x="1466" unicode="Ở"/><glyph d="M496 -20q-190 0 -312.5 113.5t-122.5 334.5q0 266 168 461.5t428 195.5h349l24 160h121l-43 -274h-137q123 -119 123 -334q0 -268 -168 -462.5t-430 -194.5zM203 442q0 -172 86 -256t223 -84q195 0 316.5 157t121.5 366q0 170 -86 254t-223 84q-195 0 -316.5 -156 t-121.5 -365zM496 1366q0 86 55 133t133 47q80 0 137.5 -51t57.5 -141q0 -84 -53.5 -135.5t-127.5 -57.5l-39 70q59 2 94 31.5t35 85.5q0 53 -29.5 82.5t-76.5 29.5q-43 0 -71.5 -24.5t-30.5 -69.5h-84z" glyph-name="uni1EDF" horiz-adv-x="1155" unicode="ở"/><glyph d="M657 -20q-252 0 -400 152.5t-148 442.5q0 231 89 430t265 323t403 124h508l27 162h129l-45 -279h-256q186 -158 186 -479q0 -231 -90 -429t-265.5 -322.5t-402.5 -124.5zM260 580q0 -236 109.5 -352.5t298.5 -116.5q184 0 323 110.5t207 276.5t68 354q0 233 -109.5 351 t-298.5 118q-184 0 -324.5 -109.5t-207 -275.5t-66.5 -356zM590 1657q14 94 66.5 142t127.5 48q49 0 89 -22.5t60.5 -48t51.5 -48t66 -22.5q45 0 71.5 28.5t30.5 65.5h96q-14 -92 -66.5 -141t-125.5 -49q-49 0 -89 22.5t-60.5 48t-52.5 48t-67 22.5q-43 0 -69.5 -28.5 t-32.5 -65.5h-96z" glyph-name="uni1EE0" horiz-adv-x="1466" unicode="Ỡ"/><glyph d="M496 -20q-190 0 -312.5 113.5t-122.5 334.5q0 266 168 461.5t428 195.5h349l24 160h121l-43 -274h-137q123 -119 123 -334q0 -268 -168 -462.5t-430 -194.5zM203 442q0 -172 86 -256t223 -84q195 0 316.5 157t121.5 366q0 170 -86 254t-223 84q-195 0 -316.5 -156 t-121.5 -365zM375 1288q14 94 66.5 142.5t127.5 48.5q49 0 89 -22.5t60.5 -48.5t51.5 -48.5t66 -22.5q45 0 71.5 29t30.5 66h96q-14 -92 -65 -141.5t-127 -49.5q-49 0 -89 22.5t-60.5 48t-52.5 48t-67 22.5q-43 0 -69.5 -28.5t-32.5 -65.5h-96z" glyph-name="uni1EE1" horiz-adv-x="1155" unicode="ỡ"/><glyph d="M657 -20q-252 0 -400 152.5t-148 442.5q0 231 89 430t265 323t403 124h508l27 162h129l-45 -279h-256q186 -158 186 -479q0 -231 -90 -429t-265.5 -322.5t-402.5 -124.5zM260 580q0 -236 109.5 -352.5t298.5 -116.5q184 0 323 110.5t207 276.5t68 354q0 233 -109.5 351 t-298.5 118q-184 0 -324.5 -109.5t-207 -275.5t-66.5 -356zM487 -365q0 43 32 75t77 32q43 0 74.5 -32t31.5 -75q0 -45 -31.5 -75.5t-74.5 -30.5q-45 0 -77 30.5t-32 75.5z" glyph-name="uni1EE2" horiz-adv-x="1466" unicode="Ợ"/><glyph d="M496 -20q-190 0 -312.5 113.5t-122.5 334.5q0 266 168 461.5t428 195.5h349l24 160h121l-43 -274h-137q123 -119 123 -334q0 -268 -168 -462.5t-430 -194.5zM203 442q0 -172 86 -256t223 -84q195 0 316.5 157t121.5 366q0 170 -86 254t-223 84q-195 0 -316.5 -156 t-121.5 -365zM332 -365q0 43 31.5 75t76.5 32q43 0 75 -32t32 -75q0 -45 -32 -75.5t-75 -30.5q-45 0 -76.5 30.5t-31.5 75.5z" glyph-name="uni1EE3" horiz-adv-x="1155" unicode="ợ"/><glyph d="M584 -20q-254 0 -379 147t-84 414l141 893h152l-142 -885q-33 -209 57.5 -322.5t278.5 -113.5q186 0 303 112.5t150 323.5l141 885h152l-142 -893q-43 -266 -208.5 -413.5t-419.5 -147.5zM420 -365q0 43 31.5 75t76.5 32q43 0 75 -32t32 -75q0 -45 -32 -75.5t-75 -30.5 q-45 0 -76.5 30.5t-31.5 75.5z" glyph-name="uni1EE4" horiz-adv-x="1329" unicode="Ụ"/><glyph d="M250 438q-55 -334 235 -334q150 0 250.5 88.5t124.5 243.5v-8l101 637h145l-168 -1065h-145l30 195q-41 -78 -144.5 -146.5t-254.5 -68.5q-172 0 -266.5 103t-57.5 327l103 655h145zM324 -365q0 43 31.5 75t76.5 32q43 0 75 -32t32 -75q0 -45 -32 -75.5t-75 -30.5 q-45 0 -76.5 30.5t-31.5 75.5z" glyph-name="uni1EE5" unicode="ụ"/><glyph d="M584 -20q-254 0 -379 147t-84 414l141 893h152l-142 -885q-33 -209 57.5 -322.5t278.5 -113.5q186 0 303 112.5t150 323.5l141 885h152l-142 -893q-43 -266 -208.5 -413.5t-419.5 -147.5zM639 1735q0 86 55.5 133t132.5 47q80 0 137.5 -51.5t57.5 -141.5 q0 -84 -53.5 -135t-126.5 -57l-39 69q59 2 94 32t35 85q0 53 -30 83t-77 30q-43 0 -71.5 -24.5t-30.5 -69.5h-84z" glyph-name="uni1EE6" horiz-adv-x="1329" unicode="Ủ"/><glyph d="M250 438q-55 -334 235 -334q150 0 250.5 88.5t124.5 243.5v-8l101 637h145l-168 -1065h-145l30 195q-41 -78 -144.5 -146.5t-254.5 -68.5q-172 0 -266.5 103t-57.5 327l103 655h145zM481 1366q0 86 55.5 133t133.5 47q80 0 137 -51t57 -141q0 -84 -53 -135.5t-127 -57.5 l-39 70q59 2 94 31.5t35 85.5q0 53 -29.5 82.5t-76.5 29.5q-43 0 -72 -24.5t-31 -69.5h-84z" glyph-name="uni1EE7" unicode="ủ"/><glyph d="M584 -20q-254 0 -379 147t-84 414l141 893h152l-142 -885q-33 -209 57.5 -322.5t278.5 -113.5q186 0 303 112.5t150 323.5l141 885h215l29 180h127l-27 -180l-18 -121h-193l-123 -772q-43 -266 -208.5 -413.5t-419.5 -147.5zM752 1561l247 266h134l-248 -266h-133z" glyph-name="uni1EE8" horiz-adv-x="1329" unicode="Ứ"/><glyph d="M250 438q-55 -334 235 -334q150 0 250.5 88.5t124.5 243.5v-8l101 637h217l28 180h127l-26 -180l-19 -121h-201l-149 -944h-145l30 195q-41 -78 -144.5 -146.5t-254.5 -68.5q-172 0 -266.5 103t-57.5 327l103 655h145zM598 1192l248 266h133l-248 -266h-133z" glyph-name="uni1EE9" unicode="ứ"/><glyph d="M584 -20q-254 0 -379 147t-84 414l141 893h152l-142 -885q-33 -209 57.5 -322.5t278.5 -113.5q186 0 303 112.5t150 323.5l141 885h215l29 180h127l-27 -180l-18 -121h-193l-123 -772q-43 -266 -208.5 -413.5t-419.5 -147.5zM590 1827h129l168 -266h-129z" glyph-name="uni1EEA" horiz-adv-x="1329" unicode="Ừ"/><glyph d="M250 438q-55 -334 235 -334q150 0 250.5 88.5t124.5 243.5v-8l101 637h217l28 180h127l-26 -180l-19 -121h-201l-149 -944h-145l30 195q-41 -78 -144.5 -146.5t-254.5 -68.5q-172 0 -266.5 103t-57.5 327l103 655h145zM438 1458h129l168 -266h-129z" glyph-name="uni1EEB" unicode="ừ"/><glyph d="M584 -20q-254 0 -379 147t-84 414l141 893h152l-142 -885q-33 -209 57.5 -322.5t278.5 -113.5q186 0 303 112.5t150 323.5l141 885h215l29 180h127l-27 -180l-18 -121h-193l-123 -772q-43 -266 -208.5 -413.5t-419.5 -147.5zM643 1735q0 86 55.5 133t132.5 47 q80 0 137.5 -51.5t57.5 -141.5q0 -84 -53 -135t-127 -57l-39 69q59 2 94 32t35 85q0 53 -29.5 83t-77.5 30q-43 0 -71.5 -24.5t-30.5 -69.5h-84z" glyph-name="uni1EEC" horiz-adv-x="1329" unicode="Ử"/><glyph d="M250 438q-55 -334 235 -334q150 0 250.5 88.5t124.5 243.5v-8l101 637h217l28 180h127l-26 -180l-19 -121h-201l-149 -944h-145l30 195q-41 -78 -144.5 -146.5t-254.5 -68.5q-172 0 -266.5 103t-57.5 327l103 655h145zM489 1366q0 86 55.5 133t133.5 47q80 0 137 -51 t57 -141q0 -84 -53 -135.5t-127 -57.5l-39 70q59 2 94 31.5t35 85.5q0 53 -29.5 82.5t-76.5 29.5q-43 0 -72 -24.5t-31 -69.5h-84z" glyph-name="uni1EED" unicode="ử"/><glyph d="M584 -20q-254 0 -379 147t-84 414l141 893h152l-142 -885q-33 -209 57.5 -322.5t278.5 -113.5q186 0 303 112.5t150 323.5l141 885h215l29 180h127l-27 -180l-18 -121h-193l-123 -772q-43 -266 -208.5 -413.5t-419.5 -147.5zM522 1657q14 94 66.5 142t128.5 48 q49 0 89 -22.5t60.5 -48t51 -48t65.5 -22.5q45 0 71.5 28.5t30.5 65.5h97q-14 -92 -65.5 -141t-127.5 -49q-49 0 -89 22.5t-60.5 48t-52 48t-66.5 22.5q-43 0 -69.5 -28.5t-33.5 -65.5h-96z" glyph-name="uni1EEE" horiz-adv-x="1329" unicode="Ữ"/><glyph d="M250 438q-55 -334 235 -334q150 0 250.5 88.5t124.5 243.5v-8l101 637h217l28 180h127l-26 -180l-19 -121h-201l-149 -944h-145l30 195q-41 -78 -144.5 -146.5t-254.5 -68.5q-172 0 -266.5 103t-57.5 327l103 655h145zM369 1288q14 94 66 142.5t128 48.5q49 0 89 -22.5 t60.5 -48.5t51.5 -48.5t65 -22.5q45 0 72 29t31 66h96q-14 -92 -66.5 -141.5t-125.5 -49.5q-49 0 -89 22.5t-60.5 48t-52.5 48t-67 22.5q-43 0 -69.5 -28.5t-32.5 -65.5h-96z" glyph-name="uni1EEF" unicode="ữ"/><glyph d="M584 -20q-254 0 -379 147t-84 414l141 893h152l-142 -885q-33 -209 57.5 -322.5t278.5 -113.5q186 0 303 112.5t150 323.5l141 885h215l29 180h127l-27 -180l-18 -121h-193l-123 -772q-43 -266 -208.5 -413.5t-419.5 -147.5zM420 -365q0 43 31.5 75t76.5 32q43 0 75 -32 t32 -75q0 -45 -32 -75.5t-75 -30.5q-45 0 -76.5 30.5t-31.5 75.5z" glyph-name="uni1EF0" horiz-adv-x="1329" unicode="Ự"/><glyph d="M250 438q-55 -334 235 -334q150 0 250.5 88.5t124.5 243.5v-8l101 637h217l28 180h127l-26 -180l-19 -121h-201l-149 -944h-145l30 195q-41 -78 -144.5 -146.5t-254.5 -68.5q-172 0 -266.5 103t-57.5 327l103 655h145zM326 -365q0 43 31.5 75t76.5 32q43 0 75 -32t32 -75 q0 -45 -32 -75.5t-75 -30.5q-45 0 -76.5 30.5t-31.5 75.5z" glyph-name="uni1EF1" unicode="ự"/><glyph d="M500 0l90 565l-389 869h170l317 -723l545 723h174l-666 -869l-88 -565h-153zM586 1827h129l168 -266h-129z" glyph-name="Ygrave" horiz-adv-x="1320" unicode="Ỳ"/><glyph d="M33 -266q201 -29 309 168q47 84 33 145l-244 1018h150l200 -901l486 901h153l-645 -1163q-96 -176 -206.5 -245t-254.5 -50zM412 1458h129l168 -266h-129z" glyph-name="ygrave" horiz-adv-x="1083" unicode="ỳ"/><glyph d="M500 0l90 565l-389 869h170l317 -723l545 723h174l-666 -869l-88 -565h-153zM416 -365q0 43 31.5 75t76.5 32q43 0 75 -32t32 -75q0 -45 -32 -75.5t-75 -30.5q-45 0 -76.5 30.5t-31.5 75.5z" glyph-name="uni1EF4" horiz-adv-x="1320" unicode="Ỵ"/><glyph d="M33 -266q201 -29 309 168q47 84 33 145l-244 1018h150l200 -901l486 901h153l-645 -1163q-96 -176 -206.5 -245t-254.5 -50zM489 -365q0 43 32 75t77 32q43 0 75 -32t32 -75q0 -45 -32 -75.5t-75 -30.5q-45 0 -77 30.5t-32 75.5z" glyph-name="uni1EF5" horiz-adv-x="1083" unicode="ỵ"/><glyph d="M500 0l90 565l-389 869h170l317 -723l545 723h174l-666 -869l-88 -565h-153zM639 1735q0 86 55.5 133t132.5 47q80 0 137.5 -51.5t57.5 -141.5q0 -84 -53.5 -135t-126.5 -57l-39 69q59 2 94 32t35 85q0 53 -30 83t-77 30q-43 0 -71.5 -24.5t-30.5 -69.5h-84z" glyph-name="uni1EF6" horiz-adv-x="1320" unicode="Ỷ"/><glyph d="M33 -266q201 -29 309 168q47 84 33 145l-244 1018h150l200 -901l486 901h153l-645 -1163q-96 -176 -206.5 -245t-254.5 -50zM463 1366q0 86 55 133t133 47q80 0 137.5 -51t57.5 -141q0 -84 -53.5 -135.5t-126.5 -57.5l-39 70q59 2 94 31.5t35 85.5q0 53 -30 82.5 t-77 29.5q-43 0 -71.5 -24.5t-30.5 -69.5h-84z" glyph-name="uni1EF7" horiz-adv-x="1083" unicode="ỷ"/><glyph d="M500 0l90 565l-389 869h170l317 -723l545 723h174l-666 -869l-88 -565h-153zM516 1657q14 94 66.5 142t128.5 48q49 0 89 -22.5t60.5 -48t51 -48t65.5 -22.5q45 0 71.5 28.5t30.5 65.5h97q-14 -92 -66.5 -141t-126.5 -49q-49 0 -89 22.5t-60.5 48t-52 48t-66.5 22.5 q-43 0 -70 -28.5t-33 -65.5h-96z" glyph-name="uni1EF8" horiz-adv-x="1320" unicode="Ỹ"/><glyph d="M33 -266q201 -29 309 168q47 84 33 145l-244 1018h150l200 -901l486 901h153l-645 -1163q-96 -176 -206.5 -245t-254.5 -50zM342 1288q14 94 66.5 142.5t128.5 48.5q49 0 89 -22.5t60.5 -48.5t51 -48.5t65.5 -22.5q45 0 71.5 29t30.5 66h96q-14 -92 -65 -141.5 t-127 -49.5q-49 0 -89 22.5t-60.5 48t-52.5 48t-66 22.5q-43 0 -70 -28.5t-33 -65.5h-96z" glyph-name="uni1EF9" horiz-adv-x="1083" unicode="ỹ"/><glyph d="M90 516l19 115h1044l-18 -115h-1045z" glyph-name="endash" horiz-adv-x="1228" unicode="–"/><glyph d="M90 516l19 115h1167l-19 -115h-1167z" glyph-name="emdash" horiz-adv-x="1351" unicode="—"/><glyph d="M430 1374q-125 -6 -137 -117q53 0 84 -26.5t31 -71.5q0 -49 -32 -80.5t-81 -31.5t-80 35.5t-31 105.5q0 102 63.5 181t180.5 79h12z" glyph-name="quoteleft" horiz-adv-x="399" unicode="‘"/><glyph d="M197 1124q125 6 137 117q-53 0 -84 26.5t-31 71.5q0 49 32 81t81 32t79.5 -36t30.5 -105q0 -102 -63.5 -181t-179.5 -79h-13z" glyph-name="quoteright" horiz-adv-x="399" unicode="’"/><glyph d="M-4 -135q125 6 137 117q-53 0 -84 26.5t-31 71.5q0 49 32 81t81 32t80 -36t31 -106q0 -102 -63.5 -181t-180.5 -79h-12z" glyph-name="quotesinglbase" horiz-adv-x="409" unicode="‚"/><glyph d="M430 1374q-125 -6 -137 -117q53 0 84 -26.5t31 -71.5q0 -49 -32 -80.5t-81 -31.5t-80 35.5t-31 105.5q0 102 63.5 181t180.5 79h12zM485 1188q0 102 63.5 181t180.5 79h12l-10 -74q-125 -6 -137 -117q53 0 84 -26.5t31 -71.5q0 -49 -32 -80.5t-81 -31.5t-80 35.5 t-31 105.5z" glyph-name="quotedblleft" horiz-adv-x="698" unicode="“"/><glyph d="M197 1124q125 6 137 117q-53 0 -84 26.5t-31 71.5q0 49 32 81t81 32t79.5 -36t30.5 -105q0 -102 -63.5 -181t-179.5 -79h-13zM485 1051l11 73q125 6 137 117q-53 0 -84 26.5t-31 71.5q0 49 32 81t81 32t79.5 -36t30.5 -105q0 -102 -63.5 -181t-179.5 -79h-13z" glyph-name="quotedblright" horiz-adv-x="700" unicode="”"/><glyph d="M293 -147q125 6 137 116q-53 0 -84 27t-31 72q0 49 32 80.5t81 31.5t80 -35.5t31 -105.5q0 -102 -63.5 -181t-180.5 -79h-12zM-16 -221l10 74q125 6 137 116q-53 0 -84 27t-31 72q0 49 32 80.5t81 31.5t80 -35.5t31 -105.5q0 -102 -63.5 -181t-180.5 -79h-12z" glyph-name="quotedblbase" horiz-adv-x="708" unicode="„"/><glyph d="M281 555l84 524h-177l19 113h174l39 242h119l-39 -242h172l-19 -113h-170l-84 -524h-118z" glyph-name="dagger" horiz-adv-x="669" unicode="†"/><glyph d="M193 0l49 315h-174l18 113h174l92 578h-174l17 112h176l49 316h119l-50 -316h170l-16 -112h-172l-92 -578h172l-19 -113h-172l-49 -315h-118z" glyph-name="daggerdbl" horiz-adv-x="669" unicode="‡"/><glyph d="M270 377q-70 0 -117 48t-47 116q0 66 47.5 113.5t116.5 47.5q66 0 114 -48t48 -113q0 -68 -48 -116t-114 -48z" glyph-name="bullet" horiz-adv-x="534" unicode="•"/><glyph d="M539 -20q-43 0 -75 30.5t-32 75.5q0 43 32 75t75 32q45 0 75.5 -32t30.5 -75q0 -45 -30.5 -75.5t-75.5 -30.5zM18 86q0 43 32 75t75 32q45 0 75.5 -32t30.5 -75q0 -45 -30.5 -75.5t-75.5 -30.5q-43 0 -75 30.5t-32 75.5zM846 86q0 43 31.5 75t74.5 32q45 0 76 -32t31 -75 q0 -45 -31 -75.5t-76 -30.5q-43 0 -74.5 30.5t-31.5 75.5z" glyph-name="ellipsis" horiz-adv-x="1220" unicode="…"/><glyph d="M164 256l-47 90l1255 825l49 -90zM180 1075q0 150 91 260.5t235 110.5q106 0 168.5 -63.5t62.5 -184.5q0 -152 -90 -262.5t-235 -110.5q-106 0 -169 64.5t-63 185.5zM293 1085q0 -156 135 -155q96 0 146.5 76.5t50.5 179.5q0 156 -136 155q-94 0 -145 -77t-51 -179z M799 231q0 152 91 262.5t234 110.5q106 0 169 -64.5t63 -185.5q0 -152 -90 -262t-236 -110q-106 0 -168.5 64t-62.5 185zM911 244q0 -156 136 -156q96 0 146 76t50 178q0 156 -133 156q-96 0 -147.5 -77t-51.5 -177zM1446 231q0 152 90 262.5t236 110.5q106 0 168.5 -64.5 t62.5 -185.5q0 -152 -91 -262t-235 -110q-106 0 -168.5 64t-62.5 185zM1559 244q0 -156 135 -156q94 0 145 77t51 177q0 156 -135 156q-96 0 -146 -76t-50 -178z" glyph-name="perthousand" horiz-adv-x="2125" unicode="‰"/><glyph d="M340 301l-254 252l16 115l336 254l-22 -144l-217 -168l163 -168z" glyph-name="guilsinglleft" horiz-adv-x="460" unicode="‹"/><glyph d="M145 922l254 -252l-16 -115l-336 -254l23 143l217 168l-164 168z" glyph-name="guilsinglright" horiz-adv-x="460" unicode="›"/><glyph d="M-420 0l1122 1434h82l-1120 -1434h-84z" glyph-name="fraction" horiz-adv-x="305" unicode="⁄"/><glyph d="M109 766l14 94h117q72 262 260 427t461 165q221 0 356 -110.5t139 -315.5h-141q-16 143 -112.5 219t-252.5 76q-209 0 -353 -128t-206 -333h397l-14 -94h-405q-14 -76 -17 -137h400l-15 -97h-383q14 -209 126 -315t292 -106q156 0 267.5 76.5t172.5 220.5h148 q-70 -211 -228.5 -319.5t-375.5 -108.5q-246 0 -393.5 139t-159.5 413h-131l14 97h119q4 76 14 137h-110z" glyph-name="Euro" horiz-adv-x="1441" unicode="€"/><glyph d="M575 1065l60 369h80l90 -295l176 295h84l-59 -369h-76l39 235l-144 -235h-63l-72 235l-39 -235h-76zM213 1368l12 66h338l-12 -66h-131l-47 -303h-76l47 303h-131z" glyph-name="trademark" horiz-adv-x="1003" unicode="™"/><glyph d="M500 -20q-213 0 -329 138t-81 363q35 219 183.5 347t351.5 128q133 0 232 -59t136 -172q88 608 -291 608q-133 0 -222 -68.5t-115 -170.5h-129q25 145 153.5 251.5t331.5 106.5q119 0 205 -43t132 -113.5t67.5 -171t19.5 -204t-21 -224.5q-57 -358 -219.5 -537 t-404.5 -179zM229 479q-27 -170 52 -274.5t237 -104.5q156 0 269.5 106.5t140.5 272.5q27 164 -55 262.5t-242 98.5t-267.5 -97.5t-134.5 -263.5z" glyph-name="partialdiff" horiz-adv-x="1185" unicode="∂"/><glyph d="M-53 -389l321 2027h1186l-321 -2027h-138l301 1896h-913l-299 -1896h-137z" glyph-name="product" horiz-adv-x="1370" unicode="∏"/><glyph d="M-53 -389l723 1014l-402 1013h1166l-23 -135h-932l350 -878l-624 -879h928l-21 -135h-1165z" glyph-name="summation" horiz-adv-x="1349" unicode="∑"/><glyph d="M111 477l20 115h600l-20 -115h-600z" glyph-name="minus" horiz-adv-x="839" unicode="−"/><glyph d="M541 -389l-222 948h-223l25 152h317l199 -897l795 1824h145l-883 -2027h-153z" glyph-name="radical" horiz-adv-x="1492" unicode="√"/><glyph d="M432 195q-141 0 -239.5 97t-98.5 244.5t97.5 241.5t240.5 94q207 0 397 -237q190 238 396 237q143 0 240.5 -94t97.5 -241q0 -150 -97.5 -246t-240.5 -96q-207 0 -396 241q-188 -241 -397 -241zM227 537q0 -96 61.5 -160t155.5 -64q158 0 308 224q-150 219 -308 219 q-94 0 -155.5 -62.5t-61.5 -156.5zM907 537q150 -223 307 -224q94 0 156 63.5t62 160.5q0 94 -61.5 156.5t-156.5 62.5q-157 0 -307 -219z" glyph-name="infinity" horiz-adv-x="1656" unicode="∞"/><glyph d="M-78 -262q88 0 142.5 51t72.5 168l182 1157q29 180 122.5 255t256.5 75l-20 -129q-90 0 -143.5 -49t-71.5 -168l-184 -1157q-29 -182 -126.5 -256t-250.5 -74z" glyph-name="integral" horiz-adv-x="604" unicode="∫"/><glyph d="M623 272q-80 0 -179.5 78t-160.5 78q-55 0 -86 -29.5t-29 -66.5h-76q0 96 59.5 152.5t147.5 56.5q80 0 179.5 -78t160.5 -78q57 0 87 29.5t28 66.5h75q0 -96 -59 -152.5t-147 -56.5zM143 659q0 96 59.5 152.5t147.5 56.5q80 0 179.5 -77.5t160.5 -77.5q57 0 87 29.5 t28 66.5h76q0 -96 -59.5 -152.5t-147.5 -56.5q-80 0 -179.5 78t-160.5 78q-55 0 -86 -30t-29 -67h-76z" glyph-name="approxequal" horiz-adv-x="960" unicode="≈"/><glyph d="M152 0l137 352h-197l21 115h221l84 213h-273l21 115h295l139 354h98l-139 -354h207l-23 -115h-227l-84 -213h281l-23 -115h-303l-137 -352h-98z" glyph-name="notequal" horiz-adv-x="843" unicode="≠"/><glyph d="M35 0l18 115h705l-19 -115h-704zM150 705l18 126l758 383l-19 -129l-641 -321l549 -313l-18 -129z" glyph-name="lessequal" horiz-adv-x="950" unicode="≤"/><glyph d="M41 0l16 115h703l-17 -115h-702zM98 322l19 131l641 319l-549 315l18 127l647 -380l-16 -129z" glyph-name="greaterequal" horiz-adv-x="950" unicode="≥"/><glyph d="M326 0l-205 717l432 717h192l203 -717l-430 -717h-192zM272 717l168 -596l357 596l-166 596z" glyph-name="lozenge" horiz-adv-x="1011" unicode="◊"/><glyph d="M115 492l147 942h152l-148 -942h-151z" glyph-name="uniA78B" horiz-adv-x="391" unicode="Ꞌ"/><glyph d="M131 610l131 824h146l-132 -824h-145z" glyph-name="uniA78C" horiz-adv-x="385" unicode="ꞌ"/><glyph d="M592 -20q-254 0 -384 148t-87 413h151q-33 -203 58.5 -315.5t277.5 -112.5q184 0 301 112.5t150 323.5l139 885h152l-142 -893q-43 -268 -203.5 -414.5t-412.5 -146.5zM1214 1561l248 266h133l-247 -266h-134z" glyph-name="J.aalt" horiz-adv-x="1325"/><glyph d="M623 -20q-238 0 -377.5 145t-139.5 428q0 379 213 639t570 260q207 0 330.5 -96t138.5 -279h-152q-43 244 -336 244q-283 0 -446.5 -219t-163.5 -522q0 -240 108.5 -354.5t295.5 -114.5q197 0 337 111.5t168 291.5l15 90h-375l20 123h517l-115 -727h-139l34 238 q-173 -258 -503 -258z" glyph-name="G.ss01" horiz-adv-x="1413"/><glyph d="M961 0q-35 39 -5 238l21 118q37 240 -227 240h-469l-95 -596h-151l227 1434h563q209 0 313.5 -89.5t104.5 -252.5q0 -150 -82 -263.5t-225 -158.5q123 -33 168 -107t24 -205l-20 -120q-31 -199 4 -238h-151zM301 719h399q180 0 283.5 95t103.5 247q0 125 -72.5 182 t-221.5 57h-400z" glyph-name="R.aalt" horiz-adv-x="1304"/><glyph d="M623 -20q-238 0 -377.5 145t-139.5 428q0 379 213 639t570 260q207 0 330.5 -96t138.5 -279h-152q-43 244 -336 244q-283 0 -446.5 -219t-163.5 -522q0 -240 108.5 -354.5t295.5 -114.5q197 0 337 111.5t168 291.5l15 90h-375l20 123h517l-115 -727h-139l34 238 q-173 -258 -503 -258z" glyph-name="G.ss05" horiz-adv-x="1413"/><glyph d="M12 0l168 1065h146l-168 -1065h-146zM209 1382q0 39 28.5 67t67.5 28t66.5 -28t27.5 -67t-27.5 -66.5t-66.5 -27.5t-67.5 27.5t-28.5 66.5z" glyph-name="i.locl" horiz-adv-x="337"/><glyph d="M-106 -383q-49 0 -107 6l18 115h64q88 0 130 36t56 126l187 1165h145l-190 -1194q-41 -254 -303 -254zM254 1192l248 266h133l-248 -266h-133z" glyph-name="j.aalt" horiz-adv-x="399"/><glyph d="M463 -20q-176 0 -290 110.5t-114 325.5q0 274 160 471.5t412 197.5q125 0 221 -51t137 -149l29 180h145l-168 -1065h-145l29 180q-72 -96 -182.5 -148t-233.5 -52zM201 444q0 -168 86 -255t221 -87q193 0 316.5 155t123.5 366q0 166 -89 253t-224 87q-190 0 -312 -155 t-122 -364z" glyph-name="a.ss01" horiz-adv-x="1198"/><glyph d="M463 -20q-176 0 -290 110.5t-114 325.5q0 274 160 471.5t412 197.5q125 0 221 -51t137 -149l29 180h145l-168 -1065h-145l29 180q-72 -96 -182.5 -148t-233.5 -52zM201 444q0 -168 86 -255t221 -87q193 0 316.5 155t123.5 366q0 166 -89 253t-224 87q-190 0 -312 -155 t-122 -364zM578 1192l247 266h133l-247 -266h-133z" glyph-name="aacute.ss01" horiz-adv-x="1198"/><glyph d="M463 -20q-176 0 -290 110.5t-114 325.5q0 274 160 471.5t412 197.5q125 0 221 -51t137 -149l29 180h145l-168 -1065h-145l29 180q-72 -96 -182.5 -148t-233.5 -52zM201 444q0 -168 86 -255t221 -87q193 0 316.5 155t123.5 366q0 166 -89 253t-224 87q-190 0 -312 -155 t-122 -364zM438 1458h103q-14 -164 159 -164q176 0 205 164h103q-18 -113 -96 -184.5t-223.5 -71.5t-206 72.5t-44.5 183.5z" glyph-name="abreve.ss01" horiz-adv-x="1198"/><glyph d="M463 -20q-176 0 -290 110.5t-114 325.5q0 274 160 471.5t412 197.5q125 0 221 -51t137 -149l29 180h145l-168 -1065h-145l29 180q-72 -96 -182.5 -148t-233.5 -52zM201 444q0 -168 86 -255t221 -87q193 0 316.5 155t123.5 366q0 166 -89 253t-224 87q-190 0 -312 -155 t-122 -364zM414 1458h139l133 -213l199 213h145l-248 -262h-202z" glyph-name="uni01CE.ss01" horiz-adv-x="1198"/><glyph d="M463 -20q-176 0 -290 110.5t-114 325.5q0 274 160 471.5t412 197.5q125 0 221 -51t137 -149l29 180h145l-168 -1065h-145l29 180q-72 -96 -182.5 -148t-233.5 -52zM201 444q0 -168 86 -255t221 -87q193 0 316.5 155t123.5 366q0 166 -89 253t-224 87q-190 0 -312 -155 t-122 -364zM371 1196l247 262h203l166 -262h-139l-133 213l-199 -213h-145z" glyph-name="acircumflex.ss01" horiz-adv-x="1198"/><glyph d="M463 -20q-176 0 -290 110.5t-114 325.5q0 274 160 471.5t412 197.5q125 0 221 -51t137 -149l29 180h145l-168 -1065h-145l29 180q-72 -96 -182.5 -148t-233.5 -52zM201 444q0 -168 86 -255t221 -87q193 0 316.5 155t123.5 366q0 166 -89 253t-224 87q-190 0 -312 -155 t-122 -364zM430 1382q0 39 28.5 67t67.5 28t67 -28t28 -67t-28 -66.5t-67 -27.5t-67.5 27.5t-28.5 66.5zM801 1382q0 39 28.5 67t67.5 28t66.5 -28t27.5 -67t-27.5 -66.5t-66.5 -27.5t-67.5 27.5t-28.5 66.5z" glyph-name="adieresis.ss01" horiz-adv-x="1198"/><glyph d="M463 -20q-176 0 -290 110.5t-114 325.5q0 274 160 471.5t412 197.5q125 0 221 -51t137 -149l29 180h145l-168 -1065h-145l29 180q-72 -96 -182.5 -148t-233.5 -52zM201 444q0 -168 86 -255t221 -87q193 0 316.5 155t123.5 366q0 166 -89 253t-224 87q-190 0 -312 -155 t-122 -364zM442 1458h129l168 -266h-129z" glyph-name="agrave.ss01" horiz-adv-x="1198"/><glyph d="M463 -20q-176 0 -290 110.5t-114 325.5q0 274 160 471.5t412 197.5q125 0 221 -51t137 -149l29 180h145l-168 -1065h-145l29 180q-72 -96 -182.5 -148t-233.5 -52zM201 444q0 -168 86 -255t221 -87q193 0 316.5 155t123.5 366q0 166 -89 253t-224 87q-190 0 -312 -155 t-122 -364zM412 1364l12 94h596l-14 -94h-594z" glyph-name="amacron.ss01" horiz-adv-x="1198"/><glyph d="M463 -20q-176 0 -290 110.5t-114 325.5q0 274 160 471.5t412 197.5q125 0 221 -51t137 -149l29 180h145l-168 -1065q-117 0 -190.5 -51t-73.5 -133q0 -61 44 -88t120 -17l-14 -88q-102 -23 -184.5 20.5t-82.5 145.5q0 92 70 161.5t172 90.5l23 139q-72 -96 -182.5 -148 t-233.5 -52zM201 444q0 -168 86 -255t221 -87q193 0 316.5 155t123.5 366q0 166 -89 253t-224 87q-190 0 -312 -155t-122 -364z" glyph-name="aogonek.ss01" horiz-adv-x="1198"/><glyph d="M463 -20q-176 0 -290 110.5t-114 325.5q0 274 160 471.5t412 197.5q125 0 221 -51t137 -149l29 180h145l-168 -1065h-145l29 180q-72 -96 -182.5 -148t-233.5 -52zM201 444q0 -168 86 -255t221 -87q193 0 316.5 155t123.5 366q0 166 -89 253t-224 87q-190 0 -312 -155 t-122 -364zM530 1343.5q0 71.5 50.5 120.5t126 49t126 -49t50.5 -120.5t-51.5 -122t-125 -50.5t-125 50.5t-51.5 122zM610 1343.5q0 -40.5 28 -68.5t69 -28t68.5 28t27.5 68.5t-29 68.5t-67.5 28t-67.5 -28t-29 -68.5z" glyph-name="aring.ss01" horiz-adv-x="1198"/><glyph d="M463 -20q-176 0 -290 110.5t-114 325.5q0 274 160 471.5t412 197.5q125 0 221 -51t137 -149l29 180h145l-168 -1065h-145l29 180q-72 -96 -182.5 -148t-233.5 -52zM201 444q0 -168 86 -255t221 -87q193 0 316.5 155t123.5 366q0 166 -89 253t-224 87q-190 0 -312 -155 t-122 -364zM375 1288q14 94 66.5 142.5t127.5 48.5q49 0 89 -22.5t60.5 -48.5t51.5 -48.5t66 -22.5q45 0 71.5 29t30.5 66h96q-14 -92 -65 -141.5t-127 -49.5q-49 0 -89 22.5t-60.5 48t-52.5 48t-67 22.5q-43 0 -69.5 -28.5t-32.5 -65.5h-96z" glyph-name="atilde.ss01" horiz-adv-x="1198"/><glyph d="M35 0l168 1065h145l-168 -1065h-145zM244 1309l20 143h146l-21 -143h-145z" glyph-name="i.ss01" horiz-adv-x="385"/><glyph d="M276 -4q-129 -14 -180 28t-33 160l201 1260h146l-201 -1260q-4 -41 14.5 -60.5t69.5 -17.5z" glyph-name="l.ss01" horiz-adv-x="405"/><glyph d="M463 -20q-176 0 -290 110.5t-114 325.5q0 274 160 471.5t412 197.5q125 0 221 -51t137 -149l29 180h145l-168 -1065h-145l29 180q-72 -96 -182.5 -148t-233.5 -52zM201 444q0 -168 86 -255t221 -87q193 0 316.5 155t123.5 366q0 166 -89 253t-224 87q-190 0 -312 -155 t-122 -364z" glyph-name="a.ss02" horiz-adv-x="1198"/><glyph d="M463 -20q-176 0 -290 110.5t-114 325.5q0 274 160 471.5t412 197.5q125 0 221 -51t137 -149l29 180h145l-168 -1065h-145l29 180q-72 -96 -182.5 -148t-233.5 -52zM201 444q0 -168 86 -255t221 -87q193 0 316.5 155t123.5 366q0 166 -89 253t-224 87q-190 0 -312 -155 t-122 -364zM578 1192l247 266h133l-247 -266h-133z" glyph-name="aacute.ss02" horiz-adv-x="1198"/><glyph d="M463 -20q-176 0 -290 110.5t-114 325.5q0 274 160 471.5t412 197.5q125 0 221 -51t137 -149l29 180h145l-168 -1065h-145l29 180q-72 -96 -182.5 -148t-233.5 -52zM201 444q0 -168 86 -255t221 -87q193 0 316.5 155t123.5 366q0 166 -89 253t-224 87q-190 0 -312 -155 t-122 -364zM438 1458h103q-14 -164 159 -164q176 0 205 164h103q-18 -113 -96 -184.5t-223.5 -71.5t-206 72.5t-44.5 183.5z" glyph-name="abreve.ss02" horiz-adv-x="1198"/><glyph d="M463 -20q-176 0 -290 110.5t-114 325.5q0 274 160 471.5t412 197.5q125 0 221 -51t137 -149l29 180h145l-168 -1065h-145l29 180q-72 -96 -182.5 -148t-233.5 -52zM201 444q0 -168 86 -255t221 -87q193 0 316.5 155t123.5 366q0 166 -89 253t-224 87q-190 0 -312 -155 t-122 -364zM416 1458h139l133 -213l199 213h145l-248 -262h-202z" glyph-name="uni01CE.ss02" horiz-adv-x="1198"/><glyph d="M463 -20q-176 0 -290 110.5t-114 325.5q0 274 160 471.5t412 197.5q125 0 221 -51t137 -149l29 180h145l-168 -1065h-145l29 180q-72 -96 -182.5 -148t-233.5 -52zM201 444q0 -168 86 -255t221 -87q193 0 316.5 155t123.5 366q0 166 -89 253t-224 87q-190 0 -312 -155 t-122 -364zM371 1196l247 262h203l166 -262h-139l-133 213l-199 -213h-145z" glyph-name="acircumflex.ss02" horiz-adv-x="1198"/><glyph d="M463 -20q-176 0 -290 110.5t-114 325.5q0 274 160 471.5t412 197.5q125 0 221 -51t137 -149l29 180h145l-168 -1065h-145l29 180q-72 -96 -182.5 -148t-233.5 -52zM201 444q0 -168 86 -255t221 -87q193 0 316.5 155t123.5 366q0 166 -89 253t-224 87q-190 0 -312 -155 t-122 -364zM430 1382q0 39 28.5 67t67.5 28t67 -28t28 -67t-28 -66.5t-67 -27.5t-67.5 27.5t-28.5 66.5zM801 1382q0 39 28.5 67t67.5 28t66.5 -28t27.5 -67t-27.5 -66.5t-66.5 -27.5t-67.5 27.5t-28.5 66.5z" glyph-name="adieresis.ss02" horiz-adv-x="1198"/><glyph d="M463 -20q-176 0 -290 110.5t-114 325.5q0 274 160 471.5t412 197.5q125 0 221 -51t137 -149l29 180h145l-168 -1065h-145l29 180q-72 -96 -182.5 -148t-233.5 -52zM201 444q0 -168 86 -255t221 -87q193 0 316.5 155t123.5 366q0 166 -89 253t-224 87q-190 0 -312 -155 t-122 -364zM442 1458h129l168 -266h-129z" glyph-name="agrave.ss02" horiz-adv-x="1198"/><glyph d="M463 -20q-176 0 -290 110.5t-114 325.5q0 274 160 471.5t412 197.5q125 0 221 -51t137 -149l29 180h145l-168 -1065h-145l29 180q-72 -96 -182.5 -148t-233.5 -52zM201 444q0 -168 86 -255t221 -87q193 0 316.5 155t123.5 366q0 166 -89 253t-224 87q-190 0 -312 -155 t-122 -364zM412 1364l12 94h596l-14 -94h-594z" glyph-name="amacron.ss02" horiz-adv-x="1198"/><glyph d="M463 -20q-176 0 -290 110.5t-114 325.5q0 274 160 471.5t412 197.5q125 0 221 -51t137 -149l29 180h145l-168 -1065q-117 0 -190.5 -51t-73.5 -133q0 -61 44 -88t120 -17l-14 -88q-102 -23 -184.5 20.5t-82.5 145.5q0 92 70 161.5t172 90.5l23 139q-72 -96 -182.5 -148 t-233.5 -52zM201 444q0 -168 86 -255t221 -87q193 0 316.5 155t123.5 366q0 166 -89 253t-224 87q-190 0 -312 -155t-122 -364z" glyph-name="aogonek.ss02" horiz-adv-x="1198"/><glyph d="M463 -20q-176 0 -290 110.5t-114 325.5q0 274 160 471.5t412 197.5q125 0 221 -51t137 -149l29 180h145l-168 -1065h-145l29 180q-72 -96 -182.5 -148t-233.5 -52zM201 444q0 -168 86 -255t221 -87q193 0 316.5 155t123.5 366q0 166 -89 253t-224 87q-190 0 -312 -155 t-122 -364zM530 1343.5q0 71.5 50.5 120.5t126 49t126 -49t50.5 -120.5t-51.5 -122t-125 -50.5t-125 50.5t-51.5 122zM610 1343.5q0 -40.5 28 -68.5t69 -28t68.5 28t27.5 68.5t-29 68.5t-67.5 28t-67.5 -28t-29 -68.5z" glyph-name="aring.ss02" horiz-adv-x="1198"/><glyph d="M463 -20q-176 0 -290 110.5t-114 325.5q0 274 160 471.5t412 197.5q125 0 221 -51t137 -149l29 180h145l-168 -1065h-145l29 180q-72 -96 -182.5 -148t-233.5 -52zM201 444q0 -168 86 -255t221 -87q193 0 316.5 155t123.5 366q0 166 -89 253t-224 87q-190 0 -312 -155 t-122 -364zM375 1288q14 94 66.5 142.5t127.5 48.5q49 0 89 -22.5t60.5 -48.5t51.5 -48.5t66 -22.5q45 0 71.5 29t30.5 66h96q-14 -92 -65 -141.5t-127 -49.5q-49 0 -89 22.5t-60.5 48t-52.5 48t-67 22.5q-43 0 -69.5 -28.5t-32.5 -65.5h-96z" glyph-name="atilde.ss02" horiz-adv-x="1198"/><glyph d="M332 -20q-307 0 -307 249q0 279 405 336l238 31q168 20 174 70l12 82q18 119 -44 172t-200 53q-266 0 -301 -191l-4 -22h-135l4 33q49 293 457 292q211 0 303 -81.5t65 -253.5l-90 -580q-6 -41 5.5 -59.5t43.5 -16.5l-14 -92q-20 -10 -59 -10q-141 0 -113 143l8 45h-8 q-23 -35 -69 -74.5t-149 -82.5t-222 -43zM172 252q0 -156 201 -156q174 0 291.5 97.5t130.5 179.5l28 172q-23 -37 -159 -53l-218 -31q-274 -37 -274 -209z" glyph-name="a.ss03" horiz-adv-x="1077"/><glyph d="M276 -4q-129 -14 -180 28t-33 160l201 1260h146l-201 -1260q-4 -41 14.5 -60.5t69.5 -17.5z" glyph-name="l.ss04" horiz-adv-x="405"/><glyph d="M115 948l16 117h148l24 149q41 252 305 252h109l-19 -116h-69q-86 0 -128 -36t-57 -124l-20 -125h522l41 264h146l-41 -264h211l-17 -117h-213l-108 -680q-14 -88 16.5 -125t118.5 -37h69l-20 -114q-37 -6 -109 -6q-266 0 -225 254l113 708h-522l-150 -948h-145l149 948 h-145z" glyph-name="f_t.dlig" horiz-adv-x="1292"/><glyph d="M35 0l168 1065h145l-41 -272h4q45 115 154.5 193.5t300.5 78.5h133l41 264h145l-41 -264h211l-18 -117h-211l-108 -680q-14 -88 16.5 -125t118.5 -37h67l-18 -114q-37 -6 -109 -6q-266 0 -225 254l113 708h-140q-195 0 -314.5 -95t-152.5 -261l-94 -592h-145z" glyph-name="r_t.dlig" horiz-adv-x="1245"/><glyph d="M203 -4q-96 0 -143.5 70.5t-30.5 187.5l4 27q16 115 86.5 186.5t167.5 71.5q98 0 145 -72t31 -186l-4 -27q-16 -115 -87 -186.5t-169 -71.5zM94 254q-14 -92 18.5 -144.5t98.5 -52.5q68 0 118 52.5t64 144.5l4 27q14 92 -18.5 144t-99.5 52q-66 0 -116 -52t-65 -144z" glyph-name="zero.dnom" horiz-adv-x="575"/><glyph d="M176 444q-35 -51 -115 -45l9 62q35 -2 69.5 20.5t50.5 53.5h64l-84 -535h-64z" glyph-name="one.dnom" horiz-adv-x="346"/><glyph d="M2 23q8 74 52 128t139 107q6 4 22 12.5t21.5 12.5t18.5 11t18.5 11t14.5 11.5t13 11.5t10 12t9.5 15t6.5 15.5t5 18.5q6 41 -18.5 66.5t-69.5 25.5q-100 0 -119 -104l-2 -12h-66l2 12q10 76 61.5 121t131.5 45t118 -42t27 -108q-10 -61 -53 -101t-127 -85 q-131 -74 -135 -139v-7h270l-10 -61h-342z" glyph-name="two.dnom" horiz-adv-x="518"/><glyph d="M190 -8q-92 0 -135 47t-30 127h63q-14 -117 113 -117q123 0 141 103q8 49 -25.5 75.5t-97.5 26.5h-22l8 51h22q55 0 90 25.5t41 64.5q6 41 -18.5 65.5t-73.5 24.5q-113 0 -127 -110h-63q10 80 63.5 124t133 44t118.5 -41t29 -103q-14 -90 -113 -114q45 -8 76 -43t20 -95 q-10 -68 -66.5 -111.5t-146.5 -43.5z" glyph-name="three.dnom" horiz-adv-x="546"/><glyph d="M242 0l20 135h-244l11 53l297 347h65l-55 -347h61l-8 -53h-61l-21 -135h-65zM90 188h182l41 261z" glyph-name="four.dnom" horiz-adv-x="534"/><glyph d="M160 -10q-84 0 -126 48t-32 126h59q-4 -49 23 -83t84 -34q59 0 98 35t49 96q10 66 -21.5 96.5t-82.5 30.5q-68 0 -121 -57h-63l90 287h274l-8 -60h-225l-56 -172q12 18 50 34.5t84 16.5q74 0 114.5 -47t28.5 -133t-71.5 -135t-147.5 -49z" glyph-name="five.dnom" horiz-adv-x="497"/><glyph d="M195 -10q-88 0 -134.5 64.5t-23.5 201.5q20 127 80.5 206t163.5 79q82 0 116.5 -43t30.5 -101h-59q0 86 -99 86q-127 0 -168 -213q20 31 64.5 54.5t97.5 23.5q70 0 114 -43t32 -129q-16 -92 -76.5 -139t-138.5 -47zM100 180q-10 -57 20 -94t87 -37q115 0 135 129 q10 59 -18.5 89t-82 30t-93.5 -32t-48 -85z" glyph-name="six.dnom" horiz-adv-x="546"/><glyph d="M37 0l289 475h-293l8 60h358l-8 -60l-287 -475h-67z" glyph-name="seven.dnom" horiz-adv-x="460"/><glyph d="M156 -4q-74 0 -120 37t-46 100q0 113 119 160q-49 39 -50 96q0 59 48.5 104.5t128.5 45.5q68 0 102.5 -33t34.5 -80q0 -84 -86 -133q78 -39 78 -119q0 -78 -61.5 -128t-147.5 -50zM49 139q0 -41 32 -65.5t83 -24.5q59 0 99 33t40 88q0 92 -110 92q-59 0 -101.5 -33 t-42.5 -90zM117 393q0 -35 24.5 -56.5t61.5 -21.5q47 0 79.5 30t32.5 73q0 70 -88 69q-51 0 -80.5 -27.5t-29.5 -66.5z" glyph-name="eight.dnom" horiz-adv-x="473"/><glyph d="M180 -10q-80 0 -115.5 44t-29.5 99h57q4 -86 98 -86q131 0 168 213q-20 -31 -63 -54.5t-96 -23.5q-70 0 -114 43t-32 129q14 92 75.5 139.5t139.5 47.5q88 0 133 -64.5t23 -202.5q-20 -127 -81 -205.5t-163 -78.5zM119 352q-8 -57 20.5 -88t79.5 -31q53 0 94 32t49 85 q10 59 -19.5 95t-86.5 36q-117 0 -137 -129z" glyph-name="nine.dnom" horiz-adv-x="546"/><glyph d="M346 897q-96 0 -143 70.5t-31 187.5l4 27q16 115 87 186.5t167 71.5q98 0 145.5 -72t30.5 -186l-4 -27q-16 -115 -87 -186.5t-169 -71.5zM238 1155q-14 -92 18.5 -144.5t97.5 -52.5q68 0 118 52.5t65 144.5l4 27q14 92 -19 144t-100 52q-66 0 -116 -52t-64 -144z" glyph-name="zero.numr" horiz-adv-x="575"/><glyph d="M319 1343q-35 -51 -114 -45l8 62q35 -2 69.5 20.5t51.5 53.5h63l-84 -535h-63z" glyph-name="one.numr" horiz-adv-x="346"/><glyph d="M145 924q8 74 52.5 128t138.5 107q6 4 22.5 13.5t21.5 12.5t18.5 10t18.5 11t14 11.5t13.5 11.5t10.5 12t9 15.5t6 15.5t5 18q6 41 -18.5 66.5t-69.5 25.5q-100 0 -119 -104l-2 -12h-65l2 12q10 76 61 121t131 45t118 -42t28 -108q-10 -61 -53.5 -101t-127.5 -85 q-131 -74 -135 -139v-6h271l-11 -62h-342z" glyph-name="two.numr" horiz-adv-x="518"/><glyph d="M334 893q-92 0 -135 47t-31 127h63q-14 -117 113 -117q123 0 141 103q8 49 -25.5 75.5t-97.5 26.5h-22l8 51h23q55 0 90 25.5t41 64.5q6 41 -18.5 65.5t-73.5 24.5q-113 0 -127 -110h-64q10 80 63.5 124t133.5 44t118.5 -41t28.5 -103q-14 -90 -112 -114q45 -8 75.5 -43 t20.5 -94q-10 -68 -66.5 -112t-146.5 -44z" glyph-name="three.numr" horiz-adv-x="546"/><glyph d="M385 901l21 135h-244l10 54l297 346h66l-56 -346h62l-9 -54h-61l-20 -135h-66zM233 1090h183l41 260z" glyph-name="four.numr" horiz-adv-x="534"/><glyph d="M303 891q-84 0 -126 48t-32 126h60q-4 -49 22.5 -83t83.5 -34q59 0 99.5 35t48.5 96q10 66 -21.5 96.5t-83.5 30.5q-68 0 -121 -57h-63l90 287h275l-9 -60h-225l-55 -172q12 18 50 34.5t83 16.5q74 0 115 -47t28.5 -133t-72 -135t-147.5 -49z" glyph-name="five.numr" horiz-adv-x="497"/><glyph d="M338 889q-88 0 -134 64.5t-24 201.5q20 127 81 206t163 79q82 0 116.5 -43t30.5 -101h-59q0 86 -98 86q-127 0 -168 -213q20 31 64 54.5t98 23.5q70 0 113.5 -43t31.5 -129q-16 -92 -76.5 -139t-138.5 -47zM244 1079q-10 -57 19.5 -94t86.5 -37q115 0 135 129 q10 59 -18.5 89t-81.5 30t-93 -32t-48 -85z" glyph-name="six.numr" horiz-adv-x="546"/><glyph d="M180 901l289 475h-293l8 60h359l-8 -60l-287 -475h-68z" glyph-name="seven.numr" horiz-adv-x="460"/><glyph d="M299 897q-74 0 -120 37t-46 100q0 113 119 160q-49 39 -49 96q0 59 48 104.5t128 45.5q68 0 102.5 -33t34.5 -80q0 -84 -86 -133q78 -39 78 -119q0 -78 -61.5 -128t-147.5 -50zM193 1040q0 -41 31.5 -65.5t82.5 -24.5q59 0 99 33t40 88q0 92 -110 92q-59 0 -101 -33 t-42 -90zM260 1294q0 -35 24.5 -56t61.5 -21q47 0 80 29.5t33 72.5q0 70 -88 70q-51 0 -81 -28t-30 -67z" glyph-name="eight.numr" horiz-adv-x="473"/><glyph d="M324 891q-80 0 -116 44t-30 99h58q4 -86 98 -86q131 0 168 213q-20 -31 -63.5 -54.5t-96.5 -23.5q-70 0 -114 43t-31 129q14 92 75.5 139.5t139.5 47.5q88 0 133 -64.5t22 -201.5q-20 -127 -80.5 -206t-162.5 -79zM262 1253q-8 -57 20.5 -87.5t79.5 -30.5q53 0 94.5 31.5 t49.5 84.5q10 59 -19.5 95t-87.5 36q-117 0 -137 -129z" glyph-name="nine.numr" horiz-adv-x="546"/><glyph d="M18 0l31 190h176l-28 -190h-179z" glyph-name="period.aalt" horiz-adv-x="382"/><glyph d="M395.5 1202q-145.5 0 -206 73t-44.5 183h103q-14 -164 160 -164q176 0 204 164h103q-18 -113 -96 -184.5t-223.5 -71.5zM362 1524l248 266h133l-247 -266h-134z" glyph-name="uni0306_acutecomb.ccmp" horiz-adv-x="0"/><glyph d="M395.5 1202q-145.5 0 -206 73t-44.5 183h103q-14 -164 160 -164q176 0 204 164h103q-18 -113 -96 -184.5t-223.5 -71.5zM203 1790h129l168 -266h-129z" glyph-name="uni0306_gravecomb.ccmp" horiz-adv-x="0"/><glyph d="M395.5 1202q-145.5 0 -206 73t-44.5 183h103q-14 -164 160 -164q176 0 204 164h103q-18 -113 -96 -184.5t-223.5 -71.5zM199 1638q0 86 55 133.5t133 47.5q80 0 137.5 -51.5t57.5 -141.5q0 -84 -53.5 -135t-127.5 -57l-39 69q59 2 94.5 32t35.5 85q0 53 -30 83t-77 30 q-43 0 -71.5 -25t-30.5 -70h-84z" glyph-name="uni0306_hookabovecomb.ccmp" horiz-adv-x="0"/><glyph d="M395.5 1202q-145.5 0 -206 73t-44.5 183h103q-14 -164 160 -164q176 0 204 164h103q-18 -113 -96 -184.5t-223.5 -71.5zM133 1620q14 94 66.5 142t128.5 48q49 0 89 -22.5t60.5 -48t51 -48t65.5 -22.5q45 0 71.5 28.5t30.5 65.5h97q-14 -92 -65.5 -141t-127.5 -49 q-49 0 -89 22.5t-60.5 48t-52 48t-66.5 22.5q-43 0 -69.5 -28.5t-33.5 -65.5h-96z" glyph-name="uni0306_tildecomb.ccmp" horiz-adv-x="0"/><glyph d="M104 1196l248 262h203l166 -262h-139l-133 213l-199 -213h-146zM651 1393l248 266h133l-248 -266h-133z" glyph-name="uni0302_acutecomb.ccmp" horiz-adv-x="0"/><glyph d="M688 1391l-151 268h131l149 -268h-129zM104 1196l248 262h203l166 -262h-139l-133 213l-199 -213h-146z" glyph-name="uni0302_gravecomb.ccmp" horiz-adv-x="0"/><glyph d="M104 1196l248 262h203l166 -262h-139l-133 213l-199 -213h-146zM498 1640q0 86 55 133.5t133 47.5q80 0 137.5 -51.5t57.5 -141.5q0 -84 -53.5 -135t-127.5 -57l-38 69q59 2 94 32t35 85q0 53 -30 83t-77 30q-43 0 -71.5 -24.5t-30.5 -70.5h-84z" glyph-name="uni0302_hookabovecomb.ccmp" horiz-adv-x="0"/><glyph d="M104 1196l248 262h203l166 -262h-139l-133 213l-199 -213h-146zM158 1610q14 94 66 142t128 48q63 0 107.5 -35.5t80 -70.5t78.5 -35q45 0 72 28.5t31 65.5h96q-14 -92 -65.5 -141t-126.5 -49q-63 0 -107.5 35.5t-81.5 70.5t-80 35t-69.5 -28.5t-32.5 -65.5h-96z" glyph-name="uni0302_tildecomb.ccmp" horiz-adv-x="0"/><glyph d="M395.5 1202q-145.5 0 -206 73t-44.5 183h103q-14 -164 160 -164q176 0 204 164h103q-18 -113 -96 -184.5t-223.5 -71.5z" glyph-name="glyph657" horiz-adv-x="0"/><glyph d="M147 946l78 488h137l-75 -488h-140z" glyph-name="glyph658" horiz-adv-x="0"/><glyph d="M-37 0l780 1434h183l323 -1434h-155l-80 371h-690l-199 -371h-162zM387 487h600l-170 783h-10zM752 1561l247 266h134l-248 -266h-133z" glyph-name="glyph659" horiz-adv-x="1380"/><glyph d="M592 631l18 125h539q4 57 4 84q0 238 -112.5 359.5t-307.5 121.5q-156 0 -267.5 -77t-172.5 -220h-148q70 211 228.5 319.5t376.5 108.5q256 0 404.5 -151.5t148.5 -446.5q0 -362 -206 -618t-552 -256q-221 0 -356.5 110.5t-139.5 315.5h141q16 -143 112.5 -219 t252.5 -76q223 0 372.5 146t202.5 374h-538zM696 1561l248 266h133l-248 -266h-133z" glyph-name="glyph660" horiz-adv-x="1355"/><glyph d="M860 0l88 561h-346l-450 -561h-168l465 571q-303 55 -304 359q0 229 158 366.5t418 137.5h516l-227 -1434h-150zM299 952q0 -256 311 -256h361l94 604h-360q-190 0 -298 -95t-108 -253zM666 1561l247 266h134l-248 -266h-133z" glyph-name="glyph661" horiz-adv-x="1212"/><glyph d="M35 0l227 1434h903l-22 -134h-752l-80 -501h690l-18 -123h-690l-86 -543h772l-21 -133h-923zM629 1561l248 266h133l-248 -266h-133z" glyph-name="glyph662" horiz-adv-x="1110"/><glyph d="M35 0l227 1434h152l-193 -1207h6l973 1207h170l-227 -1434h-150l191 1202h-4l-969 -1202h-176zM733 1561l248 266h133l-248 -266h-133z" glyph-name="glyph663" horiz-adv-x="1347"/></font>
</defs>
</svg>
