<?xml version="1.0" standalone="no"?>
<!DOCTYPE svg PUBLIC "-//W3C//DTD SVG 1.1//EN" "http://www.w3.org/Graphics/SVG/1.1/DTD/svg11.dtd">
<svg xmlns="http://www.w3.org/2000/svg"><metadata>This SVG WebFont was generated by YouWorkForThem.
</metadata><defs><font horiz-adv-x="1153" id="ywftsvg"><font-face ascent="1638" bbox="-367 -743 2212 2241" cap-height="1434" descent="-410" font-family="" font-stretch="normal" font-weight="800" panose-1="0 0 0 0 0 0 0 0 0 0" underline-position="0" underline-thickness="0" unicode-range="U+0020-A78C" units-per-em="2048" x-height="1065"/><missing-glyph d="M104 0v1434h1250v-1434h-1250zM211 106h1036v1221h-1036v-1221zM285 184l387 539l-379 526h119l315 -446l315 446h117l-377 -526l385 -539h-118l-322 461l-324 -461h-118z" horiz-adv-x="1456"/><glyph d="M104 0v1434h1250v-1434h-1250zM211 106h1036v1221h-1036v-1221zM285 184l387 539l-379 526h119l315 -446l315 446h117l-377 -526l385 -539h-118l-322 461l-324 -461h-118z" glyph-name=".notdef" horiz-adv-x="1456"/><glyph glyph-name="glyph1" horiz-adv-x="0"/><glyph glyph-name="glyph2" horiz-adv-x="681"/><glyph glyph-name="space" horiz-adv-x="471" unicode=" "/><glyph d="M176 522l-43 912h340l-45 -912h-252zM104 174q0 82 57.5 138.5t141.5 56.5q82 0 140.5 -56.5t58.5 -138.5t-58.5 -138t-140.5 -56q-84 0 -141.5 56t-57.5 138z" glyph-name="exclam" horiz-adv-x="604" unicode="!"/><glyph d="M616 805v629h322v-629h-322zM82 805v629h321v-629h-321z" glyph-name="quotedbl" horiz-adv-x="1019" unicode="&quot;"/><glyph d="M666 0l34 340h-247l-35 -340h-201l35 340h-168v205h188l35 346h-170v203h189l34 340h201l-35 -340h248l35 340h201l-35 -340h166v-203h-185l-34 -346h165v-205h-186l-35 -340h-200zM473 545h248l33 346h-246z" glyph-name="numbersign" horiz-adv-x="1224" unicode="#"/><glyph d="M592 -184v166q-242 16 -379 145t-137 356h342q10 -180 174 -213v330l-74 14q-406 78 -405 410q0 195 129 303.5t350 122.5v168h131v-168q223 -14 350 -129t127 -326h-342q6 135 -135 164v-297l51 -10q252 -51 357.5 -153.5t105.5 -270.5q0 -213 -142.5 -323.5 t-371.5 -122.5v-166h-131zM459 1024q0 -102 133 -135v274q-133 -24 -133 -139zM723 268q78 10 121 51t43 107q0 59 -39 93t-125 52v-303z" glyph-name="dollar" horiz-adv-x="1308" unicode="$"/><glyph d="M272 215l-137 188l1133 822l137 -189zM74 1126q0 160 88 247t221 87q135 0 223 -87t88 -247q0 -168 -87 -254t-224 -86q-133 0 -221 86t-88 254zM309 1126q0 -119 74 -118q76 0 76 118q0 63 -23.5 88t-52.5 25q-74 0 -74 -113zM848 322q0 158 89 244.5t222 86.5t222 -87 t89 -244q0 -168 -88 -254t-223 -86t-223 86t-88 254zM1083 322q0 -68 23.5 -94.5t52.5 -26.5t51.5 26.5t22.5 94.5q0 113 -74 112q-29 0 -52.5 -24.5t-23.5 -87.5z" glyph-name="percent" horiz-adv-x="1542" unicode="%"/><glyph d="M618 -20q-238 0 -391 119.5t-153 312.5q0 141 73.5 233t202.5 164q-129 166 -129 301q0 141 105.5 241.5t312.5 100.5q199 0 304.5 -98.5t105.5 -243.5q0 -113 -69 -209t-198 -160l211 -227q49 115 49 256h295q0 -287 -131 -487l260 -283h-372l-84 90 q-175 -110 -392 -110zM422 442q0 -78 62.5 -134t164.5 -56q86 0 164 47l-293 315q-98 -70 -98 -172zM512 1114q0 -59 94 -176q147 82 148 172q0 49 -35 81t-86 32q-55 0 -88 -32t-33 -77z" glyph-name="ampersand" horiz-adv-x="1507" unicode="&amp;"/><glyph d="M82 805v629h321v-629h-321z" glyph-name="quotesingle" horiz-adv-x="485" unicode="'"/><glyph d="M309 -266q-217 387 -217 921q0 508 217 871h326q-207 -375 -207 -871q0 -524 207 -921h-326z" glyph-name="parenleft" horiz-adv-x="727" unicode="("/><glyph d="M92 -266q207 397 207 921q0 496 -207 871h326q217 -362 217 -871q0 -535 -217 -921h-326z" glyph-name="parenright" horiz-adv-x="727" unicode=")"/><glyph d="M401 582l-190 127l166 231l-262 68l55 219l276 -76l-2 283h234l-4 -283l278 76l56 -219l-269 -68l168 -231l-190 -127l-158 231z" glyph-name="asterisk" horiz-adv-x="1122" unicode="*"/><glyph d="M481 55v379h-377v289h377v375h310v-375h378v-289h-378v-379h-310z" glyph-name="plus" horiz-adv-x="1271" unicode="+"/><glyph d="M133 -145q94 2 133 32.5t39 100.5q-109 2 -170 57t-61 139q0 82 55 133.5t141 51.5q98 0 160 -71t62 -214q0 -170 -90.5 -266.5t-243.5 -96.5h-25v134z" glyph-name="comma" horiz-adv-x="563" unicode=","/><glyph d="M82 438v250h649v-250h-649z" glyph-name="hyphen" horiz-adv-x="813" unicode="-"/><glyph d="M272 -20q-84 0 -141 56t-57 138t57 138.5t141 56.5q82 0 140.5 -56.5t58.5 -138.5t-58.5 -138t-140.5 -56z" glyph-name="period" horiz-adv-x="542" unicode="."/><glyph d="M61 4l560 1430h337l-559 -1430h-338z" glyph-name="slash" horiz-adv-x="1019" unicode="/"/><glyph d="M655 -20q-109 0 -207 37.5t-185 118.5t-138 230.5t-51 350.5q0 162 34.5 290t91 209.5t133.5 136t156.5 77t165.5 22.5q111 0 208.5 -38t184.5 -119t138 -229t51 -349t-51 -350.5t-138 -230.5t-184.5 -118.5t-208.5 -37.5zM393 717q0 -457 262 -457q260 0 260 457 q0 455 -260 454q-262 1 -262 -454z" glyph-name="zero" horiz-adv-x="1308" unicode="0"/><glyph d="M397 1028q-100 -102 -323 -102v274q131 16 208.5 68.5t114.5 165.5h336v-1434h-336v1028z" glyph-name="one" horiz-adv-x="878" unicode="1"/><glyph d="M82 72q0 211 77 354t294 268q25 14 87 48t82.5 47.5t61.5 43t56.5 50t29.5 53.5t14 70q2 92 -51 126.5t-125 34.5q-78 0 -130 -47t-52 -151v-29h-324v43q0 207 125 338t385 131q246 0 377 -115.5t131 -308.5q0 -53 -8 -100t-31.5 -88t-40 -71t-57.5 -64.5t-58.5 -51 t-68.5 -46t-62.5 -37t-64.5 -35.5q-147 -84 -204.5 -140.5t-57.5 -111.5v-7h645v-276h-1030v72z" glyph-name="two" horiz-adv-x="1204" unicode="2"/><glyph d="M600 -20q-274 0 -406.5 137t-130.5 379h316q2 -127 68.5 -180.5t164.5 -53.5q90 0 156 43t66 133q0 178 -244 178h-90v240h75q215 0 216 156q0 78 -51.5 115.5t-123.5 37.5q-80 0 -136 -47t-58 -160h-313q0 231 131 362.5t383 131.5q225 0 360 -103.5t135 -277.5 q0 -137 -73.5 -217t-159.5 -96q37 -2 82 -21.5t94 -55.5t81 -105.5t32 -157.5q0 -193 -155 -315.5t-419 -122.5z" glyph-name="three" horiz-adv-x="1234" unicode="3"/><glyph d="M672 0v324h-609v268l609 842h336v-842h163v-268h-163v-324h-336zM354 592h318v440z" glyph-name="four" horiz-adv-x="1232" unicode="4"/><glyph d="M623 -20q-256 0 -399.5 134t-139.5 351h303q4 -113 74.5 -164t150.5 -51q35 0 71 10t75 33.5t62.5 76t23.5 126.5q0 76 -23.5 128t-63.5 75.5t-73 32.5t-68 9q-70 0 -129 -33.5t-79 -89.5h-308l121 816h819v-267h-589l-37 -274q10 14 34.5 32.5t97 44t161.5 25.5 q207 0 339 -136t132 -363q0 -246 -150.5 -381t-404.5 -135z" glyph-name="five" horiz-adv-x="1230" unicode="5"/><glyph d="M647 -20q-115 0 -211 38.5t-178 122.5t-128 232.5t-46 351.5q0 338 144.5 532.5t435.5 194.5q127 0 226 -39t155.5 -103.5t84 -137t25.5 -148.5h-295q-27 164 -205 164q-80 0 -136 -39t-80.5 -101.5t-34 -118t-9.5 -110.5q139 131 318 131q80 0 156.5 -23.5t151.5 -75.5 t120 -150.5t45 -229.5q0 -141 -53.5 -243.5t-140.5 -152.5t-172 -72.5t-173 -22.5zM426 475q0 -121 69.5 -173t149.5 -52q82 0 151.5 53t69.5 172t-69.5 171t-153.5 52q-80 0 -148.5 -52t-68.5 -171z" glyph-name="six" horiz-adv-x="1259" unicode="6"/><glyph d="M221 0q41 539 453 1159h-613v275h932v-275q-420 -618 -458 -1159h-314z" glyph-name="seven" horiz-adv-x="1064" unicode="7"/><glyph d="M594 -20q-233 0 -382 115.5t-149 320.5q0 262 242 368q-170 98 -170 299q0 160 123 264.5t336 104.5q211 0 334 -104.5t123 -264.5q0 -201 -170 -299q244 -106 243 -368q0 -205 -149.5 -320.5t-380.5 -115.5zM383 455q0 -80 52 -137.5t159 -57.5q104 0 156.5 57.5 t52.5 137.5q0 78 -53.5 136t-155.5 58t-156.5 -58t-54.5 -136zM430 1051q0 -61 42 -106.5t122 -45.5q78 0 120 45t42 107q0 66 -43 105.5t-119 39.5q-78 0 -121 -39.5t-43 -105.5z" glyph-name="eight" horiz-adv-x="1185" unicode="8"/><glyph d="M612 1450q115 0 211.5 -39t178 -123t128 -232.5t46.5 -350.5q0 -338 -144.5 -533t-435.5 -195q-127 0 -226.5 39t-155.5 103.5t-84 137.5t-26 149h295q27 -164 205 -164q80 0 136.5 38.5t81 101t33.5 118t9 110.5q-139 -131 -317 -131q-80 0 -157 23.5t-151.5 76 t-119.5 150.5t-45 229q0 141 53 244t140 153t172 72.5t173 22.5zM393 954.5q0 -118.5 69.5 -171t153.5 -52.5q80 0 149 52.5t69 170.5q0 121 -69 173.5t-151 52.5t-151.5 -53.5t-69.5 -172z" glyph-name="nine" horiz-adv-x="1259" unicode="9"/><glyph d="M272 -20q-84 0 -141 56t-57 138t57 138.5t141 56.5q82 0 140.5 -56.5t58.5 -138.5t-58.5 -138t-140.5 -56zM74 870q0 82 57 138.5t141 56.5q82 0 140.5 -56.5t58.5 -138.5t-58.5 -138t-140.5 -56q-84 0 -141 56t-57 138z" glyph-name="colon" horiz-adv-x="542" unicode=":"/><glyph d="M272 676q-84 0 -141 56t-57 138t57 138.5t141 56.5q82 0 140.5 -56.5t58.5 -138.5t-58.5 -138t-140.5 -56zM74 184q0 82 55 133.5t141 51.5q98 0 160 -71t62 -214q0 -170 -90.5 -266.5t-243.5 -96.5h-25v134q94 2 133 32.5t39 100.5q-109 2 -170 57t-61 139z" glyph-name="semicolon" horiz-adv-x="563" unicode=";"/><glyph d="M946 0l-854 354v283l854 352v-309l-549 -184l549 -187v-309z" glyph-name="less" horiz-adv-x="1038" unicode="&lt;"/><glyph d="M104 274v250h703v-250h-703zM104 602v250h703v-250h-703z" glyph-name="equal" horiz-adv-x="909" unicode="="/><glyph d="M92 0v309l549 187l-549 184v309l854 -352v-283z" glyph-name="greater" horiz-adv-x="1038" unicode=">"/><glyph d="M449 530q0 94 31.5 167t76.5 114t89 74t76 67.5t32 75.5q0 31 -9.5 57.5t-44 51t-92.5 24.5q-180 0 -180 -217h-336q-2 135 39 236.5t116 158t165 83t196 26.5q215 0 348.5 -110.5t133.5 -309.5q0 -82 -29 -141.5t-70 -93t-83 -66.5t-70.5 -81t-28.5 -116v-45h-360v45z M422 174q0 82 57.5 138.5t141.5 56.5q82 0 140 -56.5t58 -138.5t-58.5 -138t-139.5 -56q-84 0 -141.5 56t-57.5 138z" glyph-name="question" horiz-adv-x="1181" unicode="?"/><glyph d="M821 -20q-319 0 -533 196.5t-214 536.5q0 338 216 538.5t531 200.5q313 0 514 -187.5t201 -490.5q0 -203 -87 -302t-220 -99q-100 0 -159.5 48t-76.5 107q-6 -53 -68.5 -106t-160.5 -53q-119 0 -209 87t-90 244q0 162 86 254.5t209 92.5q86 0 150.5 -41t76.5 -101l17 123 h143v-326q0 -168 84 -167q63 0 91 69.5t28 167.5q0 225 -140.5 363.5t-390.5 138.5q-248 0 -404.5 -148.5t-156.5 -408.5t158.5 -409.5t425.5 -149.5q127 0 227 35v-177q-123 -36 -248 -36zM651 705q0 -35 9.5 -69t43 -65.5t87.5 -31.5q76 0 108.5 51t32.5 114.5t-33 116.5 t-108 53q-78 0 -109 -55t-31 -114z" glyph-name="at" horiz-adv-x="1609" unicode="@"/><glyph d="M33 0l510 1434h444l512 -1434h-362l-82 244h-580l-82 -244h-360zM559 498h412l-195 587h-20z" glyph-name="A" horiz-adv-x="1529" unicode="A"/><glyph d="M104 0v1434h594q238 0 357 -95.5t119 -265.5q0 -217 -205 -285q305 -82 305 -364q0 -186 -136.5 -305t-410.5 -119h-623zM446 289h269q203 0 203 174q0 180 -203 180h-269v-354zM446 858h240q59 0 100 36t41 112q0 74 -41 106.5t-100 32.5h-240v-287z" glyph-name="B" horiz-adv-x="1325" unicode="B"/><glyph d="M754 -20q-315 0 -497.5 196.5t-182.5 540.5q0 342 183 538.5t501 196.5q254 0 421 -134t185 -403h-336q-53 240 -280 240q-168 0 -245 -122t-77 -316.5t76 -317.5t246 -123q227 0 280 242h336q-18 -270 -185 -404t-425 -134z" glyph-name="C" horiz-adv-x="1425" unicode="C"/><glyph d="M104 0v1434h564q332 0 505 -184.5t173 -532.5t-173.5 -532.5t-504.5 -184.5h-564zM446 299h187q203 0 281.5 95t78.5 322.5t-78.5 323t-281.5 95.5h-187v-836z" glyph-name="D" horiz-adv-x="1419" unicode="D"/><glyph d="M104 0v1434h998v-299h-656v-279h594v-266h-594v-291h676v-299h-1018z" glyph-name="E" horiz-adv-x="1173" unicode="E"/><glyph d="M104 0v1434h957v-299h-615v-291h510v-277h-510v-567h-342z" glyph-name="F" horiz-adv-x="1122" unicode="F"/><glyph d="M750 -20q-328 0 -502 194.5t-174 534.5q0 348 180 545.5t487 197.5q246 0 420 -125t203 -371h-342q-45 199 -281 199q-319 0 -319 -434q0 -197 75.5 -321t250.5 -124q115 0 202.5 57.5t89.5 192.5h-252v279h596v-164q0 -324 -166.5 -492.5t-467.5 -168.5z" glyph-name="G" horiz-adv-x="1468" unicode="G"/><glyph d="M956 0v578h-510v-578h-342v1434h342v-572h510v572h344v-1434h-344z" glyph-name="H" horiz-adv-x="1402" unicode="H"/><glyph d="M104 0v1434h342v-1434h-342z" glyph-name="I" horiz-adv-x="550" unicode="I"/><glyph d="M698.5 -20q-272.5 0 -433.5 143t-161 426h347q0 -135 65.5 -202.5t183.5 -67.5q250 0 250 292v863h344v-891q0 -279 -161.5 -421t-434 -142z" glyph-name="J" horiz-adv-x="1398" unicode="J"/><glyph d="M104 0v1434h342v-646l535 646h403l-536 -635l594 -799h-395l-410 551l-191 -225v-326h-342z" glyph-name="K" horiz-adv-x="1472" unicode="K"/><glyph d="M104 0v1434h342v-1135h641v-299h-983z" glyph-name="L" horiz-adv-x="1138" unicode="L"/><glyph d="M104 0v1434h435l335 -963l336 963h437v-1434h-344v844h-13l-289 -844h-253l-289 844h-13v-844h-342z" glyph-name="M" horiz-adv-x="1748" unicode="M"/><glyph d="M104 0v1434h355l528 -879h8v879h344v-1434h-368l-516 856h-9v-856h-342z" glyph-name="N" horiz-adv-x="1441" unicode="N"/><glyph d="M766 -20q-315 0 -503.5 205.5t-188.5 531.5q0 328 188.5 531.5t503.5 203.5t504.5 -204t189.5 -531q0 -326 -189.5 -531.5t-504.5 -205.5zM428 717q0 -199 87 -320t251 -121t251 121t87 320q0 201 -87 319.5t-251 118.5t-251 -118.5t-87 -319.5z" glyph-name="O" horiz-adv-x="1531" unicode="O"/><glyph d="M104 0v1434h594q283 0 421 -132.5t138 -355.5t-138 -356t-421 -133h-252v-457h-342zM446 756h240q217 0 217 190q0 88 -53 138.5t-164 50.5h-240v-379z" glyph-name="P" horiz-adv-x="1310" unicode="P"/><glyph d="M1243 -51l-119 121q-158 -90 -358 -90q-315 0 -503.5 205.5t-188.5 531.5q0 328 188.5 531.5t503.5 203.5t504.5 -204t189.5 -531q0 -266 -127 -453l119 -121zM428 717q0 -199 87 -320t251 -121q74 0 129 25l-172 174l209 195l145 -148q27 82 27 195q0 201 -87 319.5 t-251 118.5t-251 -118.5t-87 -319.5z" glyph-name="Q" horiz-adv-x="1531" unicode="Q"/><glyph d="M932 0l-258 457h-228v-457h-342v1434h594q283 0 421 -132.5t138 -355.5q0 -332 -278 -442l293 -504h-340zM446 756h240q217 0 217 190q0 88 -53 138.5t-164 50.5h-240v-379z" glyph-name="R" horiz-adv-x="1325" unicode="R"/><glyph d="M684 -20q-285 0 -447.5 130t-162.5 373h356q4 -98 65.5 -158.5t190.5 -60.5q109 0 170.5 42t61.5 120q0 61 -42 95t-137 52l-204 41q-190 35 -306 129.5t-116 280.5q0 209 154.5 318.5t412.5 109.5q262 0 413.5 -115.5t151.5 -341.5h-356q4 88 -57.5 130t-159.5 42 q-102 0 -150.5 -42t-48.5 -101q0 -106 143 -135l185 -37q262 -51 371.5 -153.5t109.5 -270.5q0 -154 -84 -257t-214 -147t-300 -44z" glyph-name="S" horiz-adv-x="1355" unicode="S"/><glyph d="M449 0v1128h-406v306h1157v-306h-407v-1128h-344z" glyph-name="T" horiz-adv-x="1241" unicode="T"/><glyph d="M707 -20q-279 0 -441 142t-162 423v889h347v-863q0 -143 67.5 -217.5t188 -74.5t186 74.5t65.5 217.5v863h349v-889q0 -281 -163 -423t-437 -142z" glyph-name="U" horiz-adv-x="1411" unicode="U"/><glyph d="M553 0l-510 1434h360l363 -1086h20l361 1086h362l-512 -1434h-444z" glyph-name="V" horiz-adv-x="1550" unicode="V"/><glyph d="M412 0l-369 1434h352l211 -949h12l256 949h353l256 -949h12l211 949h354l-370 -1434h-357l-282 1001l-283 -1001h-356z" glyph-name="W" horiz-adv-x="2101" unicode="W"/><glyph d="M989 0l-284 440l-287 -440h-385l479 737l-453 697h385l261 -400l258 400h385l-451 -697l479 -737h-387z" glyph-name="X" horiz-adv-x="1406" unicode="X"/><glyph d="M559 0v518l-516 916h391l303 -582l303 582h392l-519 -916v-518h-354z" glyph-name="Y" horiz-adv-x="1472" unicode="Y"/><glyph d="M82 0v299l725 836h-713v299h1094l2 -299l-731 -836h737v-299h-1114z" glyph-name="Z" horiz-adv-x="1277" unicode="Z"/><glyph d="M104 -266v1792h482v-287h-146v-1219h146v-286h-482z" glyph-name="bracketleft" horiz-adv-x="688" unicode="["/><glyph d="M958 4h-337l-560 1430h338z" glyph-name="backslash" horiz-adv-x="1019" unicode="\"/><glyph d="M584 -266h-482v286h146v1219h-146v287h482v-1792z" glyph-name="bracketright" horiz-adv-x="688" unicode="]"/><glyph d="M92 952l330 482h201l325 -482h-297l-131 209l-131 -209h-297z" glyph-name="asciicircum" horiz-adv-x="1040" unicode="^"/><glyph d="M92 -287v287h1024v-287h-1024z" glyph-name="underscore" horiz-adv-x="1208" unicode="_"/><glyph d="M219 1188l-219 289h289l219 -289h-289z" glyph-name="grave" horiz-adv-x="507" unicode="`"/><glyph d="M393 -20q-141 0 -240.5 74.5t-99.5 230.5q0 88 33 149.5t97.5 95t117.5 48t137 26.5l160 25q74 12 98.5 28.5t24.5 65.5v2q0 121 -139 121q-160 0 -160 -125v-19l-313 -4v56q0 332 481 331q242 0 351.5 -86t109.5 -258v-741h-322v184h-14q-8 -27 -26.5 -55.5t-54.5 -65 t-98.5 -60t-142.5 -23.5zM389 315q0 -98 123 -98q86 0 147.5 47t61.5 109v100q-14 -16 -103 -35l-133 -24q-96 -23 -96 -99z" glyph-name="a" unicode="a"/><glyph d="M735 -20q-111 0 -191.5 49t-103.5 114v-143h-336v1434h336v-512q23 66 104 114.5t191 48.5q184 0 323.5 -140t139.5 -413q0 -274 -139.5 -413t-323.5 -139zM426 532.5q0 -133.5 65.5 -204t159.5 -70.5q96 0 164 70.5t68 204t-67.5 204t-164.5 70.5q-94 0 -159.5 -70.5 t-65.5 -204z" glyph-name="b" horiz-adv-x="1249" unicode="b"/><glyph d="M596 -20q-102 0 -195.5 30.5t-173.5 93t-127 172t-47 255t47 256t127 174t173.5 94t195.5 30.5q80 0 151.5 -18t148.5 -62t129 -138.5t67 -227.5h-306q-33 166 -192 166q-115 0 -170 -77t-55 -197.5t55 -195.5t170 -75q160 0 192 168h306q-8 -106 -45 -189t-87.5 -130.5 t-117 -78t-125 -40.5t-121.5 -10z" glyph-name="c" unicode="c"/><glyph d="M514 -20q-184 0 -323.5 139t-139.5 413q0 272 139.5 412.5t323.5 140.5q111 0 191.5 -49t103.5 -114v512h336v-1434h-336v143q-23 -66 -103.5 -114.5t-191.5 -48.5zM367 532.5q0 -133.5 67.5 -204t163.5 -70.5q94 0 159.5 70.5t65.5 204t-65.5 204t-159.5 70.5 q-96 0 -163.5 -70.5t-67.5 -204z" glyph-name="d" horiz-adv-x="1249" unicode="d"/><glyph d="M596 -20q-104 0 -197.5 29.5t-172.5 92t-126 174t-47 261.5q0 279 153.5 413.5t389.5 134.5q229 0 372.5 -131t143.5 -422q0 -47 -6 -83h-735q25 -215 231 -216q168 0 201 127h295q-37 -182 -170 -281t-332 -99zM373 643h422q-6 80 -53.5 134t-153.5 54q-184 0 -215 -188 z" glyph-name="e" horiz-adv-x="1163" unicode="e"/><glyph d="M184 1116q0 350 371 350h172v-254h-92q-115 0 -115 -131v-16h201v-258h-201v-807h-336v807h-151v258h151v51z" glyph-name="f" horiz-adv-x="778" unicode="f"/><glyph d="M498 29q-82 0 -158 28.5t-142.5 88t-105.5 165t-39 246.5q0 139 40 245.5t106.5 166t141.5 88t157 28.5q197 0 297 -133v113h335v-1020q0 -117 -38.5 -205t-96 -137t-136.5 -81t-146.5 -41t-139.5 -9q-63 0 -121.5 6t-130 29.5t-124 62.5t-89 111t-36.5 166h297 q4 -63 63.5 -90t130.5 -27q102 0 167 53.5t65 161.5v117q-100 -133 -297 -133zM369 557q0 -121 63.5 -185.5t159.5 -64.5q94 0 155.5 64.5t61.5 185.5t-61.5 185.5t-155.5 64.5q-96 0 -159.5 -64.5t-63.5 -185.5z" glyph-name="g" horiz-adv-x="1234" unicode="g"/><glyph d="M104 0v1434h336v-594h13q18 94 103 169.5t228 75.5q162 0 263.5 -105.5t101.5 -299.5v-680h-336v598q0 211 -176 211q-86 0 -141.5 -52t-55.5 -159v-598h-336z" glyph-name="h" horiz-adv-x="1253" unicode="h"/><glyph d="M104 0v1065h336v-1065h-336zM90 1347.5q0 75.5 54.5 128t127.5 52.5q72 0 126.5 -52.5t54.5 -128t-54.5 -128t-126.5 -52.5q-74 0 -128 52.5t-54 128z" glyph-name="i" horiz-adv-x="542" unicode="i"/><glyph d="M90 -401q-143 0 -190 6v260h112q113 0 113 133v1067h336v-1116q0 -350 -371 -350zM113 1348q0 78 53 129t127 51t127 -51.5t53 -128.5q0 -76 -53 -128.5t-127 -52.5t-127 52.5t-53 128.5z" glyph-name="j" horiz-adv-x="565" unicode="j"/><glyph d="M104 0v1434h336v-766l348 397h367l-426 -451l481 -614h-368l-318 397l-84 -90v-307h-336z" glyph-name="k" horiz-adv-x="1220" unicode="k"/><glyph d="M104 0v1434h336v-1434h-336z" glyph-name="l" horiz-adv-x="542" unicode="l"/><glyph d="M1421 598q0 211 -155 211q-74 0 -121 -52t-47 -159v-598h-336v598q0 211 -156 211q-72 0 -119 -52t-47 -159v-598h-336v1065h336v-225h13q14 90 98 167.5t207 77.5q113 0 197.5 -62t119.5 -181h2q16 88 106.5 165.5t223.5 77.5q158 0 254 -105.5t96 -299.5v-680h-336v598 z" glyph-name="m" horiz-adv-x="1859" unicode="m"/><glyph d="M813 598q0 211 -176 211q-86 0 -141.5 -52t-55.5 -159v-598h-336v1065h336v-225h13q18 94 103 169.5t228 75.5q162 0 263.5 -105.5t101.5 -299.5v-680h-336v598z" glyph-name="n" horiz-adv-x="1253" unicode="n"/><glyph d="M594 -20q-104 0 -198.5 32.5t-172.5 96t-124 173t-46 251t46 251t124 173t172 96t199 32.5q141 0 260 -54t200 -183t81 -315.5t-81 -315.5t-200 -183t-260 -54zM367 532.5q0 -135.5 62.5 -205t164.5 -69.5t163.5 69.5t61.5 205t-61.5 205t-163.5 69.5t-164.5 -69.5 t-62.5 -205z" glyph-name="o" horiz-adv-x="1185" unicode="o"/><glyph d="M104 -389v1454h336v-143q23 66 104 114.5t191 48.5q184 0 323.5 -140t139.5 -413q0 -274 -139 -413t-324 -139q-111 0 -191.5 49t-103.5 114v-532h-336zM426 532.5q0 -133.5 65.5 -204t159.5 -70.5q96 0 164 70.5t68 204t-67.5 204t-164.5 70.5q-94 0 -159.5 -70.5 t-65.5 -204z" glyph-name="p" horiz-adv-x="1249" unicode="p"/><glyph d="M1145 -389h-336v532q-23 -66 -103.5 -114.5t-191.5 -48.5q-184 0 -323.5 139t-139.5 413q0 272 139.5 412.5t323.5 140.5q111 0 191.5 -49t103.5 -114v143h336v-1454zM367 532.5q0 -133.5 67.5 -204t163.5 -70.5q94 0 159.5 70.5t65.5 204t-65.5 204t-159.5 70.5 q-96 0 -163.5 -70.5t-67.5 -204z" glyph-name="q" horiz-adv-x="1249" unicode="q"/><glyph d="M440 446v-446h-336v1065h336v-264h9q63 272 301 272q41 0 81 -10v-283q-51 6 -86 6q-129 0 -217 -78t-88 -262z" glyph-name="r" horiz-adv-x="862" unicode="r"/><glyph d="M510 -20q-225 0 -347 97t-120 285h299q16 -133 170 -133q141 0 141 88q0 61 -80 74l-194 43q-309 66 -309 318q0 156 122.5 244.5t323.5 88.5q217 0 331 -101t114 -282h-279q-16 133 -162 134q-125 0 -125 -76q0 -72 92 -84l203 -45q309 -66 309 -305q0 -170 -137 -258 t-352 -88z" glyph-name="s" horiz-adv-x="1040" unicode="s"/><glyph d="M592 -14q-377 0 -377 352v467h-182v260h182v278h336v-278h209v-260h-209v-420q0 -63 26.5 -98t102.5 -35q41 0 88 4v-248q-80 -22 -176 -22z" glyph-name="t" horiz-adv-x="808" unicode="t"/><glyph d="M440 467q0 -211 176 -211q86 0 141.5 52t55.5 159v598h336v-1065h-336v225h-12q-18 -94 -103.5 -169.5t-228.5 -75.5q-162 0 -263.5 105t-101.5 300v680h336v-598z" glyph-name="u" horiz-adv-x="1253" unicode="u"/><glyph d="M414 0l-381 1065h340l245 -743h13l243 743h343l-381 -1065h-422z" glyph-name="v" horiz-adv-x="1249" unicode="v"/><glyph d="M309 0l-276 1065h315l166 -741h8l191 741h288l191 -741h8l166 741h317l-278 -1065h-377l-170 618l-170 -618h-379z" glyph-name="w" horiz-adv-x="1714" unicode="w"/><glyph d="M53 0l365 539l-340 526h360l172 -287l170 287h361l-340 -526l366 -539h-360l-197 297l-198 -297h-359z" glyph-name="x" horiz-adv-x="1218" unicode="x"/><glyph d="M139 -131q231 -31 287 92q29 66 -6 148l-387 956h342l227 -637l234 637h344l-430 -1053q-109 -266 -238 -359t-373 -67v283z" glyph-name="y" horiz-adv-x="1210" unicode="y"/><glyph d="M82 0v281l485 503h-465v281h867v-281l-486 -503h486v-281h-887z" glyph-name="z" horiz-adv-x="1050" unicode="z"/><glyph d="M432 -266q-248 0 -248 248v499l-92 146l92 149v502q0 78 24.5 131t66.5 75.5t79 32t78 9.5h232v-287h-72q-72 0 -72 -59v-414l-121 -139l121 -135v-412q0 -59 72 -60h72v-286h-232z" glyph-name="braceleft" horiz-adv-x="755" unicode="{"/><glyph d="M154 -389v2027h286v-2027h-286z" glyph-name="bar" horiz-adv-x="593" unicode="|"/><glyph d="M324 -266h-232v286h72q72 0 72 60v412l120 135l-120 139v414q0 59 -72 59h-72v287h232q41 0 77.5 -9.5t78.5 -32t66.5 -75.5t24.5 -131v-502l93 -149l-93 -146v-499q1 -248 -247 -248z" glyph-name="braceright" horiz-adv-x="755" unicode="}"/><glyph d="M874 373q-72 0 -142 32.5t-116.5 70.5t-102.5 71t-103 33q-45 0 -76 -25t-31 -70h-199q-8 127 70 212t205 85q72 0 143.5 -32.5t117.5 -70.5t102.5 -71t103.5 -33q45 0 75.5 25t30.5 70h201q6 -127 -73 -212t-206 -85z" glyph-name="asciitilde" horiz-adv-x="1255" unicode="~"/><glyph glyph-name="uni00A0" horiz-adv-x="471" unicode=" "/><glyph d="M176 543h252l45 -912h-340zM104 891q0 82 57.5 138t141.5 56q82 0 140.5 -56t58.5 -138t-58.5 -138.5t-140.5 -56.5q-84 0 -141.5 56.5t-57.5 138.5z" glyph-name="exclamdown" horiz-adv-x="604" unicode="¡"/><glyph d="M530 -82v219q-203 18 -340 151.5t-137 385.5t138.5 386t338.5 152v222h113v-220q76 -4 142.5 -25.5t134 -67.5t113.5 -133t59 -208h-306q-27 137 -143 158v-526q117 20 143 161h306q-10 -121 -55.5 -207.5t-113 -134t-135 -69t-145.5 -27.5v-217h-113zM369 674 q0 -219 161 -260v520q-82 -18 -121.5 -89t-39.5 -171z" glyph-name="cent" unicode="¢"/><glyph d="M84 172q195 180 197 334q0 45 -13 82h-184v176h94q-72 121 -72 246q0 199 145.5 318.5t362.5 119.5q209 0 357.5 -113.5t148.5 -312.5v-39h-319v31q0 18 -7.5 38.5t-23.5 47t-56 44t-98 17.5q-104 0 -144 -50t-40 -114q0 -31 11.5 -64.5t20.5 -52t35.5 -62.5t32.5 -54 h216v-176h-150v-21q0 -156 -197 -305q80 29 166 27t156 -17.5t171 -16.5t214 28v-283q-129 -27 -254 -18.5t-217 31t-208 19.5t-224 -52z" glyph-name="sterling" horiz-adv-x="1202" unicode="£"/><glyph d="M621 516q-127 0 -236 64l-74 -74l-213 209l95 94q-31 76 -31 166q0 94 35 176l-99 98l213 209l84 -84q100 59 226 60q127 0 231 -64l88 88l213 -209l-106 -106q33 -82 32 -168q0 -84 -28 -160l102 -100l-213 -209l-78 78q-112 -68 -241 -68zM434 974.5q0 -20.5 6 -45 t22.5 -60t57.5 -58.5t100.5 -23t100.5 23t57.5 57.5t22.5 60t6 46t-6 45t-22.5 59.5t-57.5 58.5t-100.5 23.5t-100.5 -22.5t-57.5 -58.5t-22.5 -60.5t-6 -45z" glyph-name="currency" horiz-adv-x="1251" unicode="¤"/><glyph d="M328 367v163h225l-510 904h391l303 -582l303 582h392l-512 -904h235v-163h-242v-66h242v-162h-242v-139h-354v139h-231v162h231v66h-231z" glyph-name="yen" horiz-adv-x="1472" unicode="¥"/><glyph d="M154 983v655h286v-655h-286zM154 -389v655h286v-655h-286z" glyph-name="brokenbar" horiz-adv-x="593" unicode="¦"/><glyph d="M717 -483q-270 0 -433 123.5t-182 365.5h377q25 -178 242 -178q109 0 171 33t62 94q0 68 -38.5 99.5t-145.5 56.5l-178 41q-104 25 -174 51t-137.5 72.5t-101.5 122t-34 177.5q0 141 84 242q-63 86 -63 225q0 190 155.5 299t405.5 109q244 0 402.5 -110.5t181.5 -331.5 h-375q-16 131 -209 131q-94 0 -139 -32t-45 -77q0 -39 23.5 -67.5t95.5 -47.5l223 -51q254 -61 360.5 -165.5t106.5 -288.5q0 -135 -80 -234q59 -90 59 -225q0 -115 -50 -202t-138 -136t-194.5 -72.5t-231.5 -23.5zM522 563q0 -39 23.5 -66.5t95.5 -47.5l223 -52 q43 -10 101 -28q10 25 10 45q0 68 -40 102.5t-144 61.5l-179 40l-65 17q-25 -31 -25 -72z" glyph-name="section" horiz-adv-x="1454" unicode="§"/><glyph d="M700 1167q-74 0 -128 51.5t-54 125t54.5 126t127.5 52.5q72 0 126.5 -52.5t54.5 -126.5q0 -72 -54.5 -124t-126.5 -52zM0 1343q0 74 54.5 126.5t125.5 52.5q74 0 128 -52.5t54 -126t-54 -125t-128 -51.5q-72 0 -126 52t-54 124z" glyph-name="dieresis" horiz-adv-x="880" unicode="¨"/><glyph d="M805 -14q-307 0 -519 207.5t-212 523.5q0 313 213 521t518 208t518 -208t213 -521q0 -315 -212 -523t-519 -208zM264 717q0 -240 155.5 -393.5t385.5 -153.5q227 0 384 153.5t157 393.5q0 238 -157 391.5t-384 153.5q-229 0 -385 -153.5t-156 -391.5zM422 717 q0 182 114.5 289.5t276.5 107.5q53 0 102.5 -12t102.5 -43t93 -94.5t54 -153.5h-198q-8 55 -52.5 84t-105.5 29q-78 0 -129 -53.5t-51 -154t51 -154.5t129 -54q59 0 104 29.5t58 87.5h196q-14 -90 -54 -154.5t-93 -95.5t-103.5 -44.5t-103.5 -13.5q-162 0 -276.5 109 t-114.5 291z" glyph-name="copyright" horiz-adv-x="1607" unicode="©"/><glyph d="M276 762q-92 0 -157.5 50t-65.5 155q0 190 248 209l186 10q0 68 -24.5 92.5t-77.5 24.5q-111 0 -111 -80h-190q2 248 303 247q176 0 242.5 -82.5t66.5 -261.5v-360h-176l-12 117q-27 -53 -90.5 -87t-141.5 -34zM279 995q0 -59 77 -59q109 0 131 90v37l-137 -8 q-71 -7 -71 -60z" glyph-name="ordfeminine" horiz-adv-x="800" unicode="ª"/><glyph d="M901 178l-369 295v275l369 294v-299l-168 -133l168 -133v-299zM82 473v275l369 294v-299l-168 -133l168 -133v-299z" glyph-name="guillemotleft" horiz-adv-x="983" unicode="«"/><glyph d="M674 186v197h-570v256h906v-453h-336z" glyph-name="logicalnot" horiz-adv-x="1112" unicode="¬"/><glyph d="M82 438v250h649v-250h-649z" glyph-name="uni00AD" horiz-adv-x="813" unicode="­"/><glyph d="M805 -14q-307 0 -519 207.5t-212 523.5q0 313 213 521t518 208t518 -208t213 -521q0 -315 -212 -523t-519 -208zM264 717q0 -240 155.5 -393.5t385.5 -153.5q227 0 384 153.5t157 393.5q0 238 -157 391.5t-384 153.5q-229 0 -385 -153.5t-156 -391.5zM504 379v678h379 q131 0 201.5 -64.5t66.5 -173.5q-4 -154 -141 -209l153 -231h-211l-139 211h-106v-211h-203zM707 750h157q90 0 90 73q0 68 -90 68h-157v-141z" glyph-name="registered" horiz-adv-x="1607" unicode="®"/><glyph d="M0 1286v191h690v-191h-690z" glyph-name="macron" horiz-adv-x="690" unicode="¯"/><glyph d="M369 860q-131 0 -218.5 88t-87.5 215t87.5 215t218.5 88q133 0 220 -88t87 -215t-87 -215t-220 -88zM287 1163q0 -29 20.5 -55.5t61.5 -26.5q43 0 63.5 27t20.5 55q0 31 -20.5 57.5t-63.5 26.5q-41 0 -61.5 -26.5t-20.5 -57.5z" glyph-name="degree" horiz-adv-x="739" unicode="°"/><glyph d="M481 424v379h-377v289h377v374h310v-374h378v-289h-378v-379h-310zM285 0v252h700v-252h-700z" glyph-name="plusminus" horiz-adv-x="1271" unicode="±"/><glyph d="M82 915q0 92 26.5 149.5t118.5 111.5q8 4 26.5 13t25 12t18.5 12.5t17 16.5t9.5 18.5t4.5 25.5q0 27 -18.5 41t-41.5 14q-20 0 -39.5 -16.5t-19.5 -48.5v-17h-127v17q0 82 46 131t140 49t144.5 -49t50.5 -121q0 -27 -8.5 -49.5t-16.5 -36.5t-32.5 -33.5t-34 -26t-45 -28 t-41.5 -25.5q-57 -35 -58 -57v-6h232v-111h-377v14z" glyph-name="uni00B2" horiz-adv-x="550" unicode="²"/><glyph d="M281 893q-98 0 -148.5 47t-50.5 127h121q4 -72 80 -72q80 0 79 72q0 70 -92 70h-22v88h22q70 0 70 61q0 55 -59 55q-27 0 -46.5 -16t-19.5 -49h-115q0 80 50.5 124t134.5 44t131 -39t47 -102q0 -47 -26.5 -78t-61.5 -39q39 0 75.5 -32t36.5 -97q0 -74 -56 -119t-150 -45z " glyph-name="uni00B3" horiz-adv-x="569" unicode="³"/><glyph d="M0 1188l219 289h289l-219 -289h-289z" glyph-name="acute" horiz-adv-x="507" unicode="´"/><glyph d="M104 -389v1454h336v-598q0 -211 176 -211q86 0 141.5 52t55.5 159v598h336v-1065h-336v225h-12q-18 -94 -103.5 -169.5t-228.5 -75.5h-29v-369h-336z" glyph-name="uni00B5" horiz-adv-x="1253" unicode="µ"/><glyph d="M618 -451v1039h-83q-225 0 -353.5 127t-128.5 297q0 168 128 295t354 127h847v-1885h-270v1690h-197v-1690h-297z" glyph-name="paragraph" horiz-adv-x="1486" unicode="¶"/><glyph d="M283 373q-84 0 -141.5 56t-57.5 138t57.5 138.5t141.5 56.5q82 0 140 -56.5t58 -138.5t-58 -138t-140 -56z" glyph-name="periodcentered" horiz-adv-x="563" unicode="·"/><glyph d="M84 -373q131 -4 131 68q0 45 -45 57t-84 -16l-86 108l145 156h217l-114 -109h12q80 0 131 -57t51 -141q0 -123 -103 -174t-255 -51v159z" glyph-name="cedilla" horiz-adv-x="442" unicode="¸"/><glyph d="M201 1274q-14 -25 -48 -35t-71 0v121q37 -6 71.5 18.5t47.5 55.5h121v-535h-121v375z" glyph-name="uni00B9" horiz-adv-x="413" unicode="¹"/><glyph d="M409.5 762q-149.5 0 -253 97t-103.5 261q0 162 102.5 256t254.5 94q150 0 253 -94t103 -256q0 -164 -103.5 -261t-253 -97zM262 1120q0 -66 40 -110.5t107.5 -44.5t106.5 44t39 111q0 63 -39 105.5t-106.5 42.5t-107.5 -42.5t-40 -105.5z" glyph-name="ordmasculine" horiz-adv-x="817" unicode="º"/><glyph d="M104 178v299l168 133l-168 133v299l369 -294v-275zM555 178v299l168 133l-168 133v299l369 -294v-275z" glyph-name="guillemotright" horiz-adv-x="995" unicode="»"/><glyph d="M201 1274q-14 -25 -48 -35t-71 0v121q37 -6 71.5 18.5t47.5 55.5h121v-535h-121v375zM68 0l893 1434h163l-893 -1434h-163zM737 135v98l238 302h121v-302h61v-98h-61v-135h-121v135h-238zM844 233h131v166z" glyph-name="onequarter" horiz-adv-x="1249" unicode="¼"/><glyph d="M193 1274q-14 -25 -48 -35t-71 0v121q37 -6 71.5 18.5t47.5 55.5h120v-535h-120v375zM76 0l893 1434h164l-893 -1434h-164zM752 0v14q0 92 26.5 149.5t118.5 110.5q8 4 26.5 13.5t24.5 12.5t18.5 12.5t17.5 16.5t9 18t4 26q0 27 -18 41t-41 14q-20 0 -39.5 -16.5 t-19.5 -49.5v-16h-127v16q0 82 46 131.5t140 49.5t144.5 -49.5t50.5 -120.5q0 -27 -8.5 -49.5t-16.5 -37t-32.5 -34t-34 -25.5t-45 -27.5t-42.5 -25.5q-57 -35 -57 -57v-6h231v-111h-376z" glyph-name="onehalf" horiz-adv-x="1220" unicode="½"/><glyph d="M281 893q-98 0 -148.5 47t-50.5 127h121q4 -72 80 -72q80 0 79 72q0 70 -92 70h-22v88h22q70 0 70 61q0 55 -59 55q-27 0 -46.5 -16t-19.5 -49h-115q0 80 50.5 124t134.5 44t131 -39t47 -102q0 -47 -26.5 -78t-61.5 -39q39 0 75.5 -32t36.5 -97q0 -74 -56 -119t-150 -45z M37 0l893 1434h164l-893 -1434h-164zM780 135v98l238 302h121v-302h61v-98h-61v-135h-121v135h-238zM887 233h131v166z" glyph-name="threequarters" horiz-adv-x="1239" unicode="¾"/><glyph d="M733 535q0 -94 -31.5 -167t-75.5 -114t-89 -74t-77 -67.5t-32 -75.5q0 -31 9 -57.5t44 -51t92 -24.5q180 0 181 217h336q2 -135 -39 -236.5t-116 -158t-165 -83t-197 -26.5q-215 0 -348 110.5t-133 309.5q0 82 29 141.5t70.5 93t82.5 66.5t70 81t29 116v45h360v-45z M362 891q0 82 58.5 138t140.5 56q84 0 141.5 -56t57.5 -138t-57.5 -138.5t-141.5 -56.5q-82 0 -140.5 56.5t-58.5 138.5z" glyph-name="questiondown" horiz-adv-x="1181" unicode="¿"/><glyph d="M33 0l510 1434h444l512 -1434h-362l-82 244h-580l-82 -244h-360zM436 1845h289l219 -289h-289zM559 498h412l-195 587h-20z" glyph-name="Agrave" horiz-adv-x="1529" unicode="À"/><glyph d="M33 0l510 1434h444l512 -1434h-362l-82 244h-580l-82 -244h-360zM559 498h412l-195 587h-20zM610 1556l219 289h289l-219 -289h-289z" glyph-name="Aacute" horiz-adv-x="1529" unicode="Á"/><glyph d="M33 0l510 1434h444l512 -1434h-362l-82 244h-580l-82 -244h-360zM334 1552l194 293h476l194 -293h-299l-133 207l-133 -207h-299zM559 498h412l-195 587h-20z" glyph-name="Acircumflex" horiz-adv-x="1529" unicode="Â"/><glyph d="M33 0l510 1434h444l512 -1434h-362l-82 244h-580l-82 -244h-360zM401 1622q0 117 54.5 182.5t158.5 65.5q68 0 119 -26.5t84 -53.5t57 -27q61 0 64 52h195q0 -119 -54.5 -184.5t-158.5 -65.5q-53 0 -97.5 17t-68 36.5t-49 37t-46.5 17.5q-61 0 -63 -51h-195zM559 498h412 l-195 587h-20z" glyph-name="Atilde" horiz-adv-x="1529" unicode="Ã"/><glyph d="M33 0l510 1434h444l512 -1434h-362l-82 244h-580l-82 -244h-360zM324 1712q0 74 54 126t126 52q74 0 128 -52t54 -126t-54 -125t-128 -51q-72 0 -126 52t-54 124zM559 498h412l-195 587h-20zM842 1712q0 74 54 126t128 52q72 0 126 -52t54 -126q0 -72 -54 -124t-126 -52 q-74 0 -128 51t-54 125z" glyph-name="Adieresis" horiz-adv-x="1529" unicode="Ä"/><glyph d="M33 0l510 1434h444l512 -1434h-362l-82 244h-580l-82 -244h-360zM545 1718q0 90 63.5 151.5t157.5 61.5t156.5 -61.5t62.5 -151.5t-62.5 -151.5t-156.5 -61.5t-157.5 61.5t-63.5 151.5zM559 498h412l-195 587h-20zM698 1718.5q0 -30.5 18.5 -49t49.5 -18.5 q29 0 48.5 18.5t19.5 49t-19.5 49t-48.5 18.5t-48.5 -18.5t-19.5 -49z" glyph-name="Aring" horiz-adv-x="1529" unicode="Å"/><glyph d="M33 0l915 1434h1047v-299h-656v-279h594v-266h-594v-291h676v-299h-1018v238h-452l-152 -238h-360zM709 496h288v454z" glyph-name="AE" horiz-adv-x="2066" unicode="Æ"/><glyph d="M608 -373q131 -4 131 68q0 45 -45 57t-84 -16l-86 108l131 142q-272 29 -426.5 222t-154.5 509q0 342 183 538.5t501 196.5q254 0 421 -134t185 -403h-336q-53 240 -280 240q-168 0 -245 -122t-77 -316.5t76 -317.5t246 -123q227 0 280 242h336q-14 -238 -146.5 -370 t-343.5 -160l-102 -97h12q80 0 131.5 -57t51.5 -141q0 -123 -103.5 -174t-255.5 -51v159z" glyph-name="Ccedilla" horiz-adv-x="1425" unicode="Ç"/><glyph d="M104 0v1434h998v-299h-656v-279h594v-266h-594v-291h676v-299h-1018zM303 1845h289l219 -289h-289z" glyph-name="Egrave" horiz-adv-x="1173" unicode="È"/><glyph d="M104 0v1434h998v-299h-656v-279h594v-266h-594v-291h676v-299h-1018zM477 1556l219 289h289l-219 -289h-289z" glyph-name="Eacute" horiz-adv-x="1173" unicode="É"/><glyph d="M104 0v1434h998v-299h-656v-279h594v-266h-594v-291h676v-299h-1018zM199 1552l194 293h475l195 -293h-299l-133 207l-133 -207h-299z" glyph-name="Ecircumflex" horiz-adv-x="1173" unicode="Ê"/><glyph d="M104 0v1434h998v-299h-656v-279h594v-266h-594v-291h676v-299h-1018zM188 1712q0 74 54.5 126t126.5 52q74 0 128 -52t54 -126t-54.5 -125t-127.5 -51q-72 0 -126.5 52t-54.5 124zM707 1712q0 74 54 126t128 52q72 0 126 -52t54 -126q0 -72 -54 -124t-126 -52 q-74 0 -128 51t-54 125z" glyph-name="Edieresis" horiz-adv-x="1173" unicode="Ë"/><glyph d="M104 0v1434h342v-1434h-342zM-57 1845h288l220 -289h-289z" glyph-name="Igrave" horiz-adv-x="550" unicode="Ì"/><glyph d="M104 0v1434h342v-1434h-342zM117 1556l219 289h289l-219 -289h-289z" glyph-name="Iacute" horiz-adv-x="550" unicode="Í"/><glyph d="M104 0v1434h342v-1434h-342zM-162 1552l195 293h475l194 -293h-299l-133 207l-133 -207h-299z" glyph-name="Icircumflex" horiz-adv-x="550" unicode="Î"/><glyph d="M104 0v1434h342v-1434h-342zM-170 1712q0 74 54.5 126t125.5 52q74 0 128.5 -52t54.5 -126t-54.5 -125t-128.5 -51q-72 0 -126 52t-54 124zM348 1712q0 74 54.5 126t127.5 52q72 0 126.5 -52t54.5 -126q0 -72 -54.5 -124t-126.5 -52q-74 0 -128 51t-54 125z" glyph-name="Idieresis" horiz-adv-x="550" unicode="Ï"/><glyph d="M180 0v578h-139v249h139v607h563q332 0 505 -184.5t173 -532.5t-173 -532.5t-505 -184.5h-563zM522 299h187q203 0 281.5 95t78.5 322.5t-79 323t-281 95.5h-187v-308h168v-249h-168v-279z" glyph-name="Eth" horiz-adv-x="1495" unicode="Ð"/><glyph d="M104 0v1434h355l528 -879h8v879h344v-1434h-368l-516 856h-9v-856h-342zM356 1622q0 117 54.5 182.5t158.5 65.5q68 0 119 -26.5t84 -53.5t57 -27q61 0 64 52h194q0 -119 -54 -184.5t-159 -65.5q-53 0 -97 17t-67.5 36.5t-49 37t-46.5 17.5q-61 0 -63 -51h-195z" glyph-name="Ntilde" horiz-adv-x="1441" unicode="Ñ"/><glyph d="M766 -20q-315 0 -503.5 205.5t-188.5 531.5q0 328 188.5 531.5t503.5 203.5t504.5 -204t189.5 -531q0 -326 -189.5 -531.5t-504.5 -205.5zM428 717q0 -199 87 -320t251 -121t251 121t87 320q0 201 -87 319.5t-251 118.5t-251 -118.5t-87 -319.5zM436 1845h289l219 -289 h-289z" glyph-name="Ograve" horiz-adv-x="1531" unicode="Ò"/><glyph d="M766 -20q-315 0 -503.5 205.5t-188.5 531.5q0 328 188.5 531.5t503.5 203.5t504.5 -204t189.5 -531q0 -326 -189.5 -531.5t-504.5 -205.5zM428 717q0 -199 87 -320t251 -121t251 121t87 320q0 201 -87 319.5t-251 118.5t-251 -118.5t-87 -319.5zM610 1556l219 289h289 l-219 -289h-289z" glyph-name="Oacute" horiz-adv-x="1531" unicode="Ó"/><glyph d="M766 -20q-315 0 -503.5 205.5t-188.5 531.5q0 328 188.5 531.5t503.5 203.5t504.5 -204t189.5 -531q0 -326 -189.5 -531.5t-504.5 -205.5zM332 1552l194 293h475l195 -293h-299l-133 207l-133 -207h-299zM428 717q0 -199 87 -320t251 -121t251 121t87 320 q0 201 -87 319.5t-251 118.5t-251 -118.5t-87 -319.5z" glyph-name="Ocircumflex" horiz-adv-x="1531" unicode="Ô"/><glyph d="M766 -20q-315 0 -503.5 205.5t-188.5 531.5q0 328 188.5 531.5t503.5 203.5t504.5 -204t189.5 -531q0 -326 -189.5 -531.5t-504.5 -205.5zM401 1622q0 117 54.5 182.5t158.5 65.5q68 0 119 -26.5t84 -53.5t57 -27q61 0 64 52h195q0 -119 -54.5 -184.5t-158.5 -65.5 q-53 0 -97.5 17t-68 36.5t-49 37t-46.5 17.5q-61 0 -63 -51h-195zM428 717q0 -199 87 -320t251 -121t251 121t87 320q0 201 -87 319.5t-251 118.5t-251 -118.5t-87 -319.5z" glyph-name="Otilde" horiz-adv-x="1531" unicode="Õ"/><glyph d="M766 -20q-315 0 -503.5 205.5t-188.5 531.5q0 328 188.5 531.5t503.5 203.5t504.5 -204t189.5 -531q0 -326 -189.5 -531.5t-504.5 -205.5zM322 1712q0 74 54 126t126 52q74 0 128 -52t54 -126t-54.5 -125t-127.5 -51q-72 0 -126 52t-54 124zM428 717q0 -199 87 -320 t251 -121t251 121t87 320q0 201 -87 319.5t-251 118.5t-251 -118.5t-87 -319.5zM840 1712q0 74 54 126t128 52q72 0 126 -52t54 -126q0 -72 -54 -124t-126 -52q-74 0 -128 51t-54 125z" glyph-name="Odieresis" horiz-adv-x="1531" unicode="Ö"/><glyph d="M307 35l-205 203l279 276l-279 274l205 201l277 -274l276 274l207 -201l-276 -274l276 -276l-207 -203l-276 274z" glyph-name="multiply" horiz-adv-x="1169" unicode="×"/><glyph d="M188 -102l127 235q-242 207 -241 584q0 328 188.5 531.5t503.5 203.5q129 0 240 -37l59 111h278l-122 -230q240 -207 239 -579q0 -326 -189.5 -531.5t-504.5 -205.5q-125 0 -236 34l-63 -116h-279zM428 717q0 -160 55 -271l375 697q-39 12 -92 12q-164 0 -251 -118.5 t-87 -319.5zM676 287q47 -10 90 -11q164 0 251 121t87 320q0 154 -53 264z" glyph-name="Oslash" horiz-adv-x="1531" unicode="Ø"/><glyph d="M707 -20q-279 0 -441 142t-162 423v889h347v-863q0 -143 67.5 -217.5t188 -74.5t186 74.5t65.5 217.5v863h349v-889q0 -281 -163 -423t-437 -142zM346 1845h289l219 -289h-289z" glyph-name="Ugrave" horiz-adv-x="1409" unicode="Ù"/><glyph d="M707 -20q-279 0 -441 142t-162 423v889h347v-863q0 -143 67.5 -217.5t188 -74.5t186 74.5t65.5 217.5v863h349v-889q0 -281 -163 -423t-437 -142zM520 1556l219 289h289l-219 -289h-289z" glyph-name="Uacute" horiz-adv-x="1409" unicode="Ú"/><glyph d="M707 -20q-279 0 -441 142t-162 423v889h347v-863q0 -143 67.5 -217.5t188 -74.5t186 74.5t65.5 217.5v863h349v-889q0 -281 -163 -423t-437 -142zM244 1552l194 293h475l195 -293h-299l-133 207l-133 -207h-299z" glyph-name="Ucircumflex" horiz-adv-x="1409" unicode="Û"/><glyph d="M707 -20q-279 0 -441 142t-162 423v889h347v-863q0 -143 67.5 -217.5t188 -74.5t186 74.5t65.5 217.5v863h349v-889q0 -281 -163 -423t-437 -142zM233 1712q0 74 54.5 126t126.5 52q74 0 128 -52t54 -126t-54.5 -125t-127.5 -51q-72 0 -126.5 52t-54.5 124zM752 1712 q0 74 54 126t128 52q72 0 126 -52t54 -126q0 -72 -54 -124t-126 -52q-74 0 -128 51t-54 125z" glyph-name="Udieresis" horiz-adv-x="1409" unicode="Ü"/><glyph d="M559 0v518l-516 916h391l303 -582l303 582h392l-519 -916v-518h-354zM580 1556l219 289h288l-219 -289h-288z" glyph-name="Yacute" horiz-adv-x="1472" unicode="Ý"/><glyph d="M104 0v1434h342v-228h252q283 0 421 -132t138 -355t-138 -355.5t-421 -132.5h-252v-231h-342zM446 528h240q217 0 217 190.5t-217 190.5h-240v-381z" glyph-name="Thorn" horiz-adv-x="1310" unicode="Þ"/><glyph d="M104 946q0 506 527 506q233 0 375.5 -90t142.5 -279q0 -133 -67.5 -209.5t-135.5 -72.5q113 -8 204 -102.5t91 -266.5q0 -201 -140 -316.5t-429 -115.5h-62v287h64q231 0 231 182q0 178 -272 178h-23v252h23q180 0 180 135q0 131 -176 131q-102 0 -149.5 -53t-47.5 -166 v-946h-336v946z" glyph-name="germandbls" horiz-adv-x="1292" unicode="ß"/><glyph d="M393 -20q-141 0 -240.5 74.5t-99.5 230.5q0 88 33 149.5t97.5 95t117.5 48t137 26.5l160 25q74 12 98.5 28.5t24.5 65.5v2q0 121 -139 121q-160 0 -160 -125v-19l-313 -4v56q0 332 481 331q242 0 351.5 -86t109.5 -258v-741h-322v184h-14q-8 -27 -26.5 -55.5t-54.5 -65 t-98.5 -60t-142.5 -23.5zM260 1477h289l219 -289h-289zM389 315q0 -98 123 -98q86 0 147.5 47t61.5 109v100q-14 -16 -103 -35l-133 -24q-96 -23 -96 -99z" glyph-name="agrave" unicode="à"/><glyph d="M393 -20q-141 0 -240.5 74.5t-99.5 230.5q0 88 33 149.5t97.5 95t117.5 48t137 26.5l160 25q74 12 98.5 28.5t24.5 65.5v2q0 121 -139 121q-160 0 -160 -125v-19l-313 -4v56q0 332 481 331q242 0 351.5 -86t109.5 -258v-741h-322v184h-14q-8 -27 -26.5 -55.5t-54.5 -65 t-98.5 -60t-142.5 -23.5zM389 315q0 -98 123 -98q86 0 147.5 47t61.5 109v100q-14 -16 -103 -35l-133 -24q-96 -23 -96 -99zM434 1188l219 289h289l-219 -289h-289z" glyph-name="aacute" unicode="á"/><glyph d="M393 -20q-141 0 -240.5 74.5t-99.5 230.5q0 88 33 149.5t97.5 95t117.5 48t137 26.5l160 25q74 12 98.5 28.5t24.5 65.5v2q0 121 -139 121q-160 0 -160 -125v-19l-313 -4v56q0 332 481 331q242 0 351.5 -86t109.5 -258v-741h-322v184h-14q-8 -27 -26.5 -55.5t-54.5 -65 t-98.5 -60t-142.5 -23.5zM158 1184l194 293h475l195 -293h-299l-133 207l-133 -207h-299zM389 315q0 -98 123 -98q86 0 147.5 47t61.5 109v100q-14 -16 -103 -35l-133 -24q-96 -23 -96 -99z" glyph-name="acircumflex" unicode="â"/><glyph d="M393 -20q-141 0 -240.5 74.5t-99.5 230.5q0 88 33 149.5t97.5 95t117.5 48t137 26.5l160 25q74 12 98.5 28.5t24.5 65.5v2q0 121 -139 121q-160 0 -160 -125v-19l-313 -4v56q0 332 481 331q242 0 351.5 -86t109.5 -258v-741h-322v184h-14q-8 -27 -26.5 -55.5t-54.5 -65 t-98.5 -60t-142.5 -23.5zM225 1253q0 117 54.5 182.5t158.5 65.5q68 0 119 -26.5t84 -53t57 -26.5q61 0 64 51h194q0 -119 -54 -184.5t-159 -65.5q-53 0 -97 17.5t-67.5 37t-49 37t-46.5 17.5q-61 0 -63 -52h-195zM389 315q0 -98 123 -98q86 0 147.5 47t61.5 109v100 q-14 -16 -103 -35l-133 -24q-96 -23 -96 -99z" glyph-name="atilde" unicode="ã"/><glyph d="M393 -20q-141 0 -240.5 74.5t-99.5 230.5q0 88 33 149.5t97.5 95t117.5 48t137 26.5l160 25q74 12 98.5 28.5t24.5 65.5v2q0 121 -139 121q-160 0 -160 -125v-19l-313 -4v56q0 332 481 331q242 0 351.5 -86t109.5 -258v-741h-322v184h-14q-8 -27 -26.5 -55.5t-54.5 -65 t-98.5 -60t-142.5 -23.5zM147 1343q0 74 54.5 126.5t126.5 52.5q74 0 128 -52.5t54 -126t-54.5 -125t-127.5 -51.5q-72 0 -126.5 52t-54.5 124zM389 315q0 -98 123 -98q86 0 147.5 47t61.5 109v100q-14 -16 -103 -35l-133 -24q-96 -23 -96 -99zM666 1343.5q0 73.5 54 126 t128 52.5q72 0 126 -52.5t54 -126.5q0 -72 -54 -124t-126 -52q-74 0 -128 51.5t-54 125z" glyph-name="adieresis" unicode="ä"/><glyph d="M393 -20q-141 0 -240.5 74.5t-99.5 230.5q0 88 33 149.5t97.5 95t117.5 48t137 26.5l160 25q74 12 98.5 28.5t24.5 65.5v2q0 121 -139 121q-160 0 -160 -125v-19l-313 -4v56q0 332 481 331q242 0 351.5 -86t109.5 -258v-741h-322v184h-14q-8 -27 -26.5 -55.5t-54.5 -65 t-98.5 -60t-142.5 -23.5zM369 1350q0 90 63.5 151.5t157.5 61.5t156.5 -61.5t62.5 -151.5t-62.5 -151.5t-156.5 -61.5t-157.5 61.5t-63.5 151.5zM389 315q0 -98 123 -98q86 0 147.5 47t61.5 109v100q-14 -16 -103 -35l-133 -24q-96 -23 -96 -99zM522 1349.5 q0 -30.5 18.5 -49t49.5 -18.5q29 0 48 18.5t19 49t-19.5 49t-48 18.5t-48 -18.5t-19.5 -49z" glyph-name="aring" unicode="å"/><glyph d="M436 -20q-166 0 -274.5 76.5t-108.5 248.5q0 322 398 322h266v90q0 117 -147.5 117t-147.5 -125v-17l-303 -4v57q0 166 116.5 253t344.5 87q231 0 329 -106q141 106 357 106q229 0 372.5 -131t143.5 -422q0 -47 -6 -83h-736q25 -215 232 -216q168 0 201 127h294 q-37 -182 -170 -281t-331 -99q-276 0 -424 178q-41 -63 -144.5 -120.5t-261.5 -57.5zM389 330q0 -109 141 -109q94 0 140.5 49t46.5 125v41h-182q-63 0 -104.5 -27.5t-41.5 -78.5zM1042 643h422q-6 80 -53 134t-154 54q-184 0 -215 -188z" glyph-name="ae" horiz-adv-x="1832" unicode="æ"/><glyph d="M432 -373q131 -4 131 68q0 45 -45 57t-84 -16l-86 108l135 146q-186 31 -308 165t-122 375q0 145 47 256t127 174.5t173.5 94t195.5 30.5q80 0 151.5 -18t148.5 -62t129 -138.5t67 -227.5h-306q-33 166 -192 166q-115 0 -170 -77t-55 -197.5t55 -195.5t170 -75 q160 0 192 168h306q-16 -211 -128 -313.5t-268 -126.5l-100 -97h12q80 0 131.5 -57t51.5 -141q0 -123 -103.5 -174t-255.5 -51v159z" glyph-name="ccedilla" unicode="ç"/><glyph d="M596 -20q-104 0 -197.5 29.5t-172.5 92t-126 174t-47 261.5q0 279 153.5 413.5t389.5 134.5q229 0 372.5 -131t143.5 -422q0 -47 -6 -83h-735q25 -215 231 -216q168 0 201 127h295q-37 -182 -170 -281t-332 -99zM250 1477h289l219 -289h-289zM373 643h422 q-6 80 -53.5 134t-153.5 54q-184 0 -215 -188z" glyph-name="egrave" horiz-adv-x="1163" unicode="è"/><glyph d="M596 -20q-104 0 -197.5 29.5t-172.5 92t-126 174t-47 261.5q0 279 153.5 413.5t389.5 134.5q229 0 372.5 -131t143.5 -422q0 -47 -6 -83h-735q25 -215 231 -216q168 0 201 127h295q-37 -182 -170 -281t-332 -99zM373 643h422q-6 80 -53.5 134t-153.5 54q-184 0 -215 -188 zM424 1188l219 289h289l-219 -289h-289z" glyph-name="eacute" horiz-adv-x="1163" unicode="é"/><glyph d="M596 -20q-104 0 -197.5 29.5t-172.5 92t-126 174t-47 261.5q0 279 153.5 413.5t389.5 134.5q229 0 372.5 -131t143.5 -422q0 -47 -6 -83h-735q25 -215 231 -216q168 0 201 127h295q-37 -182 -170 -281t-332 -99zM145 1184l195 293h475l195 -293h-299l-133 207l-134 -207 h-299zM373 643h422q-6 80 -53.5 134t-153.5 54q-184 0 -215 -188z" glyph-name="ecircumflex" horiz-adv-x="1163" unicode="ê"/><glyph d="M596 -20q-104 0 -197.5 29.5t-172.5 92t-126 174t-47 261.5q0 279 153.5 413.5t389.5 134.5q229 0 372.5 -131t143.5 -422q0 -47 -6 -83h-735q25 -215 231 -216q168 0 201 127h295q-37 -182 -170 -281t-332 -99zM135 1343q0 74 54.5 126.5t125.5 52.5q74 0 128.5 -52.5 t54.5 -126t-54.5 -125t-128.5 -51.5q-72 0 -126 52t-54 124zM373 643h422q-6 80 -53.5 134t-153.5 54q-184 0 -215 -188zM653 1343.5q0 73.5 54.5 126t128.5 52.5q72 0 126 -52.5t54 -126.5q0 -72 -54.5 -124t-125.5 -52q-74 0 -128.5 51.5t-54.5 125z" glyph-name="edieresis" horiz-adv-x="1163" unicode="ë"/><glyph d="M90 0v1065h336v-1065h-336zM-72 1477h289l219 -289h-289z" glyph-name="igrave" horiz-adv-x="516" unicode="ì"/><glyph d="M90 0v1065h336v-1065h-336zM102 1188l220 289h288l-219 -289h-289z" glyph-name="iacute" horiz-adv-x="516" unicode="í"/><glyph d="M90 0v1065h336v-1065h-336zM-176 1184l194 293h476l194 -293h-299l-133 207l-133 -207h-299z" glyph-name="icircumflex" horiz-adv-x="516" unicode="î"/><glyph d="M90 0v1065h336v-1065h-336zM-186 1343q0 74 54 126.5t126 52.5q74 0 128 -52.5t54 -126t-54 -125t-128 -51.5q-72 0 -126 52t-54 124zM332 1343.5q0 73.5 54 126t128 52.5q72 0 126 -52.5t54 -126.5q0 -72 -54 -124t-126 -52q-74 0 -128 51.5t-54 125z" glyph-name="idieresis" horiz-adv-x="516" unicode="ï"/><glyph d="M586 -20q-221 0 -377 141t-156 411q0 252 139.5 392.5t337.5 140.5q109 0 187 -47q-49 104 -92 172h-275v145h162q-51 55 -100 99h333l78 -99h289v-145h-182q113 -164 152.5 -296t39.5 -329q0 -152 -45 -267.5t-122.5 -183t-171 -101t-197.5 -33.5zM385 532 q0 -137 58.5 -201.5t144.5 -64.5t144.5 64.5t58.5 201.5q0 129 -59.5 187.5t-143.5 58.5q-82 0 -142.5 -58.5t-60.5 -187.5z" glyph-name="eth" horiz-adv-x="1224" unicode="ð"/><glyph d="M813 598q0 211 -176 211q-86 0 -141.5 -52t-55.5 -159v-598h-336v1065h336v-225h13q18 94 103 169.5t228 75.5q162 0 263.5 -105.5t101.5 -299.5v-680h-336v598zM262 1253q0 117 54.5 182.5t158.5 65.5q68 0 119 -26.5t84 -53t57 -26.5q61 0 64 51h194q0 -119 -54 -184.5 t-159 -65.5q-53 0 -97 17.5t-67.5 37t-49 37t-46.5 17.5q-61 0 -63 -52h-195z" glyph-name="ntilde" horiz-adv-x="1253" unicode="ñ"/><glyph d="M594 -20q-104 0 -198.5 32.5t-172.5 96t-124 173t-46 251t46 251t124 173t172 96t199 32.5q141 0 260 -54t200 -183t81 -315.5t-81 -315.5t-200 -183t-260 -54zM262 1477h289l219 -289h-289zM367 532.5q0 -135.5 62.5 -205t164.5 -69.5t163.5 69.5t61.5 205t-61.5 205 t-163.5 69.5t-164.5 -69.5t-62.5 -205z" glyph-name="ograve" horiz-adv-x="1185" unicode="ò"/><glyph d="M594 -20q-104 0 -198.5 32.5t-172.5 96t-124 173t-46 251t46 251t124 173t172 96t199 32.5q141 0 260 -54t200 -183t81 -315.5t-81 -315.5t-200 -183t-260 -54zM367 532.5q0 -135.5 62.5 -205t164.5 -69.5t163.5 69.5t61.5 205t-61.5 205t-163.5 69.5t-164.5 -69.5 t-62.5 -205zM436 1188l219 289h289l-219 -289h-289z" glyph-name="oacute" horiz-adv-x="1185" unicode="ó"/><glyph d="M594 -20q-104 0 -198.5 32.5t-172.5 96t-124 173t-46 251t46 251t124 173t172 96t199 32.5q141 0 260 -54t200 -183t81 -315.5t-81 -315.5t-200 -183t-260 -54zM160 1184l194 293h475l195 -293h-299l-133 207l-133 -207h-299zM367 532.5q0 -135.5 62.5 -205t164.5 -69.5 t163.5 69.5t61.5 205t-61.5 205t-163.5 69.5t-164.5 -69.5t-62.5 -205z" glyph-name="ocircumflex" horiz-adv-x="1185" unicode="ô"/><glyph d="M594 -20q-104 0 -198.5 32.5t-172.5 96t-124 173t-46 251t46 251t124 173t172 96t199 32.5q141 0 260 -54t200 -183t81 -315.5t-81 -315.5t-200 -183t-260 -54zM227 1253q0 117 54.5 182.5t158.5 65.5q68 0 119 -26.5t84 -53t57 -26.5q61 0 64 51h194q0 -119 -54 -184.5 t-159 -65.5q-53 0 -97 17.5t-67.5 37t-49 37t-46.5 17.5q-61 0 -63 -52h-195zM367 532.5q0 -135.5 62.5 -205t164.5 -69.5t163.5 69.5t61.5 205t-61.5 205t-163.5 69.5t-164.5 -69.5t-62.5 -205z" glyph-name="otilde" horiz-adv-x="1185" unicode="õ"/><glyph d="M594 -20q-104 0 -198.5 32.5t-172.5 96t-124 173t-46 251t46 251t124 173t172 96t199 32.5q141 0 260 -54t200 -183t81 -315.5t-81 -315.5t-200 -183t-260 -54zM150 1343q0 74 54 126.5t126 52.5q74 0 128 -52.5t54 -126t-54.5 -125t-127.5 -51.5q-72 0 -126 52t-54 124z M367 532.5q0 -135.5 62.5 -205t164.5 -69.5t163.5 69.5t61.5 205t-61.5 205t-163.5 69.5t-164.5 -69.5t-62.5 -205zM668 1343.5q0 73.5 54 126t128 52.5q72 0 126 -52.5t54 -126.5q0 -72 -54 -124t-126 -52q-74 0 -128 51.5t-54 125z" glyph-name="odieresis" horiz-adv-x="1185" unicode="ö"/><glyph d="M459 778q-61 0 -102.5 41t-41.5 103q0 59 41 99t103 40q57 0 98 -41t41 -98q0 -61 -40 -102.5t-99 -41.5zM104 438v250h703v-250h-703zM315 209q0 59 41 99t103 40q57 0 98 -41t41 -98q0 -59 -40 -100t-99 -41q-61 0 -102.5 41t-41.5 100z" glyph-name="divide" horiz-adv-x="909" unicode="÷"/><glyph d="M156 -102l94 190q-197 145 -197 444q0 141 46 251t124 173.5t172 96t199 32.5q70 0 141 -16l58 115h237l-98 -201q203 -150 203 -451q0 -186 -81 -315t-200 -183t-260 -54q-72 0 -150 16l-49 -98h-239zM367 532q0 -88 28 -151l211 426h-12q-102 0 -164.5 -70t-62.5 -205z M573 258h21q102 0 163.5 69.5t61.5 204.5q0 94 -33 160z" glyph-name="oslash" horiz-adv-x="1185" unicode="ø"/><glyph d="M440 467q0 -211 176 -211q86 0 141.5 52t55.5 159v598h336v-1065h-336v225h-12q-18 -94 -103.5 -169.5t-228.5 -75.5q-162 0 -263.5 105t-101.5 300v680h336v-598zM293 1477h289l219 -289h-289z" glyph-name="ugrave" horiz-adv-x="1253" unicode="ù"/><glyph d="M440 467q0 -211 176 -211q86 0 141.5 52t55.5 159v598h336v-1065h-336v225h-12q-18 -94 -103.5 -169.5t-228.5 -75.5q-162 0 -263.5 105t-101.5 300v680h336v-598zM467 1188l219 289h289l-219 -289h-289z" glyph-name="uacute" horiz-adv-x="1253" unicode="ú"/><glyph d="M440 467q0 -211 176 -211q86 0 141.5 52t55.5 159v598h336v-1065h-336v225h-12q-18 -94 -103.5 -169.5t-228.5 -75.5q-162 0 -263.5 105t-101.5 300v680h336v-598zM188 1184l195 293h475l195 -293h-299l-133 207l-134 -207h-299z" glyph-name="ucircumflex" horiz-adv-x="1253" unicode="û"/><glyph d="M440 467q0 -211 176 -211q86 0 141.5 52t55.5 159v598h336v-1065h-336v225h-12q-18 -94 -103.5 -169.5t-228.5 -75.5q-162 0 -263.5 105t-101.5 300v680h336v-598zM178 1343q0 74 54.5 126.5t125.5 52.5q74 0 128.5 -52.5t54.5 -126t-54.5 -125t-128.5 -51.5 q-72 0 -126 52t-54 124zM696 1343.5q0 73.5 54.5 126t128.5 52.5q72 0 126 -52.5t54 -126.5q0 -72 -54.5 -124t-125.5 -52q-74 0 -128.5 51.5t-54.5 125z" glyph-name="udieresis" horiz-adv-x="1253" unicode="ü"/><glyph d="M139 -131q231 -31 287 92q29 66 -6 148l-387 956h342l227 -637l234 637h344l-430 -1053q-109 -266 -238 -359t-373 -67v283zM446 1188l220 289h288l-219 -289h-289z" glyph-name="yacute" horiz-adv-x="1210" unicode="ý"/><glyph d="M104 -389v1823h336v-508q27 68 107 113.5t188 45.5q184 0 323.5 -140t139.5 -413q0 -274 -139 -413t-324 -139q-109 0 -188.5 46t-106.5 113v-528h-336zM426 532.5q0 -133.5 65.5 -204t159.5 -70.5q96 0 164 70.5t68 204t-67.5 204t-164.5 70.5q-94 0 -159.5 -70.5 t-65.5 -204z" glyph-name="thorn" horiz-adv-x="1249" unicode="þ"/><glyph d="M139 -131q231 -31 287 92q29 66 -6 148l-387 956h342l227 -637l234 637h344l-430 -1053q-109 -266 -238 -359t-373 -67v283zM158 1343q0 74 54 126.5t126 52.5q74 0 128 -52.5t54 -126t-54 -125t-128 -51.5q-72 0 -126 52t-54 124zM676 1343.5q0 73.5 54 126t128 52.5 q72 0 126 -52.5t54 -126.5q0 -72 -54 -124t-126 -52q-74 0 -128 51.5t-54 125z" glyph-name="ydieresis" horiz-adv-x="1210" unicode="ÿ"/><glyph d="M33 0l510 1434h444l512 -1434h-362l-82 244h-580l-82 -244h-360zM422 1655v190h690v-190h-690zM559 498h412l-195 587h-20z" glyph-name="Amacron" horiz-adv-x="1529" unicode="Ā"/><glyph d="M393 -20q-141 0 -240.5 74.5t-99.5 230.5q0 88 33 149.5t97.5 95t117.5 48t137 26.5l160 25q74 12 98.5 28.5t24.5 65.5v2q0 121 -139 121q-160 0 -160 -125v-19l-313 -4v56q0 332 481 331q242 0 351.5 -86t109.5 -258v-741h-322v184h-14q-8 -27 -26.5 -55.5t-54.5 -65 t-98.5 -60t-142.5 -23.5zM246 1286v191h690v-191h-690zM389 315q0 -98 123 -98q86 0 147.5 47t61.5 109v100q-14 -16 -103 -35l-133 -24q-96 -23 -96 -99z" glyph-name="amacron" unicode="ā"/><glyph d="M33 0l510 1434h444l512 -1434h-362l-82 244h-580l-82 -244h-360zM424 1845h219q2 -74 33 -104.5t92 -30.5t92 31t33 104h219q0 -156 -89 -241.5t-255 -85.5q-164 0 -254 85.5t-90 241.5zM559 498h412l-195 587h-20z" glyph-name="Abreve" horiz-adv-x="1529" unicode="Ă"/><glyph d="M393 -20q-141 0 -240.5 74.5t-99.5 230.5q0 88 33 149.5t97.5 95t117.5 48t137 26.5l160 25q74 12 98.5 28.5t24.5 65.5v2q0 121 -139 121q-160 0 -160 -125v-19l-313 -4v56q0 332 481 331q242 0 351.5 -86t109.5 -258v-741h-322v184h-14q-8 -27 -26.5 -55.5t-54.5 -65 t-98.5 -60t-142.5 -23.5zM248 1477h219q2 -74 32.5 -105t92 -31t92.5 31t33 105h219q0 -156 -89 -242t-255 -86q-164 0 -254 86t-90 242zM389 315q0 -98 123 -98q86 0 147.5 47t61.5 109v100q-14 -16 -103 -35l-133 -24q-96 -23 -96 -99z" glyph-name="abreve" unicode="ă"/><glyph d="M33 0l510 1434h444l512 -1434q-127 0 -195.5 -45t-68.5 -105q0 -47 42 -65t95 4v-184q-31 -18 -93 -20.5t-128 15t-115 73t-49 139.5q0 147 139 221l-71 211h-580l-82 -244h-360zM559 498h412l-195 587h-20z" glyph-name="Aogonek" horiz-adv-x="1529" unicode="Ą"/><glyph d="M393 -20q-141 0 -240.5 74.5t-99.5 230.5q0 88 33 149.5t97.5 95t117.5 48t137 26.5l160 25q74 12 98.5 28.5t24.5 65.5v2q0 121 -139 121q-160 0 -160 -125v-19l-313 -4v56q0 332 481 331q242 0 351.5 -86t109.5 -258v-741h2q-127 0 -196 -45t-69 -105q0 -47 42 -65 t96 4v-184q-31 -18 -93.5 -20.5t-128 15t-114.5 73t-49 139.5q0 90 53 152.5t135 90.5v129h-14q-8 -27 -26.5 -55.5t-54.5 -65t-98.5 -60t-142.5 -23.5zM389 315q0 -98 123 -98q86 0 147.5 47t61.5 109v100q-14 -16 -103 -35l-133 -24q-96 -23 -96 -99z" glyph-name="aogonek" unicode="ą"/><glyph d="M754 -20q-315 0 -497.5 196.5t-182.5 540.5q0 342 183 538.5t501 196.5q254 0 421 -134t185 -403h-336q-53 240 -280 240q-168 0 -245 -122t-77 -316.5t76 -317.5t246 -123q227 0 280 242h336q-18 -270 -185 -404t-425 -134zM614 1556l220 289h288l-219 -289h-289z" glyph-name="Cacute" horiz-adv-x="1425" unicode="Ć"/><glyph d="M596 -20q-102 0 -195.5 30.5t-173.5 93t-127 172t-47 255t47 256t127 174t173.5 94t195.5 30.5q80 0 151.5 -18t148.5 -62t129 -138.5t67 -227.5h-306q-33 166 -192 166q-115 0 -170 -77t-55 -197.5t55 -195.5t170 -75q160 0 192 168h306q-8 -106 -45 -189t-87.5 -130.5 t-117 -78t-125 -40.5t-121.5 -10zM420 1188l219 289h289l-219 -289h-289z" glyph-name="cacute" unicode="ć"/><glyph d="M754 -20q-315 0 -497.5 196.5t-182.5 540.5q0 342 183 538.5t501 196.5q254 0 421 -134t185 -403h-336q-53 240 -280 240q-168 0 -245 -122t-77 -316.5t76 -317.5t246 -123q227 0 280 242h336q-18 -270 -185 -404t-425 -134zM342 1552l195 293h475l194 -293h-299 l-133 207l-133 -207h-299z" glyph-name="Ccircumflex" horiz-adv-x="1425" unicode="Ĉ"/><glyph d="M596 -20q-102 0 -195.5 30.5t-173.5 93t-127 172t-47 255t47 256t127 174t173.5 94t195.5 30.5q80 0 151.5 -18t148.5 -62t129 -138.5t67 -227.5h-306q-33 166 -192 166q-115 0 -170 -77t-55 -197.5t55 -195.5t170 -75q160 0 192 168h306q-8 -106 -45 -189t-87.5 -130.5 t-117 -78t-125 -40.5t-121.5 -10zM147 1184l195 293h475l195 -293h-299l-133 207l-134 -207h-299z" glyph-name="ccircumflex" unicode="ĉ"/><glyph d="M754 -20q-315 0 -497.5 196.5t-182.5 540.5q0 342 183 538.5t501 196.5q254 0 421 -134t185 -403h-336q-53 240 -280 240q-168 0 -245 -122t-77 -316.5t76 -317.5t246 -123q227 0 280 242h336q-18 -270 -185 -404t-425 -134zM592 1712q0 74 54 126t126 52q74 0 128 -52 t54 -126t-54 -125t-128 -51q-72 0 -126 52t-54 124z" glyph-name="Cdotaccent" horiz-adv-x="1425" unicode="Ċ"/><glyph d="M596 -20q-102 0 -195.5 30.5t-173.5 93t-127 172t-47 255t47 256t127 174t173.5 94t195.5 30.5q80 0 151.5 -18t148.5 -62t129 -138.5t67 -227.5h-306q-33 166 -192 166q-115 0 -170 -77t-55 -197.5t55 -195.5t170 -75q160 0 192 168h306q-8 -106 -45 -189t-87.5 -130.5 t-117 -78t-125 -40.5t-121.5 -10zM397 1343q0 74 54.5 126.5t126.5 52.5q74 0 128 -52.5t54 -126t-54.5 -125t-127.5 -51.5q-72 0 -126.5 52t-54.5 124z" glyph-name="cdotaccent" unicode="ċ"/><glyph d="M754 -20q-315 0 -497.5 196.5t-182.5 540.5q0 342 183 538.5t501 196.5q254 0 421 -134t185 -403h-336q-53 240 -280 240q-168 0 -245 -122t-77 -316.5t76 -317.5t246 -123q227 0 280 242h336q-18 -270 -185 -404t-425 -134zM326 1845h299l133 -207l133 207h299 l-195 -293h-475z" glyph-name="Ccaron" horiz-adv-x="1425" unicode="Č"/><glyph d="M596 -20q-102 0 -195.5 30.5t-173.5 93t-127 172t-47 255t47 256t127 174t173.5 94t195.5 30.5q80 0 151.5 -18t148.5 -62t129 -138.5t67 -227.5h-306q-33 166 -192 166q-115 0 -170 -77t-55 -197.5t55 -195.5t170 -75q160 0 192 168h306q-8 -106 -45 -189t-87.5 -130.5 t-117 -78t-125 -40.5t-121.5 -10zM131 1477h299l133 -207l133 207h299l-194 -293h-475z" glyph-name="ccaron" unicode="č"/><glyph d="M104 0v1434h564q332 0 505 -184.5t173 -532.5t-173.5 -532.5t-504.5 -184.5h-564zM242 1845h299l133 -207l133 207h299l-195 -293h-475zM446 299h187q203 0 281.5 95t78.5 322.5t-78.5 323t-281.5 95.5h-187v-836z" glyph-name="Dcaron" horiz-adv-x="1419" unicode="Ď"/><glyph d="M514 -20q-184 0 -323.5 139t-139.5 413q0 272 139.5 412.5t323.5 140.5q111 0 191.5 -49t103.5 -114v512h336v-1434h-336v143q-23 -66 -103.5 -114.5t-191.5 -48.5zM367 532.5q0 -133.5 67.5 -204t163.5 -70.5q94 0 159.5 70.5t65.5 204t-65.5 204t-159.5 70.5 q-96 0 -163.5 -70.5t-67.5 -204zM1208 1145l219 289h289l-219 -289h-289z" glyph-name="dcaron" horiz-adv-x="1392" unicode="ď"/><glyph d="M180 0v578h-139v249h139v607h563q332 0 505 -184.5t173 -532.5t-173 -532.5t-505 -184.5h-563zM522 299h187q203 0 281.5 95t78.5 322.5t-79 323t-281 95.5h-187v-308h168v-249h-168v-279z" glyph-name="Dcroat" horiz-adv-x="1495" unicode="Đ"/><glyph d="M512 1190v145h297v99h336v-99h127v-145h-127v-1190h-336v143q-23 -66 -103.5 -114.5t-191.5 -48.5q-184 0 -323.5 139t-139.5 413q0 272 139.5 412.5t323.5 140.5q111 0 191.5 -49t103.5 -114v268h-297zM367 532.5q0 -133.5 67.5 -204t163.5 -70.5q94 0 159.5 70.5 t65.5 204t-65.5 204t-159.5 70.5q-96 0 -163.5 -70.5t-67.5 -204z" glyph-name="dcroat" horiz-adv-x="1304" unicode="đ"/><glyph d="M104 0v1434h998v-299h-656v-279h594v-266h-594v-291h676v-299h-1018zM289 1655v190h690v-190h-690z" glyph-name="Emacron" horiz-adv-x="1173" unicode="Ē"/><glyph d="M596 -20q-104 0 -197.5 29.5t-172.5 92t-126 174t-47 261.5q0 279 153.5 413.5t389.5 134.5q229 0 372.5 -131t143.5 -422q0 -47 -6 -83h-735q25 -215 231 -216q168 0 201 127h295q-37 -182 -170 -281t-332 -99zM236 1286v191h690v-191h-690zM373 643h422 q-6 80 -53.5 134t-153.5 54q-184 0 -215 -188z" glyph-name="emacron" horiz-adv-x="1163" unicode="ē"/><glyph d="M104 0v1434h998v-299h-656v-279h594v-266h-594v-291h676v-299h-1018zM457 1712q0 74 54 126t126 52q74 0 128 -52t54 -126t-54 -125t-128 -51q-72 0 -126 52t-54 124z" glyph-name="Edotaccent" horiz-adv-x="1173" unicode="Ė"/><glyph d="M596 -20q-104 0 -197.5 29.5t-172.5 92t-126 174t-47 261.5q0 279 153.5 413.5t389.5 134.5q229 0 372.5 -131t143.5 -422q0 -47 -6 -83h-735q25 -215 231 -216q168 0 201 127h295q-37 -182 -170 -281t-332 -99zM373 643h422q-6 80 -53.5 134t-153.5 54q-184 0 -215 -188 zM403 1343q0 74 54.5 126.5t126.5 52.5q74 0 128 -52.5t54 -126t-54.5 -125t-127.5 -51.5q-72 0 -126.5 52t-54.5 124z" glyph-name="edotaccent" horiz-adv-x="1163" unicode="ė"/><glyph d="M104 0v1434h998v-299h-656v-279h594v-266h-594v-291h676v-299q-127 0 -195.5 -45t-68.5 -105q0 -47 42 -65t95 4v-184q-31 -18 -93 -20.5t-127.5 15t-115 73t-49.5 139.5q0 115 88 188h-594z" glyph-name="Eogonek" horiz-adv-x="1173" unicode="Ę"/><glyph d="M731 -395q-33 -18 -94.5 -20.5t-128 15t-114.5 73t-48 139.5q0 113 88 186q-168 43 -274.5 175t-106.5 364q0 279 153.5 413.5t389.5 134.5q229 0 372.5 -131t143.5 -422q0 -47 -6 -83h-735q25 -215 231 -216q168 0 201 127h295q-29 -145 -121 -238t-232 -126l9 -6 q-78 -16 -119 -54t-41 -85.5t42 -65.5t95 4v-184zM373 643h422q-6 80 -53.5 134t-153.5 54q-184 0 -215 -188z" glyph-name="eogonek" horiz-adv-x="1163" unicode="ę"/><glyph d="M104 0v1434h998v-299h-656v-279h594v-266h-594v-291h676v-299h-1018zM188 1845h299l134 -207l133 207h299l-195 -293h-475z" glyph-name="Ecaron" horiz-adv-x="1173" unicode="Ě"/><glyph d="M596 -20q-104 0 -197.5 29.5t-172.5 92t-126 174t-47 261.5q0 279 153.5 413.5t389.5 134.5q229 0 372.5 -131t143.5 -422q0 -47 -6 -83h-735q25 -215 231 -216q168 0 201 127h295q-37 -182 -170 -281t-332 -99zM135 1477h299l133 -207l133 207h299l-194 -293h-475z M373 643h422q-6 80 -53.5 134t-153.5 54q-184 0 -215 -188z" glyph-name="ecaron" horiz-adv-x="1163" unicode="ě"/><glyph d="M750 -20q-328 0 -502 194.5t-174 534.5q0 348 180 545.5t487 197.5q246 0 420 -125t203 -371h-342q-45 199 -281 199q-319 0 -319 -434q0 -197 75.5 -321t250.5 -124q115 0 202.5 57.5t89.5 192.5h-252v279h596v-164q0 -324 -166.5 -492.5t-467.5 -168.5zM311 1552 l195 293h475l195 -293h-299l-134 207l-133 -207h-299z" glyph-name="Gcircumflex" horiz-adv-x="1468" unicode="Ĝ"/><glyph d="M498 29q-82 0 -158 28.5t-142.5 88t-105.5 165t-39 246.5q0 139 40 245.5t106.5 166t141.5 88t157 28.5q197 0 297 -133v113h335v-1020q0 -117 -38.5 -205t-96 -137t-136.5 -81t-146.5 -41t-139.5 -9q-63 0 -121.5 6t-130 29.5t-124 62.5t-89 111t-36.5 166h297 q4 -63 63.5 -90t130.5 -27q102 0 167 53.5t65 161.5v117q-100 -133 -297 -133zM164 1184l194 293h476l194 -293h-299l-133 207l-133 -207h-299zM369 557q0 -121 63.5 -185.5t159.5 -64.5q94 0 155.5 64.5t61.5 185.5t-61.5 185.5t-155.5 64.5q-96 0 -159.5 -64.5 t-63.5 -185.5z" glyph-name="gcircumflex" horiz-adv-x="1234" unicode="ĝ"/><glyph d="M750 -20q-328 0 -502 194.5t-174 534.5q0 348 180 545.5t487 197.5q246 0 420 -125t203 -371h-342q-45 199 -281 199q-319 0 -319 -434q0 -197 75.5 -321t250.5 -124q115 0 202.5 57.5t89.5 192.5h-252v279h596v-164q0 -324 -166.5 -492.5t-467.5 -168.5zM395 1845h219 q2 -74 33 -104.5t92.5 -30.5t92 31t32.5 104h219q0 -156 -89 -241.5t-255 -85.5q-164 0 -254 85.5t-90 241.5z" glyph-name="Gbreve" horiz-adv-x="1468" unicode="Ğ"/><glyph d="M498 29q-82 0 -158 28.5t-142.5 88t-105.5 165t-39 246.5q0 139 40 245.5t106.5 166t141.5 88t157 28.5q197 0 297 -133v113h335v-1020q0 -117 -38.5 -205t-96 -137t-136.5 -81t-146.5 -41t-139.5 -9q-63 0 -121.5 6t-130 29.5t-124 62.5t-89 111t-36.5 166h297 q4 -63 63.5 -90t130.5 -27q102 0 167 53.5t65 161.5v117q-100 -133 -297 -133zM248 1477h219q2 -74 32.5 -105t92 -31t92.5 31t33 105h219q0 -156 -89 -242t-255 -86q-164 0 -254 86t-90 242zM369 557q0 -121 63.5 -185.5t159.5 -64.5q94 0 155.5 64.5t61.5 185.5 t-61.5 185.5t-155.5 64.5q-96 0 -159.5 -64.5t-63.5 -185.5z" glyph-name="gbreve" horiz-adv-x="1234" unicode="ğ"/><glyph d="M750 -20q-328 0 -502 194.5t-174 534.5q0 348 180 545.5t487 197.5q246 0 420 -125t203 -371h-342q-45 199 -281 199q-319 0 -319 -434q0 -197 75.5 -321t250.5 -124q115 0 202.5 57.5t89.5 192.5h-252v279h596v-164q0 -324 -166.5 -492.5t-467.5 -168.5zM561 1712 q0 74 54.5 126t125.5 52q74 0 128.5 -52t54.5 -126t-54.5 -125t-128.5 -51q-72 0 -126 52t-54 124z" glyph-name="Gdotaccent" horiz-adv-x="1468" unicode="Ġ"/><glyph d="M498 29q-82 0 -158 28.5t-142.5 88t-105.5 165t-39 246.5q0 139 40 245.5t106.5 166t141.5 88t157 28.5q197 0 297 -133v113h335v-1020q0 -117 -38.5 -205t-96 -137t-136.5 -81t-146.5 -41t-139.5 -9q-63 0 -121.5 6t-130 29.5t-124 62.5t-89 111t-36.5 166h297 q4 -63 63.5 -90t130.5 -27q102 0 167 53.5t65 161.5v117q-100 -133 -297 -133zM369 557q0 -121 63.5 -185.5t159.5 -64.5q94 0 155.5 64.5t61.5 185.5t-61.5 185.5t-155.5 64.5q-96 0 -159.5 -64.5t-63.5 -185.5zM414 1343q0 74 54 126.5t126 52.5q74 0 128 -52.5t54 -126 t-54 -125t-128 -51.5q-72 0 -126 52t-54 124z" glyph-name="gdotaccent" horiz-adv-x="1234" unicode="ġ"/><glyph d="M750 -20q-328 0 -502 194.5t-174 534.5q0 348 180 545.5t487 197.5q246 0 420 -125t203 -371h-342q-45 199 -281 199q-319 0 -319 -434q0 -197 75.5 -321t250.5 -124q115 0 202.5 57.5t89.5 192.5h-252v279h596v-164q0 -324 -166.5 -492.5t-467.5 -168.5zM555 -260 q0 82 55.5 133t141.5 51q98 0 159.5 -70.5t61.5 -213.5q0 -170 -90 -266.5t-244 -96.5h-25v133q94 2 133 33t39 100q-109 2 -170 57.5t-61 139.5z" glyph-name="Gcommaaccent" horiz-adv-x="1468" unicode="Ģ"/><glyph d="M498 29q-82 0 -158 28.5t-142.5 88t-105.5 165t-39 246.5q0 139 40 245.5t106.5 166t141.5 88t157 28.5q197 0 297 -133v113h335v-1020q0 -117 -38.5 -205t-96 -137t-136.5 -81t-146.5 -41t-139.5 -9q-63 0 -121.5 6t-130 29.5t-124 62.5t-89 111t-36.5 166h297 q4 -63 63.5 -90t130.5 -27q102 0 167 53.5t65 161.5v117q-100 -133 -297 -133zM342 1448q0 170 90 266t244 96h24v-133q-94 -2 -133 -32.5t-39 -100.5q109 -2 170.5 -57t61.5 -139q0 -82 -55.5 -133.5t-141.5 -51.5q-98 0 -159.5 71t-61.5 214zM369 557q0 -121 63.5 -185.5 t159.5 -64.5q94 0 155.5 64.5t61.5 185.5t-61.5 185.5t-155.5 64.5q-96 0 -159.5 -64.5t-63.5 -185.5z" glyph-name="gcommaaccent" horiz-adv-x="1234" unicode="ģ"/><glyph d="M956 0v578h-510v-578h-342v1434h342v-572h510v572h344v-1434h-344zM272 1552l195 293h475l195 -293h-299l-133 207l-134 -207h-299z" glyph-name="Hcircumflex" horiz-adv-x="1402" unicode="Ĥ"/><glyph d="M104 0v1434h232l29 43h475l194 -293h-299l-133 207l-133 -207h-29v-344h13q18 94 103 169.5t228 75.5q162 0 263.5 -105.5t101.5 -299.5v-680h-336v598q0 211 -176 211q-86 0 -141.5 -52t-55.5 -159v-598h-336z" glyph-name="hcircumflex" horiz-adv-x="1253" unicode="ĥ"/><glyph d="M956 0v578h-510v-578h-342v1434h342v-193h510v193h344v-1434h-344zM446 862h510v94h-510v-94z" glyph-name="Hbar" horiz-adv-x="1402" unicode="Ħ"/><glyph d="M-31 1190v145h135v99h336v-99h291v-145h-291v-350h13q18 94 103 169.5t228 75.5q162 0 263.5 -105.5t101.5 -299.5v-680h-336v598q0 211 -176 211q-86 0 -141.5 -52t-55.5 -159v-598h-336v1190h-135z" glyph-name="hbar" horiz-adv-x="1251" unicode="ħ"/><glyph d="M104 0v1434h342v-1434h-342zM-92 1622q0 117 54 182.5t159 65.5q68 0 119 -26.5t83.5 -53.5t57.5 -27q61 0 63 52h195q0 -119 -54.5 -184.5t-158.5 -65.5q-53 0 -97 17t-67.5 36.5t-49.5 37t-46 17.5q-61 0 -64 -51h-194z" glyph-name="Itilde" horiz-adv-x="550" unicode="Ĩ"/><glyph d="M90 0v1065h336v-1065h-336zM-106 1253q0 117 54 182.5t158 65.5q68 0 119 -26.5t84 -53t58 -26.5q61 0 63 51h195q0 -119 -54.5 -184.5t-158.5 -65.5q-53 0 -97.5 17.5t-68 37t-49 37t-45.5 17.5q-61 0 -64 -52h-194z" glyph-name="itilde" horiz-adv-x="516" unicode="ĩ"/><glyph d="M104 0v1434h342v-1434h-342zM-72 1655v190h690v-190h-690z" glyph-name="Imacron" horiz-adv-x="550" unicode="Ī"/><glyph d="M90 0v1065h336v-1065h-336zM-86 1286v191h690v-191h-690z" glyph-name="imacron" horiz-adv-x="516" unicode="ī"/><glyph d="M319 -395q-31 -18 -93 -20.5t-127.5 15t-115 73t-49.5 139.5q0 86 47.5 145t122.5 90v1387h342v-1434q-127 0 -195.5 -45t-68.5 -105q0 -47 42 -65t95 4v-184z" glyph-name="Iogonek" horiz-adv-x="550" unicode="Į"/><glyph d="M262 1167q-72 0 -126 52.5t-54 123.5q0 74 54 126.5t126 52.5q74 0 128 -52.5t54 -126t-54 -125t-128 -51.5zM-86 -188q0 86 49 147t127 92v1014h336v-1065q-127 0 -195.5 -45t-68.5 -105q0 -47 42 -65t95 4v-184q-31 -18 -93.5 -20.5t-128 15t-114.5 73t-49 139.5z" glyph-name="iogonek" horiz-adv-x="516" unicode="į"/><glyph d="M104 0v1434h342v-1434h-342zM96 1712q0 74 54.5 126t125.5 52q74 0 128.5 -52t54.5 -126t-54.5 -125t-128.5 -51q-72 0 -126 52t-54 124z" glyph-name="Idotaccent" horiz-adv-x="550" unicode="İ"/><glyph d="M90 0v1065h336v-1065h-336z" glyph-name="dotlessi" horiz-adv-x="516" unicode="ı"/><glyph d="M104 0v1434h342v-1434h-342zM655 549h346q0 -135 66 -202.5t184 -67.5q250 0 250 292v863h344v-891q0 -279 -161.5 -421t-434 -142t-433.5 143t-161 426z" glyph-name="IJ" horiz-adv-x="1947" unicode="Ĳ"/><glyph d="M104 0v1065h336v-1065h-336zM90 1347.5q0 75.5 54.5 128t127.5 52.5q72 0 126.5 -52.5t54.5 -128t-54.5 -128t-126.5 -52.5q-74 0 -128 52.5t-54 128zM422 -395v260h113q113 0 112 133v1067h336v-1116q0 -350 -371 -350q-143 0 -190 6zM635 1348q0 78 53 129t127 51 t127 -51.5t53 -128.5q0 -76 -53 -128.5t-127 -52.5t-127 52.5t-53 128.5z" glyph-name="ij" horiz-adv-x="1087" unicode="ĳ"/><glyph d="M698.5 -20q-272.5 0 -433.5 143t-161 426h347q0 -135 65.5 -202.5t183.5 -67.5q250 0 250 292v863h344v-891q0 -279 -161.5 -421t-434 -142zM702 1552l195 293h475l195 -293h-299l-133 207l-134 -207h-299z" glyph-name="Jcircumflex" horiz-adv-x="1398" unicode="Ĵ"/><glyph d="M90 -401q-143 0 -190 6v260h112q113 0 113 133v1067h336v-1116q0 -350 -371 -350zM-141 1184l194 293h475l195 -293h-299l-133 207l-133 -207h-299z" glyph-name="jcircumflex" horiz-adv-x="550" unicode="ĵ"/><glyph d="M104 0v1434h342v-646l535 646h403l-536 -635l594 -799h-395l-410 551l-191 -225v-326h-342zM524 -260q0 82 55.5 133t141.5 51q98 0 159.5 -70.5t61.5 -213.5q0 -170 -90 -266.5t-244 -96.5h-24v133q94 2 133 33t39 100q-109 2 -170.5 57.5t-61.5 139.5z" glyph-name="Kcommaaccent" horiz-adv-x="1472" unicode="Ķ"/><glyph d="M104 0v1434h336v-766l348 397h367l-426 -451l481 -614h-368l-318 397l-84 -90v-307h-336zM436 -260q0 82 55.5 133t141.5 51q98 0 159.5 -70.5t61.5 -213.5q0 -170 -90 -266.5t-244 -96.5h-24v133q94 2 133 33t39 100q-109 2 -170.5 57.5t-61.5 139.5z" glyph-name="kcommaaccent" horiz-adv-x="1220" unicode="ķ"/><glyph d="M104 0v1434h342v-1135h641v-299h-983zM113 1556l219 289h289l-220 -289h-288z" glyph-name="Lacute" horiz-adv-x="1138" unicode="Ĺ"/><glyph d="M104 0v1434h336v-1434h-336zM115 1556l219 289h289l-220 -289h-288z" glyph-name="lacute" horiz-adv-x="542" unicode="ĺ"/><glyph d="M104 0v1434h342v-1135h641v-299h-983zM385 -270q0 82 55.5 133t141.5 51q98 0 159.5 -70.5t61.5 -214.5q0 -170 -90 -266t-244 -96h-25v133q94 2 133 32.5t39 100.5q-109 2 -170 57.5t-61 139.5z" glyph-name="Lcommaaccent" horiz-adv-x="1138" unicode="Ļ"/><glyph d="M104 0v1434h336v-1434h-336zM66 -260q0 82 55 133t141 51q98 0 159.5 -70.5t61.5 -213.5q0 -170 -90 -266.5t-243 -96.5h-25v133q94 2 133 33t39 100q-109 2 -170 57.5t-61 139.5z" glyph-name="lcommaaccent" horiz-adv-x="542" unicode="ļ"/><glyph d="M104 0v1434h342v-1135h641v-299h-983zM623 1264q0 82 55 133t141 51q98 0 159.5 -70.5t61.5 -214.5q0 -170 -90 -266t-243 -96h-25v133q94 2 133 32.5t39 100.5q-109 2 -170 57.5t-61 139.5z" glyph-name="Lcaron" horiz-adv-x="1138" unicode="Ľ"/><glyph d="M526 805l86 629h269l-86 -629h-269zM104 0v1434h336v-1434h-336z" glyph-name="lcaron" horiz-adv-x="737" unicode="ľ"/><glyph d="M23 246v332l116 124v732h342v-365l137 148h5v-330l-142 -152v-436h641v-299h-983v371z" glyph-name="Lslash" horiz-adv-x="1173" unicode="Ł"/><glyph d="M10 291v299l109 119v725h336v-361l100 109h2v-297l-102 -111v-774h-336v410z" glyph-name="lslash" horiz-adv-x="567" unicode="ł"/><glyph d="M104 0v1434h355l528 -879h8v879h344v-1434h-368l-516 856h-9v-856h-342zM565 1556l219 289h289l-219 -289h-289z" glyph-name="Nacute" horiz-adv-x="1441" unicode="Ń"/><glyph d="M813 598q0 211 -176 211q-86 0 -141.5 -52t-55.5 -159v-598h-336v1065h336v-225h13q18 94 103 169.5t228 75.5q162 0 263.5 -105.5t101.5 -299.5v-680h-336v598zM471 1188l219 289h289l-219 -289h-289z" glyph-name="nacute" horiz-adv-x="1253" unicode="ń"/><glyph d="M104 0v1434h355l528 -879h8v879h344v-1434h-368l-516 856h-9v-856h-342zM516 -260q0 82 55.5 133t141.5 51q98 0 159.5 -70.5t61.5 -213.5q0 -170 -90 -266.5t-244 -96.5h-25v133q94 2 133.5 33t39.5 100q-109 2 -170.5 57.5t-61.5 139.5z" glyph-name="Ncommaaccent" horiz-adv-x="1441" unicode="Ņ"/><glyph d="M813 598q0 211 -176 211q-86 0 -141.5 -52t-55.5 -159v-598h-336v1065h336v-225h13q18 94 103 169.5t228 75.5q162 0 263.5 -105.5t101.5 -299.5v-680h-336v598zM422 -260q0 82 55 133t141 51q98 0 160 -70.5t62 -213.5q0 -170 -90.5 -266.5t-243.5 -96.5h-25v133 q94 2 133 33t39 100q-109 2 -170 57.5t-61 139.5z" glyph-name="ncommaaccent" horiz-adv-x="1253" unicode="ņ"/><glyph d="M104 0v1434h355l528 -879h8v879h344v-1434h-368l-516 856h-9v-856h-342zM279 1845h299l133 -207l133 207h299l-195 -293h-475z" glyph-name="Ncaron" horiz-adv-x="1441" unicode="Ň"/><glyph d="M813 598q0 211 -176 211q-86 0 -141.5 -52t-55.5 -159v-598h-336v1065h336v-225h13q18 94 103 169.5t228 75.5q162 0 263.5 -105.5t101.5 -299.5v-680h-336v598zM182 1477h299l133 -207l134 207h299l-195 -293h-475z" glyph-name="ncaron" horiz-adv-x="1253" unicode="ň"/><glyph d="M754 -451q-164 0 -273 56v311q135 -68 258 -68q184 0 236 158l-520 838h-9v-844h-342v1434h345l538 -871h8v871h344v-1319q0 -279 -161.5 -422.5t-423.5 -143.5z" glyph-name="Eng" horiz-adv-x="1441" unicode="Ŋ"/><glyph d="M799 -451q-139 0 -226 35v271q78 -20 132 -21q111 0 110 121v45h-2v598q0 211 -176 211q-86 0 -141.5 -52t-55.5 -159v-598h-336v1065h336v-225h13q18 94 103 169.5t228 75.5q162 0 263.5 -105.5t101.5 -299.5v-680h2v-104q0 -172 -93 -259.5t-259 -87.5z" glyph-name="eng" horiz-adv-x="1255" unicode="ŋ"/><glyph d="M766 -20q-315 0 -503.5 205.5t-188.5 531.5q0 328 188.5 531.5t503.5 203.5t504.5 -204t189.5 -531q0 -326 -189.5 -531.5t-504.5 -205.5zM422 1655v190h690v-190h-690zM428 717q0 -199 87 -320t251 -121t251 121t87 320q0 201 -87 319.5t-251 118.5t-251 -118.5 t-87 -319.5z" glyph-name="Omacron" horiz-adv-x="1531" unicode="Ō"/><glyph d="M594 -20q-104 0 -198.5 32.5t-172.5 96t-124 173t-46 251t46 251t124 173t172 96t199 32.5q141 0 260 -54t200 -183t81 -315.5t-81 -315.5t-200 -183t-260 -54zM248 1286v191h690v-191h-690zM367 532.5q0 -135.5 62.5 -205t164.5 -69.5t163.5 69.5t61.5 205t-61.5 205 t-163.5 69.5t-164.5 -69.5t-62.5 -205z" glyph-name="omacron" horiz-adv-x="1185" unicode="ō"/><glyph d="M766 -20q-315 0 -503.5 205.5t-188.5 531.5q0 328 188.5 531.5t503.5 203.5t504.5 -204t189.5 -531q0 -326 -189.5 -531.5t-504.5 -205.5zM387 1556l219 289h289l-219 -289h-289zM428 717q0 -199 87 -320t251 -121t251 121t87 320q0 201 -87 319.5t-251 118.5 t-251 -118.5t-87 -319.5zM782 1556l219 289h289l-219 -289h-289z" glyph-name="Ohungarumlaut" horiz-adv-x="1531" unicode="Ő"/><glyph d="M594 -20q-104 0 -198.5 32.5t-172.5 96t-124 173t-46 251t46 251t124 173t172 96t199 32.5q141 0 260 -54t200 -183t81 -315.5t-81 -315.5t-200 -183t-260 -54zM215 1188l219 289h289l-219 -289h-289zM367 532.5q0 -135.5 62.5 -205t164.5 -69.5t163.5 69.5t61.5 205 t-61.5 205t-163.5 69.5t-164.5 -69.5t-62.5 -205zM610 1188l219 289h289l-219 -289h-289z" glyph-name="ohungarumlaut" horiz-adv-x="1185" unicode="ő"/><glyph d="M766 -20q-315 0 -503.5 205.5t-188.5 531.5q0 328 188.5 531.5t503.5 203.5q190 0 344 -80v62h997v-299h-655v-279h594v-266h-594v-291h676v-299h-1018v61q-151 -81 -344 -81zM428 717q0 -199 87 -320t251 -121t251 121t87 320q0 201 -87 319.5t-251 118.5t-251 -118.5 t-87 -319.5z" glyph-name="OE" horiz-adv-x="2179" unicode="Œ"/><glyph d="M594 -20q-104 0 -198.5 32.5t-172.5 96t-124 173t-46 251t46 251t124 173t172 96t199 32.5q233 0 381 -139q145 139 393 139q229 0 372.5 -131t143.5 -422q0 -47 -6 -83h-735q25 -215 231 -216q168 0 201 127h295q-37 -182 -170 -281t-332 -99q-244 0 -391 141 q-147 -141 -383 -141zM367 532.5q0 -135.5 62.5 -205t164.5 -69.5t163.5 69.5t61.5 205t-61.5 205t-163.5 69.5t-164.5 -69.5t-62.5 -205zM1145 643h422q-6 80 -53.5 134t-153.5 54q-184 0 -215 -188z" glyph-name="oe" horiz-adv-x="1935" unicode="œ"/><glyph d="M940 0q-20 41 -20 174v121q0 205 -211 205h-263v-500h-342v1434h613q270 0 404 -120t134 -306q0 -238 -225 -353q98 -33 151.5 -93t67 -119.5t13.5 -147.5v-121q0 -133 20 -174h-342zM408 1556l219 289h288l-219 -289h-288zM446 776h259q92 0 145 48t53 134 q0 174 -198 175h-259v-357z" glyph-name="Racute" horiz-adv-x="1376" unicode="Ŕ"/><glyph d="M440 446v-446h-336v1065h336v-264h9q63 272 301 272q41 0 81 -10v-283q-51 6 -86 6q-129 0 -217 -78t-88 -262zM317 1188l220 289h288l-219 -289h-289z" glyph-name="racute" horiz-adv-x="862" unicode="ŕ"/><glyph d="M940 0q-20 41 -20 174v121q0 205 -211 205h-263v-500h-342v1434h613q270 0 404 -120t134 -306q0 -238 -225 -353q98 -33 151.5 -93t67 -119.5t13.5 -147.5v-121q0 -133 20 -174h-342zM358 -260q0 82 55.5 133t141.5 51q98 0 159.5 -70.5t61.5 -213.5q0 -170 -90 -266.5 t-244 -96.5h-24v133q94 2 133 33t39 100q-109 2 -170.5 57.5t-61.5 139.5zM446 776h259q92 0 145 48t53 134q0 174 -198 175h-259v-357z" glyph-name="Rcommaaccent" horiz-adv-x="1376" unicode="Ŗ"/><glyph d="M440 446v-446h-336v1065h336v-264h9q63 272 301 272q41 0 81 -10v-283q-51 6 -86 6q-129 0 -217 -78t-88 -262zM70 -260q0 82 55 133t141 51q98 0 159.5 -70.5t61.5 -213.5q0 -170 -90 -266.5t-243 -96.5h-25v133q94 2 133 33t39 100q-109 2 -170 57.5t-61 139.5z" glyph-name="rcommaaccent" horiz-adv-x="862" unicode="ŗ"/><glyph d="M940 0q-20 41 -20 174v121q0 205 -211 205h-263v-500h-342v1434h613q270 0 404 -120t134 -306q0 -238 -225 -353q98 -33 151.5 -93t67 -119.5t13.5 -147.5v-121q0 -133 20 -174h-342zM121 1845h299l133 -207l133 207h299l-194 -293h-476zM446 776h259q92 0 145 48t53 134 q0 174 -198 175h-259v-357z" glyph-name="Rcaron" horiz-adv-x="1376" unicode="Ř"/><glyph d="M440 446v-446h-336v1065h336v-264h9q63 272 301 272q41 0 81 -10v-283q-51 6 -86 6q-129 0 -217 -78t-88 -262zM29 1477h299l133 -207l133 207h299l-195 -293h-475z" glyph-name="rcaron" horiz-adv-x="862" unicode="ř"/><glyph d="M684 -20q-285 0 -447.5 130t-162.5 373h356q4 -98 65.5 -158.5t190.5 -60.5q109 0 170.5 42t61.5 120q0 61 -42 95t-137 52l-204 41q-190 35 -306 129.5t-116 280.5q0 209 154.5 318.5t412.5 109.5q262 0 413.5 -115.5t151.5 -341.5h-356q4 88 -57.5 130t-159.5 42 q-102 0 -150.5 -42t-48.5 -101q0 -106 143 -135l185 -37q262 -51 371.5 -153.5t109.5 -270.5q0 -154 -84 -257t-214 -147t-300 -44zM506 1556l219 289h289l-219 -289h-289z" glyph-name="Sacute" horiz-adv-x="1355" unicode="Ś"/><glyph d="M510 -20q-225 0 -347 97t-120 285h299q16 -133 170 -133q141 0 141 88q0 61 -80 74l-194 43q-309 66 -309 318q0 156 122.5 244.5t323.5 88.5q217 0 331 -101t114 -282h-279q-16 133 -162 134q-125 0 -125 -76q0 -72 92 -84l203 -45q309 -66 309 -305q0 -170 -137 -258 t-352 -88zM358 1188l220 289h288l-219 -289h-289z" glyph-name="sacute" horiz-adv-x="1040" unicode="ś"/><glyph d="M684 -20q-285 0 -447.5 130t-162.5 373h356q4 -98 65.5 -158.5t190.5 -60.5q109 0 170.5 42t61.5 120q0 61 -42 95t-137 52l-204 41q-190 35 -306 129.5t-116 280.5q0 209 154.5 318.5t412.5 109.5q262 0 413.5 -115.5t151.5 -341.5h-356q4 88 -57.5 130t-159.5 42 q-102 0 -150.5 -42t-48.5 -101q0 -106 143 -135l185 -37q262 -51 371.5 -153.5t109.5 -270.5q0 -154 -84 -257t-214 -147t-300 -44zM233 1552l195 293h475l195 -293h-299l-133 207l-134 -207h-299z" glyph-name="Scircumflex" horiz-adv-x="1355" unicode="Ŝ"/><glyph d="M510 -20q-225 0 -347 97t-120 285h299q16 -133 170 -133q141 0 141 88q0 61 -80 74l-194 43q-309 66 -309 318q0 156 122.5 244.5t323.5 88.5q217 0 331 -101t114 -282h-279q-16 133 -162 134q-125 0 -125 -76q0 -72 92 -84l203 -45q309 -66 309 -305q0 -170 -137 -258 t-352 -88zM86 1184l195 293h475l194 -293h-299l-133 207l-133 -207h-299z" glyph-name="scircumflex" horiz-adv-x="1040" unicode="ŝ"/><glyph d="M494 -373q131 -4 131 68q0 45 -45 57t-84 -16l-86 108l135 144q-223 31 -347 156.5t-124 338.5h356q4 -98 65.5 -158.5t190.5 -60.5q109 0 170.5 42t61.5 120q0 61 -42 95t-137 52l-204 41q-190 35 -306 129.5t-116 280.5q0 209 154.5 318.5t412.5 109.5 q262 0 413.5 -115.5t151.5 -341.5h-356q4 88 -57.5 130t-159.5 42q-102 0 -150.5 -42t-48.5 -101q0 -106 143 -135l185 -37q262 -51 371.5 -153.5t109.5 -270.5q0 -211 -146.5 -322.5t-381.5 -123.5l-97 -91h13q80 0 131 -57t51 -141q0 -123 -103.5 -174t-254.5 -51v159z " glyph-name="Scedilla" horiz-adv-x="1355" unicode="Ş"/><glyph d="M352 -373q131 -4 131 68q0 45 -45 57t-84 -16l-86 108l133 142q-176 23 -268 119t-90 257h299q16 -133 170 -133q141 0 141 88q0 61 -80 74l-194 43q-309 66 -309 318q0 156 122.5 244.5t323.5 88.5q217 0 331 -101t114 -282h-279q-16 133 -162 134q-125 0 -125 -76 q0 -72 92 -84l203 -45q309 -66 309 -305q0 -147 -105.5 -234.5t-277.5 -105.5l-100 -95h12q80 0 131.5 -57t51.5 -141q0 -123 -103.5 -174t-255.5 -51v159z" glyph-name="scedilla" horiz-adv-x="1040" unicode="ş"/><glyph d="M684 -20q-285 0 -447.5 130t-162.5 373h356q4 -98 65.5 -158.5t190.5 -60.5q109 0 170.5 42t61.5 120q0 61 -42 95t-137 52l-204 41q-190 35 -306 129.5t-116 280.5q0 209 154.5 318.5t412.5 109.5q262 0 413.5 -115.5t151.5 -341.5h-356q4 88 -57.5 130t-159.5 42 q-102 0 -150.5 -42t-48.5 -101q0 -106 143 -135l185 -37q262 -51 371.5 -153.5t109.5 -270.5q0 -154 -84 -257t-214 -147t-300 -44zM217 1845h299l133 -207l133 207h299l-194 -293h-475z" glyph-name="Scaron" horiz-adv-x="1355" unicode="Š"/><glyph d="M510 -20q-225 0 -347 97t-120 285h299q16 -133 170 -133q141 0 141 88q0 61 -80 74l-194 43q-309 66 -309 318q0 156 122.5 244.5t323.5 88.5q217 0 331 -101t114 -282h-279q-16 133 -162 134q-125 0 -125 -76q0 -72 92 -84l203 -45q309 -66 309 -305q0 -170 -137 -258 t-352 -88zM70 1477h299l133 -207l133 207h299l-195 -293h-475z" glyph-name="scaron" horiz-adv-x="1040" unicode="š"/><glyph d="M449 0v1128h-406v306h1157v-306h-407v-1128h-127l-115 -109h12q80 0 131 -57t51 -141q0 -123 -103 -174t-255 -51v159q131 -4 131 68q0 45 -45 57t-84 -16l-86 108z" glyph-name="Tcommaaccent" horiz-adv-x="1241" unicode="Ţ"/><glyph d="M33 805v260h182v278h336v-278h209v-260h-209v-420q0 -63 26.5 -98t102.5 -35q41 0 88 4v-248q-47 -14 -113 -20l-102 -97h12q80 0 131.5 -57t51.5 -141q0 -123 -103.5 -174t-255.5 -51v159q131 -4 131 68q0 45 -45 57t-84 -16l-86 108l146 156h8q-244 59 -244 338v467 h-182z" glyph-name="tcommaaccent" horiz-adv-x="808" unicode="ţ"/><glyph d="M449 0v1128h-406v306h1157v-306h-407v-1128h-344zM176 1845h299l133 -207l133 207h299l-194 -293h-475z" glyph-name="Tcaron" horiz-adv-x="1241" unicode="Ť"/><glyph d="M592 -14q-377 0 -377 352v467h-182v260h182v278h336v-278h209v-260h-209v-420q0 -63 26.5 -98t102.5 -35q41 0 88 4v-248q-80 -22 -176 -22zM596 1182l219 288h289l-219 -288h-289z" glyph-name="tcaron" horiz-adv-x="808" unicode="ť"/><glyph d="M160 737v226h289v165h-406v306h1157v-306h-407v-165h286v-226h-286v-737h-344v737h-289z" glyph-name="Tbar" horiz-adv-x="1241" unicode="Ŧ"/><glyph d="M33 467v258h182v80h-182v260h182v278h336v-278h209v-260h-209v-80h209v-258h-209v-82q0 -63 26.5 -98t102.5 -35q41 0 88 4v-248q-80 -23 -176 -22q-377 0 -377 352v129h-182z" glyph-name="tbar" horiz-adv-x="808" unicode="ŧ"/><glyph d="M707 -20q-279 0 -441 142t-162 423v889h347v-863q0 -143 67.5 -217.5t188 -74.5t186 74.5t65.5 217.5v863h349v-889q0 -281 -163 -423t-437 -142zM311 1622q0 117 54.5 182.5t158.5 65.5q68 0 119 -26.5t84 -53.5t57 -27q61 0 64 52h194q0 -119 -54 -184.5t-159 -65.5 q-53 0 -97 17t-67.5 36.5t-49 37t-46.5 17.5q-61 0 -63 -51h-195z" glyph-name="Utilde" horiz-adv-x="1409" unicode="Ũ"/><glyph d="M440 467q0 -211 176 -211q86 0 141.5 52t55.5 159v598h336v-1065h-336v225h-12q-18 -94 -103.5 -169.5t-228.5 -75.5q-162 0 -263.5 105t-101.5 300v680h336v-598zM258 1253q0 117 54.5 182.5t158.5 65.5q68 0 119 -26.5t84 -53t57 -26.5q61 0 64 51h194 q0 -119 -54 -184.5t-159 -65.5q-53 0 -97 17.5t-67.5 37t-49 37t-46.5 17.5q-61 0 -63 -52h-195z" glyph-name="utilde" horiz-adv-x="1253" unicode="ũ"/><glyph d="M707 -20q-279 0 -441 142t-162 423v889h347v-863q0 -143 67.5 -217.5t188 -74.5t186 74.5t65.5 217.5v863h349v-889q0 -281 -163 -423t-437 -142zM332 1655v190h690v-190h-690z" glyph-name="Umacron" horiz-adv-x="1409" unicode="Ū"/><glyph d="M440 467q0 -211 176 -211q86 0 141.5 52t55.5 159v598h336v-1065h-336v225h-12q-18 -94 -103.5 -169.5t-228.5 -75.5q-162 0 -263.5 105t-101.5 300v680h336v-598zM279 1286v191h690v-191h-690z" glyph-name="umacron" horiz-adv-x="1253" unicode="ū"/><glyph d="M707 -20q-279 0 -441 142t-162 423v889h347v-863q0 -143 67.5 -217.5t188 -74.5t186 74.5t65.5 217.5v863h349v-889q0 -281 -163 -423t-437 -142zM334 1845h219q2 -74 32.5 -104.5t92 -30.5t92.5 31t33 104h219q0 -156 -89 -241.5t-255 -85.5q-164 0 -254 85.5t-90 241.5 z" glyph-name="Ubreve" horiz-adv-x="1409" unicode="Ŭ"/><glyph d="M440 467q0 -211 176 -211q86 0 141.5 52t55.5 159v598h336v-1065h-336v225h-12q-18 -94 -103.5 -169.5t-228.5 -75.5q-162 0 -263.5 105t-101.5 300v680h336v-598zM279 1477h219q2 -74 32.5 -105t92 -31t92 31t33.5 105h219q0 -156 -89.5 -242t-254.5 -86q-164 0 -254 86 t-90 242z" glyph-name="ubreve" horiz-adv-x="1253" unicode="ŭ"/><glyph d="M707 -20q-279 0 -441 142t-162 423v889h347v-863q0 -143 67.5 -217.5t188 -74.5t186 74.5t65.5 217.5v863h349v-889q0 -281 -163 -423t-437 -142zM455 1718q0 90 63.5 151.5t157.5 61.5t156.5 -61.5t62.5 -151.5t-62.5 -151.5t-156.5 -61.5t-157.5 61.5t-63.5 151.5z M608 1718.5q0 -30.5 18.5 -49t49.5 -18.5q29 0 48 18.5t19 49t-19 49t-48 18.5t-48.5 -18.5t-19.5 -49z" glyph-name="Uring" horiz-adv-x="1409" unicode="Ů"/><glyph d="M440 467q0 -211 176 -211q86 0 141.5 52t55.5 159v598h336v-1065h-336v225h-12q-18 -94 -103.5 -169.5t-228.5 -75.5q-162 0 -263.5 105t-101.5 300v680h336v-598zM401 1350q0 90 63.5 151.5t158 61.5t157 -61.5t62.5 -151.5t-62.5 -151.5t-157 -61.5t-158 61.5 t-63.5 151.5zM555 1349.5q0 -30.5 18.5 -49t49.5 -18.5q29 0 48 18.5t19 49t-19.5 49t-48 18.5t-48 -18.5t-19.5 -49z" glyph-name="uring" horiz-adv-x="1253" unicode="ů"/><glyph d="M707 -20q-279 0 -441 142t-162 423v889h347v-863q0 -143 67.5 -217.5t188 -74.5t186 74.5t65.5 217.5v863h349v-889q0 -281 -163 -423t-437 -142zM299 1556l219 289h289l-219 -289h-289zM694 1556l219 289h289l-219 -289h-289z" glyph-name="Uhungarumlaut" horiz-adv-x="1409" unicode="Ű"/><glyph d="M440 467q0 -211 176 -211q86 0 141.5 52t55.5 159v598h336v-1065h-336v225h-12q-18 -94 -103.5 -169.5t-228.5 -75.5q-162 0 -263.5 105t-101.5 300v680h336v-598zM244 1188l219 289h289l-220 -289h-288zM639 1188l219 289h289l-219 -289h-289z" glyph-name="uhungarumlaut" horiz-adv-x="1253" unicode="ű"/><glyph d="M827 -395q-33 -18 -94 -20.5t-127.5 15t-115 73t-48.5 139.5q0 113 86 184q-201 41 -312.5 179t-111.5 370v889h347v-863q0 -143 67.5 -217.5t188 -74.5t186 74.5t65.5 217.5v863h349v-889q0 -242 -123 -382t-336 -173q-78 -16 -118 -55t-40 -85q0 -47 42 -65t95 4v-184z " glyph-name="Uogonek" horiz-adv-x="1411" unicode="Ų"/><glyph d="M440 467q0 -211 176 -211q86 0 141.5 52t55.5 159v598h336v-1065q-127 0 -195.5 -45t-68.5 -105q0 -47 42 -65t95 4v-184q-31 -18 -93.5 -20.5t-128 15t-114.5 73t-49 139.5q0 86 49 147t127 92v174h-12q-18 -94 -103.5 -169.5t-228.5 -75.5q-162 0 -263.5 105 t-101.5 300v680h336v-598z" glyph-name="uogonek" horiz-adv-x="1253" unicode="ų"/><glyph d="M412 0l-369 1434h352l211 -949h12l256 949h353l256 -949h12l211 949h354l-370 -1434h-357l-282 1001l-283 -1001h-356zM616 1552l195 293h475l195 -293h-299l-133 207l-134 -207h-299z" glyph-name="Wcircumflex" horiz-adv-x="2101" unicode="Ŵ"/><glyph d="M309 0l-276 1065h315l166 -741h8l191 741h288l191 -741h8l166 741h317l-278 -1065h-377l-170 618l-170 -618h-379zM422 1184l194 293h476l194 -293h-299l-133 207l-133 -207h-299z" glyph-name="wcircumflex" horiz-adv-x="1714" unicode="ŵ"/><glyph d="M559 0v518l-516 916h391l303 -582l303 582h392l-519 -916v-518h-354zM303 1552l195 293h475l194 -293h-299l-133 207l-133 -207h-299z" glyph-name="Ycircumflex" horiz-adv-x="1472" unicode="Ŷ"/><glyph d="M139 -131q231 -31 287 92q29 66 -6 148l-387 956h342l227 -637l234 637h344l-430 -1053q-109 -266 -238 -359t-373 -67v283zM168 1184l194 293h476l194 -293h-299l-133 207l-133 -207h-299z" glyph-name="ycircumflex" horiz-adv-x="1210" unicode="ŷ"/><glyph d="M559 0v518l-516 916h391l303 -582l303 582h392l-519 -916v-518h-354zM293 1712q0 74 54 126t126 52q74 0 128 -52t54 -126t-54 -125t-128 -51q-72 0 -126 52t-54 124zM811 1712q0 74 54.5 126t127.5 52q72 0 126.5 -52t54.5 -126q0 -72 -54.5 -124t-126.5 -52 q-74 0 -128 51t-54 125z" glyph-name="Ydieresis" horiz-adv-x="1472" unicode="Ÿ"/><glyph d="M82 0v299l725 836h-713v299h1094l2 -299l-731 -836h737v-299h-1114zM506 1556l219 289h289l-219 -289h-289z" glyph-name="Zacute" horiz-adv-x="1277" unicode="Ź"/><glyph d="M82 0v281l485 503h-465v281h867v-281l-486 -503h486v-281h-887zM354 1188l219 289h289l-219 -289h-289z" glyph-name="zacute" horiz-adv-x="1050" unicode="ź"/><glyph d="M82 0v299l725 836h-713v299h1094l2 -299l-731 -836h737v-299h-1114zM485 1712q0 74 54.5 126t126.5 52q74 0 128 -52t54 -126t-54.5 -125t-127.5 -51q-72 0 -126.5 52t-54.5 124z" glyph-name="Zdotaccent" horiz-adv-x="1277" unicode="Ż"/><glyph d="M82 0v281l485 503h-465v281h867v-281l-486 -503h486v-281h-887zM332 1343q0 74 54 126.5t126 52.5q74 0 128 -52.5t54 -126t-54 -125t-128 -51.5q-72 0 -126 52t-54 124z" glyph-name="zdotaccent" horiz-adv-x="1050" unicode="ż"/><glyph d="M82 0v299l725 836h-713v299h1094l2 -299l-731 -836h737v-299h-1114zM217 1845h299l133 -207l133 207h299l-194 -293h-475z" glyph-name="Zcaron" horiz-adv-x="1277" unicode="Ž"/><glyph d="M82 0v281l485 503h-465v281h867v-281l-486 -503h486v-281h-887zM66 1477h299l133 -207l133 207h299l-195 -293h-475z" glyph-name="zcaron" horiz-adv-x="1050" unicode="ž"/><glyph d="M711 -20q-299 0 -468 169.5t-169 491.5v164h952q-27 350 -311 350q-231 0 -281 -199h-340q29 246 202 371t419 125q307 0 488 -197.5t181 -545.5q0 -340 -174.5 -534.5t-498.5 -194.5zM418 526q2 -135 89 -192.5t204 -57.5q233 0 297 250h-590z" glyph-name="uni018F" horiz-adv-x="1458" unicode="Ə"/><glyph d="M33 -102q41 0 66.5 14t35.5 45t12.5 56.5t2.5 70.5v491h-134v287h134v170q0 186 96 287.5t356 101.5v-286q-70 0 -93.5 -48.5t-23.5 -138.5v-86h117v-287h-117v-575q0 -203 -99 -296t-353 -93v287z" glyph-name="florin" horiz-adv-x="653" unicode="ƒ"/><glyph d="M766 -20q-315 0 -503.5 205.5t-188.5 531.5q0 328 188.5 531.5t503.5 203.5h444v162h283v-416h-180q147 -195 147 -481q0 -326 -189.5 -531.5t-504.5 -205.5zM428 717q0 -199 87 -320t251 -121t251 121t87 320q0 201 -87 319.5t-251 118.5t-251 -118.5t-87 -319.5z" glyph-name="Ohorn" horiz-adv-x="1531" unicode="Ơ"/><glyph d="M594 -20q-104 0 -198.5 32.5t-172.5 96t-124 173t-46 251t46 251t124 173t172 96t199 32.5h309v160h268v-416h-106q70 -121 70 -297q0 -186 -81 -315t-200 -183t-260 -54zM367 532.5q0 -135.5 62.5 -205t164.5 -69.5t163.5 69.5t61.5 205t-61.5 205t-163.5 69.5 t-164.5 -69.5t-62.5 -205z" glyph-name="ohorn" horiz-adv-x="1185" unicode="ơ"/><glyph d="M707 -20q-279 0 -441 142t-162 423v889h347v-863q0 -143 67.5 -217.5t188 -74.5t186 74.5t65.5 217.5v863h306v180h284v-434h-241v-635q0 -281 -163 -423t-437 -142z" glyph-name="Uhorn" horiz-adv-x="1409" unicode="Ư"/><glyph d="M440 467q0 -211 176 -211q86 0 141.5 52t55.5 159v598h305v180h285v-434h-254v-811h-336v225h-12q-18 -94 -103.5 -169.5t-228.5 -75.5q-162 0 -263.5 105t-101.5 300v680h336v-598z" glyph-name="uhorn" horiz-adv-x="1253" unicode="ư"/><glyph d="M33 0l510 1434h444l512 -1434h-362l-82 244h-580l-82 -244h-360zM324 1845h299l133 -207l133 207h299l-195 -293h-475zM559 498h412l-195 587h-20z" glyph-name="uni01CD" horiz-adv-x="1529" unicode="Ǎ"/><glyph d="M393 -20q-141 0 -240.5 74.5t-99.5 230.5q0 88 33 149.5t97.5 95t117.5 48t137 26.5l160 25q74 12 98.5 28.5t24.5 65.5v2q0 121 -139 121q-160 0 -160 -125v-19l-313 -4v56q0 332 481 331q242 0 351.5 -86t109.5 -258v-741h-322v184h-14q-8 -27 -26.5 -55.5t-54.5 -65 t-98.5 -60t-142.5 -23.5zM147 1477h299l134 -207l133 207h299l-195 -293h-475zM389 315q0 -98 123 -98q86 0 147.5 47t61.5 109v100q-14 -16 -103 -35l-133 -24q-96 -23 -96 -99z" glyph-name="uni01CE" unicode="ǎ"/><glyph d="M104 0v1434h342v-1434h-342zM-172 1845h299l133 -207l133 207h299l-194 -293h-475z" glyph-name="uni01CF" horiz-adv-x="550" unicode="Ǐ"/><glyph d="M90 0v1065h336v-1065h-336zM-186 1477h299l133 -207l133 207h299l-195 -293h-475z" glyph-name="uni01D0" horiz-adv-x="516" unicode="ǐ"/><glyph d="M766 -20q-315 0 -503.5 205.5t-188.5 531.5q0 328 188.5 531.5t503.5 203.5t504.5 -204t189.5 -531q0 -326 -189.5 -531.5t-504.5 -205.5zM322 1845h299l133 -207l133 207h299l-195 -293h-475zM428 717q0 -199 87 -320t251 -121t251 121t87 320q0 201 -87 319.5 t-251 118.5t-251 -118.5t-87 -319.5z" glyph-name="uni01D1" horiz-adv-x="1531" unicode="Ǒ"/><glyph d="M594 -20q-104 0 -198.5 32.5t-172.5 96t-124 173t-46 251t46 251t124 173t172 96t199 32.5q141 0 260 -54t200 -183t81 -315.5t-81 -315.5t-200 -183t-260 -54zM150 1477h299l133 -207l133 207h299l-195 -293h-475zM367 532.5q0 -135.5 62.5 -205t164.5 -69.5t163.5 69.5 t61.5 205t-61.5 205t-163.5 69.5t-164.5 -69.5t-62.5 -205z" glyph-name="uni01D2" horiz-adv-x="1185" unicode="ǒ"/><glyph d="M707 -20q-279 0 -441 142t-162 423v889h347v-863q0 -143 67.5 -217.5t188 -74.5t186 74.5t65.5 217.5v863h349v-889q0 -281 -163 -423t-437 -142zM233 1845h299l134 -207l133 207h299l-195 -293h-475z" glyph-name="uni01D3" horiz-adv-x="1409" unicode="Ǔ"/><glyph d="M440 467q0 -211 176 -211q86 0 141.5 52t55.5 159v598h336v-1065h-336v225h-12q-18 -94 -103.5 -169.5t-228.5 -75.5q-162 0 -263.5 105t-101.5 300v680h336v-598zM178 1477h299l133 -207l133 207h299l-194 -293h-475z" glyph-name="uni01D4" horiz-adv-x="1253" unicode="ǔ"/><glyph d="M707 -20q-279 0 -441 142t-162 423v889h347v-863q0 -143 67.5 -217.5t188 -74.5t186 74.5t65.5 217.5v863h349v-889q0 -281 -163 -423t-437 -142zM238 1712q0 74 54 126t126 52q74 0 128 -52t54 -126t-54 -125t-128 -51q-72 0 -126 52t-54 124zM332 2050v191h690v-191 h-690zM756 1712q0 74 54 126t128 52q72 0 126 -52t54 -126q0 -72 -54 -124t-126 -52q-74 0 -128 51t-54 125z" glyph-name="uni01D5" horiz-adv-x="1409" unicode="Ǖ"/><glyph d="M440 467q0 -211 176 -211q86 0 141.5 52t55.5 159v598h336v-1065h-336v225h-12q-18 -94 -103.5 -169.5t-228.5 -75.5q-162 0 -263.5 105t-101.5 300v680h336v-598zM182 1343q0 74 54.5 126.5t125.5 52.5q74 0 128.5 -52.5t54.5 -126t-54.5 -125t-128.5 -51.5 q-72 0 -126 52t-54 124zM279 1681v191h690v-191h-690zM700 1343.5q0 73.5 54.5 126t128.5 52.5q72 0 126 -52.5t54 -126.5q0 -72 -54.5 -124t-125.5 -52q-74 0 -128.5 51.5t-54.5 125z" glyph-name="uni01D6" horiz-adv-x="1253" unicode="ǖ"/><glyph d="M707 -20q-279 0 -441 142t-162 423v889h347v-863q0 -143 67.5 -217.5t188 -74.5t186 74.5t65.5 217.5v863h349v-889q0 -281 -163 -423t-437 -142zM238 1712q0 74 54 126t126 52q74 0 128 -52t54 -126t-54 -125t-128 -51q-72 0 -126 52t-54 124zM506 1952l219 289h289 l-219 -289h-289zM756 1712q0 74 54 126t128 52q72 0 126 -52t54 -126q0 -72 -54 -124t-126 -52q-74 0 -128 51t-54 125z" glyph-name="uni01D7" horiz-adv-x="1409" unicode="Ǘ"/><glyph d="M440 467q0 -211 176 -211q86 0 141.5 52t55.5 159v598h336v-1065h-336v225h-12q-18 -94 -103.5 -169.5t-228.5 -75.5q-162 0 -263.5 105t-101.5 300v680h336v-598zM182 1343q0 74 54.5 126.5t125.5 52.5q74 0 128.5 -52.5t54.5 -126t-54.5 -125t-128.5 -51.5 q-72 0 -126 52t-54 124zM451 1583l219 289h288l-219 -289h-288zM700 1343.5q0 73.5 54.5 126t128.5 52.5q72 0 126 -52.5t54 -126.5q0 -72 -54.5 -124t-125.5 -52q-74 0 -128.5 51.5t-54.5 125z" glyph-name="uni01D8" horiz-adv-x="1253" unicode="ǘ"/><glyph d="M707 -20q-279 0 -441 142t-162 423v889h347v-863q0 -143 67.5 -217.5t188 -74.5t186 74.5t65.5 217.5v863h349v-889q0 -281 -163 -423t-437 -142zM238 1712q0 74 54 126t126 52q74 0 128 -52t54 -126t-54 -125t-128 -51q-72 0 -126 52t-54 124zM248 2241h299l133 -207 l133 207h299l-194 -293h-476zM756 1712q0 74 54 126t128 52q72 0 126 -52t54 -126q0 -72 -54 -124t-126 -52q-74 0 -128 51t-54 125z" glyph-name="uni01D9" horiz-adv-x="1409" unicode="Ǚ"/><glyph d="M440 467q0 -211 176 -211q86 0 141.5 52t55.5 159v598h336v-1065h-336v225h-12q-18 -94 -103.5 -169.5t-228.5 -75.5q-162 0 -263.5 105t-101.5 300v680h336v-598zM182 1343q0 74 54.5 126.5t125.5 52.5q74 0 128.5 -52.5t54.5 -126t-54.5 -125t-128.5 -51.5 q-72 0 -126 52t-54 124zM195 1872h299l133 -207l133 207h299l-195 -293h-475zM700 1343.5q0 73.5 54.5 126t128.5 52.5q72 0 126 -52.5t54 -126.5q0 -72 -54.5 -124t-125.5 -52q-74 0 -128.5 51.5t-54.5 125z" glyph-name="uni01DA" horiz-adv-x="1253" unicode="ǚ"/><glyph d="M707 -20q-279 0 -441 142t-162 423v889h347v-863q0 -143 67.5 -217.5t188 -74.5t186 74.5t65.5 217.5v863h349v-889q0 -281 -163 -423t-437 -142zM238 1712q0 74 54 126t126 52q74 0 128 -52t54 -126t-54 -125t-128 -51q-72 0 -126 52t-54 124zM326 2241h288l220 -289 h-289zM756 1712q0 74 54 126t128 52q72 0 126 -52t54 -126q0 -72 -54 -124t-126 -52q-74 0 -128 51t-54 125z" glyph-name="uni01DB" horiz-adv-x="1409" unicode="Ǜ"/><glyph d="M440 467q0 -211 176 -211q86 0 141.5 52t55.5 159v598h336v-1065h-336v225h-12q-18 -94 -103.5 -169.5t-228.5 -75.5q-162 0 -263.5 105t-101.5 300v680h336v-598zM182 1343q0 74 54.5 126.5t125.5 52.5q74 0 128.5 -52.5t54.5 -126t-54.5 -125t-128.5 -51.5 q-72 0 -126 52t-54 124zM272 1872h289l219 -289h-288zM700 1343.5q0 73.5 54.5 126t128.5 52.5q72 0 126 -52.5t54 -126.5q0 -72 -54.5 -124t-125.5 -52q-74 0 -128.5 51.5t-54.5 125z" glyph-name="uni01DC" horiz-adv-x="1253" unicode="ǜ"/><glyph d="M750 -20q-328 0 -502 194.5t-174 534.5q0 348 180 545.5t487 197.5q246 0 420 -125t203 -371h-342q-45 199 -281 199q-319 0 -319 -434q0 -197 75.5 -321t250.5 -124q115 0 202.5 57.5t89.5 192.5h-252v279h596v-164q0 -324 -166.5 -492.5t-467.5 -168.5zM311 1845h299 l133 -207l134 207h299l-195 -293h-475z" glyph-name="Gcaron" horiz-adv-x="1468" unicode="Ǧ"/><glyph d="M498 29q-82 0 -158 28.5t-142.5 88t-105.5 165t-39 246.5q0 139 40 245.5t106.5 166t141.5 88t157 28.5q197 0 297 -133v113h335v-1020q0 -117 -38.5 -205t-96 -137t-136.5 -81t-146.5 -41t-139.5 -9q-63 0 -121.5 6t-130 29.5t-124 62.5t-89 111t-36.5 166h297 q4 -63 63.5 -90t130.5 -27q102 0 167 53.5t65 161.5v117q-100 -133 -297 -133zM164 1477h299l133 -207l133 207h299l-194 -293h-476zM369 557q0 -121 63.5 -185.5t159.5 -64.5q94 0 155.5 64.5t61.5 185.5t-61.5 185.5t-155.5 64.5q-96 0 -159.5 -64.5t-63.5 -185.5z" glyph-name="gcaron" horiz-adv-x="1234" unicode="ǧ"/><glyph d="M104 0v1434h342v-646l535 646h403l-536 -635l594 -799h-395l-410 551l-191 -225v-326h-342zM301 1845h299l133 -207l133 207h299l-194 -293h-475z" glyph-name="uni01E8" horiz-adv-x="1472" unicode="Ǩ"/><glyph d="M104 0v1434h336v-766l348 397h367l-426 -451l481 -614h-368l-318 397l-84 -90v-307h-336zM-166 1845h299l133 -207l133 207h299l-194 -293h-475z" glyph-name="uni01E9" horiz-adv-x="1220" unicode="ǩ"/><glyph d="M877 -395q-33 -18 -94.5 -20.5t-128 15t-114.5 73t-48 139.5q0 115 90 188q-236 57 -372 249.5t-136 467.5q0 328 188.5 531.5t503.5 203.5t504.5 -204t189.5 -531q0 -291 -153.5 -489.5t-415.5 -237.5q-76 -18 -115 -56t-39 -84q0 -47 43 -65t97 4v-184zM428 717 q0 -199 87 -320t251 -121t251 121t87 320q0 201 -87 319.5t-251 118.5t-251 -118.5t-87 -319.5z" glyph-name="uni01EA" horiz-adv-x="1531" unicode="Ǫ"/><glyph d="M690 -395q-33 -18 -94 -20.5t-128 15t-115 73t-48 139.5q0 123 98 196q-156 49 -253 181.5t-97 342.5q0 141 46 251t124 173.5t172 96t199 32.5q141 0 260 -54t200 -183t81 -316q0 -236 -120 -372.5t-304 -169.5q-78 -16 -118 -55t-40 -85q0 -47 42 -65t95 4v-184z M367 532.5q0 -135.5 62.5 -205t164.5 -69.5t163.5 69.5t61.5 205t-61.5 205t-163.5 69.5t-164.5 -69.5t-62.5 -205z" glyph-name="uni01EB" horiz-adv-x="1185" unicode="ǫ"/><glyph d="M684 -20q-285 0 -447.5 130t-162.5 373h356q4 -98 65.5 -158.5t190.5 -60.5q109 0 170.5 42t61.5 120q0 61 -42 95t-137 52l-204 41q-190 35 -306 129.5t-116 280.5q0 209 154.5 318.5t412.5 109.5q262 0 413.5 -115.5t151.5 -341.5h-356q4 88 -57.5 130t-159.5 42 q-102 0 -150.5 -42t-48.5 -101q0 -106 143 -135l185 -37q262 -51 371.5 -153.5t109.5 -270.5q0 -154 -84 -257t-214 -147t-300 -44zM449 -260q0 82 55 133t141 51q98 0 159.5 -70.5t61.5 -213.5q0 -170 -90 -266.5t-244 -96.5h-24v133q94 2 133 33t39 100q-109 2 -170 57.5 t-61 139.5z" glyph-name="Scommaaccent" horiz-adv-x="1355" unicode="Ș"/><glyph d="M510 -20q-225 0 -347 97t-120 285h299q16 -133 170 -133q141 0 141 88q0 61 -80 74l-194 43q-309 66 -309 318q0 156 122.5 244.5t323.5 88.5q217 0 331 -101t114 -282h-279q-16 133 -162 134q-125 0 -125 -76q0 -72 92 -84l203 -45q309 -66 309 -305q0 -170 -137 -258 t-352 -88zM315 -279q0 82 55.5 133.5t141.5 51.5q98 0 159.5 -71t61.5 -214q0 -170 -90 -267t-244 -97h-24v133q94 4 133 34.5t39 100.5q-109 2 -170.5 57t-61.5 139z" glyph-name="scommaaccent" horiz-adv-x="1040" unicode="ș"/><glyph d="M449 0v1128h-406v306h1157v-306h-407v-1128h-344zM342 -260q0 82 55.5 133t141.5 51q98 0 159.5 -70.5t61.5 -213.5q0 -170 -90 -266.5t-244 -96.5h-25v133q94 2 133 33t39 100q-109 2 -170 57.5t-61 139.5z" glyph-name="uni021A" horiz-adv-x="1241" unicode="Ț"/><glyph d="M592 -14q-377 0 -377 352v467h-182v260h182v278h336v-278h209v-260h-209v-420q0 -63 26.5 -98t102.5 -35q41 0 88 4v-248q-80 -22 -176 -22zM344 -260q0 82 55.5 133t141.5 51q98 0 159.5 -70.5t61.5 -213.5q0 -170 -90 -266.5t-244 -96.5h-25v133q94 2 133 33t39 100 q-109 2 -170 57.5t-61 139.5z" glyph-name="uni021B" horiz-adv-x="808" unicode="ț"/><glyph d="M90 -401q-143 0 -190 6v260h112q113 0 113 133v1067h336v-1116q0 -350 -371 -350z" glyph-name="uni0237" horiz-adv-x="550" unicode="ȷ"/><glyph d="M567 -29q-229 0 -371.5 136.5t-142.5 435.5q0 31 6 67h734q-10 119 -65.5 172.5t-156.5 53.5q-170 0 -211 -131h-292q35 182 168 281t331 99q104 0 197.5 -29.5t173.5 -92t127 -174t47 -261.5q0 -283 -154.5 -420t-390.5 -137zM369 432q12 -207 206 -207q193 0 218 207 h-424z" glyph-name="uni0259" horiz-adv-x="1163" unicode="ə"/><glyph d="M0 1184l195 293h475l194 -293h-299l-133 207l-133 -207h-299z" glyph-name="circumflex" horiz-adv-x="864" unicode="ˆ"/><glyph d="M0 1477h299l133 -207l133 207h299l-194 -293h-475z" glyph-name="caron" horiz-adv-x="882" unicode="ˇ"/><glyph d="M354 1149q-164 0 -254 86t-90 242h219q2 -74 33 -105t92.5 -31t92 31t32.5 105h219q0 -156 -89 -242t-255 -86z" glyph-name="breve" horiz-adv-x="708" unicode="˘"/><glyph d="M180 1167q-72 0 -126 52.5t-54 123.5q0 74 54.5 126.5t125.5 52.5q74 0 128 -52.5t54 -126t-54 -125t-128 -51.5z" glyph-name="dotaccent" horiz-adv-x="362" unicode="˙"/><glyph d="M221 1137q-94 0 -157.5 61.5t-63.5 151.5t63.5 151.5t157.5 61.5t156.5 -61.5t62.5 -151.5t-62.5 -151.5t-156.5 -61.5zM154 1349.5q0 -30.5 18 -49t49 -18.5q29 0 48.5 18.5t19.5 49t-19.5 49t-48 18.5t-48 -18.5t-19.5 -49z" glyph-name="ring" horiz-adv-x="440" unicode="˚"/><glyph d="M385 -395q-31 -18 -93.5 -20.5t-128 15t-114.5 73t-49 139.5q0 123 93 192.5t204 69.5l215 -74q-127 0 -195.5 -45t-68.5 -105q0 -47 42 -65t95 4v-184z" glyph-name="ogonek" horiz-adv-x="512" unicode="˛"/><glyph d="M528 1196q-53 0 -97 17.5t-67.5 37t-49 37t-46.5 17.5q-61 0 -63 -52h-195q0 117 54.5 182.5t158.5 65.5q68 0 119 -26.5t84 -53t57 -26.5q61 0 64 51h194q0 -119 -54.5 -184.5t-158.5 -65.5z" glyph-name="tilde" horiz-adv-x="751" unicode="˜"/><glyph d="M395 1188l219 289h289l-219 -289h-289zM0 1188l219 289h289l-219 -289h-289z" glyph-name="hungarumlaut" horiz-adv-x="903" unicode="˝"/><glyph d="M219 1188l-219 289h289l219 -289h-289z" glyph-name="gravecomb" horiz-adv-x="0" unicode="̀"/><glyph d="M0 1188l219 289h289l-219 -289h-289z" glyph-name="acutecomb" horiz-adv-x="0" unicode="́"/><glyph d="M0 1184l195 293h475l194 -293h-299l-133 207l-133 -207h-299z" glyph-name="uni0302" horiz-adv-x="0" unicode="̂"/><glyph d="M528 1196q-53 0 -97 17.5t-67.5 37t-49 37t-46.5 17.5q-61 0 -63 -52h-195q0 117 54.5 182.5t158.5 65.5q68 0 119 -26.5t84 -53t57 -26.5q61 0 64 51h194q0 -119 -54.5 -184.5t-158.5 -65.5z" glyph-name="tildecomb" horiz-adv-x="0" unicode="̃"/><glyph d="M0 1286v191h690v-191h-690z" glyph-name="uni0304" horiz-adv-x="0" unicode="̄"/><glyph d="M354 1149q-164 0 -254 86t-90 242h219q2 -74 33 -105t92.5 -31t92 31t32.5 105h219q0 -156 -89 -242t-255 -86z" glyph-name="uni0306" horiz-adv-x="0" unicode="̆"/><glyph d="M180 1167q-72 0 -126 52.5t-54 123.5q0 74 54.5 126.5t125.5 52.5q74 0 128 -52.5t54 -126t-54 -125t-128 -51.5z" glyph-name="uni0307" horiz-adv-x="0" unicode="̇"/><glyph d="M700 1167q-74 0 -128 51.5t-54 125t54.5 126t127.5 52.5q72 0 126.5 -52.5t54.5 -126.5q0 -72 -54.5 -124t-126.5 -52zM0 1343q0 74 54.5 126.5t125.5 52.5q74 0 128 -52.5t54 -126t-54 -125t-128 -51.5q-72 0 -126 52t-54 124z" glyph-name="uni0308" horiz-adv-x="0" unicode="̈"/><glyph d="M250 1300q78 2 78 62q0 25 -14.5 38t-34.5 13q-43 0 -50 -47h-166q0 115 65 168t155 53q96 0 161.5 -54t65.5 -161q0 -88 -50 -140t-134 -65z" glyph-name="hookabovecomb" horiz-adv-x="0" unicode="̉"/><glyph d="M221 1137q-94 0 -157.5 61.5t-63.5 151.5t63.5 151.5t157.5 61.5t156.5 -61.5t62.5 -151.5t-62.5 -151.5t-156.5 -61.5zM154 1349.5q0 -30.5 18 -49t49 -18.5q29 0 48.5 18.5t19.5 49t-19.5 49t-48 18.5t-48 -18.5t-19.5 -49z" glyph-name="uni030A" horiz-adv-x="0" unicode="̊"/><glyph d="M395 1188l219 289h289l-219 -289h-289zM0 1188l219 289h289l-219 -289h-289z" glyph-name="uni030B" horiz-adv-x="0" unicode="̋"/><glyph d="M0 1477h299l133 -207l133 207h299l-194 -293h-475z" glyph-name="uni030C" horiz-adv-x="0" unicode="̌"/><glyph d="M420 1280q-94 -2 -133 -32.5t-39 -100.5q109 -2 170 -57.5t61 -139.5q0 -82 -55 -133t-141 -51q-98 0 -160 70.5t-62 214.5q0 170 90.5 266t243.5 96h25v-133z" glyph-name="uni0312" horiz-adv-x="0" unicode="̒"/><glyph d="M0 811v254h305v180h285v-434h-590z" glyph-name="uni031B" horiz-adv-x="0" unicode="̛"/><glyph d="M301 -471q-82 0 -140.5 56.5t-58.5 138t58.5 138t140.5 56.5q84 0 141.5 -56.5t57.5 -138t-57.5 -138t-141.5 -56.5z" glyph-name="dotbelowcomb" horiz-adv-x="0" unicode="̣"/><glyph d="M31 -590q94 2 133 33t39 100q-109 2 -170.5 57.5t-61.5 139.5q0 82 55.5 133t141.5 51q98 0 159.5 -70.5t61.5 -213.5q0 -170 -90 -266.5t-244 -96.5h-24v133z" glyph-name="uni0326" horiz-adv-x="0" unicode="̦"/><glyph d="M84 -373q131 -4 131 68q0 45 -45 57t-84 -16l-86 108l145 156h217l-114 -109h12q80 0 131 -57t51 -141q0 -123 -103 -174t-255 -51v159z" glyph-name="uni0327" horiz-adv-x="0" unicode="̧"/><glyph d="M385 -395q-31 -18 -93.5 -20.5t-128 15t-114.5 73t-49 139.5q0 123 93 192.5t204 69.5l215 -74q-127 0 -195.5 -45t-68.5 -105q0 -47 42 -65t95 4v-184z" glyph-name="uni0328" horiz-adv-x="0" unicode="̨"/><glyph d="M33 0l647 1460h2l647 -1460h-1296zM440 258h480l-238 604z" glyph-name="Delta" horiz-adv-x="1359" unicode="Δ"/><glyph d="M113 0v270h172q-211 184 -211 467q0 307 215 509t501.5 202t502.5 -202t216 -509q0 -283 -211 -467h172v-270h-569v350q127 51 193.5 157.5t66.5 229.5q0 164 -104.5 274.5t-265.5 110.5q-160 0 -265.5 -110.5t-105.5 -274.5q0 -123 67.5 -229.5t194.5 -157.5v-350h-569z " glyph-name="Omega" horiz-adv-x="1583" unicode="Ω"/><glyph d="M104 -389v1454h336v-598q0 -211 176 -211q86 0 141.5 52t55.5 159v598h336v-1065h-336v225h-12q-18 -94 -103.5 -169.5t-228.5 -75.5h-29v-369h-336z" glyph-name="mu" horiz-adv-x="1253" unicode="μ"/><glyph d="M1221 -12q-47 0 -90.5 7t-91.5 27.5t-82.5 55.5t-57 94t-22.5 139v467h-252v-778h-336v778h-205v287h1333v-287h-203v-387q0 -70 28 -95.5t83 -25.5q59 0 115 27v-252q-51 -57 -219 -57z" glyph-name="pi" horiz-adv-x="1511" unicode="π"/><glyph d="M104 0v1434h998v-299h-656v-279h594v-266h-594v-291h676v-299h-1018zM188 1712q0 74 54.5 126t126.5 52q74 0 128 -52t54 -126t-54.5 -125t-127.5 -51q-72 0 -126.5 52t-54.5 124zM707 1712q0 74 54 126t128 52q72 0 126 -52t54 -126q0 -72 -54 -124t-126 -52 q-74 0 -128 51t-54 125z" glyph-name="afii10023" horiz-adv-x="1173" unicode="Ё"/><glyph d="M104 0v1434h945v-304h-594v-1130h-351zM410 1556l219 289h289l-220 -289h-288z" glyph-name="afii10052" horiz-adv-x="1091" unicode="Ѓ"/><glyph d="M754 -20q-315 0 -497.5 196.5t-182.5 540.5q0 342 183 538.5t501 196.5q254 0 421 -134t185 -403h-336q-53 240 -280 240q-133 0 -209 -79t-101 -212h371v-280h-373q47 -307 312 -308q227 0 280 242h336q-18 -270 -185 -404t-425 -134z" glyph-name="afii10053" horiz-adv-x="1425" unicode="Є"/><glyph d="M104 0v1434h342v-1434h-342zM-170 1712q0 74 54.5 126t125.5 52q74 0 128.5 -52t54.5 -126t-54.5 -125t-128.5 -51q-72 0 -126 52t-54 124zM348 1712q0 74 54.5 126t127.5 52q72 0 126.5 -52t54.5 -126q0 -72 -54.5 -124t-126.5 -52q-74 0 -128 51t-54 125z" glyph-name="afii10056" horiz-adv-x="550" unicode="Ї"/><glyph d="M104 0v1434h342v-646l535 646h403l-536 -635l594 -799h-395l-410 551l-191 -225v-326h-342zM584 1556l219 289h289l-220 -289h-288z" glyph-name="afii10061" horiz-adv-x="1472" unicode="Ќ"/><glyph d="M182 272q41 -10 78 -4t58.5 5t42 12.5t29.5 17.5t20.5 20.5t14.5 21.5t9 22q31 72 -33 221l-358 846h387l199 -570l207 570h389l-451 -1041q-119 -268 -240.5 -360t-351.5 -70v309zM289 1845h219q2 -74 32.5 -104.5t92 -30.5t92.5 31t33 104h219q0 -156 -89 -241.5 t-255 -85.5q-164 0 -254 85.5t-90 241.5z" glyph-name="afii10062" horiz-adv-x="1265" unicode="Ў"/><glyph d="M33 0l510 1434h444l512 -1434h-362l-82 244h-580l-82 -244h-360zM559 498h412l-195 587h-20z" glyph-name="afii10017" horiz-adv-x="1529" unicode="А"/><glyph d="M104 0v1434h945v-304h-594v-163h247q279 0 417 -129t138 -354.5t-138 -354.5t-417 -129h-598zM455 297h235q193 0 193 186.5t-193 186.5h-235v-373z" glyph-name="afii10018" horiz-adv-x="1310" unicode="Б"/><glyph d="M104 0v1434h594q238 0 357 -95.5t119 -265.5q0 -217 -205 -285q305 -82 305 -364q0 -186 -136.5 -305t-410.5 -119h-623zM446 289h269q203 0 203 174q0 180 -203 180h-269v-354zM446 858h240q59 0 100 36t41 112q0 74 -41 106.5t-100 32.5h-240v-287z" glyph-name="afii10019" horiz-adv-x="1325" unicode="В"/><glyph d="M104 0v1434h945v-304h-594v-1130h-351z" glyph-name="afii10020" horiz-adv-x="1091" unicode="Г"/><glyph d="M33 -141v428h106q188 135 189 704v443h1093v-1147h150v-428h-336v141h-866v-141h-336zM510 287h559v843h-391v-139q0 -561 -168 -704z" glyph-name="afii10021" horiz-adv-x="1624" unicode="Д"/><glyph d="M104 0v1434h998v-299h-656v-279h594v-266h-594v-291h676v-299h-1018z" glyph-name="afii10022" horiz-adv-x="1173" unicode="Е"/><glyph d="M1722 0l-469 563v-563h-352v563l-469 -563h-399l590 719l-588 715h399l467 -560v560h352v-560l467 560h400l-588 -715l590 -719h-400z" glyph-name="afii10024" horiz-adv-x="2154" unicode="Ж"/><glyph d="M600 -20q-274 0 -406.5 137t-130.5 379h316q2 -127 68.5 -180.5t164.5 -53.5q90 0 156 43t66 133q0 178 -244 178h-90v240h75q215 0 216 156q0 78 -51.5 115.5t-123.5 37.5q-80 0 -136 -47t-58 -160h-313q0 231 131 362.5t383 131.5q225 0 360 -103.5t135 -277.5 q0 -137 -73.5 -217t-159.5 -96q37 -2 82 -21.5t94 -55.5t81 -105.5t32 -157.5q0 -193 -155 -315.5t-419 -122.5z" glyph-name="afii10025" horiz-adv-x="1234" unicode="З"/><glyph d="M1337 0h-342v856h-8l-516 -856h-369v1434h344v-879h9l528 879h354v-1434z" glyph-name="afii10026" horiz-adv-x="1441" unicode="И"/><glyph d="M1337 0h-342v856h-8l-516 -856h-369v1434h344v-879h9l528 879h354v-1434zM377 1845h219q2 -74 32.5 -104.5t92 -30.5t92.5 31t33 104h219q0 -156 -89 -241.5t-255 -85.5q-164 0 -254 85.5t-90 241.5z" glyph-name="afii10027" horiz-adv-x="1441" unicode="Й"/><glyph d="M104 0v1434h342v-646l535 646h403l-536 -635l594 -799h-395l-410 551l-191 -225v-326h-342z" glyph-name="afii10028" horiz-adv-x="1472" unicode="К"/><glyph d="M31 289q96 -2 146 31.5t50 148.5v965h1078v-1434h-353v1130h-372v-679q0 -252 -149.5 -371t-399.5 -94v303z" glyph-name="afii10029" horiz-adv-x="1406" unicode="Л"/><glyph d="M104 0v1434h435l335 -963l336 963h437v-1434h-344v844h-13l-289 -844h-253l-289 844h-13v-844h-342z" glyph-name="afii10030" horiz-adv-x="1748" unicode="М"/><glyph d="M956 0v578h-510v-578h-342v1434h342v-572h510v572h344v-1434h-344z" glyph-name="afii10031" horiz-adv-x="1402" unicode="Н"/><glyph d="M766 -20q-315 0 -503.5 205.5t-188.5 531.5q0 328 188.5 531.5t503.5 203.5t504.5 -204t189.5 -531q0 -326 -189.5 -531.5t-504.5 -205.5zM428 717q0 -199 87 -320t251 -121t251 121t87 320q0 201 -87 319.5t-251 118.5t-251 -118.5t-87 -319.5z" glyph-name="afii10032" horiz-adv-x="1531" unicode="О"/><glyph d="M104 0v1434h1196v-1434h-352v1130h-493v-1130h-351z" glyph-name="afii10033" horiz-adv-x="1402" unicode="П"/><glyph d="M104 0v1434h594q283 0 421 -132.5t138 -355.5t-138 -356t-421 -133h-252v-457h-342zM446 756h240q217 0 217 190q0 88 -53 138.5t-164 50.5h-240v-379z" glyph-name="afii10034" horiz-adv-x="1310" unicode="Р"/><glyph d="M754 -20q-315 0 -497.5 196.5t-182.5 540.5q0 342 183 538.5t501 196.5q254 0 421 -134t185 -403h-336q-53 240 -280 240q-168 0 -245 -122t-77 -316.5t76 -317.5t246 -123q227 0 280 242h336q-18 -270 -185 -404t-425 -134z" glyph-name="afii10035" horiz-adv-x="1425" unicode="С"/><glyph d="M449 0v1128h-406v306h1157v-306h-407v-1128h-344z" glyph-name="afii10036" horiz-adv-x="1241" unicode="Т"/><glyph d="M182 272q41 -10 78 -4t58.5 5t42 12.5t29.5 17.5t20.5 20.5t14.5 21.5t9 22q31 72 -33 221l-358 846h387l199 -570l207 570h389l-451 -1041q-119 -268 -240.5 -360t-351.5 -70v309z" glyph-name="afii10037" horiz-adv-x="1265" unicode="У"/><glyph d="M586 -31v166q-240 43 -376 196.5t-136 385.5q0 233 135 386.5t377 194.5v166h352v-166q242 -43 377 -196.5t135 -385t-136 -385t-376 -196.5v-166h-352zM410 717q0 -223 176 -299v598q-176 -74 -176 -299zM938 420q176 74 176 297t-176 299v-596z" glyph-name="afii10038" horiz-adv-x="1523" unicode="Ф"/><glyph d="M989 0l-284 440l-287 -440h-385l479 737l-453 697h385l261 -400l258 400h385l-451 -697l479 -737h-387z" glyph-name="afii10039" horiz-adv-x="1406" unicode="Х"/><glyph d="M104 0v1434h351v-1131h493v1131h352v-1131h156v-592h-336v289h-1016z" glyph-name="afii10040" horiz-adv-x="1486" unicode="Ц"/><glyph d="M492 305q-418 0 -418 488v641h350v-627q0 -190 207 -191q119 0 194.5 67t85.5 128v623h353v-1434h-353v545q-16 -33 -46.5 -69t-81 -77t-127 -67.5t-164.5 -26.5z" glyph-name="afii10041" horiz-adv-x="1366" unicode="Ч"/><glyph d="M104 0v1434h351v-1131h241v1131h353v-1131h239v1131h352v-1434h-1536z" glyph-name="afii10042" horiz-adv-x="1744" unicode="Ш"/><glyph d="M104 0v1434h351v-1131h241v1131h353v-1131h239v1131h352v-1131h148v-592h-334v289h-1350z" glyph-name="afii10043" horiz-adv-x="1820" unicode="Щ"/><glyph d="M33 1130v304h534v-467h240q285 0 424 -129t139 -354.5t-139 -354.5t-424 -129h-590v1130h-184zM567 297h236q193 0 192.5 186.5t-192.5 186.5h-236v-373z" glyph-name="afii10044" horiz-adv-x="1421" unicode="Ъ"/><glyph d="M104 0v1434h351v-467h239q285 0 424 -129t139 -354.5t-139 -354.5t-424 -129h-590zM455 297h235q193 0 193 186.5t-193 186.5h-235v-373zM1405 0v1434h342v-1434h-342z" glyph-name="afii10045" horiz-adv-x="1851" unicode="Ы"/><glyph d="M104 0v1434h351v-467h239q285 0 424 -129t139 -354.5t-139 -354.5t-424 -129h-590zM455 297h235q193 0 193 186.5t-193 186.5h-235v-373z" glyph-name="afii10046" horiz-adv-x="1310" unicode="Ь"/><glyph d="M606 584v280h371q-25 133 -100.5 212t-208.5 79q-227 0 -281 -240h-336q18 268 185 402.5t421 134.5q317 0 500.5 -196.5t183.5 -538.5q0 -344 -182 -540.5t-497 -196.5q-258 0 -425 134t-186 404h336q53 -242 281 -242q264 0 311 308h-373z" glyph-name="afii10047" horiz-adv-x="1415" unicode="Э"/><glyph d="M104 0v1434h342v-572h191q43 268 224 429t458 161q315 0 504.5 -204t189.5 -531q0 -326 -189.5 -531.5t-504.5 -205.5q-279 0 -461 163.5t-221 434.5h-191v-578h-342zM981 717q0 -199 87 -320t251 -121t251 121t87 320q0 201 -87 319.5t-251 118.5t-251 -118.5 t-87 -319.5z" glyph-name="afii10048" horiz-adv-x="2084" unicode="Ю"/><glyph d="M393 0h-340l293 504q-279 111 -278 442q0 223 138 355.5t421 132.5h594v-1434h-342v457h-228zM422 946q0 -190 217 -190h240v379h-240q-111 0 -164 -50.5t-53 -138.5z" glyph-name="afii10049" horiz-adv-x="1325" unicode="Я"/><glyph d="M395 -20q-141 0 -241.5 72.5t-100.5 226.5q0 70 24.5 123t59.5 82.5t88.5 51t96.5 30.5t100 16l199 26q61 8 76.5 27.5t15.5 81.5q0 74 -36 98.5t-97 24.5q-150 0 -150 -119v-8l-315 -4v45q0 332 475 331q244 0 351.5 -86t107.5 -262v-430q0 -55 15 -69.5t56 -18.5v-196 q-37 -35 -137 -35q-109 0 -181.5 47t-72.5 151v-4h-12q-8 -59 -90 -130.5t-232 -71.5zM385 322q0 -100 141 -101q90 0 138.5 46t48.5 106v90q-18 -16 -90 -27l-117 -16q-37 -8 -59.5 -16.5t-42 -29.5t-19.5 -52z" glyph-name="afii10065" unicode="а"/><glyph d="M612.5 -18q-71.5 0 -141.5 18t-143.5 65.5t-128 120t-90 192.5t-35.5 271v215q-2 295 121.5 432.5t367.5 137.5h49q109 0 158 45h297q-41 -168 -130 -236.5t-267 -68.5h-107q-80 0 -125 -56.5t-45 -132.5v-39q8 37 88 78t185 41q80 0 159.5 -28.5t154.5 -87t122 -169 t47 -254.5q0 -121 -35 -217t-90 -156.5t-128 -100.5t-142.5 -55t-141 -15zM397 524q0 -141 61.5 -207.5t157.5 -66.5q94 0 156 68.5t62 207.5q0 143 -62.5 216t-155.5 73q-94 0 -156.5 -73t-62.5 -218z" glyph-name="afii10066" horiz-adv-x="1202" unicode="б"/><glyph d="M104 0v1065h574q186 0 301 -67.5t115 -204.5q0 -152 -148 -201q109 -31 171.5 -103.5t62.5 -177.5q0 -82 -39 -144.5t-103.5 -97t-137.5 -52t-148 -17.5h-648zM440 268h252q154 0 154 97q0 94 -158 94h-248v-191zM440 645h236q109 0 108 78q0 76 -104 76h-240v-154z" glyph-name="afii10067" horiz-adv-x="1232" unicode="в"/><glyph d="M104 0v1065h781v-260h-445v-805h-336z" glyph-name="afii10068" horiz-adv-x="917" unicode="г"/><glyph d="M336 0v-102h-303v362h102q63 59 82 171t19 312v322h1007v-805h107v-362h-303v102h-711zM457 260h450v545h-336v-62q0 -188 -23 -305t-91 -178z" glyph-name="afii10069" horiz-adv-x="1382" unicode="д"/><glyph d="M596 -20q-104 0 -197.5 29.5t-172.5 92t-126 174t-47 261.5q0 279 153.5 413.5t389.5 134.5q229 0 372.5 -131t143.5 -422q0 -47 -6 -83h-735q25 -215 231 -216q168 0 201 127h295q-37 -182 -170 -281t-332 -99zM373 643h422q-6 80 -53.5 134t-153.5 54q-184 0 -215 -188 z" glyph-name="afii10070" horiz-adv-x="1163" unicode="е"/><glyph d="M1464 0l-350 375v-375h-336v377l-352 -377h-414l506 524l-498 541h414l344 -387v387h336v-385l342 385h416l-500 -541l508 -524h-416z" glyph-name="afii10072" horiz-adv-x="1890" unicode="ж"/><glyph d="M545 -18q-492 0 -492 436h297q0 -197 205 -197q80 0 125 31t45 84q0 131 -227 133v166q193 0 192 106q0 96 -141 97q-74 0 -118 -38t-44 -114h-301q0 195 120 294t343 99q199 0 327 -77.5t128 -225.5q0 -27 -4.5 -51.5t-13.5 -42.5t-19.5 -33.5t-24.5 -29t-24.5 -21.5 t-27 -15.5t-23.5 -10.5t-21 -7l-15 -6q201 -53 224 -203q4 -20 4 -43q0 -158 -145.5 -244.5t-368.5 -86.5z" glyph-name="afii10073" horiz-adv-x="1120" unicode="з"/><glyph d="M104 0v1065h336v-590h6l385 590h338v-1065h-335v567h-9l-370 -567h-351z" glyph-name="afii10074" horiz-adv-x="1271" unicode="и"/><glyph d="M104 0v1065h336v-590h6l385 590h338v-1065h-335v567h-9l-370 -567h-351zM293 1477h219q2 -74 32.5 -105t92 -31t92.5 31t33 105h219q0 -156 -89 -242t-255 -86q-164 0 -254 86t-90 242z" glyph-name="afii10075" horiz-adv-x="1271" unicode="й"/><glyph d="M104 0v1065h336v-373l328 373h377l-418 -455l477 -610h-364l-318 389l-82 -88v-301h-336z" glyph-name="afii10076" horiz-adv-x="1214" unicode="к"/><glyph d="M31 254q94 -2 149.5 42t55.5 167v602h954v-1065h-320l-12 805h-287v-361q0 -252 -145 -364.5t-395 -85.5v260z" glyph-name="afii10077" horiz-adv-x="1292" unicode="л"/><glyph d="M104 0v1065h396l274 -672l275 672h397v-1065h-336v549h-10l-205 -549h-242l-204 549h-9v-549h-336z" glyph-name="afii10078" horiz-adv-x="1548" unicode="м"/><glyph d="M104 0v1065h336v-379h322v379h336v-1065h-336v424h-322v-424h-336z" glyph-name="afii10079" horiz-adv-x="1200" unicode="н"/><glyph d="M594 -20q-104 0 -198.5 32.5t-172.5 96t-124 173t-46 251t46 251t124 173t172 96t199 32.5q141 0 260 -54t200 -183t81 -315.5t-81 -315.5t-200 -183t-260 -54zM367 532.5q0 -135.5 62.5 -205t164.5 -69.5t163.5 69.5t61.5 205t-61.5 205t-163.5 69.5t-164.5 -69.5 t-62.5 -205z" glyph-name="afii10080" horiz-adv-x="1185" unicode="о"/><glyph d="M104 0v1065h975v-1065h-336v805h-303v-805h-336z" glyph-name="afii10081" horiz-adv-x="1181" unicode="п"/><glyph d="M104 -389v1454h336v-143q23 66 104 114.5t191 48.5q184 0 323.5 -140t139.5 -413q0 -274 -139 -413t-324 -139q-111 0 -191.5 49t-103.5 114v-532h-336zM426 532.5q0 -133.5 65.5 -204t159.5 -70.5q96 0 164 70.5t68 204t-67.5 204t-164.5 70.5q-94 0 -159.5 -70.5 t-65.5 -204z" glyph-name="afii10082" horiz-adv-x="1249" unicode="р"/><glyph d="M596 -20q-102 0 -195.5 30.5t-173.5 93t-127 172t-47 255t47 256t127 174t173.5 94t195.5 30.5q80 0 151.5 -18t148.5 -62t129 -138.5t67 -227.5h-306q-33 166 -192 166q-115 0 -170 -77t-55 -197.5t55 -195.5t170 -75q160 0 192 168h306q-8 -106 -45 -189t-87.5 -130.5 t-117 -78t-125 -40.5t-121.5 -10z" glyph-name="afii10083" unicode="с"/><glyph d="M391 0v805h-330v260h994v-260h-328v-805h-336z" glyph-name="afii10084" horiz-adv-x="1116" unicode="т"/><glyph d="M139 -131q231 -31 287 92q29 66 -6 148l-387 956h342l227 -637l234 637h344l-430 -1053q-109 -266 -238 -359t-373 -67v283z" glyph-name="afii10085" horiz-adv-x="1210" unicode="у"/><glyph d="M481 -389v389q-184 41 -306 171t-122 355q0 227 123 360.5t305 174.5v373h316v-373q182 -43 303 -176t121 -359q0 -223 -121 -355t-303 -173v-387h-316zM326 526q0 -209 155 -272v551q-155 -64 -155 -279zM797 256q152 63 151 270q0 213 -151 277v-547z" glyph-name="afii10086" horiz-adv-x="1273" unicode="ф"/><glyph d="M53 0l365 539l-340 526h360l172 -287l170 287h361l-340 -526l366 -539h-360l-197 297l-198 -297h-359z" glyph-name="afii10087" horiz-adv-x="1218" unicode="х"/><glyph d="M104 0v1065h336v-805h303v805h336v-805h146v-547h-320v287h-801z" glyph-name="afii10088" horiz-adv-x="1329" unicode="ц"/><glyph d="M444 272q-172 0 -281.5 102.5t-109.5 317.5v373h336v-332q0 -92 51.5 -138t134.5 -46q88 0 138.5 52t50.5 132v332h336v-1065h-336v467q-14 -74 -97.5 -134.5t-222.5 -60.5z" glyph-name="afii10089" horiz-adv-x="1204" unicode="ч"/><glyph d="M104 0v1065h336v-805h230v805h315v-805h232v805h335v-1065h-1448z" glyph-name="afii10090" horiz-adv-x="1654" unicode="ш"/><glyph d="M1380 -287v287h-1276v1065h336v-805h230v805h315v-805h232v805h335v-805h148v-547h-320z" glyph-name="afii10091" horiz-adv-x="1802" unicode="щ"/><glyph d="M33 805v260h520v-346h276q203 0 318 -98.5t115 -262.5q0 -168 -114 -263t-319 -95h-612v805h-184zM553 260h264q121 0 121 98.5t-121 98.5h-264v-197z" glyph-name="afii10092" horiz-adv-x="1312" unicode="ъ"/><glyph d="M104 0v1065h336v-346h277q203 0 317.5 -98.5t114.5 -262.5q0 -168 -113.5 -263t-318.5 -95h-613zM440 260h265q121 0 120.5 98.5t-120.5 98.5h-265v-197zM1268 0v1065h336v-1065h-336z" glyph-name="afii10093" horiz-adv-x="1708" unicode="ы"/><glyph d="M104 0v1065h336v-346h277q203 0 317.5 -98.5t114.5 -262.5q0 -168 -113.5 -263t-318.5 -95h-613zM440 260h265q121 0 120.5 98.5t-120.5 98.5h-265v-197z" glyph-name="afii10094" horiz-adv-x="1200" unicode="ь"/><glyph d="M494 432v203h270q-43 170 -213 170q-160 0 -193 -166h-305q14 133 66.5 227.5t129.5 138.5t148.5 62t151.5 18q102 0 195.5 -30.5t173 -94t127 -174t47.5 -256t-47.5 -255t-127 -172t-173 -93t-195.5 -30.5q-63 0 -121.5 10t-125 40.5t-117 78t-87.5 130.5t-45 189h305 q33 -168 193 -168q172 0 215 172h-272z" glyph-name="afii10095" horiz-adv-x="1144" unicode="э"/><glyph d="M90 0v1065h336v-401h119q39 211 187.5 316t342.5 105q141 0 260 -54t200 -183t81 -315.5t-81 -315.5t-199.5 -183t-260.5 -54q-195 0 -343 105t-187 316h-119v-401h-336zM848 532.5q0 -135.5 62.5 -205t165 -69.5t163.5 69.5t61 205t-61 205t-163.5 69.5t-165 -69.5 t-62.5 -205z" glyph-name="afii10096" horiz-adv-x="1667" unicode="ю"/><glyph d="M74 0l252 367q-127 37 -196 126t-69 214q0 168 114 263t319 95h612v-1065h-336v346h-113l-231 -346h-352zM385 706.5q0 -98.5 121 -98.5h264v197h-264q-121 0 -121 -98.5z" glyph-name="afii10097" horiz-adv-x="1210" unicode="я"/><glyph d="M596 -20q-104 0 -197.5 29.5t-172.5 92t-126 174t-47 261.5q0 279 153.5 413.5t389.5 134.5q229 0 372.5 -131t143.5 -422q0 -47 -6 -83h-735q25 -215 231 -216q168 0 201 127h295q-37 -182 -170 -281t-332 -99zM135 1343q0 74 54.5 126.5t125.5 52.5q74 0 128.5 -52.5 t54.5 -126t-54.5 -125t-128.5 -51.5q-72 0 -126 52t-54 124zM373 643h422q-6 80 -53.5 134t-153.5 54q-184 0 -215 -188zM653 1343.5q0 73.5 54.5 126t128.5 52.5q72 0 126 -52.5t54 -126.5q0 -72 -54.5 -124t-125.5 -52q-74 0 -128.5 51.5t-54.5 125z" glyph-name="afii10071" horiz-adv-x="1163" unicode="ё"/><glyph d="M104 0v1065h781v-260h-445v-805h-336zM307 1188l219 289h289l-219 -289h-289z" glyph-name="afii10100" horiz-adv-x="917" unicode="ѓ"/><glyph d="M596 -20q-102 0 -195.5 30.5t-173.5 93t-127 172t-47 255t47 256t127 174t173.5 94t195.5 30.5q80 0 151.5 -18t148.5 -62t129 -138.5t67 -227.5h-306q-33 166 -192 166q-170 0 -213 -170h270v-203h-272q43 -172 215 -172q160 0 192 168h306q-8 -106 -45 -189 t-87.5 -130.5t-117 -78t-125 -40.5t-121.5 -10z" glyph-name="afii10101" unicode="є"/><glyph d="M90 0v1065h336v-1065h-336zM-186 1343q0 74 54 126.5t126 52.5q74 0 128 -52.5t54 -126t-54 -125t-128 -51.5q-72 0 -126 52t-54 124zM332 1343.5q0 73.5 54 126t128 52.5q72 0 126 -52.5t54 -126.5q0 -72 -54 -124t-126 -52q-74 0 -128 51.5t-54 125z" glyph-name="afii10104" horiz-adv-x="516" unicode="ї"/><glyph d="M104 0v1065h336v-373l328 373h377l-418 -455l477 -610h-364l-318 389l-82 -88v-301h-336zM451 1188l219 289h288l-219 -289h-288z" glyph-name="afii10109" horiz-adv-x="1214" unicode="ќ"/><glyph d="M139 -131q231 -31 287 92q29 66 -6 148l-387 956h342l227 -637l234 637h344l-430 -1053q-109 -266 -238 -359t-373 -67v283zM258 1477h219q2 -74 33 -105t92.5 -31t92 31t32.5 105h219q0 -156 -89 -242t-255 -86q-164 0 -254 86t-90 242z" glyph-name="afii10110" horiz-adv-x="1210" unicode="ў"/><glyph d="M455 1130v-1130h-351v1434h592v204h353v-508h-594z" glyph-name="afii10050" horiz-adv-x="1091" unicode="Ґ"/><glyph d="M440 805v-805h-336v1065h494v135h287v-395h-445z" glyph-name="afii10098" horiz-adv-x="917" unicode="ґ"/><glyph d="M104 0v1434h564q332 0 505 -184.5t173 -532.5t-173.5 -532.5t-504.5 -184.5h-564zM446 299h187q203 0 281.5 95t78.5 322.5t-78.5 323t-281.5 95.5h-187v-836zM510 -276.5q0 81.5 58.5 138t140.5 56.5q84 0 141 -56.5t57 -138t-57 -138t-141 -56.5q-82 0 -140.5 56.5 t-58.5 138z" glyph-name="uni1E0C" horiz-adv-x="1419" unicode="Ḍ"/><glyph d="M514 -20q-184 0 -323.5 139t-139.5 413q0 272 139.5 412.5t323.5 140.5q111 0 191.5 -49t103.5 -114v512h336v-1434h-336v143q-23 -66 -103.5 -114.5t-191.5 -48.5zM367 532.5q0 -133.5 67.5 -204t163.5 -70.5q94 0 159.5 70.5t65.5 204t-65.5 204t-159.5 70.5 q-96 0 -163.5 -70.5t-67.5 -204zM418 -276.5q0 81.5 58.5 138t139.5 56.5q84 0 141.5 -56.5t57.5 -138t-57.5 -138t-141.5 -56.5q-82 0 -140 56.5t-58 138z" glyph-name="uni1E0D" horiz-adv-x="1249" unicode="ḍ"/><glyph d="M750 -20q-328 0 -502 194.5t-174 534.5q0 348 180 545.5t487 197.5q246 0 420 -125t203 -371h-342q-45 199 -281 199q-319 0 -319 -434q0 -197 75.5 -321t250.5 -124q115 0 202.5 57.5t89.5 192.5h-252v279h596v-164q0 -324 -166.5 -492.5t-467.5 -168.5zM393 1655v190 h690v-190h-690z" glyph-name="uni1E20" horiz-adv-x="1468" unicode="Ḡ"/><glyph d="M498 29q-82 0 -158 28.5t-142.5 88t-105.5 165t-39 246.5q0 139 40 245.5t106.5 166t141.5 88t157 28.5q197 0 297 -133v113h335v-1020q0 -117 -38.5 -205t-96 -137t-136.5 -81t-146.5 -41t-139.5 -9q-63 0 -121.5 6t-130 29.5t-124 62.5t-89 111t-36.5 166h297 q4 -63 63.5 -90t130.5 -27q102 0 167 53.5t65 161.5v117q-100 -133 -297 -133zM246 1286v191h690v-191h-690zM369 557q0 -121 63.5 -185.5t159.5 -64.5q94 0 155.5 64.5t61.5 185.5t-61.5 185.5t-155.5 64.5q-96 0 -159.5 -64.5t-63.5 -185.5z" glyph-name="uni1E21" horiz-adv-x="1234" unicode="ḡ"/><glyph d="M956 0v578h-510v-578h-342v1434h342v-572h510v572h344v-1434h-344zM504 -276.5q0 81.5 58.5 138t139.5 56.5q84 0 141.5 -56.5t57.5 -138t-57.5 -138t-141.5 -56.5q-82 0 -140 56.5t-58 138z" glyph-name="uni1E24" horiz-adv-x="1402" unicode="Ḥ"/><glyph d="M104 0v1434h336v-594h13q18 94 103 169.5t228 75.5q162 0 263.5 -105.5t101.5 -299.5v-680h-336v598q0 211 -176 211q-86 0 -141.5 -52t-55.5 -159v-598h-336zM399 -276.5q0 81.5 58.5 138t140.5 56.5q84 0 141.5 -56.5t57.5 -138t-57.5 -138t-141.5 -56.5 q-82 0 -140.5 56.5t-58.5 138z" glyph-name="uni1E25" horiz-adv-x="1253" unicode="ḥ"/><glyph d="M684 -20q-285 0 -447.5 130t-162.5 373h356q4 -98 65.5 -158.5t190.5 -60.5q109 0 170.5 42t61.5 120q0 61 -42 95t-137 52l-204 41q-190 35 -306 129.5t-116 280.5q0 209 154.5 318.5t412.5 109.5q262 0 413.5 -115.5t151.5 -341.5h-356q4 88 -57.5 130t-159.5 42 q-102 0 -150.5 -42t-48.5 -101q0 -106 143 -135l185 -37q262 -51 371.5 -153.5t109.5 -270.5q0 -154 -84 -257t-214 -147t-300 -44zM455 -276.5q0 81.5 58 138t140 56.5q84 0 141.5 -56.5t57.5 -138t-57.5 -138t-141.5 -56.5q-82 0 -140 56.5t-58 138z" glyph-name="uni1E62" horiz-adv-x="1355" unicode="Ṣ"/><glyph d="M510 -20q-225 0 -347 97t-120 285h299q16 -133 170 -133q141 0 141 88q0 61 -80 74l-194 43q-309 66 -309 318q0 156 122.5 244.5t323.5 88.5q217 0 331 -101t114 -282h-279q-16 133 -162 134q-125 0 -125 -76q0 -72 92 -84l203 -45q309 -66 309 -305q0 -170 -137 -258 t-352 -88zM313 -276.5q0 81.5 58.5 138t140.5 56.5q84 0 141.5 -56.5t57.5 -138t-57.5 -138t-141.5 -56.5q-82 0 -140.5 56.5t-58.5 138z" glyph-name="uni1E63" horiz-adv-x="1040" unicode="ṣ"/><glyph d="M449 0v1128h-406v306h1157v-306h-407v-1128h-344zM350 -276.5q0 81.5 58.5 138t140.5 56.5q84 0 141.5 -56.5t57.5 -138t-57.5 -138t-141.5 -56.5q-82 0 -140.5 56.5t-58.5 138z" glyph-name="uni1E6C" horiz-adv-x="1241" unicode="Ṭ"/><glyph d="M592 -14q-377 0 -377 352v467h-182v260h182v278h336v-278h209v-260h-209v-420q0 -63 26.5 -98t102.5 -35q41 0 88 4v-248q-80 -22 -176 -22zM350 -276.5q0 81.5 58.5 138t140.5 56.5q84 0 141.5 -56.5t57.5 -138t-57.5 -138t-141.5 -56.5q-82 0 -140.5 56.5t-58.5 138z " glyph-name="uni1E6D" horiz-adv-x="808" unicode="ṭ"/><glyph d="M412 0l-369 1434h352l211 -949h12l256 949h353l256 -949h12l211 949h354l-370 -1434h-357l-282 1001l-283 -1001h-356zM721 1845h289l219 -289h-289z" glyph-name="Wgrave" horiz-adv-x="2101" unicode="Ẁ"/><glyph d="M309 0l-276 1065h315l166 -741h8l191 741h288l191 -741h8l166 741h317l-278 -1065h-377l-170 618l-170 -618h-379zM524 1477h289l219 -289h-289z" glyph-name="wgrave" horiz-adv-x="1714" unicode="ẁ"/><glyph d="M412 0l-369 1434h352l211 -949h12l256 949h353l256 -949h12l211 949h354l-370 -1434h-357l-282 1001l-283 -1001h-356zM895 1556l219 289h289l-219 -289h-289z" glyph-name="Wacute" horiz-adv-x="2101" unicode="Ẃ"/><glyph d="M309 0l-276 1065h315l166 -741h8l191 741h288l191 -741h8l166 741h317l-278 -1065h-377l-170 618l-170 -618h-379zM698 1188l220 289h288l-219 -289h-289z" glyph-name="wacute" horiz-adv-x="1714" unicode="ẃ"/><glyph d="M412 0l-369 1434h352l211 -949h12l256 949h353l256 -949h12l211 949h354l-370 -1434h-357l-282 1001l-283 -1001h-356zM606 1712q0 74 54.5 126t125.5 52q74 0 128.5 -52t54.5 -126t-54.5 -125t-128.5 -51q-72 0 -126 52t-54 124zM1124 1712q0 74 54.5 126t128.5 52 q72 0 126 -52t54 -126q0 -72 -54.5 -124t-125.5 -52q-74 0 -128.5 51t-54.5 125z" glyph-name="Wdieresis" horiz-adv-x="2101" unicode="Ẅ"/><glyph d="M309 0l-276 1065h315l166 -741h8l191 741h288l191 -741h8l166 741h317l-278 -1065h-377l-170 618l-170 -618h-379zM412 1343q0 74 54 126.5t126 52.5q74 0 128 -52.5t54 -126t-54 -125t-128 -51.5q-72 0 -126 52t-54 124zM930 1343.5q0 73.5 54 126t128 52.5 q72 0 126 -52.5t54 -126.5q0 -72 -54 -124t-126 -52q-74 0 -128 51.5t-54 125z" glyph-name="wdieresis" horiz-adv-x="1714" unicode="ẅ"/><glyph d="M82 0v299l725 836h-713v299h1094l2 -299l-731 -836h737v-299h-1114zM463 -276.5q0 81.5 58.5 138t140.5 56.5q84 0 141 -56.5t57 -138t-57.5 -138t-140.5 -56.5q-82 0 -140.5 56.5t-58.5 138z" glyph-name="uni1E92" horiz-adv-x="1277" unicode="Ẓ"/><glyph d="M82 0v281l485 503h-465v281h867v-281l-486 -503h486v-281h-887zM328 -276.5q0 81.5 58 138t140 56.5q84 0 141.5 -56.5t57.5 -138t-57.5 -138t-141.5 -56.5q-82 0 -140 56.5t-58 138z" glyph-name="uni1E93" horiz-adv-x="1050" unicode="ẓ"/><glyph d="M971 -20q-442 0 -443 458h316q0 -160 127 -159q123 0 123 163q0 195 -258 195h-265l295 516h-248q-88 0 -125.5 -39t-37.5 -123v-991h-351v1030q0 217 118 321.5t358 104.5h778l-332 -545q195 -25 315.5 -141.5t120.5 -327.5q0 -207 -124.5 -334.5t-366.5 -127.5z" glyph-name="uni1E9E" horiz-adv-x="1536" unicode="ẞ"/><glyph d="M33 0l510 1434h444l512 -1434h-362l-82 244h-580l-82 -244h-360zM559 498h412l-195 587h-20zM569 -276.5q0 81.5 58.5 138t140.5 56.5q84 0 141.5 -56.5t57.5 -138t-57.5 -138t-141.5 -56.5q-82 0 -140.5 56.5t-58.5 138z" glyph-name="uni1EA0" horiz-adv-x="1529" unicode="Ạ"/><glyph d="M393 -20q-141 0 -240.5 74.5t-99.5 230.5q0 88 33 149.5t97.5 95t117.5 48t137 26.5l160 25q74 12 98.5 28.5t24.5 65.5v2q0 121 -139 121q-160 0 -160 -125v-19l-313 -4v56q0 332 481 331q242 0 351.5 -86t109.5 -258v-741h-322v184h-14q-8 -27 -26.5 -55.5t-54.5 -65 t-98.5 -60t-142.5 -23.5zM383 -276.5q0 81.5 58.5 138t140.5 56.5q84 0 141 -56.5t57 -138t-57 -138t-141 -56.5q-82 0 -140.5 56.5t-58.5 138zM389 315q0 -98 123 -98q86 0 147.5 47t61.5 109v100q-14 -16 -103 -35l-133 -24q-96 -23 -96 -99z" glyph-name="uni1EA1" unicode="ạ"/><glyph d="M33 0l510 1434h444l512 -1434h-362l-82 244h-580l-82 -244h-360zM557 1735q0 115 64.5 168t154.5 53q96 0 162 -54.5t66 -160.5q0 -88 -50.5 -140.5t-134.5 -64.5l-76 133q78 2 78 62q0 25 -14 38t-35 13q-43 0 -49 -47h-166zM559 498h412l-195 587h-20z" glyph-name="uni1EA2" horiz-adv-x="1529" unicode="Ả"/><glyph d="M393 -20q-141 0 -240.5 74.5t-99.5 230.5q0 88 33 149.5t97.5 95t117.5 48t137 26.5l160 25q74 12 98.5 28.5t24.5 65.5v2q0 121 -139 121q-160 0 -160 -125v-19l-313 -4v56q0 332 481 331q242 0 351.5 -86t109.5 -258v-741h-322v184h-14q-8 -27 -26.5 -55.5t-54.5 -65 t-98.5 -60t-142.5 -23.5zM381 1366q0 115 64.5 168t154.5 53q96 0 161.5 -54t65.5 -161q0 -88 -50 -140t-134 -65l-76 133q78 2 78 62q0 25 -14.5 38t-34.5 13q-43 0 -49 -47h-166zM389 315q0 -98 123 -98q86 0 147.5 47t61.5 109v100q-14 -16 -103 -35l-133 -24 q-96 -23 -96 -99z" glyph-name="uni1EA3" unicode="ả"/><glyph d="M33 0l510 1434h444l512 -1434h-362l-82 244h-580l-82 -244h-360zM338 1552l194 293h476l194 -293h-299l-133 207l-133 -207h-299zM559 498h412l-195 587h-20zM1116 1761l219 289h289l-219 -289h-289z" glyph-name="uni1EA4" horiz-adv-x="1529" unicode="Ấ"/><glyph d="M393 -20q-141 0 -240.5 74.5t-99.5 230.5q0 88 33 149.5t97.5 95t117.5 48t137 26.5l160 25q74 12 98.5 28.5t24.5 65.5v2q0 121 -139 121q-160 0 -160 -125v-19l-313 -4v56q0 332 481 331q242 0 351.5 -86t109.5 -258v-741h-322v184h-14q-8 -27 -26.5 -55.5t-54.5 -65 t-98.5 -60t-142.5 -23.5zM162 1184l194 293h475l195 -293h-299l-133 207l-133 -207h-299zM389 315q0 -98 123 -98q86 0 147.5 47t61.5 109v100q-14 -16 -103 -35l-133 -24q-96 -23 -96 -99zM940 1393l219 288h289l-219 -288h-289z" glyph-name="uni1EA5" unicode="ấ"/><glyph d="M33 0l510 1434h444l512 -1434h-362l-82 244h-580l-82 -244h-360zM338 1552l194 293h476l194 -293h-299l-133 207l-133 -207h-299zM559 498h412l-195 587h-20zM987 2052h291l182 -289h-289z" glyph-name="uni1EA6" horiz-adv-x="1529" unicode="Ầ"/><glyph d="M393 -20q-141 0 -240.5 74.5t-99.5 230.5q0 88 33 149.5t97.5 95t117.5 48t137 26.5l160 25q74 12 98.5 28.5t24.5 65.5v2q0 121 -139 121q-160 0 -160 -125v-19l-313 -4v56q0 332 481 331q242 0 351.5 -86t109.5 -258v-741h-322v184h-14q-8 -27 -26.5 -55.5t-54.5 -65 t-98.5 -60t-142.5 -23.5zM162 1184l194 293h475l195 -293h-299l-133 207l-133 -207h-299zM389 315q0 -98 123 -98q86 0 147.5 47t61.5 109v100q-14 -16 -103 -35l-133 -24q-96 -23 -96 -99zM811 1683h291l182 -288h-289z" glyph-name="uni1EA7" unicode="ầ"/><glyph d="M33 0l510 1434h444l512 -1434h-362l-82 244h-580l-82 -244h-360zM338 1552l194 293h476l194 -293h-299l-133 207l-133 -207h-299zM559 498h412l-195 587h-20zM909 1976q0 115 64.5 168.5t154.5 53.5q96 0 162 -54.5t66 -161.5q0 -88 -50.5 -140t-134.5 -64l-75 133 q78 2 78 61q0 25 -14.5 38t-35.5 13q-43 0 -49 -47h-166z" glyph-name="uni1EA8" horiz-adv-x="1529" unicode="Ẩ"/><glyph d="M393 -20q-141 0 -240.5 74.5t-99.5 230.5q0 88 33 149.5t97.5 95t117.5 48t137 26.5l160 25q74 12 98.5 28.5t24.5 65.5v2q0 121 -139 121q-160 0 -160 -125v-19l-313 -4v56q0 332 481 331q242 0 351.5 -86t109.5 -258v-741h-322v184h-14q-8 -27 -26.5 -55.5t-54.5 -65 t-98.5 -60t-142.5 -23.5zM162 1184l194 293h475l195 -293h-299l-133 207l-133 -207h-299zM389 315q0 -98 123 -98q86 0 147.5 47t61.5 109v100q-14 -16 -103 -35l-133 -24q-96 -23 -96 -99zM733 1608q0 115 64.5 168t154.5 53q96 0 162 -54.5t66 -160.5q0 -88 -50.5 -140.5 t-134.5 -64.5l-75 133q78 2 77 62q0 25 -14 38t-35 13q-43 0 -49 -47h-166z" glyph-name="uni1EA9" unicode="ẩ"/><glyph d="M33 0l510 1434h444l512 -1434h-362l-82 244h-580l-82 -244h-360zM338 1552l194 293h476l194 -293h-299l-133 207l-133 -207h-299zM401 1962q0 117 54.5 182.5t158.5 65.5q68 0 119 -26.5t84 -53.5t57 -27q61 0 64 51h195q0 -119 -54.5 -184t-158.5 -65q-53 0 -97.5 17 t-68 36.5t-49 37t-46.5 17.5q-61 0 -63 -51h-195zM559 498h412l-195 587h-20z" glyph-name="uni1EAA" horiz-adv-x="1529" unicode="Ẫ"/><glyph d="M393 -20q-141 0 -240.5 74.5t-99.5 230.5q0 88 33 149.5t97.5 95t117.5 48t137 26.5l160 25q74 12 98.5 28.5t24.5 65.5v2q0 121 -139 121q-160 0 -160 -125v-19l-313 -4v56q0 332 481 331q242 0 351.5 -86t109.5 -258v-741h-322v184h-14q-8 -27 -26.5 -55.5t-54.5 -65 t-98.5 -60t-142.5 -23.5zM162 1184l194 293h475l195 -293h-299l-133 207l-133 -207h-299zM225 1593q0 117 54.5 182.5t158.5 65.5q68 0 119 -26.5t84 -53t57 -26.5q61 0 64 51h194q0 -119 -54 -184.5t-159 -65.5q-53 0 -97 17.5t-67.5 37t-49 37t-46.5 17.5q-61 0 -63 -52 h-195zM389 315q0 -98 123 -98q86 0 147.5 47t61.5 109v100q-14 -16 -103 -35l-133 -24q-96 -23 -96 -99z" glyph-name="uni1EAB" unicode="ẫ"/><glyph d="M33 0l510 1434h444l512 -1434h-362l-82 244h-580l-82 -244h-360zM338 1552l194 293h476l194 -293h-299l-133 207l-133 -207h-299zM559 498h412l-195 587h-20zM569 -276.5q0 81.5 58.5 138t140.5 56.5q84 0 141.5 -56.5t57.5 -138t-57.5 -138t-141.5 -56.5 q-82 0 -140.5 56.5t-58.5 138z" glyph-name="uni1EAC" horiz-adv-x="1529" unicode="Ậ"/><glyph d="M393 -20q-141 0 -240.5 74.5t-99.5 230.5q0 88 33 149.5t97.5 95t117.5 48t137 26.5l160 25q74 12 98.5 28.5t24.5 65.5v2q0 121 -139 121q-160 0 -160 -125v-19l-313 -4v56q0 332 481 331q242 0 351.5 -86t109.5 -258v-741h-322v184h-14q-8 -27 -26.5 -55.5t-54.5 -65 t-98.5 -60t-142.5 -23.5zM162 1184l194 293h475l195 -293h-299l-133 207l-133 -207h-299zM383 -276.5q0 81.5 58.5 138t140.5 56.5q84 0 141 -56.5t57 -138t-57 -138t-141 -56.5q-82 0 -140.5 56.5t-58.5 138zM389 315q0 -98 123 -98q86 0 147.5 47t61.5 109v100 q-14 -16 -103 -35l-133 -24q-96 -23 -96 -99z" glyph-name="uni1EAD" unicode="ậ"/><glyph d="M33 0l510 1434h444l512 -1434h-362l-82 244h-580l-82 -244h-360zM424 1845h219q2 -74 33 -104.5t92 -30.5t92 31t33 104h219q0 -156 -89 -241.5t-255 -85.5q-164 0 -254 85.5t-90 241.5zM559 498h412l-195 587h-20zM596 1907l219 288h289l-219 -288h-289z" glyph-name="uni1EAE" horiz-adv-x="1529" unicode="Ắ"/><glyph d="M393 -20q-141 0 -240.5 74.5t-99.5 230.5q0 88 33 149.5t97.5 95t117.5 48t137 26.5l160 25q74 12 98.5 28.5t24.5 65.5v2q0 121 -139 121q-160 0 -160 -125v-19l-313 -4v56q0 332 481 331q242 0 351.5 -86t109.5 -258v-741h-322v184h-14q-8 -27 -26.5 -55.5t-54.5 -65 t-98.5 -60t-142.5 -23.5zM248 1477h219q2 -74 32.5 -105t92 -31t92.5 31t33 105h219q0 -156 -89 -242t-255 -86q-164 0 -254 86t-90 242zM389 315q0 -98 123 -98q86 0 147.5 47t61.5 109v100q-14 -16 -103 -35l-133 -24q-96 -23 -96 -99zM420 1538l219 289h289l-219 -289 h-289z" glyph-name="uni1EAF" unicode="ắ"/><glyph d="M33 0l510 1434h444l512 -1434h-362l-82 244h-580l-82 -244h-360zM418 2195h289l219 -288h-289zM424 1845h219q2 -74 33 -104.5t92 -30.5t92 31t33 104h219q0 -156 -89 -241.5t-255 -85.5q-164 0 -254 85.5t-90 241.5zM559 498h412l-195 587h-20z" glyph-name="uni1EB0" horiz-adv-x="1529" unicode="Ằ"/><glyph d="M393 -20q-141 0 -240.5 74.5t-99.5 230.5q0 88 33 149.5t97.5 95t117.5 48t137 26.5l160 25q74 12 98.5 28.5t24.5 65.5v2q0 121 -139 121q-160 0 -160 -125v-19l-313 -4v56q0 332 481 331q242 0 351.5 -86t109.5 -258v-741h-322v184h-14q-8 -27 -26.5 -55.5t-54.5 -65 t-98.5 -60t-142.5 -23.5zM242 1827h288l220 -289h-289zM248 1477h219q2 -74 32.5 -105t92 -31t92.5 31t33 105h219q0 -156 -89 -242t-255 -86q-164 0 -254 86t-90 242zM389 315q0 -98 123 -98q86 0 147.5 47t61.5 109v100q-14 -16 -103 -35l-133 -24q-96 -23 -96 -99z" glyph-name="uni1EB1" unicode="ằ"/><glyph d="M33 0l510 1434h444l512 -1434h-362l-82 244h-580l-82 -244h-360zM424 1845h219q2 -74 33 -104.5t92 -30.5t92 31t33 104h219q0 -156 -89 -241.5t-255 -85.5q-164 0 -254 85.5t-90 241.5zM465 2001q0 115 64.5 168t154.5 53q96 0 161.5 -54t65.5 -161q0 -88 -50 -140 t-134 -65l-76 133q78 2 78 62q0 25 -14.5 38t-34.5 13q-43 0 -49 -47h-166zM559 498h412l-195 587h-20z" glyph-name="uni1EB2" horiz-adv-x="1529" unicode="Ẳ"/><glyph d="M393 -20q-141 0 -240.5 74.5t-99.5 230.5q0 88 33 149.5t97.5 95t117.5 48t137 26.5l160 25q74 12 98.5 28.5t24.5 65.5v2q0 121 -139 121q-160 0 -160 -125v-19l-313 -4v56q0 332 481 331q242 0 351.5 -86t109.5 -258v-741h-322v184h-14q-8 -27 -26.5 -55.5t-54.5 -65 t-98.5 -60t-142.5 -23.5zM248 1477h219q2 -74 32.5 -105t92 -31t92.5 31t33 105h219q0 -156 -89 -242t-255 -86q-164 0 -254 86t-90 242zM289 1632q0 115 64.5 168t154.5 53q96 0 161.5 -54t65.5 -161q0 -88 -50 -140t-134 -64l-76 133q78 2 78 61q0 25 -14.5 38t-34.5 13 q-43 0 -49 -47h-166zM389 315q0 -98 123 -98q86 0 147.5 47t61.5 109v100q-14 -16 -103 -35l-133 -24q-96 -23 -96 -99z" glyph-name="uni1EB3" unicode="ẳ"/><glyph d="M33 0l510 1434h444l512 -1434h-362l-82 244h-580l-82 -244h-360zM403 1972q0 117 54.5 182.5t158.5 65.5q68 0 119 -26.5t84 -53t58 -26.5q61 0 63 51h195q0 -119 -54.5 -184.5t-158.5 -65.5q-68 0 -119 27.5t-84 54t-57 26.5q-61 0 -64 -51h-195zM424 1845h219 q2 -74 33 -104.5t92 -30.5t92 31t33 104h219q0 -156 -89 -241.5t-255 -85.5q-164 0 -254 85.5t-90 241.5zM559 498h412l-195 587h-20z" glyph-name="uni1EB4" horiz-adv-x="1529" unicode="Ẵ"/><glyph d="M393 -20q-141 0 -240.5 74.5t-99.5 230.5q0 88 33 149.5t97.5 95t117.5 48t137 26.5l160 25q74 12 98.5 28.5t24.5 65.5v2q0 121 -139 121q-160 0 -160 -125v-19l-313 -4v56q0 332 481 331q242 0 351.5 -86t109.5 -258v-741h-322v184h-14q-8 -27 -26.5 -55.5t-54.5 -65 t-98.5 -60t-142.5 -23.5zM227 1604q0 117 54.5 182t158.5 65q68 0 119 -26.5t84 -53t57 -26.5q61 0 64 51h194q0 -119 -54 -184.5t-159 -65.5q-68 0 -119 28t-83.5 54.5t-57.5 26.5q-61 0 -63 -51h-195zM248 1477h219q2 -74 32.5 -105t92 -31t92.5 31t33 105h219 q0 -156 -89 -242t-255 -86q-164 0 -254 86t-90 242zM389 315q0 -98 123 -98q86 0 147.5 47t61.5 109v100q-14 -16 -103 -35l-133 -24q-96 -23 -96 -99z" glyph-name="uni1EB5" unicode="ẵ"/><glyph d="M33 0l510 1434h444l512 -1434h-362l-82 244h-580l-82 -244h-360zM424 1845h219q2 -74 33 -104.5t92 -30.5t92 31t33 104h219q0 -156 -89 -241.5t-255 -85.5q-164 0 -254 85.5t-90 241.5zM559 498h412l-195 587h-20zM569 -276.5q0 81.5 58.5 138t140.5 56.5 q84 0 141.5 -56.5t57.5 -138t-57.5 -138t-141.5 -56.5q-82 0 -140.5 56.5t-58.5 138z" glyph-name="uni1EB6" horiz-adv-x="1529" unicode="Ặ"/><glyph d="M393 -20q-141 0 -240.5 74.5t-99.5 230.5q0 88 33 149.5t97.5 95t117.5 48t137 26.5l160 25q74 12 98.5 28.5t24.5 65.5v2q0 121 -139 121q-160 0 -160 -125v-19l-313 -4v56q0 332 481 331q242 0 351.5 -86t109.5 -258v-741h-322v184h-14q-8 -27 -26.5 -55.5t-54.5 -65 t-98.5 -60t-142.5 -23.5zM248 1477h219q2 -74 32.5 -105t92 -31t92.5 31t33 105h219q0 -156 -89 -242t-255 -86q-164 0 -254 86t-90 242zM383 -276.5q0 81.5 58.5 138t140.5 56.5q84 0 141 -56.5t57 -138t-57 -138t-141 -56.5q-82 0 -140.5 56.5t-58.5 138zM389 315 q0 -98 123 -98q86 0 147.5 47t61.5 109v100q-14 -16 -103 -35l-133 -24q-96 -23 -96 -99z" glyph-name="uni1EB7" unicode="ặ"/><glyph d="M104 0v1434h998v-299h-656v-279h594v-266h-594v-291h676v-299h-1018zM434 -276.5q0 81.5 58.5 138t140.5 56.5q84 0 141 -56.5t57 -138t-57 -138t-141 -56.5q-82 0 -140.5 56.5t-58.5 138z" glyph-name="uni1EB8" horiz-adv-x="1173" unicode="Ẹ"/><glyph d="M596 -20q-104 0 -197.5 29.5t-172.5 92t-126 174t-47 261.5q0 279 153.5 413.5t389.5 134.5q229 0 372.5 -131t143.5 -422q0 -47 -6 -83h-735q25 -215 231 -216q168 0 201 127h295q-37 -182 -170 -281t-332 -99zM373 643h422q-6 80 -53.5 134t-153.5 54q-184 0 -215 -188 zM389 -276.5q0 81.5 58.5 138t140.5 56.5q84 0 141 -56.5t57 -138t-57 -138t-141 -56.5q-82 0 -140.5 56.5t-58.5 138z" glyph-name="uni1EB9" horiz-adv-x="1163" unicode="ẹ"/><glyph d="M104 0v1434h998v-299h-656v-279h594v-266h-594v-291h676v-299h-1018zM422 1735q0 115 64.5 168t154.5 53q96 0 161.5 -54.5t65.5 -160.5q0 -88 -50 -140.5t-134 -64.5l-76 133q78 2 78 62q0 25 -14.5 38t-34.5 13q-43 0 -49 -47h-166z" glyph-name="uni1EBA" horiz-adv-x="1173" unicode="Ẻ"/><glyph d="M596 -20q-104 0 -197.5 29.5t-172.5 92t-126 174t-47 261.5q0 279 153.5 413.5t389.5 134.5q229 0 372.5 -131t143.5 -422q0 -47 -6 -83h-735q25 -215 231 -216q168 0 201 127h295q-37 -182 -170 -281t-332 -99zM369 1366q0 115 64.5 168t154.5 53q96 0 161.5 -54 t65.5 -161q0 -88 -50 -140t-134 -65l-76 133q78 2 78 62q0 25 -14.5 38t-34.5 13q-43 0 -49 -47h-166zM373 643h422q-6 80 -53.5 134t-153.5 54q-184 0 -215 -188z" glyph-name="uni1EBB" horiz-adv-x="1163" unicode="ẻ"/><glyph d="M104 0v1434h998v-299h-656v-279h594v-266h-594v-291h676v-299h-1018zM268 1622q0 117 54.5 182.5t158.5 65.5q68 0 119 -26.5t84 -53.5t57 -27q61 0 64 52h194q0 -119 -54 -184.5t-159 -65.5q-53 0 -97 17t-67.5 36.5t-49 37t-46.5 17.5q-61 0 -63 -51h-195z" glyph-name="uni1EBC" horiz-adv-x="1173" unicode="Ẽ"/><glyph d="M596 -20q-104 0 -197.5 29.5t-172.5 92t-126 174t-47 261.5q0 279 153.5 413.5t389.5 134.5q229 0 372.5 -131t143.5 -422q0 -47 -6 -83h-735q25 -215 231 -216q168 0 201 127h295q-37 -182 -170 -281t-332 -99zM215 1253q0 117 54.5 182.5t158.5 65.5q68 0 119 -26.5 t84 -53t57 -26.5q61 0 64 51h194q0 -119 -54 -184.5t-159 -65.5q-53 0 -97 17.5t-67.5 37t-49 37t-46.5 17.5q-61 0 -63 -52h-195zM373 643h422q-6 80 -53.5 134t-153.5 54q-184 0 -215 -188z" glyph-name="uni1EBD" horiz-adv-x="1163" unicode="ẽ"/><glyph d="M104 0v1434h998v-299h-656v-279h594v-266h-594v-291h676v-299h-1018zM205 1552l194 293h475l195 -293h-299l-133 207l-133 -207h-299zM983 1761l219 289h289l-219 -289h-289z" glyph-name="uni1EBE" horiz-adv-x="1173" unicode="Ế"/><glyph d="M596 -20q-104 0 -197.5 29.5t-172.5 92t-126 174t-47 261.5q0 279 153.5 413.5t389.5 134.5q229 0 372.5 -131t143.5 -422q0 -47 -6 -83h-735q25 -215 231 -216q168 0 201 127h295q-37 -182 -170 -281t-332 -99zM152 1184l194 293h475l195 -293h-299l-133 207l-133 -207 h-299zM373 643h422q-6 80 -53.5 134t-153.5 54q-184 0 -215 -188zM930 1393l219 288h289l-219 -288h-289z" glyph-name="uni1EBF" horiz-adv-x="1163" unicode="ế"/><glyph d="M104 0v1434h998v-299h-656v-279h594v-266h-594v-291h676v-299h-1018zM205 1552l194 293h475l195 -293h-299l-133 207l-133 -207h-299zM854 2052h291l182 -289h-289z" glyph-name="uni1EC0" horiz-adv-x="1173" unicode="Ề"/><glyph d="M596 -20q-104 0 -197.5 29.5t-172.5 92t-126 174t-47 261.5q0 279 153.5 413.5t389.5 134.5q229 0 372.5 -131t143.5 -422q0 -47 -6 -83h-735q25 -215 231 -216q168 0 201 127h295q-37 -182 -170 -281t-332 -99zM152 1184l194 293h475l195 -293h-299l-133 207l-133 -207 h-299zM373 643h422q-6 80 -53.5 134t-153.5 54q-184 0 -215 -188zM801 1683h291l182 -288h-289z" glyph-name="uni1EC1" horiz-adv-x="1163" unicode="ề"/><glyph d="M104 0v1434h998v-299h-656v-279h594v-266h-594v-291h676v-299h-1018zM205 1552l194 293h475l195 -293h-299l-133 207l-133 -207h-299zM776 1976q0 115 64.5 168.5t154.5 53.5q96 0 162 -54.5t66 -161.5q0 -88 -50.5 -140t-134.5 -64l-75 133q78 2 77 61q0 25 -14 38 t-35 13q-43 0 -49 -47h-166z" glyph-name="uni1EC2" horiz-adv-x="1173" unicode="Ể"/><glyph d="M596 -20q-104 0 -197.5 29.5t-172.5 92t-126 174t-47 261.5q0 279 153.5 413.5t389.5 134.5q229 0 372.5 -131t143.5 -422q0 -47 -6 -83h-735q25 -215 231 -216q168 0 201 127h295q-37 -182 -170 -281t-332 -99zM152 1184l194 293h475l195 -293h-299l-133 207l-133 -207 h-299zM373 643h422q-6 80 -53.5 134t-153.5 54q-184 0 -215 -188zM723 1608q0 115 64.5 168t154.5 53q96 0 161.5 -54.5t65.5 -160.5q0 -88 -50 -140.5t-134 -64.5l-76 133q78 2 78 62q0 25 -14.5 38t-34.5 13q-43 0 -49 -47h-166z" glyph-name="uni1EC3" horiz-adv-x="1163" unicode="ể"/><glyph d="M104 0v1434h998v-299h-656v-279h594v-266h-594v-291h676v-299h-1018zM205 1552l194 293h475l195 -293h-299l-133 207l-133 -207h-299zM268 1962q0 117 54.5 182.5t158.5 65.5q68 0 119 -26.5t84 -53.5t57 -27q61 0 64 51h194q0 -119 -54 -184t-159 -65q-53 0 -97 17 t-67.5 36.5t-49 37t-46.5 17.5q-61 0 -63 -51h-195z" glyph-name="uni1EC4" horiz-adv-x="1173" unicode="Ễ"/><glyph d="M596 -20q-104 0 -197.5 29.5t-172.5 92t-126 174t-47 261.5q0 279 153.5 413.5t389.5 134.5q229 0 372.5 -131t143.5 -422q0 -47 -6 -83h-735q25 -215 231 -216q168 0 201 127h295q-37 -182 -170 -281t-332 -99zM152 1184l194 293h475l195 -293h-299l-133 207l-133 -207 h-299zM215 1593q0 117 54.5 182.5t158.5 65.5q68 0 119 -26.5t84 -53t57 -26.5q61 0 64 51h194q0 -119 -54 -184.5t-159 -65.5q-53 0 -97 17.5t-67.5 37t-49 37t-46.5 17.5q-61 0 -63 -52h-195zM373 643h422q-6 80 -53.5 134t-153.5 54q-184 0 -215 -188z" glyph-name="uni1EC5" horiz-adv-x="1163" unicode="ễ"/><glyph d="M104 0v1434h998v-299h-656v-279h594v-266h-594v-291h676v-299h-1018zM205 1552l194 293h475l195 -293h-299l-133 207l-133 -207h-299zM434 -276.5q0 81.5 58.5 138t140.5 56.5q84 0 141 -56.5t57 -138t-57 -138t-141 -56.5q-82 0 -140.5 56.5t-58.5 138z" glyph-name="uni1EC6" horiz-adv-x="1173" unicode="Ệ"/><glyph d="M596 -20q-104 0 -197.5 29.5t-172.5 92t-126 174t-47 261.5q0 279 153.5 413.5t389.5 134.5q229 0 372.5 -131t143.5 -422q0 -47 -6 -83h-735q25 -215 231 -216q168 0 201 127h295q-37 -182 -170 -281t-332 -99zM152 1184l194 293h475l195 -293h-299l-133 207l-133 -207 h-299zM373 643h422q-6 80 -53.5 134t-153.5 54q-184 0 -215 -188zM389 -276.5q0 81.5 58.5 138t140.5 56.5q84 0 141 -56.5t57 -138t-57 -138t-141 -56.5q-82 0 -140.5 56.5t-58.5 138z" glyph-name="uni1EC7" horiz-adv-x="1163" unicode="ệ"/><glyph d="M104 0v1434h342v-1434h-342zM63 1735q0 115 65 168t155 53q96 0 161.5 -54.5t65.5 -160.5q0 -88 -50 -140.5t-134 -64.5l-76 133q78 2 78 62q0 25 -14.5 38t-34.5 13q-43 0 -50 -47h-166z" glyph-name="uni1EC8" horiz-adv-x="550" unicode="Ỉ"/><glyph d="M90 0v1065h336v-1065h-336zM47 1366q0 115 64.5 168t154.5 53q96 0 162 -54t66 -161q0 -88 -50.5 -140t-134.5 -65l-76 133q78 2 78 62q0 25 -14 38t-35 13q-43 0 -49 -47h-166z" glyph-name="uni1EC9" horiz-adv-x="516" unicode="ỉ"/><glyph d="M104 0v1434h342v-1434h-342zM74 -276.5q0 81.5 58 138t140 56.5q84 0 141.5 -56.5t57.5 -138t-57.5 -138t-141.5 -56.5q-82 0 -140 56.5t-58 138z" glyph-name="uni1ECA" horiz-adv-x="550" unicode="Ị"/><glyph d="M104 0v1065h336v-1065h-336zM90 1347.5q0 75.5 54.5 128t127.5 52.5q72 0 126.5 -52.5t54.5 -128t-54.5 -128t-126.5 -52.5q-74 0 -128 52.5t-54 128zM102 -276.5q0 81.5 58.5 138t140.5 56.5q84 0 141.5 -56.5t57.5 -138t-57.5 -138t-141.5 -56.5q-82 0 -140.5 56.5 t-58.5 138z" glyph-name="uni1ECB" horiz-adv-x="542" unicode="ị"/><glyph d="M766 -20q-315 0 -503.5 205.5t-188.5 531.5q0 328 188.5 531.5t503.5 203.5t504.5 -204t189.5 -531q0 -326 -189.5 -531.5t-504.5 -205.5zM428 717q0 -199 87 -320t251 -121t251 121t87 320q0 201 -87 319.5t-251 118.5t-251 -118.5t-87 -319.5zM567 -276.5 q0 81.5 58.5 138t140.5 56.5q84 0 141.5 -56.5t57.5 -138t-57.5 -138t-141.5 -56.5q-82 0 -140.5 56.5t-58.5 138z" glyph-name="uni1ECC" horiz-adv-x="1531" unicode="Ọ"/><glyph d="M594 -20q-104 0 -198.5 32.5t-172.5 96t-124 173t-46 251t46 251t124 173t172 96t199 32.5q141 0 260 -54t200 -183t81 -315.5t-81 -315.5t-200 -183t-260 -54zM367 532.5q0 -135.5 62.5 -205t164.5 -69.5t163.5 69.5t61.5 205t-61.5 205t-163.5 69.5t-164.5 -69.5 t-62.5 -205zM393 -276.5q0 81.5 58.5 138t140.5 56.5q84 0 141.5 -56.5t57.5 -138t-57.5 -138t-141.5 -56.5q-82 0 -140.5 56.5t-58.5 138z" glyph-name="uni1ECD" horiz-adv-x="1185" unicode="ọ"/><glyph d="M766 -20q-315 0 -503.5 205.5t-188.5 531.5q0 328 188.5 531.5t503.5 203.5t504.5 -204t189.5 -531q0 -326 -189.5 -531.5t-504.5 -205.5zM428 717q0 -199 87 -320t251 -121t251 121t87 320q0 201 -87 319.5t-251 118.5t-251 -118.5t-87 -319.5zM555 1735q0 115 64.5 168 t154.5 53q96 0 161.5 -54.5t65.5 -160.5q0 -88 -50 -140.5t-134 -64.5l-76 133q78 2 78 62q0 25 -14 38t-35 13q-43 0 -49 -47h-166z" glyph-name="uni1ECE" horiz-adv-x="1531" unicode="Ỏ"/><glyph d="M594 -20q-104 0 -198.5 32.5t-172.5 96t-124 173t-46 251t46 251t124 173t172 96t199 32.5q141 0 260 -54t200 -183t81 -315.5t-81 -315.5t-200 -183t-260 -54zM367 532.5q0 -135.5 62.5 -205t164.5 -69.5t163.5 69.5t61.5 205t-61.5 205t-163.5 69.5t-164.5 -69.5 t-62.5 -205zM383 1366q0 115 64.5 168t154.5 53q96 0 161.5 -54t65.5 -161q0 -88 -50 -140t-134 -65l-76 133q78 2 78 62q0 25 -14.5 38t-34.5 13q-43 0 -49 -47h-166z" glyph-name="uni1ECF" horiz-adv-x="1185" unicode="ỏ"/><glyph d="M766 -20q-315 0 -503.5 205.5t-188.5 531.5q0 328 188.5 531.5t503.5 203.5t504.5 -204t189.5 -531q0 -326 -189.5 -531.5t-504.5 -205.5zM338 1552l194 293h476l194 -293h-299l-133 207l-133 -207h-299zM428 717q0 -199 87 -320t251 -121t251 121t87 320 q0 201 -87 319.5t-251 118.5t-251 -118.5t-87 -319.5zM1116 1761l219 289h289l-219 -289h-289z" glyph-name="uni1ED0" horiz-adv-x="1531" unicode="Ố"/><glyph d="M594 -20q-104 0 -198.5 32.5t-172.5 96t-124 173t-46 251t46 251t124 173t172 96t199 32.5q141 0 260 -54t200 -183t81 -315.5t-81 -315.5t-200 -183t-260 -54zM164 1184l194 293h476l194 -293h-299l-133 207l-133 -207h-299zM367 532.5q0 -135.5 62.5 -205t164.5 -69.5 t163.5 69.5t61.5 205t-61.5 205t-163.5 69.5t-164.5 -69.5t-62.5 -205zM942 1393l219 288h289l-219 -288h-289z" glyph-name="uni1ED1" horiz-adv-x="1185" unicode="ố"/><glyph d="M766 -20q-315 0 -503.5 205.5t-188.5 531.5q0 328 188.5 531.5t503.5 203.5t504.5 -204t189.5 -531q0 -326 -189.5 -531.5t-504.5 -205.5zM338 1552l194 293h476l194 -293h-299l-133 207l-133 -207h-299zM428 717q0 -199 87 -320t251 -121t251 121t87 320 q0 201 -87 319.5t-251 118.5t-251 -118.5t-87 -319.5zM987 2052h291l182 -289h-289z" glyph-name="uni1ED2" horiz-adv-x="1531" unicode="Ồ"/><glyph d="M594 -20q-104 0 -198.5 32.5t-172.5 96t-124 173t-46 251t46 251t124 173t172 96t199 32.5q141 0 260 -54t200 -183t81 -315.5t-81 -315.5t-200 -183t-260 -54zM164 1184l194 293h476l194 -293h-299l-133 207l-133 -207h-299zM367 532.5q0 -135.5 62.5 -205t164.5 -69.5 t163.5 69.5t61.5 205t-61.5 205t-163.5 69.5t-164.5 -69.5t-62.5 -205zM813 1683h291l182 -288h-289z" glyph-name="uni1ED3" horiz-adv-x="1185" unicode="ồ"/><glyph d="M766 -20q-315 0 -503.5 205.5t-188.5 531.5q0 328 188.5 531.5t503.5 203.5t504.5 -204t189.5 -531q0 -326 -189.5 -531.5t-504.5 -205.5zM338 1552l194 293h476l194 -293h-299l-133 207l-133 -207h-299zM428 717q0 -199 87 -320t251 -121t251 121t87 320 q0 201 -87 319.5t-251 118.5t-251 -118.5t-87 -319.5zM909 1976q0 115 64.5 168.5t154.5 53.5q96 0 162 -54.5t66 -161.5q0 -88 -50.5 -140t-134.5 -64l-75 133q78 2 78 61q0 25 -14.5 38t-35.5 13q-43 0 -49 -47h-166z" glyph-name="uni1ED4" horiz-adv-x="1531" unicode="Ổ"/><glyph d="M594 -20q-104 0 -198.5 32.5t-172.5 96t-124 173t-46 251t46 251t124 173t172 96t199 32.5q141 0 260 -54t200 -183t81 -315.5t-81 -315.5t-200 -183t-260 -54zM164 1184l194 293h476l194 -293h-299l-133 207l-133 -207h-299zM367 532.5q0 -135.5 62.5 -205t164.5 -69.5 t163.5 69.5t61.5 205t-61.5 205t-163.5 69.5t-164.5 -69.5t-62.5 -205zM735 1608q0 115 64.5 168t154.5 53q96 0 162 -54.5t66 -160.5q0 -88 -50.5 -140.5t-134.5 -64.5l-75 133q78 2 77 62q0 25 -14 38t-35 13q-43 0 -49 -47h-166z" glyph-name="uni1ED5" horiz-adv-x="1185" unicode="ổ"/><glyph d="M766 -20q-315 0 -503.5 205.5t-188.5 531.5q0 328 188.5 531.5t503.5 203.5t504.5 -204t189.5 -531q0 -326 -189.5 -531.5t-504.5 -205.5zM338 1552l194 293h476l194 -293h-299l-133 207l-133 -207h-299zM401 1962q0 117 54.5 182.5t158.5 65.5q68 0 119 -26.5t84 -53.5 t57 -27q61 0 64 51h195q0 -119 -54.5 -184t-158.5 -65q-53 0 -97.5 17t-68 36.5t-49 37t-46.5 17.5q-61 0 -63 -51h-195zM428 717q0 -199 87 -320t251 -121t251 121t87 320q0 201 -87 319.5t-251 118.5t-251 -118.5t-87 -319.5z" glyph-name="uni1ED6" horiz-adv-x="1531" unicode="Ỗ"/><glyph d="M594 -20q-104 0 -198.5 32.5t-172.5 96t-124 173t-46 251t46 251t124 173t172 96t199 32.5q141 0 260 -54t200 -183t81 -315.5t-81 -315.5t-200 -183t-260 -54zM164 1184l194 293h476l194 -293h-299l-133 207l-133 -207h-299zM227 1593q0 117 54.5 182.5t158.5 65.5 q68 0 119 -26.5t84 -53t57 -26.5q61 0 64 51h194q0 -119 -54 -184.5t-159 -65.5q-53 0 -97 17.5t-67.5 37t-49 37t-46.5 17.5q-61 0 -63 -52h-195zM367 532.5q0 -135.5 62.5 -205t164.5 -69.5t163.5 69.5t61.5 205t-61.5 205t-163.5 69.5t-164.5 -69.5t-62.5 -205z" glyph-name="uni1ED7" horiz-adv-x="1185" unicode="ỗ"/><glyph d="M766 -20q-315 0 -503.5 205.5t-188.5 531.5q0 328 188.5 531.5t503.5 203.5t504.5 -204t189.5 -531q0 -326 -189.5 -531.5t-504.5 -205.5zM338 1552l194 293h476l194 -293h-299l-133 207l-133 -207h-299zM428 717q0 -199 87 -320t251 -121t251 121t87 320 q0 201 -87 319.5t-251 118.5t-251 -118.5t-87 -319.5zM567 -276.5q0 81.5 58.5 138t140.5 56.5q84 0 141.5 -56.5t57.5 -138t-57.5 -138t-141.5 -56.5q-82 0 -140.5 56.5t-58.5 138z" glyph-name="uni1ED8" horiz-adv-x="1531" unicode="Ộ"/><glyph d="M594 -20q-104 0 -198.5 32.5t-172.5 96t-124 173t-46 251t46 251t124 173t172 96t199 32.5q141 0 260 -54t200 -183t81 -315.5t-81 -315.5t-200 -183t-260 -54zM164 1184l194 293h476l194 -293h-299l-133 207l-133 -207h-299zM367 532.5q0 -135.5 62.5 -205t164.5 -69.5 t163.5 69.5t61.5 205t-61.5 205t-163.5 69.5t-164.5 -69.5t-62.5 -205zM393 -276.5q0 81.5 58.5 138t140.5 56.5q84 0 141.5 -56.5t57.5 -138t-57.5 -138t-141.5 -56.5q-82 0 -140.5 56.5t-58.5 138z" glyph-name="uni1ED9" horiz-adv-x="1185" unicode="ộ"/><glyph d="M766 -20q-315 0 -503.5 205.5t-188.5 531.5q0 328 188.5 531.5t503.5 203.5h444v162h283v-416h-180q147 -195 147 -481q0 -326 -189.5 -531.5t-504.5 -205.5zM428 717q0 -199 87 -320t251 -121t251 121t87 320q0 201 -87 319.5t-251 118.5t-251 -118.5t-87 -319.5z M594 1556l219 289h289l-219 -289h-289z" glyph-name="uni1EDA" horiz-adv-x="1531" unicode="Ớ"/><glyph d="M594 -20q-104 0 -198.5 32.5t-172.5 96t-124 173t-46 251t46 251t124 173t172 96t199 32.5h309v160h268v-416h-106q70 -121 70 -297q0 -186 -81 -315t-200 -183t-260 -54zM367 532.5q0 -135.5 62.5 -205t164.5 -69.5t163.5 69.5t61.5 205t-61.5 205t-163.5 69.5 t-164.5 -69.5t-62.5 -205zM422 1188l219 289h289l-219 -289h-289z" glyph-name="uni1EDB" horiz-adv-x="1185" unicode="ớ"/><glyph d="M766 -20q-315 0 -503.5 205.5t-188.5 531.5q0 328 188.5 531.5t503.5 203.5h444v162h283v-416h-180q147 -195 147 -481q0 -326 -189.5 -531.5t-504.5 -205.5zM416 1845h289l219 -289h-289zM428 717q0 -199 87 -320t251 -121t251 121t87 320q0 201 -87 319.5t-251 118.5 t-251 -118.5t-87 -319.5z" glyph-name="uni1EDC" horiz-adv-x="1531" unicode="Ờ"/><glyph d="M594 -20q-104 0 -198.5 32.5t-172.5 96t-124 173t-46 251t46 251t124 173t172 96t199 32.5h309v160h268v-416h-106q70 -121 70 -297q0 -186 -81 -315t-200 -183t-260 -54zM242 1477h288l220 -289h-289zM367 532.5q0 -135.5 62.5 -205t164.5 -69.5t163.5 69.5t61.5 205 t-61.5 205t-163.5 69.5t-164.5 -69.5t-62.5 -205z" glyph-name="uni1EDD" horiz-adv-x="1185" unicode="ờ"/><glyph d="M766 -20q-315 0 -503.5 205.5t-188.5 531.5q0 328 188.5 531.5t503.5 203.5h444v162h283v-416h-180q147 -195 147 -481q0 -326 -189.5 -531.5t-504.5 -205.5zM428 717q0 -199 87 -320t251 -121t251 121t87 320q0 201 -87 319.5t-251 118.5t-251 -118.5t-87 -319.5z M555 1735q0 115 64.5 168t154.5 53q96 0 161.5 -54.5t65.5 -160.5q0 -88 -50 -140.5t-134 -64.5l-76 133q78 2 78 62q0 25 -14 38t-35 13q-43 0 -49 -47h-166z" glyph-name="uni1EDE" horiz-adv-x="1531" unicode="Ở"/><glyph d="M594 -20q-104 0 -198.5 32.5t-172.5 96t-124 173t-46 251t46 251t124 173t172 96t199 32.5h309v160h268v-416h-106q70 -121 70 -297q0 -186 -81 -315t-200 -183t-260 -54zM367 532.5q0 -135.5 62.5 -205t164.5 -69.5t163.5 69.5t61.5 205t-61.5 205t-163.5 69.5 t-164.5 -69.5t-62.5 -205zM383 1366q0 115 64.5 168t154.5 53q96 0 161.5 -54t65.5 -161q0 -88 -50 -140t-134 -65l-76 133q78 2 78 62q0 25 -14.5 38t-34.5 13q-43 0 -49 -47h-166z" glyph-name="uni1EDF" horiz-adv-x="1185" unicode="ở"/><glyph d="M766 -20q-315 0 -503.5 205.5t-188.5 531.5q0 328 188.5 531.5t503.5 203.5h444v162h283v-416h-180q147 -195 147 -481q0 -326 -189.5 -531.5t-504.5 -205.5zM401 1622q0 117 54.5 182.5t158.5 65.5q68 0 119 -26.5t84 -53.5t57 -27q61 0 64 52h195q0 -119 -54.5 -184.5 t-158.5 -65.5q-53 0 -97.5 17t-68 36.5t-49 37t-46.5 17.5q-61 0 -63 -51h-195zM428 717q0 -199 87 -320t251 -121t251 121t87 320q0 201 -87 319.5t-251 118.5t-251 -118.5t-87 -319.5z" glyph-name="uni1EE0" horiz-adv-x="1531" unicode="Ỡ"/><glyph d="M594 -20q-104 0 -198.5 32.5t-172.5 96t-124 173t-46 251t46 251t124 173t172 96t199 32.5h309v160h268v-416h-106q70 -121 70 -297q0 -186 -81 -315t-200 -183t-260 -54zM227 1253q0 117 54.5 182.5t158.5 65.5q68 0 119 -26.5t84 -53t57 -26.5q61 0 64 51h194 q0 -119 -54 -184.5t-159 -65.5q-53 0 -97 17.5t-67.5 37t-49 37t-46.5 17.5q-61 0 -63 -52h-195zM367 532.5q0 -135.5 62.5 -205t164.5 -69.5t163.5 69.5t61.5 205t-61.5 205t-163.5 69.5t-164.5 -69.5t-62.5 -205z" glyph-name="uni1EE1" horiz-adv-x="1185" unicode="ỡ"/><glyph d="M766 -20q-315 0 -503.5 205.5t-188.5 531.5q0 328 188.5 531.5t503.5 203.5h444v162h283v-416h-180q147 -195 147 -481q0 -326 -189.5 -531.5t-504.5 -205.5zM428 717q0 -199 87 -320t251 -121t251 121t87 320q0 201 -87 319.5t-251 118.5t-251 -118.5t-87 -319.5z M567 -276.5q0 81.5 58.5 138t140.5 56.5q84 0 141.5 -56.5t57.5 -138t-57.5 -138t-141.5 -56.5q-82 0 -140.5 56.5t-58.5 138z" glyph-name="uni1EE2" horiz-adv-x="1531" unicode="Ợ"/><glyph d="M594 -20q-104 0 -198.5 32.5t-172.5 96t-124 173t-46 251t46 251t124 173t172 96t199 32.5h309v160h268v-416h-106q70 -121 70 -297q0 -186 -81 -315t-200 -183t-260 -54zM367 532.5q0 -135.5 62.5 -205t164.5 -69.5t163.5 69.5t61.5 205t-61.5 205t-163.5 69.5 t-164.5 -69.5t-62.5 -205zM393 -276.5q0 81.5 58.5 138t140.5 56.5q84 0 141.5 -56.5t57.5 -138t-57.5 -138t-141.5 -56.5q-82 0 -140.5 56.5t-58.5 138z" glyph-name="uni1EE3" horiz-adv-x="1185" unicode="ợ"/><glyph d="M707 -20q-279 0 -441 142t-162 423v889h347v-863q0 -143 67.5 -217.5t188 -74.5t186 74.5t65.5 217.5v863h349v-889q0 -281 -163 -423t-437 -142zM506 -276.5q0 81.5 58.5 138t140.5 56.5q84 0 141 -56.5t57 -138t-57.5 -138t-140.5 -56.5q-82 0 -140.5 56.5t-58.5 138z " glyph-name="uni1EE4" horiz-adv-x="1409" unicode="Ụ"/><glyph d="M440 467q0 -211 176 -211q86 0 141.5 52t55.5 159v598h336v-1065h-336v225h-12q-18 -94 -103.5 -169.5t-228.5 -75.5q-162 0 -263.5 105t-101.5 300v680h336v-598zM455 -276.5q0 81.5 58 138t140 56.5q84 0 141.5 -56.5t57.5 -138t-57.5 -138t-141.5 -56.5 q-82 0 -140 56.5t-58 138z" glyph-name="uni1EE5" horiz-adv-x="1253" unicode="ụ"/><glyph d="M707 -20q-279 0 -441 142t-162 423v889h347v-863q0 -143 67.5 -217.5t188 -74.5t186 74.5t65.5 217.5v863h349v-889q0 -281 -163 -423t-437 -142zM467 1735q0 115 64.5 168t154.5 53q96 0 161.5 -54.5t65.5 -160.5q0 -88 -50 -140.5t-134 -64.5l-76 133q78 2 78 62 q0 25 -14.5 38t-34.5 13q-43 0 -49 -47h-166z" glyph-name="uni1EE6" horiz-adv-x="1409" unicode="Ủ"/><glyph d="M440 467q0 -211 176 -211q86 0 141.5 52t55.5 159v598h336v-1065h-336v225h-12q-18 -94 -103.5 -169.5t-228.5 -75.5q-162 0 -263.5 105t-101.5 300v680h336v-598zM412 1366q0 115 64.5 168t154.5 53q96 0 161.5 -54t65.5 -161q0 -88 -50 -140t-134 -65l-76 133 q78 2 78 62q0 25 -14.5 38t-34.5 13q-43 0 -49 -47h-166z" glyph-name="uni1EE7" horiz-adv-x="1253" unicode="ủ"/><glyph d="M707 -20q-279 0 -441 142t-162 423v889h347v-863q0 -143 67.5 -217.5t188 -74.5t186 74.5t65.5 217.5v863h306v180h284v-434h-241v-635q0 -281 -163 -423t-437 -142zM532 1556l220 289h288l-219 -289h-289z" glyph-name="uni1EE8" horiz-adv-x="1409" unicode="Ứ"/><glyph d="M440 467q0 -211 176 -211q86 0 141.5 52t55.5 159v598h305v180h285v-434h-254v-811h-336v225h-12q-18 -94 -103.5 -169.5t-228.5 -75.5q-162 0 -263.5 105t-101.5 300v680h336v-598zM453 1188l219 289h289l-220 -289h-288z" glyph-name="uni1EE9" horiz-adv-x="1253" unicode="ứ"/><glyph d="M707 -20q-279 0 -441 142t-162 423v889h347v-863q0 -143 67.5 -217.5t188 -74.5t186 74.5t65.5 217.5v863h306v180h284v-434h-241v-635q0 -281 -163 -423t-437 -142zM352 1845h289l219 -289h-289z" glyph-name="uni1EEA" horiz-adv-x="1409" unicode="Ừ"/><glyph d="M440 467q0 -211 176 -211q86 0 141.5 52t55.5 159v598h305v180h285v-434h-254v-811h-336v225h-12q-18 -94 -103.5 -169.5t-228.5 -75.5q-162 0 -263.5 105t-101.5 300v680h336v-598zM274 1477h289l219 -289h-288z" glyph-name="uni1EEB" horiz-adv-x="1253" unicode="ừ"/><glyph d="M707 -20q-279 0 -441 142t-162 423v889h347v-863q0 -143 67.5 -217.5t188 -74.5t186 74.5t65.5 217.5v863h306v180h284v-434h-241v-635q0 -281 -163 -423t-437 -142zM494 1735q0 115 64.5 168t154.5 53q96 0 161.5 -54.5t65.5 -160.5q0 -88 -50 -140.5t-134 -64.5 l-76 133q78 2 78 62q0 25 -14.5 38t-34.5 13q-43 0 -50 -47h-165z" glyph-name="uni1EEC" horiz-adv-x="1409" unicode="Ử"/><glyph d="M440 467q0 -211 176 -211q86 0 141.5 52t55.5 159v598h305v180h285v-434h-254v-811h-336v225h-12q-18 -94 -103.5 -169.5t-228.5 -75.5q-162 0 -263.5 105t-101.5 300v680h336v-598zM414 1366q0 115 64.5 168t154.5 53q96 0 161.5 -54t65.5 -161q0 -88 -50 -140t-134 -65 l-76 133q78 2 78 62q0 25 -14.5 38t-34.5 13q-43 0 -49 -47h-166z" glyph-name="uni1EED" horiz-adv-x="1253" unicode="ử"/><glyph d="M707 -20q-279 0 -441 142t-162 423v889h347v-863q0 -143 67.5 -217.5t188 -74.5t186 74.5t65.5 217.5v863h306v180h284v-434h-241v-635q0 -281 -163 -423t-437 -142zM338 1622q0 117 54 182.5t159 65.5q68 0 119 -26.5t83.5 -53.5t57.5 -27q61 0 63 52h195 q0 -119 -54 -184.5t-159 -65.5q-53 0 -97 17t-67.5 36.5t-49.5 37t-46 17.5q-61 0 -64 -51h-194z" glyph-name="uni1EEE" horiz-adv-x="1409" unicode="Ữ"/><glyph d="M440 467q0 -211 176 -211q86 0 141.5 52t55.5 159v598h305v180h285v-434h-254v-811h-336v225h-12q-18 -94 -103.5 -169.5t-228.5 -75.5q-162 0 -263.5 105t-101.5 300v680h336v-598zM260 1253q0 117 54.5 182.5t158.5 65.5q68 0 119 -26.5t84 -53t57 -26.5q61 0 64 51 h194q0 -119 -54 -184.5t-159 -65.5q-53 0 -97 17.5t-67.5 37t-49 37t-46.5 17.5q-61 0 -63 -52h-195z" glyph-name="uni1EEF" horiz-adv-x="1253" unicode="ữ"/><glyph d="M707 -20q-279 0 -441 142t-162 423v889h347v-863q0 -143 67.5 -217.5t188 -74.5t186 74.5t65.5 217.5v863h306v180h284v-434h-241v-635q0 -281 -163 -423t-437 -142zM506 -276.5q0 81.5 58.5 138t140.5 56.5q84 0 141 -56.5t57 -138t-57.5 -138t-140.5 -56.5 q-82 0 -140.5 56.5t-58.5 138z" glyph-name="uni1EF0" horiz-adv-x="1409" unicode="Ự"/><glyph d="M440 467q0 -211 176 -211q86 0 141.5 52t55.5 159v598h305v180h285v-434h-254v-811h-336v225h-12q-18 -94 -103.5 -169.5t-228.5 -75.5q-162 0 -263.5 105t-101.5 300v680h336v-598zM426 -276.5q0 81.5 58.5 138t140.5 56.5q84 0 141 -56.5t57 -138t-57 -138t-141 -56.5 q-82 0 -140.5 56.5t-58.5 138z" glyph-name="uni1EF1" horiz-adv-x="1253" unicode="ự"/><glyph d="M559 0v518l-516 916h391l303 -582l303 582h392l-519 -916v-518h-354zM406 1845h288l219 -289h-288z" glyph-name="Ygrave" horiz-adv-x="1472" unicode="Ỳ"/><glyph d="M139 -131q231 -31 287 92q29 66 -6 148l-387 956h342l227 -637l234 637h344l-430 -1053q-109 -266 -238 -359t-373 -67v283zM272 1477h289l219 -289h-288z" glyph-name="ygrave" horiz-adv-x="1210" unicode="ỳ"/><glyph d="M559 0v518l-516 916h391l303 -582l303 582h392l-519 -916v-518h-354zM539 -276.5q0 81.5 58 138t140 56.5q84 0 141.5 -56.5t57.5 -138t-57.5 -138t-141.5 -56.5q-82 0 -140 56.5t-58 138z" glyph-name="uni1EF4" horiz-adv-x="1472" unicode="Ỵ"/><glyph d="M139 -131q231 -31 287 92q29 66 -6 148l-387 956h342l227 -637l234 637h344l-430 -1053q-109 -266 -238 -359t-373 -67v283zM780 -276.5q0 81.5 58.5 138t140.5 56.5q84 0 141.5 -56.5t57.5 -138t-57.5 -138t-141.5 -56.5q-82 0 -140.5 56.5t-58.5 138z" glyph-name="uni1EF5" horiz-adv-x="1210" unicode="ỵ"/><glyph d="M559 0v518l-516 916h391l303 -582l303 582h392l-519 -916v-518h-354zM526 1735q0 115 64.5 168t154.5 53q96 0 162 -54.5t66 -160.5q0 -88 -50.5 -140.5t-134.5 -64.5l-75 133q78 2 78 62q0 25 -14.5 38t-35.5 13q-43 0 -49 -47h-166z" glyph-name="uni1EF6" horiz-adv-x="1472" unicode="Ỷ"/><glyph d="M139 -131q231 -31 287 92q29 66 -6 148l-387 956h342l227 -637l234 637h344l-430 -1053q-109 -266 -238 -359t-373 -67v283zM391 1366q0 115 64.5 168t154.5 53q96 0 162 -54t66 -161q0 -88 -50.5 -140t-134.5 -65l-75 133q78 2 77 62q0 25 -14 38t-35 13q-43 0 -49 -47 h-166z" glyph-name="uni1EF7" horiz-adv-x="1210" unicode="ỷ"/><glyph d="M559 0v518l-516 916h391l303 -582l303 582h392l-519 -916v-518h-354zM371 1622q0 117 54 182.5t159 65.5q68 0 119 -26.5t83.5 -53.5t57.5 -27q61 0 63 52h195q0 -119 -54.5 -184.5t-158.5 -65.5q-53 0 -97 17t-68 36.5t-49.5 37t-45.5 17.5q-61 0 -64 -51h-194z" glyph-name="uni1EF8" horiz-adv-x="1472" unicode="Ỹ"/><glyph d="M139 -131q231 -31 287 92q29 66 -6 148l-387 956h342l227 -637l234 637h344l-430 -1053q-109 -266 -238 -359t-373 -67v283zM238 1253q0 117 54 182.5t159 65.5q68 0 119 -26.5t83.5 -53t57.5 -26.5q61 0 63 51h195q0 -119 -54.5 -184.5t-158.5 -65.5q-53 0 -97.5 17.5 t-68 37t-49 37t-45.5 17.5q-61 0 -64 -52h-194z" glyph-name="uni1EF9" horiz-adv-x="1210" unicode="ỹ"/><glyph d="M92 438v250h1045v-250h-1045z" glyph-name="endash" horiz-adv-x="1228" unicode="–"/><glyph d="M92 438v250h1168v-250h-1168z" glyph-name="emdash" horiz-adv-x="1351" unicode="—"/><glyph d="M420 1311q-94 -2 -133 -33t-39 -100q109 -2 170 -57.5t61 -139.5q0 -82 -55 -133t-141 -51q-98 0 -160 70.5t-62 213.5q0 170 90.5 266.5t243.5 96.5h25v-133z" glyph-name="quoteleft" horiz-adv-x="552" unicode="‘"/><glyph d="M133 938q94 2 133 32.5t39 100.5q-109 2 -170 57.5t-61 139.5q0 82 55 133t141 51q98 0 160 -70.5t62 -214.5q0 -170 -90.5 -266t-243.5 -96h-25v133z" glyph-name="quoteright" horiz-adv-x="552" unicode="’"/><glyph d="M133 -145q94 2 133 32.5t39 100.5q-109 2 -170 57t-61 139q0 82 55 133.5t141 51.5q98 0 160 -71t62 -214q0 -170 -90.5 -266.5t-243.5 -96.5h-25v134z" glyph-name="quotesinglbase" horiz-adv-x="563" unicode="‚"/><glyph d="M420 1311q-94 -2 -133 -33t-39 -100q109 -2 170 -57.5t61 -139.5q0 -82 -55 -133t-141 -51q-98 0 -160 70.5t-62 213.5q0 170 90.5 266.5t243.5 96.5h25v-133zM565 1081q0 170 90 266.5t244 96.5h25v-133q-94 -2 -133 -33t-39 -100q109 -2 170 -57.5t61 -139.5 q0 -82 -55.5 -133t-141.5 -51q-98 0 -159.5 70.5t-61.5 213.5z" glyph-name="quotedblleft" horiz-adv-x="1056" unicode="“"/><glyph d="M133 938q94 2 133 32.5t39 100.5q-109 2 -170 57.5t-61 139.5q0 82 55 133t141 51q98 0 160 -70.5t62 -214.5q0 -170 -90.5 -266t-243.5 -96h-25v133zM578 1268q0 82 55 133t141 51q98 0 159.5 -70.5t61.5 -214.5q0 -170 -90 -266t-243 -96h-25v133q94 2 133 32.5 t39 100.5q-109 2 -170 57.5t-61 139.5z" glyph-name="quotedblright" horiz-adv-x="1056" unicode="”"/><glyph d="M637 -176q94 2 133 32.5t39 100.5q-109 2 -170 57.5t-61 139.5q0 82 55 133t141 51q98 0 159.5 -70.5t61.5 -214.5q0 -170 -90 -266t-243 -96h-25v133zM74 154q0 82 55 133t141 51q98 0 160 -70.5t62 -214.5q0 -170 -90.5 -266t-243.5 -96h-25v133q94 2 133 32.5 t39 100.5q-109 2 -170 57.5t-61 139.5z" glyph-name="quotedblbase" horiz-adv-x="1067" unicode="„"/><glyph d="M330 365v501h-228v252h228v316h266v-316h225v-252h-225v-501h-266z" glyph-name="dagger" horiz-adv-x="923" unicode="†"/><glyph d="M330 0v262h-228v252h228v406h-228v251h228v263h266v-263h225v-251h-225v-406h225v-252h-225v-262h-266z" glyph-name="daggerdbl" horiz-adv-x="923" unicode="‡"/><glyph d="M291 352q-78 0 -133.5 55.5t-55.5 133.5q0 76 55.5 131t133.5 55t132 -54.5t54 -132t-54 -133t-132 -55.5z" glyph-name="bullet" horiz-adv-x="579" unicode="•"/><glyph d="M825 -20q-84 0 -141 56t-57 138t57 138.5t141 56.5q82 0 140.5 -56.5t58.5 -138.5t-58.5 -138t-140.5 -56zM74 174q0 82 57 138.5t141 56.5q82 0 140.5 -56.5t58.5 -138.5t-58.5 -138t-140.5 -56q-84 0 -141 56t-57 138zM1182 174q0 82 57 138.5t141 56.5 q82 0 140.5 -56.5t58.5 -138.5t-58.5 -138t-140.5 -56q-84 0 -141 56t-57 138z" glyph-name="ellipsis" horiz-adv-x="1650" unicode="…"/><glyph d="M1900.5 -18q-135.5 0 -223.5 86t-88 254q0 158 89 244.5t222.5 86.5t222.5 -87t89 -244q0 -168 -88 -254t-223.5 -86zM74 1126q0 160 88 247t221 87q135 0 223 -87t88 -247q0 -168 -87 -254t-224 -86q-133 0 -221 86t-88 254zM135 403l1133 822l137 -189l-1133 -821z M309 1126q0 -119 74 -118q76 0 76 118q0 63 -23.5 88t-52.5 25q-74 0 -74 -113zM848 322q0 158 89 244.5t222 86.5t222 -87t89 -244q0 -168 -88 -254t-223 -86t-223 86t-88 254zM1083 322q0 -68 23.5 -94.5t52.5 -26.5t51.5 26.5t22.5 94.5q0 113 -74 112q-29 0 -52.5 -24.5 t-23.5 -87.5zM1825 322q0 -68 23.5 -94.5t52 -26.5t51 26.5t22.5 94.5q0 113 -73 112q-29 0 -52.5 -24.5t-23.5 -87.5z" glyph-name="perthousand" horiz-adv-x="2283" unicode="‰"/><glyph d="M451 182l-369 293v262l369 305v-299l-168 -129l168 -133v-299z" glyph-name="guilsinglleft" horiz-adv-x="532" unicode="‹"/><glyph d="M104 182v299l168 133l-168 129v299l369 -305v-262z" glyph-name="guilsinglright" horiz-adv-x="544" unicode="›"/><glyph d="M-367 0l893 1434h164l-893 -1434h-164z" glyph-name="fraction" horiz-adv-x="323" unicode="⁄"/><glyph d="M72 725v164h108q43 266 218 414.5t452 148.5q254 0 421 -134t185 -403h-336q-53 240 -280 240q-244 0 -303 -266h264v-164h-283v-8q0 -45 2 -66h281v-162h-250q70 -213 289 -213q227 0 280 242h336q-18 -270 -185 -404t-425 -134t-429 134t-227 375h-118v162h96 q-2 20 -2 66v8h-94z" glyph-name="Euro" horiz-adv-x="1517" unicode="€"/><glyph d="M514 1065v369h135l107 -273l104 273h135v-369h-127v166l-57 -166h-113l-57 166v-166h-127zM82 1329v105h369v-105h-121v-264h-127v264h-121z" glyph-name="trademark" horiz-adv-x="1077" unicode="™"/><glyph d="M623 -20q-88 0 -173 22.5t-172.5 72.5t-140.5 152.5t-53 243.5q0 131 45 229.5t120 150.5t151.5 75.5t156.5 23.5q182 0 317 -135q0 57 -9 113.5t-33.5 119t-81 101.5t-136.5 39q-178 0 -204 -164h-295q-2 76 25.5 148.5t84 137t155.5 103.5t226 39q291 0 435.5 -194.5 t144.5 -532.5q0 -203 -46 -351.5t-128 -232.5t-178 -122.5t-211 -38.5zM403 475q0 -119 70 -172t152 -53q80 0 149.5 52t69.5 173q0 119 -68.5 171t-148.5 52q-84 0 -154 -52t-70 -171z" glyph-name="partialdiff" horiz-adv-x="1259" unicode="∂"/><glyph d="M92 -389v2027h1376v-2027h-323v1722h-729v-1722h-324z" glyph-name="product" horiz-adv-x="1560" unicode="∏"/><glyph d="M92 -389l563 1014l-563 1013h1260v-303h-723l391 -710l-391 -711h723v-303h-1260z" glyph-name="summation" horiz-adv-x="1443" unicode="∑"/><glyph d="M104 385v250h703v-250h-703z" glyph-name="minus" horiz-adv-x="909" unicode="−"/><glyph d="M711 -389l-359 862h-260v361h486l313 -795l407 1599h332l-522 -2027h-397z" glyph-name="radical" horiz-adv-x="1722" unicode="√"/><glyph d="M449 172q-156 0 -265.5 100.5t-109.5 264t109.5 261t265.5 97.5q197 0 409 -172q213 172 410 172q156 0 265 -97.5t109 -261t-109.5 -264t-264.5 -100.5q-197 0 -410 172q-212 -172 -409 -172zM358 537q0 -45 34 -80t95 -35q111 0 205 115q-98 117 -205 116 q-61 0 -95 -34.5t-34 -81.5zM1024 537q94 -115 203 -115q63 0 97 35t34 80q0 47 -34 81.5t-97 34.5q-105 1 -203 -116z" glyph-name="infinity" horiz-adv-x="1716" unicode="∞"/><glyph d="M33 -102q41 0 66.5 14t35.5 45t12.5 56.5t2.5 70.5v948q0 186 96 287.5t356 101.5v-286q-70 0 -93.5 -48.5t-23.5 -138.5v-948q0 -203 -99 -296t-353 -93v287z" glyph-name="integral" horiz-adv-x="653" unicode="∫"/><glyph d="M874 184q-72 0 -142 33t-116.5 71t-102.5 70.5t-103 32.5q-45 0 -76 -24.5t-31 -69.5h-199q-8 127 70 212t205 85q72 0 143.5 -33t117.5 -70.5t102.5 -70.5t103.5 -33q45 0 75.5 24.5t30.5 69.5h201q6 -127 -73 -212t-206 -85zM104 625q-8 127 70 212t205 85 q72 0 143.5 -33t117.5 -71t102.5 -70.5t103.5 -32.5q45 0 75.5 24.5t30.5 69.5h201q6 -127 -73 -212t-206 -85q-72 0 -142 33t-116.5 70.5t-102.5 70.5t-103 33q-45 0 -76 -24.5t-31 -69.5h-199z" glyph-name="approxequal" horiz-adv-x="1255" unicode="≈"/><glyph d="M127 0l111 274h-134v250h236l31 78h-267v250h367l121 297h196l-120 -297h139v-250h-240l-30 -78h270v-250h-373l-110 -274h-197z" glyph-name="notequal" horiz-adv-x="909" unicode="≠"/><glyph d="M805 322l-703 321v256l703 320v-281l-451 -168l451 -168v-280zM102 0v252h701v-252h-701z" glyph-name="lessequal" horiz-adv-x="905" unicode="≤"/><glyph d="M104 322v280l451 168l-451 168v281l703 -320v-256zM106 0v252h701v-252h-701z" glyph-name="greaterequal" horiz-adv-x="909" unicode="≥"/><glyph d="M410 0l-318 717l318 717h477l317 -717l-317 -717h-477zM432 717l217 -488l215 488l-215 487z" glyph-name="lozenge" horiz-adv-x="1296" unicode="◊"/><glyph d="M104 492v942h342v-942h-342z" glyph-name="uniA78B" horiz-adv-x="550" unicode="Ꞌ"/><glyph d="M104 610v824h336v-824h-336z" glyph-name="uniA78C" horiz-adv-x="542" unicode="ꞌ"/><glyph d="M698.5 -20q-272.5 0 -433.5 143t-161 426h347q0 -135 65.5 -202.5t183.5 -67.5q250 0 250 292v863h344v-891q0 -279 -161.5 -421t-434 -142zM958 1556l220 289h288l-219 -289h-289z" glyph-name="J.aalt" horiz-adv-x="1398"/><glyph d="M705 -20q-287 0 -459 197.5t-172 539.5q0 344 186 539.5t492 195.5q246 0 414.5 -125t201.5 -371h-352q-59 199 -256 199q-170 0 -251 -117.5t-81 -320.5q0 -195 87 -316.5t263 -124.5q127 -4 200 60.5t75 189.5h-271v279h596v-805h-323v133q-63 -80 -144 -116.5 t-206 -36.5z" glyph-name="G.ss01" horiz-adv-x="1462"/><glyph d="M940 0q-20 41 -20 174v121q0 205 -211 205h-263v-500h-342v1434h613q270 0 404 -120t134 -306q0 -238 -225 -353q98 -33 151.5 -93t67 -119.5t13.5 -147.5v-121q0 -133 20 -174h-342zM446 776h259q92 0 145 48t53 134q0 174 -198 175h-259v-357z" glyph-name="R.aalt" horiz-adv-x="1376"/><glyph d="M705 -20q-287 0 -459 197.5t-172 539.5q0 344 186 539.5t492 195.5q246 0 414.5 -125t201.5 -371h-352q-59 199 -256 199q-170 0 -251 -117.5t-81 -320.5q0 -195 87 -316.5t263 -124.5q127 -4 200 60.5t75 189.5h-271v279h596v-805h-323v133q-63 -80 -144 -116.5 t-206 -36.5z" glyph-name="G.ss05" horiz-adv-x="1462"/><glyph d="M90 0v1065h336v-1065h-336zM82 1343q0 74 54 126.5t126 52.5q74 0 128 -52.5t54 -126t-54 -125t-128 -51.5q-72 0 -126 52t-54 124z" glyph-name="i.locl" horiz-adv-x="516"/><glyph d="M90 -401q-143 0 -190 6v260h112q113 0 113 133v1067h336v-1116q0 -350 -371 -350zM137 1188l219 289h289l-219 -289h-289z" glyph-name="j.aalt" horiz-adv-x="550"/><glyph d="M514 -20q-184 0 -322.5 139t-138.5 413q0 272 138.5 412.5t322.5 140.5q113 0 192.5 -49t104.5 -114v143h336v-1065h-336v143q-25 -66 -104.5 -114.5t-192.5 -48.5zM373 532.5q0 -131.5 65.5 -199t159.5 -67.5q96 0 161.5 67.5t65.5 199t-65.5 199t-161.5 67.5 q-94 0 -159.5 -67.5t-65.5 -199z" glyph-name="a.ss01" horiz-adv-x="1249"/><glyph d="M514 -20q-184 0 -322.5 139t-138.5 413q0 272 138.5 412.5t322.5 140.5q113 0 192.5 -49t104.5 -114v143h336v-1065h-336v143q-25 -66 -104.5 -114.5t-192.5 -48.5zM373 532.5q0 -131.5 65.5 -199t159.5 -67.5q96 0 161.5 67.5t65.5 199t-65.5 199t-161.5 67.5 q-94 0 -159.5 -67.5t-65.5 -199zM485 1188l220 289h288l-219 -289h-289z" glyph-name="aacute.ss01" horiz-adv-x="1249"/><glyph d="M514 -20q-184 0 -322.5 139t-138.5 413q0 272 138.5 412.5t322.5 140.5q113 0 192.5 -49t104.5 -114v143h336v-1065h-336v143q-25 -66 -104.5 -114.5t-192.5 -48.5zM299 1477h219q2 -74 33 -105t92.5 -31t92 31t32.5 105h219q0 -156 -89 -242t-255 -86q-164 0 -254 86 t-90 242zM373 532.5q0 -131.5 65.5 -199t159.5 -67.5q96 0 161.5 67.5t65.5 199t-65.5 199t-161.5 67.5q-94 0 -159.5 -67.5t-65.5 -199z" glyph-name="abreve.ss01" horiz-adv-x="1249"/><glyph d="M514 -20q-184 0 -322.5 139t-138.5 413q0 272 138.5 412.5t322.5 140.5q113 0 192.5 -49t104.5 -114v143h336v-1065h-336v143q-25 -66 -104.5 -114.5t-192.5 -48.5zM199 1477h299l133 -207l133 207h299l-195 -293h-475zM373 532.5q0 -131.5 65.5 -199t159.5 -67.5 q96 0 161.5 67.5t65.5 199t-65.5 199t-161.5 67.5q-94 0 -159.5 -67.5t-65.5 -199z" glyph-name="uni01CE.ss01" horiz-adv-x="1249"/><glyph d="M514 -20q-184 0 -322.5 139t-138.5 413q0 272 138.5 412.5t322.5 140.5q113 0 192.5 -49t104.5 -114v143h336v-1065h-336v143q-25 -66 -104.5 -114.5t-192.5 -48.5zM209 1184l194 293h476l194 -293h-299l-133 207l-133 -207h-299zM373 532.5q0 -131.5 65.5 -199 t159.5 -67.5q96 0 161.5 67.5t65.5 199t-65.5 199t-161.5 67.5q-94 0 -159.5 -67.5t-65.5 -199z" glyph-name="acircumflex.ss01" horiz-adv-x="1249"/><glyph d="M514 -20q-184 0 -322.5 139t-138.5 413q0 272 138.5 412.5t322.5 140.5q113 0 192.5 -49t104.5 -114v143h336v-1065h-336v143q-25 -66 -104.5 -114.5t-192.5 -48.5zM199 1343q0 74 54 126.5t126 52.5q74 0 128 -52.5t54 -126t-54 -125t-128 -51.5q-72 0 -126 52t-54 124z M373 532.5q0 -131.5 65.5 -199t159.5 -67.5q96 0 161.5 67.5t65.5 199t-65.5 199t-161.5 67.5q-94 0 -159.5 -67.5t-65.5 -199zM717 1343.5q0 73.5 54 126t128 52.5q72 0 126 -52.5t54 -126.5q0 -72 -54 -124t-126 -52q-74 0 -128 51.5t-54 125z" glyph-name="adieresis.ss01" horiz-adv-x="1249"/><glyph d="M514 -20q-184 0 -322.5 139t-138.5 413q0 272 138.5 412.5t322.5 140.5q113 0 192.5 -49t104.5 -114v143h336v-1065h-336v143q-25 -66 -104.5 -114.5t-192.5 -48.5zM311 1477h289l219 -289h-289zM373 532.5q0 -131.5 65.5 -199t159.5 -67.5q96 0 161.5 67.5t65.5 199 t-65.5 199t-161.5 67.5q-94 0 -159.5 -67.5t-65.5 -199z" glyph-name="agrave.ss01" horiz-adv-x="1249"/><glyph d="M514 -20q-184 0 -322.5 139t-138.5 413q0 272 138.5 412.5t322.5 140.5q113 0 192.5 -49t104.5 -114v143h336v-1065h-336v143q-25 -66 -104.5 -114.5t-192.5 -48.5zM297 1286v191h690v-191h-690zM373 532.5q0 -131.5 65.5 -199t159.5 -67.5q96 0 161.5 67.5t65.5 199 t-65.5 199t-161.5 67.5q-94 0 -159.5 -67.5t-65.5 -199z" glyph-name="amacron.ss01" horiz-adv-x="1249"/><glyph d="M514 -20q-184 0 -322.5 139t-138.5 413q0 272 138.5 412.5t322.5 140.5q113 0 192.5 -49t104.5 -114v143h336v-1065q-127 0 -195.5 -45t-68.5 -105q0 -47 42 -65t95 4v-184q-31 -18 -93.5 -20.5t-128 15t-114.5 73t-49 139.5q0 86 49 147t127 92v92 q-25 -66 -104.5 -114.5t-192.5 -48.5zM373 532.5q0 -131.5 65.5 -199t159.5 -67.5q96 0 161.5 67.5t65.5 199t-65.5 199t-161.5 67.5q-94 0 -159.5 -67.5t-65.5 -199z" glyph-name="aogonek.ss01" horiz-adv-x="1249"/><glyph d="M514 -20q-184 0 -322.5 139t-138.5 413q0 272 138.5 412.5t322.5 140.5q113 0 192.5 -49t104.5 -114v143h336v-1065h-336v143q-25 -66 -104.5 -114.5t-192.5 -48.5zM373 532.5q0 -131.5 65.5 -199t159.5 -67.5q96 0 161.5 67.5t65.5 199t-65.5 199t-161.5 67.5 q-94 0 -159.5 -67.5t-65.5 -199zM420 1350q0 90 63.5 151.5t157.5 61.5t156.5 -61.5t62.5 -151.5t-62.5 -151.5t-156.5 -61.5t-157.5 61.5t-63.5 151.5zM573 1349.5q0 -30.5 18.5 -49t49.5 -18.5q29 0 48.5 18.5t19.5 49t-19.5 49t-48.5 18.5t-48.5 -18.5t-19.5 -49z" glyph-name="aring.ss01" horiz-adv-x="1249"/><glyph d="M514 -20q-184 0 -322.5 139t-138.5 413q0 272 138.5 412.5t322.5 140.5q113 0 192.5 -49t104.5 -114v143h336v-1065h-336v143q-25 -66 -104.5 -114.5t-192.5 -48.5zM276 1253q0 117 54.5 182.5t158.5 65.5q68 0 119 -26.5t84 -53t58 -26.5q61 0 63 51h195 q0 -119 -54.5 -184.5t-158.5 -65.5q-53 0 -97.5 17.5t-68 37t-49 37t-45.5 17.5q-61 0 -64 -52h-195zM373 532.5q0 -131.5 65.5 -199t159.5 -67.5q96 0 161.5 67.5t65.5 199t-65.5 199t-161.5 67.5q-94 0 -159.5 -67.5t-65.5 -199z" glyph-name="atilde.ss01" horiz-adv-x="1249"/><glyph d="M557 -410q-211 0 -357.5 82t-146.5 252q0 199 189 262q-80 4 -135.5 50.5t-55.5 123.5q0 66 40 110t104 58q-59 82 -60 197q0 160 112.5 256t297 96t293.5 -90q84 80 227 78v-242q-66 0 -115 -22q6 -37 6 -76q0 -162 -111.5 -255t-299.5 -93q-102 0 -187 31l2 -2 q-16 2 -30.5 -9.5t-14.5 -34.5q0 -39 43 -48t140 -9h49q102 0 191 -17.5t169 -55t127 -109.5t47 -172q0 -129 -80.5 -214t-192.5 -116t-251 -31zM373 -49q0 -51 43 -90t149 -39q190 0 191 129q0 51 -43 88t-150 37q-104 0 -147 -38t-43 -87zM412 725q0 -41 28.5 -78 t104.5 -37t104.5 37t28.5 78q0 18 -5 35.5t-17.5 38t-41 33t-69.5 12.5q-76 0 -104.5 -38t-28.5 -81z" glyph-name="g.ss01"/><glyph d="M104 0v1065h336v-1065h-336zM104 1204v248h336v-248h-336z" glyph-name="i.ss01" horiz-adv-x="542"/><glyph d="M551 0q-242 -29 -344.5 38.5t-102.5 278.5v1133h336v-1135q0 -74 111 -71v-244z" glyph-name="l.ss01" horiz-adv-x="612"/><glyph d="M514 -20q-184 0 -322.5 139t-138.5 413q0 272 138.5 412.5t322.5 140.5q113 0 192.5 -49t104.5 -114v143h336v-1065h-336v143q-25 -66 -104.5 -114.5t-192.5 -48.5zM373 532.5q0 -131.5 65.5 -199t159.5 -67.5q96 0 161.5 67.5t65.5 199t-65.5 199t-161.5 67.5 q-94 0 -159.5 -67.5t-65.5 -199z" glyph-name="a.ss02" horiz-adv-x="1249"/><glyph d="M514 -20q-184 0 -322.5 139t-138.5 413q0 272 138.5 412.5t322.5 140.5q113 0 192.5 -49t104.5 -114v143h336v-1065h-336v143q-25 -66 -104.5 -114.5t-192.5 -48.5zM373 532.5q0 -131.5 65.5 -199t159.5 -67.5q96 0 161.5 67.5t65.5 199t-65.5 199t-161.5 67.5 q-94 0 -159.5 -67.5t-65.5 -199zM485 1188l220 289h288l-219 -289h-289z" glyph-name="aacute.ss02" horiz-adv-x="1249"/><glyph d="M514 -20q-184 0 -322.5 139t-138.5 413q0 272 138.5 412.5t322.5 140.5q113 0 192.5 -49t104.5 -114v143h336v-1065h-336v143q-25 -66 -104.5 -114.5t-192.5 -48.5zM299 1477h219q2 -74 33 -105t92.5 -31t92 31t32.5 105h219q0 -156 -89 -242t-255 -86q-164 0 -254 86 t-90 242zM373 532.5q0 -131.5 65.5 -199t159.5 -67.5q96 0 161.5 67.5t65.5 199t-65.5 199t-161.5 67.5q-94 0 -159.5 -67.5t-65.5 -199z" glyph-name="abreve.ss02" horiz-adv-x="1249"/><glyph d="M514 -20q-184 0 -322.5 139t-138.5 413q0 272 138.5 412.5t322.5 140.5q113 0 192.5 -49t104.5 -114v143h336v-1065h-336v143q-25 -66 -104.5 -114.5t-192.5 -48.5zM199 1477h299l133 -207l133 207h299l-195 -293h-475zM373 532.5q0 -131.5 65.5 -199t159.5 -67.5 q96 0 161.5 67.5t65.5 199t-65.5 199t-161.5 67.5q-94 0 -159.5 -67.5t-65.5 -199z" glyph-name="uni01CE.ss02" horiz-adv-x="1249"/><glyph d="M514 -20q-184 0 -322.5 139t-138.5 413q0 272 138.5 412.5t322.5 140.5q113 0 192.5 -49t104.5 -114v143h336v-1065h-336v143q-25 -66 -104.5 -114.5t-192.5 -48.5zM209 1184l194 293h476l194 -293h-299l-133 207l-133 -207h-299zM373 532.5q0 -131.5 65.5 -199 t159.5 -67.5q96 0 161.5 67.5t65.5 199t-65.5 199t-161.5 67.5q-94 0 -159.5 -67.5t-65.5 -199z" glyph-name="acircumflex.ss02" horiz-adv-x="1249"/><glyph d="M514 -20q-184 0 -322.5 139t-138.5 413q0 272 138.5 412.5t322.5 140.5q113 0 192.5 -49t104.5 -114v143h336v-1065h-336v143q-25 -66 -104.5 -114.5t-192.5 -48.5zM199 1343q0 74 54 126.5t126 52.5q74 0 128 -52.5t54 -126t-54 -125t-128 -51.5q-72 0 -126 52t-54 124z M373 532.5q0 -131.5 65.5 -199t159.5 -67.5q96 0 161.5 67.5t65.5 199t-65.5 199t-161.5 67.5q-94 0 -159.5 -67.5t-65.5 -199zM717 1343.5q0 73.5 54 126t128 52.5q72 0 126 -52.5t54 -126.5q0 -72 -54 -124t-126 -52q-74 0 -128 51.5t-54 125z" glyph-name="adieresis.ss02" horiz-adv-x="1249"/><glyph d="M514 -20q-184 0 -322.5 139t-138.5 413q0 272 138.5 412.5t322.5 140.5q113 0 192.5 -49t104.5 -114v143h336v-1065h-336v143q-25 -66 -104.5 -114.5t-192.5 -48.5zM311 1477h289l219 -289h-289zM373 532.5q0 -131.5 65.5 -199t159.5 -67.5q96 0 161.5 67.5t65.5 199 t-65.5 199t-161.5 67.5q-94 0 -159.5 -67.5t-65.5 -199z" glyph-name="agrave.ss02" horiz-adv-x="1249"/><glyph d="M514 -20q-184 0 -322.5 139t-138.5 413q0 272 138.5 412.5t322.5 140.5q113 0 192.5 -49t104.5 -114v143h336v-1065h-336v143q-25 -66 -104.5 -114.5t-192.5 -48.5zM297 1286v191h690v-191h-690zM373 532.5q0 -131.5 65.5 -199t159.5 -67.5q96 0 161.5 67.5t65.5 199 t-65.5 199t-161.5 67.5q-94 0 -159.5 -67.5t-65.5 -199z" glyph-name="amacron.ss02" horiz-adv-x="1249"/><glyph d="M514 -20q-184 0 -322.5 139t-138.5 413q0 272 138.5 412.5t322.5 140.5q113 0 192.5 -49t104.5 -114v143h336v-1065q-127 0 -195.5 -45t-68.5 -105q0 -47 42 -65t95 4v-184q-31 -18 -93.5 -20.5t-128 15t-114.5 73t-49 139.5q0 86 49 147t127 92v92 q-25 -66 -104.5 -114.5t-192.5 -48.5zM373 532.5q0 -131.5 65.5 -199t159.5 -67.5q96 0 161.5 67.5t65.5 199t-65.5 199t-161.5 67.5q-94 0 -159.5 -67.5t-65.5 -199z" glyph-name="aogonek.ss02" horiz-adv-x="1249"/><glyph d="M514 -20q-184 0 -322.5 139t-138.5 413q0 272 138.5 412.5t322.5 140.5q113 0 192.5 -49t104.5 -114v143h336v-1065h-336v143q-25 -66 -104.5 -114.5t-192.5 -48.5zM373 532.5q0 -131.5 65.5 -199t159.5 -67.5q96 0 161.5 67.5t65.5 199t-65.5 199t-161.5 67.5 q-94 0 -159.5 -67.5t-65.5 -199zM420 1350q0 90 63.5 151.5t157.5 61.5t156.5 -61.5t62.5 -151.5t-62.5 -151.5t-156.5 -61.5t-157.5 61.5t-63.5 151.5zM573 1349.5q0 -30.5 18.5 -49t49.5 -18.5q29 0 48.5 18.5t19.5 49t-19.5 49t-48.5 18.5t-48.5 -18.5t-19.5 -49z" glyph-name="aring.ss02" horiz-adv-x="1249"/><glyph d="M514 -20q-184 0 -322.5 139t-138.5 413q0 272 138.5 412.5t322.5 140.5q113 0 192.5 -49t104.5 -114v143h336v-1065h-336v143q-25 -66 -104.5 -114.5t-192.5 -48.5zM276 1253q0 117 54.5 182.5t158.5 65.5q68 0 119 -26.5t84 -53t58 -26.5q61 0 63 51h195 q0 -119 -54.5 -184.5t-158.5 -65.5q-53 0 -97.5 17.5t-68 37t-49 37t-45.5 17.5q-61 0 -64 -52h-195zM373 532.5q0 -131.5 65.5 -199t159.5 -67.5q96 0 161.5 67.5t65.5 199t-65.5 199t-161.5 67.5q-94 0 -159.5 -67.5t-65.5 -199z" glyph-name="atilde.ss02" horiz-adv-x="1249"/><glyph d="M395 -20q-141 0 -241.5 72.5t-100.5 226.5q0 70 24.5 123t59.5 82.5t88.5 51t96.5 30.5t100 16l199 26q61 8 76.5 27.5t15.5 81.5q0 74 -36 98.5t-97 24.5q-150 0 -150 -119v-8l-315 -4v45q0 332 475 331q244 0 351.5 -86t107.5 -262v-430q0 -55 15 -69.5t56 -18.5v-196 q-37 -35 -137 -35q-109 0 -181.5 47t-72.5 151v-4h-12q-8 -59 -90 -130.5t-232 -71.5zM385 322q0 -100 141 -101q90 0 138.5 46t48.5 106v90q-18 -16 -90 -27l-117 -16q-37 -8 -59.5 -16.5t-42 -29.5t-19.5 -52z" glyph-name="a.ss03"/><glyph d="M557 -410q-211 0 -357.5 82t-146.5 252q0 199 189 262q-80 4 -135.5 50.5t-55.5 123.5q0 66 40 110t104 58q-59 82 -60 197q0 160 112.5 256t297 96t293.5 -90q84 80 227 78v-242q-66 0 -115 -22q6 -37 6 -76q0 -162 -111.5 -255t-299.5 -93q-102 0 -187 31l2 -2 q-16 2 -30.5 -9.5t-14.5 -34.5q0 -39 43 -48t140 -9h49q102 0 191 -17.5t169 -55t127 -109.5t47 -172q0 -129 -80.5 -214t-192.5 -116t-251 -31zM373 -49q0 -51 43 -90t149 -39q190 0 191 129q0 51 -43 88t-150 37q-104 0 -147 -38t-43 -87zM412 725q0 -41 28.5 -78 t104.5 -37t104.5 37t28.5 78q0 18 -5 35.5t-17.5 38t-41 33t-69.5 12.5q-76 0 -104.5 -38t-28.5 -81z" glyph-name="g.ss03"/><glyph d="M551 0q-242 -29 -344.5 38.5t-102.5 278.5v1133h336v-1135q0 -74 111 -71v-244z" glyph-name="l.ss04" horiz-adv-x="612"/><glyph d="M33 807v258h151v51q0 350 371 350h172v-254h-92q-115 0 -115 -131v-16h420v278h336v-278h209v-260h-209v-420q0 -63 26.5 -98t102.5 -35q41 0 88 4v-248q-80 -23 -176 -22q-377 0 -377 352v467h-182v2h-238v-807h-336v807h-151z" glyph-name="f_t.dlig" horiz-adv-x="1533"/><glyph d="M1251 -14q-178 0 -277.5 87t-99.5 265v467h-61q-74 0 -135.5 -16.5t-117.5 -53.5t-88 -110.5t-32 -178.5v-446h-336v1065h336v-313h6q35 154 132.5 233.5t248.5 79.5h47v278h336v-278h209v-260h-209v-420q0 -63 27 -98t102 -35q41 0 88 4v-248q-80 -22 -176 -22z" glyph-name="r_t.dlig" horiz-adv-x="1468"/><glyph d="M295 -4q-100 0 -161.5 70.5t-61.5 187.5v27q0 117 61.5 187.5t161.5 70.5t161.5 -71t61.5 -187v-27q0 -117 -61.5 -187.5t-161.5 -70.5zM201 254q0 -59 24.5 -98t69.5 -39t69.5 39t24.5 98v27q0 61 -24.5 99t-69.5 38t-69.5 -38t-24.5 -99v-27z" glyph-name="zero.dnom" horiz-adv-x="589"/><glyph d="M201 375q-14 -25 -48 -35t-71 0v121q37 -6 71.5 18.5t47.5 55.5h121v-535h-121v375z" glyph-name="one.dnom" horiz-adv-x="413"/><glyph d="M82 14q0 92 26.5 149.5t118.5 110.5q8 4 26.5 13.5t25 12.5t18.5 12.5t17 16.5t9.5 18t4.5 26q0 27 -18.5 41t-41.5 14q-20 0 -39.5 -16.5t-19.5 -49.5v-16h-127v16q0 82 46 131.5t140 49.5t144.5 -49.5t50.5 -120.5q0 -27 -8.5 -49.5t-16.5 -37t-32.5 -34t-34 -25.5 t-45 -27.5t-41.5 -25.5q-57 -35 -58 -57v-6h232v-111h-377v14z" glyph-name="two.dnom" horiz-adv-x="550"/><glyph d="M281 -8q-98 0 -148.5 47t-50.5 127h121q4 -72 80 -72q80 0 79 72q0 70 -92 70h-22v88h22q70 0 70 61q0 55 -59 55q-27 0 -46.5 -16t-19.5 -49h-115q0 80 50.5 124t134.5 44t131 -39t47 -103q0 -47 -26.5 -77.5t-61.5 -38.5q39 0 75.5 -32t36.5 -97q0 -74 -56 -119 t-150 -45z" glyph-name="three.dnom" horiz-adv-x="569"/><glyph d="M319 0v135h-237v98l237 302h121v-302h62v-98h-62v-135h-121zM188 233h131v166z" glyph-name="four.dnom" horiz-adv-x="583"/><glyph d="M260 -10q-94 0 -146.5 49t-52.5 125h121q2 -35 28 -51.5t54 -16.5q27 0 56.5 21.5t29.5 72.5q0 43 -27.5 63.5t-62.5 20.5q-45 0 -70 -30h-116l41 291h299v-113h-207l-12 -76q33 27 92 27q82 0 134 -52.5t52 -138.5q0 -92 -58.5 -142t-154.5 -50z" glyph-name="five.dnom" horiz-adv-x="534"/><glyph d="M301 -10q-96 0 -157.5 72.5t-61.5 203.5q0 123 57.5 199t167.5 76q84 0 134.5 -45t52.5 -103h-117q-8 41 -70 41q-57 0 -81.5 -42t-20.5 -93q10 20 49 39.5t78 19.5q180 0 180 -174q0 -96 -62.5 -145t-148.5 -49zM215 186q0 -80 84 -80q37 0 59.5 23t22.5 59 q0 39 -24.5 59.5t-59.5 20.5q-31 0 -56.5 -20.5t-25.5 -61.5z" glyph-name="six.dnom" horiz-adv-x="595"/><glyph d="M84 0l213 422h-256v113h375v-113l-205 -422h-127z" glyph-name="seven.dnom" horiz-adv-x="477"/><glyph d="M252 -4q-90 0 -145.5 43t-55.5 119q0 90 86 135q-57 37 -57 102q0 61 45 102.5t127 41.5q78 0 124 -41t46 -103q0 -66 -57 -102q86 -45 86 -135q0 -74 -56.5 -118t-142.5 -44zM168 166q0 -33 21.5 -54.5t62.5 -21.5q39 0 60.5 21.5t21.5 54.5q0 31 -22.5 52.5t-59.5 21.5 q-39 0 -61.5 -20.5t-22.5 -53.5zM190 391q0 -20 16.5 -35.5t45.5 -15.5t44 15.5t15 35.5q0 55 -59 55q-62 0 -62 -55z" glyph-name="eight.dnom" horiz-adv-x="501"/><glyph d="M287 -10q-84 0 -134.5 46t-50.5 101h115q8 -41 70 -41q57 0 81.5 42t20.5 93q-10 -20 -48 -39.5t-77 -19.5q-182 0 -182 174q0 96 62.5 145.5t148.5 49.5q98 0 158.5 -73t60.5 -204q0 -123 -57 -198.5t-168 -75.5zM215 342q0 -39 23.5 -59.5t60.5 -20.5q29 0 54.5 20.5 t25.5 61.5q0 80 -84 80q-35 0 -57.5 -22.5t-22.5 -59.5z" glyph-name="nine.dnom" horiz-adv-x="595"/><glyph d="M295 897q-100 0 -161.5 70.5t-61.5 187.5v27q0 117 61.5 187.5t161.5 70.5t161.5 -71t61.5 -187v-27q0 -117 -61.5 -187.5t-161.5 -70.5zM201 1155q0 -59 24.5 -98t69.5 -39t69.5 39t24.5 98v27q0 61 -24.5 99t-69.5 38t-69.5 -38t-24.5 -99v-27z" glyph-name="zero.numr" horiz-adv-x="589"/><glyph d="M201 1274q-14 -25 -48 -35t-71 0v121q37 -6 71.5 18.5t47.5 55.5h121v-535h-121v375z" glyph-name="one.numr" horiz-adv-x="413"/><glyph d="M82 915q0 92 26.5 149.5t118.5 111.5q8 4 26.5 13t25 12t18.5 12.5t17 16.5t9.5 18.5t4.5 25.5q0 27 -18.5 41t-41.5 14q-20 0 -39.5 -16.5t-19.5 -48.5v-17h-127v17q0 82 46 131t140 49t144.5 -49t50.5 -121q0 -27 -8.5 -49.5t-16.5 -36.5t-32.5 -33.5t-34 -26t-45 -28 t-41.5 -25.5q-57 -35 -58 -57v-6h232v-111h-377v14z" glyph-name="two.numr" horiz-adv-x="550"/><glyph d="M281 893q-98 0 -148.5 47t-50.5 127h121q4 -72 80 -72q80 0 79 72q0 70 -92 70h-22v88h22q70 0 70 61q0 55 -59 55q-27 0 -46.5 -16t-19.5 -49h-115q0 80 50.5 124t134.5 44t131 -39t47 -102q0 -47 -26.5 -78t-61.5 -39q39 0 75.5 -32t36.5 -97q0 -74 -56 -119t-150 -45z " glyph-name="three.numr" horiz-adv-x="569"/><glyph d="M319 901v135h-237v99l237 301h121v-301h62v-99h-62v-135h-121zM188 1135h131v165z" glyph-name="four.numr" horiz-adv-x="583"/><glyph d="M260 891q-94 0 -146.5 49t-52.5 125h121q2 -35 28 -51.5t54 -16.5q27 0 56.5 21.5t29.5 73.5q0 43 -27.5 63.5t-62.5 20.5q-45 0 -70 -31h-116l41 291h299v-113h-207l-12 -76q33 27 92 27q82 0 134 -52.5t52 -138.5q0 -92 -58.5 -142t-154.5 -50z" glyph-name="five.numr" horiz-adv-x="534"/><glyph d="M301 889q-96 0 -157.5 72.5t-61.5 203.5q0 123 57.5 199t167.5 76q84 0 134.5 -45t52.5 -103h-117q-8 41 -70 41q-57 0 -81.5 -42t-20.5 -93q10 20 49 39.5t78 19.5q180 0 180 -174q0 -96 -62.5 -145t-148.5 -49zM215 1085q0 -80 84 -79q37 0 59.5 22.5t22.5 58.5 q0 39 -24.5 59.5t-59.5 20.5q-31 0 -56.5 -20.5t-25.5 -61.5z" glyph-name="six.numr" horiz-adv-x="595"/><glyph d="M84 901l213 422h-256v113h375v-113l-205 -422h-127z" glyph-name="seven.numr" horiz-adv-x="477"/><glyph d="M252 897q-90 0 -145.5 43t-55.5 119q0 90 86 135q-57 37 -57 102q0 61 45 102.5t127 41.5q78 0 124 -41t46 -103q0 -66 -57 -102q86 -45 86 -135q0 -74 -56.5 -118t-142.5 -44zM168 1067q0 -33 21.5 -54.5t62.5 -21.5q39 0 60.5 21.5t21.5 54.5q0 31 -22.5 52.5 t-59.5 21.5q-39 0 -61.5 -20.5t-22.5 -53.5zM190 1292q0 -20 16.5 -35.5t45.5 -15.5t44 15.5t15 35.5q0 55 -59 56q-62 -1 -62 -56z" glyph-name="eight.numr" horiz-adv-x="501"/><glyph d="M287 891q-84 0 -134.5 46t-50.5 101h115q8 -41 70 -41q57 0 81.5 42t20.5 94q-10 -20 -48 -40t-77 -20q-182 0 -182 174q0 96 62.5 145.5t148.5 49.5q98 0 158.5 -73t60.5 -204q0 -123 -57 -198.5t-168 -75.5zM215 1243q0 -39 23.5 -59.5t60.5 -20.5q29 0 54.5 20.5 t25.5 61.5q0 80 -84 80q-35 0 -57.5 -22.5t-22.5 -59.5z" glyph-name="nine.numr" horiz-adv-x="595"/><glyph d="M102 0v375h359v-375h-359z" glyph-name="period.aalt" horiz-adv-x="563"/><glyph d="M354 1149q-164 0 -254 86t-90 242h219q2 -74 33 -105t92.5 -31t92 31t32.5 105h219q0 -156 -89 -242t-255 -86zM182 1538l219 289h289l-219 -289h-289z" glyph-name="uni0306_acutecomb.ccmp" horiz-adv-x="0"/><glyph d="M354 1149q-164 0 -254 86t-90 242h219q2 -74 33 -105t92.5 -31t92 31t32.5 105h219q0 -156 -89 -242t-255 -86zM4 1827h289l219 -289h-289z" glyph-name="uni0306_gravecomb.ccmp" horiz-adv-x="0"/><glyph d="M354 1149q-164 0 -254 86t-90 242h219q2 -74 33 -105t92.5 -31t92 31t32.5 105h219q0 -156 -89 -242t-255 -86zM51 1632q0 115 64.5 168t154.5 53q96 0 162 -54t66 -161q0 -88 -50.5 -140t-134.5 -64l-75 133q78 2 77 61q0 25 -14 38t-35 13q-43 0 -49 -47h-166z" glyph-name="uni0306_hookabovecomb.ccmp" horiz-adv-x="0"/><glyph d="M354 1149q-164 0 -254 86t-90 242h219q2 -74 33 -105t92.5 -31t92 31t32.5 105h219q0 -156 -89 -242t-255 -86zM-12 1604q0 117 55 182t160 65q68 0 119 -26.5t83.5 -53t57.5 -26.5q61 0 63 51h195q0 -119 -54.5 -184.5t-158.5 -65.5q-68 0 -119 28t-84 54.5t-57 26.5 q-61 0 -64 -51h-196z" glyph-name="uni0306_tildecomb.ccmp" horiz-adv-x="0"/><glyph d="M0 1184l195 293h475l194 -293h-299l-133 207l-133 -207h-299zM778 1393l219 288h289l-219 -288h-289z" glyph-name="uni0302_acutecomb.ccmp" horiz-adv-x="0"/><glyph d="M834 1395l-185 288h291l182 -288h-288zM0 1184l195 293h475l194 -293h-299l-133 207l-133 -207h-299z" glyph-name="uni0302_gravecomb.ccmp" horiz-adv-x="0"/><glyph d="M0 1184l195 293h475l194 -293h-299l-133 207l-133 -207h-299zM571 1608q0 115 64.5 168t155.5 53q96 0 161.5 -54.5t65.5 -160.5q0 -88 -50 -140.5t-134 -64.5l-76 133q78 2 78 62q0 25 -14.5 38t-35.5 13q-43 0 -49 -47h-166z" glyph-name="uni0302_hookabovecomb.ccmp" horiz-adv-x="0"/><glyph d="M0 1184l195 293h475l194 -293h-299l-133 207l-133 -207h-299zM63 1593q0 117 54.5 182.5t158.5 65.5q68 0 119 -26.5t84 -53t58 -26.5q61 0 63 51h195q0 -119 -54.5 -184.5t-158.5 -65.5q-53 0 -97.5 17.5t-68 37t-49 37t-45.5 17.5q-61 0 -64 -52h-195z" glyph-name="uni0302_tildecomb.ccmp" horiz-adv-x="0"/><glyph d="M354 1149q-164 0 -254 86t-90 242h219q2 -74 33 -105t92.5 -31t92 31t32.5 105h219q0 -156 -89 -242t-255 -86z" glyph-name="glyph659" horiz-adv-x="0"/><glyph d="M82 805v629h321v-629h-321z" glyph-name="glyph660" horiz-adv-x="0"/><glyph d="M33 0l510 1434h444l512 -1434h-362l-82 244h-580l-82 -244h-360zM559 498h412l-195 587h-20zM610 1556l219 289h289l-219 -289h-289z" glyph-name="glyph661" horiz-adv-x="1529"/><glyph d="M606 584v280h371q-25 133 -100.5 212t-208.5 79q-227 0 -281 -240h-336q18 268 185 402.5t421 134.5q317 0 500.5 -196.5t183.5 -538.5q0 -344 -182 -540.5t-497 -196.5q-258 0 -425 134t-186 404h336q53 -242 281 -242q264 0 311 308h-373zM510 1556l219 289h289 l-219 -289h-289z" glyph-name="glyph662" horiz-adv-x="1415"/><glyph d="M393 0h-340l293 504q-279 111 -278 442q0 223 138 355.5t421 132.5h594v-1434h-342v457h-228zM422 946q0 -190 217 -190h240v379h-240q-111 0 -164 -50.5t-53 -138.5zM541 1556l219 289h289l-220 -289h-288z" glyph-name="glyph663" horiz-adv-x="1325"/><glyph d="M104 0v1434h998v-299h-656v-279h594v-266h-594v-291h676v-299h-1018zM477 1556l219 289h289l-219 -289h-289z" glyph-name="glyph664" horiz-adv-x="1173"/><glyph d="M1337 0h-342v856h-8l-516 -856h-369v1434h344v-879h9l528 879h354v-1434zM565 1556l219 289h289l-219 -289h-289z" glyph-name="glyph665" horiz-adv-x="1441"/><glyph d="M104 0v1434h342v-572h191q43 268 224 429t458 161q315 0 504.5 -204t189.5 -531q0 -326 -189.5 -531.5t-504.5 -205.5q-279 0 -461 163.5t-221 434.5h-191v-578h-342zM885 1556l219 289h289l-219 -289h-289zM981 717q0 -199 87 -320t251 -121t251 121t87 320 q0 201 -87 319.5t-251 118.5t-251 -118.5t-87 -319.5z" glyph-name="glyph666" horiz-adv-x="2084"/><glyph d="M766 -20q-315 0 -503.5 205.5t-188.5 531.5q0 328 188.5 531.5t503.5 203.5t504.5 -204t189.5 -531q0 -326 -189.5 -531.5t-504.5 -205.5zM428 717q0 -199 87 -320t251 -121t251 121t87 320q0 201 -87 319.5t-251 118.5t-251 -118.5t-87 -319.5zM610 1556l219 289h289 l-219 -289h-289z" glyph-name="glyph667" horiz-adv-x="1531"/><glyph d="M182 272q41 -10 78 -4t58.5 5t42 12.5t29.5 17.5t20.5 20.5t14.5 21.5t9 22q31 72 -33 221l-358 846h387l199 -570l207 570h389l-451 -1041q-119 -268 -240.5 -360t-351.5 -70v309zM477 1556l219 289h289l-219 -289h-289z" glyph-name="glyph668" horiz-adv-x="1265"/><glyph d="M104 0v1434h351v-467h239q285 0 424 -129t139 -354.5t-139 -354.5t-424 -129h-590zM455 297h235q193 0 193 186.5t-193 186.5h-235v-373zM774 1556l219 289h289l-219 -289h-289zM1405 0v1434h342v-1434h-342z" glyph-name="glyph669" horiz-adv-x="1851"/><glyph d="M395 -20q-141 0 -241.5 72.5t-100.5 226.5q0 70 24.5 123t59.5 82.5t88.5 51t96.5 30.5t100 16l199 26q61 8 76.5 27.5t15.5 81.5q0 74 -36 98.5t-97 24.5q-150 0 -150 -119v-8l-315 -4v45q0 332 475 331q244 0 351.5 -86t107.5 -262v-430q0 -55 15 -69.5t56 -18.5v-196 q-37 -35 -137 -35q-109 0 -181.5 47t-72.5 151v-4h-12q-8 -59 -90 -130.5t-232 -71.5zM385 322q0 -100 141 -101q90 0 138.5 46t48.5 106v90q-18 -16 -90 -27l-117 -16q-37 -8 -59.5 -16.5t-42 -29.5t-19.5 -52zM424 1188l219 289h289l-219 -289h-289z" glyph-name="glyph670"/><glyph d="M494 432v203h270q-43 170 -213 170q-160 0 -193 -166h-305q14 133 66.5 227.5t129.5 138.5t148.5 62t151.5 18q102 0 195.5 -30.5t173 -94t127 -174t47.5 -256t-47.5 -255t-127 -172t-173 -93t-195.5 -30.5q-63 0 -121.5 10t-125 40.5t-117 78t-87.5 130.5t-45 189h305 q33 -168 193 -168q172 0 215 172h-272zM430 1188l219 289h289l-219 -289h-289z" glyph-name="glyph671" horiz-adv-x="1144"/><glyph d="M74 0l252 367q-127 37 -196 126t-69 214q0 168 114 263t319 95h612v-1065h-336v346h-113l-231 -346h-352zM385 706.5q0 -98.5 121 -98.5h264v197h-264q-121 0 -121 -98.5zM436 1188l219 289h289l-219 -289h-289z" glyph-name="glyph672" horiz-adv-x="1210"/><glyph d="M596 -20q-104 0 -197.5 29.5t-172.5 92t-126 174t-47 261.5q0 279 153.5 413.5t389.5 134.5q229 0 372.5 -131t143.5 -422q0 -47 -6 -83h-735q25 -215 231 -216q168 0 201 127h295q-37 -182 -170 -281t-332 -99zM373 643h422q-6 80 -53.5 134t-153.5 54q-184 0 -215 -188 zM424 1188l219 289h289l-219 -289h-289z" glyph-name="glyph673" horiz-adv-x="1163"/><glyph d="M104 0v1065h336v-590h6l385 590h338v-1065h-335v567h-9l-370 -567h-351zM481 1188l219 289h289l-219 -289h-289z" glyph-name="glyph674" horiz-adv-x="1271"/><glyph d="M90 0v1065h336v-401h119q39 211 187.5 316t342.5 105q141 0 260 -54t200 -183t81 -315.5t-81 -315.5t-199.5 -183t-260.5 -54q-195 0 -343 105t-187 316h-119v-401h-336zM662 1188l219 289h288l-219 -289h-288zM848 532.5q0 -135.5 62.5 -205t165 -69.5t163.5 69.5 t61 205t-61 205t-163.5 69.5t-165 -69.5t-62.5 -205z" glyph-name="glyph675" horiz-adv-x="1667"/><glyph d="M594 -20q-104 0 -198.5 32.5t-172.5 96t-124 173t-46 251t46 251t124 173t172 96t199 32.5q141 0 260 -54t200 -183t81 -315.5t-81 -315.5t-200 -183t-260 -54zM367 532.5q0 -135.5 62.5 -205t164.5 -69.5t163.5 69.5t61.5 205t-61.5 205t-163.5 69.5t-164.5 -69.5 t-62.5 -205zM436 1188l219 289h289l-219 -289h-289z" glyph-name="glyph676" horiz-adv-x="1185"/><glyph d="M139 -131q231 -31 287 92q29 66 -6 148l-387 956h342l227 -637l234 637h344l-430 -1053q-109 -266 -238 -359t-373 -67v283zM446 1188l220 289h288l-219 -289h-289z" glyph-name="glyph677" horiz-adv-x="1210"/><glyph d="M104 0v1065h336v-346h277q203 0 317.5 -98.5t114.5 -262.5q0 -168 -113.5 -263t-318.5 -95h-613zM440 260h265q121 0 120.5 98.5t-120.5 98.5h-265v-197zM705 1188l219 289h288l-219 -289h-288zM1268 0v1065h336v-1065h-336z" glyph-name="glyph678" horiz-adv-x="1708"/></font>
</defs>
</svg>
